<svg width="139" height="35" viewBox="0 0 139 35" fill="none" xmlns="http://www.w3.org/2000/svg">
<path d="M11.8811 27.136C11.6251 27.136 11.3211 27.128 10.9691 27.112C10.6331 27.096 10.3051 27.088 9.98506 27.088L7.94506 34.048C7.46506 34.16 6.94506 34.232 6.38506 34.264C5.84106 34.312 5.27306 34.336 4.68106 34.336C4.10506 34.336 3.44906 34.288 2.71306 34.192C1.99306 34.112 1.41706 33.984 0.985063 33.808L0.697063 33.4L11.3051 1.216C11.9131 1.12 12.6411 1.048 13.4891 0.999997C14.3531 0.951999 15.1051 0.927999 15.7451 0.927999C16.3531 0.927999 17.0891 0.959999 17.9531 1.024C18.8171 1.072 19.5611 1.152 20.1851 1.264L30.5051 33.496C29.9771 33.8 29.2891 34.032 28.4411 34.192C27.6091 34.352 26.8331 34.432 26.1131 34.432C24.8971 34.432 23.9451 34.152 23.2571 33.592C22.5691 33.016 21.9931 31.904 21.5291 30.256L20.6171 27.088C20.3131 27.088 19.9851 27.096 19.6331 27.112C19.2811 27.128 18.9771 27.136 18.7211 27.136H11.8811ZM12.8411 17.368L11.7611 21.088C12.0651 21.088 12.3931 21.088 12.7451 21.088C13.0971 21.072 13.4091 21.064 13.6811 21.064H17.1851C17.4251 21.064 17.6971 21.072 18.0011 21.088C18.3211 21.088 18.6331 21.088 18.9371 21.088L18.0971 18.088C17.7291 16.744 17.2971 15.16 16.8011 13.336C16.3051 11.512 15.8571 9.808 15.4571 8.224H15.1691C15.0091 9.12 14.7931 10.112 14.5211 11.2C14.2491 12.288 13.9611 13.376 13.6571 14.464C13.3691 15.536 13.0971 16.504 12.8411 17.368ZM34.6184 7.504C35.4504 7.472 36.4504 7.44 37.6184 7.408C38.8024 7.376 40.0184 7.352 41.2664 7.336C42.5144 7.32 43.6584 7.312 44.6984 7.312C46.6664 7.312 48.4264 7.536 49.9784 7.984C51.5464 8.432 52.7784 9.176 53.6744 10.216C54.5704 11.24 55.0184 12.616 55.0184 14.344C55.0184 15.464 54.7064 16.528 54.0824 17.536C53.4744 18.544 52.6344 19.256 51.5624 19.672C52.9384 20.104 54.0904 20.952 55.0184 22.216C55.9464 23.464 56.4104 24.816 56.4104 26.272C56.4104 28.32 55.9304 29.92 54.9704 31.072C54.0264 32.208 52.7144 33.016 51.0344 33.496C49.3704 33.96 47.4664 34.192 45.3224 34.192C43.6744 34.192 41.9624 34.176 40.1864 34.144C38.4104 34.128 36.5544 34.096 34.6184 34.048L34.3544 33.808V7.792L34.6184 7.504ZM44.3624 12.472C44.0584 12.472 43.6504 12.472 43.1384 12.472C42.6264 12.472 42.1384 12.456 41.6744 12.424V17.584H44.3144C45.5944 17.584 46.4664 17.32 46.9304 16.792C47.3944 16.264 47.6264 15.672 47.6264 15.016C47.6264 14.376 47.3944 13.792 46.9304 13.264C46.4824 12.736 45.6264 12.472 44.3624 12.472ZM41.6744 29.032C42.3144 29 42.9384 28.984 43.5464 28.984C44.1544 28.984 44.7064 28.984 45.2024 28.984C46.6584 28.984 47.6184 28.656 48.0824 28C48.5624 27.328 48.8024 26.64 48.8024 25.936C48.8024 25.168 48.5144 24.448 47.9384 23.776C47.3784 23.104 46.3384 22.768 44.8184 22.768H41.6744V29.032ZM59.5042 20.824C59.5042 16.536 60.6082 13.136 62.8162 10.624C65.0402 8.096 68.2802 6.832 72.5362 6.832C76.8562 6.832 80.1122 8.088 82.3042 10.6C84.5122 13.096 85.6162 16.504 85.6162 20.824C85.6162 25.144 84.5122 28.544 82.3042 31.024C80.0962 33.488 76.8402 34.72 72.5362 34.72C68.2162 34.72 64.9602 33.472 62.7682 30.976C60.5922 28.48 59.5042 25.096 59.5042 20.824ZM67.2562 20.824C67.2562 21.736 67.3122 22.68 67.4242 23.656C67.5522 24.616 67.7922 25.512 68.1442 26.344C68.5122 27.176 69.0482 27.856 69.7522 28.384C70.4562 28.896 71.3922 29.152 72.5602 29.152C73.7282 29.152 74.6642 28.896 75.3682 28.384C76.0722 27.856 76.6002 27.176 76.9522 26.344C77.3202 25.512 77.5602 24.616 77.6722 23.656C77.8002 22.68 77.8642 21.736 77.8642 20.824C77.8642 19.896 77.8002 18.944 77.6722 17.968C77.5602 16.976 77.3202 16.064 76.9522 15.232C76.6002 14.384 76.0722 13.704 75.3682 13.192C74.6642 12.664 73.7282 12.4 72.5602 12.4C71.3922 12.4 70.4562 12.664 69.7522 13.192C69.0482 13.704 68.5122 14.384 68.1442 15.232C67.7922 16.064 67.5522 16.976 67.4242 17.968C67.3122 18.944 67.2562 19.896 67.2562 20.824ZM113.55 24.088C113.55 27.4 112.558 30 110.574 31.888C108.606 33.776 105.686 34.72 101.814 34.72C97.9416 34.72 95.0136 33.776 93.0296 31.888C91.0616 30 90.0776 27.4 90.0776 24.088V7.552L90.3656 7.264H93.1016C94.5576 7.264 95.6776 7.632 96.4616 8.368C97.2616 9.104 97.6616 10.344 97.6616 12.088V24.064C97.6616 25.52 97.9656 26.664 98.5736 27.496C99.1816 28.328 100.262 28.744 101.814 28.744C103.382 28.744 104.462 28.328 105.054 27.496C105.646 26.664 105.942 25.52 105.942 24.064V7.552C106.582 7.424 107.238 7.344 107.91 7.312C108.582 7.28 109.166 7.264 109.662 7.264C110.11 7.264 110.718 7.288 111.486 7.336C112.254 7.368 112.942 7.448 113.55 7.576V24.088ZM124.027 16.552C124.027 16.04 124.035 15.568 124.051 15.136C124.067 14.688 124.075 14.192 124.075 13.648C123.739 13.648 123.275 13.656 122.683 13.672C122.107 13.688 121.651 13.696 121.315 13.696H116.875C116.747 13.12 116.667 12.584 116.635 12.088C116.603 11.576 116.587 11.112 116.587 10.696C116.587 10.28 116.603 9.792 116.635 9.232C116.667 8.656 116.747 8.096 116.875 7.552H138.595C138.707 7.984 138.787 8.472 138.835 9.016C138.899 9.56 138.931 10 138.931 10.336C138.931 11.424 138.643 12.256 138.067 12.832C137.491 13.408 136.531 13.696 135.187 13.696H134.203C133.867 13.696 133.419 13.688 132.859 13.672C132.315 13.656 131.891 13.648 131.587 13.648C131.587 14.192 131.595 14.688 131.611 15.136C131.627 15.568 131.635 16.04 131.635 16.552V34C131.187 34.096 130.571 34.168 129.787 34.216C129.003 34.264 128.347 34.288 127.819 34.288C127.323 34.288 126.699 34.264 125.947 34.216C125.195 34.168 124.555 34.096 124.027 34V16.552Z" fill="white"/>
</svg>
