<svg width="303" height="26" viewBox="0 0 303 26" fill="none" xmlns="http://www.w3.org/2000/svg">
<path d="M8.95963 19.852C8.76763 19.852 8.53963 19.846 8.27563 19.834C8.02363 19.822 7.77763 19.816 7.53763 19.816L6.00763 25.036C5.64763 25.12 5.25763 25.174 4.83763 25.198C4.42963 25.234 4.00363 25.252 3.55963 25.252C3.12763 25.252 2.63563 25.216 2.08363 25.144C1.54363 25.084 1.11163 24.988 0.787625 24.856L0.571625 24.55L8.52763 0.411999C8.98363 0.339998 9.52963 0.285998 10.1656 0.249998C10.8136 0.213999 11.3776 0.196 11.8576 0.196C12.3136 0.196 12.8656 0.219999 13.5136 0.267999C14.1616 0.303999 14.7196 0.363999 15.1876 0.447999L22.9276 24.622C22.5316 24.85 22.0156 25.024 21.3796 25.144C20.7556 25.264 20.1736 25.324 19.6336 25.324C18.7216 25.324 18.0076 25.114 17.4916 24.694C16.9756 24.262 16.5436 23.428 16.1956 22.192L15.5116 19.816C15.2836 19.816 15.0376 19.822 14.7736 19.834C14.5096 19.846 14.2816 19.852 14.0896 19.852H8.95963ZM9.67963 12.526L8.86963 15.316C9.09763 15.316 9.34363 15.316 9.60763 15.316C9.87163 15.304 10.1056 15.298 10.3096 15.298H12.9376C13.1176 15.298 13.3216 15.304 13.5496 15.316C13.7896 15.316 14.0236 15.316 14.2516 15.316L13.6216 13.066C13.3456 12.058 13.0216 10.87 12.6496 9.502C12.2776 8.134 11.9416 6.856 11.6416 5.668H11.4256C11.3056 6.34 11.1436 7.084 10.9396 7.9C10.7356 8.716 10.5196 9.532 10.2916 10.348C10.0756 11.152 9.87163 11.878 9.67963 12.526ZM37.4787 19.744C37.4787 19.144 37.4907 18.544 37.5147 17.944C37.2987 17.944 37.0767 17.944 36.8487 17.944C36.6327 17.944 36.4227 17.944 36.2187 17.944C35.3307 17.944 34.6827 17.758 34.2747 17.386C33.8667 17.002 33.6627 16.396 33.6627 15.568C33.6627 15.244 33.6867 14.866 33.7347 14.434C33.7947 14.002 33.8667 13.672 33.9507 13.444C34.8147 13.408 35.6727 13.39 36.5247 13.39C37.3767 13.378 38.2407 13.372 39.1167 13.372C40.4967 13.372 41.4387 13.636 41.9427 14.164C42.4587 14.692 42.7167 15.442 42.7167 16.414V24.37C42.0807 24.574 41.2707 24.766 40.2867 24.946C39.3027 25.126 38.2827 25.27 37.2267 25.378C36.1707 25.486 35.2107 25.54 34.3467 25.54C31.9587 25.54 30.0267 25.102 28.5507 24.226C27.0867 23.35 26.0187 22.15 25.3467 20.626C24.6867 19.09 24.3567 17.35 24.3567 15.406C24.3567 12.838 24.8307 10.768 25.7787 9.196C26.7387 7.612 28.0107 6.454 29.5947 5.722C31.1787 4.99 32.9127 4.624 34.7967 4.624C36.2127 4.624 37.5747 4.768 38.8827 5.056C40.2027 5.332 41.3667 5.704 42.3747 6.172C42.3147 6.952 42.0807 7.768 41.6727 8.62C41.2767 9.46 40.8267 10.102 40.3227 10.546C38.4867 9.634 36.7407 9.178 35.0847 9.178C31.8087 9.178 30.1707 11.23 30.1707 15.334C30.1707 17.374 30.5907 18.88 31.4307 19.852C32.2707 20.824 33.5607 21.31 35.3007 21.31C35.6607 21.31 36.0267 21.298 36.3987 21.274C36.7707 21.238 37.1307 21.19 37.4787 21.13V19.744ZM63.1779 11.194C63.1779 12.118 62.9679 12.94 62.5479 13.66C62.1279 14.38 61.5999 14.974 60.9639 15.442C60.3399 15.91 59.7159 16.21 59.0919 16.342C59.7399 16.558 60.2739 16.888 60.6939 17.332C61.1259 17.776 61.4979 18.346 61.8099 19.042L62.7459 21.184C62.9619 21.676 63.2079 22.132 63.4839 22.552C63.7599 22.96 64.0659 23.308 64.4019 23.596C64.0539 24.028 63.5319 24.43 62.8359 24.802C62.1399 25.162 61.3839 25.342 60.5679 25.342C59.7639 25.342 59.1099 25.15 58.6059 24.766C58.1139 24.37 57.6819 23.74 57.3099 22.876L55.7259 19.24C55.4739 18.652 55.1619 18.298 54.7899 18.178C54.4179 18.058 53.9379 17.998 53.3499 17.998H52.6479V25C52.1679 25.084 51.6699 25.138 51.1539 25.162C50.6499 25.198 50.2179 25.216 49.8579 25.216C49.5219 25.216 49.0779 25.198 48.5259 25.162C47.9739 25.138 47.4699 25.084 47.0139 25V5.344L47.2119 5.128C48.6639 5.092 50.0259 5.062 51.2979 5.038C52.5819 5.002 53.8599 4.984 55.1319 4.984C56.5719 4.984 57.9039 5.176 59.1279 5.56C60.3519 5.932 61.3299 6.574 62.0619 7.486C62.8059 8.386 63.1779 9.622 63.1779 11.194ZM52.6479 9.052V13.714C53.0679 13.702 53.4519 13.696 53.7999 13.696C54.1599 13.684 54.4239 13.678 54.5919 13.678C55.6719 13.678 56.4039 13.444 56.7879 12.976C57.1719 12.508 57.3639 11.962 57.3639 11.338C57.3639 10.726 57.1719 10.198 56.7879 9.754C56.4039 9.31 55.7619 9.088 54.8619 9.088C54.4299 9.088 54.0579 9.082 53.7459 9.07C53.4339 9.058 53.0679 9.052 52.6479 9.052ZM82.612 20.482C82.612 22.198 82.342 23.392 81.802 24.064C81.274 24.736 80.374 25.072 79.102 25.072H70.804C69.784 25.072 68.98 24.784 68.392 24.208C67.804 23.62 67.51 22.834 67.51 21.85V5.362L67.708 5.164H81.946C82.03 5.572 82.078 5.962 82.09 6.334C82.102 6.706 82.108 7.06 82.108 7.396C82.108 7.72 82.072 8.086 82 8.494C81.94 8.902 81.832 9.316 81.676 9.736H75.376C74.872 9.736 74.11 9.73 73.09 9.718C73.102 10.09 73.108 10.408 73.108 10.672C73.12 10.936 73.126 11.254 73.126 11.626V12.814C74.122 12.802 74.872 12.796 75.376 12.796H79.984C80.104 13.12 80.182 13.492 80.218 13.912C80.266 14.32 80.29 14.668 80.29 14.956C80.29 15.292 80.266 15.67 80.218 16.09C80.182 16.498 80.104 16.87 79.984 17.206H75.376C75.148 17.206 74.83 17.206 74.422 17.206C74.014 17.206 73.582 17.206 73.126 17.206V18.376C73.126 18.82 73.12 19.186 73.108 19.474C73.096 19.762 73.09 20.122 73.09 20.554V20.59C73.51 20.566 73.9 20.542 74.26 20.518C74.62 20.494 75.058 20.482 75.574 20.482H82.612ZM97.8771 19.744C97.8771 19.144 97.8891 18.544 97.9131 17.944C97.6971 17.944 97.4751 17.944 97.2471 17.944C97.0311 17.944 96.8211 17.944 96.6171 17.944C95.7291 17.944 95.0811 17.758 94.6731 17.386C94.2651 17.002 94.0611 16.396 94.0611 15.568C94.0611 15.244 94.0851 14.866 94.1331 14.434C94.1931 14.002 94.2651 13.672 94.3491 13.444C95.2131 13.408 96.0711 13.39 96.9231 13.39C97.7751 13.378 98.6391 13.372 99.5151 13.372C100.895 13.372 101.837 13.636 102.341 14.164C102.857 14.692 103.115 15.442 103.115 16.414V24.37C102.479 24.574 101.669 24.766 100.685 24.946C99.7011 25.126 98.6811 25.27 97.6251 25.378C96.5691 25.486 95.6091 25.54 94.7451 25.54C92.3571 25.54 90.4251 25.102 88.9491 24.226C87.4851 23.35 86.4171 22.15 85.7451 20.626C85.0851 19.09 84.7551 17.35 84.7551 15.406C84.7551 12.838 85.2291 10.768 86.1771 9.196C87.1371 7.612 88.4091 6.454 89.9931 5.722C91.5771 4.99 93.3111 4.624 95.1951 4.624C96.6111 4.624 97.9731 4.768 99.2811 5.056C100.601 5.332 101.765 5.704 102.773 6.172C102.713 6.952 102.479 7.768 102.071 8.62C101.675 9.46 101.225 10.102 100.721 10.546C98.8851 9.634 97.1391 9.178 95.4831 9.178C92.2071 9.178 90.5691 11.23 90.5691 15.334C90.5691 17.374 90.9891 18.88 91.8291 19.852C92.6691 20.824 93.9591 21.31 95.6991 21.31C96.0591 21.31 96.4251 21.298 96.7971 21.274C97.1691 21.238 97.5291 21.19 97.8771 21.13V19.744ZM112.452 21.526C112.26 21.526 112.074 21.526 111.894 21.526C111.714 21.514 111.534 21.502 111.354 21.49L110.238 25C109.89 25.084 109.512 25.144 109.104 25.18C108.696 25.228 108.27 25.252 107.826 25.252C107.346 25.252 106.86 25.216 106.368 25.144C105.888 25.072 105.492 24.97 105.18 24.838L104.982 24.532L111.984 5.164C112.608 5.068 113.208 5.008 113.784 4.984C114.372 4.96 114.906 4.948 115.386 4.948C115.83 4.948 116.31 4.96 116.826 4.984C117.342 5.008 117.924 5.068 118.572 5.164L125.376 24.73C124.956 24.922 124.422 25.066 123.774 25.162C123.126 25.27 122.604 25.324 122.208 25.324C121.548 25.324 120.912 25.198 120.3 24.946C119.688 24.694 119.226 24.028 118.914 22.948L118.464 21.49C118.272 21.502 118.086 21.514 117.906 21.526C117.726 21.526 117.534 21.526 117.33 21.526H112.452ZM113.172 15.838L112.776 17.08C112.956 17.068 113.136 17.062 113.316 17.062C113.496 17.05 113.682 17.044 113.874 17.044H116.124C116.304 17.044 116.466 17.05 116.61 17.062C116.766 17.062 116.922 17.068 117.078 17.08L116.7 15.856C116.424 14.908 116.148 13.852 115.872 12.688C115.596 11.524 115.344 10.468 115.116 9.52H114.9C114.648 10.432 114.366 11.476 114.054 12.652C113.754 13.828 113.46 14.89 113.172 15.838ZM144.283 11.194C144.283 12.118 144.073 12.94 143.653 13.66C143.233 14.38 142.705 14.974 142.069 15.442C141.445 15.91 140.821 16.21 140.197 16.342C140.845 16.558 141.379 16.888 141.799 17.332C142.231 17.776 142.603 18.346 142.915 19.042L143.851 21.184C144.067 21.676 144.313 22.132 144.589 22.552C144.865 22.96 145.171 23.308 145.507 23.596C145.159 24.028 144.637 24.43 143.941 24.802C143.245 25.162 142.489 25.342 141.673 25.342C140.869 25.342 140.215 25.15 139.711 24.766C139.219 24.37 138.787 23.74 138.415 22.876L136.831 19.24C136.579 18.652 136.267 18.298 135.895 18.178C135.523 18.058 135.043 17.998 134.455 17.998H133.753V25C133.273 25.084 132.775 25.138 132.259 25.162C131.755 25.198 131.323 25.216 130.963 25.216C130.627 25.216 130.183 25.198 129.631 25.162C129.079 25.138 128.575 25.084 128.119 25V5.344L128.317 5.128C129.769 5.092 131.131 5.062 132.403 5.038C133.687 5.002 134.965 4.984 136.237 4.984C137.677 4.984 139.009 5.176 140.233 5.56C141.457 5.932 142.435 6.574 143.167 7.486C143.911 8.386 144.283 9.622 144.283 11.194ZM133.753 9.052V13.714C134.173 13.702 134.557 13.696 134.905 13.696C135.265 13.684 135.529 13.678 135.697 13.678C136.777 13.678 137.509 13.444 137.893 12.976C138.277 12.508 138.469 11.962 138.469 11.338C138.469 10.726 138.277 10.198 137.893 9.754C137.509 9.31 136.867 9.088 135.967 9.088C135.535 9.088 135.163 9.082 134.851 9.07C134.539 9.058 134.173 9.052 133.753 9.052ZM157.804 0.447999C158.416 0.339999 159.082 0.267999 159.802 0.231999C160.534 0.195999 161.164 0.177999 161.692 0.177999C162.22 0.177999 162.808 0.195999 163.456 0.231999C164.104 0.267999 164.734 0.339999 165.346 0.447999L167.47 9.25C167.518 9.466 167.596 9.838 167.704 10.366C167.824 10.894 167.956 11.494 168.1 12.166C168.244 12.838 168.376 13.498 168.496 14.146C168.628 14.794 168.73 15.346 168.802 15.802H169.054C169.126 15.346 169.228 14.794 169.36 14.146C169.492 13.498 169.624 12.838 169.756 12.166C169.9 11.494 170.032 10.894 170.152 10.366C170.272 9.838 170.356 9.466 170.404 9.25L172.528 0.447999C173.14 0.339999 173.764 0.267999 174.4 0.231999C175.048 0.195999 175.636 0.177999 176.164 0.177999C176.692 0.177999 177.322 0.195999 178.054 0.231999C178.786 0.267999 179.452 0.339999 180.052 0.447999L181.96 24.928C181.552 25.036 181.078 25.108 180.538 25.144C180.01 25.192 179.512 25.216 179.044 25.216C178.612 25.216 178.186 25.204 177.766 25.18C177.358 25.156 176.944 25.108 176.524 25.036L175.984 15.01C175.912 13.738 175.846 12.334 175.786 10.798C175.726 9.262 175.696 7.906 175.696 6.73H175.444L171.898 21.382C171.466 21.454 170.962 21.508 170.386 21.544C169.81 21.568 169.318 21.58 168.91 21.58C168.55 21.58 168.076 21.568 167.488 21.544C166.9 21.508 166.39 21.454 165.958 21.382L162.412 6.73H162.178C162.166 7.906 162.13 9.262 162.07 10.798C162.022 12.334 161.962 13.738 161.89 15.01L161.332 25.036C160.924 25.108 160.51 25.156 160.09 25.18C159.67 25.204 159.244 25.216 158.812 25.216C158.356 25.216 157.858 25.192 157.318 25.144C156.79 25.108 156.316 25.036 155.896 24.928L157.804 0.447999ZM186.586 5.164C187.042 5.068 187.558 5.008 188.134 4.984C188.71 4.96 189.166 4.948 189.502 4.948C189.862 4.948 190.294 4.96 190.798 4.984C191.314 5.008 191.812 5.068 192.292 5.164V25C191.812 25.084 191.314 25.138 190.798 25.162C190.294 25.198 189.862 25.216 189.502 25.216C189.166 25.216 188.71 25.198 188.134 25.162C187.558 25.138 187.042 25.084 186.586 25V5.164ZM212.62 20.482C212.62 22.198 212.35 23.392 211.81 24.064C211.282 24.736 210.382 25.072 209.11 25.072H200.812C199.792 25.072 198.988 24.784 198.4 24.208C197.812 23.62 197.518 22.834 197.518 21.85V5.362L197.716 5.164H211.954C212.038 5.572 212.086 5.962 212.098 6.334C212.11 6.706 212.116 7.06 212.116 7.396C212.116 7.72 212.08 8.086 212.008 8.494C211.948 8.902 211.84 9.316 211.684 9.736H205.384C204.88 9.736 204.118 9.73 203.098 9.718C203.11 10.09 203.116 10.408 203.116 10.672C203.128 10.936 203.134 11.254 203.134 11.626V12.814C204.13 12.802 204.88 12.796 205.384 12.796H209.992C210.112 13.12 210.19 13.492 210.226 13.912C210.274 14.32 210.298 14.668 210.298 14.956C210.298 15.292 210.274 15.67 210.226 16.09C210.19 16.498 210.112 16.87 209.992 17.206H205.384C205.156 17.206 204.838 17.206 204.43 17.206C204.022 17.206 203.59 17.206 203.134 17.206V18.376C203.134 18.82 203.128 19.186 203.116 19.474C203.104 19.762 203.098 20.122 203.098 20.554V20.59C203.518 20.566 203.908 20.542 204.268 20.518C204.628 20.494 205.066 20.482 205.582 20.482H212.62ZM217.797 5.164C218.373 5.056 219.003 4.984 219.687 4.948C220.371 4.9 220.947 4.876 221.415 4.876C221.859 4.876 222.435 4.9 223.143 4.948C223.851 4.984 224.445 5.056 224.925 5.164L226.689 12.976C226.797 13.444 226.923 14.08 227.067 14.884C227.211 15.676 227.355 16.528 227.499 17.44H227.733C228.021 15.52 228.291 14.032 228.543 12.976L230.289 5.164C230.853 5.056 231.471 4.984 232.143 4.948C232.815 4.9 233.373 4.876 233.817 4.876C234.285 4.876 234.867 4.9 235.563 4.948C236.259 4.984 236.883 5.056 237.435 5.164L239.469 24.928C238.689 25.12 237.747 25.216 236.643 25.216C236.223 25.216 235.773 25.198 235.293 25.162C234.825 25.126 234.405 25.072 234.033 25L233.511 18.628C233.451 17.812 233.415 16.918 233.403 15.946C233.391 14.974 233.391 14.026 233.403 13.102C233.415 12.166 233.415 11.356 233.403 10.672H233.187L230.541 21.958C230.133 22.03 229.635 22.084 229.047 22.12C228.459 22.144 227.973 22.156 227.589 22.156C227.193 22.156 226.701 22.144 226.113 22.12C225.537 22.084 225.057 22.03 224.673 21.958L222.045 10.672H221.793C221.793 11.368 221.793 12.178 221.793 13.102C221.805 14.026 221.805 14.974 221.793 15.946C221.781 16.918 221.739 17.824 221.667 18.664L221.199 25C220.815 25.072 220.395 25.126 219.939 25.162C219.495 25.198 219.063 25.216 218.643 25.216C217.527 25.216 216.567 25.12 215.763 24.928L217.797 5.164ZM244.087 5.128C244.711 5.104 245.461 5.08 246.337 5.056C247.225 5.032 248.137 5.014 249.073 5.002C250.009 4.99 250.867 4.984 251.647 4.984C253.123 4.984 254.443 5.152 255.607 5.488C256.783 5.824 257.707 6.382 258.379 7.162C259.051 7.93 259.387 8.962 259.387 10.258C259.387 11.098 259.153 11.896 258.685 12.652C258.229 13.408 257.599 13.942 256.795 14.254C257.827 14.578 258.691 15.214 259.387 16.162C260.083 17.098 260.431 18.112 260.431 19.204C260.431 20.74 260.071 21.94 259.351 22.804C258.643 23.656 257.659 24.262 256.399 24.622C255.151 24.97 253.723 25.144 252.115 25.144C250.879 25.144 249.595 25.132 248.263 25.108C246.931 25.096 245.539 25.072 244.087 25.036L243.889 24.856V5.344L244.087 5.128ZM251.395 8.854C251.167 8.854 250.861 8.854 250.477 8.854C250.093 8.854 249.727 8.842 249.379 8.818V12.688H251.359C252.319 12.688 252.973 12.49 253.321 12.094C253.669 11.698 253.843 11.254 253.843 10.762C253.843 10.282 253.669 9.844 253.321 9.448C252.985 9.052 252.343 8.854 251.395 8.854ZM249.379 21.274C249.859 21.25 250.327 21.238 250.783 21.238C251.239 21.238 251.653 21.238 252.025 21.238C253.117 21.238 253.837 20.992 254.185 20.5C254.545 19.996 254.725 19.48 254.725 18.952C254.725 18.376 254.509 17.836 254.077 17.332C253.657 16.828 252.877 16.576 251.737 16.576H249.379V21.274ZM280.373 11.194C280.373 12.118 280.163 12.94 279.743 13.66C279.323 14.38 278.795 14.974 278.159 15.442C277.535 15.91 276.911 16.21 276.287 16.342C276.935 16.558 277.469 16.888 277.889 17.332C278.321 17.776 278.693 18.346 279.005 19.042L279.941 21.184C280.157 21.676 280.403 22.132 280.679 22.552C280.955 22.96 281.261 23.308 281.597 23.596C281.249 24.028 280.727 24.43 280.031 24.802C279.335 25.162 278.579 25.342 277.763 25.342C276.959 25.342 276.305 25.15 275.801 24.766C275.309 24.37 274.877 23.74 274.505 22.876L272.921 19.24C272.669 18.652 272.357 18.298 271.985 18.178C271.613 18.058 271.133 17.998 270.545 17.998H269.843V25C269.363 25.084 268.865 25.138 268.349 25.162C267.845 25.198 267.413 25.216 267.053 25.216C266.717 25.216 266.273 25.198 265.721 25.162C265.169 25.138 264.665 25.084 264.209 25V5.344L264.407 5.128C265.859 5.092 267.221 5.062 268.493 5.038C269.777 5.002 271.055 4.984 272.327 4.984C273.767 4.984 275.099 5.176 276.323 5.56C277.547 5.932 278.525 6.574 279.257 7.486C280.001 8.386 280.373 9.622 280.373 11.194ZM269.843 9.052V13.714C270.263 13.702 270.647 13.696 270.995 13.696C271.355 13.684 271.619 13.678 271.787 13.678C272.867 13.678 273.599 13.444 273.983 12.976C274.367 12.508 274.559 11.962 274.559 11.338C274.559 10.726 274.367 10.198 273.983 9.754C273.599 9.31 272.957 9.088 272.057 9.088C271.625 9.088 271.253 9.082 270.941 9.07C270.629 9.058 270.263 9.052 269.843 9.052ZM283.036 15.118C283.036 11.902 283.864 9.352 285.52 7.468C287.188 5.572 289.618 4.624 292.81 4.624C296.05 4.624 298.492 5.566 300.136 7.45C301.792 9.322 302.62 11.878 302.62 15.118C302.62 18.358 301.792 20.908 300.136 22.768C298.48 24.616 296.038 25.54 292.81 25.54C289.57 25.54 287.128 24.604 285.484 22.732C283.852 20.86 283.036 18.322 283.036 15.118ZM288.85 15.118C288.85 15.802 288.892 16.51 288.976 17.242C289.072 17.962 289.252 18.634 289.516 19.258C289.792 19.882 290.194 20.392 290.722 20.788C291.25 21.172 291.952 21.364 292.828 21.364C293.704 21.364 294.406 21.172 294.934 20.788C295.462 20.392 295.858 19.882 296.122 19.258C296.398 18.634 296.578 17.962 296.662 17.242C296.758 16.51 296.806 15.802 296.806 15.118C296.806 14.422 296.758 13.708 296.662 12.976C296.578 12.232 296.398 11.548 296.122 10.924C295.858 10.288 295.462 9.778 294.934 9.394C294.406 8.998 293.704 8.8 292.828 8.8C291.952 8.8 291.25 8.998 290.722 9.394C290.194 9.778 289.792 10.288 289.516 10.924C289.252 11.548 289.072 12.232 288.976 12.976C288.892 13.708 288.85 14.422 288.85 15.118Z" fill="#364760"/>
</svg>
