<svg width="337" height="78" viewBox="0 0 337 78" fill="none" xmlns="http://www.w3.org/2000/svg">
<rect width="337" height="78" rx="10" fill="#1EBCBC"/>
<path d="M104.835 41.658C104.643 41.658 104.415 41.652 104.151 41.64C103.899 41.628 103.653 41.622 103.413 41.622L101.883 46.842C101.523 46.926 101.133 46.98 100.713 47.004C100.305 47.04 99.8795 47.058 99.4355 47.058C99.0035 47.058 98.5115 47.022 97.9595 46.95C97.4195 46.89 96.9875 46.794 96.6635 46.662L96.4475 46.356L104.403 22.218C104.859 22.146 105.405 22.092 106.041 22.056C106.689 22.02 107.253 22.002 107.733 22.002C108.189 22.002 108.741 22.026 109.389 22.074C110.037 22.11 110.595 22.17 111.063 22.254L118.803 46.428C118.407 46.656 117.891 46.83 117.255 46.95C116.631 47.07 116.049 47.13 115.509 47.13C114.597 47.13 113.883 46.92 113.367 46.5C112.851 46.068 112.419 45.234 112.071 43.998L111.387 41.622C111.159 41.622 110.913 41.628 110.649 41.64C110.385 41.652 110.157 41.658 109.965 41.658H104.835ZM105.555 34.332L104.745 37.122C104.973 37.122 105.219 37.122 105.483 37.122C105.747 37.11 105.981 37.104 106.185 37.104H108.813C108.993 37.104 109.197 37.11 109.425 37.122C109.665 37.122 109.899 37.122 110.127 37.122L109.497 34.872C109.221 33.864 108.897 32.676 108.525 31.308C108.153 29.94 107.817 28.662 107.517 27.474H107.301C107.181 28.146 107.019 28.89 106.815 29.706C106.611 30.522 106.395 31.338 106.167 32.154C105.951 32.958 105.747 33.684 105.555 34.332ZM133.354 41.55C133.354 40.95 133.366 40.35 133.39 39.75C133.174 39.75 132.952 39.75 132.724 39.75C132.508 39.75 132.298 39.75 132.094 39.75C131.206 39.75 130.558 39.564 130.15 39.192C129.742 38.808 129.538 38.202 129.538 37.374C129.538 37.05 129.562 36.672 129.61 36.24C129.67 35.808 129.742 35.478 129.826 35.25C130.69 35.214 131.548 35.196 132.4 35.196C133.252 35.184 134.116 35.178 134.992 35.178C136.372 35.178 137.314 35.442 137.818 35.97C138.334 36.498 138.592 37.248 138.592 38.22V46.176C137.956 46.38 137.146 46.572 136.162 46.752C135.178 46.932 134.158 47.076 133.102 47.184C132.046 47.292 131.086 47.346 130.222 47.346C127.834 47.346 125.902 46.908 124.426 46.032C122.962 45.156 121.894 43.956 121.222 42.432C120.562 40.896 120.232 39.156 120.232 37.212C120.232 34.644 120.706 32.574 121.654 31.002C122.614 29.418 123.886 28.26 125.47 27.528C127.054 26.796 128.788 26.43 130.672 26.43C132.088 26.43 133.45 26.574 134.758 26.862C136.078 27.138 137.242 27.51 138.25 27.978C138.19 28.758 137.956 29.574 137.548 30.426C137.152 31.266 136.702 31.908 136.198 32.352C134.362 31.44 132.616 30.984 130.96 30.984C127.684 30.984 126.046 33.036 126.046 37.14C126.046 39.18 126.466 40.686 127.306 41.658C128.146 42.63 129.436 43.116 131.176 43.116C131.536 43.116 131.902 43.104 132.274 43.08C132.646 43.044 133.006 42.996 133.354 42.936V41.55ZM159.054 33C159.054 33.924 158.844 34.746 158.424 35.466C158.004 36.186 157.476 36.78 156.84 37.248C156.216 37.716 155.592 38.016 154.968 38.148C155.616 38.364 156.15 38.694 156.57 39.138C157.002 39.582 157.374 40.152 157.686 40.848L158.622 42.99C158.838 43.482 159.084 43.938 159.36 44.358C159.636 44.766 159.942 45.114 160.278 45.402C159.93 45.834 159.408 46.236 158.712 46.608C158.016 46.968 157.26 47.148 156.444 47.148C155.64 47.148 154.986 46.956 154.482 46.572C153.99 46.176 153.558 45.546 153.186 44.682L151.602 41.046C151.35 40.458 151.038 40.104 150.666 39.984C150.294 39.864 149.814 39.804 149.226 39.804H148.524V46.806C148.044 46.89 147.546 46.944 147.03 46.968C146.526 47.004 146.094 47.022 145.734 47.022C145.398 47.022 144.954 47.004 144.402 46.968C143.85 46.944 143.346 46.89 142.89 46.806V27.15L143.088 26.934C144.54 26.898 145.902 26.868 147.174 26.844C148.458 26.808 149.736 26.79 151.008 26.79C152.448 26.79 153.78 26.982 155.004 27.366C156.228 27.738 157.206 28.38 157.938 29.292C158.682 30.192 159.054 31.428 159.054 33ZM148.524 30.858V35.52C148.944 35.508 149.328 35.502 149.676 35.502C150.036 35.49 150.3 35.484 150.468 35.484C151.548 35.484 152.28 35.25 152.664 34.782C153.048 34.314 153.24 33.768 153.24 33.144C153.24 32.532 153.048 32.004 152.664 31.56C152.28 31.116 151.638 30.894 150.738 30.894C150.306 30.894 149.934 30.888 149.622 30.876C149.31 30.864 148.944 30.858 148.524 30.858ZM178.488 42.288C178.488 44.004 178.218 45.198 177.678 45.87C177.15 46.542 176.25 46.878 174.978 46.878H166.68C165.66 46.878 164.856 46.59 164.268 46.014C163.68 45.426 163.386 44.64 163.386 43.656V27.168L163.584 26.97H177.822C177.906 27.378 177.954 27.768 177.966 28.14C177.978 28.512 177.984 28.866 177.984 29.202C177.984 29.526 177.948 29.892 177.876 30.3C177.816 30.708 177.708 31.122 177.552 31.542H171.252C170.748 31.542 169.986 31.536 168.966 31.524C168.978 31.896 168.984 32.214 168.984 32.478C168.996 32.742 169.002 33.06 169.002 33.432V34.62C169.998 34.608 170.748 34.602 171.252 34.602H175.86C175.98 34.926 176.058 35.298 176.094 35.718C176.142 36.126 176.166 36.474 176.166 36.762C176.166 37.098 176.142 37.476 176.094 37.896C176.058 38.304 175.98 38.676 175.86 39.012H171.252C171.024 39.012 170.706 39.012 170.298 39.012C169.89 39.012 169.458 39.012 169.002 39.012V40.182C169.002 40.626 168.996 40.992 168.984 41.28C168.972 41.568 168.966 41.928 168.966 42.36V42.396C169.386 42.372 169.776 42.348 170.136 42.324C170.496 42.3 170.934 42.288 171.45 42.288H178.488ZM193.753 41.55C193.753 40.95 193.765 40.35 193.789 39.75C193.573 39.75 193.351 39.75 193.123 39.75C192.907 39.75 192.697 39.75 192.493 39.75C191.605 39.75 190.957 39.564 190.549 39.192C190.141 38.808 189.937 38.202 189.937 37.374C189.937 37.05 189.961 36.672 190.009 36.24C190.069 35.808 190.141 35.478 190.225 35.25C191.089 35.214 191.947 35.196 192.799 35.196C193.651 35.184 194.515 35.178 195.391 35.178C196.771 35.178 197.713 35.442 198.217 35.97C198.733 36.498 198.991 37.248 198.991 38.22V46.176C198.355 46.38 197.545 46.572 196.561 46.752C195.577 46.932 194.557 47.076 193.501 47.184C192.445 47.292 191.485 47.346 190.621 47.346C188.233 47.346 186.301 46.908 184.825 46.032C183.361 45.156 182.293 43.956 181.621 42.432C180.961 40.896 180.631 39.156 180.631 37.212C180.631 34.644 181.105 32.574 182.053 31.002C183.013 29.418 184.285 28.26 185.869 27.528C187.453 26.796 189.187 26.43 191.071 26.43C192.487 26.43 193.849 26.574 195.157 26.862C196.477 27.138 197.641 27.51 198.649 27.978C198.589 28.758 198.355 29.574 197.947 30.426C197.551 31.266 197.101 31.908 196.597 32.352C194.761 31.44 193.015 30.984 191.359 30.984C188.083 30.984 186.445 33.036 186.445 37.14C186.445 39.18 186.865 40.686 187.705 41.658C188.545 42.63 189.835 43.116 191.575 43.116C191.935 43.116 192.301 43.104 192.673 43.08C193.045 43.044 193.405 42.996 193.753 42.936V41.55ZM208.328 43.332C208.136 43.332 207.95 43.332 207.77 43.332C207.59 43.32 207.41 43.308 207.23 43.296L206.114 46.806C205.766 46.89 205.388 46.95 204.98 46.986C204.572 47.034 204.146 47.058 203.702 47.058C203.222 47.058 202.736 47.022 202.244 46.95C201.764 46.878 201.368 46.776 201.056 46.644L200.858 46.338L207.86 26.97C208.484 26.874 209.084 26.814 209.66 26.79C210.248 26.766 210.782 26.754 211.262 26.754C211.706 26.754 212.186 26.766 212.702 26.79C213.218 26.814 213.8 26.874 214.448 26.97L221.252 46.536C220.832 46.728 220.298 46.872 219.65 46.968C219.002 47.076 218.48 47.13 218.084 47.13C217.424 47.13 216.788 47.004 216.176 46.752C215.564 46.5 215.102 45.834 214.79 44.754L214.34 43.296C214.148 43.308 213.962 43.32 213.782 43.332C213.602 43.332 213.41 43.332 213.206 43.332H208.328ZM209.048 37.644L208.652 38.886C208.832 38.874 209.012 38.868 209.192 38.868C209.372 38.856 209.558 38.85 209.75 38.85H212C212.18 38.85 212.342 38.856 212.486 38.868C212.642 38.868 212.798 38.874 212.954 38.886L212.576 37.662C212.3 36.714 212.024 35.658 211.748 34.494C211.472 33.33 211.22 32.274 210.992 31.326H210.776C210.524 32.238 210.242 33.282 209.93 34.458C209.63 35.634 209.336 36.696 209.048 37.644ZM240.159 33C240.159 33.924 239.949 34.746 239.529 35.466C239.109 36.186 238.581 36.78 237.945 37.248C237.321 37.716 236.697 38.016 236.073 38.148C236.721 38.364 237.255 38.694 237.675 39.138C238.107 39.582 238.479 40.152 238.791 40.848L239.727 42.99C239.943 43.482 240.189 43.938 240.465 44.358C240.741 44.766 241.047 45.114 241.383 45.402C241.035 45.834 240.513 46.236 239.817 46.608C239.121 46.968 238.365 47.148 237.549 47.148C236.745 47.148 236.091 46.956 235.587 46.572C235.095 46.176 234.663 45.546 234.291 44.682L232.707 41.046C232.455 40.458 232.143 40.104 231.771 39.984C231.399 39.864 230.919 39.804 230.331 39.804H229.629V46.806C229.149 46.89 228.651 46.944 228.135 46.968C227.631 47.004 227.199 47.022 226.839 47.022C226.503 47.022 226.059 47.004 225.507 46.968C224.955 46.944 224.451 46.89 223.995 46.806V27.15L224.193 26.934C225.645 26.898 227.007 26.868 228.279 26.844C229.563 26.808 230.841 26.79 232.113 26.79C233.553 26.79 234.885 26.982 236.109 27.366C237.333 27.738 238.311 28.38 239.043 29.292C239.787 30.192 240.159 31.428 240.159 33ZM229.629 30.858V35.52C230.049 35.508 230.433 35.502 230.781 35.502C231.141 35.49 231.405 35.484 231.573 35.484C232.653 35.484 233.385 35.25 233.769 34.782C234.153 34.314 234.345 33.768 234.345 33.144C234.345 32.532 234.153 32.004 233.769 31.56C233.385 31.116 232.743 30.894 231.843 30.894C231.411 30.894 231.039 30.888 230.727 30.876C230.415 30.864 230.049 30.858 229.629 30.858Z" fill="white"/>
</svg>
