<svg width="106" height="27" viewBox="0 0 106 27" fill="none" xmlns="http://www.w3.org/2000/svg">
<path d="M15.6943 19.322C15.6943 18.926 15.7003 18.518 15.7123 18.098C15.7243 17.678 15.7423 17.252 15.7663 16.82H14.0023C13.0783 16.82 12.3883 16.646 11.9323 16.298C11.4763 15.95 11.2483 15.32 11.2483 14.408C11.2483 14.036 11.2843 13.634 11.3563 13.202C11.4403 12.77 11.5423 12.38 11.6623 12.032H17.2963C18.7243 12.032 19.7143 12.368 20.2663 13.04C20.8183 13.7 21.0943 14.552 21.0943 15.596V25.046C20.0503 25.394 18.7003 25.73 17.0443 26.054C15.3883 26.378 13.5763 26.54 11.6083 26.54C9.1483 26.54 7.1083 26.024 5.4883 24.992C3.8803 23.96 2.6803 22.496 1.8883 20.6C1.0963 18.704 0.700297 16.46 0.700297 13.868C0.700297 11.684 1.0183 9.782 1.6543 8.162C2.2903 6.53 3.1543 5.18 4.2463 4.112C5.3383 3.032 6.5683 2.222 7.9363 1.682C9.3043 1.142 10.7203 0.872 12.1843 0.872C13.8403 0.872 15.4243 1.112 16.9363 1.592C18.4483 2.072 19.8163 2.69 21.0403 3.446C20.9803 4.262 20.6803 5.06 20.1403 5.84C19.6123 6.62 19.0543 7.202 18.4663 7.586C17.5903 6.998 16.6303 6.53 15.5863 6.182C14.5543 5.822 13.5343 5.642 12.5263 5.642C10.7023 5.642 9.2563 6.302 8.1883 7.622C7.1203 8.93 6.5863 11.024 6.5863 13.904C6.5863 16.712 7.1023 18.764 8.1343 20.06C9.1783 21.356 10.6663 22.004 12.5983 22.004C13.1743 22.004 13.7203 21.974 14.2363 21.914C14.7523 21.854 15.2383 21.782 15.6943 21.698V19.322ZM41.715 12.194C41.715 13.118 41.505 13.94 41.085 14.66C40.665 15.38 40.137 15.974 39.501 16.442C38.877 16.91 38.253 17.21 37.629 17.342C38.277 17.558 38.811 17.888 39.231 18.332C39.663 18.776 40.035 19.346 40.347 20.042L41.283 22.184C41.499 22.676 41.745 23.132 42.021 23.552C42.297 23.96 42.603 24.308 42.939 24.596C42.591 25.028 42.069 25.43 41.373 25.802C40.677 26.162 39.921 26.342 39.105 26.342C38.301 26.342 37.647 26.15 37.143 25.766C36.651 25.37 36.219 24.74 35.847 23.876L34.263 20.24C34.011 19.652 33.699 19.298 33.327 19.178C32.955 19.058 32.475 18.998 31.887 18.998H31.185V26C30.705 26.084 30.207 26.138 29.691 26.162C29.187 26.198 28.755 26.216 28.395 26.216C28.059 26.216 27.615 26.198 27.063 26.162C26.511 26.138 26.007 26.084 25.551 26V6.344L25.749 6.128C27.201 6.092 28.563 6.062 29.835 6.038C31.119 6.002 32.397 5.984 33.669 5.984C35.109 5.984 36.441 6.176 37.665 6.56C38.889 6.932 39.867 7.574 40.599 8.486C41.343 9.386 41.715 10.622 41.715 12.194ZM31.185 10.052V14.714C31.605 14.702 31.989 14.696 32.337 14.696C32.697 14.684 32.961 14.678 33.129 14.678C34.209 14.678 34.941 14.444 35.325 13.976C35.709 13.508 35.901 12.962 35.901 12.338C35.901 11.726 35.709 11.198 35.325 10.754C34.941 10.31 34.299 10.088 33.399 10.088C32.967 10.088 32.595 10.082 32.283 10.07C31.971 10.058 31.605 10.052 31.185 10.052ZM63.2911 18.566C63.2911 21.05 62.5471 23 61.0591 24.416C59.5831 25.832 57.3931 26.54 54.4891 26.54C51.5851 26.54 49.3891 25.832 47.9011 24.416C46.4251 23 45.6871 21.05 45.6871 18.566V6.164L45.9031 5.948H47.9551C49.0471 5.948 49.8871 6.224 50.4751 6.776C51.0751 7.328 51.3751 8.258 51.3751 9.566V18.548C51.3751 19.64 51.6031 20.498 52.0591 21.122C52.5151 21.746 53.3251 22.058 54.4891 22.058C55.6651 22.058 56.4751 21.746 56.9191 21.122C57.3631 20.498 57.5851 19.64 57.5851 18.548V6.164C58.0651 6.068 58.5571 6.008 59.0611 5.984C59.5651 5.96 60.0031 5.948 60.3751 5.948C60.7111 5.948 61.1671 5.966 61.7431 6.002C62.3191 6.026 62.8351 6.086 63.2911 6.182V18.566ZM83.8932 12.968C83.8932 14.528 83.5392 15.824 82.8312 16.856C82.1352 17.876 81.1752 18.638 79.9512 19.142C78.7272 19.634 77.3352 19.88 75.7752 19.88H73.8132V26C73.3332 26.084 72.8412 26.138 72.3372 26.162C71.8332 26.198 71.4012 26.216 71.0412 26.216C70.7052 26.216 70.2492 26.198 69.6732 26.162C69.0972 26.138 68.5812 26.084 68.1252 26V6.344L68.3232 6.128C69.2952 6.104 70.4652 6.074 71.8332 6.038C73.2012 6.002 74.5152 5.984 75.7752 5.984C77.3472 5.984 78.7452 6.224 79.9692 6.704C81.1932 7.184 82.1532 7.94 82.8492 8.972C83.5452 10.004 83.8932 11.336 83.8932 12.968ZM73.8132 10.196V15.704C74.1372 15.692 74.4312 15.686 74.6952 15.686C74.9592 15.674 75.1572 15.668 75.2892 15.668C76.0812 15.668 76.6752 15.524 77.0712 15.236C77.4792 14.936 77.7492 14.576 77.8812 14.156C78.0132 13.724 78.0792 13.316 78.0792 12.932C78.0792 12.572 78.0132 12.182 77.8812 11.762C77.7492 11.342 77.4792 10.982 77.0712 10.682C76.6752 10.382 76.0812 10.232 75.2892 10.232C74.9892 10.232 74.7732 10.232 74.6412 10.232C74.5092 10.22 74.2332 10.208 73.8132 10.196ZM85.8977 16.118C85.8977 12.902 86.7257 10.352 88.3817 8.468C90.0497 6.572 92.4797 5.624 95.6717 5.624C98.9117 5.624 101.354 6.566 102.998 8.45C104.654 10.322 105.482 12.878 105.482 16.118C105.482 19.358 104.654 21.908 102.998 23.768C101.342 25.616 98.8997 26.54 95.6717 26.54C92.4317 26.54 89.9897 25.604 88.3457 23.732C86.7137 21.86 85.8977 19.322 85.8977 16.118ZM91.7117 16.118C91.7117 16.802 91.7537 17.51 91.8377 18.242C91.9337 18.962 92.1137 19.634 92.3777 20.258C92.6537 20.882 93.0557 21.392 93.5837 21.788C94.1117 22.172 94.8137 22.364 95.6897 22.364C96.5657 22.364 97.2677 22.172 97.7957 21.788C98.3237 21.392 98.7197 20.882 98.9837 20.258C99.2597 19.634 99.4397 18.962 99.5237 18.242C99.6197 17.51 99.6677 16.802 99.6677 16.118C99.6677 15.422 99.6197 14.708 99.5237 13.976C99.4397 13.232 99.2597 12.548 98.9837 11.924C98.7197 11.288 98.3237 10.778 97.7957 10.394C97.2677 9.998 96.5657 9.8 95.6897 9.8C94.8137 9.8 94.1117 9.998 93.5837 10.394C93.0557 10.778 92.6537 11.288 92.3777 11.924C92.1137 12.548 91.9337 13.232 91.8377 13.976C91.7537 14.708 91.7117 15.422 91.7117 16.118Z" fill="#364760"/>
</svg>
