<svg width="188" height="26" viewBox="0 0 188 26" fill="none" xmlns="http://www.w3.org/2000/svg">
<path d="M0.323625 0.411999C0.791625 0.327999 1.30163 0.273999 1.85363 0.249998C2.40563 0.213999 2.86163 0.196 3.22163 0.196C3.60563 0.196 4.06163 0.213999 4.58963 0.249998C5.11763 0.273999 5.62163 0.327999 6.10163 0.411999V25C5.62163 25.084 5.11763 25.138 4.58963 25.162C4.06163 25.198 3.60563 25.216 3.22163 25.216C2.86163 25.216 2.40563 25.198 1.85363 25.162C1.30163 25.138 0.791625 25.084 0.323625 25V0.411999ZM29.6234 15.118C29.6234 18.478 28.8374 20.992 27.2654 22.66C25.6934 24.316 23.2154 25.144 19.8314 25.144C18.4034 25.144 17.0474 25.132 15.7634 25.108C14.4914 25.096 13.1474 25.072 11.7314 25.036L11.5334 24.82V5.344L11.7314 5.128C13.1594 5.092 14.5094 5.062 15.7814 5.038C17.0534 5.002 18.4034 4.984 19.8314 4.984C23.1794 4.984 25.6454 5.854 27.2294 7.594C28.8254 9.322 29.6234 11.83 29.6234 15.118ZM23.8274 15.118C23.8274 14.242 23.7374 13.366 23.5574 12.49C23.3774 11.602 22.9994 10.858 22.4234 10.258C21.8474 9.658 20.9834 9.358 19.8314 9.358C19.3034 9.358 18.8474 9.358 18.4634 9.358C18.0914 9.346 17.6594 9.334 17.1674 9.322V20.842C17.6834 20.842 18.1214 20.836 18.4814 20.824C18.8534 20.812 19.3034 20.806 19.8314 20.806C20.9834 20.806 21.8474 20.512 22.4234 19.924C22.9994 19.324 23.3774 18.586 23.5574 17.71C23.7374 16.834 23.8274 15.97 23.8274 15.118ZM42.5536 0.447999C43.1656 0.339999 43.8316 0.267999 44.5516 0.231999C45.2836 0.195999 45.9136 0.177999 46.4416 0.177999C46.9696 0.177999 47.5576 0.195999 48.2056 0.231999C48.8536 0.267999 49.4836 0.339999 50.0956 0.447999L52.2196 9.25C52.2676 9.466 52.3456 9.838 52.4536 10.366C52.5736 10.894 52.7056 11.494 52.8496 12.166C52.9936 12.838 53.1256 13.498 53.2456 14.146C53.3776 14.794 53.4796 15.346 53.5516 15.802H53.8036C53.8756 15.346 53.9776 14.794 54.1096 14.146C54.2416 13.498 54.3736 12.838 54.5056 12.166C54.6496 11.494 54.7816 10.894 54.9016 10.366C55.0216 9.838 55.1056 9.466 55.1536 9.25L57.2776 0.447999C57.8896 0.339999 58.5136 0.267999 59.1496 0.231999C59.7976 0.195999 60.3856 0.177999 60.9136 0.177999C61.4416 0.177999 62.0716 0.195999 62.8036 0.231999C63.5356 0.267999 64.2016 0.339999 64.8016 0.447999L66.7096 24.928C66.3016 25.036 65.8276 25.108 65.2876 25.144C64.7596 25.192 64.2616 25.216 63.7936 25.216C63.3616 25.216 62.9356 25.204 62.5156 25.18C62.1076 25.156 61.6936 25.108 61.2736 25.036L60.7336 15.01C60.6616 13.738 60.5956 12.334 60.5356 10.798C60.4756 9.262 60.4456 7.906 60.4456 6.73H60.1936L56.6476 21.382C56.2156 21.454 55.7116 21.508 55.1356 21.544C54.5596 21.568 54.0676 21.58 53.6596 21.58C53.2996 21.58 52.8256 21.568 52.2376 21.544C51.6496 21.508 51.1396 21.454 50.7076 21.382L47.1616 6.73H46.9276C46.9156 7.906 46.8796 9.262 46.8196 10.798C46.7716 12.334 46.7116 13.738 46.6396 15.01L46.0816 25.036C45.6736 25.108 45.2596 25.156 44.8396 25.18C44.4196 25.204 43.9936 25.216 43.5616 25.216C43.1056 25.216 42.6076 25.192 42.0676 25.144C41.5396 25.108 41.0656 25.036 40.6456 24.928L42.5536 0.447999ZM71.3359 5.164C71.7919 5.068 72.3079 5.008 72.8839 4.984C73.4599 4.96 73.9159 4.948 74.2519 4.948C74.6119 4.948 75.0439 4.96 75.5479 4.984C76.0639 5.008 76.5619 5.068 77.0419 5.164V25C76.5619 25.084 76.0639 25.138 75.5479 25.162C75.0439 25.198 74.6119 25.216 74.2519 25.216C73.9159 25.216 73.4599 25.198 72.8839 25.162C72.3079 25.138 71.7919 25.084 71.3359 25V5.164ZM97.3698 20.482C97.3698 22.198 97.0998 23.392 96.5598 24.064C96.0318 24.736 95.1318 25.072 93.8598 25.072H85.5618C84.5418 25.072 83.7378 24.784 83.1498 24.208C82.5618 23.62 82.2678 22.834 82.2678 21.85V5.362L82.4658 5.164H96.7038C96.7878 5.572 96.8358 5.962 96.8478 6.334C96.8598 6.706 96.8658 7.06 96.8658 7.396C96.8658 7.72 96.8298 8.086 96.7578 8.494C96.6978 8.902 96.5898 9.316 96.4338 9.736H90.1338C89.6298 9.736 88.8678 9.73 87.8478 9.718C87.8598 10.09 87.8658 10.408 87.8658 10.672C87.8778 10.936 87.8838 11.254 87.8838 11.626V12.814C88.8798 12.802 89.6298 12.796 90.1338 12.796H94.7418C94.8618 13.12 94.9398 13.492 94.9758 13.912C95.0238 14.32 95.0478 14.668 95.0478 14.956C95.0478 15.292 95.0238 15.67 94.9758 16.09C94.9398 16.498 94.8618 16.87 94.7418 17.206H90.1338C89.9058 17.206 89.5878 17.206 89.1798 17.206C88.7718 17.206 88.3398 17.206 87.8838 17.206V18.376C87.8838 18.82 87.8778 19.186 87.8658 19.474C87.8538 19.762 87.8478 20.122 87.8478 20.554V20.59C88.2678 20.566 88.6578 20.542 89.0178 20.518C89.3778 20.494 89.8158 20.482 90.3318 20.482H97.3698ZM102.547 5.164C103.123 5.056 103.753 4.984 104.437 4.948C105.121 4.9 105.697 4.876 106.165 4.876C106.609 4.876 107.185 4.9 107.893 4.948C108.601 4.984 109.195 5.056 109.675 5.164L111.439 12.976C111.547 13.444 111.673 14.08 111.817 14.884C111.961 15.676 112.105 16.528 112.249 17.44H112.483C112.771 15.52 113.041 14.032 113.293 12.976L115.039 5.164C115.603 5.056 116.221 4.984 116.893 4.948C117.565 4.9 118.123 4.876 118.567 4.876C119.035 4.876 119.617 4.9 120.313 4.948C121.009 4.984 121.633 5.056 122.185 5.164L124.219 24.928C123.439 25.12 122.497 25.216 121.393 25.216C120.973 25.216 120.523 25.198 120.043 25.162C119.575 25.126 119.155 25.072 118.783 25L118.261 18.628C118.201 17.812 118.165 16.918 118.153 15.946C118.141 14.974 118.141 14.026 118.153 13.102C118.165 12.166 118.165 11.356 118.153 10.672H117.937L115.291 21.958C114.883 22.03 114.385 22.084 113.797 22.12C113.209 22.144 112.723 22.156 112.339 22.156C111.943 22.156 111.451 22.144 110.863 22.12C110.287 22.084 109.807 22.03 109.423 21.958L106.795 10.672H106.543C106.543 11.368 106.543 12.178 106.543 13.102C106.555 14.026 106.555 14.974 106.543 15.946C106.531 16.918 106.489 17.824 106.417 18.664L105.949 25C105.565 25.072 105.145 25.126 104.689 25.162C104.245 25.198 103.813 25.216 103.393 25.216C102.277 25.216 101.317 25.12 100.513 24.928L102.547 5.164ZM128.837 5.128C129.461 5.104 130.211 5.08 131.087 5.056C131.975 5.032 132.887 5.014 133.823 5.002C134.759 4.99 135.617 4.984 136.397 4.984C137.873 4.984 139.193 5.152 140.357 5.488C141.533 5.824 142.457 6.382 143.129 7.162C143.801 7.93 144.137 8.962 144.137 10.258C144.137 11.098 143.903 11.896 143.435 12.652C142.979 13.408 142.349 13.942 141.545 14.254C142.577 14.578 143.441 15.214 144.137 16.162C144.833 17.098 145.181 18.112 145.181 19.204C145.181 20.74 144.821 21.94 144.101 22.804C143.393 23.656 142.409 24.262 141.149 24.622C139.901 24.97 138.473 25.144 136.865 25.144C135.629 25.144 134.345 25.132 133.013 25.108C131.681 25.096 130.289 25.072 128.837 25.036L128.639 24.856V5.344L128.837 5.128ZM136.145 8.854C135.917 8.854 135.611 8.854 135.227 8.854C134.843 8.854 134.477 8.842 134.129 8.818V12.688H136.109C137.069 12.688 137.723 12.49 138.071 12.094C138.419 11.698 138.593 11.254 138.593 10.762C138.593 10.282 138.419 9.844 138.071 9.448C137.735 9.052 137.093 8.854 136.145 8.854ZM134.129 21.274C134.609 21.25 135.077 21.238 135.533 21.238C135.989 21.238 136.403 21.238 136.775 21.238C137.867 21.238 138.587 20.992 138.935 20.5C139.295 19.996 139.475 19.48 139.475 18.952C139.475 18.376 139.259 17.836 138.827 17.332C138.407 16.828 137.627 16.576 136.487 16.576H134.129V21.274ZM165.123 11.194C165.123 12.118 164.913 12.94 164.493 13.66C164.073 14.38 163.545 14.974 162.909 15.442C162.285 15.91 161.661 16.21 161.037 16.342C161.685 16.558 162.219 16.888 162.639 17.332C163.071 17.776 163.443 18.346 163.755 19.042L164.691 21.184C164.907 21.676 165.153 22.132 165.429 22.552C165.705 22.96 166.011 23.308 166.347 23.596C165.999 24.028 165.477 24.43 164.781 24.802C164.085 25.162 163.329 25.342 162.513 25.342C161.709 25.342 161.055 25.15 160.551 24.766C160.059 24.37 159.627 23.74 159.255 22.876L157.671 19.24C157.419 18.652 157.107 18.298 156.735 18.178C156.363 18.058 155.883 17.998 155.295 17.998H154.593V25C154.113 25.084 153.615 25.138 153.099 25.162C152.595 25.198 152.163 25.216 151.803 25.216C151.467 25.216 151.023 25.198 150.471 25.162C149.919 25.138 149.415 25.084 148.959 25V5.344L149.157 5.128C150.609 5.092 151.971 5.062 153.243 5.038C154.527 5.002 155.805 4.984 157.077 4.984C158.517 4.984 159.849 5.176 161.073 5.56C162.297 5.932 163.275 6.574 164.007 7.486C164.751 8.386 165.123 9.622 165.123 11.194ZM154.593 9.052V13.714C155.013 13.702 155.397 13.696 155.745 13.696C156.105 13.684 156.369 13.678 156.537 13.678C157.617 13.678 158.349 13.444 158.733 12.976C159.117 12.508 159.309 11.962 159.309 11.338C159.309 10.726 159.117 10.198 158.733 9.754C158.349 9.31 157.707 9.088 156.807 9.088C156.375 9.088 156.003 9.082 155.691 9.07C155.379 9.058 155.013 9.052 154.593 9.052ZM167.786 15.118C167.786 11.902 168.614 9.352 170.27 7.468C171.938 5.572 174.368 4.624 177.56 4.624C180.8 4.624 183.242 5.566 184.886 7.45C186.542 9.322 187.37 11.878 187.37 15.118C187.37 18.358 186.542 20.908 184.886 22.768C183.23 24.616 180.788 25.54 177.56 25.54C174.32 25.54 171.878 24.604 170.234 22.732C168.602 20.86 167.786 18.322 167.786 15.118ZM173.6 15.118C173.6 15.802 173.642 16.51 173.726 17.242C173.822 17.962 174.002 18.634 174.266 19.258C174.542 19.882 174.944 20.392 175.472 20.788C176 21.172 176.702 21.364 177.578 21.364C178.454 21.364 179.156 21.172 179.684 20.788C180.212 20.392 180.608 19.882 180.872 19.258C181.148 18.634 181.328 17.962 181.412 17.242C181.508 16.51 181.556 15.802 181.556 15.118C181.556 14.422 181.508 13.708 181.412 12.976C181.328 12.232 181.148 11.548 180.872 10.924C180.608 10.288 180.212 9.778 179.684 9.394C179.156 8.998 178.454 8.8 177.578 8.8C176.702 8.8 176 8.998 175.472 9.394C174.944 9.778 174.542 10.288 174.266 10.924C174.002 11.548 173.822 12.232 173.726 12.976C173.642 13.708 173.6 14.422 173.6 15.118Z" fill="#364760"/>
</svg>
