<svg width="89" height="26" viewBox="0 0 89 26" fill="none" xmlns="http://www.w3.org/2000/svg">
<path d="M17.919 8.026C17.919 9.178 17.697 10.204 17.253 11.104C16.809 11.992 16.251 12.736 15.579 13.336C14.907 13.924 14.229 14.35 13.545 14.614C14.217 14.854 14.775 15.268 15.219 15.856C15.675 16.444 16.041 17.134 16.317 17.926L17.397 20.968C17.805 22.132 18.399 23.02 19.179 23.632C18.807 24.112 18.267 24.514 17.559 24.838C16.851 25.162 16.113 25.324 15.345 25.324C14.313 25.324 13.563 25.048 13.095 24.496C12.627 23.932 12.201 23.098 11.817 21.994L10.521 18.232C10.317 17.608 9.99897 17.08 9.56697 16.648C9.13497 16.204 8.43897 15.982 7.47897 15.982H5.98497V25C5.50497 25.084 5.00697 25.138 4.49097 25.162C3.97497 25.198 3.51897 25.216 3.12297 25.216C2.77497 25.216 2.33097 25.198 1.79097 25.162C1.25097 25.138 0.746969 25.084 0.278969 25V0.591999L0.530969 0.339998C2.06697 0.303999 3.54297 0.273999 4.95897 0.249998C6.38697 0.213999 7.78497 0.196 9.15297 0.196C10.821 0.196 12.315 0.472 13.635 1.024C14.967 1.576 16.011 2.428 16.767 3.58C17.535 4.732 17.919 6.214 17.919 8.026ZM5.98497 4.516V11.572C6.54897 11.548 7.07697 11.53 7.56897 11.518C8.07297 11.506 8.43897 11.5 8.66697 11.5C9.57897 11.5 10.275 11.338 10.755 11.014C11.247 10.678 11.583 10.246 11.763 9.718C11.955 9.19 12.051 8.626 12.051 8.026C12.051 7.402 11.955 6.826 11.763 6.298C11.583 5.77 11.247 5.35 10.755 5.038C10.275 4.714 9.57897 4.552 8.66697 4.552C8.29497 4.552 7.88097 4.552 7.42497 4.552C6.98097 4.552 6.50097 4.54 5.98497 4.516ZM27.3234 21.526C27.1314 21.526 26.9454 21.526 26.7654 21.526C26.5854 21.514 26.4054 21.502 26.2254 21.49L25.1094 25C24.7614 25.084 24.3834 25.144 23.9754 25.18C23.5674 25.228 23.1414 25.252 22.6974 25.252C22.2174 25.252 21.7314 25.216 21.2394 25.144C20.7594 25.072 20.3634 24.97 20.0514 24.838L19.8534 24.532L26.8554 5.164C27.4794 5.068 28.0794 5.008 28.6554 4.984C29.2434 4.96 29.7774 4.948 30.2574 4.948C30.7014 4.948 31.1814 4.96 31.6974 4.984C32.2134 5.008 32.7954 5.068 33.4434 5.164L40.2474 24.73C39.8274 24.922 39.2934 25.066 38.6454 25.162C37.9974 25.27 37.4754 25.324 37.0794 25.324C36.4194 25.324 35.7834 25.198 35.1714 24.946C34.5594 24.694 34.0974 24.028 33.7854 22.948L33.3354 21.49C33.1434 21.502 32.9574 21.514 32.7774 21.526C32.5974 21.526 32.4054 21.526 32.2014 21.526H27.3234ZM28.0434 15.838L27.6474 17.08C27.8274 17.068 28.0074 17.062 28.1874 17.062C28.3674 17.05 28.5534 17.044 28.7454 17.044H30.9954C31.1754 17.044 31.3374 17.05 31.4814 17.062C31.6374 17.062 31.7934 17.068 31.9494 17.08L31.5714 15.856C31.2954 14.908 31.0194 13.852 30.7434 12.688C30.4674 11.524 30.2154 10.468 29.9874 9.52H29.7714C29.5194 10.432 29.2374 11.476 28.9254 12.652C28.6254 13.828 28.3314 14.89 28.0434 15.838ZM44.2504 5.164C44.8264 5.056 45.4564 4.984 46.1404 4.948C46.8244 4.9 47.4004 4.876 47.8684 4.876C48.3124 4.876 48.8884 4.9 49.5964 4.948C50.3044 4.984 50.8984 5.056 51.3784 5.164L53.1424 12.976C53.2504 13.444 53.3764 14.08 53.5204 14.884C53.6644 15.676 53.8084 16.528 53.9524 17.44H54.1864C54.4744 15.52 54.7444 14.032 54.9964 12.976L56.7424 5.164C57.3064 5.056 57.9244 4.984 58.5964 4.948C59.2684 4.9 59.8264 4.876 60.2704 4.876C60.7384 4.876 61.3204 4.9 62.0164 4.948C62.7124 4.984 63.3364 5.056 63.8884 5.164L65.9224 24.928C65.1424 25.12 64.2004 25.216 63.0964 25.216C62.6764 25.216 62.2264 25.198 61.7464 25.162C61.2784 25.126 60.8584 25.072 60.4864 25L59.9644 18.628C59.9044 17.812 59.8684 16.918 59.8564 15.946C59.8444 14.974 59.8444 14.026 59.8564 13.102C59.8684 12.166 59.8684 11.356 59.8564 10.672H59.6404L56.9944 21.958C56.5864 22.03 56.0884 22.084 55.5004 22.12C54.9124 22.144 54.4264 22.156 54.0424 22.156C53.6464 22.156 53.1544 22.144 52.5664 22.12C51.9904 22.084 51.5104 22.03 51.1264 21.958L48.4984 10.672H48.2464C48.2464 11.368 48.2464 12.178 48.2464 13.102C48.2584 14.026 48.2584 14.974 48.2464 15.946C48.2344 16.918 48.1924 17.824 48.1204 18.664L47.6524 25C47.2684 25.072 46.8484 25.126 46.3924 25.162C45.9484 25.198 45.5164 25.216 45.0964 25.216C43.9804 25.216 43.0204 25.12 42.2164 24.928L44.2504 5.164ZM75.382 21.526C75.19 21.526 75.004 21.526 74.824 21.526C74.644 21.514 74.464 21.502 74.284 21.49L73.168 25C72.82 25.084 72.442 25.144 72.034 25.18C71.626 25.228 71.2 25.252 70.756 25.252C70.276 25.252 69.79 25.216 69.298 25.144C68.818 25.072 68.422 24.97 68.11 24.838L67.912 24.532L74.914 5.164C75.538 5.068 76.138 5.008 76.714 4.984C77.302 4.96 77.836 4.948 78.316 4.948C78.76 4.948 79.24 4.96 79.756 4.984C80.272 5.008 80.854 5.068 81.502 5.164L88.306 24.73C87.886 24.922 87.352 25.066 86.704 25.162C86.056 25.27 85.534 25.324 85.138 25.324C84.478 25.324 83.842 25.198 83.23 24.946C82.618 24.694 82.156 24.028 81.844 22.948L81.394 21.49C81.202 21.502 81.016 21.514 80.836 21.526C80.656 21.526 80.464 21.526 80.26 21.526H75.382ZM76.102 15.838L75.706 17.08C75.886 17.068 76.066 17.062 76.246 17.062C76.426 17.05 76.612 17.044 76.804 17.044H79.054C79.234 17.044 79.396 17.05 79.54 17.062C79.696 17.062 79.852 17.068 80.008 17.08L79.63 15.856C79.354 14.908 79.078 13.852 78.802 12.688C78.526 11.524 78.274 10.468 78.046 9.52H77.83C77.578 10.432 77.296 11.476 76.984 12.652C76.684 13.828 76.39 14.89 76.102 15.838Z" fill="#364760"/>
</svg>
