<svg width="86" height="26" viewBox="0 0 86 26" fill="none" xmlns="http://www.w3.org/2000/svg">
<path d="M9.54791 8.422C9.89591 7.942 10.3519 7.36 10.9159 6.676C11.4799 5.98 11.9899 5.386 12.4459 4.894L12.3379 4.786C11.4979 4.894 10.5439 4.972 9.47591 5.02C8.41991 5.068 7.52591 5.092 6.79391 5.092H1.62791C1.54391 4.756 1.48391 4.432 1.44791 4.12C1.42391 3.796 1.41191 3.478 1.41191 3.166C1.41191 2.674 1.44791 2.212 1.51991 1.78C1.59191 1.348 1.68791 0.891999 1.80791 0.411999H17.7379C17.9899 1.312 18.1699 1.99 18.2779 2.446C18.3979 2.902 18.4699 3.232 18.4939 3.436C18.5179 3.628 18.5299 3.796 18.5299 3.94C18.5299 4.264 18.4819 4.594 18.3859 4.93C18.3019 5.266 18.1399 5.608 17.8999 5.956L9.87191 16.972C9.52391 17.452 9.08591 18.016 8.55791 18.664C8.02991 19.3 7.53191 19.864 7.06391 20.356L7.17191 20.464C7.93991 20.404 8.83991 20.35 9.87191 20.302C10.9039 20.242 11.8039 20.212 12.5719 20.212H14.5699C15.4459 20.212 16.2199 20.128 16.8919 19.96C17.5639 19.792 18.1459 19.594 18.6379 19.366C18.7459 19.714 18.8359 20.122 18.9079 20.59C18.9799 21.058 19.0159 21.514 19.0159 21.958C19.0159 22.99 18.6619 23.758 17.9539 24.262C17.2579 24.754 16.3579 25 15.2539 25H1.48391C1.29191 24.148 1.14791 23.506 1.05191 23.074C0.967906 22.642 0.913906 22.324 0.889906 22.12C0.865906 21.904 0.853906 21.712 0.853906 21.544C0.853906 21.196 0.907906 20.836 1.01591 20.464C1.13591 20.08 1.30991 19.732 1.53791 19.42L9.54791 8.422ZM21.0285 15.118C21.0285 11.902 21.8565 9.352 23.5125 7.468C25.1805 5.572 27.6105 4.624 30.8025 4.624C34.0425 4.624 36.4845 5.566 38.1285 7.45C39.7845 9.322 40.6125 11.878 40.6125 15.118C40.6125 18.358 39.7845 20.908 38.1285 22.768C36.4725 24.616 34.0305 25.54 30.8025 25.54C27.5625 25.54 25.1205 24.604 23.4765 22.732C21.8445 20.86 21.0285 18.322 21.0285 15.118ZM26.8425 15.118C26.8425 15.802 26.8845 16.51 26.9685 17.242C27.0645 17.962 27.2445 18.634 27.5085 19.258C27.7845 19.882 28.1865 20.392 28.7145 20.788C29.2425 21.172 29.9445 21.364 30.8205 21.364C31.6965 21.364 32.3985 21.172 32.9265 20.788C33.4545 20.392 33.8505 19.882 34.1145 19.258C34.3905 18.634 34.5705 17.962 34.6545 17.242C34.7505 16.51 34.7985 15.802 34.7985 15.118C34.7985 14.422 34.7505 13.708 34.6545 12.976C34.5705 12.232 34.3905 11.548 34.1145 10.924C33.8505 10.288 33.4545 9.778 32.9265 9.394C32.3985 8.998 31.6965 8.8 30.8205 8.8C29.9445 8.8 29.2425 8.998 28.7145 9.394C28.1865 9.778 27.7845 10.288 27.5085 10.924C27.2445 11.548 27.0645 12.232 26.9685 12.976C26.8845 13.708 26.8425 14.422 26.8425 15.118ZM51.3026 15.946C51.2186 15.754 51.0866 15.454 50.9066 15.046C50.7266 14.626 50.5346 14.176 50.3306 13.696C50.1266 13.216 49.9346 12.766 49.7546 12.346C49.5866 11.926 49.4546 11.62 49.3586 11.428L49.2326 11.482C49.2806 12.43 49.3286 13.456 49.3766 14.56C49.4246 15.652 49.4606 16.654 49.4846 17.566C49.5206 18.466 49.5386 19.12 49.5386 19.528V25C49.0706 25.084 48.6206 25.138 48.1886 25.162C47.7566 25.198 47.3546 25.216 46.9826 25.216C46.6466 25.216 46.2266 25.198 45.7226 25.162C45.2306 25.138 44.7626 25.084 44.3186 25V5.29C44.7626 5.182 45.3146 5.098 45.9746 5.038C46.6346 4.978 47.1446 4.948 47.5046 4.948C47.8766 4.948 48.4046 4.96 49.0886 4.984C49.7726 4.996 50.3366 5.056 50.7806 5.164L55.0106 14.182C55.0946 14.35 55.2326 14.656 55.4246 15.1C55.6286 15.544 55.8446 16.03 56.0726 16.558C56.3006 17.086 56.5106 17.584 56.7026 18.052C56.9066 18.508 57.0566 18.844 57.1526 19.06L57.3146 19.024C57.2666 18.232 57.2006 17.308 57.1166 16.252C57.0446 15.196 56.9786 14.176 56.9186 13.192C56.8586 12.208 56.8286 11.422 56.8286 10.834V8.026C56.8286 6.754 57.1046 5.92 57.6566 5.524C58.2086 5.116 59.0306 4.912 60.1226 4.912H61.9766L62.1926 5.164V24.892C61.7246 25 61.1606 25.078 60.5006 25.126C59.8406 25.186 59.3366 25.216 58.9886 25.216C58.7486 25.216 58.4186 25.21 57.9986 25.198C57.5786 25.186 57.1466 25.168 56.7026 25.144C56.2706 25.12 55.9106 25.072 55.6226 25L51.3026 15.946ZM72.4211 21.526C72.2291 21.526 72.0431 21.526 71.8631 21.526C71.6831 21.514 71.5031 21.502 71.3231 21.49L70.2071 25C69.8591 25.084 69.4811 25.144 69.0731 25.18C68.6651 25.228 68.2391 25.252 67.7951 25.252C67.3151 25.252 66.8291 25.216 66.3371 25.144C65.8571 25.072 65.4611 24.97 65.1491 24.838L64.9511 24.532L71.9531 5.164C72.5771 5.068 73.1771 5.008 73.7531 4.984C74.3411 4.96 74.8751 4.948 75.3551 4.948C75.7991 4.948 76.2791 4.96 76.7951 4.984C77.3111 5.008 77.8931 5.068 78.5411 5.164L85.3451 24.73C84.9251 24.922 84.3911 25.066 83.7431 25.162C83.0951 25.27 82.5731 25.324 82.1771 25.324C81.5171 25.324 80.8811 25.198 80.2691 24.946C79.6571 24.694 79.1951 24.028 78.8831 22.948L78.4331 21.49C78.2411 21.502 78.0551 21.514 77.8751 21.526C77.6951 21.526 77.5031 21.526 77.2991 21.526H72.4211ZM73.1411 15.838L72.7451 17.08C72.9251 17.068 73.1051 17.062 73.2851 17.062C73.4651 17.05 73.6511 17.044 73.8431 17.044H76.0931C76.2731 17.044 76.4351 17.05 76.5791 17.062C76.7351 17.062 76.8911 17.068 77.0471 17.08L76.6691 15.856C76.3931 14.908 76.1171 13.852 75.8411 12.688C75.5651 11.524 75.3131 10.468 75.0851 9.52H74.8691C74.6171 10.432 74.3351 11.476 74.0231 12.652C73.7231 13.828 73.4291 14.89 73.1411 15.838Z" fill="#364760"/>
</svg>
