<svg width="182" height="18" viewBox="0 0 182 18" fill="none" xmlns="http://www.w3.org/2000/svg">
<path d="M6.10459 13.568C5.97659 13.568 5.82459 13.564 5.64859 13.556C5.48059 13.548 5.31659 13.544 5.15659 13.544L4.13659 17.024C3.89659 17.08 3.63659 17.116 3.35659 17.132C3.08459 17.156 2.80059 17.168 2.50459 17.168C2.21659 17.168 1.88859 17.144 1.52059 17.096C1.16059 17.056 0.872594 16.992 0.656594 16.904L0.512594 16.7L5.81659 0.607999C6.12059 0.559999 6.48459 0.523999 6.90859 0.499999C7.34059 0.475999 7.71659 0.464 8.03659 0.464C8.34059 0.464 8.70859 0.48 9.14059 0.511999C9.57259 0.535999 9.94459 0.575999 10.2566 0.631999L15.4166 16.748C15.1526 16.9 14.8086 17.016 14.3846 17.096C13.9686 17.176 13.5806 17.216 13.2206 17.216C12.6126 17.216 12.1366 17.076 11.7926 16.796C11.4486 16.508 11.1606 15.952 10.9286 15.128L10.4726 13.544C10.3206 13.544 10.1566 13.548 9.98059 13.556C9.80459 13.564 9.65259 13.568 9.52459 13.568H6.10459ZM6.58459 8.684L6.04459 10.544C6.19659 10.544 6.36059 10.544 6.53659 10.544C6.71259 10.536 6.86859 10.532 7.00459 10.532H8.75659C8.87659 10.532 9.01259 10.536 9.16459 10.544C9.32459 10.544 9.48059 10.544 9.63259 10.544L9.21259 9.044C9.02859 8.372 8.81259 7.58 8.56459 6.668C8.31659 5.756 8.09259 4.904 7.89259 4.112H7.74859C7.66859 4.56 7.56059 5.056 7.42459 5.6C7.28859 6.144 7.14459 6.688 6.99259 7.232C6.84859 7.768 6.71259 8.252 6.58459 8.684ZM16.0573 16.004C16.0573 15.7 16.1173 15.364 16.2373 14.996C16.3573 14.62 16.5213 14.272 16.7293 13.952C16.9373 13.632 17.1653 13.392 17.4133 13.232C18.0053 13.552 18.6653 13.828 19.3933 14.06C20.1213 14.284 20.8333 14.396 21.5293 14.396C21.9773 14.396 22.3453 14.304 22.6333 14.12C22.9293 13.936 23.0773 13.676 23.0773 13.34C23.0773 13.124 22.9933 12.928 22.8253 12.752C22.6573 12.568 22.3653 12.4 21.9493 12.248L19.9573 11.468C19.3413 11.244 18.7653 10.964 18.2293 10.628C17.6933 10.292 17.2613 9.88 16.9333 9.392C16.6053 8.904 16.4413 8.32 16.4413 7.64C16.4413 6.392 16.9213 5.376 17.8813 4.592C18.8413 3.808 20.1333 3.416 21.7573 3.416C22.6773 3.416 23.5893 3.524 24.4933 3.74C25.4053 3.948 26.1693 4.188 26.7853 4.46C26.7853 5.004 26.6733 5.54 26.4493 6.068C26.2253 6.596 25.9173 7.012 25.5253 7.316C24.9333 7.052 24.2893 6.832 23.5933 6.656C22.8973 6.472 22.2693 6.38 21.7093 6.38C21.2933 6.38 20.9733 6.468 20.7493 6.644C20.5333 6.82 20.4253 7.032 20.4253 7.28C20.4253 7.512 20.5333 7.688 20.7493 7.808C20.9653 7.928 21.2333 8.048 21.5533 8.168L23.5333 8.924C24.6373 9.324 25.5133 9.876 26.1613 10.58C26.8173 11.276 27.1453 12.136 27.1453 13.16C27.1453 14.064 26.9013 14.828 26.4133 15.452C25.9333 16.076 25.2733 16.548 24.4333 16.868C23.6013 17.188 22.6613 17.352 21.6133 17.36C20.3653 17.36 19.2533 17.216 18.2773 16.928C17.3093 16.64 16.5693 16.332 16.0573 16.004ZM39.5499 13.988C39.5499 15.132 39.3699 15.928 39.0099 16.376C38.6579 16.824 38.0579 17.048 37.2099 17.048H31.6779C30.9979 17.048 30.4619 16.856 30.0699 16.472C29.6779 16.08 29.4819 15.556 29.4819 14.9V3.908L29.6139 3.776H39.1059C39.1619 4.048 39.1939 4.308 39.2019 4.556C39.2099 4.804 39.2139 5.04 39.2139 5.264C39.2139 5.48 39.1899 5.724 39.1419 5.996C39.1019 6.268 39.0299 6.544 38.9259 6.824H34.7259C34.3899 6.824 33.8819 6.82 33.2019 6.812C33.2099 7.06 33.2139 7.272 33.2139 7.448C33.2219 7.624 33.2259 7.836 33.2259 8.084V8.876C33.8899 8.868 34.3899 8.864 34.7259 8.864H37.7979C37.8779 9.08 37.9299 9.328 37.9539 9.608C37.9859 9.88 38.0019 10.112 38.0019 10.304C38.0019 10.528 37.9859 10.78 37.9539 11.06C37.9299 11.332 37.8779 11.58 37.7979 11.804H34.7259C34.5739 11.804 34.3619 11.804 34.0899 11.804C33.8179 11.804 33.5299 11.804 33.2259 11.804V12.584C33.2259 12.88 33.2219 13.124 33.2139 13.316C33.2059 13.508 33.2019 13.748 33.2019 14.036V14.06C33.4819 14.044 33.7419 14.028 33.9819 14.012C34.2219 13.996 34.5139 13.988 34.8579 13.988H39.5499ZM40.8776 16.004C40.8776 15.7 40.9376 15.364 41.0576 14.996C41.1776 14.62 41.3416 14.272 41.5496 13.952C41.7576 13.632 41.9856 13.392 42.2336 13.232C42.8256 13.552 43.4856 13.828 44.2136 14.06C44.9416 14.284 45.6536 14.396 46.3496 14.396C46.7976 14.396 47.1656 14.304 47.4536 14.12C47.7496 13.936 47.8976 13.676 47.8976 13.34C47.8976 13.124 47.8136 12.928 47.6456 12.752C47.4776 12.568 47.1856 12.4 46.7696 12.248L44.7776 11.468C44.1616 11.244 43.5856 10.964 43.0496 10.628C42.5136 10.292 42.0816 9.88 41.7536 9.392C41.4256 8.904 41.2616 8.32 41.2616 7.64C41.2616 6.392 41.7416 5.376 42.7016 4.592C43.6616 3.808 44.9536 3.416 46.5776 3.416C47.4976 3.416 48.4096 3.524 49.3136 3.74C50.2256 3.948 50.9896 4.188 51.6056 4.46C51.6056 5.004 51.4936 5.54 51.2696 6.068C51.0456 6.596 50.7376 7.012 50.3456 7.316C49.7536 7.052 49.1096 6.832 48.4136 6.656C47.7176 6.472 47.0896 6.38 46.5296 6.38C46.1136 6.38 45.7936 6.468 45.5696 6.644C45.3536 6.82 45.2456 7.032 45.2456 7.28C45.2456 7.512 45.3536 7.688 45.5696 7.808C45.7856 7.928 46.0536 8.048 46.3736 8.168L48.3536 8.924C49.4576 9.324 50.3336 9.876 50.9816 10.58C51.6376 11.276 51.9656 12.136 51.9656 13.16C51.9656 14.064 51.7216 14.828 51.2336 15.452C50.7536 16.076 50.0936 16.548 49.2536 16.868C48.4216 17.188 47.4816 17.352 46.4336 17.36C45.1856 17.36 44.0736 17.216 43.0976 16.928C42.1296 16.64 41.3896 16.332 40.8776 16.004ZM53.4708 10.412C53.4708 8.268 54.0228 6.568 55.1268 5.312C56.2388 4.048 57.8588 3.416 59.9868 3.416C62.1468 3.416 63.7748 4.044 64.8708 5.3C65.9748 6.548 66.5268 8.252 66.5268 10.412C66.5268 12.572 65.9748 14.272 64.8708 15.512C63.7668 16.744 62.1388 17.36 59.9868 17.36C57.8268 17.36 56.1988 16.736 55.1028 15.488C54.0148 14.24 53.4708 12.548 53.4708 10.412ZM57.3468 10.412C57.3468 10.868 57.3748 11.34 57.4308 11.828C57.4948 12.308 57.6148 12.756 57.7908 13.172C57.9748 13.588 58.2428 13.928 58.5948 14.192C58.9468 14.448 59.4148 14.576 59.9988 14.576C60.5828 14.576 61.0508 14.448 61.4028 14.192C61.7548 13.928 62.0188 13.588 62.1948 13.172C62.3788 12.756 62.4988 12.308 62.5548 11.828C62.6188 11.34 62.6508 10.868 62.6508 10.412C62.6508 9.948 62.6188 9.472 62.5548 8.984C62.4988 8.488 62.3788 8.032 62.1948 7.616C62.0188 7.192 61.7548 6.852 61.4028 6.596C61.0508 6.332 60.5828 6.2 59.9988 6.2C59.4148 6.2 58.9468 6.332 58.5948 6.596C58.2428 6.852 57.9748 7.192 57.7908 7.616C57.6148 8.032 57.4948 8.488 57.4308 8.984C57.3748 9.472 57.3468 9.948 57.3468 10.412ZM79.7735 7.796C79.7735 8.412 79.6335 8.96 79.3535 9.44C79.0735 9.92 78.7215 10.316 78.2975 10.628C77.8815 10.94 77.4655 11.14 77.0495 11.228C77.4815 11.372 77.8375 11.592 78.1175 11.888C78.4055 12.184 78.6535 12.564 78.8615 13.028L79.4855 14.456C79.6295 14.784 79.7935 15.088 79.9775 15.368C80.1615 15.64 80.3655 15.872 80.5895 16.064C80.3575 16.352 80.0095 16.62 79.5455 16.868C79.0815 17.108 78.5775 17.228 78.0335 17.228C77.4975 17.228 77.0615 17.1 76.7255 16.844C76.3975 16.58 76.1095 16.16 75.8615 15.584L74.8055 13.16C74.6375 12.768 74.4295 12.532 74.1815 12.452C73.9335 12.372 73.6135 12.332 73.2215 12.332H72.7535V17C72.4335 17.056 72.1015 17.092 71.7575 17.108C71.4215 17.132 71.1335 17.144 70.8935 17.144C70.6695 17.144 70.3735 17.132 70.0055 17.108C69.6375 17.092 69.3015 17.056 68.9975 17V3.896L69.1295 3.752C70.0975 3.728 71.0055 3.708 71.8535 3.692C72.7095 3.668 73.5615 3.656 74.4095 3.656C75.3695 3.656 76.2575 3.784 77.0735 4.04C77.8895 4.288 78.5415 4.716 79.0295 5.324C79.5255 5.924 79.7735 6.748 79.7735 7.796ZM72.7535 6.368V9.476C73.0335 9.468 73.2895 9.464 73.5215 9.464C73.7615 9.456 73.9375 9.452 74.0495 9.452C74.7695 9.452 75.2575 9.296 75.5135 8.984C75.7695 8.672 75.8975 8.308 75.8975 7.892C75.8975 7.484 75.7695 7.132 75.5135 6.836C75.2575 6.54 74.8295 6.392 74.2295 6.392C73.9415 6.392 73.6935 6.388 73.4855 6.38C73.2775 6.372 73.0335 6.368 72.7535 6.368ZM97.067 12.548C97.067 12.284 97.071 12.012 97.079 11.732C97.087 11.452 97.099 11.168 97.115 10.88H95.939C95.323 10.88 94.863 10.764 94.559 10.532C94.255 10.3 94.103 9.88 94.103 9.272C94.103 9.024 94.127 8.756 94.175 8.468C94.231 8.18 94.299 7.92 94.379 7.688H98.135C99.087 7.688 99.747 7.912 100.115 8.36C100.483 8.8 100.667 9.368 100.667 10.064V16.364C99.971 16.596 99.071 16.82 97.967 17.036C96.863 17.252 95.655 17.36 94.343 17.36C92.703 17.36 91.343 17.016 90.263 16.328C89.191 15.64 88.391 14.664 87.863 13.4C87.335 12.136 87.071 10.64 87.071 8.912C87.071 7.456 87.283 6.188 87.707 5.108C88.131 4.02 88.707 3.12 89.435 2.408C90.163 1.688 90.983 1.148 91.895 0.787999C92.807 0.427999 93.751 0.248 94.727 0.248C95.831 0.248 96.887 0.408 97.895 0.727999C98.903 1.048 99.815 1.46 100.631 1.964C100.591 2.508 100.391 3.04 100.031 3.56C99.679 4.08 99.307 4.468 98.915 4.724C98.331 4.332 97.691 4.02 96.995 3.788C96.307 3.548 95.627 3.428 94.955 3.428C93.739 3.428 92.775 3.868 92.063 4.748C91.351 5.62 90.995 7.016 90.995 8.936C90.995 10.808 91.339 12.176 92.027 13.04C92.723 13.904 93.715 14.336 95.003 14.336C95.387 14.336 95.751 14.316 96.095 14.276C96.439 14.236 96.763 14.188 97.067 14.132V12.548ZM113.706 13.988C113.706 15.132 113.526 15.928 113.166 16.376C112.814 16.824 112.214 17.048 111.366 17.048H105.834C105.154 17.048 104.618 16.856 104.226 16.472C103.834 16.08 103.638 15.556 103.638 14.9V3.908L103.77 3.776H113.262C113.318 4.048 113.35 4.308 113.358 4.556C113.366 4.804 113.37 5.04 113.37 5.264C113.37 5.48 113.346 5.724 113.298 5.996C113.258 6.268 113.186 6.544 113.082 6.824H108.882C108.546 6.824 108.038 6.82 107.358 6.812C107.366 7.06 107.37 7.272 107.37 7.448C107.378 7.624 107.382 7.836 107.382 8.084V8.876C108.046 8.868 108.546 8.864 108.882 8.864H111.954C112.034 9.08 112.086 9.328 112.11 9.608C112.142 9.88 112.158 10.112 112.158 10.304C112.158 10.528 112.142 10.78 112.11 11.06C112.086 11.332 112.034 11.58 111.954 11.804H108.882C108.73 11.804 108.518 11.804 108.246 11.804C107.974 11.804 107.686 11.804 107.382 11.804V12.584C107.382 12.88 107.378 13.124 107.37 13.316C107.362 13.508 107.358 13.748 107.358 14.036V14.06C107.638 14.044 107.898 14.028 108.138 14.012C108.378 13.996 108.67 13.988 109.014 13.988H113.706ZM120.974 10.964C120.918 10.836 120.83 10.636 120.71 10.364C120.59 10.084 120.462 9.784 120.326 9.464C120.19 9.144 120.062 8.844 119.942 8.564C119.83 8.284 119.742 8.08 119.678 7.952L119.594 7.988C119.626 8.62 119.658 9.304 119.69 10.04C119.722 10.768 119.746 11.436 119.762 12.044C119.786 12.644 119.798 13.08 119.798 13.352V17C119.486 17.056 119.186 17.092 118.898 17.108C118.61 17.132 118.342 17.144 118.094 17.144C117.87 17.144 117.59 17.132 117.254 17.108C116.926 17.092 116.614 17.056 116.318 17V3.86C116.614 3.788 116.982 3.732 117.422 3.692C117.862 3.652 118.202 3.632 118.442 3.632C118.69 3.632 119.042 3.64 119.498 3.656C119.954 3.664 120.33 3.704 120.626 3.776L123.446 9.788C123.502 9.9 123.594 10.104 123.722 10.4C123.858 10.696 124.002 11.02 124.154 11.372C124.306 11.724 124.446 12.056 124.574 12.368C124.71 12.672 124.81 12.896 124.874 13.04L124.982 13.016C124.95 12.488 124.906 11.872 124.85 11.168C124.802 10.464 124.758 9.784 124.718 9.128C124.678 8.472 124.658 7.948 124.658 7.556V5.684C124.658 4.836 124.842 4.28 125.21 4.016C125.578 3.744 126.126 3.608 126.854 3.608H128.09L128.234 3.776V16.928C127.922 17 127.546 17.052 127.106 17.084C126.666 17.124 126.33 17.144 126.098 17.144C125.938 17.144 125.718 17.14 125.438 17.132C125.158 17.124 124.87 17.112 124.574 17.096C124.286 17.08 124.046 17.048 123.854 17L120.974 10.964ZM141.761 13.988C141.761 15.132 141.581 15.928 141.221 16.376C140.869 16.824 140.269 17.048 139.421 17.048H133.889C133.209 17.048 132.673 16.856 132.281 16.472C131.889 16.08 131.693 15.556 131.693 14.9V3.908L131.825 3.776H141.317C141.373 4.048 141.405 4.308 141.413 4.556C141.421 4.804 141.425 5.04 141.425 5.264C141.425 5.48 141.401 5.724 141.353 5.996C141.313 6.268 141.241 6.544 141.137 6.824H136.937C136.601 6.824 136.093 6.82 135.413 6.812C135.421 7.06 135.425 7.272 135.425 7.448C135.433 7.624 135.437 7.836 135.437 8.084V8.876C136.101 8.868 136.601 8.864 136.937 8.864H140.009C140.089 9.08 140.141 9.328 140.165 9.608C140.197 9.88 140.213 10.112 140.213 10.304C140.213 10.528 140.197 10.78 140.165 11.06C140.141 11.332 140.089 11.58 140.009 11.804H136.937C136.785 11.804 136.573 11.804 136.301 11.804C136.029 11.804 135.741 11.804 135.437 11.804V12.584C135.437 12.88 135.433 13.124 135.425 13.316C135.417 13.508 135.413 13.748 135.413 14.036V14.06C135.693 14.044 135.953 14.028 136.193 14.012C136.433 13.996 136.725 13.988 137.069 13.988H141.761ZM155.149 7.796C155.149 8.412 155.009 8.96 154.729 9.44C154.449 9.92 154.097 10.316 153.673 10.628C153.257 10.94 152.841 11.14 152.425 11.228C152.857 11.372 153.213 11.592 153.493 11.888C153.781 12.184 154.029 12.564 154.237 13.028L154.861 14.456C155.005 14.784 155.169 15.088 155.353 15.368C155.537 15.64 155.741 15.872 155.965 16.064C155.733 16.352 155.385 16.62 154.921 16.868C154.457 17.108 153.953 17.228 153.409 17.228C152.873 17.228 152.437 17.1 152.101 16.844C151.773 16.58 151.485 16.16 151.237 15.584L150.181 13.16C150.013 12.768 149.805 12.532 149.557 12.452C149.309 12.372 148.989 12.332 148.597 12.332H148.129V17C147.809 17.056 147.477 17.092 147.133 17.108C146.797 17.132 146.509 17.144 146.269 17.144C146.045 17.144 145.749 17.132 145.381 17.108C145.013 17.092 144.677 17.056 144.373 17V3.896L144.505 3.752C145.473 3.728 146.381 3.708 147.229 3.692C148.085 3.668 148.937 3.656 149.785 3.656C150.745 3.656 151.633 3.784 152.449 4.04C153.265 4.288 153.917 4.716 154.405 5.324C154.901 5.924 155.149 6.748 155.149 7.796ZM148.129 6.368V9.476C148.409 9.468 148.665 9.464 148.897 9.464C149.137 9.456 149.313 9.452 149.425 9.452C150.145 9.452 150.633 9.296 150.889 8.984C151.145 8.672 151.273 8.308 151.273 7.892C151.273 7.484 151.145 7.132 150.889 6.836C150.633 6.54 150.205 6.392 149.605 6.392C149.317 6.392 149.069 6.388 148.861 6.38C148.653 6.372 148.409 6.368 148.129 6.368ZM161.397 14.684C161.269 14.684 161.145 14.684 161.025 14.684C160.905 14.676 160.785 14.668 160.665 14.66L159.921 17C159.689 17.056 159.437 17.096 159.165 17.12C158.893 17.152 158.609 17.168 158.313 17.168C157.993 17.168 157.669 17.144 157.341 17.096C157.021 17.048 156.757 16.98 156.549 16.892L156.417 16.688L161.085 3.776C161.501 3.712 161.901 3.672 162.285 3.656C162.677 3.64 163.033 3.632 163.353 3.632C163.649 3.632 163.969 3.64 164.313 3.656C164.657 3.672 165.045 3.712 165.477 3.776L170.013 16.82C169.733 16.948 169.377 17.044 168.945 17.108C168.513 17.18 168.165 17.216 167.901 17.216C167.461 17.216 167.037 17.132 166.629 16.964C166.221 16.796 165.913 16.352 165.705 15.632L165.405 14.66C165.277 14.668 165.153 14.676 165.033 14.684C164.913 14.684 164.785 14.684 164.649 14.684H161.397ZM161.877 10.892L161.613 11.72C161.733 11.712 161.853 11.708 161.973 11.708C162.093 11.7 162.217 11.696 162.345 11.696H163.845C163.965 11.696 164.073 11.7 164.169 11.708C164.273 11.708 164.377 11.712 164.481 11.72L164.229 10.904C164.045 10.272 163.861 9.568 163.677 8.792C163.493 8.016 163.325 7.312 163.173 6.68H163.029C162.861 7.288 162.673 7.984 162.465 8.768C162.265 9.552 162.069 10.26 161.877 10.892ZM181.177 13.928C181.129 15.096 180.925 15.912 180.565 16.376C180.205 16.84 179.565 17.072 178.645 17.072H173.989C173.301 17.072 172.761 16.88 172.369 16.496C171.985 16.104 171.793 15.58 171.793 14.924V3.8L171.937 3.656H173.377C174.105 3.656 174.657 3.84 175.033 4.208C175.409 4.568 175.597 5.172 175.597 6.02V14.048C176.421 13.968 177.161 13.928 177.817 13.928H181.177Z" fill="#CECED9"/>
</svg>
