<svg width="253" height="102" viewBox="0 0 253 102" fill="none" xmlns="http://www.w3.org/2000/svg">
<rect opacity="0.5" y="0.519897" width="253" height="101.083" rx="10" fill="#DBDADA"/>
<path d="M34.4029 34.8981C34.2223 34.8981 34.0079 34.8925 33.7596 34.8812C33.5226 34.8699 33.2912 34.8643 33.0654 34.8643L31.6264 39.774C31.2878 39.853 30.921 39.9038 30.5259 39.9263C30.1422 39.9602 29.7415 39.9771 29.3239 39.9771C28.9176 39.9771 28.4548 39.9433 27.9356 39.8756C27.4277 39.8191 27.0214 39.7288 26.7167 39.6047L26.5135 39.3169L33.9966 16.6136C34.4255 16.5459 34.939 16.4951 35.5372 16.4613C36.1467 16.4274 36.6772 16.4105 37.1287 16.4105C37.5576 16.4105 38.0768 16.433 38.6862 16.4782C39.2957 16.5121 39.8205 16.5685 40.2607 16.6475L47.5407 39.3846C47.1682 39.599 46.6829 39.7627 46.0847 39.8756C45.4978 39.9884 44.9504 40.0449 44.4425 40.0449C43.5847 40.0449 42.9131 39.8473 42.4278 39.4523C41.9424 39.046 41.5361 38.2616 41.2088 37.099L40.5655 34.8643C40.351 34.8643 40.1196 34.8699 39.8713 34.8812C39.623 34.8925 39.4086 34.8981 39.228 34.8981H34.4029ZM35.0801 28.0076L34.3183 30.6317C34.5327 30.6317 34.7641 30.6317 35.0124 30.6317C35.2607 30.6204 35.4808 30.6148 35.6727 30.6148H38.1445C38.3138 30.6148 38.5056 30.6204 38.7201 30.6317C38.9458 30.6317 39.1659 30.6317 39.3804 30.6317L38.7878 28.5155C38.5282 27.5674 38.2235 26.45 37.8736 25.1633C37.5237 23.8766 37.2077 22.6746 36.9255 21.5572H36.7223C36.6095 22.1893 36.4571 22.889 36.2652 23.6565C36.0734 24.424 35.8702 25.1915 35.6558 25.959C35.4526 26.7152 35.2607 27.3981 35.0801 28.0076ZM67.2708 30.4455C67.2708 33.6058 66.5315 35.9703 65.053 37.5392C63.5744 39.0968 61.2437 39.8756 58.0608 39.8756C56.7177 39.8756 55.4423 39.8643 54.2347 39.8417C53.0383 39.8304 51.7741 39.8078 50.4423 39.774L50.2561 39.5708V21.2525L50.4423 21.0493C51.7854 21.0155 53.0552 20.9872 54.2516 20.9647C55.448 20.9308 56.7177 20.9139 58.0608 20.9139C61.2098 20.9139 63.5293 21.7322 65.0191 23.3687C66.5202 24.994 67.2708 27.3529 67.2708 30.4455ZM61.8193 30.4455C61.8193 29.6216 61.7347 28.7976 61.5654 27.9737C61.3961 27.1385 61.0405 26.4387 60.4988 25.8744C59.957 25.31 59.1444 25.0279 58.0608 25.0279C57.5642 25.0279 57.1353 25.0279 56.7742 25.0279C56.4243 25.0166 56.018 25.0053 55.5552 24.994V35.8293C56.0405 35.8293 56.4525 35.8236 56.7911 35.8123C57.141 35.801 57.5642 35.7954 58.0608 35.7954C59.1444 35.7954 59.957 35.5189 60.4988 34.9658C61.0405 34.4015 61.3961 33.7074 61.5654 32.8834C61.7347 32.0595 61.8193 31.2469 61.8193 30.4455ZM71.9755 21.0832C72.5173 20.9816 73.1098 20.9139 73.7532 20.88C74.3965 20.8349 74.9383 20.8123 75.3785 20.8123C75.7961 20.8123 76.3378 20.8349 77.0037 20.88C77.6697 20.9139 78.2284 20.9816 78.6798 21.0832L80.339 28.4308C80.4405 28.871 80.5591 29.4692 80.6945 30.2254C80.8299 30.9703 80.9654 31.7717 81.1008 32.6295H81.3209C81.5918 30.8236 81.8457 29.4241 82.0828 28.4308L83.725 21.0832C84.2555 20.9816 84.8367 20.9139 85.4688 20.88C86.1008 20.8349 86.6257 20.8123 87.0433 20.8123C87.4835 20.8123 88.0309 20.8349 88.6855 20.88C89.3401 20.9139 89.927 20.9816 90.4462 21.0832L92.3593 39.6724C91.6257 39.853 90.7397 39.9433 89.7013 39.9433C89.3063 39.9433 88.883 39.9263 88.4315 39.8925C87.9914 39.8586 87.5963 39.8078 87.2464 39.7401L86.7555 33.7469C86.699 32.9794 86.6652 32.1385 86.6539 31.2243C86.6426 30.3101 86.6426 29.4184 86.6539 28.5493C86.6652 27.669 86.6652 26.9071 86.6539 26.2638H86.4507L83.962 36.8789C83.5783 36.9467 83.1099 36.9974 82.5568 37.0313C82.0038 37.0539 81.5466 37.0652 81.1855 37.0652C80.813 37.0652 80.3503 37.0539 79.7972 37.0313C79.2554 36.9974 78.804 36.9467 78.4428 36.8789L75.971 26.2638H75.734C75.734 26.9184 75.734 27.6803 75.734 28.5493C75.7453 29.4184 75.7453 30.3101 75.734 31.2243C75.7227 32.1385 75.6832 32.9907 75.6155 33.7807L75.1753 39.7401C74.8141 39.8078 74.4191 39.8586 73.9902 39.8925C73.5726 39.9263 73.1663 39.9433 72.7712 39.9433C71.7216 39.9433 70.8186 39.853 70.0624 39.6724L71.9755 21.0832ZM96.5839 21.0832C97.0128 20.9929 97.4981 20.9364 98.0399 20.9139C98.5816 20.8913 99.0105 20.88 99.3266 20.88C99.6652 20.88 100.071 20.8913 100.546 20.9139C101.031 20.9364 101.499 20.9929 101.951 21.0832V39.7401C101.499 39.8191 101.031 39.8699 100.546 39.8925C100.071 39.9263 99.6652 39.9433 99.3266 39.9433C99.0105 39.9433 98.5816 39.9263 98.0399 39.8925C97.4981 39.8699 97.0128 39.8191 96.5839 39.7401V21.0832ZM113.435 31.2243C113.356 31.0437 113.232 30.7615 113.062 30.3778C112.893 29.9827 112.713 29.5595 112.521 29.108C112.329 28.6566 112.148 28.2333 111.979 27.8383C111.821 27.4432 111.697 27.1554 111.606 26.9748L111.488 27.0256C111.533 27.9173 111.578 28.8823 111.623 29.9207C111.669 30.9478 111.702 31.8902 111.725 32.748C111.759 33.5945 111.776 34.2096 111.776 34.5934V39.7401C111.336 39.8191 110.912 39.8699 110.506 39.8925C110.1 39.9263 109.722 39.9433 109.372 39.9433C109.056 39.9433 108.661 39.9263 108.187 39.8925C107.724 39.8699 107.284 39.8191 106.866 39.7401V21.2017C107.284 21.1001 107.803 21.0211 108.424 20.9647C109.044 20.9082 109.524 20.88 109.863 20.88C110.213 20.88 110.709 20.8913 111.352 20.9139C111.996 20.9252 112.526 20.9816 112.944 21.0832L116.922 29.5651C117.001 29.7232 117.131 30.011 117.312 30.4286C117.504 30.8462 117.707 31.3033 117.921 31.7999C118.136 32.2965 118.333 32.7649 118.514 33.2051C118.706 33.634 118.847 33.95 118.937 34.1532L119.09 34.1193C119.044 33.3744 118.982 32.5053 118.903 31.5121C118.836 30.5189 118.773 29.5595 118.717 28.634C118.661 27.7085 118.632 26.9692 118.632 26.4161V23.7751C118.632 22.5787 118.892 21.7942 119.411 21.4218C119.93 21.038 120.704 20.8462 121.731 20.8462H123.474L123.678 21.0832V39.6385C123.237 39.7401 122.707 39.8135 122.086 39.8586C121.465 39.9151 120.991 39.9433 120.664 39.9433C120.438 39.9433 120.128 39.9376 119.733 39.9263C119.338 39.9151 118.932 39.8981 118.514 39.8756C118.108 39.853 117.769 39.8078 117.498 39.7401L113.435 31.2243ZM128.625 21.0832C129.054 20.9929 129.54 20.9364 130.081 20.9139C130.623 20.8913 131.052 20.88 131.368 20.88C131.707 20.88 132.113 20.8913 132.587 20.9139C133.072 20.9364 133.541 20.9929 133.992 21.0832V39.7401C133.541 39.8191 133.072 39.8699 132.587 39.8925C132.113 39.9263 131.707 39.9433 131.368 39.9433C131.052 39.9433 130.623 39.9263 130.081 39.8925C129.54 39.8699 129.054 39.8191 128.625 39.7401V21.0832ZM137.096 38.3349C137.096 37.906 137.181 37.432 137.35 36.9128C137.519 36.3823 137.751 35.8913 138.044 35.4399C138.338 34.9884 138.659 34.6498 139.009 34.4241C139.844 34.8755 140.775 35.2649 141.803 35.5922C142.83 35.9083 143.834 36.0663 144.816 36.0663C145.448 36.0663 145.967 35.9365 146.374 35.6769C146.791 35.4173 147 35.0505 147 34.5764C147 34.2717 146.882 33.9952 146.645 33.7469C146.408 33.4873 145.996 33.2503 145.409 33.0358L142.598 31.9353C141.729 31.6193 140.917 31.2243 140.16 30.7502C139.404 30.2762 138.795 29.6949 138.332 29.0064C137.869 28.318 137.638 27.494 137.638 26.5347C137.638 24.7739 138.315 23.3405 139.669 22.2344C141.024 21.1283 142.847 20.5753 145.138 20.5753C146.436 20.5753 147.722 20.7276 148.998 21.0324C150.284 21.3258 151.362 21.6644 152.231 22.0482C152.231 22.8157 152.073 23.5719 151.757 24.3168C151.441 25.0617 151.007 25.6486 150.454 26.0775C149.619 25.7051 148.71 25.3947 147.728 25.1464C146.746 24.8868 145.86 24.757 145.07 24.757C144.483 24.757 144.032 24.8812 143.716 25.1295C143.411 25.3778 143.259 25.6769 143.259 26.0268C143.259 26.3541 143.411 26.6024 143.716 26.7717C144.02 26.941 144.398 27.1103 144.85 27.2796L147.643 28.3462C149.201 28.9105 150.437 29.6893 151.351 30.6825C152.277 31.6645 152.739 32.8778 152.739 34.3225C152.739 35.5979 152.395 36.6758 151.707 37.5561C151.029 38.4365 150.098 39.1024 148.913 39.5539C147.739 40.0054 146.413 40.2367 144.935 40.248C143.174 40.248 141.605 40.0449 140.228 39.6385C138.862 39.2322 137.818 38.7977 137.096 38.3349ZM158.384 27.4319C158.384 27.0708 158.39 26.7378 158.401 26.4331C158.412 26.117 158.418 25.7672 158.418 25.3834C158.181 25.3834 157.854 25.3891 157.436 25.4003C157.03 25.4116 156.708 25.4173 156.471 25.4173H153.339C153.249 25.011 153.192 24.6328 153.17 24.283C153.147 23.9218 153.136 23.5945 153.136 23.301C153.136 23.0076 153.147 22.6633 153.17 22.2683C153.192 21.862 153.249 21.4669 153.339 21.0832H168.661C168.74 21.3879 168.796 21.7322 168.83 22.1159C168.875 22.4997 168.898 22.81 168.898 23.0471C168.898 23.8146 168.695 24.4015 168.288 24.8078C167.882 25.2141 167.205 25.4173 166.257 25.4173H165.563C165.326 25.4173 165.01 25.4116 164.614 25.4003C164.231 25.3891 163.932 25.3834 163.717 25.3834C163.717 25.7672 163.723 26.117 163.734 26.4331C163.745 26.7378 163.751 27.0708 163.751 27.4319V39.7401C163.435 39.8078 163 39.8586 162.447 39.8925C161.894 39.9263 161.432 39.9433 161.059 39.9433C160.709 39.9433 160.269 39.9263 159.739 39.8925C159.208 39.8586 158.757 39.8078 158.384 39.7401V27.4319ZM186.384 26.7547C186.384 27.6238 186.186 28.397 185.791 29.0742C185.396 29.7514 184.899 30.3101 184.301 30.7502C183.714 31.1904 183.127 31.4726 182.541 31.5967C183.15 31.7999 183.652 32.1103 184.047 32.5279C184.454 32.9455 184.803 33.4816 185.097 34.1363L185.977 36.1509C186.18 36.6137 186.412 37.0426 186.671 37.4376C186.931 37.8214 187.219 38.1487 187.535 38.4196C187.208 38.8259 186.717 39.204 186.062 39.5539C185.407 39.8925 184.696 40.0618 183.929 40.0618C183.173 40.0618 182.557 39.8812 182.083 39.52C181.621 39.1476 181.214 38.555 180.864 37.7424L179.375 34.3225C179.138 33.7694 178.844 33.4365 178.494 33.3236C178.144 33.2107 177.693 33.1543 177.14 33.1543H176.48V39.7401C176.028 39.8191 175.56 39.8699 175.074 39.8925C174.6 39.9263 174.194 39.9433 173.855 39.9433C173.539 39.9433 173.122 39.9263 172.603 39.8925C172.083 39.8699 171.609 39.8191 171.18 39.7401V21.2525L171.367 21.0493C172.732 21.0155 174.013 20.9872 175.21 20.9647C176.417 20.9308 177.619 20.9139 178.816 20.9139C180.17 20.9139 181.423 21.0945 182.574 21.4556C183.726 21.8055 184.645 22.4094 185.334 23.2672C186.034 24.1137 186.384 25.2762 186.384 26.7547ZM176.48 24.7401V29.125C176.875 29.1137 177.236 29.108 177.563 29.108C177.902 29.0967 178.15 29.0911 178.308 29.0911C179.324 29.0911 180.012 28.871 180.373 28.4308C180.735 27.9906 180.915 27.4771 180.915 26.8902C180.915 26.3146 180.735 25.8179 180.373 25.4003C180.012 24.9827 179.408 24.7739 178.562 24.7739C178.156 24.7739 177.806 24.7683 177.512 24.757C177.219 24.7457 176.875 24.7401 176.48 24.7401ZM195.199 36.4726C195.018 36.4726 194.843 36.4726 194.674 36.4726C194.505 36.4613 194.335 36.45 194.166 36.4387L193.116 39.7401C192.789 39.8191 192.433 39.8756 192.05 39.9094C191.666 39.9546 191.265 39.9771 190.848 39.9771C190.396 39.9771 189.939 39.9433 189.476 39.8756C189.025 39.8078 188.652 39.7119 188.359 39.5877L188.173 39.2999L194.758 21.0832C195.345 20.9929 195.91 20.9364 196.451 20.9139C197.005 20.8913 197.507 20.88 197.958 20.88C198.376 20.88 198.827 20.8913 199.313 20.9139C199.798 20.9364 200.345 20.9929 200.955 21.0832L207.354 39.4862C206.959 39.6667 206.457 39.8022 205.848 39.8925C205.238 39.9941 204.747 40.0449 204.375 40.0449C203.754 40.0449 203.156 39.9263 202.58 39.6893C202.005 39.4523 201.57 38.8259 201.277 37.8101L200.853 36.4387C200.673 36.45 200.498 36.4613 200.328 36.4726C200.159 36.4726 199.979 36.4726 199.787 36.4726H195.199ZM195.876 31.1227L195.503 32.2909C195.673 32.2796 195.842 32.274 196.011 32.274C196.181 32.2627 196.356 32.257 196.536 32.257H198.652C198.822 32.257 198.974 32.2627 199.109 32.274C199.256 32.274 199.403 32.2796 199.55 32.2909L199.194 31.1396C198.935 30.248 198.675 29.2548 198.415 28.1599C198.156 27.0651 197.919 26.0719 197.704 25.1803H197.501C197.264 26.038 196.999 27.02 196.705 28.1261C196.423 29.2322 196.147 30.2311 195.876 31.1227ZM225.138 26.7547C225.138 27.6238 224.94 28.397 224.545 29.0742C224.15 29.7514 223.653 30.3101 223.055 30.7502C222.468 31.1904 221.881 31.4726 221.294 31.5967C221.904 31.7999 222.406 32.1103 222.801 32.5279C223.208 32.9455 223.557 33.4816 223.851 34.1363L224.731 36.1509C224.934 36.6137 225.166 37.0426 225.425 37.4376C225.685 37.8214 225.973 38.1487 226.289 38.4196C225.962 38.8259 225.471 39.204 224.816 39.5539C224.161 39.8925 223.45 40.0618 222.683 40.0618C221.927 40.0618 221.311 39.8812 220.837 39.52C220.375 39.1476 219.968 38.555 219.618 37.7424L218.129 34.3225C217.892 33.7694 217.598 33.4365 217.248 33.3236C216.898 33.2107 216.447 33.1543 215.894 33.1543H215.234V39.7401C214.782 39.8191 214.314 39.8699 213.828 39.8925C213.354 39.9263 212.948 39.9433 212.609 39.9433C212.293 39.9433 211.876 39.9263 211.357 39.8925C210.837 39.8699 210.363 39.8191 209.934 39.7401V21.2525L210.121 21.0493C211.486 21.0155 212.767 20.9872 213.964 20.9647C215.171 20.9308 216.373 20.9139 217.57 20.9139C218.924 20.9139 220.177 21.0945 221.328 21.4556C222.48 21.8055 223.399 22.4094 224.088 23.2672C224.788 24.1137 225.138 25.2762 225.138 26.7547ZM215.234 24.7401V29.125C215.629 29.1137 215.99 29.108 216.317 29.108C216.656 29.0967 216.904 29.0911 217.062 29.0911C218.078 29.0911 218.766 28.871 219.127 28.4308C219.489 27.9906 219.669 27.4771 219.669 26.8902C219.669 26.3146 219.489 25.8179 219.127 25.4003C218.766 24.9827 218.162 24.7739 217.316 24.7739C216.91 24.7739 216.56 24.7683 216.266 24.757C215.973 24.7457 215.629 24.7401 215.234 24.7401ZM51.1275 58.6475C51.7031 58.5459 52.3295 58.4782 53.0067 58.4443C53.6952 58.4105 54.2877 58.3935 54.7843 58.3935C55.281 58.3935 55.834 58.4105 56.4435 58.4443C57.053 58.4782 57.6455 58.5459 58.2212 58.6475L60.2189 66.9263C60.264 67.1295 60.3374 67.4793 60.439 67.976C60.5519 68.4726 60.676 69.0369 60.8115 69.669C60.9469 70.301 61.071 70.9218 61.1839 71.5313C61.3081 72.1408 61.404 72.66 61.4717 73.0888H61.7087C61.7765 72.66 61.8724 72.1408 61.9966 71.5313C62.1207 70.9218 62.2449 70.301 62.369 69.669C62.5045 69.0369 62.6286 68.4726 62.7415 67.976C62.8543 67.4793 62.9334 67.1295 62.9785 66.9263L64.9763 58.6475C65.5519 58.5459 66.1388 58.4782 66.737 58.4443C67.3465 58.4105 67.8995 58.3935 68.3961 58.3935C68.8927 58.3935 69.4853 58.4105 70.1738 58.4443C70.8623 58.4782 71.4887 58.5459 72.053 58.6475L73.8476 81.6724C73.4639 81.774 73.018 81.8417 72.5101 81.8756C72.0135 81.9207 71.5451 81.9433 71.1049 81.9433C70.6986 81.9433 70.2979 81.932 69.9029 81.9094C69.5192 81.8868 69.1298 81.8417 68.7347 81.774L68.2268 72.3439C68.1591 71.1475 68.097 69.827 68.0406 68.3823C67.9842 66.9376 67.9559 65.6622 67.9559 64.5561H67.7189L64.3837 78.3372C63.9774 78.4049 63.5033 78.4557 62.9616 78.4895C62.4198 78.5121 61.9571 78.5234 61.5733 78.5234C61.2347 78.5234 60.7889 78.5121 60.2358 78.4895C59.6828 78.4557 59.2031 78.4049 58.7968 78.3372L55.4616 64.5561H55.2415C55.2302 65.6622 55.1963 66.9376 55.1399 68.3823C55.0947 69.827 55.0383 71.1475 54.9706 72.3439L54.4457 81.774C54.062 81.8417 53.6726 81.8868 53.2776 81.9094C52.8825 81.932 52.4819 81.9433 52.0755 81.9433C51.6466 81.9433 51.1782 81.9207 50.6703 81.8756C50.1737 81.8417 49.7279 81.774 49.3329 81.6724L51.1275 58.6475ZM78.1989 63.0832C78.6278 62.9929 79.1131 62.9364 79.6549 62.9139C80.1967 62.8913 80.6255 62.88 80.9416 62.88C81.2802 62.88 81.6865 62.8913 82.1605 62.9139C82.6459 62.9364 83.1143 62.9929 83.5657 63.0832V81.7401C83.1143 81.8191 82.6459 81.8699 82.1605 81.8925C81.6865 81.9263 81.2802 81.9433 80.9416 81.9433C80.6255 81.9433 80.1967 81.9263 79.6549 81.8925C79.1131 81.8699 78.6278 81.8191 78.1989 81.7401V63.0832ZM102.685 77.4907C102.685 79.1047 102.431 80.2277 101.923 80.8597C101.427 81.4918 100.58 81.8078 99.384 81.8078H91.5792C90.6198 81.8078 89.8636 81.537 89.3106 80.9952C88.7575 80.4421 88.481 79.7029 88.481 78.7773V63.2694L88.6672 63.0832H102.059C102.138 63.4669 102.183 63.8337 102.194 64.1836C102.206 64.5335 102.211 64.8665 102.211 65.1825C102.211 65.4872 102.177 65.8315 102.11 66.2152C102.053 66.599 101.952 66.9884 101.805 67.3834H95.8794C95.4054 67.3834 94.6887 67.3778 93.7293 67.3665C93.7406 67.7164 93.7463 68.0155 93.7463 68.2638C93.7575 68.5121 93.7632 68.8112 93.7632 69.1611V70.2785C94.7 70.2672 95.4054 70.2615 95.8794 70.2615H100.214C100.326 70.5663 100.4 70.9162 100.434 71.3112C100.479 71.6949 100.501 72.0223 100.501 72.2931C100.501 72.6092 100.479 72.9647 100.434 73.3597C100.4 73.7435 100.326 74.0934 100.214 74.4094H95.8794C95.665 74.4094 95.3659 74.4094 94.9822 74.4094C94.5984 74.4094 94.1921 74.4094 93.7632 74.4094V75.5098C93.7632 75.9275 93.7575 76.2717 93.7463 76.5426C93.735 76.8135 93.7293 77.1521 93.7293 77.5584V77.5922C94.1244 77.5697 94.4912 77.5471 94.8298 77.5245C95.1684 77.502 95.5803 77.4907 96.0657 77.4907H102.685ZM107.555 63.0832C108.097 62.9816 108.689 62.9139 109.333 62.88C109.976 62.8349 110.518 62.8123 110.958 62.8123C111.376 62.8123 111.917 62.8349 112.583 62.88C113.249 62.9139 113.808 62.9816 114.259 63.0832L115.919 70.4308C116.02 70.871 116.139 71.4692 116.274 72.2254C116.41 72.9703 116.545 73.7717 116.68 74.6295H116.901C117.171 72.8236 117.425 71.4241 117.662 70.4308L119.305 63.0832C119.835 62.9816 120.416 62.9139 121.048 62.88C121.68 62.8349 122.205 62.8123 122.623 62.8123C123.063 62.8123 123.61 62.8349 124.265 62.88C124.92 62.9139 125.507 62.9816 126.026 63.0832L127.939 81.6724C127.205 81.853 126.319 81.9433 125.281 81.9433C124.886 81.9433 124.463 81.9263 124.011 81.8925C123.571 81.8586 123.176 81.8078 122.826 81.7401L122.335 75.7469C122.279 74.9794 122.245 74.1385 122.233 73.2243C122.222 72.3101 122.222 71.4184 122.233 70.5493C122.245 69.669 122.245 68.9071 122.233 68.2638H122.03L119.542 78.8789C119.158 78.9467 118.689 78.9974 118.136 79.0313C117.583 79.0539 117.126 79.0652 116.765 79.0652C116.393 79.0652 115.93 79.0539 115.377 79.0313C114.835 78.9974 114.384 78.9467 114.022 78.8789L111.551 68.2638H111.314C111.314 68.9184 111.314 69.6803 111.314 70.5493C111.325 71.4184 111.325 72.3101 111.314 73.2243C111.302 74.1385 111.263 74.9907 111.195 75.7807L110.755 81.7401C110.394 81.8078 109.999 81.8586 109.57 81.8925C109.152 81.9263 108.746 81.9433 108.351 81.9433C107.301 81.9433 106.398 81.853 105.642 81.6724L107.555 63.0832ZM132.282 63.0493C132.869 63.0267 133.574 63.0042 134.398 62.9816C135.233 62.959 136.091 62.9421 136.972 62.9308C137.852 62.9195 138.659 62.9139 139.393 62.9139C140.781 62.9139 142.022 63.0719 143.117 63.3879C144.223 63.7039 145.092 64.2288 145.724 64.9624C146.357 65.6848 146.673 66.6554 146.673 67.8744C146.673 68.6645 146.452 69.415 146.012 70.1261C145.583 70.8371 144.991 71.3394 144.235 71.6329C145.205 71.9376 146.018 72.5358 146.673 73.4274C147.327 74.3078 147.655 75.2615 147.655 76.2886C147.655 77.7333 147.316 78.862 146.639 79.6746C145.973 80.476 145.047 81.046 143.862 81.3846C142.688 81.7119 141.345 81.8756 139.833 81.8756C138.67 81.8756 137.463 81.8643 136.21 81.8417C134.957 81.8304 133.648 81.8078 132.282 81.774L132.096 81.6047V63.2525L132.282 63.0493ZM139.156 66.5538C138.941 66.5538 138.653 66.5538 138.292 66.5538C137.931 66.5538 137.587 66.5426 137.259 66.52V70.1599H139.122C140.025 70.1599 140.64 69.9737 140.967 69.6013C141.294 69.2288 141.458 68.8112 141.458 68.3484C141.458 67.897 141.294 67.485 140.967 67.1125C140.651 66.7401 140.047 66.5538 139.156 66.5538ZM137.259 78.2356C137.711 78.213 138.151 78.2017 138.58 78.2017C139.009 78.2017 139.398 78.2017 139.748 78.2017C140.775 78.2017 141.452 77.9703 141.78 77.5076C142.118 77.0336 142.288 76.5482 142.288 76.0516C142.288 75.5098 142.085 75.0019 141.678 74.5279C141.283 74.0539 140.55 73.8168 139.477 73.8168H137.259V78.2356ZM166.411 68.7547C166.411 69.6238 166.214 70.397 165.819 71.0742C165.424 71.7514 164.927 72.3101 164.329 72.7502C163.742 73.1904 163.155 73.4726 162.568 73.5967C163.178 73.7999 163.68 74.1103 164.075 74.5279C164.481 74.9455 164.831 75.4816 165.125 76.1363L166.005 78.1509C166.208 78.6137 166.44 79.0426 166.699 79.4376C166.959 79.8214 167.247 80.1487 167.563 80.4196C167.235 80.8259 166.744 81.204 166.09 81.5539C165.435 81.8925 164.724 82.0618 163.957 82.0618C163.2 82.0618 162.585 81.8812 162.111 81.52C161.648 81.1476 161.242 80.555 160.892 79.7424L159.402 76.3225C159.165 75.7694 158.872 75.4365 158.522 75.3236C158.172 75.2107 157.721 75.1543 157.168 75.1543H156.507V81.7401C156.056 81.8191 155.587 81.8699 155.102 81.8925C154.628 81.9263 154.222 81.9433 153.883 81.9433C153.567 81.9433 153.15 81.9263 152.63 81.8925C152.111 81.8699 151.637 81.8191 151.208 81.7401V63.2525L151.394 63.0493C152.76 63.0155 154.041 62.9872 155.238 62.9647C156.445 62.9308 157.647 62.9139 158.844 62.9139C160.198 62.9139 161.451 63.0945 162.602 63.4556C163.753 63.8055 164.673 64.4094 165.362 65.2672C166.062 66.1137 166.411 67.2762 166.411 68.7547ZM156.507 66.7401V71.125C156.902 71.1137 157.264 71.108 157.591 71.108C157.929 71.0967 158.178 71.0911 158.336 71.0911C159.352 71.0911 160.04 70.871 160.401 70.4308C160.762 69.9906 160.943 69.4771 160.943 68.8902C160.943 68.3146 160.762 67.8179 160.401 67.4003C160.04 66.9827 159.436 66.7739 158.59 66.7739C158.183 66.7739 157.834 66.7683 157.54 66.757C157.247 66.7457 156.902 66.7401 156.507 66.7401ZM168.916 72.4455C168.916 69.4207 169.695 67.0222 171.253 65.2502C172.821 63.4669 175.107 62.5753 178.109 62.5753C181.157 62.5753 183.454 63.4613 185 65.2333C186.557 66.994 187.336 69.3981 187.336 72.4455C187.336 75.4929 186.557 77.8913 185 79.6408C183.442 81.3789 181.145 82.248 178.109 82.248C175.062 82.248 172.765 81.3677 171.219 79.6069C169.684 77.8462 168.916 75.4591 168.916 72.4455ZM174.385 72.4455C174.385 73.0888 174.424 73.7548 174.503 74.4433C174.594 75.1205 174.763 75.7525 175.011 76.3394C175.271 76.9263 175.649 77.406 176.145 77.7785C176.642 78.1397 177.302 78.3202 178.126 78.3202C178.95 78.3202 179.61 78.1397 180.107 77.7785C180.604 77.406 180.976 76.9263 181.224 76.3394C181.484 75.7525 181.653 75.1205 181.732 74.4433C181.823 73.7548 181.868 73.0888 181.868 72.4455C181.868 71.7909 181.823 71.1193 181.732 70.4308C181.653 69.731 181.484 69.0877 181.224 68.5008C180.976 67.9026 180.604 67.4229 180.107 67.0617C179.61 66.6893 178.95 66.503 178.126 66.503C177.302 66.503 176.642 66.6893 176.145 67.0617C175.649 67.4229 175.271 67.9026 175.011 68.5008C174.763 69.0877 174.594 69.731 174.503 70.4308C174.424 71.1193 174.385 71.7909 174.385 72.4455ZM189.01 80.3349C189.01 79.906 189.095 79.432 189.264 78.9128C189.434 78.3823 189.665 77.8913 189.959 77.4399C190.252 76.9884 190.574 76.6498 190.924 76.4241C191.759 76.8755 192.69 77.2649 193.717 77.5922C194.744 77.9083 195.749 78.0663 196.731 78.0663C197.363 78.0663 197.882 77.9365 198.288 77.6769C198.706 77.4173 198.915 77.0505 198.915 76.5764C198.915 76.2717 198.796 75.9952 198.559 75.7469C198.322 75.4873 197.91 75.2503 197.323 75.0358L194.513 73.9353C193.644 73.6193 192.831 73.2243 192.075 72.7502C191.319 72.2762 190.709 71.6949 190.246 71.0064C189.784 70.318 189.552 69.494 189.552 68.5347C189.552 66.7739 190.229 65.3405 191.584 64.2344C192.938 63.1283 194.761 62.5753 197.052 62.5753C198.35 62.5753 199.637 62.7276 200.912 63.0324C202.199 63.3258 203.277 63.6644 204.146 64.0482C204.146 64.8157 203.988 65.5719 203.672 66.3168C203.356 67.0617 202.921 67.6486 202.368 68.0775C201.533 67.7051 200.624 67.3947 199.643 67.1464C198.661 66.8868 197.775 66.757 196.985 66.757C196.398 66.757 195.946 66.8812 195.63 67.1295C195.325 67.3778 195.173 67.6769 195.173 68.0268C195.173 68.3541 195.325 68.6024 195.63 68.7717C195.935 68.941 196.313 69.1103 196.764 69.2796L199.558 70.3462C201.115 70.9105 202.351 71.6893 203.266 72.6825C204.191 73.6645 204.654 74.8778 204.654 76.3225C204.654 77.5979 204.31 78.6758 203.621 79.5561C202.944 80.4365 202.013 81.1024 200.828 81.5539C199.654 82.0054 198.328 82.2367 196.849 82.248C195.088 82.248 193.519 82.0449 192.143 81.6385C190.777 81.2322 189.733 80.7977 189.01 80.3349Z" fill="#364760"/>
</svg>
