<svg width="253" height="102" viewBox="0 0 253 102" fill="none" xmlns="http://www.w3.org/2000/svg">
<rect opacity="0.5" y="0.397461" width="253" height="101.083" rx="10" fill="#DBDADA"/>
<path d="M66.1303 34.7757C65.9497 34.7757 65.7352 34.77 65.4869 34.7587C65.2499 34.7475 65.0185 34.7418 64.7928 34.7418L63.3537 39.6515C63.0151 39.7305 62.6483 39.7813 62.2533 39.8039C61.8695 39.8378 61.4689 39.8547 61.0513 39.8547C60.6449 39.8547 60.1822 39.8208 59.663 39.7531C59.1551 39.6967 58.7488 39.6064 58.444 39.4822L58.2409 39.1944L65.724 16.4912C66.1528 16.4235 66.6664 16.3727 67.2646 16.3388C67.8741 16.305 68.4045 16.288 68.856 16.288C69.2849 16.288 69.8041 16.3106 70.4136 16.3558C71.0231 16.3896 71.5479 16.4461 71.9881 16.5251L79.268 39.2621C78.8955 39.4766 78.4102 39.6402 77.812 39.7531C77.2251 39.866 76.6777 39.9224 76.1698 39.9224C75.312 39.9224 74.6405 39.7249 74.1551 39.3299C73.6698 38.9235 73.2635 38.1391 72.9362 36.9766L72.2928 34.7418C72.0784 34.7418 71.847 34.7475 71.5987 34.7587C71.3504 34.77 71.1359 34.7757 70.9553 34.7757H66.1303ZM66.8075 27.8851L66.0456 30.5093C66.2601 30.5093 66.4914 30.5093 66.7398 30.5093C66.9881 30.498 67.2082 30.4924 67.4 30.4924H69.8718C70.0411 30.4924 70.233 30.498 70.4474 30.5093C70.6732 30.5093 70.8933 30.5093 71.1077 30.5093L70.5152 28.393C70.2556 27.445 69.9508 26.3276 69.6009 25.0409C69.251 23.7542 68.935 22.5522 68.6529 21.4348H68.4497C68.3368 22.0668 68.1845 22.7666 67.9926 23.5341C67.8007 24.3016 67.5975 25.0691 67.3831 25.8366C67.1799 26.5928 66.9881 27.2757 66.8075 27.8851ZM92.9541 34.6741C92.9541 34.1098 92.9654 33.5454 92.988 32.9811C92.7848 32.9811 92.576 32.9811 92.3616 32.9811C92.1584 32.9811 91.9609 32.9811 91.769 32.9811C90.9338 32.9811 90.3243 32.8061 89.9406 32.4563C89.5568 32.0951 89.3649 31.5251 89.3649 30.7463C89.3649 30.4416 89.3875 30.086 89.4327 29.6797C89.4891 29.2734 89.5568 28.963 89.6358 28.7486C90.4485 28.7147 91.2555 28.6978 92.0568 28.6978C92.8582 28.6865 93.6708 28.6808 94.4948 28.6808C95.7927 28.6808 96.6787 28.9292 97.1528 29.4258C97.6381 29.9224 97.8808 30.6278 97.8808 31.542V39.0251C97.2826 39.217 96.5207 39.3976 95.5952 39.5669C94.6697 39.7362 93.7103 39.8716 92.7171 39.9732C91.7239 40.0748 90.8209 40.1256 90.0083 40.1256C87.7622 40.1256 85.9451 39.7136 84.5568 38.8897C83.1798 38.0658 82.1753 36.9371 81.5433 35.5037C80.9225 34.059 80.6121 32.4224 80.6121 30.5939C80.6121 28.1786 81.0579 26.2316 81.9496 24.7531C82.8525 23.2632 84.0489 22.1741 85.5387 21.4856C87.0286 20.7971 88.6595 20.4528 90.4315 20.4528C91.7634 20.4528 93.0444 20.5883 94.2747 20.8592C95.5162 21.1188 96.611 21.4686 97.5591 21.9088C97.5027 22.6425 97.2826 23.41 96.8988 24.2113C96.5264 25.0014 96.1031 25.6052 95.6291 26.0228C93.9022 25.165 92.26 24.7361 90.7024 24.7361C87.6211 24.7361 86.0805 26.6662 86.0805 30.5262C86.0805 32.445 86.4755 33.8615 87.2656 34.7757C88.0557 35.6899 89.269 36.147 90.9056 36.147C91.2442 36.147 91.5884 36.1357 91.9383 36.1132C92.2882 36.0793 92.6268 36.0341 92.9541 35.9777V34.6741ZM117.126 26.6323C117.126 27.5014 116.928 28.2745 116.533 28.9517C116.138 29.6289 115.642 30.1876 115.043 30.6278C114.456 31.068 113.87 31.3502 113.283 31.4743C113.892 31.6775 114.394 31.9879 114.789 32.4055C115.196 32.8231 115.546 33.3592 115.839 34.0138L116.719 36.0285C116.923 36.4913 117.154 36.9202 117.414 37.3152C117.673 37.6989 117.961 38.0262 118.277 38.2971C117.95 38.7035 117.459 39.0816 116.804 39.4314C116.149 39.77 115.438 39.9393 114.671 39.9393C113.915 39.9393 113.3 39.7588 112.826 39.3976C112.363 39.0251 111.956 38.4326 111.607 37.6199L110.117 34.2001C109.88 33.647 109.586 33.314 109.236 33.2012C108.886 33.0883 108.435 33.0319 107.882 33.0319H107.222V39.6177C106.77 39.6967 106.302 39.7475 105.816 39.77C105.342 39.8039 104.936 39.8208 104.598 39.8208C104.281 39.8208 103.864 39.8039 103.345 39.77C102.825 39.7475 102.351 39.6967 101.923 39.6177V21.13L102.109 20.9269C103.474 20.893 104.756 20.8648 105.952 20.8422C107.16 20.8084 108.362 20.7914 109.558 20.7914C110.912 20.7914 112.165 20.972 113.316 21.3332C114.468 21.6831 115.388 22.2869 116.076 23.1447C116.776 23.9912 117.126 25.1538 117.126 26.6323ZM107.222 24.6176V29.0025C107.617 28.9912 107.978 28.9856 108.305 28.9856C108.644 28.9743 108.892 28.9687 109.05 28.9687C110.066 28.9687 110.754 28.7486 111.116 28.3084C111.477 27.8682 111.657 27.3547 111.657 26.7678C111.657 26.1921 111.477 25.6955 111.116 25.2779C110.754 24.8603 110.151 24.6515 109.304 24.6515C108.898 24.6515 108.548 24.6458 108.254 24.6346C107.961 24.6233 107.617 24.6176 107.222 24.6176ZM135.405 35.3682C135.405 36.9822 135.151 38.1053 134.643 38.7373C134.146 39.3694 133.3 39.6854 132.103 39.6854H124.299C123.339 39.6854 122.583 39.4145 122.03 38.8728C121.477 38.3197 121.2 37.5804 121.2 36.6549V21.147L121.387 20.9607H134.778C134.857 21.3445 134.902 21.7113 134.914 22.0612C134.925 22.4111 134.931 22.744 134.931 23.0601C134.931 23.3648 134.897 23.7091 134.829 24.0928C134.773 24.4765 134.671 24.8659 134.524 25.261H128.599C128.125 25.261 127.408 25.2553 126.449 25.244C126.46 25.5939 126.466 25.893 126.466 26.1413C126.477 26.3896 126.483 26.6887 126.483 27.0386V28.156C127.419 28.1447 128.125 28.1391 128.599 28.1391H132.933C133.046 28.4438 133.119 28.7937 133.153 29.1888C133.198 29.5725 133.221 29.8998 133.221 30.1707C133.221 30.4867 133.198 30.8423 133.153 31.2373C133.119 31.621 133.046 31.9709 132.933 32.287H128.599C128.384 32.287 128.085 32.287 127.701 32.287C127.318 32.287 126.911 32.287 126.483 32.287V33.3874C126.483 33.805 126.477 34.1493 126.466 34.4201C126.454 34.691 126.449 35.0296 126.449 35.4359V35.4698C126.844 35.4472 127.211 35.4247 127.549 35.4021C127.888 35.3795 128.3 35.3682 128.785 35.3682H135.405ZM149.762 34.6741C149.762 34.1098 149.774 33.5454 149.796 32.9811C149.593 32.9811 149.384 32.9811 149.17 32.9811C148.967 32.9811 148.769 32.9811 148.577 32.9811C147.742 32.9811 147.133 32.8061 146.749 32.4563C146.365 32.0951 146.173 31.5251 146.173 30.7463C146.173 30.4416 146.196 30.086 146.241 29.6797C146.297 29.2734 146.365 28.963 146.444 28.7486C147.257 28.7147 148.064 28.6978 148.865 28.6978C149.667 28.6865 150.479 28.6808 151.303 28.6808C152.601 28.6808 153.487 28.9292 153.961 29.4258C154.446 29.9224 154.689 30.6278 154.689 31.542V39.0251C154.091 39.217 153.329 39.3976 152.404 39.5669C151.478 39.7362 150.519 39.8716 149.525 39.9732C148.532 40.0748 147.629 40.1256 146.817 40.1256C144.571 40.1256 142.753 39.7136 141.365 38.8897C139.988 38.0658 138.984 36.9371 138.352 35.5037C137.731 34.059 137.42 32.4224 137.42 30.5939C137.42 28.1786 137.866 26.2316 138.758 24.7531C139.661 23.2632 140.857 22.1741 142.347 21.4856C143.837 20.7971 145.468 20.4528 147.24 20.4528C148.572 20.4528 149.853 20.5883 151.083 20.8592C152.325 21.1188 153.419 21.4686 154.367 21.9088C154.311 22.6425 154.091 23.41 153.707 24.2113C153.335 25.0014 152.911 25.6052 152.437 26.0228C150.711 25.165 149.068 24.7361 147.511 24.7361C144.429 24.7361 142.889 26.6662 142.889 30.5262C142.889 32.445 143.284 33.8615 144.074 34.7757C144.864 35.6899 146.077 36.147 147.714 36.147C148.053 36.147 148.397 36.1357 148.747 36.1132C149.097 36.0793 149.435 36.0341 149.762 35.9777V34.6741ZM163.471 36.3502C163.291 36.3502 163.116 36.3502 162.946 36.3502C162.777 36.3389 162.608 36.3276 162.439 36.3163L161.389 39.6177C161.062 39.6967 160.706 39.7531 160.322 39.787C159.939 39.8321 159.538 39.8547 159.12 39.8547C158.669 39.8547 158.212 39.8208 157.749 39.7531C157.297 39.6854 156.925 39.5895 156.632 39.4653L156.445 39.1775L163.031 20.9607C163.618 20.8704 164.182 20.814 164.724 20.7914C165.277 20.7689 165.779 20.7576 166.231 20.7576C166.649 20.7576 167.1 20.7689 167.585 20.7914C168.071 20.814 168.618 20.8704 169.228 20.9607L175.627 39.3637C175.232 39.5443 174.73 39.6798 174.12 39.77C173.511 39.8716 173.02 39.9224 172.647 39.9224C172.027 39.9224 171.428 39.8039 170.853 39.5669C170.277 39.3299 169.843 38.7035 169.549 37.6876L169.126 36.3163C168.945 36.3276 168.77 36.3389 168.601 36.3502C168.432 36.3502 168.251 36.3502 168.059 36.3502H163.471ZM164.149 31.0003L163.776 32.1684C163.945 32.1572 164.115 32.1515 164.284 32.1515C164.453 32.1402 164.628 32.1346 164.809 32.1346H166.925C167.094 32.1346 167.247 32.1402 167.382 32.1515C167.529 32.1515 167.676 32.1572 167.822 32.1684L167.467 31.0172C167.207 30.1255 166.948 29.1323 166.688 28.0375C166.428 26.9427 166.191 25.9495 165.977 25.0578H165.774C165.537 25.9156 165.272 26.8975 164.978 28.0036C164.696 29.1097 164.419 30.1086 164.149 31.0003ZM193.41 26.6323C193.41 27.5014 193.213 28.2745 192.818 28.9517C192.423 29.6289 191.926 30.1876 191.328 30.6278C190.741 31.068 190.154 31.3502 189.567 31.4743C190.177 31.6775 190.679 31.9879 191.074 32.4055C191.48 32.8231 191.83 33.3592 192.124 34.0138L193.004 36.0285C193.207 36.4913 193.439 36.9202 193.698 37.3152C193.958 37.6989 194.246 38.0262 194.562 38.2971C194.234 38.7035 193.743 39.0816 193.089 39.4314C192.434 39.77 191.723 39.9393 190.955 39.9393C190.199 39.9393 189.584 39.7588 189.11 39.3976C188.647 39.0251 188.241 38.4326 187.891 37.6199L186.401 34.2001C186.164 33.647 185.871 33.314 185.521 33.2012C185.171 33.0883 184.72 33.0319 184.166 33.0319H183.506V39.6177C183.055 39.6967 182.586 39.7475 182.101 39.77C181.627 39.8039 181.221 39.8208 180.882 39.8208C180.566 39.8208 180.148 39.8039 179.629 39.77C179.11 39.7475 178.636 39.6967 178.207 39.6177V21.13L178.393 20.9269C179.759 20.893 181.04 20.8648 182.236 20.8422C183.444 20.8084 184.646 20.7914 185.843 20.7914C187.197 20.7914 188.45 20.972 189.601 21.3332C190.752 21.6831 191.672 22.2869 192.361 23.1447C193.06 23.9912 193.41 25.1538 193.41 26.6323ZM183.506 24.6176V29.0025C183.901 28.9912 184.262 28.9856 184.59 28.9856C184.928 28.9743 185.177 28.9687 185.335 28.9687C186.35 28.9687 187.039 28.7486 187.4 28.3084C187.761 27.8682 187.942 27.3547 187.942 26.7678C187.942 26.1921 187.761 25.6955 187.4 25.2779C187.039 24.8603 186.435 24.6515 185.589 24.6515C185.182 24.6515 184.832 24.6458 184.539 24.6346C184.245 24.6233 183.901 24.6176 183.506 24.6176ZM59.6917 58.5251C60.2673 58.4235 60.8937 58.3558 61.5709 58.3219C62.2594 58.288 62.852 58.2711 63.3486 58.2711C63.8452 58.2711 64.3983 58.288 65.0077 58.3219C65.6172 58.3558 66.2098 58.4235 66.7854 58.5251L68.7831 66.8039C68.8283 67.007 68.9017 67.3569 69.0032 67.8535C69.1161 68.3501 69.2403 68.9145 69.3757 69.5465C69.5111 70.1786 69.6353 70.7994 69.7482 71.4088C69.8723 72.0183 69.9682 72.5375 70.036 72.9664H70.273C70.3407 72.5375 70.4366 72.0183 70.5608 71.4088C70.685 70.7994 70.8091 70.1786 70.9333 69.5465C71.0687 68.9145 71.1929 68.3501 71.3057 67.8535C71.4186 67.3569 71.4976 67.007 71.5427 66.8039L73.5405 58.5251C74.1161 58.4235 74.703 58.3558 75.3012 58.3219C75.9107 58.288 76.4638 58.2711 76.9604 58.2711C77.457 58.2711 78.0495 58.288 78.738 58.3219C79.4265 58.3558 80.0529 58.4235 80.6173 58.5251L82.4118 81.55C82.0281 81.6515 81.5823 81.7193 81.0744 81.7531C80.5778 81.7983 80.1094 81.8208 79.6692 81.8208C79.2629 81.8208 78.8622 81.8095 78.4671 81.787C78.0834 81.7644 77.694 81.7193 77.299 81.6515L76.7911 72.2215C76.7233 71.0251 76.6613 69.7045 76.6048 68.2598C76.5484 66.8151 76.5202 65.5398 76.5202 64.4337H76.2832L72.9479 78.2147C72.5416 78.2825 72.0676 78.3332 71.5258 78.3671C70.9841 78.3897 70.5213 78.401 70.1375 78.401C69.7989 78.401 69.3531 78.3897 68.8001 78.3671C68.247 78.3332 67.7673 78.2825 67.361 78.2147L64.0258 64.4337H63.8057C63.7944 65.5398 63.7606 66.8151 63.7041 68.2598C63.659 69.7045 63.6025 71.0251 63.5348 72.2215L63.01 81.6515C62.6262 81.7193 62.2368 81.7644 61.8418 81.787C61.4468 81.8095 61.0461 81.8208 60.6398 81.8208C60.2109 81.8208 59.7425 81.7983 59.2346 81.7531C58.738 81.7193 58.2921 81.6515 57.8971 81.55L59.6917 58.5251ZM86.7631 62.9607C87.192 62.8704 87.6774 62.814 88.2191 62.7914C88.7609 62.7689 89.1898 62.7576 89.5058 62.7576C89.8444 62.7576 90.2507 62.7689 90.7248 62.7914C91.2101 62.814 91.6785 62.8704 92.13 62.9607V81.6177C91.6785 81.6967 91.2101 81.7475 90.7248 81.77C90.2507 81.8039 89.8444 81.8208 89.5058 81.8208C89.1898 81.8208 88.7609 81.8039 88.2191 81.77C87.6774 81.7475 87.192 81.6967 86.7631 81.6177V62.9607ZM111.25 77.3682C111.25 78.9822 110.996 80.1053 110.488 80.7373C109.991 81.3694 109.145 81.6854 107.948 81.6854H100.143C99.1841 81.6854 98.4279 81.4145 97.8748 80.8728C97.3218 80.3197 97.0452 79.5804 97.0452 78.6549V63.147L97.2315 62.9607H110.623C110.702 63.3445 110.747 63.7113 110.759 64.0612C110.77 64.4111 110.776 64.744 110.776 65.0601C110.776 65.3648 110.742 65.7091 110.674 66.0928C110.618 66.4765 110.516 66.8659 110.369 67.261H104.444C103.97 67.261 103.253 67.2553 102.294 67.244C102.305 67.5939 102.31 67.893 102.31 68.1413C102.322 68.3896 102.327 68.6887 102.327 69.0386V70.156C103.264 70.1447 103.97 70.1391 104.444 70.1391H108.778C108.891 70.4438 108.964 70.7937 108.998 71.1888C109.043 71.5725 109.066 71.8998 109.066 72.1707C109.066 72.4867 109.043 72.8423 108.998 73.2373C108.964 73.621 108.891 73.9709 108.778 74.287H104.444C104.229 74.287 103.93 74.287 103.546 74.287C103.163 74.287 102.756 74.287 102.327 74.287V75.3874C102.327 75.805 102.322 76.1493 102.31 76.4201C102.299 76.691 102.294 77.0296 102.294 77.4359V77.4698C102.689 77.4472 103.055 77.4247 103.394 77.4021C103.733 77.3795 104.145 77.3682 104.63 77.3682H111.25ZM116.119 62.9607C116.661 62.8592 117.254 62.7914 117.897 62.7576C118.54 62.7124 119.082 62.6899 119.522 62.6899C119.94 62.6899 120.482 62.7124 121.148 62.7576C121.814 62.7914 122.372 62.8592 122.824 62.9607L124.483 70.3084C124.584 70.7486 124.703 71.3468 124.838 72.103C124.974 72.8479 125.109 73.6493 125.245 74.507H125.465C125.736 72.7012 125.99 71.3016 126.227 70.3084L127.869 62.9607C128.399 62.8592 128.981 62.7914 129.613 62.7576C130.245 62.7124 130.77 62.6899 131.187 62.6899C131.627 62.6899 132.175 62.7124 132.829 62.7576C133.484 62.7914 134.071 62.8592 134.59 62.9607L136.503 81.55C135.77 81.7305 134.884 81.8208 133.845 81.8208C133.45 81.8208 133.027 81.8039 132.575 81.77C132.135 81.7362 131.74 81.6854 131.39 81.6177L130.899 75.6244C130.843 74.8569 130.809 74.0161 130.798 73.1018C130.786 72.1876 130.786 71.296 130.798 70.4269C130.809 69.5465 130.809 68.7847 130.798 68.1413H130.595L128.106 78.7565C127.722 78.8242 127.254 78.875 126.701 78.9089C126.148 78.9314 125.69 78.9427 125.329 78.9427C124.957 78.9427 124.494 78.9314 123.941 78.9089C123.399 78.875 122.948 78.8242 122.587 78.7565L120.115 68.1413H119.878C119.878 68.796 119.878 69.5578 119.878 70.4269C119.889 71.296 119.889 72.1876 119.878 73.1018C119.867 74.0161 119.827 74.8682 119.759 75.6583L119.319 81.6177C118.958 81.6854 118.563 81.7362 118.134 81.77C117.716 81.8039 117.31 81.8208 116.915 81.8208C115.865 81.8208 114.962 81.7305 114.206 81.55L116.119 62.9607ZM140.846 62.9269C141.433 62.9043 142.139 62.8817 142.963 62.8592C143.798 62.8366 144.656 62.8197 145.536 62.8084C146.416 62.7971 147.223 62.7914 147.957 62.7914C149.345 62.7914 150.587 62.9494 151.681 63.2655C152.788 63.5815 153.657 64.1063 154.289 64.84C154.921 65.5623 155.237 66.533 155.237 67.7519C155.237 68.542 155.017 69.2926 154.577 70.0036C154.148 70.7147 153.555 71.217 152.799 71.5104C153.77 71.8152 154.582 72.4134 155.237 73.305C155.891 74.1854 156.219 75.1391 156.219 76.1662C156.219 77.6109 155.88 78.7396 155.203 79.5522C154.537 80.3536 153.612 80.9235 152.426 81.2621C151.253 81.5895 149.909 81.7531 148.397 81.7531C147.235 81.7531 146.027 81.7418 144.774 81.7193C143.521 81.708 142.212 81.6854 140.846 81.6515L140.66 81.4822V63.13L140.846 62.9269ZM147.72 66.4314C147.505 66.4314 147.218 66.4314 146.856 66.4314C146.495 66.4314 146.151 66.4201 145.824 66.3975V70.0375H147.686C148.589 70.0375 149.204 69.8513 149.531 69.4788C149.859 69.1064 150.022 68.6887 150.022 68.226C150.022 67.7745 149.859 67.3626 149.531 66.9901C149.215 66.6176 148.612 66.4314 147.72 66.4314ZM145.824 78.1132C146.275 78.0906 146.715 78.0793 147.144 78.0793C147.573 78.0793 147.963 78.0793 148.312 78.0793C149.34 78.0793 150.017 77.8479 150.344 77.3852C150.683 76.9111 150.852 76.4258 150.852 75.9292C150.852 75.3874 150.649 74.8795 150.242 74.4055C149.847 73.9314 149.114 73.6944 148.042 73.6944H145.824V78.1132ZM174.976 68.6323C174.976 69.5014 174.778 70.2745 174.383 70.9517C173.988 71.6289 173.491 72.1876 172.893 72.6278C172.306 73.068 171.719 73.3502 171.133 73.4743C171.742 73.6775 172.244 73.9879 172.639 74.4055C173.046 74.8231 173.396 75.3592 173.689 76.0138L174.569 78.0285C174.773 78.4913 175.004 78.9202 175.263 79.3152C175.523 79.6989 175.811 80.0262 176.127 80.2971C175.8 80.7035 175.309 81.0816 174.654 81.4314C173.999 81.77 173.288 81.9393 172.521 81.9393C171.765 81.9393 171.149 81.7588 170.675 81.3976C170.213 81.0251 169.806 80.4326 169.456 79.6199L167.967 76.2001C167.73 75.647 167.436 75.314 167.086 75.2012C166.736 75.0883 166.285 75.0319 165.732 75.0319H165.072V81.6177C164.62 81.6967 164.152 81.7475 163.666 81.77C163.192 81.8039 162.786 81.8208 162.447 81.8208C162.131 81.8208 161.714 81.8039 161.195 81.77C160.675 81.7475 160.201 81.6967 159.772 81.6177V63.13L159.959 62.9269C161.324 62.893 162.605 62.8648 163.802 62.8422C165.01 62.8084 166.212 62.7914 167.408 62.7914C168.762 62.7914 170.015 62.972 171.166 63.3332C172.318 63.6831 173.238 64.2869 173.926 65.1447C174.626 65.9912 174.976 67.1538 174.976 68.6323ZM165.072 66.6176V71.0025C165.467 70.9912 165.828 70.9856 166.155 70.9856C166.494 70.9743 166.742 70.9687 166.9 70.9687C167.916 70.9687 168.604 70.7486 168.966 70.3084C169.327 69.8682 169.507 69.3547 169.507 68.7678C169.507 68.1921 169.327 67.6955 168.966 67.2779C168.604 66.8603 168 66.6515 167.154 66.6515C166.748 66.6515 166.398 66.6458 166.104 66.6346C165.811 66.6233 165.467 66.6176 165.072 66.6176ZM177.481 72.3231C177.481 69.2982 178.259 66.8998 179.817 65.1278C181.386 63.3445 183.671 62.4528 186.674 62.4528C189.721 62.4528 192.018 63.3388 193.564 65.1109C195.122 66.8716 195.9 69.2757 195.9 72.3231C195.9 75.3705 195.122 77.7689 193.564 79.5183C192.007 81.2565 189.71 82.1256 186.674 82.1256C183.626 82.1256 181.329 81.2452 179.783 79.4845C178.248 77.7238 177.481 75.3366 177.481 72.3231ZM182.949 72.3231C182.949 72.9664 182.988 73.6323 183.067 74.3208C183.158 74.998 183.327 75.6301 183.575 76.217C183.835 76.8039 184.213 77.2836 184.71 77.656C185.206 78.0172 185.867 78.1978 186.69 78.1978C187.514 78.1978 188.175 78.0172 188.671 77.656C189.168 77.2836 189.54 76.8039 189.789 76.217C190.048 75.6301 190.218 74.998 190.297 74.3208C190.387 73.6323 190.432 72.9664 190.432 72.3231C190.432 71.6684 190.387 70.9969 190.297 70.3084C190.218 69.6086 190.048 68.9653 189.789 68.3784C189.54 67.7802 189.168 67.3005 188.671 66.9393C188.175 66.5668 187.514 66.3806 186.69 66.3806C185.867 66.3806 185.206 66.5668 184.71 66.9393C184.213 67.3005 183.835 67.7802 183.575 68.3784C183.327 68.9653 183.158 69.6086 183.067 70.3084C182.988 70.9969 182.949 71.6684 182.949 72.3231Z" fill="#364760"/>
</svg>
