<svg width="427" height="178" viewBox="0 0 427 178" fill="none" xmlns="http://www.w3.org/2000/svg">
<path d="M196.454 93.0001C195.142 93.2241 193.814 93.3681 192.47 93.4321C191.158 93.5281 189.974 93.5761 188.918 93.5761C187.862 93.5761 186.614 93.5281 185.174 93.4321C183.734 93.3681 182.358 93.2241 181.046 93.0001V28.0081L181.718 27.4321H222.758C222.982 28.2641 223.142 29.2401 223.238 30.3601C223.366 31.4481 223.43 32.4401 223.43 33.3361C223.43 35.8321 222.742 37.6401 221.366 38.7601C220.022 39.8801 217.974 40.4401 215.222 40.4401H203.222C202.006 40.4401 200.838 40.4401 199.718 40.4401C198.598 40.4401 197.494 40.4241 196.406 40.3921C196.406 41.7041 196.406 43.0001 196.406 44.2801C196.438 45.5281 196.454 46.7601 196.454 47.9761V54.0721C197.094 54.0721 197.702 54.0721 198.278 54.0721H216.902C217.19 54.9361 217.398 55.9921 217.526 57.2401C217.654 58.4561 217.718 59.4801 217.718 60.3121C217.718 61.1761 217.654 62.2161 217.526 63.4321C217.398 64.6481 217.19 65.7201 216.902 66.6481H198.278C197.702 66.6481 197.094 66.6481 196.454 66.6481V93.0001ZM276.773 80.4241C276.773 84.6481 276.101 87.8481 274.757 90.0241C273.445 92.2001 270.757 93.2881 266.693 93.2881H241.157C238.405 93.2881 236.245 92.4881 234.677 90.8881C233.109 89.2881 232.325 87.0961 232.325 84.3121V28.1041L232.997 27.4321H274.373C274.597 28.5841 274.741 29.6721 274.805 30.6961C274.869 31.6881 274.901 32.6161 274.901 33.4801C274.901 34.3441 274.789 35.4161 274.565 36.6961C274.373 37.9441 274.069 39.1441 273.653 40.2961H254.021C253.317 40.2961 252.357 40.2961 251.141 40.2961C249.957 40.2641 248.725 40.2321 247.445 40.2001C247.445 41.5121 247.461 42.6961 247.493 43.7521C247.525 44.7761 247.541 45.9281 247.541 47.2081V53.8801C248.821 53.8481 250.053 53.8321 251.237 53.8321C252.421 53.8001 253.349 53.7841 254.021 53.7841H268.661C268.981 54.7121 269.205 55.7841 269.333 57.0001C269.493 58.2161 269.573 59.2401 269.573 60.0721C269.573 60.9361 269.493 61.9441 269.333 63.0961C269.205 64.2481 268.981 65.3201 268.661 66.3121H254.021C253.349 66.3121 252.421 66.3121 251.237 66.3121C250.053 66.2801 248.821 66.2481 247.541 66.2161V73.6081C247.541 74.8561 247.525 76.0081 247.493 77.0641C247.461 78.0881 247.445 79.2401 247.445 80.5201V80.6161C248.533 80.5521 249.653 80.5041 250.805 80.4721C251.957 80.4401 253.205 80.4241 254.549 80.4241H276.773ZM290.476 27.5281C292.108 27.2401 293.884 27.0481 295.804 26.9521C297.756 26.8561 299.436 26.8081 300.844 26.8081C302.252 26.8081 303.82 26.8561 305.548 26.9521C307.276 27.0481 308.956 27.2401 310.588 27.5281L316.252 51.0001C316.38 51.5761 316.588 52.5681 316.876 53.9761C317.196 55.3841 317.548 56.9841 317.932 58.7761C318.316 60.5681 318.668 62.3281 318.988 64.0561C319.34 65.7841 319.612 67.2561 319.804 68.4721H320.476C320.668 67.2561 320.94 65.7841 321.292 64.0561C321.644 62.3281 321.996 60.5681 322.348 58.7761C322.732 56.9841 323.084 55.3841 323.404 53.9761C323.724 52.5681 323.948 51.5761 324.076 51.0001L329.74 27.5281C331.372 27.2401 333.036 27.0481 334.732 26.9521C336.46 26.8561 338.028 26.8081 339.436 26.8081C340.844 26.8081 342.524 26.8561 344.476 26.9521C346.428 27.0481 348.204 27.2401 349.804 27.5281L354.892 92.8081C353.804 93.0961 352.54 93.2881 351.1 93.3841C349.692 93.5121 348.364 93.5761 347.116 93.5761C345.964 93.5761 344.828 93.5441 343.708 93.4801C342.62 93.4161 341.516 93.2881 340.396 93.0961L338.956 66.3601C338.764 62.9681 338.588 59.2241 338.428 55.1281C338.268 51.0321 338.188 47.4161 338.188 44.2801H337.516L328.06 83.3521C326.908 83.5441 325.564 83.6881 324.028 83.7841C322.492 83.8481 321.18 83.8801 320.092 83.8801C319.132 83.8801 317.868 83.8481 316.3 83.7841C314.732 83.6881 313.372 83.5441 312.22 83.3521L302.764 44.2801H302.14C302.108 47.4161 302.012 51.0321 301.852 55.1281C301.724 59.2241 301.564 62.9681 301.372 66.3601L299.884 93.0961C298.796 93.2881 297.692 93.4161 296.572 93.4801C295.452 93.5441 294.316 93.5761 293.164 93.5761C291.948 93.5761 290.62 93.5121 289.18 93.3841C287.772 93.2881 286.508 93.0961 285.388 92.8081L290.476 27.5281ZM420.653 60.1681C420.653 63.9121 420.381 67.5281 419.837 71.0161C419.325 74.4721 418.301 77.7041 416.765 80.7121C415.229 83.7201 412.925 86.4081 409.853 88.7761C408.381 89.9281 406.605 90.8561 404.525 91.5601C402.477 92.2641 400.365 92.7761 398.189 93.0961C396.013 93.4161 394.029 93.5761 392.237 93.5761C388.109 93.5761 384.093 93.5281 380.189 93.4321C376.317 93.3681 372.285 93.2881 368.093 93.1921L367.421 92.5201V27.9121L368.093 27.2401C372.221 27.1121 376.237 27.0161 380.141 26.9521C384.077 26.8881 388.109 26.8561 392.237 26.8561C394.029 26.8561 396.013 27.0321 398.189 27.3841C400.365 27.7041 402.493 28.2161 404.573 28.9201C406.653 29.6241 408.413 30.5521 409.853 31.7041C412.893 34.0721 415.181 36.7601 416.717 39.7681C418.253 42.7441 419.293 45.9601 419.837 49.4161C420.381 52.8721 420.653 56.4561 420.653 60.1681ZM404.861 60.1681C404.861 57.7361 404.701 55.2721 404.381 52.7761C404.093 50.2481 403.517 47.9441 402.653 45.8641C401.821 43.7521 400.557 42.0561 398.861 40.7761C397.197 39.4641 394.989 38.8081 392.237 38.8081C390.605 38.8081 389.037 38.8081 387.533 38.8081C386.029 38.8081 384.429 38.7761 382.733 38.7121V81.6721C384.429 81.6401 386.029 81.6241 387.533 81.6241C389.037 81.6241 390.605 81.6241 392.237 81.6241C394.989 81.6241 397.197 80.9841 398.861 79.7041C400.557 78.3921 401.821 76.6801 402.653 74.5681C403.517 72.4241 404.093 70.1041 404.381 67.6081C404.701 65.0801 404.861 62.6001 404.861 60.1681Z" fill="white"/>
<g filter="url(#filter0_d)">
<path d="M96.7108 48.5565L100.832 48.9128C97.9258 44.6198 98.6026 32.9873 98.6026 32.9873L107.643 40.2699C112.144 40.6589 96.6851 22.4961 95.3223 26.6943C90.7819 40.6871 96.7108 48.5565 96.7108 48.5565ZM133.047 61.7501L137.274 57.0887L126.395 52.7614L133.047 61.7501L133.047 61.7501ZM151.948 76.9323L155.519 71.0124L149.587 68.8605L151.948 76.9323ZM25.7941 80.195C62.0644 83.6216 82.5495 77.5255 83.9055 75.3117C65.5268 82.3189 27.4686 72.6187 11.559 76.342C11.559 76.342 18.443 64.1176 28.1477 59.7121C37.8515 55.3066 80.6474 64.9781 80.6474 64.9781C47.7667 50.9911 14.5376 56.2039 14.5376 56.2039C26.2827 29.0301 53.6604 37.588 53.6604 37.588C50.3694 33.5155 33.843 34.2731 33.843 34.2731L27.0947 29.7559C42.1009 17.9419 63.5758 22.3112 63.5758 22.3112C62.4235 20.4629 50.7588 18.9086 50.7588 18.9086L44.0653 14.1779C57.1238 9.73542 73.8747 15.6624 73.8747 15.6624C73.9159 13.9181 65.3526 11.8658 65.3526 11.8658L62.0085 8.84552C71.6867 6.84208 84.6087 11.5642 84.6087 11.5642C85.1545 10.3001 81.409 5.60598 81.409 5.60598C93.2487 6.4111 100.174 15.2034 100.174 15.2034C100.647 13.9339 100.583 10.4682 100.583 10.4682C116.537 19.714 117.684 38.4609 117.684 38.4609L126.668 39.0183L137.038 49.6759L137.554 52.1239C148.1 58.2073 153.16 61.1938 157.411 64.2571C160.123 68.2787 158.65 72.6676 158.65 72.6676L151.18 84.5136L133.137 84.7018L132.059 88.3242L147.802 89.4659L144.553 96.724L146.537 104.107L140.101 103.988L137.341 110.633L134.638 107.776L130.265 112.862L124.206 104.581L124.428 103.289L120.848 102.979L108.295 87.6901L111.096 79.301L106.158 77.016L104.234 67.6725L110.598 55.9854L105.032 52.1174L105.983 57.5526L100.019 68.4012L103.118 79.7407L106.693 81.361L104.248 88.5791L119.645 108.484L122.134 108.336C148.205 143.804 128.207 167.861 128.207 167.861C126.652 152.139 116.16 142.054 116.16 142.054C124.096 132.833 121.712 119.953 121.712 119.953C118.268 134.515 108.623 143.296 108.623 143.296L101.099 132.594C110.737 122.209 110.336 111.685 110.336 111.685C98.0137 136.26 85.762 138.115 85.762 138.115L82.6009 127.498C100.467 114.62 100.694 103.568 100.694 103.568C86.5869 128.571 61.0445 129.132 61.0445 129.132L60.7356 115.848C87.2984 105.179 91.6984 93.0295 91.6984 93.0295C66.0035 115.574 41.4043 115.343 41.4043 115.343C43.5213 112.757 44.5898 98.7188 44.5898 98.7188C81.521 94.4807 90.1129 79.3448 90.1129 79.3448C56.4729 102.806 28.7662 89.6301 9.8846 95.719C11.2521 90.009 25.7946 80.1951 25.7946 80.1951" fill="#FEFEFE"/>
</g>
<defs>
<filter id="filter0_d" x="0.572144" y="0.133545" width="167.448" height="177.65" filterUnits="userSpaceOnUse" color-interpolation-filters="sRGB">
<feFlood flood-opacity="0" result="BackgroundImageFix"/>
<feColorMatrix in="SourceAlpha" type="matrix" values="0 0 0 0 0 0 0 0 0 0 0 0 0 0 0 0 0 0 127 0"/>
<feOffset dy="4"/>
<feGaussianBlur stdDeviation="2"/>
<feColorMatrix type="matrix" values="0 0 0 0 0 0 0 0 0 0 0 0 0 0 0 0 0 0 0.25 0"/>
<feBlend mode="normal" in2="BackgroundImageFix" result="effect1_dropShadow"/>
<feBlend mode="normal" in="SourceGraphic" in2="effect1_dropShadow" result="shape"/>
</filter>
</defs>
</svg>
