<svg width="286" height="67" viewBox="0 0 286 67" fill="none" xmlns="http://www.w3.org/2000/svg">
<rect width="286" height="67" rx="10" fill="#1EBCBC"/>
<path d="M82.8756 40.852C82.6836 40.852 82.4556 40.846 82.1916 40.834C81.9396 40.822 81.6936 40.816 81.4536 40.816L79.9236 46.036C79.5636 46.12 79.1736 46.174 78.7536 46.198C78.3456 46.234 77.9196 46.252 77.4756 46.252C77.0436 46.252 76.5516 46.216 75.9996 46.144C75.4596 46.084 75.0276 45.988 74.7036 45.856L74.4876 45.55L82.4436 21.412C82.8996 21.34 83.4456 21.286 84.0816 21.25C84.7296 21.214 85.2936 21.196 85.7736 21.196C86.2296 21.196 86.7816 21.22 87.4296 21.268C88.0776 21.304 88.6356 21.364 89.1036 21.448L96.8436 45.622C96.4476 45.85 95.9316 46.024 95.2956 46.144C94.6716 46.264 94.0896 46.324 93.5496 46.324C92.6376 46.324 91.9236 46.114 91.4076 45.694C90.8916 45.262 90.4596 44.428 90.1116 43.192L89.4276 40.816C89.1996 40.816 88.9536 40.822 88.6896 40.834C88.4256 40.846 88.1976 40.852 88.0056 40.852H82.8756ZM83.5956 33.526L82.7856 36.316C83.0136 36.316 83.2596 36.316 83.5236 36.316C83.7876 36.304 84.0216 36.298 84.2256 36.298H86.8536C87.0336 36.298 87.2376 36.304 87.4656 36.316C87.7056 36.316 87.9396 36.316 88.1676 36.316L87.5376 34.066C87.2616 33.058 86.9376 31.87 86.5656 30.502C86.1936 29.134 85.8576 27.856 85.5576 26.668H85.3416C85.2216 27.34 85.0596 28.084 84.8556 28.9C84.6516 29.716 84.4356 30.532 84.2076 31.348C83.9916 32.152 83.7876 32.878 83.5956 33.526ZM97.8047 44.506C97.8047 44.05 97.8947 43.546 98.0747 42.994C98.2547 42.43 98.5007 41.908 98.8127 41.428C99.1247 40.948 99.4667 40.588 99.8387 40.348C100.727 40.828 101.717 41.242 102.809 41.59C103.901 41.926 104.969 42.094 106.013 42.094C106.685 42.094 107.237 41.956 107.669 41.68C108.113 41.404 108.335 41.014 108.335 40.51C108.335 40.186 108.209 39.892 107.957 39.628C107.705 39.352 107.267 39.1 106.643 38.872L103.655 37.702C102.731 37.366 101.867 36.946 101.063 36.442C100.259 35.938 99.6107 35.32 99.1187 34.588C98.6267 33.856 98.3807 32.98 98.3807 31.96C98.3807 30.088 99.1007 28.564 100.541 27.388C101.981 26.212 103.919 25.624 106.355 25.624C107.735 25.624 109.103 25.786 110.459 26.11C111.827 26.422 112.973 26.782 113.897 27.19C113.897 28.006 113.729 28.81 113.393 29.602C113.057 30.394 112.595 31.018 112.007 31.474C111.119 31.078 110.153 30.748 109.109 30.484C108.065 30.208 107.123 30.07 106.283 30.07C105.659 30.07 105.179 30.202 104.843 30.466C104.519 30.73 104.357 31.048 104.357 31.42C104.357 31.768 104.519 32.032 104.843 32.212C105.167 32.392 105.569 32.572 106.049 32.752L109.019 33.886C110.675 34.486 111.989 35.314 112.961 36.37C113.945 37.414 114.437 38.704 114.437 40.24C114.437 41.596 114.071 42.742 113.339 43.678C112.619 44.614 111.629 45.322 110.369 45.802C109.121 46.282 107.711 46.528 106.139 46.54C104.267 46.54 102.599 46.324 101.135 45.892C99.6827 45.46 98.5727 44.998 97.8047 44.506ZM118.014 26.164C118.47 26.068 118.986 26.008 119.562 25.984C120.138 25.96 120.594 25.948 120.93 25.948C121.29 25.948 121.722 25.96 122.226 25.984C122.742 26.008 123.24 26.068 123.72 26.164V46C123.24 46.084 122.742 46.138 122.226 46.162C121.722 46.198 121.29 46.216 120.93 46.216C120.594 46.216 120.138 46.198 119.562 46.162C118.986 46.138 118.47 46.084 118.014 46V26.164ZM140.61 40.744C140.61 40.144 140.622 39.544 140.646 38.944C140.43 38.944 140.208 38.944 139.98 38.944C139.764 38.944 139.554 38.944 139.35 38.944C138.462 38.944 137.814 38.758 137.406 38.386C136.998 38.002 136.794 37.396 136.794 36.568C136.794 36.244 136.818 35.866 136.866 35.434C136.926 35.002 136.998 34.672 137.082 34.444C137.946 34.408 138.804 34.39 139.656 34.39C140.508 34.378 141.372 34.372 142.248 34.372C143.628 34.372 144.57 34.636 145.074 35.164C145.59 35.692 145.848 36.442 145.848 37.414V45.37C145.212 45.574 144.402 45.766 143.418 45.946C142.434 46.126 141.414 46.27 140.358 46.378C139.302 46.486 138.342 46.54 137.478 46.54C135.09 46.54 133.158 46.102 131.682 45.226C130.218 44.35 129.15 43.15 128.478 41.626C127.818 40.09 127.488 38.35 127.488 36.406C127.488 33.838 127.962 31.768 128.91 30.196C129.87 28.612 131.142 27.454 132.726 26.722C134.31 25.99 136.044 25.624 137.928 25.624C139.344 25.624 140.706 25.768 142.014 26.056C143.334 26.332 144.498 26.704 145.506 27.172C145.446 27.952 145.212 28.768 144.804 29.62C144.408 30.46 143.958 31.102 143.454 31.546C141.618 30.634 139.872 30.178 138.216 30.178C134.94 30.178 133.302 32.23 133.302 36.334C133.302 38.374 133.722 39.88 134.562 40.852C135.402 41.824 136.692 42.31 138.432 42.31C138.792 42.31 139.158 42.298 139.53 42.274C139.902 42.238 140.262 42.19 140.61 42.13V40.744ZM157.129 36.946C157.045 36.754 156.913 36.454 156.733 36.046C156.553 35.626 156.361 35.176 156.157 34.696C155.953 34.216 155.761 33.766 155.581 33.346C155.413 32.926 155.281 32.62 155.185 32.428L155.059 32.482C155.107 33.43 155.155 34.456 155.203 35.56C155.251 36.652 155.287 37.654 155.311 38.566C155.347 39.466 155.365 40.12 155.365 40.528V46C154.897 46.084 154.447 46.138 154.015 46.162C153.583 46.198 153.181 46.216 152.809 46.216C152.473 46.216 152.053 46.198 151.549 46.162C151.057 46.138 150.589 46.084 150.145 46V26.29C150.589 26.182 151.141 26.098 151.801 26.038C152.461 25.978 152.971 25.948 153.331 25.948C153.703 25.948 154.231 25.96 154.915 25.984C155.599 25.996 156.163 26.056 156.607 26.164L160.837 35.182C160.921 35.35 161.059 35.656 161.251 36.1C161.455 36.544 161.671 37.03 161.899 37.558C162.127 38.086 162.337 38.584 162.529 39.052C162.733 39.508 162.883 39.844 162.979 40.06L163.141 40.024C163.093 39.232 163.027 38.308 162.943 37.252C162.871 36.196 162.805 35.176 162.745 34.192C162.685 33.208 162.655 32.422 162.655 31.834V29.026C162.655 27.754 162.931 26.92 163.483 26.524C164.035 26.116 164.857 25.912 165.949 25.912H167.803L168.019 26.164V45.892C167.551 46 166.987 46.078 166.327 46.126C165.667 46.186 165.163 46.216 164.815 46.216C164.575 46.216 164.245 46.21 163.825 46.198C163.405 46.186 162.973 46.168 162.529 46.144C162.097 46.12 161.737 46.072 161.449 46L157.129 36.946ZM178.247 42.526C178.055 42.526 177.869 42.526 177.689 42.526C177.509 42.514 177.329 42.502 177.149 42.49L176.033 46C175.685 46.084 175.307 46.144 174.899 46.18C174.491 46.228 174.065 46.252 173.621 46.252C173.141 46.252 172.655 46.216 172.163 46.144C171.683 46.072 171.287 45.97 170.975 45.838L170.777 45.532L177.779 26.164C178.403 26.068 179.003 26.008 179.579 25.984C180.167 25.96 180.701 25.948 181.181 25.948C181.625 25.948 182.105 25.96 182.621 25.984C183.137 26.008 183.719 26.068 184.367 26.164L191.171 45.73C190.751 45.922 190.217 46.066 189.569 46.162C188.921 46.27 188.399 46.324 188.003 46.324C187.343 46.324 186.707 46.198 186.095 45.946C185.483 45.694 185.021 45.028 184.709 43.948L184.259 42.49C184.067 42.502 183.881 42.514 183.701 42.526C183.521 42.526 183.329 42.526 183.125 42.526H178.247ZM178.967 36.838L178.571 38.08C178.751 38.068 178.931 38.062 179.111 38.062C179.291 38.05 179.477 38.044 179.669 38.044H181.919C182.099 38.044 182.261 38.05 182.405 38.062C182.561 38.062 182.717 38.068 182.873 38.08L182.495 36.856C182.219 35.908 181.943 34.852 181.667 33.688C181.391 32.524 181.139 31.468 180.911 30.52H180.695C180.443 31.432 180.161 32.476 179.849 33.652C179.549 34.828 179.255 35.89 178.967 36.838ZM210.078 32.194C210.078 33.118 209.868 33.94 209.448 34.66C209.028 35.38 208.5 35.974 207.864 36.442C207.24 36.91 206.616 37.21 205.992 37.342C206.64 37.558 207.174 37.888 207.594 38.332C208.026 38.776 208.398 39.346 208.71 40.042L209.646 42.184C209.862 42.676 210.108 43.132 210.384 43.552C210.66 43.96 210.966 44.308 211.302 44.596C210.954 45.028 210.432 45.43 209.736 45.802C209.04 46.162 208.284 46.342 207.468 46.342C206.664 46.342 206.01 46.15 205.506 45.766C205.014 45.37 204.582 44.74 204.21 43.876L202.626 40.24C202.374 39.652 202.062 39.298 201.69 39.178C201.318 39.058 200.838 38.998 200.25 38.998H199.548V46C199.068 46.084 198.57 46.138 198.054 46.162C197.55 46.198 197.118 46.216 196.758 46.216C196.422 46.216 195.978 46.198 195.426 46.162C194.874 46.138 194.37 46.084 193.914 46V26.344L194.112 26.128C195.564 26.092 196.926 26.062 198.198 26.038C199.482 26.002 200.76 25.984 202.032 25.984C203.472 25.984 204.804 26.176 206.028 26.56C207.252 26.932 208.23 27.574 208.962 28.486C209.706 29.386 210.078 30.622 210.078 32.194ZM199.548 30.052V34.714C199.968 34.702 200.352 34.696 200.7 34.696C201.06 34.684 201.324 34.678 201.492 34.678C202.572 34.678 203.304 34.444 203.688 33.976C204.072 33.508 204.264 32.962 204.264 32.338C204.264 31.726 204.072 31.198 203.688 30.754C203.304 30.31 202.662 30.088 201.762 30.088C201.33 30.088 200.958 30.082 200.646 30.07C200.334 30.058 199.968 30.052 199.548 30.052Z" fill="white"/>
</svg>
