<svg width="253" height="105" viewBox="0 0 253 105" fill="none" xmlns="http://www.w3.org/2000/svg">
<rect opacity="0.5" y="0.630859" width="253" height="101.083" rx="10" fill="#DBDADA"/>
<path d="M66.3756 32.5772C66.1836 32.5772 65.9556 32.5712 65.6916 32.5592C65.4396 32.5472 65.1936 32.5412 64.9536 32.5412L63.4236 37.7612C63.0636 37.8452 62.6736 37.8992 62.2536 37.9232C61.8456 37.9592 61.4196 37.9772 60.9756 37.9772C60.5436 37.9772 60.0516 37.9412 59.4996 37.8692C58.9596 37.8092 58.5276 37.7132 58.2036 37.5812L57.9876 37.2752L65.9436 13.1372C66.3996 13.0652 66.9456 13.0112 67.5816 12.9752C68.2296 12.9392 68.7936 12.9212 69.2736 12.9212C69.7296 12.9212 70.2816 12.9452 70.9296 12.9932C71.5776 13.0292 72.1356 13.0892 72.6036 13.1732L80.3436 37.3472C79.9476 37.5752 79.4316 37.7492 78.7956 37.8692C78.1716 37.9892 77.5896 38.0492 77.0496 38.0492C76.1376 38.0492 75.4236 37.8392 74.9076 37.4192C74.3916 36.9872 73.9596 36.1532 73.6116 34.9172L72.9276 32.5412C72.6996 32.5412 72.4536 32.5472 72.1896 32.5592C71.9256 32.5712 71.6976 32.5772 71.5056 32.5772H66.3756ZM67.0956 25.2512L66.2856 28.0412C66.5136 28.0412 66.7596 28.0412 67.0236 28.0412C67.2876 28.0292 67.5216 28.0232 67.7256 28.0232H70.3536C70.5336 28.0232 70.7376 28.0292 70.9656 28.0412C71.2056 28.0412 71.4396 28.0412 71.6676 28.0412L71.0376 25.7912C70.7616 24.7832 70.4376 23.5952 70.0656 22.2272C69.6936 20.8592 69.3576 19.5812 69.0576 18.3932H68.8416C68.7216 19.0652 68.5596 19.8092 68.3556 20.6252C68.1516 21.4412 67.9356 22.2572 67.7076 23.0732C67.4916 23.8772 67.2876 24.6032 67.0956 25.2512ZM81.3047 36.2312C81.3047 35.7752 81.3947 35.2712 81.5747 34.7192C81.7547 34.1552 82.0007 33.6332 82.3127 33.1532C82.6247 32.6732 82.9667 32.3132 83.3387 32.0732C84.2267 32.5532 85.2167 32.9672 86.3087 33.3152C87.4007 33.6512 88.4687 33.8192 89.5127 33.8192C90.1847 33.8192 90.7367 33.6812 91.1687 33.4052C91.6127 33.1292 91.8347 32.7392 91.8347 32.2352C91.8347 31.9112 91.7087 31.6172 91.4567 31.3532C91.2047 31.0772 90.7667 30.8252 90.1427 30.5972L87.1547 29.4272C86.2307 29.0912 85.3667 28.6712 84.5627 28.1672C83.7587 27.6632 83.1107 27.0452 82.6187 26.3132C82.1267 25.5812 81.8807 24.7052 81.8807 23.6852C81.8807 21.8132 82.6007 20.2892 84.0407 19.1132C85.4807 17.9372 87.4187 17.3492 89.8547 17.3492C91.2347 17.3492 92.6027 17.5112 93.9587 17.8352C95.3267 18.1472 96.4727 18.5072 97.3967 18.9152C97.3967 19.7312 97.2287 20.5352 96.8927 21.3272C96.5567 22.1192 96.0947 22.7432 95.5067 23.1992C94.6187 22.8032 93.6527 22.4732 92.6087 22.2092C91.5647 21.9332 90.6227 21.7952 89.7827 21.7952C89.1587 21.7952 88.6787 21.9272 88.3427 22.1912C88.0187 22.4552 87.8567 22.7732 87.8567 23.1452C87.8567 23.4932 88.0187 23.7572 88.3427 23.9372C88.6667 24.1172 89.0687 24.2972 89.5487 24.4772L92.5187 25.6112C94.1747 26.2112 95.4887 27.0392 96.4607 28.0952C97.4447 29.1392 97.9367 30.4292 97.9367 31.9652C97.9367 33.3212 97.5707 34.4672 96.8387 35.4032C96.1187 36.3392 95.1287 37.0472 93.8687 37.5272C92.6207 38.0072 91.2107 38.2532 89.6387 38.2652C87.7667 38.2652 86.0987 38.0492 84.6347 37.6172C83.1827 37.1852 82.0727 36.7232 81.3047 36.2312ZM101.514 17.8892C101.97 17.7932 102.486 17.7332 103.062 17.7092C103.638 17.6852 104.094 17.6732 104.43 17.6732C104.79 17.6732 105.222 17.6852 105.726 17.7092C106.242 17.7332 106.74 17.7932 107.22 17.8892V37.7252C106.74 37.8092 106.242 37.8632 105.726 37.8872C105.222 37.9232 104.79 37.9412 104.43 37.9412C104.094 37.9412 103.638 37.9232 103.062 37.8872C102.486 37.8632 101.97 37.8092 101.514 37.7252V17.8892ZM124.11 32.4692C124.11 31.8692 124.122 31.2692 124.146 30.6692C123.93 30.6692 123.708 30.6692 123.48 30.6692C123.264 30.6692 123.054 30.6692 122.85 30.6692C121.962 30.6692 121.314 30.4832 120.906 30.1112C120.498 29.7272 120.294 29.1212 120.294 28.2932C120.294 27.9692 120.318 27.5912 120.366 27.1592C120.426 26.7272 120.498 26.3972 120.582 26.1692C121.446 26.1332 122.304 26.1152 123.156 26.1152C124.008 26.1032 124.872 26.0972 125.748 26.0972C127.128 26.0972 128.07 26.3612 128.574 26.8892C129.09 27.4172 129.348 28.1672 129.348 29.1392V37.0952C128.712 37.2992 127.902 37.4912 126.918 37.6712C125.934 37.8512 124.914 37.9952 123.858 38.1032C122.802 38.2112 121.842 38.2652 120.978 38.2652C118.59 38.2652 116.658 37.8272 115.182 36.9512C113.718 36.0752 112.65 34.8752 111.978 33.3512C111.318 31.8152 110.988 30.0752 110.988 28.1312C110.988 25.5632 111.462 23.4932 112.41 21.9212C113.37 20.3372 114.642 19.1792 116.226 18.4472C117.81 17.7152 119.544 17.3492 121.428 17.3492C122.844 17.3492 124.206 17.4932 125.514 17.7812C126.834 18.0572 127.998 18.4292 129.006 18.8972C128.946 19.6772 128.712 20.4932 128.304 21.3452C127.908 22.1852 127.458 22.8272 126.954 23.2712C125.118 22.3592 123.372 21.9032 121.716 21.9032C118.44 21.9032 116.802 23.9552 116.802 28.0592C116.802 30.0992 117.222 31.6052 118.062 32.5772C118.902 33.5492 120.192 34.0352 121.932 34.0352C122.292 34.0352 122.658 34.0232 123.03 33.9992C123.402 33.9632 123.762 33.9152 124.11 33.8552V32.4692ZM140.629 28.6712C140.545 28.4792 140.413 28.1792 140.233 27.7712C140.053 27.3512 139.861 26.9012 139.657 26.4212C139.453 25.9412 139.261 25.4912 139.081 25.0712C138.913 24.6512 138.781 24.3452 138.685 24.1532L138.559 24.2072C138.607 25.1552 138.655 26.1812 138.703 27.2852C138.751 28.3772 138.787 29.3792 138.811 30.2912C138.847 31.1912 138.865 31.8452 138.865 32.2532V37.7252C138.397 37.8092 137.947 37.8632 137.515 37.8872C137.083 37.9232 136.681 37.9412 136.309 37.9412C135.973 37.9412 135.553 37.9232 135.049 37.8872C134.557 37.8632 134.089 37.8092 133.645 37.7252V18.0152C134.089 17.9072 134.641 17.8232 135.301 17.7632C135.961 17.7032 136.471 17.6732 136.831 17.6732C137.203 17.6732 137.731 17.6852 138.415 17.7092C139.099 17.7212 139.663 17.7812 140.107 17.8892L144.337 26.9072C144.421 27.0752 144.559 27.3812 144.751 27.8252C144.955 28.2692 145.171 28.7552 145.399 29.2832C145.627 29.8112 145.837 30.3092 146.029 30.7772C146.233 31.2332 146.383 31.5692 146.479 31.7852L146.641 31.7492C146.593 30.9572 146.527 30.0332 146.443 28.9772C146.371 27.9212 146.305 26.9012 146.245 25.9172C146.185 24.9332 146.155 24.1472 146.155 23.5592V20.7512C146.155 19.4792 146.431 18.6452 146.983 18.2492C147.535 17.8412 148.357 17.6372 149.449 17.6372H151.303L151.519 17.8892V37.6172C151.051 37.7252 150.487 37.8032 149.827 37.8512C149.167 37.9112 148.663 37.9412 148.315 37.9412C148.075 37.9412 147.745 37.9352 147.325 37.9232C146.905 37.9112 146.473 37.8932 146.029 37.8692C145.597 37.8452 145.237 37.7972 144.949 37.7252L140.629 28.6712ZM161.747 34.2512C161.555 34.2512 161.369 34.2512 161.189 34.2512C161.009 34.2392 160.829 34.2272 160.649 34.2152L159.533 37.7252C159.185 37.8092 158.807 37.8692 158.399 37.9052C157.991 37.9532 157.565 37.9772 157.121 37.9772C156.641 37.9772 156.155 37.9412 155.663 37.8692C155.183 37.7972 154.787 37.6952 154.475 37.5632L154.277 37.2572L161.279 17.8892C161.903 17.7932 162.503 17.7332 163.079 17.7092C163.667 17.6852 164.201 17.6732 164.681 17.6732C165.125 17.6732 165.605 17.6852 166.121 17.7092C166.637 17.7332 167.219 17.7932 167.867 17.8892L174.671 37.4552C174.251 37.6472 173.717 37.7912 173.069 37.8872C172.421 37.9952 171.899 38.0492 171.503 38.0492C170.843 38.0492 170.207 37.9232 169.595 37.6712C168.983 37.4192 168.521 36.7532 168.209 35.6732L167.759 34.2152C167.567 34.2272 167.381 34.2392 167.201 34.2512C167.021 34.2512 166.829 34.2512 166.625 34.2512H161.747ZM162.467 28.5632L162.071 29.8052C162.251 29.7932 162.431 29.7872 162.611 29.7872C162.791 29.7752 162.977 29.7692 163.169 29.7692H165.419C165.599 29.7692 165.761 29.7752 165.905 29.7872C166.061 29.7872 166.217 29.7932 166.373 29.8052L165.995 28.5812C165.719 27.6332 165.443 26.5772 165.167 25.4132C164.891 24.2492 164.639 23.1932 164.411 22.2452H164.195C163.943 23.1572 163.661 24.2012 163.349 25.3772C163.049 26.5532 162.755 27.6152 162.467 28.5632ZM193.578 23.9192C193.578 24.8432 193.368 25.6652 192.948 26.3852C192.528 27.1052 192 27.6992 191.364 28.1672C190.74 28.6352 190.116 28.9352 189.492 29.0672C190.14 29.2832 190.674 29.6132 191.094 30.0572C191.526 30.5012 191.898 31.0712 192.21 31.7672L193.146 33.9092C193.362 34.4012 193.608 34.8572 193.884 35.2772C194.16 35.6852 194.466 36.0332 194.802 36.3212C194.454 36.7532 193.932 37.1552 193.236 37.5272C192.54 37.8872 191.784 38.0672 190.968 38.0672C190.164 38.0672 189.51 37.8752 189.006 37.4912C188.514 37.0952 188.082 36.4652 187.71 35.6012L186.126 31.9652C185.874 31.3772 185.562 31.0232 185.19 30.9032C184.818 30.7832 184.338 30.7232 183.75 30.7232H183.048V37.7252C182.568 37.8092 182.07 37.8632 181.554 37.8872C181.05 37.9232 180.618 37.9412 180.258 37.9412C179.922 37.9412 179.478 37.9232 178.926 37.8872C178.374 37.8632 177.87 37.8092 177.414 37.7252V18.0692L177.612 17.8532C179.064 17.8172 180.426 17.7872 181.698 17.7632C182.982 17.7272 184.26 17.7092 185.532 17.7092C186.972 17.7092 188.304 17.9012 189.528 18.2852C190.752 18.6572 191.73 19.2992 192.462 20.2112C193.206 21.1112 193.578 22.3472 193.578 23.9192ZM183.048 21.7772V26.4392C183.468 26.4272 183.852 26.4212 184.2 26.4212C184.56 26.4092 184.824 26.4032 184.992 26.4032C186.072 26.4032 186.804 26.1692 187.188 25.7012C187.572 25.2332 187.764 24.6872 187.764 24.0632C187.764 23.4512 187.572 22.9232 187.188 22.4792C186.804 22.0352 186.162 21.8132 185.262 21.8132C184.83 21.8132 184.458 21.8072 184.146 21.7952C183.834 21.7832 183.468 21.7772 183.048 21.7772ZM39.5263 57.1732C40.1383 57.0652 40.8043 56.9932 41.5243 56.9572C42.2563 56.9212 42.8863 56.9032 43.4143 56.9032C43.9423 56.9032 44.5303 56.9212 45.1783 56.9572C45.8263 56.9932 46.4563 57.0652 47.0683 57.1732L49.1923 65.9752C49.2403 66.1912 49.3183 66.5632 49.4263 67.0912C49.5463 67.6192 49.6783 68.2192 49.8223 68.8912C49.9663 69.5632 50.0983 70.2232 50.2183 70.8712C50.3503 71.5192 50.4523 72.0712 50.5243 72.5272H50.7763C50.8483 72.0712 50.9503 71.5192 51.0823 70.8712C51.2143 70.2232 51.3463 69.5632 51.4783 68.8912C51.6223 68.2192 51.7543 67.6192 51.8743 67.0912C51.9943 66.5632 52.0783 66.1912 52.1263 65.9752L54.2502 57.1732C54.8623 57.0652 55.4863 56.9932 56.1223 56.9572C56.7703 56.9212 57.3583 56.9032 57.8863 56.9032C58.4143 56.9032 59.0443 56.9212 59.7763 56.9572C60.5083 56.9932 61.1743 57.0652 61.7743 57.1732L63.6823 81.6532C63.2743 81.7612 62.8003 81.8332 62.2603 81.8692C61.7323 81.9172 61.2343 81.9412 60.7663 81.9412C60.3343 81.9412 59.9083 81.9292 59.4883 81.9052C59.0803 81.8812 58.6663 81.8332 58.2463 81.7612L57.7063 71.7352C57.6343 70.4632 57.5683 69.0592 57.5083 67.5232C57.4483 65.9872 57.4183 64.6312 57.4183 63.4552H57.1663L53.6203 78.1072C53.1883 78.1792 52.6843 78.2332 52.1083 78.2692C51.5323 78.2932 51.0403 78.3052 50.6323 78.3052C50.2723 78.3052 49.7983 78.2932 49.2103 78.2692C48.6223 78.2332 48.1123 78.1792 47.6803 78.1072L44.1343 63.4552H43.9003C43.8883 64.6312 43.8523 65.9872 43.7923 67.5232C43.7443 69.0592 43.6843 70.4632 43.6123 71.7352L43.0543 81.7612C42.6463 81.8332 42.2323 81.8812 41.8123 81.9052C41.3923 81.9292 40.9663 81.9412 40.5343 81.9412C40.0783 81.9412 39.5803 81.9172 39.0403 81.8692C38.5123 81.8332 38.0383 81.7612 37.6183 81.6532L39.5263 57.1732ZM66.7785 71.8432C66.7785 68.6272 67.6065 66.0772 69.2625 64.1932C70.9305 62.2972 73.3605 61.3492 76.5525 61.3492C79.7925 61.3492 82.2345 62.2912 83.8785 64.1752C85.5345 66.0472 86.3625 68.6032 86.3625 71.8432C86.3625 75.0832 85.5345 77.6332 83.8785 79.4932C82.2225 81.3412 79.7805 82.2652 76.5525 82.2652C73.3125 82.2652 70.8705 81.3292 69.2265 79.4572C67.5945 77.5852 66.7785 75.0472 66.7785 71.8432ZM72.5925 71.8432C72.5925 72.5272 72.6345 73.2352 72.7185 73.9672C72.8145 74.6872 72.9945 75.3592 73.2585 75.9832C73.5345 76.6072 73.9365 77.1172 74.4645 77.5132C74.9925 77.8972 75.6945 78.0892 76.5705 78.0892C77.4465 78.0892 78.1485 77.8972 78.6765 77.5132C79.2045 77.1172 79.6005 76.6072 79.8645 75.9832C80.1405 75.3592 80.3205 74.6872 80.4045 73.9672C80.5005 73.2352 80.5485 72.5272 80.5485 71.8432C80.5485 71.1472 80.5005 70.4332 80.4045 69.7012C80.3205 68.9572 80.1405 68.2732 79.8645 67.6492C79.6005 67.0132 79.2045 66.5032 78.6765 66.1192C78.1485 65.7232 77.4465 65.5252 76.5705 65.5252C75.6945 65.5252 74.9925 65.7232 74.4645 66.1192C73.9365 66.5032 73.5345 67.0132 73.2585 67.6492C72.9945 68.2732 72.8145 68.9572 72.7185 69.7012C72.6345 70.4332 72.5925 71.1472 72.5925 71.8432ZM97.0526 72.6712C96.9686 72.4792 96.8366 72.1792 96.6566 71.7712C96.4766 71.3512 96.2846 70.9012 96.0806 70.4212C95.8766 69.9412 95.6846 69.4912 95.5046 69.0712C95.3366 68.6512 95.2046 68.3452 95.1086 68.1532L94.9826 68.2072C95.0306 69.1552 95.0786 70.1812 95.1266 71.2852C95.1746 72.3772 95.2106 73.3792 95.2346 74.2912C95.2706 75.1912 95.2886 75.8452 95.2886 76.2532V81.7252C94.8206 81.8092 94.3706 81.8632 93.9386 81.8872C93.5066 81.9232 93.1046 81.9412 92.7326 81.9412C92.3966 81.9412 91.9766 81.9232 91.4726 81.8872C90.9806 81.8632 90.5126 81.8092 90.0686 81.7252V62.0152C90.5126 61.9072 91.0646 61.8232 91.7246 61.7632C92.3846 61.7032 92.8946 61.6732 93.2546 61.6732C93.6266 61.6732 94.1546 61.6852 94.8386 61.7092C95.5226 61.7212 96.0866 61.7812 96.5306 61.8892L100.761 70.9072C100.845 71.0752 100.983 71.3812 101.175 71.8252C101.379 72.2692 101.595 72.7552 101.823 73.2832C102.051 73.8112 102.261 74.3092 102.453 74.7772C102.657 75.2332 102.807 75.5692 102.903 75.7852L103.065 75.7492C103.017 74.9572 102.951 74.0332 102.867 72.9772C102.795 71.9212 102.729 70.9012 102.669 69.9172C102.609 68.9332 102.579 68.1472 102.579 67.5592V64.7512C102.579 63.4792 102.855 62.6452 103.407 62.2492C103.959 61.8412 104.781 61.6372 105.873 61.6372H107.727L107.943 61.8892V81.6172C107.475 81.7252 106.911 81.8032 106.251 81.8512C105.591 81.9112 105.087 81.9412 104.739 81.9412C104.499 81.9412 104.169 81.9352 103.749 81.9232C103.329 81.9112 102.897 81.8932 102.453 81.8692C102.021 81.8452 101.661 81.7972 101.373 81.7252L97.0526 72.6712ZM113.203 61.8892C113.659 61.7932 114.175 61.7332 114.751 61.7092C115.327 61.6852 115.783 61.6732 116.119 61.6732C116.479 61.6732 116.911 61.6852 117.415 61.7092C117.931 61.7332 118.429 61.7932 118.909 61.8892V81.7252C118.429 81.8092 117.931 81.8632 117.415 81.8872C116.911 81.9232 116.479 81.9412 116.119 81.9412C115.783 81.9412 115.327 81.9232 114.751 81.8872C114.175 81.8632 113.659 81.8092 113.203 81.7252V61.8892ZM127.159 68.6392C127.159 68.2552 127.165 67.9012 127.177 67.5772C127.189 67.2412 127.195 66.8692 127.195 66.4612C126.943 66.4612 126.595 66.4672 126.151 66.4792C125.719 66.4912 125.377 66.4972 125.125 66.4972H121.795C121.699 66.0652 121.639 65.6632 121.615 65.2912C121.591 64.9072 121.579 64.5592 121.579 64.2472C121.579 63.9352 121.591 63.5692 121.615 63.1492C121.639 62.7172 121.699 62.2972 121.795 61.8892H138.085C138.169 62.2132 138.229 62.5792 138.265 62.9872C138.313 63.3952 138.337 63.7252 138.337 63.9772C138.337 64.7932 138.121 65.4172 137.689 65.8492C137.257 66.2812 136.537 66.4972 135.529 66.4972H134.791C134.539 66.4972 134.203 66.4912 133.783 66.4792C133.375 66.4672 133.057 66.4612 132.829 66.4612C132.829 66.8692 132.835 67.2412 132.847 67.5772C132.859 67.9012 132.865 68.2552 132.865 68.6392V81.7252C132.529 81.7972 132.067 81.8512 131.479 81.8872C130.891 81.9232 130.399 81.9412 130.003 81.9412C129.631 81.9412 129.163 81.9232 128.599 81.8872C128.035 81.8512 127.555 81.7972 127.159 81.7252V68.6392ZM138.919 71.8432C138.919 68.6272 139.747 66.0772 141.403 64.1932C143.071 62.2972 145.501 61.3492 148.693 61.3492C151.933 61.3492 154.375 62.2912 156.019 64.1752C157.675 66.0472 158.503 68.6032 158.503 71.8432C158.503 75.0832 157.675 77.6332 156.019 79.4932C154.363 81.3412 151.921 82.2652 148.693 82.2652C145.453 82.2652 143.011 81.3292 141.367 79.4572C139.735 77.5852 138.919 75.0472 138.919 71.8432ZM144.733 71.8432C144.733 72.5272 144.775 73.2352 144.859 73.9672C144.955 74.6872 145.135 75.3592 145.399 75.9832C145.675 76.6072 146.077 77.1172 146.605 77.5132C147.133 77.8972 147.835 78.0892 148.711 78.0892C149.587 78.0892 150.289 77.8972 150.817 77.5132C151.345 77.1172 151.741 76.6072 152.005 75.9832C152.281 75.3592 152.461 74.6872 152.545 73.9672C152.641 73.2352 152.689 72.5272 152.689 71.8432C152.689 71.1472 152.641 70.4332 152.545 69.7012C152.461 68.9572 152.281 68.2732 152.005 67.6492C151.741 67.0132 151.345 66.5032 150.817 66.1192C150.289 65.7232 149.587 65.5252 148.711 65.5252C147.835 65.5252 147.133 65.7232 146.605 66.1192C146.077 66.5032 145.675 67.0132 145.399 67.6492C145.135 68.2732 144.955 68.9572 144.859 69.7012C144.775 70.4332 144.733 71.1472 144.733 71.8432ZM178.373 67.9192C178.373 68.8432 178.163 69.6652 177.743 70.3852C177.323 71.1052 176.795 71.6992 176.159 72.1672C175.535 72.6352 174.911 72.9352 174.287 73.0672C174.935 73.2832 175.469 73.6132 175.889 74.0572C176.321 74.5012 176.693 75.0712 177.005 75.7672L177.941 77.9092C178.157 78.4012 178.403 78.8572 178.679 79.2772C178.955 79.6852 179.261 80.0332 179.597 80.3212C179.249 80.7532 178.727 81.1552 178.031 81.5272C177.335 81.8872 176.579 82.0672 175.763 82.0672C174.959 82.0672 174.305 81.8752 173.801 81.4912C173.309 81.0952 172.877 80.4652 172.505 79.6012L170.921 75.9652C170.669 75.3772 170.357 75.0232 169.985 74.9032C169.613 74.7832 169.133 74.7232 168.545 74.7232H167.843V81.7252C167.363 81.8092 166.865 81.8632 166.349 81.8872C165.845 81.9232 165.413 81.9412 165.053 81.9412C164.717 81.9412 164.273 81.9232 163.721 81.8872C163.169 81.8632 162.665 81.8092 162.209 81.7252V62.0692L162.407 61.8532C163.859 61.8172 165.221 61.7872 166.493 61.7632C167.777 61.7272 169.055 61.7092 170.327 61.7092C171.767 61.7092 173.099 61.9012 174.323 62.2852C175.547 62.6572 176.525 63.2992 177.257 64.2112C178.001 65.1112 178.373 66.3472 178.373 67.9192ZM167.843 65.7772V70.4392C168.263 70.4272 168.647 70.4212 168.995 70.4212C169.355 70.4092 169.619 70.4032 169.787 70.4032C170.867 70.4032 171.599 70.1692 171.983 69.7012C172.367 69.2332 172.559 68.6872 172.559 68.0632C172.559 67.4512 172.367 66.9232 171.983 66.4792C171.599 66.0352 170.957 65.8132 170.057 65.8132C169.625 65.8132 169.253 65.8072 168.941 65.7952C168.629 65.7832 168.263 65.7772 167.843 65.7772ZM197.807 77.2072C197.807 78.9232 197.537 80.1172 196.997 80.7892C196.469 81.4612 195.569 81.7972 194.297 81.7972H185.999C184.979 81.7972 184.175 81.5092 183.587 80.9332C182.999 80.3452 182.705 79.5592 182.705 78.5752V62.0872L182.903 61.8892H197.141C197.225 62.2972 197.273 62.6872 197.285 63.0592C197.297 63.4312 197.303 63.7852 197.303 64.1212C197.303 64.4452 197.267 64.8112 197.195 65.2192C197.135 65.6272 197.027 66.0412 196.871 66.4612H190.571C190.067 66.4612 189.305 66.4552 188.285 66.4432C188.297 66.8152 188.303 67.1332 188.303 67.3972C188.315 67.6612 188.321 67.9792 188.321 68.3512V69.5392C189.317 69.5272 190.067 69.5212 190.571 69.5212H195.179C195.299 69.8452 195.377 70.2172 195.413 70.6372C195.461 71.0452 195.485 71.3932 195.485 71.6812C195.485 72.0172 195.461 72.3952 195.413 72.8152C195.377 73.2232 195.299 73.5952 195.179 73.9312H190.571C190.343 73.9312 190.025 73.9312 189.617 73.9312C189.209 73.9312 188.777 73.9312 188.321 73.9312V75.1012C188.321 75.5452 188.315 75.9112 188.303 76.1992C188.291 76.4872 188.285 76.8472 188.285 77.2792V77.3152C188.705 77.2912 189.095 77.2672 189.455 77.2432C189.815 77.2192 190.253 77.2072 190.769 77.2072H197.807ZM199.799 80.2312C199.799 79.7752 199.889 79.2712 200.069 78.7192C200.249 78.1552 200.495 77.6332 200.807 77.1532C201.119 76.6732 201.461 76.3132 201.833 76.0732C202.721 76.5532 203.711 76.9672 204.803 77.3152C205.895 77.6512 206.963 77.8192 208.007 77.8192C208.679 77.8192 209.231 77.6812 209.663 77.4052C210.107 77.1292 210.329 76.7392 210.329 76.2352C210.329 75.9112 210.203 75.6172 209.951 75.3532C209.699 75.0772 209.261 74.8252 208.637 74.5972L205.649 73.4272C204.725 73.0912 203.861 72.6712 203.057 72.1672C202.253 71.6632 201.605 71.0452 201.113 70.3132C200.621 69.5812 200.375 68.7052 200.375 67.6852C200.375 65.8132 201.095 64.2892 202.535 63.1132C203.975 61.9372 205.913 61.3492 208.349 61.3492C209.729 61.3492 211.097 61.5112 212.453 61.8352C213.821 62.1472 214.967 62.5072 215.891 62.9152C215.891 63.7312 215.723 64.5352 215.387 65.3272C215.051 66.1192 214.589 66.7432 214.001 67.1992C213.113 66.8032 212.147 66.4732 211.103 66.2092C210.059 65.9332 209.117 65.7952 208.277 65.7952C207.653 65.7952 207.173 65.9272 206.837 66.1912C206.513 66.4552 206.351 66.7732 206.351 67.1452C206.351 67.4932 206.513 67.7572 206.837 67.9372C207.161 68.1172 207.563 68.2972 208.043 68.4772L211.013 69.6112C212.669 70.2112 213.983 71.0392 214.955 72.0952C215.939 73.1392 216.431 74.4292 216.431 75.9652C216.431 77.3212 216.065 78.4672 215.333 79.4032C214.613 80.3392 213.623 81.0472 212.363 81.5272C211.115 82.0072 209.705 82.2532 208.133 82.2652C206.261 82.2652 204.593 82.0492 203.129 81.6172C201.677 81.1852 200.567 80.7232 199.799 80.2312Z" fill="#364760"/>
</svg>
