<svg width="366" height="67" viewBox="0 0 366 67" fill="none" xmlns="http://www.w3.org/2000/svg">
<rect width="366" height="67" rx="10" fill="#1EBCBC"/>
<path d="M146.76 30.204C146.784 29.208 146.682 28.272 146.454 27.396C146.238 26.508 145.836 25.794 145.248 25.254C144.672 24.702 143.856 24.426 142.8 24.426C141.252 24.426 140.148 25.146 139.488 26.586C138.84 28.014 138.516 30.096 138.516 32.832C138.516 35.388 138.942 37.308 139.794 38.592C140.658 39.876 141.876 40.518 143.448 40.518C144.696 40.518 145.818 40.254 146.814 39.726C147.822 39.198 148.74 38.622 149.568 37.998C150.132 38.382 150.678 38.928 151.206 39.636C151.746 40.344 152.082 41.034 152.214 41.706C151.518 42.39 150.654 43.026 149.622 43.614C148.602 44.19 147.474 44.652 146.238 45C145.002 45.36 143.718 45.54 142.386 45.54C140.502 45.54 138.918 45.174 137.634 44.442C136.362 43.698 135.348 42.714 134.592 41.49C133.836 40.254 133.29 38.886 132.954 37.386C132.63 35.874 132.468 34.344 132.468 32.796C132.468 29.784 132.942 27.324 133.89 25.416C134.85 23.508 136.128 22.104 137.724 21.204C139.32 20.304 141.078 19.854 142.998 19.854C144.858 19.854 146.478 20.184 147.858 20.844C149.25 21.504 150.324 22.398 151.08 23.526C151.848 24.654 152.232 25.926 152.232 27.342C152.232 28.458 151.938 29.268 151.35 29.772C150.774 30.264 149.97 30.51 148.938 30.51C148.518 30.51 148.134 30.48 147.786 30.42C147.45 30.36 147.108 30.288 146.76 30.204ZM171.865 31.194C171.865 32.118 171.655 32.94 171.235 33.66C170.815 34.38 170.287 34.974 169.651 35.442C169.027 35.91 168.403 36.21 167.779 36.342C168.427 36.558 168.961 36.888 169.381 37.332C169.813 37.776 170.185 38.346 170.497 39.042L171.433 41.184C171.649 41.676 171.895 42.132 172.171 42.552C172.447 42.96 172.753 43.308 173.089 43.596C172.741 44.028 172.219 44.43 171.523 44.802C170.827 45.162 170.071 45.342 169.255 45.342C168.451 45.342 167.797 45.15 167.293 44.766C166.801 44.37 166.369 43.74 165.997 42.876L164.413 39.24C164.161 38.652 163.849 38.298 163.477 38.178C163.105 38.058 162.625 37.998 162.037 37.998H161.335V45C160.855 45.084 160.357 45.138 159.841 45.162C159.337 45.198 158.905 45.216 158.545 45.216C158.209 45.216 157.765 45.198 157.213 45.162C156.661 45.138 156.157 45.084 155.701 45V25.344L155.899 25.128C157.351 25.092 158.713 25.062 159.985 25.038C161.269 25.002 162.547 24.984 163.819 24.984C165.259 24.984 166.591 25.176 167.815 25.56C169.039 25.932 170.017 26.574 170.749 27.486C171.493 28.386 171.865 29.622 171.865 31.194ZM161.335 29.052V33.714C161.755 33.702 162.139 33.696 162.487 33.696C162.847 33.684 163.111 33.678 163.279 33.678C164.359 33.678 165.091 33.444 165.475 32.976C165.859 32.508 166.051 31.962 166.051 31.338C166.051 30.726 165.859 30.198 165.475 29.754C165.091 29.31 164.449 29.088 163.549 29.088C163.117 29.088 162.745 29.082 162.433 29.07C162.121 29.058 161.755 29.052 161.335 29.052ZM191.299 40.482C191.299 42.198 191.029 43.392 190.489 44.064C189.961 44.736 189.061 45.072 187.789 45.072H179.491C178.471 45.072 177.667 44.784 177.079 44.208C176.491 43.62 176.197 42.834 176.197 41.85V25.362L176.395 25.164H190.633C190.717 25.572 190.765 25.962 190.777 26.334C190.789 26.706 190.795 27.06 190.795 27.396C190.795 27.72 190.759 28.086 190.687 28.494C190.627 28.902 190.519 29.316 190.363 29.736H184.063C183.559 29.736 182.797 29.73 181.777 29.718C181.789 30.09 181.795 30.408 181.795 30.672C181.807 30.936 181.813 31.254 181.813 31.626V32.814C182.809 32.802 183.559 32.796 184.063 32.796H188.671C188.791 33.12 188.869 33.492 188.905 33.912C188.953 34.32 188.977 34.668 188.977 34.956C188.977 35.292 188.953 35.67 188.905 36.09C188.869 36.498 188.791 36.87 188.671 37.206H184.063C183.835 37.206 183.517 37.206 183.109 37.206C182.701 37.206 182.269 37.206 181.813 37.206V38.376C181.813 38.82 181.807 39.186 181.795 39.474C181.783 39.762 181.777 40.122 181.777 40.554V40.59C182.197 40.566 182.587 40.542 182.947 40.518C183.307 40.494 183.745 40.482 184.261 40.482H191.299ZM200.257 41.526C200.065 41.526 199.879 41.526 199.699 41.526C199.519 41.514 199.339 41.502 199.159 41.49L198.043 45C197.695 45.084 197.317 45.144 196.909 45.18C196.501 45.228 196.075 45.252 195.631 45.252C195.151 45.252 194.665 45.216 194.173 45.144C193.693 45.072 193.297 44.97 192.985 44.838L192.787 44.532L199.789 25.164C200.413 25.068 201.013 25.008 201.589 24.984C202.177 24.96 202.711 24.948 203.191 24.948C203.635 24.948 204.115 24.96 204.631 24.984C205.147 25.008 205.729 25.068 206.377 25.164L213.181 44.73C212.761 44.922 212.227 45.066 211.579 45.162C210.931 45.27 210.409 45.324 210.013 45.324C209.353 45.324 208.717 45.198 208.105 44.946C207.493 44.694 207.031 44.028 206.719 42.948L206.269 41.49C206.077 41.502 205.891 41.514 205.711 41.526C205.531 41.526 205.339 41.526 205.135 41.526H200.257ZM200.977 35.838L200.581 37.08C200.761 37.068 200.941 37.062 201.121 37.062C201.301 37.05 201.487 37.044 201.679 37.044H203.929C204.109 37.044 204.271 37.05 204.415 37.062C204.571 37.062 204.727 37.068 204.883 37.08L204.505 35.856C204.229 34.908 203.953 33.852 203.677 32.688C203.401 31.524 203.149 30.468 202.921 29.52H202.705C202.453 30.432 202.171 31.476 201.859 32.652C201.559 33.828 201.265 34.89 200.977 35.838ZM232.088 31.194C232.088 32.118 231.878 32.94 231.458 33.66C231.038 34.38 230.51 34.974 229.874 35.442C229.25 35.91 228.626 36.21 228.002 36.342C228.65 36.558 229.184 36.888 229.604 37.332C230.036 37.776 230.408 38.346 230.72 39.042L231.656 41.184C231.872 41.676 232.118 42.132 232.394 42.552C232.67 42.96 232.976 43.308 233.312 43.596C232.964 44.028 232.442 44.43 231.746 44.802C231.05 45.162 230.294 45.342 229.478 45.342C228.674 45.342 228.02 45.15 227.516 44.766C227.024 44.37 226.592 43.74 226.22 42.876L224.636 39.24C224.384 38.652 224.072 38.298 223.7 38.178C223.328 38.058 222.848 37.998 222.26 37.998H221.558V45C221.078 45.084 220.58 45.138 220.064 45.162C219.56 45.198 219.128 45.216 218.768 45.216C218.432 45.216 217.988 45.198 217.436 45.162C216.884 45.138 216.38 45.084 215.924 45V25.344L216.122 25.128C217.574 25.092 218.936 25.062 220.208 25.038C221.492 25.002 222.77 24.984 224.042 24.984C225.482 24.984 226.814 25.176 228.038 25.56C229.262 25.932 230.24 26.574 230.972 27.486C231.716 28.386 232.088 29.622 232.088 31.194ZM221.558 29.052V33.714C221.978 33.702 222.362 33.696 222.71 33.696C223.07 33.684 223.334 33.678 223.502 33.678C224.582 33.678 225.314 33.444 225.698 32.976C226.082 32.508 226.274 31.962 226.274 31.338C226.274 30.726 226.082 30.198 225.698 29.754C225.314 29.31 224.672 29.088 223.772 29.088C223.34 29.088 222.968 29.082 222.656 29.07C222.344 29.058 221.978 29.052 221.558 29.052Z" fill="white"/>
</svg>
