<svg width="366" height="67" viewBox="0 0 366 67" fill="none" xmlns="http://www.w3.org/2000/svg">
<rect width="366" height="67" rx="10" fill="#1EBCBC"/>
<path d="M105.873 30.204C105.897 29.208 105.795 28.272 105.567 27.396C105.351 26.508 104.949 25.794 104.361 25.254C103.785 24.702 102.969 24.426 101.913 24.426C100.365 24.426 99.2612 25.146 98.6012 26.586C97.9532 28.014 97.6292 30.096 97.6292 32.832C97.6292 35.388 98.0552 37.308 98.9072 38.592C99.7712 39.876 100.989 40.518 102.561 40.518C103.809 40.518 104.931 40.254 105.927 39.726C106.935 39.198 107.853 38.622 108.681 37.998C109.245 38.382 109.791 38.928 110.319 39.636C110.859 40.344 111.195 41.034 111.327 41.706C110.631 42.39 109.767 43.026 108.735 43.614C107.715 44.19 106.587 44.652 105.351 45C104.115 45.36 102.831 45.54 101.499 45.54C99.6152 45.54 98.0312 45.174 96.7472 44.442C95.4752 43.698 94.4612 42.714 93.7052 41.49C92.9492 40.254 92.4032 38.886 92.0672 37.386C91.7432 35.874 91.5812 34.344 91.5812 32.796C91.5812 29.784 92.0552 27.324 93.0032 25.416C93.9632 23.508 95.2412 22.104 96.8372 21.204C98.4332 20.304 100.191 19.854 102.111 19.854C103.971 19.854 105.591 20.184 106.971 20.844C108.363 21.504 109.437 22.398 110.193 23.526C110.961 24.654 111.345 25.926 111.345 27.342C111.345 28.458 111.051 29.268 110.463 29.772C109.887 30.264 109.083 30.51 108.051 30.51C107.631 30.51 107.247 30.48 106.899 30.42C106.563 30.36 106.221 30.288 105.873 30.204ZM113.322 35.118C113.322 31.902 114.15 29.352 115.806 27.468C117.474 25.572 119.904 24.624 123.096 24.624C126.336 24.624 128.778 25.566 130.422 27.45C132.078 29.322 132.906 31.878 132.906 35.118C132.906 38.358 132.078 40.908 130.422 42.768C128.766 44.616 126.324 45.54 123.096 45.54C119.856 45.54 117.414 44.604 115.77 42.732C114.138 40.86 113.322 38.322 113.322 35.118ZM119.136 35.118C119.136 35.802 119.178 36.51 119.262 37.242C119.358 37.962 119.538 38.634 119.802 39.258C120.078 39.882 120.48 40.392 121.008 40.788C121.536 41.172 122.238 41.364 123.114 41.364C123.99 41.364 124.692 41.172 125.22 40.788C125.748 40.392 126.144 39.882 126.408 39.258C126.684 38.634 126.864 37.962 126.948 37.242C127.044 36.51 127.092 35.802 127.092 35.118C127.092 34.422 127.044 33.708 126.948 32.976C126.864 32.232 126.684 31.548 126.408 30.924C126.144 30.288 125.748 29.778 125.22 29.394C124.692 28.998 123.99 28.8 123.114 28.8C122.238 28.8 121.536 28.998 121.008 29.394C120.48 29.778 120.078 30.288 119.802 30.924C119.538 31.548 119.358 32.232 119.262 32.976C119.178 33.708 119.136 34.422 119.136 35.118ZM143.596 35.946C143.512 35.754 143.38 35.454 143.2 35.046C143.02 34.626 142.828 34.176 142.624 33.696C142.42 33.216 142.228 32.766 142.048 32.346C141.88 31.926 141.748 31.62 141.652 31.428L141.526 31.482C141.574 32.43 141.622 33.456 141.67 34.56C141.718 35.652 141.754 36.654 141.778 37.566C141.814 38.466 141.832 39.12 141.832 39.528V45C141.364 45.084 140.914 45.138 140.482 45.162C140.05 45.198 139.648 45.216 139.276 45.216C138.94 45.216 138.52 45.198 138.016 45.162C137.524 45.138 137.056 45.084 136.612 45V25.29C137.056 25.182 137.608 25.098 138.268 25.038C138.928 24.978 139.438 24.948 139.798 24.948C140.17 24.948 140.698 24.96 141.382 24.984C142.066 24.996 142.63 25.056 143.074 25.164L147.304 34.182C147.388 34.35 147.526 34.656 147.718 35.1C147.922 35.544 148.138 36.03 148.366 36.558C148.594 37.086 148.804 37.584 148.996 38.052C149.2 38.508 149.35 38.844 149.446 39.06L149.608 39.024C149.56 38.232 149.494 37.308 149.41 36.252C149.338 35.196 149.272 34.176 149.212 33.192C149.152 32.208 149.122 31.422 149.122 30.834V28.026C149.122 26.754 149.398 25.92 149.95 25.524C150.502 25.116 151.324 24.912 152.416 24.912H154.27L154.486 25.164V44.892C154.018 45 153.454 45.078 152.794 45.126C152.134 45.186 151.63 45.216 151.282 45.216C151.042 45.216 150.712 45.21 150.292 45.198C149.872 45.186 149.44 45.168 148.996 45.144C148.564 45.12 148.204 45.072 147.916 45L143.596 35.946ZM165.362 45C164.87 45.084 164.366 45.138 163.85 45.162C163.346 45.198 162.902 45.216 162.518 45.216C162.134 45.216 161.684 45.198 161.168 45.162C160.664 45.138 160.166 45.084 159.674 45V25.326L159.872 25.164H173.822C173.906 25.488 173.966 25.854 174.002 26.262C174.05 26.67 174.074 27 174.074 27.252C174.074 28.068 173.858 28.704 173.426 29.16C172.994 29.616 172.274 29.844 171.266 29.844H167.432C167.072 29.844 166.718 29.844 166.37 29.844C166.034 29.832 165.698 29.826 165.362 29.826C165.362 30.078 165.362 30.336 165.362 30.6C165.362 30.852 165.362 31.104 165.362 31.356V33.228C165.506 33.228 165.644 33.228 165.776 33.228H171.77C171.878 33.54 171.95 33.906 171.986 34.326C172.034 34.734 172.058 35.082 172.058 35.37C172.058 35.694 172.034 36.078 171.986 36.522C171.95 36.966 171.878 37.35 171.77 37.674H165.776C165.644 37.674 165.506 37.674 165.362 37.674V45ZM177.324 25.164C177.78 25.068 178.296 25.008 178.872 24.984C179.448 24.96 179.904 24.948 180.24 24.948C180.6 24.948 181.032 24.96 181.536 24.984C182.052 25.008 182.55 25.068 183.03 25.164V45C182.55 45.084 182.052 45.138 181.536 45.162C181.032 45.198 180.6 45.216 180.24 45.216C179.904 45.216 179.448 45.198 178.872 45.162C178.296 45.138 177.78 45.084 177.324 45V25.164ZM204.42 31.194C204.42 32.118 204.21 32.94 203.79 33.66C203.37 34.38 202.842 34.974 202.206 35.442C201.582 35.91 200.958 36.21 200.334 36.342C200.982 36.558 201.516 36.888 201.936 37.332C202.368 37.776 202.74 38.346 203.052 39.042L203.988 41.184C204.204 41.676 204.45 42.132 204.726 42.552C205.002 42.96 205.308 43.308 205.644 43.596C205.296 44.028 204.774 44.43 204.078 44.802C203.382 45.162 202.626 45.342 201.81 45.342C201.006 45.342 200.352 45.15 199.848 44.766C199.356 44.37 198.924 43.74 198.552 42.876L196.968 39.24C196.716 38.652 196.404 38.298 196.032 38.178C195.66 38.058 195.18 37.998 194.592 37.998H193.89V45C193.41 45.084 192.912 45.138 192.396 45.162C191.892 45.198 191.46 45.216 191.1 45.216C190.764 45.216 190.32 45.198 189.768 45.162C189.216 45.138 188.712 45.084 188.256 45V25.344L188.454 25.128C189.906 25.092 191.268 25.062 192.54 25.038C193.824 25.002 195.102 24.984 196.374 24.984C197.814 24.984 199.146 25.176 200.37 25.56C201.594 25.932 202.572 26.574 203.304 27.486C204.048 28.386 204.42 29.622 204.42 31.194ZM193.89 29.052V33.714C194.31 33.702 194.694 33.696 195.042 33.696C195.402 33.684 195.666 33.678 195.834 33.678C196.914 33.678 197.646 33.444 198.03 32.976C198.414 32.508 198.606 31.962 198.606 31.338C198.606 30.726 198.414 30.198 198.03 29.754C197.646 29.31 197.004 29.088 196.104 29.088C195.672 29.088 195.3 29.082 194.988 29.07C194.676 29.058 194.31 29.052 193.89 29.052ZM210.012 25.164C210.588 25.056 211.218 24.984 211.902 24.948C212.586 24.9 213.162 24.876 213.63 24.876C214.074 24.876 214.65 24.9 215.358 24.948C216.066 24.984 216.66 25.056 217.14 25.164L218.904 32.976C219.012 33.444 219.138 34.08 219.282 34.884C219.426 35.676 219.57 36.528 219.714 37.44H219.948C220.236 35.52 220.506 34.032 220.758 32.976L222.504 25.164C223.068 25.056 223.686 24.984 224.358 24.948C225.03 24.9 225.588 24.876 226.032 24.876C226.5 24.876 227.082 24.9 227.778 24.948C228.474 24.984 229.098 25.056 229.65 25.164L231.684 44.928C230.904 45.12 229.962 45.216 228.858 45.216C228.438 45.216 227.988 45.198 227.508 45.162C227.04 45.126 226.62 45.072 226.248 45L225.726 38.628C225.666 37.812 225.63 36.918 225.618 35.946C225.606 34.974 225.606 34.026 225.618 33.102C225.63 32.166 225.63 31.356 225.618 30.672H225.402L222.756 41.958C222.348 42.03 221.85 42.084 221.262 42.12C220.674 42.144 220.188 42.156 219.804 42.156C219.408 42.156 218.916 42.144 218.328 42.12C217.752 42.084 217.272 42.03 216.888 41.958L214.26 30.672H214.008C214.008 31.368 214.008 32.178 214.008 33.102C214.02 34.026 214.02 34.974 214.008 35.946C213.996 36.918 213.954 37.824 213.882 38.664L213.414 45C213.03 45.072 212.61 45.126 212.154 45.162C211.71 45.198 211.278 45.216 210.858 45.216C209.742 45.216 208.782 45.12 207.978 44.928L210.012 25.164ZM241.144 41.526C240.952 41.526 240.766 41.526 240.586 41.526C240.406 41.514 240.226 41.502 240.046 41.49L238.93 45C238.582 45.084 238.204 45.144 237.796 45.18C237.388 45.228 236.962 45.252 236.518 45.252C236.038 45.252 235.552 45.216 235.06 45.144C234.58 45.072 234.184 44.97 233.872 44.838L233.674 44.532L240.676 25.164C241.3 25.068 241.9 25.008 242.476 24.984C243.064 24.96 243.598 24.948 244.078 24.948C244.522 24.948 245.002 24.96 245.518 24.984C246.034 25.008 246.616 25.068 247.264 25.164L254.068 44.73C253.648 44.922 253.114 45.066 252.466 45.162C251.818 45.27 251.296 45.324 250.9 45.324C250.24 45.324 249.604 45.198 248.992 44.946C248.38 44.694 247.918 44.028 247.606 42.948L247.156 41.49C246.964 41.502 246.778 41.514 246.598 41.526C246.418 41.526 246.226 41.526 246.022 41.526H241.144ZM241.864 35.838L241.468 37.08C241.648 37.068 241.828 37.062 242.008 37.062C242.188 37.05 242.374 37.044 242.566 37.044H244.816C244.996 37.044 245.158 37.05 245.302 37.062C245.458 37.062 245.614 37.068 245.77 37.08L245.392 35.856C245.116 34.908 244.84 33.852 244.564 32.688C244.288 31.524 244.036 30.468 243.808 29.52H243.592C243.34 30.432 243.058 31.476 242.746 32.652C242.446 33.828 242.152 34.89 241.864 35.838ZM272.975 31.194C272.975 32.118 272.765 32.94 272.345 33.66C271.925 34.38 271.397 34.974 270.761 35.442C270.137 35.91 269.513 36.21 268.889 36.342C269.537 36.558 270.071 36.888 270.491 37.332C270.923 37.776 271.295 38.346 271.607 39.042L272.543 41.184C272.759 41.676 273.005 42.132 273.281 42.552C273.557 42.96 273.863 43.308 274.199 43.596C273.851 44.028 273.329 44.43 272.633 44.802C271.937 45.162 271.181 45.342 270.365 45.342C269.561 45.342 268.907 45.15 268.403 44.766C267.911 44.37 267.479 43.74 267.107 42.876L265.523 39.24C265.271 38.652 264.959 38.298 264.587 38.178C264.215 38.058 263.735 37.998 263.147 37.998H262.445V45C261.965 45.084 261.467 45.138 260.951 45.162C260.447 45.198 260.015 45.216 259.655 45.216C259.319 45.216 258.875 45.198 258.323 45.162C257.771 45.138 257.267 45.084 256.811 45V25.344L257.009 25.128C258.461 25.092 259.823 25.062 261.095 25.038C262.379 25.002 263.657 24.984 264.929 24.984C266.369 24.984 267.701 25.176 268.925 25.56C270.149 25.932 271.127 26.574 271.859 27.486C272.603 28.386 272.975 29.622 272.975 31.194ZM262.445 29.052V33.714C262.865 33.702 263.249 33.696 263.597 33.696C263.957 33.684 264.221 33.678 264.389 33.678C265.469 33.678 266.201 33.444 266.585 32.976C266.969 32.508 267.161 31.962 267.161 31.338C267.161 30.726 266.969 30.198 266.585 29.754C266.201 29.31 265.559 29.088 264.659 29.088C264.227 29.088 263.855 29.082 263.543 29.07C263.231 29.058 262.865 29.052 262.445 29.052Z" fill="white"/>
</svg>
