<svg width="253" height="102" viewBox="0 0 253 102" fill="none" xmlns="http://www.w3.org/2000/svg">
<rect opacity="0.5" y="0.122559" width="253" height="101.083" rx="10" fill="#DBDADA"/>
<path d="M44.5997 21.3895C44.6237 20.3935 44.5217 19.4575 44.2937 18.5815C44.0777 17.6935 43.6757 16.9795 43.0877 16.4395C42.5117 15.8875 41.6957 15.6115 40.6397 15.6115C39.0917 15.6115 37.9877 16.3315 37.3277 17.7715C36.6797 19.1995 36.3557 21.2815 36.3557 24.0175C36.3557 26.5735 36.7817 28.4935 37.6337 29.7775C38.4977 31.0615 39.7157 31.7035 41.2877 31.7035C42.5357 31.7035 43.6577 31.4395 44.6537 30.9115C45.6617 30.3835 46.5797 29.8075 47.4077 29.1835C47.9717 29.5675 48.5177 30.1135 49.0457 30.8215C49.5857 31.5295 49.9217 32.2195 50.0537 32.8915C49.3577 33.5755 48.4937 34.2115 47.4617 34.7995C46.4417 35.3755 45.3137 35.8375 44.0777 36.1855C42.8417 36.5455 41.5577 36.7255 40.2257 36.7255C38.3417 36.7255 36.7577 36.3595 35.4737 35.6275C34.2017 34.8835 33.1877 33.8995 32.4317 32.6755C31.6757 31.4395 31.1297 30.0715 30.7937 28.5715C30.4697 27.0595 30.3077 25.5295 30.3077 23.9815C30.3077 20.9695 30.7817 18.5095 31.7297 16.6015C32.6897 14.6935 33.9677 13.2895 35.5637 12.3895C37.1597 11.4895 38.9177 11.0395 40.8377 11.0395C42.6977 11.0395 44.3177 11.3695 45.6977 12.0295C47.0897 12.6895 48.1637 13.5835 48.9197 14.7115C49.6877 15.8395 50.0717 17.1115 50.0717 18.5275C50.0717 19.6435 49.7777 20.4535 49.1897 20.9575C48.6137 21.4495 47.8097 21.6955 46.7777 21.6955C46.3577 21.6955 45.9737 21.6655 45.6257 21.6055C45.2897 21.5455 44.9477 21.4735 44.5997 21.3895ZM52.0481 26.3035C52.0481 23.0875 52.8761 20.5375 54.5321 18.6535C56.2001 16.7575 58.6301 15.8095 61.8221 15.8095C65.0621 15.8095 67.5041 16.7515 69.1481 18.6355C70.8041 20.5075 71.6321 23.0635 71.6321 26.3035C71.6321 29.5435 70.8041 32.0935 69.1481 33.9535C67.4921 35.8015 65.0501 36.7255 61.8221 36.7255C58.5821 36.7255 56.1401 35.7895 54.4961 33.9175C52.8641 32.0455 52.0481 29.5075 52.0481 26.3035ZM57.8621 26.3035C57.8621 26.9875 57.9041 27.6955 57.9881 28.4275C58.0841 29.1475 58.2641 29.8195 58.5281 30.4435C58.8041 31.0675 59.2061 31.5775 59.7341 31.9735C60.2621 32.3575 60.9641 32.5495 61.8401 32.5495C62.7161 32.5495 63.4181 32.3575 63.9461 31.9735C64.4741 31.5775 64.8701 31.0675 65.1341 30.4435C65.4101 29.8195 65.5901 29.1475 65.6741 28.4275C65.7701 27.6955 65.8181 26.9875 65.8181 26.3035C65.8181 25.6075 65.7701 24.8935 65.6741 24.1615C65.5901 23.4175 65.4101 22.7335 65.1341 22.1095C64.8701 21.4735 64.4741 20.9635 63.9461 20.5795C63.4181 20.1835 62.7161 19.9855 61.8401 19.9855C60.9641 19.9855 60.2621 20.1835 59.7341 20.5795C59.2061 20.9635 58.8041 21.4735 58.5281 22.1095C58.2641 22.7335 58.0841 23.4175 57.9881 24.1615C57.9041 24.8935 57.8621 25.6075 57.8621 26.3035ZM82.3221 27.1315C82.2381 26.9395 82.1061 26.6395 81.9261 26.2315C81.7461 25.8115 81.5541 25.3615 81.3501 24.8815C81.1461 24.4015 80.9541 23.9515 80.7741 23.5315C80.6061 23.1115 80.4741 22.8055 80.3781 22.6135L80.2521 22.6675C80.3001 23.6155 80.3481 24.6415 80.3961 25.7455C80.4441 26.8375 80.4801 27.8395 80.5041 28.7515C80.5401 29.6515 80.5581 30.3055 80.5581 30.7135V36.1855C80.0901 36.2695 79.6401 36.3235 79.2081 36.3475C78.7761 36.3835 78.3741 36.4015 78.0021 36.4015C77.6661 36.4015 77.2461 36.3835 76.7421 36.3475C76.2501 36.3235 75.7821 36.2695 75.3381 36.1855V16.4755C75.7821 16.3675 76.3341 16.2835 76.9941 16.2235C77.6541 16.1635 78.1641 16.1335 78.5241 16.1335C78.8961 16.1335 79.4241 16.1455 80.1081 16.1695C80.7921 16.1815 81.3561 16.2415 81.8001 16.3495L86.0301 25.3675C86.1141 25.5355 86.2521 25.8415 86.4441 26.2855C86.6481 26.7295 86.8641 27.2155 87.0921 27.7435C87.3201 28.2715 87.5301 28.7695 87.7221 29.2375C87.9261 29.6935 88.0761 30.0295 88.1721 30.2455L88.3341 30.2095C88.2861 29.4175 88.2201 28.4935 88.1361 27.4375C88.0641 26.3815 87.9981 25.3615 87.9381 24.3775C87.8781 23.3935 87.8481 22.6075 87.8481 22.0195V19.2115C87.8481 17.9395 88.1241 17.1055 88.6761 16.7095C89.2281 16.3015 90.0501 16.0975 91.1421 16.0975H92.9961L93.2121 16.3495V36.0775C92.7441 36.1855 92.1801 36.2635 91.5201 36.3115C90.8601 36.3715 90.3561 36.4015 90.0081 36.4015C89.7681 36.4015 89.4381 36.3955 89.0181 36.3835C88.5981 36.3715 88.1661 36.3535 87.7221 36.3295C87.2901 36.3055 86.9301 36.2575 86.6421 36.1855L82.3221 27.1315ZM104.089 36.1855C103.597 36.2695 103.093 36.3235 102.577 36.3475C102.073 36.3835 101.629 36.4015 101.245 36.4015C100.861 36.4015 100.411 36.3835 99.8946 36.3475C99.3906 36.3235 98.8926 36.2695 98.4006 36.1855V16.5115L98.5986 16.3495H112.549C112.633 16.6735 112.693 17.0395 112.729 17.4475C112.777 17.8555 112.801 18.1855 112.801 18.4375C112.801 19.2535 112.585 19.8895 112.153 20.3455C111.721 20.8015 111.001 21.0295 109.993 21.0295H106.159C105.799 21.0295 105.445 21.0295 105.097 21.0295C104.761 21.0175 104.425 21.0115 104.089 21.0115C104.089 21.2635 104.089 21.5215 104.089 21.7855C104.089 22.0375 104.089 22.2895 104.089 22.5415V24.4135C104.233 24.4135 104.371 24.4135 104.503 24.4135H110.497C110.605 24.7255 110.677 25.0915 110.713 25.5115C110.761 25.9195 110.785 26.2675 110.785 26.5555C110.785 26.8795 110.761 27.2635 110.713 27.7075C110.677 28.1515 110.605 28.5355 110.497 28.8595H104.503C104.371 28.8595 104.233 28.8595 104.089 28.8595V36.1855ZM114.239 26.3035C114.239 23.0875 115.067 20.5375 116.723 18.6535C118.391 16.7575 120.821 15.8095 124.013 15.8095C127.253 15.8095 129.695 16.7515 131.339 18.6355C132.995 20.5075 133.823 23.0635 133.823 26.3035C133.823 29.5435 132.995 32.0935 131.339 33.9535C129.683 35.8015 127.241 36.7255 124.013 36.7255C120.773 36.7255 118.331 35.7895 116.687 33.9175C115.055 32.0455 114.239 29.5075 114.239 26.3035ZM120.053 26.3035C120.053 26.9875 120.095 27.6955 120.179 28.4275C120.275 29.1475 120.455 29.8195 120.719 30.4435C120.995 31.0675 121.397 31.5775 121.925 31.9735C122.453 32.3575 123.155 32.5495 124.031 32.5495C124.907 32.5495 125.609 32.3575 126.137 31.9735C126.665 31.5775 127.061 31.0675 127.325 30.4435C127.601 29.8195 127.781 29.1475 127.865 28.4275C127.961 27.6955 128.009 26.9875 128.009 26.3035C128.009 25.6075 127.961 24.8935 127.865 24.1615C127.781 23.4175 127.601 22.7335 127.325 22.1095C127.061 21.4735 126.665 20.9635 126.137 20.5795C125.609 20.1835 124.907 19.9855 124.031 19.9855C123.155 19.9855 122.453 20.1835 121.925 20.5795C121.397 20.9635 120.995 21.4735 120.719 22.1095C120.455 22.7335 120.275 23.4175 120.179 24.1615C120.095 24.8935 120.053 25.6075 120.053 26.3035ZM153.694 22.3795C153.694 23.3035 153.484 24.1255 153.064 24.8455C152.644 25.5655 152.116 26.1595 151.48 26.6275C150.856 27.0955 150.232 27.3955 149.608 27.5275C150.256 27.7435 150.79 28.0735 151.21 28.5175C151.642 28.9615 152.014 29.5315 152.326 30.2275L153.262 32.3695C153.478 32.8615 153.724 33.3175 154 33.7375C154.276 34.1455 154.582 34.4935 154.918 34.7815C154.57 35.2135 154.048 35.6155 153.352 35.9875C152.656 36.3475 151.9 36.5275 151.084 36.5275C150.28 36.5275 149.626 36.3355 149.122 35.9515C148.63 35.5555 148.198 34.9255 147.826 34.0615L146.242 30.4255C145.99 29.8375 145.678 29.4835 145.306 29.3635C144.934 29.2435 144.454 29.1835 143.866 29.1835H143.164V36.1855C142.684 36.2695 142.186 36.3235 141.67 36.3475C141.166 36.3835 140.734 36.4015 140.374 36.4015C140.038 36.4015 139.594 36.3835 139.042 36.3475C138.49 36.3235 137.986 36.2695 137.53 36.1855V16.5295L137.728 16.3135C139.18 16.2775 140.542 16.2475 141.814 16.2235C143.098 16.1875 144.376 16.1695 145.648 16.1695C147.088 16.1695 148.42 16.3615 149.644 16.7455C150.868 17.1175 151.846 17.7595 152.578 18.6715C153.322 19.5715 153.694 20.8075 153.694 22.3795ZM143.164 20.2375V24.8995C143.584 24.8875 143.968 24.8815 144.316 24.8815C144.676 24.8695 144.939 24.8635 145.107 24.8635C146.188 24.8635 146.92 24.6295 147.304 24.1615C147.688 23.6935 147.88 23.1475 147.88 22.5235C147.88 21.9115 147.688 21.3835 147.304 20.9395C146.92 20.4955 146.278 20.2735 145.378 20.2735C144.946 20.2735 144.574 20.2675 144.262 20.2555C143.95 20.2435 143.584 20.2375 143.164 20.2375ZM159.286 16.3495C159.862 16.2415 160.492 16.1695 161.176 16.1335C161.86 16.0855 162.436 16.0615 162.904 16.0615C163.348 16.0615 163.924 16.0855 164.632 16.1335C165.34 16.1695 165.934 16.2415 166.414 16.3495L168.178 24.1615C168.286 24.6295 168.412 25.2655 168.556 26.0695C168.7 26.8615 168.844 27.7135 168.988 28.6255H169.222C169.51 26.7055 169.78 25.2175 170.032 24.1615L171.778 16.3495C172.342 16.2415 172.96 16.1695 173.632 16.1335C174.304 16.0855 174.862 16.0615 175.306 16.0615C175.774 16.0615 176.356 16.0855 177.052 16.1335C177.748 16.1695 178.372 16.2415 178.924 16.3495L180.958 36.1135C180.178 36.3055 179.236 36.4015 178.132 36.4015C177.712 36.4015 177.262 36.3835 176.782 36.3475C176.314 36.3115 175.894 36.2575 175.522 36.1855L175 29.8135C174.94 28.9975 174.904 28.1035 174.892 27.1315C174.88 26.1595 174.88 25.2115 174.892 24.2875C174.904 23.3515 174.904 22.5415 174.892 21.8575H174.676L172.03 33.1435C171.622 33.2155 171.124 33.2695 170.536 33.3055C169.948 33.3295 169.462 33.3415 169.078 33.3415C168.682 33.3415 168.19 33.3295 167.602 33.3055C167.026 33.2695 166.546 33.2155 166.162 33.1435L163.534 21.8575H163.282C163.282 22.5535 163.282 23.3635 163.282 24.2875C163.294 25.2115 163.294 26.1595 163.282 27.1315C163.27 28.1035 163.228 29.0095 163.156 29.8495L162.688 36.1855C162.304 36.2575 161.884 36.3115 161.428 36.3475C160.984 36.3835 160.552 36.4015 160.132 36.4015C159.016 36.4015 158.056 36.3055 157.252 36.1135L159.286 16.3495ZM190.417 32.7115C190.225 32.7115 190.039 32.7115 189.859 32.7115C189.679 32.6995 189.499 32.6875 189.319 32.6755L188.203 36.1855C187.855 36.2695 187.477 36.3295 187.069 36.3655C186.661 36.4135 186.235 36.4375 185.791 36.4375C185.311 36.4375 184.825 36.4015 184.333 36.3295C183.853 36.2575 183.457 36.1555 183.145 36.0235L182.947 35.7175L189.949 16.3495C190.573 16.2535 191.173 16.1935 191.749 16.1695C192.337 16.1455 192.871 16.1335 193.351 16.1335C193.795 16.1335 194.275 16.1455 194.791 16.1695C195.307 16.1935 195.889 16.2535 196.537 16.3495L203.341 35.9155C202.921 36.1075 202.387 36.2515 201.739 36.3475C201.091 36.4555 200.569 36.5095 200.173 36.5095C199.513 36.5095 198.877 36.3835 198.265 36.1315C197.653 35.8795 197.191 35.2135 196.879 34.1335L196.429 32.6755C196.237 32.6875 196.051 32.6995 195.871 32.7115C195.691 32.7115 195.499 32.7115 195.295 32.7115H190.417ZM191.137 27.0235L190.741 28.2655C190.921 28.2535 191.101 28.2475 191.281 28.2475C191.461 28.2355 191.647 28.2295 191.839 28.2295H194.089C194.269 28.2295 194.431 28.2355 194.575 28.2475C194.731 28.2475 194.887 28.2535 195.043 28.2655L194.665 27.0415C194.389 26.0935 194.113 25.0375 193.837 23.8735C193.561 22.7095 193.309 21.6535 193.081 20.7055H192.865C192.613 21.6175 192.331 22.6615 192.019 23.8375C191.719 25.0135 191.425 26.0755 191.137 27.0235ZM222.248 22.3795C222.248 23.3035 222.038 24.1255 221.618 24.8455C221.198 25.5655 220.67 26.1595 220.034 26.6275C219.41 27.0955 218.786 27.3955 218.162 27.5275C218.81 27.7435 219.344 28.0735 219.764 28.5175C220.196 28.9615 220.568 29.5315 220.88 30.2275L221.816 32.3695C222.032 32.8615 222.278 33.3175 222.554 33.7375C222.83 34.1455 223.136 34.4935 223.472 34.7815C223.124 35.2135 222.602 35.6155 221.906 35.9875C221.21 36.3475 220.454 36.5275 219.638 36.5275C218.834 36.5275 218.18 36.3355 217.676 35.9515C217.184 35.5555 216.752 34.9255 216.38 34.0615L214.796 30.4255C214.544 29.8375 214.232 29.4835 213.86 29.3635C213.488 29.2435 213.008 29.1835 212.42 29.1835H211.718V36.1855C211.238 36.2695 210.74 36.3235 210.224 36.3475C209.72 36.3835 209.288 36.4015 208.928 36.4015C208.592 36.4015 208.148 36.3835 207.596 36.3475C207.044 36.3235 206.54 36.2695 206.084 36.1855V16.5295L206.282 16.3135C207.734 16.2775 209.096 16.2475 210.368 16.2235C211.652 16.1875 212.93 16.1695 214.202 16.1695C215.642 16.1695 216.974 16.3615 218.198 16.7455C219.422 17.1175 220.4 17.7595 221.132 18.6715C221.876 19.5715 222.248 20.8075 222.248 22.3795ZM211.718 20.2375V24.8995C212.138 24.8875 212.522 24.8815 212.87 24.8815C213.23 24.8695 213.494 24.8635 213.662 24.8635C214.742 24.8635 215.474 24.6295 215.858 24.1615C216.242 23.6935 216.434 23.1475 216.434 22.5235C216.434 21.9115 216.242 21.3835 215.858 20.9395C215.474 20.4955 214.832 20.2735 213.932 20.2735C213.5 20.2735 213.128 20.2675 212.816 20.2555C212.504 20.2435 212.138 20.2375 211.718 20.2375ZM23.1368 65.3895C23.1608 64.3935 23.0588 63.4575 22.8308 62.5815C22.6148 61.6935 22.2128 60.9795 21.6248 60.4395C21.0488 59.8875 20.2328 59.6115 19.1768 59.6115C17.6288 59.6115 16.5248 60.3315 15.8648 61.7715C15.2168 63.1995 14.8928 65.2815 14.8928 68.0175C14.8928 70.5735 15.3188 72.4935 16.1708 73.7775C17.0348 75.0615 18.2528 75.7035 19.8248 75.7035C21.0728 75.7035 22.1948 75.4395 23.1908 74.9115C24.1988 74.3835 25.1168 73.8075 25.9448 73.1835C26.5088 73.5675 27.0548 74.1135 27.5828 74.8215C28.1228 75.5295 28.4588 76.2195 28.5908 76.8915C27.8948 77.5755 27.0308 78.2115 25.9988 78.7995C24.9788 79.3755 23.8508 79.8375 22.6148 80.1855C21.3788 80.5455 20.0948 80.7255 18.7628 80.7255C16.8788 80.7255 15.2948 80.3595 14.0108 79.6275C12.7388 78.8835 11.7248 77.8995 10.9688 76.6755C10.2128 75.4395 9.66683 74.0715 9.33083 72.5715C9.00683 71.0595 8.84483 69.5295 8.84483 67.9815C8.84483 64.9695 9.31883 62.5095 10.2668 60.6015C11.2268 58.6935 12.5048 57.2895 14.1008 56.3895C15.6968 55.4895 17.4548 55.0395 19.3748 55.0395C21.2348 55.0395 22.8548 55.3695 24.2348 56.0295C25.6268 56.6895 26.7008 57.5835 27.4568 58.7115C28.2248 59.8395 28.6088 61.1115 28.6088 62.5275C28.6088 63.6435 28.3148 64.4535 27.7268 64.9575C27.1508 65.4495 26.3468 65.6955 25.3148 65.6955C24.8948 65.6955 24.5108 65.6655 24.1628 65.6055C23.8268 65.5455 23.4848 65.4735 23.1368 65.3895ZM30.5852 70.3035C30.5852 67.0875 31.4132 64.5375 33.0692 62.6535C34.7372 60.7575 37.1672 59.8095 40.3592 59.8095C43.5992 59.8095 46.0412 60.7515 47.6852 62.6355C49.3412 64.5075 50.1692 67.0635 50.1692 70.3035C50.1692 73.5435 49.3412 76.0935 47.6852 77.9535C46.0292 79.8015 43.5872 80.7255 40.3592 80.7255C37.1192 80.7255 34.6772 79.7895 33.0332 77.9175C31.4012 76.0455 30.5852 73.5075 30.5852 70.3035ZM36.3992 70.3035C36.3992 70.9875 36.4412 71.6955 36.5252 72.4275C36.6212 73.1475 36.8012 73.8195 37.0652 74.4435C37.3412 75.0675 37.7432 75.5775 38.2712 75.9735C38.7992 76.3575 39.5012 76.5495 40.3772 76.5495C41.2532 76.5495 41.9552 76.3575 42.4832 75.9735C43.0112 75.5775 43.4072 75.0675 43.6712 74.4435C43.9472 73.8195 44.1272 73.1475 44.2112 72.4275C44.3072 71.6955 44.3552 70.9875 44.3552 70.3035C44.3552 69.6075 44.3072 68.8935 44.2112 68.1615C44.1272 67.4175 43.9472 66.7335 43.6712 66.1095C43.4072 65.4735 43.0112 64.9635 42.4832 64.5795C41.9552 64.1835 41.2532 63.9855 40.3772 63.9855C39.5012 63.9855 38.7992 64.1835 38.2712 64.5795C37.7432 64.9635 37.3412 65.4735 37.0652 66.1095C36.8012 66.7335 36.6212 67.4175 36.5252 68.1615C36.4412 68.8935 36.3992 69.6075 36.3992 70.3035ZM52.4172 70.3035C52.4172 67.0875 53.2452 64.5375 54.9012 62.6535C56.5692 60.7575 58.9992 59.8095 62.1912 59.8095C65.4312 59.8095 67.8732 60.7515 69.5172 62.6355C71.1732 64.5075 72.0012 67.0635 72.0012 70.3035C72.0012 73.5435 71.1732 76.0935 69.5172 77.9535C67.8612 79.8015 65.4192 80.7255 62.1912 80.7255C58.9512 80.7255 56.5092 79.7895 54.8652 77.9175C53.2332 76.0455 52.4172 73.5075 52.4172 70.3035ZM58.2312 70.3035C58.2312 70.9875 58.2732 71.6955 58.3572 72.4275C58.4532 73.1475 58.6332 73.8195 58.8972 74.4435C59.1732 75.0675 59.5752 75.5775 60.1032 75.9735C60.6312 76.3575 61.3332 76.5495 62.2092 76.5495C63.0852 76.5495 63.7872 76.3575 64.3152 75.9735C64.8432 75.5775 65.2392 75.0675 65.5032 74.4435C65.7792 73.8195 65.9592 73.1475 66.0432 72.4275C66.1392 71.6955 66.1872 70.9875 66.1872 70.3035C66.1872 69.6075 66.1392 68.8935 66.0432 68.1615C65.9592 67.4175 65.7792 66.7335 65.5032 66.1095C65.2392 65.4735 64.8432 64.9635 64.3152 64.5795C63.7872 64.1835 63.0852 63.9855 62.2092 63.9855C61.3332 63.9855 60.6312 64.1835 60.1032 64.5795C59.5752 64.9635 59.1732 65.4735 58.8972 66.1095C58.6332 66.7335 58.4532 67.4175 58.3572 68.1615C58.2732 68.8935 58.2312 69.6075 58.2312 70.3035ZM91.8712 66.3795C91.8712 67.3035 91.6612 68.1255 91.2412 68.8455C90.8212 69.5655 90.2932 70.1595 89.6572 70.6275C89.0332 71.0955 88.4092 71.3955 87.7852 71.5275C88.4332 71.7435 88.9672 72.0735 89.3872 72.5175C89.8192 72.9615 90.1912 73.5315 90.5032 74.2275L91.4392 76.3695C91.6552 76.8615 91.9012 77.3175 92.1772 77.7375C92.4532 78.1455 92.7592 78.4935 93.0952 78.7815C92.7472 79.2135 92.2252 79.6155 91.5292 79.9875C90.8332 80.3475 90.0772 80.5275 89.2612 80.5275C88.4572 80.5275 87.8032 80.3355 87.2992 79.9515C86.8072 79.5555 86.3752 78.9255 86.0032 78.0615L84.4192 74.4255C84.1672 73.8375 83.8552 73.4835 83.4832 73.3635C83.1112 73.2435 82.6312 73.1835 82.0432 73.1835H81.3412V80.1855C80.8612 80.2695 80.3632 80.3235 79.8472 80.3475C79.3432 80.3835 78.9112 80.4015 78.5512 80.4015C78.2152 80.4015 77.7712 80.3835 77.2192 80.3475C76.6672 80.3235 76.1632 80.2695 75.7072 80.1855V60.5295L75.9052 60.3135C77.3572 60.2775 78.7192 60.2475 79.9912 60.2235C81.2752 60.1875 82.5532 60.1695 83.8252 60.1695C85.2652 60.1695 86.5972 60.3615 87.8212 60.7455C89.0452 61.1175 90.0232 61.7595 90.7552 62.6715C91.4992 63.5715 91.8712 64.8075 91.8712 66.3795ZM81.3412 64.2375V68.8995C81.7612 68.8875 82.1452 68.8815 82.4932 68.8815C82.8532 68.8695 83.1172 68.8635 83.2852 68.8635C84.3652 68.8635 85.0972 68.6295 85.4812 68.1615C85.8652 67.6935 86.0572 67.1475 86.0572 66.5235C86.0572 65.9115 85.8652 65.3835 85.4812 64.9395C85.0972 64.4955 84.4552 64.2735 83.5552 64.2735C83.1232 64.2735 82.7512 64.2675 82.4392 64.2555C82.1272 64.2435 81.7612 64.2375 81.3412 64.2375ZM114.293 70.3035C114.293 73.6635 113.507 76.1775 111.935 77.8455C110.363 79.5015 107.885 80.3295 104.501 80.3295C103.073 80.3295 101.717 80.3175 100.433 80.2935C99.1613 80.2815 97.8173 80.2575 96.4013 80.2215L96.2033 80.0055V60.5295L96.4013 60.3135C97.8293 60.2775 99.1793 60.2475 100.451 60.2235C101.723 60.1875 103.073 60.1695 104.501 60.1695C107.849 60.1695 110.315 61.0395 111.899 62.7795C113.495 64.5075 114.293 67.0155 114.293 70.3035ZM108.497 70.3035C108.497 69.4275 108.407 68.5515 108.227 67.6755C108.047 66.7875 107.669 66.0435 107.093 65.4435C106.517 64.8435 105.653 64.5435 104.501 64.5435C103.973 64.5435 103.517 64.5435 103.133 64.5435C102.761 64.5315 102.329 64.5195 101.837 64.5075V76.0275C102.353 76.0275 102.791 76.0215 103.151 76.0095C103.523 75.9975 103.973 75.9915 104.501 75.9915C105.653 75.9915 106.517 75.6975 107.093 75.1095C107.669 74.5095 108.047 73.7715 108.227 72.8955C108.407 72.0195 108.497 71.1555 108.497 70.3035ZM118.107 60.3495C118.563 60.2535 119.079 60.1935 119.655 60.1695C120.231 60.1455 120.687 60.1335 121.023 60.1335C121.383 60.1335 121.815 60.1455 122.319 60.1695C122.835 60.1935 123.333 60.2535 123.813 60.3495V80.1855C123.333 80.2695 122.835 80.3235 122.319 80.3475C121.815 80.3835 121.383 80.4015 121.023 80.4015C120.687 80.4015 120.231 80.3835 119.655 80.3475C119.079 80.3235 118.563 80.2695 118.107 80.1855V60.3495ZM136.023 71.1315C135.939 70.9395 135.807 70.6395 135.627 70.2315C135.447 69.8115 135.255 69.3615 135.051 68.8815C134.847 68.4015 134.655 67.9515 134.475 67.5315C134.307 67.1115 134.175 66.8055 134.079 66.6135L133.953 66.6675C134.001 67.6155 134.049 68.6415 134.097 69.7455C134.145 70.8375 134.181 71.8395 134.205 72.7515C134.241 73.6515 134.259 74.3055 134.259 74.7135V80.1855C133.791 80.2695 133.341 80.3235 132.909 80.3475C132.477 80.3835 132.075 80.4015 131.703 80.4015C131.367 80.4015 130.947 80.3835 130.443 80.3475C129.951 80.3235 129.483 80.2695 129.039 80.1855V60.4755C129.483 60.3675 130.035 60.2835 130.695 60.2235C131.355 60.1635 131.865 60.1335 132.225 60.1335C132.597 60.1335 133.125 60.1455 133.809 60.1695C134.493 60.1815 135.057 60.2415 135.501 60.3495L139.731 69.3675C139.815 69.5355 139.953 69.8415 140.145 70.2855C140.349 70.7295 140.565 71.2155 140.793 71.7435C141.021 72.2715 141.231 72.7695 141.423 73.2375C141.627 73.6935 141.777 74.0295 141.873 74.2455L142.035 74.2095C141.987 73.4175 141.921 72.4935 141.837 71.4375C141.765 70.3815 141.699 69.3615 141.639 68.3775C141.579 67.3935 141.549 66.6075 141.549 66.0195V63.2115C141.549 61.9395 141.825 61.1055 142.377 60.7095C142.929 60.3015 143.751 60.0975 144.843 60.0975H146.697L146.913 60.3495V80.0775C146.445 80.1855 145.881 80.2635 145.221 80.3115C144.561 80.3715 144.057 80.4015 143.709 80.4015C143.469 80.4015 143.139 80.3955 142.719 80.3835C142.299 80.3715 141.867 80.3535 141.423 80.3295C140.991 80.3055 140.631 80.2575 140.343 80.1855L136.023 71.1315ZM157.142 76.7115C156.95 76.7115 156.764 76.7115 156.584 76.7115C156.404 76.6995 156.224 76.6875 156.044 76.6755L154.928 80.1855C154.58 80.2695 154.202 80.3295 153.794 80.3655C153.386 80.4135 152.96 80.4375 152.516 80.4375C152.036 80.4375 151.55 80.4015 151.058 80.3295C150.578 80.2575 150.182 80.1555 149.87 80.0235L149.672 79.7175L156.674 60.3495C157.298 60.2535 157.898 60.1935 158.474 60.1695C159.062 60.1455 159.596 60.1335 160.076 60.1335C160.52 60.1335 161 60.1455 161.516 60.1695C162.032 60.1935 162.614 60.2535 163.262 60.3495L170.066 79.9155C169.646 80.1075 169.112 80.2515 168.464 80.3475C167.816 80.4555 167.294 80.5095 166.898 80.5095C166.238 80.5095 165.602 80.3835 164.99 80.1315C164.378 79.8795 163.916 79.2135 163.604 78.1335L163.154 76.6755C162.962 76.6875 162.776 76.6995 162.596 76.7115C162.416 76.7115 162.224 76.7115 162.02 76.7115H157.142ZM157.862 71.0235L157.466 72.2655C157.646 72.2535 157.826 72.2475 158.006 72.2475C158.186 72.2355 158.372 72.2295 158.564 72.2295H160.814C160.994 72.2295 161.156 72.2355 161.3 72.2475C161.456 72.2475 161.612 72.2535 161.768 72.2655L161.39 71.0415C161.114 70.0935 160.838 69.0375 160.562 67.8735C160.286 66.7095 160.034 65.6535 159.806 64.7055H159.59C159.338 65.6175 159.056 66.6615 158.744 67.8375C158.444 69.0135 158.15 70.0755 157.862 71.0235ZM183.332 69.3315C183.332 67.8075 183.128 66.5835 182.72 65.6595C182.312 64.7235 181.49 64.2555 180.254 64.2555C178.97 64.2555 178.058 64.7835 177.518 65.8395C176.978 66.8955 176.708 68.4135 176.708 70.3935C176.708 71.9055 176.9 73.0695 177.284 73.8855C177.68 74.6895 178.184 75.2475 178.796 75.5595C179.408 75.8715 180.056 76.0275 180.74 76.0275C181.628 76.0275 182.516 75.8355 183.404 75.4515C184.304 75.0555 185.108 74.5935 185.816 74.0655C186.2 74.2575 186.572 74.5635 186.932 74.9835C187.292 75.4035 187.604 75.8535 187.868 76.3335C188.132 76.8135 188.3 77.2515 188.372 77.6475C187.376 78.4995 186.164 79.2255 184.736 79.8255C183.32 80.4255 181.706 80.7255 179.894 80.7255C178.154 80.7255 176.702 80.4195 175.538 79.8075C174.386 79.1955 173.468 78.3915 172.784 77.3955C172.1 76.3875 171.614 75.2715 171.326 74.0475C171.038 72.8235 170.894 71.5935 170.894 70.3575C170.894 67.8975 171.338 65.8935 172.226 64.3455C173.126 62.7855 174.302 61.6395 175.754 60.9075C177.218 60.1755 178.784 59.8095 180.452 59.8095C182.324 59.8095 183.866 60.1395 185.078 60.7995C186.29 61.4595 187.19 62.2935 187.778 63.3015C188.366 64.3095 188.66 65.3475 188.66 66.4155C188.66 68.4675 187.508 69.4935 185.204 69.4935C184.928 69.4935 184.628 69.4755 184.304 69.4395C183.98 69.4035 183.656 69.3675 183.332 69.3315ZM192.217 60.3495C192.673 60.2535 193.189 60.1935 193.765 60.1695C194.341 60.1455 194.797 60.1335 195.133 60.1335C195.493 60.1335 195.925 60.1455 196.429 60.1695C196.945 60.1935 197.443 60.2535 197.923 60.3495V80.1855C197.443 80.2695 196.945 80.3235 196.429 80.3475C195.925 80.3835 195.493 80.4015 195.133 80.4015C194.797 80.4015 194.341 80.3835 193.765 80.3475C193.189 80.3235 192.673 80.2695 192.217 80.1855V60.3495ZM201.691 70.3035C201.691 67.0875 202.519 64.5375 204.175 62.6535C205.843 60.7575 208.273 59.8095 211.465 59.8095C214.705 59.8095 217.147 60.7515 218.791 62.6355C220.447 64.5075 221.275 67.0635 221.275 70.3035C221.275 73.5435 220.447 76.0935 218.791 77.9535C217.135 79.8015 214.693 80.7255 211.465 80.7255C208.225 80.7255 205.783 79.7895 204.139 77.9175C202.507 76.0455 201.691 73.5075 201.691 70.3035ZM207.505 70.3035C207.505 70.9875 207.547 71.6955 207.631 72.4275C207.727 73.1475 207.907 73.8195 208.171 74.4435C208.447 75.0675 208.849 75.5775 209.377 75.9735C209.905 76.3575 210.607 76.5495 211.483 76.5495C212.359 76.5495 213.061 76.3575 213.589 75.9735C214.117 75.5775 214.513 75.0675 214.777 74.4435C215.053 73.8195 215.233 73.1475 215.317 72.4275C215.413 71.6955 215.461 70.9875 215.461 70.3035C215.461 69.6075 215.413 68.8935 215.317 68.1615C215.233 67.4175 215.053 66.7335 214.777 66.1095C214.513 65.4735 214.117 64.9635 213.589 64.5795C213.061 64.1835 212.359 63.9855 211.483 63.9855C210.607 63.9855 209.905 64.1835 209.377 64.5795C208.849 64.9635 208.447 65.4735 208.171 66.1095C207.907 66.7335 207.727 67.4175 207.631 68.1615C207.547 68.8935 207.505 69.6075 207.505 70.3035ZM231.965 71.1315C231.881 70.9395 231.749 70.6395 231.569 70.2315C231.389 69.8115 231.197 69.3615 230.993 68.8815C230.789 68.4015 230.597 67.9515 230.417 67.5315C230.249 67.1115 230.117 66.8055 230.021 66.6135L229.895 66.6675C229.943 67.6155 229.991 68.6415 230.039 69.7455C230.087 70.8375 230.123 71.8395 230.147 72.7515C230.183 73.6515 230.201 74.3055 230.201 74.7135V80.1855C229.733 80.2695 229.283 80.3235 228.851 80.3475C228.419 80.3835 228.017 80.4015 227.645 80.4015C227.309 80.4015 226.889 80.3835 226.385 80.3475C225.893 80.3235 225.425 80.2695 224.981 80.1855V60.4755C225.425 60.3675 225.977 60.2835 226.637 60.2235C227.297 60.1635 227.807 60.1335 228.167 60.1335C228.539 60.1335 229.067 60.1455 229.751 60.1695C230.435 60.1815 230.999 60.2415 231.443 60.3495L235.673 69.3675C235.757 69.5355 235.895 69.8415 236.087 70.2855C236.291 70.7295 236.507 71.2155 236.735 71.7435C236.963 72.2715 237.173 72.7695 237.365 73.2375C237.569 73.6935 237.719 74.0295 237.815 74.2455L237.977 74.2095C237.929 73.4175 237.863 72.4935 237.779 71.4375C237.707 70.3815 237.641 69.3615 237.581 68.3775C237.521 67.3935 237.491 66.6075 237.491 66.0195V63.2115C237.491 61.9395 237.767 61.1055 238.319 60.7095C238.871 60.3015 239.693 60.0975 240.785 60.0975H242.639L242.855 60.3495V80.0775C242.387 80.1855 241.823 80.2635 241.163 80.3115C240.503 80.3715 239.999 80.4015 239.651 80.4015C239.411 80.4015 239.081 80.3955 238.661 80.3835C238.241 80.3715 237.809 80.3535 237.365 80.3295C236.933 80.3055 236.573 80.2575 236.285 80.1855L231.965 71.1315Z" fill="#364760"/>
</svg>
