<svg width="253" height="102" viewBox="0 0 253 102" fill="none" xmlns="http://www.w3.org/2000/svg">
<rect opacity="0.5" y="0.917236" width="253" height="101.083" rx="10" fill="#DBDADA"/>
<path d="M54.4435 20.1212C54.4675 19.1252 54.3655 18.1892 54.1375 17.3132C53.9215 16.4252 53.5195 15.7112 52.9315 15.1712C52.3555 14.6192 51.5395 14.3432 50.4835 14.3432C48.9355 14.3432 47.8315 15.0632 47.1715 16.5032C46.5235 17.9312 46.1995 20.0132 46.1995 22.7492C46.1995 25.3052 46.6255 27.2252 47.4775 28.5092C48.3415 29.7932 49.5595 30.4352 51.1315 30.4352C52.3795 30.4352 53.5015 30.1712 54.4975 29.6432C55.5055 29.1152 56.4235 28.5392 57.2515 27.9152C57.8155 28.2992 58.3615 28.8452 58.8895 29.5532C59.4295 30.2612 59.7655 30.9512 59.8975 31.6232C59.2015 32.3072 58.3375 32.9432 57.3055 33.5312C56.2855 34.1072 55.1575 34.5692 53.9215 34.9172C52.6855 35.2772 51.4015 35.4572 50.0695 35.4572C48.1855 35.4572 46.6015 35.0912 45.3175 34.3592C44.0455 33.6152 43.0315 32.6312 42.2755 31.4072C41.5195 30.1712 40.9735 28.8032 40.6375 27.3032C40.3135 25.7912 40.1515 24.2612 40.1515 22.7132C40.1515 19.7012 40.6255 17.2412 41.5735 15.3332C42.5335 13.4252 43.8115 12.0212 45.4075 11.1212C47.0035 10.2212 48.7615 9.77123 50.6815 9.77123C52.5415 9.77123 54.1615 10.1012 55.5415 10.7612C56.9335 11.4212 58.0075 12.3152 58.7635 13.4432C59.5315 14.5712 59.9155 15.8432 59.9155 17.2592C59.9155 18.3752 59.6215 19.1852 59.0335 19.6892C58.4575 20.1812 57.6535 20.4272 56.6215 20.4272C56.2015 20.4272 55.8175 20.3972 55.4695 20.3372C55.1335 20.2772 54.7915 20.2052 54.4435 20.1212ZM61.8918 25.0352C61.8918 21.8192 62.7198 19.2692 64.3758 17.3852C66.0438 15.4892 68.4738 14.5412 71.6658 14.5412C74.9058 14.5412 77.3478 15.4832 78.9918 17.3672C80.6478 19.2392 81.4758 21.7952 81.4758 25.0352C81.4758 28.2752 80.6478 30.8252 78.9918 32.6852C77.3358 34.5332 74.8938 35.4572 71.6658 35.4572C68.4258 35.4572 65.9838 34.5212 64.3398 32.6492C62.7078 30.7772 61.8918 28.2392 61.8918 25.0352ZM67.7058 25.0352C67.7058 25.7192 67.7478 26.4272 67.8318 27.1592C67.9278 27.8792 68.1078 28.5512 68.3718 29.1752C68.6478 29.7992 69.0498 30.3092 69.5778 30.7052C70.1058 31.0892 70.8078 31.2812 71.6838 31.2812C72.5598 31.2812 73.2618 31.0892 73.7898 30.7052C74.3178 30.3092 74.7138 29.7992 74.9778 29.1752C75.2538 28.5512 75.4338 27.8792 75.5178 27.1592C75.6138 26.4272 75.6618 25.7192 75.6618 25.0352C75.6618 24.3392 75.6138 23.6252 75.5178 22.8932C75.4338 22.1492 75.2538 21.4652 74.9778 20.8412C74.7138 20.2052 74.3178 19.6952 73.7898 19.3112C73.2618 18.9152 72.5598 18.7172 71.6838 18.7172C70.8078 18.7172 70.1058 18.9152 69.5778 19.3112C69.0498 19.6952 68.6478 20.2052 68.3718 20.8412C68.1078 21.4652 67.9278 22.1492 67.8318 22.8932C67.7478 23.6252 67.7058 24.3392 67.7058 25.0352ZM92.1658 25.8632C92.0818 25.6712 91.9498 25.3712 91.7698 24.9632C91.5898 24.5432 91.3978 24.0932 91.1938 23.6132C90.9898 23.1332 90.7978 22.6832 90.6178 22.2632C90.4498 21.8432 90.3178 21.5372 90.2218 21.3452L90.0958 21.3992C90.1438 22.3472 90.1918 23.3732 90.2398 24.4772C90.2878 25.5692 90.3238 26.5712 90.3478 27.4832C90.3838 28.3832 90.4018 29.0372 90.4018 29.4452V34.9172C89.9338 35.0012 89.4838 35.0552 89.0518 35.0792C88.6198 35.1152 88.2178 35.1332 87.8458 35.1332C87.5098 35.1332 87.0898 35.1152 86.5858 35.0792C86.0938 35.0552 85.6258 35.0012 85.1818 34.9172V15.2072C85.6258 15.0992 86.1778 15.0152 86.8378 14.9552C87.4978 14.8952 88.0078 14.8652 88.3678 14.8652C88.7398 14.8652 89.2678 14.8772 89.9518 14.9012C90.6358 14.9132 91.1998 14.9732 91.6438 15.0812L95.8738 24.0992C95.9578 24.2672 96.0958 24.5732 96.2878 25.0172C96.4918 25.4612 96.7078 25.9472 96.9358 26.4752C97.1638 27.0032 97.3738 27.5012 97.5658 27.9692C97.7698 28.4252 97.9198 28.7612 98.0158 28.9772L98.1778 28.9412C98.1298 28.1492 98.0638 27.2252 97.9798 26.1692C97.9078 25.1132 97.8418 24.0932 97.7818 23.1092C97.7218 22.1252 97.6918 21.3392 97.6918 20.7512V17.9432C97.6918 16.6712 97.9678 15.8372 98.5198 15.4412C99.0718 15.0332 99.8938 14.8292 100.986 14.8292H102.84L103.056 15.0812V34.8092C102.588 34.9172 102.024 34.9952 101.364 35.0432C100.704 35.1032 100.2 35.1332 99.8518 35.1332C99.6118 35.1332 99.2818 35.1272 98.8618 35.1152C98.4418 35.1032 98.0098 35.0852 97.5658 35.0612C97.1338 35.0372 96.7738 34.9892 96.4858 34.9172L92.1658 25.8632ZM106.318 33.4232C106.318 32.9672 106.408 32.4632 106.588 31.9112C106.768 31.3472 107.014 30.8252 107.326 30.3452C107.638 29.8652 107.98 29.5052 108.352 29.2652C109.24 29.7452 110.23 30.1592 111.322 30.5072C112.414 30.8432 113.482 31.0112 114.526 31.0112C115.198 31.0112 115.75 30.8732 116.182 30.5972C116.626 30.3212 116.848 29.9312 116.848 29.4272C116.848 29.1032 116.722 28.8092 116.47 28.5452C116.218 28.2692 115.78 28.0172 115.156 27.7892L112.168 26.6192C111.244 26.2832 110.38 25.8632 109.576 25.3592C108.772 24.8552 108.124 24.2372 107.632 23.5052C107.14 22.7732 106.894 21.8972 106.894 20.8772C106.894 19.0052 107.614 17.4812 109.054 16.3052C110.494 15.1292 112.432 14.5412 114.868 14.5412C116.248 14.5412 117.616 14.7032 118.972 15.0272C120.34 15.3392 121.486 15.6992 122.41 16.1072C122.41 16.9232 122.242 17.7272 121.906 18.5192C121.57 19.3112 121.108 19.9352 120.52 20.3912C119.632 19.9952 118.666 19.6652 117.622 19.4012C116.578 19.1252 115.636 18.9872 114.796 18.9872C114.172 18.9872 113.692 19.1192 113.356 19.3832C113.032 19.6472 112.87 19.9652 112.87 20.3372C112.87 20.6852 113.032 20.9492 113.356 21.1292C113.68 21.3092 114.082 21.4892 114.562 21.6692L117.532 22.8032C119.188 23.4032 120.502 24.2312 121.474 25.2872C122.458 26.3312 122.95 27.6212 122.95 29.1572C122.95 30.5132 122.584 31.6592 121.852 32.5952C121.132 33.5312 120.142 34.2392 118.882 34.7192C117.634 35.1992 116.224 35.4452 114.652 35.4572C112.78 35.4572 111.112 35.2412 109.648 34.8092C108.196 34.3772 107.086 33.9152 106.318 33.4232ZM143.699 27.4832C143.699 29.9672 142.955 31.9172 141.467 33.3332C139.991 34.7492 137.801 35.4572 134.897 35.4572C131.993 35.4572 129.797 34.7492 128.309 33.3332C126.833 31.9172 126.095 29.9672 126.095 27.4832V15.0812L126.311 14.8652H128.363C129.455 14.8652 130.295 15.1412 130.883 15.6932C131.483 16.2452 131.783 17.1752 131.783 18.4832V27.4652C131.783 28.5572 132.011 29.4152 132.467 30.0392C132.923 30.6632 133.733 30.9752 134.897 30.9752C136.073 30.9752 136.883 30.6632 137.327 30.0392C137.771 29.4152 137.993 28.5572 137.993 27.4652V15.0812C138.473 14.9852 138.965 14.9252 139.469 14.9012C139.973 14.8772 140.411 14.8652 140.783 14.8652C141.119 14.8652 141.575 14.8832 142.151 14.9192C142.727 14.9432 143.243 15.0032 143.699 15.0992V27.4832ZM162.537 30.3092C162.465 32.0612 162.159 33.2852 161.619 33.9812C161.079 34.6772 160.119 35.0252 158.739 35.0252H151.755C150.723 35.0252 149.913 34.7372 149.325 34.1612C148.749 33.5732 148.461 32.7872 148.461 31.8032V15.1172L148.677 14.9012H150.837C151.929 14.9012 152.757 15.1772 153.321 15.7292C153.885 16.2692 154.167 17.1752 154.167 18.4472V30.4892C155.403 30.3692 156.513 30.3092 157.497 30.3092H162.537ZM165.866 21.8312C165.866 21.4472 165.872 21.0932 165.884 20.7692C165.896 20.4332 165.902 20.0612 165.902 19.6532C165.65 19.6532 165.302 19.6592 164.858 19.6712C164.426 19.6832 164.084 19.6892 163.832 19.6892H160.502C160.406 19.2572 160.346 18.8552 160.322 18.4832C160.298 18.0992 160.286 17.7512 160.286 17.4392C160.286 17.1272 160.298 16.7612 160.322 16.3412C160.346 15.9092 160.406 15.4892 160.502 15.0812H176.792C176.876 15.4052 176.936 15.7712 176.972 16.1792C177.02 16.5872 177.044 16.9172 177.044 17.1692C177.044 17.9852 176.828 18.6092 176.396 19.0412C175.964 19.4732 175.244 19.6892 174.236 19.6892H173.498C173.246 19.6892 172.91 19.6832 172.49 19.6712C172.082 19.6592 171.764 19.6532 171.536 19.6532C171.536 20.0612 171.542 20.4332 171.554 20.7692C171.566 21.0932 171.572 21.4472 171.572 21.8312V34.9172C171.236 34.9892 170.774 35.0432 170.186 35.0792C169.598 35.1152 169.106 35.1332 168.71 35.1332C168.338 35.1332 167.87 35.1152 167.306 35.0792C166.742 35.0432 166.262 34.9892 165.866 34.9172V21.8312ZM182.859 31.4432C182.667 31.4432 182.481 31.4432 182.301 31.4432C182.121 31.4312 181.941 31.4192 181.761 31.4072L180.645 34.9172C180.297 35.0012 179.919 35.0612 179.511 35.0972C179.103 35.1452 178.677 35.1692 178.233 35.1692C177.753 35.1692 177.267 35.1332 176.775 35.0612C176.295 34.9892 175.899 34.8872 175.587 34.7552L175.389 34.4492L182.391 15.0812C183.015 14.9852 183.615 14.9252 184.191 14.9012C184.779 14.8772 185.313 14.8652 185.793 14.8652C186.237 14.8652 186.717 14.8772 187.233 14.9012C187.749 14.9252 188.331 14.9852 188.979 15.0812L195.783 34.6472C195.363 34.8392 194.829 34.9832 194.181 35.0792C193.533 35.1872 193.011 35.2412 192.615 35.2412C191.955 35.2412 191.319 35.1152 190.707 34.8632C190.095 34.6112 189.633 33.9452 189.321 32.8652L188.871 31.4072C188.679 31.4192 188.493 31.4312 188.313 31.4432C188.133 31.4432 187.941 31.4432 187.737 31.4432H182.859ZM183.579 25.7552L183.183 26.9972C183.363 26.9852 183.543 26.9792 183.723 26.9792C183.903 26.9672 184.089 26.9612 184.281 26.9612H186.531C186.711 26.9612 186.873 26.9672 187.017 26.9792C187.173 26.9792 187.329 26.9852 187.485 26.9972L187.107 25.7732C186.831 24.8252 186.555 23.7692 186.279 22.6052C186.003 21.4412 185.751 20.3852 185.523 19.4372H185.307C185.055 20.3492 184.773 21.3932 184.461 22.5692C184.161 23.7452 183.867 24.8072 183.579 25.7552ZM196.6 33.4232C196.6 32.9672 196.69 32.4632 196.87 31.9112C197.05 31.3472 197.296 30.8252 197.608 30.3452C197.92 29.8652 198.262 29.5052 198.634 29.2652C199.522 29.7452 200.512 30.1592 201.604 30.5072C202.696 30.8432 203.764 31.0112 204.808 31.0112C205.48 31.0112 206.032 30.8732 206.464 30.5972C206.908 30.3212 207.13 29.9312 207.13 29.4272C207.13 29.1032 207.004 28.8092 206.752 28.5452C206.5 28.2692 206.062 28.0172 205.438 27.7892L202.45 26.6192C201.526 26.2832 200.662 25.8632 199.858 25.3592C199.054 24.8552 198.406 24.2372 197.914 23.5052C197.422 22.7732 197.176 21.8972 197.176 20.8772C197.176 19.0052 197.896 17.4812 199.336 16.3052C200.776 15.1292 202.714 14.5412 205.15 14.5412C206.53 14.5412 207.898 14.7032 209.254 15.0272C210.622 15.3392 211.768 15.6992 212.692 16.1072C212.692 16.9232 212.524 17.7272 212.188 18.5192C211.852 19.3112 211.39 19.9352 210.802 20.3912C209.914 19.9952 208.948 19.6652 207.904 19.4012C206.86 19.1252 205.918 18.9872 205.078 18.9872C204.454 18.9872 203.974 19.1192 203.638 19.3832C203.314 19.6472 203.152 19.9652 203.152 20.3372C203.152 20.6852 203.314 20.9492 203.638 21.1292C203.962 21.3092 204.364 21.4892 204.844 21.6692L207.814 22.8032C209.47 23.4032 210.784 24.2312 211.756 25.2872C212.74 26.3312 213.232 27.6212 213.232 29.1572C213.232 30.5132 212.866 31.6592 212.134 32.5952C211.414 33.5312 210.424 34.2392 209.164 34.7192C207.916 35.1992 206.506 35.4452 204.934 35.4572C203.062 35.4572 201.394 35.2412 199.93 34.8092C198.478 34.3772 197.368 33.9152 196.6 33.4232ZM86.9058 54.3292C87.3258 54.2212 87.7518 54.1612 88.1838 54.1492C88.6158 54.1252 89.0238 54.1132 89.4078 54.1132C89.7558 54.1132 90.1818 54.1432 90.6858 54.2032C91.2018 54.2632 91.6578 54.3592 92.0538 54.4912L92.2878 54.8152L85.5378 78.9172C84.8658 78.9892 84.1158 79.0432 83.2878 79.0792C82.4718 79.1152 81.6918 79.1332 80.9478 79.1332C79.8678 79.1332 79.0218 78.9532 78.4098 78.5932C77.7978 78.2332 77.3478 77.5492 77.0598 76.5412L71.0658 54.8512C71.5818 54.6232 72.1338 54.4252 72.7218 54.2572C73.3098 54.0892 73.9158 54.0052 74.5398 54.0052C75.4038 54.0052 76.0698 54.2392 76.5378 54.7072C77.0178 55.1632 77.3838 55.8832 77.6358 56.8672L80.4078 67.1092C80.6958 68.1652 80.9538 69.2572 81.1818 70.3852C81.4098 71.5132 81.6078 72.6052 81.7758 73.6612C81.8118 73.8532 81.8538 73.9792 81.9018 74.0392C81.9618 74.0872 82.0458 74.1112 82.1538 74.1112L86.9058 54.3292ZM98.7472 75.4432C98.5552 75.4432 98.3692 75.4432 98.1892 75.4432C98.0092 75.4312 97.8292 75.4192 97.6492 75.4072L96.5332 78.9172C96.1852 79.0012 95.8072 79.0612 95.3992 79.0972C94.9912 79.1452 94.5652 79.1692 94.1212 79.1692C93.6412 79.1692 93.1552 79.1332 92.6632 79.0612C92.1832 78.9892 91.7872 78.8872 91.4752 78.7552L91.2772 78.4492L98.2792 59.0812C98.9032 58.9852 99.5032 58.9252 100.079 58.9012C100.667 58.8772 101.201 58.8652 101.681 58.8652C102.125 58.8652 102.605 58.8772 103.121 58.9012C103.637 58.9252 104.219 58.9852 104.867 59.0812L111.671 78.6472C111.251 78.8392 110.717 78.9832 110.069 79.0792C109.421 79.1872 108.899 79.2412 108.503 79.2412C107.843 79.2412 107.207 79.1152 106.595 78.8632C105.983 78.6112 105.521 77.9452 105.209 76.8652L104.759 75.4072C104.567 75.4192 104.381 75.4312 104.201 75.4432C104.021 75.4432 103.829 75.4432 103.625 75.4432H98.7472ZM99.4672 69.7552L99.0712 70.9972C99.2512 70.9852 99.4312 70.9792 99.6112 70.9792C99.7912 70.9672 99.9772 70.9612 100.169 70.9612H102.419C102.599 70.9612 102.761 70.9672 102.905 70.9792C103.061 70.9792 103.217 70.9852 103.373 70.9972L102.995 69.7732C102.719 68.8252 102.443 67.7692 102.167 66.6052C101.891 65.4412 101.639 64.3852 101.411 63.4372H101.195C100.943 64.3492 100.661 65.3932 100.349 66.5692C100.049 67.7452 99.7552 68.8072 99.4672 69.7552ZM130.578 65.1112C130.578 66.0352 130.368 66.8572 129.948 67.5772C129.528 68.2972 129 68.8912 128.364 69.3592C127.74 69.8272 127.116 70.1272 126.492 70.2592C127.14 70.4752 127.674 70.8052 128.094 71.2492C128.526 71.6932 128.898 72.2632 129.21 72.9592L130.146 75.1012C130.362 75.5932 130.608 76.0492 130.884 76.4692C131.16 76.8772 131.466 77.2252 131.802 77.5132C131.454 77.9452 130.932 78.3472 130.236 78.7192C129.54 79.0792 128.784 79.2592 127.968 79.2592C127.164 79.2592 126.51 79.0672 126.006 78.6832C125.514 78.2872 125.082 77.6572 124.71 76.7932L123.126 73.1572C122.874 72.5692 122.562 72.2152 122.19 72.0952C121.818 71.9752 121.338 71.9152 120.75 71.9152H120.048V78.9172C119.568 79.0012 119.07 79.0552 118.554 79.0792C118.05 79.1152 117.618 79.1332 117.258 79.1332C116.922 79.1332 116.478 79.1152 115.926 79.0792C115.374 79.0552 114.87 79.0012 114.414 78.9172V59.2612L114.612 59.0452C116.064 59.0092 117.426 58.9792 118.698 58.9552C119.982 58.9192 121.26 58.9012 122.532 58.9012C123.972 58.9012 125.304 59.0932 126.528 59.4772C127.752 59.8492 128.73 60.4912 129.462 61.4032C130.206 62.3032 130.578 63.5392 130.578 65.1112ZM120.048 62.9692V67.6312C120.468 67.6192 120.852 67.6132 121.2 67.6132C121.56 67.6012 121.824 67.5952 121.992 67.5952C123.072 67.5952 123.804 67.3612 124.188 66.8932C124.572 66.4252 124.764 65.8792 124.764 65.2552C124.764 64.6432 124.572 64.1152 124.188 63.6712C123.804 63.2272 123.162 63.0052 122.262 63.0052C121.83 63.0052 121.458 62.9992 121.146 62.9872C120.834 62.9752 120.468 62.9692 120.048 62.9692ZM134.982 59.0812C135.438 58.9852 135.954 58.9252 136.53 58.9012C137.106 58.8772 137.562 58.8652 137.898 58.8652C138.258 58.8652 138.69 58.8772 139.194 58.9012C139.71 58.9252 140.208 58.9852 140.688 59.0812V78.9172C140.208 79.0012 139.71 79.0552 139.194 79.0792C138.69 79.1152 138.258 79.1332 137.898 79.1332C137.562 79.1332 137.106 79.1152 136.53 79.0792C135.954 79.0552 135.438 79.0012 134.982 78.9172V59.0812ZM150.954 75.4432C150.762 75.4432 150.576 75.4432 150.396 75.4432C150.216 75.4312 150.036 75.4192 149.856 75.4072L148.74 78.9172C148.392 79.0012 148.014 79.0612 147.606 79.0972C147.198 79.1452 146.772 79.1692 146.328 79.1692C145.848 79.1692 145.362 79.1332 144.87 79.0612C144.39 78.9892 143.994 78.8872 143.682 78.7552L143.484 78.4492L150.486 59.0812C151.11 58.9852 151.71 58.9252 152.286 58.9012C152.874 58.8772 153.408 58.8652 153.888 58.8652C154.332 58.8652 154.812 58.8772 155.328 58.9012C155.844 58.9252 156.426 58.9852 157.074 59.0812L163.878 78.6472C163.458 78.8392 162.924 78.9832 162.276 79.0792C161.628 79.1872 161.106 79.2412 160.71 79.2412C160.05 79.2412 159.414 79.1152 158.802 78.8632C158.19 78.6112 157.728 77.9452 157.416 76.8652L156.966 75.4072C156.774 75.4192 156.588 75.4312 156.408 75.4432C156.228 75.4432 156.036 75.4432 155.832 75.4432H150.954ZM151.674 69.7552L151.278 70.9972C151.458 70.9852 151.638 70.9792 151.818 70.9792C151.998 70.9672 152.184 70.9612 152.376 70.9612H154.626C154.806 70.9612 154.968 70.9672 155.112 70.9792C155.268 70.9792 155.424 70.9852 155.58 70.9972L155.202 69.7732C154.926 68.8252 154.65 67.7692 154.374 66.6052C154.098 65.4412 153.846 64.3852 153.618 63.4372H153.402C153.15 64.3492 152.868 65.3932 152.556 66.5692C152.256 67.7452 151.962 68.8072 151.674 69.7552ZM164.695 77.4232C164.695 76.9672 164.785 76.4632 164.965 75.9112C165.145 75.3472 165.391 74.8252 165.703 74.3452C166.015 73.8652 166.357 73.5052 166.729 73.2652C167.617 73.7452 168.607 74.1592 169.699 74.5072C170.791 74.8432 171.859 75.0112 172.903 75.0112C173.575 75.0112 174.127 74.8732 174.559 74.5972C175.003 74.3212 175.225 73.9312 175.225 73.4272C175.225 73.1032 175.099 72.8092 174.847 72.5452C174.595 72.2692 174.157 72.0172 173.533 71.7892L170.545 70.6192C169.621 70.2832 168.757 69.8632 167.953 69.3592C167.149 68.8552 166.501 68.2372 166.009 67.5052C165.517 66.7732 165.271 65.8972 165.271 64.8772C165.271 63.0052 165.991 61.4812 167.431 60.3052C168.871 59.1292 170.809 58.5412 173.245 58.5412C174.625 58.5412 175.993 58.7032 177.349 59.0272C178.717 59.3392 179.863 59.6992 180.787 60.1072C180.787 60.9232 180.619 61.7272 180.283 62.5192C179.947 63.3112 179.485 63.9352 178.897 64.3912C178.009 63.9952 177.043 63.6652 175.999 63.4012C174.955 63.1252 174.013 62.9872 173.173 62.9872C172.549 62.9872 172.069 63.1192 171.733 63.3832C171.409 63.6472 171.247 63.9652 171.247 64.3372C171.247 64.6852 171.409 64.9492 171.733 65.1292C172.057 65.3092 172.459 65.4892 172.939 65.6692L175.909 66.8032C177.565 67.4032 178.879 68.2312 179.851 69.2872C180.835 70.3312 181.327 71.6212 181.327 73.1572C181.327 74.5132 180.961 75.6592 180.229 76.5952C179.509 77.5312 178.519 78.2392 177.259 78.7192C176.011 79.1992 174.601 79.4452 173.029 79.4572C171.157 79.4572 169.489 79.2412 168.025 78.8092C166.573 78.3772 165.463 77.9152 164.695 77.4232Z" fill="#364760"/>
</svg>
