<svg width="253" height="97" viewBox="0 0 253 97" fill="none" xmlns="http://www.w3.org/2000/svg">
<rect opacity="0.5" width="253" height="96.957" rx="10" fill="#DBDADA"/>
<path d="M90.7599 19.204C90.7839 18.208 90.6819 17.272 90.4539 16.396C90.2379 15.508 89.8359 14.794 89.2479 14.254C88.6719 13.702 87.8559 13.426 86.7999 13.426C85.2519 13.426 84.1479 14.146 83.4879 15.586C82.8399 17.014 82.5159 19.096 82.5159 21.832C82.5159 24.388 82.9419 26.308 83.7939 27.592C84.6579 28.876 85.8759 29.518 87.4479 29.518C88.6959 29.518 89.8179 29.254 90.8139 28.726C91.8219 28.198 92.7399 27.622 93.5679 26.998C94.1319 27.382 94.6779 27.928 95.2059 28.636C95.7459 29.344 96.0819 30.034 96.2139 30.706C95.5179 31.39 94.6539 32.026 93.6219 32.614C92.6019 33.19 91.4739 33.652 90.2379 34C89.0019 34.36 87.7179 34.54 86.3859 34.54C84.5019 34.54 82.9179 34.174 81.6339 33.442C80.3619 32.698 79.3479 31.714 78.5919 30.49C77.8359 29.254 77.2899 27.886 76.9539 26.386C76.6299 24.874 76.4679 23.344 76.4679 21.796C76.4679 18.784 76.9419 16.324 77.8899 14.416C78.8499 12.508 80.1279 11.104 81.7239 10.204C83.3199 9.304 85.0779 8.854 86.9979 8.854C88.8579 8.854 90.4779 9.184 91.8579 9.844C93.2499 10.504 94.3239 11.398 95.0799 12.526C95.8479 13.654 96.2319 14.926 96.2319 16.342C96.2319 17.458 95.9379 18.268 95.3499 18.772C94.7739 19.264 93.9699 19.51 92.9379 19.51C92.5179 19.51 92.1339 19.48 91.7859 19.42C91.4499 19.36 91.1079 19.288 90.7599 19.204ZM115.865 20.194C115.865 21.118 115.655 21.94 115.235 22.66C114.815 23.38 114.287 23.974 113.651 24.442C113.027 24.91 112.403 25.21 111.779 25.342C112.427 25.558 112.961 25.888 113.381 26.332C113.813 26.776 114.185 27.346 114.497 28.042L115.433 30.184C115.649 30.676 115.895 31.132 116.171 31.552C116.447 31.96 116.753 32.308 117.089 32.596C116.741 33.028 116.219 33.43 115.523 33.802C114.827 34.162 114.071 34.342 113.255 34.342C112.451 34.342 111.797 34.15 111.293 33.766C110.801 33.37 110.369 32.74 109.997 31.876L108.413 28.24C108.161 27.652 107.849 27.298 107.477 27.178C107.105 27.058 106.625 26.998 106.037 26.998H105.335V34C104.855 34.084 104.357 34.138 103.841 34.162C103.337 34.198 102.905 34.216 102.545 34.216C102.209 34.216 101.765 34.198 101.213 34.162C100.661 34.138 100.157 34.084 99.7014 34V14.344L99.8994 14.128C101.351 14.092 102.713 14.062 103.985 14.038C105.269 14.002 106.547 13.984 107.819 13.984C109.259 13.984 110.591 14.176 111.815 14.56C113.039 14.932 114.017 15.574 114.749 16.486C115.493 17.386 115.865 18.622 115.865 20.194ZM105.335 18.052V22.714C105.755 22.702 106.139 22.696 106.487 22.696C106.847 22.684 107.111 22.678 107.279 22.678C108.359 22.678 109.091 22.444 109.475 21.976C109.859 21.508 110.051 20.962 110.051 20.338C110.051 19.726 109.859 19.198 109.475 18.754C109.091 18.31 108.449 18.088 107.549 18.088C107.117 18.088 106.745 18.082 106.433 18.07C106.121 18.058 105.755 18.052 105.335 18.052ZM135.299 29.482C135.299 31.198 135.029 32.392 134.489 33.064C133.961 33.736 133.061 34.072 131.789 34.072H123.491C122.471 34.072 121.667 33.784 121.079 33.208C120.491 32.62 120.197 31.834 120.197 30.85V14.362L120.395 14.164H134.633C134.717 14.572 134.765 14.962 134.777 15.334C134.789 15.706 134.795 16.06 134.795 16.396C134.795 16.72 134.759 17.086 134.687 17.494C134.627 17.902 134.519 18.316 134.363 18.736H128.063C127.559 18.736 126.797 18.73 125.777 18.718C125.789 19.09 125.795 19.408 125.795 19.672C125.807 19.936 125.813 20.254 125.813 20.626V21.814C126.809 21.802 127.559 21.796 128.063 21.796H132.671C132.791 22.12 132.869 22.492 132.905 22.912C132.953 23.32 132.977 23.668 132.977 23.956C132.977 24.292 132.953 24.67 132.905 25.09C132.869 25.498 132.791 25.87 132.671 26.206H128.063C127.835 26.206 127.517 26.206 127.109 26.206C126.701 26.206 126.269 26.206 125.813 26.206V27.376C125.813 27.82 125.807 28.186 125.795 28.474C125.783 28.762 125.777 29.122 125.777 29.554V29.59C126.197 29.566 126.587 29.542 126.947 29.518C127.307 29.494 127.745 29.482 128.261 29.482H135.299ZM144.257 30.526C144.065 30.526 143.879 30.526 143.699 30.526C143.519 30.514 143.339 30.502 143.159 30.49L142.043 34C141.695 34.084 141.317 34.144 140.909 34.18C140.501 34.228 140.075 34.252 139.631 34.252C139.151 34.252 138.665 34.216 138.173 34.144C137.693 34.072 137.297 33.97 136.985 33.838L136.787 33.532L143.789 14.164C144.413 14.068 145.013 14.008 145.589 13.984C146.177 13.96 146.711 13.948 147.191 13.948C147.635 13.948 148.115 13.96 148.631 13.984C149.147 14.008 149.729 14.068 150.377 14.164L157.181 33.73C156.761 33.922 156.227 34.066 155.579 34.162C154.931 34.27 154.409 34.324 154.013 34.324C153.353 34.324 152.717 34.198 152.105 33.946C151.493 33.694 151.031 33.028 150.719 31.948L150.269 30.49C150.077 30.502 149.891 30.514 149.711 30.526C149.531 30.526 149.339 30.526 149.135 30.526H144.257ZM144.977 24.838L144.581 26.08C144.761 26.068 144.941 26.062 145.121 26.062C145.301 26.05 145.487 26.044 145.679 26.044H147.929C148.109 26.044 148.271 26.05 148.415 26.062C148.571 26.062 148.727 26.068 148.883 26.08L148.505 24.856C148.229 23.908 147.953 22.852 147.677 21.688C147.401 20.524 147.149 19.468 146.921 18.52H146.705C146.453 19.432 146.171 20.476 145.859 21.652C145.559 22.828 145.265 23.89 144.977 24.838ZM176.088 20.194C176.088 21.118 175.878 21.94 175.458 22.66C175.038 23.38 174.51 23.974 173.874 24.442C173.25 24.91 172.626 25.21 172.002 25.342C172.65 25.558 173.184 25.888 173.604 26.332C174.036 26.776 174.408 27.346 174.72 28.042L175.656 30.184C175.872 30.676 176.118 31.132 176.394 31.552C176.67 31.96 176.976 32.308 177.312 32.596C176.964 33.028 176.442 33.43 175.746 33.802C175.05 34.162 174.294 34.342 173.478 34.342C172.674 34.342 172.02 34.15 171.516 33.766C171.024 33.37 170.592 32.74 170.22 31.876L168.636 28.24C168.384 27.652 168.072 27.298 167.7 27.178C167.328 27.058 166.848 26.998 166.26 26.998H165.558V34C165.078 34.084 164.58 34.138 164.064 34.162C163.56 34.198 163.128 34.216 162.768 34.216C162.432 34.216 161.988 34.198 161.436 34.162C160.884 34.138 160.38 34.084 159.924 34V14.344L160.122 14.128C161.574 14.092 162.936 14.062 164.208 14.038C165.492 14.002 166.77 13.984 168.042 13.984C169.482 13.984 170.814 14.176 172.038 14.56C173.262 14.932 174.24 15.574 174.972 16.486C175.716 17.386 176.088 18.622 176.088 20.194ZM165.558 18.052V22.714C165.978 22.702 166.362 22.696 166.71 22.696C167.07 22.684 167.334 22.678 167.502 22.678C168.582 22.678 169.314 22.444 169.698 21.976C170.082 21.508 170.274 20.962 170.274 20.338C170.274 19.726 170.082 19.198 169.698 18.754C169.314 18.31 168.672 18.088 167.772 18.088C167.34 18.088 166.968 18.082 166.656 18.07C166.344 18.058 165.978 18.052 165.558 18.052ZM47.0438 73.284C47.0438 74.868 46.7918 76.068 46.2878 76.884C45.7958 77.7 44.7878 78.108 43.2638 78.108H33.6878C32.6558 78.108 31.8458 77.808 31.2578 77.208C30.6698 76.608 30.3758 75.786 30.3758 74.742V53.664L30.6278 53.412H46.1438C46.2278 53.844 46.2818 54.252 46.3058 54.636C46.3298 55.008 46.3418 55.356 46.3418 55.68C46.3418 56.004 46.2998 56.406 46.2158 56.886C46.1438 57.354 46.0298 57.804 45.8738 58.236H38.5118C38.2478 58.236 37.8878 58.236 37.4318 58.236C36.9878 58.224 36.5258 58.212 36.0458 58.2C36.0458 58.692 36.0518 59.136 36.0638 59.532C36.0758 59.916 36.0818 60.348 36.0818 60.828V63.33C36.5618 63.318 37.0238 63.312 37.4678 63.312C37.9118 63.3 38.2598 63.294 38.5118 63.294H44.0018C44.1218 63.642 44.2058 64.044 44.2538 64.5C44.3138 64.956 44.3438 65.34 44.3438 65.652C44.3438 65.976 44.3138 66.354 44.2538 66.786C44.2058 67.218 44.1218 67.62 44.0018 67.992H38.5118C38.2598 67.992 37.9118 67.992 37.4678 67.992C37.0238 67.98 36.5618 67.968 36.0818 67.956V70.728C36.0818 71.196 36.0758 71.628 36.0638 72.024C36.0518 72.408 36.0458 72.84 36.0458 73.32V73.356C36.4538 73.332 36.8738 73.314 37.3058 73.302C37.7378 73.29 38.2058 73.284 38.7098 73.284H47.0438ZM48.9785 76.506C48.9785 76.05 49.0685 75.546 49.2485 74.994C49.4285 74.43 49.6745 73.908 49.9865 73.428C50.2985 72.948 50.6405 72.588 51.0125 72.348C51.9005 72.828 52.8905 73.242 53.9825 73.59C55.0745 73.926 56.1425 74.094 57.1865 74.094C57.8585 74.094 58.4105 73.956 58.8425 73.68C59.2865 73.404 59.5085 73.014 59.5085 72.51C59.5085 72.186 59.3825 71.892 59.1305 71.628C58.8785 71.352 58.4405 71.1 57.8165 70.872L54.8285 69.702C53.9045 69.366 53.0405 68.946 52.2365 68.442C51.4325 67.938 50.7845 67.32 50.2925 66.588C49.8005 65.856 49.5545 64.98 49.5545 63.96C49.5545 62.088 50.2745 60.564 51.7145 59.388C53.1545 58.212 55.0925 57.624 57.5285 57.624C58.9085 57.624 60.2765 57.786 61.6325 58.11C63.0005 58.422 64.1465 58.782 65.0705 59.19C65.0705 60.006 64.9025 60.81 64.5665 61.602C64.2305 62.394 63.7685 63.018 63.1805 63.474C62.2925 63.078 61.3265 62.748 60.2825 62.484C59.2385 62.208 58.2965 62.07 57.4565 62.07C56.8325 62.07 56.3525 62.202 56.0165 62.466C55.6925 62.73 55.5305 63.048 55.5305 63.42C55.5305 63.768 55.6925 64.032 56.0165 64.212C56.3405 64.392 56.7425 64.572 57.2225 64.752L60.1925 65.886C61.8485 66.486 63.1625 67.314 64.1345 68.37C65.1185 69.414 65.6105 70.704 65.6105 72.24C65.6105 73.596 65.2445 74.742 64.5125 75.678C63.7925 76.614 62.8025 77.322 61.5425 77.802C60.2945 78.282 58.8845 78.528 57.3125 78.54C55.4405 78.54 53.7725 78.324 52.3085 77.892C50.8565 77.46 49.7465 76.998 48.9785 76.506ZM71.6121 64.914C71.6121 64.53 71.6181 64.176 71.6301 63.852C71.6421 63.516 71.6481 63.144 71.6481 62.736C71.3961 62.736 71.0481 62.742 70.6041 62.754C70.1721 62.766 69.8301 62.772 69.5781 62.772H66.2481C66.1521 62.34 66.0921 61.938 66.0681 61.566C66.0441 61.182 66.0321 60.834 66.0321 60.522C66.0321 60.21 66.0441 59.844 66.0681 59.424C66.0921 58.992 66.1521 58.572 66.2481 58.164H82.5381C82.6221 58.488 82.6821 58.854 82.7181 59.262C82.7661 59.67 82.7901 60 82.7901 60.252C82.7901 61.068 82.5741 61.692 82.1421 62.124C81.7101 62.556 80.9901 62.772 79.9821 62.772H79.2441C78.9921 62.772 78.6561 62.766 78.2361 62.754C77.8281 62.742 77.5101 62.736 77.2821 62.736C77.2821 63.144 77.2881 63.516 77.3001 63.852C77.3121 64.176 77.3181 64.53 77.3181 64.914V78C76.9821 78.072 76.5201 78.126 75.9321 78.162C75.3441 78.198 74.8521 78.216 74.4561 78.216C74.0841 78.216 73.6161 78.198 73.0521 78.162C72.4881 78.126 72.0081 78.072 71.6121 78V64.914ZM101.381 64.194C101.381 65.118 101.171 65.94 100.751 66.66C100.331 67.38 99.803 67.974 99.167 68.442C98.543 68.91 97.919 69.21 97.295 69.342C97.943 69.558 98.477 69.888 98.897 70.332C99.329 70.776 99.701 71.346 100.013 72.042L100.949 74.184C101.165 74.676 101.411 75.132 101.687 75.552C101.963 75.96 102.269 76.308 102.605 76.596C102.257 77.028 101.735 77.43 101.039 77.802C100.343 78.162 99.587 78.342 98.771 78.342C97.967 78.342 97.313 78.15 96.809 77.766C96.317 77.37 95.885 76.74 95.513 75.876L93.929 72.24C93.677 71.652 93.365 71.298 92.993 71.178C92.621 71.058 92.141 70.998 91.553 70.998H90.851V78C90.371 78.084 89.873 78.138 89.357 78.162C88.853 78.198 88.421 78.216 88.061 78.216C87.725 78.216 87.281 78.198 86.729 78.162C86.177 78.138 85.673 78.084 85.217 78V58.344L85.415 58.128C86.867 58.092 88.229 58.062 89.501 58.038C90.785 58.002 92.063 57.984 93.335 57.984C94.775 57.984 96.107 58.176 97.331 58.56C98.555 58.932 99.533 59.574 100.265 60.486C101.009 61.386 101.381 62.622 101.381 64.194ZM90.851 62.052V66.714C91.271 66.702 91.655 66.696 92.003 66.696C92.363 66.684 92.627 66.678 92.795 66.678C93.875 66.678 94.607 66.444 94.991 65.976C95.375 65.508 95.567 64.962 95.567 64.338C95.567 63.726 95.375 63.198 94.991 62.754C94.607 62.31 93.965 62.088 93.065 62.088C92.633 62.088 92.261 62.082 91.949 62.07C91.637 62.058 91.271 62.052 90.851 62.052ZM122.957 70.566C122.957 73.05 122.213 75 120.725 76.416C119.249 77.832 117.059 78.54 114.155 78.54C111.251 78.54 109.055 77.832 107.567 76.416C106.091 75 105.353 73.05 105.353 70.566V58.164L105.569 57.948H107.621C108.713 57.948 109.553 58.224 110.141 58.776C110.741 59.328 111.041 60.258 111.041 61.566V70.548C111.041 71.64 111.269 72.498 111.725 73.122C112.181 73.746 112.991 74.058 114.155 74.058C115.331 74.058 116.141 73.746 116.585 73.122C117.029 72.498 117.251 71.64 117.251 70.548V58.164C117.731 58.068 118.223 58.008 118.727 57.984C119.231 57.96 119.669 57.948 120.041 57.948C120.377 57.948 120.833 57.966 121.409 58.002C121.985 58.026 122.501 58.086 122.957 58.182V70.566ZM138.736 67.146C138.736 65.622 138.532 64.398 138.124 63.474C137.716 62.538 136.894 62.07 135.658 62.07C134.374 62.07 133.462 62.598 132.922 63.654C132.382 64.71 132.112 66.228 132.112 68.208C132.112 69.72 132.304 70.884 132.688 71.7C133.084 72.504 133.588 73.062 134.2 73.374C134.812 73.686 135.46 73.842 136.144 73.842C137.032 73.842 137.92 73.65 138.808 73.266C139.708 72.87 140.512 72.408 141.22 71.88C141.604 72.072 141.976 72.378 142.336 72.798C142.696 73.218 143.008 73.668 143.272 74.148C143.536 74.628 143.704 75.066 143.776 75.462C142.78 76.314 141.568 77.04 140.14 77.64C138.724 78.24 137.11 78.54 135.298 78.54C133.558 78.54 132.106 78.234 130.942 77.622C129.79 77.01 128.872 76.206 128.188 75.21C127.504 74.202 127.018 73.086 126.73 71.862C126.442 70.638 126.298 69.408 126.298 68.172C126.298 65.712 126.742 63.708 127.63 62.16C128.53 60.6 129.706 59.454 131.158 58.722C132.622 57.99 134.188 57.624 135.856 57.624C137.728 57.624 139.27 57.954 140.482 58.614C141.694 59.274 142.594 60.108 143.182 61.116C143.77 62.124 144.064 63.162 144.064 64.23C144.064 66.282 142.912 67.308 140.608 67.308C140.332 67.308 140.032 67.29 139.708 67.254C139.384 67.218 139.06 67.182 138.736 67.146ZM151.03 64.914C151.03 64.53 151.036 64.176 151.048 63.852C151.06 63.516 151.066 63.144 151.066 62.736C150.814 62.736 150.466 62.742 150.022 62.754C149.59 62.766 149.248 62.772 148.996 62.772H145.666C145.57 62.34 145.51 61.938 145.486 61.566C145.462 61.182 145.45 60.834 145.45 60.522C145.45 60.21 145.462 59.844 145.486 59.424C145.51 58.992 145.57 58.572 145.666 58.164H161.956C162.04 58.488 162.1 58.854 162.136 59.262C162.184 59.67 162.208 60 162.208 60.252C162.208 61.068 161.992 61.692 161.56 62.124C161.128 62.556 160.408 62.772 159.4 62.772H158.662C158.41 62.772 158.074 62.766 157.654 62.754C157.246 62.742 156.928 62.736 156.7 62.736C156.7 63.144 156.706 63.516 156.718 63.852C156.73 64.176 156.736 64.53 156.736 64.914V78C156.4 78.072 155.938 78.126 155.35 78.162C154.762 78.198 154.27 78.216 153.874 78.216C153.502 78.216 153.034 78.198 152.47 78.162C151.906 78.126 151.426 78.072 151.03 78V64.914ZM181.879 70.566C181.879 73.05 181.135 75 179.647 76.416C178.171 77.832 175.981 78.54 173.077 78.54C170.173 78.54 167.977 77.832 166.489 76.416C165.013 75 164.275 73.05 164.275 70.566V58.164L164.491 57.948H166.543C167.635 57.948 168.475 58.224 169.063 58.776C169.663 59.328 169.963 60.258 169.963 61.566V70.548C169.963 71.64 170.191 72.498 170.647 73.122C171.103 73.746 171.913 74.058 173.077 74.058C174.253 74.058 175.063 73.746 175.507 73.122C175.951 72.498 176.173 71.64 176.173 70.548V58.164C176.653 58.068 177.145 58.008 177.649 57.984C178.153 57.96 178.591 57.948 178.963 57.948C179.299 57.948 179.755 57.966 180.331 58.002C180.907 58.026 181.423 58.086 181.879 58.182V70.566ZM202.877 64.194C202.877 65.118 202.667 65.94 202.247 66.66C201.827 67.38 201.299 67.974 200.663 68.442C200.039 68.91 199.415 69.21 198.791 69.342C199.439 69.558 199.973 69.888 200.393 70.332C200.825 70.776 201.197 71.346 201.509 72.042L202.445 74.184C202.661 74.676 202.907 75.132 203.183 75.552C203.459 75.96 203.765 76.308 204.101 76.596C203.753 77.028 203.231 77.43 202.535 77.802C201.839 78.162 201.083 78.342 200.267 78.342C199.463 78.342 198.809 78.15 198.305 77.766C197.813 77.37 197.381 76.74 197.009 75.876L195.425 72.24C195.173 71.652 194.861 71.298 194.489 71.178C194.117 71.058 193.637 70.998 193.049 70.998H192.347V78C191.867 78.084 191.369 78.138 190.853 78.162C190.349 78.198 189.917 78.216 189.557 78.216C189.221 78.216 188.777 78.198 188.225 78.162C187.673 78.138 187.169 78.084 186.713 78V58.344L186.911 58.128C188.363 58.092 189.725 58.062 190.997 58.038C192.281 58.002 193.559 57.984 194.831 57.984C196.271 57.984 197.603 58.176 198.827 58.56C200.051 58.932 201.029 59.574 201.761 60.486C202.505 61.386 202.877 62.622 202.877 64.194ZM192.347 62.052V66.714C192.767 66.702 193.151 66.696 193.499 66.696C193.859 66.684 194.123 66.678 194.291 66.678C195.371 66.678 196.103 66.444 196.487 65.976C196.871 65.508 197.063 64.962 197.063 64.338C197.063 63.726 196.871 63.198 196.487 62.754C196.103 62.31 195.461 62.088 194.561 62.088C194.129 62.088 193.757 62.082 193.445 62.07C193.133 62.058 192.767 62.052 192.347 62.052ZM212.249 74.526C212.057 74.526 211.871 74.526 211.691 74.526C211.511 74.514 211.331 74.502 211.151 74.49L210.035 78C209.687 78.084 209.309 78.144 208.901 78.18C208.493 78.228 208.067 78.252 207.623 78.252C207.143 78.252 206.657 78.216 206.165 78.144C205.685 78.072 205.289 77.97 204.977 77.838L204.779 77.532L211.781 58.164C212.405 58.068 213.005 58.008 213.581 57.984C214.169 57.96 214.703 57.948 215.183 57.948C215.627 57.948 216.107 57.96 216.623 57.984C217.139 58.008 217.721 58.068 218.369 58.164L225.173 77.73C224.753 77.922 224.219 78.066 223.571 78.162C222.923 78.27 222.401 78.324 222.005 78.324C221.345 78.324 220.709 78.198 220.097 77.946C219.485 77.694 219.023 77.028 218.711 75.948L218.261 74.49C218.069 74.502 217.883 74.514 217.703 74.526C217.523 74.526 217.331 74.526 217.127 74.526H212.249ZM212.969 68.838L212.573 70.08C212.753 70.068 212.933 70.062 213.113 70.062C213.293 70.05 213.479 70.044 213.671 70.044H215.921C216.101 70.044 216.263 70.05 216.407 70.062C216.563 70.062 216.719 70.068 216.875 70.08L216.497 68.856C216.221 67.908 215.945 66.852 215.669 65.688C215.393 64.524 215.141 63.468 214.913 62.52H214.697C214.445 63.432 214.163 64.476 213.851 65.652C213.551 66.828 213.257 67.89 212.969 68.838Z" fill="#364760"/>
</svg>
