<svg width="253" height="68" viewBox="0 0 253 68" fill="none" xmlns="http://www.w3.org/2000/svg">
<rect opacity="0.5" y="0.271484" width="253" height="67.0447" rx="10" fill="#DBDADA"/>
<path d="M33.2091 29.7901C33.2331 28.7941 33.1311 27.8581 32.9031 26.9821C32.6871 26.0941 32.2851 25.3801 31.6971 24.8401C31.1211 24.2881 30.3051 24.0121 29.2491 24.0121C27.7011 24.0121 26.5971 24.7321 25.9371 26.1721C25.2891 27.6001 24.9651 29.6821 24.9651 32.4181C24.9651 34.9741 25.3911 36.8941 26.2431 38.1781C27.1071 39.4621 28.3251 40.1041 29.8971 40.1041C31.1451 40.1041 32.2671 39.8401 33.2631 39.3121C34.2711 38.7841 35.1891 38.2081 36.0171 37.5841C36.5811 37.9681 37.1271 38.5141 37.6551 39.2221C38.1951 39.9301 38.5311 40.6201 38.6631 41.2921C37.9671 41.9761 37.1031 42.6121 36.0711 43.2001C35.0511 43.7761 33.9231 44.2381 32.6871 44.5861C31.4511 44.9461 30.1671 45.1261 28.8351 45.1261C26.9511 45.1261 25.3671 44.7601 24.0831 44.0281C22.8111 43.2841 21.7971 42.3001 21.0411 41.0761C20.2851 39.8401 19.7391 38.4721 19.4031 36.9721C19.0791 35.4601 18.9171 33.9301 18.9171 32.3821C18.9171 29.3701 19.3911 26.9101 20.3391 25.0021C21.2991 23.0941 22.5771 21.6901 24.1731 20.7901C25.7691 19.8901 27.5271 19.4401 29.4471 19.4401C31.3071 19.4401 32.9271 19.7701 34.3071 20.4301C35.6991 21.0901 36.7731 21.9841 37.5291 23.1121C38.2971 24.2401 38.6811 25.5121 38.6811 26.9281C38.6811 28.0441 38.3871 28.8541 37.7991 29.3581C37.2231 29.8501 36.4191 30.0961 35.3871 30.0961C34.9671 30.0961 34.5831 30.0661 34.2351 30.0061C33.8991 29.9461 33.5571 29.8741 33.2091 29.7901ZM58.3146 30.7801C58.3146 31.7041 58.1046 32.5261 57.6846 33.2461C57.2646 33.9661 56.7366 34.5601 56.1006 35.0281C55.4766 35.4961 54.8526 35.7961 54.2286 35.9281C54.8766 36.1441 55.4106 36.4741 55.8306 36.9181C56.2626 37.3621 56.6346 37.9321 56.9466 38.6281L57.8826 40.7701C58.0986 41.2621 58.3446 41.7181 58.6206 42.1381C58.8966 42.5461 59.2026 42.8941 59.5386 43.1821C59.1906 43.6141 58.6686 44.0161 57.9726 44.3881C57.2766 44.7481 56.5206 44.9281 55.7046 44.9281C54.9006 44.9281 54.2466 44.7361 53.7426 44.3521C53.2506 43.9561 52.8186 43.3261 52.4466 42.4621L50.8626 38.8261C50.6106 38.2381 50.2986 37.8841 49.9266 37.7641C49.5546 37.6441 49.0746 37.5841 48.4866 37.5841H47.7846V44.5861C47.3046 44.6701 46.8066 44.7241 46.2906 44.7481C45.7866 44.7841 45.3546 44.8021 44.9946 44.8021C44.6586 44.8021 44.2146 44.7841 43.6626 44.7481C43.1106 44.7241 42.6066 44.6701 42.1506 44.5861V24.9301L42.3486 24.7141C43.8006 24.6781 45.1626 24.6481 46.4346 24.6241C47.7186 24.5881 48.9966 24.5701 50.2686 24.5701C51.7086 24.5701 53.0406 24.7621 54.2646 25.1461C55.4886 25.5181 56.4666 26.1601 57.1986 27.0721C57.9426 27.9721 58.3146 29.2081 58.3146 30.7801ZM47.7846 28.6381V33.3001C48.2046 33.2881 48.5886 33.2821 48.9366 33.2821C49.2966 33.2701 49.5606 33.2641 49.7286 33.2641C50.8086 33.2641 51.5406 33.0301 51.9246 32.5621C52.3086 32.0941 52.5006 31.5481 52.5006 30.9241C52.5006 30.3121 52.3086 29.7841 51.9246 29.3401C51.5406 28.8961 50.8986 28.6741 49.9986 28.6741C49.5666 28.6741 49.1946 28.6681 48.8826 28.6561C48.5706 28.6441 48.2046 28.6381 47.7846 28.6381ZM77.7487 40.0681C77.7487 41.7841 77.4787 42.9781 76.9387 43.6501C76.4107 44.3221 75.5107 44.6581 74.2387 44.6581H65.9407C64.9207 44.6581 64.1167 44.3701 63.5287 43.7941C62.9407 43.2061 62.6467 42.4201 62.6467 41.4361V24.9481L62.8447 24.7501H77.0827C77.1667 25.1581 77.2147 25.5481 77.2267 25.9201C77.2387 26.2921 77.2447 26.6461 77.2447 26.9821C77.2447 27.3061 77.2087 27.6721 77.1367 28.0801C77.0767 28.4881 76.9687 28.9021 76.8127 29.3221H70.5127C70.0087 29.3221 69.2467 29.3161 68.2267 29.3041C68.2387 29.6761 68.2447 29.9941 68.2447 30.2581C68.2567 30.5221 68.2627 30.8401 68.2627 31.2121V32.4001C69.2587 32.3881 70.0087 32.3821 70.5127 32.3821H75.1207C75.2407 32.7061 75.3187 33.0781 75.3547 33.4981C75.4027 33.9061 75.4267 34.2541 75.4267 34.5421C75.4267 34.8781 75.4027 35.2561 75.3547 35.6761C75.3187 36.0841 75.2407 36.4561 75.1207 36.7921H70.5127C70.2847 36.7921 69.9667 36.7921 69.5587 36.7921C69.1507 36.7921 68.7187 36.7921 68.2627 36.7921V37.9621C68.2627 38.4061 68.2567 38.7721 68.2447 39.0601C68.2327 39.3481 68.2267 39.7081 68.2267 40.1401V40.1761C68.6467 40.1521 69.0367 40.1281 69.3967 40.1041C69.7567 40.0801 70.1947 40.0681 70.7107 40.0681H77.7487ZM86.7062 41.1121C86.5142 41.1121 86.3282 41.1121 86.1482 41.1121C85.9682 41.1001 85.7882 41.0881 85.6082 41.0761L84.4922 44.5861C84.1442 44.6701 83.7662 44.7301 83.3582 44.7661C82.9502 44.8141 82.5242 44.8381 82.0802 44.8381C81.6002 44.8381 81.1142 44.8021 80.6222 44.7301C80.1422 44.6581 79.7462 44.5561 79.4342 44.4241L79.2362 44.1181L86.2382 24.7501C86.8622 24.6541 87.4622 24.5941 88.0382 24.5701C88.6262 24.5461 89.1602 24.5341 89.6402 24.5341C90.0842 24.5341 90.5642 24.5461 91.0802 24.5701C91.5962 24.5941 92.1782 24.6541 92.8262 24.7501L99.6302 44.3161C99.2102 44.5081 98.6762 44.6521 98.0282 44.7481C97.3802 44.8561 96.8582 44.9101 96.4622 44.9101C95.8022 44.9101 95.1662 44.7841 94.5542 44.5321C93.9422 44.2801 93.4802 43.6141 93.1682 42.5341L92.7182 41.0761C92.5262 41.0881 92.3402 41.1001 92.1602 41.1121C91.9802 41.1121 91.7882 41.1121 91.5842 41.1121H86.7062ZM87.4262 35.4241L87.0302 36.6661C87.2102 36.6541 87.3902 36.6481 87.5702 36.6481C87.7502 36.6361 87.9362 36.6301 88.1282 36.6301H90.3782C90.5582 36.6301 90.7202 36.6361 90.8642 36.6481C91.0202 36.6481 91.1762 36.6541 91.3322 36.6661L90.9542 35.4421C90.6782 34.4941 90.4022 33.4381 90.1262 32.2741C89.8502 31.1101 89.5982 30.0541 89.3702 29.1061H89.1542C88.9022 30.0181 88.6202 31.0621 88.3082 32.2381C88.0082 33.4141 87.7142 34.4761 87.4262 35.4241ZM118.537 30.7801C118.537 31.7041 118.327 32.5261 117.907 33.2461C117.487 33.9661 116.959 34.5601 116.323 35.0281C115.699 35.4961 115.075 35.7961 114.451 35.9281C115.099 36.1441 115.633 36.4741 116.053 36.9181C116.485 37.3621 116.857 37.9321 117.169 38.6281L118.105 40.7701C118.321 41.2621 118.567 41.7181 118.843 42.1381C119.119 42.5461 119.425 42.8941 119.761 43.1821C119.413 43.6141 118.891 44.0161 118.195 44.3881C117.499 44.7481 116.743 44.9281 115.927 44.9281C115.123 44.9281 114.469 44.7361 113.965 44.3521C113.473 43.9561 113.041 43.3261 112.669 42.4621L111.085 38.8261C110.833 38.2381 110.521 37.8841 110.149 37.7641C109.777 37.6441 109.297 37.5841 108.709 37.5841H108.007V44.5861C107.527 44.6701 107.029 44.7241 106.513 44.7481C106.009 44.7841 105.577 44.8021 105.217 44.8021C104.881 44.8021 104.437 44.7841 103.885 44.7481C103.333 44.7241 102.829 44.6701 102.373 44.5861V24.9301L102.571 24.7141C104.023 24.6781 105.385 24.6481 106.657 24.6241C107.941 24.5881 109.219 24.5701 110.491 24.5701C111.931 24.5701 113.263 24.7621 114.487 25.1461C115.711 25.5181 116.689 26.1601 117.421 27.0721C118.165 27.9721 118.537 29.2081 118.537 30.7801ZM108.007 28.6381V33.3001C108.427 33.2881 108.811 33.2821 109.159 33.2821C109.519 33.2701 109.783 33.2641 109.951 33.2641C111.031 33.2641 111.763 33.0301 112.147 32.5621C112.531 32.0941 112.723 31.5481 112.723 30.9241C112.723 30.3121 112.531 29.7841 112.147 29.3401C111.763 28.8961 111.121 28.6741 110.221 28.6741C109.789 28.6741 109.417 28.6681 109.105 28.6561C108.793 28.6441 108.427 28.6381 108.007 28.6381ZM144.478 37.9081C144.478 37.5121 144.484 37.1041 144.496 36.6841C144.508 36.2641 144.526 35.8381 144.55 35.4061H142.786C141.862 35.4061 141.172 35.2321 140.716 34.8841C140.26 34.5361 140.032 33.9061 140.032 32.9941C140.032 32.6221 140.068 32.2201 140.14 31.7881C140.224 31.3561 140.326 30.9661 140.446 30.6181H146.08C147.508 30.6181 148.498 30.9541 149.05 31.6261C149.602 32.2861 149.878 33.1381 149.878 34.1821V43.6321C148.834 43.9801 147.484 44.3161 145.828 44.6401C144.172 44.9641 142.36 45.1261 140.392 45.1261C137.932 45.1261 135.892 44.6101 134.272 43.5781C132.664 42.5461 131.464 41.0821 130.672 39.1861C129.88 37.2901 129.484 35.0461 129.484 32.4541C129.484 30.2701 129.802 28.3681 130.438 26.7481C131.074 25.1161 131.938 23.7661 133.03 22.6981C134.122 21.6181 135.352 20.8081 136.72 20.2681C138.088 19.7281 139.504 19.4581 140.968 19.4581C142.624 19.4581 144.208 19.6981 145.72 20.1781C147.232 20.6581 148.6 21.2761 149.824 22.0321C149.764 22.8481 149.464 23.6461 148.924 24.4261C148.396 25.2061 147.838 25.7881 147.25 26.1721C146.374 25.5841 145.414 25.1161 144.37 24.7681C143.338 24.4081 142.318 24.2281 141.31 24.2281C139.486 24.2281 138.04 24.8881 136.972 26.2081C135.904 27.5161 135.37 29.6101 135.37 32.4901C135.37 35.2981 135.886 37.3501 136.918 38.6461C137.962 39.9421 139.45 40.5901 141.382 40.5901C141.958 40.5901 142.504 40.5601 143.02 40.5001C143.536 40.4401 144.022 40.3681 144.478 40.2841V37.9081ZM170.498 30.7801C170.498 31.7041 170.288 32.5261 169.868 33.2461C169.448 33.9661 168.92 34.5601 168.284 35.0281C167.66 35.4961 167.036 35.7961 166.412 35.9281C167.06 36.1441 167.594 36.4741 168.014 36.9181C168.446 37.3621 168.818 37.9321 169.13 38.6281L170.066 40.7701C170.282 41.2621 170.528 41.7181 170.804 42.1381C171.08 42.5461 171.386 42.8941 171.722 43.1821C171.374 43.6141 170.852 44.0161 170.156 44.3881C169.46 44.7481 168.704 44.9281 167.888 44.9281C167.084 44.9281 166.43 44.7361 165.926 44.3521C165.434 43.9561 165.002 43.3261 164.63 42.4621L163.046 38.8261C162.794 38.2381 162.482 37.8841 162.11 37.7641C161.738 37.6441 161.258 37.5841 160.67 37.5841H159.968V44.5861C159.488 44.6701 158.99 44.7241 158.474 44.7481C157.97 44.7841 157.538 44.8021 157.178 44.8021C156.842 44.8021 156.398 44.7841 155.846 44.7481C155.294 44.7241 154.79 44.6701 154.334 44.5861V24.9301L154.532 24.7141C155.984 24.6781 157.346 24.6481 158.618 24.6241C159.902 24.5881 161.18 24.5701 162.452 24.5701C163.892 24.5701 165.224 24.7621 166.448 25.1461C167.672 25.5181 168.65 26.1601 169.382 27.0721C170.126 27.9721 170.498 29.2081 170.498 30.7801ZM159.968 28.6381V33.3001C160.388 33.2881 160.772 33.2821 161.12 33.2821C161.48 33.2701 161.744 33.2641 161.912 33.2641C162.992 33.2641 163.724 33.0301 164.108 32.5621C164.492 32.0941 164.684 31.5481 164.684 30.9241C164.684 30.3121 164.492 29.7841 164.108 29.3401C163.724 28.8961 163.082 28.6741 162.182 28.6741C161.75 28.6741 161.378 28.6681 161.066 28.6561C160.754 28.6441 160.388 28.6381 159.968 28.6381ZM192.074 37.1521C192.074 39.6361 191.33 41.5861 189.842 43.0021C188.366 44.4181 186.176 45.1261 183.272 45.1261C180.368 45.1261 178.172 44.4181 176.684 43.0021C175.208 41.5861 174.47 39.6361 174.47 37.1521V24.7501L174.686 24.5341H176.738C177.83 24.5341 178.67 24.8101 179.258 25.3621C179.858 25.9141 180.158 26.8441 180.158 28.1521V37.1341C180.158 38.2261 180.386 39.0841 180.842 39.7081C181.298 40.3321 182.108 40.6441 183.272 40.6441C184.448 40.6441 185.258 40.3321 185.702 39.7081C186.146 39.0841 186.368 38.2261 186.368 37.1341V24.7501C186.848 24.6541 187.34 24.5941 187.844 24.5701C188.348 24.5461 188.786 24.5341 189.158 24.5341C189.494 24.5341 189.95 24.5521 190.526 24.5881C191.102 24.6121 191.618 24.6721 192.074 24.7681V37.1521ZM212.676 31.5541C212.676 33.1141 212.322 34.4101 211.614 35.4421C210.918 36.4621 209.958 37.2241 208.734 37.7281C207.51 38.2201 206.118 38.4661 204.558 38.4661H202.596V44.5861C202.116 44.6701 201.624 44.7241 201.12 44.7481C200.616 44.7841 200.184 44.8021 199.824 44.8021C199.488 44.8021 199.032 44.7841 198.456 44.7481C197.88 44.7241 197.364 44.6701 196.908 44.5861V24.9301L197.106 24.7141C198.078 24.6901 199.248 24.6601 200.616 24.6241C201.984 24.5881 203.298 24.5701 204.558 24.5701C206.13 24.5701 207.528 24.8101 208.752 25.2901C209.976 25.7701 210.936 26.5261 211.632 27.5581C212.328 28.5901 212.676 29.9221 212.676 31.5541ZM202.596 28.7821V34.2901C202.92 34.2781 203.214 34.2721 203.478 34.2721C203.742 34.2601 203.94 34.2541 204.072 34.2541C204.864 34.2541 205.458 34.1101 205.854 33.8221C206.262 33.5221 206.532 33.1621 206.664 32.7421C206.796 32.3101 206.862 31.9021 206.862 31.5181C206.862 31.1581 206.796 30.7681 206.664 30.3481C206.532 29.9281 206.262 29.5681 205.854 29.2681C205.458 28.9681 204.864 28.8181 204.072 28.8181C203.772 28.8181 203.556 28.8181 203.424 28.8181C203.292 28.8061 203.016 28.7941 202.596 28.7821ZM214.681 34.7041C214.681 31.4881 215.509 28.9381 217.165 27.0541C218.833 25.1581 221.263 24.2101 224.455 24.2101C227.695 24.2101 230.137 25.1521 231.781 27.0361C233.437 28.9081 234.265 31.4641 234.265 34.7041C234.265 37.9441 233.437 40.4941 231.781 42.3541C230.125 44.2021 227.683 45.1261 224.455 45.1261C221.215 45.1261 218.773 44.1901 217.129 42.3181C215.497 40.4461 214.681 37.9081 214.681 34.7041ZM220.495 34.7041C220.495 35.3881 220.537 36.0961 220.621 36.8281C220.717 37.5481 220.897 38.2201 221.161 38.8441C221.437 39.4681 221.839 39.9781 222.367 40.3741C222.895 40.7581 223.597 40.9501 224.473 40.9501C225.349 40.9501 226.051 40.7581 226.579 40.3741C227.107 39.9781 227.503 39.4681 227.767 38.8441C228.043 38.2201 228.223 37.5481 228.307 36.8281C228.403 36.0961 228.451 35.3881 228.451 34.7041C228.451 34.0081 228.403 33.2941 228.307 32.5621C228.223 31.8181 228.043 31.1341 227.767 30.5101C227.503 29.8741 227.107 29.3641 226.579 28.9801C226.051 28.5841 225.349 28.3861 224.473 28.3861C223.597 28.3861 222.895 28.5841 222.367 28.9801C221.839 29.3641 221.437 29.8741 221.161 30.5101C220.897 31.1341 220.717 31.8181 220.621 32.5621C220.537 33.2941 220.495 34.0081 220.495 34.7041Z" fill="#364760"/>
</svg>
