<svg width="253" height="102" viewBox="0 0 253 102" fill="none" xmlns="http://www.w3.org/2000/svg">
<rect opacity="0.5" y="0.794678" width="253" height="101.083" rx="10" fill="#DBDADA"/>
<path d="M86.8048 19.9987C86.8288 19.0027 86.7268 18.0667 86.4988 17.1907C86.2828 16.3027 85.8808 15.5887 85.2928 15.0487C84.7168 14.4967 83.9008 14.2207 82.8448 14.2207C81.2968 14.2207 80.1928 14.9407 79.5328 16.3807C78.8848 17.8087 78.5608 19.8907 78.5608 22.6267C78.5608 25.1827 78.9868 27.1027 79.8388 28.3867C80.7028 29.6707 81.9208 30.3127 83.4928 30.3127C84.7408 30.3127 85.8628 30.0487 86.8588 29.5207C87.8668 28.9927 88.7848 28.4167 89.6128 27.7927C90.1768 28.1767 90.7228 28.7227 91.2508 29.4307C91.7908 30.1387 92.1268 30.8287 92.2588 31.5007C91.5628 32.1847 90.6988 32.8207 89.6668 33.4087C88.6468 33.9847 87.5188 34.4467 86.2828 34.7947C85.0468 35.1547 83.7628 35.3347 82.4308 35.3347C80.5468 35.3347 78.9628 34.9687 77.6788 34.2367C76.4068 33.4927 75.3928 32.5087 74.6368 31.2847C73.8808 30.0487 73.3348 28.6807 72.9988 27.1807C72.6748 25.6687 72.5128 24.1387 72.5128 22.5907C72.5128 19.5787 72.9868 17.1187 73.9348 15.2107C74.8948 13.3027 76.1728 11.8987 77.7688 10.9987C79.3648 10.0987 81.1228 9.64868 83.0428 9.64868C84.9028 9.64868 86.5228 9.97868 87.9028 10.6387C89.2948 11.2987 90.3688 12.1927 91.1248 13.3207C91.8928 14.4487 92.2768 15.7207 92.2768 17.1367C92.2768 18.2527 91.9828 19.0627 91.3948 19.5667C90.8188 20.0587 90.0148 20.3047 88.9828 20.3047C88.5628 20.3047 88.1788 20.2747 87.8308 20.2147C87.4948 20.1547 87.1528 20.0827 86.8048 19.9987ZM111.91 20.9887C111.91 21.9127 111.7 22.7347 111.28 23.4547C110.86 24.1747 110.332 24.7687 109.696 25.2367C109.072 25.7047 108.448 26.0047 107.824 26.1367C108.472 26.3527 109.006 26.6827 109.426 27.1267C109.858 27.5707 110.23 28.1407 110.542 28.8367L111.478 30.9787C111.694 31.4707 111.94 31.9267 112.216 32.3467C112.492 32.7547 112.798 33.1027 113.134 33.3907C112.786 33.8227 112.264 34.2247 111.568 34.5967C110.872 34.9567 110.116 35.1367 109.3 35.1367C108.496 35.1367 107.842 34.9447 107.338 34.5607C106.846 34.1647 106.414 33.5347 106.042 32.6707L104.458 29.0347C104.206 28.4467 103.894 28.0927 103.522 27.9727C103.15 27.8527 102.67 27.7927 102.082 27.7927H101.38V34.7947C100.9 34.8787 100.402 34.9327 99.8863 34.9567C99.3823 34.9927 98.9503 35.0107 98.5903 35.0107C98.2543 35.0107 97.8103 34.9927 97.2583 34.9567C96.7063 34.9327 96.2023 34.8787 95.7463 34.7947V15.1387L95.9443 14.9227C97.3963 14.8867 98.7583 14.8567 100.03 14.8327C101.314 14.7967 102.592 14.7787 103.864 14.7787C105.304 14.7787 106.636 14.9707 107.86 15.3547C109.084 15.7267 110.062 16.3687 110.794 17.2807C111.538 18.1807 111.91 19.4167 111.91 20.9887ZM101.38 18.8467V23.5087C101.8 23.4967 102.184 23.4907 102.532 23.4907C102.892 23.4787 103.156 23.4727 103.324 23.4727C104.404 23.4727 105.136 23.2387 105.52 22.7707C105.904 22.3027 106.096 21.7567 106.096 21.1327C106.096 20.5207 105.904 19.9927 105.52 19.5487C105.136 19.1047 104.494 18.8827 103.594 18.8827C103.162 18.8827 102.79 18.8767 102.478 18.8647C102.166 18.8527 101.8 18.8467 101.38 18.8467ZM131.344 30.2767C131.344 31.9927 131.074 33.1867 130.534 33.8587C130.006 34.5307 129.106 34.8667 127.834 34.8667H119.536C118.516 34.8667 117.712 34.5787 117.124 34.0027C116.536 33.4147 116.242 32.6287 116.242 31.6447V15.1567L116.44 14.9587H130.678C130.762 15.3667 130.81 15.7567 130.822 16.1287C130.834 16.5007 130.84 16.8547 130.84 17.1907C130.84 17.5147 130.804 17.8807 130.732 18.2887C130.672 18.6967 130.564 19.1107 130.408 19.5307H124.108C123.604 19.5307 122.842 19.5247 121.822 19.5127C121.834 19.8847 121.84 20.2027 121.84 20.4667C121.852 20.7307 121.858 21.0487 121.858 21.4207V22.6087C122.854 22.5967 123.604 22.5907 124.108 22.5907H128.716C128.836 22.9147 128.914 23.2867 128.95 23.7067C128.998 24.1147 129.022 24.4627 129.022 24.7507C129.022 25.0867 128.998 25.4647 128.95 25.8847C128.914 26.2927 128.836 26.6647 128.716 27.0007H124.108C123.88 27.0007 123.562 27.0007 123.154 27.0007C122.746 27.0007 122.314 27.0007 121.858 27.0007V28.1707C121.858 28.6147 121.852 28.9807 121.84 29.2687C121.828 29.5567 121.822 29.9167 121.822 30.3487V30.3847C122.242 30.3607 122.632 30.3367 122.992 30.3127C123.352 30.2887 123.79 30.2767 124.306 30.2767H131.344ZM140.302 31.3207C140.11 31.3207 139.924 31.3207 139.744 31.3207C139.564 31.3087 139.384 31.2967 139.204 31.2847L138.088 34.7947C137.74 34.8787 137.362 34.9387 136.954 34.9747C136.546 35.0227 136.12 35.0467 135.676 35.0467C135.196 35.0467 134.71 35.0107 134.218 34.9387C133.738 34.8667 133.342 34.7647 133.03 34.6327L132.832 34.3267L139.834 14.9587C140.458 14.8627 141.058 14.8027 141.634 14.7787C142.222 14.7547 142.756 14.7427 143.236 14.7427C143.68 14.7427 144.16 14.7547 144.676 14.7787C145.192 14.8027 145.774 14.8627 146.422 14.9587L153.226 34.5247C152.806 34.7167 152.272 34.8607 151.624 34.9567C150.976 35.0647 150.454 35.1187 150.058 35.1187C149.398 35.1187 148.762 34.9927 148.15 34.7407C147.538 34.4887 147.076 33.8227 146.764 32.7427L146.314 31.2847C146.122 31.2967 145.936 31.3087 145.756 31.3207C145.576 31.3207 145.384 31.3207 145.18 31.3207H140.302ZM141.022 25.6327L140.626 26.8747C140.806 26.8627 140.986 26.8567 141.166 26.8567C141.346 26.8447 141.532 26.8387 141.724 26.8387H143.974C144.154 26.8387 144.316 26.8447 144.46 26.8567C144.616 26.8567 144.772 26.8627 144.928 26.8747L144.55 25.6507C144.274 24.7027 143.998 23.6467 143.722 22.4827C143.446 21.3187 143.194 20.2627 142.966 19.3147H142.75C142.498 20.2267 142.216 21.2707 141.904 22.4467C141.604 23.6227 141.31 24.6847 141.022 25.6327ZM172.133 20.9887C172.133 21.9127 171.923 22.7347 171.503 23.4547C171.083 24.1747 170.555 24.7687 169.919 25.2367C169.295 25.7047 168.671 26.0047 168.047 26.1367C168.695 26.3527 169.229 26.6827 169.649 27.1267C170.081 27.5707 170.453 28.1407 170.765 28.8367L171.701 30.9787C171.917 31.4707 172.163 31.9267 172.439 32.3467C172.715 32.7547 173.021 33.1027 173.357 33.3907C173.009 33.8227 172.487 34.2247 171.791 34.5967C171.095 34.9567 170.339 35.1367 169.523 35.1367C168.719 35.1367 168.065 34.9447 167.561 34.5607C167.069 34.1647 166.637 33.5347 166.265 32.6707L164.681 29.0347C164.429 28.4467 164.117 28.0927 163.745 27.9727C163.373 27.8527 162.893 27.7927 162.305 27.7927H161.603V34.7947C161.123 34.8787 160.625 34.9327 160.109 34.9567C159.605 34.9927 159.173 35.0107 158.813 35.0107C158.477 35.0107 158.033 34.9927 157.481 34.9567C156.929 34.9327 156.425 34.8787 155.969 34.7947V15.1387L156.167 14.9227C157.619 14.8867 158.981 14.8567 160.253 14.8327C161.537 14.7967 162.815 14.7787 164.087 14.7787C165.527 14.7787 166.859 14.9707 168.083 15.3547C169.307 15.7267 170.285 16.3687 171.017 17.2807C171.761 18.1807 172.133 19.4167 172.133 20.9887ZM161.603 18.8467V23.5087C162.023 23.4967 162.407 23.4907 162.755 23.4907C163.115 23.4787 163.379 23.4727 163.547 23.4727C164.627 23.4727 165.359 23.2387 165.743 22.7707C166.127 22.3027 166.319 21.7567 166.319 21.1327C166.319 20.5207 166.127 19.9927 165.743 19.5487C165.359 19.1047 164.717 18.8827 163.817 18.8827C163.385 18.8827 163.013 18.8767 162.701 18.8647C162.389 18.8527 162.023 18.8467 161.603 18.8467ZM59.0658 54.2067C59.5338 54.1227 60.0438 54.0687 60.5958 54.0447C61.1478 54.0087 61.6038 53.9907 61.9638 53.9907C62.3478 53.9907 62.8038 54.0087 63.3318 54.0447C63.8598 54.0687 64.3638 54.1227 64.8438 54.2067V78.7947C64.3638 78.8787 63.8598 78.9327 63.3318 78.9567C62.8038 78.9927 62.3478 79.0107 61.9638 79.0107C61.6038 79.0107 61.1478 78.9927 60.5958 78.9567C60.0438 78.9327 59.5338 78.8787 59.0658 78.7947V54.2067ZM77.2596 69.7407C77.1756 69.5487 77.0436 69.2487 76.8636 68.8407C76.6836 68.4207 76.4916 67.9707 76.2876 67.4907C76.0836 67.0107 75.8916 66.5607 75.7116 66.1407C75.5436 65.7207 75.4116 65.4147 75.3156 65.2227L75.1896 65.2767C75.2376 66.2247 75.2856 67.2507 75.3336 68.3547C75.3816 69.4467 75.4176 70.4487 75.4416 71.3607C75.4776 72.2607 75.4956 72.9147 75.4956 73.3227V78.7947C75.0276 78.8787 74.5776 78.9327 74.1456 78.9567C73.7136 78.9927 73.3116 79.0107 72.9396 79.0107C72.6036 79.0107 72.1836 78.9927 71.6796 78.9567C71.1876 78.9327 70.7196 78.8787 70.2756 78.7947V59.0847C70.7196 58.9767 71.2716 58.8927 71.9316 58.8327C72.5916 58.7727 73.1016 58.7427 73.4616 58.7427C73.8336 58.7427 74.3616 58.7547 75.0456 58.7787C75.7296 58.7907 76.2936 58.8507 76.7376 58.9587L80.9676 67.9767C81.0516 68.1447 81.1896 68.4507 81.3816 68.8947C81.5856 69.3387 81.8016 69.8247 82.0296 70.3527C82.2576 70.8807 82.4676 71.3787 82.6596 71.8467C82.8636 72.3027 83.0136 72.6387 83.1096 72.8547L83.2716 72.8187C83.2236 72.0267 83.1576 71.1027 83.0736 70.0467C83.0016 68.9907 82.9356 67.9707 82.8756 66.9867C82.8156 66.0027 82.7856 65.2167 82.7856 64.6287V61.8207C82.7856 60.5487 83.0616 59.7147 83.6136 59.3187C84.1656 58.9107 84.9876 58.7067 86.0796 58.7067H87.9336L88.1496 58.9587V78.6867C87.6816 78.7947 87.1176 78.8727 86.4576 78.9207C85.7976 78.9807 85.2936 79.0107 84.9456 79.0107C84.7056 79.0107 84.3756 79.0047 83.9556 78.9927C83.5356 78.9807 83.1036 78.9627 82.6596 78.9387C82.2276 78.9147 81.8676 78.8667 81.5796 78.7947L77.2596 69.7407ZM99.0261 78.7947C98.5341 78.8787 98.0301 78.9327 97.5141 78.9567C97.0101 78.9927 96.5661 79.0107 96.1821 79.0107C95.7981 79.0107 95.3481 78.9927 94.8321 78.9567C94.3281 78.9327 93.8301 78.8787 93.3381 78.7947V59.1207L93.5361 58.9587H107.486C107.57 59.2827 107.63 59.6487 107.666 60.0567C107.714 60.4647 107.738 60.7947 107.738 61.0467C107.738 61.8627 107.522 62.4987 107.09 62.9547C106.658 63.4107 105.938 63.6387 104.93 63.6387H101.096C100.736 63.6387 100.382 63.6387 100.034 63.6387C99.6981 63.6267 99.3621 63.6207 99.0261 63.6207C99.0261 63.8727 99.0261 64.1307 99.0261 64.3947C99.0261 64.6467 99.0261 64.8987 99.0261 65.1507V67.0227C99.1701 67.0227 99.3081 67.0227 99.4401 67.0227H105.434C105.542 67.3347 105.614 67.7007 105.65 68.1207C105.698 68.5287 105.722 68.8767 105.722 69.1647C105.722 69.4887 105.698 69.8727 105.65 70.3167C105.614 70.7607 105.542 71.1447 105.434 71.4687H99.4401C99.3081 71.4687 99.1701 71.4687 99.0261 71.4687V78.7947ZM109.177 68.9127C109.177 65.6967 110.005 63.1467 111.661 61.2627C113.329 59.3667 115.759 58.4187 118.951 58.4187C122.191 58.4187 124.633 59.3607 126.277 61.2447C127.933 63.1167 128.761 65.6727 128.761 68.9127C128.761 72.1527 127.933 74.7027 126.277 76.5627C124.621 78.4107 122.179 79.3347 118.951 79.3347C115.711 79.3347 113.269 78.3987 111.625 76.5267C109.993 74.6547 109.177 72.1167 109.177 68.9127ZM114.991 68.9127C114.991 69.5967 115.033 70.3047 115.117 71.0367C115.213 71.7567 115.393 72.4287 115.657 73.0527C115.933 73.6767 116.335 74.1867 116.863 74.5827C117.391 74.9667 118.093 75.1587 118.969 75.1587C119.845 75.1587 120.547 74.9667 121.075 74.5827C121.603 74.1867 121.999 73.6767 122.263 73.0527C122.539 72.4287 122.719 71.7567 122.803 71.0367C122.899 70.3047 122.947 69.5967 122.947 68.9127C122.947 68.2167 122.899 67.5027 122.803 66.7707C122.719 66.0267 122.539 65.3427 122.263 64.7187C121.999 64.0827 121.603 63.5727 121.075 63.1887C120.547 62.7927 119.845 62.5947 118.969 62.5947C118.093 62.5947 117.391 62.7927 116.863 63.1887C116.335 63.5727 115.933 64.0827 115.657 64.7187C115.393 65.3427 115.213 66.0267 115.117 66.7707C115.033 67.5027 114.991 68.2167 114.991 68.9127ZM148.631 64.9887C148.631 65.9127 148.421 66.7347 148.001 67.4547C147.581 68.1747 147.053 68.7687 146.417 69.2367C145.793 69.7047 145.169 70.0047 144.545 70.1367C145.193 70.3527 145.727 70.6827 146.147 71.1267C146.579 71.5707 146.951 72.1407 147.263 72.8367L148.199 74.9787C148.415 75.4707 148.661 75.9267 148.937 76.3467C149.213 76.7547 149.519 77.1027 149.855 77.3907C149.507 77.8227 148.985 78.2247 148.289 78.5967C147.593 78.9567 146.837 79.1367 146.021 79.1367C145.217 79.1367 144.563 78.9447 144.059 78.5607C143.567 78.1647 143.135 77.5347 142.763 76.6707L141.179 73.0347C140.927 72.4467 140.615 72.0927 140.243 71.9727C139.871 71.8527 139.391 71.7927 138.803 71.7927H138.101V78.7947C137.621 78.8787 137.123 78.9327 136.607 78.9567C136.103 78.9927 135.671 79.0107 135.311 79.0107C134.975 79.0107 134.531 78.9927 133.979 78.9567C133.427 78.9327 132.923 78.8787 132.467 78.7947V59.1387L132.665 58.9227C134.117 58.8867 135.479 58.8567 136.751 58.8327C138.035 58.7967 139.313 58.7787 140.585 58.7787C142.025 58.7787 143.357 58.9707 144.581 59.3547C145.805 59.7267 146.783 60.3687 147.515 61.2807C148.259 62.1807 148.631 63.4167 148.631 64.9887ZM138.101 62.8467V67.5087C138.521 67.4967 138.905 67.4907 139.253 67.4907C139.613 67.4787 139.877 67.4727 140.045 67.4727C141.125 67.4727 141.857 67.2387 142.241 66.7707C142.625 66.3027 142.817 65.7567 142.817 65.1327C142.817 64.5207 142.625 63.9927 142.241 63.5487C141.857 63.1047 141.215 62.8827 140.315 62.8827C139.883 62.8827 139.511 62.8767 139.199 62.8647C138.887 62.8527 138.521 62.8467 138.101 62.8467ZM154.223 58.9587C154.799 58.8507 155.429 58.7787 156.113 58.7427C156.797 58.6947 157.373 58.6707 157.841 58.6707C158.285 58.6707 158.861 58.6947 159.569 58.7427C160.277 58.7787 160.871 58.8507 161.351 58.9587L163.115 66.7707C163.223 67.2387 163.349 67.8747 163.493 68.6787C163.637 69.4707 163.781 70.3227 163.925 71.2347H164.159C164.447 69.3147 164.717 67.8267 164.969 66.7707L166.715 58.9587C167.279 58.8507 167.897 58.7787 168.569 58.7427C169.241 58.6947 169.799 58.6707 170.243 58.6707C170.711 58.6707 171.293 58.6947 171.989 58.7427C172.685 58.7787 173.309 58.8507 173.861 58.9587L175.895 78.7227C175.115 78.9147 174.173 79.0107 173.069 79.0107C172.649 79.0107 172.199 78.9927 171.719 78.9567C171.251 78.9207 170.831 78.8667 170.459 78.7947L169.937 72.4227C169.877 71.6067 169.841 70.7127 169.829 69.7407C169.817 68.7687 169.817 67.8207 169.829 66.8967C169.841 65.9607 169.841 65.1507 169.829 64.4667H169.613L166.967 75.7527C166.559 75.8247 166.061 75.8787 165.473 75.9147C164.885 75.9387 164.399 75.9507 164.015 75.9507C163.619 75.9507 163.127 75.9387 162.539 75.9147C161.963 75.8787 161.483 75.8247 161.099 75.7527L158.471 64.4667H158.219C158.219 65.1627 158.219 65.9727 158.219 66.8967C158.231 67.8207 158.231 68.7687 158.219 69.7407C158.207 70.7127 158.165 71.6187 158.093 72.4587L157.625 78.7947C157.241 78.8667 156.821 78.9207 156.365 78.9567C155.921 78.9927 155.489 79.0107 155.069 79.0107C153.953 79.0107 152.993 78.9147 152.189 78.7227L154.223 58.9587ZM195.417 74.2767C195.417 75.9927 195.147 77.1867 194.607 77.8587C194.079 78.5307 193.179 78.8667 191.907 78.8667H183.609C182.589 78.8667 181.785 78.5787 181.197 78.0027C180.609 77.4147 180.315 76.6287 180.315 75.6447V59.1567L180.513 58.9587H194.751C194.835 59.3667 194.883 59.7567 194.895 60.1287C194.907 60.5007 194.913 60.8547 194.913 61.1907C194.913 61.5147 194.877 61.8807 194.805 62.2887C194.745 62.6967 194.637 63.1107 194.481 63.5307H188.181C187.677 63.5307 186.915 63.5247 185.895 63.5127C185.907 63.8847 185.913 64.2027 185.913 64.4667C185.925 64.7307 185.931 65.0487 185.931 65.4207V66.6087C186.927 66.5967 187.677 66.5907 188.181 66.5907H192.789C192.909 66.9147 192.987 67.2867 193.023 67.7067C193.071 68.1147 193.095 68.4627 193.095 68.7507C193.095 69.0867 193.071 69.4647 193.023 69.8847C192.987 70.2927 192.909 70.6647 192.789 71.0007H188.181C187.953 71.0007 187.635 71.0007 187.227 71.0007C186.819 71.0007 186.387 71.0007 185.931 71.0007V72.1707C185.931 72.6147 185.925 72.9807 185.913 73.2687C185.901 73.5567 185.895 73.9167 185.895 74.3487V74.3847C186.315 74.3607 186.705 74.3367 187.065 74.3127C187.425 74.2887 187.863 74.2767 188.379 74.2767H195.417Z" fill="#364760"/>
</svg>
