<svg width="392" height="155" viewBox="0 0 392 155" fill="none" xmlns="http://www.w3.org/2000/svg">
<rect width="392" height="155" rx="20" fill="black" fill-opacity="0.25"/>
<path d="M48.3488 55.4198C48.3488 56.7404 48.2529 58.0158 48.061 59.246C47.8804 60.465 47.5192 61.605 46.9775 62.6659C46.4357 63.7269 45.6231 64.6749 44.5396 65.5102C44.0204 65.9165 43.394 66.2438 42.6603 66.4921C41.938 66.7404 41.193 66.921 40.4255 67.0339C39.6581 67.1467 38.9583 67.2032 38.3262 67.2032C36.8702 67.2032 35.4537 67.1862 34.0768 67.1524C32.7111 67.1298 31.289 67.1016 29.8104 67.0677L29.5734 66.8307V44.0428L29.8104 43.8058C31.2664 43.7607 32.6829 43.7268 34.0598 43.7042C35.4481 43.6816 36.8702 43.6704 38.3262 43.6704C38.9583 43.6704 39.6581 43.7324 40.4255 43.8566C41.193 43.9695 41.9436 44.15 42.6772 44.3984C43.4109 44.6467 44.0317 44.974 44.5396 45.3803C45.6118 46.2155 46.4188 47.1636 46.9606 48.2245C47.5023 49.2742 47.8691 50.4085 48.061 51.6275C48.2529 52.8465 48.3488 54.1106 48.3488 55.4198ZM42.7788 55.4198C42.7788 54.562 42.7224 53.693 42.6095 52.8126C42.5079 51.9209 42.3048 51.1083 42 50.3747C41.7066 49.6297 41.2608 49.0316 40.6626 48.5801C40.0757 48.1173 39.2969 47.8859 38.3262 47.8859C37.7506 47.8859 37.1975 47.8859 36.6671 47.8859C36.1366 47.8859 35.5723 47.8747 34.9741 47.8521V63.0045C35.5723 62.9932 36.1366 62.9876 36.6671 62.9876C37.1975 62.9876 37.7506 62.9876 38.3262 62.9876C39.2969 62.9876 40.0757 62.7618 40.6626 62.3104C41.2608 61.8476 41.7066 61.2438 42 60.4989C42.3048 59.7426 42.5079 58.9244 42.6095 58.044C42.7224 57.1523 42.7788 56.2776 42.7788 55.4198ZM66.2598 62.7506C66.2598 64.3646 66.0058 65.4876 65.4979 66.1196C65.0013 66.7517 64.1548 67.0677 62.9584 67.0677H55.1537C54.1943 67.0677 53.4381 66.7968 52.885 66.2551C52.332 65.702 52.0554 64.9627 52.0554 64.0372V48.5293L52.2417 48.3431H65.6334C65.7124 48.7268 65.7575 49.0936 65.7688 49.4435C65.7801 49.7934 65.7857 50.1264 65.7857 50.4424C65.7857 50.7471 65.7519 51.0914 65.6842 51.4751C65.6277 51.8589 65.5261 52.2483 65.3794 52.6433H59.4539C58.9798 52.6433 58.2631 52.6377 57.3038 52.6264C57.3151 52.9763 57.3207 53.2754 57.3207 53.5237C57.332 53.772 57.3376 54.0711 57.3376 54.421V55.5383C58.2744 55.5271 58.9798 55.5214 59.4539 55.5214H63.788C63.9009 55.8262 63.9742 56.176 64.0081 56.5711C64.0532 56.9548 64.0758 57.2821 64.0758 57.553C64.0758 57.869 64.0532 58.2246 64.0081 58.6196C63.9742 59.0034 63.9009 59.3533 63.788 59.6693H59.4539C59.2394 59.6693 58.9403 59.6693 58.5566 59.6693C58.1728 59.6693 57.7665 59.6693 57.3376 59.6693V60.7697C57.3376 61.1873 57.332 61.5316 57.3207 61.8025C57.3094 62.0733 57.3038 62.412 57.3038 62.8183V62.8521C57.6988 62.8296 58.0656 62.807 58.4042 62.7844C58.7428 62.7618 59.1548 62.7506 59.6401 62.7506H66.2598ZM75.2943 67C74.8316 67.079 74.3576 67.1298 73.8722 67.1524C73.3982 67.1862 72.9806 67.2032 72.6194 67.2032C72.2582 67.2032 71.835 67.1862 71.3496 67.1524C70.8756 67.1298 70.4072 67.079 69.9444 67V48.4954L70.1307 48.3431H83.2515C83.3305 48.6478 83.3869 48.992 83.4208 49.3758C83.4659 49.7595 83.4885 50.0699 83.4885 50.3069C83.4885 51.0744 83.2853 51.6726 82.879 52.1015C82.4727 52.5304 81.7955 52.7449 80.8474 52.7449H77.2413C76.9027 52.7449 76.5697 52.7449 76.2424 52.7449C75.9264 52.7336 75.6104 52.7279 75.2943 52.7279C75.2943 52.965 75.2943 53.2076 75.2943 53.4559C75.2943 53.693 75.2943 53.93 75.2943 54.167V55.9277C75.4298 55.9277 75.5596 55.9277 75.6837 55.9277H81.3215C81.423 56.2212 81.4908 56.5654 81.5246 56.9605C81.5698 57.3442 81.5923 57.6715 81.5923 57.9424C81.5923 58.2472 81.5698 58.6083 81.5246 59.0259C81.4908 59.4435 81.423 59.8047 81.3215 60.1095H75.6837C75.5596 60.1095 75.4298 60.1095 75.2943 60.1095V67ZM86.5454 48.3431C86.9743 48.2528 87.4597 48.1963 88.0014 48.1738C88.5432 48.1512 88.9721 48.1399 89.2881 48.1399C89.6267 48.1399 90.033 48.1512 90.5071 48.1738C90.9924 48.1963 91.4608 48.2528 91.9123 48.3431V67C91.4608 67.079 90.9924 67.1298 90.5071 67.1524C90.033 67.1862 89.6267 67.2032 89.2881 67.2032C88.9721 67.2032 88.5432 67.1862 88.0014 67.1524C87.4597 67.1298 86.9743 67.079 86.5454 67V48.3431ZM103.396 58.4842C103.317 58.3036 103.193 58.0214 103.024 57.6377C102.855 57.2426 102.674 56.8194 102.482 56.3679C102.29 55.9164 102.11 55.4932 101.94 55.0982C101.782 54.7031 101.658 54.4153 101.568 54.2347L101.449 54.2855C101.495 55.1772 101.54 56.1422 101.585 57.1806C101.63 58.2076 101.664 59.1501 101.686 60.0079C101.72 60.8544 101.737 61.4695 101.737 61.8533V67C101.297 67.079 100.874 67.1298 100.468 67.1524C100.061 67.1862 99.6831 67.2032 99.3332 67.2032C99.0172 67.2032 98.6221 67.1862 98.1481 67.1524C97.6853 67.1298 97.2452 67.079 96.8275 67V48.4616C97.2452 48.36 97.7643 48.281 98.3851 48.2245C99.0059 48.1681 99.4856 48.1399 99.8242 48.1399C100.174 48.1399 100.671 48.1512 101.314 48.1738C101.957 48.185 102.488 48.2415 102.905 48.3431L106.884 56.825C106.963 56.983 107.093 57.2709 107.273 57.6885C107.465 58.1061 107.668 58.5632 107.883 59.0598C108.097 59.5564 108.295 60.0248 108.475 60.465C108.667 60.8939 108.808 61.2099 108.899 61.4131L109.051 61.3792C109.006 60.6343 108.944 59.7652 108.865 58.772C108.797 57.7788 108.735 56.8194 108.679 55.8939C108.622 54.9684 108.594 54.2291 108.594 53.676V51.0349C108.594 49.8386 108.854 49.0541 109.373 48.6817C109.892 48.2979 110.665 48.106 111.692 48.106H113.436L113.639 48.3431V66.8984C113.199 67 112.668 67.0734 112.048 67.1185C111.427 67.1749 110.953 67.2032 110.626 67.2032C110.4 67.2032 110.089 67.1975 109.694 67.1862C109.299 67.1749 108.893 67.158 108.475 67.1354C108.069 67.1129 107.731 67.0677 107.46 67L103.396 58.4842ZM118.587 48.3431C119.016 48.2528 119.501 48.1963 120.043 48.1738C120.585 48.1512 121.014 48.1399 121.33 48.1399C121.668 48.1399 122.075 48.1512 122.549 48.1738C123.034 48.1963 123.502 48.2528 123.954 48.3431V67C123.502 67.079 123.034 67.1298 122.549 67.1524C122.075 67.1862 121.668 67.2032 121.33 67.2032C121.014 67.2032 120.585 67.1862 120.043 67.1524C119.501 67.1298 119.016 67.079 118.587 67V48.3431ZM144.072 54.0146C144.072 54.8837 143.875 55.6569 143.48 56.3341C143.085 57.0113 142.588 57.5699 141.99 58.0101C141.403 58.4503 140.816 58.7325 140.229 58.8566C140.839 59.0598 141.341 59.3702 141.736 59.7878C142.142 60.2054 142.492 60.7415 142.786 61.3961L143.666 63.4108C143.869 63.8736 144.1 64.3025 144.36 64.6975C144.62 65.0813 144.907 65.4086 145.223 65.6795C144.896 66.0858 144.405 66.4639 143.751 66.8138C143.096 67.1524 142.385 67.3217 141.617 67.3217C140.861 67.3217 140.246 67.1411 139.772 66.7799C139.309 66.4074 138.903 65.8149 138.553 65.0023L137.063 61.5824C136.826 61.0293 136.533 60.6964 136.183 60.5835C135.833 60.4706 135.381 60.4142 134.828 60.4142H134.168V67C133.717 67.079 133.248 67.1298 132.763 67.1524C132.289 67.1862 131.883 67.2032 131.544 67.2032C131.228 67.2032 130.81 67.1862 130.291 67.1524C129.772 67.1298 129.298 67.079 128.869 67V48.5124L129.055 48.3092C130.421 48.2753 131.702 48.2471 132.898 48.2245C134.106 48.1907 135.308 48.1738 136.504 48.1738C137.859 48.1738 139.112 48.3543 140.263 48.7155C141.414 49.0654 142.334 49.6693 143.023 50.527C143.722 51.3735 144.072 52.5361 144.072 54.0146ZM134.168 52V56.3848C134.563 56.3736 134.924 56.3679 135.252 56.3679C135.59 56.3566 135.839 56.351 135.997 56.351C137.012 56.351 137.701 56.1309 138.062 55.6907C138.423 55.2505 138.604 54.737 138.604 54.1501C138.604 53.5745 138.423 53.0778 138.062 52.6602C137.701 52.2426 137.097 52.0338 136.251 52.0338C135.844 52.0338 135.494 52.0282 135.201 52.0169C134.907 52.0056 134.563 52 134.168 52ZM155.35 61.8533C155.824 62.1354 156.315 62.3781 156.823 62.5813C157.342 62.7731 157.867 62.8691 158.397 62.8691C159.627 62.8691 160.44 62.4966 160.835 61.7517C161.23 61.0068 161.428 59.9684 161.428 58.6365V43.8735C161.868 43.7945 162.348 43.7437 162.867 43.7212C163.397 43.6873 163.826 43.6704 164.153 43.6704C164.515 43.6704 164.943 43.6873 165.44 43.7212C165.937 43.7437 166.411 43.7945 166.862 43.8735V58.1286C166.862 59.9007 166.648 61.4808 166.219 62.8691C165.801 64.2573 165.022 65.3521 163.883 66.1535C162.754 66.9436 161.129 67.3386 159.007 67.3386C158.115 67.3386 157.173 67.2201 156.179 66.9831C155.186 66.7348 154.289 66.3567 153.487 65.8488C153.589 65.1716 153.798 64.4718 154.114 63.7494C154.441 63.0271 154.853 62.395 155.35 61.8533ZM185.729 62.7506C185.729 64.3646 185.475 65.4876 184.967 66.1196C184.471 66.7517 183.624 67.0677 182.428 67.0677H174.623C173.664 67.0677 172.907 66.7968 172.354 66.2551C171.801 65.702 171.525 64.9627 171.525 64.0372V48.5293L171.711 48.3431H185.103C185.182 48.7268 185.227 49.0936 185.238 49.4435C185.25 49.7934 185.255 50.1264 185.255 50.4424C185.255 50.7471 185.221 51.0914 185.154 51.4751C185.097 51.8589 184.996 52.2483 184.849 52.6433H178.923C178.449 52.6433 177.733 52.6377 176.773 52.6264C176.784 52.9763 176.79 53.2754 176.79 53.5237C176.801 53.772 176.807 54.0711 176.807 54.421V55.5383C177.744 55.5271 178.449 55.5214 178.923 55.5214H183.257C183.37 55.8262 183.444 56.176 183.478 56.5711C183.523 56.9548 183.545 57.2821 183.545 57.553C183.545 57.869 183.523 58.2246 183.478 58.6196C183.444 59.0034 183.37 59.3533 183.257 59.6693H178.923C178.709 59.6693 178.41 59.6693 178.026 59.6693C177.642 59.6693 177.236 59.6693 176.807 59.6693V60.7697C176.807 61.1873 176.801 61.5316 176.79 61.8025C176.779 62.0733 176.773 62.412 176.773 62.8183V62.8521C177.168 62.8296 177.535 62.807 177.874 62.7844C178.212 62.7618 178.624 62.7506 179.11 62.7506H185.729ZM194.764 67C194.301 67.079 193.827 67.1298 193.342 67.1524C192.868 67.1862 192.45 67.2032 192.089 67.2032C191.728 67.2032 191.304 67.1862 190.819 67.1524C190.345 67.1298 189.877 67.079 189.414 67V48.4954L189.6 48.3431H202.721C202.8 48.6478 202.856 48.992 202.89 49.3758C202.935 49.7595 202.958 50.0699 202.958 50.3069C202.958 51.0744 202.755 51.6726 202.348 52.1015C201.942 52.5304 201.265 52.7449 200.317 52.7449H196.711C196.372 52.7449 196.039 52.7449 195.712 52.7449C195.396 52.7336 195.08 52.7279 194.764 52.7279C194.764 52.965 194.764 53.2076 194.764 53.4559C194.764 53.693 194.764 53.93 194.764 54.167V55.9277C194.899 55.9277 195.029 55.9277 195.153 55.9277H200.791C200.892 56.2212 200.96 56.5654 200.994 56.9605C201.039 57.3442 201.062 57.6715 201.062 57.9424C201.062 58.2472 201.039 58.6083 200.994 59.0259C200.96 59.4435 200.892 59.8047 200.791 60.1095H195.153C195.029 60.1095 194.899 60.1095 194.764 60.1095V67ZM220.151 62.7506C220.151 64.3646 219.898 65.4876 219.39 66.1196C218.893 66.7517 218.047 67.0677 216.85 67.0677H209.045C208.086 67.0677 207.33 66.7968 206.777 66.2551C206.224 65.702 205.947 64.9627 205.947 64.0372V48.5293L206.133 48.3431H219.525C219.604 48.7268 219.649 49.0936 219.661 49.4435C219.672 49.7934 219.677 50.1264 219.677 50.4424C219.677 50.7471 219.644 51.0914 219.576 51.4751C219.519 51.8589 219.418 52.2483 219.271 52.6433H213.346C212.872 52.6433 212.155 52.6377 211.195 52.6264C211.207 52.9763 211.212 53.2754 211.212 53.5237C211.224 53.772 211.229 54.0711 211.229 54.421V55.5383C212.166 55.5271 212.872 55.5214 213.346 55.5214H217.68C217.793 55.8262 217.866 56.176 217.9 56.5711C217.945 56.9548 217.967 57.2821 217.967 57.553C217.967 57.869 217.945 58.2246 217.9 58.6196C217.866 59.0034 217.793 59.3533 217.68 59.6693H213.346C213.131 59.6693 212.832 59.6693 212.448 59.6693C212.065 59.6693 211.658 59.6693 211.229 59.6693V60.7697C211.229 61.1873 211.224 61.5316 211.212 61.8025C211.201 62.0733 211.195 62.412 211.195 62.8183V62.8521C211.591 62.8296 211.957 62.807 212.296 62.7844C212.635 62.7618 213.046 62.7506 213.532 62.7506H220.151ZM222.025 65.5948C222.025 65.1659 222.109 64.6919 222.279 64.1727C222.448 63.6422 222.679 63.1512 222.973 62.6998C223.266 62.2483 223.588 61.9097 223.938 61.684C224.773 62.1354 225.704 62.5248 226.731 62.8521C227.758 63.1682 228.763 63.3262 229.745 63.3262C230.377 63.3262 230.896 63.1964 231.302 62.9368C231.72 62.6772 231.929 62.3104 231.929 61.8363C231.929 61.5316 231.81 61.2551 231.573 61.0068C231.336 60.7472 230.924 60.5101 230.337 60.2957L227.527 59.1952C226.658 58.8792 225.845 58.4842 225.089 58.0101C224.333 57.5361 223.723 56.9548 223.261 56.2663C222.798 55.5778 222.566 54.7539 222.566 53.7945C222.566 52.0338 223.244 50.6004 224.598 49.4943C225.952 48.3882 227.775 47.8352 230.066 47.8352C231.364 47.8352 232.651 47.9875 233.926 48.2923C235.213 48.5857 236.291 48.9243 237.16 49.3081C237.16 50.0756 237.002 50.8318 236.686 51.5767C236.37 52.3216 235.935 52.9085 235.382 53.3374C234.547 52.965 233.639 52.6546 232.657 52.4063C231.675 52.1467 230.789 52.0169 229.999 52.0169C229.412 52.0169 228.96 52.141 228.644 52.3893C228.34 52.6377 228.187 52.9368 228.187 53.2866C228.187 53.614 228.34 53.8623 228.644 54.0316C228.949 54.2009 229.327 54.3702 229.779 54.5395L232.572 55.6061C234.13 56.1704 235.366 56.9492 236.28 57.9424C237.205 58.9244 237.668 60.1377 237.668 61.5824C237.668 62.8578 237.324 63.9357 236.635 64.816C235.958 65.6964 235.027 66.3623 233.842 66.8138C232.668 67.2652 231.342 67.4966 229.863 67.5079C228.103 67.5079 226.534 67.3047 225.157 66.8984C223.791 66.4921 222.747 66.0576 222.025 65.5948ZM48.3488 97.4198C48.3488 98.7404 48.2529 100.016 48.061 101.246C47.8804 102.465 47.5192 103.605 46.9775 104.666C46.4357 105.727 45.6231 106.675 44.5396 107.51C44.0204 107.916 43.394 108.244 42.6603 108.492C41.938 108.74 41.193 108.921 40.4255 109.034C39.6581 109.147 38.9583 109.203 38.3262 109.203C36.8702 109.203 35.4537 109.186 34.0768 109.152C32.7111 109.13 31.289 109.102 29.8104 109.068L29.5734 108.831V86.0428L29.8104 85.8058C31.2664 85.7607 32.6829 85.7268 34.0598 85.7042C35.4481 85.6816 36.8702 85.6704 38.3262 85.6704C38.9583 85.6704 39.6581 85.7324 40.4255 85.8566C41.193 85.9695 41.9436 86.15 42.6772 86.3984C43.4109 86.6467 44.0317 86.974 44.5396 87.3803C45.6118 88.2155 46.4188 89.1636 46.9606 90.2245C47.5023 91.2742 47.8691 92.4085 48.061 93.6275C48.2529 94.8465 48.3488 96.1106 48.3488 97.4198ZM42.7788 97.4198C42.7788 96.562 42.7224 95.693 42.6095 94.8126C42.5079 93.9209 42.3048 93.1083 42 92.3747C41.7066 91.6297 41.2608 91.0316 40.6626 90.5801C40.0757 90.1173 39.2969 89.8859 38.3262 89.8859C37.7506 89.8859 37.1975 89.8859 36.6671 89.8859C36.1366 89.8859 35.5723 89.8747 34.9741 89.8521V105.005C35.5723 104.993 36.1366 104.988 36.6671 104.988C37.1975 104.988 37.7506 104.988 38.3262 104.988C39.2969 104.988 40.0757 104.762 40.6626 104.31C41.2608 103.848 41.7066 103.244 42 102.499C42.3048 101.743 42.5079 100.924 42.6095 100.044C42.7224 99.1523 42.7788 98.2776 42.7788 97.4198ZM66.2598 104.751C66.2598 106.365 66.0058 107.488 65.4979 108.12C65.0013 108.752 64.1548 109.068 62.9584 109.068H55.1537C54.1943 109.068 53.4381 108.797 52.885 108.255C52.332 107.702 52.0554 106.963 52.0554 106.037V90.5293L52.2417 90.3431H65.6334C65.7124 90.7268 65.7575 91.0936 65.7688 91.4435C65.7801 91.7934 65.7857 92.1264 65.7857 92.4424C65.7857 92.7471 65.7519 93.0914 65.6842 93.4751C65.6277 93.8589 65.5261 94.2483 65.3794 94.6433H59.4539C58.9798 94.6433 58.2631 94.6377 57.3038 94.6264C57.3151 94.9763 57.3207 95.2754 57.3207 95.5237C57.332 95.772 57.3376 96.0711 57.3376 96.421V97.5383C58.2744 97.5271 58.9798 97.5214 59.4539 97.5214H63.788C63.9009 97.8262 63.9742 98.176 64.0081 98.5711C64.0532 98.9548 64.0758 99.2821 64.0758 99.553C64.0758 99.869 64.0532 100.225 64.0081 100.62C63.9742 101.003 63.9009 101.353 63.788 101.669H59.4539C59.2394 101.669 58.9403 101.669 58.5566 101.669C58.1728 101.669 57.7665 101.669 57.3376 101.669V102.77C57.3376 103.187 57.332 103.532 57.3207 103.802C57.3094 104.073 57.3038 104.412 57.3038 104.818V104.852C57.6988 104.83 58.0656 104.807 58.4042 104.784C58.7428 104.762 59.1548 104.751 59.6401 104.751H66.2598ZM84.3935 93.4074C84.7208 92.9559 85.1497 92.4085 85.6802 91.7652C86.2106 91.1106 86.6903 90.5519 87.1192 90.0891L87.0176 89.9875C86.2276 90.0891 85.3303 90.1625 84.3258 90.2076C83.3325 90.2528 82.4917 90.2753 81.8032 90.2753H76.9442C76.8652 89.9593 76.8088 89.6546 76.7749 89.3611C76.7524 89.0564 76.7411 88.7573 76.7411 88.4638C76.7411 88.0011 76.7749 87.5665 76.8427 87.1602C76.9104 86.7539 77.0007 86.325 77.1135 85.8735H92.0967C92.3337 86.72 92.503 87.3577 92.6046 87.7866C92.7174 88.2155 92.7851 88.5259 92.8077 88.7178C92.8303 88.8984 92.8416 89.0564 92.8416 89.1918C92.8416 89.4966 92.7964 89.8069 92.7061 90.123C92.6271 90.439 92.4748 90.7607 92.249 91.088L84.6982 101.449C84.3709 101.901 83.9589 102.431 83.4623 103.041C82.9657 103.639 82.4973 104.169 82.0571 104.632L82.1587 104.734C82.8811 104.677 83.7276 104.626 84.6982 104.581C85.6689 104.525 86.5154 104.497 87.2377 104.497H89.117C89.9409 104.497 90.6689 104.418 91.3009 104.26C91.933 104.102 92.4804 103.915 92.9432 103.701C93.0447 104.028 93.1294 104.412 93.1971 104.852C93.2648 105.292 93.2987 105.721 93.2987 106.139C93.2987 107.109 92.9657 107.832 92.2998 108.306C91.6452 108.769 90.7987 109 89.7603 109H76.8088C76.6282 108.199 76.4928 107.595 76.4025 107.188C76.3235 106.782 76.2727 106.483 76.2501 106.291C76.2275 106.088 76.2162 105.907 76.2162 105.749C76.2162 105.422 76.267 105.084 76.3686 104.734C76.4815 104.372 76.6451 104.045 76.8596 103.752L84.3935 93.4074ZM95.1917 99.7054C95.1917 96.6806 95.9705 94.2821 97.528 92.5101C99.0969 90.7268 101.382 89.8352 104.385 89.8352C107.432 89.8352 109.729 90.7212 111.275 92.4932C112.833 94.2539 113.612 96.658 113.612 99.7054C113.612 102.753 112.833 105.151 111.275 106.901C109.718 108.639 107.421 109.508 104.385 109.508C101.337 109.508 99.0404 108.628 97.4942 106.867C95.9592 105.106 95.1917 102.719 95.1917 99.7054ZM100.66 99.7054C100.66 100.349 100.7 101.015 100.779 101.703C100.869 102.38 101.038 103.012 101.287 103.599C101.546 104.186 101.924 104.666 102.421 105.038C102.917 105.4 103.578 105.58 104.402 105.58C105.226 105.58 105.886 105.4 106.382 105.038C106.879 104.666 107.252 104.186 107.5 103.599C107.759 103.012 107.929 102.38 108.008 101.703C108.098 101.015 108.143 100.349 108.143 99.7054C108.143 99.0508 108.098 98.3792 108.008 97.6907C107.929 96.9909 107.759 96.3476 107.5 95.7607C107.252 95.1625 106.879 94.6828 106.382 94.3216C105.886 93.9492 105.226 93.7629 104.402 93.7629C103.578 93.7629 102.917 93.9492 102.421 94.3216C101.924 94.6828 101.546 95.1625 101.287 95.7607C101.038 96.3476 100.869 96.9909 100.779 97.6907C100.7 98.3792 100.66 99.0508 100.66 99.7054ZM123.666 100.484C123.587 100.304 123.463 100.021 123.294 99.6377C123.124 99.2426 122.944 98.8194 122.752 98.3679C122.56 97.9164 122.38 97.4932 122.21 97.0982C122.052 96.7031 121.928 96.4153 121.838 96.2347L121.719 96.2855C121.764 97.1772 121.81 98.1422 121.855 99.1806C121.9 100.208 121.934 101.15 121.956 102.008C121.99 102.854 122.007 103.47 122.007 103.853V109C121.567 109.079 121.144 109.13 120.737 109.152C120.331 109.186 119.953 109.203 119.603 109.203C119.287 109.203 118.892 109.186 118.418 109.152C117.955 109.13 117.515 109.079 117.097 109V90.4616C117.515 90.36 118.034 90.281 118.655 90.2245C119.276 90.1681 119.755 90.1399 120.094 90.1399C120.444 90.1399 120.94 90.1512 121.584 90.1738C122.227 90.185 122.758 90.2415 123.175 90.3431L127.154 98.825C127.233 98.983 127.363 99.2709 127.543 99.6885C127.735 100.106 127.938 100.563 128.153 101.06C128.367 101.556 128.565 102.025 128.745 102.465C128.937 102.894 129.078 103.21 129.168 103.413L129.321 103.379C129.276 102.634 129.214 101.765 129.135 100.772C129.067 99.7788 129.005 98.8194 128.948 97.8939C128.892 96.9684 128.864 96.2291 128.864 95.676V93.0349C128.864 91.8386 129.123 91.0541 129.643 90.6817C130.162 90.2979 130.935 90.106 131.962 90.106H133.706L133.909 90.3431V108.898C133.469 109 132.938 109.073 132.317 109.119C131.697 109.175 131.223 109.203 130.895 109.203C130.67 109.203 130.359 109.198 129.964 109.186C129.569 109.175 129.163 109.158 128.745 109.135C128.339 109.113 128 109.068 127.729 109L123.666 100.484ZM143.529 105.732C143.349 105.732 143.174 105.732 143.005 105.732C142.835 105.721 142.666 105.71 142.497 105.699L141.447 109C141.12 109.079 140.764 109.135 140.38 109.169C139.997 109.214 139.596 109.237 139.178 109.237C138.727 109.237 138.27 109.203 137.807 109.135C137.356 109.068 136.983 108.972 136.69 108.848L136.503 108.56L143.089 90.3431C143.676 90.2528 144.24 90.1963 144.782 90.1738C145.335 90.1512 145.838 90.1399 146.289 90.1399C146.707 90.1399 147.158 90.1512 147.643 90.1738C148.129 90.1963 148.676 90.2528 149.286 90.3431L155.685 108.746C155.29 108.927 154.788 109.062 154.178 109.152C153.569 109.254 153.078 109.305 152.706 109.305C152.085 109.305 151.487 109.186 150.911 108.949C150.335 108.712 149.901 108.086 149.607 107.07L149.184 105.699C149.003 105.71 148.829 105.721 148.659 105.732C148.49 105.732 148.309 105.732 148.117 105.732H143.529ZM144.207 100.383L143.834 101.551C144.003 101.539 144.173 101.534 144.342 101.534C144.511 101.523 144.686 101.517 144.867 101.517H146.983C147.152 101.517 147.305 101.523 147.44 101.534C147.587 101.534 147.734 101.539 147.88 101.551L147.525 100.4C147.265 99.5079 147.006 98.5146 146.746 97.4198C146.487 96.325 146.25 95.3318 146.035 94.4401H145.832C145.595 95.2979 145.33 96.2799 145.036 97.386C144.754 98.4921 144.478 99.4909 144.207 100.383Z" fill="white" fill-opacity="0.87"/>
</svg>
