<svg width="253" height="102" viewBox="0 0 253 102" fill="none" xmlns="http://www.w3.org/2000/svg">
<rect opacity="0.5" width="253" height="101.083" rx="10" fill="#DBDADA"/>
<path d="M93.8636 62C93.3716 62.084 92.8736 62.138 92.3696 62.162C91.8776 62.198 91.4336 62.216 91.0376 62.216C90.6416 62.216 90.1736 62.198 89.6336 62.162C89.0936 62.138 88.5776 62.084 88.0856 62V37.628L88.3376 37.412H103.728C103.812 37.724 103.872 38.09 103.908 38.51C103.956 38.918 103.98 39.29 103.98 39.626C103.98 40.562 103.722 41.24 103.206 41.66C102.702 42.08 101.934 42.29 100.902 42.29H96.4016C95.9456 42.29 95.5076 42.29 95.0876 42.29C94.6676 42.29 94.2536 42.284 93.8456 42.272C93.8456 42.764 93.8456 43.25 93.8456 43.73C93.8576 44.198 93.8636 44.66 93.8636 45.116V47.402C94.1036 47.402 94.3316 47.402 94.5476 47.402H101.532C101.64 47.726 101.718 48.122 101.766 48.59C101.814 49.046 101.838 49.43 101.838 49.742C101.838 50.066 101.814 50.456 101.766 50.912C101.718 51.368 101.64 51.77 101.532 52.118H94.5476C94.3316 52.118 94.1036 52.118 93.8636 52.118V62ZM104.835 52.118C104.835 48.902 105.663 46.352 107.319 44.468C108.987 42.572 111.417 41.624 114.609 41.624C117.849 41.624 120.291 42.566 121.935 44.45C123.591 46.322 124.419 48.878 124.419 52.118C124.419 55.358 123.591 57.908 121.935 59.768C120.279 61.616 117.837 62.54 114.609 62.54C111.369 62.54 108.927 61.604 107.283 59.732C105.651 57.86 104.835 55.322 104.835 52.118ZM110.649 52.118C110.649 52.802 110.691 53.51 110.775 54.242C110.871 54.962 111.051 55.634 111.315 56.258C111.591 56.882 111.993 57.392 112.521 57.788C113.049 58.172 113.751 58.364 114.627 58.364C115.503 58.364 116.205 58.172 116.733 57.788C117.261 57.392 117.657 56.882 117.921 56.258C118.197 55.634 118.377 54.962 118.461 54.242C118.557 53.51 118.605 52.802 118.605 52.118C118.605 51.422 118.557 50.708 118.461 49.976C118.377 49.232 118.197 48.548 117.921 47.924C117.657 47.288 117.261 46.778 116.733 46.394C116.205 45.998 115.503 45.8 114.627 45.8C113.751 45.8 113.049 45.998 112.521 46.394C111.993 46.778 111.591 47.288 111.315 47.924C111.051 48.548 110.871 49.232 110.775 49.976C110.691 50.708 110.649 51.422 110.649 52.118ZM144.289 48.194C144.289 49.118 144.079 49.94 143.659 50.66C143.239 51.38 142.711 51.974 142.075 52.442C141.451 52.91 140.827 53.21 140.203 53.342C140.851 53.558 141.385 53.888 141.805 54.332C142.237 54.776 142.609 55.346 142.921 56.042L143.857 58.184C144.073 58.676 144.319 59.132 144.595 59.552C144.871 59.96 145.177 60.308 145.513 60.596C145.165 61.028 144.643 61.43 143.947 61.802C143.251 62.162 142.495 62.342 141.679 62.342C140.875 62.342 140.221 62.15 139.717 61.766C139.225 61.37 138.793 60.74 138.421 59.876L136.837 56.24C136.585 55.652 136.273 55.298 135.901 55.178C135.529 55.058 135.049 54.998 134.461 54.998H133.759V62C133.279 62.084 132.781 62.138 132.265 62.162C131.761 62.198 131.329 62.216 130.969 62.216C130.633 62.216 130.189 62.198 129.637 62.162C129.085 62.138 128.581 62.084 128.125 62V42.344L128.323 42.128C129.775 42.092 131.137 42.062 132.409 42.038C133.693 42.002 134.971 41.984 136.243 41.984C137.683 41.984 139.015 42.176 140.239 42.56C141.463 42.932 142.441 43.574 143.173 44.486C143.917 45.386 144.289 46.622 144.289 48.194ZM133.759 46.052V50.714C134.179 50.702 134.563 50.696 134.911 50.696C135.271 50.684 135.535 50.678 135.703 50.678C136.783 50.678 137.515 50.444 137.899 49.976C138.283 49.508 138.475 48.962 138.475 48.338C138.475 47.726 138.283 47.198 137.899 46.754C137.515 46.31 136.873 46.088 135.973 46.088C135.541 46.088 135.169 46.082 134.857 46.07C134.545 46.058 134.179 46.052 133.759 46.052ZM146.952 52.118C146.952 48.902 147.78 46.352 149.436 44.468C151.104 42.572 153.534 41.624 156.726 41.624C159.966 41.624 162.408 42.566 164.052 44.45C165.708 46.322 166.536 48.878 166.536 52.118C166.536 55.358 165.708 57.908 164.052 59.768C162.396 61.616 159.954 62.54 156.726 62.54C153.486 62.54 151.044 61.604 149.4 59.732C147.768 57.86 146.952 55.322 146.952 52.118ZM152.766 52.118C152.766 52.802 152.808 53.51 152.892 54.242C152.988 54.962 153.168 55.634 153.432 56.258C153.708 56.882 154.11 57.392 154.638 57.788C155.166 58.172 155.868 58.364 156.744 58.364C157.62 58.364 158.322 58.172 158.85 57.788C159.378 57.392 159.774 56.882 160.038 56.258C160.314 55.634 160.494 54.962 160.578 54.242C160.674 53.51 160.722 52.802 160.722 52.118C160.722 51.422 160.674 50.708 160.578 49.976C160.494 49.232 160.314 48.548 160.038 47.924C159.774 47.288 159.378 46.778 158.85 46.394C158.322 45.998 157.62 45.8 156.744 45.8C155.868 45.8 155.166 45.998 154.638 46.394C154.11 46.778 153.708 47.288 153.432 47.924C153.168 48.548 152.988 49.232 152.892 49.976C152.808 50.708 152.766 51.422 152.766 52.118Z" fill="#364760"/>
</svg>
