<svg width="286" height="67" viewBox="0 0 286 67" fill="none" xmlns="http://www.w3.org/2000/svg">
<rect width="286" height="67" rx="10" fill="#1EBCBC"/>
<path d="M58.6178 40.852C58.4258 40.852 58.1978 40.846 57.9338 40.834C57.6818 40.822 57.4358 40.816 57.1958 40.816L55.6658 46.036C55.3058 46.12 54.9158 46.174 54.4958 46.198C54.0878 46.234 53.6618 46.252 53.2178 46.252C52.7858 46.252 52.2938 46.216 51.7418 46.144C51.2018 46.084 50.7698 45.988 50.4458 45.856L50.2298 45.55L58.1858 21.412C58.6418 21.34 59.1878 21.286 59.8238 21.25C60.4718 21.214 61.0358 21.196 61.5158 21.196C61.9718 21.196 62.5238 21.22 63.1718 21.268C63.8198 21.304 64.3778 21.364 64.8458 21.448L72.5858 45.622C72.1898 45.85 71.6738 46.024 71.0378 46.144C70.4138 46.264 69.8318 46.324 69.2918 46.324C68.3798 46.324 67.6658 46.114 67.1498 45.694C66.6338 45.262 66.2018 44.428 65.8538 43.192L65.1698 40.816C64.9418 40.816 64.6958 40.822 64.4318 40.834C64.1678 40.846 63.9398 40.852 63.7478 40.852H58.6178ZM59.3378 33.526L58.5278 36.316C58.7558 36.316 59.0018 36.316 59.2658 36.316C59.5298 36.304 59.7638 36.298 59.9678 36.298H62.5958C62.7758 36.298 62.9798 36.304 63.2078 36.316C63.4478 36.316 63.6818 36.316 63.9098 36.316L63.2798 34.066C63.0038 33.058 62.6798 31.87 62.3078 30.502C61.9358 29.134 61.5998 27.856 61.2998 26.668H61.0838C60.9638 27.34 60.8018 28.084 60.5978 28.9C60.3938 29.716 60.1778 30.532 59.9498 31.348C59.7338 32.152 59.5298 32.878 59.3378 33.526ZM76.5467 43.552C76.5467 43.336 76.5767 43 76.6367 42.544C76.7087 42.088 76.8227 41.698 76.9787 41.374C77.3387 41.17 77.7767 41.008 78.2927 40.888C78.8207 40.768 79.3247 40.708 79.8047 40.708C80.2727 40.708 80.7707 40.768 81.2987 40.888C81.8267 41.008 82.2707 41.17 82.6307 41.374C82.7867 41.698 82.8947 42.088 82.9547 42.544C83.0147 43 83.0447 43.336 83.0447 43.552C83.0447 43.768 83.0147 44.104 82.9547 44.56C82.8947 45.016 82.7867 45.406 82.6307 45.73C82.2707 45.946 81.8267 46.108 81.2987 46.216C80.7707 46.324 80.2727 46.378 79.8047 46.378C79.3247 46.378 78.8207 46.324 78.2927 46.216C77.7767 46.108 77.3387 45.946 76.9787 45.73C76.8227 45.406 76.7087 45.016 76.6367 44.56C76.5767 44.104 76.5467 43.768 76.5467 43.552ZM109.14 39.322C109.14 38.926 109.146 38.518 109.158 38.098C109.17 37.678 109.188 37.252 109.212 36.82H107.448C106.524 36.82 105.834 36.646 105.378 36.298C104.922 35.95 104.694 35.32 104.694 34.408C104.694 34.036 104.73 33.634 104.802 33.202C104.886 32.77 104.988 32.38 105.108 32.032H110.742C112.17 32.032 113.16 32.368 113.712 33.04C114.264 33.7 114.54 34.552 114.54 35.596V45.046C113.496 45.394 112.146 45.73 110.49 46.054C108.834 46.378 107.022 46.54 105.054 46.54C102.594 46.54 100.554 46.024 98.9336 44.992C97.3256 43.96 96.1256 42.496 95.3336 40.6C94.5416 38.704 94.1456 36.46 94.1456 33.868C94.1456 31.684 94.4636 29.782 95.0996 28.162C95.7356 26.53 96.5996 25.18 97.6916 24.112C98.7836 23.032 100.014 22.222 101.382 21.682C102.75 21.142 104.166 20.872 105.63 20.872C107.286 20.872 108.87 21.112 110.382 21.592C111.894 22.072 113.262 22.69 114.486 23.446C114.426 24.262 114.126 25.06 113.586 25.84C113.058 26.62 112.5 27.202 111.912 27.586C111.036 26.998 110.076 26.53 109.032 26.182C108 25.822 106.98 25.642 105.972 25.642C104.148 25.642 102.702 26.302 101.634 27.622C100.566 28.93 100.032 31.024 100.032 33.904C100.032 36.712 100.548 38.764 101.58 40.06C102.624 41.356 104.112 42.004 106.044 42.004C106.62 42.004 107.166 41.974 107.682 41.914C108.198 41.854 108.684 41.782 109.14 41.698V39.322ZM134.098 41.482C134.098 43.198 133.828 44.392 133.288 45.064C132.76 45.736 131.86 46.072 130.588 46.072H122.29C121.27 46.072 120.466 45.784 119.878 45.208C119.29 44.62 118.996 43.834 118.996 42.85V26.362L119.194 26.164H133.432C133.516 26.572 133.564 26.962 133.576 27.334C133.588 27.706 133.594 28.06 133.594 28.396C133.594 28.72 133.558 29.086 133.486 29.494C133.426 29.902 133.318 30.316 133.162 30.736H126.862C126.358 30.736 125.596 30.73 124.576 30.718C124.588 31.09 124.594 31.408 124.594 31.672C124.606 31.936 124.612 32.254 124.612 32.626V33.814C125.608 33.802 126.358 33.796 126.862 33.796H131.47C131.59 34.12 131.668 34.492 131.704 34.912C131.752 35.32 131.776 35.668 131.776 35.956C131.776 36.292 131.752 36.67 131.704 37.09C131.668 37.498 131.59 37.87 131.47 38.206H126.862C126.634 38.206 126.316 38.206 125.908 38.206C125.5 38.206 125.068 38.206 124.612 38.206V39.376C124.612 39.82 124.606 40.186 124.594 40.474C124.582 40.762 124.576 41.122 124.576 41.554V41.59C124.996 41.566 125.386 41.542 125.746 41.518C126.106 41.494 126.544 41.482 127.06 41.482H134.098ZM145 36.946C144.916 36.754 144.784 36.454 144.604 36.046C144.424 35.626 144.232 35.176 144.028 34.696C143.824 34.216 143.632 33.766 143.452 33.346C143.284 32.926 143.152 32.62 143.056 32.428L142.93 32.482C142.978 33.43 143.026 34.456 143.074 35.56C143.122 36.652 143.158 37.654 143.182 38.566C143.218 39.466 143.236 40.12 143.236 40.528V46C142.768 46.084 142.318 46.138 141.886 46.162C141.454 46.198 141.052 46.216 140.68 46.216C140.344 46.216 139.924 46.198 139.42 46.162C138.928 46.138 138.46 46.084 138.016 46V26.29C138.46 26.182 139.012 26.098 139.672 26.038C140.332 25.978 140.842 25.948 141.202 25.948C141.574 25.948 142.102 25.96 142.786 25.984C143.47 25.996 144.034 26.056 144.478 26.164L148.708 35.182C148.792 35.35 148.93 35.656 149.122 36.1C149.326 36.544 149.542 37.03 149.77 37.558C149.998 38.086 150.208 38.584 150.4 39.052C150.604 39.508 150.754 39.844 150.85 40.06L151.012 40.024C150.964 39.232 150.898 38.308 150.814 37.252C150.742 36.196 150.676 35.176 150.616 34.192C150.556 33.208 150.526 32.422 150.526 31.834V29.026C150.526 27.754 150.802 26.92 151.354 26.524C151.906 26.116 152.728 25.912 153.82 25.912H155.674L155.89 26.164V45.892C155.422 46 154.858 46.078 154.198 46.126C153.538 46.186 153.034 46.216 152.686 46.216C152.446 46.216 152.116 46.21 151.696 46.198C151.276 46.186 150.844 46.168 150.4 46.144C149.968 46.12 149.608 46.072 149.32 46L145 36.946ZM176.18 41.482C176.18 43.198 175.91 44.392 175.37 45.064C174.842 45.736 173.942 46.072 172.67 46.072H164.372C163.352 46.072 162.548 45.784 161.96 45.208C161.372 44.62 161.078 43.834 161.078 42.85V26.362L161.276 26.164H175.514C175.598 26.572 175.646 26.962 175.658 27.334C175.67 27.706 175.676 28.06 175.676 28.396C175.676 28.72 175.64 29.086 175.568 29.494C175.508 29.902 175.4 30.316 175.244 30.736H168.944C168.44 30.736 167.678 30.73 166.658 30.718C166.67 31.09 166.676 31.408 166.676 31.672C166.688 31.936 166.694 32.254 166.694 32.626V33.814C167.69 33.802 168.44 33.796 168.944 33.796H173.552C173.672 34.12 173.75 34.492 173.786 34.912C173.834 35.32 173.858 35.668 173.858 35.956C173.858 36.292 173.834 36.67 173.786 37.09C173.75 37.498 173.672 37.87 173.552 38.206H168.944C168.716 38.206 168.398 38.206 167.99 38.206C167.582 38.206 167.15 38.206 166.694 38.206V39.376C166.694 39.82 166.688 40.186 166.676 40.474C166.664 40.762 166.658 41.122 166.658 41.554V41.59C167.078 41.566 167.468 41.542 167.828 41.518C168.188 41.494 168.626 41.482 169.142 41.482H176.18ZM196.262 32.194C196.262 33.118 196.052 33.94 195.632 34.66C195.212 35.38 194.684 35.974 194.048 36.442C193.424 36.91 192.8 37.21 192.176 37.342C192.824 37.558 193.358 37.888 193.778 38.332C194.21 38.776 194.582 39.346 194.894 40.042L195.83 42.184C196.046 42.676 196.292 43.132 196.568 43.552C196.844 43.96 197.15 44.308 197.486 44.596C197.138 45.028 196.616 45.43 195.92 45.802C195.224 46.162 194.468 46.342 193.652 46.342C192.848 46.342 192.194 46.15 191.69 45.766C191.198 45.37 190.766 44.74 190.394 43.876L188.81 40.24C188.558 39.652 188.246 39.298 187.874 39.178C187.502 39.058 187.022 38.998 186.434 38.998H185.732V46C185.252 46.084 184.754 46.138 184.238 46.162C183.734 46.198 183.302 46.216 182.942 46.216C182.606 46.216 182.162 46.198 181.61 46.162C181.058 46.138 180.554 46.084 180.098 46V26.344L180.296 26.128C181.748 26.092 183.11 26.062 184.382 26.038C185.666 26.002 186.944 25.984 188.216 25.984C189.656 25.984 190.988 26.176 192.212 26.56C193.436 26.932 194.414 27.574 195.146 28.486C195.89 29.386 196.262 30.622 196.262 32.194ZM185.732 30.052V34.714C186.152 34.702 186.536 34.696 186.884 34.696C187.244 34.684 187.508 34.678 187.676 34.678C188.756 34.678 189.488 34.444 189.872 33.976C190.256 33.508 190.448 32.962 190.448 32.338C190.448 31.726 190.256 31.198 189.872 30.754C189.488 30.31 188.846 30.088 187.946 30.088C187.514 30.088 187.142 30.082 186.83 30.07C186.518 30.058 186.152 30.052 185.732 30.052ZM205.634 42.526C205.442 42.526 205.256 42.526 205.076 42.526C204.896 42.514 204.716 42.502 204.536 42.49L203.42 46C203.072 46.084 202.694 46.144 202.286 46.18C201.878 46.228 201.452 46.252 201.008 46.252C200.528 46.252 200.042 46.216 199.55 46.144C199.07 46.072 198.674 45.97 198.362 45.838L198.164 45.532L205.166 26.164C205.79 26.068 206.39 26.008 206.966 25.984C207.554 25.96 208.088 25.948 208.568 25.948C209.012 25.948 209.492 25.96 210.008 25.984C210.524 26.008 211.106 26.068 211.754 26.164L218.558 45.73C218.138 45.922 217.604 46.066 216.956 46.162C216.308 46.27 215.786 46.324 215.39 46.324C214.73 46.324 214.094 46.198 213.482 45.946C212.87 45.694 212.408 45.028 212.096 43.948L211.646 42.49C211.454 42.502 211.268 42.514 211.088 42.526C210.908 42.526 210.716 42.526 210.512 42.526H205.634ZM206.354 36.838L205.958 38.08C206.138 38.068 206.318 38.062 206.498 38.062C206.678 38.05 206.864 38.044 207.056 38.044H209.306C209.486 38.044 209.648 38.05 209.792 38.062C209.948 38.062 210.104 38.068 210.26 38.08L209.882 36.856C209.606 35.908 209.33 34.852 209.054 33.688C208.778 32.524 208.526 31.468 208.298 30.52H208.082C207.83 31.432 207.548 32.476 207.236 33.652C206.936 34.828 206.642 35.89 206.354 36.838ZM235.305 41.392C235.233 43.144 234.927 44.368 234.387 45.064C233.847 45.76 232.887 46.108 231.507 46.108H224.523C223.491 46.108 222.681 45.82 222.093 45.244C221.517 44.656 221.229 43.87 221.229 42.886V26.2L221.445 25.984H223.605C224.697 25.984 225.525 26.26 226.089 26.812C226.653 27.352 226.935 28.258 226.935 29.53V41.572C228.171 41.452 229.281 41.392 230.265 41.392H235.305Z" fill="white"/>
</svg>
