<svg width="392" height="155" viewBox="0 0 392 155" fill="none" xmlns="http://www.w3.org/2000/svg">
<rect width="392" height="155" rx="20" fill="black" fill-opacity="0.25"/>
<path d="M48.3488 56.4198C48.3488 57.7404 48.2529 59.0158 48.061 60.246C47.8804 61.465 47.5192 62.605 46.9775 63.6659C46.4357 64.7269 45.6231 65.6749 44.5396 66.5102C44.0204 66.9165 43.394 67.2438 42.6603 67.4921C41.938 67.7404 41.193 67.921 40.4255 68.0339C39.6581 68.1467 38.9583 68.2032 38.3262 68.2032C36.8702 68.2032 35.4537 68.1862 34.0768 68.1524C32.7111 68.1298 31.289 68.1016 29.8104 68.0677L29.5734 67.8307V45.0428L29.8104 44.8058C31.2664 44.7607 32.6829 44.7268 34.0598 44.7042C35.4481 44.6816 36.8702 44.6704 38.3262 44.6704C38.9583 44.6704 39.6581 44.7324 40.4255 44.8566C41.193 44.9695 41.9436 45.15 42.6772 45.3984C43.4109 45.6467 44.0317 45.974 44.5396 46.3803C45.6118 47.2155 46.4188 48.1636 46.9606 49.2245C47.5023 50.2742 47.8691 51.4085 48.061 52.6275C48.2529 53.8465 48.3488 55.1106 48.3488 56.4198ZM42.7788 56.4198C42.7788 55.562 42.7224 54.693 42.6095 53.8126C42.5079 52.9209 42.3048 52.1083 42 51.3747C41.7066 50.6297 41.2608 50.0316 40.6626 49.5801C40.0757 49.1173 39.2969 48.8859 38.3262 48.8859C37.7506 48.8859 37.1975 48.8859 36.6671 48.8859C36.1366 48.8859 35.5723 48.8747 34.9741 48.8521V64.0045C35.5723 63.9932 36.1366 63.9876 36.6671 63.9876C37.1975 63.9876 37.7506 63.9876 38.3262 63.9876C39.2969 63.9876 40.0757 63.7618 40.6626 63.3104C41.2608 62.8476 41.7066 62.2438 42 61.4989C42.3048 60.7426 42.5079 59.9244 42.6095 59.044C42.7224 58.1523 42.7788 57.2776 42.7788 56.4198ZM66.2598 63.7506C66.2598 65.3646 66.0058 66.4876 65.4979 67.1196C65.0013 67.7517 64.1548 68.0677 62.9584 68.0677H55.1537C54.1943 68.0677 53.4381 67.7968 52.885 67.2551C52.332 66.702 52.0554 65.9627 52.0554 65.0372V49.5293L52.2417 49.3431H65.6334C65.7124 49.7268 65.7575 50.0936 65.7688 50.4435C65.7801 50.7934 65.7857 51.1264 65.7857 51.4424C65.7857 51.7471 65.7519 52.0914 65.6842 52.4751C65.6277 52.8589 65.5261 53.2483 65.3794 53.6433H59.4539C58.9798 53.6433 58.2631 53.6377 57.3038 53.6264C57.3151 53.9763 57.3207 54.2754 57.3207 54.5237C57.332 54.772 57.3376 55.0711 57.3376 55.421V56.5383C58.2744 56.5271 58.9798 56.5214 59.4539 56.5214H63.788C63.9009 56.8262 63.9742 57.176 64.0081 57.5711C64.0532 57.9548 64.0758 58.2821 64.0758 58.553C64.0758 58.869 64.0532 59.2246 64.0081 59.6196C63.9742 60.0034 63.9009 60.3533 63.788 60.6693H59.4539C59.2394 60.6693 58.9403 60.6693 58.5566 60.6693C58.1728 60.6693 57.7665 60.6693 57.3376 60.6693V61.7697C57.3376 62.1873 57.332 62.5316 57.3207 62.8025C57.3094 63.0733 57.3038 63.412 57.3038 63.8183V63.8521C57.6988 63.8296 58.0656 63.807 58.4042 63.7844C58.7428 63.7618 59.1548 63.7506 59.6401 63.7506H66.2598ZM75.2943 68C74.8316 68.079 74.3576 68.1298 73.8722 68.1524C73.3982 68.1862 72.9806 68.2032 72.6194 68.2032C72.2582 68.2032 71.835 68.1862 71.3496 68.1524C70.8756 68.1298 70.4072 68.079 69.9444 68V49.4954L70.1307 49.3431H83.2515C83.3305 49.6478 83.3869 49.992 83.4208 50.3758C83.4659 50.7595 83.4885 51.0699 83.4885 51.3069C83.4885 52.0744 83.2853 52.6726 82.879 53.1015C82.4727 53.5304 81.7955 53.7449 80.8474 53.7449H77.2413C76.9027 53.7449 76.5697 53.7449 76.2424 53.7449C75.9264 53.7336 75.6104 53.7279 75.2943 53.7279C75.2943 53.965 75.2943 54.2076 75.2943 54.4559C75.2943 54.693 75.2943 54.93 75.2943 55.167V56.9277C75.4298 56.9277 75.5596 56.9277 75.6837 56.9277H81.3215C81.423 57.2212 81.4908 57.5654 81.5246 57.9605C81.5698 58.3442 81.5923 58.6715 81.5923 58.9424C81.5923 59.2472 81.5698 59.6083 81.5246 60.0259C81.4908 60.4435 81.423 60.8047 81.3215 61.1095H75.6837C75.5596 61.1095 75.4298 61.1095 75.2943 61.1095V68ZM86.5454 49.3431C86.9743 49.2528 87.4597 49.1963 88.0014 49.1738C88.5432 49.1512 88.9721 49.1399 89.2881 49.1399C89.6267 49.1399 90.033 49.1512 90.5071 49.1738C90.9924 49.1963 91.4608 49.2528 91.9123 49.3431V68C91.4608 68.079 90.9924 68.1298 90.5071 68.1524C90.033 68.1862 89.6267 68.2032 89.2881 68.2032C88.9721 68.2032 88.5432 68.1862 88.0014 68.1524C87.4597 68.1298 86.9743 68.079 86.5454 68V49.3431ZM103.396 59.4842C103.317 59.3036 103.193 59.0214 103.024 58.6377C102.855 58.2426 102.674 57.8194 102.482 57.3679C102.29 56.9164 102.11 56.4932 101.94 56.0982C101.782 55.7031 101.658 55.4153 101.568 55.2347L101.449 55.2855C101.495 56.1772 101.54 57.1422 101.585 58.1806C101.63 59.2076 101.664 60.1501 101.686 61.0079C101.72 61.8544 101.737 62.4695 101.737 62.8533V68C101.297 68.079 100.874 68.1298 100.468 68.1524C100.061 68.1862 99.6831 68.2032 99.3332 68.2032C99.0172 68.2032 98.6221 68.1862 98.1481 68.1524C97.6853 68.1298 97.2452 68.079 96.8275 68V49.4616C97.2452 49.36 97.7643 49.281 98.3851 49.2245C99.0059 49.1681 99.4856 49.1399 99.8242 49.1399C100.174 49.1399 100.671 49.1512 101.314 49.1738C101.957 49.185 102.488 49.2415 102.905 49.3431L106.884 57.825C106.963 57.983 107.093 58.2709 107.273 58.6885C107.465 59.1061 107.668 59.5632 107.883 60.0598C108.097 60.5564 108.295 61.0248 108.475 61.465C108.667 61.8939 108.808 62.2099 108.899 62.4131L109.051 62.3792C109.006 61.6343 108.944 60.7652 108.865 59.772C108.797 58.7788 108.735 57.8194 108.679 56.8939C108.622 55.9684 108.594 55.2291 108.594 54.676V52.0349C108.594 50.8386 108.854 50.0541 109.373 49.6817C109.892 49.2979 110.665 49.106 111.692 49.106H113.436L113.639 49.3431V67.8984C113.199 68 112.668 68.0734 112.048 68.1185C111.427 68.1749 110.953 68.2032 110.626 68.2032C110.4 68.2032 110.089 68.1975 109.694 68.1862C109.299 68.1749 108.893 68.158 108.475 68.1354C108.069 68.1129 107.731 68.0677 107.46 68L103.396 59.4842ZM118.587 49.3431C119.016 49.2528 119.501 49.1963 120.043 49.1738C120.585 49.1512 121.014 49.1399 121.33 49.1399C121.668 49.1399 122.075 49.1512 122.549 49.1738C123.034 49.1963 123.502 49.2528 123.954 49.3431V68C123.502 68.079 123.034 68.1298 122.549 68.1524C122.075 68.1862 121.668 68.2032 121.33 68.2032C121.014 68.2032 120.585 68.1862 120.043 68.1524C119.501 68.1298 119.016 68.079 118.587 68V49.3431ZM144.072 55.0146C144.072 55.8837 143.875 56.6569 143.48 57.3341C143.085 58.0113 142.588 58.5699 141.99 59.0101C141.403 59.4503 140.816 59.7325 140.229 59.8566C140.839 60.0598 141.341 60.3702 141.736 60.7878C142.142 61.2054 142.492 61.7415 142.786 62.3961L143.666 64.4108C143.869 64.8736 144.1 65.3025 144.36 65.6975C144.62 66.0813 144.907 66.4086 145.223 66.6795C144.896 67.0858 144.405 67.4639 143.751 67.8138C143.096 68.1524 142.385 68.3217 141.617 68.3217C140.861 68.3217 140.246 68.1411 139.772 67.7799C139.309 67.4074 138.903 66.8149 138.553 66.0023L137.063 62.5824C136.826 62.0293 136.533 61.6964 136.183 61.5835C135.833 61.4706 135.381 61.4142 134.828 61.4142H134.168V68C133.717 68.079 133.248 68.1298 132.763 68.1524C132.289 68.1862 131.883 68.2032 131.544 68.2032C131.228 68.2032 130.81 68.1862 130.291 68.1524C129.772 68.1298 129.298 68.079 128.869 68V49.5124L129.055 49.3092C130.421 49.2753 131.702 49.2471 132.898 49.2245C134.106 49.1907 135.308 49.1738 136.504 49.1738C137.859 49.1738 139.112 49.3543 140.263 49.7155C141.414 50.0654 142.334 50.6693 143.023 51.527C143.722 52.3735 144.072 53.5361 144.072 55.0146ZM134.168 53V57.3848C134.563 57.3736 134.924 57.3679 135.252 57.3679C135.59 57.3566 135.839 57.351 135.997 57.351C137.012 57.351 137.701 57.1309 138.062 56.6907C138.423 56.2505 138.604 55.737 138.604 55.1501C138.604 54.5745 138.423 54.0778 138.062 53.6602C137.701 53.2426 137.097 53.0338 136.251 53.0338C135.844 53.0338 135.494 53.0282 135.201 53.0169C134.907 53.0056 134.563 53 134.168 53ZM155.35 62.8533C155.824 63.1354 156.315 63.3781 156.823 63.5813C157.342 63.7731 157.867 63.8691 158.397 63.8691C159.627 63.8691 160.44 63.4966 160.835 62.7517C161.23 62.0068 161.428 60.9684 161.428 59.6365V44.8735C161.868 44.7945 162.348 44.7437 162.867 44.7212C163.397 44.6873 163.826 44.6704 164.153 44.6704C164.515 44.6704 164.943 44.6873 165.44 44.7212C165.937 44.7437 166.411 44.7945 166.862 44.8735V59.1286C166.862 60.9007 166.648 62.4808 166.219 63.8691C165.801 65.2573 165.022 66.3521 163.883 67.1535C162.754 67.9436 161.129 68.3386 159.007 68.3386C158.115 68.3386 157.173 68.2201 156.179 67.9831C155.186 67.7348 154.289 67.3567 153.487 66.8488C153.589 66.1716 153.798 65.4718 154.114 64.7494C154.441 64.0271 154.853 63.395 155.35 62.8533ZM185.729 63.7506C185.729 65.3646 185.475 66.4876 184.967 67.1196C184.471 67.7517 183.624 68.0677 182.428 68.0677H174.623C173.664 68.0677 172.907 67.7968 172.354 67.2551C171.801 66.702 171.525 65.9627 171.525 65.0372V49.5293L171.711 49.3431H185.103C185.182 49.7268 185.227 50.0936 185.238 50.4435C185.25 50.7934 185.255 51.1264 185.255 51.4424C185.255 51.7471 185.221 52.0914 185.154 52.4751C185.097 52.8589 184.996 53.2483 184.849 53.6433H178.923C178.449 53.6433 177.733 53.6377 176.773 53.6264C176.784 53.9763 176.79 54.2754 176.79 54.5237C176.801 54.772 176.807 55.0711 176.807 55.421V56.5383C177.744 56.5271 178.449 56.5214 178.923 56.5214H183.257C183.37 56.8262 183.444 57.176 183.478 57.5711C183.523 57.9548 183.545 58.2821 183.545 58.553C183.545 58.869 183.523 59.2246 183.478 59.6196C183.444 60.0034 183.37 60.3533 183.257 60.6693H178.923C178.709 60.6693 178.41 60.6693 178.026 60.6693C177.642 60.6693 177.236 60.6693 176.807 60.6693V61.7697C176.807 62.1873 176.801 62.5316 176.79 62.8025C176.779 63.0733 176.773 63.412 176.773 63.8183V63.8521C177.168 63.8296 177.535 63.807 177.874 63.7844C178.212 63.7618 178.624 63.7506 179.11 63.7506H185.729ZM194.764 68C194.301 68.079 193.827 68.1298 193.342 68.1524C192.868 68.1862 192.45 68.2032 192.089 68.2032C191.728 68.2032 191.304 68.1862 190.819 68.1524C190.345 68.1298 189.877 68.079 189.414 68V49.4954L189.6 49.3431H202.721C202.8 49.6478 202.856 49.992 202.89 50.3758C202.935 50.7595 202.958 51.0699 202.958 51.3069C202.958 52.0744 202.755 52.6726 202.348 53.1015C201.942 53.5304 201.265 53.7449 200.317 53.7449H196.711C196.372 53.7449 196.039 53.7449 195.712 53.7449C195.396 53.7336 195.08 53.7279 194.764 53.7279C194.764 53.965 194.764 54.2076 194.764 54.4559C194.764 54.693 194.764 54.93 194.764 55.167V56.9277C194.899 56.9277 195.029 56.9277 195.153 56.9277H200.791C200.892 57.2212 200.96 57.5654 200.994 57.9605C201.039 58.3442 201.062 58.6715 201.062 58.9424C201.062 59.2472 201.039 59.6083 200.994 60.0259C200.96 60.4435 200.892 60.8047 200.791 61.1095H195.153C195.029 61.1095 194.899 61.1095 194.764 61.1095V68ZM220.151 63.7506C220.151 65.3646 219.898 66.4876 219.39 67.1196C218.893 67.7517 218.047 68.0677 216.85 68.0677H209.045C208.086 68.0677 207.33 67.7968 206.777 67.2551C206.224 66.702 205.947 65.9627 205.947 65.0372V49.5293L206.133 49.3431H219.525C219.604 49.7268 219.649 50.0936 219.661 50.4435C219.672 50.7934 219.677 51.1264 219.677 51.4424C219.677 51.7471 219.644 52.0914 219.576 52.4751C219.519 52.8589 219.418 53.2483 219.271 53.6433H213.346C212.872 53.6433 212.155 53.6377 211.195 53.6264C211.207 53.9763 211.212 54.2754 211.212 54.5237C211.224 54.772 211.229 55.0711 211.229 55.421V56.5383C212.166 56.5271 212.872 56.5214 213.346 56.5214H217.68C217.793 56.8262 217.866 57.176 217.9 57.5711C217.945 57.9548 217.967 58.2821 217.967 58.553C217.967 58.869 217.945 59.2246 217.9 59.6196C217.866 60.0034 217.793 60.3533 217.68 60.6693H213.346C213.131 60.6693 212.832 60.6693 212.448 60.6693C212.065 60.6693 211.658 60.6693 211.229 60.6693V61.7697C211.229 62.1873 211.224 62.5316 211.212 62.8025C211.201 63.0733 211.195 63.412 211.195 63.8183V63.8521C211.591 63.8296 211.957 63.807 212.296 63.7844C212.635 63.7618 213.046 63.7506 213.532 63.7506H220.151ZM222.025 66.5948C222.025 66.1659 222.109 65.6919 222.279 65.1727C222.448 64.6422 222.679 64.1512 222.973 63.6998C223.266 63.2483 223.588 62.9097 223.938 62.684C224.773 63.1354 225.704 63.5248 226.731 63.8521C227.758 64.1682 228.763 64.3262 229.745 64.3262C230.377 64.3262 230.896 64.1964 231.302 63.9368C231.72 63.6772 231.929 63.3104 231.929 62.8363C231.929 62.5316 231.81 62.2551 231.573 62.0068C231.336 61.7472 230.924 61.5101 230.337 61.2957L227.527 60.1952C226.658 59.8792 225.845 59.4842 225.089 59.0101C224.333 58.5361 223.723 57.9548 223.261 57.2663C222.798 56.5778 222.566 55.7539 222.566 54.7945C222.566 53.0338 223.244 51.6004 224.598 50.4943C225.952 49.3882 227.775 48.8352 230.066 48.8352C231.364 48.8352 232.651 48.9875 233.926 49.2923C235.213 49.5857 236.291 49.9243 237.16 50.3081C237.16 51.0756 237.002 51.8318 236.686 52.5767C236.37 53.3216 235.935 53.9085 235.382 54.3374C234.547 53.965 233.639 53.6546 232.657 53.4063C231.675 53.1467 230.789 53.0169 229.999 53.0169C229.412 53.0169 228.96 53.141 228.644 53.3893C228.34 53.6377 228.187 53.9368 228.187 54.2866C228.187 54.614 228.34 54.8623 228.644 55.0316C228.949 55.2009 229.327 55.3702 229.779 55.5395L232.572 56.6061C234.13 57.1704 235.366 57.9492 236.28 58.9424C237.205 59.9244 237.668 61.1377 237.668 62.5824C237.668 63.8578 237.324 64.9357 236.635 65.816C235.958 66.6964 235.027 67.3623 233.842 67.8138C232.668 68.2652 231.342 68.4966 229.863 68.5079C228.103 68.5079 226.534 68.3047 225.157 67.8984C223.791 67.4921 222.747 67.0576 222.025 66.5948ZM46.4527 100.705C46.4527 103.866 45.7134 106.23 44.2348 107.799C42.7563 109.357 40.4255 110.135 37.2427 110.135C35.8996 110.135 34.6242 110.124 33.4165 110.102C32.2201 110.09 30.956 110.068 29.6242 110.034L29.4379 109.831V91.5124L29.6242 91.3092C30.9673 91.2753 32.237 91.2471 33.4334 91.2245C34.6298 91.1907 35.8996 91.1738 37.2427 91.1738C40.3917 91.1738 42.7111 91.992 44.201 93.6286C45.7021 95.2539 46.4527 97.6128 46.4527 100.705ZM41.0012 100.705C41.0012 99.8815 40.9165 99.0575 40.7472 98.2336C40.5779 97.3984 40.2224 96.6986 39.6806 96.1343C39.1389 95.5699 38.3262 95.2878 37.2427 95.2878C36.7461 95.2878 36.3172 95.2878 35.956 95.2878C35.6061 95.2765 35.1998 95.2652 34.737 95.2539V106.089C35.2224 106.089 35.6343 106.084 35.9729 106.072C36.3228 106.061 36.7461 106.055 37.2427 106.055C38.3262 106.055 39.1389 105.779 39.6806 105.226C40.2224 104.661 40.5779 103.967 40.7472 103.143C40.9165 102.319 41.0012 101.507 41.0012 100.705ZM64.1766 105.751C64.1766 107.365 63.9226 108.488 63.4147 109.12C62.9181 109.752 62.0716 110.068 60.8752 110.068H53.0705C52.1111 110.068 51.3549 109.797 50.8018 109.255C50.2488 108.702 49.9723 107.963 49.9723 107.037V91.5293L50.1585 91.3431H63.5502C63.6292 91.7268 63.6743 92.0936 63.6856 92.4435C63.6969 92.7934 63.7025 93.1264 63.7025 93.4424C63.7025 93.7471 63.6687 94.0914 63.601 94.4751C63.5445 94.8589 63.4429 95.2483 63.2962 95.6433H57.3707C56.8967 95.6433 56.1799 95.6377 55.2206 95.6264C55.2319 95.9763 55.2375 96.2754 55.2375 96.5237C55.2488 96.772 55.2544 97.0711 55.2544 97.421V98.5383C56.1912 98.5271 56.8967 98.5214 57.3707 98.5214H61.7048C61.8177 98.8262 61.891 99.176 61.9249 99.5711C61.97 99.9548 61.9926 100.282 61.9926 100.553C61.9926 100.869 61.97 101.225 61.9249 101.62C61.891 102.003 61.8177 102.353 61.7048 102.669H57.3707C57.1562 102.669 56.8572 102.669 56.4734 102.669C56.0897 102.669 55.6833 102.669 55.2544 102.669V103.77C55.2544 104.187 55.2488 104.532 55.2375 104.802C55.2262 105.073 55.2206 105.412 55.2206 105.818V105.852C55.6156 105.83 55.9824 105.807 56.321 105.784C56.6596 105.762 57.0716 105.751 57.5569 105.751H64.1766ZM88.185 103.719C88.185 103.346 88.1907 102.963 88.2019 102.568C88.2132 102.173 88.2302 101.772 88.2527 101.366H86.5936C85.7245 101.366 85.0755 101.202 84.6466 100.875C84.2177 100.547 84.0033 99.9548 84.0033 99.097C84.0033 98.7471 84.0371 98.369 84.1049 97.9627C84.1839 97.5564 84.2798 97.1896 84.3927 96.8623H89.6918C91.0349 96.8623 91.9661 97.1783 92.4852 97.8103C93.0044 98.4311 93.264 99.2325 93.264 100.214V109.103C92.2821 109.43 91.0123 109.746 89.4548 110.051C87.8972 110.356 86.1929 110.508 84.3419 110.508C82.0281 110.508 80.1094 110.023 78.5857 109.052C77.0732 108.081 75.9446 106.704 75.1996 104.921C74.4547 103.138 74.0823 101.027 74.0823 98.5891C74.0823 96.5349 74.3814 94.746 74.9796 93.2223C75.5778 91.6873 76.3904 90.4175 77.4175 89.413C78.4446 88.3972 79.6015 87.6354 80.8882 87.1275C82.1748 86.6196 83.5067 86.3656 84.8836 86.3656C86.4412 86.3656 87.9311 86.5914 89.3532 87.0428C90.7753 87.4943 92.062 88.0756 93.2132 88.7866C93.1568 89.5541 92.8746 90.3047 92.3667 91.0383C91.8701 91.772 91.3453 92.3194 90.7922 92.6805C89.9683 92.1275 89.0654 91.6873 88.0834 91.36C87.1128 91.0214 86.1534 90.8521 85.2053 90.8521C83.4897 90.8521 82.1297 91.4729 81.1252 92.7144C80.1207 93.9446 79.6184 95.9142 79.6184 98.623C79.6184 101.264 80.1037 103.194 81.0744 104.413C82.0563 105.632 83.4559 106.242 85.273 106.242C85.8148 106.242 86.3283 106.213 86.8137 106.157C87.299 106.1 87.7561 106.033 88.185 105.954V103.719ZM112.659 97.0146C112.659 97.8837 112.462 98.6569 112.066 99.3341C111.671 100.011 111.175 100.57 110.577 101.01C109.99 101.45 109.403 101.732 108.816 101.857C109.425 102.06 109.928 102.37 110.323 102.788C110.729 103.205 111.079 103.742 111.372 104.396L112.253 106.411C112.456 106.874 112.687 107.302 112.947 107.698C113.206 108.081 113.494 108.409 113.81 108.679C113.483 109.086 112.992 109.464 112.337 109.814C111.683 110.152 110.972 110.322 110.204 110.322C109.448 110.322 108.833 110.141 108.359 109.78C107.896 109.407 107.49 108.815 107.14 108.002L105.65 104.582C105.413 104.029 105.119 103.696 104.77 103.584C104.42 103.471 103.968 103.414 103.415 103.414H102.755V110C102.303 110.079 101.835 110.13 101.35 110.152C100.876 110.186 100.469 110.203 100.131 110.203C99.8147 110.203 99.3971 110.186 98.8779 110.152C98.3588 110.13 97.8847 110.079 97.4558 110V91.5124L97.642 91.3092C99.0077 91.2753 100.289 91.2471 101.485 91.2245C102.693 91.1907 103.895 91.1738 105.091 91.1738C106.446 91.1738 107.699 91.3543 108.85 91.7155C110.001 92.0654 110.921 92.6693 111.609 93.527C112.309 94.3735 112.659 95.5361 112.659 97.0146ZM102.755 95V99.3848C103.15 99.3736 103.511 99.3679 103.838 99.3679C104.177 99.3566 104.425 99.351 104.583 99.351C105.599 99.351 106.288 99.1309 106.649 98.6907C107.01 98.2505 107.191 97.737 107.191 97.1501C107.191 96.5745 107.01 96.0778 106.649 95.6602C106.288 95.2426 105.684 95.0338 104.837 95.0338C104.431 95.0338 104.081 95.0282 103.788 95.0169C103.494 95.0056 103.15 95 102.755 95ZM132.953 103.008C132.953 105.344 132.253 107.178 130.853 108.51C129.465 109.842 127.405 110.508 124.674 110.508C121.942 110.508 119.877 109.842 118.477 108.51C117.089 107.178 116.395 105.344 116.395 103.008V91.3431L116.598 91.1399H118.528C119.555 91.1399 120.345 91.3995 120.898 91.9187C121.463 92.4379 121.745 93.3126 121.745 94.5428V102.991C121.745 104.018 121.959 104.825 122.388 105.412C122.817 105.999 123.579 106.292 124.674 106.292C125.78 106.292 126.542 105.999 126.959 105.412C127.377 104.825 127.586 104.018 127.586 102.991V91.3431C128.037 91.2528 128.5 91.1963 128.974 91.1738C129.448 91.1512 129.86 91.1399 130.21 91.1399C130.526 91.1399 130.955 91.1568 131.497 91.1907C132.038 91.2133 132.524 91.2697 132.953 91.36V103.008ZM152.33 97.7426C152.33 99.2099 151.997 100.429 151.331 101.4C150.677 102.359 149.774 103.076 148.622 103.55C147.471 104.012 146.162 104.244 144.695 104.244H142.849V110C142.398 110.079 141.935 110.13 141.461 110.152C140.987 110.186 140.581 110.203 140.242 110.203C139.926 110.203 139.497 110.186 138.955 110.152C138.414 110.13 137.928 110.079 137.499 110V91.5124L137.686 91.3092C138.6 91.2866 139.7 91.2584 140.987 91.2245C142.274 91.1907 143.51 91.1738 144.695 91.1738C146.173 91.1738 147.488 91.3995 148.639 91.851C149.791 92.3024 150.694 93.0135 151.348 93.9842C152.003 94.9548 152.33 96.2076 152.33 97.7426ZM142.849 95.1354V100.316C143.154 100.305 143.431 100.299 143.679 100.299C143.927 100.288 144.113 100.282 144.238 100.282C144.982 100.282 145.541 100.147 145.914 99.8758C146.297 99.5936 146.551 99.255 146.675 98.86C146.8 98.4537 146.862 98.0699 146.862 97.7088C146.862 97.3702 146.8 97.0033 146.675 96.6083C146.551 96.2133 146.297 95.8747 145.914 95.5925C145.541 95.3103 144.982 95.1693 144.238 95.1693C143.955 95.1693 143.752 95.1693 143.628 95.1693C143.504 95.158 143.244 95.1467 142.849 95.1354ZM154.215 100.705C154.215 97.6806 154.994 95.2821 156.552 93.5101C158.121 91.7268 160.406 90.8352 163.408 90.8352C166.456 90.8352 168.753 91.7212 170.299 93.4932C171.857 95.2539 172.635 97.658 172.635 100.705C172.635 103.753 171.857 106.151 170.299 107.901C168.741 109.639 166.445 110.508 163.408 110.508C160.361 110.508 158.064 109.628 156.518 107.867C154.983 106.106 154.215 103.719 154.215 100.705ZM159.684 100.705C159.684 101.349 159.723 102.015 159.802 102.703C159.893 103.38 160.062 104.012 160.31 104.599C160.57 105.186 160.948 105.666 161.445 106.038C161.941 106.4 162.601 106.58 163.425 106.58C164.249 106.58 164.91 106.4 165.406 106.038C165.903 105.666 166.275 105.186 166.524 104.599C166.783 104.012 166.953 103.38 167.032 102.703C167.122 102.015 167.167 101.349 167.167 100.705C167.167 100.051 167.122 99.3792 167.032 98.6907C166.953 97.9909 166.783 97.3476 166.524 96.7607C166.275 96.1625 165.903 95.6828 165.406 95.3216C164.91 94.9492 164.249 94.7629 163.425 94.7629C162.601 94.7629 161.941 94.9492 161.445 95.3216C160.948 95.6828 160.57 96.1625 160.31 96.7607C160.062 97.3476 159.893 97.9909 159.802 98.6907C159.723 99.3792 159.684 100.051 159.684 100.705Z" fill="white" fill-opacity="0.87"/>
<path d="M305.181 108.825C305.901 110.577 338.684 111.127 339.765 108.825C340.846 106.523 337.077 59.1078 322.473 60.7527C308.498 62.3268 304.46 107.074 305.181 108.825Z" fill="white" fill-opacity="0.87"/>
<path d="M305.181 108.825C305.901 110.577 338.684 111.127 339.765 108.825C340.846 106.523 337.077 59.1078 322.473 60.7527C308.498 62.3268 304.46 107.074 305.181 108.825Z" fill="url(#paint0_linear)"/>
<path d="M316.185 43.9274C319.132 49.9349 325.814 49.9349 328.761 43.9274C330.971 39.4217 330.971 34.0113 328.761 29.5056C325.814 23.4981 319.132 23.4981 316.185 29.5056C313.975 34.0113 313.975 39.4217 316.185 43.9274Z" fill="white" fill-opacity="0.87"/>
<path d="M316.185 43.9274C319.132 49.9349 325.814 49.9349 328.761 43.9274C330.971 39.4217 330.971 34.0113 328.761 29.5056C325.814 23.4981 319.132 23.4981 316.185 29.5056C313.975 34.0113 313.975 39.4217 316.185 43.9274Z" fill="url(#paint1_linear)"/>
<path d="M305.181 108.825C305.901 110.577 338.684 111.127 339.765 108.825C340.846 106.523 337.077 59.1078 322.473 60.7527C308.498 62.3268 304.46 107.074 305.181 108.825Z" stroke="#C4C4C4" stroke-width="4.36364"/>
<path d="M316.185 43.9274C319.132 49.9349 325.814 49.9349 328.761 43.9274C330.971 39.4217 330.971 34.0113 328.761 29.5056C325.814 23.4981 319.132 23.4981 316.185 29.5056C313.975 34.0113 313.975 39.4217 316.185 43.9274Z" stroke="#C4C4C4" stroke-width="4.36364"/>
<path d="M275.08 128.473C275.8 130.224 308.583 130.775 309.664 128.473C310.745 126.171 306.976 78.7555 292.372 80.4004C278.397 81.9745 274.359 126.721 275.08 128.473Z" fill="white" fill-opacity="0.87"/>
<path d="M286.084 63.5751C289.031 69.5826 295.713 69.5826 298.66 63.5751C300.87 59.0694 300.87 53.659 298.66 49.1533C295.713 43.1458 289.031 43.1458 286.084 49.1533C283.874 53.659 283.874 59.0694 286.084 63.5751Z" fill="white" fill-opacity="0.87"/>
<path d="M275.08 128.473C275.8 130.224 308.583 130.775 309.664 128.473C310.745 126.171 306.976 78.7555 292.372 80.4004C278.397 81.9745 274.359 126.721 275.08 128.473Z" stroke="#C4C4C4" stroke-width="4.36364"/>
<path d="M286.084 63.5751C289.031 69.5826 295.713 69.5826 298.66 63.5751C300.87 59.0694 300.87 53.659 298.66 49.1533C295.713 43.1458 289.031 43.1458 286.084 49.1533C283.874 53.659 283.874 59.0694 286.084 63.5751Z" stroke="#C4C4C4" stroke-width="4.36364"/>
<path d="M336.243 128.473C336.963 130.224 369.746 130.775 370.827 128.473C371.908 126.171 368.139 78.7555 353.535 80.4004C339.56 81.9745 335.522 126.721 336.243 128.473Z" fill="white" fill-opacity="0.87"/>
<path d="M347.247 63.5751C350.194 69.5826 356.876 69.5826 359.823 63.5751C362.033 59.0694 362.033 53.659 359.823 49.1533C356.876 43.1458 350.194 43.1458 347.247 49.1533C345.037 53.659 345.037 59.0694 347.247 63.5751Z" fill="white" fill-opacity="0.87"/>
<path d="M336.243 128.473C336.963 130.224 369.746 130.775 370.827 128.473C371.908 126.171 368.139 78.7555 353.535 80.4004C339.56 81.9745 335.522 126.721 336.243 128.473Z" stroke="#C4C4C4" stroke-width="4.36364"/>
<path d="M347.247 63.5751C350.194 69.5826 356.876 69.5826 359.823 63.5751C362.033 59.0694 362.033 53.659 359.823 49.1533C356.876 43.1458 350.194 43.1458 347.247 49.1533C345.037 53.659 345.037 59.0694 347.247 63.5751Z" stroke="#C4C4C4" stroke-width="4.36364"/>
<defs>
<linearGradient id="paint0_linear" x1="322.52" y1="25" x2="322.52" y2="110.352" gradientUnits="userSpaceOnUse">
<stop stop-color="white" stop-opacity="0"/>
<stop offset="0.890625" stop-color="#546886"/>
</linearGradient>
<linearGradient id="paint1_linear" x1="322.52" y1="25" x2="322.52" y2="110.352" gradientUnits="userSpaceOnUse">
<stop stop-color="white" stop-opacity="0"/>
<stop offset="0.890625" stop-color="#546886"/>
</linearGradient>
</defs>
</svg>
