<svg width="392" height="155" viewBox="0 0 392 155" fill="none" xmlns="http://www.w3.org/2000/svg">
<rect width="392" height="155" rx="20" fill="black" fill-opacity="0.25"/>
<path d="M55.3488 55.4198C55.3488 56.7404 55.2529 58.0158 55.061 59.246C54.8804 60.465 54.5192 61.605 53.9775 62.6659C53.4357 63.7269 52.6231 64.6749 51.5396 65.5102C51.0204 65.9165 50.394 66.2438 49.6603 66.4921C48.938 66.7404 48.193 66.921 47.4255 67.0339C46.6581 67.1467 45.9583 67.2032 45.3262 67.2032C43.8702 67.2032 42.4537 67.1862 41.0768 67.1524C39.7111 67.1298 38.289 67.1016 36.8104 67.0677L36.5734 66.8307V44.0428L36.8104 43.8058C38.2664 43.7607 39.6829 43.7268 41.0598 43.7042C42.4481 43.6816 43.8702 43.6704 45.3262 43.6704C45.9583 43.6704 46.6581 43.7324 47.4255 43.8566C48.193 43.9695 48.9436 44.15 49.6772 44.3984C50.4109 44.6467 51.0317 44.974 51.5396 45.3803C52.6118 46.2155 53.4188 47.1636 53.9606 48.2245C54.5023 49.2742 54.8691 50.4085 55.061 51.6275C55.2529 52.8465 55.3488 54.1106 55.3488 55.4198ZM49.7788 55.4198C49.7788 54.562 49.7224 53.693 49.6095 52.8126C49.5079 51.9209 49.3048 51.1083 49 50.3747C48.7066 49.6297 48.2608 49.0316 47.6626 48.5801C47.0757 48.1173 46.2969 47.8859 45.3262 47.8859C44.7506 47.8859 44.1975 47.8859 43.6671 47.8859C43.1366 47.8859 42.5723 47.8747 41.9741 47.8521V63.0045C42.5723 62.9932 43.1366 62.9876 43.6671 62.9876C44.1975 62.9876 44.7506 62.9876 45.3262 62.9876C46.2969 62.9876 47.0757 62.7618 47.6626 62.3104C48.2608 61.8476 48.7066 61.2438 49 60.4989C49.3048 59.7426 49.5079 58.9244 49.6095 58.044C49.7224 57.1523 49.7788 56.2776 49.7788 55.4198ZM73.2598 62.7506C73.2598 64.3646 73.0058 65.4876 72.4979 66.1196C72.0013 66.7517 71.1548 67.0677 69.9584 67.0677H62.1537C61.1943 67.0677 60.4381 66.7968 59.885 66.2551C59.332 65.702 59.0554 64.9627 59.0554 64.0372V48.5293L59.2417 48.3431H72.6334C72.7124 48.7268 72.7575 49.0936 72.7688 49.4435C72.7801 49.7934 72.7857 50.1264 72.7857 50.4424C72.7857 50.7471 72.7519 51.0914 72.6842 51.4751C72.6277 51.8589 72.5261 52.2483 72.3794 52.6433H66.4539C65.9798 52.6433 65.2631 52.6377 64.3038 52.6264C64.3151 52.9763 64.3207 53.2754 64.3207 53.5237C64.332 53.772 64.3376 54.0711 64.3376 54.421V55.5383C65.2744 55.5271 65.9798 55.5214 66.4539 55.5214H70.788C70.9009 55.8262 70.9742 56.176 71.0081 56.5711C71.0532 56.9548 71.0758 57.2821 71.0758 57.553C71.0758 57.869 71.0532 58.2246 71.0081 58.6196C70.9742 59.0034 70.9009 59.3533 70.788 59.6693H66.4539C66.2394 59.6693 65.9403 59.6693 65.5566 59.6693C65.1728 59.6693 64.7665 59.6693 64.3376 59.6693V60.7697C64.3376 61.1873 64.332 61.5316 64.3207 61.8025C64.3094 62.0733 64.3038 62.412 64.3038 62.8183V62.8521C64.6988 62.8296 65.0656 62.807 65.4042 62.7844C65.7428 62.7618 66.1548 62.7506 66.6401 62.7506H73.2598ZM82.2943 67C81.8316 67.079 81.3576 67.1298 80.8722 67.1524C80.3982 67.1862 79.9806 67.2032 79.6194 67.2032C79.2582 67.2032 78.835 67.1862 78.3496 67.1524C77.8756 67.1298 77.4072 67.079 76.9444 67V48.4954L77.1307 48.3431H90.2515C90.3305 48.6478 90.3869 48.992 90.4208 49.3758C90.4659 49.7595 90.4885 50.0699 90.4885 50.3069C90.4885 51.0744 90.2853 51.6726 89.879 52.1015C89.4727 52.5304 88.7955 52.7449 87.8474 52.7449H84.2413C83.9027 52.7449 83.5697 52.7449 83.2424 52.7449C82.9264 52.7336 82.6104 52.7279 82.2943 52.7279C82.2943 52.965 82.2943 53.2076 82.2943 53.4559C82.2943 53.693 82.2943 53.93 82.2943 54.167V55.9277C82.4298 55.9277 82.5596 55.9277 82.6837 55.9277H88.3215C88.423 56.2212 88.4908 56.5654 88.5246 56.9605C88.5698 57.3442 88.5923 57.6715 88.5923 57.9424C88.5923 58.2472 88.5698 58.6083 88.5246 59.0259C88.4908 59.4435 88.423 59.8047 88.3215 60.1095H82.6837C82.5596 60.1095 82.4298 60.1095 82.2943 60.1095V67ZM93.5454 48.3431C93.9743 48.2528 94.4597 48.1963 95.0014 48.1738C95.5432 48.1512 95.9721 48.1399 96.2881 48.1399C96.6267 48.1399 97.033 48.1512 97.5071 48.1738C97.9924 48.1963 98.4608 48.2528 98.9123 48.3431V67C98.4608 67.079 97.9924 67.1298 97.5071 67.1524C97.033 67.1862 96.6267 67.2032 96.2881 67.2032C95.9721 67.2032 95.5432 67.1862 95.0014 67.1524C94.4597 67.1298 93.9743 67.079 93.5454 67V48.3431ZM110.396 58.4842C110.317 58.3036 110.193 58.0214 110.024 57.6377C109.855 57.2426 109.674 56.8194 109.482 56.3679C109.29 55.9164 109.11 55.4932 108.94 55.0982C108.782 54.7031 108.658 54.4153 108.568 54.2347L108.449 54.2855C108.495 55.1772 108.54 56.1422 108.585 57.1806C108.63 58.2076 108.664 59.1501 108.686 60.0079C108.72 60.8544 108.737 61.4695 108.737 61.8533V67C108.297 67.079 107.874 67.1298 107.468 67.1524C107.061 67.1862 106.683 67.2032 106.333 67.2032C106.017 67.2032 105.622 67.1862 105.148 67.1524C104.685 67.1298 104.245 67.079 103.828 67V48.4616C104.245 48.36 104.764 48.281 105.385 48.2245C106.006 48.1681 106.486 48.1399 106.824 48.1399C107.174 48.1399 107.671 48.1512 108.314 48.1738C108.957 48.185 109.488 48.2415 109.905 48.3431L113.884 56.825C113.963 56.983 114.093 57.2709 114.273 57.6885C114.465 58.1061 114.668 58.5632 114.883 59.0598C115.097 59.5564 115.295 60.0248 115.475 60.465C115.667 60.8939 115.808 61.2099 115.899 61.4131L116.051 61.3792C116.006 60.6343 115.944 59.7652 115.865 58.772C115.797 57.7788 115.735 56.8194 115.679 55.8939C115.622 54.9684 115.594 54.2291 115.594 53.676V51.0349C115.594 49.8386 115.854 49.0541 116.373 48.6817C116.892 48.2979 117.665 48.106 118.692 48.106H120.436L120.639 48.3431V66.8984C120.199 67 119.668 67.0734 119.048 67.1185C118.427 67.1749 117.953 67.2032 117.626 67.2032C117.4 67.2032 117.089 67.1975 116.694 67.1862C116.299 67.1749 115.893 67.158 115.475 67.1354C115.069 67.1129 114.731 67.0677 114.46 67L110.396 58.4842ZM125.587 48.3431C126.016 48.2528 126.501 48.1963 127.043 48.1738C127.585 48.1512 128.014 48.1399 128.33 48.1399C128.668 48.1399 129.075 48.1512 129.549 48.1738C130.034 48.1963 130.502 48.2528 130.954 48.3431V67C130.502 67.079 130.034 67.1298 129.549 67.1524C129.075 67.1862 128.668 67.2032 128.33 67.2032C128.014 67.2032 127.585 67.1862 127.043 67.1524C126.501 67.1298 126.016 67.079 125.587 67V48.3431ZM151.072 54.0146C151.072 54.8837 150.875 55.6569 150.48 56.3341C150.085 57.0113 149.588 57.5699 148.99 58.0101C148.403 58.4503 147.816 58.7325 147.229 58.8566C147.839 59.0598 148.341 59.3702 148.736 59.7878C149.142 60.2054 149.492 60.7415 149.786 61.3961L150.666 63.4108C150.869 63.8736 151.1 64.3025 151.36 64.6975C151.62 65.0813 151.907 65.4086 152.223 65.6795C151.896 66.0858 151.405 66.4639 150.751 66.8138C150.096 67.1524 149.385 67.3217 148.617 67.3217C147.861 67.3217 147.246 67.1411 146.772 66.7799C146.309 66.4074 145.903 65.8149 145.553 65.0023L144.063 61.5824C143.826 61.0293 143.533 60.6964 143.183 60.5835C142.833 60.4706 142.381 60.4142 141.828 60.4142H141.168V67C140.717 67.079 140.248 67.1298 139.763 67.1524C139.289 67.1862 138.883 67.2032 138.544 67.2032C138.228 67.2032 137.81 67.1862 137.291 67.1524C136.772 67.1298 136.298 67.079 135.869 67V48.5124L136.055 48.3092C137.421 48.2753 138.702 48.2471 139.898 48.2245C141.106 48.1907 142.308 48.1738 143.504 48.1738C144.859 48.1738 146.112 48.3543 147.263 48.7155C148.414 49.0654 149.334 49.6693 150.023 50.527C150.722 51.3735 151.072 52.5361 151.072 54.0146ZM141.168 52V56.3848C141.563 56.3736 141.924 56.3679 142.252 56.3679C142.59 56.3566 142.839 56.351 142.997 56.351C144.012 56.351 144.701 56.1309 145.062 55.6907C145.423 55.2505 145.604 54.737 145.604 54.1501C145.604 53.5745 145.423 53.0778 145.062 52.6602C144.701 52.2426 144.097 52.0338 143.251 52.0338C142.844 52.0338 142.494 52.0282 142.201 52.0169C141.907 52.0056 141.563 52 141.168 52ZM162.35 61.8533C162.824 62.1354 163.315 62.3781 163.823 62.5813C164.342 62.7731 164.867 62.8691 165.397 62.8691C166.627 62.8691 167.44 62.4966 167.835 61.7517C168.23 61.0068 168.428 59.9684 168.428 58.6365V43.8735C168.868 43.7945 169.348 43.7437 169.867 43.7212C170.397 43.6873 170.826 43.6704 171.153 43.6704C171.515 43.6704 171.943 43.6873 172.44 43.7212C172.937 43.7437 173.411 43.7945 173.862 43.8735V58.1286C173.862 59.9007 173.648 61.4808 173.219 62.8691C172.801 64.2573 172.022 65.3521 170.883 66.1535C169.754 66.9436 168.129 67.3386 166.007 67.3386C165.115 67.3386 164.173 67.2201 163.179 66.9831C162.186 66.7348 161.289 66.3567 160.487 65.8488C160.589 65.1716 160.798 64.4718 161.114 63.7494C161.441 63.0271 161.853 62.395 162.35 61.8533ZM192.729 62.7506C192.729 64.3646 192.475 65.4876 191.967 66.1196C191.471 66.7517 190.624 67.0677 189.428 67.0677H181.623C180.664 67.0677 179.907 66.7968 179.354 66.2551C178.801 65.702 178.525 64.9627 178.525 64.0372V48.5293L178.711 48.3431H192.103C192.182 48.7268 192.227 49.0936 192.238 49.4435C192.25 49.7934 192.255 50.1264 192.255 50.4424C192.255 50.7471 192.221 51.0914 192.154 51.4751C192.097 51.8589 191.996 52.2483 191.849 52.6433H185.923C185.449 52.6433 184.733 52.6377 183.773 52.6264C183.784 52.9763 183.79 53.2754 183.79 53.5237C183.801 53.772 183.807 54.0711 183.807 54.421V55.5383C184.744 55.5271 185.449 55.5214 185.923 55.5214H190.257C190.37 55.8262 190.444 56.176 190.478 56.5711C190.523 56.9548 190.545 57.2821 190.545 57.553C190.545 57.869 190.523 58.2246 190.478 58.6196C190.444 59.0034 190.37 59.3533 190.257 59.6693H185.923C185.709 59.6693 185.41 59.6693 185.026 59.6693C184.642 59.6693 184.236 59.6693 183.807 59.6693V60.7697C183.807 61.1873 183.801 61.5316 183.79 61.8025C183.779 62.0733 183.773 62.412 183.773 62.8183V62.8521C184.168 62.8296 184.535 62.807 184.874 62.7844C185.212 62.7618 185.624 62.7506 186.11 62.7506H192.729ZM201.764 67C201.301 67.079 200.827 67.1298 200.342 67.1524C199.868 67.1862 199.45 67.2032 199.089 67.2032C198.728 67.2032 198.304 67.1862 197.819 67.1524C197.345 67.1298 196.877 67.079 196.414 67V48.4954L196.6 48.3431H209.721C209.8 48.6478 209.856 48.992 209.89 49.3758C209.935 49.7595 209.958 50.0699 209.958 50.3069C209.958 51.0744 209.755 51.6726 209.348 52.1015C208.942 52.5304 208.265 52.7449 207.317 52.7449H203.711C203.372 52.7449 203.039 52.7449 202.712 52.7449C202.396 52.7336 202.08 52.7279 201.764 52.7279C201.764 52.965 201.764 53.2076 201.764 53.4559C201.764 53.693 201.764 53.93 201.764 54.167V55.9277C201.899 55.9277 202.029 55.9277 202.153 55.9277H207.791C207.892 56.2212 207.96 56.5654 207.994 56.9605C208.039 57.3442 208.062 57.6715 208.062 57.9424C208.062 58.2472 208.039 58.6083 207.994 59.0259C207.96 59.4435 207.892 59.8047 207.791 60.1095H202.153C202.029 60.1095 201.899 60.1095 201.764 60.1095V67ZM227.151 62.7506C227.151 64.3646 226.898 65.4876 226.39 66.1196C225.893 66.7517 225.047 67.0677 223.85 67.0677H216.045C215.086 67.0677 214.33 66.7968 213.777 66.2551C213.224 65.702 212.947 64.9627 212.947 64.0372V48.5293L213.133 48.3431H226.525C226.604 48.7268 226.649 49.0936 226.661 49.4435C226.672 49.7934 226.677 50.1264 226.677 50.4424C226.677 50.7471 226.644 51.0914 226.576 51.4751C226.519 51.8589 226.418 52.2483 226.271 52.6433H220.346C219.872 52.6433 219.155 52.6377 218.195 52.6264C218.207 52.9763 218.212 53.2754 218.212 53.5237C218.224 53.772 218.229 54.0711 218.229 54.421V55.5383C219.166 55.5271 219.872 55.5214 220.346 55.5214H224.68C224.793 55.8262 224.866 56.176 224.9 56.5711C224.945 56.9548 224.967 57.2821 224.967 57.553C224.967 57.869 224.945 58.2246 224.9 58.6196C224.866 59.0034 224.793 59.3533 224.68 59.6693H220.346C220.131 59.6693 219.832 59.6693 219.448 59.6693C219.065 59.6693 218.658 59.6693 218.229 59.6693V60.7697C218.229 61.1873 218.224 61.5316 218.212 61.8025C218.201 62.0733 218.195 62.412 218.195 62.8183V62.8521C218.591 62.8296 218.957 62.807 219.296 62.7844C219.635 62.7618 220.046 62.7506 220.532 62.7506H227.151ZM229.025 65.5948C229.025 65.1659 229.109 64.6919 229.279 64.1727C229.448 63.6422 229.679 63.1512 229.973 62.6998C230.266 62.2483 230.588 61.9097 230.938 61.684C231.773 62.1354 232.704 62.5248 233.731 62.8521C234.758 63.1682 235.763 63.3262 236.745 63.3262C237.377 63.3262 237.896 63.1964 238.302 62.9368C238.72 62.6772 238.929 62.3104 238.929 61.8363C238.929 61.5316 238.81 61.2551 238.573 61.0068C238.336 60.7472 237.924 60.5101 237.337 60.2957L234.527 59.1952C233.658 58.8792 232.845 58.4842 232.089 58.0101C231.333 57.5361 230.723 56.9548 230.261 56.2663C229.798 55.5778 229.566 54.7539 229.566 53.7945C229.566 52.0338 230.244 50.6004 231.598 49.4943C232.952 48.3882 234.775 47.8352 237.066 47.8352C238.364 47.8352 239.651 47.9875 240.926 48.2923C242.213 48.5857 243.291 48.9243 244.16 49.3081C244.16 50.0756 244.002 50.8318 243.686 51.5767C243.37 52.3216 242.935 52.9085 242.382 53.3374C241.547 52.965 240.639 52.6546 239.657 52.4063C238.675 52.1467 237.789 52.0169 236.999 52.0169C236.412 52.0169 235.96 52.141 235.644 52.3893C235.34 52.6377 235.187 52.9368 235.187 53.2866C235.187 53.614 235.34 53.8623 235.644 54.0316C235.949 54.2009 236.327 54.3702 236.779 54.5395L239.572 55.6061C241.13 56.1704 242.366 56.9492 243.28 57.9424C244.205 58.9244 244.668 60.1377 244.668 61.5824C244.668 62.8578 244.324 63.9357 243.635 64.816C242.958 65.6964 242.027 66.3623 240.842 66.8138C239.668 67.2652 238.342 67.4966 236.863 67.5079C235.103 67.5079 233.534 67.3047 232.157 66.8984C230.791 66.4921 229.747 66.0576 229.025 65.5948ZM53.4527 99.7054C53.4527 102.866 52.7134 105.23 51.2348 106.799C49.7563 108.357 47.4255 109.135 44.2427 109.135C42.8996 109.135 41.6242 109.124 40.4165 109.102C39.2201 109.09 37.956 109.068 36.6242 109.034L36.4379 108.831V90.5124L36.6242 90.3092C37.9673 90.2753 39.237 90.2471 40.4334 90.2245C41.6298 90.1907 42.8996 90.1738 44.2427 90.1738C47.3917 90.1738 49.7111 90.992 51.201 92.6286C52.7021 94.2539 53.4527 96.6128 53.4527 99.7054ZM48.0012 99.7054C48.0012 98.8815 47.9165 98.0575 47.7472 97.2336C47.5779 96.3984 47.2224 95.6986 46.6806 95.1343C46.1389 94.5699 45.3262 94.2878 44.2427 94.2878C43.7461 94.2878 43.3172 94.2878 42.956 94.2878C42.6061 94.2765 42.1998 94.2652 41.737 94.2539V105.089C42.2224 105.089 42.6343 105.084 42.9729 105.072C43.3228 105.061 43.7461 105.055 44.2427 105.055C45.3262 105.055 46.1389 104.779 46.6806 104.226C47.2224 103.661 47.5779 102.967 47.7472 102.143C47.9165 101.319 48.0012 100.507 48.0012 99.7054ZM71.1766 104.751C71.1766 106.365 70.9226 107.488 70.4147 108.12C69.9181 108.752 69.0716 109.068 67.8752 109.068H60.0705C59.1111 109.068 58.3549 108.797 57.8018 108.255C57.2488 107.702 56.9723 106.963 56.9723 106.037V90.5293L57.1585 90.3431H70.5502C70.6292 90.7268 70.6743 91.0936 70.6856 91.4435C70.6969 91.7934 70.7025 92.1264 70.7025 92.4424C70.7025 92.7471 70.6687 93.0914 70.601 93.4751C70.5445 93.8589 70.4429 94.2483 70.2962 94.6433H64.3707C63.8967 94.6433 63.1799 94.6377 62.2206 94.6264C62.2319 94.9763 62.2375 95.2754 62.2375 95.5237C62.2488 95.772 62.2544 96.0711 62.2544 96.421V97.5383C63.1912 97.5271 63.8967 97.5214 64.3707 97.5214H68.7048C68.8177 97.8262 68.891 98.176 68.9249 98.5711C68.97 98.9548 68.9926 99.2821 68.9926 99.553C68.9926 99.869 68.97 100.225 68.9249 100.62C68.891 101.003 68.8177 101.353 68.7048 101.669H64.3707C64.1562 101.669 63.8572 101.669 63.4734 101.669C63.0897 101.669 62.6833 101.669 62.2544 101.669V102.77C62.2544 103.187 62.2488 103.532 62.2375 103.802C62.2262 104.073 62.2206 104.412 62.2206 104.818V104.852C62.6156 104.83 62.9824 104.807 63.321 104.784C63.6596 104.762 64.0716 104.751 64.5569 104.751H71.1766ZM99.0281 93.0349C99.0281 94.1185 98.8193 95.0835 98.4017 95.93C97.9841 96.7652 97.4593 97.465 96.8272 98.0293C96.1952 98.5824 95.5575 98.983 94.9141 99.2313C95.5462 99.4571 96.071 99.8465 96.4886 100.4C96.9175 100.953 97.2618 101.602 97.5214 102.346L98.5372 105.208C98.9209 106.302 99.4796 107.138 100.213 107.713C99.8634 108.165 99.3555 108.543 98.6895 108.848C98.0236 109.152 97.3295 109.305 96.6071 109.305C95.6365 109.305 94.9311 109.045 94.4909 108.526C94.0507 107.995 93.65 107.211 93.2888 106.173L92.0699 102.634C91.878 102.047 91.5789 101.551 91.1726 101.144C90.7663 100.727 90.1116 100.518 89.2087 100.518H87.8035V109C87.352 109.079 86.8836 109.13 86.3983 109.152C85.913 109.186 85.4841 109.203 85.1116 109.203C84.7843 109.203 84.3667 109.186 83.8588 109.152C83.3509 109.13 82.8768 109.079 82.4367 109V86.0428L82.6737 85.8058C84.1184 85.7719 85.5067 85.7437 86.8385 85.7212C88.1816 85.6873 89.4965 85.6704 90.7832 85.6704C92.352 85.6704 93.7572 85.93 94.9988 86.4491C96.2516 86.9683 97.2335 87.7697 97.9446 88.8532C98.667 89.9367 99.0281 91.3306 99.0281 93.0349ZM87.8035 89.7336V96.3702C88.334 96.3476 88.8306 96.3307 89.2933 96.3194C89.7674 96.3081 90.1116 96.3024 90.3261 96.3024C91.1839 96.3024 91.8385 96.1501 92.29 95.8453C92.7527 95.5293 93.0688 95.123 93.2381 94.6264C93.4186 94.1298 93.5089 93.5993 93.5089 93.0349C93.5089 92.448 93.4186 91.9063 93.2381 91.4097C93.0688 90.913 92.7527 90.518 92.29 90.2245C91.8385 89.9198 91.1839 89.7674 90.3261 89.7674C89.9762 89.7674 89.5868 89.7674 89.1579 89.7674C88.7403 89.7674 88.2888 89.7562 87.8035 89.7336ZM107.874 105.732C107.693 105.732 107.518 105.732 107.349 105.732C107.179 105.721 107.01 105.71 106.841 105.699L105.791 109C105.464 109.079 105.108 109.135 104.725 109.169C104.341 109.214 103.94 109.237 103.523 109.237C103.071 109.237 102.614 109.203 102.151 109.135C101.7 109.068 101.327 108.972 101.034 108.848L100.848 108.56L107.433 90.3431C108.02 90.2528 108.585 90.1963 109.126 90.1738C109.679 90.1512 110.182 90.1399 110.633 90.1399C111.051 90.1399 111.502 90.1512 111.988 90.1738C112.473 90.1963 113.02 90.2528 113.63 90.3431L120.029 108.746C119.634 108.927 119.132 109.062 118.523 109.152C117.913 109.254 117.422 109.305 117.05 109.305C116.429 109.305 115.831 109.186 115.255 108.949C114.679 108.712 114.245 108.086 113.951 107.07L113.528 105.699C113.348 105.71 113.173 105.721 113.003 105.732C112.834 105.732 112.653 105.732 112.462 105.732H107.874ZM108.551 100.383L108.178 101.551C108.348 101.539 108.517 101.534 108.686 101.534C108.856 101.523 109.03 101.517 109.211 101.517H111.327C111.497 101.517 111.649 101.523 111.784 101.534C111.931 101.534 112.078 101.539 112.225 101.551L111.869 100.4C111.609 99.5079 111.35 98.5146 111.09 97.4198C110.831 96.325 110.594 95.3318 110.379 94.4401H110.176C109.939 95.2979 109.674 96.2799 109.38 97.386C109.098 98.4921 108.822 99.4909 108.551 100.383ZM123.794 90.3431C124.336 90.2415 124.929 90.1738 125.572 90.1399C126.215 90.0948 126.757 90.0722 127.197 90.0722C127.615 90.0722 128.157 90.0948 128.823 90.1399C129.489 90.1738 130.047 90.2415 130.499 90.3431L132.158 97.6907C132.259 98.1309 132.378 98.7291 132.513 99.4853C132.649 100.23 132.784 101.032 132.92 101.889H133.14C133.411 100.083 133.665 98.6839 133.902 97.6907L135.544 90.3431C136.074 90.2415 136.656 90.1738 137.288 90.1399C137.92 90.0948 138.445 90.0722 138.862 90.0722C139.302 90.0722 139.85 90.0948 140.504 90.1399C141.159 90.1738 141.746 90.2415 142.265 90.3431L144.178 108.932C143.445 109.113 142.559 109.203 141.52 109.203C141.125 109.203 140.702 109.186 140.25 109.152C139.81 109.119 139.415 109.068 139.065 109L138.574 103.007C138.518 102.239 138.484 101.398 138.473 100.484C138.462 99.5699 138.462 98.6783 138.473 97.8092C138.484 96.9289 138.484 96.167 138.473 95.5237H138.27L135.781 106.139C135.397 106.207 134.929 106.257 134.376 106.291C133.823 106.314 133.366 106.325 133.004 106.325C132.632 106.325 132.169 106.314 131.616 106.291C131.074 106.257 130.623 106.207 130.262 106.139L127.79 95.5237H127.553C127.553 96.1783 127.553 96.9401 127.553 97.8092C127.564 98.6783 127.564 99.5699 127.553 100.484C127.542 101.398 127.502 102.251 127.434 103.041L126.994 109C126.633 109.068 126.238 109.119 125.809 109.152C125.392 109.186 124.985 109.203 124.59 109.203C123.541 109.203 122.638 109.113 121.881 108.932L123.794 90.3431ZM153.076 105.732C152.895 105.732 152.72 105.732 152.551 105.732C152.381 105.721 152.212 105.71 152.043 105.699L150.993 109C150.666 109.079 150.31 109.135 149.927 109.169C149.543 109.214 149.142 109.237 148.725 109.237C148.273 109.237 147.816 109.203 147.353 109.135C146.902 109.068 146.529 108.972 146.236 108.848L146.05 108.56L152.635 90.3431C153.222 90.2528 153.787 90.1963 154.328 90.1738C154.881 90.1512 155.384 90.1399 155.835 90.1399C156.253 90.1399 156.704 90.1512 157.19 90.1738C157.675 90.1963 158.222 90.2528 158.832 90.3431L165.231 108.746C164.836 108.927 164.334 109.062 163.725 109.152C163.115 109.254 162.624 109.305 162.252 109.305C161.631 109.305 161.033 109.186 160.457 108.949C159.881 108.712 159.447 108.086 159.153 107.07L158.73 105.699C158.55 105.71 158.375 105.721 158.205 105.732C158.036 105.732 157.855 105.732 157.664 105.732H153.076ZM153.753 100.383L153.38 101.551C153.55 101.539 153.719 101.534 153.888 101.534C154.057 101.523 154.232 101.517 154.413 101.517H156.529C156.699 101.517 156.851 101.523 156.986 101.534C157.133 101.534 157.28 101.539 157.427 101.551L157.071 100.4C156.811 99.5079 156.552 98.5146 156.292 97.4198C156.033 96.325 155.796 95.3318 155.581 94.4401H155.378C155.141 95.2979 154.876 96.2799 154.582 97.386C154.3 98.4921 154.024 99.4909 153.753 100.383Z" fill="white" fill-opacity="0.87"/>
<path d="M299.111 114.09C300.111 115.68 345.611 116.18 347.111 114.09C348.611 112 343.38 68.9603 323.111 70.4535C303.715 71.8823 298.111 112.5 299.111 114.09Z" fill="#C4C4C4"/>
<path d="M314.383 55.1808C318.473 60.6339 327.748 60.6339 331.838 55.1808C334.905 51.0909 334.905 46.1797 331.838 42.0899C327.748 36.6367 318.473 36.6367 314.383 42.0899C311.316 46.1797 311.316 51.0909 314.383 55.1808Z" fill="#C4C4C4"/>
<path d="M299.111 114.09C300.111 115.68 345.611 116.18 347.111 114.09C348.611 112 343.38 68.9603 323.111 70.4535C303.715 71.8823 298.111 112.5 299.111 114.09Z" stroke="#D7D9DC" stroke-width="4.36364"/>
<path d="M314.383 55.1808C318.473 60.6339 327.748 60.6339 331.838 55.1808C334.905 51.0909 334.905 46.1797 331.838 42.0899C327.748 36.6367 318.473 36.6367 314.383 42.0899C311.316 46.1797 311.316 51.0909 314.383 55.1808Z" stroke="#D7D9DC" stroke-width="4.36364"/>
</svg>
