<svg width="392" height="155" viewBox="0 0 392 155" fill="none" xmlns="http://www.w3.org/2000/svg">
<rect width="392" height="155" rx="20" fill="black" fill-opacity="0.25"/>
<path d="M30.64 44.9074C31.2156 44.8058 31.842 44.7381 32.5192 44.7042C33.2077 44.6704 33.8002 44.6534 34.2969 44.6534C34.7935 44.6534 35.3465 44.6704 35.956 44.7042C36.5655 44.7381 37.158 44.8058 37.7337 44.9074L39.7314 53.1862C39.7766 53.3893 39.8499 53.7392 39.9515 54.2359C40.0644 54.7325 40.1885 55.2968 40.324 55.9289C40.4594 56.5609 40.5836 57.1817 40.6964 57.7912C40.8206 58.4006 40.9165 58.9198 40.9842 59.3487H41.2213C41.289 58.9198 41.3849 58.4006 41.5091 57.7912C41.6332 57.1817 41.7574 56.5609 41.8815 55.9289C42.017 55.2968 42.1411 54.7325 42.254 54.2359C42.3669 53.7392 42.4459 53.3893 42.491 53.1862L44.4888 44.9074C45.0644 44.8058 45.6513 44.7381 46.2495 44.7042C46.859 44.6704 47.412 44.6534 47.9086 44.6534C48.4053 44.6534 48.9978 44.6704 49.6863 44.7042C50.3748 44.7381 51.0012 44.8058 51.5655 44.9074L53.3601 67.9323C52.9764 68.0339 52.5305 68.1016 52.0226 68.1354C51.526 68.1806 51.0576 68.2032 50.6175 68.2032C50.2111 68.2032 49.8105 68.1919 49.4154 68.1693C49.0317 68.1467 48.6423 68.1016 48.2472 68.0339L47.7393 58.6038C47.6716 57.4074 47.6095 56.0869 47.5531 54.6422C47.4967 53.1975 47.4685 51.9221 47.4685 50.816H47.2314L43.8962 64.5971C43.4899 64.6648 43.0158 64.7156 42.4741 64.7494C41.9323 64.772 41.4696 64.7833 41.0858 64.7833C40.7472 64.7833 40.3014 64.772 39.7483 64.7494C39.1953 64.7156 38.7156 64.6648 38.3093 64.5971L34.9741 50.816H34.754C34.7427 51.9221 34.7088 53.1975 34.6524 54.6422C34.6072 56.0869 34.5508 57.4074 34.4831 58.6038L33.9583 68.0339C33.5745 68.1016 33.1851 68.1467 32.7901 68.1693C32.395 68.1919 31.9944 68.2032 31.588 68.2032C31.1592 68.2032 30.6908 68.1806 30.1829 68.1354C29.6862 68.1016 29.2404 68.0339 28.8454 67.9323L30.64 44.9074ZM57.7114 49.3431C58.1403 49.2528 58.6256 49.1963 59.1674 49.1738C59.7092 49.1512 60.1381 49.1399 60.4541 49.1399C60.7927 49.1399 61.199 49.1512 61.6731 49.1738C62.1584 49.1963 62.6268 49.2528 63.0782 49.3431V68C62.6268 68.079 62.1584 68.1298 61.6731 68.1524C61.199 68.1862 60.7927 68.2032 60.4541 68.2032C60.1381 68.2032 59.7092 68.1862 59.1674 68.1524C58.6256 68.1298 58.1403 68.079 57.7114 68V49.3431ZM82.1979 63.7506C82.1979 65.3646 81.9439 66.4876 81.436 67.1196C80.9394 67.7517 80.0929 68.0677 78.8965 68.0677H71.0917C70.1324 68.0677 69.3761 67.7968 68.8231 67.2551C68.27 66.702 67.9935 65.9627 67.9935 65.0372V49.5293L68.1798 49.3431H81.5714C81.6504 49.7268 81.6956 50.0936 81.7069 50.4435C81.7182 50.7934 81.7238 51.1264 81.7238 51.4424C81.7238 51.7471 81.6899 52.0914 81.6222 52.4751C81.5658 52.8589 81.4642 53.2483 81.3175 53.6433H75.392C74.9179 53.6433 74.2012 53.6377 73.2418 53.6264C73.2531 53.9763 73.2588 54.2754 73.2588 54.5237C73.2701 54.772 73.2757 55.0711 73.2757 55.421V56.5383C74.2125 56.5271 74.9179 56.5214 75.392 56.5214H79.7261C79.8389 56.8262 79.9123 57.176 79.9462 57.5711C79.9913 57.9548 80.0139 58.2821 80.0139 58.553C80.0139 58.869 79.9913 59.2246 79.9462 59.6196C79.9123 60.0034 79.8389 60.3533 79.7261 60.6693H75.392C75.1775 60.6693 74.8784 60.6693 74.4947 60.6693C74.1109 60.6693 73.7046 60.6693 73.2757 60.6693V61.7697C73.2757 62.1873 73.2701 62.5316 73.2588 62.8025C73.2475 63.0733 73.2418 63.412 73.2418 63.8183V63.8521C73.6369 63.8296 74.0037 63.807 74.3423 63.7844C74.6809 63.7618 75.0929 63.7506 75.5782 63.7506H82.1979ZM87.0676 49.3431C87.6094 49.2415 88.2019 49.1738 88.8453 49.1399C89.4886 49.0948 90.0304 49.0722 90.4706 49.0722C90.8882 49.0722 91.4299 49.0948 92.0959 49.1399C92.7618 49.1738 93.3205 49.2415 93.7719 49.3431L95.4311 56.6907C95.5327 57.1309 95.6512 57.7291 95.7866 58.4853C95.9221 59.2302 96.0575 60.0316 96.1929 60.8894H96.413C96.6839 59.0835 96.9379 57.6839 97.1749 56.6907L98.8171 49.3431C99.3476 49.2415 99.9288 49.1738 100.561 49.1399C101.193 49.0948 101.718 49.0722 102.135 49.0722C102.576 49.0722 103.123 49.0948 103.778 49.1399C104.432 49.1738 105.019 49.2415 105.538 49.3431L107.451 67.9323C106.718 68.1129 105.832 68.2032 104.793 68.2032C104.398 68.2032 103.975 68.1862 103.524 68.1524C103.083 68.1185 102.688 68.0677 102.339 68L101.848 62.0068C101.791 61.2393 101.757 60.3984 101.746 59.4842C101.735 58.5699 101.735 57.6783 101.746 56.8092C101.757 55.9289 101.757 55.167 101.746 54.5237H101.543L99.0541 65.1388C98.6704 65.2065 98.202 65.2573 97.6489 65.2912C97.0959 65.3138 96.6388 65.325 96.2776 65.325C95.9051 65.325 95.4424 65.3138 94.8893 65.2912C94.3476 65.2573 93.8961 65.2065 93.5349 65.1388L91.0631 54.5237H90.8261C90.8261 55.1783 90.8261 55.9401 90.8261 56.8092C90.8374 57.6783 90.8374 58.5699 90.8261 59.4842C90.8148 60.3984 90.7753 61.2505 90.7076 62.0406L90.2674 68C89.9062 68.0677 89.5112 68.1185 89.0823 68.1524C88.6647 68.1862 88.2584 68.2032 87.8633 68.2032C86.8137 68.2032 85.9107 68.1129 85.1545 67.9323L87.0676 49.3431ZM111.795 49.3092C112.381 49.2866 113.087 49.2641 113.911 49.2415C114.746 49.2189 115.604 49.202 116.484 49.1907C117.365 49.1794 118.172 49.1738 118.905 49.1738C120.293 49.1738 121.535 49.3318 122.63 49.6478C123.736 49.9638 124.605 50.4887 125.237 51.2223C125.869 51.9446 126.185 52.9153 126.185 54.1343C126.185 54.9243 125.965 55.6749 125.525 56.386C125.096 57.097 124.503 57.5993 123.747 57.8927C124.718 58.1975 125.53 58.7957 126.185 59.6873C126.84 60.5677 127.167 61.5214 127.167 62.5485C127.167 63.9932 126.828 65.1219 126.151 65.9345C125.485 66.7359 124.56 67.3059 123.375 67.6445C122.201 67.9718 120.858 68.1354 119.345 68.1354C118.183 68.1354 116.975 68.1242 115.722 68.1016C114.469 68.0903 113.16 68.0677 111.795 68.0339L111.608 67.8646V49.5124L111.795 49.3092ZM118.668 52.8137C118.454 52.8137 118.166 52.8137 117.805 52.8137C117.444 52.8137 117.099 52.8024 116.772 52.7799V56.4198H118.634C119.537 56.4198 120.152 56.2336 120.48 55.8611C120.807 55.4887 120.971 55.0711 120.971 54.6083C120.971 54.1568 120.807 53.7449 120.48 53.3724C120.164 53 119.56 52.8137 118.668 52.8137ZM116.772 64.4955C117.223 64.4729 117.664 64.4616 118.093 64.4616C118.521 64.4616 118.911 64.4616 119.261 64.4616C120.288 64.4616 120.965 64.2302 121.292 63.7675C121.631 63.2934 121.8 62.8081 121.8 62.3115C121.8 61.7697 121.597 61.2618 121.191 60.7878C120.796 60.3137 120.062 60.0767 118.99 60.0767H116.772V64.4955ZM145.924 55.0146C145.924 55.8837 145.726 56.6569 145.331 57.3341C144.936 58.0113 144.44 58.5699 143.842 59.0101C143.255 59.4503 142.668 59.7325 142.081 59.8566C142.69 60.0598 143.193 60.3702 143.588 60.7878C143.994 61.2054 144.344 61.7415 144.637 62.3961L145.518 64.4108C145.721 64.8736 145.952 65.3025 146.212 65.6975C146.471 66.0813 146.759 66.4086 147.075 66.6795C146.748 67.0858 146.257 67.4639 145.602 67.8138C144.948 68.1524 144.237 68.3217 143.469 68.3217C142.713 68.3217 142.098 68.1411 141.624 67.7799C141.161 67.4074 140.755 66.8149 140.405 66.0023L138.915 62.5824C138.678 62.0293 138.384 61.6964 138.035 61.5835C137.685 61.4706 137.233 61.4142 136.68 61.4142H136.02V68C135.568 68.079 135.1 68.1298 134.615 68.1524C134.141 68.1862 133.734 68.2032 133.396 68.2032C133.08 68.2032 132.662 68.1862 132.143 68.1524C131.624 68.1298 131.15 68.079 130.721 68V49.5124L130.907 49.3092C132.273 49.2753 133.554 49.2471 134.75 49.2245C135.958 49.1907 137.16 49.1738 138.356 49.1738C139.711 49.1738 140.963 49.3543 142.115 49.7155C143.266 50.0654 144.186 50.6693 144.874 51.527C145.574 52.3735 145.924 53.5361 145.924 55.0146ZM136.02 53V57.3848C136.415 57.3736 136.776 57.3679 137.103 57.3679C137.442 57.3566 137.69 57.351 137.848 57.351C138.864 57.351 139.553 57.1309 139.914 56.6907C140.275 56.2505 140.456 55.737 140.456 55.1501C140.456 54.5745 140.275 54.0778 139.914 53.6602C139.553 53.2426 138.949 53.0338 138.102 53.0338C137.696 53.0338 137.346 53.0282 137.053 53.0169C136.759 53.0056 136.415 53 136.02 53ZM148.429 58.7054C148.429 55.6806 149.208 53.2821 150.765 51.5101C152.334 49.7268 154.62 48.8352 157.622 48.8352C160.669 48.8352 162.966 49.7212 164.512 51.4932C166.07 53.2539 166.849 55.658 166.849 58.7054C166.849 61.7528 166.07 64.1512 164.512 65.9007C162.955 67.6388 160.658 68.5079 157.622 68.5079C154.574 68.5079 152.278 67.6275 150.731 65.8668C149.196 64.1061 148.429 61.7189 148.429 58.7054ZM153.897 58.7054C153.897 59.3487 153.937 60.0146 154.016 60.7031C154.106 61.3803 154.275 62.0124 154.524 62.5993C154.783 63.1862 155.161 63.6659 155.658 64.0384C156.155 64.3995 156.815 64.5801 157.639 64.5801C158.463 64.5801 159.123 64.3995 159.62 64.0384C160.116 63.6659 160.489 63.1862 160.737 62.5993C160.997 62.0124 161.166 61.3803 161.245 60.7031C161.335 60.0146 161.38 59.3487 161.38 58.7054C161.38 58.0508 161.335 57.3792 161.245 56.6907C161.166 55.9909 160.997 55.3476 160.737 54.7607C160.489 54.1625 160.116 53.6828 159.62 53.3216C159.123 52.9492 158.463 52.7629 157.639 52.7629C156.815 52.7629 156.155 52.9492 155.658 53.3216C155.161 53.6828 154.783 54.1625 154.524 54.7607C154.275 55.3476 154.106 55.9909 154.016 56.6907C153.937 57.3792 153.897 58.0508 153.897 58.7054ZM168.523 66.5948C168.523 66.1659 168.608 65.6919 168.777 65.1727C168.946 64.6422 169.178 64.1512 169.471 63.6998C169.764 63.2483 170.086 62.9097 170.436 62.684C171.271 63.1354 172.202 63.5248 173.23 63.8521C174.257 64.1682 175.261 64.3262 176.243 64.3262C176.875 64.3262 177.394 64.1964 177.801 63.9368C178.218 63.6772 178.427 63.3104 178.427 62.8363C178.427 62.5316 178.309 62.2551 178.072 62.0068C177.834 61.7472 177.423 61.5101 176.836 61.2957L174.025 60.1952C173.156 59.8792 172.344 59.4842 171.587 59.0101C170.831 58.5361 170.222 57.9548 169.759 57.2663C169.296 56.5778 169.065 55.7539 169.065 54.7945C169.065 53.0338 169.742 51.6004 171.096 50.4943C172.451 49.3882 174.274 48.8352 176.565 48.8352C177.863 48.8352 179.149 48.9875 180.425 49.2923C181.711 49.5857 182.789 49.9243 183.658 50.3081C183.658 51.0756 183.5 51.8318 183.184 52.5767C182.868 53.3216 182.434 53.9085 181.881 54.3374C181.046 53.965 180.137 53.6546 179.155 53.4063C178.173 53.1467 177.287 53.0169 176.497 53.0169C175.91 53.0169 175.459 53.141 175.143 53.3893C174.838 53.6377 174.686 53.9368 174.686 54.2866C174.686 54.614 174.838 54.8623 175.143 55.0316C175.447 55.2009 175.825 55.3702 176.277 55.5395L179.07 56.6061C180.628 57.1704 181.864 57.9492 182.778 58.9424C183.704 59.9244 184.166 61.1377 184.166 62.5824C184.166 63.8578 183.822 64.9357 183.134 65.816C182.456 66.6964 181.525 67.3623 180.34 67.8138C179.166 68.2652 177.84 68.4966 176.362 68.5079C174.601 68.5079 173.032 68.3047 171.655 67.8984C170.289 67.4921 169.245 67.0576 168.523 66.5948ZM209.734 55.7426C209.734 57.2099 209.401 58.4289 208.735 59.3995C208.08 60.3589 207.177 61.0756 206.026 61.5496C204.875 62.0124 203.565 62.2438 202.098 62.2438H200.253V68C199.801 68.079 199.339 68.1298 198.865 68.1524C198.391 68.1862 197.984 68.2032 197.646 68.2032C197.33 68.2032 196.901 68.1862 196.359 68.1524C195.817 68.1298 195.332 68.079 194.903 68V49.5124L195.089 49.3092C196.003 49.2866 197.104 49.2584 198.391 49.2245C199.677 49.1907 200.913 49.1738 202.098 49.1738C203.577 49.1738 204.892 49.3995 206.043 49.851C207.194 50.3024 208.097 51.0135 208.752 51.9842C209.406 52.9548 209.734 54.2076 209.734 55.7426ZM200.253 53.1354V58.316C200.558 58.3047 200.834 58.2991 201.082 58.2991C201.331 58.2878 201.517 58.2821 201.641 58.2821C202.386 58.2821 202.945 58.1467 203.317 57.8758C203.701 57.5936 203.955 57.255 204.079 56.86C204.203 56.4537 204.265 56.0699 204.265 55.7088C204.265 55.3702 204.203 55.0033 204.079 54.6083C203.955 54.2133 203.701 53.8747 203.317 53.5925C202.945 53.3103 202.386 53.1693 201.641 53.1693C201.359 53.1693 201.156 53.1693 201.032 53.1693C200.907 53.158 200.648 53.1467 200.253 53.1354ZM211.619 58.7054C211.619 55.6806 212.398 53.2821 213.955 51.5101C215.524 49.7268 217.81 48.8352 220.812 48.8352C223.859 48.8352 226.156 49.7212 227.703 51.4932C229.26 53.2539 230.039 55.658 230.039 58.7054C230.039 61.7528 229.26 64.1512 227.703 65.9007C226.145 67.6388 223.848 68.5079 220.812 68.5079C217.765 68.5079 215.468 67.6275 213.921 65.8668C212.386 64.1061 211.619 61.7189 211.619 58.7054ZM217.087 58.7054C217.087 59.3487 217.127 60.0146 217.206 60.7031C217.296 61.3803 217.465 62.0124 217.714 62.5993C217.973 63.1862 218.352 63.6659 218.848 64.0384C219.345 64.3995 220.005 64.5801 220.829 64.5801C221.653 64.5801 222.313 64.3995 222.81 64.0384C223.306 63.6659 223.679 63.1862 223.927 62.5993C224.187 62.0124 224.356 61.3803 224.435 60.7031C224.525 60.0146 224.57 59.3487 224.57 58.7054C224.57 58.0508 224.525 57.3792 224.435 56.6907C224.356 55.9909 224.187 55.3476 223.927 54.7607C223.679 54.1625 223.306 53.6828 222.81 53.3216C222.313 52.9492 221.653 52.7629 220.829 52.7629C220.005 52.7629 219.345 52.9492 218.848 53.3216C218.352 53.6828 217.973 54.1625 217.714 54.7607C217.465 55.3476 217.296 55.9909 217.206 56.6907C217.127 57.3792 217.087 58.0508 217.087 58.7054ZM248.728 55.0146C248.728 55.8837 248.53 56.6569 248.135 57.3341C247.74 58.0113 247.244 58.5699 246.645 59.0101C246.059 59.4503 245.472 59.7325 244.885 59.8566C245.494 60.0598 245.996 60.3702 246.392 60.7878C246.798 61.2054 247.148 61.7415 247.441 62.3961L248.322 64.4108C248.525 64.8736 248.756 65.3025 249.016 65.6975C249.275 66.0813 249.563 66.4086 249.879 66.6795C249.552 67.0858 249.061 67.4639 248.406 67.8138C247.752 68.1524 247.04 68.3217 246.273 68.3217C245.517 68.3217 244.902 68.1411 244.428 67.7799C243.965 67.4074 243.559 66.8149 243.209 66.0023L241.719 62.5824C241.482 62.0293 241.188 61.6964 240.838 61.5835C240.489 61.4706 240.037 61.4142 239.484 61.4142H238.824V68C238.372 68.079 237.904 68.1298 237.419 68.1524C236.945 68.1862 236.538 68.2032 236.2 68.2032C235.884 68.2032 235.466 68.1862 234.947 68.1524C234.428 68.1298 233.954 68.079 233.525 68V49.5124L233.711 49.3092C235.077 49.2753 236.358 49.2471 237.554 49.2245C238.762 49.1907 239.964 49.1738 241.16 49.1738C242.515 49.1738 243.767 49.3543 244.919 49.7155C246.07 50.0654 246.99 50.6693 247.678 51.527C248.378 52.3735 248.728 53.5361 248.728 55.0146ZM238.824 53V57.3848C239.219 57.3736 239.58 57.3679 239.907 57.3679C240.246 57.3566 240.494 57.351 240.652 57.351C241.668 57.351 242.357 57.1309 242.718 56.6907C243.079 56.2505 243.259 55.737 243.259 55.1501C243.259 54.5745 243.079 54.0778 242.718 53.6602C242.357 53.2426 241.753 53.0338 240.906 53.0338C240.5 53.0338 240.15 53.0282 239.856 53.0169C239.563 53.0056 239.219 53 238.824 53ZM43.6423 105.751C43.6423 107.365 43.3883 108.488 42.8804 109.12C42.3838 109.752 41.5373 110.068 40.3409 110.068H32.5361C31.5768 110.068 30.8206 109.797 30.2675 109.255C29.7145 108.702 29.4379 107.963 29.4379 107.037V91.5293L29.6242 91.3431H43.0158C43.0949 91.7268 43.14 92.0936 43.1513 92.4435C43.1626 92.7934 43.1682 93.1264 43.1682 93.4424C43.1682 93.7471 43.1344 94.0914 43.0666 94.4751C43.0102 94.8589 42.9086 95.2483 42.7619 95.6433H36.8364C36.3623 95.6433 35.6456 95.6377 34.6863 95.6264C34.6975 95.9763 34.7032 96.2754 34.7032 96.5237C34.7145 96.772 34.7201 97.0711 34.7201 97.421V98.5383C35.6569 98.5271 36.3623 98.5214 36.8364 98.5214H41.1705C41.2833 98.8262 41.3567 99.176 41.3906 99.5711C41.4357 99.9548 41.4583 100.282 41.4583 100.553C41.4583 100.869 41.4357 101.225 41.3906 101.62C41.3567 102.003 41.2833 102.353 41.1705 102.669H36.8364C36.6219 102.669 36.3228 102.669 35.9391 102.669C35.5553 102.669 35.149 102.669 34.7201 102.669V103.77C34.7201 104.187 34.7145 104.532 34.7032 104.802C34.6919 105.073 34.6863 105.412 34.6863 105.818V105.852C35.0813 105.83 35.4481 105.807 35.7867 105.784C36.1253 105.762 36.5373 105.751 37.0226 105.751H43.6423ZM60.4985 105.666C60.4308 107.314 60.143 108.465 59.6351 109.12C59.1272 109.774 58.2243 110.102 56.9263 110.102H50.3574C49.3868 110.102 48.6249 109.831 48.0719 109.289C47.5301 108.736 47.2592 107.997 47.2592 107.071V91.3769L47.4624 91.1738H49.494C50.5211 91.1738 51.2999 91.4334 51.8303 91.9525C52.3608 92.4604 52.626 93.3126 52.626 94.509V105.835C53.7886 105.722 54.8326 105.666 55.7581 105.666H60.4985ZM77.8661 105.751C77.8661 107.365 77.6122 108.488 77.1043 109.12C76.6077 109.752 75.7612 110.068 74.5648 110.068H66.76C65.8006 110.068 65.0444 109.797 64.4914 109.255C63.9383 108.702 63.6618 107.963 63.6618 107.037V91.5293L63.848 91.3431H77.2397C77.3187 91.7268 77.3639 92.0936 77.3752 92.4435C77.3864 92.7934 77.3921 93.1264 77.3921 93.4424C77.3921 93.7471 77.3582 94.0914 77.2905 94.4751C77.2341 94.8589 77.1325 95.2483 76.9858 95.6433H71.0602C70.5862 95.6433 69.8695 95.6377 68.9101 95.6264C68.9214 95.9763 68.9271 96.2754 68.9271 96.5237C68.9383 96.772 68.944 97.0711 68.944 97.421V98.5383C69.8808 98.5271 70.5862 98.5214 71.0602 98.5214H75.3943C75.5072 98.8262 75.5806 99.176 75.6144 99.5711C75.6596 99.9548 75.6822 100.282 75.6822 100.553C75.6822 100.869 75.6596 101.225 75.6144 101.62C75.5806 102.003 75.5072 102.353 75.3943 102.669H71.0602C70.8458 102.669 70.5467 102.669 70.163 102.669C69.7792 102.669 69.3729 102.669 68.944 102.669V103.77C68.944 104.187 68.9383 104.532 68.9271 104.802C68.9158 105.073 68.9101 105.412 68.9101 105.818V105.852C69.3052 105.83 69.672 105.807 70.0106 105.784C70.3492 105.762 70.7611 105.751 71.2465 105.751H77.8661ZM82.7359 91.3431C83.2777 91.2415 83.8702 91.1738 84.5136 91.1399C85.1569 91.0948 85.6987 91.0722 86.1389 91.0722C86.5565 91.0722 87.0982 91.0948 87.7641 91.1399C88.4301 91.1738 88.9887 91.2415 89.4402 91.3431L91.0994 98.6907C91.2009 99.1309 91.3195 99.7291 91.4549 100.485C91.5903 101.23 91.7258 102.032 91.8612 102.889H92.0813C92.3522 101.083 92.6061 99.6839 92.8432 98.6907L94.4854 91.3431C95.0159 91.2415 95.5971 91.1738 96.2292 91.1399C96.8612 91.0948 97.3861 91.0722 97.8037 91.0722C98.2439 91.0722 98.7913 91.0948 99.4459 91.1399C100.101 91.1738 100.687 91.2415 101.207 91.3431L103.12 109.932C102.386 110.113 101.5 110.203 100.462 110.203C100.067 110.203 99.6434 110.186 99.1919 110.152C98.7518 110.119 98.3567 110.068 98.0068 110L97.5159 104.007C97.4594 103.239 97.4256 102.398 97.4143 101.484C97.403 100.57 97.403 99.6783 97.4143 98.8092C97.4256 97.9289 97.4256 97.167 97.4143 96.5237H97.2111L94.7224 107.139C94.3387 107.207 93.8703 107.257 93.3172 107.291C92.7642 107.314 92.307 107.325 91.9459 107.325C91.5734 107.325 91.1107 107.314 90.5576 107.291C90.0158 107.257 89.5644 107.207 89.2032 107.139L86.7314 96.5237H86.4944C86.4944 97.1783 86.4944 97.9401 86.4944 98.8092C86.5057 99.6783 86.5057 100.57 86.4944 101.484C86.4831 102.398 86.4436 103.251 86.3759 104.041L85.9357 110C85.5745 110.068 85.1795 110.119 84.7506 110.152C84.333 110.186 83.9267 110.203 83.5316 110.203C82.482 110.203 81.579 110.113 80.8228 109.932L82.7359 91.3431ZM121.481 105.751C121.481 107.365 121.227 108.488 120.719 109.12C120.222 109.752 119.376 110.068 118.18 110.068H110.375C109.415 110.068 108.659 109.797 108.106 109.255C107.553 108.702 107.277 107.963 107.277 107.037V91.5293L107.463 91.3431H120.854C120.934 91.7268 120.979 92.0936 120.99 92.4435C121.001 92.7934 121.007 93.1264 121.007 93.4424C121.007 93.7471 120.973 94.0914 120.905 94.4751C120.849 94.8589 120.747 95.2483 120.601 95.6433H114.675C114.201 95.6433 113.484 95.6377 112.525 95.6264C112.536 95.9763 112.542 96.2754 112.542 96.5237C112.553 96.772 112.559 97.0711 112.559 97.421V98.5383C113.496 98.5271 114.201 98.5214 114.675 98.5214H119.009C119.122 98.8262 119.195 99.176 119.229 99.5711C119.274 99.9548 119.297 100.282 119.297 100.553C119.297 100.869 119.274 101.225 119.229 101.62C119.195 102.003 119.122 102.353 119.009 102.669H114.675C114.461 102.669 114.161 102.669 113.778 102.669C113.394 102.669 112.988 102.669 112.559 102.669V103.77C112.559 104.187 112.553 104.532 112.542 104.802C112.531 105.073 112.525 105.412 112.525 105.818V105.852C112.92 105.83 113.287 105.807 113.625 105.784C113.964 105.762 114.376 105.751 114.861 105.751H121.481ZM131.734 101.484C131.655 101.304 131.531 101.021 131.362 100.638C131.193 100.243 131.012 99.8194 130.82 99.3679C130.628 98.9164 130.448 98.4932 130.278 98.0982C130.12 97.7031 129.996 97.4153 129.906 97.2347L129.787 97.2855C129.833 98.1772 129.878 99.1422 129.923 100.181C129.968 101.208 130.002 102.15 130.025 103.008C130.058 103.854 130.075 104.47 130.075 104.853V110C129.635 110.079 129.212 110.13 128.806 110.152C128.399 110.186 128.021 110.203 127.671 110.203C127.355 110.203 126.96 110.186 126.486 110.152C126.023 110.13 125.583 110.079 125.166 110V91.4616C125.583 91.36 126.102 91.281 126.723 91.2245C127.344 91.1681 127.824 91.1399 128.162 91.1399C128.512 91.1399 129.009 91.1512 129.652 91.1738C130.295 91.185 130.826 91.2415 131.243 91.3431L135.222 99.825C135.301 99.983 135.431 100.271 135.611 100.688C135.803 101.106 136.006 101.563 136.221 102.06C136.435 102.556 136.633 103.025 136.813 103.465C137.005 103.894 137.146 104.21 137.237 104.413L137.389 104.379C137.344 103.634 137.282 102.765 137.203 101.772C137.135 100.779 137.073 99.8194 137.017 98.8939C136.96 97.9684 136.932 97.2291 136.932 96.676V94.0349C136.932 92.8386 137.192 92.0541 137.711 91.6817C138.23 91.2979 139.003 91.106 140.03 91.106H141.774L141.977 91.3431V109.898C141.537 110 141.006 110.073 140.386 110.119C139.765 110.175 139.291 110.203 138.964 110.203C138.738 110.203 138.427 110.198 138.032 110.186C137.637 110.175 137.231 110.158 136.813 110.135C136.407 110.113 136.069 110.068 135.798 110L131.734 101.484ZM149.701 97.6918C149.701 97.3307 149.707 96.9977 149.718 96.693C149.73 96.3769 149.735 96.027 149.735 95.6433C149.498 95.6433 149.171 95.6489 148.753 95.6602C148.347 95.6715 148.025 95.6772 147.788 95.6772H144.656C144.566 95.2708 144.51 94.8927 144.487 94.5428C144.464 94.1817 144.453 93.8544 144.453 93.5609C144.453 93.2674 144.464 92.9232 144.487 92.5282C144.51 92.1218 144.566 91.7268 144.656 91.3431H159.978C160.057 91.6478 160.113 91.992 160.147 92.3758C160.192 92.7595 160.215 93.0699 160.215 93.3069C160.215 94.0744 160.012 94.6614 159.606 95.0677C159.199 95.474 158.522 95.6772 157.574 95.6772H156.88C156.643 95.6772 156.327 95.6715 155.932 95.6602C155.548 95.6489 155.249 95.6433 155.034 95.6433C155.034 96.027 155.04 96.3769 155.051 96.693C155.063 96.9977 155.068 97.3307 155.068 97.6918V110C154.752 110.068 154.318 110.119 153.765 110.152C153.212 110.186 152.749 110.203 152.376 110.203C152.027 110.203 151.586 110.186 151.056 110.152C150.525 110.119 150.074 110.068 149.701 110V97.6918ZM160.763 100.705C160.763 97.6806 161.541 95.2821 163.099 93.5101C164.668 91.7268 166.953 90.8352 169.956 90.8352C173.003 90.8352 175.3 91.7212 176.846 93.4932C178.404 95.2539 179.183 97.658 179.183 100.705C179.183 103.753 178.404 106.151 176.846 107.901C175.289 109.639 172.992 110.508 169.956 110.508C166.908 110.508 164.611 109.628 163.065 107.867C161.53 106.106 160.763 103.719 160.763 100.705ZM166.231 100.705C166.231 101.349 166.271 102.015 166.35 102.703C166.44 103.38 166.609 104.012 166.857 104.599C167.117 105.186 167.495 105.666 167.992 106.038C168.488 106.4 169.149 106.58 169.973 106.58C170.797 106.58 171.457 106.4 171.953 106.038C172.45 105.666 172.822 105.186 173.071 104.599C173.33 104.012 173.5 103.38 173.579 102.703C173.669 102.015 173.714 101.349 173.714 100.705C173.714 100.051 173.669 99.3792 173.579 98.6907C173.5 97.9909 173.33 97.3476 173.071 96.7607C172.822 96.1625 172.45 95.6828 171.953 95.3216C171.457 94.9492 170.797 94.7629 169.973 94.7629C169.149 94.7629 168.488 94.9492 167.992 95.3216C167.495 95.6828 167.117 96.1625 166.857 96.7607C166.609 97.3476 166.44 97.9909 166.35 98.6907C166.271 99.3792 166.231 100.051 166.231 100.705Z" fill="white" fill-opacity="0.87"/>
<path d="M305.181 108.825C305.901 110.577 338.684 111.127 339.765 108.825C340.846 106.523 337.077 59.1078 322.473 60.7527C308.498 62.3268 304.46 107.074 305.181 108.825Z" fill="white" fill-opacity="0.87"/>
<path d="M305.181 108.825C305.901 110.577 338.684 111.127 339.765 108.825C340.846 106.523 337.077 59.1078 322.473 60.7527C308.498 62.3268 304.46 107.074 305.181 108.825Z" fill="url(#paint0_linear)"/>
<path d="M316.185 43.9274C319.132 49.9349 325.814 49.9349 328.761 43.9274C330.971 39.4217 330.971 34.0113 328.761 29.5056C325.814 23.4981 319.132 23.4981 316.185 29.5056C313.975 34.0113 313.975 39.4217 316.185 43.9274Z" fill="white" fill-opacity="0.87"/>
<path d="M316.185 43.9274C319.132 49.9349 325.814 49.9349 328.761 43.9274C330.971 39.4217 330.971 34.0113 328.761 29.5056C325.814 23.4981 319.132 23.4981 316.185 29.5056C313.975 34.0113 313.975 39.4217 316.185 43.9274Z" fill="url(#paint1_linear)"/>
<path d="M305.181 108.825C305.901 110.577 338.684 111.127 339.765 108.825C340.846 106.523 337.077 59.1078 322.473 60.7527C308.498 62.3268 304.46 107.074 305.181 108.825Z" stroke="#C4C4C4" stroke-width="4.36364"/>
<path d="M316.185 43.9274C319.132 49.9349 325.814 49.9349 328.761 43.9274C330.971 39.4217 330.971 34.0113 328.761 29.5056C325.814 23.4981 319.132 23.4981 316.185 29.5056C313.975 34.0113 313.975 39.4217 316.185 43.9274Z" stroke="#C4C4C4" stroke-width="4.36364"/>
<path d="M275.08 128.473C275.8 130.224 308.583 130.775 309.664 128.473C310.745 126.171 306.976 78.7555 292.372 80.4004C278.397 81.9745 274.359 126.721 275.08 128.473Z" fill="white" fill-opacity="0.87"/>
<path d="M275.08 128.473C275.8 130.224 308.583 130.775 309.664 128.473C310.745 126.171 306.976 78.7555 292.372 80.4004C278.397 81.9745 274.359 126.721 275.08 128.473Z" fill="url(#paint2_linear)"/>
<path d="M286.084 63.5751C289.031 69.5826 295.713 69.5826 298.66 63.5751C300.87 59.0694 300.87 53.659 298.66 49.1533C295.713 43.1458 289.031 43.1458 286.084 49.1533C283.874 53.659 283.874 59.0694 286.084 63.5751Z" fill="white" fill-opacity="0.87"/>
<path d="M286.084 63.5751C289.031 69.5826 295.713 69.5826 298.66 63.5751C300.87 59.0694 300.87 53.659 298.66 49.1533C295.713 43.1458 289.031 43.1458 286.084 49.1533C283.874 53.659 283.874 59.0694 286.084 63.5751Z" fill="url(#paint3_linear)"/>
<path d="M275.08 128.473C275.8 130.224 308.583 130.775 309.664 128.473C310.745 126.171 306.976 78.7555 292.372 80.4004C278.397 81.9745 274.359 126.721 275.08 128.473Z" stroke="#C4C4C4" stroke-width="4.36364"/>
<path d="M286.084 63.5751C289.031 69.5826 295.713 69.5826 298.66 63.5751C300.87 59.0694 300.87 53.659 298.66 49.1533C295.713 43.1458 289.031 43.1458 286.084 49.1533C283.874 53.659 283.874 59.0694 286.084 63.5751Z" stroke="#C4C4C4" stroke-width="4.36364"/>
<path d="M336.243 128.473C336.963 130.224 369.746 130.775 370.827 128.473C371.908 126.171 368.139 78.7555 353.535 80.4004C339.56 81.9745 335.522 126.721 336.243 128.473Z" fill="white" fill-opacity="0.87"/>
<path d="M336.243 128.473C336.963 130.224 369.746 130.775 370.827 128.473C371.908 126.171 368.139 78.7555 353.535 80.4004C339.56 81.9745 335.522 126.721 336.243 128.473Z" fill="url(#paint4_linear)"/>
<path d="M347.247 63.5751C350.194 69.5826 356.876 69.5826 359.823 63.5751C362.033 59.0694 362.033 53.659 359.823 49.1533C356.876 43.1458 350.194 43.1458 347.247 49.1533C345.037 53.659 345.037 59.0694 347.247 63.5751Z" fill="white" fill-opacity="0.87"/>
<path d="M347.247 63.5751C350.194 69.5826 356.876 69.5826 359.823 63.5751C362.033 59.0694 362.033 53.659 359.823 49.1533C356.876 43.1458 350.194 43.1458 347.247 49.1533C345.037 53.659 345.037 59.0694 347.247 63.5751Z" fill="url(#paint5_linear)"/>
<path d="M336.243 128.473C336.963 130.224 369.746 130.775 370.827 128.473C371.908 126.171 368.139 78.7555 353.535 80.4004C339.56 81.9745 335.522 126.721 336.243 128.473Z" stroke="#C4C4C4" stroke-width="4.36364"/>
<path d="M347.247 63.5751C350.194 69.5826 356.876 69.5826 359.823 63.5751C362.033 59.0694 362.033 53.659 359.823 49.1533C356.876 43.1458 350.194 43.1458 347.247 49.1533C345.037 53.659 345.037 59.0694 347.247 63.5751Z" stroke="#C4C4C4" stroke-width="4.36364"/>
<defs>
<linearGradient id="paint0_linear" x1="322.52" y1="25" x2="322.52" y2="110.352" gradientUnits="userSpaceOnUse">
<stop stop-color="white" stop-opacity="0"/>
<stop offset="0.890625" stop-color="#546886"/>
</linearGradient>
<linearGradient id="paint1_linear" x1="322.52" y1="25" x2="322.52" y2="110.352" gradientUnits="userSpaceOnUse">
<stop stop-color="white" stop-opacity="0"/>
<stop offset="0.890625" stop-color="#546886"/>
</linearGradient>
<linearGradient id="paint2_linear" x1="292.419" y1="44.6477" x2="292.419" y2="130" gradientUnits="userSpaceOnUse">
<stop stop-color="white" stop-opacity="0"/>
<stop offset="0.890625" stop-color="#546886"/>
</linearGradient>
<linearGradient id="paint3_linear" x1="292.419" y1="44.6477" x2="292.419" y2="130" gradientUnits="userSpaceOnUse">
<stop stop-color="white" stop-opacity="0"/>
<stop offset="0.890625" stop-color="#546886"/>
</linearGradient>
<linearGradient id="paint4_linear" x1="353.582" y1="44.6477" x2="353.582" y2="130" gradientUnits="userSpaceOnUse">
<stop stop-color="white" stop-opacity="0"/>
<stop offset="0.890625" stop-color="#546886"/>
</linearGradient>
<linearGradient id="paint5_linear" x1="353.582" y1="44.6477" x2="353.582" y2="130" gradientUnits="userSpaceOnUse">
<stop stop-color="white" stop-opacity="0"/>
<stop offset="0.890625" stop-color="#546886"/>
</linearGradient>
</defs>
</svg>
