<svg width="286" height="67" viewBox="0 0 286 67" fill="none" xmlns="http://www.w3.org/2000/svg">
<rect width="286" height="67" rx="10" fill="#1EBCBC"/>
<path d="M71.4696 21.448C72.0816 21.34 72.7476 21.268 73.4676 21.232C74.1996 21.196 74.8296 21.178 75.3576 21.178C75.8856 21.178 76.4736 21.196 77.1216 21.232C77.7696 21.268 78.3996 21.34 79.0116 21.448L81.1356 30.25C81.1836 30.466 81.2616 30.838 81.3696 31.366C81.4896 31.894 81.6216 32.494 81.7656 33.166C81.9096 33.838 82.0416 34.498 82.1616 35.146C82.2936 35.794 82.3956 36.346 82.4676 36.802H82.7196C82.7916 36.346 82.8936 35.794 83.0256 35.146C83.1576 34.498 83.2896 33.838 83.4216 33.166C83.5656 32.494 83.6976 31.894 83.8176 31.366C83.9376 30.838 84.0216 30.466 84.0696 30.25L86.1936 21.448C86.8056 21.34 87.4296 21.268 88.0656 21.232C88.7136 21.196 89.3016 21.178 89.8296 21.178C90.3576 21.178 90.9876 21.196 91.7196 21.232C92.4516 21.268 93.1176 21.34 93.7176 21.448L95.6256 45.928C95.2176 46.036 94.7436 46.108 94.2036 46.144C93.6756 46.192 93.1776 46.216 92.7096 46.216C92.2776 46.216 91.8516 46.204 91.4316 46.18C91.0236 46.156 90.6096 46.108 90.1896 46.036L89.6496 36.01C89.5776 34.738 89.5116 33.334 89.4516 31.798C89.3916 30.262 89.3616 28.906 89.3616 27.73H89.1096L85.5636 42.382C85.1316 42.454 84.6276 42.508 84.0516 42.544C83.4756 42.568 82.9836 42.58 82.5756 42.58C82.2156 42.58 81.7416 42.568 81.1536 42.544C80.5656 42.508 80.0556 42.454 79.6236 42.382L76.0776 27.73H75.8436C75.8316 28.906 75.7956 30.262 75.7356 31.798C75.6876 33.334 75.6276 34.738 75.5556 36.01L74.9976 46.036C74.5896 46.108 74.1756 46.156 73.7556 46.18C73.3356 46.204 72.9096 46.216 72.4776 46.216C72.0216 46.216 71.5236 46.192 70.9836 46.144C70.4556 46.108 69.9816 46.036 69.5616 45.928L71.4696 21.448ZM100.252 26.164C100.708 26.068 101.224 26.008 101.8 25.984C102.376 25.96 102.832 25.948 103.168 25.948C103.528 25.948 103.96 25.96 104.464 25.984C104.98 26.008 105.478 26.068 105.958 26.164V46C105.478 46.084 104.98 46.138 104.464 46.162C103.96 46.198 103.528 46.216 103.168 46.216C102.832 46.216 102.376 46.198 101.8 46.162C101.224 46.138 100.708 46.084 100.252 46V26.164ZM126.286 41.482C126.286 43.198 126.016 44.392 125.476 45.064C124.948 45.736 124.048 46.072 122.776 46.072H114.478C113.458 46.072 112.654 45.784 112.066 45.208C111.478 44.62 111.184 43.834 111.184 42.85V26.362L111.382 26.164H125.62C125.704 26.572 125.752 26.962 125.764 27.334C125.776 27.706 125.782 28.06 125.782 28.396C125.782 28.72 125.746 29.086 125.674 29.494C125.614 29.902 125.506 30.316 125.35 30.736H119.05C118.546 30.736 117.784 30.73 116.764 30.718C116.776 31.09 116.782 31.408 116.782 31.672C116.794 31.936 116.8 32.254 116.8 32.626V33.814C117.796 33.802 118.546 33.796 119.05 33.796H123.658C123.778 34.12 123.856 34.492 123.892 34.912C123.94 35.32 123.964 35.668 123.964 35.956C123.964 36.292 123.94 36.67 123.892 37.09C123.856 37.498 123.778 37.87 123.658 38.206H119.05C118.822 38.206 118.504 38.206 118.096 38.206C117.688 38.206 117.256 38.206 116.8 38.206V39.376C116.8 39.82 116.794 40.186 116.782 40.474C116.77 40.762 116.764 41.122 116.764 41.554V41.59C117.184 41.566 117.574 41.542 117.934 41.518C118.294 41.494 118.732 41.482 119.248 41.482H126.286ZM131.463 26.164C132.039 26.056 132.669 25.984 133.353 25.948C134.037 25.9 134.613 25.876 135.081 25.876C135.525 25.876 136.101 25.9 136.809 25.948C137.517 25.984 138.111 26.056 138.591 26.164L140.355 33.976C140.463 34.444 140.589 35.08 140.733 35.884C140.877 36.676 141.021 37.528 141.165 38.44H141.399C141.687 36.52 141.957 35.032 142.209 33.976L143.955 26.164C144.519 26.056 145.137 25.984 145.809 25.948C146.481 25.9 147.039 25.876 147.483 25.876C147.951 25.876 148.533 25.9 149.229 25.948C149.925 25.984 150.549 26.056 151.101 26.164L153.135 45.928C152.355 46.12 151.413 46.216 150.309 46.216C149.889 46.216 149.439 46.198 148.959 46.162C148.491 46.126 148.071 46.072 147.699 46L147.177 39.628C147.117 38.812 147.081 37.918 147.069 36.946C147.057 35.974 147.057 35.026 147.069 34.102C147.081 33.166 147.081 32.356 147.069 31.672H146.853L144.207 42.958C143.799 43.03 143.301 43.084 142.713 43.12C142.125 43.144 141.639 43.156 141.255 43.156C140.859 43.156 140.367 43.144 139.779 43.12C139.203 43.084 138.723 43.03 138.339 42.958L135.711 31.672H135.459C135.459 32.368 135.459 33.178 135.459 34.102C135.471 35.026 135.471 35.974 135.459 36.946C135.447 37.918 135.405 38.824 135.333 39.664L134.865 46C134.481 46.072 134.061 46.126 133.605 46.162C133.161 46.198 132.729 46.216 132.309 46.216C131.193 46.216 130.233 46.12 129.429 45.928L131.463 26.164ZM157.753 26.128C158.377 26.104 159.127 26.08 160.003 26.056C160.891 26.032 161.803 26.014 162.739 26.002C163.675 25.99 164.533 25.984 165.313 25.984C166.789 25.984 168.109 26.152 169.273 26.488C170.449 26.824 171.373 27.382 172.045 28.162C172.717 28.93 173.053 29.962 173.053 31.258C173.053 32.098 172.819 32.896 172.351 33.652C171.895 34.408 171.265 34.942 170.461 35.254C171.493 35.578 172.357 36.214 173.053 37.162C173.749 38.098 174.097 39.112 174.097 40.204C174.097 41.74 173.737 42.94 173.017 43.804C172.309 44.656 171.325 45.262 170.065 45.622C168.817 45.97 167.389 46.144 165.781 46.144C164.545 46.144 163.261 46.132 161.929 46.108C160.597 46.096 159.205 46.072 157.753 46.036L157.555 45.856V26.344L157.753 26.128ZM165.061 29.854C164.833 29.854 164.527 29.854 164.143 29.854C163.759 29.854 163.393 29.842 163.045 29.818V33.688H165.025C165.985 33.688 166.639 33.49 166.987 33.094C167.335 32.698 167.509 32.254 167.509 31.762C167.509 31.282 167.335 30.844 166.987 30.448C166.651 30.052 166.009 29.854 165.061 29.854ZM163.045 42.274C163.525 42.25 163.993 42.238 164.449 42.238C164.905 42.238 165.319 42.238 165.691 42.238C166.783 42.238 167.503 41.992 167.851 41.5C168.211 40.996 168.391 40.48 168.391 39.952C168.391 39.376 168.175 38.836 167.743 38.332C167.323 37.828 166.543 37.576 165.403 37.576H163.045V42.274ZM194.039 32.194C194.039 33.118 193.829 33.94 193.409 34.66C192.989 35.38 192.461 35.974 191.825 36.442C191.201 36.91 190.577 37.21 189.953 37.342C190.601 37.558 191.135 37.888 191.555 38.332C191.987 38.776 192.359 39.346 192.671 40.042L193.607 42.184C193.823 42.676 194.069 43.132 194.345 43.552C194.621 43.96 194.927 44.308 195.263 44.596C194.915 45.028 194.393 45.43 193.697 45.802C193.001 46.162 192.245 46.342 191.429 46.342C190.625 46.342 189.971 46.15 189.467 45.766C188.975 45.37 188.543 44.74 188.171 43.876L186.587 40.24C186.335 39.652 186.023 39.298 185.651 39.178C185.279 39.058 184.799 38.998 184.211 38.998H183.509V46C183.029 46.084 182.531 46.138 182.015 46.162C181.511 46.198 181.079 46.216 180.719 46.216C180.383 46.216 179.939 46.198 179.387 46.162C178.835 46.138 178.331 46.084 177.875 46V26.344L178.073 26.128C179.525 26.092 180.887 26.062 182.159 26.038C183.443 26.002 184.721 25.984 185.993 25.984C187.433 25.984 188.765 26.176 189.989 26.56C191.213 26.932 192.191 27.574 192.923 28.486C193.667 29.386 194.039 30.622 194.039 32.194ZM183.509 30.052V34.714C183.929 34.702 184.313 34.696 184.661 34.696C185.021 34.684 185.285 34.678 185.453 34.678C186.533 34.678 187.265 34.444 187.649 33.976C188.033 33.508 188.225 32.962 188.225 32.338C188.225 31.726 188.033 31.198 187.649 30.754C187.265 30.31 186.623 30.088 185.723 30.088C185.291 30.088 184.919 30.082 184.607 30.07C184.295 30.058 183.929 30.052 183.509 30.052ZM196.702 36.118C196.702 32.902 197.53 30.352 199.186 28.468C200.854 26.572 203.284 25.624 206.476 25.624C209.716 25.624 212.158 26.566 213.802 28.45C215.458 30.322 216.286 32.878 216.286 36.118C216.286 39.358 215.458 41.908 213.802 43.768C212.146 45.616 209.704 46.54 206.476 46.54C203.236 46.54 200.794 45.604 199.15 43.732C197.518 41.86 196.702 39.322 196.702 36.118ZM202.516 36.118C202.516 36.802 202.558 37.51 202.642 38.242C202.738 38.962 202.918 39.634 203.182 40.258C203.458 40.882 203.86 41.392 204.388 41.788C204.916 42.172 205.618 42.364 206.494 42.364C207.37 42.364 208.072 42.172 208.6 41.788C209.128 41.392 209.524 40.882 209.788 40.258C210.064 39.634 210.244 38.962 210.328 38.242C210.424 37.51 210.472 36.802 210.472 36.118C210.472 35.422 210.424 34.708 210.328 33.976C210.244 33.232 210.064 32.548 209.788 31.924C209.524 31.288 209.128 30.778 208.6 30.394C208.072 29.998 207.37 29.8 206.494 29.8C205.618 29.8 204.916 29.998 204.388 30.394C203.86 30.778 203.458 31.288 203.182 31.924C202.918 32.548 202.738 33.232 202.642 33.976C202.558 34.708 202.516 35.422 202.516 36.118Z" fill="white"/>
</svg>
