<svg width="254" height="102" viewBox="0 0 254 102" fill="none" xmlns="http://www.w3.org/2000/svg">
<rect opacity="0.5" width="253" height="101.083" rx="10" fill="#DBDADA"/>
<path d="M31.0868 37.448C31.6988 37.34 32.3648 37.268 33.0848 37.232C33.8168 37.196 34.4468 37.178 34.9748 37.178C35.5028 37.178 36.0908 37.196 36.7388 37.232C37.3868 37.268 38.0168 37.34 38.6288 37.448L40.7528 46.25C40.8008 46.466 40.8788 46.838 40.9868 47.366C41.1068 47.894 41.2388 48.494 41.3828 49.166C41.5268 49.838 41.6588 50.498 41.7788 51.146C41.9108 51.794 42.0128 52.346 42.0848 52.802H42.3368C42.4088 52.346 42.5108 51.794 42.6428 51.146C42.7748 50.498 42.9068 49.838 43.0388 49.166C43.1828 48.494 43.3148 47.894 43.4348 47.366C43.5548 46.838 43.6388 46.466 43.6868 46.25L45.8108 37.448C46.4228 37.34 47.0468 37.268 47.6828 37.232C48.3308 37.196 48.9188 37.178 49.4468 37.178C49.9748 37.178 50.6048 37.196 51.3368 37.232C52.0688 37.268 52.7348 37.34 53.3348 37.448L55.2428 61.928C54.8348 62.036 54.3608 62.108 53.8208 62.144C53.2928 62.192 52.7948 62.216 52.3268 62.216C51.8948 62.216 51.4688 62.204 51.0488 62.18C50.6408 62.156 50.2268 62.108 49.8068 62.036L49.2668 52.01C49.1948 50.738 49.1288 49.334 49.0688 47.798C49.0088 46.262 48.9788 44.906 48.9788 43.73H48.7268L45.1808 58.382C44.7488 58.454 44.2448 58.508 43.6688 58.544C43.0928 58.568 42.6008 58.58 42.1928 58.58C41.8328 58.58 41.3588 58.568 40.7708 58.544C40.1828 58.508 39.6728 58.454 39.2408 58.382L35.6948 43.73H35.4608C35.4488 44.906 35.4128 46.262 35.3528 47.798C35.3048 49.334 35.2448 50.738 35.1728 52.01L34.6148 62.036C34.2068 62.108 33.7928 62.156 33.3728 62.18C32.9528 62.204 32.5268 62.216 32.0948 62.216C31.6388 62.216 31.1408 62.192 30.6008 62.144C30.0728 62.108 29.5988 62.036 29.1788 61.928L31.0868 37.448ZM58.3391 52.118C58.3391 48.902 59.1671 46.352 60.8231 44.468C62.4911 42.572 64.9211 41.624 68.1131 41.624C71.3531 41.624 73.7951 42.566 75.4391 44.45C77.0951 46.322 77.9231 48.878 77.9231 52.118C77.9231 55.358 77.0951 57.908 75.4391 59.768C73.7831 61.616 71.3411 62.54 68.1131 62.54C64.8731 62.54 62.4311 61.604 60.7871 59.732C59.1551 57.86 58.3391 55.322 58.3391 52.118ZM64.1531 52.118C64.1531 52.802 64.1951 53.51 64.2791 54.242C64.3751 54.962 64.5551 55.634 64.8191 56.258C65.0951 56.882 65.4971 57.392 66.0251 57.788C66.5531 58.172 67.2551 58.364 68.1311 58.364C69.0071 58.364 69.7091 58.172 70.2371 57.788C70.7651 57.392 71.1611 56.882 71.4251 56.258C71.7011 55.634 71.8811 54.962 71.9651 54.242C72.0611 53.51 72.1091 52.802 72.1091 52.118C72.1091 51.422 72.0611 50.708 71.9651 49.976C71.8811 49.232 71.7011 48.548 71.4251 47.924C71.1611 47.288 70.7651 46.778 70.2371 46.394C69.7091 45.998 69.0071 45.8 68.1311 45.8C67.2551 45.8 66.5531 45.998 66.0251 46.394C65.4971 46.778 65.0951 47.288 64.8191 47.924C64.5551 48.548 64.3751 49.232 64.2791 49.976C64.1951 50.708 64.1531 51.422 64.1531 52.118ZM92.8532 42.164C93.2852 42.068 93.6632 42.008 93.9872 41.984C94.3232 41.96 94.6652 41.948 95.0132 41.948C95.4452 41.948 95.8952 41.972 96.3632 42.02C96.8432 42.068 97.3532 42.17 97.8932 42.326L98.1452 42.596L92.2412 62C91.7012 62.084 90.9932 62.138 90.1172 62.162C89.2412 62.198 88.4432 62.216 87.7232 62.216C86.7752 62.216 85.9712 62.066 85.3112 61.766C84.6632 61.454 84.1952 60.782 83.9072 59.75L78.7772 42.56C79.2692 42.356 79.7852 42.2 80.3252 42.092C80.8772 41.972 81.4412 41.912 82.0172 41.912C82.8812 41.912 83.5532 42.116 84.0332 42.524C84.5252 42.92 84.9152 43.61 85.2032 44.594L87.1292 51.038C87.4052 52.01 87.6512 53 87.8672 54.008C88.0952 55.016 88.3172 56.156 88.5332 57.428C88.5812 57.632 88.7012 57.734 88.8932 57.734L92.8532 42.164ZM100.932 42.164C101.388 42.068 101.904 42.008 102.48 41.984C103.056 41.96 103.512 41.948 103.848 41.948C104.208 41.948 104.64 41.96 105.144 41.984C105.66 42.008 106.158 42.068 106.638 42.164V62C106.158 62.084 105.66 62.138 105.144 62.162C104.64 62.198 104.208 62.216 103.848 62.216C103.512 62.216 103.056 62.198 102.48 62.162C101.904 62.138 101.388 62.084 100.932 62V42.164ZM113.123 42.164C113.699 42.056 114.329 41.984 115.013 41.948C115.697 41.9 116.273 41.876 116.741 41.876C117.185 41.876 117.761 41.9 118.469 41.948C119.177 41.984 119.771 42.056 120.251 42.164L122.015 49.976C122.123 50.444 122.249 51.08 122.393 51.884C122.537 52.676 122.681 53.528 122.825 54.44H123.059C123.347 52.52 123.617 51.032 123.869 49.976L125.615 42.164C126.179 42.056 126.797 41.984 127.469 41.948C128.141 41.9 128.699 41.876 129.143 41.876C129.611 41.876 130.193 41.9 130.889 41.948C131.585 41.984 132.209 42.056 132.761 42.164L134.795 61.928C134.015 62.12 133.073 62.216 131.969 62.216C131.549 62.216 131.099 62.198 130.619 62.162C130.151 62.126 129.731 62.072 129.359 62L128.837 55.628C128.777 54.812 128.741 53.918 128.729 52.946C128.717 51.974 128.717 51.026 128.729 50.102C128.741 49.166 128.741 48.356 128.729 47.672H128.513L125.867 58.958C125.459 59.03 124.961 59.084 124.373 59.12C123.785 59.144 123.299 59.156 122.915 59.156C122.519 59.156 122.027 59.144 121.439 59.12C120.863 59.084 120.383 59.03 119.999 58.958L117.371 47.672H117.119C117.119 48.368 117.119 49.178 117.119 50.102C117.131 51.026 117.131 51.974 117.119 52.946C117.107 53.918 117.065 54.824 116.993 55.664L116.525 62C116.141 62.072 115.721 62.126 115.265 62.162C114.821 62.198 114.389 62.216 113.969 62.216C112.853 62.216 111.893 62.12 111.089 61.928L113.123 42.164ZM139.287 42.164C139.743 42.068 140.259 42.008 140.835 41.984C141.411 41.96 141.867 41.948 142.203 41.948C142.563 41.948 142.995 41.96 143.499 41.984C144.015 42.008 144.513 42.068 144.993 42.164V62C144.513 62.084 144.015 62.138 143.499 62.162C142.995 62.198 142.563 62.216 142.203 62.216C141.867 62.216 141.411 62.198 140.835 62.162C140.259 62.138 139.743 62.084 139.287 62V42.164ZM165.321 57.482C165.321 59.198 165.051 60.392 164.511 61.064C163.983 61.736 163.083 62.072 161.811 62.072H153.513C152.493 62.072 151.689 61.784 151.101 61.208C150.513 60.62 150.219 59.834 150.219 58.85V42.362L150.417 42.164H164.655C164.739 42.572 164.787 42.962 164.799 43.334C164.811 43.706 164.817 44.06 164.817 44.396C164.817 44.72 164.781 45.086 164.709 45.494C164.649 45.902 164.541 46.316 164.385 46.736H158.085C157.581 46.736 156.819 46.73 155.799 46.718C155.811 47.09 155.817 47.408 155.817 47.672C155.829 47.936 155.835 48.254 155.835 48.626V49.814C156.831 49.802 157.581 49.796 158.085 49.796H162.693C162.813 50.12 162.891 50.492 162.927 50.912C162.975 51.32 162.999 51.668 162.999 51.956C162.999 52.292 162.975 52.67 162.927 53.09C162.891 53.498 162.813 53.87 162.693 54.206H158.085C157.857 54.206 157.539 54.206 157.131 54.206C156.723 54.206 156.291 54.206 155.835 54.206V55.376C155.835 55.82 155.829 56.186 155.817 56.474C155.805 56.762 155.799 57.122 155.799 57.554V57.59C156.219 57.566 156.609 57.542 156.969 57.518C157.329 57.494 157.767 57.482 158.283 57.482H165.321ZM176.222 52.946C176.138 52.754 176.006 52.454 175.826 52.046C175.646 51.626 175.454 51.176 175.25 50.696C175.046 50.216 174.854 49.766 174.674 49.346C174.506 48.926 174.374 48.62 174.278 48.428L174.152 48.482C174.2 49.43 174.248 50.456 174.296 51.56C174.344 52.652 174.38 53.654 174.404 54.566C174.44 55.466 174.458 56.12 174.458 56.528V62C173.99 62.084 173.54 62.138 173.108 62.162C172.676 62.198 172.274 62.216 171.902 62.216C171.566 62.216 171.146 62.198 170.642 62.162C170.15 62.138 169.682 62.084 169.238 62V42.29C169.682 42.182 170.234 42.098 170.894 42.038C171.554 41.978 172.064 41.948 172.424 41.948C172.796 41.948 173.324 41.96 174.008 41.984C174.692 41.996 175.256 42.056 175.7 42.164L179.93 51.182C180.014 51.35 180.152 51.656 180.344 52.1C180.548 52.544 180.764 53.03 180.992 53.558C181.22 54.086 181.43 54.584 181.622 55.052C181.826 55.508 181.976 55.844 182.072 56.06L182.234 56.024C182.186 55.232 182.12 54.308 182.036 53.252C181.964 52.196 181.898 51.176 181.838 50.192C181.778 49.208 181.748 48.422 181.748 47.834V45.026C181.748 43.754 182.024 42.92 182.576 42.524C183.128 42.116 183.95 41.912 185.042 41.912H186.896L187.112 42.164V61.892C186.644 62 186.08 62.078 185.42 62.126C184.76 62.186 184.256 62.216 183.908 62.216C183.668 62.216 183.338 62.21 182.918 62.198C182.498 62.186 182.066 62.168 181.622 62.144C181.19 62.12 180.83 62.072 180.542 62L176.222 52.946ZM195.325 48.914C195.325 48.53 195.331 48.176 195.343 47.852C195.355 47.516 195.361 47.144 195.361 46.736C195.109 46.736 194.761 46.742 194.317 46.754C193.885 46.766 193.543 46.772 193.291 46.772H189.961C189.865 46.34 189.805 45.938 189.781 45.566C189.757 45.182 189.745 44.834 189.745 44.522C189.745 44.21 189.757 43.844 189.781 43.424C189.805 42.992 189.865 42.572 189.961 42.164H206.251C206.335 42.488 206.395 42.854 206.431 43.262C206.479 43.67 206.503 44 206.503 44.252C206.503 45.068 206.287 45.692 205.855 46.124C205.423 46.556 204.703 46.772 203.695 46.772H202.957C202.705 46.772 202.369 46.766 201.949 46.754C201.541 46.742 201.223 46.736 200.995 46.736C200.995 47.144 201.001 47.516 201.013 47.852C201.025 48.176 201.031 48.53 201.031 48.914V62C200.695 62.072 200.233 62.126 199.645 62.162C199.057 62.198 198.565 62.216 198.169 62.216C197.797 62.216 197.329 62.198 196.765 62.162C196.201 62.126 195.721 62.072 195.325 62V48.914ZM207.085 52.118C207.085 48.902 207.913 46.352 209.569 44.468C211.237 42.572 213.667 41.624 216.859 41.624C220.099 41.624 222.541 42.566 224.185 44.45C225.841 46.322 226.669 48.878 226.669 52.118C226.669 55.358 225.841 57.908 224.185 59.768C222.529 61.616 220.087 62.54 216.859 62.54C213.619 62.54 211.177 61.604 209.533 59.732C207.901 57.86 207.085 55.322 207.085 52.118ZM212.899 52.118C212.899 52.802 212.941 53.51 213.025 54.242C213.121 54.962 213.301 55.634 213.565 56.258C213.841 56.882 214.243 57.392 214.771 57.788C215.299 58.172 216.001 58.364 216.877 58.364C217.753 58.364 218.455 58.172 218.983 57.788C219.511 57.392 219.907 56.882 220.171 56.258C220.447 55.634 220.627 54.962 220.711 54.242C220.807 53.51 220.855 52.802 220.855 52.118C220.855 51.422 220.807 50.708 220.711 49.976C220.627 49.232 220.447 48.548 220.171 47.924C219.907 47.288 219.511 46.778 218.983 46.394C218.455 45.998 217.753 45.8 216.877 45.8C216.001 45.8 215.299 45.998 214.771 46.394C214.243 46.778 213.841 47.288 213.565 47.924C213.301 48.548 213.121 49.232 213.025 49.976C212.941 50.708 212.899 51.422 212.899 52.118Z" fill="#364760"/>
</svg>
