<svg width="286" height="116" viewBox="0 0 286 116" fill="none" xmlns="http://www.w3.org/2000/svg">
<rect width="286" height="116" rx="10" fill="#1EBCBC"/>
<path d="M64.0944 42.852C63.9024 42.852 63.6744 42.846 63.4104 42.834C63.1584 42.822 62.9124 42.816 62.6724 42.816L61.1424 48.036C60.7824 48.12 60.3924 48.174 59.9724 48.198C59.5644 48.234 59.1384 48.252 58.6944 48.252C58.2624 48.252 57.7704 48.216 57.2184 48.144C56.6784 48.084 56.2464 47.988 55.9224 47.856L55.7064 47.55L63.6624 23.412C64.1184 23.34 64.6644 23.286 65.3004 23.25C65.9484 23.214 66.5124 23.196 66.9924 23.196C67.4484 23.196 68.0004 23.22 68.6484 23.268C69.2964 23.304 69.8544 23.364 70.3224 23.448L78.0624 47.622C77.6664 47.85 77.1504 48.024 76.5144 48.144C75.8904 48.264 75.3084 48.324 74.7684 48.324C73.8564 48.324 73.1424 48.114 72.6264 47.694C72.1104 47.262 71.6784 46.428 71.3304 45.192L70.6464 42.816C70.4184 42.816 70.1724 42.822 69.9084 42.834C69.6444 42.846 69.4164 42.852 69.2244 42.852H64.0944ZM64.8144 35.526L64.0044 38.316C64.2324 38.316 64.4784 38.316 64.7424 38.316C65.0064 38.304 65.2404 38.298 65.4444 38.298H68.0724C68.2524 38.298 68.4564 38.304 68.6844 38.316C68.9244 38.316 69.1584 38.316 69.3864 38.316L68.7564 36.066C68.4804 35.058 68.1564 33.87 67.7844 32.502C67.4124 31.134 67.0764 29.856 66.7764 28.668H66.5604C66.4404 29.34 66.2784 30.084 66.0744 30.9C65.8704 31.716 65.6544 32.532 65.4264 33.348C65.2104 34.152 65.0064 34.878 64.8144 35.526ZM97.7012 40.566C97.7012 43.05 96.9572 45 95.4692 46.416C93.9932 47.832 91.8032 48.54 88.8992 48.54C85.9952 48.54 83.7992 47.832 82.3112 46.416C80.8352 45 80.0972 43.05 80.0972 40.566V28.164L80.3132 27.948H82.3652C83.4572 27.948 84.2972 28.224 84.8852 28.776C85.4852 29.328 85.7852 30.258 85.7852 31.566V40.548C85.7852 41.64 86.0132 42.498 86.4692 43.122C86.9252 43.746 87.7352 44.058 88.8992 44.058C90.0752 44.058 90.8852 43.746 91.3292 43.122C91.7732 42.498 91.9952 41.64 91.9952 40.548V28.164C92.4752 28.068 92.9672 28.008 93.4712 27.984C93.9752 27.96 94.4132 27.948 94.7852 27.948C95.1212 27.948 95.5772 27.966 96.1532 28.002C96.7292 28.026 97.2452 28.086 97.7012 28.182V40.566ZM105.559 34.914C105.559 34.53 105.565 34.176 105.577 33.852C105.589 33.516 105.595 33.144 105.595 32.736C105.343 32.736 104.995 32.742 104.551 32.754C104.119 32.766 103.777 32.772 103.525 32.772H100.195C100.099 32.34 100.039 31.938 100.015 31.566C99.9914 31.182 99.9794 30.834 99.9794 30.522C99.9794 30.21 99.9914 29.844 100.015 29.424C100.039 28.992 100.099 28.572 100.195 28.164H116.485C116.569 28.488 116.629 28.854 116.665 29.262C116.713 29.67 116.737 30 116.737 30.252C116.737 31.068 116.521 31.692 116.089 32.124C115.657 32.556 114.937 32.772 113.929 32.772H113.191C112.939 32.772 112.603 32.766 112.183 32.754C111.775 32.742 111.457 32.736 111.229 32.736C111.229 33.144 111.235 33.516 111.247 33.852C111.259 34.176 111.265 34.53 111.265 34.914V48C110.929 48.072 110.467 48.126 109.879 48.162C109.291 48.198 108.799 48.216 108.403 48.216C108.031 48.216 107.563 48.198 106.999 48.162C106.435 48.126 105.955 48.072 105.559 48V34.914ZM117.32 38.118C117.32 34.902 118.148 32.352 119.804 30.468C121.472 28.572 123.902 27.624 127.094 27.624C130.334 27.624 132.776 28.566 134.42 30.45C136.076 32.322 136.904 34.878 136.904 38.118C136.904 41.358 136.076 43.908 134.42 45.768C132.764 47.616 130.322 48.54 127.094 48.54C123.854 48.54 121.412 47.604 119.768 45.732C118.136 43.86 117.32 41.322 117.32 38.118ZM123.134 38.118C123.134 38.802 123.176 39.51 123.26 40.242C123.356 40.962 123.536 41.634 123.8 42.258C124.076 42.882 124.478 43.392 125.006 43.788C125.534 44.172 126.236 44.364 127.112 44.364C127.988 44.364 128.69 44.172 129.218 43.788C129.746 43.392 130.142 42.882 130.406 42.258C130.682 41.634 130.862 40.962 130.946 40.242C131.042 39.51 131.09 38.802 131.09 38.118C131.09 37.422 131.042 36.708 130.946 35.976C130.862 35.232 130.682 34.548 130.406 33.924C130.142 33.288 129.746 32.778 129.218 32.394C128.69 31.998 127.988 31.8 127.112 31.8C126.236 31.8 125.534 31.998 125.006 32.394C124.478 32.778 124.076 33.288 123.8 33.924C123.536 34.548 123.356 35.232 123.26 35.976C123.176 36.708 123.134 37.422 123.134 38.118ZM156.774 34.194C156.774 35.118 156.564 35.94 156.144 36.66C155.724 37.38 155.196 37.974 154.56 38.442C153.936 38.91 153.312 39.21 152.688 39.342C153.336 39.558 153.87 39.888 154.29 40.332C154.722 40.776 155.094 41.346 155.406 42.042L156.342 44.184C156.558 44.676 156.804 45.132 157.08 45.552C157.356 45.96 157.662 46.308 157.998 46.596C157.65 47.028 157.128 47.43 156.432 47.802C155.736 48.162 154.98 48.342 154.164 48.342C153.36 48.342 152.706 48.15 152.202 47.766C151.71 47.37 151.278 46.74 150.906 45.876L149.322 42.24C149.07 41.652 148.758 41.298 148.386 41.178C148.014 41.058 147.534 40.998 146.946 40.998H146.244V48C145.764 48.084 145.266 48.138 144.75 48.162C144.246 48.198 143.814 48.216 143.454 48.216C143.118 48.216 142.674 48.198 142.122 48.162C141.57 48.138 141.066 48.084 140.61 48V28.344L140.808 28.128C142.26 28.092 143.622 28.062 144.894 28.038C146.178 28.002 147.456 27.984 148.728 27.984C150.168 27.984 151.5 28.176 152.724 28.56C153.948 28.932 154.926 29.574 155.658 30.486C156.402 31.386 156.774 32.622 156.774 34.194ZM146.244 32.052V36.714C146.664 36.702 147.048 36.696 147.396 36.696C147.756 36.684 148.02 36.678 148.188 36.678C149.268 36.678 150 36.444 150.384 35.976C150.768 35.508 150.96 34.962 150.96 34.338C150.96 33.726 150.768 33.198 150.384 32.754C150 32.31 149.358 32.088 148.458 32.088C148.026 32.088 147.654 32.082 147.342 32.07C147.03 32.058 146.664 32.052 146.244 32.052ZM161.178 28.164C161.634 28.068 162.15 28.008 162.726 27.984C163.302 27.96 163.758 27.948 164.094 27.948C164.454 27.948 164.886 27.96 165.39 27.984C165.906 28.008 166.404 28.068 166.884 28.164V48C166.404 48.084 165.906 48.138 165.39 48.162C164.886 48.198 164.454 48.216 164.094 48.216C163.758 48.216 163.302 48.198 162.726 48.162C162.15 48.138 161.634 48.084 161.178 48V28.164ZM178.104 35.094C178.308 34.878 178.578 34.602 178.914 34.266C179.25 33.93 179.598 33.6 179.958 33.276C180.318 32.94 180.63 32.67 180.894 32.466L180.822 32.358C180.27 32.418 179.64 32.472 178.932 32.52C178.236 32.556 177.582 32.586 176.97 32.61C176.37 32.634 175.938 32.646 175.674 32.646H171.498C171.414 32.298 171.36 31.974 171.336 31.674C171.312 31.362 171.3 31.056 171.3 30.756C171.3 30.264 171.33 29.832 171.39 29.46C171.462 29.076 171.558 28.644 171.678 28.164H186.15C186.402 29.064 186.582 29.736 186.69 30.18C186.798 30.612 186.864 30.918 186.888 31.098C186.924 31.278 186.942 31.422 186.942 31.53C186.942 31.842 186.9 32.154 186.816 32.466C186.744 32.778 186.576 33.084 186.312 33.384L179.58 41.052C179.28 41.388 178.878 41.808 178.374 42.312C177.882 42.816 177.432 43.23 177.024 43.554L177.096 43.698C177.924 43.638 178.782 43.59 179.67 43.554C180.57 43.518 181.38 43.482 182.1 43.446L183.126 43.41C183.786 43.386 184.458 43.326 185.142 43.23C185.838 43.134 186.426 42.96 186.906 42.708C187.014 43.08 187.092 43.434 187.14 43.77C187.2 44.106 187.23 44.52 187.23 45.012C187.23 45.984 186.858 46.734 186.114 47.262C185.37 47.778 184.488 48.036 183.468 48.036H171.3C171.132 47.208 171.006 46.584 170.922 46.164C170.838 45.744 170.778 45.438 170.742 45.246C170.718 45.054 170.706 44.892 170.706 44.76C170.706 44.016 170.928 43.362 171.372 42.798L178.104 35.094ZM196.028 44.526C195.836 44.526 195.65 44.526 195.47 44.526C195.29 44.514 195.11 44.502 194.93 44.49L193.814 48C193.466 48.084 193.088 48.144 192.68 48.18C192.272 48.228 191.846 48.252 191.402 48.252C190.922 48.252 190.436 48.216 189.944 48.144C189.464 48.072 189.068 47.97 188.756 47.838L188.558 47.532L195.56 28.164C196.184 28.068 196.784 28.008 197.36 27.984C197.948 27.96 198.482 27.948 198.962 27.948C199.406 27.948 199.886 27.96 200.402 27.984C200.918 28.008 201.5 28.068 202.148 28.164L208.952 47.73C208.532 47.922 207.998 48.066 207.35 48.162C206.702 48.27 206.18 48.324 205.784 48.324C205.124 48.324 204.488 48.198 203.876 47.946C203.264 47.694 202.802 47.028 202.49 45.948L202.04 44.49C201.848 44.502 201.662 44.514 201.482 44.526C201.302 44.526 201.11 44.526 200.906 44.526H196.028ZM196.748 38.838L196.352 40.08C196.532 40.068 196.712 40.062 196.892 40.062C197.072 40.05 197.258 40.044 197.45 40.044H199.7C199.88 40.044 200.042 40.05 200.186 40.062C200.342 40.062 200.498 40.068 200.654 40.08L200.276 38.856C200 37.908 199.724 36.852 199.448 35.688C199.172 34.524 198.92 33.468 198.692 32.52H198.476C198.224 33.432 197.942 34.476 197.63 35.652C197.33 36.828 197.036 37.89 196.748 38.838ZM227.86 34.194C227.86 35.118 227.65 35.94 227.23 36.66C226.81 37.38 226.282 37.974 225.646 38.442C225.022 38.91 224.398 39.21 223.774 39.342C224.422 39.558 224.956 39.888 225.376 40.332C225.808 40.776 226.18 41.346 226.492 42.042L227.428 44.184C227.644 44.676 227.89 45.132 228.166 45.552C228.442 45.96 228.748 46.308 229.084 46.596C228.736 47.028 228.214 47.43 227.518 47.802C226.822 48.162 226.066 48.342 225.25 48.342C224.446 48.342 223.792 48.15 223.288 47.766C222.796 47.37 222.364 46.74 221.992 45.876L220.408 42.24C220.156 41.652 219.844 41.298 219.472 41.178C219.1 41.058 218.62 40.998 218.032 40.998H217.33V48C216.85 48.084 216.352 48.138 215.836 48.162C215.332 48.198 214.9 48.216 214.54 48.216C214.204 48.216 213.76 48.198 213.208 48.162C212.656 48.138 212.152 48.084 211.696 48V28.344L211.894 28.128C213.346 28.092 214.708 28.062 215.98 28.038C217.264 28.002 218.542 27.984 219.814 27.984C221.254 27.984 222.586 28.176 223.81 28.56C225.034 28.932 226.012 29.574 226.744 30.486C227.488 31.386 227.86 32.622 227.86 34.194ZM217.33 32.052V36.714C217.75 36.702 218.134 36.696 218.482 36.696C218.842 36.684 219.106 36.678 219.274 36.678C220.354 36.678 221.086 36.444 221.47 35.976C221.854 35.508 222.046 34.962 222.046 34.338C222.046 33.726 221.854 33.198 221.47 32.754C221.086 32.31 220.444 32.088 219.544 32.088C219.112 32.088 218.74 32.082 218.428 32.07C218.116 32.058 217.75 32.052 217.33 32.052ZM46.0868 67.448C46.6988 67.34 47.3648 67.268 48.0848 67.232C48.8168 67.196 49.4468 67.178 49.9748 67.178C50.5028 67.178 51.0908 67.196 51.7388 67.232C52.3868 67.268 53.0168 67.34 53.6288 67.448L55.7528 76.25C55.8008 76.466 55.8788 76.838 55.9868 77.366C56.1068 77.894 56.2388 78.494 56.3828 79.166C56.5268 79.838 56.6588 80.498 56.7788 81.146C56.9108 81.794 57.0128 82.346 57.0848 82.802H57.3368C57.4088 82.346 57.5108 81.794 57.6428 81.146C57.7748 80.498 57.9068 79.838 58.0388 79.166C58.1828 78.494 58.3148 77.894 58.4348 77.366C58.5548 76.838 58.6388 76.466 58.6868 76.25L60.8108 67.448C61.4228 67.34 62.0468 67.268 62.6828 67.232C63.3308 67.196 63.9188 67.178 64.4468 67.178C64.9748 67.178 65.6048 67.196 66.3368 67.232C67.0688 67.268 67.7348 67.34 68.3348 67.448L70.2428 91.928C69.8348 92.036 69.3608 92.108 68.8208 92.144C68.2928 92.192 67.7948 92.216 67.3268 92.216C66.8948 92.216 66.4688 92.204 66.0488 92.18C65.6408 92.156 65.2268 92.108 64.8068 92.036L64.2668 82.01C64.1948 80.738 64.1288 79.334 64.0688 77.798C64.0088 76.262 63.9788 74.906 63.9788 73.73H63.7268L60.1808 88.382C59.7488 88.454 59.2448 88.508 58.6688 88.544C58.0928 88.568 57.6008 88.58 57.1928 88.58C56.8328 88.58 56.3588 88.568 55.7708 88.544C55.1828 88.508 54.6728 88.454 54.2408 88.382L50.6948 73.73H50.4608C50.4488 74.906 50.4128 76.262 50.3528 77.798C50.3048 79.334 50.2448 80.738 50.1728 82.01L49.6148 92.036C49.2068 92.108 48.7928 92.156 48.3728 92.18C47.9528 92.204 47.5268 92.216 47.0948 92.216C46.6388 92.216 46.1408 92.192 45.6008 92.144C45.0728 92.108 44.5988 92.036 44.1788 91.928L46.0868 67.448ZM73.3391 82.118C73.3391 78.902 74.1671 76.352 75.8231 74.468C77.4911 72.572 79.9211 71.624 83.1131 71.624C86.3531 71.624 88.7951 72.566 90.4391 74.45C92.0951 76.322 92.9231 78.878 92.9231 82.118C92.9231 85.358 92.0951 87.908 90.4391 89.768C88.7831 91.616 86.3411 92.54 83.1131 92.54C79.8731 92.54 77.4311 91.604 75.7871 89.732C74.1551 87.86 73.3391 85.322 73.3391 82.118ZM79.1531 82.118C79.1531 82.802 79.1951 83.51 79.2791 84.242C79.3751 84.962 79.5551 85.634 79.8191 86.258C80.0951 86.882 80.4971 87.392 81.0251 87.788C81.5531 88.172 82.2551 88.364 83.1311 88.364C84.0071 88.364 84.7091 88.172 85.2371 87.788C85.7651 87.392 86.1611 86.882 86.4251 86.258C86.7011 85.634 86.8811 84.962 86.9651 84.242C87.0611 83.51 87.1091 82.802 87.1091 82.118C87.1091 81.422 87.0611 80.708 86.9651 79.976C86.8811 79.232 86.7011 78.548 86.4251 77.924C86.1611 77.288 85.7651 76.778 85.2371 76.394C84.7091 75.998 84.0071 75.8 83.1311 75.8C82.2551 75.8 81.5531 75.998 81.0251 76.394C80.4971 76.778 80.0951 77.288 79.8191 77.924C79.5551 78.548 79.3751 79.232 79.2791 79.976C79.1951 80.708 79.1531 81.422 79.1531 82.118ZM107.853 72.164C108.285 72.068 108.663 72.008 108.987 71.984C109.323 71.96 109.665 71.948 110.013 71.948C110.445 71.948 110.895 71.972 111.363 72.02C111.843 72.068 112.353 72.17 112.893 72.326L113.145 72.596L107.241 92C106.701 92.084 105.993 92.138 105.117 92.162C104.241 92.198 103.443 92.216 102.723 92.216C101.775 92.216 100.971 92.066 100.311 91.766C99.6632 91.454 99.1952 90.782 98.9072 89.75L93.7772 72.56C94.2692 72.356 94.7852 72.2 95.3252 72.092C95.8772 71.972 96.4412 71.912 97.0172 71.912C97.8812 71.912 98.5532 72.116 99.0332 72.524C99.5252 72.92 99.9152 73.61 100.203 74.594L102.129 81.038C102.405 82.01 102.651 83 102.867 84.008C103.095 85.016 103.317 86.156 103.533 87.428C103.581 87.632 103.701 87.734 103.893 87.734L107.853 72.164ZM115.932 72.164C116.388 72.068 116.904 72.008 117.48 71.984C118.056 71.96 118.512 71.948 118.848 71.948C119.208 71.948 119.64 71.96 120.144 71.984C120.66 72.008 121.158 72.068 121.638 72.164V92C121.158 92.084 120.66 92.138 120.144 92.162C119.64 92.198 119.208 92.216 118.848 92.216C118.512 92.216 118.056 92.198 117.48 92.162C116.904 92.138 116.388 92.084 115.932 92V72.164ZM128.123 72.164C128.699 72.056 129.329 71.984 130.013 71.948C130.697 71.9 131.273 71.876 131.741 71.876C132.185 71.876 132.761 71.9 133.469 71.948C134.177 71.984 134.771 72.056 135.251 72.164L137.015 79.976C137.123 80.444 137.249 81.08 137.393 81.884C137.537 82.676 137.681 83.528 137.825 84.44H138.059C138.347 82.52 138.617 81.032 138.869 79.976L140.615 72.164C141.179 72.056 141.797 71.984 142.469 71.948C143.141 71.9 143.699 71.876 144.143 71.876C144.611 71.876 145.193 71.9 145.889 71.948C146.585 71.984 147.209 72.056 147.761 72.164L149.795 91.928C149.015 92.12 148.073 92.216 146.969 92.216C146.549 92.216 146.099 92.198 145.619 92.162C145.151 92.126 144.731 92.072 144.359 92L143.837 85.628C143.777 84.812 143.741 83.918 143.729 82.946C143.717 81.974 143.717 81.026 143.729 80.102C143.741 79.166 143.741 78.356 143.729 77.672H143.513L140.867 88.958C140.459 89.03 139.961 89.084 139.373 89.12C138.785 89.144 138.299 89.156 137.915 89.156C137.519 89.156 137.027 89.144 136.439 89.12C135.863 89.084 135.383 89.03 134.999 88.958L132.371 77.672H132.119C132.119 78.368 132.119 79.178 132.119 80.102C132.131 81.026 132.131 81.974 132.119 82.946C132.107 83.918 132.065 84.824 131.993 85.664L131.525 92C131.141 92.072 130.721 92.126 130.265 92.162C129.821 92.198 129.389 92.216 128.969 92.216C127.853 92.216 126.893 92.12 126.089 91.928L128.123 72.164ZM154.287 72.164C154.743 72.068 155.259 72.008 155.835 71.984C156.411 71.96 156.867 71.948 157.203 71.948C157.563 71.948 157.995 71.96 158.499 71.984C159.015 72.008 159.513 72.068 159.993 72.164V92C159.513 92.084 159.015 92.138 158.499 92.162C157.995 92.198 157.563 92.216 157.203 92.216C156.867 92.216 156.411 92.198 155.835 92.162C155.259 92.138 154.743 92.084 154.287 92V72.164ZM180.321 87.482C180.321 89.198 180.051 90.392 179.511 91.064C178.983 91.736 178.083 92.072 176.811 92.072H168.513C167.493 92.072 166.689 91.784 166.101 91.208C165.513 90.62 165.219 89.834 165.219 88.85V72.362L165.417 72.164H179.655C179.739 72.572 179.787 72.962 179.799 73.334C179.811 73.706 179.817 74.06 179.817 74.396C179.817 74.72 179.781 75.086 179.709 75.494C179.649 75.902 179.541 76.316 179.385 76.736H173.085C172.581 76.736 171.819 76.73 170.799 76.718C170.811 77.09 170.817 77.408 170.817 77.672C170.829 77.936 170.835 78.254 170.835 78.626V79.814C171.831 79.802 172.581 79.796 173.085 79.796H177.693C177.813 80.12 177.891 80.492 177.927 80.912C177.975 81.32 177.999 81.668 177.999 81.956C177.999 82.292 177.975 82.67 177.927 83.09C177.891 83.498 177.813 83.87 177.693 84.206H173.085C172.857 84.206 172.539 84.206 172.131 84.206C171.723 84.206 171.291 84.206 170.835 84.206V85.376C170.835 85.82 170.829 86.186 170.817 86.474C170.805 86.762 170.799 87.122 170.799 87.554V87.59C171.219 87.566 171.609 87.542 171.969 87.518C172.329 87.494 172.767 87.482 173.283 87.482H180.321ZM191.222 82.946C191.138 82.754 191.006 82.454 190.826 82.046C190.646 81.626 190.454 81.176 190.25 80.696C190.046 80.216 189.854 79.766 189.674 79.346C189.506 78.926 189.374 78.62 189.278 78.428L189.152 78.482C189.2 79.43 189.248 80.456 189.296 81.56C189.344 82.652 189.38 83.654 189.404 84.566C189.44 85.466 189.458 86.12 189.458 86.528V92C188.99 92.084 188.54 92.138 188.108 92.162C187.676 92.198 187.274 92.216 186.902 92.216C186.566 92.216 186.146 92.198 185.642 92.162C185.15 92.138 184.682 92.084 184.238 92V72.29C184.682 72.182 185.234 72.098 185.894 72.038C186.554 71.978 187.064 71.948 187.424 71.948C187.796 71.948 188.324 71.96 189.008 71.984C189.692 71.996 190.256 72.056 190.7 72.164L194.93 81.182C195.014 81.35 195.152 81.656 195.344 82.1C195.548 82.544 195.764 83.03 195.992 83.558C196.22 84.086 196.43 84.584 196.622 85.052C196.826 85.508 196.976 85.844 197.072 86.06L197.234 86.024C197.186 85.232 197.12 84.308 197.036 83.252C196.964 82.196 196.898 81.176 196.838 80.192C196.778 79.208 196.748 78.422 196.748 77.834V75.026C196.748 73.754 197.024 72.92 197.576 72.524C198.128 72.116 198.95 71.912 200.042 71.912H201.896L202.112 72.164V91.892C201.644 92 201.08 92.078 200.42 92.126C199.76 92.186 199.256 92.216 198.908 92.216C198.668 92.216 198.338 92.21 197.918 92.198C197.498 92.186 197.066 92.168 196.622 92.144C196.19 92.12 195.83 92.072 195.542 92L191.222 82.946ZM210.325 78.914C210.325 78.53 210.331 78.176 210.343 77.852C210.355 77.516 210.361 77.144 210.361 76.736C210.109 76.736 209.761 76.742 209.317 76.754C208.885 76.766 208.543 76.772 208.291 76.772H204.961C204.865 76.34 204.805 75.938 204.781 75.566C204.757 75.182 204.745 74.834 204.745 74.522C204.745 74.21 204.757 73.844 204.781 73.424C204.805 72.992 204.865 72.572 204.961 72.164H221.251C221.335 72.488 221.395 72.854 221.431 73.262C221.479 73.67 221.503 74 221.503 74.252C221.503 75.068 221.287 75.692 220.855 76.124C220.423 76.556 219.703 76.772 218.695 76.772H217.957C217.705 76.772 217.369 76.766 216.949 76.754C216.541 76.742 216.223 76.736 215.995 76.736C215.995 77.144 216.001 77.516 216.013 77.852C216.025 78.176 216.031 78.53 216.031 78.914V92C215.695 92.072 215.233 92.126 214.645 92.162C214.057 92.198 213.565 92.216 213.169 92.216C212.797 92.216 212.329 92.198 211.765 92.162C211.201 92.126 210.721 92.072 210.325 92V78.914ZM222.085 82.118C222.085 78.902 222.913 76.352 224.569 74.468C226.237 72.572 228.667 71.624 231.859 71.624C235.099 71.624 237.541 72.566 239.185 74.45C240.841 76.322 241.669 78.878 241.669 82.118C241.669 85.358 240.841 87.908 239.185 89.768C237.529 91.616 235.087 92.54 231.859 92.54C228.619 92.54 226.177 91.604 224.533 89.732C222.901 87.86 222.085 85.322 222.085 82.118ZM227.899 82.118C227.899 82.802 227.941 83.51 228.025 84.242C228.121 84.962 228.301 85.634 228.565 86.258C228.841 86.882 229.243 87.392 229.771 87.788C230.299 88.172 231.001 88.364 231.877 88.364C232.753 88.364 233.455 88.172 233.983 87.788C234.511 87.392 234.907 86.882 235.171 86.258C235.447 85.634 235.627 84.962 235.711 84.242C235.807 83.51 235.855 82.802 235.855 82.118C235.855 81.422 235.807 80.708 235.711 79.976C235.627 79.232 235.447 78.548 235.171 77.924C234.907 77.288 234.511 76.778 233.983 76.394C233.455 75.998 232.753 75.8 231.877 75.8C231.001 75.8 230.299 75.998 229.771 76.394C229.243 76.778 228.841 77.288 228.565 77.924C228.301 78.548 228.121 79.232 228.025 79.976C227.941 80.708 227.899 81.422 227.899 82.118Z" fill="white"/>
</svg>
