<svg width="392" height="155" viewBox="0 0 392 155" fill="none" xmlns="http://www.w3.org/2000/svg">
<rect width="392" height="155" rx="20" fill="black" fill-opacity="0.25"/>
<path d="M52.9617 31.7291C52.9617 33.5011 52.6005 34.9853 51.8782 36.1817C51.1671 37.3668 50.1851 38.2584 48.9323 38.8566C47.6908 39.4548 46.2687 39.7539 44.6659 39.7539H42.0079V47C41.5565 47.079 41.0768 47.1298 40.5689 47.1524C40.0723 47.1862 39.6434 47.2032 39.2822 47.2032C38.9549 47.2032 38.5316 47.1862 38.0124 47.1524C37.4932 47.1298 37.0136 47.079 36.5734 47V24.0428L36.8104 23.8058C38.2551 23.7719 39.6039 23.7437 40.8567 23.7212C42.1208 23.6873 43.3905 23.6704 44.6659 23.6704C46.2687 23.6704 47.6908 23.9638 48.9323 24.5507C50.1851 25.1263 51.1671 26.0124 51.8782 27.2087C52.6005 28.3939 52.9617 29.9006 52.9617 31.7291ZM42.0079 27.8013V35.6907C42.482 35.6794 42.9221 35.6681 43.3285 35.6569C43.7461 35.6456 44.0395 35.6399 44.2088 35.6399C45.1118 35.6399 45.7946 35.4255 46.2574 34.9966C46.7201 34.5677 47.0305 34.0541 47.1885 33.4559C47.3465 32.8465 47.4255 32.2708 47.4255 31.7291C47.4255 31.1986 47.3465 30.6343 47.1885 30.0361C47.0305 29.4266 46.7201 28.9074 46.2574 28.4785C45.7946 28.0496 45.1118 27.8352 44.2088 27.8352C43.8702 27.8352 43.5316 27.8352 43.193 27.8352C42.8544 27.8239 42.4594 27.8126 42.0079 27.8013ZM58.902 43.7325C58.7214 43.7325 58.5465 43.7325 58.3772 43.7325C58.2079 43.7212 58.0386 43.7099 57.8693 43.6986L56.8196 47C56.4923 47.079 56.1368 47.1354 55.753 47.1693C55.3693 47.2144 54.9686 47.237 54.551 47.237C54.0995 47.237 53.6424 47.2032 53.1797 47.1354C52.7282 47.0677 52.3557 46.9718 52.0623 46.8476L51.876 46.5598L58.4618 28.3431C59.0487 28.2528 59.6131 28.1963 60.1548 28.1738C60.7079 28.1512 61.2102 28.1399 61.6616 28.1399C62.0792 28.1399 62.5307 28.1512 63.016 28.1738C63.5014 28.1963 64.0488 28.2528 64.6582 28.3431L71.0578 46.746C70.6628 46.9266 70.1605 47.0621 69.551 47.1524C68.9416 47.254 68.4506 47.3047 68.0781 47.3047C67.4573 47.3047 66.8592 47.1862 66.2835 46.9492C65.7079 46.7122 65.2734 46.0858 64.9799 45.07L64.5567 43.6986C64.3761 43.7099 64.2011 43.7212 64.0318 43.7325C63.8625 43.7325 63.6819 43.7325 63.4901 43.7325H58.902ZM59.5792 38.3826L59.2068 39.5508C59.3761 39.5395 59.5454 39.5338 59.7147 39.5338C59.884 39.5226 60.0589 39.5169 60.2395 39.5169H62.3558C62.5251 39.5169 62.6774 39.5226 62.8129 39.5338C62.9596 39.5338 63.1063 39.5395 63.253 39.5508L62.8975 38.3995C62.6379 37.5079 62.3783 36.5146 62.1187 35.4198C61.8591 34.325 61.6221 33.3318 61.4077 32.4401H61.2045C60.9675 33.2979 60.7022 34.2799 60.4088 35.386C60.1266 36.4921 59.8501 37.4909 59.5792 38.3826ZM88.841 34.0146C88.841 34.8837 88.6435 35.6569 88.2484 36.3341C87.8534 37.0113 87.3568 37.5699 86.7586 38.0101C86.1717 38.4503 85.5848 38.7325 84.9979 38.8566C85.6074 39.0598 86.1096 39.3702 86.5046 39.7878C86.911 40.2054 87.2609 40.7415 87.5543 41.3961L88.4347 43.4108C88.6378 43.8736 88.8692 44.3025 89.1288 44.6975C89.3884 45.0813 89.6762 45.4086 89.9922 45.6795C89.6649 46.0858 89.174 46.4639 88.5193 46.8138C87.8647 47.1524 87.1536 47.3217 86.3861 47.3217C85.6299 47.3217 85.0148 47.1411 84.5408 46.7799C84.078 46.4074 83.6717 45.8149 83.3218 45.0023L81.8319 41.5824C81.5949 41.0293 81.3015 40.6964 80.9516 40.5835C80.6017 40.4706 80.1502 40.4142 79.5972 40.4142H78.9369V47C78.4854 47.079 78.017 47.1298 77.5317 47.1524C77.0577 47.1862 76.6513 47.2032 76.3127 47.2032C75.9967 47.2032 75.5791 47.1862 75.0599 47.1524C74.5407 47.1298 74.0667 47.079 73.6378 47V28.5124L73.824 28.3092C75.1897 28.2753 76.4708 28.2471 77.6671 28.2245C78.8748 28.1907 80.0769 28.1738 81.2733 28.1738C82.6277 28.1738 83.8805 28.3543 85.0317 28.7155C86.183 29.0654 87.1028 29.6693 87.7913 30.527C88.4911 31.3735 88.841 32.5361 88.841 34.0146ZM78.9369 32V36.3848C79.3319 36.3736 79.6931 36.3679 80.0204 36.3679C80.359 36.3566 80.6073 36.351 80.7653 36.351C81.7812 36.351 82.4696 36.1309 82.8308 35.6907C83.192 35.2505 83.3726 34.737 83.3726 34.1501C83.3726 33.5745 83.192 33.0778 82.8308 32.6602C82.4696 32.2426 81.8658 32.0338 81.0193 32.0338C80.613 32.0338 80.2631 32.0282 79.9696 32.0169C79.6762 32.0056 79.3319 32 78.9369 32ZM95.7598 34.6918C95.7598 34.3307 95.7655 33.9977 95.7768 33.693C95.7881 33.3769 95.7937 33.027 95.7937 32.6433C95.5567 32.6433 95.2294 32.6489 94.8118 32.6602C94.4054 32.6715 94.0838 32.6772 93.8467 32.6772H90.7147C90.6244 32.2708 90.568 31.8927 90.5454 31.5428C90.5228 31.1817 90.5115 30.8544 90.5115 30.5609C90.5115 30.2674 90.5228 29.9232 90.5454 29.5282C90.568 29.1218 90.6244 28.7268 90.7147 28.3431H106.036C106.115 28.6478 106.172 28.992 106.206 29.3758C106.251 29.7595 106.273 30.0699 106.273 30.3069C106.273 31.0744 106.07 31.6614 105.664 32.0677C105.258 32.474 104.58 32.6772 103.632 32.6772H102.938C102.701 32.6772 102.385 32.6715 101.99 32.6602C101.606 32.6489 101.307 32.6433 101.093 32.6433C101.093 33.027 101.098 33.3769 101.11 33.693C101.121 33.9977 101.127 34.3307 101.127 34.6918V47C100.811 47.0677 100.376 47.1185 99.8231 47.1524C99.27 47.1862 98.8073 47.2032 98.4348 47.2032C98.0849 47.2032 97.6447 47.1862 97.1142 47.1524C96.5838 47.1185 96.1323 47.0677 95.7598 47V34.6918ZM108.624 28.3431C109.053 28.2528 109.538 28.1963 110.08 28.1738C110.622 28.1512 111.05 28.1399 111.366 28.1399C111.705 28.1399 112.111 28.1512 112.585 28.1738C113.071 28.1963 113.539 28.2528 113.991 28.3431V47C113.539 47.079 113.071 47.1298 112.585 47.1524C112.111 47.1862 111.705 47.2032 111.366 47.2032C111.05 47.2032 110.622 47.1862 110.08 47.1524C109.538 47.1298 109.053 47.079 108.624 47V28.3431ZM129.233 36.7912C129.233 35.3578 129.041 34.2065 128.658 33.3374C128.274 32.4571 127.501 32.0169 126.338 32.0169C125.131 32.0169 124.273 32.5135 123.765 33.5067C123.257 34.5 123.003 35.9277 123.003 37.79C123.003 39.2122 123.184 40.307 123.545 41.0745C123.917 41.8307 124.391 42.3555 124.967 42.649C125.542 42.9424 126.152 43.0892 126.795 43.0892C127.631 43.0892 128.466 42.9086 129.301 42.5474C130.147 42.1749 130.904 41.7404 131.57 41.2438C131.931 41.4244 132.281 41.7122 132.619 42.1072C132.958 42.5022 133.251 42.9255 133.5 43.377C133.748 43.8284 133.906 44.2404 133.974 44.6129C133.037 45.4142 131.897 46.0971 130.554 46.6614C129.222 47.2257 127.704 47.5079 126 47.5079C124.363 47.5079 122.997 47.2201 121.903 46.6445C120.819 46.0688 119.956 45.3126 119.312 44.3758C118.669 43.4278 118.212 42.3781 117.941 41.2268C117.67 40.0756 117.535 38.9187 117.535 37.7562C117.535 35.4424 117.952 33.5575 118.787 32.1015C119.634 30.6343 120.74 29.5564 122.106 28.8679C123.483 28.1794 124.956 27.8352 126.524 27.8352C128.285 27.8352 129.735 28.1455 130.875 28.7663C132.015 29.3871 132.862 30.1715 133.415 31.1196C133.968 32.0677 134.245 33.044 134.245 34.0485C134.245 35.9785 133.161 36.9435 130.994 36.9435C130.734 36.9435 130.452 36.9266 130.147 36.8927C129.843 36.8589 129.538 36.825 129.233 36.7912ZM137.59 28.3431C138.019 28.2528 138.504 28.1963 139.046 28.1738C139.588 28.1512 140.017 28.1399 140.333 28.1399C140.671 28.1399 141.078 28.1512 141.552 28.1738C142.037 28.1963 142.505 28.2528 142.957 28.3431V47C142.505 47.079 142.037 47.1298 141.552 47.1524C141.078 47.1862 140.671 47.2032 140.333 47.2032C140.017 47.2032 139.588 47.1862 139.046 47.1524C138.504 47.1298 138.019 47.079 137.59 47V28.3431ZM162.703 34.7426C162.703 36.2099 162.37 37.4289 161.704 38.3995C161.049 39.3589 160.146 40.0756 158.995 40.5496C157.844 41.0124 156.535 41.2438 155.067 41.2438H153.222V47C152.771 47.079 152.308 47.1298 151.834 47.1524C151.36 47.1862 150.953 47.2032 150.615 47.2032C150.299 47.2032 149.87 47.1862 149.328 47.1524C148.786 47.1298 148.301 47.079 147.872 47V28.5124L148.058 28.3092C148.973 28.2866 150.073 28.2584 151.36 28.2245C152.646 28.1907 153.882 28.1738 155.067 28.1738C156.546 28.1738 157.861 28.3995 159.012 28.851C160.163 29.3024 161.066 30.0135 161.721 30.9842C162.376 31.9548 162.703 33.2076 162.703 34.7426ZM153.222 32.1354V37.316C153.527 37.3047 153.803 37.2991 154.052 37.2991C154.3 37.2878 154.486 37.2821 154.61 37.2821C155.355 37.2821 155.914 37.1467 156.286 36.8758C156.67 36.5936 156.924 36.255 157.048 35.86C157.172 35.4537 157.235 35.0699 157.235 34.7088C157.235 34.3702 157.172 34.0033 157.048 33.6083C156.924 33.2133 156.67 32.8747 156.286 32.5925C155.914 32.3103 155.355 32.1693 154.61 32.1693C154.328 32.1693 154.125 32.1693 154.001 32.1693C153.877 32.158 153.617 32.1467 153.222 32.1354ZM169.014 43.7325C168.833 43.7325 168.658 43.7325 168.489 43.7325C168.319 43.7212 168.15 43.7099 167.981 43.6986L166.931 47C166.604 47.079 166.248 47.1354 165.865 47.1693C165.481 47.2144 165.08 47.237 164.663 47.237C164.211 47.237 163.754 47.2032 163.291 47.1354C162.84 47.0677 162.467 46.9718 162.174 46.8476L161.988 46.5598L168.573 28.3431C169.16 28.2528 169.725 28.1963 170.266 28.1738C170.819 28.1512 171.322 28.1399 171.773 28.1399C172.191 28.1399 172.642 28.1512 173.128 28.1738C173.613 28.1963 174.16 28.2528 174.77 28.3431L181.169 46.746C180.774 46.9266 180.272 47.0621 179.663 47.1524C179.053 47.254 178.562 47.3047 178.19 47.3047C177.569 47.3047 176.971 47.1862 176.395 46.9492C175.819 46.7122 175.385 46.0858 175.092 45.07L174.668 43.6986C174.488 43.7099 174.313 43.7212 174.143 43.7325C173.974 43.7325 173.794 43.7325 173.602 43.7325H169.014ZM169.691 38.3826L169.318 39.5508C169.488 39.5395 169.657 39.5338 169.826 39.5338C169.996 39.5226 170.17 39.5169 170.351 39.5169H172.467C172.637 39.5169 172.789 39.5226 172.924 39.5338C173.071 39.5338 173.218 39.5395 173.365 39.5508L173.009 38.3995C172.75 37.5079 172.49 36.5146 172.23 35.4198C171.971 34.325 171.734 33.3318 171.519 32.4401H171.316C171.079 33.2979 170.814 34.2799 170.52 35.386C170.238 36.4921 169.962 37.4909 169.691 38.3826ZM193.647 36.7912C193.647 35.3578 193.455 34.2065 193.071 33.3374C192.687 32.4571 191.914 32.0169 190.752 32.0169C189.544 32.0169 188.686 32.5135 188.178 33.5067C187.671 34.5 187.417 35.9277 187.417 37.79C187.417 39.2122 187.597 40.307 187.958 41.0745C188.331 41.8307 188.805 42.3555 189.38 42.649C189.956 42.9424 190.566 43.0892 191.209 43.0892C192.044 43.0892 192.879 42.9086 193.715 42.5474C194.561 42.1749 195.317 41.7404 195.983 41.2438C196.344 41.4244 196.694 41.7122 197.033 42.1072C197.371 42.5022 197.665 42.9255 197.913 43.377C198.162 43.8284 198.32 44.2404 198.387 44.6129C197.45 45.4142 196.311 46.0971 194.967 46.6614C193.636 47.2257 192.118 47.5079 190.413 47.5079C188.777 47.5079 187.411 47.2201 186.316 46.6445C185.233 46.0688 184.369 45.3126 183.726 44.3758C183.083 43.4278 182.625 42.3781 182.355 41.2268C182.084 40.0756 181.948 38.9187 181.948 37.7562C181.948 35.4424 182.366 33.5575 183.201 32.1015C184.048 30.6343 185.154 29.5564 186.519 28.8679C187.896 28.1794 189.369 27.8352 190.938 27.8352C192.699 27.8352 194.149 28.1455 195.289 28.7663C196.429 29.3871 197.276 30.1715 197.829 31.1196C198.382 32.0677 198.658 33.044 198.658 34.0485C198.658 35.9785 197.575 36.9435 195.408 36.9435C195.148 36.9435 194.866 36.9266 194.561 36.8927C194.256 36.8589 193.952 36.825 193.647 36.7912ZM202.004 28.3431C202.433 28.2528 202.918 28.1963 203.46 28.1738C204.001 28.1512 204.43 28.1399 204.746 28.1399C205.085 28.1399 205.491 28.1512 205.965 28.1738C206.451 28.1963 206.919 28.2528 207.371 28.3431V47C206.919 47.079 206.451 47.1298 205.965 47.1524C205.491 47.1862 205.085 47.2032 204.746 47.2032C204.43 47.2032 204.001 47.1862 203.46 47.1524C202.918 47.1298 202.433 47.079 202.004 47V28.3431ZM210.914 37.7054C210.914 34.6806 211.693 32.2821 213.251 30.5101C214.82 28.7268 217.105 27.8352 220.108 27.8352C223.155 27.8352 225.452 28.7212 226.998 30.4932C228.556 32.2539 229.334 34.658 229.334 37.7054C229.334 40.7528 228.556 43.1512 226.998 44.9007C225.44 46.6388 223.144 47.5079 220.108 47.5079C217.06 47.5079 214.763 46.6275 213.217 44.8668C211.682 43.1061 210.914 40.7189 210.914 37.7054ZM216.383 37.7054C216.383 38.3487 216.422 39.0146 216.501 39.7031C216.592 40.3803 216.761 41.0124 217.009 41.5993C217.269 42.1862 217.647 42.6659 218.144 43.0384C218.64 43.3995 219.301 43.5801 220.124 43.5801C220.948 43.5801 221.609 43.3995 222.105 43.0384C222.602 42.6659 222.974 42.1862 223.223 41.5993C223.482 41.0124 223.652 40.3803 223.731 39.7031C223.821 39.0146 223.866 38.3487 223.866 37.7054C223.866 37.0508 223.821 36.3792 223.731 35.6907C223.652 34.9909 223.482 34.3476 223.223 33.7607C222.974 33.1625 222.602 32.6828 222.105 32.3216C221.609 31.9492 220.948 31.7629 220.124 31.7629C219.301 31.7629 218.64 31.9492 218.144 32.3216C217.647 32.6828 217.269 33.1625 217.009 33.7607C216.761 34.3476 216.592 34.9909 216.501 35.6907C216.422 36.3792 216.383 37.0508 216.383 37.7054ZM239.389 38.4842C239.31 38.3036 239.186 38.0214 239.017 37.6377C238.847 37.2426 238.667 36.8194 238.475 36.3679C238.283 35.9164 238.102 35.4932 237.933 35.0982C237.775 34.7031 237.651 34.4153 237.561 34.2347L237.442 34.2855C237.487 35.1772 237.532 36.1422 237.577 37.1806C237.623 38.2076 237.656 39.1501 237.679 40.0079C237.713 40.8544 237.73 41.4695 237.73 41.8533V47C237.29 47.079 236.866 47.1298 236.46 47.1524C236.054 47.1862 235.676 47.2032 235.326 47.2032C235.01 47.2032 234.615 47.1862 234.141 47.1524C233.678 47.1298 233.238 47.079 232.82 47V28.4616C233.238 28.36 233.757 28.281 234.378 28.2245C234.998 28.1681 235.478 28.1399 235.817 28.1399C236.167 28.1399 236.663 28.1512 237.307 28.1738C237.95 28.185 238.48 28.2415 238.898 28.3431L242.877 36.825C242.956 36.983 243.085 37.2709 243.266 37.6885C243.458 38.1061 243.661 38.5632 243.875 39.0598C244.09 39.5564 244.287 40.0248 244.468 40.465C244.66 40.8939 244.801 41.2099 244.891 41.4131L245.044 41.3792C244.998 40.6343 244.936 39.7652 244.857 38.772C244.79 37.7788 244.728 36.8194 244.671 35.8939C244.615 34.9684 244.587 34.2291 244.587 33.676V31.0349C244.587 29.8386 244.846 29.0541 245.365 28.6817C245.885 28.2979 246.658 28.106 247.685 28.106H249.429L249.632 28.3431V46.8984C249.192 47 248.661 47.0734 248.04 47.1185C247.419 47.1749 246.945 47.2032 246.618 47.2032C246.392 47.2032 246.082 47.1975 245.687 47.1862C245.292 47.1749 244.886 47.158 244.468 47.1354C244.062 47.1129 243.723 47.0677 243.452 47L239.389 38.4842ZM53.4527 79.7054C53.4527 82.8657 52.7134 85.2302 51.2348 86.7991C49.7563 88.3567 47.4255 89.1354 44.2427 89.1354C42.8996 89.1354 41.6242 89.1242 40.4165 89.1016C39.2201 89.0903 37.956 89.0677 36.6242 89.0339L36.4379 88.8307V70.5124L36.6242 70.3092C37.9673 70.2753 39.237 70.2471 40.4334 70.2245C41.6298 70.1907 42.8996 70.1738 44.2427 70.1738C47.3917 70.1738 49.7111 70.992 51.201 72.6286C52.7021 74.2539 53.4527 76.6128 53.4527 79.7054ZM48.0012 79.7054C48.0012 78.8815 47.9165 78.0575 47.7472 77.2336C47.5779 76.3984 47.2224 75.6986 46.6806 75.1343C46.1389 74.5699 45.3262 74.2878 44.2427 74.2878C43.7461 74.2878 43.3172 74.2878 42.956 74.2878C42.6061 74.2765 42.1998 74.2652 41.737 74.2539V85.0892C42.2224 85.0892 42.6343 85.0835 42.9729 85.0722C43.3228 85.0609 43.7461 85.0553 44.2427 85.0553C45.3262 85.0553 46.1389 84.7788 46.6806 84.2257C47.2224 83.6614 47.5779 82.9673 47.7472 82.1433C47.9165 81.3194 48.0012 80.5067 48.0012 79.7054ZM71.1766 84.7506C71.1766 86.3646 70.9226 87.4876 70.4147 88.1196C69.9181 88.7517 69.0716 89.0677 67.8752 89.0677H60.0705C59.1111 89.0677 58.3549 88.7968 57.8018 88.2551C57.2488 87.702 56.9723 86.9627 56.9723 86.0372V70.5293L57.1585 70.3431H70.5502C70.6292 70.7268 70.6743 71.0936 70.6856 71.4435C70.6969 71.7934 70.7025 72.1264 70.7025 72.4424C70.7025 72.7471 70.6687 73.0914 70.601 73.4751C70.5445 73.8589 70.4429 74.2483 70.2962 74.6433H64.3707C63.8967 74.6433 63.1799 74.6377 62.2206 74.6264C62.2319 74.9763 62.2375 75.2754 62.2375 75.5237C62.2488 75.772 62.2544 76.0711 62.2544 76.421V77.5383C63.1912 77.5271 63.8967 77.5214 64.3707 77.5214H68.7048C68.8177 77.8262 68.891 78.176 68.9249 78.5711C68.97 78.9548 68.9926 79.2821 68.9926 79.553C68.9926 79.869 68.97 80.2246 68.9249 80.6196C68.891 81.0034 68.8177 81.3533 68.7048 81.6693H64.3707C64.1562 81.6693 63.8572 81.6693 63.4734 81.6693C63.0897 81.6693 62.6833 81.6693 62.2544 81.6693V82.7697C62.2544 83.1873 62.2488 83.5316 62.2375 83.8025C62.2262 84.0733 62.2206 84.412 62.2206 84.8183V84.8521C62.6156 84.8296 62.9824 84.807 63.321 84.7844C63.6596 84.7618 64.0716 84.7506 64.5569 84.7506H71.1766ZM98.5202 82.0079C98.5202 84.3442 97.8205 86.1783 96.4209 87.5102C95.0326 88.842 92.9728 89.5079 90.2414 89.5079C87.51 89.5079 85.4446 88.842 84.045 87.5102C82.6568 86.1783 81.9626 84.3442 81.9626 82.0079V70.3431L82.1658 70.1399H84.0958C85.1229 70.1399 85.913 70.3995 86.466 70.9187C87.0304 71.4379 87.3125 72.3126 87.3125 73.5428V81.991C87.3125 83.018 87.527 83.825 87.9559 84.412C88.3848 84.9989 89.1466 85.2923 90.2414 85.2923C91.3475 85.2923 92.1094 84.9989 92.527 84.412C92.9446 83.825 93.1534 83.018 93.1534 81.991V70.3431C93.6049 70.2528 94.0676 70.1963 94.5417 70.1738C95.0157 70.1512 95.4277 70.1399 95.7776 70.1399C96.0936 70.1399 96.5225 70.1568 97.0642 70.1907C97.606 70.2133 98.0913 70.2697 98.5202 70.36V82.0079ZM109.636 80.4842C109.557 80.3036 109.433 80.0214 109.263 79.6377C109.094 79.2426 108.914 78.8194 108.722 78.3679C108.53 77.9164 108.349 77.4932 108.18 77.0982C108.022 76.7031 107.898 76.4153 107.807 76.2347L107.689 76.2855C107.734 77.1772 107.779 78.1422 107.824 79.1806C107.87 80.2076 107.903 81.1501 107.926 82.0079C107.96 82.8544 107.977 83.4695 107.977 83.8533V89C107.537 89.079 107.113 89.1298 106.707 89.1524C106.301 89.1862 105.923 89.2032 105.573 89.2032C105.257 89.2032 104.862 89.1862 104.388 89.1524C103.925 89.1298 103.485 89.079 103.067 89V70.4616C103.485 70.36 104.004 70.281 104.625 70.2245C105.245 70.1681 105.725 70.1399 106.064 70.1399C106.414 70.1399 106.91 70.1512 107.553 70.1738C108.197 70.185 108.727 70.2415 109.145 70.3431L113.123 78.825C113.202 78.983 113.332 79.2709 113.513 79.6885C113.705 80.1061 113.908 80.5632 114.122 81.0598C114.337 81.5564 114.534 82.0248 114.715 82.465C114.907 82.8939 115.048 83.2099 115.138 83.4131L115.291 83.3792C115.245 82.6343 115.183 81.7652 115.104 80.772C115.037 79.7788 114.975 78.8194 114.918 77.8939C114.862 76.9684 114.833 76.2291 114.833 75.676V73.0349C114.833 71.8386 115.093 71.0541 115.612 70.6817C116.131 70.2979 116.905 70.106 117.932 70.106H119.675L119.879 70.3431V88.8984C119.438 89 118.908 89.0734 118.287 89.1185C117.666 89.1749 117.192 89.2032 116.865 89.2032C116.639 89.2032 116.329 89.1975 115.934 89.1862C115.539 89.1749 115.133 89.158 114.715 89.1354C114.309 89.1129 113.97 89.0677 113.699 89L109.636 80.4842ZM37.623 112.343C38.1648 112.241 38.7574 112.174 39.4007 112.14C40.044 112.095 40.5858 112.072 41.026 112.072C41.4436 112.072 41.9854 112.095 42.6513 112.14C43.3172 112.174 43.8759 112.241 44.3273 112.343L45.9865 119.691C46.0881 120.131 46.2066 120.729 46.342 121.485C46.4775 122.23 46.6129 123.032 46.7483 123.889H46.9684C47.2393 122.083 47.4933 120.684 47.7303 119.691L49.3725 112.343C49.903 112.241 50.4842 112.174 51.1163 112.14C51.7484 112.095 52.2732 112.072 52.6908 112.072C53.131 112.072 53.6784 112.095 54.333 112.14C54.9876 112.174 55.5746 112.241 56.0937 112.343L58.0068 130.932C57.2732 131.113 56.3872 131.203 55.3488 131.203C54.9538 131.203 54.5305 131.186 54.0791 131.152C53.6389 131.119 53.2438 131.068 52.894 131L52.403 125.007C52.3466 124.239 52.3127 123.398 52.3014 122.484C52.2901 121.57 52.2901 120.678 52.3014 119.809C52.3127 118.929 52.3127 118.167 52.3014 117.524H52.0982L49.6095 128.139C49.2258 128.207 48.7574 128.257 48.2043 128.291C47.6513 128.314 47.1942 128.325 46.833 128.325C46.4605 128.325 45.9978 128.314 45.4447 128.291C44.903 128.257 44.4515 128.207 44.0903 128.139L41.6185 117.524H41.3815C41.3815 118.178 41.3815 118.94 41.3815 119.809C41.3928 120.678 41.3928 121.57 41.3815 122.484C41.3702 123.398 41.3307 124.251 41.263 125.041L40.8228 131C40.4616 131.068 40.0666 131.119 39.6377 131.152C39.2201 131.186 38.8138 131.203 38.4187 131.203C37.3691 131.203 36.4661 131.113 35.7099 130.932L37.623 112.343ZM62.2314 112.343C62.6603 112.253 63.1456 112.196 63.6874 112.174C64.2292 112.151 64.6581 112.14 64.9741 112.14C65.3127 112.14 65.719 112.151 66.1931 112.174C66.6784 112.196 67.1468 112.253 67.5983 112.343V131C67.1468 131.079 66.6784 131.13 66.1931 131.152C65.719 131.186 65.3127 131.203 64.9741 131.203C64.6581 131.203 64.2292 131.186 63.6874 131.152C63.1456 131.13 62.6603 131.079 62.2314 131V112.343ZM86.7179 126.751C86.7179 128.365 86.4639 129.488 85.956 130.12C85.4594 130.752 84.6129 131.068 83.4165 131.068H75.6117C74.6524 131.068 73.8962 130.797 73.3431 130.255C72.7901 129.702 72.5135 128.963 72.5135 128.037V112.529L72.6998 112.343H86.0914C86.1705 112.727 86.2156 113.094 86.2269 113.444C86.2382 113.793 86.2438 114.126 86.2438 114.442C86.2438 114.747 86.21 115.091 86.1422 115.475C86.0858 115.859 85.9842 116.248 85.8375 116.643H79.912C79.4379 116.643 78.7212 116.638 77.7619 116.626C77.7731 116.976 77.7788 117.275 77.7788 117.524C77.7901 117.772 77.7957 118.071 77.7957 118.421V119.538C78.7325 119.527 79.4379 119.521 79.912 119.521H84.2461C84.3589 119.826 84.4323 120.176 84.4662 120.571C84.5113 120.955 84.5339 121.282 84.5339 121.553C84.5339 121.869 84.5113 122.225 84.4662 122.62C84.4323 123.003 84.3589 123.353 84.2461 123.669H79.912C79.6975 123.669 79.3984 123.669 79.0147 123.669C78.6309 123.669 78.2246 123.669 77.7957 123.669V124.77C77.7957 125.187 77.7901 125.532 77.7788 125.802C77.7675 126.073 77.7619 126.412 77.7619 126.818V126.852C78.1569 126.83 78.5237 126.807 78.8623 126.784C79.2009 126.762 79.6129 126.751 80.0982 126.751H86.7179ZM91.5876 112.343C92.1294 112.241 92.7219 112.174 93.3653 112.14C94.0086 112.095 94.5504 112.072 94.9906 112.072C95.4082 112.072 95.95 112.095 96.6159 112.14C97.2818 112.174 97.8405 112.241 98.2919 112.343L99.9511 119.691C100.053 120.131 100.171 120.729 100.307 121.485C100.442 122.23 100.578 123.032 100.713 123.889H100.933C101.204 122.083 101.458 120.684 101.695 119.691L103.337 112.343C103.868 112.241 104.449 112.174 105.081 112.14C105.713 112.095 106.238 112.072 106.655 112.072C107.096 112.072 107.643 112.095 108.298 112.14C108.952 112.174 109.539 112.241 110.058 112.343L111.971 130.932C111.238 131.113 110.352 131.203 109.313 131.203C108.918 131.203 108.495 131.186 108.044 131.152C107.603 131.119 107.208 131.068 106.859 131L106.368 125.007C106.311 124.239 106.277 123.398 106.266 122.484C106.255 121.57 106.255 120.678 106.266 119.809C106.277 118.929 106.277 118.167 106.266 117.524H106.063L103.574 128.139C103.19 128.207 102.722 128.257 102.169 128.291C101.616 128.314 101.159 128.325 100.798 128.325C100.425 128.325 99.9624 128.314 99.4093 128.291C98.8676 128.257 98.4161 128.207 98.0549 128.139L95.5831 117.524H95.3461C95.3461 118.178 95.3461 118.94 95.3461 119.809C95.3574 120.678 95.3574 121.57 95.3461 122.484C95.3348 123.398 95.2953 124.251 95.2276 125.041L94.7874 131C94.4262 131.068 94.0312 131.119 93.6023 131.152C93.1847 131.186 92.7784 131.203 92.3833 131.203C91.3337 131.203 90.4307 131.113 89.6745 130.932L91.5876 112.343ZM116.315 112.309C116.901 112.287 117.607 112.264 118.431 112.241C119.266 112.219 120.124 112.202 121.004 112.191C121.885 112.179 122.692 112.174 123.425 112.174C124.813 112.174 126.055 112.332 127.15 112.648C128.256 112.964 129.125 113.489 129.757 114.222C130.389 114.945 130.705 115.915 130.705 117.134C130.705 117.924 130.485 118.675 130.045 119.386C129.616 120.097 129.023 120.599 128.267 120.893C129.238 121.197 130.05 121.796 130.705 122.687C131.36 123.568 131.687 124.521 131.687 125.549C131.687 126.993 131.348 128.122 130.671 128.935C130.005 129.736 129.08 130.306 127.895 130.644C126.721 130.972 125.378 131.135 123.865 131.135C122.703 131.135 121.495 131.124 120.242 131.102C118.989 131.09 117.68 131.068 116.315 131.034L116.128 130.865V112.512L116.315 112.309ZM123.188 115.814C122.974 115.814 122.686 115.814 122.325 115.814C121.964 115.814 121.619 115.802 121.292 115.78V119.42H123.154C124.057 119.42 124.672 119.234 125 118.861C125.327 118.489 125.491 118.071 125.491 117.608C125.491 117.157 125.327 116.745 125 116.372C124.684 116 124.08 115.814 123.188 115.814ZM121.292 127.495C121.743 127.473 122.184 127.462 122.613 127.462C123.041 127.462 123.431 127.462 123.781 127.462C124.808 127.462 125.485 127.23 125.812 126.767C126.151 126.293 126.32 125.808 126.32 125.311C126.32 124.77 126.117 124.262 125.711 123.788C125.316 123.314 124.582 123.077 123.51 123.077H121.292V127.495ZM150.444 118.015C150.444 118.884 150.246 119.657 149.851 120.334C149.456 121.011 148.96 121.57 148.362 122.01C147.775 122.45 147.188 122.732 146.601 122.857C147.21 123.06 147.713 123.37 148.108 123.788C148.514 124.205 148.864 124.742 149.157 125.396L150.038 127.411C150.241 127.874 150.472 128.302 150.732 128.698C150.991 129.081 151.279 129.409 151.595 129.679C151.268 130.086 150.777 130.464 150.122 130.814C149.468 131.152 148.757 131.322 147.989 131.322C147.233 131.322 146.618 131.141 146.144 130.78C145.681 130.407 145.275 129.815 144.925 129.002L143.435 125.582C143.198 125.029 142.904 124.696 142.555 124.584C142.205 124.471 141.753 124.414 141.2 124.414H140.54V131C140.088 131.079 139.62 131.13 139.135 131.152C138.661 131.186 138.254 131.203 137.916 131.203C137.6 131.203 137.182 131.186 136.663 131.152C136.144 131.13 135.67 131.079 135.241 131V112.512L135.427 112.309C136.793 112.275 138.074 112.247 139.27 112.225C140.478 112.191 141.68 112.174 142.876 112.174C144.231 112.174 145.483 112.354 146.635 112.716C147.786 113.065 148.706 113.669 149.394 114.527C150.094 115.374 150.444 116.536 150.444 118.015ZM140.54 116V120.385C140.935 120.374 141.296 120.368 141.623 120.368C141.962 120.357 142.21 120.351 142.368 120.351C143.384 120.351 144.073 120.131 144.434 119.691C144.795 119.251 144.976 118.737 144.976 118.15C144.976 117.574 144.795 117.078 144.434 116.66C144.073 116.243 143.469 116.034 142.622 116.034C142.216 116.034 141.866 116.028 141.573 116.017C141.279 116.006 140.935 116 140.54 116ZM152.949 121.705C152.949 118.681 153.728 116.282 155.285 114.51C156.854 112.727 159.14 111.835 162.142 111.835C165.189 111.835 167.486 112.721 169.032 114.493C170.59 116.254 171.369 118.658 171.369 121.705C171.369 124.753 170.59 127.151 169.032 128.901C167.475 130.639 165.178 131.508 162.142 131.508C159.094 131.508 156.798 130.628 155.251 128.867C153.716 127.106 152.949 124.719 152.949 121.705ZM158.417 121.705C158.417 122.349 158.457 123.015 158.536 123.703C158.626 124.38 158.795 125.012 159.044 125.599C159.303 126.186 159.681 126.666 160.178 127.038C160.675 127.4 161.335 127.58 162.159 127.58C162.983 127.58 163.643 127.4 164.14 127.038C164.636 126.666 165.009 126.186 165.257 125.599C165.517 125.012 165.686 124.38 165.765 123.703C165.855 123.015 165.9 122.349 165.9 121.705C165.9 121.051 165.855 120.379 165.765 119.691C165.686 118.991 165.517 118.348 165.257 117.761C165.009 117.162 164.636 116.683 164.14 116.322C163.643 115.949 162.983 115.763 162.159 115.763C161.335 115.763 160.675 115.949 160.178 116.322C159.681 116.683 159.303 117.162 159.044 117.761C158.795 118.348 158.626 118.991 158.536 119.691C158.457 120.379 158.417 121.051 158.417 121.705Z" fill="white" fill-opacity="0.87"/>
<path d="M299.111 114.09C300.111 115.68 345.611 116.18 347.111 114.09C348.611 112 343.38 68.9603 323.111 70.4535C303.715 71.8823 298.111 112.5 299.111 114.09Z" fill="#C4C4C4"/>
<path d="M314.383 55.1808C318.473 60.6339 327.748 60.6339 331.838 55.1808C334.905 51.0909 334.905 46.1797 331.838 42.0899C327.748 36.6367 318.473 36.6367 314.383 42.0899C311.316 46.1797 311.316 51.0909 314.383 55.1808Z" fill="#C4C4C4"/>
<path d="M299.111 114.09C300.111 115.68 345.611 116.18 347.111 114.09C348.611 112 343.38 68.9603 323.111 70.4535C303.715 71.8823 298.111 112.5 299.111 114.09Z" stroke="#D7D9DC" stroke-width="4.36364"/>
<path d="M314.383 55.1808C318.473 60.6339 327.748 60.6339 331.838 55.1808C334.905 51.0909 334.905 46.1797 331.838 42.0899C327.748 36.6367 318.473 36.6367 314.383 42.0899C311.316 46.1797 311.316 51.0909 314.383 55.1808Z" stroke="#D7D9DC" stroke-width="4.36364"/>
</svg>
