<svg width="392" height="155" viewBox="0 0 392 155" fill="none" xmlns="http://www.w3.org/2000/svg">
<rect width="392" height="155" rx="20" fill="black" fill-opacity="0.25"/>
<path d="M45.9617 51.7291C45.9617 53.5011 45.6005 54.9853 44.8782 56.1817C44.1671 57.3668 43.1851 58.2584 41.9323 58.8566C40.6908 59.4548 39.2687 59.7539 37.6659 59.7539H35.0079V67C34.5565 67.079 34.0768 67.1298 33.5689 67.1524C33.0723 67.1862 32.6434 67.2032 32.2822 67.2032C31.9549 67.2032 31.5316 67.1862 31.0124 67.1524C30.4932 67.1298 30.0136 67.079 29.5734 67V44.0428L29.8104 43.8058C31.2551 43.7719 32.6039 43.7437 33.8567 43.7212C35.1208 43.6873 36.3905 43.6704 37.6659 43.6704C39.2687 43.6704 40.6908 43.9638 41.9323 44.5507C43.1851 45.1263 44.1671 46.0124 44.8782 47.2087C45.6005 48.3939 45.9617 49.9006 45.9617 51.7291ZM35.0079 47.8013V55.6907C35.482 55.6794 35.9221 55.6681 36.3285 55.6569C36.7461 55.6456 37.0395 55.6399 37.2088 55.6399C38.1118 55.6399 38.7946 55.4255 39.2574 54.9966C39.7201 54.5677 40.0305 54.0541 40.1885 53.4559C40.3465 52.8465 40.4255 52.2708 40.4255 51.7291C40.4255 51.1986 40.3465 50.6343 40.1885 50.0361C40.0305 49.4266 39.7201 48.9074 39.2574 48.4785C38.7946 48.0496 38.1118 47.8352 37.2088 47.8352C36.8702 47.8352 36.5316 47.8352 36.193 47.8352C35.8544 47.8239 35.4594 47.8126 35.0079 47.8013ZM47.642 57.7054C47.642 54.6806 48.4208 52.2821 49.9783 50.5101C51.5472 48.7268 53.8328 47.8352 56.835 47.8352C59.8824 47.8352 62.1793 48.7212 63.7256 50.4932C65.2831 52.2539 66.0619 54.658 66.0619 57.7054C66.0619 60.7528 65.2831 63.1512 63.7256 64.9007C62.168 66.6388 59.8711 67.5079 56.835 67.5079C53.7876 67.5079 51.4908 66.6275 49.9445 64.8668C48.4095 63.1061 47.642 60.7189 47.642 57.7054ZM53.1104 57.7054C53.1104 58.3487 53.1499 59.0146 53.2289 59.7031C53.3192 60.3803 53.4885 61.0124 53.7368 61.5993C53.9964 62.1862 54.3745 62.6659 54.8711 63.0384C55.3677 63.3995 56.028 63.5801 56.8519 63.5801C57.6759 63.5801 58.3361 63.3995 58.8328 63.0384C59.3294 62.6659 59.7018 62.1862 59.9502 61.5993C60.2097 61.0124 60.379 60.3803 60.4581 59.7031C60.5483 59.0146 60.5935 58.3487 60.5935 57.7054C60.5935 57.0508 60.5483 56.3792 60.4581 55.6907C60.379 54.9909 60.2097 54.3476 59.9502 53.7607C59.7018 53.1625 59.3294 52.6828 58.8328 52.3216C58.3361 51.9492 57.6759 51.7629 56.8519 51.7629C56.028 51.7629 55.3677 51.9492 54.8711 52.3216C54.3745 52.6828 53.9964 53.1625 53.7368 53.7607C53.4885 54.3476 53.3192 54.9909 53.2289 55.6907C53.1499 56.3792 53.1104 57.0508 53.1104 57.7054ZM67.7361 65.5948C67.7361 65.1659 67.8208 64.6919 67.9901 64.1727C68.1594 63.6422 68.3908 63.1512 68.6842 62.6998C68.9777 62.2483 69.2993 61.9097 69.6492 61.684C70.4844 62.1354 71.4156 62.5248 72.4427 62.8521C73.4698 63.1682 74.4743 63.3262 75.4562 63.3262C76.0883 63.3262 76.6075 63.1964 77.0138 62.9368C77.4314 62.6772 77.6402 62.3104 77.6402 61.8363C77.6402 61.5316 77.5217 61.2551 77.2847 61.0068C77.0477 60.7472 76.6357 60.5101 76.0488 60.2957L73.2384 59.1952C72.3693 58.8792 71.5567 58.4842 70.8005 58.0101C70.0443 57.5361 69.4348 56.9548 68.972 56.2663C68.5093 55.5778 68.2779 54.7539 68.2779 53.7945C68.2779 52.0338 68.9551 50.6004 70.3095 49.4943C71.6639 48.3882 73.4867 47.8352 75.7779 47.8352C77.0759 47.8352 78.3626 47.9875 79.638 48.2923C80.9247 48.5857 82.0025 48.9243 82.8716 49.3081C82.8716 50.0756 82.7136 50.8318 82.3976 51.5767C82.0815 52.3216 81.647 52.9085 81.094 53.3374C80.2587 52.965 79.3502 52.6546 78.3682 52.4063C77.3863 52.1467 76.5003 52.0169 75.7102 52.0169C75.1233 52.0169 74.6718 52.141 74.3558 52.3893C74.051 52.6377 73.8987 52.9368 73.8987 53.2866C73.8987 53.614 74.051 53.8623 74.3558 54.0316C74.6605 54.2009 75.0386 54.3702 75.4901 54.5395L78.2836 55.6061C79.8411 56.1704 81.077 56.9492 81.9913 57.9424C82.9168 58.9244 83.3795 60.1377 83.3795 61.5824C83.3795 62.8578 83.0353 63.9357 82.3468 64.816C81.6696 65.6964 80.7384 66.3623 79.5533 66.8138C78.3795 67.2652 77.0533 67.4966 75.5748 67.5079C73.814 67.5079 72.2452 67.3047 70.8682 66.8984C69.5025 66.4921 68.4585 66.0576 67.7361 65.5948ZM86.7438 48.3431C87.1727 48.2528 87.6581 48.1963 88.1998 48.1738C88.7416 48.1512 89.1705 48.1399 89.4865 48.1399C89.8251 48.1399 90.2314 48.1512 90.7055 48.1738C91.1908 48.1963 91.6592 48.2528 92.1107 48.3431V67C91.6592 67.079 91.1908 67.1298 90.7055 67.1524C90.2314 67.1862 89.8251 67.2032 89.4865 67.2032C89.1705 67.2032 88.7416 67.1862 88.1998 67.1524C87.6581 67.1298 87.1727 67.079 86.7438 67V48.3431ZM107.353 56.7912C107.353 55.3578 107.161 54.2065 106.778 53.3374C106.394 52.4571 105.621 52.0169 104.458 52.0169C103.251 52.0169 102.393 52.5135 101.885 53.5067C101.377 54.5 101.123 55.9277 101.123 57.79C101.123 59.2122 101.304 60.307 101.665 61.0745C102.037 61.8307 102.511 62.3555 103.087 62.649C103.663 62.9424 104.272 63.0892 104.915 63.0892C105.751 63.0892 106.586 62.9086 107.421 62.5474C108.268 62.1749 109.024 61.7404 109.69 61.2438C110.051 61.4244 110.401 61.7122 110.739 62.1072C111.078 62.5022 111.371 62.9255 111.62 63.377C111.868 63.8284 112.026 64.2404 112.094 64.6129C111.157 65.4142 110.017 66.0971 108.674 66.6614C107.342 67.2257 105.824 67.5079 104.12 67.5079C102.483 67.5079 101.117 67.2201 100.023 66.6445C98.939 66.0688 98.0756 65.3126 97.4323 64.3758C96.7889 63.4278 96.3318 62.3781 96.0609 61.2268C95.79 60.0756 95.6546 58.9187 95.6546 57.7562C95.6546 55.4424 96.0722 53.5575 96.9074 52.1015C97.7539 50.6343 98.86 49.5564 100.226 48.8679C101.603 48.1794 103.076 47.8352 104.644 47.8352C106.405 47.8352 107.856 48.1455 108.996 48.7663C110.135 49.3871 110.982 50.1715 111.535 51.1196C112.088 52.0677 112.365 53.044 112.365 54.0485C112.365 55.9785 111.281 56.9435 109.114 56.9435C108.854 56.9435 108.572 56.9266 108.268 56.8927C107.963 56.8589 107.658 56.825 107.353 56.7912ZM115.71 48.3431C116.139 48.2528 116.624 48.1963 117.166 48.1738C117.708 48.1512 118.137 48.1399 118.453 48.1399C118.791 48.1399 119.198 48.1512 119.672 48.1738C120.157 48.1963 120.625 48.2528 121.077 48.3431V67C120.625 67.079 120.157 67.1298 119.672 67.1524C119.198 67.1862 118.791 67.2032 118.453 67.2032C118.137 67.2032 117.708 67.1862 117.166 67.1524C116.624 67.1298 116.139 67.079 115.71 67V48.3431ZM124.621 57.7054C124.621 54.6806 125.4 52.2821 126.957 50.5101C128.526 48.7268 130.812 47.8352 133.814 47.8352C136.861 47.8352 139.158 48.7212 140.704 50.4932C142.262 52.2539 143.041 54.658 143.041 57.7054C143.041 60.7528 142.262 63.1512 140.704 64.9007C139.147 66.6388 136.85 67.5079 133.814 67.5079C130.767 67.5079 128.47 66.6275 126.923 64.8668C125.388 63.1061 124.621 60.7189 124.621 57.7054ZM130.089 57.7054C130.089 58.3487 130.129 59.0146 130.208 59.7031C130.298 60.3803 130.467 61.0124 130.716 61.5993C130.975 62.1862 131.353 62.6659 131.85 63.0384C132.347 63.3995 133.007 63.5801 133.831 63.5801C134.655 63.5801 135.315 63.3995 135.812 63.0384C136.308 62.6659 136.681 62.1862 136.929 61.5993C137.189 61.0124 137.358 60.3803 137.437 59.7031C137.527 59.0146 137.572 58.3487 137.572 57.7054C137.572 57.0508 137.527 56.3792 137.437 55.6907C137.358 54.9909 137.189 54.3476 136.929 53.7607C136.681 53.1625 136.308 52.6828 135.812 52.3216C135.315 51.9492 134.655 51.7629 133.831 51.7629C133.007 51.7629 132.347 51.9492 131.85 52.3216C131.353 52.6828 130.975 53.1625 130.716 53.7607C130.467 54.3476 130.298 54.9909 130.208 55.6907C130.129 56.3792 130.089 57.0508 130.089 57.7054ZM135.913 39.1839C136.534 39.3758 137.166 39.7652 137.809 40.3521C138.464 40.9277 138.893 41.5541 139.096 42.2313L132.832 46.9379C132.392 46.8024 131.963 46.5485 131.545 46.176C131.128 45.8036 130.829 45.3747 130.648 44.8893L135.913 39.1839ZM153.095 58.4842C153.016 58.3036 152.892 58.0214 152.723 57.6377C152.554 57.2426 152.373 56.8194 152.181 56.3679C151.989 55.9164 151.809 55.4932 151.639 55.0982C151.481 54.7031 151.357 54.4153 151.267 54.2347L151.148 54.2855C151.194 55.1772 151.239 56.1422 151.284 57.1806C151.329 58.2076 151.363 59.1501 151.385 60.0079C151.419 60.8544 151.436 61.4695 151.436 61.8533V67C150.996 67.079 150.573 67.1298 150.167 67.1524C149.76 67.1862 149.382 67.2032 149.032 67.2032C148.716 67.2032 148.321 67.1862 147.847 67.1524C147.384 67.1298 146.944 67.079 146.527 67V48.4616C146.944 48.36 147.463 48.281 148.084 48.2245C148.705 48.1681 149.185 48.1399 149.523 48.1399C149.873 48.1399 150.37 48.1512 151.013 48.1738C151.656 48.185 152.187 48.2415 152.604 48.3431L156.583 56.825C156.662 56.983 156.792 57.2709 156.972 57.6885C157.164 58.1061 157.367 58.5632 157.582 59.0598C157.796 59.5564 157.994 60.0248 158.174 60.465C158.366 60.8939 158.507 61.2099 158.598 61.4131L158.75 61.3792C158.705 60.6343 158.643 59.7652 158.564 58.772C158.496 57.7788 158.434 56.8194 158.378 55.8939C158.321 54.9684 158.293 54.2291 158.293 53.676V51.0349C158.293 49.8386 158.553 49.0541 159.072 48.6817C159.591 48.2979 160.364 48.106 161.391 48.106H163.135L163.338 48.3431V66.8984C162.898 67 162.367 67.0734 161.747 67.1185C161.126 67.1749 160.652 67.2032 160.325 67.2032C160.099 67.2032 159.788 67.1975 159.393 67.1862C158.998 67.1749 158.592 67.158 158.174 67.1354C157.768 67.1129 157.43 67.0677 157.159 67L153.095 58.4842ZM192.673 57.7054C192.673 60.8657 191.934 63.2302 190.455 64.7991C188.977 66.3567 186.646 67.1354 183.463 67.1354C182.12 67.1354 180.844 67.1242 179.637 67.1016C178.44 67.0903 177.176 67.0677 175.844 67.0339L175.658 66.8307V48.5124L175.844 48.3092C177.188 48.2753 178.457 48.2471 179.654 48.2245C180.85 48.1907 182.12 48.1738 183.463 48.1738C186.612 48.1738 188.931 48.992 190.421 50.6286C191.922 52.2539 192.673 54.6128 192.673 57.7054ZM187.221 57.7054C187.221 56.8815 187.137 56.0575 186.967 55.2336C186.798 54.3984 186.443 53.6986 185.901 53.1343C185.359 52.5699 184.546 52.2878 183.463 52.2878C182.966 52.2878 182.537 52.2878 182.176 52.2878C181.826 52.2765 181.42 52.2652 180.957 52.2539V63.0892C181.443 63.0892 181.855 63.0835 182.193 63.0722C182.543 63.0609 182.966 63.0553 183.463 63.0553C184.546 63.0553 185.359 62.7788 185.901 62.2257C186.443 61.6614 186.798 60.9673 186.967 60.1433C187.137 59.3194 187.221 58.5067 187.221 57.7054ZM210.397 62.7506C210.397 64.3646 210.143 65.4876 209.635 66.1196C209.138 66.7517 208.292 67.0677 207.095 67.0677H199.291C198.331 67.0677 197.575 66.7968 197.022 66.2551C196.469 65.702 196.193 64.9627 196.193 64.0372V48.5293L196.379 48.3431H209.77C209.849 48.7268 209.895 49.0936 209.906 49.4435C209.917 49.7934 209.923 50.1264 209.923 50.4424C209.923 50.7471 209.889 51.0914 209.821 51.4751C209.765 51.8589 209.663 52.2483 209.516 52.6433H203.591C203.117 52.6433 202.4 52.6377 201.441 52.6264C201.452 52.9763 201.458 53.2754 201.458 53.5237C201.469 53.772 201.475 54.0711 201.475 54.421V55.5383C202.412 55.5271 203.117 55.5214 203.591 55.5214H207.925C208.038 55.8262 208.111 56.176 208.145 56.5711C208.19 56.9548 208.213 57.2821 208.213 57.553C208.213 57.869 208.19 58.2246 208.145 58.6196C208.111 59.0034 208.038 59.3533 207.925 59.6693H203.591C203.377 59.6693 203.077 59.6693 202.694 59.6693C202.31 59.6693 201.904 59.6693 201.475 59.6693V60.7697C201.475 61.1873 201.469 61.5316 201.458 61.8025C201.446 62.0733 201.441 62.412 201.441 62.8183V62.8521C201.836 62.8296 202.203 62.807 202.541 62.7844C202.88 62.7618 203.292 62.7506 203.777 62.7506H210.397ZM45.6569 102.008C45.6569 104.344 44.9572 106.178 43.5576 107.51C42.1693 108.842 40.1095 109.508 37.3781 109.508C34.6467 109.508 32.5813 108.842 31.1817 107.51C29.7935 106.178 29.0993 104.344 29.0993 102.008V90.3431L29.3025 90.1399H31.2325C32.2596 90.1399 33.0497 90.3995 33.6027 90.9187C34.1671 91.4379 34.4492 92.3126 34.4492 93.5428V101.991C34.4492 103.018 34.6637 103.825 35.0926 104.412C35.5215 104.999 36.2833 105.292 37.3781 105.292C38.4842 105.292 39.2461 104.999 39.6637 104.412C40.0813 103.825 40.2901 103.018 40.2901 101.991V90.3431C40.7416 90.2528 41.2043 90.1963 41.6784 90.1738C42.1524 90.1512 42.5644 90.1399 42.9143 90.1399C43.2303 90.1399 43.6592 90.1568 44.201 90.1907C44.7427 90.2133 45.228 90.2697 45.6569 90.36V102.008ZM56.7726 100.484C56.6936 100.304 56.5694 100.021 56.4001 99.6377C56.2308 99.2426 56.0502 98.8194 55.8584 98.3679C55.6665 97.9164 55.4859 97.4932 55.3166 97.0982C55.1586 96.7031 55.0344 96.4153 54.9441 96.2347L54.8256 96.2855C54.8708 97.1772 54.9159 98.1422 54.9611 99.1806C55.0062 100.208 55.0401 101.15 55.0627 102.008C55.0965 102.854 55.1134 103.47 55.1134 103.853V109C54.6733 109.079 54.25 109.13 53.8437 109.152C53.4374 109.186 53.0593 109.203 52.7094 109.203C52.3933 109.203 51.9983 109.186 51.5243 109.152C51.0615 109.13 50.6213 109.079 50.2037 109V90.4616C50.6213 90.36 51.1405 90.281 51.7613 90.2245C52.3821 90.1681 52.8617 90.1399 53.2003 90.1399C53.5502 90.1399 54.0468 90.1512 54.6902 90.1738C55.3335 90.185 55.864 90.2415 56.2816 90.3431L60.2602 98.825C60.3392 98.983 60.469 99.2709 60.6496 99.6885C60.8414 100.106 61.0446 100.563 61.2591 101.06C61.4735 101.556 61.671 102.025 61.8516 102.465C62.0435 102.894 62.1846 103.21 62.2749 103.413L62.4272 103.379C62.3821 102.634 62.32 101.765 62.241 100.772C62.1733 99.7788 62.1112 98.8194 62.0548 97.8939C61.9983 96.9684 61.9701 96.2291 61.9701 95.676V93.0349C61.9701 91.8386 62.2297 91.0541 62.7489 90.6817C63.2681 90.2979 64.0412 90.106 65.0683 90.106H66.8121L67.0153 90.3431V108.898C66.5751 109 66.0446 109.073 65.4239 109.119C64.8031 109.175 64.329 109.203 64.0017 109.203C63.776 109.203 63.4656 109.198 63.0706 109.186C62.6755 109.175 62.2692 109.158 61.8516 109.135C61.4453 109.113 61.1067 109.068 60.8358 109L56.7726 100.484ZM90.306 104.056C90.306 103.492 90.3173 102.928 90.3399 102.363C90.1367 102.363 89.9279 102.363 89.7135 102.363C89.5103 102.363 89.3128 102.363 89.1209 102.363C88.2857 102.363 87.6762 102.188 87.2925 101.839C86.9087 101.477 86.7169 100.907 86.7169 100.129C86.7169 99.8239 86.7394 99.4684 86.7846 99.062C86.841 98.6557 86.9087 98.3453 86.9877 98.1309C87.8004 98.097 88.6074 98.0801 89.4087 98.0801C90.2101 98.0688 91.0227 98.0632 91.8467 98.0632C93.1446 98.0632 94.0307 98.3115 94.5047 98.8081C94.99 99.3047 95.2327 100.01 95.2327 100.924V108.407C94.6345 108.599 93.8726 108.78 92.9471 108.949C92.0216 109.119 91.0622 109.254 90.069 109.356C89.0758 109.457 88.1728 109.508 87.3602 109.508C85.1141 109.508 83.297 109.096 81.9087 108.272C80.5317 107.448 79.5272 106.319 78.8952 104.886C78.2744 103.441 77.964 101.805 77.964 99.9763C77.964 97.5609 78.4098 95.614 79.3015 94.1354C80.2044 92.6456 81.4008 91.5564 82.8907 90.8679C84.3805 90.1794 86.0114 89.8352 87.7835 89.8352C89.1153 89.8352 90.3963 89.9706 91.6266 90.2415C92.8681 90.5011 93.9629 90.851 94.911 91.2911C94.8546 92.0248 94.6345 92.7923 94.2507 93.5936C93.8783 94.3837 93.455 94.9875 92.981 95.4052C91.2541 94.5474 89.6119 94.1185 88.0543 94.1185C84.9731 94.1185 83.4324 96.0485 83.4324 99.9086C83.4324 101.827 83.8275 103.244 84.6175 104.158C85.4076 105.072 86.6209 105.529 88.2575 105.529C88.5961 105.529 88.9403 105.518 89.2902 105.495C89.6401 105.462 89.9787 105.416 90.306 105.36V104.056ZM114.478 96.0146C114.478 96.8837 114.28 97.6569 113.885 98.3341C113.49 99.0113 112.993 99.5699 112.395 100.01C111.808 100.45 111.221 100.732 110.635 100.857C111.244 101.06 111.746 101.37 112.141 101.788C112.548 102.205 112.898 102.742 113.191 103.396L114.071 105.411C114.275 105.874 114.506 106.302 114.765 106.698C115.025 107.081 115.313 107.409 115.629 107.679C115.302 108.086 114.811 108.464 114.156 108.814C113.501 109.152 112.79 109.322 112.023 109.322C111.267 109.322 110.651 109.141 110.177 108.78C109.715 108.407 109.308 107.815 108.958 107.002L107.469 103.582C107.232 103.029 106.938 102.696 106.588 102.584C106.238 102.471 105.787 102.414 105.234 102.414H104.574V109C104.122 109.079 103.654 109.13 103.168 109.152C102.694 109.186 102.288 109.203 101.949 109.203C101.633 109.203 101.216 109.186 100.697 109.152C100.177 109.13 99.7034 109.079 99.2745 109V90.5124L99.4607 90.3092C100.826 90.2753 102.107 90.2471 103.304 90.2245C104.512 90.1907 105.714 90.1738 106.91 90.1738C108.264 90.1738 109.517 90.3543 110.668 90.7155C111.82 91.0654 112.74 91.6693 113.428 92.527C114.128 93.3735 114.478 94.5361 114.478 96.0146ZM104.574 94V98.3848C104.969 98.3736 105.33 98.3679 105.657 98.3679C105.996 98.3566 106.244 98.351 106.402 98.351C107.418 98.351 108.106 98.1309 108.468 97.6907C108.829 97.2505 109.009 96.737 109.009 96.1501C109.009 95.5745 108.829 95.0778 108.468 94.6602C108.106 94.2426 107.502 94.0338 106.656 94.0338C106.25 94.0338 105.9 94.0282 105.606 94.0169C105.313 94.0056 104.969 94 104.574 94ZM134.771 102.008C134.771 104.344 134.072 106.178 132.672 107.51C131.284 108.842 129.224 109.508 126.492 109.508C123.761 109.508 121.696 108.842 120.296 107.51C118.908 106.178 118.214 104.344 118.214 102.008V90.3431L118.417 90.1399H120.347C121.374 90.1399 122.164 90.3995 122.717 90.9187C123.281 91.4379 123.564 92.3126 123.564 93.5428V101.991C123.564 103.018 123.778 103.825 124.207 104.412C124.636 104.999 125.398 105.292 126.492 105.292C127.599 105.292 128.36 104.999 128.778 104.412C129.196 103.825 129.404 103.018 129.404 101.991V90.3431C129.856 90.2528 130.319 90.1963 130.793 90.1738C131.267 90.1512 131.679 90.1399 132.029 90.1399C132.345 90.1399 132.774 90.1568 133.315 90.1907C133.857 90.2133 134.342 90.2697 134.771 90.36V102.008ZM154.149 96.7426C154.149 98.2099 153.816 99.4289 153.15 100.4C152.495 101.359 151.592 102.076 150.441 102.55C149.29 103.012 147.981 103.244 146.513 103.244H144.668V109C144.216 109.079 143.754 109.13 143.28 109.152C142.806 109.186 142.399 109.203 142.061 109.203C141.745 109.203 141.316 109.186 140.774 109.152C140.232 109.13 139.747 109.079 139.318 109V90.5124L139.504 90.3092C140.419 90.2866 141.519 90.2584 142.806 90.2245C144.092 90.1907 145.328 90.1738 146.513 90.1738C147.992 90.1738 149.307 90.3995 150.458 90.851C151.609 91.3024 152.512 92.0135 153.167 92.9842C153.821 93.9548 154.149 95.2076 154.149 96.7426ZM144.668 94.1354V99.316C144.973 99.3047 145.249 99.2991 145.498 99.2991C145.746 99.2878 145.932 99.2821 146.056 99.2821C146.801 99.2821 147.36 99.1467 147.732 98.8758C148.116 98.5936 148.37 98.255 148.494 97.86C148.618 97.4537 148.68 97.0699 148.68 96.7088C148.68 96.3702 148.618 96.0033 148.494 95.6083C148.37 95.2133 148.116 94.8747 147.732 94.5925C147.36 94.3103 146.801 94.1693 146.056 94.1693C145.774 94.1693 145.571 94.1693 145.447 94.1693C145.323 94.158 145.063 94.1467 144.668 94.1354ZM156.034 99.7054C156.034 96.6806 156.813 94.2821 158.37 92.5101C159.939 90.7268 162.225 89.8352 165.227 89.8352C168.275 89.8352 170.571 90.7212 172.118 92.4932C173.675 94.2539 174.454 96.658 174.454 99.7054C174.454 102.753 173.675 105.151 172.118 106.901C170.56 108.639 168.263 109.508 165.227 109.508C162.18 109.508 159.883 108.628 158.337 106.867C156.802 105.106 156.034 102.719 156.034 99.7054ZM161.503 99.7054C161.503 100.349 161.542 101.015 161.621 101.703C161.711 102.38 161.881 103.012 162.129 103.599C162.389 104.186 162.767 104.666 163.263 105.038C163.76 105.4 164.42 105.58 165.244 105.58C166.068 105.58 166.728 105.4 167.225 105.038C167.722 104.666 168.094 104.186 168.342 103.599C168.602 103.012 168.771 102.38 168.85 101.703C168.94 101.015 168.986 100.349 168.986 99.7054C168.986 99.0508 168.94 98.3792 168.85 97.6907C168.771 96.9909 168.602 96.3476 168.342 95.7607C168.094 95.1625 167.722 94.6828 167.225 94.3216C166.728 93.9492 166.068 93.7629 165.244 93.7629C164.42 93.7629 163.76 93.9492 163.263 94.3216C162.767 94.6828 162.389 95.1625 162.129 95.7607C161.881 96.3476 161.711 96.9909 161.621 97.6907C161.542 98.3792 161.503 99.0508 161.503 99.7054Z" fill="white" fill-opacity="0.87"/>
</svg>
