<svg width="253" height="102" viewBox="0 0 253 102" fill="none" xmlns="http://www.w3.org/2000/svg">
<rect opacity="0.5" y="0.397461" width="253" height="101.083" rx="10" fill="#DBDADA"/>
<path d="M53.0711 37.603C53.1388 36.8468 53.3702 36.0962 53.7652 35.3513C54.1716 34.6064 54.64 34.0082 55.1704 33.5567C56.1185 34.1323 57.1964 34.6459 58.4041 35.0973C59.6118 35.5488 60.8194 35.7745 62.0271 35.7745C63.0091 35.7745 63.7145 35.5375 64.1434 35.0635C64.5723 34.5894 64.7867 34.0815 64.7867 33.5398C64.7867 33.1673 64.6682 32.7497 64.4312 32.287C64.1942 31.8242 63.6016 31.3953 62.6535 31.0003L58.5734 29.3073C57.1738 28.7204 56.0169 27.9359 55.1027 26.954C54.1885 25.972 53.7314 24.6741 53.7314 23.0601C53.7314 21.6492 54.0982 20.4133 54.8318 19.3524C55.5655 18.2914 56.5531 17.4675 57.7946 16.8806C59.0474 16.2824 60.4413 15.9833 61.9763 15.9833C63.5677 15.9833 65.0689 16.1977 66.4797 16.6266C67.8906 17.0442 69.0362 17.4788 69.9165 17.9303C69.8714 18.709 69.6851 19.4596 69.3578 20.182C69.0418 20.893 68.6186 21.4912 68.0881 21.9765C67.2303 21.5702 66.2258 21.1978 65.0745 20.8592C63.9233 20.5093 62.8905 20.3343 61.9763 20.3343C61.0057 20.3343 60.3115 20.5544 59.8939 20.9946C59.4876 21.4348 59.2844 21.8806 59.2844 22.3321C59.2844 22.761 59.4255 23.1447 59.7077 23.4833C60.0011 23.8219 60.5203 24.1492 61.2653 24.4653L65.4301 26.1752C67.0666 26.8524 68.3251 27.7723 69.2055 28.9348C70.0971 30.0973 70.5429 31.4066 70.5429 32.8626C70.5429 34.2283 70.21 35.4585 69.5441 36.5533C68.8894 37.6481 67.9018 38.5172 66.5813 39.1606C65.2608 39.8039 63.6129 40.1256 61.6377 40.1256C60.272 40.1256 58.816 39.9111 57.2698 39.4822C55.7235 39.0421 54.3239 38.4156 53.0711 37.603ZM72.4777 30.3231C72.4777 27.2982 73.2565 24.8998 74.8141 23.1278C76.3829 21.3445 78.6685 20.4528 81.6708 20.4528C84.7182 20.4528 87.015 21.3388 88.5613 23.1109C90.1189 24.8716 90.8976 27.2757 90.8976 30.3231C90.8976 33.3705 90.1189 35.7689 88.5613 37.5183C87.0037 39.2565 84.7069 40.1256 81.6708 40.1256C78.6233 40.1256 76.3265 39.2452 74.7802 37.4845C73.2452 35.7238 72.4777 33.3366 72.4777 30.3231ZM77.9461 30.3231C77.9461 30.9664 77.9856 31.6323 78.0647 32.3208C78.1549 32.998 78.3242 33.6301 78.5726 34.217C78.8321 34.8039 79.2103 35.2836 79.7069 35.656C80.2035 36.0172 80.8638 36.1978 81.6877 36.1978C82.5116 36.1978 83.1719 36.0172 83.6685 35.656C84.1651 35.2836 84.5376 34.8039 84.7859 34.217C85.0455 33.6301 85.2148 32.998 85.2938 32.3208C85.3841 31.6323 85.4292 30.9664 85.4292 30.3231C85.4292 29.6684 85.3841 28.9969 85.2938 28.3084C85.2148 27.6086 85.0455 26.9653 84.7859 26.3784C84.5376 25.7802 84.1651 25.3005 83.6685 24.9393C83.1719 24.5668 82.5116 24.3806 81.6877 24.3806C80.8638 24.3806 80.2035 24.5668 79.7069 24.9393C79.2103 25.3005 78.8321 25.7802 78.5726 26.3784C78.3242 26.9653 78.1549 27.6086 78.0647 28.3084C77.9856 28.9969 77.9461 29.6684 77.9461 30.3231ZM107.555 35.2836C107.487 36.9314 107.199 38.0827 106.692 38.7373C106.184 39.3919 105.281 39.7193 103.983 39.7193H97.4139C96.4432 39.7193 95.6814 39.4484 95.1283 38.9066C94.5865 38.3536 94.3157 37.6143 94.3157 36.6888V20.9946L94.5188 20.7914H96.5504C97.5775 20.7914 98.3563 21.051 98.8868 21.5702C99.4173 22.0781 99.6825 22.9303 99.6825 24.1267V35.4529C100.845 35.34 101.889 35.2836 102.815 35.2836H107.555ZM110.786 20.9607C111.215 20.8704 111.7 20.814 112.242 20.7914C112.784 20.7689 113.213 20.7576 113.529 20.7576C113.867 20.7576 114.274 20.7689 114.748 20.7914C115.233 20.814 115.701 20.8704 116.153 20.9607V39.6177C115.701 39.6967 115.233 39.7475 114.748 39.77C114.274 39.8039 113.867 39.8208 113.529 39.8208C113.213 39.8208 112.784 39.8039 112.242 39.77C111.7 39.7475 111.215 39.6967 110.786 39.6177V20.9607ZM131.395 29.4088C131.395 27.9754 131.204 26.8242 130.82 25.9551C130.436 25.0747 129.663 24.6346 128.5 24.6346C127.293 24.6346 126.435 25.1312 125.927 26.1244C125.419 27.1176 125.165 28.5454 125.165 30.4077C125.165 31.8298 125.346 32.9247 125.707 33.6922C126.079 34.4484 126.553 34.9732 127.129 35.2666C127.705 35.5601 128.314 35.7068 128.958 35.7068C129.793 35.7068 130.628 35.5262 131.463 35.1651C132.31 34.7926 133.066 34.3581 133.732 33.8615C134.093 34.042 134.443 34.3299 134.781 34.7249C135.12 35.1199 135.414 35.5432 135.662 35.9946C135.91 36.4461 136.068 36.8581 136.136 37.2305C135.199 38.0319 134.059 38.7147 132.716 39.2791C131.384 39.8434 129.866 40.1256 128.162 40.1256C126.525 40.1256 125.16 39.8378 124.065 39.2621C122.981 38.6865 122.118 37.9303 121.474 36.9935C120.831 36.0454 120.374 34.9958 120.103 33.8445C119.832 32.6933 119.697 31.5364 119.697 30.3739C119.697 28.0601 120.114 26.1752 120.95 24.7192C121.796 23.2519 122.902 22.1741 124.268 21.4856C125.645 20.7971 127.118 20.4528 128.687 20.4528C130.447 20.4528 131.898 20.7632 133.038 21.384C134.178 22.0048 135.024 22.7892 135.577 23.7373C136.13 24.6854 136.407 25.6617 136.407 26.6662C136.407 28.5962 135.323 29.5612 133.156 29.5612C132.897 29.5612 132.614 29.5443 132.31 29.5104C132.005 29.4766 131.7 29.4427 131.395 29.4088ZM139.752 20.9607C140.181 20.8704 140.667 20.814 141.208 20.7914C141.75 20.7689 142.179 20.7576 142.495 20.7576C142.834 20.7576 143.24 20.7689 143.714 20.7914C144.199 20.814 144.668 20.8704 145.119 20.9607V39.6177C144.668 39.6967 144.199 39.7475 143.714 39.77C143.24 39.8039 142.834 39.8208 142.495 39.8208C142.179 39.8208 141.75 39.8039 141.208 39.77C140.667 39.7475 140.181 39.6967 139.752 39.6177V20.9607ZM152.879 27.3095C152.879 26.9483 152.884 26.6154 152.896 26.3106C152.907 25.9946 152.912 25.6447 152.912 25.261C152.675 25.261 152.348 25.2666 151.931 25.2779C151.524 25.2892 151.203 25.2948 150.966 25.2948H147.833C147.743 24.8885 147.687 24.5104 147.664 24.1605C147.642 23.7993 147.63 23.472 147.63 23.1786C147.63 22.8851 147.642 22.5409 147.664 22.1458C147.687 21.7395 147.743 21.3445 147.833 20.9607H163.155C163.234 21.2655 163.291 21.6097 163.324 21.9935C163.37 22.3772 163.392 22.6876 163.392 22.9246C163.392 23.6921 163.189 24.279 162.783 24.6854C162.376 25.0917 161.699 25.2948 160.751 25.2948H160.057C159.82 25.2948 159.504 25.2892 159.109 25.2779C158.725 25.2666 158.426 25.261 158.212 25.261C158.212 25.6447 158.217 25.9946 158.229 26.3106C158.24 26.6154 158.245 26.9483 158.245 27.3095V39.6177C157.929 39.6854 157.495 39.7362 156.942 39.77C156.389 39.8039 155.926 39.8208 155.554 39.8208C155.204 39.8208 154.764 39.8039 154.233 39.77C153.703 39.7362 153.251 39.6854 152.879 39.6177V27.3095ZM168.861 36.3502C168.681 36.3502 168.506 36.3502 168.336 36.3502C168.167 36.3389 167.998 36.3276 167.828 36.3163L166.779 39.6177C166.451 39.6967 166.096 39.7531 165.712 39.787C165.328 39.8321 164.928 39.8547 164.51 39.8547C164.059 39.8547 163.602 39.8208 163.139 39.7531C162.687 39.6854 162.315 39.5895 162.021 39.4653L161.835 39.1775L168.421 20.9607C169.008 20.8704 169.572 20.814 170.114 20.7914C170.667 20.7689 171.169 20.7576 171.621 20.7576C172.038 20.7576 172.49 20.7689 172.975 20.7914C173.46 20.814 174.008 20.8704 174.617 20.9607L181.017 39.3637C180.622 39.5443 180.12 39.6798 179.51 39.77C178.901 39.8716 178.41 39.9224 178.037 39.9224C177.416 39.9224 176.818 39.8039 176.243 39.5669C175.667 39.3299 175.233 38.7035 174.939 37.6876L174.516 36.3163C174.335 36.3276 174.16 36.3389 173.991 36.3502C173.822 36.3502 173.641 36.3502 173.449 36.3502H168.861ZM169.538 31.0003L169.166 32.1684C169.335 32.1572 169.504 32.1515 169.674 32.1515C169.843 32.1402 170.018 32.1346 170.199 32.1346H172.315C172.484 32.1346 172.637 32.1402 172.772 32.1515C172.919 32.1515 173.065 32.1572 173.212 32.1684L172.857 31.0172C172.597 30.1255 172.337 29.1323 172.078 28.0375C171.818 26.9427 171.581 25.9495 171.367 25.0578H171.164C170.927 25.9156 170.661 26.8975 170.368 28.0036C170.086 29.1097 169.809 30.1086 169.538 31.0003ZM198.8 26.6323C198.8 27.5014 198.603 28.2745 198.208 28.9517C197.813 29.6289 197.316 30.1876 196.718 30.6278C196.131 31.068 195.544 31.3502 194.957 31.4743C195.566 31.6775 196.069 31.9879 196.464 32.4055C196.87 32.8231 197.22 33.3592 197.513 34.0138L198.394 36.0285C198.597 36.4913 198.828 36.9202 199.088 37.3152C199.348 37.6989 199.635 38.0262 199.951 38.2971C199.624 38.7035 199.133 39.0816 198.478 39.4314C197.824 39.77 197.113 39.9393 196.345 39.9393C195.589 39.9393 194.974 39.7588 194.5 39.3976C194.037 39.0251 193.631 38.4326 193.281 37.6199L191.791 34.2001C191.554 33.647 191.261 33.314 190.911 33.2012C190.561 33.0883 190.109 33.0319 189.556 33.0319H188.896V39.6177C188.445 39.6967 187.976 39.7475 187.491 39.77C187.017 39.8039 186.61 39.8208 186.272 39.8208C185.956 39.8208 185.538 39.8039 185.019 39.77C184.5 39.7475 184.026 39.6967 183.597 39.6177V21.13L183.783 20.9269C185.149 20.893 186.43 20.8648 187.626 20.8422C188.834 20.8084 190.036 20.7914 191.232 20.7914C192.587 20.7914 193.84 20.972 194.991 21.3332C196.142 21.6831 197.062 22.2869 197.75 23.1447C198.45 23.9912 198.8 25.1538 198.8 26.6323ZM188.896 24.6176V29.0025C189.291 28.9912 189.652 28.9856 189.98 28.9856C190.318 28.9743 190.566 28.9687 190.724 28.9687C191.74 28.9687 192.429 28.7486 192.79 28.3084C193.151 27.8682 193.332 27.3547 193.332 26.7678C193.332 26.1921 193.151 25.6955 192.79 25.2779C192.429 24.8603 191.825 24.6515 190.978 24.6515C190.572 24.6515 190.222 24.6458 189.929 24.6346C189.635 24.6233 189.291 24.6176 188.896 24.6176ZM74.6812 67.7012C74.7037 66.7644 74.6078 65.884 74.3933 65.0601C74.1902 64.2248 73.8121 63.5533 73.259 63.0454C72.7173 62.5262 71.9498 62.2666 70.9565 62.2666C69.5006 62.2666 68.4622 62.9438 67.8414 64.2982C67.2319 65.6413 66.9272 67.5996 66.9272 70.1729C66.9272 72.577 67.3279 74.3829 68.1292 75.5906C68.9419 76.7982 70.0875 77.4021 71.566 77.4021C72.7398 77.4021 73.7951 77.1538 74.7319 76.6572C75.68 76.1605 76.5435 75.6188 77.3222 75.0319C77.8527 75.3931 78.3663 75.9066 78.8629 76.5725C79.3708 77.2384 79.6868 77.8874 79.811 78.5195C79.1563 79.1628 78.3437 79.761 77.373 80.3141C76.4137 80.8558 75.3527 81.2904 74.1902 81.6177C73.0277 81.9563 71.82 82.1256 70.5671 82.1256C68.7951 82.1256 67.3053 81.7813 66.0976 81.0928C64.9012 80.3931 63.9475 79.4676 63.2364 78.3163C62.5254 77.1538 62.0118 75.8671 61.6958 74.4563C61.3911 73.0341 61.2387 71.5951 61.2387 70.1391C61.2387 67.3061 61.6845 64.9923 62.5762 63.1978C63.4791 61.4032 64.6811 60.0826 66.1823 59.2361C67.6834 58.3896 69.3369 57.9664 71.1428 57.9664C72.8922 57.9664 74.4159 58.2768 75.7139 58.8975C77.0232 59.5183 78.0333 60.3591 78.7444 61.4201C79.4667 62.4811 79.8279 63.6774 79.8279 65.0093C79.8279 66.0589 79.5514 66.8208 78.9983 67.2948C78.4566 67.7576 77.7004 67.989 76.7297 67.989C76.3347 67.989 75.9735 67.9608 75.6462 67.9043C75.3301 67.8479 75.0085 67.7802 74.6812 67.7012ZM87.8316 78.3502C87.651 78.3502 87.4761 78.3502 87.3068 78.3502C87.1375 78.3389 86.9682 78.3276 86.7989 78.3163L85.7492 81.6177C85.4219 81.6967 85.0663 81.7531 84.6826 81.787C84.2988 81.8321 83.8982 81.8547 83.4806 81.8547C83.0291 81.8547 82.572 81.8208 82.1092 81.7531C81.6578 81.6854 81.2853 81.5895 80.9918 81.4653L80.8056 81.1775L87.3914 62.9607C87.9783 62.8704 88.5426 62.814 89.0844 62.7914C89.6375 62.7689 90.1397 62.7576 90.5912 62.7576C91.0088 62.7576 91.4603 62.7689 91.9456 62.7914C92.4309 62.814 92.9783 62.8704 93.5878 62.9607L99.9874 81.3637C99.5923 81.5443 99.0901 81.6798 98.4806 81.77C97.8711 81.8716 97.3801 81.9224 97.0077 81.9224C96.3869 81.9224 95.7887 81.8039 95.2131 81.5669C94.6375 81.3299 94.2029 80.7035 93.9095 79.6876L93.4862 78.3163C93.3056 78.3276 93.1307 78.3389 92.9614 78.3502C92.7921 78.3502 92.6115 78.3502 92.4196 78.3502H87.8316ZM88.5088 73.0003L88.1363 74.1684C88.3056 74.1572 88.4749 74.1515 88.6442 74.1515C88.8135 74.1402 88.9885 74.1346 89.1691 74.1346H91.2853C91.4546 74.1346 91.607 74.1402 91.7424 74.1515C91.8892 74.1515 92.0359 74.1572 92.1826 74.1684L91.8271 73.0172C91.5675 72.1255 91.3079 71.1323 91.0483 70.0375C90.7887 68.9427 90.5517 67.9495 90.3372 67.0578H90.1341C89.8971 67.9156 89.6318 68.8975 89.3384 70.0036C89.0562 71.1097 88.7797 72.1086 88.5088 73.0003ZM103.752 62.9607C104.294 62.8592 104.887 62.7914 105.53 62.7576C106.173 62.7124 106.715 62.6899 107.155 62.6899C107.573 62.6899 108.115 62.7124 108.781 62.7576C109.447 62.7914 110.005 62.8592 110.457 62.9607L112.116 70.3084C112.218 70.7486 112.336 71.3468 112.471 72.103C112.607 72.8479 112.742 73.6493 112.878 74.507H113.098C113.369 72.7012 113.623 71.3016 113.86 70.3084L115.502 62.9607C116.032 62.8592 116.614 62.7914 117.246 62.7576C117.878 62.7124 118.403 62.6899 118.82 62.6899C119.26 62.6899 119.808 62.7124 120.462 62.7576C121.117 62.7914 121.704 62.8592 122.223 62.9607L124.136 81.55C123.403 81.7305 122.517 81.8208 121.478 81.8208C121.083 81.8208 120.66 81.8039 120.208 81.77C119.768 81.7362 119.373 81.6854 119.023 81.6177L118.532 75.6244C118.476 74.8569 118.442 74.0161 118.431 73.1018C118.42 72.1876 118.42 71.296 118.431 70.4269C118.442 69.5465 118.442 68.7847 118.431 68.1413H118.228L115.739 78.7565C115.355 78.8242 114.887 78.875 114.334 78.9089C113.781 78.9314 113.324 78.9427 112.962 78.9427C112.59 78.9427 112.127 78.9314 111.574 78.9089C111.032 78.875 110.581 78.8242 110.22 78.7565L107.748 68.1413H107.511C107.511 68.796 107.511 69.5578 107.511 70.4269C107.522 71.296 107.522 72.1876 107.511 73.1018C107.5 74.0161 107.46 74.8682 107.392 75.6583L106.952 81.6177C106.591 81.6854 106.196 81.7362 105.767 81.77C105.35 81.8039 104.943 81.8208 104.548 81.8208C103.499 81.8208 102.596 81.7305 101.839 81.55L103.752 62.9607ZM128.479 62.9269C129.066 62.9043 129.772 62.8817 130.596 62.8592C131.431 62.8366 132.289 62.8197 133.169 62.8084C134.049 62.7971 134.856 62.7914 135.59 62.7914C136.978 62.7914 138.22 62.9494 139.315 63.2655C140.421 63.5815 141.29 64.1063 141.922 64.84C142.554 65.5623 142.87 66.533 142.87 67.7519C142.87 68.542 142.65 69.2926 142.21 70.0036C141.781 70.7147 141.188 71.217 140.432 71.5104C141.403 71.8152 142.215 72.4134 142.87 73.305C143.525 74.1854 143.852 75.1391 143.852 76.1662C143.852 77.6109 143.513 78.7396 142.836 79.5522C142.17 80.3536 141.245 80.9235 140.06 81.2621C138.886 81.5895 137.543 81.7531 136.03 81.7531C134.868 81.7531 133.66 81.7418 132.407 81.7193C131.154 81.708 129.845 81.6854 128.479 81.6515L128.293 81.4822V63.13L128.479 62.9269ZM135.353 66.4314C135.139 66.4314 134.851 66.4314 134.49 66.4314C134.128 66.4314 133.784 66.4201 133.457 66.3975V70.0375H135.319C136.222 70.0375 136.837 69.8513 137.164 69.4788C137.492 69.1064 137.655 68.6887 137.655 68.226C137.655 67.7745 137.492 67.3626 137.164 66.9901C136.848 66.6176 136.245 66.4314 135.353 66.4314ZM133.457 78.1132C133.908 78.0906 134.348 78.0793 134.777 78.0793C135.206 78.0793 135.596 78.0793 135.946 78.0793C136.973 78.0793 137.65 77.8479 137.977 77.3852C138.316 76.9111 138.485 76.4258 138.485 75.9292C138.485 75.3874 138.282 74.8795 137.876 74.4055C137.481 73.9314 136.747 73.6944 135.675 73.6944H133.457V78.1132ZM147.473 62.9607C147.902 62.8704 148.388 62.814 148.929 62.7914C149.471 62.7689 149.9 62.7576 150.216 62.7576C150.555 62.7576 150.961 62.7689 151.435 62.7914C151.92 62.814 152.389 62.8704 152.84 62.9607V81.6177C152.389 81.6967 151.92 81.7475 151.435 81.77C150.961 81.8039 150.555 81.8208 150.216 81.8208C149.9 81.8208 149.471 81.8039 148.929 81.77C148.388 81.7475 147.902 81.6967 147.473 81.6177V62.9607ZM156.384 72.3231C156.384 69.2982 157.163 66.8998 158.72 65.1278C160.289 63.3445 162.575 62.4528 165.577 62.4528C168.625 62.4528 170.921 63.3388 172.468 65.1109C174.025 66.8716 174.804 69.2757 174.804 72.3231C174.804 75.3705 174.025 77.7689 172.468 79.5183C170.91 81.2565 168.613 82.1256 165.577 82.1256C162.53 82.1256 160.233 81.2452 158.687 79.4845C157.152 77.7238 156.384 75.3366 156.384 72.3231ZM161.853 72.3231C161.853 72.9664 161.892 73.6323 161.971 74.3208C162.061 74.998 162.231 75.6301 162.479 76.217C162.739 76.8039 163.117 77.2836 163.613 77.656C164.11 78.0172 164.77 78.1978 165.594 78.1978C166.418 78.1978 167.078 78.0172 167.575 77.656C168.071 77.2836 168.444 76.8039 168.692 76.217C168.952 75.6301 169.121 74.998 169.2 74.3208C169.29 73.6323 169.336 72.9664 169.336 72.3231C169.336 71.6684 169.29 70.9969 169.2 70.3084C169.121 69.6086 168.952 68.9653 168.692 68.3784C168.444 67.7802 168.071 67.3005 167.575 66.9393C167.078 66.5668 166.418 66.3806 165.594 66.3806C164.77 66.3806 164.11 66.5668 163.613 66.9393C163.117 67.3005 162.739 67.7802 162.479 68.3784C162.231 68.9653 162.061 69.6086 161.971 70.3084C161.892 70.9969 161.853 71.6684 161.853 72.3231ZM176.478 80.2125C176.478 79.7836 176.563 79.3095 176.732 78.7904C176.901 78.2599 177.133 77.7689 177.426 77.3174C177.72 76.866 178.041 76.5274 178.391 76.3016C179.227 76.7531 180.158 77.1425 181.185 77.4698C182.212 77.7858 183.216 77.9439 184.198 77.9439C184.83 77.9439 185.35 77.8141 185.756 77.5545C186.174 77.2949 186.382 76.928 186.382 76.454C186.382 76.1493 186.264 75.8727 186.027 75.6244C185.79 75.3648 185.378 75.1278 184.791 74.9134L181.981 73.8129C181.111 73.4969 180.299 73.1018 179.543 72.6278C178.786 72.1538 178.177 71.5725 177.714 70.884C177.251 70.1955 177.02 69.3716 177.02 68.4122C177.02 66.6515 177.697 65.2181 179.052 64.112C180.406 63.0059 182.229 62.4528 184.52 62.4528C185.818 62.4528 187.105 62.6052 188.38 62.9099C189.667 63.2034 190.745 63.542 191.614 63.9258C191.614 64.6932 191.456 65.4495 191.14 66.1944C190.824 66.9393 190.389 67.5262 189.836 67.9551C189.001 67.5826 188.092 67.2723 187.11 67.024C186.128 66.7644 185.242 66.6346 184.452 66.6346C183.865 66.6346 183.414 66.7587 183.098 67.007C182.793 67.2553 182.641 67.5544 182.641 67.9043C182.641 68.2316 182.793 68.4799 183.098 68.6492C183.403 68.8185 183.781 68.9878 184.232 69.1571L187.026 70.2237C188.583 70.7881 189.819 71.5669 190.733 72.5601C191.659 73.542 192.122 74.7554 192.122 76.2001C192.122 77.4755 191.777 78.5533 191.089 79.4337C190.412 80.3141 189.481 80.98 188.295 81.4314C187.122 81.8829 185.795 82.1143 184.317 82.1256C182.556 82.1256 180.987 81.9224 179.61 81.5161C178.245 81.1098 177.201 80.6752 176.478 80.2125Z" fill="#364760"/>
</svg>
