<svg width="366" height="67" viewBox="0 0 366 67" fill="none" xmlns="http://www.w3.org/2000/svg">
<rect width="366" height="67" rx="10" fill="#1EBCBC"/>
<path d="M140.375 20.412C140.795 20.304 141.221 20.244 141.653 20.232C142.085 20.208 142.493 20.196 142.877 20.196C143.225 20.196 143.651 20.226 144.155 20.286C144.671 20.346 145.127 20.442 145.523 20.574L145.757 20.898L139.007 45C138.335 45.072 137.585 45.126 136.757 45.162C135.941 45.198 135.161 45.216 134.417 45.216C133.337 45.216 132.491 45.036 131.879 44.676C131.267 44.316 130.817 43.632 130.529 42.624L124.535 20.934C125.051 20.706 125.603 20.508 126.191 20.34C126.779 20.172 127.385 20.088 128.009 20.088C128.873 20.088 129.539 20.322 130.007 20.79C130.487 21.246 130.853 21.966 131.105 22.95L133.877 33.192C134.165 34.248 134.423 35.34 134.651 36.468C134.879 37.596 135.077 38.688 135.245 39.744C135.281 39.936 135.323 40.062 135.371 40.122C135.431 40.17 135.515 40.194 135.623 40.194L140.375 20.412ZM145.894 35.118C145.894 31.902 146.722 29.352 148.378 27.468C150.046 25.572 152.476 24.624 155.668 24.624C158.908 24.624 161.35 25.566 162.994 27.45C164.65 29.322 165.478 31.878 165.478 35.118C165.478 38.358 164.65 40.908 162.994 42.768C161.338 44.616 158.896 45.54 155.668 45.54C152.428 45.54 149.986 44.604 148.342 42.732C146.71 40.86 145.894 38.322 145.894 35.118ZM151.708 35.118C151.708 35.802 151.75 36.51 151.834 37.242C151.93 37.962 152.11 38.634 152.374 39.258C152.65 39.882 153.052 40.392 153.58 40.788C154.108 41.172 154.81 41.364 155.686 41.364C156.562 41.364 157.264 41.172 157.792 40.788C158.32 40.392 158.716 39.882 158.98 39.258C159.256 38.634 159.436 37.962 159.52 37.242C159.616 36.51 159.664 35.802 159.664 35.118C159.664 34.422 159.616 33.708 159.52 32.976C159.436 32.232 159.256 31.548 158.98 30.924C158.716 30.288 158.32 29.778 157.792 29.394C157.264 28.998 156.562 28.8 155.686 28.8C154.81 28.8 154.108 28.998 153.58 29.394C153.052 29.778 152.65 30.288 152.374 30.924C152.11 31.548 151.93 32.232 151.834 32.976C151.75 33.708 151.708 34.422 151.708 35.118ZM183.188 40.392C183.116 42.144 182.81 43.368 182.27 44.064C181.73 44.76 180.77 45.108 179.39 45.108H172.406C171.374 45.108 170.564 44.82 169.976 44.244C169.4 43.656 169.112 42.87 169.112 41.886V25.2L169.328 24.984H171.488C172.58 24.984 173.408 25.26 173.972 25.812C174.536 26.352 174.818 27.258 174.818 28.53V40.572C176.054 40.452 177.164 40.392 178.148 40.392H183.188ZM195.842 25.164C196.274 25.068 196.652 25.008 196.976 24.984C197.312 24.96 197.654 24.948 198.002 24.948C198.434 24.948 198.884 24.972 199.352 25.02C199.832 25.068 200.342 25.17 200.882 25.326L201.134 25.596L195.23 45C194.69 45.084 193.982 45.138 193.106 45.162C192.23 45.198 191.432 45.216 190.712 45.216C189.764 45.216 188.96 45.066 188.3 44.766C187.652 44.454 187.184 43.782 186.896 42.75L181.766 25.56C182.258 25.356 182.774 25.2 183.314 25.092C183.866 24.972 184.43 24.912 185.006 24.912C185.87 24.912 186.542 25.116 187.022 25.524C187.514 25.92 187.904 26.61 188.192 27.594L190.118 34.038C190.394 35.01 190.64 36 190.856 37.008C191.084 38.016 191.306 39.156 191.522 40.428C191.57 40.632 191.69 40.734 191.882 40.734L195.842 25.164ZM218.95 40.482C218.95 42.198 218.68 43.392 218.14 44.064C217.612 44.736 216.712 45.072 215.44 45.072H207.142C206.122 45.072 205.318 44.784 204.73 44.208C204.142 43.62 203.848 42.834 203.848 41.85V25.362L204.046 25.164H218.284C218.368 25.572 218.416 25.962 218.428 26.334C218.44 26.706 218.446 27.06 218.446 27.396C218.446 27.72 218.41 28.086 218.338 28.494C218.278 28.902 218.17 29.316 218.014 29.736H211.714C211.21 29.736 210.448 29.73 209.428 29.718C209.44 30.09 209.446 30.408 209.446 30.672C209.458 30.936 209.464 31.254 209.464 31.626V32.814C210.46 32.802 211.21 32.796 211.714 32.796H216.322C216.442 33.12 216.52 33.492 216.556 33.912C216.604 34.32 216.628 34.668 216.628 34.956C216.628 35.292 216.604 35.67 216.556 36.09C216.52 36.498 216.442 36.87 216.322 37.206H211.714C211.486 37.206 211.168 37.206 210.76 37.206C210.352 37.206 209.92 37.206 209.464 37.206V38.376C209.464 38.82 209.458 39.186 209.446 39.474C209.434 39.762 209.428 40.122 209.428 40.554V40.59C209.848 40.566 210.238 40.542 210.598 40.518C210.958 40.494 211.396 40.482 211.912 40.482H218.95ZM239.031 31.194C239.031 32.118 238.821 32.94 238.401 33.66C237.981 34.38 237.453 34.974 236.817 35.442C236.193 35.91 235.569 36.21 234.945 36.342C235.593 36.558 236.127 36.888 236.547 37.332C236.979 37.776 237.351 38.346 237.663 39.042L238.599 41.184C238.815 41.676 239.061 42.132 239.337 42.552C239.613 42.96 239.919 43.308 240.255 43.596C239.907 44.028 239.385 44.43 238.689 44.802C237.993 45.162 237.237 45.342 236.421 45.342C235.617 45.342 234.963 45.15 234.459 44.766C233.967 44.37 233.535 43.74 233.163 42.876L231.579 39.24C231.327 38.652 231.015 38.298 230.643 38.178C230.271 38.058 229.791 37.998 229.203 37.998H228.501V45C228.021 45.084 227.523 45.138 227.007 45.162C226.503 45.198 226.071 45.216 225.711 45.216C225.375 45.216 224.931 45.198 224.379 45.162C223.827 45.138 223.323 45.084 222.867 45V25.344L223.065 25.128C224.517 25.092 225.879 25.062 227.151 25.038C228.435 25.002 229.713 24.984 230.985 24.984C232.425 24.984 233.757 25.176 234.981 25.56C236.205 25.932 237.183 26.574 237.915 27.486C238.659 28.386 239.031 29.622 239.031 31.194ZM228.501 29.052V33.714C228.921 33.702 229.305 33.696 229.653 33.696C230.013 33.684 230.277 33.678 230.445 33.678C231.525 33.678 232.257 33.444 232.641 32.976C233.025 32.508 233.217 31.962 233.217 31.338C233.217 30.726 233.025 30.198 232.641 29.754C232.257 29.31 231.615 29.088 230.715 29.088C230.283 29.088 229.911 29.082 229.599 29.07C229.287 29.058 228.921 29.052 228.501 29.052Z" fill="white"/>
</svg>
