<svg width="224" height="27" viewBox="0 0 224 27" fill="none" xmlns="http://www.w3.org/2000/svg">
<path d="M14.2989 11.204C14.3229 10.208 14.2209 9.272 13.9929 8.396C13.7769 7.508 13.3749 6.794 12.7869 6.254C12.2109 5.702 11.3949 5.426 10.3389 5.426C8.79094 5.426 7.68694 6.146 7.02694 7.586C6.37894 9.014 6.05494 11.096 6.05494 13.832C6.05494 16.388 6.48094 18.308 7.33294 19.592C8.19694 20.876 9.41494 21.518 10.9869 21.518C12.2349 21.518 13.3569 21.254 14.3529 20.726C15.3609 20.198 16.2789 19.622 17.1069 18.998C17.6709 19.382 18.2169 19.928 18.7449 20.636C19.2849 21.344 19.6209 22.034 19.7529 22.706C19.0569 23.39 18.1929 24.026 17.1609 24.614C16.1409 25.19 15.0129 25.652 13.7769 26C12.5409 26.36 11.2569 26.54 9.92494 26.54C8.04094 26.54 6.45694 26.174 5.17294 25.442C3.90094 24.698 2.88694 23.714 2.13094 22.49C1.37494 21.254 0.828938 19.886 0.492938 18.386C0.168938 16.874 0.00693758 15.344 0.00693758 13.796C0.00693758 10.784 0.480938 8.324 1.42894 6.416C2.38894 4.508 3.66694 3.104 5.26294 2.204C6.85894 1.304 8.61694 0.853999 10.5369 0.853999C12.3969 0.853999 14.0169 1.184 15.3969 1.844C16.7889 2.504 17.8629 3.398 18.6189 4.526C19.3869 5.654 19.7709 6.926 19.7709 8.342C19.7709 9.458 19.4769 10.268 18.8889 10.772C18.3129 11.264 17.5089 11.51 16.4769 11.51C16.0569 11.51 15.6729 11.48 15.3249 11.42C14.9889 11.36 14.6469 11.288 14.2989 11.204ZM38.3424 21.482C38.3424 23.198 38.0724 24.392 37.5324 25.064C37.0044 25.736 36.1044 26.072 34.8324 26.072H26.5344C25.5144 26.072 24.7104 25.784 24.1224 25.208C23.5344 24.62 23.2404 23.834 23.2404 22.85V6.362L23.4384 6.164H37.6764C37.7604 6.572 37.8084 6.962 37.8204 7.334C37.8324 7.706 37.8384 8.06 37.8384 8.396C37.8384 8.72 37.8024 9.086 37.7304 9.494C37.6704 9.902 37.5624 10.316 37.4064 10.736H31.1064C30.6024 10.736 29.8404 10.73 28.8204 10.718C28.8324 11.09 28.8384 11.408 28.8384 11.672C28.8504 11.936 28.8564 12.254 28.8564 12.626V13.814C29.8524 13.802 30.6024 13.796 31.1064 13.796H35.7144C35.8344 14.12 35.9124 14.492 35.9484 14.912C35.9964 15.32 36.0204 15.668 36.0204 15.956C36.0204 16.292 35.9964 16.67 35.9484 17.09C35.9124 17.498 35.8344 17.87 35.7144 18.206H31.1064C30.8784 18.206 30.5604 18.206 30.1524 18.206C29.7444 18.206 29.3124 18.206 28.8564 18.206V19.376C28.8564 19.82 28.8504 20.186 28.8384 20.474C28.8264 20.762 28.8204 21.122 28.8204 21.554V21.59C29.2404 21.566 29.6304 21.542 29.9904 21.518C30.3504 21.494 30.7884 21.482 31.3044 21.482H38.3424ZM60.35 16.118C60.35 19.478 59.564 21.992 57.992 23.66C56.42 25.316 53.942 26.144 50.558 26.144C49.13 26.144 47.774 26.132 46.49 26.108C45.218 26.096 43.874 26.072 42.458 26.036L42.26 25.82V6.344L42.458 6.128C43.886 6.092 45.236 6.062 46.508 6.038C47.78 6.002 49.13 5.984 50.558 5.984C53.906 5.984 56.372 6.854 57.956 8.594C59.552 10.322 60.35 12.83 60.35 16.118ZM54.554 16.118C54.554 15.242 54.464 14.366 54.284 13.49C54.104 12.602 53.726 11.858 53.15 11.258C52.574 10.658 51.71 10.358 50.558 10.358C50.03 10.358 49.574 10.358 49.19 10.358C48.818 10.346 48.386 10.334 47.894 10.322V21.842C48.41 21.842 48.848 21.836 49.208 21.824C49.58 21.812 50.03 21.806 50.558 21.806C51.71 21.806 52.574 21.512 53.15 20.924C53.726 20.324 54.104 19.586 54.284 18.71C54.464 17.834 54.554 16.97 54.554 16.118ZM62.951 23.552C62.951 23.336 62.981 23 63.041 22.544C63.113 22.088 63.227 21.698 63.383 21.374C63.743 21.17 64.181 21.008 64.697 20.888C65.225 20.768 65.729 20.708 66.209 20.708C66.677 20.708 67.175 20.768 67.703 20.888C68.231 21.008 68.675 21.17 69.035 21.374C69.191 21.698 69.299 22.088 69.359 22.544C69.419 23 69.449 23.336 69.449 23.552C69.449 23.768 69.419 24.104 69.359 24.56C69.299 25.016 69.191 25.406 69.035 25.73C68.675 25.946 68.231 26.108 67.703 26.216C67.175 26.324 66.677 26.378 66.209 26.378C65.729 26.378 65.225 26.324 64.697 26.216C64.181 26.108 63.743 25.946 63.383 25.73C63.227 25.406 63.113 25.016 63.041 24.56C62.981 24.104 62.951 23.768 62.951 23.552ZM81.5939 20.528C82.0979 20.828 82.6199 21.086 83.1599 21.302C83.7119 21.506 84.2699 21.608 84.8339 21.608C86.1419 21.608 87.0059 21.212 87.4259 20.42C87.8459 19.628 88.0559 18.524 88.0559 17.108V1.412C88.5239 1.328 89.0339 1.274 89.5859 1.25C90.1499 1.214 90.6059 1.196 90.9539 1.196C91.3379 1.196 91.7939 1.214 92.3219 1.25C92.8499 1.274 93.3539 1.328 93.8339 1.412V16.568C93.8339 18.452 93.6059 20.132 93.1499 21.608C92.7059 23.084 91.8779 24.248 90.6659 25.1C89.4659 25.94 87.7379 26.36 85.4819 26.36C84.5339 26.36 83.5319 26.234 82.4759 25.982C81.4199 25.718 80.4659 25.316 79.6139 24.776C79.7219 24.056 79.9439 23.312 80.2799 22.544C80.6279 21.776 81.0659 21.104 81.5939 20.528ZM116.035 18.566C116.035 21.05 115.291 23 113.803 24.416C112.327 25.832 110.137 26.54 107.233 26.54C104.329 26.54 102.133 25.832 100.645 24.416C99.1692 23 98.4312 21.05 98.4312 18.566V6.164L98.6472 5.948H100.699C101.791 5.948 102.631 6.224 103.219 6.776C103.819 7.328 104.119 8.258 104.119 9.566V18.548C104.119 19.64 104.347 20.498 104.803 21.122C105.259 21.746 106.069 22.058 107.233 22.058C108.409 22.058 109.219 21.746 109.663 21.122C110.107 20.498 110.329 19.64 110.329 18.548V6.164C110.809 6.068 111.301 6.008 111.805 5.984C112.309 5.96 112.747 5.948 113.119 5.948C113.455 5.948 113.911 5.966 114.487 6.002C115.063 6.026 115.579 6.086 116.035 6.182V18.566ZM137.033 12.194C137.033 13.118 136.823 13.94 136.403 14.66C135.983 15.38 135.455 15.974 134.819 16.442C134.195 16.91 133.571 17.21 132.947 17.342C133.595 17.558 134.129 17.888 134.549 18.332C134.981 18.776 135.353 19.346 135.665 20.042L136.601 22.184C136.817 22.676 137.063 23.132 137.339 23.552C137.615 23.96 137.921 24.308 138.257 24.596C137.909 25.028 137.387 25.43 136.691 25.802C135.995 26.162 135.239 26.342 134.423 26.342C133.619 26.342 132.965 26.15 132.461 25.766C131.969 25.37 131.537 24.74 131.165 23.876L129.581 20.24C129.329 19.652 129.017 19.298 128.645 19.178C128.273 19.058 127.793 18.998 127.205 18.998H126.503V26C126.023 26.084 125.525 26.138 125.009 26.162C124.505 26.198 124.073 26.216 123.713 26.216C123.377 26.216 122.933 26.198 122.381 26.162C121.829 26.138 121.325 26.084 120.869 26V6.344L121.067 6.128C122.519 6.092 123.881 6.062 125.153 6.038C126.437 6.002 127.715 5.984 128.987 5.984C130.427 5.984 131.759 6.176 132.983 6.56C134.207 6.932 135.185 7.574 135.917 8.486C136.661 9.386 137.033 10.622 137.033 12.194ZM126.503 10.052V14.714C126.923 14.702 127.307 14.696 127.655 14.696C128.015 14.684 128.279 14.678 128.447 14.678C129.527 14.678 130.259 14.444 130.643 13.976C131.027 13.508 131.219 12.962 131.219 12.338C131.219 11.726 131.027 11.198 130.643 10.754C130.259 10.31 129.617 10.088 128.717 10.088C128.285 10.088 127.913 10.082 127.601 10.07C127.289 10.058 126.923 10.052 126.503 10.052ZM141.437 6.164C141.893 6.068 142.409 6.008 142.985 5.984C143.561 5.96 144.017 5.948 144.353 5.948C144.713 5.948 145.145 5.96 145.649 5.984C146.165 6.008 146.663 6.068 147.143 6.164V26C146.663 26.084 146.165 26.138 145.649 26.162C145.145 26.198 144.713 26.216 144.353 26.216C144.017 26.216 143.561 26.198 142.985 26.162C142.409 26.138 141.893 26.084 141.437 26V6.164ZM170.459 16.118C170.459 19.478 169.673 21.992 168.101 23.66C166.529 25.316 164.051 26.144 160.667 26.144C159.239 26.144 157.883 26.132 156.599 26.108C155.327 26.096 153.983 26.072 152.567 26.036L152.369 25.82V6.344L152.567 6.128C153.995 6.092 155.345 6.062 156.617 6.038C157.889 6.002 159.239 5.984 160.667 5.984C164.015 5.984 166.481 6.854 168.065 8.594C169.661 10.322 170.459 12.83 170.459 16.118ZM164.663 16.118C164.663 15.242 164.573 14.366 164.393 13.49C164.213 12.602 163.835 11.858 163.259 11.258C162.683 10.658 161.819 10.358 160.667 10.358C160.139 10.358 159.683 10.358 159.299 10.358C158.927 10.346 158.495 10.334 158.003 10.322V21.842C158.519 21.842 158.957 21.836 159.317 21.824C159.689 21.812 160.139 21.806 160.667 21.806C161.819 21.806 162.683 21.512 163.259 20.924C163.835 20.324 164.213 19.586 164.393 18.71C164.573 17.834 164.663 16.97 164.663 16.118ZM174.273 6.164C174.729 6.068 175.245 6.008 175.821 5.984C176.397 5.96 176.853 5.948 177.189 5.948C177.549 5.948 177.981 5.96 178.485 5.984C179.001 6.008 179.499 6.068 179.979 6.164V26C179.499 26.084 179.001 26.138 178.485 26.162C177.981 26.198 177.549 26.216 177.189 26.216C176.853 26.216 176.397 26.198 175.821 26.162C175.245 26.138 174.729 26.084 174.273 26V6.164ZM196.185 15.146C196.185 13.622 195.981 12.398 195.573 11.474C195.165 10.538 194.343 10.07 193.107 10.07C191.823 10.07 190.911 10.598 190.371 11.654C189.831 12.71 189.561 14.228 189.561 16.208C189.561 17.72 189.753 18.884 190.137 19.7C190.533 20.504 191.037 21.062 191.649 21.374C192.261 21.686 192.909 21.842 193.593 21.842C194.481 21.842 195.369 21.65 196.257 21.266C197.157 20.87 197.961 20.408 198.669 19.88C199.053 20.072 199.425 20.378 199.785 20.798C200.145 21.218 200.457 21.668 200.721 22.148C200.985 22.628 201.153 23.066 201.225 23.462C200.229 24.314 199.017 25.04 197.589 25.64C196.173 26.24 194.559 26.54 192.747 26.54C191.007 26.54 189.555 26.234 188.391 25.622C187.239 25.01 186.321 24.206 185.637 23.21C184.953 22.202 184.467 21.086 184.179 19.862C183.891 18.638 183.747 17.408 183.747 16.172C183.747 13.712 184.191 11.708 185.079 10.16C185.979 8.6 187.155 7.454 188.607 6.722C190.071 5.99 191.637 5.624 193.305 5.624C195.177 5.624 196.719 5.954 197.931 6.614C199.143 7.274 200.043 8.108 200.631 9.116C201.219 10.124 201.513 11.162 201.513 12.23C201.513 14.282 200.361 15.308 198.057 15.308C197.781 15.308 197.481 15.29 197.157 15.254C196.833 15.218 196.509 15.182 196.185 15.146ZM210.214 22.526C210.022 22.526 209.836 22.526 209.656 22.526C209.476 22.514 209.296 22.502 209.116 22.49L208 26C207.652 26.084 207.274 26.144 206.866 26.18C206.458 26.228 206.032 26.252 205.588 26.252C205.108 26.252 204.622 26.216 204.13 26.144C203.65 26.072 203.254 25.97 202.942 25.838L202.744 25.532L209.746 6.164C210.37 6.068 210.97 6.008 211.546 5.984C212.134 5.96 212.668 5.948 213.148 5.948C213.592 5.948 214.072 5.96 214.588 5.984C215.104 6.008 215.686 6.068 216.334 6.164L223.138 25.73C222.718 25.922 222.184 26.066 221.536 26.162C220.888 26.27 220.366 26.324 219.97 26.324C219.31 26.324 218.674 26.198 218.062 25.946C217.45 25.694 216.988 25.028 216.676 23.948L216.226 22.49C216.034 22.502 215.848 22.514 215.668 22.526C215.488 22.526 215.296 22.526 215.092 22.526H210.214ZM210.934 16.838L210.538 18.08C210.718 18.068 210.898 18.062 211.078 18.062C211.258 18.05 211.444 18.044 211.636 18.044H213.886C214.066 18.044 214.228 18.05 214.372 18.062C214.528 18.062 214.684 18.068 214.84 18.08L214.462 16.856C214.186 15.908 213.91 14.852 213.634 13.688C213.358 12.524 213.106 11.468 212.878 10.52H212.662C212.41 11.432 212.128 12.476 211.816 13.652C211.516 14.828 211.222 15.89 210.934 16.838Z" fill="#364760"/>
</svg>
