<svg width="377" height="32" viewBox="0 0 377 32" fill="none" xmlns="http://www.w3.org/2000/svg">
<path d="M14.465 11.204C14.489 10.208 14.387 9.272 14.159 8.396C13.943 7.508 13.541 6.794 12.953 6.254C12.377 5.702 11.561 5.426 10.505 5.426C8.95695 5.426 7.85295 6.146 7.19295 7.586C6.54495 9.014 6.22095 11.096 6.22095 13.832C6.22095 16.388 6.64695 18.308 7.49895 19.592C8.36295 20.876 9.58095 21.518 11.153 21.518C12.401 21.518 13.523 21.254 14.519 20.726C15.527 20.198 16.445 19.622 17.273 18.998C17.837 19.382 18.383 19.928 18.911 20.636C19.451 21.344 19.787 22.034 19.919 22.706C19.223 23.39 18.359 24.026 17.327 24.614C16.307 25.19 15.179 25.652 13.943 26C12.707 26.36 11.423 26.54 10.091 26.54C8.20695 26.54 6.62295 26.174 5.33895 25.442C4.06695 24.698 3.05295 23.714 2.29695 22.49C1.54095 21.254 0.994953 19.886 0.658953 18.386C0.334953 16.874 0.172953 15.344 0.172953 13.796C0.172953 10.784 0.646953 8.324 1.59495 6.416C2.55495 4.508 3.83295 3.104 5.42895 2.204C7.02495 1.304 8.78295 0.853999 10.703 0.853999C12.563 0.853999 14.183 1.184 15.563 1.844C16.955 2.504 18.029 3.398 18.785 4.526C19.553 5.654 19.937 6.926 19.937 8.342C19.937 9.458 19.643 10.268 19.055 10.772C18.479 11.264 17.675 11.51 16.643 11.51C16.223 11.51 15.839 11.48 15.491 11.42C15.155 11.36 14.813 11.288 14.465 11.204ZM21.9133 16.118C21.9133 12.902 22.7413 10.352 24.3973 8.468C26.0653 6.572 28.4953 5.624 31.6873 5.624C34.9273 5.624 37.3693 6.566 39.0133 8.45C40.6693 10.322 41.4973 12.878 41.4973 16.118C41.4973 19.358 40.6693 21.908 39.0133 23.768C37.3573 25.616 34.9153 26.54 31.6873 26.54C28.4473 26.54 26.0053 25.604 24.3613 23.732C22.7293 21.86 21.9133 19.322 21.9133 16.118ZM27.7273 16.118C27.7273 16.802 27.7693 17.51 27.8533 18.242C27.9493 18.962 28.1293 19.634 28.3933 20.258C28.6693 20.882 29.0713 21.392 29.5993 21.788C30.1273 22.172 30.8293 22.364 31.7053 22.364C32.5813 22.364 33.2833 22.172 33.8113 21.788C34.3393 21.392 34.7353 20.882 34.9993 20.258C35.2753 19.634 35.4553 18.962 35.5393 18.242C35.6353 17.51 35.6833 16.802 35.6833 16.118C35.6833 15.422 35.6353 14.708 35.5393 13.976C35.4553 13.232 35.2753 12.548 34.9993 11.924C34.7353 11.288 34.3393 10.778 33.8113 10.394C33.2833 9.998 32.5813 9.8 31.7053 9.8C30.8293 9.8 30.1273 9.998 29.5993 10.394C29.0713 10.778 28.6693 11.288 28.3933 11.924C28.1293 12.548 27.9493 13.232 27.8533 13.976C27.7693 14.708 27.7273 15.422 27.7273 16.118ZM49.716 22.526C49.524 22.526 49.338 22.526 49.158 22.526C48.978 22.514 48.798 22.502 48.618 22.49L47.502 26C47.154 26.084 46.776 26.144 46.368 26.18C45.96 26.228 45.534 26.252 45.09 26.252C44.61 26.252 44.124 26.216 43.632 26.144C43.152 26.072 42.756 25.97 42.444 25.838L42.246 25.532L49.248 6.164C49.872 6.068 50.472 6.008 51.048 5.984C51.636 5.96 52.17 5.948 52.65 5.948C53.094 5.948 53.574 5.96 54.09 5.984C54.606 6.008 55.188 6.068 55.836 6.164L62.64 25.73C62.22 25.922 61.686 26.066 61.038 26.162C60.39 26.27 59.868 26.324 59.472 26.324C58.812 26.324 58.176 26.198 57.564 25.946C56.952 25.694 56.49 25.028 56.178 23.948L55.728 22.49C55.536 22.502 55.35 22.514 55.17 22.526C54.99 22.526 54.798 22.526 54.594 22.526H49.716ZM50.436 16.838L50.04 18.08C50.22 18.068 50.4 18.062 50.58 18.062C50.76 18.05 50.946 18.044 51.138 18.044H53.388C53.568 18.044 53.73 18.05 53.874 18.062C54.03 18.062 54.186 18.068 54.342 18.08L53.964 16.856C53.688 15.908 53.412 14.852 53.136 13.688C52.86 12.524 52.608 11.468 52.38 10.52H52.164C51.912 11.432 51.63 12.476 51.318 13.652C51.018 14.828 50.724 15.89 50.436 16.838ZM75.906 15.146C75.906 13.622 75.702 12.398 75.294 11.474C74.886 10.538 74.064 10.07 72.828 10.07C71.544 10.07 70.632 10.598 70.092 11.654C69.552 12.71 69.282 14.228 69.282 16.208C69.282 17.72 69.474 18.884 69.858 19.7C70.254 20.504 70.758 21.062 71.37 21.374C71.982 21.686 72.63 21.842 73.314 21.842C74.202 21.842 75.09 21.65 75.978 21.266C76.878 20.87 77.682 20.408 78.39 19.88C78.774 20.072 79.146 20.378 79.506 20.798C79.866 21.218 80.178 21.668 80.442 22.148C80.706 22.628 80.874 23.066 80.946 23.462C79.95 24.314 78.738 25.04 77.31 25.64C75.894 26.24 74.28 26.54 72.468 26.54C70.728 26.54 69.276 26.234 68.112 25.622C66.96 25.01 66.042 24.206 65.358 23.21C64.674 22.202 64.188 21.086 63.9 19.862C63.612 18.638 63.468 17.408 63.468 16.172C63.468 13.712 63.912 11.708 64.8 10.16C65.7 8.6 66.876 7.454 68.328 6.722C69.792 5.99 71.358 5.624 73.026 5.624C74.898 5.624 76.44 5.954 77.652 6.614C78.864 7.274 79.764 8.108 80.352 9.116C80.94 10.124 81.234 11.162 81.234 12.23C81.234 14.282 80.082 15.308 77.778 15.308C77.502 15.308 77.202 15.29 76.878 15.254C76.554 15.218 76.23 15.182 75.906 15.146ZM90.407 26C89.927 26.084 89.435 26.138 88.931 26.162C88.427 26.198 87.995 26.216 87.635 26.216C87.299 26.216 86.843 26.198 86.267 26.162C85.691 26.138 85.175 26.084 84.719 26V6.164C85.175 6.056 85.691 5.99 86.267 5.966C86.843 5.93 87.299 5.912 87.635 5.912C87.995 5.912 88.427 5.93 88.931 5.966C89.435 5.99 89.927 6.056 90.407 6.164V11.312C90.407 11.72 90.401 12.086 90.389 12.41C90.377 12.722 90.371 13.064 90.371 13.436C90.635 13.436 90.899 13.43 91.163 13.418C91.439 13.406 91.703 13.4 91.955 13.4H95.105C95.357 13.4 95.609 13.406 95.861 13.418C96.125 13.43 96.389 13.436 96.653 13.436C96.653 13.064 96.647 12.722 96.635 12.41C96.623 12.086 96.617 11.72 96.617 11.312V6.164C97.085 6.056 97.571 5.99 98.075 5.966C98.591 5.93 99.029 5.912 99.389 5.912C99.725 5.912 100.181 5.93 100.757 5.966C101.333 5.99 101.855 6.056 102.323 6.164V26C101.819 26.084 101.309 26.138 100.793 26.162C100.289 26.198 99.845 26.216 99.461 26.216C99.077 26.216 98.627 26.198 98.111 26.162C97.607 26.138 97.109 26.084 96.617 26V20.114C96.617 19.694 96.623 19.328 96.635 19.016C96.647 18.704 96.653 18.362 96.653 17.99C96.389 17.99 96.125 17.996 95.861 18.008C95.609 18.02 95.357 18.026 95.105 18.026H91.955C91.703 18.026 91.439 18.02 91.163 18.008C90.899 17.996 90.635 17.99 90.371 17.99C90.371 18.362 90.377 18.704 90.389 19.016C90.401 19.328 90.407 19.694 90.407 20.114V26ZM113.224 31.13C111.868 29.858 110.728 28.4 109.804 26.756C108.88 25.124 108.184 23.396 107.716 21.572C107.248 19.736 107.014 17.9 107.014 16.064C107.014 14.228 107.248 12.398 107.716 10.574C108.184 8.738 108.88 7.004 109.804 5.372C110.728 3.728 111.868 2.27 113.224 0.997999C113.86 1.214 114.472 1.55 115.06 2.006C115.648 2.462 116.116 3.038 116.464 3.734C115.18 5.63 114.238 7.622 113.638 9.71C113.05 11.798 112.756 13.916 112.756 16.064C112.756 18.212 113.05 20.33 113.638 22.418C114.238 24.506 115.18 26.492 116.464 28.376C116.116 29.084 115.648 29.666 115.06 30.122C114.472 30.578 113.86 30.914 113.224 31.13ZM134.485 21.482C134.485 23.198 134.215 24.392 133.675 25.064C133.147 25.736 132.247 26.072 130.975 26.072H122.677C121.657 26.072 120.853 25.784 120.265 25.208C119.677 24.62 119.383 23.834 119.383 22.85V6.362L119.581 6.164H133.819C133.903 6.572 133.951 6.962 133.963 7.334C133.975 7.706 133.981 8.06 133.981 8.396C133.981 8.72 133.945 9.086 133.873 9.494C133.813 9.902 133.705 10.316 133.549 10.736H127.249C126.745 10.736 125.983 10.73 124.963 10.718C124.975 11.09 124.981 11.408 124.981 11.672C124.993 11.936 124.999 12.254 124.999 12.626V13.814C125.995 13.802 126.745 13.796 127.249 13.796H131.857C131.977 14.12 132.055 14.492 132.091 14.912C132.139 15.32 132.163 15.668 132.163 15.956C132.163 16.292 132.139 16.67 132.091 17.09C132.055 17.498 131.977 17.87 131.857 18.206H127.249C127.021 18.206 126.703 18.206 126.295 18.206C125.887 18.206 125.455 18.206 124.999 18.206V19.376C124.999 19.82 124.993 20.186 124.981 20.474C124.969 20.762 124.963 21.122 124.963 21.554V21.59C125.383 21.566 125.773 21.542 126.133 21.518C126.493 21.494 126.931 21.482 127.447 21.482H134.485ZM136.477 24.506C136.477 24.05 136.567 23.546 136.747 22.994C136.927 22.43 137.173 21.908 137.485 21.428C137.797 20.948 138.139 20.588 138.511 20.348C139.399 20.828 140.389 21.242 141.481 21.59C142.573 21.926 143.641 22.094 144.685 22.094C145.357 22.094 145.909 21.956 146.341 21.68C146.785 21.404 147.007 21.014 147.007 20.51C147.007 20.186 146.881 19.892 146.629 19.628C146.377 19.352 145.939 19.1 145.315 18.872L142.327 17.702C141.403 17.366 140.539 16.946 139.735 16.442C138.931 15.938 138.283 15.32 137.791 14.588C137.299 13.856 137.053 12.98 137.053 11.96C137.053 10.088 137.773 8.564 139.213 7.388C140.653 6.212 142.591 5.624 145.027 5.624C146.407 5.624 147.775 5.786 149.131 6.11C150.499 6.422 151.645 6.782 152.569 7.19C152.569 8.006 152.401 8.81 152.065 9.602C151.729 10.394 151.267 11.018 150.679 11.474C149.791 11.078 148.825 10.748 147.781 10.484C146.737 10.208 145.795 10.07 144.955 10.07C144.331 10.07 143.851 10.202 143.515 10.466C143.191 10.73 143.029 11.048 143.029 11.42C143.029 11.768 143.191 12.032 143.515 12.212C143.839 12.392 144.241 12.572 144.721 12.752L147.691 13.886C149.347 14.486 150.661 15.314 151.633 16.37C152.617 17.414 153.109 18.704 153.109 20.24C153.109 21.596 152.743 22.742 152.011 23.678C151.291 24.614 150.301 25.322 149.041 25.802C147.793 26.282 146.383 26.528 144.811 26.54C142.939 26.54 141.271 26.324 139.807 25.892C138.355 25.46 137.245 24.998 136.477 24.506ZM157.621 31.13C156.973 30.914 156.355 30.578 155.767 30.122C155.179 29.666 154.717 29.084 154.381 28.376C155.653 26.492 156.589 24.506 157.189 22.418C157.789 20.33 158.089 18.212 158.089 16.064C158.089 13.916 157.789 11.798 157.189 9.71C156.589 7.622 155.653 5.63 154.381 3.734C154.717 3.038 155.179 2.462 155.767 2.006C156.355 1.55 156.973 1.214 157.621 0.997999C158.965 2.27 160.099 3.728 161.023 5.372C161.947 7.004 162.643 8.738 163.111 10.574C163.579 12.398 163.813 14.228 163.813 16.064C163.813 17.9 163.579 19.736 163.111 21.572C162.643 23.396 161.947 25.124 161.023 26.756C160.099 28.4 158.965 29.858 157.621 31.13ZM196.512 13.688C196.512 15.092 196.41 16.448 196.206 17.756C196.014 19.052 195.63 20.264 195.054 21.392C194.478 22.52 193.614 23.528 192.462 24.416C191.91 24.848 191.244 25.196 190.464 25.46C189.696 25.724 188.904 25.916 188.088 26.036C187.272 26.156 186.528 26.216 185.856 26.216C184.308 26.216 182.802 26.198 181.338 26.162C179.886 26.138 178.374 26.108 176.802 26.072L176.55 25.82V1.592L176.802 1.34C178.35 1.292 179.856 1.256 181.32 1.232C182.796 1.208 184.308 1.196 185.856 1.196C186.528 1.196 187.272 1.262 188.088 1.394C188.904 1.514 189.702 1.706 190.482 1.97C191.262 2.234 191.922 2.582 192.462 3.014C193.602 3.902 194.46 4.91 195.036 6.038C195.612 7.154 196.002 8.36 196.206 9.656C196.41 10.952 196.512 12.296 196.512 13.688ZM190.59 13.688C190.59 12.776 190.53 11.852 190.41 10.916C190.302 9.968 190.086 9.104 189.762 8.324C189.45 7.532 188.976 6.896 188.34 6.416C187.716 5.924 186.888 5.678 185.856 5.678C185.244 5.678 184.656 5.678 184.092 5.678C183.528 5.678 182.928 5.666 182.292 5.642V21.752C182.928 21.74 183.528 21.734 184.092 21.734C184.656 21.734 185.244 21.734 185.856 21.734C186.888 21.734 187.716 21.494 188.34 21.014C188.976 20.522 189.45 19.88 189.762 19.088C190.086 18.284 190.302 17.414 190.41 16.478C190.53 15.53 190.59 14.6 190.59 13.688ZM200.525 6.164C200.981 6.068 201.497 6.008 202.073 5.984C202.649 5.96 203.105 5.948 203.441 5.948C203.801 5.948 204.233 5.96 204.737 5.984C205.253 6.008 205.751 6.068 206.231 6.164V26C205.751 26.084 205.253 26.138 204.737 26.162C204.233 26.198 203.801 26.216 203.441 26.216C203.105 26.216 202.649 26.198 202.073 26.162C201.497 26.138 200.981 26.084 200.525 26V6.164ZM209.531 24.506C209.531 24.05 209.621 23.546 209.801 22.994C209.981 22.43 210.227 21.908 210.539 21.428C210.851 20.948 211.193 20.588 211.565 20.348C212.453 20.828 213.443 21.242 214.535 21.59C215.627 21.926 216.695 22.094 217.739 22.094C218.411 22.094 218.963 21.956 219.395 21.68C219.839 21.404 220.061 21.014 220.061 20.51C220.061 20.186 219.935 19.892 219.683 19.628C219.431 19.352 218.993 19.1 218.369 18.872L215.381 17.702C214.457 17.366 213.593 16.946 212.789 16.442C211.985 15.938 211.337 15.32 210.845 14.588C210.353 13.856 210.107 12.98 210.107 11.96C210.107 10.088 210.827 8.564 212.267 7.388C213.707 6.212 215.645 5.624 218.081 5.624C219.461 5.624 220.829 5.786 222.185 6.11C223.553 6.422 224.699 6.782 225.623 7.19C225.623 8.006 225.455 8.81 225.119 9.602C224.783 10.394 224.321 11.018 223.733 11.474C222.845 11.078 221.879 10.748 220.835 10.484C219.791 10.208 218.849 10.07 218.009 10.07C217.385 10.07 216.905 10.202 216.569 10.466C216.245 10.73 216.083 11.048 216.083 11.42C216.083 11.768 216.245 12.032 216.569 12.212C216.893 12.392 217.295 12.572 217.775 12.752L220.745 13.886C222.401 14.486 223.715 15.314 224.687 16.37C225.671 17.414 226.163 18.704 226.163 20.24C226.163 21.596 225.797 22.742 225.065 23.678C224.345 24.614 223.355 25.322 222.095 25.802C220.847 26.282 219.437 26.528 217.865 26.54C215.993 26.54 214.325 26.324 212.861 25.892C211.409 25.46 210.299 24.998 209.531 24.506ZM245.436 12.968C245.436 14.528 245.082 15.824 244.374 16.856C243.678 17.876 242.718 18.638 241.494 19.142C240.27 19.634 238.878 19.88 237.318 19.88H235.356V26C234.876 26.084 234.384 26.138 233.88 26.162C233.376 26.198 232.944 26.216 232.584 26.216C232.248 26.216 231.792 26.198 231.216 26.162C230.64 26.138 230.124 26.084 229.668 26V6.344L229.866 6.128C230.838 6.104 232.008 6.074 233.376 6.038C234.744 6.002 236.058 5.984 237.318 5.984C238.89 5.984 240.288 6.224 241.512 6.704C242.736 7.184 243.696 7.94 244.392 8.972C245.088 10.004 245.436 11.336 245.436 12.968ZM235.356 10.196V15.704C235.68 15.692 235.974 15.686 236.238 15.686C236.502 15.674 236.7 15.668 236.832 15.668C237.624 15.668 238.218 15.524 238.614 15.236C239.022 14.936 239.292 14.576 239.424 14.156C239.556 13.724 239.622 13.316 239.622 12.932C239.622 12.572 239.556 12.182 239.424 11.762C239.292 11.342 239.022 10.982 238.614 10.682C238.218 10.382 237.624 10.232 236.832 10.232C236.532 10.232 236.316 10.232 236.184 10.232C236.052 10.22 235.776 10.208 235.356 10.196ZM247.441 16.118C247.441 12.902 248.269 10.352 249.925 8.468C251.593 6.572 254.023 5.624 257.215 5.624C260.455 5.624 262.897 6.566 264.541 8.45C266.197 10.322 267.025 12.878 267.025 16.118C267.025 19.358 266.197 21.908 264.541 23.768C262.885 25.616 260.443 26.54 257.215 26.54C253.975 26.54 251.533 25.604 249.889 23.732C248.257 21.86 247.441 19.322 247.441 16.118ZM253.255 16.118C253.255 16.802 253.297 17.51 253.381 18.242C253.477 18.962 253.657 19.634 253.921 20.258C254.197 20.882 254.599 21.392 255.127 21.788C255.655 22.172 256.357 22.364 257.233 22.364C258.109 22.364 258.811 22.172 259.339 21.788C259.867 21.392 260.263 20.882 260.527 20.258C260.803 19.634 260.983 18.962 261.067 18.242C261.163 17.51 261.211 16.802 261.211 16.118C261.211 15.422 261.163 14.708 261.067 13.976C260.983 13.232 260.803 12.548 260.527 11.924C260.263 11.288 259.867 10.778 259.339 10.394C258.811 9.998 258.109 9.8 257.233 9.8C256.357 9.8 255.655 9.998 255.127 10.394C254.599 10.778 254.197 11.288 253.921 11.924C253.657 12.548 253.477 13.232 253.381 13.976C253.297 14.708 253.255 15.422 253.255 16.118ZM277.715 16.946C277.631 16.754 277.499 16.454 277.319 16.046C277.139 15.626 276.947 15.176 276.743 14.696C276.539 14.216 276.347 13.766 276.167 13.346C275.999 12.926 275.867 12.62 275.771 12.428L275.645 12.482C275.693 13.43 275.741 14.456 275.789 15.56C275.837 16.652 275.873 17.654 275.897 18.566C275.933 19.466 275.951 20.12 275.951 20.528V26C275.483 26.084 275.033 26.138 274.601 26.162C274.169 26.198 273.767 26.216 273.395 26.216C273.059 26.216 272.639 26.198 272.135 26.162C271.643 26.138 271.175 26.084 270.731 26V6.29C271.175 6.182 271.727 6.098 272.387 6.038C273.047 5.978 273.557 5.948 273.917 5.948C274.289 5.948 274.817 5.96 275.501 5.984C276.185 5.996 276.749 6.056 277.193 6.164L281.423 15.182C281.507 15.35 281.645 15.656 281.837 16.1C282.041 16.544 282.257 17.03 282.485 17.558C282.713 18.086 282.923 18.584 283.115 19.052C283.319 19.508 283.469 19.844 283.565 20.06L283.727 20.024C283.679 19.232 283.613 18.308 283.529 17.252C283.457 16.196 283.391 15.176 283.331 14.192C283.271 13.208 283.241 12.422 283.241 11.834V9.026C283.241 7.754 283.517 6.92 284.069 6.524C284.621 6.116 285.443 5.912 286.535 5.912H288.389L288.605 6.164V25.892C288.137 26 287.573 26.078 286.913 26.126C286.253 26.186 285.749 26.216 285.401 26.216C285.161 26.216 284.831 26.21 284.411 26.198C283.991 26.186 283.559 26.168 283.115 26.144C282.683 26.12 282.323 26.072 282.035 26L277.715 16.946ZM293.865 6.164C294.321 6.068 294.837 6.008 295.413 5.984C295.989 5.96 296.445 5.948 296.781 5.948C297.141 5.948 297.573 5.96 298.077 5.984C298.593 6.008 299.091 6.068 299.571 6.164V26C299.091 26.084 298.593 26.138 298.077 26.162C297.573 26.198 297.141 26.216 296.781 26.216C296.445 26.216 295.989 26.198 295.413 26.162C294.837 26.138 294.321 26.084 293.865 26V6.164ZM304.995 6.128C305.619 6.104 306.369 6.08 307.245 6.056C308.133 6.032 309.045 6.014 309.981 6.002C310.917 5.99 311.775 5.984 312.555 5.984C314.031 5.984 315.351 6.152 316.515 6.488C317.691 6.824 318.615 7.382 319.287 8.162C319.959 8.93 320.295 9.962 320.295 11.258C320.295 12.098 320.061 12.896 319.593 13.652C319.137 14.408 318.507 14.942 317.703 15.254C318.735 15.578 319.599 16.214 320.295 17.162C320.991 18.098 321.339 19.112 321.339 20.204C321.339 21.74 320.979 22.94 320.259 23.804C319.551 24.656 318.567 25.262 317.307 25.622C316.059 25.97 314.631 26.144 313.023 26.144C311.787 26.144 310.503 26.132 309.171 26.108C307.839 26.096 306.447 26.072 304.995 26.036L304.797 25.856V6.344L304.995 6.128ZM312.303 9.854C312.075 9.854 311.769 9.854 311.385 9.854C311.001 9.854 310.635 9.842 310.287 9.818V13.688H312.267C313.227 13.688 313.881 13.49 314.229 13.094C314.577 12.698 314.751 12.254 314.751 11.762C314.751 11.282 314.577 10.844 314.229 10.448C313.893 10.052 313.251 9.854 312.303 9.854ZM310.287 22.274C310.767 22.25 311.235 22.238 311.691 22.238C312.147 22.238 312.561 22.238 312.933 22.238C314.025 22.238 314.745 21.992 315.093 21.5C315.453 20.996 315.633 20.48 315.633 19.952C315.633 19.376 315.417 18.836 314.985 18.332C314.565 17.828 313.785 17.576 312.645 17.576H310.287V22.274ZM339.121 21.392C339.049 23.144 338.743 24.368 338.203 25.064C337.663 25.76 336.703 26.108 335.323 26.108H328.339C327.307 26.108 326.497 25.82 325.909 25.244C325.333 24.656 325.045 23.87 325.045 22.886V6.2L325.261 5.984H327.421C328.513 5.984 329.341 6.26 329.905 6.812C330.469 7.352 330.751 8.258 330.751 9.53V21.572C331.987 21.452 333.097 21.392 334.081 21.392H339.121ZM357.587 21.482C357.587 23.198 357.317 24.392 356.777 25.064C356.249 25.736 355.349 26.072 354.077 26.072H345.779C344.759 26.072 343.955 25.784 343.367 25.208C342.779 24.62 342.485 23.834 342.485 22.85V6.362L342.683 6.164H356.921C357.005 6.572 357.053 6.962 357.065 7.334C357.077 7.706 357.083 8.06 357.083 8.396C357.083 8.72 357.047 9.086 356.975 9.494C356.915 9.902 356.807 10.316 356.651 10.736H350.351C349.847 10.736 349.085 10.73 348.065 10.718C348.077 11.09 348.083 11.408 348.083 11.672C348.095 11.936 348.101 12.254 348.101 12.626V13.814C349.097 13.802 349.847 13.796 350.351 13.796H354.959C355.079 14.12 355.157 14.492 355.193 14.912C355.241 15.32 355.265 15.668 355.265 15.956C355.265 16.292 355.241 16.67 355.193 17.09C355.157 17.498 355.079 17.87 354.959 18.206H350.351C350.123 18.206 349.805 18.206 349.397 18.206C348.989 18.206 348.557 18.206 348.101 18.206V19.376C348.101 19.82 348.095 20.186 348.083 20.474C348.071 20.762 348.065 21.122 348.065 21.554V21.59C348.485 21.566 348.875 21.542 349.235 21.518C349.595 21.494 350.033 21.482 350.549 21.482H357.587ZM359.578 24.506C359.578 24.05 359.668 23.546 359.848 22.994C360.028 22.43 360.274 21.908 360.586 21.428C360.898 20.948 361.24 20.588 361.612 20.348C362.5 20.828 363.49 21.242 364.582 21.59C365.674 21.926 366.742 22.094 367.786 22.094C368.458 22.094 369.01 21.956 369.442 21.68C369.886 21.404 370.108 21.014 370.108 20.51C370.108 20.186 369.982 19.892 369.73 19.628C369.478 19.352 369.04 19.1 368.416 18.872L365.428 17.702C364.504 17.366 363.64 16.946 362.836 16.442C362.032 15.938 361.384 15.32 360.892 14.588C360.4 13.856 360.154 12.98 360.154 11.96C360.154 10.088 360.874 8.564 362.314 7.388C363.754 6.212 365.692 5.624 368.128 5.624C369.508 5.624 370.876 5.786 372.232 6.11C373.6 6.422 374.746 6.782 375.67 7.19C375.67 8.006 375.502 8.81 375.166 9.602C374.83 10.394 374.368 11.018 373.78 11.474C372.892 11.078 371.926 10.748 370.882 10.484C369.838 10.208 368.896 10.07 368.056 10.07C367.432 10.07 366.952 10.202 366.616 10.466C366.292 10.73 366.13 11.048 366.13 11.42C366.13 11.768 366.292 12.032 366.616 12.212C366.94 12.392 367.342 12.572 367.822 12.752L370.792 13.886C372.448 14.486 373.762 15.314 374.734 16.37C375.718 17.414 376.21 18.704 376.21 20.24C376.21 21.596 375.844 22.742 375.112 23.678C374.392 24.614 373.402 25.322 372.142 25.802C370.894 26.282 369.484 26.528 367.912 26.54C366.04 26.54 364.372 26.324 362.908 25.892C361.456 25.46 360.346 24.998 359.578 24.506Z" fill="#364760"/>
</svg>
