<svg width="235" height="71" viewBox="0 0 235 71" fill="none" xmlns="http://www.w3.org/2000/svg">
<path d="M36.0997 11.204C36.1237 10.208 36.0217 9.272 35.7937 8.396C35.5777 7.508 35.1757 6.794 34.5877 6.254C34.0117 5.702 33.1957 5.426 32.1397 5.426C30.5917 5.426 29.4877 6.146 28.8277 7.586C28.1797 9.014 27.8557 11.096 27.8557 13.832C27.8557 16.388 28.2817 18.308 29.1337 19.592C29.9977 20.876 31.2157 21.518 32.7877 21.518C34.0357 21.518 35.1577 21.254 36.1537 20.726C37.1617 20.198 38.0797 19.622 38.9077 18.998C39.4717 19.382 40.0177 19.928 40.5457 20.636C41.0857 21.344 41.4217 22.034 41.5537 22.706C40.8577 23.39 39.9937 24.026 38.9617 24.614C37.9417 25.19 36.8137 25.652 35.5777 26C34.3417 26.36 33.0577 26.54 31.7257 26.54C29.8417 26.54 28.2577 26.174 26.9737 25.442C25.7017 24.698 24.6877 23.714 23.9317 22.49C23.1757 21.254 22.6297 19.886 22.2937 18.386C21.9697 16.874 21.8077 15.344 21.8077 13.796C21.8077 10.784 22.2817 8.324 23.2297 6.416C24.1897 4.508 25.4677 3.104 27.0637 2.204C28.6597 1.304 30.4177 0.853999 32.3377 0.853999C34.1977 0.853999 35.8177 1.184 37.1977 1.844C38.5897 2.504 39.6637 3.398 40.4197 4.526C41.1877 5.654 41.5717 6.926 41.5717 8.342C41.5717 9.458 41.2777 10.268 40.6897 10.772C40.1137 11.264 39.3097 11.51 38.2777 11.51C37.8577 11.51 37.4737 11.48 37.1257 11.42C36.7897 11.36 36.4477 11.288 36.0997 11.204ZM43.5481 16.118C43.5481 12.902 44.3761 10.352 46.0321 8.468C47.7001 6.572 50.1301 5.624 53.3221 5.624C56.5621 5.624 59.0041 6.566 60.6481 8.45C62.3041 10.322 63.1321 12.878 63.1321 16.118C63.1321 19.358 62.3041 21.908 60.6481 23.768C58.9921 25.616 56.5501 26.54 53.3221 26.54C50.0821 26.54 47.6401 25.604 45.9961 23.732C44.3641 21.86 43.5481 19.322 43.5481 16.118ZM49.3621 16.118C49.3621 16.802 49.4041 17.51 49.4881 18.242C49.5841 18.962 49.7641 19.634 50.0281 20.258C50.3041 20.882 50.7061 21.392 51.2341 21.788C51.7621 22.172 52.4641 22.364 53.3401 22.364C54.2161 22.364 54.9181 22.172 55.4461 21.788C55.9741 21.392 56.3701 20.882 56.6341 20.258C56.9101 19.634 57.0901 18.962 57.1741 18.242C57.2701 17.51 57.3181 16.802 57.3181 16.118C57.3181 15.422 57.2701 14.708 57.1741 13.976C57.0901 13.232 56.9101 12.548 56.6341 11.924C56.3701 11.288 55.9741 10.778 55.4461 10.394C54.9181 9.998 54.2161 9.8 53.3401 9.8C52.4641 9.8 51.7621 9.998 51.2341 10.394C50.7061 10.778 50.3041 11.288 50.0281 11.924C49.7641 12.548 49.5841 13.232 49.4881 13.976C49.4041 14.708 49.3621 15.422 49.3621 16.118ZM73.8221 16.946C73.7381 16.754 73.6061 16.454 73.4261 16.046C73.2461 15.626 73.0541 15.176 72.8501 14.696C72.6461 14.216 72.4541 13.766 72.2741 13.346C72.1061 12.926 71.9741 12.62 71.8781 12.428L71.7521 12.482C71.8001 13.43 71.8481 14.456 71.8961 15.56C71.9441 16.652 71.9801 17.654 72.0041 18.566C72.0401 19.466 72.0581 20.12 72.0581 20.528V26C71.5901 26.084 71.1401 26.138 70.7081 26.162C70.2761 26.198 69.8741 26.216 69.5021 26.216C69.1661 26.216 68.7461 26.198 68.2421 26.162C67.7501 26.138 67.2821 26.084 66.8381 26V6.29C67.2821 6.182 67.8341 6.098 68.4941 6.038C69.1541 5.978 69.6641 5.948 70.0241 5.948C70.3961 5.948 70.9241 5.96 71.6081 5.984C72.2921 5.996 72.8561 6.056 73.3001 6.164L77.5301 15.182C77.6141 15.35 77.7521 15.656 77.9441 16.1C78.1481 16.544 78.3641 17.03 78.5921 17.558C78.8201 18.086 79.0301 18.584 79.2221 19.052C79.4261 19.508 79.5761 19.844 79.6721 20.06L79.8341 20.024C79.7861 19.232 79.7201 18.308 79.6361 17.252C79.5641 16.196 79.4981 15.176 79.4381 14.192C79.3781 13.208 79.3481 12.422 79.3481 11.834V9.026C79.3481 7.754 79.6241 6.92 80.1761 6.524C80.7281 6.116 81.5501 5.912 82.6421 5.912H84.4961L84.7121 6.164V25.892C84.2441 26 83.6801 26.078 83.0201 26.126C82.3601 26.186 81.8561 26.216 81.5081 26.216C81.2681 26.216 80.9381 26.21 80.5181 26.198C80.0981 26.186 79.6661 26.168 79.2221 26.144C78.7901 26.12 78.4301 26.072 78.1421 26L73.8221 16.946ZM95.5886 26C95.0966 26.084 94.5926 26.138 94.0766 26.162C93.5726 26.198 93.1286 26.216 92.7446 26.216C92.3606 26.216 91.9106 26.198 91.3946 26.162C90.8906 26.138 90.3926 26.084 89.9006 26V6.326L90.0986 6.164H104.049C104.133 6.488 104.193 6.854 104.229 7.262C104.277 7.67 104.301 8 104.301 8.252C104.301 9.068 104.085 9.704 103.653 10.16C103.221 10.616 102.501 10.844 101.493 10.844H97.6586C97.2986 10.844 96.9446 10.844 96.5966 10.844C96.2606 10.832 95.9246 10.826 95.5886 10.826C95.5886 11.078 95.5886 11.336 95.5886 11.6C95.5886 11.852 95.5886 12.104 95.5886 12.356V14.228C95.7326 14.228 95.8706 14.228 96.0026 14.228H101.997C102.105 14.54 102.177 14.906 102.213 15.326C102.261 15.734 102.285 16.082 102.285 16.37C102.285 16.694 102.261 17.078 102.213 17.522C102.177 17.966 102.105 18.35 101.997 18.674H96.0026C95.8706 18.674 95.7326 18.674 95.5886 18.674V26ZM105.739 16.118C105.739 12.902 106.567 10.352 108.223 8.468C109.891 6.572 112.321 5.624 115.513 5.624C118.753 5.624 121.195 6.566 122.839 8.45C124.495 10.322 125.323 12.878 125.323 16.118C125.323 19.358 124.495 21.908 122.839 23.768C121.183 25.616 118.741 26.54 115.513 26.54C112.273 26.54 109.831 25.604 108.187 23.732C106.555 21.86 105.739 19.322 105.739 16.118ZM111.553 16.118C111.553 16.802 111.595 17.51 111.679 18.242C111.775 18.962 111.955 19.634 112.219 20.258C112.495 20.882 112.897 21.392 113.425 21.788C113.953 22.172 114.655 22.364 115.531 22.364C116.407 22.364 117.109 22.172 117.637 21.788C118.165 21.392 118.561 20.882 118.825 20.258C119.101 19.634 119.281 18.962 119.365 18.242C119.461 17.51 119.509 16.802 119.509 16.118C119.509 15.422 119.461 14.708 119.365 13.976C119.281 13.232 119.101 12.548 118.825 11.924C118.561 11.288 118.165 10.778 117.637 10.394C117.109 9.998 116.407 9.8 115.531 9.8C114.655 9.8 113.953 9.998 113.425 10.394C112.897 10.778 112.495 11.288 112.219 11.924C111.955 12.548 111.775 13.232 111.679 13.976C111.595 14.708 111.553 15.422 111.553 16.118ZM145.194 12.194C145.194 13.118 144.984 13.94 144.564 14.66C144.144 15.38 143.616 15.974 142.98 16.442C142.356 16.91 141.732 17.21 141.108 17.342C141.756 17.558 142.29 17.888 142.71 18.332C143.142 18.776 143.514 19.346 143.826 20.042L144.762 22.184C144.978 22.676 145.224 23.132 145.5 23.552C145.776 23.96 146.082 24.308 146.418 24.596C146.07 25.028 145.548 25.43 144.852 25.802C144.156 26.162 143.4 26.342 142.584 26.342C141.78 26.342 141.126 26.15 140.622 25.766C140.13 25.37 139.698 24.74 139.326 23.876L137.742 20.24C137.49 19.652 137.178 19.298 136.806 19.178C136.434 19.058 135.954 18.998 135.366 18.998H134.664V26C134.184 26.084 133.686 26.138 133.17 26.162C132.666 26.198 132.234 26.216 131.874 26.216C131.538 26.216 131.094 26.198 130.542 26.162C129.99 26.138 129.486 26.084 129.03 26V6.344L129.228 6.128C130.68 6.092 132.042 6.062 133.314 6.038C134.598 6.002 135.876 5.984 137.148 5.984C138.588 5.984 139.92 6.176 141.144 6.56C142.368 6.932 143.346 7.574 144.078 8.486C144.822 9.386 145.194 10.622 145.194 12.194ZM134.664 10.052V14.714C135.084 14.702 135.468 14.696 135.816 14.696C136.176 14.684 136.439 14.678 136.607 14.678C137.688 14.678 138.42 14.444 138.804 13.976C139.188 13.508 139.38 12.962 139.38 12.338C139.38 11.726 139.188 11.198 138.804 10.754C138.42 10.31 137.778 10.088 136.878 10.088C136.446 10.088 136.074 10.082 135.762 10.07C135.45 10.058 135.084 10.052 134.664 10.052ZM150.786 6.164C151.362 6.056 151.992 5.984 152.676 5.948C153.36 5.9 153.936 5.876 154.404 5.876C154.848 5.876 155.424 5.9 156.132 5.948C156.84 5.984 157.434 6.056 157.914 6.164L159.678 13.976C159.786 14.444 159.912 15.08 160.056 15.884C160.2 16.676 160.344 17.528 160.488 18.44H160.722C161.01 16.52 161.28 15.032 161.532 13.976L163.278 6.164C163.842 6.056 164.46 5.984 165.132 5.948C165.804 5.9 166.362 5.876 166.806 5.876C167.274 5.876 167.856 5.9 168.552 5.948C169.248 5.984 169.872 6.056 170.424 6.164L172.458 25.928C171.678 26.12 170.736 26.216 169.632 26.216C169.212 26.216 168.762 26.198 168.282 26.162C167.814 26.126 167.394 26.072 167.022 26L166.5 19.628C166.44 18.812 166.404 17.918 166.392 16.946C166.38 15.974 166.38 15.026 166.392 14.102C166.404 13.166 166.404 12.356 166.392 11.672H166.176L163.53 22.958C163.122 23.03 162.624 23.084 162.036 23.12C161.448 23.144 160.962 23.156 160.578 23.156C160.182 23.156 159.69 23.144 159.102 23.12C158.526 23.084 158.046 23.03 157.662 22.958L155.034 11.672H154.782C154.782 12.368 154.782 13.178 154.782 14.102C154.794 15.026 154.794 15.974 154.782 16.946C154.77 17.918 154.728 18.824 154.656 19.664L154.188 26C153.804 26.072 153.384 26.126 152.928 26.162C152.484 26.198 152.052 26.216 151.632 26.216C150.516 26.216 149.556 26.12 148.752 25.928L150.786 6.164ZM181.917 22.526C181.725 22.526 181.539 22.526 181.359 22.526C181.179 22.514 180.999 22.502 180.819 22.49L179.703 26C179.355 26.084 178.977 26.144 178.569 26.18C178.161 26.228 177.735 26.252 177.291 26.252C176.811 26.252 176.325 26.216 175.833 26.144C175.353 26.072 174.957 25.97 174.645 25.838L174.447 25.532L181.449 6.164C182.073 6.068 182.673 6.008 183.249 5.984C183.837 5.96 184.371 5.948 184.851 5.948C185.295 5.948 185.775 5.96 186.291 5.984C186.807 6.008 187.389 6.068 188.037 6.164L194.841 25.73C194.421 25.922 193.887 26.066 193.239 26.162C192.591 26.27 192.069 26.324 191.673 26.324C191.013 26.324 190.377 26.198 189.765 25.946C189.153 25.694 188.691 25.028 188.379 23.948L187.929 22.49C187.737 22.502 187.551 22.514 187.371 22.526C187.191 22.526 186.999 22.526 186.795 22.526H181.917ZM182.637 16.838L182.241 18.08C182.421 18.068 182.601 18.062 182.781 18.062C182.961 18.05 183.147 18.044 183.339 18.044H185.589C185.769 18.044 185.931 18.05 186.075 18.062C186.231 18.062 186.387 18.068 186.543 18.08L186.165 16.856C185.889 15.908 185.613 14.852 185.337 13.688C185.061 12.524 184.809 11.468 184.581 10.52H184.365C184.113 11.432 183.831 12.476 183.519 13.652C183.219 14.828 182.925 15.89 182.637 16.838ZM213.748 12.194C213.748 13.118 213.538 13.94 213.118 14.66C212.698 15.38 212.17 15.974 211.534 16.442C210.91 16.91 210.286 17.21 209.662 17.342C210.31 17.558 210.844 17.888 211.264 18.332C211.696 18.776 212.068 19.346 212.38 20.042L213.316 22.184C213.532 22.676 213.778 23.132 214.054 23.552C214.33 23.96 214.636 24.308 214.972 24.596C214.624 25.028 214.102 25.43 213.406 25.802C212.71 26.162 211.954 26.342 211.138 26.342C210.334 26.342 209.68 26.15 209.176 25.766C208.684 25.37 208.252 24.74 207.88 23.876L206.296 20.24C206.044 19.652 205.732 19.298 205.36 19.178C204.988 19.058 204.508 18.998 203.92 18.998H203.218V26C202.738 26.084 202.24 26.138 201.724 26.162C201.22 26.198 200.788 26.216 200.428 26.216C200.092 26.216 199.648 26.198 199.096 26.162C198.544 26.138 198.04 26.084 197.584 26V6.344L197.782 6.128C199.234 6.092 200.596 6.062 201.868 6.038C203.152 6.002 204.43 5.984 205.702 5.984C207.142 5.984 208.474 6.176 209.698 6.56C210.922 6.932 211.9 7.574 212.632 8.486C213.376 9.386 213.748 10.622 213.748 12.194ZM203.218 10.052V14.714C203.638 14.702 204.022 14.696 204.37 14.696C204.73 14.684 204.994 14.678 205.162 14.678C206.242 14.678 206.974 14.444 207.358 13.976C207.742 13.508 207.934 12.962 207.934 12.338C207.934 11.726 207.742 11.198 207.358 10.754C206.974 10.31 206.332 10.088 205.432 10.088C205 10.088 204.628 10.082 204.316 10.07C204.004 10.058 203.638 10.052 203.218 10.052ZM14.6368 55.204C14.6608 54.208 14.5588 53.272 14.3308 52.396C14.1148 51.508 13.7128 50.794 13.1248 50.254C12.5488 49.702 11.7328 49.426 10.6768 49.426C9.12883 49.426 8.02483 50.146 7.36483 51.586C6.71683 53.014 6.39283 55.096 6.39283 57.832C6.39283 60.388 6.81883 62.308 7.67083 63.592C8.53483 64.876 9.75283 65.518 11.3248 65.518C12.5728 65.518 13.6948 65.254 14.6908 64.726C15.6988 64.198 16.6168 63.622 17.4448 62.998C18.0088 63.382 18.5548 63.928 19.0828 64.636C19.6228 65.344 19.9588 66.034 20.0908 66.706C19.3948 67.39 18.5308 68.026 17.4988 68.614C16.4788 69.19 15.3508 69.652 14.1148 70C12.8788 70.36 11.5948 70.54 10.2628 70.54C8.37883 70.54 6.79483 70.174 5.51083 69.442C4.23883 68.698 3.22483 67.714 2.46883 66.49C1.71283 65.254 1.16683 63.886 0.830828 62.386C0.506828 60.874 0.344828 59.344 0.344828 57.796C0.344828 54.784 0.818828 52.324 1.76683 50.416C2.72683 48.508 4.00483 47.104 5.60083 46.204C7.19683 45.304 8.95483 44.854 10.8748 44.854C12.7348 44.854 14.3548 45.184 15.7348 45.844C17.1268 46.504 18.2008 47.398 18.9568 48.526C19.7248 49.654 20.1088 50.926 20.1088 52.342C20.1088 53.458 19.8148 54.268 19.2268 54.772C18.6508 55.264 17.8468 55.51 16.8148 55.51C16.3948 55.51 16.0108 55.48 15.6628 55.42C15.3268 55.36 14.9848 55.288 14.6368 55.204ZM22.0852 60.118C22.0852 56.902 22.9132 54.352 24.5692 52.468C26.2372 50.572 28.6672 49.624 31.8592 49.624C35.0992 49.624 37.5412 50.566 39.1852 52.45C40.8412 54.322 41.6692 56.878 41.6692 60.118C41.6692 63.358 40.8412 65.908 39.1852 67.768C37.5292 69.616 35.0872 70.54 31.8592 70.54C28.6192 70.54 26.1772 69.604 24.5332 67.732C22.9012 65.86 22.0852 63.322 22.0852 60.118ZM27.8992 60.118C27.8992 60.802 27.9412 61.51 28.0252 62.242C28.1212 62.962 28.3012 63.634 28.5652 64.258C28.8412 64.882 29.2432 65.392 29.7712 65.788C30.2992 66.172 31.0012 66.364 31.8772 66.364C32.7532 66.364 33.4552 66.172 33.9832 65.788C34.5112 65.392 34.9072 64.882 35.1712 64.258C35.4472 63.634 35.6272 62.962 35.7112 62.242C35.8072 61.51 35.8552 60.802 35.8552 60.118C35.8552 59.422 35.8072 58.708 35.7112 57.976C35.6272 57.232 35.4472 56.548 35.1712 55.924C34.9072 55.288 34.5112 54.778 33.9832 54.394C33.4552 53.998 32.7532 53.8 31.8772 53.8C31.0012 53.8 30.2992 53.998 29.7712 54.394C29.2432 54.778 28.8412 55.288 28.5652 55.924C28.3012 56.548 28.1212 57.232 28.0252 57.976C27.9412 58.708 27.8992 59.422 27.8992 60.118ZM43.9172 60.118C43.9172 56.902 44.7452 54.352 46.4012 52.468C48.0692 50.572 50.4992 49.624 53.6912 49.624C56.9312 49.624 59.3732 50.566 61.0172 52.45C62.6732 54.322 63.5012 56.878 63.5012 60.118C63.5012 63.358 62.6732 65.908 61.0172 67.768C59.3612 69.616 56.9192 70.54 53.6912 70.54C50.4512 70.54 48.0092 69.604 46.3652 67.732C44.7332 65.86 43.9172 63.322 43.9172 60.118ZM49.7312 60.118C49.7312 60.802 49.7732 61.51 49.8572 62.242C49.9532 62.962 50.1332 63.634 50.3972 64.258C50.6732 64.882 51.0752 65.392 51.6032 65.788C52.1312 66.172 52.8332 66.364 53.7092 66.364C54.5852 66.364 55.2872 66.172 55.8152 65.788C56.3432 65.392 56.7392 64.882 57.0032 64.258C57.2792 63.634 57.4592 62.962 57.5432 62.242C57.6392 61.51 57.6872 60.802 57.6872 60.118C57.6872 59.422 57.6392 58.708 57.5432 57.976C57.4592 57.232 57.2792 56.548 57.0032 55.924C56.7392 55.288 56.3432 54.778 55.8152 54.394C55.2872 53.998 54.5852 53.8 53.7092 53.8C52.8332 53.8 52.1312 53.998 51.6032 54.394C51.0752 54.778 50.6732 55.288 50.3972 55.924C50.1332 56.548 49.9532 57.232 49.8572 57.976C49.7732 58.708 49.7312 59.422 49.7312 60.118ZM83.3712 56.194C83.3712 57.118 83.1612 57.94 82.7412 58.66C82.3212 59.38 81.7932 59.974 81.1572 60.442C80.5332 60.91 79.9092 61.21 79.2852 61.342C79.9332 61.558 80.4672 61.888 80.8872 62.332C81.3192 62.776 81.6912 63.346 82.0032 64.042L82.9392 66.184C83.1552 66.676 83.4012 67.132 83.6772 67.552C83.9532 67.96 84.2592 68.308 84.5952 68.596C84.2472 69.028 83.7252 69.43 83.0292 69.802C82.3332 70.162 81.5772 70.342 80.7612 70.342C79.9572 70.342 79.3032 70.15 78.7992 69.766C78.3072 69.37 77.8752 68.74 77.5032 67.876L75.9192 64.24C75.6672 63.652 75.3552 63.298 74.9832 63.178C74.6112 63.058 74.1312 62.998 73.5432 62.998H72.8412V70C72.3612 70.084 71.8632 70.138 71.3472 70.162C70.8432 70.198 70.4112 70.216 70.0512 70.216C69.7152 70.216 69.2712 70.198 68.7192 70.162C68.1672 70.138 67.6632 70.084 67.2072 70V50.344L67.4052 50.128C68.8572 50.092 70.2192 50.062 71.4912 50.038C72.7752 50.002 74.0532 49.984 75.3252 49.984C76.7652 49.984 78.0972 50.176 79.3212 50.56C80.5452 50.932 81.5232 51.574 82.2552 52.486C82.9992 53.386 83.3712 54.622 83.3712 56.194ZM72.8412 54.052V58.714C73.2612 58.702 73.6452 58.696 73.9932 58.696C74.3532 58.684 74.6172 58.678 74.7852 58.678C75.8652 58.678 76.5972 58.444 76.9812 57.976C77.3652 57.508 77.5572 56.962 77.5572 56.338C77.5572 55.726 77.3652 55.198 76.9812 54.754C76.5972 54.31 75.9552 54.088 75.0552 54.088C74.6232 54.088 74.2512 54.082 73.9392 54.07C73.6272 54.058 73.2612 54.052 72.8412 54.052ZM105.793 60.118C105.793 63.478 105.007 65.992 103.435 67.66C101.863 69.316 99.3853 70.144 96.0013 70.144C94.5733 70.144 93.2173 70.132 91.9333 70.108C90.6613 70.096 89.3173 70.072 87.9013 70.036L87.7033 69.82V50.344L87.9013 50.128C89.3293 50.092 90.6793 50.062 91.9513 50.038C93.2233 50.002 94.5733 49.984 96.0013 49.984C99.3493 49.984 101.815 50.854 103.399 52.594C104.995 54.322 105.793 56.83 105.793 60.118ZM99.9973 60.118C99.9973 59.242 99.9073 58.366 99.7273 57.49C99.5473 56.602 99.1693 55.858 98.5933 55.258C98.0173 54.658 97.1533 54.358 96.0013 54.358C95.4733 54.358 95.0173 54.358 94.6333 54.358C94.2613 54.346 93.8293 54.334 93.3373 54.322V65.842C93.8533 65.842 94.2913 65.836 94.6513 65.824C95.0233 65.812 95.4733 65.806 96.0013 65.806C97.1533 65.806 98.0173 65.512 98.5933 64.924C99.1693 64.324 99.5473 63.586 99.7273 62.71C99.9073 61.834 99.9973 60.97 99.9973 60.118ZM109.607 50.164C110.063 50.068 110.579 50.008 111.155 49.984C111.731 49.96 112.187 49.948 112.523 49.948C112.883 49.948 113.315 49.96 113.819 49.984C114.335 50.008 114.833 50.068 115.313 50.164V70C114.833 70.084 114.335 70.138 113.819 70.162C113.315 70.198 112.883 70.216 112.523 70.216C112.187 70.216 111.731 70.198 111.155 70.162C110.579 70.138 110.063 70.084 109.607 70V50.164ZM127.523 60.946C127.439 60.754 127.307 60.454 127.127 60.046C126.947 59.626 126.755 59.176 126.551 58.696C126.347 58.216 126.155 57.766 125.975 57.346C125.807 56.926 125.675 56.62 125.579 56.428L125.453 56.482C125.501 57.43 125.549 58.456 125.597 59.56C125.645 60.652 125.681 61.654 125.705 62.566C125.741 63.466 125.759 64.12 125.759 64.528V70C125.291 70.084 124.841 70.138 124.409 70.162C123.977 70.198 123.575 70.216 123.203 70.216C122.867 70.216 122.447 70.198 121.943 70.162C121.451 70.138 120.983 70.084 120.539 70V50.29C120.983 50.182 121.535 50.098 122.195 50.038C122.855 49.978 123.365 49.948 123.725 49.948C124.097 49.948 124.625 49.96 125.309 49.984C125.993 49.996 126.557 50.056 127.001 50.164L131.231 59.182C131.315 59.35 131.453 59.656 131.645 60.1C131.849 60.544 132.065 61.03 132.293 61.558C132.521 62.086 132.731 62.584 132.923 63.052C133.127 63.508 133.277 63.844 133.373 64.06L133.535 64.024C133.487 63.232 133.421 62.308 133.337 61.252C133.265 60.196 133.199 59.176 133.139 58.192C133.079 57.208 133.049 56.422 133.049 55.834V53.026C133.049 51.754 133.325 50.92 133.877 50.524C134.429 50.116 135.251 49.912 136.343 49.912H138.197L138.413 50.164V69.892C137.945 70 137.381 70.078 136.721 70.126C136.061 70.186 135.557 70.216 135.209 70.216C134.969 70.216 134.639 70.21 134.219 70.198C133.799 70.186 133.367 70.168 132.923 70.144C132.491 70.12 132.131 70.072 131.843 70L127.523 60.946ZM148.642 66.526C148.45 66.526 148.264 66.526 148.084 66.526C147.904 66.514 147.724 66.502 147.544 66.49L146.428 70C146.08 70.084 145.702 70.144 145.294 70.18C144.886 70.228 144.46 70.252 144.016 70.252C143.536 70.252 143.05 70.216 142.558 70.144C142.078 70.072 141.682 69.97 141.37 69.838L141.172 69.532L148.174 50.164C148.798 50.068 149.398 50.008 149.974 49.984C150.562 49.96 151.096 49.948 151.576 49.948C152.02 49.948 152.5 49.96 153.016 49.984C153.532 50.008 154.114 50.068 154.762 50.164L161.566 69.73C161.146 69.922 160.612 70.066 159.964 70.162C159.316 70.27 158.794 70.324 158.398 70.324C157.738 70.324 157.102 70.198 156.49 69.946C155.878 69.694 155.416 69.028 155.104 67.948L154.654 66.49C154.462 66.502 154.276 66.514 154.096 66.526C153.916 66.526 153.724 66.526 153.52 66.526H148.642ZM149.362 60.838L148.966 62.08C149.146 62.068 149.326 62.062 149.506 62.062C149.686 62.05 149.872 62.044 150.064 62.044H152.314C152.494 62.044 152.656 62.05 152.8 62.062C152.956 62.062 153.112 62.068 153.268 62.08L152.89 60.856C152.614 59.908 152.338 58.852 152.062 57.688C151.786 56.524 151.534 55.468 151.306 54.52H151.09C150.838 55.432 150.556 56.476 150.244 57.652C149.944 58.828 149.65 59.89 149.362 60.838ZM174.832 59.146C174.832 57.622 174.628 56.398 174.22 55.474C173.812 54.538 172.99 54.07 171.754 54.07C170.47 54.07 169.558 54.598 169.018 55.654C168.478 56.71 168.208 58.228 168.208 60.208C168.208 61.72 168.4 62.884 168.784 63.7C169.18 64.504 169.684 65.062 170.296 65.374C170.908 65.686 171.556 65.842 172.24 65.842C173.128 65.842 174.016 65.65 174.904 65.266C175.804 64.87 176.608 64.408 177.316 63.88C177.7 64.072 178.072 64.378 178.432 64.798C178.792 65.218 179.104 65.668 179.368 66.148C179.632 66.628 179.8 67.066 179.872 67.462C178.876 68.314 177.664 69.04 176.236 69.64C174.82 70.24 173.206 70.54 171.394 70.54C169.654 70.54 168.202 70.234 167.038 69.622C165.886 69.01 164.968 68.206 164.284 67.21C163.6 66.202 163.114 65.086 162.826 63.862C162.538 62.638 162.394 61.408 162.394 60.172C162.394 57.712 162.838 55.708 163.726 54.16C164.626 52.6 165.802 51.454 167.254 50.722C168.718 49.99 170.284 49.624 171.952 49.624C173.824 49.624 175.366 49.954 176.578 50.614C177.79 51.274 178.69 52.108 179.278 53.116C179.866 54.124 180.16 55.162 180.16 56.23C180.16 58.282 179.008 59.308 176.704 59.308C176.428 59.308 176.128 59.29 175.804 59.254C175.48 59.218 175.156 59.182 174.832 59.146ZM183.717 50.164C184.173 50.068 184.689 50.008 185.265 49.984C185.841 49.96 186.297 49.948 186.633 49.948C186.993 49.948 187.425 49.96 187.929 49.984C188.445 50.008 188.943 50.068 189.423 50.164V70C188.943 70.084 188.445 70.138 187.929 70.162C187.425 70.198 186.993 70.216 186.633 70.216C186.297 70.216 185.841 70.198 185.265 70.162C184.689 70.138 184.173 70.084 183.717 70V50.164ZM193.191 60.118C193.191 56.902 194.019 54.352 195.675 52.468C197.343 50.572 199.773 49.624 202.965 49.624C206.205 49.624 208.647 50.566 210.291 52.45C211.947 54.322 212.775 56.878 212.775 60.118C212.775 63.358 211.947 65.908 210.291 67.768C208.635 69.616 206.193 70.54 202.965 70.54C199.725 70.54 197.283 69.604 195.639 67.732C194.007 65.86 193.191 63.322 193.191 60.118ZM199.005 60.118C199.005 60.802 199.047 61.51 199.131 62.242C199.227 62.962 199.407 63.634 199.671 64.258C199.947 64.882 200.349 65.392 200.877 65.788C201.405 66.172 202.107 66.364 202.983 66.364C203.859 66.364 204.561 66.172 205.089 65.788C205.617 65.392 206.013 64.882 206.277 64.258C206.553 63.634 206.733 62.962 206.817 62.242C206.913 61.51 206.961 60.802 206.961 60.118C206.961 59.422 206.913 58.708 206.817 57.976C206.733 57.232 206.553 56.548 206.277 55.924C206.013 55.288 205.617 54.778 205.089 54.394C204.561 53.998 203.859 53.8 202.983 53.8C202.107 53.8 201.405 53.998 200.877 54.394C200.349 54.778 199.947 55.288 199.671 55.924C199.407 56.548 199.227 57.232 199.131 57.976C199.047 58.708 199.005 59.422 199.005 60.118ZM205.197 40.426C205.857 40.63 206.529 41.044 207.213 41.668C207.909 42.28 208.365 42.946 208.581 43.666L201.921 48.67C201.453 48.526 200.997 48.256 200.553 47.86C200.109 47.464 199.791 47.008 199.599 46.492L205.197 40.426ZM223.465 60.946C223.381 60.754 223.249 60.454 223.069 60.046C222.889 59.626 222.697 59.176 222.493 58.696C222.289 58.216 222.097 57.766 221.917 57.346C221.749 56.926 221.617 56.62 221.521 56.428L221.395 56.482C221.443 57.43 221.491 58.456 221.539 59.56C221.587 60.652 221.623 61.654 221.647 62.566C221.683 63.466 221.701 64.12 221.701 64.528V70C221.233 70.084 220.783 70.138 220.351 70.162C219.919 70.198 219.517 70.216 219.145 70.216C218.809 70.216 218.389 70.198 217.885 70.162C217.393 70.138 216.925 70.084 216.481 70V50.29C216.925 50.182 217.477 50.098 218.137 50.038C218.797 49.978 219.307 49.948 219.667 49.948C220.039 49.948 220.567 49.96 221.251 49.984C221.935 49.996 222.499 50.056 222.943 50.164L227.173 59.182C227.257 59.35 227.395 59.656 227.587 60.1C227.791 60.544 228.007 61.03 228.235 61.558C228.463 62.086 228.673 62.584 228.865 63.052C229.069 63.508 229.219 63.844 229.315 64.06L229.477 64.024C229.429 63.232 229.363 62.308 229.279 61.252C229.207 60.196 229.141 59.176 229.081 58.192C229.021 57.208 228.991 56.422 228.991 55.834V53.026C228.991 51.754 229.267 50.92 229.819 50.524C230.371 50.116 231.193 49.912 232.285 49.912H234.139L234.355 50.164V69.892C233.887 70 233.323 70.078 232.663 70.126C232.003 70.186 231.499 70.216 231.151 70.216C230.911 70.216 230.581 70.21 230.161 70.198C229.741 70.186 229.309 70.168 228.865 70.144C228.433 70.12 228.073 70.072 227.785 70L223.465 60.946Z" fill="#364760"/>
</svg>
