<svg width="294" height="27" viewBox="0 0 294 27" fill="none" xmlns="http://www.w3.org/2000/svg">
<path d="M15.2482 11.204C15.2722 10.208 15.1702 9.272 14.9422 8.396C14.7262 7.508 14.3242 6.794 13.7362 6.254C13.1602 5.702 12.3442 5.426 11.2882 5.426C9.74016 5.426 8.63616 6.146 7.97616 7.586C7.32816 9.014 7.00416 11.096 7.00416 13.832C7.00416 16.388 7.43016 18.308 8.28216 19.592C9.14616 20.876 10.3642 21.518 11.9362 21.518C13.1842 21.518 14.3062 21.254 15.3022 20.726C16.3102 20.198 17.2282 19.622 18.0562 18.998C18.6202 19.382 19.1662 19.928 19.6942 20.636C20.2342 21.344 20.5702 22.034 20.7022 22.706C20.0062 23.39 19.1422 24.026 18.1102 24.614C17.0902 25.19 15.9622 25.652 14.7262 26C13.4902 26.36 12.2062 26.54 10.8742 26.54C8.99016 26.54 7.40616 26.174 6.12216 25.442C4.85016 24.698 3.83616 23.714 3.08016 22.49C2.32416 21.254 1.77816 19.886 1.44216 18.386C1.11816 16.874 0.956156 15.344 0.956156 13.796C0.956156 10.784 1.43016 8.324 2.37816 6.416C3.33816 4.508 4.61616 3.104 6.21216 2.204C7.80816 1.304 9.56616 0.853999 11.4862 0.853999C13.3462 0.853999 14.9662 1.184 16.3462 1.844C17.7382 2.504 18.8122 3.398 19.5682 4.526C20.3362 5.654 20.7202 6.926 20.7202 8.342C20.7202 9.458 20.4262 10.268 19.8382 10.772C19.2622 11.264 18.4582 11.51 17.4262 11.51C17.0062 11.51 16.6222 11.48 16.2742 11.42C15.9382 11.36 15.5962 11.288 15.2482 11.204ZM22.6965 16.118C22.6965 12.902 23.5245 10.352 25.1805 8.468C26.8485 6.572 29.2785 5.624 32.4705 5.624C35.7105 5.624 38.1525 6.566 39.7965 8.45C41.4525 10.322 42.2805 12.878 42.2805 16.118C42.2805 19.358 41.4525 21.908 39.7965 23.768C38.1405 25.616 35.6985 26.54 32.4705 26.54C29.2305 26.54 26.7885 25.604 25.1445 23.732C23.5125 21.86 22.6965 19.322 22.6965 16.118ZM28.5105 16.118C28.5105 16.802 28.5525 17.51 28.6365 18.242C28.7325 18.962 28.9125 19.634 29.1765 20.258C29.4525 20.882 29.8545 21.392 30.3825 21.788C30.9105 22.172 31.6125 22.364 32.4885 22.364C33.3645 22.364 34.0665 22.172 34.5945 21.788C35.1225 21.392 35.5185 20.882 35.7825 20.258C36.0585 19.634 36.2385 18.962 36.3225 18.242C36.4185 17.51 36.4665 16.802 36.4665 16.118C36.4665 15.422 36.4185 14.708 36.3225 13.976C36.2385 13.232 36.0585 12.548 35.7825 11.924C35.5185 11.288 35.1225 10.778 34.5945 10.394C34.0665 9.998 33.3645 9.8 32.4885 9.8C31.6125 9.8 30.9105 9.998 30.3825 10.394C29.8545 10.778 29.4525 11.288 29.1765 11.924C28.9125 12.548 28.7325 13.232 28.6365 13.976C28.5525 14.708 28.5105 15.422 28.5105 16.118ZM52.9705 16.946C52.8865 16.754 52.7545 16.454 52.5745 16.046C52.3945 15.626 52.2025 15.176 51.9985 14.696C51.7945 14.216 51.6025 13.766 51.4225 13.346C51.2545 12.926 51.1225 12.62 51.0265 12.428L50.9005 12.482C50.9485 13.43 50.9965 14.456 51.0445 15.56C51.0925 16.652 51.1285 17.654 51.1525 18.566C51.1885 19.466 51.2065 20.12 51.2065 20.528V26C50.7385 26.084 50.2885 26.138 49.8565 26.162C49.4245 26.198 49.0225 26.216 48.6505 26.216C48.3145 26.216 47.8945 26.198 47.3905 26.162C46.8985 26.138 46.4305 26.084 45.9865 26V6.29C46.4305 6.182 46.9825 6.098 47.6425 6.038C48.3025 5.978 48.8125 5.948 49.1725 5.948C49.5445 5.948 50.0725 5.96 50.7565 5.984C51.4405 5.996 52.0045 6.056 52.4485 6.164L56.6785 15.182C56.7625 15.35 56.9005 15.656 57.0925 16.1C57.2965 16.544 57.5125 17.03 57.7405 17.558C57.9685 18.086 58.1785 18.584 58.3705 19.052C58.5745 19.508 58.7245 19.844 58.8205 20.06L58.9825 20.024C58.9345 19.232 58.8685 18.308 58.7845 17.252C58.7125 16.196 58.6465 15.176 58.5865 14.192C58.5265 13.208 58.4965 12.422 58.4965 11.834V9.026C58.4965 7.754 58.7725 6.92 59.3245 6.524C59.8765 6.116 60.6985 5.912 61.7905 5.912H63.6445L63.8605 6.164V25.892C63.3925 26 62.8285 26.078 62.1685 26.126C61.5085 26.186 61.0045 26.216 60.6565 26.216C60.4165 26.216 60.0865 26.21 59.6665 26.198C59.2465 26.186 58.8145 26.168 58.3705 26.144C57.9385 26.12 57.5785 26.072 57.2905 26L52.9705 16.946ZM67.123 24.506C67.123 24.05 67.213 23.546 67.393 22.994C67.573 22.43 67.819 21.908 68.131 21.428C68.443 20.948 68.785 20.588 69.157 20.348C70.045 20.828 71.035 21.242 72.127 21.59C73.219 21.926 74.287 22.094 75.331 22.094C76.003 22.094 76.555 21.956 76.987 21.68C77.431 21.404 77.653 21.014 77.653 20.51C77.653 20.186 77.527 19.892 77.275 19.628C77.023 19.352 76.585 19.1 75.961 18.872L72.973 17.702C72.049 17.366 71.185 16.946 70.381 16.442C69.577 15.938 68.929 15.32 68.437 14.588C67.945 13.856 67.699 12.98 67.699 11.96C67.699 10.088 68.419 8.564 69.859 7.388C71.299 6.212 73.237 5.624 75.673 5.624C77.053 5.624 78.421 5.786 79.777 6.11C81.145 6.422 82.291 6.782 83.215 7.19C83.215 8.006 83.047 8.81 82.711 9.602C82.375 10.394 81.913 11.018 81.325 11.474C80.437 11.078 79.471 10.748 78.427 10.484C77.383 10.208 76.441 10.07 75.601 10.07C74.977 10.07 74.497 10.202 74.161 10.466C73.837 10.73 73.675 11.048 73.675 11.42C73.675 11.768 73.837 12.032 74.161 12.212C74.485 12.392 74.887 12.572 75.367 12.752L78.337 13.886C79.993 14.486 81.307 15.314 82.279 16.37C83.263 17.414 83.755 18.704 83.755 20.24C83.755 21.596 83.389 22.742 82.657 23.678C81.937 24.614 80.947 25.322 79.687 25.802C78.439 26.282 77.029 26.528 75.457 26.54C73.585 26.54 71.917 26.324 70.453 25.892C69.001 25.46 67.891 24.998 67.123 24.506ZM104.504 18.566C104.504 21.05 103.76 23 102.272 24.416C100.796 25.832 98.606 26.54 95.702 26.54C92.798 26.54 90.602 25.832 89.114 24.416C87.638 23 86.9 21.05 86.9 18.566V6.164L87.116 5.948H89.168C90.26 5.948 91.1 6.224 91.688 6.776C92.288 7.328 92.588 8.258 92.588 9.566V18.548C92.588 19.64 92.816 20.498 93.272 21.122C93.728 21.746 94.538 22.058 95.702 22.058C96.878 22.058 97.688 21.746 98.132 21.122C98.576 20.498 98.798 19.64 98.798 18.548V6.164C99.278 6.068 99.77 6.008 100.274 5.984C100.778 5.96 101.216 5.948 101.588 5.948C101.924 5.948 102.38 5.966 102.956 6.002C103.532 6.026 104.048 6.086 104.504 6.182V18.566ZM123.342 21.392C123.27 23.144 122.964 24.368 122.424 25.064C121.884 25.76 120.924 26.108 119.544 26.108H112.56C111.528 26.108 110.718 25.82 110.13 25.244C109.554 24.656 109.266 23.87 109.266 22.886V6.2L109.482 5.984H111.642C112.734 5.984 113.562 6.26 114.126 6.812C114.69 7.352 114.972 8.258 114.972 9.53V21.572C116.208 21.452 117.318 21.392 118.302 21.392H123.342ZM126.671 12.914C126.671 12.53 126.677 12.176 126.689 11.852C126.701 11.516 126.707 11.144 126.707 10.736C126.455 10.736 126.107 10.742 125.663 10.754C125.231 10.766 124.889 10.772 124.637 10.772H121.307C121.211 10.34 121.151 9.938 121.127 9.566C121.103 9.182 121.091 8.834 121.091 8.522C121.091 8.21 121.103 7.844 121.127 7.424C121.151 6.992 121.211 6.572 121.307 6.164H137.597C137.681 6.488 137.741 6.854 137.777 7.262C137.825 7.67 137.849 8 137.849 8.252C137.849 9.068 137.633 9.692 137.201 10.124C136.769 10.556 136.049 10.772 135.041 10.772H134.303C134.051 10.772 133.715 10.766 133.295 10.754C132.887 10.742 132.569 10.736 132.341 10.736C132.341 11.144 132.347 11.516 132.359 11.852C132.371 12.176 132.377 12.53 132.377 12.914V26C132.041 26.072 131.579 26.126 130.991 26.162C130.403 26.198 129.911 26.216 129.515 26.216C129.143 26.216 128.675 26.198 128.111 26.162C127.547 26.126 127.067 26.072 126.671 26V12.914ZM143.663 22.526C143.471 22.526 143.285 22.526 143.105 22.526C142.925 22.514 142.745 22.502 142.565 22.49L141.449 26C141.101 26.084 140.723 26.144 140.315 26.18C139.907 26.228 139.481 26.252 139.037 26.252C138.557 26.252 138.071 26.216 137.579 26.144C137.099 26.072 136.703 25.97 136.391 25.838L136.193 25.532L143.195 6.164C143.819 6.068 144.419 6.008 144.995 5.984C145.583 5.96 146.117 5.948 146.597 5.948C147.041 5.948 147.521 5.96 148.037 5.984C148.553 6.008 149.135 6.068 149.783 6.164L156.587 25.73C156.167 25.922 155.633 26.066 154.985 26.162C154.337 26.27 153.815 26.324 153.419 26.324C152.759 26.324 152.123 26.198 151.511 25.946C150.899 25.694 150.437 25.028 150.125 23.948L149.675 22.49C149.483 22.502 149.297 22.514 149.117 22.526C148.937 22.526 148.745 22.526 148.541 22.526H143.663ZM144.383 16.838L143.987 18.08C144.167 18.068 144.347 18.062 144.527 18.062C144.707 18.05 144.893 18.044 145.085 18.044H147.335C147.515 18.044 147.677 18.05 147.821 18.062C147.977 18.062 148.133 18.068 148.289 18.08L147.911 16.856C147.635 15.908 147.359 14.852 147.083 13.688C146.807 12.524 146.555 11.468 146.327 10.52H146.111C145.859 11.432 145.577 12.476 145.265 13.652C144.965 14.828 144.671 15.89 144.383 16.838ZM157.404 24.506C157.404 24.05 157.494 23.546 157.674 22.994C157.854 22.43 158.1 21.908 158.412 21.428C158.724 20.948 159.066 20.588 159.438 20.348C160.326 20.828 161.316 21.242 162.408 21.59C163.5 21.926 164.568 22.094 165.612 22.094C166.284 22.094 166.836 21.956 167.268 21.68C167.712 21.404 167.934 21.014 167.934 20.51C167.934 20.186 167.808 19.892 167.556 19.628C167.304 19.352 166.866 19.1 166.242 18.872L163.254 17.702C162.33 17.366 161.466 16.946 160.662 16.442C159.858 15.938 159.21 15.32 158.718 14.588C158.226 13.856 157.98 12.98 157.98 11.96C157.98 10.088 158.7 8.564 160.14 7.388C161.58 6.212 163.518 5.624 165.954 5.624C167.334 5.624 168.702 5.786 170.058 6.11C171.426 6.422 172.572 6.782 173.496 7.19C173.496 8.006 173.328 8.81 172.992 9.602C172.656 10.394 172.194 11.018 171.606 11.474C170.718 11.078 169.752 10.748 168.708 10.484C167.664 10.208 166.722 10.07 165.882 10.07C165.258 10.07 164.778 10.202 164.442 10.466C164.118 10.73 163.956 11.048 163.956 11.42C163.956 11.768 164.118 12.032 164.442 12.212C164.766 12.392 165.168 12.572 165.648 12.752L168.618 13.886C170.274 14.486 171.588 15.314 172.56 16.37C173.544 17.414 174.036 18.704 174.036 20.24C174.036 21.596 173.67 22.742 172.938 23.678C172.218 24.614 171.228 25.322 169.968 25.802C168.72 26.282 167.31 26.528 165.738 26.54C163.866 26.54 162.198 26.324 160.734 25.892C159.282 25.46 158.172 24.998 157.404 24.506ZM199.005 1.412C199.425 1.304 199.851 1.244 200.283 1.232C200.715 1.208 201.123 1.196 201.507 1.196C201.855 1.196 202.281 1.226 202.785 1.286C203.301 1.346 203.757 1.442 204.153 1.574L204.387 1.898L197.637 26C196.965 26.072 196.215 26.126 195.387 26.162C194.571 26.198 193.791 26.216 193.047 26.216C191.967 26.216 191.121 26.036 190.509 25.676C189.897 25.316 189.447 24.632 189.159 23.624L183.165 1.934C183.681 1.706 184.233 1.508 184.821 1.34C185.409 1.172 186.015 1.088 186.639 1.088C187.503 1.088 188.169 1.322 188.637 1.79C189.117 2.246 189.483 2.966 189.735 3.95L192.507 14.192C192.795 15.248 193.053 16.34 193.281 17.468C193.509 18.596 193.707 19.688 193.875 20.744C193.911 20.936 193.953 21.062 194.001 21.122C194.061 21.17 194.145 21.194 194.253 21.194L199.005 1.412ZM210.847 22.526C210.655 22.526 210.469 22.526 210.289 22.526C210.109 22.514 209.929 22.502 209.749 22.49L208.633 26C208.285 26.084 207.907 26.144 207.499 26.18C207.091 26.228 206.665 26.252 206.221 26.252C205.741 26.252 205.255 26.216 204.763 26.144C204.283 26.072 203.887 25.97 203.575 25.838L203.377 25.532L210.379 6.164C211.003 6.068 211.603 6.008 212.179 5.984C212.767 5.96 213.301 5.948 213.781 5.948C214.225 5.948 214.705 5.96 215.221 5.984C215.737 6.008 216.319 6.068 216.967 6.164L223.771 25.73C223.351 25.922 222.817 26.066 222.169 26.162C221.521 26.27 220.999 26.324 220.603 26.324C219.943 26.324 219.307 26.198 218.695 25.946C218.083 25.694 217.621 25.028 217.309 23.948L216.859 22.49C216.667 22.502 216.481 22.514 216.301 22.526C216.121 22.526 215.929 22.526 215.725 22.526H210.847ZM211.567 16.838L211.171 18.08C211.351 18.068 211.531 18.062 211.711 18.062C211.891 18.05 212.077 18.044 212.269 18.044H214.519C214.699 18.044 214.861 18.05 215.005 18.062C215.161 18.062 215.317 18.068 215.473 18.08L215.095 16.856C214.819 15.908 214.543 14.852 214.267 13.688C213.991 12.524 213.739 11.468 213.511 10.52H213.295C213.043 11.432 212.761 12.476 212.449 13.652C212.149 14.828 211.855 15.89 211.567 16.838ZM242.678 12.194C242.678 13.118 242.468 13.94 242.048 14.66C241.628 15.38 241.1 15.974 240.464 16.442C239.84 16.91 239.216 17.21 238.592 17.342C239.24 17.558 239.774 17.888 240.194 18.332C240.626 18.776 240.998 19.346 241.31 20.042L242.246 22.184C242.462 22.676 242.708 23.132 242.984 23.552C243.26 23.96 243.566 24.308 243.902 24.596C243.554 25.028 243.032 25.43 242.336 25.802C241.64 26.162 240.884 26.342 240.068 26.342C239.264 26.342 238.61 26.15 238.106 25.766C237.614 25.37 237.182 24.74 236.81 23.876L235.226 20.24C234.974 19.652 234.662 19.298 234.29 19.178C233.918 19.058 233.438 18.998 232.85 18.998H232.148V26C231.668 26.084 231.17 26.138 230.654 26.162C230.15 26.198 229.718 26.216 229.358 26.216C229.022 26.216 228.578 26.198 228.026 26.162C227.474 26.138 226.97 26.084 226.514 26V6.344L226.712 6.128C228.164 6.092 229.526 6.062 230.798 6.038C232.082 6.002 233.36 5.984 234.632 5.984C236.072 5.984 237.404 6.176 238.628 6.56C239.852 6.932 240.83 7.574 241.562 8.486C242.306 9.386 242.678 10.622 242.678 12.194ZM232.148 10.052V14.714C232.568 14.702 232.952 14.696 233.3 14.696C233.66 14.684 233.924 14.678 234.092 14.678C235.172 14.678 235.904 14.444 236.288 13.976C236.672 13.508 236.864 12.962 236.864 12.338C236.864 11.726 236.672 11.198 236.288 10.754C235.904 10.31 235.262 10.088 234.362 10.088C233.93 10.088 233.558 10.082 233.246 10.07C232.934 10.058 232.568 10.052 232.148 10.052ZM247.082 6.164C247.538 6.068 248.054 6.008 248.63 5.984C249.206 5.96 249.662 5.948 249.998 5.948C250.358 5.948 250.79 5.96 251.294 5.984C251.81 6.008 252.308 6.068 252.788 6.164V26C252.308 26.084 251.81 26.138 251.294 26.162C250.79 26.198 250.358 26.216 249.998 26.216C249.662 26.216 249.206 26.198 248.63 26.162C248.054 26.138 247.538 26.084 247.082 26V6.164ZM263.054 22.526C262.862 22.526 262.676 22.526 262.496 22.526C262.316 22.514 262.136 22.502 261.956 22.49L260.84 26C260.492 26.084 260.114 26.144 259.706 26.18C259.298 26.228 258.872 26.252 258.428 26.252C257.948 26.252 257.462 26.216 256.97 26.144C256.49 26.072 256.094 25.97 255.782 25.838L255.584 25.532L262.586 6.164C263.21 6.068 263.81 6.008 264.386 5.984C264.974 5.96 265.508 5.948 265.988 5.948C266.432 5.948 266.912 5.96 267.428 5.984C267.944 6.008 268.526 6.068 269.174 6.164L275.978 25.73C275.558 25.922 275.024 26.066 274.376 26.162C273.728 26.27 273.206 26.324 272.81 26.324C272.15 26.324 271.514 26.198 270.902 25.946C270.29 25.694 269.828 25.028 269.516 23.948L269.066 22.49C268.874 22.502 268.688 22.514 268.508 22.526C268.328 22.526 268.136 22.526 267.932 22.526H263.054ZM263.774 16.838L263.378 18.08C263.558 18.068 263.738 18.062 263.918 18.062C264.098 18.05 264.284 18.044 264.476 18.044H266.726C266.906 18.044 267.068 18.05 267.212 18.062C267.368 18.062 267.524 18.068 267.68 18.08L267.302 16.856C267.026 15.908 266.75 14.852 266.474 13.688C266.198 12.524 265.946 11.468 265.718 10.52H265.502C265.25 11.432 264.968 12.476 264.656 13.652C264.356 14.828 264.062 15.89 263.774 16.838ZM276.795 24.506C276.795 24.05 276.885 23.546 277.065 22.994C277.245 22.43 277.491 21.908 277.803 21.428C278.115 20.948 278.457 20.588 278.829 20.348C279.717 20.828 280.707 21.242 281.799 21.59C282.891 21.926 283.959 22.094 285.003 22.094C285.675 22.094 286.227 21.956 286.659 21.68C287.103 21.404 287.325 21.014 287.325 20.51C287.325 20.186 287.199 19.892 286.947 19.628C286.695 19.352 286.257 19.1 285.633 18.872L282.645 17.702C281.721 17.366 280.857 16.946 280.053 16.442C279.249 15.938 278.601 15.32 278.109 14.588C277.617 13.856 277.371 12.98 277.371 11.96C277.371 10.088 278.091 8.564 279.531 7.388C280.971 6.212 282.909 5.624 285.345 5.624C286.725 5.624 288.093 5.786 289.449 6.11C290.817 6.422 291.963 6.782 292.887 7.19C292.887 8.006 292.719 8.81 292.383 9.602C292.047 10.394 291.585 11.018 290.997 11.474C290.109 11.078 289.143 10.748 288.099 10.484C287.055 10.208 286.113 10.07 285.273 10.07C284.649 10.07 284.169 10.202 283.833 10.466C283.509 10.73 283.347 11.048 283.347 11.42C283.347 11.768 283.509 12.032 283.833 12.212C284.157 12.392 284.559 12.572 285.039 12.752L288.009 13.886C289.665 14.486 290.979 15.314 291.951 16.37C292.935 17.414 293.427 18.704 293.427 20.24C293.427 21.596 293.061 22.742 292.329 23.678C291.609 24.614 290.619 25.322 289.359 25.802C288.111 26.282 286.701 26.528 285.129 26.54C283.257 26.54 281.589 26.324 280.125 25.892C278.673 25.46 277.563 24.998 276.795 24.506Z" fill="#364760"/>
</svg>
