<svg width="380" height="71" viewBox="0 0 380 71" fill="none" xmlns="http://www.w3.org/2000/svg">
<path d="M14.7071 11.204C14.7311 10.208 14.6291 9.272 14.4011 8.396C14.1851 7.508 13.7831 6.794 13.1951 6.254C12.6191 5.702 11.8031 5.426 10.7471 5.426C9.19914 5.426 8.09514 6.146 7.43514 7.586C6.78714 9.014 6.46314 11.096 6.46314 13.832C6.46314 16.388 6.88914 18.308 7.74114 19.592C8.60514 20.876 9.82314 21.518 11.3951 21.518C12.6431 21.518 13.7651 21.254 14.7611 20.726C15.7691 20.198 16.6871 19.622 17.5151 18.998C18.0791 19.382 18.6251 19.928 19.1531 20.636C19.6931 21.344 20.0291 22.034 20.1611 22.706C19.4651 23.39 18.6011 24.026 17.5691 24.614C16.5491 25.19 15.4211 25.652 14.1851 26C12.9491 26.36 11.6651 26.54 10.3331 26.54C8.44914 26.54 6.86514 26.174 5.58114 25.442C4.30914 24.698 3.29514 23.714 2.53914 22.49C1.78314 21.254 1.23714 19.886 0.901141 18.386C0.577141 16.874 0.415141 15.344 0.415141 13.796C0.415141 10.784 0.889141 8.324 1.83714 6.416C2.79714 4.508 4.07514 3.104 5.67114 2.204C7.26714 1.304 9.02514 0.853999 10.9451 0.853999C12.8051 0.853999 14.4251 1.184 15.8051 1.844C17.1971 2.504 18.2711 3.398 19.0271 4.526C19.7951 5.654 20.1791 6.926 20.1791 8.342C20.1791 9.458 19.8851 10.268 19.2971 10.772C18.7211 11.264 17.9171 11.51 16.8851 11.51C16.4651 11.51 16.0811 11.48 15.7331 11.42C15.3971 11.36 15.0551 11.288 14.7071 11.204ZM22.1555 16.118C22.1555 12.902 22.9835 10.352 24.6395 8.468C26.3075 6.572 28.7375 5.624 31.9295 5.624C35.1695 5.624 37.6115 6.566 39.2555 8.45C40.9115 10.322 41.7395 12.878 41.7395 16.118C41.7395 19.358 40.9115 21.908 39.2555 23.768C37.5995 25.616 35.1575 26.54 31.9295 26.54C28.6895 26.54 26.2475 25.604 24.6035 23.732C22.9715 21.86 22.1555 19.322 22.1555 16.118ZM27.9695 16.118C27.9695 16.802 28.0115 17.51 28.0955 18.242C28.1915 18.962 28.3715 19.634 28.6355 20.258C28.9115 20.882 29.3135 21.392 29.8415 21.788C30.3695 22.172 31.0715 22.364 31.9475 22.364C32.8235 22.364 33.5255 22.172 34.0535 21.788C34.5815 21.392 34.9775 20.882 35.2415 20.258C35.5175 19.634 35.6975 18.962 35.7815 18.242C35.8775 17.51 35.9255 16.802 35.9255 16.118C35.9255 15.422 35.8775 14.708 35.7815 13.976C35.6975 13.232 35.5175 12.548 35.2415 11.924C34.9775 11.288 34.5815 10.778 34.0535 10.394C33.5255 9.998 32.8235 9.8 31.9475 9.8C31.0715 9.8 30.3695 9.998 29.8415 10.394C29.3135 10.778 28.9115 11.288 28.6355 11.924C28.3715 12.548 28.1915 13.232 28.0955 13.976C28.0115 14.708 27.9695 15.422 27.9695 16.118ZM52.4295 16.946C52.3455 16.754 52.2135 16.454 52.0335 16.046C51.8535 15.626 51.6615 15.176 51.4575 14.696C51.2535 14.216 51.0615 13.766 50.8815 13.346C50.7135 12.926 50.5815 12.62 50.4855 12.428L50.3595 12.482C50.4075 13.43 50.4555 14.456 50.5035 15.56C50.5515 16.652 50.5875 17.654 50.6115 18.566C50.6475 19.466 50.6655 20.12 50.6655 20.528V26C50.1975 26.084 49.7475 26.138 49.3155 26.162C48.8835 26.198 48.4815 26.216 48.1095 26.216C47.7735 26.216 47.3535 26.198 46.8495 26.162C46.3575 26.138 45.8895 26.084 45.4455 26V6.29C45.8895 6.182 46.4415 6.098 47.1015 6.038C47.7615 5.978 48.2715 5.948 48.6315 5.948C49.0035 5.948 49.5315 5.96 50.2155 5.984C50.8995 5.996 51.4635 6.056 51.9075 6.164L56.1375 15.182C56.2215 15.35 56.3595 15.656 56.5515 16.1C56.7555 16.544 56.9715 17.03 57.1995 17.558C57.4275 18.086 57.6375 18.584 57.8295 19.052C58.0335 19.508 58.1835 19.844 58.2795 20.06L58.4415 20.024C58.3935 19.232 58.3275 18.308 58.2435 17.252C58.1715 16.196 58.1055 15.176 58.0455 14.192C57.9855 13.208 57.9555 12.422 57.9555 11.834V9.026C57.9555 7.754 58.2315 6.92 58.7835 6.524C59.3355 6.116 60.1575 5.912 61.2495 5.912H63.1035L63.3195 6.164V25.892C62.8515 26 62.2875 26.078 61.6275 26.126C60.9675 26.186 60.4635 26.216 60.1155 26.216C59.8755 26.216 59.5455 26.21 59.1255 26.198C58.7055 26.186 58.2735 26.168 57.8295 26.144C57.3975 26.12 57.0375 26.072 56.7495 26L52.4295 16.946ZM66.582 24.506C66.582 24.05 66.672 23.546 66.852 22.994C67.032 22.43 67.278 21.908 67.59 21.428C67.902 20.948 68.244 20.588 68.616 20.348C69.504 20.828 70.494 21.242 71.586 21.59C72.678 21.926 73.746 22.094 74.79 22.094C75.462 22.094 76.014 21.956 76.446 21.68C76.89 21.404 77.112 21.014 77.112 20.51C77.112 20.186 76.986 19.892 76.734 19.628C76.482 19.352 76.044 19.1 75.42 18.872L72.432 17.702C71.508 17.366 70.644 16.946 69.84 16.442C69.036 15.938 68.388 15.32 67.896 14.588C67.404 13.856 67.158 12.98 67.158 11.96C67.158 10.088 67.878 8.564 69.318 7.388C70.758 6.212 72.696 5.624 75.132 5.624C76.512 5.624 77.88 5.786 79.236 6.11C80.604 6.422 81.75 6.782 82.674 7.19C82.674 8.006 82.506 8.81 82.17 9.602C81.834 10.394 81.372 11.018 80.784 11.474C79.896 11.078 78.93 10.748 77.886 10.484C76.842 10.208 75.9 10.07 75.06 10.07C74.436 10.07 73.956 10.202 73.62 10.466C73.296 10.73 73.134 11.048 73.134 11.42C73.134 11.768 73.296 12.032 73.62 12.212C73.944 12.392 74.346 12.572 74.826 12.752L77.796 13.886C79.452 14.486 80.766 15.314 81.738 16.37C82.722 17.414 83.214 18.704 83.214 20.24C83.214 21.596 82.848 22.742 82.116 23.678C81.396 24.614 80.406 25.322 79.146 25.802C77.898 26.282 76.488 26.528 74.916 26.54C73.044 26.54 71.376 26.324 69.912 25.892C68.46 25.46 67.35 24.998 66.582 24.506ZM103.963 18.566C103.963 21.05 103.219 23 101.731 24.416C100.255 25.832 98.065 26.54 95.161 26.54C92.257 26.54 90.061 25.832 88.573 24.416C87.097 23 86.359 21.05 86.359 18.566V6.164L86.575 5.948H88.627C89.719 5.948 90.559 6.224 91.147 6.776C91.747 7.328 92.047 8.258 92.047 9.566V18.548C92.047 19.64 92.275 20.498 92.731 21.122C93.187 21.746 93.997 22.058 95.161 22.058C96.337 22.058 97.147 21.746 97.591 21.122C98.035 20.498 98.257 19.64 98.257 18.548V6.164C98.737 6.068 99.229 6.008 99.733 5.984C100.237 5.96 100.675 5.948 101.047 5.948C101.383 5.948 101.839 5.966 102.415 6.002C102.991 6.026 103.507 6.086 103.963 6.182V18.566ZM122.801 21.392C122.729 23.144 122.423 24.368 121.883 25.064C121.343 25.76 120.383 26.108 119.003 26.108H112.019C110.987 26.108 110.177 25.82 109.589 25.244C109.013 24.656 108.725 23.87 108.725 22.886V6.2L108.941 5.984H111.101C112.193 5.984 113.021 6.26 113.585 6.812C114.149 7.352 114.431 8.258 114.431 9.53V21.572C115.667 21.452 116.777 21.392 117.761 21.392H122.801ZM126.13 12.914C126.13 12.53 126.136 12.176 126.148 11.852C126.16 11.516 126.166 11.144 126.166 10.736C125.914 10.736 125.566 10.742 125.122 10.754C124.69 10.766 124.348 10.772 124.096 10.772H120.766C120.67 10.34 120.61 9.938 120.586 9.566C120.562 9.182 120.55 8.834 120.55 8.522C120.55 8.21 120.562 7.844 120.586 7.424C120.61 6.992 120.67 6.572 120.766 6.164H137.056C137.14 6.488 137.2 6.854 137.236 7.262C137.284 7.67 137.308 8 137.308 8.252C137.308 9.068 137.092 9.692 136.66 10.124C136.228 10.556 135.508 10.772 134.5 10.772H133.762C133.51 10.772 133.174 10.766 132.754 10.754C132.346 10.742 132.028 10.736 131.8 10.736C131.8 11.144 131.806 11.516 131.818 11.852C131.83 12.176 131.836 12.53 131.836 12.914V26C131.5 26.072 131.038 26.126 130.45 26.162C129.862 26.198 129.37 26.216 128.974 26.216C128.602 26.216 128.134 26.198 127.57 26.162C127.006 26.126 126.526 26.072 126.13 26V12.914ZM143.122 22.526C142.93 22.526 142.744 22.526 142.564 22.526C142.384 22.514 142.204 22.502 142.024 22.49L140.908 26C140.56 26.084 140.182 26.144 139.774 26.18C139.366 26.228 138.94 26.252 138.496 26.252C138.016 26.252 137.53 26.216 137.038 26.144C136.558 26.072 136.162 25.97 135.85 25.838L135.652 25.532L142.654 6.164C143.278 6.068 143.878 6.008 144.454 5.984C145.042 5.96 145.576 5.948 146.056 5.948C146.5 5.948 146.98 5.96 147.496 5.984C148.012 6.008 148.594 6.068 149.242 6.164L156.046 25.73C155.626 25.922 155.092 26.066 154.444 26.162C153.796 26.27 153.274 26.324 152.878 26.324C152.218 26.324 151.582 26.198 150.97 25.946C150.358 25.694 149.896 25.028 149.584 23.948L149.134 22.49C148.942 22.502 148.756 22.514 148.576 22.526C148.396 22.526 148.204 22.526 148 22.526H143.122ZM143.842 16.838L143.446 18.08C143.626 18.068 143.806 18.062 143.986 18.062C144.166 18.05 144.352 18.044 144.544 18.044H146.794C146.974 18.044 147.136 18.05 147.28 18.062C147.436 18.062 147.592 18.068 147.748 18.08L147.37 16.856C147.094 15.908 146.818 14.852 146.542 13.688C146.266 12.524 146.014 11.468 145.786 10.52H145.57C145.318 11.432 145.036 12.476 144.724 13.652C144.424 14.828 144.13 15.89 143.842 16.838ZM184.789 16.118C184.789 19.478 184.003 21.992 182.431 23.66C180.859 25.316 178.381 26.144 174.997 26.144C173.569 26.144 172.213 26.132 170.929 26.108C169.657 26.096 168.313 26.072 166.897 26.036L166.699 25.82V6.344L166.897 6.128C168.325 6.092 169.675 6.062 170.947 6.038C172.219 6.002 173.569 5.984 174.997 5.984C178.345 5.984 180.811 6.854 182.395 8.594C183.991 10.322 184.789 12.83 184.789 16.118ZM178.993 16.118C178.993 15.242 178.903 14.366 178.723 13.49C178.543 12.602 178.165 11.858 177.589 11.258C177.013 10.658 176.149 10.358 174.997 10.358C174.469 10.358 174.013 10.358 173.629 10.358C173.257 10.346 172.825 10.334 172.333 10.322V21.842C172.849 21.842 173.287 21.836 173.647 21.824C174.019 21.812 174.469 21.806 174.997 21.806C176.149 21.806 177.013 21.512 177.589 20.924C178.165 20.324 178.543 19.586 178.723 18.71C178.903 17.834 178.993 16.97 178.993 16.118ZM203.633 21.482C203.633 23.198 203.363 24.392 202.823 25.064C202.295 25.736 201.395 26.072 200.123 26.072H191.825C190.805 26.072 190.001 25.784 189.413 25.208C188.825 24.62 188.531 23.834 188.531 22.85V6.362L188.729 6.164H202.967C203.051 6.572 203.099 6.962 203.111 7.334C203.123 7.706 203.129 8.06 203.129 8.396C203.129 8.72 203.093 9.086 203.021 9.494C202.961 9.902 202.853 10.316 202.697 10.736H196.397C195.893 10.736 195.131 10.73 194.111 10.718C194.123 11.09 194.129 11.408 194.129 11.672C194.141 11.936 194.147 12.254 194.147 12.626V13.814C195.143 13.802 195.893 13.796 196.397 13.796H201.005C201.125 14.12 201.203 14.492 201.239 14.912C201.287 15.32 201.311 15.668 201.311 15.956C201.311 16.292 201.287 16.67 201.239 17.09C201.203 17.498 201.125 17.87 201.005 18.206H196.397C196.169 18.206 195.851 18.206 195.443 18.206C195.035 18.206 194.603 18.206 194.147 18.206V19.376C194.147 19.82 194.141 20.186 194.129 20.474C194.117 20.762 194.111 21.122 194.111 21.554V21.59C194.531 21.566 194.921 21.542 195.281 21.518C195.641 21.494 196.079 21.482 196.595 21.482H203.633ZM216.739 1.448C217.351 1.34 218.017 1.268 218.737 1.232C219.469 1.196 220.099 1.178 220.627 1.178C221.155 1.178 221.743 1.196 222.391 1.232C223.039 1.268 223.669 1.34 224.281 1.448L226.405 10.25C226.453 10.466 226.531 10.838 226.639 11.366C226.759 11.894 226.891 12.494 227.035 13.166C227.179 13.838 227.311 14.498 227.431 15.146C227.563 15.794 227.665 16.346 227.737 16.802H227.989C228.061 16.346 228.163 15.794 228.295 15.146C228.427 14.498 228.559 13.838 228.691 13.166C228.835 12.494 228.967 11.894 229.087 11.366C229.207 10.838 229.291 10.466 229.339 10.25L231.463 1.448C232.075 1.34 232.699 1.268 233.335 1.232C233.983 1.196 234.571 1.178 235.099 1.178C235.627 1.178 236.257 1.196 236.989 1.232C237.721 1.268 238.387 1.34 238.987 1.448L240.895 25.928C240.487 26.036 240.013 26.108 239.473 26.144C238.945 26.192 238.447 26.216 237.979 26.216C237.547 26.216 237.121 26.204 236.701 26.18C236.293 26.156 235.879 26.108 235.459 26.036L234.919 16.01C234.847 14.738 234.781 13.334 234.721 11.798C234.661 10.262 234.631 8.906 234.631 7.73H234.379L230.833 22.382C230.401 22.454 229.897 22.508 229.321 22.544C228.745 22.568 228.253 22.58 227.845 22.58C227.485 22.58 227.011 22.568 226.423 22.544C225.835 22.508 225.325 22.454 224.893 22.382L221.347 7.73H221.113C221.101 8.906 221.065 10.262 221.005 11.798C220.957 13.334 220.897 14.738 220.825 16.01L220.267 26.036C219.859 26.108 219.445 26.156 219.025 26.18C218.605 26.204 218.179 26.216 217.747 26.216C217.291 26.216 216.793 26.192 216.253 26.144C215.725 26.108 215.251 26.036 214.831 25.928L216.739 1.448ZM245.521 6.164C245.977 6.068 246.493 6.008 247.069 5.984C247.645 5.96 248.101 5.948 248.437 5.948C248.797 5.948 249.229 5.96 249.733 5.984C250.249 6.008 250.747 6.068 251.227 6.164V26C250.747 26.084 250.249 26.138 249.733 26.162C249.229 26.198 248.797 26.216 248.437 26.216C248.101 26.216 247.645 26.198 247.069 26.162C246.493 26.138 245.977 26.084 245.521 26V6.164ZM271.555 21.482C271.555 23.198 271.285 24.392 270.745 25.064C270.217 25.736 269.317 26.072 268.045 26.072H259.747C258.727 26.072 257.923 25.784 257.335 25.208C256.747 24.62 256.453 23.834 256.453 22.85V6.362L256.651 6.164H270.889C270.973 6.572 271.021 6.962 271.033 7.334C271.045 7.706 271.051 8.06 271.051 8.396C271.051 8.72 271.015 9.086 270.943 9.494C270.883 9.902 270.775 10.316 270.619 10.736H264.319C263.815 10.736 263.053 10.73 262.033 10.718C262.045 11.09 262.051 11.408 262.051 11.672C262.063 11.936 262.069 12.254 262.069 12.626V13.814C263.065 13.802 263.815 13.796 264.319 13.796H268.927C269.047 14.12 269.125 14.492 269.161 14.912C269.209 15.32 269.233 15.668 269.233 15.956C269.233 16.292 269.209 16.67 269.161 17.09C269.125 17.498 269.047 17.87 268.927 18.206H264.319C264.091 18.206 263.773 18.206 263.365 18.206C262.957 18.206 262.525 18.206 262.069 18.206V19.376C262.069 19.82 262.063 20.186 262.051 20.474C262.039 20.762 262.033 21.122 262.033 21.554V21.59C262.453 21.566 262.843 21.542 263.203 21.518C263.563 21.494 264.001 21.482 264.517 21.482H271.555ZM276.733 6.164C277.309 6.056 277.939 5.984 278.623 5.948C279.307 5.9 279.883 5.876 280.351 5.876C280.795 5.876 281.371 5.9 282.079 5.948C282.787 5.984 283.381 6.056 283.861 6.164L285.625 13.976C285.733 14.444 285.859 15.08 286.003 15.884C286.147 16.676 286.291 17.528 286.435 18.44H286.669C286.957 16.52 287.227 15.032 287.479 13.976L289.225 6.164C289.789 6.056 290.407 5.984 291.079 5.948C291.751 5.9 292.309 5.876 292.753 5.876C293.221 5.876 293.803 5.9 294.499 5.948C295.195 5.984 295.819 6.056 296.371 6.164L298.405 25.928C297.625 26.12 296.683 26.216 295.579 26.216C295.159 26.216 294.709 26.198 294.229 26.162C293.761 26.126 293.341 26.072 292.969 26L292.447 19.628C292.387 18.812 292.351 17.918 292.339 16.946C292.327 15.974 292.327 15.026 292.339 14.102C292.351 13.166 292.351 12.356 292.339 11.672H292.123L289.477 22.958C289.069 23.03 288.571 23.084 287.983 23.12C287.395 23.144 286.909 23.156 286.525 23.156C286.129 23.156 285.637 23.144 285.049 23.12C284.473 23.084 283.993 23.03 283.609 22.958L280.981 11.672H280.729C280.729 12.368 280.729 13.178 280.729 14.102C280.741 15.026 280.741 15.974 280.729 16.946C280.717 17.918 280.675 18.824 280.603 19.664L280.135 26C279.751 26.072 279.331 26.126 278.875 26.162C278.431 26.198 277.999 26.216 277.579 26.216C276.463 26.216 275.503 26.12 274.699 25.928L276.733 6.164ZM303.022 6.128C303.646 6.104 304.396 6.08 305.272 6.056C306.16 6.032 307.072 6.014 308.008 6.002C308.944 5.99 309.802 5.984 310.582 5.984C312.058 5.984 313.378 6.152 314.542 6.488C315.718 6.824 316.642 7.382 317.314 8.162C317.986 8.93 318.322 9.962 318.322 11.258C318.322 12.098 318.088 12.896 317.62 13.652C317.164 14.408 316.534 14.942 315.73 15.254C316.762 15.578 317.626 16.214 318.322 17.162C319.018 18.098 319.366 19.112 319.366 20.204C319.366 21.74 319.006 22.94 318.286 23.804C317.578 24.656 316.594 25.262 315.334 25.622C314.086 25.97 312.658 26.144 311.05 26.144C309.814 26.144 308.53 26.132 307.198 26.108C305.866 26.096 304.474 26.072 303.022 26.036L302.824 25.856V6.344L303.022 6.128ZM310.33 9.854C310.102 9.854 309.796 9.854 309.412 9.854C309.028 9.854 308.662 9.842 308.314 9.818V13.688H310.294C311.254 13.688 311.908 13.49 312.256 13.094C312.604 12.698 312.778 12.254 312.778 11.762C312.778 11.282 312.604 10.844 312.256 10.448C311.92 10.052 311.278 9.854 310.33 9.854ZM308.314 22.274C308.794 22.25 309.262 22.238 309.718 22.238C310.174 22.238 310.588 22.238 310.96 22.238C312.052 22.238 312.772 21.992 313.12 21.5C313.48 20.996 313.66 20.48 313.66 19.952C313.66 19.376 313.444 18.836 313.012 18.332C312.592 17.828 311.812 17.576 310.672 17.576H308.314V22.274ZM339.309 12.194C339.309 13.118 339.099 13.94 338.679 14.66C338.259 15.38 337.731 15.974 337.095 16.442C336.471 16.91 335.847 17.21 335.223 17.342C335.871 17.558 336.405 17.888 336.825 18.332C337.257 18.776 337.629 19.346 337.941 20.042L338.877 22.184C339.093 22.676 339.339 23.132 339.615 23.552C339.891 23.96 340.197 24.308 340.533 24.596C340.185 25.028 339.663 25.43 338.967 25.802C338.271 26.162 337.515 26.342 336.699 26.342C335.895 26.342 335.241 26.15 334.737 25.766C334.245 25.37 333.813 24.74 333.441 23.876L331.857 20.24C331.605 19.652 331.293 19.298 330.921 19.178C330.549 19.058 330.069 18.998 329.481 18.998H328.779V26C328.299 26.084 327.801 26.138 327.285 26.162C326.781 26.198 326.349 26.216 325.989 26.216C325.653 26.216 325.209 26.198 324.657 26.162C324.105 26.138 323.601 26.084 323.145 26V6.344L323.343 6.128C324.795 6.092 326.157 6.062 327.429 6.038C328.713 6.002 329.991 5.984 331.263 5.984C332.703 5.984 334.035 6.176 335.259 6.56C336.483 6.932 337.461 7.574 338.193 8.486C338.937 9.386 339.309 10.622 339.309 12.194ZM328.779 10.052V14.714C329.199 14.702 329.583 14.696 329.931 14.696C330.291 14.684 330.555 14.678 330.723 14.678C331.803 14.678 332.535 14.444 332.919 13.976C333.303 13.508 333.495 12.962 333.495 12.338C333.495 11.726 333.303 11.198 332.919 10.754C332.535 10.31 331.893 10.088 330.993 10.088C330.561 10.088 330.189 10.082 329.877 10.07C329.565 10.058 329.199 10.052 328.779 10.052ZM341.972 16.118C341.972 12.902 342.8 10.352 344.456 8.468C346.124 6.572 348.554 5.624 351.746 5.624C354.986 5.624 357.428 6.566 359.072 8.45C360.728 10.322 361.556 12.878 361.556 16.118C361.556 19.358 360.728 21.908 359.072 23.768C357.416 25.616 354.974 26.54 351.746 26.54C348.506 26.54 346.064 25.604 344.42 23.732C342.788 21.86 341.972 19.322 341.972 16.118ZM347.786 16.118C347.786 16.802 347.828 17.51 347.912 18.242C348.008 18.962 348.188 19.634 348.452 20.258C348.728 20.882 349.13 21.392 349.658 21.788C350.186 22.172 350.888 22.364 351.764 22.364C352.64 22.364 353.342 22.172 353.87 21.788C354.398 21.392 354.794 20.882 355.058 20.258C355.334 19.634 355.514 18.962 355.598 18.242C355.694 17.51 355.742 16.802 355.742 16.118C355.742 15.422 355.694 14.708 355.598 13.976C355.514 13.232 355.334 12.548 355.058 11.924C354.794 11.288 354.398 10.778 353.87 10.394C353.342 9.998 352.64 9.8 351.764 9.8C350.888 9.8 350.186 9.998 349.658 10.394C349.13 10.778 348.728 11.288 348.452 11.924C348.188 12.548 348.008 13.232 347.912 13.976C347.828 14.708 347.786 15.422 347.786 16.118ZM363.336 24.506C363.336 24.05 363.426 23.546 363.606 22.994C363.786 22.43 364.032 21.908 364.344 21.428C364.656 20.948 364.998 20.588 365.37 20.348C366.258 20.828 367.248 21.242 368.34 21.59C369.432 21.926 370.5 22.094 371.544 22.094C372.216 22.094 372.768 21.956 373.2 21.68C373.644 21.404 373.866 21.014 373.866 20.51C373.866 20.186 373.74 19.892 373.488 19.628C373.236 19.352 372.798 19.1 372.174 18.872L369.186 17.702C368.262 17.366 367.398 16.946 366.594 16.442C365.79 15.938 365.142 15.32 364.65 14.588C364.158 13.856 363.912 12.98 363.912 11.96C363.912 10.088 364.632 8.564 366.072 7.388C367.512 6.212 369.45 5.624 371.886 5.624C373.266 5.624 374.634 5.786 375.99 6.11C377.358 6.422 378.504 6.782 379.428 7.19C379.428 8.006 379.26 8.81 378.924 9.602C378.588 10.394 378.126 11.018 377.538 11.474C376.65 11.078 375.684 10.748 374.64 10.484C373.596 10.208 372.654 10.07 371.814 10.07C371.19 10.07 370.71 10.202 370.374 10.466C370.05 10.73 369.888 11.048 369.888 11.42C369.888 11.768 370.05 12.032 370.374 12.212C370.698 12.392 371.1 12.572 371.58 12.752L374.55 13.886C376.206 14.486 377.52 15.314 378.492 16.37C379.476 17.414 379.968 18.704 379.968 20.24C379.968 21.596 379.602 22.742 378.87 23.678C378.15 24.614 377.16 25.322 375.9 25.802C374.652 26.282 373.242 26.528 371.67 26.54C369.798 26.54 368.13 26.324 366.666 25.892C365.214 25.46 364.104 24.998 363.336 24.506ZM139.742 53.764C139.742 55.648 139.358 57.226 138.59 58.498C137.834 59.758 136.79 60.706 135.458 61.342C134.138 61.978 132.626 62.296 130.922 62.296H128.096V70C127.616 70.084 127.106 70.138 126.566 70.162C126.038 70.198 125.582 70.216 125.198 70.216C124.85 70.216 124.4 70.198 123.848 70.162C123.296 70.138 122.786 70.084 122.318 70V45.592L122.57 45.34C124.106 45.304 125.54 45.274 126.872 45.25C128.216 45.214 129.566 45.196 130.922 45.196C132.626 45.196 134.138 45.508 135.458 46.132C136.79 46.744 137.834 47.686 138.59 48.958C139.358 50.218 139.742 51.82 139.742 53.764ZM128.096 49.588V57.976C128.6 57.964 129.068 57.952 129.5 57.94C129.944 57.928 130.256 57.922 130.436 57.922C131.396 57.922 132.122 57.694 132.614 57.238C133.106 56.782 133.436 56.236 133.604 55.6C133.772 54.952 133.856 54.34 133.856 53.764C133.856 53.2 133.772 52.6 133.604 51.964C133.436 51.316 133.106 50.764 132.614 50.308C132.122 49.852 131.396 49.624 130.436 49.624C130.076 49.624 129.716 49.624 129.356 49.624C128.996 49.612 128.576 49.6 128.096 49.588ZM141.529 60.118C141.529 56.902 142.357 54.352 144.013 52.468C145.681 50.572 148.111 49.624 151.303 49.624C154.543 49.624 156.985 50.566 158.629 52.45C160.285 54.322 161.113 56.878 161.113 60.118C161.113 63.358 160.285 65.908 158.629 67.768C156.973 69.616 154.531 70.54 151.303 70.54C148.063 70.54 145.621 69.604 143.977 67.732C142.345 65.86 141.529 63.322 141.529 60.118ZM147.343 60.118C147.343 60.802 147.385 61.51 147.469 62.242C147.565 62.962 147.745 63.634 148.009 64.258C148.285 64.882 148.687 65.392 149.215 65.788C149.743 66.172 150.445 66.364 151.321 66.364C152.197 66.364 152.899 66.172 153.427 65.788C153.955 65.392 154.351 64.882 154.615 64.258C154.891 63.634 155.071 62.962 155.155 62.242C155.251 61.51 155.299 60.802 155.299 60.118C155.299 59.422 155.251 58.708 155.155 57.976C155.071 57.232 154.891 56.548 154.615 55.924C154.351 55.288 153.955 54.778 153.427 54.394C152.899 53.998 152.197 53.8 151.321 53.8C150.445 53.8 149.743 53.998 149.215 54.394C148.687 54.778 148.285 55.288 148.009 55.924C147.745 56.548 147.565 57.232 147.469 57.976C147.385 58.708 147.343 59.422 147.343 60.118ZM180.983 56.194C180.983 57.118 180.773 57.94 180.353 58.66C179.933 59.38 179.405 59.974 178.769 60.442C178.145 60.91 177.521 61.21 176.897 61.342C177.545 61.558 178.079 61.888 178.499 62.332C178.931 62.776 179.303 63.346 179.615 64.042L180.551 66.184C180.767 66.676 181.013 67.132 181.289 67.552C181.565 67.96 181.871 68.308 182.207 68.596C181.859 69.028 181.337 69.43 180.641 69.802C179.945 70.162 179.189 70.342 178.373 70.342C177.569 70.342 176.915 70.15 176.411 69.766C175.919 69.37 175.487 68.74 175.115 67.876L173.531 64.24C173.279 63.652 172.967 63.298 172.595 63.178C172.223 63.058 171.743 62.998 171.155 62.998H170.453V70C169.973 70.084 169.475 70.138 168.959 70.162C168.455 70.198 168.023 70.216 167.663 70.216C167.327 70.216 166.883 70.198 166.331 70.162C165.779 70.138 165.275 70.084 164.819 70V50.344L165.017 50.128C166.469 50.092 167.831 50.062 169.103 50.038C170.387 50.002 171.665 49.984 172.937 49.984C174.377 49.984 175.709 50.176 176.933 50.56C178.157 50.932 179.135 51.574 179.867 52.486C180.611 53.386 180.983 54.622 180.983 56.194ZM170.453 54.052V58.714C170.873 58.702 171.257 58.696 171.605 58.696C171.965 58.684 172.229 58.678 172.397 58.678C173.477 58.678 174.209 58.444 174.593 57.976C174.977 57.508 175.169 56.962 175.169 56.338C175.169 55.726 174.977 55.198 174.593 54.754C174.209 54.31 173.567 54.088 172.667 54.088C172.235 54.088 171.863 54.082 171.551 54.07C171.239 54.058 170.873 54.052 170.453 54.052ZM196.951 52.828C196.951 52.336 196.957 51.898 196.969 51.514C196.981 51.118 196.987 50.668 196.987 50.164H196.951C196.687 50.164 196.309 50.17 195.817 50.182C195.325 50.194 194.947 50.2 194.683 50.2H190.957C190.873 49.768 190.819 49.348 190.795 48.94C190.771 48.52 190.759 48.148 190.759 47.824C190.759 47.488 190.771 47.11 190.795 46.69C190.819 46.27 190.873 45.844 190.957 45.412H208.777C208.861 45.712 208.927 46.066 208.975 46.474C209.035 46.87 209.065 47.254 209.065 47.626C209.065 48.562 208.819 49.228 208.327 49.624C207.847 50.008 207.091 50.2 206.059 50.2H204.997C204.733 50.2 204.355 50.194 203.863 50.182C203.371 50.17 202.993 50.164 202.729 50.164H202.693C202.693 50.668 202.699 51.118 202.711 51.514C202.723 51.898 202.729 52.336 202.729 52.828V70C202.237 70.084 201.733 70.138 201.217 70.162C200.701 70.198 200.245 70.216 199.849 70.216C199.441 70.216 198.979 70.198 198.463 70.162C197.947 70.138 197.443 70.084 196.951 70V52.828ZM211.016 50.164C211.472 50.068 211.988 50.008 212.564 49.984C213.14 49.96 213.596 49.948 213.932 49.948C214.292 49.948 214.724 49.96 215.228 49.984C215.744 50.008 216.242 50.068 216.722 50.164V70C216.242 70.084 215.744 70.138 215.228 70.162C214.724 70.198 214.292 70.216 213.932 70.216C213.596 70.216 213.14 70.198 212.564 70.162C211.988 70.138 211.472 70.084 211.016 70V50.164ZM237.715 56.968C237.715 58.528 237.361 59.824 236.653 60.856C235.957 61.876 234.997 62.638 233.773 63.142C232.549 63.634 231.157 63.88 229.597 63.88H227.635V70C227.155 70.084 226.663 70.138 226.159 70.162C225.655 70.198 225.223 70.216 224.863 70.216C224.527 70.216 224.071 70.198 223.495 70.162C222.919 70.138 222.403 70.084 221.947 70V50.344L222.145 50.128C223.117 50.104 224.287 50.074 225.655 50.038C227.023 50.002 228.337 49.984 229.597 49.984C231.169 49.984 232.567 50.224 233.791 50.704C235.015 51.184 235.975 51.94 236.671 52.972C237.367 54.004 237.715 55.336 237.715 56.968ZM227.635 54.196V59.704C227.959 59.692 228.253 59.686 228.517 59.686C228.781 59.674 228.979 59.668 229.111 59.668C229.903 59.668 230.497 59.524 230.893 59.236C231.301 58.936 231.571 58.576 231.703 58.156C231.835 57.724 231.901 57.316 231.901 56.932C231.901 56.572 231.835 56.182 231.703 55.762C231.571 55.342 231.301 54.982 230.893 54.682C230.497 54.382 229.903 54.232 229.111 54.232C228.811 54.232 228.595 54.232 228.463 54.232C228.331 54.22 228.055 54.208 227.635 54.196ZM239.72 60.118C239.72 56.902 240.548 54.352 242.204 52.468C243.872 50.572 246.302 49.624 249.494 49.624C252.734 49.624 255.176 50.566 256.82 52.45C258.476 54.322 259.304 56.878 259.304 60.118C259.304 63.358 258.476 65.908 256.82 67.768C255.164 69.616 252.722 70.54 249.494 70.54C246.254 70.54 243.812 69.604 242.168 67.732C240.536 65.86 239.72 63.322 239.72 60.118ZM245.534 60.118C245.534 60.802 245.576 61.51 245.66 62.242C245.756 62.962 245.936 63.634 246.2 64.258C246.476 64.882 246.878 65.392 247.406 65.788C247.934 66.172 248.636 66.364 249.512 66.364C250.388 66.364 251.09 66.172 251.618 65.788C252.146 65.392 252.542 64.882 252.806 64.258C253.082 63.634 253.262 62.962 253.346 62.242C253.442 61.51 253.49 60.802 253.49 60.118C253.49 59.422 253.442 58.708 253.346 57.976C253.262 57.232 253.082 56.548 252.806 55.924C252.542 55.288 252.146 54.778 251.618 54.394C251.09 53.998 250.388 53.8 249.512 53.8C248.636 53.8 247.934 53.998 247.406 54.394C246.878 54.778 246.476 55.288 246.2 55.924C245.936 56.548 245.756 57.232 245.66 57.976C245.576 58.708 245.534 59.422 245.534 60.118Z" fill="#364760"/>
</svg>
