<svg width="362" height="27" viewBox="0 0 362 27" fill="none" xmlns="http://www.w3.org/2000/svg">
<path d="M14.3126 11.204C14.3366 10.208 14.2346 9.272 14.0066 8.396C13.7906 7.508 13.3886 6.794 12.8006 6.254C12.2246 5.702 11.4086 5.426 10.3526 5.426C8.80461 5.426 7.70061 6.146 7.04061 7.586C6.39261 9.014 6.06861 11.096 6.06861 13.832C6.06861 16.388 6.49461 18.308 7.34661 19.592C8.21061 20.876 9.42861 21.518 11.0006 21.518C12.2486 21.518 13.3706 21.254 14.3666 20.726C15.3746 20.198 16.2926 19.622 17.1206 18.998C17.6846 19.382 18.2306 19.928 18.7586 20.636C19.2986 21.344 19.6346 22.034 19.7666 22.706C19.0706 23.39 18.2066 24.026 17.1746 24.614C16.1546 25.19 15.0266 25.652 13.7906 26C12.5546 26.36 11.2706 26.54 9.93861 26.54C8.05461 26.54 6.47061 26.174 5.18661 25.442C3.91461 24.698 2.90061 23.714 2.14461 22.49C1.38861 21.254 0.842609 19.886 0.506609 18.386C0.182609 16.874 0.0206095 15.344 0.0206095 13.796C0.0206095 10.784 0.494609 8.324 1.44261 6.416C2.40261 4.508 3.68061 3.104 5.27661 2.204C6.87261 1.304 8.63061 0.853999 10.5506 0.853999C12.4106 0.853999 14.0306 1.184 15.4106 1.844C16.8026 2.504 17.8766 3.398 18.6326 4.526C19.4006 5.654 19.7846 6.926 19.7846 8.342C19.7846 9.458 19.4906 10.268 18.9026 10.772C18.3266 11.264 17.5226 11.51 16.4906 11.51C16.0706 11.51 15.6866 11.48 15.3386 11.42C15.0026 11.36 14.6606 11.288 14.3126 11.204ZM21.761 16.118C21.761 12.902 22.589 10.352 24.245 8.468C25.913 6.572 28.343 5.624 31.535 5.624C34.775 5.624 37.217 6.566 38.861 8.45C40.517 10.322 41.345 12.878 41.345 16.118C41.345 19.358 40.517 21.908 38.861 23.768C37.205 25.616 34.763 26.54 31.535 26.54C28.295 26.54 25.853 25.604 24.209 23.732C22.577 21.86 21.761 19.322 21.761 16.118ZM27.575 16.118C27.575 16.802 27.617 17.51 27.701 18.242C27.797 18.962 27.977 19.634 28.241 20.258C28.517 20.882 28.919 21.392 29.447 21.788C29.975 22.172 30.677 22.364 31.553 22.364C32.429 22.364 33.131 22.172 33.659 21.788C34.187 21.392 34.583 20.882 34.847 20.258C35.123 19.634 35.303 18.962 35.387 18.242C35.483 17.51 35.531 16.802 35.531 16.118C35.531 15.422 35.483 14.708 35.387 13.976C35.303 13.232 35.123 12.548 34.847 11.924C34.583 11.288 34.187 10.778 33.659 10.394C33.131 9.998 32.429 9.8 31.553 9.8C30.677 9.8 29.975 9.998 29.447 10.394C28.919 10.778 28.517 11.288 28.241 11.924C27.977 12.548 27.797 13.232 27.701 13.976C27.617 14.708 27.575 15.422 27.575 16.118ZM52.035 16.946C51.951 16.754 51.819 16.454 51.639 16.046C51.459 15.626 51.267 15.176 51.063 14.696C50.859 14.216 50.667 13.766 50.487 13.346C50.319 12.926 50.187 12.62 50.091 12.428L49.965 12.482C50.013 13.43 50.061 14.456 50.109 15.56C50.157 16.652 50.193 17.654 50.217 18.566C50.253 19.466 50.271 20.12 50.271 20.528V26C49.803 26.084 49.353 26.138 48.921 26.162C48.489 26.198 48.087 26.216 47.715 26.216C47.379 26.216 46.959 26.198 46.455 26.162C45.963 26.138 45.495 26.084 45.051 26V6.29C45.495 6.182 46.047 6.098 46.707 6.038C47.367 5.978 47.877 5.948 48.237 5.948C48.609 5.948 49.137 5.96 49.821 5.984C50.505 5.996 51.069 6.056 51.513 6.164L55.743 15.182C55.827 15.35 55.965 15.656 56.157 16.1C56.361 16.544 56.577 17.03 56.805 17.558C57.033 18.086 57.243 18.584 57.435 19.052C57.639 19.508 57.789 19.844 57.885 20.06L58.047 20.024C57.999 19.232 57.933 18.308 57.849 17.252C57.777 16.196 57.711 15.176 57.651 14.192C57.591 13.208 57.561 12.422 57.561 11.834V9.026C57.561 7.754 57.837 6.92 58.389 6.524C58.941 6.116 59.763 5.912 60.855 5.912H62.709L62.925 6.164V25.892C62.457 26 61.893 26.078 61.233 26.126C60.573 26.186 60.069 26.216 59.721 26.216C59.481 26.216 59.151 26.21 58.731 26.198C58.311 26.186 57.879 26.168 57.435 26.144C57.003 26.12 56.643 26.072 56.355 26L52.035 16.946ZM66.1875 24.506C66.1875 24.05 66.2775 23.546 66.4575 22.994C66.6375 22.43 66.8835 21.908 67.1955 21.428C67.5075 20.948 67.8495 20.588 68.2215 20.348C69.1095 20.828 70.0995 21.242 71.1915 21.59C72.2835 21.926 73.3515 22.094 74.3955 22.094C75.0675 22.094 75.6195 21.956 76.0515 21.68C76.4955 21.404 76.7175 21.014 76.7175 20.51C76.7175 20.186 76.5915 19.892 76.3395 19.628C76.0875 19.352 75.6495 19.1 75.0255 18.872L72.0375 17.702C71.1135 17.366 70.2495 16.946 69.4455 16.442C68.6415 15.938 67.9935 15.32 67.5015 14.588C67.0095 13.856 66.7635 12.98 66.7635 11.96C66.7635 10.088 67.4835 8.564 68.9235 7.388C70.3635 6.212 72.3015 5.624 74.7375 5.624C76.1175 5.624 77.4855 5.786 78.8415 6.11C80.2095 6.422 81.3555 6.782 82.2795 7.19C82.2795 8.006 82.1115 8.81 81.7755 9.602C81.4395 10.394 80.9775 11.018 80.3895 11.474C79.5015 11.078 78.5355 10.748 77.4915 10.484C76.4475 10.208 75.5055 10.07 74.6655 10.07C74.0415 10.07 73.5615 10.202 73.2255 10.466C72.9015 10.73 72.7395 11.048 72.7395 11.42C72.7395 11.768 72.9015 12.032 73.2255 12.212C73.5495 12.392 73.9515 12.572 74.4315 12.752L77.4015 13.886C79.0575 14.486 80.3715 15.314 81.3435 16.37C82.3275 17.414 82.8195 18.704 82.8195 20.24C82.8195 21.596 82.4535 22.742 81.7215 23.678C81.0015 24.614 80.0115 25.322 78.7515 25.802C77.5035 26.282 76.0935 26.528 74.5215 26.54C72.6495 26.54 70.9815 26.324 69.5175 25.892C68.0655 25.46 66.9555 24.998 66.1875 24.506ZM103.568 18.566C103.568 21.05 102.824 23 101.336 24.416C99.8604 25.832 97.6704 26.54 94.7664 26.54C91.8624 26.54 89.6664 25.832 88.1784 24.416C86.7024 23 85.9644 21.05 85.9644 18.566V6.164L86.1804 5.948H88.2324C89.3244 5.948 90.1644 6.224 90.7524 6.776C91.3524 7.328 91.6524 8.258 91.6524 9.566V18.548C91.6524 19.64 91.8804 20.498 92.3364 21.122C92.7924 21.746 93.6024 22.058 94.7664 22.058C95.9424 22.058 96.7524 21.746 97.1964 21.122C97.6404 20.498 97.8624 19.64 97.8624 18.548V6.164C98.3424 6.068 98.8344 6.008 99.3384 5.984C99.8424 5.96 100.28 5.948 100.652 5.948C100.988 5.948 101.444 5.966 102.02 6.002C102.596 6.026 103.112 6.086 103.568 6.182V18.566ZM122.407 21.392C122.335 23.144 122.029 24.368 121.489 25.064C120.949 25.76 119.989 26.108 118.609 26.108H111.625C110.593 26.108 109.783 25.82 109.195 25.244C108.619 24.656 108.331 23.87 108.331 22.886V6.2L108.547 5.984H110.707C111.799 5.984 112.627 6.26 113.191 6.812C113.755 7.352 114.037 8.258 114.037 9.53V21.572C115.273 21.452 116.383 21.392 117.367 21.392H122.407ZM125.735 12.914C125.735 12.53 125.741 12.176 125.753 11.852C125.765 11.516 125.771 11.144 125.771 10.736C125.519 10.736 125.171 10.742 124.727 10.754C124.295 10.766 123.953 10.772 123.701 10.772H120.371C120.275 10.34 120.215 9.938 120.191 9.566C120.167 9.182 120.155 8.834 120.155 8.522C120.155 8.21 120.167 7.844 120.191 7.424C120.215 6.992 120.275 6.572 120.371 6.164H136.661C136.745 6.488 136.805 6.854 136.841 7.262C136.889 7.67 136.913 8 136.913 8.252C136.913 9.068 136.697 9.692 136.265 10.124C135.833 10.556 135.113 10.772 134.105 10.772H133.367C133.115 10.772 132.779 10.766 132.359 10.754C131.951 10.742 131.633 10.736 131.405 10.736C131.405 11.144 131.411 11.516 131.423 11.852C131.435 12.176 131.441 12.53 131.441 12.914V26C131.105 26.072 130.643 26.126 130.055 26.162C129.467 26.198 128.975 26.216 128.579 26.216C128.207 26.216 127.739 26.198 127.175 26.162C126.611 26.126 126.131 26.072 125.735 26V12.914ZM142.728 22.526C142.536 22.526 142.35 22.526 142.17 22.526C141.99 22.514 141.81 22.502 141.63 22.49L140.514 26C140.166 26.084 139.788 26.144 139.38 26.18C138.972 26.228 138.546 26.252 138.102 26.252C137.622 26.252 137.136 26.216 136.644 26.144C136.164 26.072 135.768 25.97 135.456 25.838L135.258 25.532L142.26 6.164C142.884 6.068 143.484 6.008 144.06 5.984C144.648 5.96 145.182 5.948 145.662 5.948C146.106 5.948 146.586 5.96 147.102 5.984C147.618 6.008 148.2 6.068 148.848 6.164L155.652 25.73C155.232 25.922 154.698 26.066 154.05 26.162C153.402 26.27 152.88 26.324 152.484 26.324C151.824 26.324 151.188 26.198 150.576 25.946C149.964 25.694 149.502 25.028 149.19 23.948L148.74 22.49C148.548 22.502 148.362 22.514 148.182 22.526C148.002 22.526 147.81 22.526 147.606 22.526H142.728ZM143.448 16.838L143.052 18.08C143.232 18.068 143.412 18.062 143.592 18.062C143.772 18.05 143.958 18.044 144.15 18.044H146.4C146.58 18.044 146.742 18.05 146.886 18.062C147.042 18.062 147.198 18.068 147.354 18.08L146.976 16.856C146.7 15.908 146.424 14.852 146.148 13.688C145.872 12.524 145.62 11.468 145.392 10.52H145.176C144.924 11.432 144.642 12.476 144.33 13.652C144.03 14.828 143.736 15.89 143.448 16.838ZM184.395 16.118C184.395 19.478 183.609 21.992 182.037 23.66C180.465 25.316 177.987 26.144 174.603 26.144C173.175 26.144 171.819 26.132 170.535 26.108C169.263 26.096 167.919 26.072 166.503 26.036L166.305 25.82V6.344L166.503 6.128C167.931 6.092 169.281 6.062 170.553 6.038C171.825 6.002 173.175 5.984 174.603 5.984C177.951 5.984 180.417 6.854 182.001 8.594C183.597 10.322 184.395 12.83 184.395 16.118ZM178.599 16.118C178.599 15.242 178.509 14.366 178.329 13.49C178.149 12.602 177.771 11.858 177.195 11.258C176.619 10.658 175.755 10.358 174.603 10.358C174.075 10.358 173.619 10.358 173.235 10.358C172.863 10.346 172.431 10.334 171.939 10.322V21.842C172.455 21.842 172.893 21.836 173.253 21.824C173.625 21.812 174.075 21.806 174.603 21.806C175.755 21.806 176.619 21.512 177.195 20.924C177.771 20.324 178.149 19.586 178.329 18.71C178.509 17.834 178.599 16.97 178.599 16.118ZM203.239 21.482C203.239 23.198 202.969 24.392 202.429 25.064C201.901 25.736 201.001 26.072 199.729 26.072H191.431C190.411 26.072 189.607 25.784 189.019 25.208C188.431 24.62 188.137 23.834 188.137 22.85V6.362L188.335 6.164H202.573C202.657 6.572 202.705 6.962 202.717 7.334C202.729 7.706 202.735 8.06 202.735 8.396C202.735 8.72 202.699 9.086 202.627 9.494C202.567 9.902 202.459 10.316 202.303 10.736H196.003C195.499 10.736 194.737 10.73 193.717 10.718C193.729 11.09 193.735 11.408 193.735 11.672C193.747 11.936 193.753 12.254 193.753 12.626V13.814C194.749 13.802 195.499 13.796 196.003 13.796H200.611C200.731 14.12 200.809 14.492 200.845 14.912C200.893 15.32 200.917 15.668 200.917 15.956C200.917 16.292 200.893 16.67 200.845 17.09C200.809 17.498 200.731 17.87 200.611 18.206H196.003C195.775 18.206 195.457 18.206 195.049 18.206C194.641 18.206 194.209 18.206 193.753 18.206V19.376C193.753 19.82 193.747 20.186 193.735 20.474C193.723 20.762 193.717 21.122 193.717 21.554V21.59C194.137 21.566 194.527 21.542 194.887 21.518C195.247 21.494 195.685 21.482 196.201 21.482H203.239ZM216.345 1.448C216.957 1.34 217.623 1.268 218.343 1.232C219.075 1.196 219.705 1.178 220.233 1.178C220.761 1.178 221.349 1.196 221.997 1.232C222.645 1.268 223.275 1.34 223.887 1.448L226.011 10.25C226.059 10.466 226.137 10.838 226.245 11.366C226.365 11.894 226.497 12.494 226.641 13.166C226.785 13.838 226.917 14.498 227.037 15.146C227.169 15.794 227.271 16.346 227.343 16.802H227.595C227.667 16.346 227.769 15.794 227.901 15.146C228.033 14.498 228.165 13.838 228.297 13.166C228.441 12.494 228.573 11.894 228.693 11.366C228.813 10.838 228.897 10.466 228.945 10.25L231.069 1.448C231.681 1.34 232.305 1.268 232.941 1.232C233.589 1.196 234.177 1.178 234.705 1.178C235.233 1.178 235.863 1.196 236.595 1.232C237.327 1.268 237.993 1.34 238.593 1.448L240.501 25.928C240.093 26.036 239.619 26.108 239.079 26.144C238.551 26.192 238.053 26.216 237.585 26.216C237.153 26.216 236.727 26.204 236.307 26.18C235.899 26.156 235.485 26.108 235.065 26.036L234.525 16.01C234.453 14.738 234.387 13.334 234.327 11.798C234.267 10.262 234.237 8.906 234.237 7.73H233.985L230.439 22.382C230.007 22.454 229.503 22.508 228.927 22.544C228.351 22.568 227.859 22.58 227.451 22.58C227.091 22.58 226.617 22.568 226.029 22.544C225.441 22.508 224.931 22.454 224.499 22.382L220.953 7.73H220.719C220.707 8.906 220.671 10.262 220.611 11.798C220.563 13.334 220.503 14.738 220.431 16.01L219.873 26.036C219.465 26.108 219.051 26.156 218.631 26.18C218.211 26.204 217.785 26.216 217.353 26.216C216.897 26.216 216.399 26.192 215.859 26.144C215.331 26.108 214.857 26.036 214.437 25.928L216.345 1.448ZM245.127 6.164C245.583 6.068 246.099 6.008 246.675 5.984C247.251 5.96 247.707 5.948 248.043 5.948C248.403 5.948 248.835 5.96 249.339 5.984C249.855 6.008 250.353 6.068 250.833 6.164V26C250.353 26.084 249.855 26.138 249.339 26.162C248.835 26.198 248.403 26.216 248.043 26.216C247.707 26.216 247.251 26.198 246.675 26.162C246.099 26.138 245.583 26.084 245.127 26V6.164ZM271.161 21.482C271.161 23.198 270.891 24.392 270.351 25.064C269.823 25.736 268.923 26.072 267.651 26.072H259.353C258.333 26.072 257.529 25.784 256.941 25.208C256.353 24.62 256.059 23.834 256.059 22.85V6.362L256.257 6.164H270.495C270.579 6.572 270.627 6.962 270.639 7.334C270.651 7.706 270.657 8.06 270.657 8.396C270.657 8.72 270.621 9.086 270.549 9.494C270.489 9.902 270.381 10.316 270.225 10.736H263.925C263.421 10.736 262.659 10.73 261.639 10.718C261.651 11.09 261.657 11.408 261.657 11.672C261.669 11.936 261.675 12.254 261.675 12.626V13.814C262.671 13.802 263.421 13.796 263.925 13.796H268.533C268.653 14.12 268.731 14.492 268.767 14.912C268.815 15.32 268.839 15.668 268.839 15.956C268.839 16.292 268.815 16.67 268.767 17.09C268.731 17.498 268.653 17.87 268.533 18.206H263.925C263.697 18.206 263.379 18.206 262.971 18.206C262.563 18.206 262.131 18.206 261.675 18.206V19.376C261.675 19.82 261.669 20.186 261.657 20.474C261.645 20.762 261.639 21.122 261.639 21.554V21.59C262.059 21.566 262.449 21.542 262.809 21.518C263.169 21.494 263.607 21.482 264.123 21.482H271.161ZM276.338 6.164C276.914 6.056 277.544 5.984 278.228 5.948C278.912 5.9 279.488 5.876 279.956 5.876C280.4 5.876 280.976 5.9 281.684 5.948C282.392 5.984 282.986 6.056 283.466 6.164L285.23 13.976C285.338 14.444 285.464 15.08 285.608 15.884C285.752 16.676 285.896 17.528 286.04 18.44H286.274C286.562 16.52 286.832 15.032 287.084 13.976L288.83 6.164C289.394 6.056 290.012 5.984 290.684 5.948C291.356 5.9 291.914 5.876 292.358 5.876C292.826 5.876 293.408 5.9 294.104 5.948C294.8 5.984 295.424 6.056 295.976 6.164L298.01 25.928C297.23 26.12 296.288 26.216 295.184 26.216C294.764 26.216 294.314 26.198 293.834 26.162C293.366 26.126 292.946 26.072 292.574 26L292.052 19.628C291.992 18.812 291.956 17.918 291.944 16.946C291.932 15.974 291.932 15.026 291.944 14.102C291.956 13.166 291.956 12.356 291.944 11.672H291.728L289.082 22.958C288.674 23.03 288.176 23.084 287.588 23.12C287 23.144 286.514 23.156 286.13 23.156C285.734 23.156 285.242 23.144 284.654 23.12C284.078 23.084 283.598 23.03 283.214 22.958L280.586 11.672H280.334C280.334 12.368 280.334 13.178 280.334 14.102C280.346 15.026 280.346 15.974 280.334 16.946C280.322 17.918 280.28 18.824 280.208 19.664L279.74 26C279.356 26.072 278.936 26.126 278.48 26.162C278.036 26.198 277.604 26.216 277.184 26.216C276.068 26.216 275.108 26.12 274.304 25.928L276.338 6.164ZM302.628 6.128C303.252 6.104 304.002 6.08 304.878 6.056C305.766 6.032 306.678 6.014 307.614 6.002C308.55 5.99 309.408 5.984 310.188 5.984C311.664 5.984 312.984 6.152 314.148 6.488C315.324 6.824 316.248 7.382 316.92 8.162C317.592 8.93 317.928 9.962 317.928 11.258C317.928 12.098 317.694 12.896 317.226 13.652C316.77 14.408 316.14 14.942 315.336 15.254C316.368 15.578 317.232 16.214 317.928 17.162C318.624 18.098 318.972 19.112 318.972 20.204C318.972 21.74 318.612 22.94 317.892 23.804C317.184 24.656 316.2 25.262 314.94 25.622C313.692 25.97 312.264 26.144 310.656 26.144C309.42 26.144 308.136 26.132 306.804 26.108C305.472 26.096 304.08 26.072 302.628 26.036L302.43 25.856V6.344L302.628 6.128ZM309.936 9.854C309.708 9.854 309.402 9.854 309.018 9.854C308.634 9.854 308.268 9.842 307.92 9.818V13.688H309.9C310.86 13.688 311.514 13.49 311.862 13.094C312.21 12.698 312.384 12.254 312.384 11.762C312.384 11.282 312.21 10.844 311.862 10.448C311.526 10.052 310.884 9.854 309.936 9.854ZM307.92 22.274C308.4 22.25 308.868 22.238 309.324 22.238C309.78 22.238 310.194 22.238 310.566 22.238C311.658 22.238 312.378 21.992 312.726 21.5C313.086 20.996 313.266 20.48 313.266 19.952C313.266 19.376 313.05 18.836 312.618 18.332C312.198 17.828 311.418 17.576 310.278 17.576H307.92V22.274ZM338.914 12.194C338.914 13.118 338.704 13.94 338.284 14.66C337.864 15.38 337.336 15.974 336.7 16.442C336.076 16.91 335.452 17.21 334.828 17.342C335.476 17.558 336.01 17.888 336.43 18.332C336.862 18.776 337.234 19.346 337.546 20.042L338.482 22.184C338.698 22.676 338.944 23.132 339.22 23.552C339.496 23.96 339.802 24.308 340.138 24.596C339.79 25.028 339.268 25.43 338.572 25.802C337.876 26.162 337.12 26.342 336.304 26.342C335.5 26.342 334.846 26.15 334.342 25.766C333.85 25.37 333.418 24.74 333.046 23.876L331.462 20.24C331.21 19.652 330.898 19.298 330.526 19.178C330.154 19.058 329.674 18.998 329.086 18.998H328.384V26C327.904 26.084 327.406 26.138 326.89 26.162C326.386 26.198 325.954 26.216 325.594 26.216C325.258 26.216 324.814 26.198 324.262 26.162C323.71 26.138 323.206 26.084 322.75 26V6.344L322.948 6.128C324.4 6.092 325.762 6.062 327.034 6.038C328.318 6.002 329.596 5.984 330.868 5.984C332.308 5.984 333.64 6.176 334.864 6.56C336.088 6.932 337.066 7.574 337.798 8.486C338.542 9.386 338.914 10.622 338.914 12.194ZM328.384 10.052V14.714C328.804 14.702 329.188 14.696 329.536 14.696C329.896 14.684 330.16 14.678 330.328 14.678C331.408 14.678 332.14 14.444 332.524 13.976C332.908 13.508 333.1 12.962 333.1 12.338C333.1 11.726 332.908 11.198 332.524 10.754C332.14 10.31 331.498 10.088 330.598 10.088C330.166 10.088 329.794 10.082 329.482 10.07C329.17 10.058 328.804 10.052 328.384 10.052ZM341.577 16.118C341.577 12.902 342.405 10.352 344.061 8.468C345.729 6.572 348.159 5.624 351.351 5.624C354.591 5.624 357.033 6.566 358.677 8.45C360.333 10.322 361.161 12.878 361.161 16.118C361.161 19.358 360.333 21.908 358.677 23.768C357.021 25.616 354.579 26.54 351.351 26.54C348.111 26.54 345.669 25.604 344.025 23.732C342.393 21.86 341.577 19.322 341.577 16.118ZM347.391 16.118C347.391 16.802 347.433 17.51 347.517 18.242C347.613 18.962 347.793 19.634 348.057 20.258C348.333 20.882 348.735 21.392 349.263 21.788C349.791 22.172 350.493 22.364 351.369 22.364C352.245 22.364 352.947 22.172 353.475 21.788C354.003 21.392 354.399 20.882 354.663 20.258C354.939 19.634 355.119 18.962 355.203 18.242C355.299 17.51 355.347 16.802 355.347 16.118C355.347 15.422 355.299 14.708 355.203 13.976C355.119 13.232 354.939 12.548 354.663 11.924C354.399 11.288 354.003 10.778 353.475 10.394C352.947 9.998 352.245 9.8 351.369 9.8C350.493 9.8 349.791 9.998 349.263 10.394C348.735 10.778 348.333 11.288 348.057 11.924C347.793 12.548 347.613 13.232 347.517 13.976C347.433 14.708 347.391 15.422 347.391 16.118Z" fill="#364760"/>
</svg>
