<svg width="205" height="29" viewBox="0 0 205 29" fill="none" xmlns="http://www.w3.org/2000/svg">
<path d="M14.7735 13.204C14.7975 12.208 14.6955 11.272 14.4675 10.396C14.2515 9.508 13.8495 8.794 13.2615 8.254C12.6855 7.702 11.8695 7.426 10.8135 7.426C9.26555 7.426 8.16155 8.146 7.50155 9.586C6.85355 11.014 6.52955 13.096 6.52955 15.832C6.52955 18.388 6.95555 20.308 7.80755 21.592C8.67155 22.876 9.88955 23.518 11.4615 23.518C12.7095 23.518 13.8315 23.254 14.8275 22.726C15.8355 22.198 16.7535 21.622 17.5815 20.998C18.1455 21.382 18.6915 21.928 19.2195 22.636C19.7595 23.344 20.0955 24.034 20.2275 24.706C19.5315 25.39 18.6675 26.026 17.6355 26.614C16.6155 27.19 15.4875 27.652 14.2515 28C13.0155 28.36 11.7315 28.54 10.3995 28.54C8.51555 28.54 6.93155 28.174 5.64755 27.442C4.37555 26.698 3.36155 25.714 2.60555 24.49C1.84955 23.254 1.30355 21.886 0.967547 20.386C0.643547 18.874 0.481547 17.344 0.481547 15.796C0.481547 12.784 0.955547 10.324 1.90355 8.416C2.86355 6.508 4.14155 5.104 5.73755 4.204C7.33355 3.304 9.09155 2.854 11.0115 2.854C12.8715 2.854 14.4915 3.184 15.8715 3.844C17.2635 4.504 18.3375 5.398 19.0935 6.526C19.8615 7.654 20.2455 8.926 20.2455 10.342C20.2455 11.458 19.9515 12.268 19.3635 12.772C18.7875 13.264 17.9835 13.51 16.9515 13.51C16.5315 13.51 16.1475 13.48 15.7995 13.42C15.4635 13.36 15.1215 13.288 14.7735 13.204ZM22.2219 18.118C22.2219 14.902 23.0499 12.352 24.7059 10.468C26.3739 8.572 28.8039 7.624 31.9959 7.624C35.2359 7.624 37.6779 8.566 39.3219 10.45C40.9779 12.322 41.8059 14.878 41.8059 18.118C41.8059 21.358 40.9779 23.908 39.3219 25.768C37.6659 27.616 35.2239 28.54 31.9959 28.54C28.7559 28.54 26.3139 27.604 24.6699 25.732C23.0379 23.86 22.2219 21.322 22.2219 18.118ZM28.0359 18.118C28.0359 18.802 28.0779 19.51 28.1619 20.242C28.2579 20.962 28.4379 21.634 28.7019 22.258C28.9779 22.882 29.3799 23.392 29.9079 23.788C30.4359 24.172 31.1379 24.364 32.0139 24.364C32.8899 24.364 33.5919 24.172 34.1199 23.788C34.6479 23.392 35.0439 22.882 35.3079 22.258C35.5839 21.634 35.7639 20.962 35.8479 20.242C35.9439 19.51 35.9919 18.802 35.9919 18.118C35.9919 17.422 35.9439 16.708 35.8479 15.976C35.7639 15.232 35.5839 14.548 35.3079 13.924C35.0439 13.288 34.6479 12.778 34.1199 12.394C33.5919 11.998 32.8899 11.8 32.0139 11.8C31.1379 11.8 30.4359 11.998 29.9079 12.394C29.3799 12.778 28.9779 13.288 28.7019 13.924C28.4379 14.548 28.2579 15.232 28.1619 15.976C28.0779 16.708 28.0359 17.422 28.0359 18.118ZM52.4959 18.946C52.4119 18.754 52.2799 18.454 52.0999 18.046C51.9199 17.626 51.7279 17.176 51.5239 16.696C51.3199 16.216 51.1279 15.766 50.9479 15.346C50.7799 14.926 50.6479 14.62 50.5519 14.428L50.4259 14.482C50.4739 15.43 50.5219 16.456 50.5699 17.56C50.6179 18.652 50.6539 19.654 50.6779 20.566C50.7139 21.466 50.7319 22.12 50.7319 22.528V28C50.2639 28.084 49.8139 28.138 49.3819 28.162C48.9499 28.198 48.5479 28.216 48.1759 28.216C47.8399 28.216 47.4199 28.198 46.9159 28.162C46.4239 28.138 45.9559 28.084 45.5119 28V8.29C45.9559 8.182 46.5079 8.098 47.1679 8.038C47.8279 7.978 48.3379 7.948 48.6979 7.948C49.0699 7.948 49.5979 7.96 50.2819 7.984C50.9659 7.996 51.5299 8.056 51.9739 8.164L56.2039 17.182C56.2879 17.35 56.4259 17.656 56.6179 18.1C56.8219 18.544 57.0379 19.03 57.2659 19.558C57.4939 20.086 57.7039 20.584 57.8959 21.052C58.0999 21.508 58.2499 21.844 58.3459 22.06L58.5079 22.024C58.4599 21.232 58.3939 20.308 58.3099 19.252C58.2379 18.196 58.1719 17.176 58.1119 16.192C58.0519 15.208 58.0219 14.422 58.0219 13.834V11.026C58.0219 9.754 58.2979 8.92 58.8499 8.524C59.4019 8.116 60.2239 7.912 61.3159 7.912H63.1699L63.3859 8.164V27.892C62.9179 28 62.3539 28.078 61.6939 28.126C61.0339 28.186 60.5299 28.216 60.1819 28.216C59.9419 28.216 59.6119 28.21 59.1919 28.198C58.7719 28.186 58.3399 28.168 57.8959 28.144C57.4639 28.12 57.1039 28.072 56.8159 28L52.4959 18.946ZM71.5984 14.914C71.5984 14.53 71.6044 14.176 71.6164 13.852C71.6284 13.516 71.6344 13.144 71.6344 12.736C71.3824 12.736 71.0344 12.742 70.5904 12.754C70.1584 12.766 69.8164 12.772 69.5644 12.772H66.2344C66.1384 12.34 66.0784 11.938 66.0544 11.566C66.0304 11.182 66.0184 10.834 66.0184 10.522C66.0184 10.21 66.0304 9.844 66.0544 9.424C66.0784 8.992 66.1384 8.572 66.2344 8.164H82.5244C82.6084 8.488 82.6684 8.854 82.7044 9.262C82.7524 9.67 82.7764 10 82.7764 10.252C82.7764 11.068 82.5604 11.692 82.1284 12.124C81.6964 12.556 80.9764 12.772 79.9684 12.772H79.2304C78.9784 12.772 78.6424 12.766 78.2224 12.754C77.8144 12.742 77.4964 12.736 77.2684 12.736C77.2684 13.144 77.2744 13.516 77.2864 13.852C77.2984 14.176 77.3044 14.53 77.3044 14.914V28C76.9684 28.072 76.5064 28.126 75.9184 28.162C75.3304 28.198 74.8384 28.216 74.4424 28.216C74.0704 28.216 73.6024 28.198 73.0384 28.162C72.4744 28.126 71.9944 28.072 71.5984 28V14.914ZM101.367 14.194C101.367 15.118 101.157 15.94 100.737 16.66C100.317 17.38 99.7893 17.974 99.1533 18.442C98.5293 18.91 97.9053 19.21 97.2813 19.342C97.9293 19.558 98.4633 19.888 98.8833 20.332C99.3153 20.776 99.6873 21.346 99.9993 22.042L100.935 24.184C101.151 24.676 101.397 25.132 101.673 25.552C101.949 25.96 102.255 26.308 102.591 26.596C102.243 27.028 101.721 27.43 101.025 27.802C100.329 28.162 99.5733 28.342 98.7573 28.342C97.9533 28.342 97.2993 28.15 96.7953 27.766C96.3033 27.37 95.8713 26.74 95.4993 25.876L93.9153 22.24C93.6633 21.652 93.3513 21.298 92.9793 21.178C92.6073 21.058 92.1273 20.998 91.5393 20.998H90.8373V28C90.3573 28.084 89.8593 28.138 89.3433 28.162C88.8393 28.198 88.4073 28.216 88.0473 28.216C87.7113 28.216 87.2673 28.198 86.7153 28.162C86.1633 28.138 85.6593 28.084 85.2033 28V8.344L85.4013 8.128C86.8533 8.092 88.2153 8.062 89.4873 8.038C90.7713 8.002 92.0493 7.984 93.3213 7.984C94.7613 7.984 96.0933 8.176 97.3173 8.56C98.5413 8.932 99.5193 9.574 100.251 10.486C100.995 11.386 101.367 12.622 101.367 14.194ZM90.8373 12.052V16.714C91.2573 16.702 91.6413 16.696 91.9893 16.696C92.3493 16.684 92.6133 16.678 92.7813 16.678C93.8613 16.678 94.5933 16.444 94.9773 15.976C95.3613 15.508 95.5533 14.962 95.5533 14.338C95.5533 13.726 95.3613 13.198 94.9773 12.754C94.5933 12.31 93.9513 12.088 93.0513 12.088C92.6193 12.088 92.2473 12.082 91.9353 12.07C91.6233 12.058 91.2573 12.052 90.8373 12.052ZM110.739 24.526C110.547 24.526 110.361 24.526 110.181 24.526C110.001 24.514 109.821 24.502 109.641 24.49L108.525 28C108.177 28.084 107.799 28.144 107.391 28.18C106.983 28.228 106.557 28.252 106.113 28.252C105.633 28.252 105.147 28.216 104.655 28.144C104.175 28.072 103.779 27.97 103.467 27.838L103.269 27.532L110.271 8.164C110.895 8.068 111.495 8.008 112.071 7.984C112.659 7.96 113.193 7.948 113.673 7.948C114.117 7.948 114.597 7.96 115.113 7.984C115.629 8.008 116.211 8.068 116.859 8.164L123.663 27.73C123.243 27.922 122.709 28.066 122.061 28.162C121.413 28.27 120.891 28.324 120.495 28.324C119.835 28.324 119.199 28.198 118.587 27.946C117.975 27.694 117.513 27.028 117.201 25.948L116.751 24.49C116.559 24.502 116.373 24.514 116.193 24.526C116.013 24.526 115.821 24.526 115.617 24.526H110.739ZM111.459 18.838L111.063 20.08C111.243 20.068 111.423 20.062 111.603 20.062C111.783 20.05 111.969 20.044 112.161 20.044H114.411C114.591 20.044 114.753 20.05 114.897 20.062C115.053 20.062 115.209 20.068 115.365 20.08L114.987 18.856C114.711 17.908 114.435 16.852 114.159 15.688C113.883 14.524 113.631 13.468 113.403 12.52H113.187C112.935 13.432 112.653 14.476 112.341 15.652C112.041 16.828 111.747 17.89 111.459 18.838ZM124.48 26.506C124.48 26.05 124.57 25.546 124.75 24.994C124.93 24.43 125.176 23.908 125.488 23.428C125.8 22.948 126.142 22.588 126.514 22.348C127.402 22.828 128.392 23.242 129.484 23.59C130.576 23.926 131.644 24.094 132.688 24.094C133.36 24.094 133.912 23.956 134.344 23.68C134.788 23.404 135.01 23.014 135.01 22.51C135.01 22.186 134.884 21.892 134.632 21.628C134.38 21.352 133.942 21.1 133.318 20.872L130.33 19.702C129.406 19.366 128.542 18.946 127.738 18.442C126.934 17.938 126.286 17.32 125.794 16.588C125.302 15.856 125.056 14.98 125.056 13.96C125.056 12.088 125.776 10.564 127.216 9.388C128.656 8.212 130.594 7.624 133.03 7.624C134.41 7.624 135.778 7.786 137.134 8.11C138.502 8.422 139.648 8.782 140.572 9.19C140.572 10.006 140.404 10.81 140.068 11.602C139.732 12.394 139.27 13.018 138.682 13.474C137.794 13.078 136.828 12.748 135.784 12.484C134.74 12.208 133.798 12.07 132.958 12.07C132.334 12.07 131.854 12.202 131.518 12.466C131.194 12.73 131.032 13.048 131.032 13.42C131.032 13.768 131.194 14.032 131.518 14.212C131.842 14.392 132.244 14.572 132.724 14.752L135.694 15.886C137.35 16.486 138.664 17.314 139.636 18.37C140.62 19.414 141.112 20.704 141.112 22.24C141.112 23.596 140.746 24.742 140.014 25.678C139.294 26.614 138.304 27.322 137.044 27.802C135.796 28.282 134.386 28.528 132.814 28.54C130.942 28.54 129.274 28.324 127.81 27.892C126.358 27.46 125.248 26.998 124.48 26.506ZM159.719 23.482C159.719 25.198 159.449 26.392 158.909 27.064C158.381 27.736 157.481 28.072 156.209 28.072H147.911C146.891 28.072 146.087 27.784 145.499 27.208C144.911 26.62 144.617 25.834 144.617 24.85V8.362L144.815 8.164H159.053C159.137 8.572 159.185 8.962 159.197 9.334C159.209 9.706 159.215 10.06 159.215 10.396C159.215 10.72 159.179 11.086 159.107 11.494C159.047 11.902 158.939 12.316 158.783 12.736H152.483C151.979 12.736 151.217 12.73 150.197 12.718C150.209 13.09 150.215 13.408 150.215 13.672C150.227 13.936 150.233 14.254 150.233 14.626V15.814C151.229 15.802 151.979 15.796 152.483 15.796H157.091C157.211 16.12 157.289 16.492 157.325 16.912C157.373 17.32 157.397 17.668 157.397 17.956C157.397 18.292 157.373 18.67 157.325 19.09C157.289 19.498 157.211 19.87 157.091 20.206H152.483C152.255 20.206 151.937 20.206 151.529 20.206C151.121 20.206 150.689 20.206 150.233 20.206V21.376C150.233 21.82 150.227 22.186 150.215 22.474C150.203 22.762 150.197 23.122 150.197 23.554V23.59C150.617 23.566 151.007 23.542 151.367 23.518C151.727 23.494 152.165 23.482 152.681 23.482H159.719ZM170.621 18.946C170.537 18.754 170.405 18.454 170.225 18.046C170.045 17.626 169.853 17.176 169.649 16.696C169.445 16.216 169.253 15.766 169.073 15.346C168.905 14.926 168.773 14.62 168.677 14.428L168.551 14.482C168.599 15.43 168.647 16.456 168.695 17.56C168.743 18.652 168.779 19.654 168.803 20.566C168.839 21.466 168.857 22.12 168.857 22.528V28C168.389 28.084 167.939 28.138 167.507 28.162C167.075 28.198 166.673 28.216 166.301 28.216C165.965 28.216 165.545 28.198 165.041 28.162C164.549 28.138 164.081 28.084 163.637 28V8.29C164.081 8.182 164.633 8.098 165.293 8.038C165.953 7.978 166.463 7.948 166.823 7.948C167.195 7.948 167.723 7.96 168.407 7.984C169.091 7.996 169.655 8.056 170.099 8.164L174.329 17.182C174.413 17.35 174.551 17.656 174.743 18.1C174.947 18.544 175.163 19.03 175.391 19.558C175.619 20.086 175.829 20.584 176.021 21.052C176.225 21.508 176.375 21.844 176.471 22.06L176.633 22.024C176.585 21.232 176.519 20.308 176.435 19.252C176.363 18.196 176.297 17.176 176.237 16.192C176.177 15.208 176.147 14.422 176.147 13.834V11.026C176.147 9.754 176.423 8.92 176.975 8.524C177.527 8.116 178.349 7.912 179.441 7.912H181.295L181.511 8.164V27.892C181.043 28 180.479 28.078 179.819 28.126C179.159 28.186 178.655 28.216 178.307 28.216C178.067 28.216 177.737 28.21 177.317 28.198C176.897 28.186 176.465 28.168 176.021 28.144C175.589 28.12 175.229 28.072 174.941 28L170.621 18.946ZM171.179 4.762C171.107 4.726 170.969 4.666 170.765 4.582C170.561 4.486 170.351 4.438 170.135 4.438C169.799 4.438 169.523 4.552 169.307 4.78C169.091 5.008 168.947 5.182 168.875 5.302L168.569 5.752C168.065 5.752 167.549 5.596 167.021 5.284C166.493 4.96 166.133 4.552 165.941 4.06L166.247 3.376C166.643 2.44 167.195 1.678 167.903 1.09C168.623 0.501999 169.445 0.207999 170.369 0.207999C170.873 0.207999 171.329 0.286 171.737 0.442C172.145 0.585999 172.469 0.717999 172.709 0.837999L174.131 1.576C174.203 1.624 174.341 1.696 174.545 1.792C174.749 1.876 174.959 1.918 175.175 1.918C175.511 1.918 175.781 1.804 175.985 1.576C176.201 1.336 176.351 1.156 176.435 1.036L176.741 0.603999C177.245 0.603999 177.761 0.759999 178.289 1.072C178.817 1.384 179.171 1.792 179.351 2.296L179.063 2.98C178.667 3.916 178.103 4.678 177.371 5.266C176.651 5.842 175.835 6.13 174.923 6.13C174.467 6.13 174.041 6.064 173.645 5.932C173.249 5.8 172.901 5.656 172.601 5.5L171.179 4.762ZM191.739 24.526C191.547 24.526 191.361 24.526 191.181 24.526C191.001 24.514 190.821 24.502 190.641 24.49L189.525 28C189.177 28.084 188.799 28.144 188.391 28.18C187.983 28.228 187.557 28.252 187.113 28.252C186.633 28.252 186.147 28.216 185.655 28.144C185.175 28.072 184.779 27.97 184.467 27.838L184.269 27.532L191.271 8.164C191.895 8.068 192.495 8.008 193.071 7.984C193.659 7.96 194.193 7.948 194.673 7.948C195.117 7.948 195.597 7.96 196.113 7.984C196.629 8.008 197.211 8.068 197.859 8.164L204.663 27.73C204.243 27.922 203.709 28.066 203.061 28.162C202.413 28.27 201.891 28.324 201.495 28.324C200.835 28.324 200.199 28.198 199.587 27.946C198.975 27.694 198.513 27.028 198.201 25.948L197.751 24.49C197.559 24.502 197.373 24.514 197.193 24.526C197.013 24.526 196.821 24.526 196.617 24.526H191.739ZM192.459 18.838L192.063 20.08C192.243 20.068 192.423 20.062 192.603 20.062C192.783 20.05 192.969 20.044 193.161 20.044H195.411C195.591 20.044 195.753 20.05 195.897 20.062C196.053 20.062 196.209 20.068 196.365 20.08L195.987 18.856C195.711 17.908 195.435 16.852 195.159 15.688C194.883 14.524 194.631 13.468 194.403 12.52H194.187C193.935 13.432 193.653 14.476 193.341 15.652C193.041 16.828 192.747 17.89 192.459 18.838Z" fill="#364760"/>
</svg>
