<svg width="582" height="27" viewBox="0 0 582 27" fill="none" xmlns="http://www.w3.org/2000/svg">
<path d="M15.1778 11.204C15.2018 10.208 15.0998 9.272 14.8718 8.396C14.6558 7.508 14.2538 6.794 13.6658 6.254C13.0898 5.702 12.2738 5.426 11.2178 5.426C9.66984 5.426 8.56584 6.146 7.90584 7.586C7.25784 9.014 6.93384 11.096 6.93384 13.832C6.93384 16.388 7.35984 18.308 8.21184 19.592C9.07584 20.876 10.2938 21.518 11.8658 21.518C13.1138 21.518 14.2358 21.254 15.2318 20.726C16.2398 20.198 17.1578 19.622 17.9858 18.998C18.5498 19.382 19.0958 19.928 19.6238 20.636C20.1638 21.344 20.4998 22.034 20.6318 22.706C19.9358 23.39 19.0718 24.026 18.0398 24.614C17.0198 25.19 15.8918 25.652 14.6558 26C13.4198 26.36 12.1358 26.54 10.8038 26.54C8.91984 26.54 7.33584 26.174 6.05184 25.442C4.77984 24.698 3.76584 23.714 3.00984 22.49C2.25384 21.254 1.70784 19.886 1.37184 18.386C1.04784 16.874 0.885844 15.344 0.885844 13.796C0.885844 10.784 1.35984 8.324 2.30784 6.416C3.26784 4.508 4.54584 3.104 6.14184 2.204C7.73784 1.304 9.49584 0.853999 11.4158 0.853999C13.2758 0.853999 14.8958 1.184 16.2758 1.844C17.6678 2.504 18.7418 3.398 19.4978 4.526C20.2658 5.654 20.6498 6.926 20.6498 8.342C20.6498 9.458 20.3558 10.268 19.7678 10.772C19.1918 11.264 18.3878 11.51 17.3558 11.51C16.9358 11.51 16.5518 11.48 16.2038 11.42C15.8678 11.36 15.5258 11.288 15.1778 11.204ZM40.2833 12.194C40.2833 13.118 40.0733 13.94 39.6533 14.66C39.2333 15.38 38.7053 15.974 38.0693 16.442C37.4453 16.91 36.8213 17.21 36.1973 17.342C36.8453 17.558 37.3793 17.888 37.7993 18.332C38.2313 18.776 38.6033 19.346 38.9153 20.042L39.8513 22.184C40.0673 22.676 40.3133 23.132 40.5893 23.552C40.8653 23.96 41.1713 24.308 41.5073 24.596C41.1593 25.028 40.6373 25.43 39.9413 25.802C39.2453 26.162 38.4893 26.342 37.6733 26.342C36.8693 26.342 36.2153 26.15 35.7113 25.766C35.2193 25.37 34.7873 24.74 34.4153 23.876L32.8313 20.24C32.5793 19.652 32.2673 19.298 31.8953 19.178C31.5233 19.058 31.0433 18.998 30.4553 18.998H29.7533V26C29.2733 26.084 28.7753 26.138 28.2593 26.162C27.7553 26.198 27.3233 26.216 26.9633 26.216C26.6273 26.216 26.1833 26.198 25.6313 26.162C25.0793 26.138 24.5753 26.084 24.1193 26V6.344L24.3173 6.128C25.7693 6.092 27.1313 6.062 28.4033 6.038C29.6873 6.002 30.9653 5.984 32.2373 5.984C33.6773 5.984 35.0093 6.176 36.2333 6.56C37.4573 6.932 38.4353 7.574 39.1673 8.486C39.9113 9.386 40.2833 10.622 40.2833 12.194ZM29.7533 10.052V14.714C30.1733 14.702 30.5573 14.696 30.9053 14.696C31.2653 14.684 31.5293 14.678 31.6973 14.678C32.7773 14.678 33.5093 14.444 33.8933 13.976C34.2773 13.508 34.4693 12.962 34.4693 12.338C34.4693 11.726 34.2773 11.198 33.8933 10.754C33.5093 10.31 32.8673 10.088 31.9673 10.088C31.5353 10.088 31.1633 10.082 30.8513 10.07C30.5393 10.058 30.1733 10.052 29.7533 10.052ZM59.7174 21.482C59.7174 23.198 59.4474 24.392 58.9074 25.064C58.3794 25.736 57.4794 26.072 56.2074 26.072H47.9094C46.8894 26.072 46.0854 25.784 45.4974 25.208C44.9094 24.62 44.6154 23.834 44.6154 22.85V6.362L44.8134 6.164H59.0514C59.1354 6.572 59.1834 6.962 59.1954 7.334C59.2074 7.706 59.2134 8.06 59.2134 8.396C59.2134 8.72 59.1774 9.086 59.1054 9.494C59.0454 9.902 58.9374 10.316 58.7814 10.736H52.4814C51.9774 10.736 51.2154 10.73 50.1954 10.718C50.2074 11.09 50.2134 11.408 50.2134 11.672C50.2254 11.936 50.2314 12.254 50.2314 12.626V13.814C51.2274 13.802 51.9774 13.796 52.4814 13.796H57.0894C57.2094 14.12 57.2874 14.492 57.3234 14.912C57.3714 15.32 57.3954 15.668 57.3954 15.956C57.3954 16.292 57.3714 16.67 57.3234 17.09C57.2874 17.498 57.2094 17.87 57.0894 18.206H52.4814C52.2534 18.206 51.9354 18.206 51.5274 18.206C51.1194 18.206 50.6874 18.206 50.2314 18.206V19.376C50.2314 19.82 50.2254 20.186 50.2134 20.474C50.2014 20.762 50.1954 21.122 50.1954 21.554V21.59C50.6154 21.566 51.0054 21.542 51.3654 21.518C51.7254 21.494 52.1634 21.482 52.6794 21.482H59.7174ZM68.675 22.526C68.483 22.526 68.297 22.526 68.117 22.526C67.937 22.514 67.757 22.502 67.577 22.49L66.461 26C66.113 26.084 65.735 26.144 65.327 26.18C64.919 26.228 64.493 26.252 64.049 26.252C63.569 26.252 63.083 26.216 62.591 26.144C62.111 26.072 61.715 25.97 61.403 25.838L61.205 25.532L68.207 6.164C68.831 6.068 69.431 6.008 70.007 5.984C70.595 5.96 71.129 5.948 71.609 5.948C72.053 5.948 72.533 5.96 73.049 5.984C73.565 6.008 74.147 6.068 74.795 6.164L81.599 25.73C81.179 25.922 80.645 26.066 79.997 26.162C79.349 26.27 78.827 26.324 78.431 26.324C77.771 26.324 77.135 26.198 76.523 25.946C75.911 25.694 75.449 25.028 75.137 23.948L74.687 22.49C74.495 22.502 74.309 22.514 74.129 22.526C73.949 22.526 73.757 22.526 73.553 22.526H68.675ZM69.395 16.838L68.999 18.08C69.179 18.068 69.359 18.062 69.539 18.062C69.719 18.05 69.905 18.044 70.097 18.044H72.347C72.527 18.044 72.689 18.05 72.833 18.062C72.989 18.062 73.145 18.068 73.301 18.08L72.923 16.856C72.647 15.908 72.371 14.852 72.095 13.688C71.819 12.524 71.567 11.468 71.339 10.52H71.123C70.871 11.432 70.589 12.476 70.277 13.652C69.977 14.828 69.683 15.89 69.395 16.838ZM100.506 12.194C100.506 13.118 100.296 13.94 99.876 14.66C99.456 15.38 98.928 15.974 98.292 16.442C97.668 16.91 97.044 17.21 96.42 17.342C97.068 17.558 97.602 17.888 98.022 18.332C98.454 18.776 98.826 19.346 99.138 20.042L100.074 22.184C100.29 22.676 100.536 23.132 100.812 23.552C101.088 23.96 101.394 24.308 101.73 24.596C101.382 25.028 100.86 25.43 100.164 25.802C99.468 26.162 98.712 26.342 97.896 26.342C97.092 26.342 96.438 26.15 95.934 25.766C95.442 25.37 95.01 24.74 94.638 23.876L93.054 20.24C92.802 19.652 92.49 19.298 92.118 19.178C91.746 19.058 91.266 18.998 90.678 18.998H89.976V26C89.496 26.084 88.998 26.138 88.482 26.162C87.978 26.198 87.546 26.216 87.186 26.216C86.85 26.216 86.406 26.198 85.854 26.162C85.302 26.138 84.798 26.084 84.342 26V6.344L84.54 6.128C85.992 6.092 87.354 6.062 88.626 6.038C89.91 6.002 91.188 5.984 92.46 5.984C93.9 5.984 95.232 6.176 96.456 6.56C97.68 6.932 98.658 7.574 99.39 8.486C100.134 9.386 100.506 10.622 100.506 12.194ZM89.976 10.052V14.714C90.396 14.702 90.78 14.696 91.128 14.696C91.488 14.684 91.752 14.678 91.92 14.678C93 14.678 93.732 14.444 94.116 13.976C94.5 13.508 94.692 12.962 94.692 12.338C94.692 11.726 94.5 11.198 94.116 10.754C93.732 10.31 93.09 10.088 92.19 10.088C91.758 10.088 91.386 10.082 91.074 10.07C90.762 10.058 90.396 10.052 89.976 10.052ZM129.524 21.284C129.524 22.868 129.272 24.068 128.768 24.884C128.276 25.7 127.268 26.108 125.744 26.108H116.168C115.136 26.108 114.326 25.808 113.738 25.208C113.15 24.608 112.856 23.786 112.856 22.742V1.664L113.108 1.412H128.624C128.708 1.844 128.762 2.252 128.786 2.636C128.81 3.008 128.822 3.356 128.822 3.68C128.822 4.004 128.78 4.406 128.696 4.886C128.624 5.354 128.51 5.804 128.354 6.236H120.992C120.728 6.236 120.368 6.236 119.912 6.236C119.468 6.224 119.006 6.212 118.526 6.2C118.526 6.692 118.532 7.136 118.544 7.532C118.556 7.916 118.562 8.348 118.562 8.828V11.33C119.042 11.318 119.504 11.312 119.948 11.312C120.392 11.3 120.74 11.294 120.992 11.294H126.482C126.602 11.642 126.686 12.044 126.734 12.5C126.794 12.956 126.824 13.34 126.824 13.652C126.824 13.976 126.794 14.354 126.734 14.786C126.686 15.218 126.602 15.62 126.482 15.992H120.992C120.74 15.992 120.392 15.992 119.948 15.992C119.504 15.98 119.042 15.968 118.562 15.956V18.728C118.562 19.196 118.556 19.628 118.544 20.024C118.532 20.408 118.526 20.84 118.526 21.32V21.356C118.934 21.332 119.354 21.314 119.786 21.302C120.218 21.29 120.686 21.284 121.19 21.284H129.524ZM131.459 24.506C131.459 24.05 131.549 23.546 131.729 22.994C131.909 22.43 132.155 21.908 132.467 21.428C132.779 20.948 133.121 20.588 133.493 20.348C134.381 20.828 135.371 21.242 136.463 21.59C137.555 21.926 138.623 22.094 139.667 22.094C140.339 22.094 140.891 21.956 141.323 21.68C141.767 21.404 141.989 21.014 141.989 20.51C141.989 20.186 141.863 19.892 141.611 19.628C141.359 19.352 140.921 19.1 140.297 18.872L137.309 17.702C136.385 17.366 135.521 16.946 134.717 16.442C133.913 15.938 133.265 15.32 132.773 14.588C132.281 13.856 132.035 12.98 132.035 11.96C132.035 10.088 132.755 8.564 134.195 7.388C135.635 6.212 137.573 5.624 140.009 5.624C141.389 5.624 142.757 5.786 144.113 6.11C145.481 6.422 146.627 6.782 147.551 7.19C147.551 8.006 147.383 8.81 147.047 9.602C146.711 10.394 146.249 11.018 145.661 11.474C144.773 11.078 143.807 10.748 142.763 10.484C141.719 10.208 140.777 10.07 139.937 10.07C139.313 10.07 138.833 10.202 138.497 10.466C138.173 10.73 138.011 11.048 138.011 11.42C138.011 11.768 138.173 12.032 138.497 12.212C138.821 12.392 139.223 12.572 139.703 12.752L142.673 13.886C144.329 14.486 145.643 15.314 146.615 16.37C147.599 17.414 148.091 18.704 148.091 20.24C148.091 21.596 147.725 22.742 146.993 23.678C146.273 24.614 145.283 25.322 144.023 25.802C142.775 26.282 141.365 26.528 139.793 26.54C137.921 26.54 136.253 26.324 134.789 25.892C133.337 25.46 132.227 24.998 131.459 24.506ZM154.093 12.914C154.093 12.53 154.099 12.176 154.111 11.852C154.123 11.516 154.129 11.144 154.129 10.736C153.877 10.736 153.529 10.742 153.085 10.754C152.653 10.766 152.311 10.772 152.059 10.772H148.729C148.633 10.34 148.573 9.938 148.549 9.566C148.525 9.182 148.513 8.834 148.513 8.522C148.513 8.21 148.525 7.844 148.549 7.424C148.573 6.992 148.633 6.572 148.729 6.164H165.019C165.103 6.488 165.163 6.854 165.199 7.262C165.247 7.67 165.271 8 165.271 8.252C165.271 9.068 165.055 9.692 164.623 10.124C164.191 10.556 163.471 10.772 162.463 10.772H161.725C161.473 10.772 161.137 10.766 160.717 10.754C160.309 10.742 159.991 10.736 159.763 10.736C159.763 11.144 159.769 11.516 159.781 11.852C159.793 12.176 159.799 12.53 159.799 12.914V26C159.463 26.072 159.001 26.126 158.413 26.162C157.825 26.198 157.333 26.216 156.937 26.216C156.565 26.216 156.097 26.198 155.533 26.162C154.969 26.126 154.489 26.072 154.093 26V12.914ZM183.861 12.194C183.861 13.118 183.651 13.94 183.231 14.66C182.811 15.38 182.283 15.974 181.647 16.442C181.023 16.91 180.399 17.21 179.775 17.342C180.423 17.558 180.957 17.888 181.377 18.332C181.809 18.776 182.181 19.346 182.493 20.042L183.429 22.184C183.645 22.676 183.891 23.132 184.167 23.552C184.443 23.96 184.749 24.308 185.085 24.596C184.737 25.028 184.215 25.43 183.519 25.802C182.823 26.162 182.067 26.342 181.251 26.342C180.447 26.342 179.793 26.15 179.289 25.766C178.797 25.37 178.365 24.74 177.993 23.876L176.409 20.24C176.157 19.652 175.845 19.298 175.473 19.178C175.101 19.058 174.621 18.998 174.033 18.998H173.331V26C172.851 26.084 172.353 26.138 171.837 26.162C171.333 26.198 170.901 26.216 170.541 26.216C170.205 26.216 169.761 26.198 169.209 26.162C168.657 26.138 168.153 26.084 167.697 26V6.344L167.895 6.128C169.347 6.092 170.709 6.062 171.981 6.038C173.265 6.002 174.543 5.984 175.815 5.984C177.255 5.984 178.587 6.176 179.811 6.56C181.035 6.932 182.013 7.574 182.745 8.486C183.489 9.386 183.861 10.622 183.861 12.194ZM173.331 10.052V14.714C173.751 14.702 174.135 14.696 174.483 14.696C174.843 14.684 175.107 14.678 175.275 14.678C176.355 14.678 177.087 14.444 177.471 13.976C177.855 13.508 178.047 12.962 178.047 12.338C178.047 11.726 177.855 11.198 177.471 10.754C177.087 10.31 176.445 10.088 175.545 10.088C175.113 10.088 174.741 10.082 174.429 10.07C174.117 10.058 173.751 10.052 173.331 10.052ZM205.438 18.566C205.438 21.05 204.694 23 203.206 24.416C201.73 25.832 199.54 26.54 196.636 26.54C193.732 26.54 191.536 25.832 190.048 24.416C188.572 23 187.834 21.05 187.834 18.566V6.164L188.05 5.948H190.102C191.194 5.948 192.034 6.224 192.622 6.776C193.222 7.328 193.522 8.258 193.522 9.566V18.548C193.522 19.64 193.75 20.498 194.206 21.122C194.662 21.746 195.472 22.058 196.636 22.058C197.812 22.058 198.622 21.746 199.066 21.122C199.51 20.498 199.732 19.64 199.732 18.548V6.164C200.212 6.068 200.704 6.008 201.208 5.984C201.712 5.96 202.15 5.948 202.522 5.948C202.858 5.948 203.314 5.966 203.89 6.002C204.466 6.026 204.982 6.086 205.438 6.182V18.566ZM221.217 15.146C221.217 13.622 221.013 12.398 220.605 11.474C220.197 10.538 219.375 10.07 218.139 10.07C216.855 10.07 215.943 10.598 215.403 11.654C214.863 12.71 214.593 14.228 214.593 16.208C214.593 17.72 214.785 18.884 215.169 19.7C215.565 20.504 216.069 21.062 216.681 21.374C217.293 21.686 217.941 21.842 218.625 21.842C219.513 21.842 220.401 21.65 221.289 21.266C222.189 20.87 222.993 20.408 223.701 19.88C224.085 20.072 224.457 20.378 224.817 20.798C225.177 21.218 225.489 21.668 225.753 22.148C226.017 22.628 226.185 23.066 226.257 23.462C225.261 24.314 224.049 25.04 222.621 25.64C221.205 26.24 219.591 26.54 217.779 26.54C216.039 26.54 214.587 26.234 213.423 25.622C212.271 25.01 211.353 24.206 210.669 23.21C209.985 22.202 209.499 21.086 209.211 19.862C208.923 18.638 208.779 17.408 208.779 16.172C208.779 13.712 209.223 11.708 210.111 10.16C211.011 8.6 212.187 7.454 213.639 6.722C215.103 5.99 216.669 5.624 218.337 5.624C220.209 5.624 221.751 5.954 222.963 6.614C224.175 7.274 225.075 8.108 225.663 9.116C226.251 10.124 226.545 11.162 226.545 12.23C226.545 14.282 225.393 15.308 223.089 15.308C222.813 15.308 222.513 15.29 222.189 15.254C221.865 15.218 221.541 15.182 221.217 15.146ZM233.511 12.914C233.511 12.53 233.517 12.176 233.529 11.852C233.541 11.516 233.547 11.144 233.547 10.736C233.295 10.736 232.947 10.742 232.503 10.754C232.071 10.766 231.729 10.772 231.477 10.772H228.147C228.051 10.34 227.991 9.938 227.967 9.566C227.943 9.182 227.931 8.834 227.931 8.522C227.931 8.21 227.943 7.844 227.967 7.424C227.991 6.992 228.051 6.572 228.147 6.164H244.437C244.521 6.488 244.581 6.854 244.617 7.262C244.665 7.67 244.689 8 244.689 8.252C244.689 9.068 244.473 9.692 244.041 10.124C243.609 10.556 242.889 10.772 241.881 10.772H241.143C240.891 10.772 240.555 10.766 240.135 10.754C239.727 10.742 239.409 10.736 239.181 10.736C239.181 11.144 239.187 11.516 239.199 11.852C239.211 12.176 239.217 12.53 239.217 12.914V26C238.881 26.072 238.419 26.126 237.831 26.162C237.243 26.198 236.751 26.216 236.355 26.216C235.983 26.216 235.515 26.198 234.951 26.162C234.387 26.126 233.907 26.072 233.511 26V12.914ZM264.359 18.566C264.359 21.05 263.615 23 262.127 24.416C260.651 25.832 258.461 26.54 255.557 26.54C252.653 26.54 250.457 25.832 248.969 24.416C247.493 23 246.755 21.05 246.755 18.566V6.164L246.971 5.948H249.023C250.115 5.948 250.955 6.224 251.543 6.776C252.143 7.328 252.443 8.258 252.443 9.566V18.548C252.443 19.64 252.671 20.498 253.127 21.122C253.583 21.746 254.393 22.058 255.557 22.058C256.733 22.058 257.543 21.746 257.987 21.122C258.431 20.498 258.653 19.64 258.653 18.548V6.164C259.133 6.068 259.625 6.008 260.129 5.984C260.633 5.96 261.071 5.948 261.443 5.948C261.779 5.948 262.235 5.966 262.811 6.002C263.387 6.026 263.903 6.086 264.359 6.182V18.566ZM285.358 12.194C285.358 13.118 285.148 13.94 284.728 14.66C284.308 15.38 283.78 15.974 283.144 16.442C282.52 16.91 281.896 17.21 281.272 17.342C281.92 17.558 282.454 17.888 282.874 18.332C283.306 18.776 283.678 19.346 283.99 20.042L284.926 22.184C285.142 22.676 285.388 23.132 285.664 23.552C285.94 23.96 286.246 24.308 286.582 24.596C286.234 25.028 285.712 25.43 285.016 25.802C284.32 26.162 283.564 26.342 282.748 26.342C281.944 26.342 281.29 26.15 280.786 25.766C280.294 25.37 279.862 24.74 279.49 23.876L277.906 20.24C277.654 19.652 277.342 19.298 276.97 19.178C276.598 19.058 276.118 18.998 275.53 18.998H274.828V26C274.348 26.084 273.85 26.138 273.334 26.162C272.83 26.198 272.398 26.216 272.038 26.216C271.702 26.216 271.258 26.198 270.706 26.162C270.154 26.138 269.65 26.084 269.194 26V6.344L269.392 6.128C270.844 6.092 272.206 6.062 273.478 6.038C274.762 6.002 276.04 5.984 277.312 5.984C278.752 5.984 280.084 6.176 281.308 6.56C282.532 6.932 283.51 7.574 284.242 8.486C284.986 9.386 285.358 10.622 285.358 12.194ZM274.828 10.052V14.714C275.248 14.702 275.632 14.696 275.98 14.696C276.34 14.684 276.604 14.678 276.772 14.678C277.852 14.678 278.584 14.444 278.968 13.976C279.352 13.508 279.544 12.962 279.544 12.338C279.544 11.726 279.352 11.198 278.968 10.754C278.584 10.31 277.942 10.088 277.042 10.088C276.61 10.088 276.238 10.082 275.926 10.07C275.614 10.058 275.248 10.052 274.828 10.052ZM294.73 22.526C294.538 22.526 294.352 22.526 294.172 22.526C293.992 22.514 293.812 22.502 293.632 22.49L292.516 26C292.168 26.084 291.79 26.144 291.382 26.18C290.974 26.228 290.548 26.252 290.104 26.252C289.624 26.252 289.138 26.216 288.646 26.144C288.166 26.072 287.77 25.97 287.458 25.838L287.26 25.532L294.262 6.164C294.886 6.068 295.486 6.008 296.062 5.984C296.65 5.96 297.184 5.948 297.664 5.948C298.108 5.948 298.588 5.96 299.104 5.984C299.62 6.008 300.202 6.068 300.85 6.164L307.654 25.73C307.234 25.922 306.7 26.066 306.052 26.162C305.404 26.27 304.882 26.324 304.486 26.324C303.826 26.324 303.19 26.198 302.578 25.946C301.966 25.694 301.504 25.028 301.192 23.948L300.742 22.49C300.55 22.502 300.364 22.514 300.184 22.526C300.004 22.526 299.812 22.526 299.608 22.526H294.73ZM295.45 16.838L295.054 18.08C295.234 18.068 295.414 18.062 295.594 18.062C295.774 18.05 295.96 18.044 296.152 18.044H298.402C298.582 18.044 298.744 18.05 298.888 18.062C299.044 18.062 299.2 18.068 299.356 18.08L298.978 16.856C298.702 15.908 298.426 14.852 298.15 13.688C297.874 12.524 297.622 11.468 297.394 10.52H297.178C296.926 11.432 296.644 12.476 296.332 13.652C296.032 14.828 295.738 15.89 295.45 16.838ZM336.397 16.118C336.397 19.478 335.611 21.992 334.039 23.66C332.467 25.316 329.989 26.144 326.605 26.144C325.177 26.144 323.821 26.132 322.537 26.108C321.265 26.096 319.921 26.072 318.505 26.036L318.307 25.82V6.344L318.505 6.128C319.933 6.092 321.283 6.062 322.555 6.038C323.827 6.002 325.177 5.984 326.605 5.984C329.953 5.984 332.419 6.854 334.003 8.594C335.599 10.322 336.397 12.83 336.397 16.118ZM330.601 16.118C330.601 15.242 330.511 14.366 330.331 13.49C330.151 12.602 329.773 11.858 329.197 11.258C328.621 10.658 327.757 10.358 326.605 10.358C326.077 10.358 325.621 10.358 325.237 10.358C324.865 10.346 324.433 10.334 323.941 10.322V21.842C324.457 21.842 324.895 21.836 325.255 21.824C325.627 21.812 326.077 21.806 326.605 21.806C327.757 21.806 328.621 21.512 329.197 20.924C329.773 20.324 330.151 19.586 330.331 18.71C330.511 17.834 330.601 16.97 330.601 16.118ZM355.241 21.482C355.241 23.198 354.971 24.392 354.431 25.064C353.903 25.736 353.003 26.072 351.731 26.072H343.433C342.413 26.072 341.609 25.784 341.021 25.208C340.433 24.62 340.139 23.834 340.139 22.85V6.362L340.337 6.164H354.575C354.659 6.572 354.707 6.962 354.719 7.334C354.731 7.706 354.737 8.06 354.737 8.396C354.737 8.72 354.701 9.086 354.629 9.494C354.569 9.902 354.461 10.316 354.305 10.736H348.005C347.501 10.736 346.739 10.73 345.719 10.718C345.731 11.09 345.737 11.408 345.737 11.672C345.749 11.936 345.755 12.254 345.755 12.626V13.814C346.751 13.802 347.501 13.796 348.005 13.796H352.613C352.733 14.12 352.811 14.492 352.847 14.912C352.895 15.32 352.919 15.668 352.919 15.956C352.919 16.292 352.895 16.67 352.847 17.09C352.811 17.498 352.733 17.87 352.613 18.206H348.005C347.777 18.206 347.459 18.206 347.051 18.206C346.643 18.206 346.211 18.206 345.755 18.206V19.376C345.755 19.82 345.749 20.186 345.737 20.474C345.725 20.762 345.719 21.122 345.719 21.554V21.59C346.139 21.566 346.529 21.542 346.889 21.518C347.249 21.494 347.687 21.482 348.203 21.482H355.241ZM373.162 21.392C373.09 23.144 372.784 24.368 372.244 25.064C371.704 25.76 370.744 26.108 369.364 26.108H362.38C361.348 26.108 360.538 25.82 359.95 25.244C359.374 24.656 359.086 23.87 359.086 22.886V6.2L359.302 5.984H361.462C362.554 5.984 363.382 6.26 363.946 6.812C364.51 7.352 364.792 8.258 364.792 9.53V21.572C366.028 21.452 367.138 21.392 368.122 21.392H373.162ZM385.714 1.448C386.326 1.34 386.992 1.268 387.712 1.232C388.444 1.196 389.074 1.178 389.602 1.178C390.13 1.178 390.718 1.196 391.366 1.232C392.014 1.268 392.644 1.34 393.256 1.448L395.38 10.25C395.428 10.466 395.506 10.838 395.614 11.366C395.734 11.894 395.866 12.494 396.01 13.166C396.154 13.838 396.286 14.498 396.406 15.146C396.538 15.794 396.64 16.346 396.712 16.802H396.964C397.036 16.346 397.138 15.794 397.27 15.146C397.402 14.498 397.534 13.838 397.666 13.166C397.81 12.494 397.942 11.894 398.062 11.366C398.182 10.838 398.266 10.466 398.314 10.25L400.438 1.448C401.05 1.34 401.674 1.268 402.31 1.232C402.958 1.196 403.546 1.178 404.074 1.178C404.602 1.178 405.232 1.196 405.964 1.232C406.696 1.268 407.362 1.34 407.962 1.448L409.87 25.928C409.462 26.036 408.988 26.108 408.448 26.144C407.92 26.192 407.422 26.216 406.954 26.216C406.522 26.216 406.096 26.204 405.676 26.18C405.268 26.156 404.854 26.108 404.434 26.036L403.894 16.01C403.822 14.738 403.756 13.334 403.696 11.798C403.636 10.262 403.606 8.906 403.606 7.73H403.354L399.808 22.382C399.376 22.454 398.872 22.508 398.296 22.544C397.72 22.568 397.228 22.58 396.82 22.58C396.46 22.58 395.986 22.568 395.398 22.544C394.81 22.508 394.3 22.454 393.868 22.382L390.322 7.73H390.088C390.076 8.906 390.04 10.262 389.98 11.798C389.932 13.334 389.872 14.738 389.8 16.01L389.242 26.036C388.834 26.108 388.42 26.156 388 26.18C387.58 26.204 387.154 26.216 386.722 26.216C386.266 26.216 385.768 26.192 385.228 26.144C384.7 26.108 384.226 26.036 383.806 25.928L385.714 1.448ZM412.966 16.118C412.966 12.902 413.794 10.352 415.45 8.468C417.118 6.572 419.548 5.624 422.74 5.624C425.98 5.624 428.422 6.566 430.066 8.45C431.722 10.322 432.55 12.878 432.55 16.118C432.55 19.358 431.722 21.908 430.066 23.768C428.41 25.616 425.968 26.54 422.74 26.54C419.5 26.54 417.058 25.604 415.414 23.732C413.782 21.86 412.966 19.322 412.966 16.118ZM418.78 16.118C418.78 16.802 418.822 17.51 418.906 18.242C419.002 18.962 419.182 19.634 419.446 20.258C419.722 20.882 420.124 21.392 420.652 21.788C421.18 22.172 421.882 22.364 422.758 22.364C423.634 22.364 424.336 22.172 424.864 21.788C425.392 21.392 425.788 20.882 426.052 20.258C426.328 19.634 426.508 18.962 426.592 18.242C426.688 17.51 426.736 16.802 426.736 16.118C426.736 15.422 426.688 14.708 426.592 13.976C426.508 13.232 426.328 12.548 426.052 11.924C425.788 11.288 425.392 10.778 424.864 10.394C424.336 9.998 423.634 9.8 422.758 9.8C421.882 9.8 421.18 9.998 420.652 10.394C420.124 10.778 419.722 11.288 419.446 11.924C419.182 12.548 419.002 13.232 418.906 13.976C418.822 14.708 418.78 15.422 418.78 16.118ZM447.48 6.164C447.912 6.068 448.29 6.008 448.614 5.984C448.95 5.96 449.292 5.948 449.64 5.948C450.072 5.948 450.522 5.972 450.99 6.02C451.47 6.068 451.98 6.17 452.52 6.326L452.772 6.596L446.868 26C446.328 26.084 445.62 26.138 444.744 26.162C443.868 26.198 443.07 26.216 442.35 26.216C441.402 26.216 440.598 26.066 439.938 25.766C439.29 25.454 438.822 24.782 438.534 23.75L433.404 6.56C433.896 6.356 434.412 6.2 434.952 6.092C435.504 5.972 436.068 5.912 436.644 5.912C437.508 5.912 438.18 6.116 438.66 6.524C439.152 6.92 439.542 7.61 439.83 8.594L441.756 15.038C442.032 16.01 442.278 17 442.494 18.008C442.722 19.016 442.944 20.156 443.16 21.428C443.208 21.632 443.328 21.734 443.52 21.734L447.48 6.164ZM455.559 6.164C456.015 6.068 456.531 6.008 457.107 5.984C457.683 5.96 458.139 5.948 458.475 5.948C458.835 5.948 459.267 5.96 459.771 5.984C460.287 6.008 460.785 6.068 461.265 6.164V26C460.785 26.084 460.287 26.138 459.771 26.162C459.267 26.198 458.835 26.216 458.475 26.216C458.139 26.216 457.683 26.198 457.107 26.162C456.531 26.138 456.015 26.084 455.559 26V6.164ZM467.75 6.164C468.326 6.056 468.956 5.984 469.64 5.948C470.324 5.9 470.9 5.876 471.368 5.876C471.812 5.876 472.388 5.9 473.096 5.948C473.804 5.984 474.398 6.056 474.878 6.164L476.642 13.976C476.75 14.444 476.876 15.08 477.02 15.884C477.164 16.676 477.308 17.528 477.452 18.44H477.686C477.974 16.52 478.244 15.032 478.496 13.976L480.242 6.164C480.806 6.056 481.424 5.984 482.096 5.948C482.768 5.9 483.326 5.876 483.77 5.876C484.238 5.876 484.82 5.9 485.516 5.948C486.212 5.984 486.836 6.056 487.388 6.164L489.422 25.928C488.642 26.12 487.7 26.216 486.596 26.216C486.176 26.216 485.726 26.198 485.246 26.162C484.778 26.126 484.358 26.072 483.986 26L483.464 19.628C483.404 18.812 483.368 17.918 483.356 16.946C483.344 15.974 483.344 15.026 483.356 14.102C483.368 13.166 483.368 12.356 483.356 11.672H483.14L480.494 22.958C480.086 23.03 479.588 23.084 479 23.12C478.412 23.144 477.926 23.156 477.542 23.156C477.146 23.156 476.654 23.144 476.066 23.12C475.49 23.084 475.01 23.03 474.626 22.958L471.998 11.672H471.746C471.746 12.368 471.746 13.178 471.746 14.102C471.758 15.026 471.758 15.974 471.746 16.946C471.734 17.918 471.692 18.824 471.62 19.664L471.152 26C470.768 26.072 470.348 26.126 469.892 26.162C469.448 26.198 469.016 26.216 468.596 26.216C467.48 26.216 466.52 26.12 465.716 25.928L467.75 6.164ZM493.914 6.164C494.37 6.068 494.886 6.008 495.462 5.984C496.038 5.96 496.494 5.948 496.83 5.948C497.19 5.948 497.622 5.96 498.126 5.984C498.642 6.008 499.14 6.068 499.62 6.164V26C499.14 26.084 498.642 26.138 498.126 26.162C497.622 26.198 497.19 26.216 496.83 26.216C496.494 26.216 496.038 26.198 495.462 26.162C494.886 26.138 494.37 26.084 493.914 26V6.164ZM519.948 21.482C519.948 23.198 519.678 24.392 519.138 25.064C518.61 25.736 517.71 26.072 516.438 26.072H508.14C507.12 26.072 506.316 25.784 505.728 25.208C505.14 24.62 504.846 23.834 504.846 22.85V6.362L505.044 6.164H519.282C519.366 6.572 519.414 6.962 519.426 7.334C519.438 7.706 519.444 8.06 519.444 8.396C519.444 8.72 519.408 9.086 519.336 9.494C519.276 9.902 519.168 10.316 519.012 10.736H512.712C512.208 10.736 511.446 10.73 510.426 10.718C510.438 11.09 510.444 11.408 510.444 11.672C510.456 11.936 510.462 12.254 510.462 12.626V13.814C511.458 13.802 512.208 13.796 512.712 13.796H517.32C517.44 14.12 517.518 14.492 517.554 14.912C517.602 15.32 517.626 15.668 517.626 15.956C517.626 16.292 517.602 16.67 517.554 17.09C517.518 17.498 517.44 17.87 517.32 18.206H512.712C512.484 18.206 512.166 18.206 511.758 18.206C511.35 18.206 510.918 18.206 510.462 18.206V19.376C510.462 19.82 510.456 20.186 510.444 20.474C510.432 20.762 510.426 21.122 510.426 21.554V21.59C510.846 21.566 511.236 21.542 511.596 21.518C511.956 21.494 512.394 21.482 512.91 21.482H519.948ZM530.849 16.946C530.765 16.754 530.633 16.454 530.453 16.046C530.273 15.626 530.081 15.176 529.877 14.696C529.673 14.216 529.481 13.766 529.301 13.346C529.133 12.926 529.001 12.62 528.905 12.428L528.779 12.482C528.827 13.43 528.875 14.456 528.923 15.56C528.971 16.652 529.007 17.654 529.031 18.566C529.067 19.466 529.085 20.12 529.085 20.528V26C528.617 26.084 528.167 26.138 527.735 26.162C527.303 26.198 526.901 26.216 526.529 26.216C526.193 26.216 525.773 26.198 525.269 26.162C524.777 26.138 524.309 26.084 523.865 26V6.29C524.309 6.182 524.861 6.098 525.521 6.038C526.181 5.978 526.691 5.948 527.051 5.948C527.423 5.948 527.951 5.96 528.635 5.984C529.319 5.996 529.883 6.056 530.327 6.164L534.557 15.182C534.641 15.35 534.779 15.656 534.971 16.1C535.175 16.544 535.391 17.03 535.619 17.558C535.847 18.086 536.057 18.584 536.249 19.052C536.453 19.508 536.603 19.844 536.699 20.06L536.861 20.024C536.813 19.232 536.747 18.308 536.663 17.252C536.591 16.196 536.525 15.176 536.465 14.192C536.405 13.208 536.375 12.422 536.375 11.834V9.026C536.375 7.754 536.651 6.92 537.203 6.524C537.755 6.116 538.577 5.912 539.669 5.912H541.523L541.739 6.164V25.892C541.271 26 540.707 26.078 540.047 26.126C539.387 26.186 538.883 26.216 538.535 26.216C538.295 26.216 537.965 26.21 537.545 26.198C537.125 26.186 536.693 26.168 536.249 26.144C535.817 26.12 535.457 26.072 535.169 26L530.849 16.946ZM549.952 12.914C549.952 12.53 549.958 12.176 549.97 11.852C549.982 11.516 549.988 11.144 549.988 10.736C549.736 10.736 549.388 10.742 548.944 10.754C548.512 10.766 548.17 10.772 547.918 10.772H544.588C544.492 10.34 544.432 9.938 544.408 9.566C544.384 9.182 544.372 8.834 544.372 8.522C544.372 8.21 544.384 7.844 544.408 7.424C544.432 6.992 544.492 6.572 544.588 6.164H560.878C560.962 6.488 561.022 6.854 561.058 7.262C561.106 7.67 561.13 8 561.13 8.252C561.13 9.068 560.914 9.692 560.482 10.124C560.05 10.556 559.33 10.772 558.322 10.772H557.584C557.332 10.772 556.996 10.766 556.576 10.754C556.168 10.742 555.85 10.736 555.622 10.736C555.622 11.144 555.628 11.516 555.64 11.852C555.652 12.176 555.658 12.53 555.658 12.914V26C555.322 26.072 554.86 26.126 554.272 26.162C553.684 26.198 553.192 26.216 552.796 26.216C552.424 26.216 551.956 26.198 551.392 26.162C550.828 26.126 550.348 26.072 549.952 26V12.914ZM561.712 16.118C561.712 12.902 562.54 10.352 564.196 8.468C565.864 6.572 568.294 5.624 571.486 5.624C574.726 5.624 577.168 6.566 578.812 8.45C580.468 10.322 581.296 12.878 581.296 16.118C581.296 19.358 580.468 21.908 578.812 23.768C577.156 25.616 574.714 26.54 571.486 26.54C568.246 26.54 565.804 25.604 564.16 23.732C562.528 21.86 561.712 19.322 561.712 16.118ZM567.526 16.118C567.526 16.802 567.568 17.51 567.652 18.242C567.748 18.962 567.928 19.634 568.192 20.258C568.468 20.882 568.87 21.392 569.398 21.788C569.926 22.172 570.628 22.364 571.504 22.364C572.38 22.364 573.082 22.172 573.61 21.788C574.138 21.392 574.534 20.882 574.798 20.258C575.074 19.634 575.254 18.962 575.338 18.242C575.434 17.51 575.482 16.802 575.482 16.118C575.482 15.422 575.434 14.708 575.338 13.976C575.254 13.232 575.074 12.548 574.798 11.924C574.534 11.288 574.138 10.778 573.61 10.394C573.082 9.998 572.38 9.8 571.504 9.8C570.628 9.8 569.926 9.998 569.398 10.394C568.87 10.778 568.468 11.288 568.192 11.924C567.928 12.548 567.748 13.232 567.652 13.976C567.568 14.708 567.526 15.422 567.526 16.118Z" fill="#364760"/>
</svg>
