<svg width="332" height="27" viewBox="0 0 332 27" fill="none" xmlns="http://www.w3.org/2000/svg">
<path d="M15.1407 11.204C15.1647 10.208 15.0627 9.272 14.8347 8.396C14.6187 7.508 14.2167 6.794 13.6287 6.254C13.0527 5.702 12.2367 5.426 11.1807 5.426C9.63273 5.426 8.52873 6.146 7.86873 7.586C7.22073 9.014 6.89673 11.096 6.89673 13.832C6.89673 16.388 7.32273 18.308 8.17473 19.592C9.03873 20.876 10.2567 21.518 11.8287 21.518C13.0767 21.518 14.1987 21.254 15.1947 20.726C16.2027 20.198 17.1207 19.622 17.9487 18.998C18.5127 19.382 19.0587 19.928 19.5867 20.636C20.1267 21.344 20.4627 22.034 20.5947 22.706C19.8987 23.39 19.0347 24.026 18.0027 24.614C16.9827 25.19 15.8547 25.652 14.6187 26C13.3827 26.36 12.0987 26.54 10.7667 26.54C8.88273 26.54 7.29873 26.174 6.01473 25.442C4.74273 24.698 3.72873 23.714 2.97273 22.49C2.21673 21.254 1.67073 19.886 1.33473 18.386C1.01073 16.874 0.848734 15.344 0.848734 13.796C0.848734 10.784 1.32273 8.324 2.27073 6.416C3.23073 4.508 4.50873 3.104 6.10473 2.204C7.70073 1.304 9.45873 0.853999 11.3787 0.853999C13.2387 0.853999 14.8587 1.184 16.2387 1.844C17.6307 2.504 18.7047 3.398 19.4607 4.526C20.2287 5.654 20.6127 6.926 20.6127 8.342C20.6127 9.458 20.3187 10.268 19.7307 10.772C19.1547 11.264 18.3507 11.51 17.3187 11.51C16.8987 11.51 16.5147 11.48 16.1667 11.42C15.8307 11.36 15.4887 11.288 15.1407 11.204ZM40.2462 12.194C40.2462 13.118 40.0362 13.94 39.6162 14.66C39.1962 15.38 38.6682 15.974 38.0322 16.442C37.4082 16.91 36.7842 17.21 36.1602 17.342C36.8082 17.558 37.3422 17.888 37.7622 18.332C38.1942 18.776 38.5662 19.346 38.8782 20.042L39.8142 22.184C40.0302 22.676 40.2762 23.132 40.5522 23.552C40.8282 23.96 41.1342 24.308 41.4702 24.596C41.1222 25.028 40.6002 25.43 39.9042 25.802C39.2082 26.162 38.4522 26.342 37.6362 26.342C36.8322 26.342 36.1782 26.15 35.6742 25.766C35.1822 25.37 34.7502 24.74 34.3782 23.876L32.7942 20.24C32.5422 19.652 32.2302 19.298 31.8582 19.178C31.4862 19.058 31.0062 18.998 30.4182 18.998H29.7162V26C29.2362 26.084 28.7382 26.138 28.2222 26.162C27.7182 26.198 27.2862 26.216 26.9262 26.216C26.5902 26.216 26.1462 26.198 25.5942 26.162C25.0422 26.138 24.5382 26.084 24.0822 26V6.344L24.2802 6.128C25.7322 6.092 27.0942 6.062 28.3662 6.038C29.6502 6.002 30.9282 5.984 32.2002 5.984C33.6402 5.984 34.9722 6.176 36.1962 6.56C37.4202 6.932 38.3982 7.574 39.1302 8.486C39.8742 9.386 40.2462 10.622 40.2462 12.194ZM29.7162 10.052V14.714C30.1362 14.702 30.5202 14.696 30.8682 14.696C31.2282 14.684 31.4922 14.678 31.6602 14.678C32.7402 14.678 33.4722 14.444 33.8562 13.976C34.2402 13.508 34.4322 12.962 34.4322 12.338C34.4322 11.726 34.2402 11.198 33.8562 10.754C33.4722 10.31 32.8302 10.088 31.9302 10.088C31.4982 10.088 31.1262 10.082 30.8142 10.07C30.5022 10.058 30.1362 10.052 29.7162 10.052ZM59.6803 21.482C59.6803 23.198 59.4103 24.392 58.8703 25.064C58.3423 25.736 57.4423 26.072 56.1703 26.072H47.8723C46.8523 26.072 46.0483 25.784 45.4603 25.208C44.8723 24.62 44.5783 23.834 44.5783 22.85V6.362L44.7763 6.164H59.0143C59.0983 6.572 59.1463 6.962 59.1583 7.334C59.1703 7.706 59.1763 8.06 59.1763 8.396C59.1763 8.72 59.1403 9.086 59.0683 9.494C59.0083 9.902 58.9003 10.316 58.7443 10.736H52.4443C51.9403 10.736 51.1783 10.73 50.1583 10.718C50.1703 11.09 50.1763 11.408 50.1763 11.672C50.1883 11.936 50.1943 12.254 50.1943 12.626V13.814C51.1903 13.802 51.9403 13.796 52.4443 13.796H57.0523C57.1723 14.12 57.2503 14.492 57.2863 14.912C57.3343 15.32 57.3583 15.668 57.3583 15.956C57.3583 16.292 57.3343 16.67 57.2863 17.09C57.2503 17.498 57.1723 17.87 57.0523 18.206H52.4443C52.2163 18.206 51.8983 18.206 51.4903 18.206C51.0823 18.206 50.6503 18.206 50.1943 18.206V19.376C50.1943 19.82 50.1883 20.186 50.1763 20.474C50.1643 20.762 50.1583 21.122 50.1583 21.554V21.59C50.5783 21.566 50.9683 21.542 51.3283 21.518C51.6883 21.494 52.1263 21.482 52.6423 21.482H59.6803ZM68.6379 22.526C68.4459 22.526 68.2599 22.526 68.0799 22.526C67.8999 22.514 67.7199 22.502 67.5399 22.49L66.4239 26C66.0759 26.084 65.6979 26.144 65.2899 26.18C64.8819 26.228 64.4559 26.252 64.0119 26.252C63.5319 26.252 63.0459 26.216 62.5539 26.144C62.0739 26.072 61.6779 25.97 61.3659 25.838L61.1679 25.532L68.1699 6.164C68.7939 6.068 69.3939 6.008 69.9699 5.984C70.5579 5.96 71.0919 5.948 71.5719 5.948C72.0159 5.948 72.4959 5.96 73.0119 5.984C73.5279 6.008 74.1099 6.068 74.7579 6.164L81.5619 25.73C81.1419 25.922 80.6079 26.066 79.9599 26.162C79.3119 26.27 78.7899 26.324 78.3939 26.324C77.7339 26.324 77.0979 26.198 76.4859 25.946C75.8739 25.694 75.4119 25.028 75.0999 23.948L74.6499 22.49C74.4579 22.502 74.2719 22.514 74.0919 22.526C73.9119 22.526 73.7199 22.526 73.5159 22.526H68.6379ZM69.3579 16.838L68.9619 18.08C69.1419 18.068 69.3219 18.062 69.5019 18.062C69.6819 18.05 69.8679 18.044 70.0599 18.044H72.3099C72.4899 18.044 72.6519 18.05 72.7959 18.062C72.9519 18.062 73.1079 18.068 73.2639 18.08L72.8859 16.856C72.6099 15.908 72.3339 14.852 72.0579 13.688C71.7819 12.524 71.5299 11.468 71.3019 10.52H71.0859C70.8339 11.432 70.5519 12.476 70.2399 13.652C69.9399 14.828 69.6459 15.89 69.3579 16.838ZM100.469 12.194C100.469 13.118 100.259 13.94 99.8389 14.66C99.4189 15.38 98.8909 15.974 98.2549 16.442C97.6309 16.91 97.0069 17.21 96.3829 17.342C97.0309 17.558 97.5649 17.888 97.9849 18.332C98.4169 18.776 98.7889 19.346 99.1009 20.042L100.037 22.184C100.253 22.676 100.499 23.132 100.775 23.552C101.051 23.96 101.357 24.308 101.693 24.596C101.345 25.028 100.823 25.43 100.127 25.802C99.4309 26.162 98.6749 26.342 97.8589 26.342C97.0549 26.342 96.4009 26.15 95.8969 25.766C95.4049 25.37 94.9729 24.74 94.6009 23.876L93.0169 20.24C92.7649 19.652 92.4529 19.298 92.0809 19.178C91.7089 19.058 91.2289 18.998 90.6409 18.998H89.9389V26C89.4589 26.084 88.9609 26.138 88.4449 26.162C87.9409 26.198 87.5089 26.216 87.1489 26.216C86.8129 26.216 86.3689 26.198 85.8169 26.162C85.2649 26.138 84.7609 26.084 84.3049 26V6.344L84.5029 6.128C85.9549 6.092 87.3169 6.062 88.5889 6.038C89.8729 6.002 91.1509 5.984 92.4229 5.984C93.8629 5.984 95.1949 6.176 96.4189 6.56C97.6429 6.932 98.6209 7.574 99.3529 8.486C100.097 9.386 100.469 10.622 100.469 12.194ZM89.9389 10.052V14.714C90.3589 14.702 90.7429 14.696 91.0909 14.696C91.4509 14.684 91.7149 14.678 91.8829 14.678C92.9629 14.678 93.6949 14.444 94.0789 13.976C94.4629 13.508 94.6549 12.962 94.6549 12.338C94.6549 11.726 94.4629 11.198 94.0789 10.754C93.6949 10.31 93.0529 10.088 92.1529 10.088C91.7209 10.088 91.3489 10.082 91.0369 10.07C90.7249 10.058 90.3589 10.052 89.9389 10.052ZM119.929 13.112C119.533 12.188 119.161 11.282 118.813 10.394C118.465 9.506 118.165 8.72 117.913 8.036L117.769 8.09C117.865 9.11 117.943 10.268 118.003 11.564C118.075 12.848 118.129 14.132 118.165 15.416C118.201 16.7 118.219 17.84 118.219 18.836V26C117.751 26.084 117.289 26.138 116.833 26.162C116.377 26.198 115.969 26.216 115.609 26.216C115.261 26.216 114.823 26.198 114.295 26.162C113.779 26.138 113.299 26.084 112.855 26V1.52C113.299 1.412 113.887 1.334 114.619 1.286C115.351 1.226 115.897 1.196 116.257 1.196C116.629 1.196 117.121 1.214 117.733 1.25C118.345 1.274 118.969 1.328 119.605 1.412L125.149 14.264C125.605 15.32 126.025 16.328 126.409 17.288C126.805 18.248 127.135 19.058 127.399 19.718L127.543 19.664C127.447 18.548 127.363 17.324 127.291 15.992C127.231 14.66 127.183 13.376 127.147 12.14C127.111 10.904 127.093 9.872 127.093 9.044V4.652C127.093 3.368 127.351 2.468 127.867 1.952C128.395 1.436 129.211 1.178 130.315 1.178H132.187L132.421 1.412V25.892C131.965 26 131.365 26.078 130.621 26.126C129.889 26.186 129.331 26.216 128.947 26.216C128.575 26.216 128.083 26.198 127.471 26.162C126.859 26.138 126.241 26.084 125.617 26L119.929 13.112ZM155.022 18.566C155.022 21.05 154.278 23 152.79 24.416C151.314 25.832 149.124 26.54 146.22 26.54C143.316 26.54 141.12 25.832 139.632 24.416C138.156 23 137.418 21.05 137.418 18.566V6.164L137.634 5.948H139.686C140.778 5.948 141.618 6.224 142.206 6.776C142.806 7.328 143.106 8.258 143.106 9.566V18.548C143.106 19.64 143.334 20.498 143.79 21.122C144.246 21.746 145.056 22.058 146.22 22.058C147.396 22.058 148.206 21.746 148.65 21.122C149.094 20.498 149.316 19.64 149.316 18.548V6.164C149.796 6.068 150.288 6.008 150.792 5.984C151.296 5.96 151.734 5.948 152.106 5.948C152.442 5.948 152.898 5.966 153.474 6.002C154.05 6.026 154.566 6.086 155.022 6.182V18.566ZM174.958 21.482C174.958 23.198 174.688 24.392 174.148 25.064C173.62 25.736 172.72 26.072 171.448 26.072H163.15C162.13 26.072 161.326 25.784 160.738 25.208C160.15 24.62 159.856 23.834 159.856 22.85V6.362L160.054 6.164H174.292C174.376 6.572 174.424 6.962 174.436 7.334C174.448 7.706 174.454 8.06 174.454 8.396C174.454 8.72 174.418 9.086 174.346 9.494C174.286 9.902 174.178 10.316 174.022 10.736H167.722C167.218 10.736 166.456 10.73 165.436 10.718C165.448 11.09 165.454 11.408 165.454 11.672C165.466 11.936 165.472 12.254 165.472 12.626V13.814C166.468 13.802 167.218 13.796 167.722 13.796H172.33C172.45 14.12 172.528 14.492 172.564 14.912C172.612 15.32 172.636 15.668 172.636 15.956C172.636 16.292 172.612 16.67 172.564 17.09C172.528 17.498 172.45 17.87 172.33 18.206H167.722C167.494 18.206 167.176 18.206 166.768 18.206C166.36 18.206 165.928 18.206 165.472 18.206V19.376C165.472 19.82 165.466 20.186 165.454 20.474C165.442 20.762 165.436 21.122 165.436 21.554V21.59C165.856 21.566 166.246 21.542 166.606 21.518C166.966 21.494 167.404 21.482 167.92 21.482H174.958ZM190.521 6.164C190.953 6.068 191.331 6.008 191.655 5.984C191.991 5.96 192.333 5.948 192.681 5.948C193.113 5.948 193.563 5.972 194.031 6.02C194.511 6.068 195.021 6.17 195.561 6.326L195.813 6.596L189.909 26C189.369 26.084 188.661 26.138 187.785 26.162C186.909 26.198 186.111 26.216 185.391 26.216C184.443 26.216 183.639 26.066 182.979 25.766C182.331 25.454 181.863 24.782 181.575 23.75L176.445 6.56C176.937 6.356 177.453 6.2 177.993 6.092C178.545 5.972 179.109 5.912 179.685 5.912C180.549 5.912 181.221 6.116 181.701 6.524C182.193 6.92 182.583 7.61 182.871 8.594L184.797 15.038C185.073 16.01 185.319 17 185.535 18.008C185.763 19.016 185.985 20.156 186.201 21.428C186.249 21.632 186.369 21.734 186.561 21.734L190.521 6.164ZM196.648 16.118C196.648 12.902 197.476 10.352 199.132 8.468C200.8 6.572 203.23 5.624 206.422 5.624C209.662 5.624 212.104 6.566 213.748 8.45C215.404 10.322 216.232 12.878 216.232 16.118C216.232 19.358 215.404 21.908 213.748 23.768C212.092 25.616 209.65 26.54 206.422 26.54C203.182 26.54 200.74 25.604 199.096 23.732C197.464 21.86 196.648 19.322 196.648 16.118ZM202.462 16.118C202.462 16.802 202.504 17.51 202.588 18.242C202.684 18.962 202.864 19.634 203.128 20.258C203.404 20.882 203.806 21.392 204.334 21.788C204.862 22.172 205.564 22.364 206.44 22.364C207.316 22.364 208.018 22.172 208.546 21.788C209.074 21.392 209.47 20.882 209.734 20.258C210.01 19.634 210.19 18.962 210.274 18.242C210.37 17.51 210.418 16.802 210.418 16.118C210.418 15.422 210.37 14.708 210.274 13.976C210.19 13.232 210.01 12.548 209.734 11.924C209.47 11.288 209.074 10.778 208.546 10.394C208.018 9.998 207.316 9.8 206.44 9.8C205.564 9.8 204.862 9.998 204.334 10.394C203.806 10.778 203.404 11.288 203.128 11.924C202.864 12.548 202.684 13.232 202.588 13.976C202.504 14.708 202.462 15.422 202.462 16.118ZM241.546 19.322C241.546 18.926 241.552 18.518 241.564 18.098C241.576 17.678 241.594 17.252 241.618 16.82H239.854C238.93 16.82 238.24 16.646 237.784 16.298C237.328 15.95 237.1 15.32 237.1 14.408C237.1 14.036 237.136 13.634 237.208 13.202C237.292 12.77 237.394 12.38 237.514 12.032H243.148C244.576 12.032 245.566 12.368 246.118 13.04C246.67 13.7 246.946 14.552 246.946 15.596V25.046C245.902 25.394 244.552 25.73 242.896 26.054C241.24 26.378 239.428 26.54 237.46 26.54C235 26.54 232.96 26.024 231.34 24.992C229.732 23.96 228.532 22.496 227.74 20.6C226.948 18.704 226.552 16.46 226.552 13.868C226.552 11.684 226.87 9.782 227.506 8.162C228.142 6.53 229.006 5.18 230.098 4.112C231.19 3.032 232.42 2.222 233.788 1.682C235.156 1.142 236.572 0.872 238.036 0.872C239.692 0.872 241.276 1.112 242.788 1.592C244.3 2.072 245.668 2.69 246.892 3.446C246.832 4.262 246.532 5.06 245.992 5.84C245.464 6.62 244.906 7.202 244.318 7.586C243.442 6.998 242.482 6.53 241.438 6.182C240.406 5.822 239.386 5.642 238.378 5.642C236.554 5.642 235.108 6.302 234.04 7.622C232.972 8.93 232.438 11.024 232.438 13.904C232.438 16.712 232.954 18.764 233.986 20.06C235.03 21.356 236.518 22.004 238.45 22.004C239.026 22.004 239.572 21.974 240.088 21.914C240.604 21.854 241.09 21.782 241.546 21.698V19.322ZM267.567 12.194C267.567 13.118 267.357 13.94 266.937 14.66C266.517 15.38 265.989 15.974 265.353 16.442C264.729 16.91 264.105 17.21 263.481 17.342C264.129 17.558 264.663 17.888 265.083 18.332C265.515 18.776 265.887 19.346 266.199 20.042L267.135 22.184C267.351 22.676 267.597 23.132 267.873 23.552C268.149 23.96 268.455 24.308 268.791 24.596C268.443 25.028 267.921 25.43 267.225 25.802C266.529 26.162 265.773 26.342 264.957 26.342C264.153 26.342 263.499 26.15 262.995 25.766C262.503 25.37 262.071 24.74 261.699 23.876L260.115 20.24C259.863 19.652 259.551 19.298 259.179 19.178C258.807 19.058 258.327 18.998 257.739 18.998H257.037V26C256.557 26.084 256.059 26.138 255.543 26.162C255.039 26.198 254.607 26.216 254.247 26.216C253.911 26.216 253.467 26.198 252.915 26.162C252.363 26.138 251.859 26.084 251.403 26V6.344L251.601 6.128C253.053 6.092 254.415 6.062 255.687 6.038C256.971 6.002 258.249 5.984 259.521 5.984C260.961 5.984 262.293 6.176 263.517 6.56C264.741 6.932 265.719 7.574 266.451 8.486C267.195 9.386 267.567 10.622 267.567 12.194ZM257.037 10.052V14.714C257.457 14.702 257.841 14.696 258.189 14.696C258.549 14.684 258.813 14.678 258.981 14.678C260.061 14.678 260.793 14.444 261.177 13.976C261.561 13.508 261.753 12.962 261.753 12.338C261.753 11.726 261.561 11.198 261.177 10.754C260.793 10.31 260.151 10.088 259.251 10.088C258.819 10.088 258.447 10.082 258.135 10.07C257.823 10.058 257.457 10.052 257.037 10.052ZM289.143 18.566C289.143 21.05 288.399 23 286.911 24.416C285.435 25.832 283.245 26.54 280.341 26.54C277.437 26.54 275.241 25.832 273.753 24.416C272.277 23 271.539 21.05 271.539 18.566V6.164L271.755 5.948H273.807C274.899 5.948 275.739 6.224 276.327 6.776C276.927 7.328 277.227 8.258 277.227 9.566V18.548C277.227 19.64 277.455 20.498 277.911 21.122C278.367 21.746 279.177 22.058 280.341 22.058C281.517 22.058 282.327 21.746 282.771 21.122C283.215 20.498 283.437 19.64 283.437 18.548V6.164C283.917 6.068 284.409 6.008 284.913 5.984C285.417 5.96 285.855 5.948 286.227 5.948C286.563 5.948 287.019 5.966 287.595 6.002C288.171 6.026 288.687 6.086 289.143 6.182V18.566ZM309.745 12.968C309.745 14.528 309.391 15.824 308.683 16.856C307.987 17.876 307.027 18.638 305.803 19.142C304.579 19.634 303.187 19.88 301.627 19.88H299.665V26C299.185 26.084 298.693 26.138 298.189 26.162C297.685 26.198 297.253 26.216 296.893 26.216C296.557 26.216 296.101 26.198 295.525 26.162C294.949 26.138 294.433 26.084 293.977 26V6.344L294.175 6.128C295.147 6.104 296.317 6.074 297.685 6.038C299.053 6.002 300.367 5.984 301.627 5.984C303.199 5.984 304.597 6.224 305.821 6.704C307.045 7.184 308.005 7.94 308.701 8.972C309.397 10.004 309.745 11.336 309.745 12.968ZM299.665 10.196V15.704C299.989 15.692 300.283 15.686 300.547 15.686C300.811 15.674 301.009 15.668 301.141 15.668C301.933 15.668 302.527 15.524 302.923 15.236C303.331 14.936 303.601 14.576 303.733 14.156C303.865 13.724 303.931 13.316 303.931 12.932C303.931 12.572 303.865 12.182 303.733 11.762C303.601 11.342 303.331 10.982 302.923 10.682C302.527 10.382 301.933 10.232 301.141 10.232C300.841 10.232 300.625 10.232 300.493 10.232C300.361 10.22 300.085 10.208 299.665 10.196ZM311.749 16.118C311.749 12.902 312.577 10.352 314.233 8.468C315.901 6.572 318.331 5.624 321.523 5.624C324.763 5.624 327.205 6.566 328.849 8.45C330.505 10.322 331.333 12.878 331.333 16.118C331.333 19.358 330.505 21.908 328.849 23.768C327.193 25.616 324.751 26.54 321.523 26.54C318.283 26.54 315.841 25.604 314.197 23.732C312.565 21.86 311.749 19.322 311.749 16.118ZM317.563 16.118C317.563 16.802 317.605 17.51 317.689 18.242C317.785 18.962 317.965 19.634 318.229 20.258C318.505 20.882 318.907 21.392 319.435 21.788C319.963 22.172 320.665 22.364 321.541 22.364C322.417 22.364 323.119 22.172 323.647 21.788C324.175 21.392 324.571 20.882 324.835 20.258C325.111 19.634 325.291 18.962 325.375 18.242C325.471 17.51 325.519 16.802 325.519 16.118C325.519 15.422 325.471 14.708 325.375 13.976C325.291 13.232 325.111 12.548 324.835 11.924C324.571 11.288 324.175 10.778 323.647 10.394C323.119 9.998 322.417 9.8 321.541 9.8C320.665 9.8 319.963 9.998 319.435 10.394C318.907 10.778 318.505 11.288 318.229 11.924C317.965 12.548 317.785 13.232 317.689 13.976C317.605 14.708 317.563 15.422 317.563 16.118Z" fill="#364760"/>
</svg>
