<svg width="310" height="27" viewBox="0 0 310 27" fill="none" xmlns="http://www.w3.org/2000/svg">
<path d="M15.0216 11.204C15.0456 10.208 14.9436 9.272 14.7156 8.396C14.4996 7.508 14.0976 6.794 13.5096 6.254C12.9336 5.702 12.1176 5.426 11.0616 5.426C9.51359 5.426 8.40959 6.146 7.74959 7.586C7.10159 9.014 6.77759 11.096 6.77759 13.832C6.77759 16.388 7.20359 18.308 8.05559 19.592C8.91959 20.876 10.1376 21.518 11.7096 21.518C12.9576 21.518 14.0796 21.254 15.0756 20.726C16.0836 20.198 17.0016 19.622 17.8296 18.998C18.3936 19.382 18.9396 19.928 19.4676 20.636C20.0076 21.344 20.3436 22.034 20.4756 22.706C19.7796 23.39 18.9156 24.026 17.8836 24.614C16.8636 25.19 15.7356 25.652 14.4996 26C13.2636 26.36 11.9796 26.54 10.6476 26.54C8.76359 26.54 7.17959 26.174 5.89559 25.442C4.62359 24.698 3.60959 23.714 2.85359 22.49C2.09759 21.254 1.55159 19.886 1.21559 18.386C0.891594 16.874 0.729594 15.344 0.729594 13.796C0.729594 10.784 1.20359 8.324 2.15159 6.416C3.11159 4.508 4.38959 3.104 5.98559 2.204C7.58159 1.304 9.33959 0.853999 11.2596 0.853999C13.1196 0.853999 14.7396 1.184 16.1196 1.844C17.5116 2.504 18.5856 3.398 19.3416 4.526C20.1096 5.654 20.4936 6.926 20.4936 8.342C20.4936 9.458 20.1996 10.268 19.6116 10.772C19.0356 11.264 18.2316 11.51 17.1996 11.51C16.7796 11.51 16.3956 11.48 16.0476 11.42C15.7116 11.36 15.3696 11.288 15.0216 11.204ZM40.1271 12.194C40.1271 13.118 39.9171 13.94 39.4971 14.66C39.0771 15.38 38.5491 15.974 37.9131 16.442C37.2891 16.91 36.6651 17.21 36.0411 17.342C36.6891 17.558 37.2231 17.888 37.6431 18.332C38.0751 18.776 38.4471 19.346 38.7591 20.042L39.6951 22.184C39.9111 22.676 40.1571 23.132 40.4331 23.552C40.7091 23.96 41.0151 24.308 41.3511 24.596C41.0031 25.028 40.4811 25.43 39.7851 25.802C39.0891 26.162 38.3331 26.342 37.5171 26.342C36.7131 26.342 36.0591 26.15 35.5551 25.766C35.0631 25.37 34.6311 24.74 34.2591 23.876L32.6751 20.24C32.4231 19.652 32.1111 19.298 31.7391 19.178C31.3671 19.058 30.8871 18.998 30.2991 18.998H29.5971V26C29.1171 26.084 28.6191 26.138 28.1031 26.162C27.5991 26.198 27.1671 26.216 26.8071 26.216C26.4711 26.216 26.0271 26.198 25.4751 26.162C24.9231 26.138 24.4191 26.084 23.9631 26V6.344L24.1611 6.128C25.6131 6.092 26.9751 6.062 28.2471 6.038C29.5311 6.002 30.8091 5.984 32.0811 5.984C33.5211 5.984 34.8531 6.176 36.0771 6.56C37.3011 6.932 38.2791 7.574 39.0111 8.486C39.7551 9.386 40.1271 10.622 40.1271 12.194ZM29.5971 10.052V14.714C30.0171 14.702 30.4011 14.696 30.7491 14.696C31.1091 14.684 31.3731 14.678 31.5411 14.678C32.6211 14.678 33.3531 14.444 33.7371 13.976C34.1211 13.508 34.3131 12.962 34.3131 12.338C34.3131 11.726 34.1211 11.198 33.7371 10.754C33.3531 10.31 32.7111 10.088 31.8111 10.088C31.3791 10.088 31.0071 10.082 30.6951 10.07C30.3831 10.058 30.0171 10.052 29.5971 10.052ZM59.5612 21.482C59.5612 23.198 59.2912 24.392 58.7512 25.064C58.2232 25.736 57.3232 26.072 56.0512 26.072H47.7532C46.7332 26.072 45.9292 25.784 45.3412 25.208C44.7532 24.62 44.4592 23.834 44.4592 22.85V6.362L44.6572 6.164H58.8952C58.9792 6.572 59.0272 6.962 59.0392 7.334C59.0512 7.706 59.0572 8.06 59.0572 8.396C59.0572 8.72 59.0212 9.086 58.9492 9.494C58.8892 9.902 58.7812 10.316 58.6252 10.736H52.3252C51.8212 10.736 51.0592 10.73 50.0392 10.718C50.0512 11.09 50.0572 11.408 50.0572 11.672C50.0692 11.936 50.0752 12.254 50.0752 12.626V13.814C51.0712 13.802 51.8212 13.796 52.3252 13.796H56.9332C57.0532 14.12 57.1312 14.492 57.1672 14.912C57.2152 15.32 57.2392 15.668 57.2392 15.956C57.2392 16.292 57.2152 16.67 57.1672 17.09C57.1312 17.498 57.0532 17.87 56.9332 18.206H52.3252C52.0972 18.206 51.7792 18.206 51.3712 18.206C50.9632 18.206 50.5312 18.206 50.0752 18.206V19.376C50.0752 19.82 50.0692 20.186 50.0572 20.474C50.0452 20.762 50.0392 21.122 50.0392 21.554V21.59C50.4592 21.566 50.8492 21.542 51.2092 21.518C51.5692 21.494 52.0072 21.482 52.5232 21.482H59.5612ZM68.5187 22.526C68.3267 22.526 68.1407 22.526 67.9607 22.526C67.7807 22.514 67.6007 22.502 67.4207 22.49L66.3047 26C65.9567 26.084 65.5787 26.144 65.1707 26.18C64.7627 26.228 64.3367 26.252 63.8927 26.252C63.4127 26.252 62.9267 26.216 62.4347 26.144C61.9547 26.072 61.5587 25.97 61.2467 25.838L61.0487 25.532L68.0507 6.164C68.6747 6.068 69.2747 6.008 69.8507 5.984C70.4387 5.96 70.9727 5.948 71.4527 5.948C71.8967 5.948 72.3767 5.96 72.8927 5.984C73.4087 6.008 73.9907 6.068 74.6387 6.164L81.4427 25.73C81.0227 25.922 80.4887 26.066 79.8407 26.162C79.1927 26.27 78.6707 26.324 78.2747 26.324C77.6147 26.324 76.9787 26.198 76.3667 25.946C75.7547 25.694 75.2927 25.028 74.9807 23.948L74.5307 22.49C74.3387 22.502 74.1527 22.514 73.9727 22.526C73.7927 22.526 73.6007 22.526 73.3967 22.526H68.5187ZM69.2387 16.838L68.8427 18.08C69.0227 18.068 69.2027 18.062 69.3827 18.062C69.5627 18.05 69.7487 18.044 69.9407 18.044H72.1907C72.3707 18.044 72.5327 18.05 72.6767 18.062C72.8327 18.062 72.9887 18.068 73.1447 18.08L72.7667 16.856C72.4907 15.908 72.2147 14.852 71.9387 13.688C71.6627 12.524 71.4107 11.468 71.1827 10.52H70.9667C70.7147 11.432 70.4327 12.476 70.1207 13.652C69.8207 14.828 69.5267 15.89 69.2387 16.838ZM100.35 12.194C100.35 13.118 100.14 13.94 99.7198 14.66C99.2998 15.38 98.7718 15.974 98.1358 16.442C97.5118 16.91 96.8878 17.21 96.2638 17.342C96.9118 17.558 97.4458 17.888 97.8658 18.332C98.2978 18.776 98.6698 19.346 98.9818 20.042L99.9178 22.184C100.134 22.676 100.38 23.132 100.656 23.552C100.932 23.96 101.238 24.308 101.574 24.596C101.226 25.028 100.704 25.43 100.008 25.802C99.3118 26.162 98.5558 26.342 97.7398 26.342C96.9358 26.342 96.2818 26.15 95.7778 25.766C95.2858 25.37 94.8538 24.74 94.4818 23.876L92.8978 20.24C92.6458 19.652 92.3338 19.298 91.9618 19.178C91.5898 19.058 91.1098 18.998 90.5218 18.998H89.8198V26C89.3398 26.084 88.8418 26.138 88.3258 26.162C87.8218 26.198 87.3898 26.216 87.0298 26.216C86.6938 26.216 86.2498 26.198 85.6978 26.162C85.1458 26.138 84.6418 26.084 84.1858 26V6.344L84.3838 6.128C85.8358 6.092 87.1978 6.062 88.4698 6.038C89.7538 6.002 91.0318 5.984 92.3038 5.984C93.7438 5.984 95.0758 6.176 96.2998 6.56C97.5238 6.932 98.5018 7.574 99.2338 8.486C99.9778 9.386 100.35 10.622 100.35 12.194ZM89.8198 10.052V14.714C90.2398 14.702 90.6238 14.696 90.9718 14.696C91.3318 14.684 91.5957 14.678 91.7637 14.678C92.8438 14.678 93.5758 14.444 93.9598 13.976C94.3438 13.508 94.5358 12.962 94.5358 12.338C94.5358 11.726 94.3438 11.198 93.9598 10.754C93.5758 10.31 92.9338 10.088 92.0338 10.088C91.6018 10.088 91.2298 10.082 90.9178 10.07C90.6058 10.058 90.2398 10.052 89.8198 10.052ZM113.87 1.448C114.482 1.34 115.148 1.268 115.868 1.232C116.6 1.196 117.23 1.178 117.758 1.178C118.286 1.178 118.874 1.196 119.522 1.232C120.17 1.268 120.8 1.34 121.412 1.448L123.536 10.25C123.584 10.466 123.662 10.838 123.77 11.366C123.89 11.894 124.022 12.494 124.166 13.166C124.31 13.838 124.442 14.498 124.562 15.146C124.694 15.794 124.796 16.346 124.868 16.802H125.12C125.192 16.346 125.294 15.794 125.426 15.146C125.558 14.498 125.69 13.838 125.822 13.166C125.966 12.494 126.098 11.894 126.218 11.366C126.338 10.838 126.422 10.466 126.47 10.25L128.594 1.448C129.206 1.34 129.83 1.268 130.466 1.232C131.114 1.196 131.702 1.178 132.23 1.178C132.758 1.178 133.388 1.196 134.12 1.232C134.852 1.268 135.518 1.34 136.118 1.448L138.026 25.928C137.618 26.036 137.144 26.108 136.604 26.144C136.076 26.192 135.578 26.216 135.11 26.216C134.678 26.216 134.252 26.204 133.832 26.18C133.424 26.156 133.01 26.108 132.59 26.036L132.05 16.01C131.978 14.738 131.912 13.334 131.852 11.798C131.792 10.262 131.762 8.906 131.762 7.73H131.51L127.964 22.382C127.532 22.454 127.028 22.508 126.452 22.544C125.876 22.568 125.384 22.58 124.976 22.58C124.616 22.58 124.142 22.568 123.554 22.544C122.966 22.508 122.456 22.454 122.024 22.382L118.478 7.73H118.244C118.232 8.906 118.196 10.262 118.136 11.798C118.088 13.334 118.028 14.738 117.956 16.01L117.398 26.036C116.99 26.108 116.576 26.156 116.156 26.18C115.736 26.204 115.31 26.216 114.878 26.216C114.422 26.216 113.924 26.192 113.384 26.144C112.856 26.108 112.382 26.036 111.962 25.928L113.87 1.448ZM141.122 16.118C141.122 12.902 141.95 10.352 143.606 8.468C145.274 6.572 147.704 5.624 150.896 5.624C154.136 5.624 156.578 6.566 158.222 8.45C159.878 10.322 160.706 12.878 160.706 16.118C160.706 19.358 159.878 21.908 158.222 23.768C156.566 25.616 154.124 26.54 150.896 26.54C147.656 26.54 145.214 25.604 143.57 23.732C141.938 21.86 141.122 19.322 141.122 16.118ZM146.936 16.118C146.936 16.802 146.978 17.51 147.062 18.242C147.158 18.962 147.338 19.634 147.602 20.258C147.878 20.882 148.28 21.392 148.808 21.788C149.336 22.172 150.038 22.364 150.914 22.364C151.79 22.364 152.492 22.172 153.02 21.788C153.548 21.392 153.944 20.882 154.208 20.258C154.484 19.634 154.664 18.962 154.748 18.242C154.844 17.51 154.892 16.802 154.892 16.118C154.892 15.422 154.844 14.708 154.748 13.976C154.664 13.232 154.484 12.548 154.208 11.924C153.944 11.288 153.548 10.778 153.02 10.394C152.492 9.998 151.79 9.8 150.914 9.8C150.038 9.8 149.336 9.998 148.808 10.394C148.28 10.778 147.878 11.288 147.602 11.924C147.338 12.548 147.158 13.232 147.062 13.976C146.978 14.708 146.936 15.422 146.936 16.118ZM175.636 6.164C176.068 6.068 176.446 6.008 176.77 5.984C177.106 5.96 177.448 5.948 177.796 5.948C178.228 5.948 178.678 5.972 179.146 6.02C179.626 6.068 180.136 6.17 180.676 6.326L180.928 6.596L175.024 26C174.484 26.084 173.776 26.138 172.9 26.162C172.024 26.198 171.226 26.216 170.506 26.216C169.558 26.216 168.754 26.066 168.094 25.766C167.446 25.454 166.978 24.782 166.69 23.75L161.56 6.56C162.052 6.356 162.568 6.2 163.108 6.092C163.66 5.972 164.224 5.912 164.8 5.912C165.664 5.912 166.336 6.116 166.816 6.524C167.308 6.92 167.698 7.61 167.986 8.594L169.912 15.038C170.188 16.01 170.434 17 170.65 18.008C170.878 19.016 171.1 20.156 171.316 21.428C171.364 21.632 171.484 21.734 171.676 21.734L175.636 6.164ZM183.715 6.164C184.171 6.068 184.687 6.008 185.263 5.984C185.839 5.96 186.295 5.948 186.631 5.948C186.991 5.948 187.423 5.96 187.927 5.984C188.443 6.008 188.941 6.068 189.421 6.164V26C188.941 26.084 188.443 26.138 187.927 26.162C187.423 26.198 186.991 26.216 186.631 26.216C186.295 26.216 185.839 26.198 185.263 26.162C184.687 26.138 184.171 26.084 183.715 26V6.164ZM195.907 6.164C196.483 6.056 197.113 5.984 197.797 5.948C198.481 5.9 199.057 5.876 199.525 5.876C199.969 5.876 200.545 5.9 201.253 5.948C201.961 5.984 202.555 6.056 203.035 6.164L204.799 13.976C204.907 14.444 205.033 15.08 205.177 15.884C205.321 16.676 205.465 17.528 205.609 18.44H205.843C206.131 16.52 206.401 15.032 206.653 13.976L208.399 6.164C208.963 6.056 209.581 5.984 210.253 5.948C210.925 5.9 211.483 5.876 211.927 5.876C212.395 5.876 212.977 5.9 213.673 5.948C214.369 5.984 214.993 6.056 215.545 6.164L217.579 25.928C216.799 26.12 215.857 26.216 214.753 26.216C214.333 26.216 213.883 26.198 213.403 26.162C212.935 26.126 212.515 26.072 212.143 26L211.621 19.628C211.561 18.812 211.525 17.918 211.513 16.946C211.501 15.974 211.501 15.026 211.513 14.102C211.525 13.166 211.525 12.356 211.513 11.672H211.297L208.651 22.958C208.243 23.03 207.745 23.084 207.157 23.12C206.569 23.144 206.083 23.156 205.699 23.156C205.303 23.156 204.811 23.144 204.223 23.12C203.647 23.084 203.167 23.03 202.783 22.958L200.155 11.672H199.903C199.903 12.368 199.903 13.178 199.903 14.102C199.915 15.026 199.915 15.974 199.903 16.946C199.891 17.918 199.849 18.824 199.777 19.664L199.309 26C198.925 26.072 198.505 26.126 198.049 26.162C197.605 26.198 197.173 26.216 196.753 26.216C195.637 26.216 194.677 26.12 193.873 25.928L195.907 6.164ZM222.07 6.164C222.526 6.068 223.042 6.008 223.618 5.984C224.194 5.96 224.65 5.948 224.986 5.948C225.346 5.948 225.778 5.96 226.282 5.984C226.798 6.008 227.296 6.068 227.776 6.164V26C227.296 26.084 226.798 26.138 226.282 26.162C225.778 26.198 225.346 26.216 224.986 26.216C224.65 26.216 224.194 26.198 223.618 26.162C223.042 26.138 222.526 26.084 222.07 26V6.164ZM248.104 21.482C248.104 23.198 247.834 24.392 247.294 25.064C246.766 25.736 245.866 26.072 244.594 26.072H236.296C235.276 26.072 234.472 25.784 233.884 25.208C233.296 24.62 233.002 23.834 233.002 22.85V6.362L233.2 6.164H247.438C247.522 6.572 247.57 6.962 247.582 7.334C247.594 7.706 247.6 8.06 247.6 8.396C247.6 8.72 247.564 9.086 247.492 9.494C247.432 9.902 247.324 10.316 247.168 10.736H240.868C240.364 10.736 239.602 10.73 238.582 10.718C238.594 11.09 238.6 11.408 238.6 11.672C238.612 11.936 238.618 12.254 238.618 12.626V13.814C239.614 13.802 240.364 13.796 240.868 13.796H245.476C245.596 14.12 245.674 14.492 245.71 14.912C245.758 15.32 245.782 15.668 245.782 15.956C245.782 16.292 245.758 16.67 245.71 17.09C245.674 17.498 245.596 17.87 245.476 18.206H240.868C240.64 18.206 240.322 18.206 239.914 18.206C239.506 18.206 239.074 18.206 238.618 18.206V19.376C238.618 19.82 238.612 20.186 238.6 20.474C238.588 20.762 238.582 21.122 238.582 21.554V21.59C239.002 21.566 239.392 21.542 239.752 21.518C240.112 21.494 240.55 21.482 241.066 21.482H248.104ZM259.006 16.946C258.922 16.754 258.79 16.454 258.61 16.046C258.43 15.626 258.238 15.176 258.034 14.696C257.83 14.216 257.638 13.766 257.458 13.346C257.29 12.926 257.158 12.62 257.062 12.428L256.936 12.482C256.984 13.43 257.032 14.456 257.08 15.56C257.128 16.652 257.164 17.654 257.188 18.566C257.224 19.466 257.242 20.12 257.242 20.528V26C256.774 26.084 256.324 26.138 255.892 26.162C255.46 26.198 255.058 26.216 254.686 26.216C254.35 26.216 253.93 26.198 253.426 26.162C252.934 26.138 252.466 26.084 252.022 26V6.29C252.466 6.182 253.018 6.098 253.678 6.038C254.338 5.978 254.848 5.948 255.208 5.948C255.58 5.948 256.108 5.96 256.792 5.984C257.476 5.996 258.04 6.056 258.484 6.164L262.714 15.182C262.798 15.35 262.936 15.656 263.128 16.1C263.332 16.544 263.548 17.03 263.776 17.558C264.004 18.086 264.214 18.584 264.406 19.052C264.61 19.508 264.76 19.844 264.856 20.06L265.018 20.024C264.97 19.232 264.904 18.308 264.82 17.252C264.748 16.196 264.682 15.176 264.622 14.192C264.562 13.208 264.532 12.422 264.532 11.834V9.026C264.532 7.754 264.808 6.92 265.36 6.524C265.912 6.116 266.734 5.912 267.826 5.912H269.68L269.896 6.164V25.892C269.428 26 268.864 26.078 268.204 26.126C267.544 26.186 267.04 26.216 266.692 26.216C266.452 26.216 266.122 26.21 265.702 26.198C265.282 26.186 264.85 26.168 264.406 26.144C263.974 26.12 263.614 26.072 263.326 26L259.006 16.946ZM278.108 12.914C278.108 12.53 278.114 12.176 278.126 11.852C278.138 11.516 278.144 11.144 278.144 10.736C277.892 10.736 277.544 10.742 277.1 10.754C276.668 10.766 276.326 10.772 276.074 10.772H272.744C272.648 10.34 272.588 9.938 272.564 9.566C272.54 9.182 272.528 8.834 272.528 8.522C272.528 8.21 272.54 7.844 272.564 7.424C272.588 6.992 272.648 6.572 272.744 6.164H289.034C289.118 6.488 289.178 6.854 289.214 7.262C289.262 7.67 289.286 8 289.286 8.252C289.286 9.068 289.07 9.692 288.638 10.124C288.206 10.556 287.486 10.772 286.478 10.772H285.74C285.488 10.772 285.152 10.766 284.732 10.754C284.324 10.742 284.006 10.736 283.778 10.736C283.778 11.144 283.784 11.516 283.796 11.852C283.808 12.176 283.814 12.53 283.814 12.914V26C283.478 26.072 283.016 26.126 282.428 26.162C281.84 26.198 281.348 26.216 280.952 26.216C280.58 26.216 280.112 26.198 279.548 26.162C278.984 26.126 278.504 26.072 278.108 26V12.914ZM289.868 16.118C289.868 12.902 290.696 10.352 292.352 8.468C294.02 6.572 296.45 5.624 299.642 5.624C302.882 5.624 305.324 6.566 306.968 8.45C308.624 10.322 309.452 12.878 309.452 16.118C309.452 19.358 308.624 21.908 306.968 23.768C305.312 25.616 302.87 26.54 299.642 26.54C296.402 26.54 293.96 25.604 292.316 23.732C290.684 21.86 289.868 19.322 289.868 16.118ZM295.682 16.118C295.682 16.802 295.724 17.51 295.808 18.242C295.904 18.962 296.084 19.634 296.348 20.258C296.624 20.882 297.026 21.392 297.554 21.788C298.082 22.172 298.784 22.364 299.66 22.364C300.536 22.364 301.238 22.172 301.766 21.788C302.294 21.392 302.69 20.882 302.954 20.258C303.23 19.634 303.41 18.962 303.494 18.242C303.59 17.51 303.638 16.802 303.638 16.118C303.638 15.422 303.59 14.708 303.494 13.976C303.41 13.232 303.23 12.548 302.954 11.924C302.69 11.288 302.294 10.778 301.766 10.394C301.238 9.998 300.536 9.8 299.66 9.8C298.784 9.8 298.082 9.998 297.554 10.394C297.026 10.778 296.624 11.288 296.348 11.924C296.084 12.548 295.904 13.232 295.808 13.976C295.724 14.708 295.682 15.422 295.682 16.118Z" fill="#364760"/>
</svg>
