<svg width="286" height="67" viewBox="0 0 286 67" fill="none" xmlns="http://www.w3.org/2000/svg">
<rect width="286" height="67" rx="10" fill="#1EBCBC"/>
<path d="M106.76 31.204C106.784 30.208 106.682 29.272 106.454 28.396C106.238 27.508 105.836 26.794 105.248 26.254C104.672 25.702 103.856 25.426 102.8 25.426C101.252 25.426 100.148 26.146 99.4879 27.586C98.8399 29.014 98.5159 31.096 98.5159 33.832C98.5159 36.388 98.9419 38.308 99.7939 39.592C100.658 40.876 101.876 41.518 103.448 41.518C104.696 41.518 105.818 41.254 106.814 40.726C107.822 40.198 108.74 39.622 109.568 38.998C110.132 39.382 110.678 39.928 111.206 40.636C111.746 41.344 112.082 42.034 112.214 42.706C111.518 43.39 110.654 44.026 109.622 44.614C108.602 45.19 107.474 45.652 106.238 46C105.002 46.36 103.718 46.54 102.386 46.54C100.502 46.54 98.9179 46.174 97.6339 45.442C96.3619 44.698 95.3479 43.714 94.5919 42.49C93.8359 41.254 93.2899 39.886 92.9539 38.386C92.6299 36.874 92.4679 35.344 92.4679 33.796C92.4679 30.784 92.9419 28.324 93.8899 26.416C94.8499 24.508 96.1279 23.104 97.7239 22.204C99.3199 21.304 101.078 20.854 102.998 20.854C104.858 20.854 106.478 21.184 107.858 21.844C109.25 22.504 110.324 23.398 111.08 24.526C111.848 25.654 112.232 26.926 112.232 28.342C112.232 29.458 111.938 30.268 111.35 30.772C110.774 31.264 109.97 31.51 108.938 31.51C108.518 31.51 108.134 31.48 107.786 31.42C107.45 31.36 107.108 31.288 106.76 31.204ZM131.865 32.194C131.865 33.118 131.655 33.94 131.235 34.66C130.815 35.38 130.287 35.974 129.651 36.442C129.027 36.91 128.403 37.21 127.779 37.342C128.427 37.558 128.961 37.888 129.381 38.332C129.813 38.776 130.185 39.346 130.497 40.042L131.433 42.184C131.649 42.676 131.895 43.132 132.171 43.552C132.447 43.96 132.753 44.308 133.089 44.596C132.741 45.028 132.219 45.43 131.523 45.802C130.827 46.162 130.071 46.342 129.255 46.342C128.451 46.342 127.797 46.15 127.293 45.766C126.801 45.37 126.369 44.74 125.997 43.876L124.413 40.24C124.161 39.652 123.849 39.298 123.477 39.178C123.105 39.058 122.625 38.998 122.037 38.998H121.335V46C120.855 46.084 120.357 46.138 119.841 46.162C119.337 46.198 118.905 46.216 118.545 46.216C118.209 46.216 117.765 46.198 117.213 46.162C116.661 46.138 116.157 46.084 115.701 46V26.344L115.899 26.128C117.351 26.092 118.713 26.062 119.985 26.038C121.269 26.002 122.547 25.984 123.819 25.984C125.259 25.984 126.591 26.176 127.815 26.56C129.039 26.932 130.017 27.574 130.749 28.486C131.493 29.386 131.865 30.622 131.865 32.194ZM121.335 30.052V34.714C121.755 34.702 122.139 34.696 122.487 34.696C122.847 34.684 123.111 34.678 123.279 34.678C124.359 34.678 125.091 34.444 125.475 33.976C125.859 33.508 126.051 32.962 126.051 32.338C126.051 31.726 125.859 31.198 125.475 30.754C125.091 30.31 124.449 30.088 123.549 30.088C123.117 30.088 122.745 30.082 122.433 30.07C122.121 30.058 121.755 30.052 121.335 30.052ZM151.299 41.482C151.299 43.198 151.029 44.392 150.489 45.064C149.961 45.736 149.061 46.072 147.789 46.072H139.491C138.471 46.072 137.667 45.784 137.079 45.208C136.491 44.62 136.197 43.834 136.197 42.85V26.362L136.395 26.164H150.633C150.717 26.572 150.765 26.962 150.777 27.334C150.789 27.706 150.795 28.06 150.795 28.396C150.795 28.72 150.759 29.086 150.687 29.494C150.627 29.902 150.519 30.316 150.363 30.736H144.063C143.559 30.736 142.797 30.73 141.777 30.718C141.789 31.09 141.795 31.408 141.795 31.672C141.807 31.936 141.813 32.254 141.813 32.626V33.814C142.809 33.802 143.559 33.796 144.063 33.796H148.671C148.791 34.12 148.869 34.492 148.905 34.912C148.953 35.32 148.977 35.668 148.977 35.956C148.977 36.292 148.953 36.67 148.905 37.09C148.869 37.498 148.791 37.87 148.671 38.206H144.063C143.835 38.206 143.517 38.206 143.109 38.206C142.701 38.206 142.269 38.206 141.813 38.206V39.376C141.813 39.82 141.807 40.186 141.795 40.474C141.783 40.762 141.777 41.122 141.777 41.554V41.59C142.197 41.566 142.587 41.542 142.947 41.518C143.307 41.494 143.745 41.482 144.261 41.482H151.299ZM160.257 42.526C160.065 42.526 159.879 42.526 159.699 42.526C159.519 42.514 159.339 42.502 159.159 42.49L158.043 46C157.695 46.084 157.317 46.144 156.909 46.18C156.501 46.228 156.075 46.252 155.631 46.252C155.151 46.252 154.665 46.216 154.173 46.144C153.693 46.072 153.297 45.97 152.985 45.838L152.787 45.532L159.789 26.164C160.413 26.068 161.013 26.008 161.589 25.984C162.177 25.96 162.711 25.948 163.191 25.948C163.635 25.948 164.115 25.96 164.631 25.984C165.147 26.008 165.729 26.068 166.377 26.164L173.181 45.73C172.761 45.922 172.227 46.066 171.579 46.162C170.931 46.27 170.409 46.324 170.013 46.324C169.353 46.324 168.717 46.198 168.105 45.946C167.493 45.694 167.031 45.028 166.719 43.948L166.269 42.49C166.077 42.502 165.891 42.514 165.711 42.526C165.531 42.526 165.339 42.526 165.135 42.526H160.257ZM160.977 36.838L160.581 38.08C160.761 38.068 160.941 38.062 161.121 38.062C161.301 38.05 161.487 38.044 161.679 38.044H163.929C164.109 38.044 164.271 38.05 164.415 38.062C164.571 38.062 164.727 38.068 164.883 38.08L164.505 36.856C164.229 35.908 163.953 34.852 163.677 33.688C163.401 32.524 163.149 31.468 162.921 30.52H162.705C162.453 31.432 162.171 32.476 161.859 33.652C161.559 34.828 161.265 35.89 160.977 36.838ZM192.088 32.194C192.088 33.118 191.878 33.94 191.458 34.66C191.038 35.38 190.51 35.974 189.874 36.442C189.25 36.91 188.626 37.21 188.002 37.342C188.65 37.558 189.184 37.888 189.604 38.332C190.036 38.776 190.408 39.346 190.72 40.042L191.656 42.184C191.872 42.676 192.118 43.132 192.394 43.552C192.67 43.96 192.976 44.308 193.312 44.596C192.964 45.028 192.442 45.43 191.746 45.802C191.05 46.162 190.294 46.342 189.478 46.342C188.674 46.342 188.02 46.15 187.516 45.766C187.024 45.37 186.592 44.74 186.22 43.876L184.636 40.24C184.384 39.652 184.072 39.298 183.7 39.178C183.328 39.058 182.848 38.998 182.26 38.998H181.558V46C181.078 46.084 180.58 46.138 180.064 46.162C179.56 46.198 179.128 46.216 178.768 46.216C178.432 46.216 177.988 46.198 177.436 46.162C176.884 46.138 176.38 46.084 175.924 46V26.344L176.122 26.128C177.574 26.092 178.936 26.062 180.208 26.038C181.492 26.002 182.77 25.984 184.042 25.984C185.482 25.984 186.814 26.176 188.038 26.56C189.262 26.932 190.24 27.574 190.972 28.486C191.716 29.386 192.088 30.622 192.088 32.194ZM181.558 30.052V34.714C181.978 34.702 182.362 34.696 182.71 34.696C183.07 34.684 183.334 34.678 183.502 34.678C184.582 34.678 185.314 34.444 185.698 33.976C186.082 33.508 186.274 32.962 186.274 32.338C186.274 31.726 186.082 31.198 185.698 30.754C185.314 30.31 184.672 30.088 183.772 30.088C183.34 30.088 182.968 30.082 182.656 30.07C182.344 30.058 181.978 30.052 181.558 30.052Z" fill="white"/>
</svg>
