<svg width="577" height="25" viewBox="0 0 577 25" fill="none" xmlns="http://www.w3.org/2000/svg">
<path d="M19.3488 12.4198C19.3488 13.7404 19.2529 15.0158 19.061 16.246C18.8804 17.465 18.5192 18.605 17.9775 19.6659C17.4357 20.7269 16.6231 21.6749 15.5396 22.5102C15.0204 22.9165 14.394 23.2438 13.6603 23.4921C12.938 23.7404 12.193 23.921 11.4255 24.0339C10.6581 24.1467 9.95827 24.2032 9.32622 24.2032C7.87023 24.2032 6.45375 24.1862 5.07677 24.1524C3.71108 24.1298 2.28895 24.1016 0.810392 24.0677L0.573371 23.8307V1.04282L0.810392 0.805801C2.26638 0.760655 3.68286 0.726795 5.05984 0.704222C6.44811 0.681649 7.87023 0.670362 9.32622 0.670362C9.95827 0.670362 10.6581 0.732438 11.4255 0.856591C12.193 0.969458 12.9436 1.15005 13.6772 1.39835C14.4109 1.64666 15.0317 1.97398 15.5396 2.3803C16.6118 3.21552 17.4188 4.1636 17.9606 5.22455C18.5023 6.27421 18.8691 7.40853 19.061 8.62749C19.2529 9.84646 19.3488 11.1106 19.3488 12.4198ZM13.7788 12.4198C13.7788 11.562 13.7224 10.693 13.6095 9.8126C13.5079 8.92095 13.3048 8.10831 13 7.37467C12.7066 6.62975 12.2608 6.03155 11.6626 5.58008C11.0757 5.11733 10.2969 4.88595 9.32622 4.88595C8.7506 4.88595 8.19755 4.88595 7.66707 4.88595C7.1366 4.88595 6.57226 4.87466 5.97406 4.85209V20.0045C6.57226 19.9932 7.1366 19.9876 7.66707 19.9876C8.19755 19.9876 8.7506 19.9876 9.32622 19.9876C10.2969 19.9876 11.0757 19.7618 11.6626 19.3104C12.2608 18.8476 12.7066 18.2438 13 17.4989C13.3048 16.7426 13.5079 15.9244 13.6095 15.044C13.7224 14.1523 13.7788 13.2776 13.7788 12.4198ZM37.2598 19.7506C37.2598 21.3646 37.0058 22.4876 36.4979 23.1196C36.0013 23.7517 35.1548 24.0677 33.9584 24.0677H26.1537C25.1943 24.0677 24.4381 23.7968 23.885 23.2551C23.332 22.702 23.0554 21.9627 23.0554 21.0372V5.52929L23.2417 5.34306H36.6334C36.7124 5.72681 36.7575 6.09363 36.7688 6.44352C36.7801 6.7934 36.7857 7.12636 36.7857 7.44239C36.7857 7.74713 36.7519 8.09138 36.6842 8.47512C36.6277 8.85887 36.5261 9.24826 36.3794 9.6433H30.4539C29.9798 9.6433 29.2631 9.63766 28.3038 9.62637C28.3151 9.97626 28.3207 10.2754 28.3207 10.5237C28.332 10.772 28.3376 11.0711 28.3376 11.421V12.5383C29.2744 12.5271 29.9798 12.5214 30.4539 12.5214H34.788C34.9009 12.8262 34.9742 13.176 35.0081 13.5711C35.0532 13.9548 35.0758 14.2821 35.0758 14.553C35.0758 14.869 35.0532 15.2246 35.0081 15.6196C34.9742 16.0034 34.9009 16.3533 34.788 16.6693H30.4539C30.2394 16.6693 29.9403 16.6693 29.5566 16.6693C29.1728 16.6693 28.7665 16.6693 28.3376 16.6693V17.7697C28.3376 18.1873 28.332 18.5316 28.3207 18.8025C28.3094 19.0733 28.3038 19.412 28.3038 19.8183V19.8521C28.6988 19.8296 29.0656 19.807 29.4042 19.7844C29.7428 19.7618 30.1548 19.7506 30.6401 19.7506H37.2598ZM46.2943 24C45.8316 24.079 45.3576 24.1298 44.8722 24.1524C44.3982 24.1862 43.9806 24.2032 43.6194 24.2032C43.2582 24.2032 42.835 24.1862 42.3496 24.1524C41.8756 24.1298 41.4072 24.079 40.9444 24V5.49543L41.1307 5.34306H54.2515C54.3305 5.6478 54.3869 5.99205 54.4208 6.3758C54.4659 6.75954 54.4885 7.06993 54.4885 7.30695C54.4885 8.07445 54.2853 8.67264 53.879 9.10154C53.4727 9.53043 52.7955 9.74488 51.8474 9.74488H48.2413C47.9027 9.74488 47.5697 9.74488 47.2424 9.74488C46.9264 9.73359 46.6104 9.72795 46.2943 9.72795C46.2943 9.96497 46.2943 10.2076 46.2943 10.4559C46.2943 10.693 46.2943 10.93 46.2943 11.167V12.9277C46.4298 12.9277 46.5596 12.9277 46.6837 12.9277H52.3215C52.423 13.2212 52.4908 13.5654 52.5246 13.9605C52.5698 14.3442 52.5923 14.6715 52.5923 14.9424C52.5923 15.2472 52.5698 15.6083 52.5246 16.0259C52.4908 16.4435 52.423 16.8047 52.3215 17.1095H46.6837C46.5596 17.1095 46.4298 17.1095 46.2943 17.1095V24ZM57.5454 5.34306C57.9743 5.25277 58.4597 5.19633 59.0014 5.17376C59.5432 5.15119 59.9721 5.1399 60.2881 5.1399C60.6267 5.1399 61.033 5.15119 61.5071 5.17376C61.9924 5.19633 62.4608 5.25277 62.9123 5.34306V24C62.4608 24.079 61.9924 24.1298 61.5071 24.1524C61.033 24.1862 60.6267 24.2032 60.2881 24.2032C59.9721 24.2032 59.5432 24.1862 59.0014 24.1524C58.4597 24.1298 57.9743 24.079 57.5454 24V5.34306ZM74.3964 15.4842C74.3174 15.3036 74.1933 15.0214 74.024 14.6377C73.8547 14.2426 73.6741 13.8194 73.4822 13.3679C73.2903 12.9164 73.1097 12.4932 72.9404 12.0982C72.7824 11.7031 72.6583 11.4153 72.568 11.2347L72.4495 11.2855C72.4946 12.1772 72.5398 13.1422 72.5849 14.1806C72.63 15.2076 72.6639 16.1501 72.6865 17.0079C72.7203 17.8544 72.7373 18.4695 72.7373 18.8533V24C72.2971 24.079 71.8738 24.1298 71.4675 24.1524C71.0612 24.1862 70.6831 24.2032 70.3332 24.2032C70.0172 24.2032 69.6221 24.1862 69.1481 24.1524C68.6853 24.1298 68.2452 24.079 67.8275 24V5.46157C68.2452 5.35999 68.7643 5.28098 69.3851 5.22455C70.0059 5.16812 70.4856 5.1399 70.8242 5.1399C71.1741 5.1399 71.6707 5.15119 72.314 5.17376C72.9574 5.18505 73.4878 5.24148 73.9054 5.34306L77.884 13.825C77.963 13.983 78.0928 14.2709 78.2734 14.6885C78.4653 15.1061 78.6684 15.5632 78.8829 16.0598C79.0973 16.5564 79.2949 17.0248 79.4754 17.465C79.6673 17.8939 79.8084 18.2099 79.8987 18.4131L80.0511 18.3792C80.0059 17.6343 79.9438 16.7652 79.8648 15.772C79.7971 14.7788 79.735 13.8194 79.6786 12.8939C79.6222 11.9684 79.5939 11.2291 79.5939 10.676V8.03494C79.5939 6.83855 79.8535 6.05412 80.3727 5.68166C80.8919 5.29791 81.6651 5.10604 82.6922 5.10604H84.4359L84.6391 5.34306V23.8984C84.1989 24 83.6685 24.0734 83.0477 24.1185C82.4269 24.1749 81.9529 24.2032 81.6256 24.2032C81.3998 24.2032 81.0894 24.1975 80.6944 24.1862C80.2994 24.1749 79.893 24.158 79.4754 24.1354C79.0691 24.1129 78.7305 24.0677 78.4596 24L74.3964 15.4842ZM89.5869 5.34306C90.0158 5.25277 90.5011 5.19633 91.0429 5.17376C91.5847 5.15119 92.0136 5.1399 92.3296 5.1399C92.6682 5.1399 93.0745 5.15119 93.5486 5.17376C94.0339 5.19633 94.5023 5.25277 94.9538 5.34306V24C94.5023 24.079 94.0339 24.1298 93.5486 24.1524C93.0745 24.1862 92.6682 24.2032 92.3296 24.2032C92.0136 24.2032 91.5847 24.1862 91.0429 24.1524C90.5011 24.1298 90.0158 24.079 89.5869 24V5.34306ZM115.072 11.0146C115.072 11.8837 114.875 12.6569 114.48 13.3341C114.085 14.0113 113.588 14.5699 112.99 15.0101C112.403 15.4503 111.816 15.7325 111.229 15.8566C111.839 16.0598 112.341 16.3702 112.736 16.7878C113.142 17.2054 113.492 17.7415 113.786 18.3961L114.666 20.4108C114.869 20.8736 115.1 21.3025 115.36 21.6975C115.62 22.0813 115.907 22.4086 116.223 22.6795C115.896 23.0858 115.405 23.4639 114.751 23.8138C114.096 24.1524 113.385 24.3217 112.617 24.3217C111.861 24.3217 111.246 24.1411 110.772 23.7799C110.309 23.4074 109.903 22.8149 109.553 22.0023L108.063 18.5824C107.826 18.0293 107.533 17.6964 107.183 17.5835C106.833 17.4706 106.381 17.4142 105.828 17.4142H105.168V24C104.717 24.079 104.248 24.1298 103.763 24.1524C103.289 24.1862 102.883 24.2032 102.544 24.2032C102.228 24.2032 101.81 24.1862 101.291 24.1524C100.772 24.1298 100.298 24.079 99.869 24V5.51236L100.055 5.3092C101.421 5.27534 102.702 5.24712 103.898 5.22455C105.106 5.19069 106.308 5.17376 107.504 5.17376C108.859 5.17376 110.112 5.35435 111.263 5.71552C112.414 6.06541 113.334 6.66925 114.023 7.52704C114.722 8.37354 115.072 9.53608 115.072 11.0146ZM105.168 8.99996V13.3848C105.563 13.3736 105.924 13.3679 106.252 13.3679C106.59 13.3566 106.839 13.351 106.997 13.351C108.012 13.351 108.701 13.1309 109.062 12.6907C109.423 12.2505 109.604 11.737 109.604 11.1501C109.604 10.5745 109.423 10.0778 109.062 9.66023C108.701 9.24262 108.097 9.03382 107.251 9.03382C106.844 9.03382 106.494 9.02817 106.201 9.01689C105.907 9.0056 105.563 8.99996 105.168 8.99996ZM133.376 11.8781C133.003 11.009 132.653 10.1568 132.326 9.32163C131.999 8.48641 131.717 7.74713 131.48 7.10379L131.344 7.15458C131.434 8.11395 131.508 9.20312 131.564 10.4221C131.632 11.6298 131.683 12.8374 131.717 14.0451C131.75 15.2528 131.767 16.325 131.767 17.2618V24C131.327 24.079 130.893 24.1298 130.464 24.1524C130.035 24.1862 129.651 24.2032 129.313 24.2032C128.985 24.2032 128.573 24.1862 128.077 24.1524C127.591 24.1298 127.14 24.079 126.722 24V0.975103C127.14 0.873522 127.693 0.800159 128.381 0.755012C129.07 0.698579 129.583 0.670362 129.922 0.670362C130.272 0.670362 130.735 0.687291 131.31 0.721151C131.886 0.743725 132.473 0.794516 133.071 0.873522L138.285 12.9616C138.714 13.9548 139.109 14.9029 139.471 15.8058C139.843 16.7088 140.153 17.4706 140.402 18.0914L140.537 18.0406C140.447 16.991 140.368 15.8397 140.3 14.5869C140.244 13.3341 140.199 12.1264 140.165 10.9638C140.131 9.80131 140.114 8.83066 140.114 8.05187V3.92093C140.114 2.71326 140.357 1.86675 140.842 1.38142C141.339 0.896095 142.106 0.653431 143.144 0.653431H144.905L145.125 0.873522V23.8984C144.696 24 144.132 24.0734 143.432 24.1185C142.744 24.1749 142.219 24.2032 141.858 24.2032C141.508 24.2032 141.045 24.1862 140.469 24.1524C139.894 24.1298 139.313 24.079 138.726 24L133.376 11.8781ZM148.792 14.7054C148.792 11.6806 149.571 9.28212 151.128 7.51011C152.697 5.72681 154.983 4.83516 157.985 4.83516C161.032 4.83516 163.329 5.72117 164.875 7.49318C166.433 9.25391 167.212 11.658 167.212 14.7054C167.212 17.7528 166.433 20.1512 164.875 21.9007C163.318 23.6388 161.021 24.5079 157.985 24.5079C154.938 24.5079 152.641 23.6275 151.094 21.8668C149.559 20.1061 148.792 17.7189 148.792 14.7054ZM154.26 14.7054C154.26 15.3487 154.3 16.0146 154.379 16.7031C154.469 17.3803 154.638 18.0124 154.887 18.5993C155.146 19.1862 155.524 19.6659 156.021 20.0384C156.518 20.3995 157.178 20.5801 158.002 20.5801C158.826 20.5801 159.486 20.3995 159.983 20.0384C160.479 19.6659 160.852 19.1862 161.1 18.5993C161.36 18.0124 161.529 17.3803 161.608 16.7031C161.698 16.0146 161.743 15.3487 161.743 14.7054C161.743 14.0508 161.698 13.3792 161.608 12.6907C161.529 11.9909 161.36 11.3476 161.1 10.7607C160.852 10.1625 160.479 9.6828 159.983 9.32163C159.486 8.94917 158.826 8.76294 158.002 8.76294C157.178 8.76294 156.518 8.94917 156.021 9.32163C155.524 9.6828 155.146 10.1625 154.887 10.7607C154.638 11.3476 154.469 11.9909 154.379 12.6907C154.3 13.3792 154.26 14.0508 154.26 14.7054ZM171.717 5.34306C172.259 5.24148 172.852 5.17376 173.495 5.1399C174.138 5.09475 174.68 5.07218 175.12 5.07218C175.538 5.07218 176.08 5.09475 176.746 5.1399C177.411 5.17376 177.97 5.24148 178.422 5.34306L180.081 12.6907C180.182 13.1309 180.301 13.7291 180.436 14.4853C180.572 15.2302 180.707 16.0316 180.843 16.8894H181.063C181.334 15.0835 181.588 13.6839 181.825 12.6907L183.467 5.34306C183.997 5.24148 184.579 5.17376 185.211 5.1399C185.843 5.09475 186.368 5.07218 186.785 5.07218C187.225 5.07218 187.773 5.09475 188.427 5.1399C189.082 5.17376 189.669 5.24148 190.188 5.34306L192.101 23.9323C191.368 24.1129 190.482 24.2032 189.443 24.2032C189.048 24.2032 188.625 24.1862 188.173 24.1524C187.733 24.1185 187.338 24.0677 186.988 24L186.497 18.0068C186.441 17.2393 186.407 16.3984 186.396 15.4842C186.384 14.5699 186.384 13.6783 186.396 12.8092C186.407 11.9289 186.407 11.167 186.396 10.5237H186.193L183.704 21.1388C183.32 21.2065 182.852 21.2573 182.299 21.2912C181.746 21.3138 181.288 21.325 180.927 21.325C180.555 21.325 180.092 21.3138 179.539 21.2912C178.997 21.2573 178.546 21.2065 178.185 21.1388L175.713 10.5237H175.476C175.476 11.1783 175.476 11.9401 175.476 12.8092C175.487 13.6783 175.487 14.5699 175.476 15.4842C175.465 16.3984 175.425 17.2505 175.357 18.0406L174.917 24C174.556 24.0677 174.161 24.1185 173.732 24.1524C173.314 24.1862 172.908 24.2032 172.513 24.2032C171.463 24.2032 170.56 24.1129 169.804 23.9323L171.717 5.34306ZM196.444 5.3092C197.031 5.28663 197.737 5.26405 198.561 5.24148C199.396 5.21891 200.254 5.20198 201.134 5.19069C202.014 5.1794 202.821 5.17376 203.555 5.17376C204.943 5.17376 206.185 5.33177 207.279 5.6478C208.386 5.96383 209.255 6.48866 209.887 7.2223C210.519 7.94465 210.835 8.91531 210.835 10.1343C210.835 10.9243 210.615 11.6749 210.175 12.386C209.746 13.097 209.153 13.5993 208.397 13.8927C209.368 14.1975 210.18 14.7957 210.835 15.6873C211.489 16.5677 211.817 17.5214 211.817 18.5485C211.817 19.9932 211.478 21.1219 210.801 21.9345C210.135 22.7359 209.21 23.3059 208.024 23.6445C206.851 23.9718 205.507 24.1354 203.995 24.1354C202.833 24.1354 201.625 24.1242 200.372 24.1016C199.119 24.0903 197.81 24.0677 196.444 24.0339L196.258 23.8646V5.51236L196.444 5.3092ZM203.318 8.81373C203.103 8.81373 202.816 8.81373 202.454 8.81373C202.093 8.81373 201.749 8.80244 201.422 8.77987V12.4198H203.284C204.187 12.4198 204.802 12.2336 205.129 11.8611C205.457 11.4887 205.62 11.0711 205.62 10.6083C205.62 10.1568 205.457 9.74488 205.129 9.37242C204.813 8.99996 204.21 8.81373 203.318 8.81373ZM201.422 20.4955C201.873 20.4729 202.313 20.4616 202.742 20.4616C203.171 20.4616 203.561 20.4616 203.91 20.4616C204.937 20.4616 205.615 20.2302 205.942 19.7675C206.281 19.2934 206.45 18.8081 206.45 18.3115C206.45 17.7697 206.247 17.2618 205.84 16.7878C205.445 16.3137 204.712 16.0767 203.64 16.0767H201.422V20.4955ZM230.574 11.0146C230.574 11.8837 230.376 12.6569 229.981 13.3341C229.586 14.0113 229.089 14.5699 228.491 15.0101C227.904 15.4503 227.317 15.7325 226.731 15.8566C227.34 16.0598 227.842 16.3702 228.237 16.7878C228.644 17.2054 228.994 17.7415 229.287 18.3961L230.167 20.4108C230.371 20.8736 230.602 21.3025 230.861 21.6975C231.121 22.0813 231.409 22.4086 231.725 22.6795C231.398 23.0858 230.907 23.4639 230.252 23.8138C229.597 24.1524 228.886 24.3217 228.119 24.3217C227.363 24.3217 226.747 24.1411 226.273 23.7799C225.811 23.4074 225.404 22.8149 225.054 22.0023L223.565 18.5824C223.328 18.0293 223.034 17.6964 222.684 17.5835C222.334 17.4706 221.883 17.4142 221.33 17.4142H220.67V24C220.218 24.079 219.75 24.1298 219.264 24.1524C218.79 24.1862 218.384 24.2032 218.045 24.2032C217.729 24.2032 217.312 24.1862 216.793 24.1524C216.273 24.1298 215.799 24.079 215.37 24V5.51236L215.557 5.3092C216.922 5.27534 218.203 5.24712 219.4 5.22455C220.608 5.19069 221.81 5.17376 223.006 5.17376C224.36 5.17376 225.613 5.35435 226.764 5.71552C227.916 6.06541 228.836 6.66925 229.524 7.52704C230.224 8.37354 230.574 9.53608 230.574 11.0146ZM220.67 8.99996V13.3848C221.065 13.3736 221.426 13.3679 221.753 13.3679C222.092 13.3566 222.34 13.351 222.498 13.351C223.514 13.351 224.202 13.1309 224.564 12.6907C224.925 12.2505 225.105 11.737 225.105 11.1501C225.105 10.5745 224.925 10.0778 224.564 9.66023C224.202 9.24262 223.598 9.03382 222.752 9.03382C222.346 9.03382 221.996 9.02817 221.702 9.01689C221.409 9.0056 221.065 8.99996 220.67 8.99996ZM248.853 19.7506C248.853 21.3646 248.599 22.4876 248.091 23.1196C247.594 23.7517 246.748 24.0677 245.551 24.0677H237.746C236.787 24.0677 236.031 23.7968 235.478 23.2551C234.925 22.702 234.648 21.9627 234.648 21.0372V5.52929L234.835 5.34306H248.226C248.305 5.72681 248.35 6.09363 248.362 6.44352C248.373 6.7934 248.379 7.12636 248.379 7.44239C248.379 7.74713 248.345 8.09138 248.277 8.47512C248.221 8.85887 248.119 9.24826 247.972 9.6433H242.047C241.573 9.6433 240.856 9.63766 239.897 9.62637C239.908 9.97626 239.914 10.2754 239.914 10.5237C239.925 10.772 239.93 11.0711 239.93 11.421V12.5383C240.867 12.5271 241.573 12.5214 242.047 12.5214H246.381C246.494 12.8262 246.567 13.176 246.601 13.5711C246.646 13.9548 246.669 14.2821 246.669 14.553C246.669 14.869 246.646 15.2246 246.601 15.6196C246.567 16.0034 246.494 16.3533 246.381 16.6693H242.047C241.832 16.6693 241.533 16.6693 241.149 16.6693C240.766 16.6693 240.359 16.6693 239.93 16.6693V17.7697C239.93 18.1873 239.925 18.5316 239.914 18.8025C239.902 19.0733 239.897 19.412 239.897 19.8183V19.8521C240.292 19.8296 240.658 19.807 240.997 19.7844C241.336 19.7618 241.748 19.7506 242.233 19.7506H248.853ZM250.726 22.5948C250.726 22.1659 250.81 21.6919 250.98 21.1727C251.149 20.6422 251.38 20.1512 251.674 19.6998C251.967 19.2483 252.289 18.9097 252.639 18.684C253.474 19.1354 254.405 19.5248 255.432 19.8521C256.459 20.1682 257.464 20.3262 258.446 20.3262C259.078 20.3262 259.597 20.1964 260.003 19.9368C260.421 19.6772 260.63 19.3104 260.63 18.8363C260.63 18.5316 260.511 18.2551 260.274 18.0068C260.037 17.7472 259.625 17.5101 259.038 17.2957L256.228 16.1952C255.359 15.8792 254.546 15.4842 253.79 15.0101C253.034 14.5361 252.424 13.9548 251.962 13.2663C251.499 12.5778 251.268 11.7539 251.268 10.7945C251.268 9.03382 251.945 7.6004 253.299 6.49431C254.654 5.38821 256.476 4.83516 258.768 4.83516C260.066 4.83516 261.352 4.98753 262.628 5.29227C263.914 5.58573 264.992 5.92433 265.861 6.30807C265.861 7.07557 265.703 7.83178 265.387 8.5767C265.071 9.32163 264.637 9.90854 264.084 10.3374C263.248 9.96497 262.34 9.65459 261.358 9.40628C260.376 9.14668 259.49 9.01689 258.7 9.01689C258.113 9.01689 257.661 9.14104 257.345 9.38935C257.041 9.63766 256.888 9.93675 256.888 10.2866C256.888 10.614 257.041 10.8623 257.345 11.0316C257.65 11.2009 258.028 11.3702 258.48 11.5395L261.273 12.6061C262.831 13.1704 264.067 13.9492 264.981 14.9424C265.906 15.9244 266.369 17.1377 266.369 18.5824C266.369 19.8578 266.025 20.9357 265.336 21.816C264.659 22.6964 263.728 23.3623 262.543 23.8138C261.369 24.2652 260.043 24.4966 258.564 24.5079C256.804 24.5079 255.235 24.3047 253.858 23.8984C252.492 23.4921 251.448 23.0576 250.726 22.5948ZM294.12 14.7054C294.12 17.8657 293.381 20.2302 291.903 21.7991C290.424 23.3567 288.093 24.1354 284.91 24.1354C283.567 24.1354 282.292 24.1242 281.084 24.1016C279.888 24.0903 278.624 24.0677 277.292 24.0339L277.106 23.8307V5.51236L277.292 5.3092C278.635 5.27534 279.905 5.24712 281.101 5.22455C282.298 5.19069 283.567 5.17376 284.91 5.17376C288.059 5.17376 290.379 5.99205 291.869 7.62862C293.37 9.25391 294.12 11.6128 294.12 14.7054ZM288.669 14.7054C288.669 13.8815 288.584 13.0575 288.415 12.2336C288.246 11.3984 287.89 10.6986 287.348 10.1343C286.807 9.56994 285.994 9.28777 284.91 9.28777C284.414 9.28777 283.985 9.28777 283.624 9.28777C283.274 9.27648 282.868 9.26519 282.405 9.25391V20.0892C282.89 20.0892 283.302 20.0835 283.641 20.0722C283.991 20.0609 284.414 20.0553 284.91 20.0553C285.994 20.0553 286.807 19.7788 287.348 19.2257C287.89 18.6614 288.246 17.9673 288.415 17.1433C288.584 16.3194 288.669 15.5067 288.669 14.7054ZM311.844 19.7506C311.844 21.3646 311.59 22.4876 311.083 23.1196C310.586 23.7517 309.739 24.0677 308.543 24.0677H300.738C299.779 24.0677 299.023 23.7968 298.47 23.2551C297.917 22.702 297.64 21.9627 297.64 21.0372V5.52929L297.826 5.34306H311.218C311.297 5.72681 311.342 6.09363 311.353 6.44352C311.365 6.7934 311.37 7.12636 311.37 7.44239C311.37 7.74713 311.336 8.09138 311.269 8.47512C311.212 8.85887 311.111 9.24826 310.964 9.6433H305.038C304.564 9.6433 303.848 9.63766 302.888 9.62637C302.9 9.97626 302.905 10.2754 302.905 10.5237C302.917 10.772 302.922 11.0711 302.922 11.421V12.5383C303.859 12.5271 304.564 12.5214 305.038 12.5214H309.373C309.485 12.8262 309.559 13.176 309.593 13.5711C309.638 13.9548 309.66 14.2821 309.66 14.553C309.66 14.869 309.638 15.2246 309.593 15.6196C309.559 16.0034 309.485 16.3533 309.373 16.6693H305.038C304.824 16.6693 304.525 16.6693 304.141 16.6693C303.757 16.6693 303.351 16.6693 302.922 16.6693V17.7697C302.922 18.1873 302.917 18.5316 302.905 18.8025C302.894 19.0733 302.888 19.412 302.888 19.8183V19.8521C303.283 19.8296 303.65 19.807 303.989 19.7844C304.327 19.7618 304.739 19.7506 305.225 19.7506H311.844ZM339.696 8.03494C339.696 9.11847 339.487 10.0835 339.069 10.93C338.652 11.7652 338.127 12.465 337.495 13.0293C336.863 13.5824 336.225 13.983 335.582 14.2313C336.214 14.4571 336.739 14.8465 337.156 15.3995C337.585 15.9526 337.93 16.6016 338.189 17.3465L339.205 20.2077C339.589 21.3025 340.147 22.1377 340.881 22.7133C340.531 23.1648 340.023 23.5429 339.357 23.8476C338.691 24.1524 337.997 24.3047 337.275 24.3047C336.304 24.3047 335.599 24.0451 335.159 23.526C334.718 22.9955 334.318 22.2111 333.957 21.1727L332.738 17.6343C332.546 17.0474 332.247 16.5508 331.84 16.1444C331.434 15.7268 330.779 15.518 329.876 15.518H328.471V24C328.02 24.079 327.551 24.1298 327.066 24.1524C326.581 24.1862 326.152 24.2032 325.779 24.2032C325.452 24.2032 325.034 24.1862 324.527 24.1524C324.019 24.1298 323.545 24.079 323.104 24V1.04282L323.341 0.805801C324.786 0.771942 326.174 0.743725 327.506 0.721151C328.849 0.687291 330.164 0.670362 331.451 0.670362C333.02 0.670362 334.425 0.929956 335.667 1.44915C336.919 1.96833 337.901 2.76969 338.612 3.85321C339.335 4.93674 339.696 6.33065 339.696 8.03494ZM328.471 4.73358V11.3702C329.002 11.3476 329.498 11.3307 329.961 11.3194C330.435 11.3081 330.779 11.3024 330.994 11.3024C331.852 11.3024 332.506 11.1501 332.958 10.8453C333.42 10.5293 333.737 10.123 333.906 9.62637C334.086 9.12975 334.177 8.59928 334.177 8.03494C334.177 7.44803 334.086 6.90627 333.906 6.40966C333.737 5.91304 333.42 5.518 332.958 5.22455C332.506 4.91981 331.852 4.76744 330.994 4.76744C330.644 4.76744 330.255 4.76744 329.826 4.76744C329.408 4.76744 328.957 4.75615 328.471 4.73358ZM348.541 20.7325C348.361 20.7325 348.186 20.7325 348.017 20.7325C347.847 20.7212 347.678 20.7099 347.509 20.6986L346.459 24C346.132 24.079 345.776 24.1354 345.392 24.1693C345.009 24.2144 344.608 24.237 344.19 24.237C343.739 24.237 343.282 24.2032 342.819 24.1354C342.368 24.0677 341.995 23.9718 341.702 23.8476L341.515 23.5598L348.101 5.34306C348.688 5.25277 349.252 5.19633 349.794 5.17376C350.347 5.15119 350.849 5.1399 351.301 5.1399C351.719 5.1399 352.17 5.15119 352.655 5.17376C353.141 5.19633 353.688 5.25277 354.298 5.34306L360.697 23.746C360.302 23.9266 359.8 24.0621 359.19 24.1524C358.581 24.254 358.09 24.3047 357.717 24.3047C357.097 24.3047 356.498 24.1862 355.923 23.9492C355.347 23.7122 354.913 23.0858 354.619 22.07L354.196 20.6986C354.015 20.7099 353.84 20.7212 353.671 20.7325C353.502 20.7325 353.321 20.7325 353.129 20.7325H348.541ZM349.219 15.3826L348.846 16.5508C349.015 16.5395 349.185 16.5338 349.354 16.5338C349.523 16.5226 349.698 16.5169 349.879 16.5169H351.995C352.164 16.5169 352.317 16.5226 352.452 16.5338C352.599 16.5338 352.746 16.5395 352.892 16.5508L352.537 15.3995C352.277 14.5079 352.018 13.5146 351.758 12.4198C351.498 11.325 351.261 10.3318 351.047 9.44014H350.844C350.607 10.2979 350.342 11.2799 350.048 12.386C349.766 13.4921 349.489 14.4909 349.219 15.3826ZM364.462 5.34306C365.004 5.24148 365.597 5.17376 366.24 5.1399C366.883 5.09475 367.425 5.07218 367.865 5.07218C368.283 5.07218 368.825 5.09475 369.49 5.1399C370.156 5.17376 370.715 5.24148 371.167 5.34306L372.826 12.6907C372.927 13.1309 373.046 13.7291 373.181 14.4853C373.317 15.2302 373.452 16.0316 373.588 16.8894H373.808C374.079 15.0835 374.332 13.6839 374.569 12.6907L376.212 5.34306C376.742 5.24148 377.323 5.17376 377.956 5.1399C378.588 5.09475 379.112 5.07218 379.53 5.07218C379.97 5.07218 380.518 5.09475 381.172 5.1399C381.827 5.17376 382.414 5.24148 382.933 5.34306L384.846 23.9323C384.112 24.1129 383.226 24.2032 382.188 24.2032C381.793 24.2032 381.37 24.1862 380.918 24.1524C380.478 24.1185 380.083 24.0677 379.733 24L379.242 18.0068C379.186 17.2393 379.152 16.3984 379.141 15.4842C379.129 14.5699 379.129 13.6783 379.141 12.8092C379.152 11.9289 379.152 11.167 379.141 10.5237H378.937L376.449 21.1388C376.065 21.2065 375.597 21.2573 375.044 21.2912C374.49 21.3138 374.033 21.325 373.672 21.325C373.3 21.325 372.837 21.3138 372.284 21.2912C371.742 21.2573 371.291 21.2065 370.93 21.1388L368.458 10.5237H368.221C368.221 11.1783 368.221 11.9401 368.221 12.8092C368.232 13.6783 368.232 14.5699 368.221 15.4842C368.209 16.3984 368.17 17.2505 368.102 18.0406L367.662 24C367.301 24.0677 366.906 24.1185 366.477 24.1524C366.059 24.1862 365.653 24.2032 365.258 24.2032C364.208 24.2032 363.305 24.1129 362.549 23.9323L364.462 5.34306ZM393.743 20.7325C393.563 20.7325 393.388 20.7325 393.218 20.7325C393.049 20.7212 392.88 20.7099 392.711 20.6986L391.661 24C391.334 24.079 390.978 24.1354 390.594 24.1693C390.211 24.2144 389.81 24.237 389.392 24.237C388.941 24.237 388.484 24.2032 388.021 24.1354C387.569 24.0677 387.197 23.9718 386.904 23.8476L386.717 23.5598L393.303 5.34306C393.89 5.25277 394.454 5.19633 394.996 5.17376C395.549 5.15119 396.051 5.1399 396.503 5.1399C396.921 5.1399 397.372 5.15119 397.857 5.17376C398.343 5.19633 398.89 5.25277 399.5 5.34306L405.899 23.746C405.504 23.9266 405.002 24.0621 404.392 24.1524C403.783 24.254 403.292 24.3047 402.919 24.3047C402.299 24.3047 401.7 24.1862 401.125 23.9492C400.549 23.7122 400.115 23.0858 399.821 22.07L399.398 20.6986C399.217 20.7099 399.042 20.7212 398.873 20.7325C398.704 20.7325 398.523 20.7325 398.331 20.7325H393.743ZM394.421 15.3826L394.048 16.5508C394.217 16.5395 394.387 16.5338 394.556 16.5338C394.725 16.5226 394.9 16.5169 395.081 16.5169H397.197C397.366 16.5169 397.519 16.5226 397.654 16.5338C397.801 16.5338 397.948 16.5395 398.094 16.5508L397.739 15.3995C397.479 14.5079 397.22 13.5146 396.96 12.4198C396.7 11.325 396.463 10.3318 396.249 9.44014H396.046C395.809 10.2979 395.544 11.2799 395.25 12.386C394.968 13.4921 394.691 14.4909 394.421 15.3826ZM406.668 22.5948C406.668 22.1659 406.752 21.6919 406.922 21.1727C407.091 20.6422 407.322 20.1512 407.616 19.6998C407.909 19.2483 408.231 18.9097 408.581 18.684C409.416 19.1354 410.347 19.5248 411.374 19.8521C412.401 20.1682 413.406 20.3262 414.388 20.3262C415.02 20.3262 415.539 20.1964 415.945 19.9368C416.363 19.6772 416.572 19.3104 416.572 18.8363C416.572 18.5316 416.453 18.2551 416.216 18.0068C415.979 17.7472 415.567 17.5101 414.98 17.2957L412.17 16.1952C411.301 15.8792 410.488 15.4842 409.732 15.0101C408.976 14.5361 408.366 13.9548 407.903 13.2663C407.441 12.5778 407.209 11.7539 407.209 10.7945C407.209 9.03382 407.887 7.6004 409.241 6.49431C410.595 5.38821 412.418 4.83516 414.709 4.83516C416.007 4.83516 417.294 4.98753 418.569 5.29227C419.856 5.58573 420.934 5.92433 421.803 6.30807C421.803 7.07557 421.645 7.83178 421.329 8.5767C421.013 9.32163 420.578 9.90854 420.025 10.3374C419.19 9.96497 418.282 9.65459 417.3 9.40628C416.318 9.14668 415.432 9.01689 414.642 9.01689C414.055 9.01689 413.603 9.14104 413.287 9.38935C412.982 9.63766 412.83 9.93675 412.83 10.2866C412.83 10.614 412.982 10.8623 413.287 11.0316C413.592 11.2009 413.97 11.3702 414.422 11.5395L417.215 12.6061C418.773 13.1704 420.008 13.9492 420.923 14.9424C421.848 15.9244 422.311 17.1377 422.311 18.5824C422.311 19.8578 421.967 20.9357 421.278 21.816C420.601 22.6964 419.67 23.3623 418.485 23.8138C417.311 24.2652 415.985 24.4966 414.506 24.5079C412.745 24.5079 411.177 24.3047 409.8 23.8984C408.434 23.4921 407.39 23.0576 406.668 22.5948ZM447.878 11.7426C447.878 13.2099 447.545 14.4289 446.879 15.3995C446.225 16.3589 445.322 17.0756 444.171 17.5496C443.019 18.0124 441.71 18.2438 440.243 18.2438H438.397V24C437.946 24.079 437.483 24.1298 437.009 24.1524C436.535 24.1862 436.129 24.2032 435.79 24.2032C435.474 24.2032 435.045 24.1862 434.504 24.1524C433.962 24.1298 433.476 24.079 433.048 24V5.51236L433.234 5.3092C434.148 5.28663 435.248 5.25841 436.535 5.22455C437.822 5.19069 439.058 5.17376 440.243 5.17376C441.721 5.17376 443.036 5.39949 444.188 5.85096C445.339 6.30243 446.242 7.01349 446.896 7.98415C447.551 8.95481 447.878 10.2076 447.878 11.7426ZM438.397 9.1354V14.316C438.702 14.3047 438.979 14.2991 439.227 14.2991C439.475 14.2878 439.662 14.2821 439.786 14.2821C440.531 14.2821 441.089 14.1467 441.462 13.8758C441.846 13.5936 442.099 13.255 442.224 12.86C442.348 12.4537 442.41 12.0699 442.41 11.7088C442.41 11.3702 442.348 11.0033 442.224 10.6083C442.099 10.2133 441.846 9.87468 441.462 9.59251C441.089 9.31034 440.531 9.16926 439.786 9.16926C439.504 9.16926 439.3 9.16926 439.176 9.16926C439.052 9.15797 438.792 9.14668 438.397 9.1354ZM449.764 14.7054C449.764 11.6806 450.542 9.28212 452.1 7.51011C453.669 5.72681 455.954 4.83516 458.957 4.83516C462.004 4.83516 464.301 5.72117 465.847 7.49318C467.405 9.25391 468.184 11.658 468.184 14.7054C468.184 17.7528 467.405 20.1512 465.847 21.9007C464.29 23.6388 461.993 24.5079 458.957 24.5079C455.909 24.5079 453.612 23.6275 452.066 21.8668C450.531 20.1061 449.764 17.7189 449.764 14.7054ZM455.232 14.7054C455.232 15.3487 455.272 16.0146 455.351 16.7031C455.441 17.3803 455.61 18.0124 455.858 18.5993C456.118 19.1862 456.496 19.6659 456.993 20.0384C457.489 20.3995 458.15 20.5801 458.974 20.5801C459.797 20.5801 460.458 20.3995 460.954 20.0384C461.451 19.6659 461.823 19.1862 462.072 18.5993C462.331 18.0124 462.501 17.3803 462.58 16.7031C462.67 16.0146 462.715 15.3487 462.715 14.7054C462.715 14.0508 462.67 13.3792 462.58 12.6907C462.501 11.9909 462.331 11.3476 462.072 10.7607C461.823 10.1625 461.451 9.6828 460.954 9.32163C460.458 8.94917 459.797 8.76294 458.974 8.76294C458.15 8.76294 457.489 8.94917 456.993 9.32163C456.496 9.6828 456.118 10.1625 455.858 10.7607C455.61 11.3476 455.441 11.9909 455.351 12.6907C455.272 13.3792 455.232 14.0508 455.232 14.7054ZM486.872 11.0146C486.872 11.8837 486.675 12.6569 486.28 13.3341C485.885 14.0113 485.388 14.5699 484.79 15.0101C484.203 15.4503 483.616 15.7325 483.029 15.8566C483.639 16.0598 484.141 16.3702 484.536 16.7878C484.942 17.2054 485.292 17.7415 485.586 18.3961L486.466 20.4108C486.669 20.8736 486.901 21.3025 487.16 21.6975C487.42 22.0813 487.708 22.4086 488.024 22.6795C487.696 23.0858 487.205 23.4639 486.551 23.8138C485.896 24.1524 485.185 24.3217 484.418 24.3217C483.661 24.3217 483.046 24.1411 482.572 23.7799C482.109 23.4074 481.703 22.8149 481.353 22.0023L479.863 18.5824C479.626 18.0293 479.333 17.6964 478.983 17.5835C478.633 17.4706 478.182 17.4142 477.629 17.4142H476.968V24C476.517 24.079 476.048 24.1298 475.563 24.1524C475.089 24.1862 474.683 24.2032 474.344 24.2032C474.028 24.2032 473.611 24.1862 473.091 24.1524C472.572 24.1298 472.098 24.079 471.669 24V5.51236L471.855 5.3092C473.221 5.27534 474.502 5.24712 475.699 5.22455C476.906 5.19069 478.108 5.17376 479.305 5.17376C480.659 5.17376 481.912 5.35435 483.063 5.71552C484.214 6.06541 485.134 6.66925 485.823 7.52704C486.523 8.37354 486.872 9.53608 486.872 11.0146ZM476.968 8.99996V13.3848C477.363 13.3736 477.725 13.3679 478.052 13.3679C478.39 13.3566 478.639 13.351 478.797 13.351C479.813 13.351 480.501 13.1309 480.862 12.6907C481.223 12.2505 481.404 11.737 481.404 11.1501C481.404 10.5745 481.223 10.0778 480.862 9.66023C480.501 9.24262 479.897 9.03382 479.051 9.03382C478.644 9.03382 478.295 9.02817 478.001 9.01689C477.708 9.0056 477.363 8.99996 476.968 8.99996ZM505.396 8.4074C505.723 7.95594 506.152 7.40853 506.683 6.76519C507.213 6.11056 507.693 5.55186 508.122 5.08911L508.02 4.98753C507.23 5.08911 506.333 5.16247 505.328 5.20762C504.335 5.25277 503.494 5.27534 502.806 5.27534H497.947C497.868 4.95931 497.811 4.65457 497.778 4.36112C497.755 4.05638 497.744 3.75728 497.744 3.46382C497.744 3.00107 497.778 2.56653 497.845 2.16021C497.913 1.75389 498.003 1.32499 498.116 0.873522H513.099C513.336 1.72003 513.506 2.35773 513.607 2.78662C513.72 3.21552 513.788 3.5259 513.81 3.71777C513.833 3.89836 513.844 4.05638 513.844 4.19182C513.844 4.49656 513.799 4.80694 513.709 5.12297C513.63 5.439 513.477 5.76067 513.252 6.08798L505.701 16.4492C505.374 16.9007 504.962 17.4311 504.465 18.0406C503.968 18.6388 503.5 19.1693 503.06 19.632L503.161 19.7336C503.884 19.6772 504.73 19.6264 505.701 19.5813C506.671 19.5248 507.518 19.4966 508.24 19.4966H510.12C510.943 19.4966 511.671 19.4176 512.304 19.2596C512.936 19.1016 513.483 18.9153 513.946 18.7009C514.047 19.0282 514.132 19.412 514.2 19.8521C514.267 20.2923 514.301 20.7212 514.301 21.1388C514.301 22.1095 513.968 22.8318 513.302 23.3059C512.648 23.7686 511.801 24 510.763 24H497.811C497.631 23.1986 497.495 22.5948 497.405 22.1885C497.326 21.7822 497.275 21.4831 497.253 21.2912C497.23 21.088 497.219 20.9074 497.219 20.7494C497.219 20.4221 497.27 20.0835 497.371 19.7336C497.484 19.3724 497.648 19.0451 497.862 18.7517L505.396 8.4074ZM516.194 14.7054C516.194 11.6806 516.973 9.28212 518.531 7.51011C520.099 5.72681 522.385 4.83516 525.387 4.83516C528.435 4.83516 530.732 5.72117 532.278 7.49318C533.835 9.25391 534.614 11.658 534.614 14.7054C534.614 17.7528 533.835 20.1512 532.278 21.9007C530.72 23.6388 528.423 24.5079 525.387 24.5079C522.34 24.5079 520.043 23.6275 518.497 21.8668C516.962 20.1061 516.194 17.7189 516.194 14.7054ZM521.663 14.7054C521.663 15.3487 521.702 16.0146 521.781 16.7031C521.871 17.3803 522.041 18.0124 522.289 18.5993C522.549 19.1862 522.927 19.6659 523.423 20.0384C523.92 20.3995 524.58 20.5801 525.404 20.5801C526.228 20.5801 526.888 20.3995 527.385 20.0384C527.882 19.6659 528.254 19.1862 528.502 18.5993C528.762 18.0124 528.931 17.3803 529.01 16.7031C529.101 16.0146 529.146 15.3487 529.146 14.7054C529.146 14.0508 529.101 13.3792 529.01 12.6907C528.931 11.9909 528.762 11.3476 528.502 10.7607C528.254 10.1625 527.882 9.6828 527.385 9.32163C526.888 8.94917 526.228 8.76294 525.404 8.76294C524.58 8.76294 523.92 8.94917 523.423 9.32163C522.927 9.6828 522.549 10.1625 522.289 10.7607C522.041 11.3476 521.871 11.9909 521.781 12.6907C521.702 13.3792 521.663 14.0508 521.663 14.7054ZM544.669 15.4842C544.59 15.3036 544.466 15.0214 544.296 14.6377C544.127 14.2426 543.946 13.8194 543.755 13.3679C543.563 12.9164 543.382 12.4932 543.213 12.0982C543.055 11.7031 542.931 11.4153 542.84 11.2347L542.722 11.2855C542.767 12.1772 542.812 13.1422 542.857 14.1806C542.902 15.2076 542.936 16.1501 542.959 17.0079C542.993 17.8544 543.01 18.4695 543.01 18.8533V24C542.569 24.079 542.146 24.1298 541.74 24.1524C541.334 24.1862 540.955 24.2032 540.606 24.2032C540.29 24.2032 539.895 24.1862 539.42 24.1524C538.958 24.1298 538.518 24.079 538.1 24V5.46157C538.518 5.35999 539.037 5.28098 539.657 5.22455C540.278 5.16812 540.758 5.1399 541.097 5.1399C541.446 5.1399 541.943 5.15119 542.586 5.17376C543.23 5.18505 543.76 5.24148 544.178 5.34306L548.156 13.825C548.235 13.983 548.365 14.2709 548.546 14.6885C548.738 15.1061 548.941 15.5632 549.155 16.0598C549.37 16.5564 549.567 17.0248 549.748 17.465C549.94 17.8939 550.081 18.2099 550.171 18.4131L550.323 18.3792C550.278 17.6343 550.216 16.7652 550.137 15.772C550.069 14.7788 550.007 13.8194 549.951 12.8939C549.895 11.9684 549.866 11.2291 549.866 10.676V8.03494C549.866 6.83855 550.126 6.05412 550.645 5.68166C551.164 5.29791 551.937 5.10604 552.965 5.10604H554.708L554.911 5.34306V23.8984C554.471 24 553.941 24.0734 553.32 24.1185C552.699 24.1749 552.225 24.2032 551.898 24.2032C551.672 24.2032 551.362 24.1975 550.967 24.1862C550.572 24.1749 550.165 24.158 549.748 24.1354C549.341 24.1129 549.003 24.0677 548.732 24L544.669 15.4842ZM564.532 20.7325C564.351 20.7325 564.177 20.7325 564.007 20.7325C563.838 20.7212 563.669 20.7099 563.499 20.6986L562.45 24C562.122 24.079 561.767 24.1354 561.383 24.1693C560.999 24.2144 560.599 24.237 560.181 24.237C559.73 24.237 559.272 24.2032 558.81 24.1354C558.358 24.0677 557.986 23.9718 557.692 23.8476L557.506 23.5598L564.092 5.34306C564.679 5.25277 565.243 5.19633 565.785 5.17376C566.338 5.15119 566.84 5.1399 567.292 5.1399C567.709 5.1399 568.161 5.15119 568.646 5.17376C569.131 5.19633 569.679 5.25277 570.288 5.34306L576.688 23.746C576.293 23.9266 575.791 24.0621 575.181 24.1524C574.572 24.254 574.081 24.3047 573.708 24.3047C573.087 24.3047 572.489 24.1862 571.914 23.9492C571.338 23.7122 570.903 23.0858 570.61 22.07L570.187 20.6986C570.006 20.7099 569.831 20.7212 569.662 20.7325C569.493 20.7325 569.312 20.7325 569.12 20.7325H564.532ZM565.209 15.3826L564.837 16.5508C565.006 16.5395 565.175 16.5338 565.345 16.5338C565.514 16.5226 565.689 16.5169 565.87 16.5169H567.986C568.155 16.5169 568.307 16.5226 568.443 16.5338C568.59 16.5338 568.736 16.5395 568.883 16.5508L568.528 15.3995C568.268 14.5079 568.008 13.5146 567.749 12.4198C567.489 11.325 567.252 10.3318 567.038 9.44014H566.835C566.598 10.2979 566.332 11.2799 566.039 12.386C565.757 13.4921 565.48 14.4909 565.209 15.3826Z" fill="white" fill-opacity="0.87"/>
</svg>
