<svg width="385" height="25" viewBox="0 0 385 25" fill="none" xmlns="http://www.w3.org/2000/svg">
<path d="M19.3488 12.4198C19.3488 13.7404 19.2529 15.0158 19.061 16.246C18.8804 17.465 18.5192 18.605 17.9775 19.6659C17.4357 20.7269 16.6231 21.6749 15.5396 22.5102C15.0204 22.9165 14.394 23.2438 13.6603 23.4921C12.938 23.7404 12.193 23.921 11.4255 24.0339C10.6581 24.1467 9.95827 24.2032 9.32622 24.2032C7.87023 24.2032 6.45375 24.1862 5.07677 24.1524C3.71108 24.1298 2.28895 24.1016 0.810392 24.0677L0.573371 23.8307V1.04282L0.810392 0.805801C2.26638 0.760655 3.68286 0.726795 5.05984 0.704222C6.44811 0.681649 7.87023 0.670362 9.32622 0.670362C9.95827 0.670362 10.6581 0.732438 11.4255 0.856591C12.193 0.969458 12.9436 1.15005 13.6772 1.39835C14.4109 1.64666 15.0317 1.97398 15.5396 2.3803C16.6118 3.21552 17.4188 4.1636 17.9606 5.22455C18.5023 6.27421 18.8691 7.40853 19.061 8.62749C19.2529 9.84646 19.3488 11.1106 19.3488 12.4198ZM13.7788 12.4198C13.7788 11.562 13.7224 10.693 13.6095 9.8126C13.5079 8.92095 13.3048 8.10831 13 7.37467C12.7066 6.62975 12.2608 6.03155 11.6626 5.58008C11.0757 5.11733 10.2969 4.88595 9.32622 4.88595C8.7506 4.88595 8.19755 4.88595 7.66707 4.88595C7.1366 4.88595 6.57226 4.87466 5.97406 4.85209V20.0045C6.57226 19.9932 7.1366 19.9876 7.66707 19.9876C8.19755 19.9876 8.7506 19.9876 9.32622 19.9876C10.2969 19.9876 11.0757 19.7618 11.6626 19.3104C12.2608 18.8476 12.7066 18.2438 13 17.4989C13.3048 16.7426 13.5079 15.9244 13.6095 15.044C13.7224 14.1523 13.7788 13.2776 13.7788 12.4198ZM37.2598 19.7506C37.2598 21.3646 37.0058 22.4876 36.4979 23.1196C36.0013 23.7517 35.1548 24.0677 33.9584 24.0677H26.1537C25.1943 24.0677 24.4381 23.7968 23.885 23.2551C23.332 22.702 23.0554 21.9627 23.0554 21.0372V5.52929L23.2417 5.34306H36.6334C36.7124 5.72681 36.7575 6.09363 36.7688 6.44352C36.7801 6.7934 36.7857 7.12636 36.7857 7.44239C36.7857 7.74713 36.7519 8.09138 36.6842 8.47512C36.6277 8.85887 36.5261 9.24826 36.3794 9.6433H30.4539C29.9798 9.6433 29.2631 9.63766 28.3038 9.62637C28.3151 9.97626 28.3207 10.2754 28.3207 10.5237C28.332 10.772 28.3376 11.0711 28.3376 11.421V12.5383C29.2744 12.5271 29.9798 12.5214 30.4539 12.5214H34.788C34.9009 12.8262 34.9742 13.176 35.0081 13.5711C35.0532 13.9548 35.0758 14.2821 35.0758 14.553C35.0758 14.869 35.0532 15.2246 35.0081 15.6196C34.9742 16.0034 34.9009 16.3533 34.788 16.6693H30.4539C30.2394 16.6693 29.9403 16.6693 29.5566 16.6693C29.1728 16.6693 28.7665 16.6693 28.3376 16.6693V17.7697C28.3376 18.1873 28.332 18.5316 28.3207 18.8025C28.3094 19.0733 28.3038 19.412 28.3038 19.8183V19.8521C28.6988 19.8296 29.0656 19.807 29.4042 19.7844C29.7428 19.7618 30.1548 19.7506 30.6401 19.7506H37.2598ZM46.2943 24C45.8316 24.079 45.3576 24.1298 44.8722 24.1524C44.3982 24.1862 43.9806 24.2032 43.6194 24.2032C43.2582 24.2032 42.835 24.1862 42.3496 24.1524C41.8756 24.1298 41.4072 24.079 40.9444 24V5.49543L41.1307 5.34306H54.2515C54.3305 5.6478 54.3869 5.99205 54.4208 6.3758C54.4659 6.75954 54.4885 7.06993 54.4885 7.30695C54.4885 8.07445 54.2853 8.67264 53.879 9.10154C53.4727 9.53043 52.7955 9.74488 51.8474 9.74488H48.2413C47.9027 9.74488 47.5697 9.74488 47.2424 9.74488C46.9264 9.73359 46.6104 9.72795 46.2943 9.72795C46.2943 9.96497 46.2943 10.2076 46.2943 10.4559C46.2943 10.693 46.2943 10.93 46.2943 11.167V12.9277C46.4298 12.9277 46.5596 12.9277 46.6837 12.9277H52.3215C52.423 13.2212 52.4908 13.5654 52.5246 13.9605C52.5698 14.3442 52.5923 14.6715 52.5923 14.9424C52.5923 15.2472 52.5698 15.6083 52.5246 16.0259C52.4908 16.4435 52.423 16.8047 52.3215 17.1095H46.6837C46.5596 17.1095 46.4298 17.1095 46.2943 17.1095V24ZM57.5454 5.34306C57.9743 5.25277 58.4597 5.19633 59.0014 5.17376C59.5432 5.15119 59.9721 5.1399 60.2881 5.1399C60.6267 5.1399 61.033 5.15119 61.5071 5.17376C61.9924 5.19633 62.4608 5.25277 62.9123 5.34306V24C62.4608 24.079 61.9924 24.1298 61.5071 24.1524C61.033 24.1862 60.6267 24.2032 60.2881 24.2032C59.9721 24.2032 59.5432 24.1862 59.0014 24.1524C58.4597 24.1298 57.9743 24.079 57.5454 24V5.34306ZM74.3964 15.4842C74.3174 15.3036 74.1933 15.0214 74.024 14.6377C73.8547 14.2426 73.6741 13.8194 73.4822 13.3679C73.2903 12.9164 73.1097 12.4932 72.9404 12.0982C72.7824 11.7031 72.6583 11.4153 72.568 11.2347L72.4495 11.2855C72.4946 12.1772 72.5398 13.1422 72.5849 14.1806C72.63 15.2076 72.6639 16.1501 72.6865 17.0079C72.7203 17.8544 72.7373 18.4695 72.7373 18.8533V24C72.2971 24.079 71.8738 24.1298 71.4675 24.1524C71.0612 24.1862 70.6831 24.2032 70.3332 24.2032C70.0172 24.2032 69.6221 24.1862 69.1481 24.1524C68.6853 24.1298 68.2452 24.079 67.8275 24V5.46157C68.2452 5.35999 68.7643 5.28098 69.3851 5.22455C70.0059 5.16812 70.4856 5.1399 70.8242 5.1399C71.1741 5.1399 71.6707 5.15119 72.314 5.17376C72.9574 5.18505 73.4878 5.24148 73.9054 5.34306L77.884 13.825C77.963 13.983 78.0928 14.2709 78.2734 14.6885C78.4653 15.1061 78.6684 15.5632 78.8829 16.0598C79.0973 16.5564 79.2949 17.0248 79.4754 17.465C79.6673 17.8939 79.8084 18.2099 79.8987 18.4131L80.0511 18.3792C80.0059 17.6343 79.9438 16.7652 79.8648 15.772C79.7971 14.7788 79.735 13.8194 79.6786 12.8939C79.6222 11.9684 79.5939 11.2291 79.5939 10.676V8.03494C79.5939 6.83855 79.8535 6.05412 80.3727 5.68166C80.8919 5.29791 81.6651 5.10604 82.6922 5.10604H84.4359L84.6391 5.34306V23.8984C84.1989 24 83.6685 24.0734 83.0477 24.1185C82.4269 24.1749 81.9529 24.2032 81.6256 24.2032C81.3998 24.2032 81.0894 24.1975 80.6944 24.1862C80.2994 24.1749 79.893 24.158 79.4754 24.1354C79.0691 24.1129 78.7305 24.0677 78.4596 24L74.3964 15.4842ZM89.5869 5.34306C90.0158 5.25277 90.5011 5.19633 91.0429 5.17376C91.5847 5.15119 92.0136 5.1399 92.3296 5.1399C92.6682 5.1399 93.0745 5.15119 93.5486 5.17376C94.0339 5.19633 94.5023 5.25277 94.9538 5.34306V24C94.5023 24.079 94.0339 24.1298 93.5486 24.1524C93.0745 24.1862 92.6682 24.2032 92.3296 24.2032C92.0136 24.2032 91.5847 24.1862 91.0429 24.1524C90.5011 24.1298 90.0158 24.079 89.5869 24V5.34306ZM115.072 11.0146C115.072 11.8837 114.875 12.6569 114.48 13.3341C114.085 14.0113 113.588 14.5699 112.99 15.0101C112.403 15.4503 111.816 15.7325 111.229 15.8566C111.839 16.0598 112.341 16.3702 112.736 16.7878C113.142 17.2054 113.492 17.7415 113.786 18.3961L114.666 20.4108C114.869 20.8736 115.1 21.3025 115.36 21.6975C115.62 22.0813 115.907 22.4086 116.223 22.6795C115.896 23.0858 115.405 23.4639 114.751 23.8138C114.096 24.1524 113.385 24.3217 112.617 24.3217C111.861 24.3217 111.246 24.1411 110.772 23.7799C110.309 23.4074 109.903 22.8149 109.553 22.0023L108.063 18.5824C107.826 18.0293 107.533 17.6964 107.183 17.5835C106.833 17.4706 106.381 17.4142 105.828 17.4142H105.168V24C104.717 24.079 104.248 24.1298 103.763 24.1524C103.289 24.1862 102.883 24.2032 102.544 24.2032C102.228 24.2032 101.81 24.1862 101.291 24.1524C100.772 24.1298 100.298 24.079 99.869 24V5.51236L100.055 5.3092C101.421 5.27534 102.702 5.24712 103.898 5.22455C105.106 5.19069 106.308 5.17376 107.504 5.17376C108.859 5.17376 110.112 5.35435 111.263 5.71552C112.414 6.06541 113.334 6.66925 114.023 7.52704C114.722 8.37354 115.072 9.53608 115.072 11.0146ZM105.168 8.99996V13.3848C105.563 13.3736 105.924 13.3679 106.252 13.3679C106.59 13.3566 106.839 13.351 106.997 13.351C108.012 13.351 108.701 13.1309 109.062 12.6907C109.423 12.2505 109.604 11.737 109.604 11.1501C109.604 10.5745 109.423 10.0778 109.062 9.66023C108.701 9.24262 108.097 9.03382 107.251 9.03382C106.844 9.03382 106.494 9.02817 106.201 9.01689C105.907 9.0056 105.563 8.99996 105.168 8.99996ZM133.376 11.8781C133.003 11.009 132.653 10.1568 132.326 9.32163C131.999 8.48641 131.717 7.74713 131.48 7.10379L131.344 7.15458C131.434 8.11395 131.508 9.20312 131.564 10.4221C131.632 11.6298 131.683 12.8374 131.717 14.0451C131.75 15.2528 131.767 16.325 131.767 17.2618V24C131.327 24.079 130.893 24.1298 130.464 24.1524C130.035 24.1862 129.651 24.2032 129.313 24.2032C128.985 24.2032 128.573 24.1862 128.077 24.1524C127.591 24.1298 127.14 24.079 126.722 24V0.975103C127.14 0.873522 127.693 0.800159 128.381 0.755012C129.07 0.698579 129.583 0.670362 129.922 0.670362C130.272 0.670362 130.735 0.687291 131.31 0.721151C131.886 0.743725 132.473 0.794516 133.071 0.873522L138.285 12.9616C138.714 13.9548 139.109 14.9029 139.471 15.8058C139.843 16.7088 140.153 17.4706 140.402 18.0914L140.537 18.0406C140.447 16.991 140.368 15.8397 140.3 14.5869C140.244 13.3341 140.199 12.1264 140.165 10.9638C140.131 9.80131 140.114 8.83066 140.114 8.05187V3.92093C140.114 2.71326 140.357 1.86675 140.842 1.38142C141.339 0.896095 142.106 0.653431 143.144 0.653431H144.905L145.125 0.873522V23.8984C144.696 24 144.132 24.0734 143.432 24.1185C142.744 24.1749 142.219 24.2032 141.858 24.2032C141.508 24.2032 141.045 24.1862 140.469 24.1524C139.894 24.1298 139.313 24.079 138.726 24L133.376 11.8781ZM148.792 14.7054C148.792 11.6806 149.571 9.28212 151.128 7.51011C152.697 5.72681 154.983 4.83516 157.985 4.83516C161.032 4.83516 163.329 5.72117 164.875 7.49318C166.433 9.25391 167.212 11.658 167.212 14.7054C167.212 17.7528 166.433 20.1512 164.875 21.9007C163.318 23.6388 161.021 24.5079 157.985 24.5079C154.938 24.5079 152.641 23.6275 151.094 21.8668C149.559 20.1061 148.792 17.7189 148.792 14.7054ZM154.26 14.7054C154.26 15.3487 154.3 16.0146 154.379 16.7031C154.469 17.3803 154.638 18.0124 154.887 18.5993C155.146 19.1862 155.524 19.6659 156.021 20.0384C156.518 20.3995 157.178 20.5801 158.002 20.5801C158.826 20.5801 159.486 20.3995 159.983 20.0384C160.479 19.6659 160.852 19.1862 161.1 18.5993C161.36 18.0124 161.529 17.3803 161.608 16.7031C161.698 16.0146 161.743 15.3487 161.743 14.7054C161.743 14.0508 161.698 13.3792 161.608 12.6907C161.529 11.9909 161.36 11.3476 161.1 10.7607C160.852 10.1625 160.479 9.6828 159.983 9.32163C159.486 8.94917 158.826 8.76294 158.002 8.76294C157.178 8.76294 156.518 8.94917 156.021 9.32163C155.524 9.6828 155.146 10.1625 154.887 10.7607C154.638 11.3476 154.469 11.9909 154.379 12.6907C154.3 13.3792 154.26 14.0508 154.26 14.7054ZM171.717 5.34306C172.259 5.24148 172.852 5.17376 173.495 5.1399C174.138 5.09475 174.68 5.07218 175.12 5.07218C175.538 5.07218 176.08 5.09475 176.746 5.1399C177.411 5.17376 177.97 5.24148 178.422 5.34306L180.081 12.6907C180.182 13.1309 180.301 13.7291 180.436 14.4853C180.572 15.2302 180.707 16.0316 180.843 16.8894H181.063C181.334 15.0835 181.588 13.6839 181.825 12.6907L183.467 5.34306C183.997 5.24148 184.579 5.17376 185.211 5.1399C185.843 5.09475 186.368 5.07218 186.785 5.07218C187.225 5.07218 187.773 5.09475 188.427 5.1399C189.082 5.17376 189.669 5.24148 190.188 5.34306L192.101 23.9323C191.368 24.1129 190.482 24.2032 189.443 24.2032C189.048 24.2032 188.625 24.1862 188.173 24.1524C187.733 24.1185 187.338 24.0677 186.988 24L186.497 18.0068C186.441 17.2393 186.407 16.3984 186.396 15.4842C186.384 14.5699 186.384 13.6783 186.396 12.8092C186.407 11.9289 186.407 11.167 186.396 10.5237H186.193L183.704 21.1388C183.32 21.2065 182.852 21.2573 182.299 21.2912C181.746 21.3138 181.288 21.325 180.927 21.325C180.555 21.325 180.092 21.3138 179.539 21.2912C178.997 21.2573 178.546 21.2065 178.185 21.1388L175.713 10.5237H175.476C175.476 11.1783 175.476 11.9401 175.476 12.8092C175.487 13.6783 175.487 14.5699 175.476 15.4842C175.465 16.3984 175.425 17.2505 175.357 18.0406L174.917 24C174.556 24.0677 174.161 24.1185 173.732 24.1524C173.314 24.1862 172.908 24.2032 172.513 24.2032C171.463 24.2032 170.56 24.1129 169.804 23.9323L171.717 5.34306ZM196.444 5.3092C197.031 5.28663 197.737 5.26405 198.561 5.24148C199.396 5.21891 200.254 5.20198 201.134 5.19069C202.014 5.1794 202.821 5.17376 203.555 5.17376C204.943 5.17376 206.185 5.33177 207.279 5.6478C208.386 5.96383 209.255 6.48866 209.887 7.2223C210.519 7.94465 210.835 8.91531 210.835 10.1343C210.835 10.9243 210.615 11.6749 210.175 12.386C209.746 13.097 209.153 13.5993 208.397 13.8927C209.368 14.1975 210.18 14.7957 210.835 15.6873C211.489 16.5677 211.817 17.5214 211.817 18.5485C211.817 19.9932 211.478 21.1219 210.801 21.9345C210.135 22.7359 209.21 23.3059 208.024 23.6445C206.851 23.9718 205.507 24.1354 203.995 24.1354C202.833 24.1354 201.625 24.1242 200.372 24.1016C199.119 24.0903 197.81 24.0677 196.444 24.0339L196.258 23.8646V5.51236L196.444 5.3092ZM203.318 8.81373C203.103 8.81373 202.816 8.81373 202.454 8.81373C202.093 8.81373 201.749 8.80244 201.422 8.77987V12.4198H203.284C204.187 12.4198 204.802 12.2336 205.129 11.8611C205.457 11.4887 205.62 11.0711 205.62 10.6083C205.62 10.1568 205.457 9.74488 205.129 9.37242C204.813 8.99996 204.21 8.81373 203.318 8.81373ZM201.422 20.4955C201.873 20.4729 202.313 20.4616 202.742 20.4616C203.171 20.4616 203.561 20.4616 203.91 20.4616C204.937 20.4616 205.615 20.2302 205.942 19.7675C206.281 19.2934 206.45 18.8081 206.45 18.3115C206.45 17.7697 206.247 17.2618 205.84 16.7878C205.445 16.3137 204.712 16.0767 203.64 16.0767H201.422V20.4955ZM230.574 11.0146C230.574 11.8837 230.376 12.6569 229.981 13.3341C229.586 14.0113 229.089 14.5699 228.491 15.0101C227.904 15.4503 227.317 15.7325 226.731 15.8566C227.34 16.0598 227.842 16.3702 228.237 16.7878C228.644 17.2054 228.994 17.7415 229.287 18.3961L230.167 20.4108C230.371 20.8736 230.602 21.3025 230.861 21.6975C231.121 22.0813 231.409 22.4086 231.725 22.6795C231.398 23.0858 230.907 23.4639 230.252 23.8138C229.597 24.1524 228.886 24.3217 228.119 24.3217C227.363 24.3217 226.747 24.1411 226.273 23.7799C225.811 23.4074 225.404 22.8149 225.054 22.0023L223.565 18.5824C223.328 18.0293 223.034 17.6964 222.684 17.5835C222.334 17.4706 221.883 17.4142 221.33 17.4142H220.67V24C220.218 24.079 219.75 24.1298 219.264 24.1524C218.79 24.1862 218.384 24.2032 218.045 24.2032C217.729 24.2032 217.312 24.1862 216.793 24.1524C216.273 24.1298 215.799 24.079 215.37 24V5.51236L215.557 5.3092C216.922 5.27534 218.203 5.24712 219.4 5.22455C220.608 5.19069 221.81 5.17376 223.006 5.17376C224.36 5.17376 225.613 5.35435 226.764 5.71552C227.916 6.06541 228.836 6.66925 229.524 7.52704C230.224 8.37354 230.574 9.53608 230.574 11.0146ZM220.67 8.99996V13.3848C221.065 13.3736 221.426 13.3679 221.753 13.3679C222.092 13.3566 222.34 13.351 222.498 13.351C223.514 13.351 224.202 13.1309 224.564 12.6907C224.925 12.2505 225.105 11.737 225.105 11.1501C225.105 10.5745 224.925 10.0778 224.564 9.66023C224.202 9.24262 223.598 9.03382 222.752 9.03382C222.346 9.03382 221.996 9.02817 221.702 9.01689C221.409 9.0056 221.065 8.99996 220.67 8.99996ZM248.853 19.7506C248.853 21.3646 248.599 22.4876 248.091 23.1196C247.594 23.7517 246.748 24.0677 245.551 24.0677H237.746C236.787 24.0677 236.031 23.7968 235.478 23.2551C234.925 22.702 234.648 21.9627 234.648 21.0372V5.52929L234.835 5.34306H248.226C248.305 5.72681 248.35 6.09363 248.362 6.44352C248.373 6.7934 248.379 7.12636 248.379 7.44239C248.379 7.74713 248.345 8.09138 248.277 8.47512C248.221 8.85887 248.119 9.24826 247.972 9.6433H242.047C241.573 9.6433 240.856 9.63766 239.897 9.62637C239.908 9.97626 239.914 10.2754 239.914 10.5237C239.925 10.772 239.93 11.0711 239.93 11.421V12.5383C240.867 12.5271 241.573 12.5214 242.047 12.5214H246.381C246.494 12.8262 246.567 13.176 246.601 13.5711C246.646 13.9548 246.669 14.2821 246.669 14.553C246.669 14.869 246.646 15.2246 246.601 15.6196C246.567 16.0034 246.494 16.3533 246.381 16.6693H242.047C241.832 16.6693 241.533 16.6693 241.149 16.6693C240.766 16.6693 240.359 16.6693 239.93 16.6693V17.7697C239.93 18.1873 239.925 18.5316 239.914 18.8025C239.902 19.0733 239.897 19.412 239.897 19.8183V19.8521C240.292 19.8296 240.658 19.807 240.997 19.7844C241.336 19.7618 241.748 19.7506 242.233 19.7506H248.853ZM276.992 14.7054C276.992 17.8657 276.253 20.2302 274.774 21.7991C273.296 23.3567 270.965 24.1354 267.782 24.1354C266.439 24.1354 265.163 24.1242 263.956 24.1016C262.759 24.0903 261.495 24.0677 260.163 24.0339L259.977 23.8307V5.51236L260.163 5.3092C261.507 5.27534 262.776 5.24712 263.973 5.22455C265.169 5.19069 266.439 5.17376 267.782 5.17376C270.931 5.17376 273.25 5.99205 274.74 7.62862C276.241 9.25391 276.992 11.6128 276.992 14.7054ZM271.54 14.7054C271.54 13.8815 271.456 13.0575 271.287 12.2336C271.117 11.3984 270.762 10.6986 270.22 10.1343C269.678 9.56994 268.866 9.28777 267.782 9.28777C267.285 9.28777 266.856 9.28777 266.495 9.28777C266.145 9.27648 265.739 9.26519 265.276 9.25391V20.0892C265.762 20.0892 266.174 20.0835 266.512 20.0722C266.862 20.0609 267.285 20.0553 267.782 20.0553C268.866 20.0553 269.678 19.7788 270.22 19.2257C270.762 18.6614 271.117 17.9673 271.287 17.1433C271.456 16.3194 271.54 15.5067 271.54 14.7054ZM294.716 19.7506C294.716 21.3646 294.462 22.4876 293.954 23.1196C293.457 23.7517 292.611 24.0677 291.415 24.0677H283.61C282.65 24.0677 281.894 23.7968 281.341 23.2551C280.788 22.702 280.512 21.9627 280.512 21.0372V5.52929L280.698 5.34306H294.089C294.168 5.72681 294.214 6.09363 294.225 6.44352C294.236 6.7934 294.242 7.12636 294.242 7.44239C294.242 7.74713 294.208 8.09138 294.14 8.47512C294.084 8.85887 293.982 9.24826 293.836 9.6433H287.91C287.436 9.6433 286.719 9.63766 285.76 9.62637C285.771 9.97626 285.777 10.2754 285.777 10.5237C285.788 10.772 285.794 11.0711 285.794 11.421V12.5383C286.731 12.5271 287.436 12.5214 287.91 12.5214H292.244C292.357 12.8262 292.43 13.176 292.464 13.5711C292.509 13.9548 292.532 14.2821 292.532 14.553C292.532 14.869 292.509 15.2246 292.464 15.6196C292.43 16.0034 292.357 16.3533 292.244 16.6693H287.91C287.696 16.6693 287.396 16.6693 287.013 16.6693C286.629 16.6693 286.223 16.6693 285.794 16.6693V17.7697C285.794 18.1873 285.788 18.5316 285.777 18.8025C285.766 19.0733 285.76 19.412 285.76 19.8183V19.8521C286.155 19.8296 286.522 19.807 286.86 19.7844C287.199 19.7618 287.611 19.7506 288.096 19.7506H294.716ZM312.85 8.4074C313.177 7.95594 313.606 7.40853 314.136 6.76519C314.667 6.11056 315.146 5.55186 315.575 5.08911L315.474 4.98753C314.684 5.08911 313.786 5.16247 312.782 5.20762C311.789 5.25277 310.948 5.27534 310.259 5.27534H305.4C305.321 4.95931 305.265 4.65457 305.231 4.36112C305.208 4.05638 305.197 3.75728 305.197 3.46382C305.197 3.00107 305.231 2.56653 305.299 2.16021C305.367 1.75389 305.457 1.32499 305.57 0.873522H320.553C320.79 1.72003 320.959 2.35773 321.061 2.78662C321.174 3.21552 321.241 3.5259 321.264 3.71777C321.286 3.89836 321.298 4.05638 321.298 4.19182C321.298 4.49656 321.253 4.80694 321.162 5.12297C321.083 5.439 320.931 5.76067 320.705 6.08798L313.154 16.4492C312.827 16.9007 312.415 17.4311 311.918 18.0406C311.422 18.6388 310.953 19.1693 310.513 19.632L310.615 19.7336C311.337 19.6772 312.184 19.6264 313.154 19.5813C314.125 19.5248 314.972 19.4966 315.694 19.4966H317.573C318.397 19.4966 319.125 19.4176 319.757 19.2596C320.389 19.1016 320.937 18.9153 321.399 18.7009C321.501 19.0282 321.586 19.412 321.653 19.8521C321.721 20.2923 321.755 20.7212 321.755 21.1388C321.755 22.1095 321.422 22.8318 320.756 23.3059C320.101 23.7686 319.255 24 318.216 24H305.265C305.084 23.1986 304.949 22.5948 304.859 22.1885C304.78 21.7822 304.729 21.4831 304.706 21.2912C304.684 21.088 304.672 20.9074 304.672 20.7494C304.672 20.4221 304.723 20.0835 304.825 19.7336C304.938 19.3724 305.101 19.0451 305.316 18.7517L312.85 8.4074ZM323.648 14.7054C323.648 11.6806 324.427 9.28212 325.984 7.51011C327.553 5.72681 329.839 4.83516 332.841 4.83516C335.888 4.83516 338.185 5.72117 339.731 7.49318C341.289 9.25391 342.068 11.658 342.068 14.7054C342.068 17.7528 341.289 20.1512 339.731 21.9007C338.174 23.6388 335.877 24.5079 332.841 24.5079C329.793 24.5079 327.497 23.6275 325.95 21.8668C324.415 20.1061 323.648 17.7189 323.648 14.7054ZM329.116 14.7054C329.116 15.3487 329.156 16.0146 329.235 16.7031C329.325 17.3803 329.494 18.0124 329.743 18.5993C330.002 19.1862 330.38 19.6659 330.877 20.0384C331.374 20.3995 332.034 20.5801 332.858 20.5801C333.682 20.5801 334.342 20.3995 334.839 20.0384C335.335 19.6659 335.708 19.1862 335.956 18.5993C336.216 18.0124 336.385 17.3803 336.464 16.7031C336.554 16.0146 336.599 15.3487 336.599 14.7054C336.599 14.0508 336.554 13.3792 336.464 12.6907C336.385 11.9909 336.216 11.3476 335.956 10.7607C335.708 10.1625 335.335 9.6828 334.839 9.32163C334.342 8.94917 333.682 8.76294 332.858 8.76294C332.034 8.76294 331.374 8.94917 330.877 9.32163C330.38 9.6828 330.002 10.1625 329.743 10.7607C329.494 11.3476 329.325 11.9909 329.235 12.6907C329.156 13.3792 329.116 14.0508 329.116 14.7054ZM352.122 15.4842C352.043 15.3036 351.919 15.0214 351.75 14.6377C351.581 14.2426 351.4 13.8194 351.208 13.3679C351.016 12.9164 350.836 12.4932 350.666 12.0982C350.508 11.7031 350.384 11.4153 350.294 11.2347L350.175 11.2855C350.221 12.1772 350.266 13.1422 350.311 14.1806C350.356 15.2076 350.39 16.1501 350.412 17.0079C350.446 17.8544 350.463 18.4695 350.463 18.8533V24C350.023 24.079 349.6 24.1298 349.193 24.1524C348.787 24.1862 348.409 24.2032 348.059 24.2032C347.743 24.2032 347.348 24.1862 346.874 24.1524C346.411 24.1298 345.971 24.079 345.553 24V5.46157C345.971 5.35999 346.49 5.28098 347.111 5.22455C347.732 5.16812 348.211 5.1399 348.55 5.1399C348.9 5.1399 349.397 5.15119 350.04 5.17376C350.683 5.18505 351.214 5.24148 351.631 5.34306L355.61 13.825C355.689 13.983 355.819 14.2709 355.999 14.6885C356.191 15.1061 356.394 15.5632 356.609 16.0598C356.823 16.5564 357.021 17.0248 357.201 17.465C357.393 17.8939 357.534 18.2099 357.625 18.4131L357.777 18.3792C357.732 17.6343 357.67 16.7652 357.591 15.772C357.523 14.7788 357.461 13.8194 357.405 12.8939C357.348 11.9684 357.32 11.2291 357.32 10.676V8.03494C357.32 6.83855 357.579 6.05412 358.099 5.68166C358.618 5.29791 359.391 5.10604 360.418 5.10604H362.162L362.365 5.34306V23.8984C361.925 24 361.394 24.0734 360.774 24.1185C360.153 24.1749 359.679 24.2032 359.351 24.2032C359.126 24.2032 358.815 24.1975 358.42 24.1862C358.025 24.1749 357.619 24.158 357.201 24.1354C356.795 24.1129 356.456 24.0677 356.186 24L352.122 15.4842ZM371.986 20.7325C371.805 20.7325 371.63 20.7325 371.461 20.7325C371.291 20.7212 371.122 20.7099 370.953 20.6986L369.903 24C369.576 24.079 369.22 24.1354 368.837 24.1693C368.453 24.2144 368.052 24.237 367.635 24.237C367.183 24.237 366.726 24.2032 366.263 24.1354C365.812 24.0677 365.439 23.9718 365.146 23.8476L364.96 23.5598L371.545 5.34306C372.132 5.25277 372.697 5.19633 373.238 5.17376C373.791 5.15119 374.294 5.1399 374.745 5.1399C375.163 5.1399 375.614 5.15119 376.1 5.17376C376.585 5.19633 377.132 5.25277 377.742 5.34306L384.141 23.746C383.746 23.9266 383.244 24.0621 382.635 24.1524C382.025 24.254 381.534 24.3047 381.162 24.3047C380.541 24.3047 379.943 24.1862 379.367 23.9492C378.791 23.7122 378.357 23.0858 378.063 22.07L377.64 20.6986C377.46 20.7099 377.285 20.7212 377.115 20.7325C376.946 20.7325 376.765 20.7325 376.574 20.7325H371.986ZM372.663 15.3826L372.29 16.5508C372.46 16.5395 372.629 16.5338 372.798 16.5338C372.967 16.5226 373.142 16.5169 373.323 16.5169H375.439C375.609 16.5169 375.761 16.5226 375.896 16.5338C376.043 16.5338 376.19 16.5395 376.337 16.5508L375.981 15.3995C375.721 14.5079 375.462 13.5146 375.202 12.4198C374.943 11.325 374.706 10.3318 374.491 9.44014H374.288C374.051 10.2979 373.786 11.2799 373.492 12.386C373.21 13.4921 372.934 14.4909 372.663 15.3826Z" fill="white" fill-opacity="0.87"/>
</svg>
