<svg width="59" height="18" viewBox="0 0 59 18" fill="none" xmlns="http://www.w3.org/2000/svg">
<path d="M11.7793 5.684C11.7793 6.452 11.6313 7.136 11.3353 7.736C11.0393 8.328 10.6673 8.824 10.2193 9.224C9.77131 9.616 9.31931 9.9 8.86331 10.076C9.31131 10.236 9.68331 10.512 9.97931 10.904C10.2833 11.296 10.5273 11.756 10.7113 12.284L11.4313 14.312C11.7033 15.088 12.0993 15.68 12.6193 16.088C12.3713 16.408 12.0113 16.676 11.5393 16.892C11.0673 17.108 10.5753 17.216 10.0633 17.216C9.37531 17.216 8.87531 17.032 8.56331 16.664C8.25131 16.288 7.96731 15.732 7.71131 14.996L6.84731 12.488C6.71131 12.072 6.49931 11.72 6.21131 11.432C5.92331 11.136 5.45931 10.988 4.81931 10.988H3.82331V17C3.50331 17.056 3.17131 17.092 2.82731 17.108C2.48331 17.132 2.17931 17.144 1.91531 17.144C1.68331 17.144 1.38731 17.132 1.02731 17.108C0.667313 17.092 0.331313 17.056 0.0193126 17V0.727999L0.187313 0.559999C1.21131 0.535999 2.19531 0.515999 3.13931 0.499999C4.09131 0.475999 5.02331 0.464 5.93531 0.464C7.04731 0.464 8.04331 0.648 8.92331 1.016C9.81131 1.384 10.5073 1.952 11.0113 2.72C11.5233 3.488 11.7793 4.476 11.7793 5.684ZM3.82331 3.344V8.048C4.19931 8.032 4.55131 8.02 4.87931 8.012C5.21531 8.004 5.45931 8 5.61131 8C6.21931 8 6.68331 7.892 7.00331 7.676C7.33131 7.452 7.55531 7.164 7.67531 6.812C7.80331 6.46 7.86731 6.084 7.86731 5.684C7.86731 5.268 7.80331 4.884 7.67531 4.532C7.55531 4.18 7.33131 3.9 7.00331 3.692C6.68331 3.476 6.21931 3.368 5.61131 3.368C5.36331 3.368 5.08731 3.368 4.78331 3.368C4.48731 3.368 4.16731 3.36 3.82331 3.344ZM18.0489 14.684C17.9209 14.684 17.7969 14.684 17.6769 14.684C17.5569 14.676 17.4369 14.668 17.3169 14.66L16.5729 17C16.3409 17.056 16.0889 17.096 15.8169 17.12C15.5449 17.152 15.2609 17.168 14.9649 17.168C14.6449 17.168 14.3209 17.144 13.9929 17.096C13.6729 17.048 13.4089 16.98 13.2009 16.892L13.0689 16.688L17.7369 3.776C18.1529 3.712 18.5529 3.672 18.9369 3.656C19.3289 3.64 19.6849 3.632 20.0049 3.632C20.3009 3.632 20.6209 3.64 20.9649 3.656C21.3089 3.672 21.6969 3.712 22.1289 3.776L26.6649 16.82C26.3849 16.948 26.0289 17.044 25.5969 17.108C25.1649 17.18 24.8169 17.216 24.5529 17.216C24.1129 17.216 23.6889 17.132 23.2809 16.964C22.8729 16.796 22.5649 16.352 22.3569 15.632L22.0569 14.66C21.9289 14.668 21.8049 14.676 21.6849 14.684C21.5649 14.684 21.4369 14.684 21.3009 14.684H18.0489ZM18.5289 10.892L18.2649 11.72C18.3849 11.712 18.5049 11.708 18.6249 11.708C18.7449 11.7 18.8689 11.696 18.9969 11.696H20.4969C20.6169 11.696 20.7249 11.7 20.8209 11.708C20.9249 11.708 21.0289 11.712 21.1329 11.72L20.8809 10.904C20.6969 10.272 20.5129 9.568 20.3289 8.792C20.1449 8.016 19.9769 7.312 19.8249 6.68H19.6809C19.5129 7.288 19.3249 7.984 19.1169 8.768C18.9169 9.552 18.7209 10.26 18.5289 10.892ZM29.3336 3.776C29.7176 3.704 30.1376 3.656 30.5936 3.632C31.0496 3.6 31.4336 3.584 31.7456 3.584C32.0416 3.584 32.4256 3.6 32.8976 3.632C33.3696 3.656 33.7656 3.704 34.0856 3.776L35.2616 8.984C35.3336 9.296 35.4176 9.72 35.5136 10.256C35.6096 10.784 35.7056 11.352 35.8016 11.96H35.9576C36.1496 10.68 36.3296 9.688 36.4976 8.984L37.6616 3.776C38.0376 3.704 38.4496 3.656 38.8976 3.632C39.3456 3.6 39.7176 3.584 40.0136 3.584C40.3256 3.584 40.7136 3.6 41.1776 3.632C41.6416 3.656 42.0576 3.704 42.4256 3.776L43.7816 16.952C43.2616 17.08 42.6336 17.144 41.8976 17.144C41.6176 17.144 41.3176 17.132 40.9976 17.108C40.6856 17.084 40.4056 17.048 40.1576 17L39.8096 12.752C39.7696 12.208 39.7456 11.612 39.7376 10.964C39.7296 10.316 39.7296 9.684 39.7376 9.068C39.7456 8.444 39.7456 7.904 39.7376 7.448H39.5936L37.8296 14.972C37.5576 15.02 37.2256 15.056 36.8336 15.08C36.4416 15.096 36.1176 15.104 35.8616 15.104C35.5976 15.104 35.2696 15.096 34.8776 15.08C34.4936 15.056 34.1736 15.02 33.9176 14.972L32.1656 7.448H31.9976C31.9976 7.912 31.9976 8.452 31.9976 9.068C32.0056 9.684 32.0056 10.316 31.9976 10.964C31.9896 11.612 31.9616 12.216 31.9136 12.776L31.6016 17C31.3456 17.048 31.0656 17.084 30.7616 17.108C30.4656 17.132 30.1776 17.144 29.8976 17.144C29.1536 17.144 28.5136 17.08 27.9776 16.952L29.3336 3.776ZM50.088 14.684C49.96 14.684 49.836 14.684 49.716 14.684C49.596 14.676 49.476 14.668 49.356 14.66L48.612 17C48.38 17.056 48.128 17.096 47.856 17.12C47.584 17.152 47.3 17.168 47.004 17.168C46.684 17.168 46.36 17.144 46.032 17.096C45.712 17.048 45.448 16.98 45.24 16.892L45.108 16.688L49.776 3.776C50.192 3.712 50.592 3.672 50.976 3.656C51.368 3.64 51.724 3.632 52.044 3.632C52.34 3.632 52.66 3.64 53.004 3.656C53.348 3.672 53.736 3.712 54.168 3.776L58.704 16.82C58.424 16.948 58.068 17.044 57.636 17.108C57.204 17.18 56.856 17.216 56.592 17.216C56.152 17.216 55.728 17.132 55.32 16.964C54.912 16.796 54.604 16.352 54.396 15.632L54.096 14.66C53.968 14.668 53.844 14.676 53.724 14.684C53.604 14.684 53.476 14.684 53.34 14.684H50.088ZM50.568 10.892L50.304 11.72C50.424 11.712 50.544 11.708 50.664 11.708C50.784 11.7 50.908 11.696 51.036 11.696H52.536C52.656 11.696 52.764 11.7 52.86 11.708C52.964 11.708 53.068 11.712 53.172 11.72L52.92 10.904C52.736 10.272 52.552 9.568 52.368 8.792C52.184 8.016 52.016 7.312 51.864 6.68H51.72C51.552 7.288 51.364 7.984 51.156 8.768C50.956 9.552 50.76 10.26 50.568 10.892Z" fill="#364760"/>
</svg>
