<svg width="71" height="18" viewBox="0 0 71 18" fill="none" xmlns="http://www.w3.org/2000/svg">
<path d="M10.6295 12.548C10.6295 12.284 10.6335 12.012 10.6415 11.732C10.6495 11.452 10.6615 11.168 10.6775 10.88H9.50153C8.88553 10.88 8.42553 10.764 8.12153 10.532C7.81753 10.3 7.66553 9.88 7.66553 9.272C7.66553 9.024 7.68953 8.756 7.73753 8.468C7.79353 8.18 7.86153 7.92 7.94153 7.688H11.6975C12.6495 7.688 13.3095 7.912 13.6775 8.36C14.0455 8.8 14.2295 9.368 14.2295 10.064V16.364C13.5335 16.596 12.6335 16.82 11.5295 17.036C10.4255 17.252 9.21753 17.36 7.90553 17.36C6.26553 17.36 4.90553 17.016 3.82553 16.328C2.75353 15.64 1.95353 14.664 1.42553 13.4C0.897531 12.136 0.633531 10.64 0.633531 8.912C0.633531 7.456 0.845531 6.188 1.26953 5.108C1.69353 4.02 2.26953 3.12 2.99753 2.408C3.72553 1.688 4.54553 1.148 5.45753 0.787999C6.36953 0.427999 7.31353 0.248 8.28953 0.248C9.39353 0.248 10.4495 0.408 11.4575 0.727999C12.4655 1.048 13.3775 1.46 14.1935 1.964C14.1535 2.508 13.9535 3.04 13.5935 3.56C13.2415 4.08 12.8695 4.468 12.4775 4.724C11.8935 4.332 11.2535 4.02 10.5575 3.788C9.86953 3.548 9.18953 3.428 8.51753 3.428C7.30153 3.428 6.33753 3.868 5.62553 4.748C4.91353 5.62 4.55753 7.016 4.55753 8.936C4.55753 10.808 4.90153 12.176 5.58953 13.04C6.28553 13.904 7.27753 14.336 8.56553 14.336C8.94953 14.336 9.31353 14.316 9.65753 14.276C10.0015 14.236 10.3255 14.188 10.6295 14.132V12.548ZM27.9767 7.796C27.9767 8.412 27.8367 8.96 27.5567 9.44C27.2767 9.92 26.9247 10.316 26.5007 10.628C26.0847 10.94 25.6687 11.14 25.2527 11.228C25.6847 11.372 26.0407 11.592 26.3207 11.888C26.6087 12.184 26.8567 12.564 27.0647 13.028L27.6887 14.456C27.8327 14.784 27.9967 15.088 28.1807 15.368C28.3647 15.64 28.5687 15.872 28.7927 16.064C28.5607 16.352 28.2127 16.62 27.7487 16.868C27.2847 17.108 26.7807 17.228 26.2367 17.228C25.7007 17.228 25.2647 17.1 24.9287 16.844C24.6007 16.58 24.3127 16.16 24.0647 15.584L23.0087 13.16C22.8407 12.768 22.6327 12.532 22.3847 12.452C22.1367 12.372 21.8167 12.332 21.4247 12.332H20.9567V17C20.6367 17.056 20.3047 17.092 19.9607 17.108C19.6247 17.132 19.3367 17.144 19.0967 17.144C18.8727 17.144 18.5767 17.132 18.2087 17.108C17.8407 17.092 17.5047 17.056 17.2007 17V3.896L17.3327 3.752C18.3007 3.728 19.2087 3.708 20.0567 3.692C20.9127 3.668 21.7647 3.656 22.6127 3.656C23.5727 3.656 24.4607 3.784 25.2767 4.04C26.0927 4.288 26.7447 4.716 27.2327 5.324C27.7287 5.924 27.9767 6.748 27.9767 7.796ZM20.9567 6.368V9.476C21.2367 9.468 21.4927 9.464 21.7247 9.464C21.9647 9.456 22.1407 9.452 22.2527 9.452C22.9727 9.452 23.4607 9.296 23.7167 8.984C23.9727 8.672 24.1007 8.308 24.1007 7.892C24.1007 7.484 23.9727 7.132 23.7167 6.836C23.4607 6.54 23.0327 6.392 22.4327 6.392C22.1447 6.392 21.8967 6.388 21.6887 6.38C21.4807 6.372 21.2367 6.368 20.9567 6.368ZM42.3607 12.044C42.3607 13.7 41.8647 15 40.8727 15.944C39.8887 16.888 38.4287 17.36 36.4927 17.36C34.5567 17.36 33.0927 16.888 32.1007 15.944C31.1167 15 30.6247 13.7 30.6247 12.044V3.776L30.7687 3.632H32.1367C32.8647 3.632 33.4247 3.816 33.8167 4.184C34.2167 4.552 34.4167 5.172 34.4167 6.044V12.032C34.4167 12.76 34.5687 13.332 34.8727 13.748C35.1767 14.164 35.7167 14.372 36.4927 14.372C37.2767 14.372 37.8167 14.164 38.1127 13.748C38.4087 13.332 38.5567 12.76 38.5567 12.032V3.776C38.8767 3.712 39.2047 3.672 39.5407 3.656C39.8767 3.64 40.1687 3.632 40.4167 3.632C40.6407 3.632 40.9447 3.644 41.3287 3.668C41.7127 3.684 42.0567 3.724 42.3607 3.788V12.044ZM56.0955 8.312C56.0955 9.352 55.8595 10.216 55.3875 10.904C54.9235 11.584 54.2835 12.092 53.4675 12.428C52.6515 12.756 51.7235 12.92 50.6835 12.92H49.3755V17C49.0555 17.056 48.7275 17.092 48.3915 17.108C48.0555 17.132 47.7675 17.144 47.5275 17.144C47.3035 17.144 46.9995 17.132 46.6155 17.108C46.2315 17.092 45.8875 17.056 45.5835 17V3.896L45.7155 3.752C46.3635 3.736 47.1435 3.716 48.0555 3.692C48.9675 3.668 49.8435 3.656 50.6835 3.656C51.7315 3.656 52.6635 3.816 53.4795 4.136C54.2955 4.456 54.9355 4.96 55.3995 5.648C55.8635 6.336 56.0955 7.224 56.0955 8.312ZM49.3755 6.464V10.136C49.5915 10.128 49.7875 10.124 49.9635 10.124C50.1395 10.116 50.2715 10.112 50.3595 10.112C50.8875 10.112 51.2835 10.016 51.5475 9.824C51.8195 9.624 51.9995 9.384 52.0875 9.104C52.1755 8.816 52.2195 8.544 52.2195 8.288C52.2195 8.048 52.1755 7.788 52.0875 7.508C51.9995 7.228 51.8195 6.988 51.5475 6.788C51.2835 6.588 50.8875 6.488 50.3595 6.488C50.1595 6.488 50.0155 6.488 49.9275 6.488C49.8395 6.48 49.6555 6.472 49.3755 6.464ZM57.4318 10.412C57.4318 8.268 57.9838 6.568 59.0878 5.312C60.1998 4.048 61.8198 3.416 63.9478 3.416C66.1078 3.416 67.7358 4.044 68.8318 5.3C69.9358 6.548 70.4878 8.252 70.4878 10.412C70.4878 12.572 69.9358 14.272 68.8318 15.512C67.7278 16.744 66.0998 17.36 63.9478 17.36C61.7878 17.36 60.1598 16.736 59.0638 15.488C57.9758 14.24 57.4318 12.548 57.4318 10.412ZM61.3078 10.412C61.3078 10.868 61.3358 11.34 61.3918 11.828C61.4558 12.308 61.5758 12.756 61.7518 13.172C61.9358 13.588 62.2038 13.928 62.5558 14.192C62.9078 14.448 63.3758 14.576 63.9598 14.576C64.5438 14.576 65.0118 14.448 65.3638 14.192C65.7158 13.928 65.9798 13.588 66.1558 13.172C66.3398 12.756 66.4598 12.308 66.5158 11.828C66.5798 11.34 66.6118 10.868 66.6118 10.412C66.6118 9.948 66.5798 9.472 66.5158 8.984C66.4598 8.488 66.3398 8.032 66.1558 7.616C65.9798 7.192 65.7158 6.852 65.3638 6.596C65.0118 6.332 64.5438 6.2 63.9598 6.2C63.3758 6.2 62.9078 6.332 62.5558 6.596C62.2038 6.852 61.9358 7.192 61.7518 7.616C61.5758 8.032 61.4558 8.488 61.3918 8.984C61.3358 9.472 61.3078 9.948 61.3078 10.412Z" fill="#364760"/>
</svg>
