<svg width="58" height="18" viewBox="0 0 58 18" fill="none" xmlns="http://www.w3.org/2000/svg">
<path d="M6.53194 5.948C6.76394 5.628 7.06794 5.24 7.44394 4.784C7.81994 4.32 8.15994 3.924 8.46394 3.596L8.39194 3.524C7.83194 3.596 7.19594 3.648 6.48394 3.68C5.77994 3.712 5.18394 3.728 4.69594 3.728H1.25194C1.19594 3.504 1.15594 3.288 1.13194 3.08C1.11594 2.864 1.10794 2.652 1.10794 2.444C1.10794 2.116 1.13194 1.808 1.17994 1.52C1.22794 1.232 1.29194 0.927999 1.37194 0.607999H11.9919C12.1599 1.208 12.2799 1.66 12.3519 1.964C12.4319 2.268 12.4799 2.488 12.4959 2.624C12.5119 2.752 12.5199 2.864 12.5199 2.96C12.5199 3.176 12.4879 3.396 12.4239 3.62C12.3679 3.844 12.2599 4.072 12.0999 4.304L6.74794 11.648C6.51594 11.968 6.22394 12.344 5.87194 12.776C5.51994 13.2 5.18794 13.576 4.87594 13.904L4.94794 13.976C5.45994 13.936 6.05994 13.9 6.74794 13.868C7.43594 13.828 8.03594 13.808 8.54794 13.808H9.87994C10.4639 13.808 10.9799 13.752 11.4279 13.64C11.8759 13.528 12.2639 13.396 12.5919 13.244C12.6639 13.476 12.7239 13.748 12.7719 14.06C12.8199 14.372 12.8439 14.676 12.8439 14.972C12.8439 15.66 12.6079 16.172 12.1359 16.508C11.6719 16.836 11.0719 17 10.3359 17H1.15594C1.02794 16.432 0.931938 16.004 0.867938 15.716C0.811938 15.428 0.775938 15.216 0.759938 15.08C0.743938 14.936 0.735938 14.808 0.735938 14.696C0.735938 14.464 0.771938 14.224 0.843938 13.976C0.923938 13.72 1.03994 13.488 1.19194 13.28L6.53194 5.948ZM14.1857 10.412C14.1857 8.268 14.7377 6.568 15.8417 5.312C16.9537 4.048 18.5737 3.416 20.7017 3.416C22.8617 3.416 24.4897 4.044 25.5857 5.3C26.6897 6.548 27.2417 8.252 27.2417 10.412C27.2417 12.572 26.6897 14.272 25.5857 15.512C24.4817 16.744 22.8537 17.36 20.7017 17.36C18.5417 17.36 16.9137 16.736 15.8177 15.488C14.7297 14.24 14.1857 12.548 14.1857 10.412ZM18.0617 10.412C18.0617 10.868 18.0897 11.34 18.1457 11.828C18.2097 12.308 18.3297 12.756 18.5057 13.172C18.6897 13.588 18.9577 13.928 19.3097 14.192C19.6617 14.448 20.1297 14.576 20.7137 14.576C21.2977 14.576 21.7657 14.448 22.1177 14.192C22.4697 13.928 22.7337 13.588 22.9097 13.172C23.0937 12.756 23.2137 12.308 23.2697 11.828C23.3337 11.34 23.3657 10.868 23.3657 10.412C23.3657 9.948 23.3337 9.472 23.2697 8.984C23.2137 8.488 23.0937 8.032 22.9097 7.616C22.7337 7.192 22.4697 6.852 22.1177 6.596C21.7657 6.332 21.2977 6.2 20.7137 6.2C20.1297 6.2 19.6617 6.332 19.3097 6.596C18.9577 6.852 18.6897 7.192 18.5057 7.616C18.3297 8.032 18.2097 8.488 18.1457 8.984C18.0897 9.472 18.0617 9.948 18.0617 10.412ZM34.3684 10.964C34.3124 10.836 34.2244 10.636 34.1044 10.364C33.9844 10.084 33.8564 9.784 33.7204 9.464C33.5844 9.144 33.4564 8.844 33.3364 8.564C33.2244 8.284 33.1364 8.08 33.0724 7.952L32.9884 7.988C33.0204 8.62 33.0524 9.304 33.0844 10.04C33.1164 10.768 33.1404 11.436 33.1564 12.044C33.1804 12.644 33.1924 13.08 33.1924 13.352V17C32.8804 17.056 32.5804 17.092 32.2924 17.108C32.0044 17.132 31.7364 17.144 31.4884 17.144C31.2644 17.144 30.9844 17.132 30.6484 17.108C30.3204 17.092 30.0084 17.056 29.7124 17V3.86C30.0084 3.788 30.3764 3.732 30.8164 3.692C31.2564 3.652 31.5964 3.632 31.8364 3.632C32.0844 3.632 32.4364 3.64 32.8924 3.656C33.3484 3.664 33.7244 3.704 34.0204 3.776L36.8404 9.788C36.8964 9.9 36.9884 10.104 37.1164 10.4C37.2524 10.696 37.3964 11.02 37.5484 11.372C37.7004 11.724 37.8404 12.056 37.9684 12.368C38.1044 12.672 38.2044 12.896 38.2684 13.04L38.3764 13.016C38.3444 12.488 38.3004 11.872 38.2444 11.168C38.1964 10.464 38.1524 9.784 38.1124 9.128C38.0724 8.472 38.0524 7.948 38.0524 7.556V5.684C38.0524 4.836 38.2364 4.28 38.6044 4.016C38.9724 3.744 39.5204 3.608 40.2484 3.608H41.4844L41.6284 3.776V16.928C41.3164 17 40.9404 17.052 40.5004 17.084C40.0604 17.124 39.7244 17.144 39.4924 17.144C39.3324 17.144 39.1124 17.14 38.8324 17.132C38.5524 17.124 38.2644 17.112 37.9684 17.096C37.6804 17.08 37.4404 17.048 37.2484 17L34.3684 10.964ZM48.4474 14.684C48.3194 14.684 48.1954 14.684 48.0754 14.684C47.9554 14.676 47.8354 14.668 47.7154 14.66L46.9714 17C46.7394 17.056 46.4874 17.096 46.2154 17.12C45.9434 17.152 45.6594 17.168 45.3634 17.168C45.0434 17.168 44.7194 17.144 44.3914 17.096C44.0714 17.048 43.8074 16.98 43.5994 16.892L43.4674 16.688L48.1354 3.776C48.5514 3.712 48.9514 3.672 49.3354 3.656C49.7274 3.64 50.0834 3.632 50.4034 3.632C50.6994 3.632 51.0194 3.64 51.3634 3.656C51.7074 3.672 52.0954 3.712 52.5274 3.776L57.0634 16.82C56.7834 16.948 56.4274 17.044 55.9954 17.108C55.5634 17.18 55.2154 17.216 54.9514 17.216C54.5114 17.216 54.0874 17.132 53.6794 16.964C53.2714 16.796 52.9634 16.352 52.7554 15.632L52.4554 14.66C52.3274 14.668 52.2034 14.676 52.0834 14.684C51.9634 14.684 51.8354 14.684 51.6994 14.684H48.4474ZM48.9274 10.892L48.6634 11.72C48.7834 11.712 48.9034 11.708 49.0234 11.708C49.1434 11.7 49.2674 11.696 49.3954 11.696H50.8954C51.0154 11.696 51.1234 11.7 51.2194 11.708C51.3234 11.708 51.4274 11.712 51.5314 11.72L51.2794 10.904C51.0954 10.272 50.9114 9.568 50.7274 8.792C50.5434 8.016 50.3754 7.312 50.2234 6.68H50.0794C49.9114 7.288 49.7234 7.984 49.5154 8.768C49.3154 9.552 49.1194 10.26 48.9274 10.892Z" fill="#364760"/>
</svg>
