<svg width="246" height="26" viewBox="0 0 246 26" fill="none" xmlns="http://www.w3.org/2000/svg">
<path d="M20.2625 12.688C20.2625 14.092 20.1605 15.448 19.9565 16.756C19.7645 18.052 19.3805 19.264 18.8045 20.392C18.2285 21.52 17.3645 22.528 16.2125 23.416C15.6605 23.848 14.9945 24.196 14.2145 24.46C13.4465 24.724 12.6545 24.916 11.8385 25.036C11.0225 25.156 10.2785 25.216 9.60645 25.216C8.05845 25.216 6.55245 25.198 5.08845 25.162C3.63645 25.138 2.12445 25.108 0.552453 25.072L0.300453 24.82V0.591999L0.552453 0.339998C2.10045 0.291998 3.60645 0.255999 5.07045 0.231999C6.54645 0.207999 8.05845 0.196 9.60645 0.196C10.2785 0.196 11.0225 0.261999 11.8385 0.393998C12.6545 0.513998 13.4525 0.705998 14.2325 0.969999C15.0125 1.234 15.6725 1.582 16.2125 2.014C17.3525 2.902 18.2105 3.91 18.7865 5.038C19.3625 6.154 19.7525 7.36 19.9565 8.656C20.1605 9.952 20.2625 11.296 20.2625 12.688ZM14.3405 12.688C14.3405 11.776 14.2805 10.852 14.1605 9.916C14.0525 8.968 13.8365 8.104 13.5125 7.324C13.2005 6.532 12.7265 5.896 12.0905 5.416C11.4665 4.924 10.6385 4.678 9.60645 4.678C8.99445 4.678 8.40645 4.678 7.84245 4.678C7.27845 4.678 6.67845 4.666 6.04245 4.642V20.752C6.67845 20.74 7.27845 20.734 7.84245 20.734C8.40645 20.734 8.99445 20.734 9.60645 20.734C10.6385 20.734 11.4665 20.494 12.0905 20.014C12.7265 19.522 13.2005 18.88 13.5125 18.088C13.8365 17.284 14.0525 16.414 14.1605 15.478C14.2805 14.53 14.3405 13.6 14.3405 12.688ZM24.2753 5.164C24.7313 5.068 25.2473 5.008 25.8233 4.984C26.3993 4.96 26.8553 4.948 27.1913 4.948C27.5513 4.948 27.9833 4.96 28.4873 4.984C29.0033 5.008 29.5013 5.068 29.9813 5.164V25C29.5013 25.084 29.0033 25.138 28.4873 25.162C27.9833 25.198 27.5513 25.216 27.1913 25.216C26.8553 25.216 26.3993 25.198 25.8233 25.162C25.2473 25.138 24.7313 25.084 24.2753 25V5.164ZM51.3712 11.194C51.3712 12.118 51.1612 12.94 50.7412 13.66C50.3212 14.38 49.7932 14.974 49.1572 15.442C48.5332 15.91 47.9092 16.21 47.2852 16.342C47.9332 16.558 48.4672 16.888 48.8872 17.332C49.3192 17.776 49.6912 18.346 50.0032 19.042L50.9392 21.184C51.1552 21.676 51.4012 22.132 51.6772 22.552C51.9532 22.96 52.2592 23.308 52.5952 23.596C52.2472 24.028 51.7252 24.43 51.0292 24.802C50.3332 25.162 49.5772 25.342 48.7612 25.342C47.9572 25.342 47.3032 25.15 46.7992 24.766C46.3072 24.37 45.8752 23.74 45.5032 22.876L43.9192 19.24C43.6672 18.652 43.3552 18.298 42.9832 18.178C42.6112 18.058 42.1312 17.998 41.5432 17.998H40.8412V25C40.3612 25.084 39.8632 25.138 39.3472 25.162C38.8432 25.198 38.4112 25.216 38.0512 25.216C37.7152 25.216 37.2712 25.198 36.7192 25.162C36.1672 25.138 35.6632 25.084 35.2072 25V5.344L35.4052 5.128C36.8572 5.092 38.2192 5.062 39.4912 5.038C40.7752 5.002 42.0532 4.984 43.3252 4.984C44.7652 4.984 46.0972 5.176 47.3212 5.56C48.5452 5.932 49.5232 6.574 50.2552 7.486C50.9992 8.386 51.3712 9.622 51.3712 11.194ZM40.8412 9.052V13.714C41.2612 13.702 41.6452 13.696 41.9932 13.696C42.3532 13.684 42.6172 13.678 42.7852 13.678C43.8652 13.678 44.5972 13.444 44.9812 12.976C45.3652 12.508 45.5572 11.962 45.5572 11.338C45.5572 10.726 45.3652 10.198 44.9812 9.754C44.5972 9.31 43.9552 9.088 43.0552 9.088C42.6232 9.088 42.2512 9.082 41.9392 9.07C41.6272 9.058 41.2612 9.052 40.8412 9.052ZM70.8053 20.482C70.8053 22.198 70.5353 23.392 69.9953 24.064C69.4673 24.736 68.5673 25.072 67.2953 25.072H58.9973C57.9773 25.072 57.1733 24.784 56.5853 24.208C55.9973 23.62 55.7033 22.834 55.7033 21.85V5.362L55.9013 5.164H70.1393C70.2233 5.572 70.2713 5.962 70.2833 6.334C70.2953 6.706 70.3013 7.06 70.3013 7.396C70.3013 7.72 70.2653 8.086 70.1933 8.494C70.1333 8.902 70.0253 9.316 69.8693 9.736H63.5693C63.0653 9.736 62.3033 9.73 61.2833 9.718C61.2953 10.09 61.3013 10.408 61.3013 10.672C61.3133 10.936 61.3193 11.254 61.3193 11.626V12.814C62.3153 12.802 63.0653 12.796 63.5693 12.796H68.1773C68.2973 13.12 68.3753 13.492 68.4113 13.912C68.4593 14.32 68.4833 14.668 68.4833 14.956C68.4833 15.292 68.4593 15.67 68.4113 16.09C68.3753 16.498 68.2973 16.87 68.1773 17.206H63.5693C63.3413 17.206 63.0233 17.206 62.6153 17.206C62.2073 17.206 61.7753 17.206 61.3193 17.206V18.376C61.3193 18.82 61.3133 19.186 61.3013 19.474C61.2893 19.762 61.2833 20.122 61.2833 20.554V20.59C61.7033 20.566 62.0933 20.542 62.4533 20.518C62.8133 20.494 63.2513 20.482 63.7673 20.482H70.8053ZM85.3865 14.146C85.3865 12.622 85.1825 11.398 84.7745 10.474C84.3665 9.538 83.5445 9.07 82.3085 9.07C81.0245 9.07 80.1125 9.598 79.5725 10.654C79.0325 11.71 78.7625 13.228 78.7625 15.208C78.7625 16.72 78.9545 17.884 79.3385 18.7C79.7345 19.504 80.2385 20.062 80.8505 20.374C81.4625 20.686 82.1105 20.842 82.7945 20.842C83.6825 20.842 84.5705 20.65 85.4585 20.266C86.3585 19.87 87.1625 19.408 87.8705 18.88C88.2545 19.072 88.6265 19.378 88.9865 19.798C89.3465 20.218 89.6585 20.668 89.9225 21.148C90.1865 21.628 90.3545 22.066 90.4265 22.462C89.4305 23.314 88.2185 24.04 86.7905 24.64C85.3745 25.24 83.7605 25.54 81.9485 25.54C80.2085 25.54 78.7565 25.234 77.5925 24.622C76.4405 24.01 75.5225 23.206 74.8385 22.21C74.1545 21.202 73.6685 20.086 73.3805 18.862C73.0925 17.638 72.9485 16.408 72.9485 15.172C72.9485 12.712 73.3925 10.708 74.2805 9.16C75.1805 7.6 76.3565 6.454 77.8085 5.722C79.2725 4.99 80.8385 4.624 82.5065 4.624C84.3785 4.624 85.9205 4.954 87.1325 5.614C88.3445 6.274 89.2445 7.108 89.8325 8.116C90.4205 9.124 90.7145 10.162 90.7145 11.23C90.7145 13.282 89.5625 14.308 87.2585 14.308C86.9825 14.308 86.6825 14.29 86.3585 14.254C86.0345 14.218 85.7105 14.182 85.3865 14.146ZM105.004 14.146C105.004 12.622 104.8 11.398 104.392 10.474C103.984 9.538 103.162 9.07 101.926 9.07C100.642 9.07 99.7296 9.598 99.1896 10.654C98.6496 11.71 98.3796 13.228 98.3796 15.208C98.3796 16.72 98.5716 17.884 98.9556 18.7C99.3516 19.504 99.8556 20.062 100.468 20.374C101.08 20.686 101.728 20.842 102.412 20.842C103.3 20.842 104.188 20.65 105.076 20.266C105.976 19.87 106.78 19.408 107.488 18.88C107.872 19.072 108.244 19.378 108.604 19.798C108.964 20.218 109.276 20.668 109.54 21.148C109.804 21.628 109.972 22.066 110.044 22.462C109.048 23.314 107.836 24.04 106.408 24.64C104.992 25.24 103.378 25.54 101.566 25.54C99.8256 25.54 98.3736 25.234 97.2096 24.622C96.0576 24.01 95.1396 23.206 94.4556 22.21C93.7716 21.202 93.2856 20.086 92.9976 18.862C92.7096 17.638 92.5656 16.408 92.5656 15.172C92.5656 12.712 93.0096 10.708 93.8976 9.16C94.7976 7.6 95.9736 6.454 97.4256 5.722C98.8896 4.99 100.456 4.624 102.124 4.624C103.996 4.624 105.538 4.954 106.75 5.614C107.962 6.274 108.862 7.108 109.45 8.116C110.038 9.124 110.332 10.162 110.332 11.23C110.332 13.282 109.18 14.308 106.876 14.308C106.6 14.308 106.3 14.29 105.976 14.254C105.652 14.218 105.328 14.182 105.004 14.146ZM113.889 5.164C114.345 5.068 114.861 5.008 115.437 4.984C116.013 4.96 116.469 4.948 116.805 4.948C117.165 4.948 117.597 4.96 118.101 4.984C118.617 5.008 119.115 5.068 119.595 5.164V25C119.115 25.084 118.617 25.138 118.101 25.162C117.597 25.198 117.165 25.216 116.805 25.216C116.469 25.216 116.013 25.198 115.437 25.162C114.861 25.138 114.345 25.084 113.889 25V5.164ZM123.363 15.118C123.363 11.902 124.191 9.352 125.847 7.468C127.515 5.572 129.945 4.624 133.137 4.624C136.377 4.624 138.819 5.566 140.463 7.45C142.119 9.322 142.947 11.878 142.947 15.118C142.947 18.358 142.119 20.908 140.463 22.768C138.807 24.616 136.365 25.54 133.137 25.54C129.897 25.54 127.455 24.604 125.811 22.732C124.179 20.86 123.363 18.322 123.363 15.118ZM129.177 15.118C129.177 15.802 129.219 16.51 129.303 17.242C129.399 17.962 129.579 18.634 129.843 19.258C130.119 19.882 130.521 20.392 131.049 20.788C131.577 21.172 132.279 21.364 133.155 21.364C134.031 21.364 134.733 21.172 135.261 20.788C135.789 20.392 136.185 19.882 136.449 19.258C136.725 18.634 136.905 17.962 136.989 17.242C137.085 16.51 137.133 15.802 137.133 15.118C137.133 14.422 137.085 13.708 136.989 12.976C136.905 12.232 136.725 11.548 136.449 10.924C136.185 10.288 135.789 9.778 135.261 9.394C134.733 8.998 134.031 8.8 133.155 8.8C132.279 8.8 131.577 8.998 131.049 9.394C130.521 9.778 130.119 10.288 129.843 10.924C129.579 11.548 129.399 12.232 129.303 12.976C129.219 13.708 129.177 14.422 129.177 15.118ZM153.637 15.946C153.553 15.754 153.421 15.454 153.241 15.046C153.061 14.626 152.869 14.176 152.665 13.696C152.461 13.216 152.269 12.766 152.089 12.346C151.921 11.926 151.789 11.62 151.693 11.428L151.567 11.482C151.615 12.43 151.663 13.456 151.711 14.56C151.759 15.652 151.795 16.654 151.819 17.566C151.855 18.466 151.873 19.12 151.873 19.528V25C151.405 25.084 150.955 25.138 150.523 25.162C150.091 25.198 149.689 25.216 149.317 25.216C148.981 25.216 148.561 25.198 148.057 25.162C147.565 25.138 147.097 25.084 146.653 25V5.29C147.097 5.182 147.649 5.098 148.309 5.038C148.969 4.978 149.479 4.948 149.839 4.948C150.211 4.948 150.739 4.96 151.423 4.984C152.107 4.996 152.671 5.056 153.115 5.164L157.345 14.182C157.429 14.35 157.567 14.656 157.759 15.1C157.963 15.544 158.179 16.03 158.407 16.558C158.635 17.086 158.845 17.584 159.037 18.052C159.241 18.508 159.391 18.844 159.487 19.06L159.649 19.024C159.601 18.232 159.535 17.308 159.451 16.252C159.379 15.196 159.313 14.176 159.253 13.192C159.193 12.208 159.163 11.422 159.163 10.834V8.026C159.163 6.754 159.439 5.92 159.991 5.524C160.543 5.116 161.365 4.912 162.457 4.912H164.311L164.527 5.164V24.892C164.059 25 163.495 25.078 162.835 25.126C162.175 25.186 161.671 25.216 161.323 25.216C161.083 25.216 160.753 25.21 160.333 25.198C159.913 25.186 159.481 25.168 159.037 25.144C158.605 25.12 158.245 25.072 157.957 25L153.637 15.946ZM175.573 0.753998C175.993 0.573998 176.473 0.417999 177.013 0.286C177.565 0.153999 178.099 0.0879989 178.615 0.0879989C179.623 0.0879989 180.355 0.309999 180.811 0.753998C181.279 1.186 181.609 2.02 181.801 3.256L183.313 12.562C183.445 13.342 183.577 14.176 183.709 15.064C183.841 15.94 183.961 16.792 184.069 17.62C184.177 18.436 184.255 19.132 184.303 19.708C184.327 19.936 184.363 20.074 184.411 20.122C184.459 20.17 184.543 20.194 184.663 20.194L187.633 0.879999C188.209 0.783999 188.827 0.717999 189.487 0.681999C190.147 0.633999 190.759 0.61 191.323 0.61C191.899 0.61 192.517 0.633999 193.177 0.681999C193.849 0.717999 194.455 0.783999 194.995 0.879999L197.749 19.708C197.785 19.948 197.833 20.092 197.893 20.14C197.953 20.176 198.037 20.194 198.145 20.194C198.205 19.534 198.289 18.76 198.397 17.872C198.517 16.984 198.643 16.072 198.775 15.136C198.919 14.188 199.063 13.306 199.207 12.49L201.259 0.411999C201.691 0.327999 202.129 0.273999 202.573 0.249998C203.017 0.213999 203.437 0.196 203.833 0.196C204.277 0.196 204.745 0.231999 205.237 0.303998C205.741 0.363998 206.179 0.453998 206.551 0.573998L206.839 0.934L202.069 24.964C201.409 25.036 200.611 25.096 199.675 25.144C198.751 25.192 197.911 25.216 197.155 25.216C196.303 25.216 195.547 25.072 194.887 24.784C194.239 24.496 193.825 23.77 193.645 22.606L192.421 14.83C192.205 13.414 192.001 11.95 191.809 10.438C191.629 8.926 191.491 7.606 191.395 6.478H191.107C190.987 7.606 190.819 8.926 190.603 10.438C190.399 11.938 190.177 13.402 189.937 14.83L188.299 24.964C187.615 25.036 186.835 25.096 185.959 25.144C185.095 25.192 184.273 25.216 183.493 25.216C182.557 25.216 181.765 25.072 181.117 24.784C180.481 24.496 180.049 23.77 179.821 22.606L175.573 0.753998ZM224.79 20.482C224.79 22.198 224.52 23.392 223.98 24.064C223.452 24.736 222.552 25.072 221.28 25.072H212.982C211.962 25.072 211.158 24.784 210.57 24.208C209.982 23.62 209.688 22.834 209.688 21.85V5.362L209.886 5.164H224.124C224.208 5.572 224.256 5.962 224.268 6.334C224.28 6.706 224.286 7.06 224.286 7.396C224.286 7.72 224.25 8.086 224.178 8.494C224.118 8.902 224.01 9.316 223.854 9.736H217.554C217.05 9.736 216.288 9.73 215.268 9.718C215.28 10.09 215.286 10.408 215.286 10.672C215.298 10.936 215.304 11.254 215.304 11.626V12.814C216.3 12.802 217.05 12.796 217.554 12.796H222.162C222.282 13.12 222.36 13.492 222.396 13.912C222.444 14.32 222.468 14.668 222.468 14.956C222.468 15.292 222.444 15.67 222.396 16.09C222.36 16.498 222.282 16.87 222.162 17.206H217.554C217.326 17.206 217.008 17.206 216.6 17.206C216.192 17.206 215.76 17.206 215.304 17.206V18.376C215.304 18.82 215.298 19.186 215.286 19.474C215.274 19.762 215.268 20.122 215.268 20.554V20.59C215.688 20.566 216.078 20.542 216.438 20.518C216.798 20.494 217.236 20.482 217.752 20.482H224.79ZM228.905 5.128C229.529 5.104 230.279 5.08 231.155 5.056C232.043 5.032 232.955 5.014 233.891 5.002C234.827 4.99 235.685 4.984 236.465 4.984C237.941 4.984 239.261 5.152 240.425 5.488C241.601 5.824 242.525 6.382 243.197 7.162C243.869 7.93 244.205 8.962 244.205 10.258C244.205 11.098 243.971 11.896 243.503 12.652C243.047 13.408 242.417 13.942 241.613 14.254C242.645 14.578 243.509 15.214 244.205 16.162C244.901 17.098 245.249 18.112 245.249 19.204C245.249 20.74 244.889 21.94 244.169 22.804C243.461 23.656 242.477 24.262 241.217 24.622C239.969 24.97 238.541 25.144 236.933 25.144C235.697 25.144 234.413 25.132 233.081 25.108C231.749 25.096 230.357 25.072 228.905 25.036L228.707 24.856V5.344L228.905 5.128ZM236.213 8.854C235.985 8.854 235.679 8.854 235.295 8.854C234.911 8.854 234.545 8.842 234.197 8.818V12.688H236.177C237.137 12.688 237.791 12.49 238.139 12.094C238.487 11.698 238.661 11.254 238.661 10.762C238.661 10.282 238.487 9.844 238.139 9.448C237.803 9.052 237.161 8.854 236.213 8.854ZM234.197 21.274C234.677 21.25 235.145 21.238 235.601 21.238C236.057 21.238 236.471 21.238 236.843 21.238C237.935 21.238 238.655 20.992 239.003 20.5C239.363 19.996 239.543 19.48 239.543 18.952C239.543 18.376 239.327 17.836 238.895 17.332C238.475 16.828 237.695 16.576 236.555 16.576H234.197V21.274Z" fill="#364760"/>
</svg>
