<svg width="196" height="25" viewBox="0 0 196 25" fill="none" xmlns="http://www.w3.org/2000/svg">
<path d="M16.2168 19.5643C16.2168 21.0542 15.9797 22.1828 15.5057 22.9503C15.0429 23.7178 14.0949 24.1016 12.6614 24.1016H3.65464C2.68399 24.1016 1.92213 23.8194 1.36908 23.2551C0.816035 22.6907 0.539511 21.9176 0.539511 20.9357V1.11054L0.776532 0.873522H15.3703C15.4493 1.27984 15.5001 1.66359 15.5226 2.02477C15.5452 2.37465 15.5565 2.70197 15.5565 3.00671C15.5565 3.31145 15.517 3.68956 15.438 4.14103C15.3703 4.58121 15.263 5.00446 15.1163 5.41078H8.1919C7.9436 5.41078 7.60499 5.41078 7.1761 5.41078C6.75849 5.39949 6.32395 5.38821 5.87248 5.37692C5.87248 5.83968 5.87813 6.25729 5.88941 6.62975C5.9007 6.99092 5.90634 7.39724 5.90634 7.84871V10.202C6.35781 10.1907 6.79235 10.1851 7.20996 10.1851C7.62757 10.1738 7.95488 10.1681 8.1919 10.1681H13.3556C13.4684 10.4954 13.5474 10.8736 13.5926 11.3024C13.649 11.7313 13.6772 12.0925 13.6772 12.386C13.6772 12.6907 13.649 13.0462 13.5926 13.4526C13.5474 13.8589 13.4684 14.237 13.3556 14.5869H8.1919C7.95488 14.5869 7.62757 14.5869 7.20996 14.5869C6.79235 14.5756 6.35781 14.5643 5.90634 14.553V17.1603C5.90634 17.6004 5.9007 18.0068 5.88941 18.3792C5.87813 18.7404 5.87248 19.1467 5.87248 19.5982V19.632C6.25623 19.6095 6.65127 19.5925 7.05759 19.5813C7.46391 19.57 7.90409 19.5643 8.37813 19.5643H16.2168ZM33.0196 19.6659C32.9519 21.3138 32.6641 22.465 32.1562 23.1196C31.6483 23.7743 30.7453 24.1016 29.4473 24.1016H22.8785C21.9078 24.1016 21.146 23.8307 20.5929 23.2889C20.0512 22.7359 19.7803 21.9966 19.7803 21.0711V5.37692L19.9834 5.17376H22.015C23.0421 5.17376 23.8209 5.43335 24.3514 5.95254C24.8819 6.46045 25.1471 7.31259 25.1471 8.50898V19.8352C26.3096 19.7223 27.3537 19.6659 28.2792 19.6659H33.0196ZM50.3872 19.7506C50.3872 21.3646 50.1332 22.4876 49.6253 23.1196C49.1287 23.7517 48.2822 24.0677 47.0858 24.0677H39.2811C38.3217 24.0677 37.5655 23.7968 37.0124 23.2551C36.4594 22.702 36.1829 21.9627 36.1829 21.0372V5.52929L36.3691 5.34306H49.7608C49.8398 5.72681 49.8849 6.09363 49.8962 6.44352C49.9075 6.7934 49.9132 7.12636 49.9132 7.44239C49.9132 7.74713 49.8793 8.09138 49.8116 8.47512C49.7551 8.85887 49.6536 9.24826 49.5068 9.6433H43.5813C43.1073 9.6433 42.3906 9.63766 41.4312 9.62637C41.4425 9.97626 41.4481 10.2754 41.4481 10.5237C41.4594 10.772 41.465 11.0711 41.465 11.421V12.5383C42.4018 12.5271 43.1073 12.5214 43.5813 12.5214H47.9154C48.0283 12.8262 48.1016 13.176 48.1355 13.5711C48.1806 13.9548 48.2032 14.2821 48.2032 14.553C48.2032 14.869 48.1806 15.2246 48.1355 15.6196C48.1016 16.0034 48.0283 16.3533 47.9154 16.6693H43.5813C43.3669 16.6693 43.0678 16.6693 42.684 16.6693C42.3003 16.6693 41.8939 16.6693 41.465 16.6693V17.7697C41.465 18.1873 41.4594 18.5316 41.4481 18.8025C41.4368 19.0733 41.4312 19.412 41.4312 19.8183V19.8521C41.8262 19.8296 42.193 19.807 42.5316 19.7844C42.8702 19.7618 43.2822 19.7506 43.7675 19.7506H50.3872ZM64.745 19.0564C64.745 18.4921 64.7562 17.9277 64.7788 17.3634C64.5757 17.3634 64.3668 17.3634 64.1524 17.3634C63.9492 17.3634 63.7517 17.3634 63.5598 17.3634C62.7246 17.3634 62.1151 17.1885 61.7314 16.8386C61.3477 16.4774 61.1558 15.9074 61.1558 15.1286C61.1558 14.8239 61.1783 14.4684 61.2235 14.062C61.2799 13.6557 61.3477 13.3453 61.4267 13.1309C62.2393 13.097 63.0463 13.0801 63.8477 13.0801C64.649 13.0688 65.4617 13.0632 66.2856 13.0632C67.5836 13.0632 68.4696 13.3115 68.9436 13.8081C69.4289 14.3047 69.6716 15.0101 69.6716 15.9244V23.4074C69.0734 23.5993 68.3116 23.7799 67.386 23.9492C66.4605 24.1185 65.5012 24.254 64.5079 24.3555C63.5147 24.4571 62.6118 24.5079 61.7991 24.5079C59.5531 24.5079 57.7359 24.0959 56.3476 23.272C54.9707 22.4481 53.9661 21.3194 53.3341 19.886C52.7133 18.4413 52.4029 16.8047 52.4029 14.9763C52.4029 12.5609 52.8488 10.614 53.7404 9.1354C54.6433 7.64555 55.8397 6.55638 57.3296 5.86789C58.8194 5.1794 60.4504 4.83516 62.2224 4.83516C63.5542 4.83516 64.8352 4.9706 66.0655 5.24148C67.307 5.50108 68.4018 5.85096 69.3499 6.29115C69.2935 7.02478 69.0734 7.79228 68.6897 8.59364C68.3172 9.3837 67.8939 9.98754 67.4199 10.4052C65.693 9.54736 64.0508 9.11847 62.4933 9.11847C59.412 9.11847 57.8713 11.0485 57.8713 14.9086C57.8713 16.8273 58.2664 18.2438 59.0564 19.158C59.8465 20.0722 61.0598 20.5293 62.6964 20.5293C63.035 20.5293 63.3793 20.518 63.7291 20.4955C64.079 20.4616 64.4176 20.4165 64.745 20.36V19.0564ZM73.7811 5.34306C74.21 5.25277 74.6953 5.19633 75.2371 5.17376C75.7789 5.15119 76.2078 5.1399 76.5238 5.1399C76.8624 5.1399 77.2687 5.15119 77.7428 5.17376C78.2281 5.19633 78.6965 5.25277 79.148 5.34306V24C78.6965 24.079 78.2281 24.1298 77.7428 24.1524C77.2687 24.1862 76.8624 24.2032 76.5238 24.2032C76.2078 24.2032 75.7789 24.1862 75.2371 24.1524C74.6953 24.1298 74.21 24.079 73.7811 24V5.34306ZM99.2664 11.0146C99.2664 11.8837 99.0689 12.6569 98.6739 13.3341C98.2788 14.0113 97.7822 14.5699 97.184 15.0101C96.5971 15.4503 96.0102 15.7325 95.4233 15.8566C96.0328 16.0598 96.535 16.3702 96.9301 16.7878C97.3364 17.2054 97.6863 17.7415 97.9797 18.3961L98.8601 20.4108C99.0633 20.8736 99.2946 21.3025 99.5542 21.6975C99.8138 22.0813 100.102 22.4086 100.418 22.6795C100.09 23.0858 99.5994 23.4639 98.9448 23.8138C98.2901 24.1524 97.5791 24.3217 96.8116 24.3217C96.0554 24.3217 95.4402 24.1411 94.9662 23.7799C94.5034 23.4074 94.0971 22.8149 93.7472 22.0023L92.2574 18.5824C92.0204 18.0293 91.7269 17.6964 91.377 17.5835C91.0271 17.4706 90.5757 17.4142 90.0226 17.4142H89.3623V24C88.9109 24.079 88.4425 24.1298 87.9571 24.1524C87.4831 24.1862 87.0768 24.2032 86.7382 24.2032C86.4221 24.2032 86.0045 24.1862 85.4853 24.1524C84.9662 24.1298 84.4921 24.079 84.0632 24V5.51236L84.2495 5.3092C85.6151 5.27534 86.8962 5.24712 88.0926 5.22455C89.3003 5.19069 90.5023 5.17376 91.6987 5.17376C93.0531 5.17376 94.3059 5.35435 95.4572 5.71552C96.6084 6.06541 97.5283 6.66925 98.2168 7.52704C98.9165 8.37354 99.2664 9.53608 99.2664 11.0146ZM89.3623 8.99996V13.3848C89.7574 13.3736 90.1185 13.3679 90.4459 13.3679C90.7845 13.3566 91.0328 13.351 91.1908 13.351C92.2066 13.351 92.8951 13.1309 93.2562 12.6907C93.6174 12.2505 93.798 11.737 93.798 11.1501C93.798 10.5745 93.6174 10.0778 93.2562 9.66023C92.8951 9.24262 92.2912 9.03382 91.4447 9.03382C91.0384 9.03382 90.6885 9.02817 90.3951 9.01689C90.1016 9.0056 89.7574 8.99996 89.3623 8.99996ZM116.419 11.8611C116.611 11.658 116.865 11.3984 117.181 11.0824C117.497 10.7663 117.824 10.4559 118.163 10.1512C118.501 9.83517 118.795 9.58122 119.043 9.38935L118.975 9.28777C118.456 9.3442 117.863 9.39499 117.197 9.44014C116.543 9.474 115.928 9.50222 115.352 9.52479C114.788 9.54736 114.381 9.55865 114.133 9.55865H110.205C110.126 9.23133 110.076 8.92659 110.053 8.64442C110.03 8.35097 110.019 8.06316 110.019 7.78099C110.019 7.31824 110.047 6.91191 110.104 6.56203C110.172 6.20085 110.262 5.79453 110.375 5.34306H123.986C124.223 6.18956 124.393 6.82162 124.494 7.23923C124.596 7.64555 124.658 7.93336 124.681 8.10266C124.714 8.27196 124.731 8.4074 124.731 8.50898C124.731 8.80244 124.692 9.09589 124.613 9.38935C124.545 9.6828 124.387 9.97061 124.139 10.2528L117.807 17.465C117.525 17.781 117.147 18.1761 116.673 18.6501C116.21 19.1241 115.787 19.5135 115.403 19.8183L115.471 19.9537C116.249 19.8973 117.056 19.8521 117.892 19.8183C118.738 19.7844 119.5 19.7506 120.177 19.7167L121.142 19.6828C121.763 19.6603 122.395 19.6038 123.038 19.5135C123.693 19.4232 124.246 19.2596 124.698 19.0226C124.799 19.3724 124.872 19.7054 124.918 20.0214C124.974 20.3375 125.002 20.7269 125.002 21.1896C125.002 22.1038 124.652 22.8093 123.953 23.3059C123.253 23.7912 122.423 24.0339 121.464 24.0339H110.019C109.861 23.2551 109.743 22.6682 109.664 22.2731C109.585 21.8781 109.528 21.5903 109.494 21.4097C109.472 21.2291 109.46 21.0767 109.46 20.9526C109.46 20.2528 109.669 19.6377 110.087 19.1072L116.419 11.8611ZM126.77 14.7054C126.77 11.6806 127.548 9.28212 129.106 7.51011C130.675 5.72681 132.96 4.83516 135.963 4.83516C139.01 4.83516 141.307 5.72117 142.853 7.49318C144.411 9.25391 145.19 11.658 145.19 14.7054C145.19 17.7528 144.411 20.1512 142.853 21.9007C141.296 23.6388 138.999 24.5079 135.963 24.5079C132.915 24.5079 130.618 23.6275 129.072 21.8668C127.537 20.1061 126.77 17.7189 126.77 14.7054ZM132.238 14.7054C132.238 15.3487 132.278 16.0146 132.357 16.7031C132.447 17.3803 132.616 18.0124 132.864 18.5993C133.124 19.1862 133.502 19.6659 133.999 20.0384C134.495 20.3995 135.156 20.5801 135.98 20.5801C136.803 20.5801 137.464 20.3995 137.96 20.0384C138.457 19.6659 138.829 19.1862 139.078 18.5993C139.337 18.0124 139.507 17.3803 139.586 16.7031C139.676 16.0146 139.721 15.3487 139.721 14.7054C139.721 14.0508 139.676 13.3792 139.586 12.6907C139.507 11.9909 139.337 11.3476 139.078 10.7607C138.829 10.1625 138.457 9.6828 137.96 9.32163C137.464 8.94917 136.803 8.76294 135.98 8.76294C135.156 8.76294 134.495 8.94917 133.999 9.32163C133.502 9.6828 133.124 10.1625 132.864 10.7607C132.616 11.3476 132.447 11.9909 132.357 12.6907C132.278 13.3792 132.238 14.0508 132.238 14.7054ZM155.244 15.4842C155.165 15.3036 155.041 15.0214 154.872 14.6377C154.702 14.2426 154.522 13.8194 154.33 13.3679C154.138 12.9164 153.957 12.4932 153.788 12.0982C153.63 11.7031 153.506 11.4153 153.416 11.2347L153.297 11.2855C153.342 12.1772 153.387 13.1422 153.433 14.1806C153.478 15.2076 153.512 16.1501 153.534 17.0079C153.568 17.8544 153.585 18.4695 153.585 18.8533V24C153.145 24.079 152.722 24.1298 152.315 24.1524C151.909 24.1862 151.531 24.2032 151.181 24.2032C150.865 24.2032 150.47 24.1862 149.996 24.1524C149.533 24.1298 149.093 24.079 148.675 24V5.46157C149.093 5.35999 149.612 5.28098 150.233 5.22455C150.854 5.16812 151.333 5.1399 151.672 5.1399C152.022 5.1399 152.518 5.15119 153.162 5.17376C153.805 5.18505 154.336 5.24148 154.753 5.34306L158.732 13.825C158.811 13.983 158.941 14.2709 159.121 14.6885C159.313 15.1061 159.516 15.5632 159.731 16.0598C159.945 16.5564 160.143 17.0248 160.323 17.465C160.515 17.8939 160.656 18.2099 160.746 18.4131L160.899 18.3792C160.854 17.6343 160.792 16.7652 160.713 15.772C160.645 14.7788 160.583 13.8194 160.526 12.8939C160.47 11.9684 160.442 11.2291 160.442 10.676V8.03494C160.442 6.83855 160.701 6.05412 161.22 5.68166C161.74 5.29791 162.513 5.10604 163.54 5.10604H165.284L165.487 5.34306V23.8984C165.047 24 164.516 24.0734 163.895 24.1185C163.275 24.1749 162.801 24.2032 162.473 24.2032C162.248 24.2032 161.937 24.1975 161.542 24.1862C161.147 24.1749 160.741 24.158 160.323 24.1354C159.917 24.1129 159.578 24.0677 159.307 24L155.244 15.4842ZM175.107 20.7325C174.927 20.7325 174.752 20.7325 174.582 20.7325C174.413 20.7212 174.244 20.7099 174.075 20.6986L173.025 24C172.698 24.079 172.342 24.1354 171.958 24.1693C171.575 24.2144 171.174 24.237 170.756 24.237C170.305 24.237 169.848 24.2032 169.385 24.1354C168.933 24.0677 168.561 23.9718 168.268 23.8476L168.081 23.5598L174.667 5.34306C175.254 5.25277 175.818 5.19633 176.36 5.17376C176.913 5.15119 177.415 5.1399 177.867 5.1399C178.285 5.1399 178.736 5.15119 179.221 5.17376C179.707 5.19633 180.254 5.25277 180.864 5.34306L187.263 23.746C186.868 23.9266 186.366 24.0621 185.756 24.1524C185.147 24.254 184.656 24.3047 184.283 24.3047C183.663 24.3047 183.064 24.1862 182.489 23.9492C181.913 23.7122 181.479 23.0858 181.185 22.07L180.762 20.6986C180.581 20.7099 180.406 20.7212 180.237 20.7325C180.068 20.7325 179.887 20.7325 179.695 20.7325H175.107ZM175.785 15.3826L175.412 16.5508C175.581 16.5395 175.751 16.5338 175.92 16.5338C176.089 16.5226 176.264 16.5169 176.445 16.5169H178.561C178.73 16.5169 178.883 16.5226 179.018 16.5338C179.165 16.5338 179.312 16.5395 179.458 16.5508L179.103 15.3995C178.843 14.5079 178.584 13.5146 178.324 12.4198C178.064 11.325 177.827 10.3318 177.613 9.44014H177.41C177.173 10.2979 176.908 11.2799 176.614 12.386C176.332 13.4921 176.055 14.4909 175.785 15.3826ZM189.335 21.6975C189.335 21.4943 189.363 21.1783 189.42 20.7494C189.488 20.3205 189.595 19.9537 189.742 19.649C190.08 19.4571 190.492 19.3047 190.977 19.1919C191.474 19.079 191.948 19.0226 192.4 19.0226C192.84 19.0226 193.308 19.079 193.805 19.1919C194.301 19.3047 194.719 19.4571 195.058 19.649C195.204 19.9537 195.306 20.3205 195.362 20.7494C195.419 21.1783 195.447 21.4943 195.447 21.6975C195.447 21.9007 195.419 22.2167 195.362 22.6456C195.306 23.0745 195.204 23.4413 195.058 23.746C194.719 23.9492 194.301 24.1016 193.805 24.2032C193.308 24.3047 192.84 24.3555 192.4 24.3555C191.948 24.3555 191.474 24.3047 190.977 24.2032C190.492 24.1016 190.08 23.9492 189.742 23.746C189.595 23.4413 189.488 23.0745 189.42 22.6456C189.363 22.2167 189.335 21.9007 189.335 21.6975ZM189.335 11.2347C189.335 11.0316 189.363 10.7155 189.42 10.2866C189.488 9.85775 189.595 9.49093 189.742 9.18619C190.08 8.99431 190.492 8.84194 190.977 8.72907C191.474 8.61621 191.948 8.55977 192.4 8.55977C192.84 8.55977 193.308 8.61621 193.805 8.72907C194.301 8.84194 194.719 8.99431 195.058 9.18619C195.204 9.49093 195.306 9.85775 195.362 10.2866C195.419 10.7155 195.447 11.0316 195.447 11.2347C195.447 11.4379 195.419 11.7539 195.362 12.1828C195.306 12.6117 195.204 12.9785 195.058 13.2833C194.719 13.4864 194.301 13.6388 193.805 13.7404C193.308 13.842 192.84 13.8927 192.4 13.8927C191.948 13.8927 191.474 13.842 190.977 13.7404C190.492 13.6388 190.08 13.4864 189.742 13.2833C189.595 12.9785 189.488 12.6117 189.42 12.1828C189.363 11.7539 189.335 11.4379 189.335 11.2347Z" fill="white" fill-opacity="0.87"/>
</svg>
