<svg width="126" height="18" viewBox="0 0 126 18" fill="none" xmlns="http://www.w3.org/2000/svg">
<path d="M11.6737 13.856C11.6737 14.912 11.5057 15.712 11.1697 16.256C10.8417 16.8 10.1697 17.072 9.15372 17.072H2.76972C2.08172 17.072 1.54172 16.872 1.14972 16.472C0.757719 16.072 0.561719 15.524 0.561719 14.828V0.775999L0.729719 0.607999H11.0737C11.1297 0.895999 11.1657 1.168 11.1817 1.424C11.1977 1.672 11.2057 1.904 11.2057 2.12C11.2057 2.336 11.1777 2.604 11.1217 2.924C11.0737 3.236 10.9977 3.536 10.8937 3.824H5.98572C5.80972 3.824 5.56972 3.824 5.26572 3.824C4.96972 3.816 4.66172 3.808 4.34172 3.8C4.34172 4.128 4.34572 4.424 4.35372 4.688C4.36172 4.944 4.36572 5.232 4.36572 5.552V7.22C4.68572 7.212 4.99372 7.208 5.28972 7.208C5.58572 7.2 5.81772 7.196 5.98572 7.196H9.64572C9.72572 7.428 9.78172 7.696 9.81372 8C9.85372 8.304 9.87372 8.56 9.87372 8.768C9.87372 8.984 9.85372 9.236 9.81372 9.524C9.78172 9.812 9.72572 10.08 9.64572 10.328H5.98572C5.81772 10.328 5.58572 10.328 5.28972 10.328C4.99372 10.32 4.68572 10.312 4.36572 10.304V12.152C4.36572 12.464 4.36172 12.752 4.35372 13.016C4.34572 13.272 4.34172 13.56 4.34172 13.88V13.904C4.61372 13.888 4.89372 13.876 5.18172 13.868C5.46972 13.86 5.78172 13.856 6.11772 13.856H11.6737ZM12.9635 16.004C12.9635 15.7 13.0235 15.364 13.1435 14.996C13.2635 14.62 13.4275 14.272 13.6355 13.952C13.8435 13.632 14.0715 13.392 14.3195 13.232C14.9115 13.552 15.5715 13.828 16.2995 14.06C17.0275 14.284 17.7395 14.396 18.4355 14.396C18.8835 14.396 19.2515 14.304 19.5395 14.12C19.8355 13.936 19.9835 13.676 19.9835 13.34C19.9835 13.124 19.8995 12.928 19.7315 12.752C19.5635 12.568 19.2715 12.4 18.8555 12.248L16.8635 11.468C16.2475 11.244 15.6715 10.964 15.1355 10.628C14.5995 10.292 14.1675 9.88 13.8395 9.392C13.5115 8.904 13.3475 8.32 13.3475 7.64C13.3475 6.392 13.8275 5.376 14.7875 4.592C15.7475 3.808 17.0395 3.416 18.6635 3.416C19.5835 3.416 20.4955 3.524 21.3995 3.74C22.3115 3.948 23.0755 4.188 23.6915 4.46C23.6915 5.004 23.5795 5.54 23.3555 6.068C23.1315 6.596 22.8235 7.012 22.4315 7.316C21.8395 7.052 21.1955 6.832 20.4995 6.656C19.8035 6.472 19.1755 6.38 18.6155 6.38C18.1995 6.38 17.8795 6.468 17.6555 6.644C17.4395 6.82 17.3315 7.032 17.3315 7.28C17.3315 7.512 17.4395 7.688 17.6555 7.808C17.8715 7.928 18.1395 8.048 18.4595 8.168L20.4395 8.924C21.5435 9.324 22.4195 9.876 23.0675 10.58C23.7235 11.276 24.0515 12.136 24.0515 13.16C24.0515 14.064 23.8075 14.828 23.3195 15.452C22.8395 16.076 22.1795 16.548 21.3395 16.868C20.5075 17.188 19.5675 17.352 18.5195 17.36C17.2715 17.36 16.1595 17.216 15.1835 16.928C14.2155 16.64 13.4755 16.332 12.9635 16.004ZM32.5136 0.631999C32.9216 0.559999 33.3656 0.512 33.8456 0.487999C34.3336 0.463999 34.7536 0.451999 35.1056 0.451999C35.4576 0.451999 35.8496 0.463999 36.2816 0.487999C36.7136 0.512 37.1336 0.559999 37.5416 0.631999L38.9576 6.5C38.9896 6.644 39.0416 6.892 39.1136 7.244C39.1936 7.596 39.2816 7.996 39.3776 8.444C39.4736 8.892 39.5616 9.332 39.6416 9.764C39.7296 10.196 39.7976 10.564 39.8456 10.868H40.0136C40.0616 10.564 40.1296 10.196 40.2176 9.764C40.3056 9.332 40.3936 8.892 40.4816 8.444C40.5776 7.996 40.6656 7.596 40.7456 7.244C40.8256 6.892 40.8816 6.644 40.9136 6.5L42.3296 0.631999C42.7376 0.559999 43.1536 0.512 43.5776 0.487999C44.0096 0.463999 44.4016 0.451999 44.7536 0.451999C45.1056 0.451999 45.5256 0.463999 46.0136 0.487999C46.5016 0.512 46.9456 0.559999 47.3456 0.631999L48.6176 16.952C48.3456 17.024 48.0296 17.072 47.6696 17.096C47.3176 17.128 46.9856 17.144 46.6736 17.144C46.3856 17.144 46.1016 17.136 45.8216 17.12C45.5496 17.104 45.2736 17.072 44.9936 17.024L44.6336 10.34C44.5856 9.492 44.5416 8.556 44.5016 7.532C44.4616 6.508 44.4416 5.604 44.4416 4.82H44.2736L41.9096 14.588C41.6216 14.636 41.2856 14.672 40.9016 14.696C40.5176 14.712 40.1896 14.72 39.9176 14.72C39.6776 14.72 39.3616 14.712 38.9696 14.696C38.5776 14.672 38.2376 14.636 37.9496 14.588L35.5856 4.82H35.4296C35.4216 5.604 35.3976 6.508 35.3576 7.532C35.3256 8.556 35.2856 9.492 35.2376 10.34L34.8656 17.024C34.5936 17.072 34.3176 17.104 34.0376 17.12C33.7576 17.136 33.4736 17.144 33.1856 17.144C32.8816 17.144 32.5496 17.128 32.1896 17.096C31.8376 17.072 31.5216 17.024 31.2416 16.952L32.5136 0.631999ZM50.6818 10.412C50.6818 8.268 51.2338 6.568 52.3378 5.312C53.4498 4.048 55.0698 3.416 57.1978 3.416C59.3578 3.416 60.9858 4.044 62.0818 5.3C63.1858 6.548 63.7378 8.252 63.7378 10.412C63.7378 12.572 63.1858 14.272 62.0818 15.512C60.9778 16.744 59.3498 17.36 57.1978 17.36C55.0378 17.36 53.4098 16.736 52.3138 15.488C51.2258 14.24 50.6818 12.548 50.6818 10.412ZM54.5578 10.412C54.5578 10.868 54.5858 11.34 54.6418 11.828C54.7058 12.308 54.8258 12.756 55.0018 13.172C55.1858 13.588 55.4538 13.928 55.8058 14.192C56.1578 14.448 56.6258 14.576 57.2098 14.576C57.7938 14.576 58.2618 14.448 58.6138 14.192C58.9658 13.928 59.2298 13.588 59.4058 13.172C59.5898 12.756 59.7098 12.308 59.7658 11.828C59.8298 11.34 59.8618 10.868 59.8618 10.412C59.8618 9.948 59.8298 9.472 59.7658 8.984C59.7098 8.488 59.5898 8.032 59.4058 7.616C59.2298 7.192 58.9658 6.852 58.6138 6.596C58.2618 6.332 57.7938 6.2 57.2098 6.2C56.6258 6.2 56.1578 6.332 55.8058 6.596C55.4538 6.852 55.1858 7.192 55.0018 7.616C54.8258 8.032 54.7058 8.488 54.6418 8.984C54.5858 9.472 54.5578 9.948 54.5578 10.412ZM70.8645 10.964C70.8085 10.836 70.7205 10.636 70.6005 10.364C70.4805 10.084 70.3525 9.784 70.2165 9.464C70.0805 9.144 69.9525 8.844 69.8325 8.564C69.7205 8.284 69.6325 8.08 69.5685 7.952L69.4845 7.988C69.5165 8.62 69.5485 9.304 69.5805 10.04C69.6125 10.768 69.6365 11.436 69.6525 12.044C69.6765 12.644 69.6885 13.08 69.6885 13.352V17C69.3765 17.056 69.0765 17.092 68.7885 17.108C68.5005 17.132 68.2325 17.144 67.9845 17.144C67.7605 17.144 67.4805 17.132 67.1445 17.108C66.8165 17.092 66.5045 17.056 66.2085 17V3.86C66.5045 3.788 66.8725 3.732 67.3125 3.692C67.7525 3.652 68.0925 3.632 68.3325 3.632C68.5805 3.632 68.9325 3.64 69.3885 3.656C69.8445 3.664 70.2205 3.704 70.5165 3.776L73.3365 9.788C73.3925 9.9 73.4845 10.104 73.6125 10.4C73.7485 10.696 73.8925 11.02 74.0445 11.372C74.1965 11.724 74.3365 12.056 74.4645 12.368C74.6005 12.672 74.7005 12.896 74.7645 13.04L74.8725 13.016C74.8405 12.488 74.7965 11.872 74.7405 11.168C74.6925 10.464 74.6485 9.784 74.6085 9.128C74.5685 8.472 74.5485 7.948 74.5485 7.556V5.684C74.5485 4.836 74.7325 4.28 75.1005 4.016C75.4685 3.744 76.0165 3.608 76.7445 3.608H77.9805L78.1245 3.776V16.928C77.8125 17 77.4365 17.052 76.9965 17.084C76.5565 17.124 76.2205 17.144 75.9885 17.144C75.8285 17.144 75.6085 17.14 75.3285 17.132C75.0485 17.124 74.7605 17.112 74.4645 17.096C74.1765 17.08 73.9365 17.048 73.7445 17L70.8645 10.964ZM81.6315 3.776C81.9355 3.712 82.2795 3.672 82.6635 3.656C83.0475 3.64 83.3515 3.632 83.5755 3.632C83.8155 3.632 84.1035 3.64 84.4395 3.656C84.7835 3.672 85.1155 3.712 85.4355 3.776V17C85.1155 17.056 84.7835 17.092 84.4395 17.108C84.1035 17.132 83.8155 17.144 83.5755 17.144C83.3515 17.144 83.0475 17.132 82.6635 17.108C82.2795 17.092 81.9355 17.056 81.6315 17V3.776ZM90.9354 8.276C90.9354 8.02 90.9394 7.784 90.9474 7.568C90.9554 7.344 90.9594 7.096 90.9594 6.824C90.7914 6.824 90.5594 6.828 90.2634 6.836C89.9754 6.844 89.7474 6.848 89.5794 6.848H87.3594C87.2954 6.56 87.2554 6.292 87.2394 6.044C87.2234 5.788 87.2154 5.556 87.2154 5.348C87.2154 5.14 87.2234 4.896 87.2394 4.616C87.2554 4.328 87.2954 4.048 87.3594 3.776H98.2194C98.2754 3.992 98.3154 4.236 98.3394 4.508C98.3714 4.78 98.3874 5 98.3874 5.168C98.3874 5.712 98.2434 6.128 97.9554 6.416C97.6674 6.704 97.1874 6.848 96.5154 6.848H96.0234C95.8554 6.848 95.6314 6.844 95.3514 6.836C95.0794 6.828 94.8674 6.824 94.7154 6.824C94.7154 7.096 94.7194 7.344 94.7274 7.568C94.7354 7.784 94.7394 8.02 94.7394 8.276V17C94.5154 17.048 94.2074 17.084 93.8154 17.108C93.4234 17.132 93.0954 17.144 92.8314 17.144C92.5834 17.144 92.2714 17.132 91.8954 17.108C91.5194 17.084 91.1994 17.048 90.9354 17V8.276ZM98.7755 10.412C98.7755 8.268 99.3275 6.568 100.432 5.312C101.544 4.048 103.164 3.416 105.292 3.416C107.452 3.416 109.08 4.044 110.176 5.3C111.28 6.548 111.832 8.252 111.832 10.412C111.832 12.572 111.28 14.272 110.176 15.512C109.072 16.744 107.444 17.36 105.292 17.36C103.132 17.36 101.504 16.736 100.408 15.488C99.3195 14.24 98.7755 12.548 98.7755 10.412ZM102.652 10.412C102.652 10.868 102.68 11.34 102.736 11.828C102.8 12.308 102.92 12.756 103.096 13.172C103.28 13.588 103.548 13.928 103.9 14.192C104.252 14.448 104.72 14.576 105.304 14.576C105.888 14.576 106.356 14.448 106.708 14.192C107.06 13.928 107.324 13.588 107.5 13.172C107.684 12.756 107.804 12.308 107.86 11.828C107.924 11.34 107.956 10.868 107.956 10.412C107.956 9.948 107.924 9.472 107.86 8.984C107.804 8.488 107.684 8.032 107.5 7.616C107.324 7.192 107.06 6.852 106.708 6.596C106.356 6.332 105.888 6.2 105.304 6.2C104.72 6.2 104.252 6.332 103.9 6.596C103.548 6.852 103.28 7.192 103.096 7.616C102.92 8.032 102.8 8.488 102.736 8.984C102.68 9.472 102.652 9.948 102.652 10.412ZM125.078 7.796C125.078 8.412 124.938 8.96 124.658 9.44C124.378 9.92 124.026 10.316 123.602 10.628C123.186 10.94 122.77 11.14 122.354 11.228C122.786 11.372 123.142 11.592 123.422 11.888C123.71 12.184 123.958 12.564 124.166 13.028L124.79 14.456C124.934 14.784 125.098 15.088 125.282 15.368C125.466 15.64 125.67 15.872 125.894 16.064C125.662 16.352 125.314 16.62 124.85 16.868C124.386 17.108 123.882 17.228 123.338 17.228C122.802 17.228 122.366 17.1 122.03 16.844C121.702 16.58 121.414 16.16 121.166 15.584L120.11 13.16C119.942 12.768 119.734 12.532 119.486 12.452C119.238 12.372 118.918 12.332 118.526 12.332H118.058V17C117.738 17.056 117.406 17.092 117.062 17.108C116.726 17.132 116.438 17.144 116.198 17.144C115.974 17.144 115.678 17.132 115.31 17.108C114.942 17.092 114.606 17.056 114.302 17V3.896L114.434 3.752C115.402 3.728 116.31 3.708 117.158 3.692C118.014 3.668 118.866 3.656 119.714 3.656C120.674 3.656 121.562 3.784 122.378 4.04C123.194 4.288 123.846 4.716 124.334 5.324C124.83 5.924 125.078 6.748 125.078 7.796ZM118.058 6.368V9.476C118.338 9.468 118.594 9.464 118.826 9.464C119.066 9.456 119.242 9.452 119.354 9.452C120.074 9.452 120.562 9.296 120.818 8.984C121.074 8.672 121.202 8.308 121.202 7.892C121.202 7.484 121.074 7.132 120.818 6.836C120.562 6.54 120.134 6.392 119.534 6.392C119.246 6.392 118.998 6.388 118.79 6.38C118.582 6.372 118.338 6.368 118.058 6.368Z" fill="#364760"/>
</svg>
