<svg width="259" height="35" viewBox="0 0 259 35" fill="none" xmlns="http://www.w3.org/2000/svg">
<path d="M11.9904 27.136C11.7344 27.136 11.4304 27.128 11.0784 27.112C10.7424 27.096 10.4144 27.088 10.0944 27.088L8.05444 34.048C7.57444 34.16 7.05444 34.232 6.49444 34.264C5.95044 34.312 5.38244 34.336 4.79044 34.336C4.21444 34.336 3.55844 34.288 2.82244 34.192C2.10244 34.112 1.52644 33.984 1.09444 33.808L0.806438 33.4L11.4144 1.216C12.0224 1.12 12.7504 1.048 13.5984 0.999997C14.4624 0.951999 15.2144 0.927999 15.8544 0.927999C16.4624 0.927999 17.1984 0.959999 18.0624 1.024C18.9264 1.072 19.6704 1.152 20.2944 1.264L30.6144 33.496C30.0864 33.8 29.3984 34.032 28.5504 34.192C27.7184 34.352 26.9424 34.432 26.2224 34.432C25.0064 34.432 24.0544 34.152 23.3664 33.592C22.6784 33.016 22.1024 31.904 21.6384 30.256L20.7264 27.088C20.4224 27.088 20.0944 27.096 19.7424 27.112C19.3904 27.128 19.0864 27.136 18.8304 27.136H11.9904ZM12.9504 17.368L11.8704 21.088C12.1744 21.088 12.5024 21.088 12.8544 21.088C13.2064 21.072 13.5184 21.064 13.7904 21.064H17.2944C17.5344 21.064 17.8064 21.072 18.1104 21.088C18.4304 21.088 18.7424 21.088 19.0464 21.088L18.2064 18.088C17.8384 16.744 17.4064 15.16 16.9104 13.336C16.4144 11.512 15.9664 9.808 15.5664 8.224H15.2784C15.1184 9.12 14.9024 10.112 14.6304 11.2C14.3584 12.288 14.0704 13.376 13.7664 14.464C13.4784 15.536 13.2064 16.504 12.9504 17.368ZM55.4878 16.624C55.4878 18.704 55.0158 20.432 54.0718 21.808C53.1438 23.168 51.8638 24.184 50.2318 24.856C48.5998 25.512 46.7438 25.84 44.6638 25.84H42.0478V34C41.4078 34.112 40.7518 34.184 40.0798 34.216C39.4078 34.264 38.8318 34.288 38.3518 34.288C37.9038 34.288 37.2958 34.264 36.5278 34.216C35.7598 34.184 35.0718 34.112 34.4638 34V7.792L34.7278 7.504C36.0238 7.472 37.5838 7.432 39.4078 7.384C41.2318 7.336 42.9838 7.312 44.6638 7.312C46.7598 7.312 48.6238 7.632 50.2558 8.272C51.8878 8.912 53.1678 9.92 54.0958 11.296C55.0238 12.672 55.4878 14.448 55.4878 16.624ZM42.0478 12.928V20.272C42.4798 20.256 42.8718 20.248 43.2238 20.248C43.5758 20.232 43.8398 20.224 44.0158 20.224C45.0718 20.224 45.8638 20.032 46.3918 19.648C46.9358 19.248 47.2958 18.768 47.4718 18.208C47.6478 17.632 47.7358 17.088 47.7358 16.576C47.7358 16.096 47.6478 15.576 47.4718 15.016C47.2958 14.456 46.9358 13.976 46.3918 13.576C45.8638 13.176 45.0718 12.976 44.0158 12.976C43.6158 12.976 43.3278 12.976 43.1518 12.976C42.9758 12.96 42.6078 12.944 42.0478 12.928ZM58.1604 20.824C58.1604 16.536 59.2644 13.136 61.4724 10.624C63.6964 8.096 66.9364 6.832 71.1924 6.832C75.5124 6.832 78.7684 8.088 80.9604 10.6C83.1684 13.096 84.2724 16.504 84.2724 20.824C84.2724 25.144 83.1684 28.544 80.9604 31.024C78.7524 33.488 75.4964 34.72 71.1924 34.72C66.8724 34.72 63.6164 33.472 61.4244 30.976C59.2484 28.48 58.1604 25.096 58.1604 20.824ZM65.9124 20.824C65.9124 21.736 65.9684 22.68 66.0804 23.656C66.2084 24.616 66.4484 25.512 66.8004 26.344C67.1684 27.176 67.7044 27.856 68.4084 28.384C69.1124 28.896 70.0484 29.152 71.2164 29.152C72.3844 29.152 73.3204 28.896 74.0244 28.384C74.7284 27.856 75.2564 27.176 75.6084 26.344C75.9764 25.512 76.2164 24.616 76.3284 23.656C76.4564 22.68 76.5204 21.736 76.5204 20.824C76.5204 19.896 76.4564 18.944 76.3284 17.968C76.2164 16.976 75.9764 16.064 75.6084 15.232C75.2564 14.384 74.7284 13.704 74.0244 13.192C73.3204 12.664 72.3844 12.4 71.2164 12.4C70.0484 12.4 69.1124 12.664 68.4084 13.192C67.7044 13.704 67.1684 14.384 66.8004 15.232C66.4484 16.064 66.2084 16.976 66.0804 17.968C65.9684 18.944 65.9124 19.896 65.9124 20.824ZM110.766 15.592C110.766 16.824 110.486 17.92 109.926 18.88C109.366 19.84 108.662 20.632 107.814 21.256C106.982 21.88 106.15 22.28 105.318 22.456C106.182 22.744 106.894 23.184 107.454 23.776C108.03 24.368 108.526 25.128 108.942 26.056L110.19 28.912C110.478 29.568 110.806 30.176 111.174 30.736C111.542 31.28 111.95 31.744 112.398 32.128C111.934 32.704 111.238 33.24 110.31 33.736C109.382 34.216 108.374 34.456 107.286 34.456C106.214 34.456 105.342 34.2 104.67 33.688C104.014 33.16 103.438 32.32 102.942 31.168L100.83 26.32C100.494 25.536 100.078 25.064 99.5818 24.904C99.0858 24.744 98.4458 24.664 97.6618 24.664H96.7258V34C96.0858 34.112 95.4218 34.184 94.7338 34.216C94.0618 34.264 93.4858 34.288 93.0058 34.288C92.5578 34.288 91.9658 34.264 91.2298 34.216C90.4938 34.184 89.8218 34.112 89.2138 34V7.792L89.4778 7.504C91.4138 7.456 93.2298 7.416 94.9258 7.384C96.6378 7.336 98.3418 7.312 100.038 7.312C101.958 7.312 103.734 7.568 105.366 8.08C106.998 8.576 108.302 9.432 109.278 10.648C110.27 11.848 110.766 13.496 110.766 15.592ZM96.7258 12.736V18.952C97.2858 18.936 97.7978 18.928 98.2618 18.928C98.7418 18.912 99.0938 18.904 99.3178 18.904C100.758 18.904 101.734 18.592 102.246 17.968C102.758 17.344 103.014 16.616 103.014 15.784C103.014 14.968 102.758 14.264 102.246 13.672C101.734 13.08 100.878 12.784 99.6778 12.784C99.1018 12.784 98.6058 12.776 98.1898 12.76C97.7738 12.744 97.2858 12.736 96.7258 12.736ZM120.574 16.552C120.574 16.04 120.582 15.568 120.598 15.136C120.614 14.688 120.622 14.192 120.622 13.648C120.286 13.648 119.822 13.656 119.23 13.672C118.654 13.688 118.198 13.696 117.862 13.696H113.422C113.294 13.12 113.214 12.584 113.182 12.088C113.15 11.576 113.134 11.112 113.134 10.696C113.134 10.28 113.15 9.792 113.182 9.232C113.214 8.656 113.294 8.096 113.422 7.552H135.142C135.254 7.984 135.334 8.472 135.382 9.016C135.446 9.56 135.478 10 135.478 10.336C135.478 11.424 135.19 12.256 134.614 12.832C134.038 13.408 133.078 13.696 131.734 13.696H130.75C130.414 13.696 129.966 13.688 129.406 13.672C128.862 13.656 128.438 13.648 128.134 13.648C128.134 14.192 128.142 14.688 128.158 15.136C128.174 15.568 128.182 16.04 128.182 16.552V34C127.734 34.096 127.118 34.168 126.334 34.216C125.55 34.264 124.894 34.288 124.366 34.288C123.87 34.288 123.246 34.264 122.494 34.216C121.742 34.168 121.102 34.096 120.574 34V16.552ZM158.85 27.976C158.85 30.264 158.49 31.856 157.77 32.752C157.066 33.648 155.866 34.096 154.17 34.096H143.106C141.746 34.096 140.674 33.712 139.89 32.944C139.106 32.16 138.714 31.112 138.714 29.8V7.816L138.978 7.552H157.962C158.074 8.096 158.138 8.616 158.154 9.112C158.17 9.608 158.178 10.08 158.178 10.528C158.178 10.96 158.13 11.448 158.034 11.992C157.954 12.536 157.81 13.088 157.602 13.648H149.202C148.53 13.648 147.514 13.64 146.154 13.624C146.17 14.12 146.178 14.544 146.178 14.896C146.194 15.248 146.202 15.672 146.202 16.168V17.752C147.53 17.736 148.53 17.728 149.202 17.728H155.346C155.506 18.16 155.61 18.656 155.658 19.216C155.722 19.76 155.754 20.224 155.754 20.608C155.754 21.056 155.722 21.56 155.658 22.12C155.61 22.664 155.506 23.16 155.346 23.608H149.202C148.898 23.608 148.474 23.608 147.93 23.608C147.386 23.608 146.81 23.608 146.202 23.608V25.168C146.202 25.76 146.194 26.248 146.178 26.632C146.162 27.016 146.154 27.496 146.154 28.072V28.12C146.714 28.088 147.234 28.056 147.714 28.024C148.194 27.992 148.778 27.976 149.466 27.976H158.85ZM191.948 14.272C191.98 12.944 191.844 11.696 191.54 10.528C191.252 9.344 190.716 8.392 189.932 7.672C189.164 6.936 188.076 6.568 186.668 6.568C184.604 6.568 183.132 7.528 182.252 9.448C181.388 11.352 180.956 14.128 180.956 17.776C180.956 21.184 181.524 23.744 182.66 25.456C183.812 27.168 185.436 28.024 187.532 28.024C189.196 28.024 190.692 27.672 192.02 26.968C193.364 26.264 194.588 25.496 195.692 24.664C196.444 25.176 197.172 25.904 197.876 26.848C198.596 27.792 199.044 28.712 199.22 29.608C198.292 30.52 197.14 31.368 195.764 32.152C194.404 32.92 192.9 33.536 191.252 34C189.604 34.48 187.892 34.72 186.116 34.72C183.604 34.72 181.492 34.232 179.78 33.256C178.084 32.264 176.732 30.952 175.724 29.32C174.716 27.672 173.988 25.848 173.54 23.848C173.108 21.832 172.892 19.792 172.892 17.728C172.892 13.712 173.524 10.432 174.788 7.888C176.068 5.344 177.772 3.472 179.9 2.272C182.028 1.072 184.372 0.471998 186.932 0.471998C189.412 0.471998 191.572 0.911999 193.412 1.792C195.268 2.672 196.7 3.864 197.708 5.368C198.732 6.872 199.244 8.568 199.244 10.456C199.244 11.944 198.852 13.024 198.068 13.696C197.3 14.352 196.228 14.68 194.852 14.68C194.292 14.68 193.78 14.64 193.316 14.56C192.868 14.48 192.412 14.384 191.948 14.272ZM220.964 14.272C220.996 12.944 220.86 11.696 220.556 10.528C220.268 9.344 219.732 8.392 218.948 7.672C218.18 6.936 217.092 6.568 215.684 6.568C213.62 6.568 212.148 7.528 211.268 9.448C210.404 11.352 209.972 14.128 209.972 17.776C209.972 21.184 210.54 23.744 211.676 25.456C212.828 27.168 214.452 28.024 216.548 28.024C218.212 28.024 219.708 27.672 221.036 26.968C222.38 26.264 223.604 25.496 224.708 24.664C225.46 25.176 226.188 25.904 226.892 26.848C227.612 27.792 228.06 28.712 228.236 29.608C227.308 30.52 226.156 31.368 224.78 32.152C223.42 32.92 221.916 33.536 220.268 34C218.62 34.48 216.908 34.72 215.132 34.72C212.62 34.72 210.508 34.232 208.796 33.256C207.1 32.264 205.748 30.952 204.74 29.32C203.732 27.672 203.004 25.848 202.556 23.848C202.124 21.832 201.908 19.792 201.908 17.728C201.908 13.712 202.54 10.432 203.804 7.888C205.084 5.344 206.788 3.472 208.916 2.272C211.044 1.072 213.388 0.471998 215.948 0.471998C218.428 0.471998 220.588 0.911999 222.428 1.792C224.284 2.672 225.716 3.864 226.724 5.368C227.748 6.872 228.26 8.568 228.26 10.456C228.26 11.944 227.868 13.024 227.084 13.696C226.316 14.352 225.244 14.68 223.868 14.68C223.308 14.68 222.796 14.64 222.332 14.56C221.884 14.48 221.428 14.384 220.964 14.272ZM250.915 25.096C250.915 24.568 250.923 24.024 250.939 23.464C250.955 22.904 250.979 22.336 251.011 21.76H248.659C247.427 21.76 246.507 21.528 245.899 21.064C245.291 20.6 244.987 19.76 244.987 18.544C244.987 18.048 245.035 17.512 245.131 16.936C245.243 16.36 245.379 15.84 245.539 15.376H253.051C254.955 15.376 256.275 15.824 257.011 16.72C257.747 17.6 258.115 18.736 258.115 20.128V32.728C256.723 33.192 254.923 33.64 252.715 34.072C250.507 34.504 248.091 34.72 245.467 34.72C242.187 34.72 239.467 34.032 237.307 32.656C235.163 31.28 233.563 29.328 232.507 26.8C231.451 24.272 230.923 21.28 230.923 17.824C230.923 14.912 231.347 12.376 232.195 10.216C233.043 8.04 234.195 6.24 235.651 4.816C237.107 3.376 238.747 2.296 240.571 1.576C242.395 0.855999 244.283 0.495999 246.235 0.495999C248.443 0.495999 250.555 0.815999 252.571 1.456C254.587 2.096 256.411 2.92 258.043 3.928C257.963 5.016 257.563 6.08 256.843 7.12C256.139 8.16 255.395 8.936 254.611 9.448C253.443 8.664 252.163 8.04 250.771 7.576C249.395 7.096 248.035 6.856 246.691 6.856C244.259 6.856 242.331 7.736 240.907 9.496C239.483 11.24 238.771 14.032 238.771 17.872C238.771 21.616 239.459 24.352 240.835 26.08C242.227 27.808 244.211 28.672 246.787 28.672C247.555 28.672 248.283 28.632 248.971 28.552C249.659 28.472 250.307 28.376 250.915 28.264V25.096Z" fill="#364760"/>
</svg>
