<svg width="286" height="67" viewBox="0 0 286 67" fill="none" xmlns="http://www.w3.org/2000/svg">
<rect width="286" height="67" rx="10" fill="#1EBCBC"/>
<path d="M77.0431 31.204C77.0671 30.208 76.9651 29.272 76.7371 28.396C76.5211 27.508 76.1191 26.794 75.5311 26.254C74.9551 25.702 74.1391 25.426 73.0831 25.426C71.5351 25.426 70.4311 26.146 69.7711 27.586C69.1231 29.014 68.7991 31.096 68.7991 33.832C68.7991 36.388 69.2251 38.308 70.0771 39.592C70.9411 40.876 72.1591 41.518 73.7311 41.518C74.9791 41.518 76.1011 41.254 77.0971 40.726C78.1051 40.198 79.0231 39.622 79.8511 38.998C80.4151 39.382 80.9611 39.928 81.4891 40.636C82.0291 41.344 82.3651 42.034 82.4971 42.706C81.8011 43.39 80.9371 44.026 79.9051 44.614C78.8851 45.19 77.7571 45.652 76.5211 46C75.2851 46.36 74.0011 46.54 72.6691 46.54C70.7851 46.54 69.2011 46.174 67.9171 45.442C66.6451 44.698 65.6311 43.714 64.8751 42.49C64.1191 41.254 63.5731 39.886 63.2371 38.386C62.9131 36.874 62.7511 35.344 62.7511 33.796C62.7511 30.784 63.2251 28.324 64.1731 26.416C65.1331 24.508 66.4111 23.104 68.0071 22.204C69.6031 21.304 71.3611 20.854 73.2811 20.854C75.1411 20.854 76.7611 21.184 78.1411 21.844C79.5331 22.504 80.6071 23.398 81.3631 24.526C82.1311 25.654 82.5151 26.926 82.5151 28.342C82.5151 29.458 82.2211 30.268 81.6331 30.772C81.0571 31.264 80.2531 31.51 79.2211 31.51C78.8011 31.51 78.4171 31.48 78.0691 31.42C77.7331 31.36 77.3911 31.288 77.0431 31.204ZM91.0246 42.526C90.8326 42.526 90.6466 42.526 90.4666 42.526C90.2866 42.514 90.1066 42.502 89.9266 42.49L88.8106 46C88.4626 46.084 88.0846 46.144 87.6766 46.18C87.2686 46.228 86.8426 46.252 86.3986 46.252C85.9186 46.252 85.4326 46.216 84.9406 46.144C84.4606 46.072 84.0646 45.97 83.7526 45.838L83.5546 45.532L90.5566 26.164C91.1806 26.068 91.7806 26.008 92.3566 25.984C92.9446 25.96 93.4786 25.948 93.9586 25.948C94.4026 25.948 94.8826 25.96 95.3986 25.984C95.9146 26.008 96.4966 26.068 97.1446 26.164L103.949 45.73C103.529 45.922 102.995 46.066 102.347 46.162C101.699 46.27 101.177 46.324 100.781 46.324C100.121 46.324 99.4846 46.198 98.8726 45.946C98.2606 45.694 97.7986 45.028 97.4866 43.948L97.0366 42.49C96.8446 42.502 96.6586 42.514 96.4786 42.526C96.2986 42.526 96.1066 42.526 95.9026 42.526H91.0246ZM91.7446 36.838L91.3486 38.08C91.5286 38.068 91.7086 38.062 91.8886 38.062C92.0686 38.05 92.2546 38.044 92.4466 38.044H94.6966C94.8766 38.044 95.0386 38.05 95.1826 38.062C95.3386 38.062 95.4946 38.068 95.6506 38.08L95.2726 36.856C94.9966 35.908 94.7206 34.852 94.4446 33.688C94.1686 32.524 93.9166 31.468 93.6886 30.52H93.4726C93.2206 31.432 92.9386 32.476 92.6266 33.652C92.3266 34.828 92.0326 35.89 91.7446 36.838ZM113.676 36.946C113.592 36.754 113.46 36.454 113.28 36.046C113.1 35.626 112.908 35.176 112.704 34.696C112.5 34.216 112.308 33.766 112.128 33.346C111.96 32.926 111.828 32.62 111.732 32.428L111.606 32.482C111.654 33.43 111.702 34.456 111.75 35.56C111.798 36.652 111.834 37.654 111.858 38.566C111.894 39.466 111.912 40.12 111.912 40.528V46C111.444 46.084 110.994 46.138 110.562 46.162C110.13 46.198 109.728 46.216 109.356 46.216C109.02 46.216 108.6 46.198 108.096 46.162C107.604 46.138 107.136 46.084 106.692 46V26.29C107.136 26.182 107.688 26.098 108.348 26.038C109.008 25.978 109.518 25.948 109.878 25.948C110.25 25.948 110.778 25.96 111.462 25.984C112.146 25.996 112.71 26.056 113.154 26.164L117.384 35.182C117.468 35.35 117.606 35.656 117.798 36.1C118.002 36.544 118.218 37.03 118.446 37.558C118.674 38.086 118.884 38.584 119.076 39.052C119.28 39.508 119.43 39.844 119.526 40.06L119.688 40.024C119.64 39.232 119.574 38.308 119.49 37.252C119.418 36.196 119.352 35.176 119.292 34.192C119.232 33.208 119.202 32.422 119.202 31.834V29.026C119.202 27.754 119.478 26.92 120.03 26.524C120.582 26.116 121.404 25.912 122.496 25.912H124.35L124.566 26.164V45.892C124.098 46 123.534 46.078 122.874 46.126C122.214 46.186 121.71 46.216 121.362 46.216C121.122 46.216 120.792 46.21 120.372 46.198C119.952 46.186 119.52 46.168 119.076 46.144C118.644 46.12 118.284 46.072 117.996 46L113.676 36.946ZM140.734 35.146C140.734 33.622 140.53 32.398 140.122 31.474C139.714 30.538 138.892 30.07 137.656 30.07C136.372 30.07 135.46 30.598 134.92 31.654C134.38 32.71 134.11 34.228 134.11 36.208C134.11 37.72 134.302 38.884 134.686 39.7C135.082 40.504 135.586 41.062 136.198 41.374C136.81 41.686 137.458 41.842 138.142 41.842C139.03 41.842 139.918 41.65 140.806 41.266C141.706 40.87 142.51 40.408 143.218 39.88C143.602 40.072 143.974 40.378 144.334 40.798C144.694 41.218 145.006 41.668 145.27 42.148C145.534 42.628 145.702 43.066 145.774 43.462C144.778 44.314 143.566 45.04 142.138 45.64C140.722 46.24 139.108 46.54 137.296 46.54C135.556 46.54 134.104 46.234 132.94 45.622C131.788 45.01 130.87 44.206 130.186 43.21C129.502 42.202 129.016 41.086 128.728 39.862C128.44 38.638 128.296 37.408 128.296 36.172C128.296 33.712 128.74 31.708 129.628 30.16C130.528 28.6 131.704 27.454 133.156 26.722C134.62 25.99 136.186 25.624 137.854 25.624C139.726 25.624 141.268 25.954 142.48 26.614C143.692 27.274 144.592 28.108 145.18 29.116C145.768 30.124 146.062 31.162 146.062 32.23C146.062 34.282 144.91 35.308 142.606 35.308C142.33 35.308 142.03 35.29 141.706 35.254C141.382 35.218 141.058 35.182 140.734 35.146ZM164.649 41.482C164.649 43.198 164.379 44.392 163.839 45.064C163.311 45.736 162.411 46.072 161.139 46.072H152.841C151.821 46.072 151.017 45.784 150.429 45.208C149.841 44.62 149.547 43.834 149.547 42.85V26.362L149.745 26.164H163.983C164.067 26.572 164.115 26.962 164.127 27.334C164.139 27.706 164.145 28.06 164.145 28.396C164.145 28.72 164.109 29.086 164.037 29.494C163.977 29.902 163.869 30.316 163.713 30.736H157.413C156.909 30.736 156.147 30.73 155.127 30.718C155.139 31.09 155.145 31.408 155.145 31.672C155.157 31.936 155.163 32.254 155.163 32.626V33.814C156.159 33.802 156.909 33.796 157.413 33.796H162.021C162.141 34.12 162.219 34.492 162.255 34.912C162.303 35.32 162.327 35.668 162.327 35.956C162.327 36.292 162.303 36.67 162.255 37.09C162.219 37.498 162.141 37.87 162.021 38.206H157.413C157.185 38.206 156.867 38.206 156.459 38.206C156.051 38.206 155.619 38.206 155.163 38.206V39.376C155.163 39.82 155.157 40.186 155.145 40.474C155.133 40.762 155.127 41.122 155.127 41.554V41.59C155.547 41.566 155.937 41.542 156.297 41.518C156.657 41.494 157.095 41.482 157.611 41.482H164.649ZM182.571 41.392C182.499 43.144 182.193 44.368 181.653 45.064C181.113 45.76 180.153 46.108 178.773 46.108H171.789C170.757 46.108 169.947 45.82 169.359 45.244C168.783 44.656 168.495 43.87 168.495 42.886V26.2L168.711 25.984H170.871C171.963 25.984 172.791 26.26 173.355 26.812C173.919 27.352 174.201 28.258 174.201 29.53V41.572C175.437 41.452 176.547 41.392 177.531 41.392H182.571ZM190.974 42.526C190.782 42.526 190.596 42.526 190.416 42.526C190.236 42.514 190.056 42.502 189.876 42.49L188.76 46C188.412 46.084 188.034 46.144 187.626 46.18C187.218 46.228 186.792 46.252 186.348 46.252C185.868 46.252 185.382 46.216 184.89 46.144C184.41 46.072 184.014 45.97 183.702 45.838L183.504 45.532L190.506 26.164C191.13 26.068 191.73 26.008 192.306 25.984C192.894 25.96 193.428 25.948 193.908 25.948C194.352 25.948 194.832 25.96 195.348 25.984C195.864 26.008 196.446 26.068 197.094 26.164L203.898 45.73C203.478 45.922 202.944 46.066 202.296 46.162C201.648 46.27 201.126 46.324 200.73 46.324C200.07 46.324 199.434 46.198 198.822 45.946C198.21 45.694 197.748 45.028 197.436 43.948L196.986 42.49C196.794 42.502 196.608 42.514 196.428 42.526C196.248 42.526 196.056 42.526 195.852 42.526H190.974ZM191.694 36.838L191.298 38.08C191.478 38.068 191.658 38.062 191.838 38.062C192.018 38.05 192.204 38.044 192.396 38.044H194.646C194.826 38.044 194.988 38.05 195.132 38.062C195.288 38.062 195.444 38.068 195.6 38.08L195.222 36.856C194.946 35.908 194.67 34.852 194.394 33.688C194.118 32.524 193.866 31.468 193.638 30.52H193.422C193.17 31.432 192.888 32.476 192.576 33.652C192.276 34.828 191.982 35.89 191.694 36.838ZM222.805 32.194C222.805 33.118 222.595 33.94 222.175 34.66C221.755 35.38 221.227 35.974 220.591 36.442C219.967 36.91 219.343 37.21 218.719 37.342C219.367 37.558 219.901 37.888 220.321 38.332C220.753 38.776 221.125 39.346 221.437 40.042L222.373 42.184C222.589 42.676 222.835 43.132 223.111 43.552C223.387 43.96 223.693 44.308 224.029 44.596C223.681 45.028 223.159 45.43 222.463 45.802C221.767 46.162 221.011 46.342 220.195 46.342C219.391 46.342 218.737 46.15 218.233 45.766C217.741 45.37 217.309 44.74 216.937 43.876L215.353 40.24C215.101 39.652 214.789 39.298 214.417 39.178C214.045 39.058 213.565 38.998 212.977 38.998H212.275V46C211.795 46.084 211.297 46.138 210.781 46.162C210.277 46.198 209.845 46.216 209.485 46.216C209.149 46.216 208.705 46.198 208.153 46.162C207.601 46.138 207.097 46.084 206.641 46V26.344L206.839 26.128C208.291 26.092 209.653 26.062 210.925 26.038C212.209 26.002 213.487 25.984 214.759 25.984C216.199 25.984 217.531 26.176 218.755 26.56C219.979 26.932 220.957 27.574 221.689 28.486C222.433 29.386 222.805 30.622 222.805 32.194ZM212.275 30.052V34.714C212.695 34.702 213.079 34.696 213.427 34.696C213.787 34.684 214.051 34.678 214.219 34.678C215.299 34.678 216.031 34.444 216.415 33.976C216.799 33.508 216.991 32.962 216.991 32.338C216.991 31.726 216.799 31.198 216.415 30.754C216.031 30.31 215.389 30.088 214.489 30.088C214.057 30.088 213.685 30.082 213.373 30.07C213.061 30.058 212.695 30.052 212.275 30.052Z" fill="white"/>
</svg>
