<svg width="119" height="25" viewBox="0 0 119 25" fill="none" xmlns="http://www.w3.org/2000/svg">
<path d="M16.2168 19.5643C16.2168 21.0542 15.9797 22.1828 15.5057 22.9503C15.0429 23.7178 14.0949 24.1016 12.6614 24.1016H3.65464C2.68399 24.1016 1.92213 23.8194 1.36908 23.2551C0.816035 22.6907 0.539511 21.9176 0.539511 20.9357V1.11054L0.776532 0.873522H15.3703C15.4493 1.27984 15.5001 1.66359 15.5226 2.02477C15.5452 2.37465 15.5565 2.70197 15.5565 3.00671C15.5565 3.31145 15.517 3.68956 15.438 4.14103C15.3703 4.58121 15.263 5.00446 15.1163 5.41078H8.1919C7.9436 5.41078 7.60499 5.41078 7.1761 5.41078C6.75849 5.39949 6.32395 5.38821 5.87248 5.37692C5.87248 5.83968 5.87813 6.25729 5.88941 6.62975C5.9007 6.99092 5.90634 7.39724 5.90634 7.84871V10.202C6.35781 10.1907 6.79235 10.1851 7.20996 10.1851C7.62757 10.1738 7.95488 10.1681 8.1919 10.1681H13.3556C13.4684 10.4954 13.5474 10.8736 13.5926 11.3024C13.649 11.7313 13.6772 12.0925 13.6772 12.386C13.6772 12.6907 13.649 13.0462 13.5926 13.4526C13.5474 13.8589 13.4684 14.237 13.3556 14.5869H8.1919C7.95488 14.5869 7.62757 14.5869 7.20996 14.5869C6.79235 14.5756 6.35781 14.5643 5.90634 14.553V17.1603C5.90634 17.6004 5.9007 18.0068 5.88941 18.3792C5.87813 18.7404 5.87248 19.1467 5.87248 19.5982V19.632C6.25623 19.6095 6.65127 19.5925 7.05759 19.5813C7.46391 19.57 7.90409 19.5643 8.37813 19.5643H16.2168ZM21.0331 5.34306C21.5749 5.24148 22.1674 5.17376 22.8108 5.1399C23.4541 5.09475 23.9959 5.07218 24.436 5.07218C24.8536 5.07218 25.3954 5.09475 26.0613 5.1399C26.7272 5.17376 27.2859 5.24148 27.7374 5.34306L29.3966 12.6907C29.4981 13.1309 29.6166 13.7291 29.7521 14.4853C29.8875 15.2302 30.023 16.0316 30.1584 16.8894H30.3785C30.6494 15.0835 30.9033 13.6839 31.1403 12.6907L32.7826 5.34306C33.313 5.24148 33.8943 5.17376 34.5264 5.1399C35.1584 5.09475 35.6833 5.07218 36.1009 5.07218C36.541 5.07218 37.0884 5.09475 37.7431 5.1399C38.3977 5.17376 38.9846 5.24148 39.5038 5.34306L41.4169 23.9323C40.6833 24.1129 39.7973 24.2032 38.7589 24.2032C38.3638 24.2032 37.9406 24.1862 37.4891 24.1524C37.0489 24.1185 36.6539 24.0677 36.304 24L35.813 18.0068C35.7566 17.2393 35.7228 16.3984 35.7115 15.4842C35.7002 14.5699 35.7002 13.6783 35.7115 12.8092C35.7228 11.9289 35.7228 11.167 35.7115 10.5237H35.5083L33.0196 21.1388C32.6358 21.2065 32.1674 21.2573 31.6144 21.2912C31.0613 21.3138 30.6042 21.325 30.2431 21.325C29.8706 21.325 29.4078 21.3138 28.8548 21.2912C28.313 21.2573 27.8616 21.2065 27.5004 21.1388L25.0286 10.5237H24.7916C24.7916 11.1783 24.7916 11.9401 24.7916 12.8092C24.8029 13.6783 24.8029 14.5699 24.7916 15.4842C24.7803 16.3984 24.7408 17.2505 24.6731 18.0406L24.2329 24C23.8717 24.0677 23.4767 24.1185 23.0478 24.1524C22.6302 24.1862 22.2238 24.2032 21.8288 24.2032C20.7791 24.2032 19.8762 24.1129 19.12 23.9323L21.0331 5.34306ZM45.6415 5.34306C46.0704 5.25277 46.5557 5.19633 47.0975 5.17376C47.6392 5.15119 48.0681 5.1399 48.3842 5.1399C48.7228 5.1399 49.1291 5.15119 49.6031 5.17376C50.0884 5.19633 50.5568 5.25277 51.0083 5.34306V24C50.5568 24.079 50.0884 24.1298 49.6031 24.1524C49.1291 24.1862 48.7228 24.2032 48.3842 24.2032C48.0681 24.2032 47.6392 24.1862 47.0975 24.1524C46.5557 24.1298 46.0704 24.079 45.6415 24V5.34306ZM54.1121 22.5948C54.1121 22.1659 54.1967 21.6919 54.366 21.1727C54.5353 20.6422 54.7667 20.1512 55.0602 19.6998C55.3536 19.2483 55.6753 18.9097 56.0252 18.684C56.8604 19.1354 57.7915 19.5248 58.8186 19.8521C59.8457 20.1682 60.8502 20.3262 61.8322 20.3262C62.4642 20.3262 62.9834 20.1964 63.3898 19.9368C63.8074 19.6772 64.0162 19.3104 64.0162 18.8363C64.0162 18.5316 63.8977 18.2551 63.6606 18.0068C63.4236 17.7472 63.0116 17.5101 62.4247 17.2957L59.6143 16.1952C58.7453 15.8792 57.9326 15.4842 57.1764 15.0101C56.4202 14.5361 55.8107 13.9548 55.348 13.2663C54.8852 12.5778 54.6538 11.7539 54.6538 10.7945C54.6538 9.03382 55.331 7.6004 56.6854 6.49431C58.0398 5.38821 59.8627 4.83516 62.1539 4.83516C63.4518 4.83516 64.7385 4.98753 66.0139 5.29227C67.3006 5.58573 68.3785 5.92433 69.2476 6.30807C69.2476 7.07557 69.0895 7.83178 68.7735 8.5767C68.4575 9.32163 68.0229 9.90854 67.4699 10.3374C66.6347 9.96497 65.7261 9.65459 64.7442 9.40628C63.7622 9.14668 62.8762 9.01689 62.0861 9.01689C61.4992 9.01689 61.0478 9.14104 60.7317 9.38935C60.427 9.63766 60.2746 9.93675 60.2746 10.2866C60.2746 10.614 60.427 10.8623 60.7317 11.0316C61.0365 11.2009 61.4146 11.3702 61.866 11.5395L64.6595 12.6061C66.2171 13.1704 67.453 13.9492 68.3672 14.9424C69.2927 15.9244 69.7555 17.1377 69.7555 18.5824C69.7555 19.8578 69.4112 20.9357 68.7227 21.816C68.0455 22.6964 67.1144 23.3623 65.9293 23.8138C64.7554 24.2652 63.4293 24.4966 61.9507 24.5079C60.19 24.5079 58.6211 24.3047 57.2441 23.8984C55.8784 23.4921 54.8344 23.0576 54.1121 22.5948ZM71.8791 14.7054C71.8791 11.6806 72.6579 9.28212 74.2155 7.51011C75.7843 5.72681 78.0699 4.83516 81.0722 4.83516C84.1196 4.83516 86.4164 5.72117 87.9627 7.49318C89.5203 9.25391 90.299 11.658 90.299 14.7054C90.299 17.7528 89.5203 20.1512 87.9627 21.9007C86.4051 23.6388 84.1083 24.5079 81.0722 24.5079C78.0247 24.5079 75.7279 23.6275 74.1816 21.8668C72.6466 20.1061 71.8791 17.7189 71.8791 14.7054ZM77.3475 14.7054C77.3475 15.3487 77.387 16.0146 77.466 16.7031C77.5563 17.3803 77.7256 18.0124 77.974 18.5993C78.2335 19.1862 78.6116 19.6659 79.1083 20.0384C79.6049 20.3995 80.2652 20.5801 81.0891 20.5801C81.913 20.5801 82.5733 20.3995 83.0699 20.0384C83.5665 19.6659 83.939 19.1862 84.1873 18.5993C84.4469 18.0124 84.6162 17.3803 84.6952 16.7031C84.7855 16.0146 84.8306 15.3487 84.8306 14.7054C84.8306 14.0508 84.7855 13.3792 84.6952 12.6907C84.6162 11.9909 84.4469 11.3476 84.1873 10.7607C83.939 10.1625 83.5665 9.6828 83.0699 9.32163C82.5733 8.94917 81.913 8.76294 81.0891 8.76294C80.2652 8.76294 79.6049 8.94917 79.1083 9.32163C78.6116 9.6828 78.2335 10.1625 77.974 10.7607C77.7256 11.3476 77.5563 11.9909 77.466 12.6907C77.387 13.3792 77.3475 14.0508 77.3475 14.7054ZM108.988 11.0146C108.988 11.8837 108.79 12.6569 108.395 13.3341C108 14.0113 107.504 14.5699 106.906 15.0101C106.319 15.4503 105.732 15.7325 105.145 15.8566C105.754 16.0598 106.257 16.3702 106.652 16.7878C107.058 17.2054 107.408 17.7415 107.701 18.3961L108.582 20.4108C108.785 20.8736 109.016 21.3025 109.276 21.6975C109.535 22.0813 109.823 22.4086 110.139 22.6795C109.812 23.0858 109.321 23.4639 108.666 23.8138C108.012 24.1524 107.301 24.3217 106.533 24.3217C105.777 24.3217 105.162 24.1411 104.688 23.7799C104.225 23.4074 103.819 22.8149 103.469 22.0023L101.979 18.5824C101.742 18.0293 101.448 17.6964 101.099 17.5835C100.749 17.4706 100.297 17.4142 99.7442 17.4142H99.0839V24C98.6324 24.079 98.164 24.1298 97.6787 24.1524C97.2047 24.1862 96.7983 24.2032 96.4597 24.2032C96.1437 24.2032 95.7261 24.1862 95.2069 24.1524C94.6877 24.1298 94.2137 24.079 93.7848 24V5.51236L93.971 5.3092C95.3367 5.27534 96.6178 5.24712 97.8141 5.22455C99.0218 5.19069 100.224 5.17376 101.42 5.17376C102.775 5.17376 104.027 5.35435 105.179 5.71552C106.33 6.06541 107.25 6.66925 107.938 7.52704C108.638 8.37354 108.988 9.53608 108.988 11.0146ZM99.0839 8.99996V13.3848C99.4789 13.3736 99.8401 13.3679 100.167 13.3679C100.506 13.3566 100.754 13.351 100.912 13.351C101.928 13.351 102.617 13.1309 102.978 12.6907C103.339 12.2505 103.52 11.737 103.52 11.1501C103.52 10.5745 103.339 10.0778 102.978 9.66023C102.617 9.24262 102.013 9.03382 101.166 9.03382C100.76 9.03382 100.41 9.02817 100.117 9.01689C99.8232 9.0056 99.4789 8.99996 99.0839 8.99996ZM112.555 21.6975C112.555 21.4943 112.583 21.1783 112.639 20.7494C112.707 20.3205 112.814 19.9537 112.961 19.649C113.3 19.4571 113.712 19.3047 114.197 19.1919C114.694 19.079 115.168 19.0226 115.619 19.0226C116.059 19.0226 116.528 19.079 117.024 19.1919C117.521 19.3047 117.938 19.4571 118.277 19.649C118.424 19.9537 118.525 20.3205 118.582 20.7494C118.638 21.1783 118.666 21.4943 118.666 21.6975C118.666 21.9007 118.638 22.2167 118.582 22.6456C118.525 23.0745 118.424 23.4413 118.277 23.746C117.938 23.9492 117.521 24.1016 117.024 24.2032C116.528 24.3047 116.059 24.3555 115.619 24.3555C115.168 24.3555 114.694 24.3047 114.197 24.2032C113.712 24.1016 113.3 23.9492 112.961 23.746C112.814 23.4413 112.707 23.0745 112.639 22.6456C112.583 22.2167 112.555 21.9007 112.555 21.6975ZM112.555 11.2347C112.555 11.0316 112.583 10.7155 112.639 10.2866C112.707 9.85775 112.814 9.49093 112.961 9.18619C113.3 8.99431 113.712 8.84194 114.197 8.72907C114.694 8.61621 115.168 8.55977 115.619 8.55977C116.059 8.55977 116.528 8.61621 117.024 8.72907C117.521 8.84194 117.938 8.99431 118.277 9.18619C118.424 9.49093 118.525 9.85775 118.582 10.2866C118.638 10.7155 118.666 11.0316 118.666 11.2347C118.666 11.4379 118.638 11.7539 118.582 12.1828C118.525 12.6117 118.424 12.9785 118.277 13.2833C117.938 13.4864 117.521 13.6388 117.024 13.7404C116.528 13.842 116.059 13.8927 115.619 13.8927C115.168 13.8927 114.694 13.842 114.197 13.7404C113.712 13.6388 113.3 13.4864 112.961 13.2833C112.814 12.9785 112.707 12.6117 112.639 12.1828C112.583 11.7539 112.555 11.4379 112.555 11.2347Z" fill="white" fill-opacity="0.87"/>
</svg>
