<svg width="286" height="67" viewBox="0 0 286 67" fill="none" xmlns="http://www.w3.org/2000/svg">
<rect width="286" height="67" rx="10" fill="#1EBCBC"/>
<path d="M104.589 41.284C104.589 42.868 104.337 44.068 103.833 44.884C103.341 45.7 102.333 46.108 100.809 46.108H91.2327C90.2007 46.108 89.3907 45.808 88.8027 45.208C88.2147 44.608 87.9207 43.786 87.9207 42.742V21.664L88.1727 21.412H103.689C103.773 21.844 103.827 22.252 103.851 22.636C103.875 23.008 103.887 23.356 103.887 23.68C103.887 24.004 103.845 24.406 103.761 24.886C103.689 25.354 103.575 25.804 103.419 26.236H96.0567C95.7927 26.236 95.4327 26.236 94.9767 26.236C94.5327 26.224 94.0707 26.212 93.5907 26.2C93.5907 26.692 93.5967 27.136 93.6087 27.532C93.6207 27.916 93.6267 28.348 93.6267 28.828V31.33C94.1067 31.318 94.5687 31.312 95.0127 31.312C95.4567 31.3 95.8047 31.294 96.0567 31.294H101.547C101.667 31.642 101.751 32.044 101.799 32.5C101.859 32.956 101.889 33.34 101.889 33.652C101.889 33.976 101.859 34.354 101.799 34.786C101.751 35.218 101.667 35.62 101.547 35.992H96.0567C95.8047 35.992 95.4567 35.992 95.0127 35.992C94.5687 35.98 94.1067 35.968 93.6267 35.956V38.728C93.6267 39.196 93.6207 39.628 93.6087 40.024C93.5967 40.408 93.5907 40.84 93.5907 41.32V41.356C93.9987 41.332 94.4187 41.314 94.8507 41.302C95.2827 41.29 95.7507 41.284 96.2547 41.284H104.589ZM115.433 36.946C115.349 36.754 115.217 36.454 115.037 36.046C114.857 35.626 114.665 35.176 114.461 34.696C114.257 34.216 114.065 33.766 113.885 33.346C113.717 32.926 113.585 32.62 113.489 32.428L113.363 32.482C113.411 33.43 113.459 34.456 113.507 35.56C113.555 36.652 113.591 37.654 113.615 38.566C113.651 39.466 113.669 40.12 113.669 40.528V46C113.201 46.084 112.751 46.138 112.319 46.162C111.887 46.198 111.485 46.216 111.113 46.216C110.777 46.216 110.357 46.198 109.853 46.162C109.361 46.138 108.893 46.084 108.449 46V26.29C108.893 26.182 109.445 26.098 110.105 26.038C110.765 25.978 111.275 25.948 111.635 25.948C112.007 25.948 112.535 25.96 113.219 25.984C113.903 25.996 114.467 26.056 114.911 26.164L119.141 35.182C119.225 35.35 119.363 35.656 119.555 36.1C119.759 36.544 119.975 37.03 120.203 37.558C120.431 38.086 120.641 38.584 120.833 39.052C121.037 39.508 121.187 39.844 121.283 40.06L121.445 40.024C121.397 39.232 121.331 38.308 121.247 37.252C121.175 36.196 121.109 35.176 121.049 34.192C120.989 33.208 120.959 32.422 120.959 31.834V29.026C120.959 27.754 121.235 26.92 121.787 26.524C122.339 26.116 123.161 25.912 124.253 25.912H126.107L126.323 26.164V45.892C125.855 46 125.291 46.078 124.631 46.126C123.971 46.186 123.467 46.216 123.119 46.216C122.879 46.216 122.549 46.21 122.129 46.198C121.709 46.186 121.277 46.168 120.833 46.144C120.401 46.12 120.041 46.072 119.753 46L115.433 36.946ZM143.158 26.164C143.59 26.068 143.968 26.008 144.292 25.984C144.628 25.96 144.97 25.948 145.318 25.948C145.75 25.948 146.2 25.972 146.668 26.02C147.148 26.068 147.658 26.17 148.198 26.326L148.45 26.596L142.546 46C142.006 46.084 141.298 46.138 140.422 46.162C139.546 46.198 138.748 46.216 138.028 46.216C137.08 46.216 136.276 46.066 135.616 45.766C134.968 45.454 134.5 44.782 134.212 43.75L129.082 26.56C129.574 26.356 130.09 26.2 130.63 26.092C131.182 25.972 131.746 25.912 132.322 25.912C133.186 25.912 133.858 26.116 134.338 26.524C134.83 26.92 135.22 27.61 135.508 28.594L137.434 35.038C137.71 36.01 137.956 37 138.172 38.008C138.4 39.016 138.622 40.156 138.838 41.428C138.886 41.632 139.006 41.734 139.198 41.734L143.158 26.164ZM151.236 26.164C151.692 26.068 152.208 26.008 152.784 25.984C153.36 25.96 153.816 25.948 154.152 25.948C154.512 25.948 154.944 25.96 155.448 25.984C155.964 26.008 156.462 26.068 156.942 26.164V46C156.462 46.084 155.964 46.138 155.448 46.162C154.944 46.198 154.512 46.216 154.152 46.216C153.816 46.216 153.36 46.198 152.784 46.162C152.208 46.138 151.692 46.084 151.236 46V26.164ZM167.208 42.526C167.016 42.526 166.83 42.526 166.65 42.526C166.47 42.514 166.29 42.502 166.11 42.49L164.994 46C164.646 46.084 164.268 46.144 163.86 46.18C163.452 46.228 163.026 46.252 162.582 46.252C162.102 46.252 161.616 46.216 161.124 46.144C160.644 46.072 160.248 45.97 159.936 45.838L159.738 45.532L166.74 26.164C167.364 26.068 167.964 26.008 168.54 25.984C169.128 25.96 169.662 25.948 170.142 25.948C170.586 25.948 171.066 25.96 171.582 25.984C172.098 26.008 172.68 26.068 173.328 26.164L180.132 45.73C179.712 45.922 179.178 46.066 178.53 46.162C177.882 46.27 177.36 46.324 176.964 46.324C176.304 46.324 175.668 46.198 175.056 45.946C174.444 45.694 173.982 45.028 173.67 43.948L173.22 42.49C173.028 42.502 172.842 42.514 172.662 42.526C172.482 42.526 172.29 42.526 172.086 42.526H167.208ZM167.928 36.838L167.532 38.08C167.712 38.068 167.892 38.062 168.072 38.062C168.252 38.05 168.438 38.044 168.63 38.044H170.88C171.06 38.044 171.222 38.05 171.366 38.062C171.522 38.062 171.678 38.068 171.834 38.08L171.456 36.856C171.18 35.908 170.904 34.852 170.628 33.688C170.352 32.524 170.1 31.468 169.872 30.52H169.656C169.404 31.432 169.122 32.476 168.81 33.652C168.51 34.828 168.216 35.89 167.928 36.838ZM199.039 32.194C199.039 33.118 198.829 33.94 198.409 34.66C197.989 35.38 197.461 35.974 196.825 36.442C196.201 36.91 195.577 37.21 194.953 37.342C195.601 37.558 196.135 37.888 196.555 38.332C196.987 38.776 197.359 39.346 197.671 40.042L198.607 42.184C198.823 42.676 199.069 43.132 199.345 43.552C199.621 43.96 199.927 44.308 200.263 44.596C199.915 45.028 199.393 45.43 198.697 45.802C198.001 46.162 197.245 46.342 196.429 46.342C195.625 46.342 194.971 46.15 194.467 45.766C193.975 45.37 193.543 44.74 193.171 43.876L191.587 40.24C191.335 39.652 191.023 39.298 190.651 39.178C190.279 39.058 189.799 38.998 189.211 38.998H188.509V46C188.029 46.084 187.531 46.138 187.015 46.162C186.511 46.198 186.079 46.216 185.719 46.216C185.383 46.216 184.939 46.198 184.387 46.162C183.835 46.138 183.331 46.084 182.875 46V26.344L183.073 26.128C184.525 26.092 185.887 26.062 187.159 26.038C188.443 26.002 189.721 25.984 190.993 25.984C192.433 25.984 193.765 26.176 194.989 26.56C196.213 26.932 197.191 27.574 197.923 28.486C198.667 29.386 199.039 30.622 199.039 32.194ZM188.509 30.052V34.714C188.929 34.702 189.313 34.696 189.661 34.696C190.021 34.684 190.285 34.678 190.453 34.678C191.533 34.678 192.265 34.444 192.649 33.976C193.033 33.508 193.225 32.962 193.225 32.338C193.225 31.726 193.033 31.198 192.649 30.754C192.265 30.31 191.623 30.088 190.723 30.088C190.291 30.088 189.919 30.082 189.607 30.07C189.295 30.058 188.929 30.052 188.509 30.052Z" fill="white"/>
</svg>
