<svg width="253" height="102" viewBox="0 0 253 102" fill="none" xmlns="http://www.w3.org/2000/svg">
<rect opacity="0.5" y="0.397461" width="253" height="101.083" rx="10" fill="#DBDADA"/>
<path d="M90.3719 35.182C90.3719 36.6718 90.1349 37.8005 89.6608 38.568C89.1981 39.3355 88.25 39.7193 86.8166 39.7193H77.8098C76.8391 39.7193 76.0773 39.4371 75.5242 38.8728C74.9712 38.3084 74.6946 37.5353 74.6946 36.5533V16.7282L74.9317 16.4912H89.5254C89.6044 16.8975 89.6552 17.2813 89.6778 17.6424C89.7003 17.9923 89.7116 18.3196 89.7116 18.6244C89.7116 18.9291 89.6721 19.3072 89.5931 19.7587C89.5254 20.1989 89.4182 20.6221 89.2714 21.0285H82.347C82.0987 21.0285 81.7601 21.0285 81.3312 21.0285C80.9136 21.0172 80.4791 21.0059 80.0276 20.9946C80.0276 21.4574 80.0333 21.875 80.0445 22.2474C80.0558 22.6086 80.0615 23.0149 80.0615 23.4664V25.8197C80.5129 25.8084 80.9475 25.8027 81.3651 25.8027C81.7827 25.7915 82.11 25.7858 82.347 25.7858H87.5107C87.6236 26.1131 87.7026 26.4912 87.7477 26.9201C87.8042 27.349 87.8324 27.7102 87.8324 28.0036C87.8324 28.3084 87.8042 28.6639 87.7477 29.0702C87.7026 29.4766 87.6236 29.8547 87.5107 30.2046H82.347C82.11 30.2046 81.7827 30.2046 81.3651 30.2046C80.9475 30.1933 80.5129 30.182 80.0615 30.1707V32.7779C80.0615 33.2181 80.0558 33.6244 80.0445 33.9969C80.0333 34.3581 80.0276 34.7644 80.0276 35.2159V35.2497C80.4114 35.2271 80.8064 35.2102 81.2127 35.1989C81.619 35.1876 82.0592 35.182 82.5333 35.182H90.3719ZM100.572 31.1018C100.493 30.9213 100.369 30.6391 100.2 30.2553C100.03 29.8603 99.8496 29.4371 99.6578 28.9856C99.4659 28.5341 99.2853 28.1109 99.116 27.7158C98.958 27.3208 98.8338 27.033 98.7436 26.8524L98.625 26.9032C98.6702 27.7948 98.7153 28.7599 98.7605 29.7982C98.8056 30.8253 98.8395 31.7678 98.8621 32.6256C98.8959 33.4721 98.9129 34.0872 98.9129 34.4709V39.6177C98.4727 39.6967 98.0494 39.7475 97.6431 39.77C97.2368 39.8039 96.8587 39.8208 96.5088 39.8208C96.1928 39.8208 95.7977 39.8039 95.3237 39.77C94.8609 39.7475 94.4207 39.6967 94.0031 39.6177V21.0792C94.4207 20.9777 94.9399 20.8987 95.5607 20.8422C96.1815 20.7858 96.6612 20.7576 96.9998 20.7576C97.3496 20.7576 97.8463 20.7689 98.4896 20.7914C99.1329 20.8027 99.6634 20.8592 100.081 20.9607L104.06 29.4427C104.139 29.6007 104.268 29.8885 104.449 30.3061C104.641 30.7237 104.844 31.1809 105.058 31.6775C105.273 32.1741 105.47 32.6425 105.651 33.0827C105.843 33.5116 105.984 33.8276 106.074 34.0308L106.227 33.9969C106.181 33.252 106.119 32.3829 106.04 31.3897C105.973 30.3964 105.911 29.4371 105.854 28.5115C105.798 27.586 105.77 26.8468 105.77 26.2937V23.6526C105.77 22.4562 106.029 21.6718 106.548 21.2993C107.068 20.9156 107.841 20.7237 108.868 20.7237H110.612L110.815 20.9607V39.5161C110.375 39.6177 109.844 39.691 109.223 39.7362C108.602 39.7926 108.128 39.8208 107.801 39.8208C107.575 39.8208 107.265 39.8152 106.87 39.8039C106.475 39.7926 106.069 39.7757 105.651 39.7531C105.245 39.7305 104.906 39.6854 104.635 39.6177L100.572 31.1018ZM126.649 20.9607C127.055 20.8704 127.41 20.814 127.715 20.7914C128.031 20.7689 128.353 20.7576 128.68 20.7576C129.086 20.7576 129.51 20.7801 129.95 20.8253C130.401 20.8704 130.881 20.9664 131.389 21.1131L131.626 21.3671L126.073 39.6177C125.565 39.6967 124.899 39.7475 124.075 39.77C123.251 39.8039 122.501 39.8208 121.823 39.8208C120.932 39.8208 120.176 39.6798 119.555 39.3976C118.945 39.1041 118.505 38.4721 118.234 37.5014L113.409 21.3332C113.872 21.1413 114.357 20.9946 114.865 20.893C115.384 20.7801 115.915 20.7237 116.457 20.7237C117.269 20.7237 117.901 20.9156 118.353 21.2993C118.816 21.6718 119.182 22.3208 119.453 23.2463L121.265 29.3073C121.524 30.2215 121.756 31.1526 121.959 32.1007C122.173 33.0488 122.382 34.121 122.585 35.3174C122.63 35.5093 122.743 35.6052 122.924 35.6052L126.649 20.9607ZM134.247 20.9607C134.676 20.8704 135.161 20.814 135.703 20.7914C136.244 20.7689 136.673 20.7576 136.989 20.7576C137.328 20.7576 137.734 20.7689 138.208 20.7914C138.694 20.814 139.162 20.8704 139.614 20.9607V39.6177C139.162 39.6967 138.694 39.7475 138.208 39.77C137.734 39.8039 137.328 39.8208 136.989 39.8208C136.673 39.8208 136.244 39.8039 135.703 39.77C135.161 39.7475 134.676 39.6967 134.247 39.6177V20.9607ZM149.269 36.3502C149.089 36.3502 148.914 36.3502 148.744 36.3502C148.575 36.3389 148.406 36.3276 148.236 36.3163L147.187 39.6177C146.86 39.6967 146.504 39.7531 146.12 39.787C145.736 39.8321 145.336 39.8547 144.918 39.8547C144.467 39.8547 144.01 39.8208 143.547 39.7531C143.095 39.6854 142.723 39.5895 142.429 39.4653L142.243 39.1775L148.829 20.9607C149.416 20.8704 149.98 20.814 150.522 20.7914C151.075 20.7689 151.577 20.7576 152.029 20.7576C152.446 20.7576 152.898 20.7689 153.383 20.7914C153.869 20.814 154.416 20.8704 155.025 20.9607L161.425 39.3637C161.03 39.5443 160.528 39.6798 159.918 39.77C159.309 39.8716 158.818 39.9224 158.445 39.9224C157.825 39.9224 157.226 39.8039 156.651 39.5669C156.075 39.3299 155.641 38.7035 155.347 37.6876L154.924 36.3163C154.743 36.3276 154.568 36.3389 154.399 36.3502C154.23 36.3502 154.049 36.3502 153.857 36.3502H149.269ZM149.946 31.0003L149.574 32.1684C149.743 32.1572 149.913 32.1515 150.082 32.1515C150.251 32.1402 150.426 32.1346 150.607 32.1346H152.723C152.892 32.1346 153.045 32.1402 153.18 32.1515C153.327 32.1515 153.474 32.1572 153.62 32.1684L153.265 31.0172C153.005 30.1255 152.746 29.1323 152.486 28.0375C152.226 26.9427 151.989 25.9495 151.775 25.0578H151.572C151.335 25.9156 151.069 26.8975 150.776 28.0036C150.494 29.1097 150.217 30.1086 149.946 31.0003ZM179.208 26.6323C179.208 27.5014 179.011 28.2745 178.616 28.9517C178.221 29.6289 177.724 30.1876 177.126 30.6278C176.539 31.068 175.952 31.3502 175.365 31.4743C175.975 31.6775 176.477 31.9879 176.872 32.4055C177.278 32.8231 177.628 33.3592 177.922 34.0138L178.802 36.0285C179.005 36.4913 179.236 36.9202 179.496 37.3152C179.756 37.6989 180.043 38.0262 180.359 38.2971C180.032 38.7035 179.541 39.0816 178.887 39.4314C178.232 39.77 177.521 39.9393 176.753 39.9393C175.997 39.9393 175.382 39.7588 174.908 39.3976C174.445 39.0251 174.039 38.4326 173.689 37.6199L172.199 34.2001C171.962 33.647 171.669 33.314 171.319 33.2012C170.969 33.0883 170.517 33.0319 169.964 33.0319H169.304V39.6177C168.853 39.6967 168.384 39.7475 167.899 39.77C167.425 39.8039 167.019 39.8208 166.68 39.8208C166.364 39.8208 165.946 39.8039 165.427 39.77C164.908 39.7475 164.434 39.6967 164.005 39.6177V21.13L164.191 20.9269C165.557 20.893 166.838 20.8648 168.034 20.8422C169.242 20.8084 170.444 20.7914 171.64 20.7914C172.995 20.7914 174.248 20.972 175.399 21.3332C176.55 21.6831 177.47 22.2869 178.159 23.1447C178.858 23.9912 179.208 25.1538 179.208 26.6323ZM169.304 24.6176V29.0025C169.699 28.9912 170.06 28.9856 170.388 28.9856C170.726 28.9743 170.975 28.9687 171.133 28.9687C172.148 28.9687 172.837 28.7486 173.198 28.3084C173.559 27.8682 173.74 27.3547 173.74 26.7678C173.74 26.1921 173.559 25.6955 173.198 25.2779C172.837 24.8603 172.233 24.6515 171.387 24.6515C170.98 24.6515 170.63 24.6458 170.337 24.6346C170.043 24.6233 169.699 24.6176 169.304 24.6176ZM78.1665 76.7757C77.9859 76.7757 77.7715 76.77 77.5232 76.7587C77.2861 76.7475 77.0548 76.7418 76.829 76.7418L75.39 81.6515C75.0514 81.7305 74.6845 81.7813 74.2895 81.8039C73.9058 81.8378 73.5051 81.8547 73.0875 81.8547C72.6812 81.8547 72.2184 81.8208 71.6992 81.7531C71.1913 81.6967 70.785 81.6064 70.4802 81.4822L70.2771 81.1944L77.7602 58.4912C78.1891 58.4235 78.7026 58.3727 79.3008 58.3388C79.9103 58.305 80.4408 58.288 80.8922 58.288C81.3211 58.288 81.8403 58.3106 82.4498 58.3558C83.0593 58.3896 83.5841 58.4461 84.0243 58.5251L91.3042 81.2621C90.9318 81.4766 90.4464 81.6402 89.8482 81.7531C89.2613 81.866 88.7139 81.9224 88.206 81.9224C87.3482 81.9224 86.6767 81.7249 86.1914 81.3299C85.706 80.9235 85.2997 80.1391 84.9724 78.9766L84.329 76.7418C84.1146 76.7418 83.8832 76.7475 83.6349 76.7587C83.3866 76.77 83.1722 76.7757 82.9916 76.7757H78.1665ZM78.8437 69.8851L78.0818 72.5093C78.2963 72.5093 78.5277 72.5093 78.776 72.5093C79.0243 72.498 79.2444 72.4924 79.4363 72.4924H81.908C82.0773 72.4924 82.2692 72.498 82.4837 72.5093C82.7094 72.5093 82.9295 72.5093 83.1439 72.5093L82.5514 70.393C82.2918 69.445 81.9871 68.3276 81.6372 67.0409C81.2873 65.7542 80.9712 64.5522 80.6891 63.4348H80.4859C80.3731 64.0668 80.2207 64.7666 80.0288 65.5341C79.8369 66.3016 79.6338 67.0691 79.4193 67.8366C79.2162 68.5928 79.0243 69.2757 78.8437 69.8851ZM108.85 69.3603C108.85 70.8276 108.517 72.0465 107.852 73.0172C107.197 73.9766 106.294 74.6933 105.143 75.1673C103.991 75.6301 102.682 75.8615 101.215 75.8615H99.3696V81.6177C98.9181 81.6967 98.4553 81.7475 97.9813 81.77C97.5073 81.8039 97.1009 81.8208 96.7623 81.8208C96.4463 81.8208 96.0174 81.8039 95.4756 81.77C94.9339 81.7475 94.4486 81.6967 94.0197 81.6177V63.13L94.2059 62.9269C95.1201 62.9043 96.2206 62.8761 97.5073 62.8422C98.7939 62.8084 100.03 62.7914 101.215 62.7914C102.693 62.7914 104.008 63.0172 105.16 63.4686C106.311 63.9201 107.214 64.6312 107.868 65.6018C108.523 66.5725 108.85 67.8253 108.85 69.3603ZM99.3696 66.7531V71.9337C99.6743 71.9224 99.9508 71.9167 100.199 71.9167C100.447 71.9055 100.634 71.8998 100.758 71.8998C101.503 71.8998 102.061 71.7644 102.434 71.4935C102.818 71.2113 103.072 70.8727 103.196 70.4777C103.32 70.0714 103.382 69.6876 103.382 69.3264C103.382 68.9878 103.32 68.621 103.196 68.226C103.072 67.831 102.818 67.4924 102.434 67.2102C102.061 66.928 101.503 66.7869 100.758 66.7869C100.476 66.7869 100.272 66.7869 100.148 66.7869C100.024 66.7756 99.7646 66.7644 99.3696 66.7531ZM110.736 72.3231C110.736 69.2982 111.515 66.8998 113.072 65.1278C114.641 63.3445 116.926 62.4528 119.929 62.4528C122.976 62.4528 125.273 63.3388 126.819 65.1109C128.377 66.8716 129.156 69.2757 129.156 72.3231C129.156 75.3705 128.377 77.7689 126.819 79.5183C125.262 81.2565 122.965 82.1256 119.929 82.1256C116.881 82.1256 114.584 81.2452 113.038 79.4845C111.503 77.7238 110.736 75.3366 110.736 72.3231ZM116.204 72.3231C116.204 72.9664 116.244 73.6323 116.323 74.3208C116.413 74.998 116.582 75.6301 116.831 76.217C117.09 76.8039 117.468 77.2836 117.965 77.656C118.461 78.0172 119.122 78.1978 119.946 78.1978C120.77 78.1978 121.43 78.0172 121.927 77.656C122.423 77.2836 122.796 76.8039 123.044 76.217C123.303 75.6301 123.473 74.998 123.552 74.3208C123.642 73.6323 123.687 72.9664 123.687 72.3231C123.687 71.6684 123.642 70.9969 123.552 70.3084C123.473 69.6086 123.303 68.9653 123.044 68.3784C122.796 67.7802 122.423 67.3005 121.927 66.9393C121.43 66.5668 120.77 66.3806 119.946 66.3806C119.122 66.3806 118.461 66.5668 117.965 66.9393C117.468 67.3005 117.09 67.7802 116.831 68.3784C116.582 68.9653 116.413 69.6086 116.323 70.3084C116.244 70.9969 116.204 71.6684 116.204 72.3231ZM147.845 68.6323C147.845 69.5014 147.647 70.2745 147.252 70.9517C146.857 71.6289 146.36 72.1876 145.762 72.6278C145.175 73.068 144.588 73.3502 144.001 73.4743C144.611 73.6775 145.113 73.9879 145.508 74.4055C145.915 74.8231 146.264 75.3592 146.558 76.0138L147.438 78.0285C147.641 78.4913 147.873 78.9202 148.132 79.3152C148.392 79.6989 148.68 80.0262 148.996 80.2971C148.669 80.7035 148.178 81.0816 147.523 81.4314C146.868 81.77 146.157 81.9393 145.39 81.9393C144.634 81.9393 144.018 81.7588 143.544 81.3976C143.082 81.0251 142.675 80.4326 142.325 79.6199L140.836 76.2001C140.599 75.647 140.305 75.314 139.955 75.2012C139.605 75.0883 139.154 75.0319 138.601 75.0319H137.941V81.6177C137.489 81.6967 137.021 81.7475 136.535 81.77C136.061 81.8039 135.655 81.8208 135.316 81.8208C135 81.8208 134.583 81.8039 134.064 81.77C133.544 81.7475 133.07 81.6967 132.641 81.6177V63.13L132.828 62.9269C134.193 62.893 135.474 62.8648 136.671 62.8422C137.878 62.8084 139.08 62.7914 140.277 62.7914C141.631 62.7914 142.884 62.972 144.035 63.3332C145.187 63.6831 146.106 64.2869 146.795 65.1447C147.495 65.9912 147.845 67.1538 147.845 68.6323ZM137.941 66.6176V71.0025C138.336 70.9912 138.697 70.9856 139.024 70.9856C139.363 70.9743 139.611 70.9687 139.769 70.9687C140.785 70.9687 141.473 70.7486 141.834 70.3084C142.196 69.8682 142.376 69.3547 142.376 68.7678C142.376 68.1921 142.196 67.6955 141.834 67.2779C141.473 66.8603 140.869 66.6515 140.023 66.6515C139.617 66.6515 139.267 66.6458 138.973 66.6346C138.68 66.6233 138.336 66.6176 137.941 66.6176ZM154.763 69.3095C154.763 68.9483 154.769 68.6154 154.78 68.3106C154.792 67.9946 154.797 67.6447 154.797 67.261C154.56 67.261 154.233 67.2666 153.815 67.2779C153.409 67.2892 153.087 67.2948 152.85 67.2948H149.718C149.628 66.8885 149.572 66.5104 149.549 66.1605C149.526 65.7993 149.515 65.472 149.515 65.1786C149.515 64.8851 149.526 64.5409 149.549 64.1458C149.572 63.7395 149.628 63.3445 149.718 62.9607H165.04C165.119 63.2655 165.175 63.6097 165.209 63.9935C165.254 64.3772 165.277 64.6876 165.277 64.9246C165.277 65.6921 165.074 66.279 164.668 66.6854C164.261 67.0917 163.584 67.2948 162.636 67.2948H161.942C161.705 67.2948 161.389 67.2892 160.994 67.2779C160.61 67.2666 160.311 67.261 160.096 67.261C160.096 67.6447 160.102 67.9946 160.113 68.3106C160.125 68.6154 160.13 68.9483 160.13 69.3095V81.6177C159.814 81.6854 159.38 81.7362 158.827 81.77C158.274 81.8039 157.811 81.8208 157.438 81.8208C157.088 81.8208 156.648 81.8039 156.118 81.77C155.587 81.7362 155.136 81.6854 154.763 81.6177V69.3095ZM181.764 77.3682C181.764 78.9822 181.51 80.1053 181.002 80.7373C180.506 81.3694 179.659 81.6854 178.463 81.6854H170.658C169.698 81.6854 168.942 81.4145 168.389 80.8728C167.836 80.3197 167.56 79.5804 167.56 78.6549V63.147L167.746 62.9607H181.138C181.217 63.3445 181.262 63.7113 181.273 64.0612C181.284 64.4111 181.29 64.744 181.29 65.0601C181.29 65.3648 181.256 65.7091 181.188 66.0928C181.132 66.4765 181.03 66.8659 180.884 67.261H174.958C174.484 67.261 173.767 67.2553 172.808 67.244C172.819 67.5939 172.825 67.893 172.825 68.1413C172.836 68.3896 172.842 68.6887 172.842 69.0386V70.156C173.779 70.1447 174.484 70.1391 174.958 70.1391H179.292C179.405 70.4438 179.478 70.7937 179.512 71.1888C179.557 71.5725 179.58 71.8998 179.58 72.1707C179.58 72.4867 179.557 72.8423 179.512 73.2373C179.478 73.621 179.405 73.9709 179.292 74.287H174.958C174.744 74.287 174.445 74.287 174.061 74.287C173.677 74.287 173.271 74.287 172.842 74.287V75.3874C172.842 75.805 172.836 76.1493 172.825 76.4201C172.814 76.691 172.808 77.0296 172.808 77.4359V77.4698C173.203 77.4472 173.57 77.4247 173.908 77.4021C174.247 77.3795 174.659 77.3682 175.144 77.3682H181.764Z" fill="#364760"/>
</svg>
