<svg width="125" height="35" viewBox="0 0 125 35" fill="none" xmlns="http://www.w3.org/2000/svg">
<path d="M0.189313 1.216C0.813313 1.104 1.49331 1.032 2.22931 0.999997C2.96531 0.951999 3.57331 0.927999 4.05331 0.927999C4.56531 0.927999 5.17331 0.951999 5.87731 0.999997C6.58131 1.032 7.25331 1.104 7.89331 1.216V34C7.25331 34.112 6.58131 34.184 5.87731 34.216C5.17331 34.264 4.56531 34.288 4.05331 34.288C3.57331 34.288 2.96531 34.264 2.22931 34.216C1.49331 34.184 0.813313 34.112 0.189313 34V1.216ZM24.4477 21.928C24.3357 21.672 24.1597 21.272 23.9197 20.728C23.6797 20.168 23.4237 19.568 23.1517 18.928C22.8797 18.288 22.6237 17.688 22.3837 17.128C22.1597 16.568 21.9837 16.16 21.8557 15.904L21.6877 15.976C21.7517 17.24 21.8157 18.608 21.8797 20.08C21.9437 21.536 21.9917 22.872 22.0237 24.088C22.0717 25.288 22.0957 26.16 22.0957 26.704V34C21.4717 34.112 20.8717 34.184 20.2957 34.216C19.7197 34.264 19.1837 34.288 18.6877 34.288C18.2397 34.288 17.6797 34.264 17.0077 34.216C16.3517 34.184 15.7277 34.112 15.1357 34V7.72C15.7277 7.576 16.4637 7.464 17.3437 7.384C18.2237 7.304 18.9037 7.264 19.3837 7.264C19.8797 7.264 20.5837 7.28 21.4957 7.312C22.4077 7.328 23.1597 7.408 23.7517 7.552L29.3917 19.576C29.5037 19.8 29.6877 20.208 29.9437 20.8C30.2157 21.392 30.5037 22.04 30.8077 22.744C31.1117 23.448 31.3917 24.112 31.6477 24.736C31.9197 25.344 32.1197 25.792 32.2477 26.08L32.4637 26.032C32.3997 24.976 32.3117 23.744 32.1997 22.336C32.1037 20.928 32.0157 19.568 31.9357 18.256C31.8557 16.944 31.8157 15.896 31.8157 15.112V11.368C31.8157 9.672 32.1837 8.56 32.9197 8.032C33.6557 7.488 34.7517 7.216 36.2077 7.216H38.6797L38.9677 7.552V33.856C38.3437 34 37.5917 34.104 36.7117 34.168C35.8317 34.248 35.1597 34.288 34.6957 34.288C34.3757 34.288 33.9357 34.28 33.3757 34.264C32.8157 34.248 32.2397 34.224 31.6477 34.192C31.0717 34.16 30.5917 34.096 30.2077 34L24.4477 21.928ZM46.1497 7.504C46.9817 7.472 47.9817 7.44 49.1497 7.408C50.3337 7.376 51.5497 7.352 52.7977 7.336C54.0457 7.32 55.1897 7.312 56.2297 7.312C58.1977 7.312 59.9577 7.536 61.5097 7.984C63.0777 8.432 64.3097 9.176 65.2057 10.216C66.1017 11.24 66.5497 12.616 66.5497 14.344C66.5497 15.464 66.2377 16.528 65.6137 17.536C65.0057 18.544 64.1657 19.256 63.0937 19.672C64.4697 20.104 65.6217 20.952 66.5497 22.216C67.4777 23.464 67.9417 24.816 67.9417 26.272C67.9417 28.32 67.4617 29.92 66.5017 31.072C65.5577 32.208 64.2457 33.016 62.5657 33.496C60.9017 33.96 58.9977 34.192 56.8537 34.192C55.2057 34.192 53.4937 34.176 51.7177 34.144C49.9417 34.128 48.0857 34.096 46.1497 34.048L45.8857 33.808V7.792L46.1497 7.504ZM55.8937 12.472C55.5897 12.472 55.1817 12.472 54.6697 12.472C54.1577 12.472 53.6697 12.456 53.2057 12.424V17.584H55.8457C57.1257 17.584 57.9977 17.32 58.4617 16.792C58.9257 16.264 59.1577 15.672 59.1577 15.016C59.1577 14.376 58.9257 13.792 58.4617 13.264C58.0137 12.736 57.1577 12.472 55.8937 12.472ZM53.2057 29.032C53.8457 29 54.4697 28.984 55.0777 28.984C55.6857 28.984 56.2377 28.984 56.7337 28.984C58.1897 28.984 59.1497 28.656 59.6137 28C60.0937 27.328 60.3337 26.64 60.3337 25.936C60.3337 25.168 60.0457 24.448 59.4697 23.776C58.9097 23.104 57.8697 22.768 56.3497 22.768H53.2057V29.032ZM71.0354 20.824C71.0354 16.536 72.1394 13.136 74.3474 10.624C76.5714 8.096 79.8114 6.832 84.0674 6.832C88.3874 6.832 91.6434 8.088 93.8354 10.6C96.0434 13.096 97.1474 16.504 97.1474 20.824C97.1474 25.144 96.0434 28.544 93.8354 31.024C91.6274 33.488 88.3714 34.72 84.0674 34.72C79.7474 34.72 76.4914 33.472 74.2994 30.976C72.1234 28.48 71.0354 25.096 71.0354 20.824ZM78.7874 20.824C78.7874 21.736 78.8434 22.68 78.9554 23.656C79.0834 24.616 79.3234 25.512 79.6754 26.344C80.0434 27.176 80.5794 27.856 81.2834 28.384C81.9874 28.896 82.9234 29.152 84.0914 29.152C85.2594 29.152 86.1954 28.896 86.8994 28.384C87.6034 27.856 88.1314 27.176 88.4834 26.344C88.8514 25.512 89.0914 24.616 89.2034 23.656C89.3314 22.68 89.3954 21.736 89.3954 20.824C89.3954 19.896 89.3314 18.944 89.2034 17.968C89.0914 16.976 88.8514 16.064 88.4834 15.232C88.1314 14.384 87.6034 13.704 86.8994 13.192C86.1954 12.664 85.2594 12.4 84.0914 12.4C82.9234 12.4 81.9874 12.664 81.2834 13.192C80.5794 13.704 80.0434 14.384 79.6754 15.232C79.3234 16.064 79.0834 16.976 78.9554 17.968C78.8434 18.944 78.7874 19.896 78.7874 20.824ZM99.0108 8.728C99.9868 8.088 100.955 7.672 101.915 7.48C102.891 7.272 103.659 7.168 104.219 7.168C105.259 7.168 106.123 7.408 106.811 7.888C107.499 8.368 108.203 9.12 108.923 10.144L111.659 14.176L115.979 7.552C116.539 7.408 117.075 7.328 117.587 7.312C118.115 7.28 118.691 7.264 119.315 7.264C119.811 7.264 120.419 7.304 121.139 7.384C121.859 7.464 122.539 7.592 123.179 7.768L123.227 8.152L115.499 19.816L124.379 32.8C123.403 33.472 122.411 33.904 121.403 34.096C120.395 34.288 119.627 34.384 119.099 34.384C118.059 34.384 117.179 34.144 116.459 33.664C115.739 33.168 115.035 32.408 114.347 31.384L110.651 25.936L105.539 34C105.075 34.096 104.539 34.168 103.931 34.216C103.323 34.264 102.747 34.288 102.203 34.288C100.699 34.288 99.4028 34.112 98.3148 33.76L98.0748 33.4L106.763 20.176L99.0108 8.728Z" fill="#364760"/>
</svg>
