<svg width="149" height="67" viewBox="0 0 149 67" fill="none" xmlns="http://www.w3.org/2000/svg">
<path d="M6.69169 0.907382C7.26731 0.805802 7.89373 0.738082 8.57093 0.704222C9.25942 0.670361 9.85197 0.653431 10.3486 0.653431C10.8452 0.653431 11.3983 0.670361 12.0077 0.704222C12.6172 0.738082 13.2098 0.805802 13.7854 0.907382L15.7831 9.18619C15.8283 9.38935 15.9017 9.73924 16.0032 10.2359C16.1161 10.7325 16.2403 11.2968 16.3757 11.9289C16.5111 12.5609 16.6353 13.1817 16.7482 13.7912C16.8723 14.4006 16.9682 14.9198 17.036 15.3487H17.273C17.3407 14.9198 17.4366 14.4006 17.5608 13.7912C17.685 13.1817 17.8091 12.5609 17.9333 11.9289C18.0687 11.2968 18.1929 10.7325 18.3057 10.2359C18.4186 9.73924 18.4976 9.38935 18.5427 9.18619L20.5405 0.907382C21.1161 0.805802 21.703 0.738082 22.3012 0.704222C22.9107 0.670361 23.4638 0.653431 23.9604 0.653431C24.457 0.653431 25.0495 0.670361 25.738 0.704222C26.4265 0.738082 27.0529 0.805802 27.6173 0.907382L29.4118 23.9323C29.0281 24.0339 28.5823 24.1016 28.0744 24.1354C27.5778 24.1806 27.1094 24.2032 26.6692 24.2032C26.2629 24.2032 25.8622 24.1919 25.4671 24.1693C25.0834 24.1467 24.694 24.1016 24.299 24.0339L23.7911 14.6038C23.7233 13.4074 23.6613 12.0869 23.6048 10.6422C23.5484 9.19747 23.5202 7.92207 23.5202 6.81598H23.2832L19.9479 20.5971C19.5416 20.6648 19.0676 20.7156 18.5258 20.7494C17.9841 20.772 17.5213 20.7833 17.1375 20.7833C16.7989 20.7833 16.3531 20.772 15.8001 20.7494C15.247 20.7156 14.7673 20.6648 14.361 20.5971L11.0258 6.81598H10.8057C10.7944 7.92207 10.7606 9.19747 10.7041 10.6422C10.659 12.0869 10.6025 13.4074 10.5348 14.6038L10.01 24.0339C9.62624 24.1016 9.23685 24.1467 8.84181 24.1693C8.44678 24.1919 8.0461 24.2032 7.63978 24.2032C7.21088 24.2032 6.74248 24.1806 6.23458 24.1354C5.73797 24.1016 5.29214 24.0339 4.89711 23.9323L6.69169 0.907382ZM33.7631 5.34306C34.192 5.25277 34.6774 5.19633 35.2191 5.17376C35.7609 5.15119 36.1898 5.1399 36.5058 5.1399C36.8444 5.1399 37.2507 5.15119 37.7248 5.17376C38.2101 5.19633 38.6785 5.25277 39.13 5.34306V24C38.6785 24.079 38.2101 24.1298 37.7248 24.1524C37.2507 24.1862 36.8444 24.2032 36.5058 24.2032C36.1898 24.2032 35.7609 24.1862 35.2191 24.1524C34.6774 24.1298 34.192 24.079 33.7631 24V5.34306ZM58.2496 19.7506C58.2496 21.3646 57.9956 22.4876 57.4877 23.1196C56.9911 23.7517 56.1446 24.0677 54.9482 24.0677H47.1434C46.1841 24.0677 45.4279 23.7968 44.8748 23.2551C44.3218 22.702 44.0452 21.9627 44.0452 21.0372V5.52929L44.2315 5.34306H57.6232C57.7022 5.72681 57.7473 6.09363 57.7586 6.44352C57.7699 6.7934 57.7755 7.12636 57.7755 7.44239C57.7755 7.74713 57.7417 8.09138 57.674 8.47512C57.6175 8.85887 57.5159 9.24826 57.3692 9.6433H51.4437C50.9696 9.6433 50.2529 9.63766 49.2936 9.62637C49.3049 9.97626 49.3105 10.2754 49.3105 10.5237C49.3218 10.772 49.3274 11.0711 49.3274 11.421V12.5383C50.2642 12.5271 50.9696 12.5214 51.4437 12.5214H55.7778C55.8907 12.8262 55.964 13.176 55.9979 13.5711C56.043 13.9548 56.0656 14.2821 56.0656 14.553C56.0656 14.869 56.043 15.2246 55.9979 15.6196C55.964 16.0034 55.8907 16.3533 55.7778 16.6693H51.4437C51.2292 16.6693 50.9301 16.6693 50.5464 16.6693C50.1626 16.6693 49.7563 16.6693 49.3274 16.6693V17.7697C49.3274 18.1873 49.3218 18.5316 49.3105 18.8025C49.2992 19.0733 49.2936 19.412 49.2936 19.8183V19.8521C49.6886 19.8296 50.0554 19.807 50.394 19.7844C50.7326 19.7618 51.1446 19.7506 51.6299 19.7506H58.2496ZM63.1194 5.34306C63.6611 5.24148 64.2537 5.17376 64.897 5.1399C65.5404 5.09475 66.0821 5.07218 66.5223 5.07218C66.9399 5.07218 67.4817 5.09475 68.1476 5.1399C68.8135 5.17376 69.3722 5.24148 69.8237 5.34306L71.4828 12.6907C71.5844 13.1309 71.7029 13.7291 71.8383 14.4853C71.9738 15.2302 72.1092 16.0316 72.2447 16.8894H72.4648C72.7356 15.0835 72.9896 13.6839 73.2266 12.6907L74.8688 5.34306C75.3993 5.24148 75.9806 5.17376 76.6126 5.1399C77.2447 5.09475 77.7695 5.07218 78.1871 5.07218C78.6273 5.07218 79.1747 5.09475 79.8293 5.1399C80.484 5.17376 81.0709 5.24148 81.5901 5.34306L83.5032 23.9323C82.7695 24.1129 81.8835 24.2032 80.8451 24.2032C80.4501 24.2032 80.0269 24.1862 79.5754 24.1524C79.1352 24.1185 78.7402 24.0677 78.3903 24L77.8993 18.0068C77.8429 17.2393 77.809 16.3984 77.7977 15.4842C77.7864 14.5699 77.7864 13.6783 77.7977 12.8092C77.809 11.9289 77.809 11.167 77.7977 10.5237H77.5946L75.1058 21.1388C74.7221 21.2065 74.2537 21.2573 73.7007 21.2912C73.1476 21.3138 72.6905 21.325 72.3293 21.325C71.9569 21.325 71.4941 21.3138 70.9411 21.2912C70.3993 21.2573 69.9478 21.2065 69.5866 21.1388L67.1149 10.5237H66.8778C66.8778 11.1783 66.8778 11.9401 66.8778 12.8092C66.8891 13.6783 66.8891 14.5699 66.8778 15.4842C66.8665 16.3984 66.827 17.2505 66.7593 18.0406L66.3191 24C65.958 24.0677 65.5629 24.1185 65.134 24.1524C64.7164 24.1862 64.3101 24.2032 63.9151 24.2032C62.8654 24.2032 61.9625 24.1129 61.2063 23.9323L63.1194 5.34306ZM87.8463 5.3092C88.4332 5.28663 89.1386 5.26405 89.9625 5.24148C90.7977 5.21891 91.6555 5.20198 92.5359 5.19069C93.4162 5.1794 94.2232 5.17376 94.9569 5.17376C96.3451 5.17376 97.5867 5.33177 98.6815 5.6478C99.7876 5.96383 100.657 6.48866 101.289 7.2223C101.921 7.94465 102.237 8.91531 102.237 10.1343C102.237 10.9243 102.017 11.6749 101.577 12.386C101.148 13.097 100.555 13.5993 99.7989 13.8927C100.77 14.1975 101.582 14.7957 102.237 15.6873C102.891 16.5677 103.219 17.5214 103.219 18.5485C103.219 19.9932 102.88 21.1219 102.203 21.9345C101.537 22.7359 100.612 23.3059 99.4264 23.6445C98.2526 23.9718 96.9095 24.1354 95.3971 24.1354C94.2345 24.1354 93.0269 24.1242 91.774 24.1016C90.5212 24.0903 89.2119 24.0677 87.8463 24.0339L87.66 23.8646V5.51236L87.8463 5.3092ZM94.7199 8.81373C94.5054 8.81373 94.2176 8.81373 93.8564 8.81373C93.4953 8.81373 93.151 8.80244 92.8237 8.77987V12.4198H94.686C95.5889 12.4198 96.2041 12.2336 96.5314 11.8611C96.8587 11.4887 97.0224 11.0711 97.0224 10.6083C97.0224 10.1568 96.8587 9.74488 96.5314 9.37242C96.2154 8.99996 95.6115 8.81373 94.7199 8.81373ZM92.8237 20.4955C93.2752 20.4729 93.7153 20.4616 94.1442 20.4616C94.5731 20.4616 94.9625 20.4616 95.3124 20.4616C96.3395 20.4616 97.0167 20.2302 97.344 19.7675C97.6826 19.2934 97.8519 18.8081 97.8519 18.3115C97.8519 17.7697 97.6488 17.2618 97.2424 16.7878C96.8474 16.3137 96.1138 16.0767 95.0415 16.0767H92.8237V20.4955ZM121.976 11.0146C121.976 11.8837 121.778 12.6569 121.383 13.3341C120.988 14.0113 120.491 14.5699 119.893 15.0101C119.306 15.4503 118.719 15.7325 118.133 15.8566C118.742 16.0598 119.244 16.3702 119.639 16.7878C120.046 17.2054 120.396 17.7415 120.689 18.3961L121.569 20.4108C121.773 20.8736 122.004 21.3025 122.263 21.6975C122.523 22.0813 122.811 22.4086 123.127 22.6795C122.8 23.0858 122.309 23.4639 121.654 23.8138C120.999 24.1524 120.288 24.3217 119.521 24.3217C118.765 24.3217 118.149 24.1411 117.675 23.7799C117.213 23.4074 116.806 22.8149 116.456 22.0023L114.967 18.5824C114.73 18.0293 114.436 17.6964 114.086 17.5835C113.736 17.4706 113.285 17.4142 112.732 17.4142H112.072V24C111.62 24.079 111.152 24.1298 110.666 24.1524C110.192 24.1862 109.786 24.2032 109.447 24.2032C109.131 24.2032 108.714 24.1862 108.195 24.1524C107.675 24.1298 107.201 24.079 106.772 24V5.51236L106.959 5.3092C108.324 5.27534 109.605 5.24712 110.802 5.22455C112.01 5.19069 113.212 5.17376 114.408 5.17376C115.762 5.17376 117.015 5.35435 118.166 5.71552C119.318 6.06541 120.238 6.66925 120.926 7.52704C121.626 8.37354 121.976 9.53608 121.976 11.0146ZM112.072 8.99996V13.3848C112.467 13.3736 112.828 13.3679 113.155 13.3679C113.494 13.3566 113.742 13.351 113.9 13.351C114.916 13.351 115.604 13.1309 115.966 12.6907C116.327 12.2505 116.507 11.737 116.507 11.1501C116.507 10.5745 116.327 10.0778 115.966 9.66023C115.604 9.24262 115 9.03382 114.154 9.03382C113.748 9.03382 113.398 9.02817 113.104 9.01689C112.811 9.0056 112.467 8.99996 112.072 8.99996ZM124.481 14.7054C124.481 11.6806 125.259 9.28212 126.817 7.51011C128.386 5.72681 130.671 4.83516 133.674 4.83516C136.721 4.83516 139.018 5.72117 140.564 7.49318C142.122 9.25391 142.9 11.658 142.9 14.7054C142.9 17.7528 142.122 20.1512 140.564 21.9007C139.007 23.6388 136.71 24.5079 133.674 24.5079C130.626 24.5079 128.329 23.6275 126.783 21.8668C125.248 20.1061 124.481 17.7189 124.481 14.7054ZM129.949 14.7054C129.949 15.3487 129.988 16.0146 130.067 16.7031C130.158 17.3803 130.327 18.0124 130.575 18.5993C130.835 19.1862 131.213 19.6659 131.71 20.0384C132.206 20.3995 132.867 20.5801 133.69 20.5801C134.514 20.5801 135.175 20.3995 135.671 20.0384C136.168 19.6659 136.54 19.1862 136.789 18.5993C137.048 18.0124 137.218 17.3803 137.297 16.7031C137.387 16.0146 137.432 15.3487 137.432 14.7054C137.432 14.0508 137.387 13.3792 137.297 12.6907C137.218 11.9909 137.048 11.3476 136.789 10.7607C136.54 10.1625 136.168 9.6828 135.671 9.32163C135.175 8.94917 134.514 8.76294 133.69 8.76294C132.867 8.76294 132.206 8.94917 131.71 9.32163C131.213 9.6828 130.835 10.1625 130.575 10.7607C130.327 11.3476 130.158 11.9909 130.067 12.6907C129.988 13.3792 129.949 14.0508 129.949 14.7054ZM16.5896 61.5643C16.5896 63.0542 16.3525 64.1828 15.8785 64.9503C15.4157 65.7178 14.4677 66.1016 13.0343 66.1016H4.02745C3.0568 66.1016 2.29494 65.8194 1.74189 65.2551C1.18885 64.6907 0.912321 63.9176 0.912321 62.9357V43.1105L1.14934 42.8735H15.7431C15.8221 43.2798 15.8729 43.6636 15.8954 44.0248C15.918 44.3747 15.9293 44.702 15.9293 45.0067C15.9293 45.3115 15.8898 45.6896 15.8108 46.141C15.7431 46.5812 15.6358 47.0045 15.4891 47.4108H8.56471C8.31641 47.4108 7.9778 47.4108 7.54891 47.4108C7.1313 47.3995 6.69676 47.3882 6.24529 47.3769C6.24529 47.8397 6.25094 48.2573 6.26222 48.6297C6.27351 48.9909 6.27915 49.3972 6.27915 49.8487V52.202C6.73062 52.1907 7.16516 52.1851 7.58277 52.1851C8.00038 52.1738 8.32769 52.1681 8.56471 52.1681H13.7284C13.8413 52.4954 13.9203 52.8736 13.9654 53.3024C14.0218 53.7313 14.0501 54.0925 14.0501 54.386C14.0501 54.6907 14.0218 55.0462 13.9654 55.4526C13.9203 55.8589 13.8413 56.237 13.7284 56.5869H8.56471C8.32769 56.5869 8.00038 56.5869 7.58277 56.5869C7.16516 56.5756 6.73062 56.5643 6.27915 56.553V59.1603C6.27915 59.6004 6.27351 60.0068 6.26222 60.3792C6.25094 60.7404 6.24529 61.1467 6.24529 61.5982V61.632C6.62904 61.6095 7.02408 61.5925 7.4304 61.5813C7.83672 61.57 8.2769 61.5643 8.75094 61.5643H16.5896ZM18.4093 64.5948C18.4093 64.1659 18.4939 63.6919 18.6632 63.1727C18.8325 62.6422 19.0639 62.1512 19.3574 61.6998C19.6508 61.2483 19.9725 60.9097 20.3224 60.684C21.1576 61.1354 22.0887 61.5248 23.1158 61.8521C24.1429 62.1682 25.1474 62.3262 26.1294 62.3262C26.7614 62.3262 27.2806 62.1964 27.687 61.9368C28.1046 61.6772 28.3134 61.3104 28.3134 60.8363C28.3134 60.5316 28.1949 60.2551 27.9578 60.0068C27.7208 59.7472 27.3089 59.5101 26.7219 59.2957L23.9116 58.1952C23.0425 57.8792 22.2298 57.4842 21.4736 57.0101C20.7174 56.5361 20.1079 55.9548 19.6452 55.2663C19.1824 54.5778 18.951 53.7539 18.951 52.7945C18.951 51.0338 19.6282 49.6004 20.9827 48.4943C22.3371 47.3882 24.1599 46.8352 26.4511 46.8352C27.749 46.8352 29.0357 46.9875 30.3111 47.2923C31.5978 47.5857 32.6757 47.9243 33.5448 48.3081C33.5448 49.0756 33.3868 49.8318 33.0707 50.5767C32.7547 51.3216 32.3202 51.9085 31.7671 52.3374C30.9319 51.965 30.0233 51.6546 29.0414 51.4063C28.0594 51.1467 27.1734 51.0169 26.3833 51.0169C25.7964 51.0169 25.345 51.141 25.0289 51.3893C24.7242 51.6377 24.5718 51.9368 24.5718 52.2866C24.5718 52.614 24.7242 52.8623 25.0289 53.0316C25.3337 53.2009 25.7118 53.3702 26.1633 53.5395L28.9567 54.6061C30.5143 55.1704 31.7502 55.9492 32.6644 56.9424C33.5899 57.9244 34.0527 59.1377 34.0527 60.5824C34.0527 61.8578 33.7084 62.9357 33.0199 63.816C32.3427 64.6964 31.4116 65.3623 30.2265 65.8138C29.0527 66.2652 27.7265 66.4966 26.2479 66.5079C24.4872 66.5079 22.9183 66.3047 21.5413 65.8984C20.1757 65.4921 19.1316 65.0576 18.4093 64.5948ZM39.6975 53.6918C39.6975 53.3307 39.7032 52.9977 39.7145 52.693C39.7257 52.3769 39.7314 52.027 39.7314 51.6433C39.4944 51.6433 39.1671 51.6489 38.7494 51.6602C38.3431 51.6715 38.0214 51.6772 37.7844 51.6772H34.6524C34.5621 51.2708 34.5056 50.8927 34.4831 50.5428C34.4605 50.1817 34.4492 49.8544 34.4492 49.5609C34.4492 49.2674 34.4605 48.9232 34.4831 48.5282C34.5056 48.1218 34.5621 47.7268 34.6524 47.3431H49.9741C50.0531 47.6478 50.1095 47.992 50.1434 48.3758C50.1885 48.7595 50.2111 49.0699 50.2111 49.3069C50.2111 50.0744 50.0079 50.6614 49.6016 51.0677C49.1953 51.474 48.5181 51.6772 47.57 51.6772H46.8759C46.6389 51.6772 46.3228 51.6715 45.9278 51.6602C45.544 51.6489 45.2449 51.6433 45.0305 51.6433C45.0305 52.027 45.0361 52.3769 45.0474 52.693C45.0587 52.9977 45.0644 53.3307 45.0644 53.6918V66C44.7483 66.0677 44.3138 66.1185 43.7607 66.1524C43.2077 66.1862 42.7449 66.2032 42.3725 66.2032C42.0226 66.2032 41.5824 66.1862 41.0519 66.1524C40.5215 66.1185 40.07 66.0677 39.6975 66V53.6918ZM55.68 62.7325C55.4995 62.7325 55.3245 62.7325 55.1552 62.7325C54.9859 62.7212 54.8166 62.7099 54.6473 62.6986L53.5976 66C53.2703 66.079 52.9148 66.1354 52.5311 66.1693C52.1473 66.2144 51.7466 66.237 51.329 66.237C50.8775 66.237 50.4204 66.2032 49.9577 66.1354C49.5062 66.0677 49.1337 65.9718 48.8403 65.8476L48.6541 65.5598L55.2399 47.3431C55.8268 47.2528 56.3911 47.1963 56.9329 47.1738C57.4859 47.1512 57.9882 47.1399 58.4396 47.1399C58.8573 47.1399 59.3087 47.1512 59.7941 47.1738C60.2794 47.1963 60.8268 47.2528 61.4363 47.3431L67.8358 65.746C67.4408 65.9266 66.9385 66.0621 66.3291 66.1524C65.7196 66.254 65.2286 66.3047 64.8561 66.3047C64.2354 66.3047 63.6372 66.1862 63.0616 65.9492C62.4859 65.7122 62.0514 65.0858 61.7579 64.07L61.3347 62.6986C61.1541 62.7099 60.9792 62.7212 60.8099 62.7325C60.6406 62.7325 60.46 62.7325 60.2681 62.7325H55.68ZM56.3572 57.3826L55.9848 58.5508C56.1541 58.5395 56.3234 58.5338 56.4927 58.5338C56.662 58.5226 56.8369 58.5169 57.0175 58.5169H59.1338C59.3031 58.5169 59.4554 58.5226 59.5909 58.5338C59.7376 58.5338 59.8843 58.5395 60.0311 58.5508L59.6755 57.3995C59.4159 56.5079 59.1564 55.5146 58.8968 54.4198C58.6372 53.325 58.4001 52.3318 58.1857 51.4401H57.9825C57.7455 52.2979 57.4803 53.2799 57.1868 54.386C56.9047 55.4921 56.6281 56.4909 56.3572 57.3826ZM60.539 38.1839C61.1597 38.3758 61.7918 38.7652 62.4351 39.3521C63.0898 39.9277 63.5187 40.5541 63.7218 41.2313L57.4577 45.9379C57.0175 45.8024 56.5886 45.5485 56.171 45.176C55.7534 44.8036 55.4543 44.3747 55.2737 43.8893L60.539 38.1839ZM76.9847 57.4842C76.9057 57.3036 76.7815 57.0214 76.6122 56.6377C76.4429 56.2426 76.2623 55.8194 76.0704 55.3679C75.8786 54.9164 75.698 54.4932 75.5287 54.0982C75.3707 53.7031 75.2465 53.4153 75.1562 53.2347L75.0377 53.2855C75.0829 54.1772 75.128 55.1422 75.1732 56.1806C75.2183 57.2076 75.2522 58.1501 75.2747 59.0079C75.3086 59.8544 75.3255 60.4695 75.3255 60.8533V66C74.8853 66.079 74.4621 66.1298 74.0558 66.1524C73.6494 66.1862 73.2713 66.2032 72.9215 66.2032C72.6054 66.2032 72.2104 66.1862 71.7364 66.1524C71.2736 66.1298 70.8334 66.079 70.4158 66V47.4616C70.8334 47.36 71.3526 47.281 71.9734 47.2245C72.5941 47.1681 73.0738 47.1399 73.4124 47.1399C73.7623 47.1399 74.2589 47.1512 74.9023 47.1738C75.5456 47.185 76.0761 47.2415 76.4937 47.3431L80.4723 55.825C80.5513 55.983 80.6811 56.2709 80.8617 56.6885C81.0535 57.1061 81.2567 57.5632 81.4711 58.0598C81.6856 58.5564 81.8831 59.0248 82.0637 59.465C82.2556 59.8939 82.3967 60.2099 82.4869 60.4131L82.6393 60.3792C82.5942 59.6343 82.5321 58.7652 82.4531 57.772C82.3854 56.7788 82.3233 55.8194 82.2669 54.8939C82.2104 53.9684 82.1822 53.2291 82.1822 52.676V50.0349C82.1822 48.8386 82.4418 48.0541 82.961 47.6817C83.4802 47.2979 84.2533 47.106 85.2804 47.106H87.0242L87.2274 47.3431V65.8984C86.7872 66 86.2567 66.0734 85.6359 66.1185C85.0152 66.1749 84.5411 66.2032 84.2138 66.2032C83.9881 66.2032 83.6777 66.1975 83.2827 66.1862C82.8876 66.1749 82.4813 66.158 82.0637 66.1354C81.6574 66.1129 81.3188 66.0677 81.0479 66L76.9847 57.4842ZM109.122 56.7054C109.122 59.8657 108.383 62.2302 106.904 63.7991C105.426 65.3567 103.095 66.1354 99.9122 66.1354C98.5691 66.1354 97.2937 66.1242 96.086 66.1016C94.8896 66.0903 93.6255 66.0677 92.2937 66.0339L92.1075 65.8307V47.5124L92.2937 47.3092C93.6368 47.2753 94.9066 47.2471 96.103 47.2245C97.2994 47.1907 98.5691 47.1738 99.9122 47.1738C103.061 47.1738 105.381 47.992 106.87 49.6286C108.372 51.2539 109.122 53.6128 109.122 56.7054ZM103.671 56.7054C103.671 55.8815 103.586 55.0575 103.417 54.2336C103.247 53.3984 102.892 52.6986 102.35 52.1343C101.808 51.5699 100.996 51.2878 99.9122 51.2878C99.4156 51.2878 98.9867 51.2878 98.6255 51.2878C98.2757 51.2765 97.8693 51.2652 97.4066 51.2539V62.0892C97.8919 62.0892 98.3039 62.0835 98.6425 62.0722C98.9924 62.0609 99.4156 62.0553 99.9122 62.0553C100.996 62.0553 101.808 61.7788 102.35 61.2257C102.892 60.6614 103.247 59.9673 103.417 59.1433C103.586 58.3194 103.671 57.5067 103.671 56.7054ZM117.052 62.7325C116.871 62.7325 116.696 62.7325 116.527 62.7325C116.357 62.7212 116.188 62.7099 116.019 62.6986L114.969 66C114.642 66.079 114.286 66.1354 113.903 66.1693C113.519 66.2144 113.118 66.237 112.701 66.237C112.249 66.237 111.792 66.2032 111.329 66.1354C110.878 66.0677 110.505 65.9718 110.212 65.8476L110.026 65.5598L116.611 47.3431C117.198 47.2528 117.763 47.1963 118.304 47.1738C118.857 47.1512 119.36 47.1399 119.811 47.1399C120.229 47.1399 120.68 47.1512 121.166 47.1738C121.651 47.1963 122.198 47.2528 122.808 47.3431L129.207 65.746C128.812 65.9266 128.31 66.0621 127.701 66.1524C127.091 66.254 126.6 66.3047 126.228 66.3047C125.607 66.3047 125.009 66.1862 124.433 65.9492C123.857 65.7122 123.423 65.0858 123.129 64.07L122.706 62.6986C122.526 62.7099 122.351 62.7212 122.181 62.7325C122.012 62.7325 121.831 62.7325 121.64 62.7325H117.052ZM117.729 57.3826L117.356 58.5508C117.526 58.5395 117.695 58.5338 117.864 58.5338C118.033 58.5226 118.208 58.5169 118.389 58.5169H120.505C120.675 58.5169 120.827 58.5226 120.962 58.5338C121.109 58.5338 121.256 58.5395 121.403 58.5508L121.047 57.3995C120.787 56.5079 120.528 55.5146 120.268 54.4198C120.009 53.325 119.772 52.3318 119.557 51.4401H119.354C119.117 52.2979 118.852 53.2799 118.558 54.386C118.276 55.4921 118 56.4909 117.729 57.3826ZM146.991 53.0146C146.991 53.8837 146.793 54.6569 146.398 55.3341C146.003 56.0113 145.506 56.5699 144.908 57.0101C144.321 57.4503 143.734 57.7325 143.147 57.8566C143.757 58.0598 144.259 58.3702 144.654 58.7878C145.061 59.2054 145.41 59.7415 145.704 60.3961L146.584 62.4108C146.787 62.8736 147.019 63.3025 147.278 63.6975C147.538 64.0813 147.826 64.4086 148.142 64.6795C147.814 65.0858 147.323 65.4639 146.669 65.8138C146.014 66.1524 145.303 66.3217 144.536 66.3217C143.779 66.3217 143.164 66.1411 142.69 65.7799C142.228 65.4074 141.821 64.8149 141.471 64.0023L139.981 60.5824C139.744 60.0293 139.451 59.6964 139.101 59.5835C138.751 59.4706 138.3 59.4142 137.747 59.4142H137.086V66C136.635 66.079 136.167 66.1298 135.681 66.1524C135.207 66.1862 134.801 66.2032 134.462 66.2032C134.146 66.2032 133.729 66.1862 133.209 66.1524C132.69 66.1298 132.216 66.079 131.787 66V47.5124L131.974 47.3092C133.339 47.2753 134.62 47.2471 135.817 47.2245C137.024 47.1907 138.226 47.1738 139.423 47.1738C140.777 47.1738 142.03 47.3543 143.181 47.7155C144.333 48.0654 145.252 48.6693 145.941 49.527C146.641 50.3735 146.991 51.5361 146.991 53.0146ZM137.086 51V55.3848C137.481 55.3736 137.843 55.3679 138.17 55.3679C138.509 55.3566 138.757 55.351 138.915 55.351C139.931 55.351 140.619 55.1309 140.98 54.6907C141.342 54.2505 141.522 53.737 141.522 53.1501C141.522 52.5745 141.342 52.0778 140.98 51.6602C140.619 51.2426 140.015 51.0338 139.169 51.0338C138.763 51.0338 138.413 51.0282 138.119 51.0169C137.826 51.0056 137.481 51 137.086 51Z" fill="#CECED9"/>
</svg>
