<svg width="254" height="102" viewBox="0 0 254 102" fill="none" xmlns="http://www.w3.org/2000/svg">
<rect opacity="0.5" width="253" height="101.083" rx="10" fill="#DBDADA"/>
<path d="M35.1122 37.448C35.7242 37.34 36.3902 37.268 37.1102 37.232C37.8422 37.196 38.4722 37.178 39.0002 37.178C39.5282 37.178 40.1162 37.196 40.7642 37.232C41.4122 37.268 42.0422 37.34 42.6542 37.448L44.7782 46.25C44.8262 46.466 44.9042 46.838 45.0122 47.366C45.1322 47.894 45.2642 48.494 45.4082 49.166C45.5522 49.838 45.6842 50.498 45.8042 51.146C45.9362 51.794 46.0382 52.346 46.1102 52.802H46.3622C46.4342 52.346 46.5362 51.794 46.6682 51.146C46.8002 50.498 46.9322 49.838 47.0642 49.166C47.2082 48.494 47.3402 47.894 47.4602 47.366C47.5802 46.838 47.6642 46.466 47.7122 46.25L49.8362 37.448C50.4482 37.34 51.0722 37.268 51.7082 37.232C52.3562 37.196 52.9442 37.178 53.4722 37.178C54.0002 37.178 54.6302 37.196 55.3622 37.232C56.0942 37.268 56.7602 37.34 57.3602 37.448L59.2682 61.928C58.8602 62.036 58.3862 62.108 57.8462 62.144C57.3182 62.192 56.8202 62.216 56.3522 62.216C55.9202 62.216 55.4942 62.204 55.0742 62.18C54.6662 62.156 54.2522 62.108 53.8322 62.036L53.2922 52.01C53.2202 50.738 53.1542 49.334 53.0942 47.798C53.0342 46.262 53.0042 44.906 53.0042 43.73H52.7522L49.2062 58.382C48.7742 58.454 48.2702 58.508 47.6942 58.544C47.1182 58.568 46.6262 58.58 46.2182 58.58C45.8582 58.58 45.3842 58.568 44.7962 58.544C44.2082 58.508 43.6982 58.454 43.2662 58.382L39.7202 43.73H39.4862C39.4742 44.906 39.4382 46.262 39.3782 47.798C39.3302 49.334 39.2702 50.738 39.1982 52.01L38.6402 62.036C38.2322 62.108 37.8182 62.156 37.3982 62.18C36.9782 62.204 36.5522 62.216 36.1202 62.216C35.6642 62.216 35.1662 62.192 34.6262 62.144C34.0982 62.108 33.6242 62.036 33.2042 61.928L35.1122 37.448ZM63.8945 42.164C64.3505 42.068 64.8665 42.008 65.4425 41.984C66.0185 41.96 66.4745 41.948 66.8105 41.948C67.1705 41.948 67.6025 41.96 68.1065 41.984C68.6225 42.008 69.1205 42.068 69.6005 42.164V62C69.1205 62.084 68.6225 62.138 68.1065 62.162C67.6025 62.198 67.1705 62.216 66.8105 62.216C66.4745 62.216 66.0185 62.198 65.4425 62.162C64.8665 62.138 64.3505 62.084 63.8945 62V42.164ZM72.9004 60.506C72.9004 60.05 72.9904 59.546 73.1704 58.994C73.3504 58.43 73.5964 57.908 73.9084 57.428C74.2204 56.948 74.5624 56.588 74.9344 56.348C75.8224 56.828 76.8124 57.242 77.9044 57.59C78.9964 57.926 80.0644 58.094 81.1084 58.094C81.7804 58.094 82.3324 57.956 82.7644 57.68C83.2084 57.404 83.4304 57.014 83.4304 56.51C83.4304 56.186 83.3044 55.892 83.0524 55.628C82.8004 55.352 82.3624 55.1 81.7384 54.872L78.7504 53.702C77.8264 53.366 76.9624 52.946 76.1584 52.442C75.3544 51.938 74.7064 51.32 74.2144 50.588C73.7224 49.856 73.4764 48.98 73.4764 47.96C73.4764 46.088 74.1964 44.564 75.6364 43.388C77.0764 42.212 79.0144 41.624 81.4504 41.624C82.8304 41.624 84.1984 41.786 85.5544 42.11C86.9224 42.422 88.0684 42.782 88.9924 43.19C88.9924 44.006 88.8244 44.81 88.4884 45.602C88.1524 46.394 87.6904 47.018 87.1024 47.474C86.2144 47.078 85.2484 46.748 84.2044 46.484C83.1604 46.208 82.2184 46.07 81.3784 46.07C80.7544 46.07 80.2744 46.202 79.9384 46.466C79.6144 46.73 79.4524 47.048 79.4524 47.42C79.4524 47.768 79.6144 48.032 79.9384 48.212C80.2624 48.392 80.6644 48.572 81.1444 48.752L84.1144 49.886C85.7704 50.486 87.0844 51.314 88.0564 52.37C89.0404 53.414 89.5324 54.704 89.5324 56.24C89.5324 57.596 89.1664 58.742 88.4344 59.678C87.7144 60.614 86.7244 61.322 85.4644 61.802C84.2164 62.282 82.8064 62.528 81.2344 62.54C79.3624 62.54 77.6944 62.324 76.2304 61.892C74.7784 61.46 73.6684 60.998 72.9004 60.506ZM114.645 55.322C114.645 54.926 114.651 54.518 114.663 54.098C114.675 53.678 114.693 53.252 114.717 52.82H112.953C112.029 52.82 111.339 52.646 110.883 52.298C110.427 51.95 110.199 51.32 110.199 50.408C110.199 50.036 110.235 49.634 110.307 49.202C110.391 48.77 110.493 48.38 110.613 48.032H116.247C117.675 48.032 118.665 48.368 119.217 49.04C119.769 49.7 120.045 50.552 120.045 51.596V61.046C119.001 61.394 117.651 61.73 115.995 62.054C114.339 62.378 112.527 62.54 110.559 62.54C108.099 62.54 106.059 62.024 104.439 60.992C102.831 59.96 101.631 58.496 100.839 56.6C100.047 54.704 99.6515 52.46 99.6515 49.868C99.6515 47.684 99.9695 45.782 100.605 44.162C101.241 42.53 102.105 41.18 103.197 40.112C104.289 39.032 105.519 38.222 106.887 37.682C108.255 37.142 109.671 36.872 111.135 36.872C112.791 36.872 114.375 37.112 115.887 37.592C117.399 38.072 118.767 38.69 119.991 39.446C119.931 40.262 119.631 41.06 119.091 41.84C118.563 42.62 118.005 43.202 117.417 43.586C116.541 42.998 115.581 42.53 114.537 42.182C113.505 41.822 112.485 41.642 111.477 41.642C109.653 41.642 108.207 42.302 107.139 43.622C106.071 44.93 105.537 47.024 105.537 49.904C105.537 52.712 106.053 54.764 107.085 56.06C108.129 57.356 109.617 58.004 111.549 58.004C112.125 58.004 112.671 57.974 113.187 57.914C113.703 57.854 114.189 57.782 114.645 57.698V55.322ZM140.666 48.194C140.666 49.118 140.456 49.94 140.036 50.66C139.616 51.38 139.088 51.974 138.452 52.442C137.828 52.91 137.204 53.21 136.58 53.342C137.228 53.558 137.762 53.888 138.182 54.332C138.614 54.776 138.986 55.346 139.298 56.042L140.234 58.184C140.45 58.676 140.696 59.132 140.972 59.552C141.248 59.96 141.554 60.308 141.89 60.596C141.542 61.028 141.02 61.43 140.324 61.802C139.628 62.162 138.872 62.342 138.056 62.342C137.252 62.342 136.598 62.15 136.094 61.766C135.602 61.37 135.17 60.74 134.798 59.876L133.214 56.24C132.962 55.652 132.65 55.298 132.278 55.178C131.906 55.058 131.426 54.998 130.838 54.998H130.136V62C129.656 62.084 129.158 62.138 128.642 62.162C128.138 62.198 127.706 62.216 127.346 62.216C127.01 62.216 126.566 62.198 126.014 62.162C125.462 62.138 124.958 62.084 124.502 62V42.344L124.7 42.128C126.152 42.092 127.514 42.062 128.786 42.038C130.07 42.002 131.348 41.984 132.62 41.984C134.06 41.984 135.392 42.176 136.616 42.56C137.84 42.932 138.818 43.574 139.55 44.486C140.294 45.386 140.666 46.622 140.666 48.194ZM130.136 46.052V50.714C130.556 50.702 130.94 50.696 131.288 50.696C131.648 50.684 131.912 50.678 132.08 50.678C133.16 50.678 133.892 50.444 134.276 49.976C134.66 49.508 134.852 48.962 134.852 48.338C134.852 47.726 134.66 47.198 134.276 46.754C133.892 46.31 133.25 46.088 132.35 46.088C131.918 46.088 131.546 46.082 131.234 46.07C130.922 46.058 130.556 46.052 130.136 46.052ZM162.242 54.566C162.242 57.05 161.498 59 160.01 60.416C158.534 61.832 156.344 62.54 153.44 62.54C150.536 62.54 148.34 61.832 146.852 60.416C145.376 59 144.638 57.05 144.638 54.566V42.164L144.854 41.948H146.906C147.998 41.948 148.838 42.224 149.426 42.776C150.026 43.328 150.326 44.258 150.326 45.566V54.548C150.326 55.64 150.554 56.498 151.01 57.122C151.466 57.746 152.276 58.058 153.44 58.058C154.616 58.058 155.426 57.746 155.87 57.122C156.314 56.498 156.536 55.64 156.536 54.548V42.164C157.016 42.068 157.508 42.008 158.012 41.984C158.516 41.96 158.954 41.948 159.326 41.948C159.662 41.948 160.118 41.966 160.694 42.002C161.27 42.026 161.786 42.086 162.242 42.182V54.566ZM182.844 48.968C182.844 50.528 182.49 51.824 181.782 52.856C181.086 53.876 180.126 54.638 178.902 55.142C177.678 55.634 176.286 55.88 174.726 55.88H172.764V62C172.284 62.084 171.792 62.138 171.288 62.162C170.784 62.198 170.352 62.216 169.992 62.216C169.656 62.216 169.2 62.198 168.624 62.162C168.048 62.138 167.532 62.084 167.076 62V42.344L167.274 42.128C168.246 42.104 169.416 42.074 170.784 42.038C172.152 42.002 173.466 41.984 174.726 41.984C176.298 41.984 177.696 42.224 178.92 42.704C180.144 43.184 181.104 43.94 181.8 44.972C182.496 46.004 182.844 47.336 182.844 48.968ZM172.764 46.196V51.704C173.088 51.692 173.382 51.686 173.646 51.686C173.91 51.674 174.108 51.668 174.24 51.668C175.032 51.668 175.626 51.524 176.022 51.236C176.43 50.936 176.7 50.576 176.832 50.156C176.964 49.724 177.03 49.316 177.03 48.932C177.03 48.572 176.964 48.182 176.832 47.762C176.7 47.342 176.43 46.982 176.022 46.682C175.626 46.382 175.032 46.232 174.24 46.232C173.94 46.232 173.724 46.232 173.592 46.232C173.46 46.22 173.184 46.208 172.764 46.196ZM184.849 52.118C184.849 48.902 185.677 46.352 187.333 44.468C189.001 42.572 191.431 41.624 194.623 41.624C197.863 41.624 200.305 42.566 201.949 44.45C203.605 46.322 204.433 48.878 204.433 52.118C204.433 55.358 203.605 57.908 201.949 59.768C200.293 61.616 197.851 62.54 194.623 62.54C191.383 62.54 188.941 61.604 187.297 59.732C185.665 57.86 184.849 55.322 184.849 52.118ZM190.663 52.118C190.663 52.802 190.705 53.51 190.789 54.242C190.885 54.962 191.065 55.634 191.329 56.258C191.605 56.882 192.007 57.392 192.535 57.788C193.063 58.172 193.765 58.364 194.641 58.364C195.517 58.364 196.219 58.172 196.747 57.788C197.275 57.392 197.671 56.882 197.935 56.258C198.211 55.634 198.391 54.962 198.475 54.242C198.571 53.51 198.619 52.802 198.619 52.118C198.619 51.422 198.571 50.708 198.475 49.976C198.391 49.232 198.211 48.548 197.935 47.924C197.671 47.288 197.275 46.778 196.747 46.394C196.219 45.998 195.517 45.8 194.641 45.8C193.765 45.8 193.063 45.998 192.535 46.394C192.007 46.778 191.605 47.288 191.329 47.924C191.065 48.548 190.885 49.232 190.789 49.976C190.705 50.708 190.663 51.422 190.663 52.118ZM206.213 60.506C206.213 60.05 206.303 59.546 206.483 58.994C206.663 58.43 206.909 57.908 207.221 57.428C207.533 56.948 207.875 56.588 208.247 56.348C209.135 56.828 210.125 57.242 211.217 57.59C212.309 57.926 213.377 58.094 214.421 58.094C215.093 58.094 215.645 57.956 216.077 57.68C216.521 57.404 216.743 57.014 216.743 56.51C216.743 56.186 216.617 55.892 216.365 55.628C216.113 55.352 215.675 55.1 215.051 54.872L212.063 53.702C211.139 53.366 210.275 52.946 209.471 52.442C208.667 51.938 208.019 51.32 207.527 50.588C207.035 49.856 206.789 48.98 206.789 47.96C206.789 46.088 207.509 44.564 208.949 43.388C210.389 42.212 212.327 41.624 214.763 41.624C216.143 41.624 217.511 41.786 218.867 42.11C220.235 42.422 221.381 42.782 222.305 43.19C222.305 44.006 222.137 44.81 221.801 45.602C221.465 46.394 221.003 47.018 220.415 47.474C219.527 47.078 218.561 46.748 217.517 46.484C216.473 46.208 215.531 46.07 214.691 46.07C214.067 46.07 213.587 46.202 213.251 46.466C212.927 46.73 212.765 47.048 212.765 47.42C212.765 47.768 212.927 48.032 213.251 48.212C213.575 48.392 213.977 48.572 214.457 48.752L217.427 49.886C219.083 50.486 220.397 51.314 221.369 52.37C222.353 53.414 222.845 54.704 222.845 56.24C222.845 57.596 222.479 58.742 221.747 59.678C221.027 60.614 220.037 61.322 218.777 61.802C217.529 62.282 216.119 62.528 214.547 62.54C212.675 62.54 211.007 62.324 209.543 61.892C208.091 61.46 206.981 60.998 206.213 60.506Z" fill="#364760"/>
</svg>
