<svg width="254" height="35" viewBox="0 0 254 35" fill="none" xmlns="http://www.w3.org/2000/svg">
<path d="M3.31625 1.264C4.13225 1.12 5.02025 1.024 5.98025 0.975999C6.95625 0.927999 7.79625 0.903998 8.50025 0.903998C9.20425 0.903998 9.98825 0.927999 10.8523 0.975999C11.7163 1.024 12.5563 1.12 13.3723 1.264L16.2043 13C16.2683 13.288 16.3723 13.784 16.5163 14.488C16.6763 15.192 16.8523 15.992 17.0443 16.888C17.2363 17.784 17.4123 18.664 17.5723 19.528C17.7483 20.392 17.8843 21.128 17.9803 21.736H18.3163C18.4123 21.128 18.5483 20.392 18.7243 19.528C18.9003 18.664 19.0763 17.784 19.2523 16.888C19.4443 15.992 19.6203 15.192 19.7803 14.488C19.9403 13.784 20.0523 13.288 20.1163 13L22.9482 1.264C23.7643 1.12 24.5963 1.024 25.4443 0.975999C26.3083 0.927999 27.0923 0.903998 27.7963 0.903998C28.5003 0.903998 29.3403 0.927999 30.3163 0.975999C31.2923 1.024 32.1803 1.12 32.9803 1.264L35.5243 33.904C34.9803 34.048 34.3483 34.144 33.6283 34.192C32.9243 34.256 32.2603 34.288 31.6363 34.288C31.0603 34.288 30.4923 34.272 29.9323 34.24C29.3883 34.208 28.8363 34.144 28.2763 34.048L27.5563 20.68C27.4603 18.984 27.3723 17.112 27.2923 15.064C27.2123 13.016 27.1723 11.208 27.1723 9.64H26.8363L22.1083 29.176C21.5323 29.272 20.8603 29.344 20.0923 29.392C19.3243 29.424 18.6683 29.44 18.1243 29.44C17.6443 29.44 17.0123 29.424 16.2283 29.392C15.4443 29.344 14.7643 29.272 14.1883 29.176L9.46025 9.64H9.14825C9.13225 11.208 9.08425 13.016 9.00425 15.064C8.94025 17.112 8.86025 18.984 8.76425 20.68L8.02025 34.048C7.47625 34.144 6.92425 34.208 6.36425 34.24C5.80425 34.272 5.23625 34.288 4.66025 34.288C4.05225 34.288 3.38825 34.256 2.66825 34.192C1.96425 34.144 1.33225 34.048 0.77225 33.904L3.31625 1.264ZM41.6926 7.552C42.3006 7.424 42.9886 7.344 43.7566 7.312C44.5246 7.28 45.1326 7.264 45.5806 7.264C46.0606 7.264 46.6366 7.28 47.3086 7.312C47.9966 7.344 48.6606 7.424 49.3006 7.552V34C48.6606 34.112 47.9966 34.184 47.3086 34.216C46.6366 34.264 46.0606 34.288 45.5806 34.288C45.1326 34.288 44.5246 34.264 43.7566 34.216C42.9886 34.184 42.3006 34.112 41.6926 34V7.552ZM53.7005 32.008C53.7005 31.4 53.8205 30.728 54.0605 29.992C54.3005 29.24 54.6285 28.544 55.0445 27.904C55.4605 27.264 55.9165 26.784 56.4125 26.464C57.5965 27.104 58.9165 27.656 60.3725 28.12C61.8285 28.568 63.2525 28.792 64.6445 28.792C65.5405 28.792 66.2765 28.608 66.8525 28.24C67.4445 27.872 67.7405 27.352 67.7405 26.68C67.7405 26.248 67.5725 25.856 67.2365 25.504C66.9005 25.136 66.3165 24.8 65.4845 24.496L61.5005 22.936C60.2685 22.488 59.1165 21.928 58.0445 21.256C56.9725 20.584 56.1085 19.76 55.4525 18.784C54.7965 17.808 54.4685 16.64 54.4685 15.28C54.4685 12.784 55.4285 10.752 57.3485 9.184C59.2685 7.616 61.8525 6.832 65.1005 6.832C66.9405 6.832 68.7645 7.048 70.5725 7.48C72.3965 7.896 73.9245 8.376 75.1565 8.92C75.1565 10.008 74.9325 11.08 74.4845 12.136C74.0365 13.192 73.4205 14.024 72.6365 14.632C71.4525 14.104 70.1645 13.664 68.7725 13.312C67.3805 12.944 66.1245 12.76 65.0045 12.76C64.1725 12.76 63.5325 12.936 63.0845 13.288C62.6525 13.64 62.4365 14.064 62.4365 14.56C62.4365 15.024 62.6525 15.376 63.0845 15.616C63.5165 15.856 64.0525 16.096 64.6925 16.336L68.6525 17.848C70.8605 18.648 72.6125 19.752 73.9085 21.16C75.2205 22.552 75.8765 24.272 75.8765 26.32C75.8765 28.128 75.3885 29.656 74.4125 30.904C73.4525 32.152 72.1325 33.096 70.4525 33.736C68.7885 34.376 66.9085 34.704 64.8125 34.72C62.3165 34.72 60.0925 34.432 58.1405 33.856C56.2045 33.28 54.7245 32.664 53.7005 32.008ZM109.361 25.096C109.361 24.568 109.369 24.024 109.385 23.464C109.401 22.904 109.425 22.336 109.457 21.76H107.105C105.873 21.76 104.953 21.528 104.345 21.064C103.737 20.6 103.433 19.76 103.433 18.544C103.433 18.048 103.481 17.512 103.577 16.936C103.689 16.36 103.825 15.84 103.985 15.376H111.497C113.401 15.376 114.721 15.824 115.457 16.72C116.193 17.6 116.561 18.736 116.561 20.128V32.728C115.169 33.192 113.369 33.64 111.161 34.072C108.953 34.504 106.537 34.72 103.913 34.72C100.633 34.72 97.9126 34.032 95.7526 32.656C93.6086 31.28 92.0086 29.328 90.9526 26.8C89.8966 24.272 89.3686 21.28 89.3686 17.824C89.3686 14.912 89.7926 12.376 90.6406 10.216C91.4886 8.04 92.6406 6.24 94.0966 4.816C95.5526 3.376 97.1926 2.296 99.0166 1.576C100.841 0.855999 102.729 0.495999 104.681 0.495999C106.889 0.495999 109.001 0.815999 111.017 1.456C113.033 2.096 114.857 2.92 116.489 3.928C116.409 5.016 116.009 6.08 115.289 7.12C114.585 8.16 113.841 8.936 113.057 9.448C111.889 8.664 110.609 8.04 109.217 7.576C107.841 7.096 106.481 6.856 105.137 6.856C102.705 6.856 100.777 7.736 99.3526 9.496C97.9286 11.24 97.2166 14.032 97.2166 17.872C97.2166 21.616 97.9046 24.352 99.2806 26.08C100.673 27.808 102.657 28.672 105.233 28.672C106.001 28.672 106.729 28.632 107.417 28.552C108.105 28.472 108.753 28.376 109.361 28.264V25.096ZM144.055 15.592C144.055 16.824 143.775 17.92 143.215 18.88C142.655 19.84 141.951 20.632 141.103 21.256C140.271 21.88 139.439 22.28 138.607 22.456C139.471 22.744 140.183 23.184 140.743 23.776C141.319 24.368 141.815 25.128 142.231 26.056L143.479 28.912C143.767 29.568 144.095 30.176 144.463 30.736C144.831 31.28 145.239 31.744 145.687 32.128C145.223 32.704 144.527 33.24 143.599 33.736C142.671 34.216 141.663 34.456 140.575 34.456C139.503 34.456 138.631 34.2 137.959 33.688C137.303 33.16 136.727 32.32 136.231 31.168L134.119 26.32C133.783 25.536 133.367 25.064 132.871 24.904C132.375 24.744 131.735 24.664 130.951 24.664H130.015V34C129.375 34.112 128.711 34.184 128.023 34.216C127.351 34.264 126.775 34.288 126.295 34.288C125.847 34.288 125.255 34.264 124.519 34.216C123.783 34.184 123.111 34.112 122.503 34V7.792L122.767 7.504C124.703 7.456 126.519 7.416 128.215 7.384C129.927 7.336 131.631 7.312 133.327 7.312C135.247 7.312 137.023 7.568 138.655 8.08C140.287 8.576 141.591 9.432 142.567 10.648C143.559 11.848 144.055 13.496 144.055 15.592ZM130.015 12.736V18.952C130.575 18.936 131.087 18.928 131.551 18.928C132.031 18.912 132.383 18.904 132.607 18.904C134.047 18.904 135.023 18.592 135.535 17.968C136.047 17.344 136.303 16.616 136.303 15.784C136.303 14.968 136.047 14.264 135.535 13.672C135.023 13.08 134.167 12.784 132.967 12.784C132.391 12.784 131.895 12.776 131.479 12.76C131.063 12.744 130.575 12.736 130.015 12.736ZM172.823 24.088C172.823 27.4 171.831 30 169.847 31.888C167.879 33.776 164.959 34.72 161.087 34.72C157.215 34.72 154.287 33.776 152.303 31.888C150.335 30 149.351 27.4 149.351 24.088V7.552L149.639 7.264H152.375C153.831 7.264 154.951 7.632 155.735 8.368C156.535 9.104 156.935 10.344 156.935 12.088V24.064C156.935 25.52 157.239 26.664 157.847 27.496C158.455 28.328 159.535 28.744 161.087 28.744C162.655 28.744 163.735 28.328 164.327 27.496C164.919 26.664 165.215 25.52 165.215 24.064V7.552C165.855 7.424 166.511 7.344 167.183 7.312C167.855 7.28 168.439 7.264 168.935 7.264C169.383 7.264 169.991 7.288 170.759 7.336C171.527 7.368 172.215 7.448 172.823 7.576V24.088ZM200.293 16.624C200.293 18.704 199.821 20.432 198.877 21.808C197.949 23.168 196.669 24.184 195.037 24.856C193.405 25.512 191.549 25.84 189.469 25.84H186.853V34C186.213 34.112 185.557 34.184 184.885 34.216C184.213 34.264 183.637 34.288 183.157 34.288C182.709 34.288 182.101 34.264 181.333 34.216C180.565 34.184 179.877 34.112 179.269 34V7.792L179.533 7.504C180.829 7.472 182.389 7.432 184.213 7.384C186.037 7.336 187.789 7.312 189.469 7.312C191.565 7.312 193.429 7.632 195.061 8.272C196.693 8.912 197.973 9.92 198.901 11.296C199.829 12.672 200.293 14.448 200.293 16.624ZM186.853 12.928V20.272C187.285 20.256 187.677 20.248 188.029 20.248C188.381 20.232 188.645 20.224 188.821 20.224C189.877 20.224 190.669 20.032 191.197 19.648C191.741 19.248 192.101 18.768 192.277 18.208C192.453 17.632 192.541 17.088 192.541 16.576C192.541 16.096 192.453 15.576 192.277 15.016C192.101 14.456 191.741 13.976 191.197 13.576C190.669 13.176 189.877 12.976 188.821 12.976C188.421 12.976 188.133 12.976 187.957 12.976C187.781 12.96 187.413 12.944 186.853 12.928ZM202.965 20.824C202.965 16.536 204.069 13.136 206.277 10.624C208.501 8.096 211.741 6.832 215.997 6.832C220.317 6.832 223.573 8.088 225.765 10.6C227.973 13.096 229.077 16.504 229.077 20.824C229.077 25.144 227.973 28.544 225.765 31.024C223.557 33.488 220.301 34.72 215.997 34.72C211.677 34.72 208.421 33.472 206.229 30.976C204.053 28.48 202.965 25.096 202.965 20.824ZM210.717 20.824C210.717 21.736 210.773 22.68 210.885 23.656C211.013 24.616 211.253 25.512 211.605 26.344C211.973 27.176 212.509 27.856 213.213 28.384C213.917 28.896 214.853 29.152 216.021 29.152C217.189 29.152 218.125 28.896 218.829 28.384C219.533 27.856 220.061 27.176 220.413 26.344C220.781 25.512 221.021 24.616 221.133 23.656C221.261 22.68 221.325 21.736 221.325 20.824C221.325 19.896 221.261 18.944 221.133 17.968C221.021 16.976 220.781 16.064 220.413 15.232C220.061 14.384 219.533 13.704 218.829 13.192C218.125 12.664 217.189 12.4 216.021 12.4C214.853 12.4 213.917 12.664 213.213 13.192C212.509 13.704 211.973 14.384 211.605 15.232C211.253 16.064 211.013 16.976 210.885 17.968C210.773 18.944 210.717 19.896 210.717 20.824ZM231.451 32.008C231.451 31.4 231.571 30.728 231.811 29.992C232.051 29.24 232.379 28.544 232.795 27.904C233.211 27.264 233.667 26.784 234.163 26.464C235.347 27.104 236.667 27.656 238.123 28.12C239.579 28.568 241.003 28.792 242.395 28.792C243.291 28.792 244.027 28.608 244.603 28.24C245.195 27.872 245.491 27.352 245.491 26.68C245.491 26.248 245.323 25.856 244.987 25.504C244.651 25.136 244.067 24.8 243.234 24.496L239.251 22.936C238.019 22.488 236.867 21.928 235.795 21.256C234.723 20.584 233.859 19.76 233.203 18.784C232.547 17.808 232.219 16.64 232.219 15.28C232.219 12.784 233.179 10.752 235.099 9.184C237.019 7.616 239.603 6.832 242.851 6.832C244.691 6.832 246.515 7.048 248.323 7.48C250.147 7.896 251.675 8.376 252.907 8.92C252.907 10.008 252.683 11.08 252.235 12.136C251.787 13.192 251.171 14.024 250.387 14.632C249.203 14.104 247.915 13.664 246.523 13.312C245.131 12.944 243.875 12.76 242.755 12.76C241.923 12.76 241.283 12.936 240.835 13.288C240.403 13.64 240.187 14.064 240.187 14.56C240.187 15.024 240.403 15.376 240.835 15.616C241.267 15.856 241.803 16.096 242.443 16.336L246.403 17.848C248.611 18.648 250.363 19.752 251.659 21.16C252.971 22.552 253.627 24.272 253.627 26.32C253.627 28.128 253.139 29.656 252.163 30.904C251.203 32.152 249.883 33.096 248.203 33.736C246.539 34.376 244.659 34.704 242.562 34.72C240.067 34.72 237.843 34.432 235.891 33.856C233.955 33.28 232.475 32.664 231.451 32.008Z" fill="#364760"/>
</svg>
