<svg width="253" height="102" viewBox="0 0 253 102" fill="none" xmlns="http://www.w3.org/2000/svg">
<rect opacity="0.5" width="253" height="101.083" rx="10" fill="#DBDADA"/>
<path d="M71.6768 23.026C71.6768 24.178 71.4548 25.204 71.0108 26.104C70.5668 26.992 70.0088 27.736 69.3368 28.336C68.6648 28.924 67.9868 29.35 67.3028 29.614C67.9748 29.854 68.5328 30.268 68.9768 30.856C69.4328 31.444 69.7988 32.134 70.0748 32.926L71.1548 35.968C71.5628 37.132 72.1568 38.02 72.9368 38.632C72.5648 39.112 72.0248 39.514 71.3168 39.838C70.6088 40.162 69.8708 40.324 69.1028 40.324C68.0708 40.324 67.3208 40.048 66.8528 39.496C66.3848 38.932 65.9588 38.098 65.5748 36.994L64.2788 33.232C64.0748 32.608 63.7568 32.08 63.3248 31.648C62.8928 31.204 62.1968 30.982 61.2368 30.982H59.7428V40C59.2628 40.084 58.7648 40.138 58.2488 40.162C57.7328 40.198 57.2768 40.216 56.8808 40.216C56.5328 40.216 56.0888 40.198 55.5488 40.162C55.0088 40.138 54.5048 40.084 54.0368 40V15.592L54.2888 15.34C55.8248 15.304 57.3008 15.274 58.7168 15.25C60.1448 15.214 61.5428 15.196 62.9108 15.196C64.5788 15.196 66.0728 15.472 67.3928 16.024C68.7248 16.576 69.7688 17.428 70.5248 18.58C71.2928 19.732 71.6768 21.214 71.6768 23.026ZM59.7428 19.516V26.572C60.3068 26.548 60.8348 26.53 61.3268 26.518C61.8308 26.506 62.1968 26.5 62.4248 26.5C63.3368 26.5 64.0328 26.338 64.5128 26.014C65.0048 25.678 65.3408 25.246 65.5208 24.718C65.7128 24.19 65.8088 23.626 65.8088 23.026C65.8088 22.402 65.7128 21.826 65.5208 21.298C65.3408 20.77 65.0048 20.35 64.5128 20.038C64.0328 19.714 63.3368 19.552 62.4248 19.552C62.0528 19.552 61.6388 19.552 61.1828 19.552C60.7388 19.552 60.2588 19.54 59.7428 19.516ZM90.9323 35.482C90.9323 37.198 90.6623 38.392 90.1223 39.064C89.5943 39.736 88.6943 40.072 87.4223 40.072H79.1243C78.1043 40.072 77.3003 39.784 76.7123 39.208C76.1243 38.62 75.8303 37.834 75.8303 36.85V20.362L76.0283 20.164H90.2663C90.3503 20.572 90.3983 20.962 90.4103 21.334C90.4223 21.706 90.4283 22.06 90.4283 22.396C90.4283 22.72 90.3923 23.086 90.3203 23.494C90.2603 23.902 90.1523 24.316 89.9963 24.736H83.6963C83.1923 24.736 82.4303 24.73 81.4103 24.718C81.4223 25.09 81.4283 25.408 81.4283 25.672C81.4403 25.936 81.4463 26.254 81.4463 26.626V27.814C82.4423 27.802 83.1923 27.796 83.6963 27.796H88.3043C88.4243 28.12 88.5023 28.492 88.5383 28.912C88.5863 29.32 88.6103 29.668 88.6103 29.956C88.6103 30.292 88.5863 30.67 88.5383 31.09C88.5023 31.498 88.4243 31.87 88.3043 32.206H83.6963C83.4683 32.206 83.1503 32.206 82.7423 32.206C82.3343 32.206 81.9023 32.206 81.4463 32.206V33.376C81.4463 33.82 81.4403 34.186 81.4283 34.474C81.4163 34.762 81.4103 35.122 81.4103 35.554V35.59C81.8303 35.566 82.2203 35.542 82.5803 35.518C82.9403 35.494 83.3783 35.482 83.8943 35.482H90.9323ZM92.9238 38.506C92.9238 38.05 93.0138 37.546 93.1938 36.994C93.3738 36.43 93.6198 35.908 93.9318 35.428C94.2438 34.948 94.5858 34.588 94.9578 34.348C95.8458 34.828 96.8358 35.242 97.9278 35.59C99.0198 35.926 100.088 36.094 101.132 36.094C101.804 36.094 102.356 35.956 102.788 35.68C103.232 35.404 103.454 35.014 103.454 34.51C103.454 34.186 103.328 33.892 103.076 33.628C102.824 33.352 102.386 33.1 101.762 32.872L98.7738 31.702C97.8498 31.366 96.9858 30.946 96.1818 30.442C95.3778 29.938 94.7298 29.32 94.2378 28.588C93.7458 27.856 93.4998 26.98 93.4998 25.96C93.4998 24.088 94.2198 22.564 95.6598 21.388C97.0998 20.212 99.0378 19.624 101.474 19.624C102.854 19.624 104.222 19.786 105.578 20.11C106.946 20.422 108.092 20.782 109.016 21.19C109.016 22.006 108.848 22.81 108.512 23.602C108.176 24.394 107.714 25.018 107.126 25.474C106.238 25.078 105.272 24.748 104.228 24.484C103.184 24.208 102.242 24.07 101.402 24.07C100.778 24.07 100.298 24.202 99.9618 24.466C99.6378 24.73 99.4758 25.048 99.4758 25.42C99.4758 25.768 99.6378 26.032 99.9618 26.212C100.286 26.392 100.688 26.572 101.168 26.752L104.138 27.886C105.794 28.486 107.108 29.314 108.08 30.37C109.064 31.414 109.556 32.704 109.556 34.24C109.556 35.596 109.19 36.742 108.458 37.678C107.738 38.614 106.748 39.322 105.488 39.802C104.24 40.282 102.83 40.528 101.258 40.54C99.3858 40.54 97.7178 40.324 96.2538 39.892C94.8018 39.46 93.6918 38.998 92.9238 38.506ZM130.305 32.566C130.305 35.05 129.561 37 128.073 38.416C126.597 39.832 124.407 40.54 121.503 40.54C118.599 40.54 116.403 39.832 114.915 38.416C113.439 37 112.701 35.05 112.701 32.566V20.164L112.917 19.948H114.969C116.061 19.948 116.901 20.224 117.489 20.776C118.089 21.328 118.389 22.258 118.389 23.566V32.548C118.389 33.64 118.617 34.498 119.073 35.122C119.529 35.746 120.339 36.058 121.503 36.058C122.679 36.058 123.489 35.746 123.933 35.122C124.377 34.498 124.599 33.64 124.599 32.548V20.164C125.079 20.068 125.571 20.008 126.075 19.984C126.579 19.96 127.017 19.948 127.389 19.948C127.725 19.948 128.181 19.966 128.757 20.002C129.333 20.026 129.849 20.086 130.305 20.182V32.566ZM136.118 20.164C136.694 20.056 137.324 19.984 138.008 19.948C138.692 19.9 139.268 19.876 139.736 19.876C140.18 19.876 140.756 19.9 141.464 19.948C142.172 19.984 142.766 20.056 143.246 20.164L145.01 27.976C145.118 28.444 145.244 29.08 145.388 29.884C145.532 30.676 145.676 31.528 145.82 32.44H146.054C146.342 30.52 146.612 29.032 146.864 27.976L148.61 20.164C149.174 20.056 149.792 19.984 150.464 19.948C151.136 19.9 151.694 19.876 152.138 19.876C152.606 19.876 153.188 19.9 153.884 19.948C154.58 19.984 155.204 20.056 155.756 20.164L157.79 39.928C157.01 40.12 156.068 40.216 154.964 40.216C154.544 40.216 154.094 40.198 153.614 40.162C153.146 40.126 152.726 40.072 152.354 40L151.832 33.628C151.772 32.812 151.736 31.918 151.724 30.946C151.712 29.974 151.712 29.026 151.724 28.102C151.736 27.166 151.736 26.356 151.724 25.672H151.508L148.862 36.958C148.454 37.03 147.956 37.084 147.368 37.12C146.78 37.144 146.294 37.156 145.91 37.156C145.514 37.156 145.022 37.144 144.434 37.12C143.858 37.084 143.378 37.03 142.994 36.958L140.366 25.672H140.114C140.114 26.368 140.114 27.178 140.114 28.102C140.126 29.026 140.126 29.974 140.114 30.946C140.102 31.918 140.06 32.824 139.988 33.664L139.52 40C139.136 40.072 138.716 40.126 138.26 40.162C137.816 40.198 137.384 40.216 136.964 40.216C135.848 40.216 134.888 40.12 134.084 39.928L136.118 20.164ZM177.311 35.482C177.311 37.198 177.041 38.392 176.501 39.064C175.973 39.736 175.073 40.072 173.801 40.072H165.503C164.483 40.072 163.679 39.784 163.091 39.208C162.503 38.62 162.209 37.834 162.209 36.85V20.362L162.407 20.164H176.645C176.729 20.572 176.777 20.962 176.789 21.334C176.801 21.706 176.807 22.06 176.807 22.396C176.807 22.72 176.771 23.086 176.699 23.494C176.639 23.902 176.531 24.316 176.375 24.736H170.075C169.571 24.736 168.809 24.73 167.789 24.718C167.801 25.09 167.807 25.408 167.807 25.672C167.819 25.936 167.825 26.254 167.825 26.626V27.814C168.821 27.802 169.571 27.796 170.075 27.796H174.683C174.803 28.12 174.881 28.492 174.917 28.912C174.965 29.32 174.989 29.668 174.989 29.956C174.989 30.292 174.965 30.67 174.917 31.09C174.881 31.498 174.803 31.87 174.683 32.206H170.075C169.847 32.206 169.529 32.206 169.121 32.206C168.713 32.206 168.281 32.206 167.825 32.206V33.376C167.825 33.82 167.819 34.186 167.807 34.474C167.795 34.762 167.789 35.122 167.789 35.554V35.59C168.209 35.566 168.599 35.542 168.959 35.518C169.319 35.494 169.757 35.482 170.273 35.482H177.311ZM188.213 30.946C188.129 30.754 187.997 30.454 187.817 30.046C187.637 29.626 187.445 29.176 187.241 28.696C187.037 28.216 186.845 27.766 186.665 27.346C186.497 26.926 186.365 26.62 186.269 26.428L186.143 26.482C186.191 27.43 186.239 28.456 186.287 29.56C186.335 30.652 186.371 31.654 186.395 32.566C186.431 33.466 186.449 34.12 186.449 34.528V40C185.981 40.084 185.531 40.138 185.099 40.162C184.667 40.198 184.265 40.216 183.893 40.216C183.557 40.216 183.137 40.198 182.633 40.162C182.141 40.138 181.673 40.084 181.229 40V20.29C181.673 20.182 182.225 20.098 182.885 20.038C183.545 19.978 184.055 19.948 184.415 19.948C184.787 19.948 185.315 19.96 185.999 19.984C186.683 19.996 187.247 20.056 187.691 20.164L191.921 29.182C192.005 29.35 192.143 29.656 192.335 30.1C192.539 30.544 192.755 31.03 192.983 31.558C193.211 32.086 193.421 32.584 193.613 33.052C193.817 33.508 193.967 33.844 194.063 34.06L194.225 34.024C194.177 33.232 194.111 32.308 194.027 31.252C193.955 30.196 193.889 29.176 193.829 28.192C193.769 27.208 193.739 26.422 193.739 25.834V23.026C193.739 21.754 194.015 20.92 194.567 20.524C195.119 20.116 195.941 19.912 197.033 19.912H198.887L199.103 20.164V39.892C198.635 40 198.071 40.078 197.411 40.126C196.751 40.186 196.247 40.216 195.899 40.216C195.659 40.216 195.329 40.21 194.909 40.198C194.489 40.186 194.057 40.168 193.613 40.144C193.181 40.12 192.821 40.072 192.533 40L188.213 30.946ZM30.7323 67.764C30.7323 69.648 30.3483 71.226 29.5803 72.498C28.8243 73.758 27.7803 74.706 26.4483 75.342C25.1283 75.978 23.6163 76.296 21.9123 76.296H19.0863V84C18.6063 84.084 18.0963 84.138 17.5563 84.162C17.0283 84.198 16.5723 84.216 16.1883 84.216C15.8403 84.216 15.3903 84.198 14.8383 84.162C14.2863 84.138 13.7763 84.084 13.3083 84V59.592L13.5603 59.34C15.0963 59.304 16.5303 59.274 17.8623 59.25C19.2063 59.214 20.5563 59.196 21.9123 59.196C23.6163 59.196 25.1283 59.508 26.4483 60.132C27.7803 60.744 28.8243 61.686 29.5803 62.958C30.3483 64.218 30.7323 65.82 30.7323 67.764ZM19.0863 63.588V71.976C19.5903 71.964 20.0583 71.952 20.4903 71.94C20.9343 71.928 21.2463 71.922 21.4263 71.922C22.3863 71.922 23.1123 71.694 23.6043 71.238C24.0963 70.782 24.4263 70.236 24.5943 69.6C24.7623 68.952 24.8463 68.34 24.8463 67.764C24.8463 67.2 24.7623 66.6 24.5943 65.964C24.4263 65.316 24.0963 64.764 23.6043 64.308C23.1123 63.852 22.3863 63.624 21.4263 63.624C21.0663 63.624 20.7063 63.624 20.3463 63.624C19.9863 63.612 19.5663 63.6 19.0863 63.588ZM37.048 80.526C36.856 80.526 36.67 80.526 36.49 80.526C36.31 80.514 36.13 80.502 35.95 80.49L34.834 84C34.486 84.084 34.108 84.144 33.7 84.18C33.292 84.228 32.866 84.252 32.422 84.252C31.942 84.252 31.456 84.216 30.964 84.144C30.484 84.072 30.088 83.97 29.776 83.838L29.578 83.532L36.58 64.164C37.204 64.068 37.804 64.008 38.38 63.984C38.968 63.96 39.502 63.948 39.982 63.948C40.426 63.948 40.906 63.96 41.422 63.984C41.938 64.008 42.52 64.068 43.168 64.164L49.972 83.73C49.552 83.922 49.018 84.066 48.37 84.162C47.722 84.27 47.2 84.324 46.804 84.324C46.144 84.324 45.508 84.198 44.896 83.946C44.284 83.694 43.822 83.028 43.51 81.948L43.06 80.49C42.868 80.502 42.682 80.514 42.502 80.526C42.322 80.526 42.13 80.526 41.926 80.526H37.048ZM37.768 74.838L37.372 76.08C37.552 76.068 37.732 76.062 37.912 76.062C38.092 76.05 38.278 76.044 38.47 76.044H40.72C40.9 76.044 41.062 76.05 41.206 76.062C41.362 76.062 41.518 76.068 41.674 76.08L41.296 74.856C41.02 73.908 40.744 72.852 40.468 71.688C40.192 70.524 39.94 69.468 39.712 68.52H39.496C39.244 69.432 38.962 70.476 38.65 71.652C38.35 72.828 38.056 73.89 37.768 74.838ZM68.879 70.194C68.879 71.118 68.669 71.94 68.249 72.66C67.829 73.38 67.301 73.974 66.665 74.442C66.041 74.91 65.417 75.21 64.793 75.342C65.441 75.558 65.975 75.888 66.395 76.332C66.827 76.776 67.199 77.346 67.511 78.042L68.447 80.184C68.663 80.676 68.909 81.132 69.185 81.552C69.461 81.96 69.767 82.308 70.103 82.596C69.755 83.028 69.233 83.43 68.537 83.802C67.841 84.162 67.085 84.342 66.269 84.342C65.465 84.342 64.811 84.15 64.307 83.766C63.815 83.37 63.383 82.74 63.011 81.876L61.427 78.24C61.175 77.652 60.863 77.298 60.491 77.178C60.119 77.058 59.639 76.998 59.051 76.998H58.349V84C57.869 84.084 57.371 84.138 56.855 84.162C56.351 84.198 55.919 84.216 55.559 84.216C55.223 84.216 54.779 84.198 54.227 84.162C53.675 84.138 53.171 84.084 52.715 84V64.344L52.913 64.128C54.365 64.092 55.727 64.062 56.999 64.038C58.283 64.002 59.561 63.984 60.833 63.984C62.273 63.984 63.605 64.176 64.829 64.56C66.053 64.932 67.031 65.574 67.763 66.486C68.507 67.386 68.879 68.622 68.879 70.194ZM58.349 68.052V72.714C58.769 72.702 59.153 72.696 59.501 72.696C59.861 72.684 60.125 72.678 60.293 72.678C61.373 72.678 62.105 72.444 62.489 71.976C62.873 71.508 63.065 70.962 63.065 70.338C63.065 69.726 62.873 69.198 62.489 68.754C62.105 68.31 61.463 68.088 60.563 68.088C60.131 68.088 59.759 68.082 59.447 68.07C59.135 68.058 58.769 68.052 58.349 68.052ZM76.2351 70.914C76.2351 70.53 76.2411 70.176 76.2531 69.852C76.2651 69.516 76.2711 69.144 76.2711 68.736C76.0191 68.736 75.6711 68.742 75.2271 68.754C74.7951 68.766 74.4531 68.772 74.2011 68.772H70.8711C70.7751 68.34 70.7151 67.938 70.6911 67.566C70.6671 67.182 70.6551 66.834 70.6551 66.522C70.6551 66.21 70.6671 65.844 70.6911 65.424C70.7151 64.992 70.7751 64.572 70.8711 64.164H87.1611C87.2451 64.488 87.3051 64.854 87.3411 65.262C87.3891 65.67 87.4131 66 87.4131 66.252C87.4131 67.068 87.1971 67.692 86.7651 68.124C86.3331 68.556 85.6131 68.772 84.6051 68.772H83.8671C83.6151 68.772 83.2791 68.766 82.8591 68.754C82.4511 68.742 82.1331 68.736 81.9051 68.736C81.9051 69.144 81.9111 69.516 81.9231 69.852C81.9351 70.176 81.9411 70.53 81.9411 70.914V84C81.6051 84.072 81.1431 84.126 80.5551 84.162C79.9671 84.198 79.4751 84.216 79.0791 84.216C78.7071 84.216 78.2391 84.198 77.6751 84.162C77.1111 84.126 76.6311 84.072 76.2351 84V70.914ZM89.912 64.164C90.368 64.068 90.884 64.008 91.46 63.984C92.036 63.96 92.492 63.948 92.828 63.948C93.188 63.948 93.62 63.96 94.124 63.984C94.64 64.008 95.138 64.068 95.618 64.164V84C95.138 84.084 94.64 84.138 94.124 84.162C93.62 84.198 93.188 84.216 92.828 84.216C92.492 84.216 92.036 84.198 91.46 84.162C90.884 84.138 90.368 84.084 89.912 84V64.164ZM111.824 73.146C111.824 71.622 111.62 70.398 111.212 69.474C110.804 68.538 109.982 68.07 108.746 68.07C107.462 68.07 106.55 68.598 106.01 69.654C105.47 70.71 105.2 72.228 105.2 74.208C105.2 75.72 105.392 76.884 105.776 77.7C106.172 78.504 106.676 79.062 107.288 79.374C107.9 79.686 108.548 79.842 109.232 79.842C110.12 79.842 111.008 79.65 111.896 79.266C112.796 78.87 113.6 78.408 114.308 77.88C114.692 78.072 115.064 78.378 115.424 78.798C115.784 79.218 116.096 79.668 116.36 80.148C116.624 80.628 116.792 81.066 116.864 81.462C115.868 82.314 114.656 83.04 113.228 83.64C111.812 84.24 110.198 84.54 108.386 84.54C106.646 84.54 105.194 84.234 104.03 83.622C102.878 83.01 101.96 82.206 101.276 81.21C100.592 80.202 100.106 79.086 99.818 77.862C99.53 76.638 99.386 75.408 99.386 74.172C99.386 71.712 99.83 69.708 100.718 68.16C101.618 66.6 102.794 65.454 104.246 64.722C105.71 63.99 107.276 63.624 108.944 63.624C110.816 63.624 112.358 63.954 113.57 64.614C114.782 65.274 115.682 66.108 116.27 67.116C116.858 68.124 117.152 69.162 117.152 70.23C117.152 72.282 116 73.308 113.696 73.308C113.42 73.308 113.12 73.29 112.796 73.254C112.472 73.218 112.148 73.182 111.824 73.146ZM120.709 64.164C121.165 64.068 121.681 64.008 122.257 63.984C122.833 63.96 123.289 63.948 123.625 63.948C123.985 63.948 124.417 63.96 124.921 63.984C125.437 64.008 125.935 64.068 126.415 64.164V84C125.935 84.084 125.437 84.138 124.921 84.162C124.417 84.198 123.985 84.216 123.625 84.216C123.289 84.216 122.833 84.198 122.257 84.162C121.681 84.138 121.165 84.084 120.709 84V64.164ZM147.409 70.968C147.409 72.528 147.055 73.824 146.347 74.856C145.651 75.876 144.691 76.638 143.467 77.142C142.243 77.634 140.851 77.88 139.291 77.88H137.329V84C136.849 84.084 136.357 84.138 135.853 84.162C135.349 84.198 134.917 84.216 134.557 84.216C134.221 84.216 133.765 84.198 133.189 84.162C132.613 84.138 132.097 84.084 131.641 84V64.344L131.839 64.128C132.811 64.104 133.981 64.074 135.349 64.038C136.717 64.002 138.031 63.984 139.291 63.984C140.863 63.984 142.261 64.224 143.485 64.704C144.709 65.184 145.669 65.94 146.365 66.972C147.061 68.004 147.409 69.336 147.409 70.968ZM137.329 68.196V73.704C137.653 73.692 137.947 73.686 138.211 73.686C138.475 73.674 138.673 73.668 138.805 73.668C139.597 73.668 140.191 73.524 140.587 73.236C140.995 72.936 141.265 72.576 141.397 72.156C141.529 71.724 141.595 71.316 141.595 70.932C141.595 70.572 141.529 70.182 141.397 69.762C141.265 69.342 140.995 68.982 140.587 68.682C140.191 68.382 139.597 68.232 138.805 68.232C138.505 68.232 138.289 68.232 138.157 68.232C138.025 68.22 137.749 68.208 137.329 68.196ZM154.118 80.526C153.926 80.526 153.74 80.526 153.56 80.526C153.38 80.514 153.2 80.502 153.02 80.49L151.904 84C151.556 84.084 151.178 84.144 150.77 84.18C150.362 84.228 149.936 84.252 149.492 84.252C149.012 84.252 148.526 84.216 148.034 84.144C147.554 84.072 147.158 83.97 146.846 83.838L146.648 83.532L153.65 64.164C154.274 64.068 154.874 64.008 155.45 63.984C156.038 63.96 156.572 63.948 157.052 63.948C157.496 63.948 157.976 63.96 158.492 63.984C159.008 64.008 159.59 64.068 160.238 64.164L167.042 83.73C166.622 83.922 166.088 84.066 165.44 84.162C164.792 84.27 164.27 84.324 163.874 84.324C163.214 84.324 162.578 84.198 161.966 83.946C161.354 83.694 160.892 83.028 160.58 81.948L160.13 80.49C159.938 80.502 159.752 80.514 159.572 80.526C159.392 80.526 159.2 80.526 158.996 80.526H154.118ZM154.838 74.838L154.442 76.08C154.622 76.068 154.802 76.062 154.982 76.062C155.162 76.05 155.348 76.044 155.54 76.044H157.79C157.97 76.044 158.132 76.05 158.276 76.062C158.432 76.062 158.588 76.068 158.744 76.08L158.366 74.856C158.09 73.908 157.814 72.852 157.538 71.688C157.262 70.524 157.01 69.468 156.782 68.52H156.566C156.314 69.432 156.032 70.476 155.72 71.652C155.42 72.828 155.126 73.89 154.838 74.838ZM180.308 73.146C180.308 71.622 180.104 70.398 179.696 69.474C179.288 68.538 178.466 68.07 177.23 68.07C175.946 68.07 175.034 68.598 174.494 69.654C173.954 70.71 173.684 72.228 173.684 74.208C173.684 75.72 173.876 76.884 174.26 77.7C174.656 78.504 175.16 79.062 175.772 79.374C176.384 79.686 177.032 79.842 177.716 79.842C178.604 79.842 179.492 79.65 180.38 79.266C181.28 78.87 182.084 78.408 182.792 77.88C183.176 78.072 183.548 78.378 183.908 78.798C184.268 79.218 184.58 79.668 184.844 80.148C185.108 80.628 185.276 81.066 185.348 81.462C184.352 82.314 183.14 83.04 181.712 83.64C180.296 84.24 178.682 84.54 176.87 84.54C175.13 84.54 173.678 84.234 172.514 83.622C171.362 83.01 170.444 82.206 169.76 81.21C169.076 80.202 168.59 79.086 168.302 77.862C168.014 76.638 167.87 75.408 167.87 74.172C167.87 71.712 168.314 69.708 169.202 68.16C170.102 66.6 171.278 65.454 172.73 64.722C174.194 63.99 175.76 63.624 177.428 63.624C179.3 63.624 180.842 63.954 182.054 64.614C183.266 65.274 184.166 66.108 184.754 67.116C185.342 68.124 185.636 69.162 185.636 70.23C185.636 72.282 184.484 73.308 182.18 73.308C181.904 73.308 181.604 73.29 181.28 73.254C180.956 73.218 180.632 73.182 180.308 73.146ZM189.193 64.164C189.649 64.068 190.165 64.008 190.741 63.984C191.317 63.96 191.773 63.948 192.109 63.948C192.469 63.948 192.901 63.96 193.405 63.984C193.921 64.008 194.419 64.068 194.899 64.164V84C194.419 84.084 193.921 84.138 193.405 84.162C192.901 84.198 192.469 84.216 192.109 84.216C191.773 84.216 191.317 84.198 190.741 84.162C190.165 84.138 189.649 84.084 189.193 84V64.164ZM198.667 74.118C198.667 70.902 199.495 68.352 201.151 66.468C202.819 64.572 205.249 63.624 208.441 63.624C211.681 63.624 214.123 64.566 215.767 66.45C217.423 68.322 218.251 70.878 218.251 74.118C218.251 77.358 217.423 79.908 215.767 81.768C214.111 83.616 211.669 84.54 208.441 84.54C205.201 84.54 202.759 83.604 201.115 81.732C199.483 79.86 198.667 77.322 198.667 74.118ZM204.481 74.118C204.481 74.802 204.523 75.51 204.607 76.242C204.703 76.962 204.883 77.634 205.147 78.258C205.423 78.882 205.825 79.392 206.353 79.788C206.881 80.172 207.583 80.364 208.459 80.364C209.335 80.364 210.037 80.172 210.565 79.788C211.093 79.392 211.489 78.882 211.753 78.258C212.029 77.634 212.209 76.962 212.293 76.242C212.389 75.51 212.437 74.802 212.437 74.118C212.437 73.422 212.389 72.708 212.293 71.976C212.209 71.232 212.029 70.548 211.753 69.924C211.489 69.288 211.093 68.778 210.565 68.394C210.037 67.998 209.335 67.8 208.459 67.8C207.583 67.8 206.881 67.998 206.353 68.394C205.825 68.778 205.423 69.288 205.147 69.924C204.883 70.548 204.703 71.232 204.607 71.976C204.523 72.708 204.481 73.422 204.481 74.118ZM210.673 54.426C211.333 54.63 212.005 55.044 212.689 55.668C213.385 56.28 213.841 56.946 214.057 57.666L207.397 62.67C206.929 62.526 206.473 62.256 206.029 61.86C205.585 61.464 205.267 61.008 205.075 60.492L210.673 54.426ZM228.941 74.946C228.857 74.754 228.725 74.454 228.545 74.046C228.365 73.626 228.173 73.176 227.969 72.696C227.765 72.216 227.573 71.766 227.393 71.346C227.225 70.926 227.093 70.62 226.997 70.428L226.871 70.482C226.919 71.43 226.967 72.456 227.015 73.56C227.063 74.652 227.099 75.654 227.123 76.566C227.159 77.466 227.177 78.12 227.177 78.528V84C226.709 84.084 226.259 84.138 225.827 84.162C225.395 84.198 224.993 84.216 224.621 84.216C224.285 84.216 223.865 84.198 223.361 84.162C222.869 84.138 222.401 84.084 221.957 84V64.29C222.401 64.182 222.953 64.098 223.613 64.038C224.273 63.978 224.783 63.948 225.143 63.948C225.515 63.948 226.043 63.96 226.727 63.984C227.411 63.996 227.975 64.056 228.419 64.164L232.649 73.182C232.733 73.35 232.871 73.656 233.063 74.1C233.267 74.544 233.483 75.03 233.711 75.558C233.939 76.086 234.149 76.584 234.341 77.052C234.545 77.508 234.695 77.844 234.791 78.06L234.953 78.024C234.905 77.232 234.839 76.308 234.755 75.252C234.683 74.196 234.617 73.176 234.557 72.192C234.497 71.208 234.467 70.422 234.467 69.834V67.026C234.467 65.754 234.743 64.92 235.295 64.524C235.847 64.116 236.669 63.912 237.761 63.912H239.615L239.831 64.164V83.892C239.363 84 238.799 84.078 238.139 84.126C237.479 84.186 236.975 84.216 236.627 84.216C236.387 84.216 236.057 84.21 235.637 84.198C235.217 84.186 234.785 84.168 234.341 84.144C233.909 84.12 233.549 84.072 233.261 84L228.941 74.946Z" fill="#364760"/>
</svg>
