<svg width="579" height="41" viewBox="0 0 579 41" fill="none" xmlns="http://www.w3.org/2000/svg">
<path d="M23.5508 17.368C23.5508 18.904 23.2548 20.272 22.6628 21.472C22.0708 22.656 21.3268 23.648 20.4308 24.448C19.5348 25.232 18.6308 25.8 17.7188 26.152C18.6148 26.472 19.3588 27.024 19.9508 27.808C20.5588 28.592 21.0468 29.512 21.4148 30.568L22.8548 34.624C23.3988 36.176 24.1908 37.36 25.2308 38.176C24.7348 38.816 24.0148 39.352 23.0708 39.784C22.1268 40.216 21.1428 40.432 20.1188 40.432C18.7428 40.432 17.7428 40.064 17.1188 39.328C16.4948 38.576 15.9268 37.464 15.4148 35.992L13.6868 30.976C13.4148 30.144 12.9908 29.44 12.4148 28.864C11.8388 28.272 10.9108 27.976 9.63081 27.976H7.63881V40C6.99881 40.112 6.33481 40.184 5.64681 40.216C4.95881 40.264 4.35081 40.288 3.82281 40.288C3.35881 40.288 2.76681 40.264 2.04681 40.216C1.32681 40.184 0.654813 40.112 0.0308127 40V7.456L0.366813 7.12C2.41481 7.072 4.38281 7.032 6.27081 7C8.17481 6.952 10.0388 6.928 11.8628 6.928C14.0868 6.928 16.0788 7.296 17.8388 8.032C19.6148 8.768 21.0068 9.904 22.0148 11.44C23.0388 12.976 23.5508 14.952 23.5508 17.368ZM7.63881 12.688V22.096C8.39081 22.064 9.09481 22.04 9.75081 22.024C10.4228 22.008 10.9108 22 11.2148 22C12.4308 22 13.3588 21.784 13.9988 21.352C14.6548 20.904 15.1028 20.328 15.3428 19.624C15.5988 18.92 15.7268 18.168 15.7268 17.368C15.7268 16.536 15.5988 15.768 15.3428 15.064C15.1028 14.36 14.6548 13.8 13.9988 13.384C13.3588 12.952 12.4308 12.736 11.2148 12.736C10.7188 12.736 10.1668 12.736 9.55881 12.736C8.96681 12.736 8.32681 12.72 7.63881 12.688ZM49.2248 33.976C49.2248 36.264 48.8648 37.856 48.1448 38.752C47.4408 39.648 46.2408 40.096 44.5448 40.096H33.4808C32.1208 40.096 31.0488 39.712 30.2648 38.944C29.4808 38.16 29.0888 37.112 29.0888 35.8V13.816L29.3528 13.552H48.3368C48.4488 14.096 48.5128 14.616 48.5288 15.112C48.5448 15.608 48.5528 16.08 48.5528 16.528C48.5528 16.96 48.5048 17.448 48.4088 17.992C48.3288 18.536 48.1848 19.088 47.9768 19.648H39.5768C38.9048 19.648 37.8888 19.64 36.5288 19.624C36.5448 20.12 36.5528 20.544 36.5528 20.896C36.5688 21.248 36.5768 21.672 36.5768 22.168V23.752C37.9048 23.736 38.9048 23.728 39.5768 23.728H45.7208C45.8808 24.16 45.9848 24.656 46.0328 25.216C46.0968 25.76 46.1288 26.224 46.1288 26.608C46.1288 27.056 46.0968 27.56 46.0328 28.12C45.9848 28.664 45.8808 29.16 45.7208 29.608H39.5768C39.2728 29.608 38.8488 29.608 38.3048 29.608C37.7608 29.608 37.1848 29.608 36.5768 29.608V31.168C36.5768 31.76 36.5688 32.248 36.5528 32.632C36.5368 33.016 36.5288 33.496 36.5288 34.072V34.12C37.0888 34.088 37.6088 34.056 38.0888 34.024C38.5688 33.992 39.1528 33.976 39.8408 33.976H49.2248ZM51.8802 38.008C51.8802 37.4 52.0002 36.728 52.2402 35.992C52.4802 35.24 52.8082 34.544 53.2242 33.904C53.6402 33.264 54.0962 32.784 54.5922 32.464C55.7762 33.104 57.0962 33.656 58.5522 34.12C60.0082 34.568 61.4322 34.792 62.8242 34.792C63.7202 34.792 64.4562 34.608 65.0322 34.24C65.6242 33.872 65.9202 33.352 65.9202 32.68C65.9202 32.248 65.7522 31.856 65.4162 31.504C65.0802 31.136 64.4962 30.8 63.6642 30.496L59.6802 28.936C58.4482 28.488 57.2962 27.928 56.2242 27.256C55.1522 26.584 54.2882 25.76 53.6322 24.784C52.9762 23.808 52.6482 22.64 52.6482 21.28C52.6482 18.784 53.6082 16.752 55.5282 15.184C57.4482 13.616 60.0322 12.832 63.2802 12.832C65.1202 12.832 66.9442 13.048 68.7522 13.48C70.5762 13.896 72.1042 14.376 73.3362 14.92C73.3362 16.008 73.1122 17.08 72.6642 18.136C72.2162 19.192 71.6002 20.024 70.8162 20.632C69.6322 20.104 68.3442 19.664 66.9522 19.312C65.5602 18.944 64.3042 18.76 63.1842 18.76C62.3522 18.76 61.7122 18.936 61.2642 19.288C60.8322 19.64 60.6162 20.064 60.6162 20.56C60.6162 21.024 60.8322 21.376 61.2642 21.616C61.6962 21.856 62.2322 22.096 62.8722 22.336L66.8322 23.848C69.0402 24.648 70.7922 25.752 72.0882 27.16C73.4002 28.552 74.0562 30.272 74.0562 32.32C74.0562 34.128 73.5682 35.656 72.5922 36.904C71.6322 38.152 70.3122 39.096 68.6322 39.736C66.9682 40.376 65.0882 40.704 62.9922 40.72C60.4962 40.72 58.2722 40.432 56.3202 39.856C54.3842 39.28 52.9042 38.664 51.8802 38.008ZM101.721 30.088C101.721 33.4 100.729 36 98.7454 37.888C96.7774 39.776 93.8574 40.72 89.9854 40.72C86.1134 40.72 83.1854 39.776 81.2014 37.888C79.2334 36 78.2494 33.4 78.2494 30.088V13.552L78.5374 13.264H81.2734C82.7294 13.264 83.8494 13.632 84.6334 14.368C85.4334 15.104 85.8334 16.344 85.8334 18.088V30.064C85.8334 31.52 86.1374 32.664 86.7454 33.496C87.3534 34.328 88.4334 34.744 89.9854 34.744C91.5534 34.744 92.6334 34.328 93.2254 33.496C93.8174 32.664 94.1134 31.52 94.1134 30.064V13.552C94.7534 13.424 95.4094 13.344 96.0814 13.312C96.7534 13.28 97.3374 13.264 97.8334 13.264C98.2814 13.264 98.8894 13.288 99.6574 13.336C100.425 13.368 101.113 13.448 101.721 13.576V30.088ZM109.472 13.552C110.24 13.408 111.08 13.312 111.992 13.264C112.904 13.2 113.672 13.168 114.296 13.168C114.888 13.168 115.656 13.2 116.6 13.264C117.544 13.312 118.336 13.408 118.976 13.552L121.328 23.968C121.472 24.592 121.64 25.44 121.832 26.512C122.024 27.568 122.216 28.704 122.408 29.92H122.72C123.104 27.36 123.464 25.376 123.8 23.968L126.128 13.552C126.88 13.408 127.704 13.312 128.6 13.264C129.496 13.2 130.24 13.168 130.832 13.168C131.456 13.168 132.232 13.2 133.16 13.264C134.088 13.312 134.92 13.408 135.656 13.552L138.368 39.904C137.328 40.16 136.072 40.288 134.6 40.288C134.04 40.288 133.44 40.264 132.8 40.216C132.176 40.168 131.616 40.096 131.12 40L130.424 31.504C130.344 30.416 130.296 29.224 130.28 27.928C130.264 26.632 130.264 25.368 130.28 24.136C130.296 22.888 130.296 21.808 130.28 20.896H129.992L126.464 35.944C125.92 36.04 125.256 36.112 124.472 36.16C123.688 36.192 123.04 36.208 122.528 36.208C122 36.208 121.344 36.192 120.56 36.16C119.792 36.112 119.152 36.04 118.64 35.944L115.136 20.896H114.8C114.8 21.824 114.8 22.904 114.8 24.136C114.816 25.368 114.816 26.632 114.8 27.928C114.784 29.224 114.728 30.432 114.632 31.552L114.008 40C113.496 40.096 112.936 40.168 112.328 40.216C111.736 40.264 111.16 40.288 110.6 40.288C109.112 40.288 107.832 40.16 106.76 39.904L109.472 13.552ZM164.397 33.976C164.397 36.264 164.037 37.856 163.317 38.752C162.613 39.648 161.413 40.096 159.717 40.096H148.653C147.293 40.096 146.221 39.712 145.437 38.944C144.653 38.16 144.261 37.112 144.261 35.8V13.816L144.525 13.552H163.509C163.621 14.096 163.685 14.616 163.701 15.112C163.717 15.608 163.725 16.08 163.725 16.528C163.725 16.96 163.677 17.448 163.581 17.992C163.501 18.536 163.357 19.088 163.149 19.648H154.749C154.077 19.648 153.061 19.64 151.701 19.624C151.717 20.12 151.725 20.544 151.725 20.896C151.741 21.248 151.749 21.672 151.749 22.168V23.752C153.077 23.736 154.077 23.728 154.749 23.728H160.893C161.053 24.16 161.157 24.656 161.205 25.216C161.269 25.76 161.301 26.224 161.301 26.608C161.301 27.056 161.269 27.56 161.205 28.12C161.157 28.664 161.053 29.16 160.893 29.608H154.749C154.445 29.608 154.021 29.608 153.477 29.608C152.933 29.608 152.357 29.608 151.749 29.608V31.168C151.749 31.76 151.741 32.248 151.725 32.632C151.709 33.016 151.701 33.496 151.701 34.072V34.12C152.261 34.088 152.781 34.056 153.261 34.024C153.741 33.992 154.325 33.976 155.013 33.976H164.397ZM178.932 27.928C178.82 27.672 178.644 27.272 178.404 26.728C178.164 26.168 177.908 25.568 177.636 24.928C177.364 24.288 177.108 23.688 176.868 23.128C176.644 22.568 176.468 22.16 176.34 21.904L176.172 21.976C176.236 23.24 176.3 24.608 176.364 26.08C176.428 27.536 176.476 28.872 176.508 30.088C176.556 31.288 176.58 32.16 176.58 32.704V40C175.956 40.112 175.356 40.184 174.78 40.216C174.204 40.264 173.668 40.288 173.172 40.288C172.724 40.288 172.164 40.264 171.492 40.216C170.836 40.184 170.212 40.112 169.62 40V13.72C170.212 13.576 170.948 13.464 171.828 13.384C172.708 13.304 173.388 13.264 173.868 13.264C174.364 13.264 175.068 13.28 175.98 13.312C176.892 13.328 177.644 13.408 178.236 13.552L183.876 25.576C183.988 25.8 184.172 26.208 184.428 26.8C184.7 27.392 184.988 28.04 185.292 28.744C185.596 29.448 185.876 30.112 186.132 30.736C186.404 31.344 186.604 31.792 186.732 32.08L186.948 32.032C186.884 30.976 186.796 29.744 186.684 28.336C186.588 26.928 186.5 25.568 186.42 24.256C186.34 22.944 186.3 21.896 186.3 21.112V17.368C186.3 15.672 186.668 14.56 187.404 14.032C188.14 13.488 189.236 13.216 190.692 13.216H193.164L193.452 13.552V39.856C192.828 40 192.076 40.104 191.196 40.168C190.316 40.248 189.644 40.288 189.18 40.288C188.86 40.288 188.42 40.28 187.86 40.264C187.3 40.248 186.724 40.224 186.132 40.192C185.556 40.16 185.076 40.096 184.692 40L178.932 27.928ZM235.037 26.824C235.037 31.304 233.989 34.656 231.893 36.88C229.797 39.088 226.493 40.192 221.981 40.192C220.077 40.192 218.269 40.176 216.557 40.144C214.861 40.128 213.069 40.096 211.181 40.048L210.917 39.76V13.792L211.181 13.504C213.085 13.456 214.885 13.416 216.581 13.384C218.277 13.336 220.077 13.312 221.981 13.312C226.445 13.312 229.733 14.472 231.845 16.792C233.973 19.096 235.037 22.44 235.037 26.824ZM227.309 26.824C227.309 25.656 227.189 24.488 226.949 23.32C226.709 22.136 226.205 21.144 225.437 20.344C224.669 19.544 223.517 19.144 221.981 19.144C221.277 19.144 220.669 19.144 220.157 19.144C219.661 19.128 219.085 19.112 218.429 19.096V34.456C219.117 34.456 219.701 34.448 220.181 34.432C220.677 34.416 221.277 34.408 221.981 34.408C223.517 34.408 224.669 34.016 225.437 33.232C226.205 32.432 226.709 31.448 226.949 30.28C227.189 29.112 227.309 27.96 227.309 26.824ZM260.162 33.976C260.162 36.264 259.802 37.856 259.082 38.752C258.378 39.648 257.178 40.096 255.482 40.096H244.418C243.058 40.096 241.986 39.712 241.202 38.944C240.418 38.16 240.026 37.112 240.026 35.8V13.816L240.29 13.552H259.274C259.386 14.096 259.45 14.616 259.466 15.112C259.482 15.608 259.49 16.08 259.49 16.528C259.49 16.96 259.442 17.448 259.346 17.992C259.266 18.536 259.122 19.088 258.914 19.648H250.514C249.842 19.648 248.826 19.64 247.466 19.624C247.482 20.12 247.49 20.544 247.49 20.896C247.506 21.248 247.514 21.672 247.514 22.168V23.752C248.842 23.736 249.842 23.728 250.514 23.728H256.658C256.818 24.16 256.922 24.656 256.97 25.216C257.034 25.76 257.066 26.224 257.066 26.608C257.066 27.056 257.034 27.56 256.97 28.12C256.922 28.664 256.818 29.16 256.658 29.608H250.514C250.21 29.608 249.786 29.608 249.242 29.608C248.698 29.608 248.122 29.608 247.514 29.608V31.168C247.514 31.76 247.506 32.248 247.49 32.632C247.474 33.016 247.466 33.496 247.466 34.072V34.12C248.026 34.088 248.546 34.056 249.026 34.024C249.506 33.992 250.09 33.976 250.778 33.976H260.162ZM299.357 18.352C299.357 20.864 298.845 22.968 297.821 24.664C296.813 26.344 295.421 27.608 293.645 28.456C291.885 29.304 289.869 29.728 287.597 29.728H283.829V40C283.189 40.112 282.509 40.184 281.789 40.216C281.085 40.264 280.477 40.288 279.965 40.288C279.501 40.288 278.901 40.264 278.165 40.216C277.429 40.184 276.749 40.112 276.125 40V7.456L276.461 7.12C278.509 7.072 280.421 7.032 282.197 7C283.989 6.952 285.789 6.928 287.597 6.928C289.869 6.928 291.885 7.344 293.645 8.176C295.421 8.992 296.813 10.248 297.821 11.944C298.845 13.624 299.357 15.76 299.357 18.352ZM283.829 12.784V23.968C284.501 23.952 285.125 23.936 285.701 23.92C286.293 23.904 286.709 23.896 286.949 23.896C288.229 23.896 289.197 23.592 289.853 22.984C290.509 22.376 290.949 21.648 291.173 20.8C291.397 19.936 291.509 19.12 291.509 18.352C291.509 17.6 291.397 16.8 291.173 15.952C290.949 15.088 290.509 14.352 289.853 13.744C289.197 13.136 288.229 12.832 286.949 12.832C286.469 12.832 285.989 12.832 285.509 12.832C285.029 12.816 284.469 12.8 283.829 12.784ZM307.778 35.368C307.522 35.368 307.274 35.368 307.034 35.368C306.794 35.352 306.554 35.336 306.314 35.32L304.826 40C304.362 40.112 303.858 40.192 303.314 40.24C302.77 40.304 302.202 40.336 301.61 40.336C300.97 40.336 300.322 40.288 299.666 40.192C299.026 40.096 298.498 39.96 298.082 39.784L297.818 39.376L307.154 13.552C307.986 13.424 308.786 13.344 309.554 13.312C310.338 13.28 311.05 13.264 311.69 13.264C312.282 13.264 312.922 13.28 313.61 13.312C314.298 13.344 315.074 13.424 315.938 13.552L325.01 39.64C324.45 39.896 323.738 40.088 322.874 40.216C322.01 40.36 321.314 40.432 320.786 40.432C319.906 40.432 319.058 40.264 318.242 39.928C317.426 39.592 316.81 38.704 316.394 37.264L315.794 35.32C315.538 35.336 315.29 35.352 315.05 35.368C314.81 35.368 314.554 35.368 314.282 35.368H307.778ZM308.738 27.784L308.21 29.44C308.45 29.424 308.69 29.416 308.93 29.416C309.17 29.4 309.418 29.392 309.674 29.392H312.674C312.914 29.392 313.13 29.4 313.322 29.416C313.53 29.416 313.738 29.424 313.946 29.44L313.442 27.808C313.074 26.544 312.706 25.136 312.338 23.584C311.97 22.032 311.634 20.624 311.33 19.36H311.042C310.706 20.576 310.33 21.968 309.914 23.536C309.514 25.104 309.122 26.52 308.738 27.784ZM350.219 21.592C350.219 22.824 349.939 23.92 349.379 24.88C348.819 25.84 348.115 26.632 347.267 27.256C346.435 27.88 345.603 28.28 344.771 28.456C345.635 28.744 346.347 29.184 346.907 29.776C347.483 30.368 347.979 31.128 348.395 32.056L349.643 34.912C349.931 35.568 350.259 36.176 350.627 36.736C350.995 37.28 351.403 37.744 351.851 38.128C351.387 38.704 350.691 39.24 349.763 39.736C348.835 40.216 347.827 40.456 346.739 40.456C345.667 40.456 344.795 40.2 344.123 39.688C343.467 39.16 342.891 38.32 342.395 37.168L340.283 32.32C339.947 31.536 339.531 31.064 339.035 30.904C338.539 30.744 337.899 30.664 337.115 30.664H336.179V40C335.539 40.112 334.875 40.184 334.187 40.216C333.515 40.264 332.939 40.288 332.459 40.288C332.011 40.288 331.419 40.264 330.683 40.216C329.947 40.184 329.275 40.112 328.667 40V13.792L328.931 13.504C330.867 13.456 332.683 13.416 334.379 13.384C336.091 13.336 337.795 13.312 339.491 13.312C341.411 13.312 343.187 13.568 344.819 14.08C346.451 14.576 347.755 15.432 348.731 16.648C349.723 17.848 350.219 19.496 350.219 21.592ZM336.179 18.736V24.952C336.739 24.936 337.251 24.928 337.715 24.928C338.195 24.912 338.547 24.904 338.771 24.904C340.211 24.904 341.187 24.592 341.699 23.968C342.211 23.344 342.467 22.616 342.467 21.784C342.467 20.968 342.211 20.264 341.699 19.672C341.187 19.08 340.331 18.784 339.131 18.784C338.555 18.784 338.059 18.776 337.643 18.76C337.227 18.744 336.739 18.736 336.179 18.736ZM360.027 22.552C360.027 22.04 360.035 21.568 360.051 21.136C360.067 20.688 360.075 20.192 360.075 19.648C359.739 19.648 359.275 19.656 358.683 19.672C358.107 19.688 357.651 19.696 357.315 19.696H352.875C352.747 19.12 352.667 18.584 352.635 18.088C352.603 17.576 352.587 17.112 352.587 16.696C352.587 16.28 352.603 15.792 352.635 15.232C352.667 14.656 352.747 14.096 352.875 13.552H374.595C374.707 13.984 374.787 14.472 374.835 15.016C374.899 15.56 374.931 16 374.931 16.336C374.931 17.424 374.643 18.256 374.067 18.832C373.491 19.408 372.531 19.696 371.187 19.696H370.203C369.867 19.696 369.419 19.688 368.859 19.672C368.315 19.656 367.891 19.648 367.587 19.648C367.587 20.192 367.595 20.688 367.611 21.136C367.627 21.568 367.635 22.04 367.635 22.552V40C367.187 40.096 366.571 40.168 365.787 40.216C365.003 40.264 364.347 40.288 363.819 40.288C363.323 40.288 362.699 40.264 361.947 40.216C361.195 40.168 360.555 40.096 360.027 40V22.552ZM378.263 13.552C378.871 13.424 379.559 13.344 380.327 13.312C381.095 13.28 381.703 13.264 382.151 13.264C382.631 13.264 383.207 13.28 383.879 13.312C384.567 13.344 385.231 13.424 385.871 13.552V40C385.231 40.112 384.567 40.184 383.879 40.216C383.207 40.264 382.631 40.288 382.151 40.288C381.703 40.288 381.095 40.264 380.327 40.216C379.559 40.184 378.871 40.112 378.263 40V13.552ZM407.479 25.528C407.479 23.496 407.207 21.864 406.663 20.632C406.119 19.384 405.023 18.76 403.375 18.76C401.663 18.76 400.447 19.464 399.727 20.872C399.007 22.28 398.647 24.304 398.647 26.944C398.647 28.96 398.903 30.512 399.415 31.6C399.943 32.672 400.615 33.416 401.431 33.832C402.247 34.248 403.111 34.456 404.023 34.456C405.207 34.456 406.391 34.2 407.575 33.688C408.775 33.16 409.847 32.544 410.791 31.84C411.303 32.096 411.799 32.504 412.279 33.064C412.759 33.624 413.175 34.224 413.527 34.864C413.879 35.504 414.103 36.088 414.199 36.616C412.871 37.752 411.255 38.72 409.351 39.52C407.463 40.32 405.311 40.72 402.895 40.72C400.575 40.72 398.639 40.312 397.087 39.496C395.551 38.68 394.327 37.608 393.415 36.28C392.503 34.936 391.855 33.448 391.471 31.816C391.087 30.184 390.895 28.544 390.895 26.896C390.895 23.616 391.487 20.944 392.671 18.88C393.871 16.8 395.439 15.272 397.375 14.296C399.327 13.32 401.415 12.832 403.639 12.832C406.135 12.832 408.191 13.272 409.807 14.152C411.423 15.032 412.623 16.144 413.407 17.488C414.191 18.832 414.583 20.216 414.583 21.64C414.583 24.376 413.047 25.744 409.975 25.744C409.607 25.744 409.207 25.72 408.775 25.672C408.343 25.624 407.911 25.576 407.479 25.528ZM419.325 13.552C419.933 13.424 420.621 13.344 421.389 13.312C422.157 13.28 422.765 13.264 423.213 13.264C423.693 13.264 424.269 13.28 424.941 13.312C425.629 13.344 426.293 13.424 426.933 13.552V40C426.293 40.112 425.629 40.184 424.941 40.216C424.269 40.264 423.693 40.288 423.213 40.288C422.765 40.288 422.157 40.264 421.389 40.216C420.621 40.184 419.933 40.112 419.325 40V13.552ZM454.925 22.624C454.925 24.704 454.453 26.432 453.509 27.808C452.581 29.168 451.301 30.184 449.669 30.856C448.037 31.512 446.181 31.84 444.101 31.84H441.485V40C440.845 40.112 440.189 40.184 439.517 40.216C438.845 40.264 438.269 40.288 437.789 40.288C437.341 40.288 436.733 40.264 435.965 40.216C435.197 40.184 434.509 40.112 433.901 40V13.792L434.165 13.504C435.461 13.472 437.021 13.432 438.845 13.384C440.669 13.336 442.421 13.312 444.101 13.312C446.197 13.312 448.061 13.632 449.693 14.272C451.325 14.912 452.605 15.92 453.533 17.296C454.461 18.672 454.925 20.448 454.925 22.624ZM441.485 18.928V26.272C441.917 26.256 442.309 26.248 442.661 26.248C443.013 26.232 443.277 26.224 443.453 26.224C444.509 26.224 445.301 26.032 445.829 25.648C446.373 25.248 446.733 24.768 446.909 24.208C447.085 23.632 447.173 23.088 447.173 22.576C447.173 22.096 447.085 21.576 446.909 21.016C446.733 20.456 446.373 19.976 445.829 19.576C445.301 19.176 444.509 18.976 443.453 18.976C443.053 18.976 442.765 18.976 442.589 18.976C442.413 18.96 442.045 18.944 441.485 18.928ZM463.871 35.368C463.615 35.368 463.367 35.368 463.127 35.368C462.887 35.352 462.647 35.336 462.407 35.32L460.919 40C460.455 40.112 459.951 40.192 459.407 40.24C458.863 40.304 458.295 40.336 457.703 40.336C457.063 40.336 456.415 40.288 455.759 40.192C455.119 40.096 454.591 39.96 454.175 39.784L453.911 39.376L463.247 13.552C464.079 13.424 464.879 13.344 465.647 13.312C466.431 13.28 467.143 13.264 467.783 13.264C468.375 13.264 469.015 13.28 469.703 13.312C470.391 13.344 471.167 13.424 472.031 13.552L481.103 39.64C480.543 39.896 479.831 40.088 478.967 40.216C478.103 40.36 477.407 40.432 476.879 40.432C475.999 40.432 475.151 40.264 474.335 39.928C473.519 39.592 472.903 38.704 472.487 37.264L471.887 35.32C471.631 35.336 471.383 35.352 471.143 35.368C470.903 35.368 470.647 35.368 470.375 35.368H463.871ZM464.831 27.784L464.303 29.44C464.543 29.424 464.783 29.416 465.023 29.416C465.263 29.4 465.511 29.392 465.767 29.392H468.767C469.007 29.392 469.223 29.4 469.415 29.416C469.623 29.416 469.831 29.424 470.039 29.44L469.535 27.808C469.167 26.544 468.799 25.136 468.431 23.584C468.063 22.032 467.727 20.624 467.423 19.36H467.135C466.799 20.576 466.423 21.968 466.007 23.536C465.607 25.104 465.215 26.52 464.831 27.784ZM498.791 25.528C498.791 23.496 498.519 21.864 497.975 20.632C497.431 19.384 496.335 18.76 494.687 18.76C492.975 18.76 491.759 19.464 491.039 20.872C490.319 22.28 489.959 24.304 489.959 26.944C489.959 28.96 490.215 30.512 490.727 31.6C491.255 32.672 491.927 33.416 492.743 33.832C493.559 34.248 494.423 34.456 495.335 34.456C496.519 34.456 497.703 34.2 498.887 33.688C500.087 33.16 501.159 32.544 502.103 31.84C502.615 32.096 503.111 32.504 503.591 33.064C504.071 33.624 504.487 34.224 504.839 34.864C505.191 35.504 505.415 36.088 505.511 36.616C504.183 37.752 502.567 38.72 500.663 39.52C498.775 40.32 496.623 40.72 494.207 40.72C491.887 40.72 489.951 40.312 488.399 39.496C486.863 38.68 485.639 37.608 484.727 36.28C483.815 34.936 483.167 33.448 482.783 31.816C482.399 30.184 482.207 28.544 482.207 26.896C482.207 23.616 482.799 20.944 483.983 18.88C485.183 16.8 486.751 15.272 488.687 14.296C490.639 13.32 492.727 12.832 494.951 12.832C497.447 12.832 499.503 13.272 501.119 14.152C502.735 15.032 503.935 16.144 504.719 17.488C505.503 18.832 505.895 20.216 505.895 21.64C505.895 24.376 504.359 25.744 501.287 25.744C500.919 25.744 500.519 25.72 500.087 25.672C499.655 25.624 499.223 25.576 498.791 25.528ZM510.638 13.552C511.246 13.424 511.934 13.344 512.702 13.312C513.47 13.28 514.078 13.264 514.526 13.264C515.006 13.264 515.582 13.28 516.254 13.312C516.942 13.344 517.606 13.424 518.246 13.552V40C517.606 40.112 516.942 40.184 516.254 40.216C515.582 40.264 515.006 40.288 514.526 40.288C514.078 40.288 513.47 40.264 512.702 40.216C511.934 40.184 511.246 40.112 510.638 40V13.552ZM523.27 26.824C523.27 22.536 524.374 19.136 526.582 16.624C528.806 14.096 532.046 12.832 536.302 12.832C540.622 12.832 543.878 14.088 546.07 16.6C548.278 19.096 549.382 22.504 549.382 26.824C549.382 31.144 548.278 34.544 546.07 37.024C543.862 39.488 540.606 40.72 536.302 40.72C531.982 40.72 528.726 39.472 526.534 36.976C524.358 34.48 523.27 31.096 523.27 26.824ZM531.022 26.824C531.022 27.736 531.078 28.68 531.19 29.656C531.318 30.616 531.558 31.512 531.91 32.344C532.278 33.176 532.814 33.856 533.518 34.384C534.222 34.896 535.158 35.152 536.326 35.152C537.494 35.152 538.43 34.896 539.134 34.384C539.838 33.856 540.366 33.176 540.718 32.344C541.086 31.512 541.326 30.616 541.438 29.656C541.566 28.68 541.63 27.736 541.63 26.824C541.63 25.896 541.566 24.944 541.438 23.968C541.326 22.976 541.086 22.064 540.718 21.232C540.366 20.384 539.838 19.704 539.134 19.192C538.43 18.664 537.494 18.4 536.326 18.4C535.158 18.4 534.222 18.664 533.518 19.192C532.814 19.704 532.278 20.384 531.91 21.232C531.558 22.064 531.318 22.976 531.19 23.968C531.078 24.944 531.022 25.896 531.022 26.824ZM539.278 0.567997C540.158 0.839998 541.054 1.392 541.966 2.224C542.894 3.04 543.502 3.928 543.79 4.888L534.91 11.56C534.286 11.368 533.678 11.008 533.086 10.48C532.494 9.952 532.07 9.344 531.814 8.656L539.278 0.567997ZM563.635 27.928C563.523 27.672 563.347 27.272 563.107 26.728C562.867 26.168 562.611 25.568 562.339 24.928C562.067 24.288 561.811 23.688 561.571 23.128C561.347 22.568 561.171 22.16 561.043 21.904L560.875 21.976C560.939 23.24 561.003 24.608 561.067 26.08C561.131 27.536 561.179 28.872 561.211 30.088C561.259 31.288 561.283 32.16 561.283 32.704V40C560.659 40.112 560.059 40.184 559.483 40.216C558.907 40.264 558.371 40.288 557.875 40.288C557.427 40.288 556.867 40.264 556.195 40.216C555.539 40.184 554.915 40.112 554.323 40V13.72C554.915 13.576 555.651 13.464 556.531 13.384C557.411 13.304 558.091 13.264 558.571 13.264C559.067 13.264 559.771 13.28 560.683 13.312C561.595 13.328 562.347 13.408 562.939 13.552L568.579 25.576C568.691 25.8 568.875 26.208 569.131 26.8C569.403 27.392 569.691 28.04 569.995 28.744C570.299 29.448 570.579 30.112 570.835 30.736C571.107 31.344 571.307 31.792 571.435 32.08L571.651 32.032C571.587 30.976 571.499 29.744 571.387 28.336C571.291 26.928 571.203 25.568 571.123 24.256C571.043 22.944 571.003 21.896 571.003 21.112V17.368C571.003 15.672 571.371 14.56 572.107 14.032C572.843 13.488 573.939 13.216 575.395 13.216H577.867L578.155 13.552V39.856C577.531 40 576.779 40.104 575.899 40.168C575.019 40.248 574.347 40.288 573.883 40.288C573.563 40.288 573.123 40.28 572.563 40.264C572.003 40.248 571.427 40.224 570.835 40.192C570.259 40.16 569.779 40.096 569.395 40L563.635 27.928Z" fill="#364760"/>
</svg>
