<svg width="108" height="25" viewBox="0 0 108 25" fill="none" xmlns="http://www.w3.org/2000/svg">
<path d="M5.94246 7.84871C5.94246 7.38596 5.9481 6.97399 5.95939 6.61282C5.97067 6.24035 5.97632 5.8171 5.97632 5.34306H5.94246C5.69415 5.34306 5.33862 5.3487 4.87586 5.35999C4.41311 5.37128 4.05757 5.37692 3.80927 5.37692H0.304741C0.225734 4.9706 0.174944 4.57556 0.152371 4.19182C0.129797 3.79678 0.11851 3.44689 0.11851 3.14215C0.11851 2.82612 0.129797 2.47059 0.152371 2.07556C0.174944 1.68052 0.225734 1.27984 0.304741 0.873522H17.0655C17.1445 1.15569 17.2066 1.48865 17.2517 1.8724C17.3082 2.24486 17.3364 2.60603 17.3364 2.95592C17.3364 3.83628 17.105 4.4627 16.6423 4.83516C16.1908 5.19633 15.4797 5.37692 14.5091 5.37692H13.5102C13.2619 5.37692 12.9064 5.37128 12.4436 5.35999C11.9808 5.3487 11.6253 5.34306 11.377 5.34306H11.3431C11.3431 5.8171 11.3488 6.24035 11.3601 6.61282C11.3714 6.97399 11.377 7.38596 11.377 7.84871V24C10.9143 24.079 10.4402 24.1298 9.95488 24.1524C9.46955 24.1862 9.04066 24.2032 8.6682 24.2032C8.28445 24.2032 7.84991 24.1862 7.36458 24.1524C6.87925 24.1298 6.40521 24.079 5.94246 24V7.84871ZM19.1712 5.34306C19.6001 5.25277 20.0854 5.19633 20.6272 5.17376C21.1689 5.15119 21.5978 5.1399 21.9139 5.1399C22.2525 5.1399 22.6588 5.15119 23.1328 5.17376C23.6182 5.19633 24.0866 5.25277 24.538 5.34306V24C24.0866 24.079 23.6182 24.1298 23.1328 24.1524C22.6588 24.1862 22.2525 24.2032 21.9139 24.2032C21.5978 24.2032 21.1689 24.1862 20.6272 24.1524C20.0854 24.1298 19.6001 24.079 19.1712 24V5.34306ZM32.2975 11.6918C32.2975 11.3307 32.3032 10.9977 32.3145 10.693C32.3258 10.3769 32.3314 10.027 32.3314 9.6433C32.0944 9.6433 31.7671 9.64894 31.3495 9.66023C30.9431 9.67152 30.6215 9.67716 30.3845 9.67716H27.2524C27.1621 9.27084 27.1057 8.89273 27.0831 8.54284C27.0605 8.18167 27.0492 7.85435 27.0492 7.5609C27.0492 7.26745 27.0605 6.9232 27.0831 6.52817C27.1057 6.12184 27.1621 5.72681 27.2524 5.34306H42.5741C42.6531 5.6478 42.7095 5.99205 42.7434 6.3758C42.7886 6.75954 42.8111 7.06993 42.8111 7.30695C42.8111 8.07445 42.608 8.66136 42.2016 9.06768C41.7953 9.474 41.1181 9.67716 40.17 9.67716H39.4759C39.2389 9.67716 38.9229 9.67152 38.5278 9.66023C38.1441 9.64894 37.845 9.6433 37.6305 9.6433C37.6305 10.027 37.6362 10.3769 37.6475 10.693C37.6587 10.9977 37.6644 11.3307 37.6644 11.6918V24C37.3484 24.0677 36.9138 24.1185 36.3608 24.1524C35.8077 24.1862 35.345 24.2032 34.9725 24.2032C34.6226 24.2032 34.1824 24.1862 33.652 24.1524C33.1215 24.1185 32.67 24.0677 32.2975 24V11.6918ZM61.3128 17.0079C61.3128 19.3442 60.613 21.1783 59.2135 22.5102C57.8252 23.842 55.7654 24.5079 53.034 24.5079C50.3026 24.5079 48.2371 23.842 46.8376 22.5102C45.4493 21.1783 44.7552 19.3442 44.7552 17.0079V5.34306L44.9583 5.1399H46.8884C47.9155 5.1399 48.7055 5.39949 49.2586 5.91868C49.8229 6.43787 50.1051 7.31259 50.1051 8.54284V16.991C50.1051 18.018 50.3195 18.825 50.7484 19.412C51.1773 19.9989 51.9392 20.2923 53.034 20.2923C54.1401 20.2923 54.9019 19.9989 55.3195 19.412C55.7371 18.825 55.9459 18.018 55.9459 16.991V5.34306C56.3974 5.25277 56.8602 5.19633 57.3342 5.17376C57.8083 5.15119 58.2202 5.1399 58.5701 5.1399C58.8861 5.1399 59.315 5.15683 59.8568 5.19069C60.3986 5.21326 60.8839 5.2697 61.3128 5.35999V17.0079ZM79.0312 19.6659C78.9634 21.3138 78.6756 22.465 78.1677 23.1196C77.6598 23.7743 76.7569 24.1016 75.4589 24.1016H68.89C67.9194 24.1016 67.1575 23.8307 66.6045 23.2889C66.0627 22.7359 65.7918 21.9966 65.7918 21.0711V5.37692L65.995 5.17376H68.0266C69.0537 5.17376 69.8325 5.43335 70.363 5.95254C70.8934 6.46045 71.1587 7.31259 71.1587 8.50898V19.8352C72.3212 19.7223 73.3652 19.6659 74.2907 19.6659H79.0312ZM80.3602 14.7054C80.3602 11.6806 81.139 9.28212 82.6965 7.51011C84.2654 5.72681 86.5509 4.83516 89.5532 4.83516C92.6006 4.83516 94.8975 5.72117 96.4437 7.49318C98.0013 9.25391 98.7801 11.658 98.7801 14.7054C98.7801 17.7528 98.0013 20.1512 96.4437 21.9007C94.8862 23.6388 92.5893 24.5079 89.5532 24.5079C86.5058 24.5079 84.2089 23.6275 82.6627 21.8668C81.1277 20.1061 80.3602 17.7189 80.3602 14.7054ZM85.8286 14.7054C85.8286 15.3487 85.8681 16.0146 85.9471 16.7031C86.0374 17.3803 86.2067 18.0124 86.455 18.5993C86.7146 19.1862 87.0927 19.6659 87.5893 20.0384C88.0859 20.3995 88.7462 20.5801 89.5701 20.5801C90.3941 20.5801 91.0543 20.3995 91.551 20.0384C92.0476 19.6659 92.42 19.1862 92.6683 18.5993C92.9279 18.0124 93.0972 17.3803 93.1762 16.7031C93.2665 16.0146 93.3117 15.3487 93.3117 14.7054C93.3117 14.0508 93.2665 13.3792 93.1762 12.6907C93.0972 11.9909 92.9279 11.3476 92.6683 10.7607C92.42 10.1625 92.0476 9.6828 91.551 9.32163C91.0543 8.94917 90.3941 8.76294 89.5701 8.76294C88.7462 8.76294 88.0859 8.94917 87.5893 9.32163C87.0927 9.6828 86.7146 10.1625 86.455 10.7607C86.2067 11.3476 86.0374 11.9909 85.9471 12.6907C85.8681 13.3792 85.8286 14.0508 85.8286 14.7054ZM101.758 21.6975C101.758 21.4943 101.786 21.1783 101.843 20.7494C101.91 20.3205 102.018 19.9537 102.164 19.649C102.503 19.4571 102.915 19.3047 103.4 19.1919C103.897 19.079 104.371 19.0226 104.822 19.0226C105.262 19.0226 105.731 19.079 106.227 19.1919C106.724 19.3047 107.142 19.4571 107.48 19.649C107.627 19.9537 107.729 20.3205 107.785 20.7494C107.841 21.1783 107.87 21.4943 107.87 21.6975C107.87 21.9007 107.841 22.2167 107.785 22.6456C107.729 23.0745 107.627 23.4413 107.48 23.746C107.142 23.9492 106.724 24.1016 106.227 24.2032C105.731 24.3047 105.262 24.3555 104.822 24.3555C104.371 24.3555 103.897 24.3047 103.4 24.2032C102.915 24.1016 102.503 23.9492 102.164 23.746C102.018 23.4413 101.91 23.0745 101.843 22.6456C101.786 22.2167 101.758 21.9007 101.758 21.6975ZM101.758 11.2347C101.758 11.0316 101.786 10.7155 101.843 10.2866C101.91 9.85775 102.018 9.49093 102.164 9.18619C102.503 8.99431 102.915 8.84194 103.4 8.72907C103.897 8.61621 104.371 8.55977 104.822 8.55977C105.262 8.55977 105.731 8.61621 106.227 8.72907C106.724 8.84194 107.142 8.99431 107.48 9.18619C107.627 9.49093 107.729 9.85775 107.785 10.2866C107.841 10.7155 107.87 11.0316 107.87 11.2347C107.87 11.4379 107.841 11.7539 107.785 12.1828C107.729 12.6117 107.627 12.9785 107.48 13.2833C107.142 13.4864 106.724 13.6388 106.227 13.7404C105.731 13.842 105.262 13.8927 104.822 13.8927C104.371 13.8927 103.897 13.842 103.4 13.7404C102.915 13.6388 102.503 13.4864 102.164 13.2833C102.018 12.9785 101.91 12.6117 101.843 12.1828C101.786 11.7539 101.758 11.4379 101.758 11.2347Z" fill="white" fill-opacity="0.87"/>
</svg>
