<svg width="79" height="25" viewBox="0 0 79 25" fill="none" xmlns="http://www.w3.org/2000/svg">
<path d="M5.94246 7.84871C5.94246 7.38596 5.9481 6.97399 5.95939 6.61282C5.97067 6.24035 5.97632 5.8171 5.97632 5.34306H5.94246C5.69415 5.34306 5.33862 5.3487 4.87586 5.35999C4.41311 5.37128 4.05757 5.37692 3.80927 5.37692H0.304741C0.225734 4.9706 0.174944 4.57556 0.152371 4.19182C0.129797 3.79678 0.11851 3.44689 0.11851 3.14215C0.11851 2.82612 0.129797 2.47059 0.152371 2.07556C0.174944 1.68052 0.225734 1.27984 0.304741 0.873522H17.0655C17.1445 1.15569 17.2066 1.48865 17.2517 1.8724C17.3082 2.24486 17.3364 2.60603 17.3364 2.95592C17.3364 3.83628 17.105 4.4627 16.6423 4.83516C16.1908 5.19633 15.4797 5.37692 14.5091 5.37692H13.5102C13.2619 5.37692 12.9064 5.37128 12.4436 5.35999C11.9808 5.3487 11.6253 5.34306 11.377 5.34306H11.3431C11.3431 5.8171 11.3488 6.24035 11.3601 6.61282C11.3714 6.97399 11.377 7.38596 11.377 7.84871V24C10.9143 24.079 10.4402 24.1298 9.95488 24.1524C9.46955 24.1862 9.04066 24.2032 8.6682 24.2032C8.28445 24.2032 7.84991 24.1862 7.36458 24.1524C6.87925 24.1298 6.40521 24.079 5.94246 24V7.84871ZM19.9018 0.873522C20.342 0.794516 20.8217 0.743725 21.3409 0.721151C21.8601 0.687291 22.289 0.670362 22.6276 0.670362C22.9887 0.670362 23.4176 0.687291 23.9143 0.721151C24.4109 0.743725 24.8849 0.794516 25.3364 0.873522V24C24.8849 24.079 24.4109 24.1298 23.9143 24.1524C23.4176 24.1862 22.9887 24.2032 22.6276 24.2032C22.289 24.2032 21.8601 24.1862 21.3409 24.1524C20.8217 24.1298 20.342 24.079 19.9018 24V0.873522ZM46.969 8.72907C46.969 10.5011 46.6079 11.9853 45.8855 13.1817C45.1745 14.3668 44.1925 15.2584 42.9397 15.8566C41.6981 16.4548 40.276 16.7539 38.6733 16.7539H36.0153V24C35.5638 24.079 35.0841 24.1298 34.5762 24.1524C34.0796 24.1862 33.6507 24.2032 33.2895 24.2032C32.9622 24.2032 32.539 24.1862 32.0198 24.1524C31.5006 24.1298 31.0209 24.079 30.5807 24V1.04282L30.8178 0.805801C32.2625 0.771942 33.6112 0.743725 34.864 0.721151C36.1282 0.687291 37.3979 0.670362 38.6733 0.670362C40.276 0.670362 41.6981 0.963816 42.9397 1.55072C44.1925 2.12635 45.1745 3.01235 45.8855 4.20875C46.6079 5.39385 46.969 6.90063 46.969 8.72907ZM36.0153 4.8013V12.6907C36.4893 12.6794 36.9295 12.6681 37.3358 12.6569C37.7534 12.6456 38.0469 12.6399 38.2162 12.6399C39.1191 12.6399 39.802 12.4255 40.2647 11.9966C40.7275 11.5677 41.0379 11.0541 41.1959 10.4559C41.3539 9.84646 41.4329 9.27084 41.4329 8.72907C41.4329 8.1986 41.3539 7.63426 41.1959 7.03607C41.0379 6.42659 40.7275 5.9074 40.2647 5.4785C39.802 5.04961 39.1191 4.83516 38.2162 4.83516C37.8776 4.83516 37.539 4.83516 37.2004 4.83516C36.8618 4.82387 36.4668 4.81259 36.0153 4.8013ZM49.1655 12.4198C49.1655 10.0045 49.5266 7.89386 50.249 6.08798C50.9826 4.28211 52.0944 2.87691 53.5842 1.8724C55.0741 0.867879 56.9589 0.365621 59.2388 0.365621C61.5301 0.365621 63.4206 0.873522 64.9104 1.88933C66.4003 2.89384 67.5064 4.30468 68.2287 6.12185C68.9511 7.92772 69.3122 10.027 69.3122 12.4198C69.3122 14.8465 68.9454 16.9684 68.2118 18.7855C67.4782 20.5914 66.3664 21.9966 64.8766 23.0011C63.398 24.0056 61.5188 24.5079 59.2388 24.5079C56.9364 24.5079 55.0402 24 53.5503 22.9842C52.0718 21.9684 50.9713 20.5576 50.249 18.7517C49.5266 16.9345 49.1655 14.8239 49.1655 12.4198ZM54.8201 12.4198C54.8201 13.3115 54.8652 14.2201 54.9555 15.1456C55.0571 16.0711 55.2546 16.9289 55.5481 17.7189C55.8528 18.509 56.2987 19.1467 56.8856 19.632C57.4725 20.1061 58.2569 20.3431 59.2388 20.3431C60.2095 20.3431 60.9883 20.1061 61.5752 19.632C62.1621 19.1467 62.6023 18.509 62.8957 17.7189C63.2005 16.9289 63.398 16.0711 63.4883 15.1456C63.5899 14.2201 63.6407 13.3115 63.6407 12.4198C63.6407 11.5282 63.5899 10.6196 63.4883 9.69409C63.398 8.76858 63.2005 7.91643 62.8957 7.13765C62.6023 6.35887 62.1621 5.73245 61.5752 5.25841C60.9883 4.77308 60.2095 4.53042 59.2388 4.53042C58.2569 4.53042 57.4725 4.77308 56.8856 5.25841C56.2987 5.73245 55.8528 6.35887 55.5481 7.13765C55.2546 7.91643 55.0571 8.76858 54.9555 9.69409C54.8652 10.6196 54.8201 11.5282 54.8201 12.4198ZM72.4279 21.6975C72.4279 21.4943 72.4561 21.1783 72.5125 20.7494C72.5803 20.3205 72.6875 19.9537 72.8342 19.649C73.1728 19.4571 73.5848 19.3047 74.0701 19.1919C74.5667 19.079 75.0408 19.0226 75.4922 19.0226C75.9324 19.0226 76.4008 19.079 76.8974 19.1919C77.3941 19.3047 77.8117 19.4571 78.1503 19.649C78.297 19.9537 78.3986 20.3205 78.455 20.7494C78.5114 21.1783 78.5397 21.4943 78.5397 21.6975C78.5397 21.9007 78.5114 22.2167 78.455 22.6456C78.3986 23.0745 78.297 23.4413 78.1503 23.746C77.8117 23.9492 77.3941 24.1016 76.8974 24.2032C76.4008 24.3047 75.9324 24.3555 75.4922 24.3555C75.0408 24.3555 74.5667 24.3047 74.0701 24.2032C73.5848 24.1016 73.1728 23.9492 72.8342 23.746C72.6875 23.4413 72.5803 23.0745 72.5125 22.6456C72.4561 22.2167 72.4279 21.9007 72.4279 21.6975ZM72.4279 11.2347C72.4279 11.0316 72.4561 10.7155 72.5125 10.2866C72.5803 9.85775 72.6875 9.49093 72.8342 9.18619C73.1728 8.99431 73.5848 8.84194 74.0701 8.72907C74.5667 8.61621 75.0408 8.55977 75.4922 8.55977C75.9324 8.55977 76.4008 8.61621 76.8974 8.72907C77.3941 8.84194 77.8117 8.99431 78.1503 9.18619C78.297 9.49093 78.3986 9.85775 78.455 10.2866C78.5114 10.7155 78.5397 11.0316 78.5397 11.2347C78.5397 11.4379 78.5114 11.7539 78.455 12.1828C78.3986 12.6117 78.297 12.9785 78.1503 13.2833C77.8117 13.4864 77.3941 13.6388 76.8974 13.7404C76.4008 13.842 75.9324 13.8927 75.4922 13.8927C75.0408 13.8927 74.5667 13.842 74.0701 13.7404C73.5848 13.6388 73.1728 13.4864 72.8342 13.2833C72.6875 12.9785 72.5803 12.6117 72.5125 12.1828C72.4561 11.7539 72.4279 11.4379 72.4279 11.2347Z" fill="white" fill-opacity="0.87"/>
</svg>
