<svg width="286" height="67" viewBox="0 0 286 67" fill="none" xmlns="http://www.w3.org/2000/svg">
<rect width="286" height="67" rx="10" fill="#1EBCBC"/>
<path d="M78.8151 40.852C78.6231 40.852 78.3951 40.846 78.1311 40.834C77.8791 40.822 77.6331 40.816 77.3931 40.816L75.8631 46.036C75.5031 46.12 75.1131 46.174 74.6931 46.198C74.2851 46.234 73.8591 46.252 73.4151 46.252C72.9831 46.252 72.4911 46.216 71.9391 46.144C71.3991 46.084 70.9671 45.988 70.6431 45.856L70.4271 45.55L78.3831 21.412C78.8391 21.34 79.3851 21.286 80.0211 21.25C80.6691 21.214 81.2331 21.196 81.7131 21.196C82.1691 21.196 82.7211 21.22 83.3691 21.268C84.0171 21.304 84.5751 21.364 85.0431 21.448L92.7831 45.622C92.3871 45.85 91.8711 46.024 91.2351 46.144C90.6111 46.264 90.0291 46.324 89.4891 46.324C88.5771 46.324 87.8631 46.114 87.3471 45.694C86.8311 45.262 86.3991 44.428 86.0511 43.192L85.3671 40.816C85.1391 40.816 84.8931 40.822 84.6291 40.834C84.3651 40.846 84.1371 40.852 83.9451 40.852H78.8151ZM79.5351 33.526L78.7251 36.316C78.9531 36.316 79.1991 36.316 79.4631 36.316C79.7271 36.304 79.9611 36.298 80.1651 36.298H82.7931C82.9731 36.298 83.1771 36.304 83.4051 36.316C83.6451 36.316 83.8791 36.316 84.1071 36.316L83.4771 34.066C83.2011 33.058 82.8771 31.87 82.5051 30.502C82.1331 29.134 81.7971 27.856 81.4971 26.668H81.2811C81.1611 27.34 80.9991 28.084 80.7951 28.9C80.5911 29.716 80.3751 30.532 80.1471 31.348C79.9311 32.152 79.7271 32.878 79.5351 33.526ZM107.334 40.744C107.334 40.144 107.346 39.544 107.37 38.944C107.154 38.944 106.932 38.944 106.704 38.944C106.488 38.944 106.278 38.944 106.074 38.944C105.186 38.944 104.538 38.758 104.13 38.386C103.722 38.002 103.518 37.396 103.518 36.568C103.518 36.244 103.542 35.866 103.59 35.434C103.65 35.002 103.722 34.672 103.806 34.444C104.67 34.408 105.528 34.39 106.38 34.39C107.232 34.378 108.096 34.372 108.972 34.372C110.352 34.372 111.294 34.636 111.798 35.164C112.314 35.692 112.572 36.442 112.572 37.414V45.37C111.936 45.574 111.126 45.766 110.142 45.946C109.158 46.126 108.138 46.27 107.082 46.378C106.026 46.486 105.066 46.54 104.202 46.54C101.814 46.54 99.8821 46.102 98.4061 45.226C96.9421 44.35 95.8741 43.15 95.2021 41.626C94.5421 40.09 94.2121 38.35 94.2121 36.406C94.2121 33.838 94.6861 31.768 95.6341 30.196C96.5941 28.612 97.8661 27.454 99.4501 26.722C101.034 25.99 102.768 25.624 104.652 25.624C106.068 25.624 107.43 25.768 108.738 26.056C110.058 26.332 111.222 26.704 112.23 27.172C112.17 27.952 111.936 28.768 111.528 29.62C111.132 30.46 110.682 31.102 110.178 31.546C108.342 30.634 106.596 30.178 104.94 30.178C101.664 30.178 100.026 32.23 100.026 36.334C100.026 38.374 100.446 39.88 101.286 40.852C102.126 41.824 103.416 42.31 105.156 42.31C105.516 42.31 105.882 42.298 106.254 42.274C106.626 42.238 106.986 42.19 107.334 42.13V40.744ZM133.033 32.194C133.033 33.118 132.823 33.94 132.403 34.66C131.983 35.38 131.455 35.974 130.819 36.442C130.195 36.91 129.571 37.21 128.947 37.342C129.595 37.558 130.129 37.888 130.549 38.332C130.981 38.776 131.353 39.346 131.665 40.042L132.601 42.184C132.817 42.676 133.063 43.132 133.339 43.552C133.615 43.96 133.921 44.308 134.257 44.596C133.909 45.028 133.387 45.43 132.691 45.802C131.995 46.162 131.239 46.342 130.423 46.342C129.619 46.342 128.965 46.15 128.461 45.766C127.969 45.37 127.537 44.74 127.165 43.876L125.581 40.24C125.329 39.652 125.017 39.298 124.645 39.178C124.273 39.058 123.793 38.998 123.205 38.998H122.503V46C122.023 46.084 121.525 46.138 121.009 46.162C120.505 46.198 120.073 46.216 119.713 46.216C119.377 46.216 118.933 46.198 118.381 46.162C117.829 46.138 117.325 46.084 116.869 46V26.344L117.067 26.128C118.519 26.092 119.881 26.062 121.153 26.038C122.437 26.002 123.715 25.984 124.987 25.984C126.427 25.984 127.759 26.176 128.983 26.56C130.207 26.932 131.185 27.574 131.917 28.486C132.661 29.386 133.033 30.622 133.033 32.194ZM122.503 30.052V34.714C122.923 34.702 123.307 34.696 123.655 34.696C124.015 34.684 124.279 34.678 124.447 34.678C125.527 34.678 126.259 34.444 126.643 33.976C127.027 33.508 127.219 32.962 127.219 32.338C127.219 31.726 127.027 31.198 126.643 30.754C126.259 30.31 125.617 30.088 124.717 30.088C124.285 30.088 123.913 30.082 123.601 30.07C123.289 30.058 122.923 30.052 122.503 30.052ZM152.467 41.482C152.467 43.198 152.197 44.392 151.657 45.064C151.129 45.736 150.229 46.072 148.957 46.072H140.659C139.639 46.072 138.835 45.784 138.247 45.208C137.659 44.62 137.365 43.834 137.365 42.85V26.362L137.563 26.164H151.801C151.885 26.572 151.933 26.962 151.945 27.334C151.957 27.706 151.963 28.06 151.963 28.396C151.963 28.72 151.927 29.086 151.855 29.494C151.795 29.902 151.687 30.316 151.531 30.736H145.231C144.727 30.736 143.965 30.73 142.945 30.718C142.957 31.09 142.963 31.408 142.963 31.672C142.975 31.936 142.981 32.254 142.981 32.626V33.814C143.977 33.802 144.727 33.796 145.231 33.796H149.839C149.959 34.12 150.037 34.492 150.073 34.912C150.121 35.32 150.145 35.668 150.145 35.956C150.145 36.292 150.121 36.67 150.073 37.09C150.037 37.498 149.959 37.87 149.839 38.206H145.231C145.003 38.206 144.685 38.206 144.277 38.206C143.869 38.206 143.437 38.206 142.981 38.206V39.376C142.981 39.82 142.975 40.186 142.963 40.474C142.951 40.762 142.945 41.122 142.945 41.554V41.59C143.365 41.566 143.755 41.542 144.115 41.518C144.475 41.494 144.913 41.482 145.429 41.482H152.467ZM167.733 40.744C167.733 40.144 167.745 39.544 167.769 38.944C167.553 38.944 167.331 38.944 167.103 38.944C166.887 38.944 166.677 38.944 166.473 38.944C165.585 38.944 164.937 38.758 164.529 38.386C164.121 38.002 163.917 37.396 163.917 36.568C163.917 36.244 163.941 35.866 163.989 35.434C164.049 35.002 164.121 34.672 164.205 34.444C165.069 34.408 165.927 34.39 166.779 34.39C167.631 34.378 168.495 34.372 169.371 34.372C170.751 34.372 171.693 34.636 172.197 35.164C172.713 35.692 172.971 36.442 172.971 37.414V45.37C172.335 45.574 171.525 45.766 170.541 45.946C169.557 46.126 168.537 46.27 167.481 46.378C166.425 46.486 165.465 46.54 164.601 46.54C162.213 46.54 160.281 46.102 158.805 45.226C157.341 44.35 156.273 43.15 155.601 41.626C154.941 40.09 154.611 38.35 154.611 36.406C154.611 33.838 155.085 31.768 156.033 30.196C156.993 28.612 158.265 27.454 159.849 26.722C161.433 25.99 163.167 25.624 165.051 25.624C166.467 25.624 167.829 25.768 169.137 26.056C170.457 26.332 171.621 26.704 172.629 27.172C172.569 27.952 172.335 28.768 171.927 29.62C171.531 30.46 171.081 31.102 170.577 31.546C168.741 30.634 166.995 30.178 165.339 30.178C162.063 30.178 160.425 32.23 160.425 36.334C160.425 38.374 160.845 39.88 161.685 40.852C162.525 41.824 163.815 42.31 165.555 42.31C165.915 42.31 166.281 42.298 166.653 42.274C167.025 42.238 167.385 42.19 167.733 42.13V40.744ZM182.308 42.526C182.116 42.526 181.93 42.526 181.75 42.526C181.57 42.514 181.39 42.502 181.21 42.49L180.094 46C179.746 46.084 179.368 46.144 178.96 46.18C178.552 46.228 178.126 46.252 177.682 46.252C177.202 46.252 176.716 46.216 176.224 46.144C175.744 46.072 175.348 45.97 175.036 45.838L174.838 45.532L181.84 26.164C182.464 26.068 183.064 26.008 183.64 25.984C184.228 25.96 184.762 25.948 185.242 25.948C185.686 25.948 186.166 25.96 186.682 25.984C187.198 26.008 187.78 26.068 188.428 26.164L195.232 45.73C194.812 45.922 194.278 46.066 193.63 46.162C192.982 46.27 192.46 46.324 192.064 46.324C191.404 46.324 190.768 46.198 190.156 45.946C189.544 45.694 189.082 45.028 188.77 43.948L188.32 42.49C188.128 42.502 187.942 42.514 187.762 42.526C187.582 42.526 187.39 42.526 187.186 42.526H182.308ZM183.028 36.838L182.632 38.08C182.812 38.068 182.992 38.062 183.172 38.062C183.352 38.05 183.538 38.044 183.73 38.044H185.98C186.16 38.044 186.322 38.05 186.466 38.062C186.622 38.062 186.778 38.068 186.934 38.08L186.556 36.856C186.28 35.908 186.004 34.852 185.728 33.688C185.452 32.524 185.2 31.468 184.972 30.52H184.756C184.504 31.432 184.222 32.476 183.91 33.652C183.61 34.828 183.316 35.89 183.028 36.838ZM214.139 32.194C214.139 33.118 213.929 33.94 213.509 34.66C213.089 35.38 212.561 35.974 211.925 36.442C211.301 36.91 210.677 37.21 210.053 37.342C210.701 37.558 211.235 37.888 211.655 38.332C212.087 38.776 212.459 39.346 212.771 40.042L213.707 42.184C213.923 42.676 214.169 43.132 214.445 43.552C214.721 43.96 215.027 44.308 215.363 44.596C215.015 45.028 214.493 45.43 213.797 45.802C213.101 46.162 212.345 46.342 211.529 46.342C210.725 46.342 210.071 46.15 209.567 45.766C209.075 45.37 208.643 44.74 208.271 43.876L206.687 40.24C206.435 39.652 206.123 39.298 205.751 39.178C205.379 39.058 204.899 38.998 204.311 38.998H203.609V46C203.129 46.084 202.631 46.138 202.115 46.162C201.611 46.198 201.179 46.216 200.819 46.216C200.483 46.216 200.039 46.198 199.487 46.162C198.935 46.138 198.431 46.084 197.975 46V26.344L198.173 26.128C199.625 26.092 200.987 26.062 202.259 26.038C203.543 26.002 204.821 25.984 206.093 25.984C207.533 25.984 208.865 26.176 210.089 26.56C211.313 26.932 212.291 27.574 213.023 28.486C213.767 29.386 214.139 30.622 214.139 32.194ZM203.609 30.052V34.714C204.029 34.702 204.413 34.696 204.761 34.696C205.121 34.684 205.385 34.678 205.553 34.678C206.633 34.678 207.365 34.444 207.749 33.976C208.133 33.508 208.325 32.962 208.325 32.338C208.325 31.726 208.133 31.198 207.749 30.754C207.365 30.31 206.723 30.088 205.823 30.088C205.391 30.088 205.019 30.082 204.707 30.07C204.395 30.058 204.029 30.052 203.609 30.052Z" fill="white"/>
</svg>
