<svg width="217" height="49" viewBox="0 0 217 49" fill="none" xmlns="http://www.w3.org/2000/svg">
<rect width="217" height="48.2222" rx="7.77778" fill="#1EBCBC"/>
<path d="M61.5797 29.913C61.4303 29.913 61.253 29.9083 61.0477 29.899C60.8517 29.8897 60.6603 29.885 60.4737 29.885L59.2837 33.945C59.0037 34.0103 58.7003 34.0523 58.3737 34.071C58.0563 34.099 57.725 34.113 57.3797 34.113C57.0437 34.113 56.661 34.085 56.2317 34.029C55.8117 33.9823 55.4757 33.9077 55.2237 33.805L55.0557 33.567L61.2437 14.793C61.5983 14.737 62.023 14.695 62.5177 14.667C63.0217 14.639 63.4603 14.625 63.8337 14.625C64.1883 14.625 64.6177 14.6437 65.1217 14.681C65.6257 14.709 66.0597 14.7557 66.4237 14.821L72.4437 33.623C72.1357 33.8003 71.7343 33.9357 71.2397 34.029C70.7543 34.1223 70.3017 34.169 69.8817 34.169C69.1723 34.169 68.617 34.0057 68.2157 33.679C67.8143 33.343 67.4783 32.6943 67.2077 31.733L66.6757 29.885C66.4983 29.885 66.307 29.8897 66.1017 29.899C65.8963 29.9083 65.719 29.913 65.5697 29.913H61.5797ZM62.1397 24.215L61.5097 26.385C61.687 26.385 61.8783 26.385 62.0837 26.385C62.289 26.3757 62.471 26.371 62.6297 26.371H64.6737C64.8137 26.371 64.9723 26.3757 65.1497 26.385C65.3363 26.385 65.5183 26.385 65.6957 26.385L65.2057 24.635C64.991 23.851 64.739 22.927 64.4497 21.863C64.1603 20.799 63.899 19.805 63.6657 18.881H63.4977C63.4043 19.4037 63.2783 19.9823 63.1197 20.617C62.961 21.2517 62.793 21.8863 62.6157 22.521C62.4477 23.1463 62.289 23.711 62.1397 24.215ZM83.2291 25.475C83.2291 24.2897 83.0705 23.3377 82.7531 22.619C82.4358 21.891 81.7965 21.527 80.8351 21.527C79.8365 21.527 79.1271 21.9377 78.7071 22.759C78.2871 23.5803 78.0771 24.761 78.0771 26.301C78.0771 27.477 78.2265 28.3823 78.5251 29.017C78.8331 29.6423 79.2251 30.0763 79.7011 30.319C80.1771 30.5617 80.6811 30.683 81.2131 30.683C81.9038 30.683 82.5945 30.5337 83.2851 30.235C83.9851 29.927 84.6105 29.5677 85.1611 29.157C85.4598 29.3063 85.7491 29.5443 86.0291 29.871C86.3091 30.1977 86.5518 30.5477 86.7571 30.921C86.9625 31.2943 87.0931 31.635 87.1491 31.943C86.3745 32.6057 85.4318 33.1703 84.3211 33.637C83.2198 34.1037 81.9645 34.337 80.5551 34.337C79.2018 34.337 78.0725 34.099 77.1671 33.623C76.2711 33.147 75.5571 32.5217 75.0251 31.747C74.4931 30.963 74.1151 30.095 73.8911 29.143C73.6671 28.191 73.5551 27.2343 73.5551 26.273C73.5551 24.3597 73.9005 22.801 74.5911 21.597C75.2911 20.3837 76.2058 19.4923 77.3351 18.923C78.4738 18.3537 79.6918 18.069 80.9891 18.069C82.4451 18.069 83.6445 18.3257 84.5871 18.839C85.5298 19.3523 86.2298 20.001 86.6871 20.785C87.1445 21.569 87.3731 22.3763 87.3731 23.207C87.3731 24.803 86.4771 25.601 84.6851 25.601C84.4705 25.601 84.2371 25.587 83.9851 25.559C83.7331 25.531 83.4811 25.503 83.2291 25.475ZM101.83 30.403C101.83 31.7377 101.62 32.6663 101.2 33.189C100.789 33.7117 100.089 33.973 99.0997 33.973H92.6457C91.8523 33.973 91.227 33.749 90.7697 33.301C90.3123 32.8437 90.0837 32.2323 90.0837 31.467V18.643L90.2377 18.489H101.312C101.377 18.8063 101.414 19.1097 101.424 19.399C101.433 19.6883 101.438 19.9637 101.438 20.225C101.438 20.477 101.41 20.7617 101.354 21.079C101.307 21.3963 101.223 21.7183 101.102 22.045H96.2017C95.8097 22.045 95.217 22.0403 94.4237 22.031C94.433 22.3203 94.4377 22.5677 94.4377 22.773C94.447 22.9783 94.4517 23.2257 94.4517 23.515V24.439C95.2263 24.4297 95.8097 24.425 96.2017 24.425H99.7857C99.879 24.677 99.9397 24.9663 99.9677 25.293C100.005 25.6103 100.024 25.881 100.024 26.105C100.024 26.3663 100.005 26.6603 99.9677 26.987C99.9397 27.3043 99.879 27.5937 99.7857 27.855H96.2017C96.0243 27.855 95.777 27.855 95.4597 27.855C95.1423 27.855 94.8063 27.855 94.4517 27.855V28.765C94.4517 29.1103 94.447 29.395 94.4377 29.619C94.4283 29.843 94.4237 30.123 94.4237 30.459V30.487C94.7503 30.4683 95.0537 30.4497 95.3337 30.431C95.6137 30.4123 95.9543 30.403 96.3557 30.403H101.83ZM117.141 23.781C117.141 24.9943 116.865 26.0023 116.315 26.805C115.773 27.5983 115.027 28.191 114.075 28.583C113.123 28.9657 112.04 29.157 110.827 29.157H109.301V33.917C108.927 33.9823 108.545 34.0243 108.153 34.043C107.761 34.071 107.425 34.085 107.145 34.085C106.883 34.085 106.529 34.071 106.081 34.043C105.633 34.0243 105.231 33.9823 104.877 33.917V18.629L105.031 18.461C105.787 18.4423 106.697 18.419 107.761 18.391C108.825 18.363 109.847 18.349 110.827 18.349C112.049 18.349 113.137 18.5357 114.089 18.909C115.041 19.2823 115.787 19.8703 116.329 20.673C116.87 21.4757 117.141 22.5117 117.141 23.781ZM109.301 21.625V25.909C109.553 25.8997 109.781 25.895 109.987 25.895C110.192 25.8857 110.346 25.881 110.449 25.881C111.065 25.881 111.527 25.769 111.835 25.545C112.152 25.3117 112.362 25.0317 112.465 24.705C112.567 24.369 112.619 24.0517 112.619 23.753C112.619 23.473 112.567 23.1697 112.465 22.843C112.362 22.5163 112.152 22.2363 111.835 22.003C111.527 21.7697 111.065 21.653 110.449 21.653C110.215 21.653 110.047 21.653 109.945 21.653C109.842 21.6437 109.627 21.6343 109.301 21.625ZM122.186 23.739C122.186 23.4403 122.19 23.165 122.2 22.913C122.209 22.6517 122.214 22.3623 122.214 22.045C122.018 22.045 121.747 22.0497 121.402 22.059C121.066 22.0683 120.8 22.073 120.604 22.073H118.014C117.939 21.737 117.892 21.4243 117.874 21.135C117.855 20.8363 117.846 20.5657 117.846 20.323C117.846 20.0803 117.855 19.7957 117.874 19.469C117.892 19.133 117.939 18.8063 118.014 18.489H130.684C130.749 18.741 130.796 19.0257 130.824 19.343C130.861 19.6603 130.88 19.917 130.88 20.113C130.88 20.7477 130.712 21.233 130.376 21.569C130.04 21.905 129.48 22.073 128.696 22.073H128.122C127.926 22.073 127.664 22.0683 127.338 22.059C127.02 22.0497 126.773 22.045 126.596 22.045C126.596 22.3623 126.6 22.6517 126.61 22.913C126.619 23.165 126.624 23.4403 126.624 23.739V33.917C126.362 33.973 126.003 34.015 125.546 34.043C125.088 34.071 124.706 34.085 124.398 34.085C124.108 34.085 123.744 34.071 123.306 34.043C122.867 34.015 122.494 33.973 122.186 33.917V23.739ZM135.402 31.215C135.253 31.215 135.108 31.215 134.968 31.215C134.828 31.2057 134.688 31.1963 134.548 31.187L133.68 33.917C133.409 33.9823 133.115 34.029 132.798 34.057C132.481 34.0943 132.149 34.113 131.804 34.113C131.431 34.113 131.053 34.085 130.67 34.029C130.297 33.973 129.989 33.8937 129.746 33.791L129.592 33.553L135.038 18.489C135.523 18.4143 135.99 18.3677 136.438 18.349C136.895 18.3303 137.311 18.321 137.684 18.321C138.029 18.321 138.403 18.3303 138.804 18.349C139.205 18.3677 139.658 18.4143 140.162 18.489L145.454 33.707C145.127 33.8563 144.712 33.9683 144.208 34.043C143.704 34.127 143.298 34.169 142.99 34.169C142.477 34.169 141.982 34.071 141.506 33.875C141.03 33.679 140.671 33.161 140.428 32.321L140.078 31.187C139.929 31.1963 139.784 31.2057 139.644 31.215C139.504 31.215 139.355 31.215 139.196 31.215H135.402ZM135.962 26.791L135.654 27.757C135.794 27.7477 135.934 27.743 136.074 27.743C136.214 27.7337 136.359 27.729 136.508 27.729H138.258C138.398 27.729 138.524 27.7337 138.636 27.743C138.757 27.743 138.879 27.7477 139 27.757L138.706 26.805C138.491 26.0677 138.277 25.2463 138.062 24.341C137.847 23.4357 137.651 22.6143 137.474 21.877H137.306C137.11 22.5863 136.891 23.3983 136.648 24.313C136.415 25.2277 136.186 26.0537 135.962 26.791ZM160.16 23.179C160.16 23.8977 159.996 24.537 159.67 25.097C159.343 25.657 158.932 26.119 158.438 26.483C157.952 26.847 157.467 27.0803 156.982 27.183C157.486 27.351 157.901 27.6077 158.228 27.953C158.564 28.2983 158.853 28.7417 159.096 29.283L159.824 30.949C159.992 31.3317 160.183 31.6863 160.398 32.013C160.612 32.3303 160.85 32.601 161.112 32.825C160.841 33.161 160.435 33.4737 159.894 33.763C159.352 34.043 158.764 34.183 158.13 34.183C157.504 34.183 156.996 34.0337 156.604 33.735C156.221 33.427 155.885 32.937 155.596 32.265L154.364 29.437C154.168 28.9797 153.925 28.7043 153.636 28.611C153.346 28.5177 152.973 28.471 152.516 28.471H151.97V33.917C151.596 33.9823 151.209 34.0243 150.808 34.043C150.416 34.071 150.08 34.085 149.8 34.085C149.538 34.085 149.193 34.071 148.764 34.043C148.334 34.0243 147.942 33.9823 147.588 33.917V18.629L147.742 18.461C148.871 18.433 149.93 18.4097 150.92 18.391C151.918 18.363 152.912 18.349 153.902 18.349C155.022 18.349 156.058 18.4983 157.01 18.797C157.962 19.0863 158.722 19.5857 159.292 20.295C159.87 20.995 160.16 21.9563 160.16 23.179ZM151.97 21.513V25.139C152.296 25.1297 152.595 25.125 152.866 25.125C153.146 25.1157 153.351 25.111 153.482 25.111C154.322 25.111 154.891 24.929 155.19 24.565C155.488 24.201 155.638 23.7763 155.638 23.291C155.638 22.815 155.488 22.4043 155.19 22.059C154.891 21.7137 154.392 21.541 153.692 21.541C153.356 21.541 153.066 21.5363 152.824 21.527C152.581 21.5177 152.296 21.513 151.97 21.513Z" fill="white"/>
</svg>
