<svg width="184" height="21" viewBox="0 0 184 21" fill="none" xmlns="http://www.w3.org/2000/svg">
<path d="M13.9523 11.792C13.9523 12.728 13.8843 13.632 13.7483 14.504C13.6203 15.368 13.3643 16.176 12.9803 16.928C12.5963 17.68 12.0203 18.352 11.2523 18.944C10.8843 19.232 10.4403 19.464 9.92031 19.64C9.40831 19.816 8.88031 19.944 8.33631 20.024C7.79231 20.104 7.29631 20.144 6.84831 20.144C5.81631 20.144 4.81231 20.132 3.83631 20.108C2.86831 20.092 1.86031 20.072 0.812313 20.048L0.644313 19.88V3.728L0.812313 3.56C1.84431 3.528 2.84831 3.504 3.82431 3.488C4.80831 3.472 5.81631 3.464 6.84831 3.464C7.29631 3.464 7.79231 3.508 8.33631 3.596C8.88031 3.676 9.41231 3.804 9.93231 3.98C10.4523 4.156 10.8923 4.388 11.2523 4.676C12.0123 5.268 12.5843 5.94 12.9683 6.692C13.3523 7.436 13.6123 8.24 13.7483 9.104C13.8843 9.968 13.9523 10.864 13.9523 11.792ZM10.0043 11.792C10.0043 11.184 9.96431 10.568 9.88431 9.944C9.81231 9.312 9.66831 8.736 9.45231 8.216C9.24431 7.688 8.92831 7.264 8.50431 6.944C8.08831 6.616 7.53631 6.452 6.84831 6.452C6.44031 6.452 6.04831 6.452 5.67231 6.452C5.29631 6.452 4.89631 6.444 4.47231 6.428V17.168C4.89631 17.16 5.29631 17.156 5.67231 17.156C6.04831 17.156 6.44031 17.156 6.84831 17.156C7.53631 17.156 8.08831 16.996 8.50431 16.676C8.92831 16.348 9.24431 15.92 9.45231 15.392C9.66831 14.856 9.81231 14.276 9.88431 13.652C9.96431 13.02 10.0043 12.4 10.0043 11.792ZM16.6276 6.776C16.9316 6.712 17.2756 6.672 17.6596 6.656C18.0436 6.64 18.3476 6.632 18.5716 6.632C18.8116 6.632 19.0996 6.64 19.4356 6.656C19.7796 6.672 20.1116 6.712 20.4316 6.776V20C20.1116 20.056 19.7796 20.092 19.4356 20.108C19.0996 20.132 18.8116 20.144 18.5716 20.144C18.3476 20.144 18.0436 20.132 17.6596 20.108C17.2756 20.092 16.9316 20.056 16.6276 20V6.776ZM34.6915 10.796C34.6915 11.412 34.5515 11.96 34.2715 12.44C33.9915 12.92 33.6395 13.316 33.2155 13.628C32.7995 13.94 32.3835 14.14 31.9675 14.228C32.3995 14.372 32.7555 14.592 33.0355 14.888C33.3235 15.184 33.5715 15.564 33.7795 16.028L34.4035 17.456C34.5475 17.784 34.7115 18.088 34.8955 18.368C35.0795 18.64 35.2835 18.872 35.5075 19.064C35.2755 19.352 34.9275 19.62 34.4635 19.868C33.9995 20.108 33.4955 20.228 32.9515 20.228C32.4155 20.228 31.9795 20.1 31.6435 19.844C31.3155 19.58 31.0275 19.16 30.7795 18.584L29.7235 16.16C29.5555 15.768 29.3475 15.532 29.0995 15.452C28.8515 15.372 28.5315 15.332 28.1395 15.332H27.6715V20C27.3515 20.056 27.0195 20.092 26.6755 20.108C26.3395 20.132 26.0515 20.144 25.8115 20.144C25.5875 20.144 25.2915 20.132 24.9235 20.108C24.5555 20.092 24.2195 20.056 23.9155 20V6.896L24.0475 6.752C25.0155 6.728 25.9235 6.708 26.7715 6.692C27.6275 6.668 28.4795 6.656 29.3275 6.656C30.2875 6.656 31.1755 6.784 31.9915 7.04C32.8075 7.288 33.4595 7.716 33.9475 8.324C34.4435 8.924 34.6915 9.748 34.6915 10.796ZM27.6715 9.368V12.476C27.9515 12.468 28.2075 12.464 28.4395 12.464C28.6795 12.456 28.8555 12.452 28.9675 12.452C29.6875 12.452 30.1755 12.296 30.4315 11.984C30.6875 11.672 30.8155 11.308 30.8155 10.892C30.8155 10.484 30.6875 10.132 30.4315 9.836C30.1755 9.54 29.7475 9.392 29.1475 9.392C28.8595 9.392 28.6115 9.388 28.4035 9.38C28.1955 9.372 27.9515 9.368 27.6715 9.368ZM47.6476 16.988C47.6476 18.132 47.4676 18.928 47.1076 19.376C46.7556 19.824 46.1556 20.048 45.3076 20.048H39.7756C39.0956 20.048 38.5596 19.856 38.1676 19.472C37.7756 19.08 37.5796 18.556 37.5796 17.9V6.908L37.7116 6.776H47.2036C47.2596 7.048 47.2916 7.308 47.2996 7.556C47.3076 7.804 47.3116 8.04 47.3116 8.264C47.3116 8.48 47.2876 8.724 47.2396 8.996C47.1996 9.268 47.1276 9.544 47.0236 9.824H42.8236C42.4876 9.824 41.9796 9.82 41.2996 9.812C41.3076 10.06 41.3116 10.272 41.3116 10.448C41.3196 10.624 41.3236 10.836 41.3236 11.084V11.876C41.9876 11.868 42.4876 11.864 42.8236 11.864H45.8956C45.9756 12.08 46.0276 12.328 46.0516 12.608C46.0836 12.88 46.0996 13.112 46.0996 13.304C46.0996 13.528 46.0836 13.78 46.0516 14.06C46.0276 14.332 45.9756 14.58 45.8956 14.804H42.8236C42.6716 14.804 42.4596 14.804 42.1876 14.804C41.9156 14.804 41.6276 14.804 41.3236 14.804V15.584C41.3236 15.88 41.3196 16.124 41.3116 16.316C41.3036 16.508 41.2996 16.748 41.2996 17.036V17.06C41.5796 17.044 41.8396 17.028 42.0796 17.012C42.3196 16.996 42.6116 16.988 42.9556 16.988H47.6476ZM57.3683 12.764C57.3683 11.748 57.2323 10.932 56.9603 10.316C56.6883 9.692 56.1403 9.38 55.3163 9.38C54.4603 9.38 53.8523 9.732 53.4923 10.436C53.1323 11.14 52.9523 12.152 52.9523 13.472C52.9523 14.48 53.0803 15.256 53.3363 15.8C53.6003 16.336 53.9363 16.708 54.3443 16.916C54.7523 17.124 55.1843 17.228 55.6403 17.228C56.2323 17.228 56.8243 17.1 57.4163 16.844C58.0163 16.58 58.5523 16.272 59.0243 15.92C59.2803 16.048 59.5283 16.252 59.7683 16.532C60.0083 16.812 60.2163 17.112 60.3923 17.432C60.5683 17.752 60.6803 18.044 60.7283 18.308C60.0643 18.876 59.2563 19.36 58.3043 19.76C57.3603 20.16 56.2843 20.36 55.0763 20.36C53.9163 20.36 52.9483 20.156 52.1723 19.748C51.4043 19.34 50.7923 18.804 50.3363 18.14C49.8803 17.468 49.5563 16.724 49.3643 15.908C49.1723 15.092 49.0763 14.272 49.0763 13.448C49.0763 11.808 49.3723 10.472 49.9643 9.44C50.5643 8.4 51.3483 7.636 52.3163 7.148C53.2923 6.66 54.3363 6.416 55.4483 6.416C56.6963 6.416 57.7243 6.636 58.5323 7.076C59.3403 7.516 59.9403 8.072 60.3323 8.744C60.7243 9.416 60.9203 10.108 60.9203 10.82C60.9203 12.188 60.1523 12.872 58.6163 12.872C58.4323 12.872 58.2323 12.86 58.0163 12.836C57.8003 12.812 57.5843 12.788 57.3683 12.764ZM70.4464 12.764C70.4464 11.748 70.3104 10.932 70.0384 10.316C69.7664 9.692 69.2184 9.38 68.3944 9.38C67.5384 9.38 66.9304 9.732 66.5704 10.436C66.2104 11.14 66.0304 12.152 66.0304 13.472C66.0304 14.48 66.1584 15.256 66.4144 15.8C66.6784 16.336 67.0144 16.708 67.4224 16.916C67.8304 17.124 68.2624 17.228 68.7184 17.228C69.3104 17.228 69.9024 17.1 70.4944 16.844C71.0944 16.58 71.6304 16.272 72.1024 15.92C72.3584 16.048 72.6064 16.252 72.8464 16.532C73.0864 16.812 73.2944 17.112 73.4704 17.432C73.6464 17.752 73.7584 18.044 73.8064 18.308C73.1424 18.876 72.3344 19.36 71.3824 19.76C70.4384 20.16 69.3624 20.36 68.1544 20.36C66.9944 20.36 66.0264 20.156 65.2504 19.748C64.4824 19.34 63.8704 18.804 63.4144 18.14C62.9584 17.468 62.6344 16.724 62.4424 15.908C62.2504 15.092 62.1544 14.272 62.1544 13.448C62.1544 11.808 62.4504 10.472 63.0424 9.44C63.6424 8.4 64.4264 7.636 65.3944 7.148C66.3704 6.66 67.4144 6.416 68.5264 6.416C69.7744 6.416 70.8024 6.636 71.6104 7.076C72.4184 7.516 73.0184 8.072 73.4104 8.744C73.8024 9.416 73.9984 10.108 73.9984 10.82C73.9984 12.188 73.2304 12.872 71.6944 12.872C71.5104 12.872 71.3104 12.86 71.0944 12.836C70.8784 12.812 70.6624 12.788 70.4464 12.764ZM76.3698 6.776C76.6738 6.712 77.0178 6.672 77.4018 6.656C77.7858 6.64 78.0898 6.632 78.3138 6.632C78.5538 6.632 78.8418 6.64 79.1778 6.656C79.5218 6.672 79.8538 6.712 80.1738 6.776V20C79.8538 20.056 79.5218 20.092 79.1778 20.108C78.8418 20.132 78.5538 20.144 78.3138 20.144C78.0898 20.144 77.7858 20.132 77.4018 20.108C77.0178 20.092 76.6738 20.056 76.3698 20V6.776ZM82.6857 13.412C82.6857 11.268 83.2377 9.568 84.3417 8.312C85.4537 7.048 87.0737 6.416 89.2017 6.416C91.3617 6.416 92.9897 7.044 94.0857 8.3C95.1897 9.548 95.7417 11.252 95.7417 13.412C95.7417 15.572 95.1897 17.272 94.0857 18.512C92.9817 19.744 91.3537 20.36 89.2017 20.36C87.0417 20.36 85.4137 19.736 84.3177 18.488C83.2297 17.24 82.6857 15.548 82.6857 13.412ZM86.5617 13.412C86.5617 13.868 86.5897 14.34 86.6457 14.828C86.7097 15.308 86.8297 15.756 87.0057 16.172C87.1897 16.588 87.4577 16.928 87.8097 17.192C88.1617 17.448 88.6297 17.576 89.2137 17.576C89.7977 17.576 90.2657 17.448 90.6177 17.192C90.9697 16.928 91.2337 16.588 91.4097 16.172C91.5937 15.756 91.7137 15.308 91.7697 14.828C91.8337 14.34 91.8657 13.868 91.8657 13.412C91.8657 12.948 91.8337 12.472 91.7697 11.984C91.7137 11.488 91.5937 11.032 91.4097 10.616C91.2337 10.192 90.9697 9.852 90.6177 9.596C90.2657 9.332 89.7977 9.2 89.2137 9.2C88.6297 9.2 88.1617 9.332 87.8097 9.596C87.4577 9.852 87.1897 10.192 87.0057 10.616C86.8297 11.032 86.7097 11.488 86.6457 11.984C86.5897 12.472 86.5617 12.948 86.5617 13.412ZM90.6897 0.283998C91.1297 0.419999 91.5777 0.695999 92.0337 1.112C92.4977 1.52 92.8017 1.964 92.9457 2.444L88.5057 5.78C88.1937 5.684 87.8897 5.504 87.5937 5.24C87.2977 4.976 87.0857 4.672 86.9577 4.328L90.6897 0.283998ZM102.868 13.964C102.812 13.836 102.724 13.636 102.604 13.364C102.484 13.084 102.356 12.784 102.22 12.464C102.084 12.144 101.956 11.844 101.836 11.564C101.724 11.284 101.636 11.08 101.572 10.952L101.488 10.988C101.52 11.62 101.552 12.304 101.584 13.04C101.616 13.768 101.64 14.436 101.656 15.044C101.68 15.644 101.692 16.08 101.692 16.352V20C101.38 20.056 101.08 20.092 100.792 20.108C100.504 20.132 100.236 20.144 99.9884 20.144C99.7644 20.144 99.4844 20.132 99.1484 20.108C98.8204 20.092 98.5084 20.056 98.2124 20V6.86C98.5084 6.788 98.8764 6.732 99.3164 6.692C99.7564 6.652 100.096 6.632 100.336 6.632C100.584 6.632 100.936 6.64 101.392 6.656C101.848 6.664 102.224 6.704 102.52 6.776L105.34 12.788C105.396 12.9 105.488 13.104 105.616 13.4C105.752 13.696 105.896 14.02 106.048 14.372C106.2 14.724 106.34 15.056 106.468 15.368C106.604 15.672 106.704 15.896 106.768 16.04L106.876 16.016C106.844 15.488 106.8 14.872 106.744 14.168C106.696 13.464 106.652 12.784 106.612 12.128C106.572 11.472 106.552 10.948 106.552 10.556V8.684C106.552 7.836 106.736 7.28 107.104 7.016C107.472 6.744 108.02 6.608 108.748 6.608H109.984L110.128 6.776V19.928C109.816 20 109.44 20.052 109 20.084C108.56 20.124 108.224 20.144 107.992 20.144C107.832 20.144 107.612 20.14 107.332 20.132C107.052 20.124 106.764 20.112 106.468 20.096C106.18 20.08 105.94 20.048 105.748 20L102.868 13.964ZM122.809 20C122.481 20.056 122.149 20.092 121.813 20.108C121.485 20.132 121.189 20.144 120.925 20.144C120.661 20.144 120.349 20.132 119.989 20.108C119.629 20.092 119.285 20.056 118.957 20V3.752L119.125 3.608H129.385C129.441 3.816 129.481 4.06 129.505 4.34C129.537 4.612 129.553 4.86 129.553 5.084C129.553 5.708 129.381 6.16 129.037 6.44C128.701 6.72 128.189 6.86 127.501 6.86H124.501C124.197 6.86 123.905 6.86 123.625 6.86C123.345 6.86 123.069 6.856 122.797 6.848C122.797 7.176 122.797 7.5 122.797 7.82C122.805 8.132 122.809 8.44 122.809 8.744V10.268C122.969 10.268 123.121 10.268 123.265 10.268H127.921C127.993 10.484 128.045 10.748 128.077 11.06C128.109 11.364 128.125 11.62 128.125 11.828C128.125 12.044 128.109 12.304 128.077 12.608C128.045 12.912 127.993 13.18 127.921 13.412H123.265C123.121 13.412 122.969 13.412 122.809 13.412V20ZM131.026 6.776C131.33 6.712 131.674 6.672 132.058 6.656C132.442 6.64 132.746 6.632 132.97 6.632C133.21 6.632 133.498 6.64 133.834 6.656C134.178 6.672 134.51 6.712 134.83 6.776V20C134.51 20.056 134.178 20.092 133.834 20.108C133.498 20.132 133.21 20.144 132.97 20.144C132.746 20.144 132.442 20.132 132.058 20.108C131.674 20.092 131.33 20.056 131.026 20V6.776ZM134.458 0.283998C134.898 0.419999 135.346 0.695999 135.802 1.112C136.266 1.52 136.57 1.964 136.714 2.444L132.274 5.78C131.962 5.684 131.658 5.504 131.362 5.24C131.066 4.976 130.854 4.672 130.726 4.328L134.458 0.283998ZM137.03 19.004C137.03 18.7 137.09 18.364 137.21 17.996C137.33 17.62 137.494 17.272 137.702 16.952C137.91 16.632 138.138 16.392 138.386 16.232C138.978 16.552 139.638 16.828 140.366 17.06C141.094 17.284 141.806 17.396 142.502 17.396C142.95 17.396 143.318 17.304 143.606 17.12C143.902 16.936 144.05 16.676 144.05 16.34C144.05 16.124 143.966 15.928 143.798 15.752C143.63 15.568 143.338 15.4 142.922 15.248L140.93 14.468C140.314 14.244 139.738 13.964 139.202 13.628C138.666 13.292 138.234 12.88 137.906 12.392C137.578 11.904 137.414 11.32 137.414 10.64C137.414 9.392 137.894 8.376 138.854 7.592C139.814 6.808 141.106 6.416 142.73 6.416C143.65 6.416 144.562 6.524 145.466 6.74C146.378 6.948 147.142 7.188 147.758 7.46C147.758 8.004 147.646 8.54 147.422 9.068C147.198 9.596 146.89 10.012 146.498 10.316C145.906 10.052 145.262 9.832 144.566 9.656C143.87 9.472 143.242 9.38 142.682 9.38C142.266 9.38 141.946 9.468 141.722 9.644C141.506 9.82 141.398 10.032 141.398 10.28C141.398 10.512 141.506 10.688 141.722 10.808C141.938 10.928 142.206 11.048 142.526 11.168L144.506 11.924C145.61 12.324 146.486 12.876 147.134 13.58C147.79 14.276 148.118 15.136 148.118 16.16C148.118 17.064 147.874 17.828 147.386 18.452C146.906 19.076 146.246 19.548 145.406 19.868C144.574 20.188 143.634 20.352 142.586 20.36C141.338 20.36 140.226 20.216 139.25 19.928C138.282 19.64 137.542 19.332 137.03 19.004ZM150.503 6.776C150.807 6.712 151.151 6.672 151.535 6.656C151.919 6.64 152.223 6.632 152.447 6.632C152.687 6.632 152.975 6.64 153.311 6.656C153.655 6.672 153.987 6.712 154.307 6.776V20C153.987 20.056 153.655 20.092 153.311 20.108C152.975 20.132 152.687 20.144 152.447 20.144C152.223 20.144 151.919 20.132 151.535 20.108C151.151 20.092 150.807 20.056 150.503 20V6.776ZM165.111 12.764C165.111 11.748 164.975 10.932 164.703 10.316C164.431 9.692 163.883 9.38 163.059 9.38C162.203 9.38 161.595 9.732 161.235 10.436C160.875 11.14 160.695 12.152 160.695 13.472C160.695 14.48 160.823 15.256 161.079 15.8C161.343 16.336 161.679 16.708 162.087 16.916C162.495 17.124 162.927 17.228 163.383 17.228C163.975 17.228 164.567 17.1 165.159 16.844C165.759 16.58 166.295 16.272 166.767 15.92C167.023 16.048 167.271 16.252 167.511 16.532C167.751 16.812 167.959 17.112 168.135 17.432C168.311 17.752 168.423 18.044 168.471 18.308C167.807 18.876 166.999 19.36 166.047 19.76C165.103 20.16 164.027 20.36 162.819 20.36C161.659 20.36 160.691 20.156 159.915 19.748C159.147 19.34 158.535 18.804 158.079 18.14C157.623 17.468 157.299 16.724 157.107 15.908C156.915 15.092 156.819 14.272 156.819 13.448C156.819 11.808 157.115 10.472 157.707 9.44C158.307 8.4 159.091 7.636 160.059 7.148C161.035 6.66 162.079 6.416 163.191 6.416C164.439 6.416 165.467 6.636 166.275 7.076C167.083 7.516 167.683 8.072 168.075 8.744C168.467 9.416 168.663 10.108 168.663 10.82C168.663 12.188 167.895 12.872 166.359 12.872C166.175 12.872 165.975 12.86 165.759 12.836C165.543 12.812 165.327 12.788 165.111 12.764ZM174.463 17.684C174.335 17.684 174.211 17.684 174.091 17.684C173.971 17.676 173.851 17.668 173.731 17.66L172.987 20C172.755 20.056 172.503 20.096 172.231 20.12C171.959 20.152 171.675 20.168 171.379 20.168C171.059 20.168 170.735 20.144 170.407 20.096C170.087 20.048 169.823 19.98 169.615 19.892L169.483 19.688L174.151 6.776C174.567 6.712 174.967 6.672 175.351 6.656C175.743 6.64 176.099 6.632 176.419 6.632C176.715 6.632 177.035 6.64 177.379 6.656C177.723 6.672 178.111 6.712 178.543 6.776L183.079 19.82C182.799 19.948 182.443 20.044 182.011 20.108C181.579 20.18 181.231 20.216 180.967 20.216C180.527 20.216 180.103 20.132 179.695 19.964C179.287 19.796 178.979 19.352 178.771 18.632L178.471 17.66C178.343 17.668 178.219 17.676 178.099 17.684C177.979 17.684 177.851 17.684 177.715 17.684H174.463ZM174.943 13.892L174.679 14.72C174.799 14.712 174.919 14.708 175.039 14.708C175.159 14.7 175.283 14.696 175.411 14.696H176.911C177.031 14.696 177.139 14.7 177.235 14.708C177.339 14.708 177.443 14.712 177.547 14.72L177.295 13.904C177.111 13.272 176.927 12.568 176.743 11.792C176.559 11.016 176.391 10.312 176.239 9.68H176.095C175.927 10.288 175.739 10.984 175.531 11.768C175.331 12.552 175.135 13.26 174.943 13.892Z" fill="#364760"/>
</svg>
