<svg width="74" height="18" viewBox="0 0 74 18" fill="none" xmlns="http://www.w3.org/2000/svg">
<path d="M11.6659 13.856C11.6659 14.912 11.4979 15.712 11.1619 16.256C10.8339 16.8 10.1619 17.072 9.14591 17.072H2.76191C2.07391 17.072 1.53391 16.872 1.14191 16.472C0.749906 16.072 0.553906 15.524 0.553906 14.828V0.775999L0.721906 0.607999H11.0659C11.1219 0.895999 11.1579 1.168 11.1739 1.424C11.1899 1.672 11.1979 1.904 11.1979 2.12C11.1979 2.336 11.1699 2.604 11.1139 2.924C11.0659 3.236 10.9899 3.536 10.8859 3.824H5.97791C5.80191 3.824 5.56191 3.824 5.25791 3.824C4.96191 3.816 4.65391 3.808 4.33391 3.8C4.33391 4.128 4.33791 4.424 4.34591 4.688C4.35391 4.944 4.35791 5.232 4.35791 5.552V7.22C4.67791 7.212 4.98591 7.208 5.28191 7.208C5.57791 7.2 5.80991 7.196 5.97791 7.196H9.63791C9.71791 7.428 9.77391 7.696 9.80591 8C9.84591 8.304 9.86591 8.56 9.86591 8.768C9.86591 8.984 9.84591 9.236 9.80591 9.524C9.77391 9.812 9.71791 10.08 9.63791 10.328H5.97791C5.80991 10.328 5.57791 10.328 5.28191 10.328C4.98591 10.32 4.67791 10.312 4.35791 10.304V12.152C4.35791 12.464 4.35391 12.752 4.34591 13.016C4.33791 13.272 4.33391 13.56 4.33391 13.88V13.904C4.60591 13.888 4.88591 13.876 5.17391 13.868C5.46191 13.86 5.77391 13.856 6.10991 13.856H11.6659ZM13.6517 12.032C13.5797 11.776 13.5357 11.504 13.5197 11.216C13.5037 10.928 13.4957 10.7 13.4957 10.532C13.4957 10.364 13.5037 10.136 13.5197 9.848C13.5357 9.552 13.5797 9.28 13.6517 9.032H20.4077C20.4717 9.28 20.5117 9.552 20.5277 9.848C20.5517 10.136 20.5637 10.364 20.5637 10.532C20.5637 10.7 20.5517 10.928 20.5277 11.216C20.5117 11.504 20.4717 11.776 20.4077 12.032H13.6517ZM24.1152 0.631999C24.5232 0.559999 24.9672 0.512 25.4472 0.487999C25.9352 0.463999 26.3552 0.451999 26.7072 0.451999C27.0592 0.451999 27.4512 0.463999 27.8832 0.487999C28.3152 0.512 28.7352 0.559999 29.1432 0.631999L30.5592 6.5C30.5912 6.644 30.6432 6.892 30.7152 7.244C30.7952 7.596 30.8832 7.996 30.9792 8.444C31.0752 8.892 31.1632 9.332 31.2432 9.764C31.3312 10.196 31.3992 10.564 31.4472 10.868H31.6152C31.6632 10.564 31.7312 10.196 31.8192 9.764C31.9072 9.332 31.9952 8.892 32.0832 8.444C32.1792 7.996 32.2672 7.596 32.3472 7.244C32.4272 6.892 32.4832 6.644 32.5152 6.5L33.9312 0.631999C34.3392 0.559999 34.7552 0.512 35.1792 0.487999C35.6112 0.463999 36.0032 0.451999 36.3552 0.451999C36.7072 0.451999 37.1272 0.463999 37.6152 0.487999C38.1032 0.512 38.5472 0.559999 38.9472 0.631999L40.2192 16.952C39.9472 17.024 39.6312 17.072 39.2712 17.096C38.9192 17.128 38.5872 17.144 38.2752 17.144C37.9872 17.144 37.7032 17.136 37.4232 17.12C37.1512 17.104 36.8752 17.072 36.5952 17.024L36.2352 10.34C36.1872 9.492 36.1432 8.556 36.1032 7.532C36.0632 6.508 36.0432 5.604 36.0432 4.82H35.8752L33.5112 14.588C33.2232 14.636 32.8872 14.672 32.5032 14.696C32.1192 14.712 31.7912 14.72 31.5192 14.72C31.2792 14.72 30.9632 14.712 30.5712 14.696C30.1792 14.672 29.8392 14.636 29.5512 14.588L27.1872 4.82H27.0312C27.0232 5.604 26.9992 6.508 26.9592 7.532C26.9272 8.556 26.8872 9.492 26.8392 10.34L26.4672 17.024C26.1952 17.072 25.9192 17.104 25.6392 17.12C25.3592 17.136 25.0752 17.144 24.7872 17.144C24.4832 17.144 24.1512 17.128 23.7912 17.096C23.4392 17.072 23.1232 17.024 22.8432 16.952L24.1152 0.631999ZM46.6153 14.684C46.4873 14.684 46.3633 14.684 46.2433 14.684C46.1233 14.676 46.0033 14.668 45.8833 14.66L45.1393 17C44.9073 17.056 44.6553 17.096 44.3833 17.12C44.1113 17.152 43.8273 17.168 43.5313 17.168C43.2113 17.168 42.8873 17.144 42.5593 17.096C42.2393 17.048 41.9753 16.98 41.7673 16.892L41.6353 16.688L46.3033 3.776C46.7193 3.712 47.1193 3.672 47.5033 3.656C47.8953 3.64 48.2513 3.632 48.5713 3.632C48.8673 3.632 49.1873 3.64 49.5313 3.656C49.8753 3.672 50.2633 3.712 50.6953 3.776L55.2313 16.82C54.9513 16.948 54.5953 17.044 54.1633 17.108C53.7313 17.18 53.3833 17.216 53.1193 17.216C52.6793 17.216 52.2553 17.132 51.8473 16.964C51.4393 16.796 51.1313 16.352 50.9233 15.632L50.6233 14.66C50.4953 14.668 50.3713 14.676 50.2513 14.684C50.1313 14.684 50.0033 14.684 49.8673 14.684H46.6153ZM47.0953 10.892L46.8313 11.72C46.9513 11.712 47.0713 11.708 47.1913 11.708C47.3113 11.7 47.4353 11.696 47.5633 11.696H49.0633C49.1833 11.696 49.2913 11.7 49.3873 11.708C49.4913 11.708 49.5953 11.712 49.6993 11.72L49.4473 10.904C49.2633 10.272 49.0793 9.568 48.8953 8.792C48.7113 8.016 48.5433 7.312 48.3913 6.68H48.2473C48.0793 7.288 47.8913 7.984 47.6833 8.768C47.4833 9.552 47.2873 10.26 47.0953 10.892ZM57.108 3.776C57.412 3.712 57.756 3.672 58.14 3.656C58.524 3.64 58.828 3.632 59.052 3.632C59.292 3.632 59.58 3.64 59.916 3.656C60.26 3.672 60.592 3.712 60.912 3.776V17C60.592 17.056 60.26 17.092 59.916 17.108C59.58 17.132 59.292 17.144 59.052 17.144C58.828 17.144 58.524 17.132 58.14 17.108C57.756 17.092 57.412 17.056 57.108 17V3.776ZM73.732 13.928C73.684 15.096 73.48 15.912 73.12 16.376C72.76 16.84 72.12 17.072 71.2 17.072H66.544C65.856 17.072 65.316 16.88 64.924 16.496C64.54 16.104 64.348 15.58 64.348 14.924V3.8L64.492 3.656H65.932C66.66 3.656 67.212 3.84 67.588 4.208C67.964 4.568 68.152 5.172 68.152 6.02V14.048C68.976 13.968 69.716 13.928 70.372 13.928H73.732Z" fill="#364760"/>
</svg>
