<svg width="162" height="21" viewBox="0 0 162 21" fill="none" xmlns="http://www.w3.org/2000/svg">
<path d="M0.383719 3.608C0.695719 3.552 1.03572 3.516 1.40372 3.5C1.77172 3.476 2.07572 3.464 2.31572 3.464C2.57172 3.464 2.87572 3.476 3.22772 3.5C3.57972 3.516 3.91572 3.552 4.23572 3.608V20C3.91572 20.056 3.57972 20.092 3.22772 20.108C2.87572 20.132 2.57172 20.144 2.31572 20.144C2.07572 20.144 1.77172 20.132 1.40372 20.108C1.03572 20.092 0.695719 20.056 0.383719 20V3.608ZM19.9169 13.412C19.9169 15.652 19.3929 17.328 18.3449 18.44C17.2969 19.544 15.6449 20.096 13.3889 20.096C12.4369 20.096 11.5329 20.088 10.6769 20.072C9.82891 20.064 8.93291 20.048 7.98891 20.024L7.85691 19.88V6.896L7.98891 6.752C8.94091 6.728 9.84091 6.708 10.6889 6.692C11.5369 6.668 12.4369 6.656 13.3889 6.656C15.6209 6.656 17.2649 7.236 18.3209 8.396C19.3849 9.548 19.9169 11.22 19.9169 13.412ZM16.0529 13.412C16.0529 12.828 15.9929 12.244 15.8729 11.66C15.7529 11.068 15.5009 10.572 15.1169 10.172C14.7329 9.772 14.1569 9.572 13.3889 9.572C13.0369 9.572 12.7329 9.572 12.4769 9.572C12.2289 9.564 11.9409 9.556 11.6129 9.548V17.228C11.9569 17.228 12.2489 17.224 12.4889 17.216C12.7369 17.208 13.0369 17.204 13.3889 17.204C14.1569 17.204 14.7329 17.008 15.1169 16.616C15.5009 16.216 15.7529 15.724 15.8729 15.14C15.9929 14.556 16.0529 13.98 16.0529 13.412ZM32.4796 16.988C32.4796 18.132 32.2996 18.928 31.9396 19.376C31.5876 19.824 30.9876 20.048 30.1396 20.048H24.6076C23.9276 20.048 23.3916 19.856 22.9996 19.472C22.6076 19.08 22.4116 18.556 22.4116 17.9V6.908L22.5436 6.776H32.0356C32.0916 7.048 32.1236 7.308 32.1316 7.556C32.1396 7.804 32.1436 8.04 32.1436 8.264C32.1436 8.48 32.1196 8.724 32.0716 8.996C32.0316 9.268 31.9596 9.544 31.8556 9.824H27.6556C27.3196 9.824 26.8116 9.82 26.1316 9.812C26.1396 10.06 26.1436 10.272 26.1436 10.448C26.1516 10.624 26.1556 10.836 26.1556 11.084V11.876C26.8196 11.868 27.3196 11.864 27.6556 11.864H30.7276C30.8076 12.08 30.8596 12.328 30.8836 12.608C30.9156 12.88 30.9316 13.112 30.9316 13.304C30.9316 13.528 30.9156 13.78 30.8836 14.06C30.8596 14.332 30.8076 14.58 30.7276 14.804H27.6556C27.5036 14.804 27.2916 14.804 27.0196 14.804C26.7476 14.804 26.4596 14.804 26.1556 14.804V15.584C26.1556 15.88 26.1516 16.124 26.1436 16.316C26.1356 16.508 26.1316 16.748 26.1316 17.036V17.06C26.4116 17.044 26.6716 17.028 26.9116 17.012C27.1516 16.996 27.4436 16.988 27.7876 16.988H32.4796ZM39.7473 13.964C39.6913 13.836 39.6033 13.636 39.4833 13.364C39.3633 13.084 39.2353 12.784 39.0993 12.464C38.9633 12.144 38.8353 11.844 38.7153 11.564C38.6033 11.284 38.5153 11.08 38.4513 10.952L38.3673 10.988C38.3993 11.62 38.4313 12.304 38.4633 13.04C38.4953 13.768 38.5193 14.436 38.5353 15.044C38.5593 15.644 38.5713 16.08 38.5713 16.352V20C38.2593 20.056 37.9593 20.092 37.6713 20.108C37.3833 20.132 37.1153 20.144 36.8673 20.144C36.6433 20.144 36.3633 20.132 36.0273 20.108C35.6993 20.092 35.3873 20.056 35.0913 20V6.86C35.3873 6.788 35.7553 6.732 36.1953 6.692C36.6353 6.652 36.9753 6.632 37.2153 6.632C37.4633 6.632 37.8153 6.64 38.2713 6.656C38.7273 6.664 39.1033 6.704 39.3993 6.776L42.2193 12.788C42.2753 12.9 42.3673 13.104 42.4953 13.4C42.6313 13.696 42.7753 14.02 42.9273 14.372C43.0793 14.724 43.2193 15.056 43.3473 15.368C43.4833 15.672 43.5833 15.896 43.6473 16.04L43.7553 16.016C43.7233 15.488 43.6793 14.872 43.6233 14.168C43.5753 13.464 43.5313 12.784 43.4913 12.128C43.4513 11.472 43.4313 10.948 43.4313 10.556V8.684C43.4313 7.836 43.6153 7.28 43.9833 7.016C44.3513 6.744 44.8993 6.608 45.6273 6.608H46.8633L47.0073 6.776V19.928C46.6953 20 46.3193 20.052 45.8793 20.084C45.4393 20.124 45.1033 20.144 44.8713 20.144C44.7113 20.144 44.4913 20.14 44.2113 20.132C43.9313 20.124 43.6433 20.112 43.3473 20.096C43.0593 20.08 42.8193 20.048 42.6273 20L39.7473 13.964ZM52.4823 11.276C52.4823 11.02 52.4863 10.784 52.4943 10.568C52.5023 10.344 52.5063 10.096 52.5063 9.824C52.3383 9.824 52.1063 9.828 51.8103 9.836C51.5223 9.844 51.2943 9.848 51.1263 9.848H48.9063C48.8423 9.56 48.8023 9.292 48.7863 9.044C48.7703 8.788 48.7623 8.556 48.7623 8.348C48.7623 8.14 48.7703 7.896 48.7863 7.616C48.8023 7.328 48.8423 7.048 48.9063 6.776H59.7663C59.8223 6.992 59.8623 7.236 59.8863 7.508C59.9183 7.78 59.9343 8 59.9343 8.168C59.9343 8.712 59.7903 9.128 59.5023 9.416C59.2143 9.704 58.7343 9.848 58.0623 9.848H57.5703C57.4023 9.848 57.1783 9.844 56.8983 9.836C56.6263 9.828 56.4143 9.824 56.2623 9.824C56.2623 10.096 56.2663 10.344 56.2743 10.568C56.2823 10.784 56.2863 11.02 56.2863 11.276V20C56.0623 20.048 55.7543 20.084 55.3623 20.108C54.9703 20.132 54.6423 20.144 54.3783 20.144C54.1303 20.144 53.8183 20.132 53.4423 20.108C53.0663 20.084 52.7463 20.048 52.4823 20V11.276ZM61.6002 6.776C61.9042 6.712 62.2482 6.672 62.6322 6.656C63.0162 6.64 63.3202 6.632 63.5442 6.632C63.7842 6.632 64.0722 6.64 64.4082 6.656C64.7522 6.672 65.0842 6.712 65.4042 6.776V20C65.0842 20.056 64.7522 20.092 64.4082 20.108C64.0722 20.132 63.7842 20.144 63.5442 20.144C63.3202 20.144 63.0162 20.132 62.6322 20.108C62.2482 20.092 61.9042 20.056 61.6002 20V6.776ZM72.6802 20C72.3522 20.056 72.0162 20.092 71.6722 20.108C71.3362 20.132 71.0402 20.144 70.7842 20.144C70.5282 20.144 70.2282 20.132 69.8842 20.108C69.5482 20.092 69.2162 20.056 68.8882 20V6.884L69.0202 6.776H78.3202C78.3762 6.992 78.4162 7.236 78.4402 7.508C78.4722 7.78 78.4882 8 78.4882 8.168C78.4882 8.712 78.3442 9.136 78.0562 9.44C77.7682 9.744 77.2882 9.896 76.6162 9.896H74.0602C73.8202 9.896 73.5842 9.896 73.3522 9.896C73.1282 9.888 72.9042 9.884 72.6802 9.884C72.6802 10.052 72.6802 10.224 72.6802 10.4C72.6802 10.568 72.6802 10.736 72.6802 10.904V12.152C72.7762 12.152 72.8682 12.152 72.9562 12.152H76.9522C77.0242 12.36 77.0722 12.604 77.0962 12.884C77.1282 13.156 77.1442 13.388 77.1442 13.58C77.1442 13.796 77.1282 14.052 77.0962 14.348C77.0722 14.644 77.0242 14.9 76.9522 15.116H72.9562C72.8682 15.116 72.7762 15.116 72.6802 15.116V20ZM80.6549 6.776C80.9589 6.712 81.3029 6.672 81.6869 6.656C82.0709 6.64 82.3749 6.632 82.5989 6.632C82.8389 6.632 83.1269 6.64 83.4629 6.656C83.8069 6.672 84.1389 6.712 84.4589 6.776V20C84.1389 20.056 83.8069 20.092 83.4629 20.108C83.1269 20.132 82.8389 20.144 82.5989 20.144C82.3749 20.144 82.0709 20.132 81.6869 20.108C81.3029 20.092 80.9589 20.056 80.6549 20V6.776ZM95.2628 12.764C95.2628 11.748 95.1268 10.932 94.8548 10.316C94.5828 9.692 94.0348 9.38 93.2108 9.38C92.3548 9.38 91.7468 9.732 91.3868 10.436C91.0268 11.14 90.8468 12.152 90.8468 13.472C90.8468 14.48 90.9748 15.256 91.2308 15.8C91.4948 16.336 91.8308 16.708 92.2388 16.916C92.6468 17.124 93.0788 17.228 93.5348 17.228C94.1268 17.228 94.7188 17.1 95.3108 16.844C95.9108 16.58 96.4468 16.272 96.9188 15.92C97.1748 16.048 97.4228 16.252 97.6628 16.532C97.9028 16.812 98.1108 17.112 98.2868 17.432C98.4628 17.752 98.5748 18.044 98.6228 18.308C97.9588 18.876 97.1508 19.36 96.1988 19.76C95.2548 20.16 94.1788 20.36 92.9708 20.36C91.8108 20.36 90.8428 20.156 90.0668 19.748C89.2988 19.34 88.6868 18.804 88.2308 18.14C87.7748 17.468 87.4508 16.724 87.2588 15.908C87.0668 15.092 86.9708 14.272 86.9708 13.448C86.9708 11.808 87.2668 10.472 87.8588 9.44C88.4588 8.4 89.2428 7.636 90.2108 7.148C91.1868 6.66 92.2308 6.416 93.3428 6.416C94.5908 6.416 95.6188 6.636 96.4268 7.076C97.2348 7.516 97.8348 8.072 98.2268 8.744C98.6188 9.416 98.8148 10.108 98.8148 10.82C98.8148 12.188 98.0468 12.872 96.5108 12.872C96.3268 12.872 96.1268 12.86 95.9108 12.836C95.6948 12.812 95.4788 12.788 95.2628 12.764ZM104.615 17.684C104.487 17.684 104.363 17.684 104.243 17.684C104.123 17.676 104.003 17.668 103.883 17.66L103.139 20C102.907 20.056 102.655 20.096 102.383 20.12C102.111 20.152 101.827 20.168 101.531 20.168C101.211 20.168 100.887 20.144 100.559 20.096C100.239 20.048 99.9753 19.98 99.7673 19.892L99.6353 19.688L104.303 6.776C104.719 6.712 105.119 6.672 105.503 6.656C105.895 6.64 106.251 6.632 106.571 6.632C106.867 6.632 107.187 6.64 107.531 6.656C107.875 6.672 108.263 6.712 108.695 6.776L113.231 19.82C112.951 19.948 112.595 20.044 112.163 20.108C111.731 20.18 111.383 20.216 111.119 20.216C110.679 20.216 110.255 20.132 109.847 19.964C109.439 19.796 109.131 19.352 108.923 18.632L108.623 17.66C108.495 17.668 108.371 17.676 108.251 17.684C108.131 17.684 108.003 17.684 107.867 17.684H104.615ZM105.095 13.892L104.831 14.72C104.951 14.712 105.071 14.708 105.191 14.708C105.311 14.7 105.435 14.696 105.563 14.696H107.063C107.183 14.696 107.291 14.7 107.387 14.708C107.491 14.708 107.595 14.712 107.699 14.72L107.447 13.904C107.263 13.272 107.079 12.568 106.895 11.792C106.711 11.016 106.543 10.312 106.391 9.68H106.247C106.079 10.288 105.891 10.984 105.683 11.768C105.483 12.552 105.287 13.26 105.095 13.892ZM122.075 12.764C122.075 11.748 121.939 10.932 121.667 10.316C121.395 9.692 120.847 9.38 120.023 9.38C119.167 9.38 118.559 9.732 118.199 10.436C117.839 11.14 117.659 12.152 117.659 13.472C117.659 14.48 117.787 15.256 118.043 15.8C118.307 16.336 118.643 16.708 119.051 16.916C119.459 17.124 119.891 17.228 120.347 17.228C120.939 17.228 121.531 17.1 122.123 16.844C122.723 16.58 123.259 16.272 123.731 15.92C123.987 16.048 124.235 16.252 124.475 16.532C124.715 16.812 124.923 17.112 125.099 17.432C125.275 17.752 125.387 18.044 125.435 18.308C124.771 18.876 123.963 19.36 123.011 19.76C122.067 20.16 120.991 20.36 119.783 20.36C118.623 20.36 117.655 20.156 116.879 19.748C116.111 19.34 115.499 18.804 115.043 18.14C114.587 17.468 114.263 16.724 114.071 15.908C113.879 15.092 113.783 14.272 113.783 13.448C113.783 11.808 114.079 10.472 114.671 9.44C115.271 8.4 116.055 7.636 117.023 7.148C117.999 6.66 119.043 6.416 120.155 6.416C121.403 6.416 122.431 6.636 123.239 7.076C124.047 7.516 124.647 8.072 125.039 8.744C125.431 9.416 125.627 10.108 125.627 10.82C125.627 12.188 124.859 12.872 123.323 12.872C123.139 12.872 122.939 12.86 122.723 12.836C122.507 12.812 122.291 12.788 122.075 12.764ZM127.999 6.776C128.303 6.712 128.647 6.672 129.031 6.656C129.415 6.64 129.719 6.632 129.943 6.632C130.183 6.632 130.471 6.64 130.807 6.656C131.151 6.672 131.483 6.712 131.803 6.776V20C131.483 20.056 131.151 20.092 130.807 20.108C130.471 20.132 130.183 20.144 129.943 20.144C129.719 20.144 129.415 20.132 129.031 20.108C128.647 20.092 128.303 20.056 127.999 20V6.776ZM134.315 13.412C134.315 11.268 134.867 9.568 135.971 8.312C137.083 7.048 138.703 6.416 140.831 6.416C142.991 6.416 144.619 7.044 145.715 8.3C146.819 9.548 147.371 11.252 147.371 13.412C147.371 15.572 146.819 17.272 145.715 18.512C144.611 19.744 142.983 20.36 140.831 20.36C138.671 20.36 137.043 19.736 135.947 18.488C134.859 17.24 134.315 15.548 134.315 13.412ZM138.191 13.412C138.191 13.868 138.219 14.34 138.275 14.828C138.339 15.308 138.459 15.756 138.635 16.172C138.819 16.588 139.087 16.928 139.439 17.192C139.791 17.448 140.259 17.576 140.843 17.576C141.427 17.576 141.895 17.448 142.247 17.192C142.599 16.928 142.863 16.588 143.039 16.172C143.223 15.756 143.343 15.308 143.399 14.828C143.463 14.34 143.495 13.868 143.495 13.412C143.495 12.948 143.463 12.472 143.399 11.984C143.343 11.488 143.223 11.032 143.039 10.616C142.863 10.192 142.599 9.852 142.247 9.596C141.895 9.332 141.427 9.2 140.843 9.2C140.259 9.2 139.791 9.332 139.439 9.596C139.087 9.852 138.819 10.192 138.635 10.616C138.459 11.032 138.339 11.488 138.275 11.984C138.219 12.472 138.191 12.948 138.191 13.412ZM142.319 0.283998C142.759 0.419999 143.207 0.695999 143.663 1.112C144.127 1.52 144.431 1.964 144.575 2.444L140.135 5.78C139.823 5.684 139.519 5.504 139.223 5.24C138.927 4.976 138.715 4.672 138.587 4.328L142.319 0.283998ZM154.497 13.964C154.441 13.836 154.353 13.636 154.233 13.364C154.113 13.084 153.985 12.784 153.849 12.464C153.713 12.144 153.585 11.844 153.465 11.564C153.353 11.284 153.265 11.08 153.201 10.952L153.117 10.988C153.149 11.62 153.181 12.304 153.213 13.04C153.245 13.768 153.269 14.436 153.285 15.044C153.309 15.644 153.321 16.08 153.321 16.352V20C153.009 20.056 152.709 20.092 152.421 20.108C152.133 20.132 151.865 20.144 151.617 20.144C151.393 20.144 151.113 20.132 150.777 20.108C150.449 20.092 150.137 20.056 149.841 20V6.86C150.137 6.788 150.505 6.732 150.945 6.692C151.385 6.652 151.725 6.632 151.965 6.632C152.213 6.632 152.565 6.64 153.021 6.656C153.477 6.664 153.853 6.704 154.149 6.776L156.969 12.788C157.025 12.9 157.117 13.104 157.245 13.4C157.381 13.696 157.525 14.02 157.677 14.372C157.829 14.724 157.969 15.056 158.097 15.368C158.233 15.672 158.333 15.896 158.397 16.04L158.505 16.016C158.473 15.488 158.429 14.872 158.373 14.168C158.325 13.464 158.281 12.784 158.241 12.128C158.201 11.472 158.181 10.948 158.181 10.556V8.684C158.181 7.836 158.365 7.28 158.733 7.016C159.101 6.744 159.649 6.608 160.377 6.608H161.613L161.757 6.776V19.928C161.445 20 161.069 20.052 160.629 20.084C160.189 20.124 159.853 20.144 159.621 20.144C159.461 20.144 159.241 20.14 158.961 20.132C158.681 20.124 158.393 20.112 158.097 20.096C157.809 20.08 157.569 20.048 157.377 20L154.497 13.964Z" fill="#364760"/>
</svg>
