<svg width="373" height="39" viewBox="0 0 373 39" fill="none" xmlns="http://www.w3.org/2000/svg">
<g filter="url(#filter0_d)">
<path d="M4.03652 5.412C4.50452 5.328 5.01452 5.274 5.56652 5.25C6.11852 5.214 6.57452 5.196 6.93452 5.196C7.31852 5.196 7.77452 5.214 8.30252 5.25C8.83052 5.274 9.33452 5.328 9.81452 5.412V30C9.33452 30.084 8.83052 30.138 8.30252 30.162C7.77452 30.198 7.31852 30.216 6.93452 30.216C6.57452 30.216 6.11852 30.198 5.56652 30.162C5.01452 30.138 4.50452 30.084 4.03652 30V5.412ZM22.2303 20.946C22.1463 20.754 22.0143 20.454 21.8343 20.046C21.6543 19.626 21.4623 19.176 21.2583 18.696C21.0543 18.216 20.8623 17.766 20.6823 17.346C20.5143 16.926 20.3823 16.62 20.2863 16.428L20.1603 16.482C20.2083 17.43 20.2563 18.456 20.3043 19.56C20.3523 20.652 20.3883 21.654 20.4123 22.566C20.4483 23.466 20.4663 24.12 20.4663 24.528V30C19.9983 30.084 19.5483 30.138 19.1163 30.162C18.6843 30.198 18.2823 30.216 17.9103 30.216C17.5743 30.216 17.1543 30.198 16.6503 30.162C16.1583 30.138 15.6903 30.084 15.2463 30V10.29C15.6903 10.182 16.2423 10.098 16.9023 10.038C17.5623 9.978 18.0723 9.948 18.4323 9.948C18.8043 9.948 19.3323 9.96 20.0163 9.984C20.7003 9.996 21.2643 10.056 21.7083 10.164L25.9383 19.182C26.0223 19.35 26.1603 19.656 26.3523 20.1C26.5563 20.544 26.7723 21.03 27.0003 21.558C27.2283 22.086 27.4383 22.584 27.6303 23.052C27.8343 23.508 27.9843 23.844 28.0803 24.06L28.2423 24.024C28.1943 23.232 28.1283 22.308 28.0443 21.252C27.9723 20.196 27.9063 19.176 27.8463 18.192C27.7863 17.208 27.7563 16.422 27.7563 15.834V13.026C27.7563 11.754 28.0323 10.92 28.5843 10.524C29.1363 10.116 29.9583 9.912 31.0503 9.912H32.9043L33.1203 10.164V29.892C32.6523 30 32.0883 30.078 31.4283 30.126C30.7683 30.186 30.2643 30.216 29.9163 30.216C29.6763 30.216 29.3463 30.21 28.9263 30.198C28.5063 30.186 28.0743 30.168 27.6303 30.144C27.1983 30.12 26.8383 30.072 26.5503 30L22.2303 20.946ZM43.9968 30C43.5048 30.084 43.0008 30.138 42.4848 30.162C41.9808 30.198 41.5368 30.216 41.1528 30.216C40.7688 30.216 40.3188 30.198 39.8028 30.162C39.2988 30.138 38.8008 30.084 38.3088 30V10.326L38.5068 10.164H52.4568C52.5408 10.488 52.6008 10.854 52.6368 11.262C52.6848 11.67 52.7088 12 52.7088 12.252C52.7088 13.068 52.4928 13.704 52.0608 14.16C51.6288 14.616 50.9088 14.844 49.9008 14.844H46.0668C45.7068 14.844 45.3528 14.844 45.0048 14.844C44.6688 14.832 44.3328 14.826 43.9968 14.826C43.9968 15.078 43.9968 15.336 43.9968 15.6C43.9968 15.852 43.9968 16.104 43.9968 16.356V18.228C44.1408 18.228 44.2788 18.228 44.4108 18.228H50.4048C50.5128 18.54 50.5848 18.906 50.6208 19.326C50.6688 19.734 50.6928 20.082 50.6928 20.37C50.6928 20.694 50.6688 21.078 50.6208 21.522C50.5848 21.966 50.5128 22.35 50.4048 22.674H44.4108C44.2788 22.674 44.1408 22.674 43.9968 22.674V30ZM54.1477 20.118C54.1477 16.902 54.9757 14.352 56.6317 12.468C58.2997 10.572 60.7297 9.624 63.9217 9.624C67.1617 9.624 69.6037 10.566 71.2477 12.45C72.9037 14.322 73.7317 16.878 73.7317 20.118C73.7317 23.358 72.9037 25.908 71.2477 27.768C69.5917 29.616 67.1497 30.54 63.9217 30.54C60.6817 30.54 58.2397 29.604 56.5957 27.732C54.9637 25.86 54.1477 23.322 54.1477 20.118ZM59.9617 20.118C59.9617 20.802 60.0037 21.51 60.0877 22.242C60.1837 22.962 60.3637 23.634 60.6277 24.258C60.9037 24.882 61.3057 25.392 61.8337 25.788C62.3617 26.172 63.0637 26.364 63.9397 26.364C64.8157 26.364 65.5177 26.172 66.0457 25.788C66.5737 25.392 66.9697 24.882 67.2337 24.258C67.5097 23.634 67.6897 22.962 67.7737 22.242C67.8697 21.51 67.9177 20.802 67.9177 20.118C67.9177 19.422 67.8697 18.708 67.7737 17.976C67.6897 17.232 67.5097 16.548 67.2337 15.924C66.9697 15.288 66.5737 14.778 66.0457 14.394C65.5177 13.998 64.8157 13.8 63.9397 13.8C63.0637 13.8 62.3617 13.998 61.8337 14.394C61.3057 14.778 60.9037 15.288 60.6277 15.924C60.3637 16.548 60.1837 17.232 60.0877 17.976C60.0037 18.708 59.9617 19.422 59.9617 20.118ZM93.6017 16.194C93.6017 17.118 93.3917 17.94 92.9717 18.66C92.5517 19.38 92.0237 19.974 91.3877 20.442C90.7637 20.91 90.1397 21.21 89.5157 21.342C90.1637 21.558 90.6977 21.888 91.1177 22.332C91.5497 22.776 91.9217 23.346 92.2337 24.042L93.1697 26.184C93.3857 26.676 93.6317 27.132 93.9077 27.552C94.1837 27.96 94.4897 28.308 94.8257 28.596C94.4777 29.028 93.9557 29.43 93.2597 29.802C92.5637 30.162 91.8077 30.342 90.9917 30.342C90.1877 30.342 89.5337 30.15 89.0297 29.766C88.5377 29.37 88.1057 28.74 87.7337 27.876L86.1497 24.24C85.8977 23.652 85.5857 23.298 85.2137 23.178C84.8417 23.058 84.3617 22.998 83.7737 22.998H83.0717V30C82.5917 30.084 82.0937 30.138 81.5777 30.162C81.0737 30.198 80.6417 30.216 80.2817 30.216C79.9457 30.216 79.5017 30.198 78.9497 30.162C78.3977 30.138 77.8937 30.084 77.4377 30V10.344L77.6357 10.128C79.0877 10.092 80.4497 10.062 81.7217 10.038C83.0057 10.002 84.2837 9.984 85.5557 9.984C86.9957 9.984 88.3277 10.176 89.5517 10.56C90.7757 10.932 91.7537 11.574 92.4857 12.486C93.2297 13.386 93.6017 14.622 93.6017 16.194ZM83.0717 14.052V18.714C83.4917 18.702 83.8757 18.696 84.2237 18.696C84.5837 18.684 84.8477 18.678 85.0157 18.678C86.0957 18.678 86.8277 18.444 87.2117 17.976C87.5957 17.508 87.7877 16.962 87.7877 16.338C87.7877 15.726 87.5957 15.198 87.2117 14.754C86.8277 14.31 86.1857 14.088 85.2857 14.088C84.8537 14.088 84.4817 14.082 84.1697 14.07C83.8577 14.058 83.4917 14.052 83.0717 14.052ZM99.1938 10.164C99.7698 10.056 100.4 9.984 101.084 9.948C101.768 9.9 102.344 9.876 102.812 9.876C103.256 9.876 103.832 9.9 104.54 9.948C105.248 9.984 105.842 10.056 106.322 10.164L108.086 17.976C108.194 18.444 108.32 19.08 108.464 19.884C108.608 20.676 108.752 21.528 108.896 22.44H109.13C109.418 20.52 109.688 19.032 109.94 17.976L111.686 10.164C112.25 10.056 112.868 9.984 113.54 9.948C114.212 9.9 114.77 9.876 115.214 9.876C115.682 9.876 116.264 9.9 116.96 9.948C117.656 9.984 118.28 10.056 118.832 10.164L120.866 29.928C120.086 30.12 119.144 30.216 118.04 30.216C117.62 30.216 117.17 30.198 116.69 30.162C116.222 30.126 115.802 30.072 115.43 30L114.908 23.628C114.848 22.812 114.812 21.918 114.8 20.946C114.788 19.974 114.788 19.026 114.8 18.102C114.812 17.166 114.812 16.356 114.8 15.672H114.584L111.938 26.958C111.53 27.03 111.032 27.084 110.444 27.12C109.856 27.144 109.37 27.156 108.986 27.156C108.59 27.156 108.098 27.144 107.51 27.12C106.934 27.084 106.454 27.03 106.07 26.958L103.442 15.672H103.19C103.19 16.368 103.19 17.178 103.19 18.102C103.202 19.026 103.202 19.974 103.19 20.946C103.178 21.918 103.136 22.824 103.064 23.664L102.596 30C102.212 30.072 101.792 30.126 101.336 30.162C100.892 30.198 100.46 30.216 100.04 30.216C98.9238 30.216 97.9638 30.12 97.1598 29.928L99.1938 10.164ZM130.325 26.526C130.133 26.526 129.947 26.526 129.767 26.526C129.587 26.514 129.407 26.502 129.227 26.49L128.111 30C127.763 30.084 127.385 30.144 126.977 30.18C126.569 30.228 126.143 30.252 125.699 30.252C125.219 30.252 124.733 30.216 124.241 30.144C123.761 30.072 123.365 29.97 123.053 29.838L122.855 29.532L129.857 10.164C130.481 10.068 131.081 10.008 131.657 9.984C132.245 9.96 132.779 9.948 133.259 9.948C133.703 9.948 134.183 9.96 134.699 9.984C135.215 10.008 135.797 10.068 136.445 10.164L143.249 29.73C142.829 29.922 142.295 30.066 141.647 30.162C140.999 30.27 140.477 30.324 140.081 30.324C139.421 30.324 138.785 30.198 138.173 29.946C137.561 29.694 137.099 29.028 136.787 27.948L136.337 26.49C136.145 26.502 135.959 26.514 135.779 26.526C135.599 26.526 135.407 26.526 135.203 26.526H130.325ZM131.045 20.838L130.649 22.08C130.829 22.068 131.009 22.062 131.189 22.062C131.369 22.05 131.555 22.044 131.747 22.044H133.997C134.177 22.044 134.339 22.05 134.483 22.062C134.639 22.062 134.795 22.068 134.951 22.08L134.573 20.856C134.297 19.908 134.021 18.852 133.745 17.688C133.469 16.524 133.217 15.468 132.989 14.52H132.773C132.521 15.432 132.239 16.476 131.927 17.652C131.627 18.828 131.333 19.89 131.045 20.838ZM156.515 19.146C156.515 17.622 156.311 16.398 155.903 15.474C155.495 14.538 154.673 14.07 153.437 14.07C152.153 14.07 151.241 14.598 150.701 15.654C150.161 16.71 149.891 18.228 149.891 20.208C149.891 21.72 150.083 22.884 150.467 23.7C150.863 24.504 151.367 25.062 151.979 25.374C152.591 25.686 153.239 25.842 153.923 25.842C154.811 25.842 155.699 25.65 156.587 25.266C157.487 24.87 158.291 24.408 158.999 23.88C159.383 24.072 159.755 24.378 160.115 24.798C160.475 25.218 160.787 25.668 161.051 26.148C161.315 26.628 161.483 27.066 161.555 27.462C160.559 28.314 159.347 29.04 157.919 29.64C156.503 30.24 154.889 30.54 153.077 30.54C151.337 30.54 149.885 30.234 148.721 29.622C147.569 29.01 146.651 28.206 145.967 27.21C145.283 26.202 144.797 25.086 144.509 23.862C144.221 22.638 144.077 21.408 144.077 20.172C144.077 17.712 144.521 15.708 145.409 14.16C146.309 12.6 147.485 11.454 148.937 10.722C150.401 9.99 151.967 9.624 153.635 9.624C155.507 9.624 157.049 9.954 158.261 10.614C159.473 11.274 160.373 12.108 160.961 13.116C161.549 14.124 161.843 15.162 161.843 16.23C161.843 18.282 160.691 19.308 158.387 19.308C158.111 19.308 157.811 19.29 157.487 19.254C157.163 19.218 156.839 19.182 156.515 19.146ZM165.4 10.164C165.856 10.068 166.372 10.008 166.948 9.984C167.524 9.96 167.98 9.948 168.316 9.948C168.676 9.948 169.108 9.96 169.612 9.984C170.128 10.008 170.626 10.068 171.106 10.164V30C170.626 30.084 170.128 30.138 169.612 30.162C169.108 30.198 168.676 30.216 168.316 30.216C167.98 30.216 167.524 30.198 166.948 30.162C166.372 30.138 165.856 30.084 165.4 30V10.164ZM174.874 20.118C174.874 16.902 175.702 14.352 177.358 12.468C179.026 10.572 181.456 9.624 184.648 9.624C187.888 9.624 190.33 10.566 191.974 12.45C193.63 14.322 194.458 16.878 194.458 20.118C194.458 23.358 193.63 25.908 191.974 27.768C190.318 29.616 187.876 30.54 184.648 30.54C181.408 30.54 178.966 29.604 177.322 27.732C175.69 25.86 174.874 23.322 174.874 20.118ZM180.688 20.118C180.688 20.802 180.73 21.51 180.814 22.242C180.91 22.962 181.09 23.634 181.354 24.258C181.63 24.882 182.032 25.392 182.56 25.788C183.088 26.172 183.79 26.364 184.666 26.364C185.542 26.364 186.244 26.172 186.772 25.788C187.3 25.392 187.696 24.882 187.96 24.258C188.236 23.634 188.416 22.962 188.5 22.242C188.596 21.51 188.644 20.802 188.644 20.118C188.644 19.422 188.596 18.708 188.5 17.976C188.416 17.232 188.236 16.548 187.96 15.924C187.696 15.288 187.3 14.778 186.772 14.394C186.244 13.998 185.542 13.8 184.666 13.8C183.79 13.8 183.088 13.998 182.56 14.394C182.032 14.778 181.63 15.288 181.354 15.924C181.09 16.548 180.91 17.232 180.814 17.976C180.73 18.708 180.688 19.422 180.688 20.118ZM186.88 0.425998C187.54 0.629999 188.212 1.044 188.896 1.668C189.592 2.28 190.048 2.946 190.264 3.666L183.604 8.67C183.136 8.526 182.68 8.256 182.236 7.86C181.792 7.464 181.474 7.008 181.282 6.492L186.88 0.425998ZM205.148 20.946C205.064 20.754 204.932 20.454 204.752 20.046C204.572 19.626 204.38 19.176 204.176 18.696C203.972 18.216 203.78 17.766 203.6 17.346C203.432 16.926 203.3 16.62 203.204 16.428L203.078 16.482C203.126 17.43 203.174 18.456 203.222 19.56C203.27 20.652 203.306 21.654 203.33 22.566C203.366 23.466 203.384 24.12 203.384 24.528V30C202.916 30.084 202.466 30.138 202.034 30.162C201.602 30.198 201.2 30.216 200.828 30.216C200.492 30.216 200.072 30.198 199.568 30.162C199.076 30.138 198.608 30.084 198.164 30V10.29C198.608 10.182 199.16 10.098 199.82 10.038C200.48 9.978 200.99 9.948 201.35 9.948C201.722 9.948 202.25 9.96 202.934 9.984C203.618 9.996 204.182 10.056 204.626 10.164L208.856 19.182C208.94 19.35 209.078 19.656 209.27 20.1C209.474 20.544 209.69 21.03 209.918 21.558C210.146 22.086 210.356 22.584 210.548 23.052C210.752 23.508 210.902 23.844 210.998 24.06L211.16 24.024C211.112 23.232 211.046 22.308 210.962 21.252C210.89 20.196 210.824 19.176 210.764 18.192C210.704 17.208 210.674 16.422 210.674 15.834V13.026C210.674 11.754 210.95 10.92 211.502 10.524C212.054 10.116 212.876 9.912 213.968 9.912H215.822L216.038 10.164V29.892C215.57 30 215.006 30.078 214.346 30.126C213.686 30.186 213.182 30.216 212.834 30.216C212.594 30.216 212.264 30.21 211.844 30.198C211.424 30.186 210.992 30.168 210.548 30.144C210.116 30.12 209.756 30.072 209.468 30L205.148 20.946ZM242.835 23.322C242.835 22.926 242.841 22.518 242.853 22.098C242.865 21.678 242.883 21.252 242.907 20.82H241.143C240.219 20.82 239.529 20.646 239.073 20.298C238.617 19.95 238.389 19.32 238.389 18.408C238.389 18.036 238.425 17.634 238.497 17.202C238.581 16.77 238.683 16.38 238.803 16.032H244.437C245.865 16.032 246.855 16.368 247.407 17.04C247.959 17.7 248.235 18.552 248.235 19.596V29.046C247.191 29.394 245.841 29.73 244.185 30.054C242.529 30.378 240.717 30.54 238.749 30.54C236.289 30.54 234.249 30.024 232.629 28.992C231.021 27.96 229.821 26.496 229.029 24.6C228.237 22.704 227.841 20.46 227.841 17.868C227.841 15.684 228.159 13.782 228.795 12.162C229.431 10.53 230.295 9.18 231.387 8.112C232.479 7.032 233.709 6.222 235.077 5.682C236.445 5.142 237.861 4.872 239.325 4.872C240.981 4.872 242.565 5.112 244.077 5.592C245.589 6.072 246.957 6.69 248.181 7.446C248.121 8.262 247.821 9.06 247.281 9.84C246.753 10.62 246.195 11.202 245.607 11.586C244.731 10.998 243.771 10.53 242.727 10.182C241.695 9.822 240.675 9.642 239.667 9.642C237.843 9.642 236.397 10.302 235.329 11.622C234.261 12.93 233.727 15.024 233.727 17.904C233.727 20.712 234.243 22.764 235.275 24.06C236.319 25.356 237.807 26.004 239.739 26.004C240.315 26.004 240.861 25.974 241.377 25.914C241.893 25.854 242.379 25.782 242.835 25.698V23.322ZM267.794 25.482C267.794 27.198 267.524 28.392 266.984 29.064C266.456 29.736 265.556 30.072 264.284 30.072H255.986C254.966 30.072 254.162 29.784 253.574 29.208C252.986 28.62 252.692 27.834 252.692 26.85V10.362L252.89 10.164H267.128C267.212 10.572 267.26 10.962 267.272 11.334C267.284 11.706 267.29 12.06 267.29 12.396C267.29 12.72 267.254 13.086 267.182 13.494C267.122 13.902 267.014 14.316 266.858 14.736H260.558C260.054 14.736 259.292 14.73 258.272 14.718C258.284 15.09 258.29 15.408 258.29 15.672C258.302 15.936 258.308 16.254 258.308 16.626V17.814C259.304 17.802 260.054 17.796 260.558 17.796H265.166C265.286 18.12 265.364 18.492 265.4 18.912C265.448 19.32 265.472 19.668 265.472 19.956C265.472 20.292 265.448 20.67 265.4 21.09C265.364 21.498 265.286 21.87 265.166 22.206H260.558C260.33 22.206 260.012 22.206 259.604 22.206C259.196 22.206 258.764 22.206 258.308 22.206V23.376C258.308 23.82 258.302 24.186 258.29 24.474C258.278 24.762 258.272 25.122 258.272 25.554V25.59C258.692 25.566 259.082 25.542 259.442 25.518C259.802 25.494 260.24 25.482 260.756 25.482H267.794ZM278.695 20.946C278.611 20.754 278.479 20.454 278.299 20.046C278.119 19.626 277.927 19.176 277.723 18.696C277.519 18.216 277.327 17.766 277.147 17.346C276.979 16.926 276.847 16.62 276.751 16.428L276.625 16.482C276.673 17.43 276.721 18.456 276.769 19.56C276.817 20.652 276.853 21.654 276.877 22.566C276.913 23.466 276.931 24.12 276.931 24.528V30C276.463 30.084 276.013 30.138 275.581 30.162C275.149 30.198 274.747 30.216 274.375 30.216C274.039 30.216 273.619 30.198 273.115 30.162C272.623 30.138 272.155 30.084 271.711 30V10.29C272.155 10.182 272.707 10.098 273.367 10.038C274.027 9.978 274.537 9.948 274.897 9.948C275.269 9.948 275.797 9.96 276.481 9.984C277.165 9.996 277.729 10.056 278.173 10.164L282.403 19.182C282.487 19.35 282.625 19.656 282.817 20.1C283.021 20.544 283.237 21.03 283.465 21.558C283.693 22.086 283.903 22.584 284.095 23.052C284.299 23.508 284.449 23.844 284.545 24.06L284.707 24.024C284.659 23.232 284.593 22.308 284.509 21.252C284.437 20.196 284.371 19.176 284.311 18.192C284.251 17.208 284.221 16.422 284.221 15.834V13.026C284.221 11.754 284.497 10.92 285.049 10.524C285.601 10.116 286.423 9.912 287.515 9.912H289.369L289.585 10.164V29.892C289.117 30 288.553 30.078 287.893 30.126C287.233 30.186 286.729 30.216 286.381 30.216C286.141 30.216 285.811 30.21 285.391 30.198C284.971 30.186 284.539 30.168 284.095 30.144C283.663 30.12 283.303 30.072 283.015 30L278.695 20.946ZM309.876 25.482C309.876 27.198 309.606 28.392 309.066 29.064C308.538 29.736 307.638 30.072 306.366 30.072H298.068C297.048 30.072 296.244 29.784 295.656 29.208C295.068 28.62 294.774 27.834 294.774 26.85V10.362L294.972 10.164H309.21C309.294 10.572 309.342 10.962 309.354 11.334C309.366 11.706 309.372 12.06 309.372 12.396C309.372 12.72 309.336 13.086 309.264 13.494C309.204 13.902 309.096 14.316 308.94 14.736H302.64C302.136 14.736 301.374 14.73 300.354 14.718C300.366 15.09 300.372 15.408 300.372 15.672C300.384 15.936 300.39 16.254 300.39 16.626V17.814C301.386 17.802 302.136 17.796 302.64 17.796H307.248C307.368 18.12 307.446 18.492 307.482 18.912C307.53 19.32 307.554 19.668 307.554 19.956C307.554 20.292 307.53 20.67 307.482 21.09C307.446 21.498 307.368 21.87 307.248 22.206H302.64C302.412 22.206 302.094 22.206 301.686 22.206C301.278 22.206 300.846 22.206 300.39 22.206V23.376C300.39 23.82 300.384 24.186 300.372 24.474C300.36 24.762 300.354 25.122 300.354 25.554V25.59C300.774 25.566 301.164 25.542 301.524 25.518C301.884 25.494 302.322 25.482 302.838 25.482H309.876ZM329.957 16.194C329.957 17.118 329.747 17.94 329.327 18.66C328.907 19.38 328.379 19.974 327.743 20.442C327.119 20.91 326.495 21.21 325.871 21.342C326.519 21.558 327.053 21.888 327.473 22.332C327.905 22.776 328.277 23.346 328.589 24.042L329.525 26.184C329.741 26.676 329.987 27.132 330.263 27.552C330.539 27.96 330.845 28.308 331.181 28.596C330.833 29.028 330.311 29.43 329.615 29.802C328.919 30.162 328.163 30.342 327.347 30.342C326.543 30.342 325.889 30.15 325.385 29.766C324.893 29.37 324.461 28.74 324.089 27.876L322.505 24.24C322.253 23.652 321.941 23.298 321.569 23.178C321.197 23.058 320.717 22.998 320.129 22.998H319.427V30C318.947 30.084 318.449 30.138 317.933 30.162C317.429 30.198 316.997 30.216 316.637 30.216C316.301 30.216 315.857 30.198 315.305 30.162C314.753 30.138 314.249 30.084 313.793 30V10.344L313.991 10.128C315.443 10.092 316.805 10.062 318.077 10.038C319.361 10.002 320.639 9.984 321.911 9.984C323.351 9.984 324.683 10.176 325.907 10.56C327.131 10.932 328.109 11.574 328.841 12.486C329.585 13.386 329.957 14.622 329.957 16.194ZM319.427 14.052V18.714C319.847 18.702 320.231 18.696 320.579 18.696C320.939 18.684 321.203 18.678 321.371 18.678C322.451 18.678 323.183 18.444 323.567 17.976C323.951 17.508 324.143 16.962 324.143 16.338C324.143 15.726 323.951 15.198 323.567 14.754C323.183 14.31 322.541 14.088 321.641 14.088C321.209 14.088 320.837 14.082 320.525 14.07C320.213 14.058 319.847 14.052 319.427 14.052ZM339.329 26.526C339.137 26.526 338.951 26.526 338.771 26.526C338.591 26.514 338.411 26.502 338.231 26.49L337.115 30C336.767 30.084 336.389 30.144 335.981 30.18C335.573 30.228 335.147 30.252 334.703 30.252C334.223 30.252 333.737 30.216 333.245 30.144C332.765 30.072 332.369 29.97 332.057 29.838L331.859 29.532L338.861 10.164C339.485 10.068 340.085 10.008 340.661 9.984C341.249 9.96 341.783 9.948 342.263 9.948C342.707 9.948 343.187 9.96 343.703 9.984C344.219 10.008 344.801 10.068 345.449 10.164L352.253 29.73C351.833 29.922 351.299 30.066 350.651 30.162C350.003 30.27 349.481 30.324 349.085 30.324C348.425 30.324 347.789 30.198 347.177 29.946C346.565 29.694 346.103 29.028 345.791 27.948L345.341 26.49C345.149 26.502 344.963 26.514 344.783 26.526C344.603 26.526 344.411 26.526 344.207 26.526H339.329ZM340.049 20.838L339.653 22.08C339.833 22.068 340.013 22.062 340.193 22.062C340.373 22.05 340.559 22.044 340.751 22.044H343.001C343.181 22.044 343.343 22.05 343.487 22.062C343.643 22.062 343.799 22.068 343.955 22.08L343.577 20.856C343.301 19.908 343.025 18.852 342.749 17.688C342.473 16.524 342.221 15.468 341.993 14.52H341.777C341.525 15.432 341.243 16.476 340.931 17.652C340.631 18.828 340.337 19.89 340.049 20.838ZM369 25.392C368.928 27.144 368.622 28.368 368.082 29.064C367.542 29.76 366.582 30.108 365.202 30.108H358.218C357.186 30.108 356.376 29.82 355.788 29.244C355.212 28.656 354.924 27.87 354.924 26.886V10.2L355.14 9.984H357.3C358.392 9.984 359.22 10.26 359.784 10.812C360.348 11.352 360.63 12.258 360.63 13.53V25.572C361.866 25.452 362.976 25.392 363.96 25.392H369Z" fill="#364760"/>
</g>
<defs>
<filter id="filter0_d" x="0.0366211" y="0.426025" width="372.964" height="38.114" filterUnits="userSpaceOnUse" color-interpolation-filters="sRGB">
<feFlood flood-opacity="0" result="BackgroundImageFix"/>
<feColorMatrix in="SourceAlpha" type="matrix" values="0 0 0 0 0 0 0 0 0 0 0 0 0 0 0 0 0 0 127 0"/>
<feOffset dy="4"/>
<feGaussianBlur stdDeviation="2"/>
<feColorMatrix type="matrix" values="0 0 0 0 0 0 0 0 0 0 0 0 0 0 0 0 0 0 0.25 0"/>
<feBlend mode="normal" in2="BackgroundImageFix" result="effect1_dropShadow"/>
<feBlend mode="normal" in="SourceGraphic" in2="effect1_dropShadow" result="shape"/>
</filter>
</defs>
</svg>
