<svg width="202" height="18" viewBox="0 0 202 18" fill="none" xmlns="http://www.w3.org/2000/svg">
<path d="M4.89938 8.408C4.63538 7.792 4.38738 7.188 4.15538 6.596C3.92338 6.004 3.72338 5.48 3.55538 5.024L3.45938 5.06C3.52338 5.74 3.57538 6.512 3.61538 7.376C3.66338 8.232 3.69938 9.088 3.72338 9.944C3.74738 10.8 3.75938 11.56 3.75938 12.224V17C3.44738 17.056 3.13938 17.092 2.83538 17.108C2.53138 17.132 2.25938 17.144 2.01938 17.144C1.78738 17.144 1.49538 17.132 1.14338 17.108C0.799375 17.092 0.479375 17.056 0.183375 17V0.68C0.479375 0.607999 0.871375 0.555999 1.35938 0.524C1.84738 0.484 2.21138 0.464 2.45138 0.464C2.69938 0.464 3.02738 0.475999 3.43538 0.499999C3.84338 0.515999 4.25938 0.552 4.68338 0.607999L8.37938 9.176C8.68338 9.88 8.96338 10.552 9.21938 11.192C9.48338 11.832 9.70338 12.372 9.87938 12.812L9.97538 12.776C9.91138 12.032 9.85538 11.216 9.80738 10.328C9.76738 9.44 9.73538 8.584 9.71138 7.76C9.68738 6.936 9.67538 6.248 9.67538 5.696V2.768C9.67538 1.912 9.84738 1.312 10.1914 0.967999C10.5434 0.623999 11.0874 0.451999 11.8234 0.451999H13.0714L13.2274 0.607999V16.928C12.9234 17 12.5234 17.052 12.0274 17.084C11.5394 17.124 11.1674 17.144 10.9114 17.144C10.6634 17.144 10.3354 17.132 9.92738 17.108C9.51938 17.092 9.10738 17.056 8.69138 17L4.89938 8.408ZM15.8263 10.412C15.8263 8.268 16.3783 6.568 17.4823 5.312C18.5943 4.048 20.2143 3.416 22.3423 3.416C24.5023 3.416 26.1303 4.044 27.2263 5.3C28.3303 6.548 28.8823 8.252 28.8823 10.412C28.8823 12.572 28.3303 14.272 27.2263 15.512C26.1223 16.744 24.4943 17.36 22.3423 17.36C20.1823 17.36 18.5543 16.736 17.4583 15.488C16.3703 14.24 15.8263 12.548 15.8263 10.412ZM19.7023 10.412C19.7023 10.868 19.7303 11.34 19.7863 11.828C19.8503 12.308 19.9703 12.756 20.1463 13.172C20.3303 13.588 20.5983 13.928 20.9503 14.192C21.3023 14.448 21.7703 14.576 22.3543 14.576C22.9383 14.576 23.4063 14.448 23.7583 14.192C24.1103 13.928 24.3743 13.588 24.5503 13.172C24.7343 12.756 24.8543 12.308 24.9103 11.828C24.9743 11.34 25.0063 10.868 25.0063 10.412C25.0063 9.948 24.9743 9.472 24.9103 8.984C24.8543 8.488 24.7343 8.032 24.5503 7.616C24.3743 7.192 24.1103 6.852 23.7583 6.596C23.4063 6.332 22.9383 6.2 22.3543 6.2C21.7703 6.2 21.3023 6.332 20.9503 6.596C20.5983 6.852 20.3303 7.192 20.1463 7.616C19.9703 8.032 19.8503 8.488 19.7863 8.984C19.7303 9.472 19.7023 9.948 19.7023 10.412ZM32.0758 3.776C32.4598 3.704 32.8798 3.656 33.3358 3.632C33.7918 3.6 34.1758 3.584 34.4878 3.584C34.7838 3.584 35.1678 3.6 35.6398 3.632C36.1118 3.656 36.5078 3.704 36.8278 3.776L38.0038 8.984C38.0758 9.296 38.1598 9.72 38.2558 10.256C38.3518 10.784 38.4478 11.352 38.5438 11.96H38.6998C38.8918 10.68 39.0718 9.688 39.2398 8.984L40.4038 3.776C40.7798 3.704 41.1918 3.656 41.6398 3.632C42.0878 3.6 42.4598 3.584 42.7558 3.584C43.0678 3.584 43.4558 3.6 43.9198 3.632C44.3838 3.656 44.7998 3.704 45.1678 3.776L46.5238 16.952C46.0038 17.08 45.3758 17.144 44.6398 17.144C44.3598 17.144 44.0598 17.132 43.7398 17.108C43.4278 17.084 43.1478 17.048 42.8998 17L42.5518 12.752C42.5118 12.208 42.4878 11.612 42.4798 10.964C42.4718 10.316 42.4718 9.684 42.4798 9.068C42.4878 8.444 42.4878 7.904 42.4798 7.448H42.3358L40.5718 14.972C40.2998 15.02 39.9678 15.056 39.5758 15.08C39.1838 15.096 38.8598 15.104 38.6038 15.104C38.3398 15.104 38.0118 15.096 37.6198 15.08C37.2358 15.056 36.9158 15.02 36.6598 14.972L34.9078 7.448H34.7398C34.7398 7.912 34.7398 8.452 34.7398 9.068C34.7478 9.684 34.7478 10.316 34.7398 10.964C34.7318 11.612 34.7038 12.216 34.6558 12.776L34.3438 17C34.0878 17.048 33.8078 17.084 33.5038 17.108C33.2078 17.132 32.9198 17.144 32.6398 17.144C31.8958 17.144 31.2558 17.08 30.7198 16.952L32.0758 3.776ZM49.6022 3.752C50.0182 3.736 50.5182 3.72 51.1022 3.704C51.6942 3.688 52.3022 3.676 52.9262 3.668C53.5502 3.66 54.1222 3.656 54.6422 3.656C55.6262 3.656 56.5062 3.768 57.2822 3.992C58.0662 4.216 58.6822 4.588 59.1302 5.108C59.5782 5.62 59.8022 6.308 59.8022 7.172C59.8022 7.732 59.6462 8.264 59.3342 8.768C59.0302 9.272 58.6102 9.628 58.0742 9.836C58.7622 10.052 59.3382 10.476 59.8022 11.108C60.2662 11.732 60.4982 12.408 60.4982 13.136C60.4982 14.16 60.2582 14.96 59.7782 15.536C59.3062 16.104 58.6502 16.508 57.8102 16.748C56.9782 16.98 56.0262 17.096 54.9542 17.096C54.1302 17.096 53.2742 17.088 52.3862 17.072C51.4982 17.064 50.5702 17.048 49.6022 17.024L49.4702 16.904V3.896L49.6022 3.752ZM54.4742 6.236C54.3222 6.236 54.1182 6.236 53.8622 6.236C53.6062 6.236 53.3622 6.228 53.1302 6.212V8.792H54.4502C55.0902 8.792 55.5262 8.66 55.7582 8.396C55.9902 8.132 56.1062 7.836 56.1062 7.508C56.1062 7.188 55.9902 6.896 55.7582 6.632C55.5342 6.368 55.1062 6.236 54.4742 6.236ZM53.1302 14.516C53.4502 14.5 53.7622 14.492 54.0662 14.492C54.3702 14.492 54.6462 14.492 54.8942 14.492C55.6222 14.492 56.1022 14.328 56.3342 14C56.5742 13.664 56.6942 13.32 56.6942 12.968C56.6942 12.584 56.5502 12.224 56.2622 11.888C55.9822 11.552 55.4622 11.384 54.7022 11.384H53.1302V14.516ZM73.7931 7.796C73.7931 8.412 73.6531 8.96 73.3731 9.44C73.0931 9.92 72.7411 10.316 72.3171 10.628C71.9011 10.94 71.4851 11.14 71.0691 11.228C71.5011 11.372 71.8571 11.592 72.1371 11.888C72.4251 12.184 72.6731 12.564 72.8811 13.028L73.5051 14.456C73.6491 14.784 73.8131 15.088 73.9971 15.368C74.1811 15.64 74.3851 15.872 74.6091 16.064C74.3771 16.352 74.0291 16.62 73.5651 16.868C73.1011 17.108 72.5971 17.228 72.0531 17.228C71.5171 17.228 71.0811 17.1 70.7451 16.844C70.4171 16.58 70.1291 16.16 69.8811 15.584L68.8251 13.16C68.6571 12.768 68.4491 12.532 68.2011 12.452C67.9531 12.372 67.6331 12.332 67.2411 12.332H66.7731V17C66.4531 17.056 66.1211 17.092 65.7771 17.108C65.4411 17.132 65.1531 17.144 64.9131 17.144C64.6891 17.144 64.3931 17.132 64.0251 17.108C63.6571 17.092 63.3211 17.056 63.0171 17V3.896L63.1491 3.752C64.1171 3.728 65.0251 3.708 65.8731 3.692C66.7291 3.668 67.5811 3.656 68.4291 3.656C69.3891 3.656 70.2771 3.784 71.0931 4.04C71.9091 4.288 72.5611 4.716 73.0491 5.324C73.5451 5.924 73.7931 6.748 73.7931 7.796ZM66.7731 6.368V9.476C67.0531 9.468 67.3091 9.464 67.5411 9.464C67.7811 9.456 67.9571 9.452 68.0691 9.452C68.7891 9.452 69.2771 9.296 69.5331 8.984C69.7891 8.672 69.9171 8.308 69.9171 7.892C69.9171 7.484 69.7891 7.132 69.5331 6.836C69.2771 6.54 68.8491 6.392 68.2491 6.392C67.9611 6.392 67.7131 6.388 67.5051 6.38C67.2971 6.372 67.0531 6.368 66.7731 6.368ZM86.7491 13.988C86.7491 15.132 86.5691 15.928 86.2091 16.376C85.8571 16.824 85.2571 17.048 84.4091 17.048H78.8771C78.1971 17.048 77.6611 16.856 77.2691 16.472C76.8771 16.08 76.6811 15.556 76.6811 14.9V3.908L76.8131 3.776H86.3051C86.3611 4.048 86.3931 4.308 86.4011 4.556C86.4091 4.804 86.4131 5.04 86.4131 5.264C86.4131 5.48 86.3891 5.724 86.3411 5.996C86.3011 6.268 86.2291 6.544 86.1251 6.824H81.9251C81.5891 6.824 81.0811 6.82 80.4011 6.812C80.4091 7.06 80.4131 7.272 80.4131 7.448C80.4211 7.624 80.4251 7.836 80.4251 8.084V8.876C81.0891 8.868 81.5891 8.864 81.9251 8.864H84.9971C85.0771 9.08 85.1291 9.328 85.1531 9.608C85.1851 9.88 85.2011 10.112 85.2011 10.304C85.2011 10.528 85.1851 10.78 85.1531 11.06C85.1291 11.332 85.0771 11.58 84.9971 11.804H81.9251C81.7731 11.804 81.5611 11.804 81.2891 11.804C81.0171 11.804 80.7291 11.804 80.4251 11.804V12.584C80.4251 12.88 80.4211 13.124 80.4131 13.316C80.4051 13.508 80.4011 13.748 80.4011 14.036V14.06C80.6811 14.044 80.9411 14.028 81.1811 14.012C81.4211 13.996 81.7131 13.988 82.0571 13.988H86.7491ZM103.298 7.136C103.314 6.472 103.246 5.848 103.094 5.264C102.95 4.672 102.682 4.196 102.29 3.836C101.906 3.468 101.362 3.284 100.658 3.284C99.6263 3.284 98.8903 3.764 98.4503 4.724C98.0183 5.676 97.8023 7.064 97.8023 8.888C97.8023 10.592 98.0863 11.872 98.6543 12.728C99.2303 13.584 100.042 14.012 101.09 14.012C101.922 14.012 102.67 13.836 103.334 13.484C104.006 13.132 104.618 12.748 105.17 12.332C105.546 12.588 105.91 12.952 106.262 13.424C106.622 13.896 106.846 14.356 106.934 14.804C106.47 15.26 105.894 15.684 105.206 16.076C104.526 16.46 103.774 16.768 102.95 17C102.126 17.24 101.27 17.36 100.382 17.36C99.1263 17.36 98.0703 17.116 97.2143 16.628C96.3663 16.132 95.6903 15.476 95.1863 14.66C94.6823 13.836 94.3183 12.924 94.0943 11.924C93.8783 10.916 93.7703 9.896 93.7703 8.864C93.7703 6.856 94.0863 5.216 94.7183 3.944C95.3583 2.672 96.2103 1.736 97.2743 1.136C98.3383 0.535999 99.5103 0.235999 100.79 0.235999C102.03 0.235999 103.11 0.455999 104.03 0.896C104.958 1.336 105.674 1.932 106.178 2.684C106.69 3.436 106.946 4.284 106.946 5.228C106.946 5.972 106.75 6.512 106.358 6.848C105.974 7.176 105.438 7.34 104.75 7.34C104.47 7.34 104.214 7.32 103.982 7.28C103.758 7.24 103.53 7.192 103.298 7.136ZM108.264 10.412C108.264 8.268 108.816 6.568 109.92 5.312C111.032 4.048 112.652 3.416 114.78 3.416C116.94 3.416 118.568 4.044 119.664 5.3C120.768 6.548 121.32 8.252 121.32 10.412C121.32 12.572 120.768 14.272 119.664 15.512C118.56 16.744 116.932 17.36 114.78 17.36C112.62 17.36 110.992 16.736 109.896 15.488C108.808 14.24 108.264 12.548 108.264 10.412ZM112.14 10.412C112.14 10.868 112.168 11.34 112.224 11.828C112.288 12.308 112.408 12.756 112.584 13.172C112.768 13.588 113.036 13.928 113.388 14.192C113.74 14.448 114.208 14.576 114.792 14.576C115.376 14.576 115.844 14.448 116.196 14.192C116.548 13.928 116.812 13.588 116.988 13.172C117.172 12.756 117.292 12.308 117.348 11.828C117.412 11.34 117.444 10.868 117.444 10.412C117.444 9.948 117.412 9.472 117.348 8.984C117.292 8.488 117.172 8.032 116.988 7.616C116.812 7.192 116.548 6.852 116.196 6.596C115.844 6.332 115.376 6.2 114.792 6.2C114.208 6.2 113.74 6.332 113.388 6.596C113.036 6.852 112.768 7.192 112.584 7.616C112.408 8.032 112.288 8.488 112.224 8.984C112.168 9.472 112.14 9.948 112.14 10.412ZM124.513 3.776C124.897 3.704 125.317 3.656 125.773 3.632C126.229 3.6 126.613 3.584 126.925 3.584C127.221 3.584 127.605 3.6 128.077 3.632C128.549 3.656 128.945 3.704 129.265 3.776L130.441 8.984C130.513 9.296 130.597 9.72 130.693 10.256C130.789 10.784 130.885 11.352 130.981 11.96H131.137C131.329 10.68 131.509 9.688 131.677 8.984L132.841 3.776C133.217 3.704 133.629 3.656 134.077 3.632C134.525 3.6 134.897 3.584 135.193 3.584C135.505 3.584 135.893 3.6 136.357 3.632C136.821 3.656 137.237 3.704 137.605 3.776L138.961 16.952C138.441 17.08 137.813 17.144 137.077 17.144C136.797 17.144 136.497 17.132 136.177 17.108C135.865 17.084 135.585 17.048 135.337 17L134.989 12.752C134.949 12.208 134.925 11.612 134.917 10.964C134.909 10.316 134.909 9.684 134.917 9.068C134.925 8.444 134.925 7.904 134.917 7.448H134.773L133.009 14.972C132.737 15.02 132.405 15.056 132.013 15.08C131.621 15.096 131.297 15.104 131.041 15.104C130.777 15.104 130.449 15.096 130.057 15.08C129.673 15.056 129.353 15.02 129.097 14.972L127.345 7.448H127.177C127.177 7.912 127.177 8.452 127.177 9.068C127.185 9.684 127.185 10.316 127.177 10.964C127.169 11.612 127.141 12.216 127.093 12.776L126.781 17C126.525 17.048 126.245 17.084 125.941 17.108C125.645 17.132 125.357 17.144 125.077 17.144C124.333 17.144 123.693 17.08 123.157 16.952L124.513 3.776ZM152.42 8.312C152.42 9.352 152.184 10.216 151.712 10.904C151.248 11.584 150.608 12.092 149.792 12.428C148.976 12.756 148.048 12.92 147.008 12.92H145.7V17C145.38 17.056 145.052 17.092 144.716 17.108C144.38 17.132 144.092 17.144 143.852 17.144C143.628 17.144 143.324 17.132 142.94 17.108C142.556 17.092 142.212 17.056 141.908 17V3.896L142.04 3.752C142.688 3.736 143.468 3.716 144.38 3.692C145.292 3.668 146.168 3.656 147.008 3.656C148.056 3.656 148.988 3.816 149.804 4.136C150.62 4.456 151.26 4.96 151.724 5.648C152.188 6.336 152.42 7.224 152.42 8.312ZM145.7 6.464V10.136C145.916 10.128 146.112 10.124 146.288 10.124C146.464 10.116 146.596 10.112 146.684 10.112C147.212 10.112 147.608 10.016 147.872 9.824C148.144 9.624 148.324 9.384 148.412 9.104C148.5 8.816 148.544 8.544 148.544 8.288C148.544 8.048 148.5 7.788 148.412 7.508C148.324 7.228 148.144 6.988 147.872 6.788C147.608 6.588 147.212 6.488 146.684 6.488C146.484 6.488 146.34 6.488 146.252 6.488C146.164 6.48 145.98 6.472 145.7 6.464ZM164.064 13.928C164.016 15.096 163.812 15.912 163.452 16.376C163.092 16.84 162.452 17.072 161.532 17.072H156.876C156.188 17.072 155.648 16.88 155.256 16.496C154.872 16.104 154.68 15.58 154.68 14.924V3.8L154.824 3.656H156.264C156.992 3.656 157.544 3.84 157.92 4.208C158.296 4.568 158.484 5.172 158.484 6.02V14.048C159.308 13.968 160.048 13.928 160.704 13.928H164.064ZM176.374 13.988C176.374 15.132 176.194 15.928 175.834 16.376C175.482 16.824 174.882 17.048 174.034 17.048H168.502C167.822 17.048 167.286 16.856 166.894 16.472C166.502 16.08 166.306 15.556 166.306 14.9V3.908L166.438 3.776H175.93C175.986 4.048 176.018 4.308 176.026 4.556C176.034 4.804 176.038 5.04 176.038 5.264C176.038 5.48 176.014 5.724 175.966 5.996C175.926 6.268 175.854 6.544 175.75 6.824H171.55C171.214 6.824 170.706 6.82 170.026 6.812C170.034 7.06 170.038 7.272 170.038 7.448C170.046 7.624 170.05 7.836 170.05 8.084V8.876C170.714 8.868 171.214 8.864 171.55 8.864H174.622C174.702 9.08 174.754 9.328 174.778 9.608C174.81 9.88 174.826 10.112 174.826 10.304C174.826 10.528 174.81 10.78 174.778 11.06C174.754 11.332 174.702 11.58 174.622 11.804H171.55C171.398 11.804 171.186 11.804 170.914 11.804C170.642 11.804 170.354 11.804 170.05 11.804V12.584C170.05 12.88 170.046 13.124 170.038 13.316C170.03 13.508 170.026 13.748 170.026 14.036V14.06C170.306 14.044 170.566 14.028 170.806 14.012C171.046 13.996 171.338 13.988 171.682 13.988H176.374ZM181.002 8.276C181.002 8.02 181.006 7.784 181.014 7.568C181.022 7.344 181.026 7.096 181.026 6.824C180.858 6.824 180.626 6.828 180.33 6.836C180.042 6.844 179.814 6.848 179.646 6.848H177.426C177.362 6.56 177.322 6.292 177.306 6.044C177.29 5.788 177.282 5.556 177.282 5.348C177.282 5.14 177.29 4.896 177.306 4.616C177.322 4.328 177.362 4.048 177.426 3.776H188.286C188.342 3.992 188.382 4.236 188.406 4.508C188.438 4.78 188.454 5 188.454 5.168C188.454 5.712 188.31 6.128 188.022 6.416C187.734 6.704 187.254 6.848 186.582 6.848H186.09C185.922 6.848 185.698 6.844 185.418 6.836C185.146 6.828 184.934 6.824 184.782 6.824C184.782 7.096 184.786 7.344 184.794 7.568C184.802 7.784 184.806 8.02 184.806 8.276V17C184.582 17.048 184.274 17.084 183.882 17.108C183.49 17.132 183.162 17.144 182.898 17.144C182.65 17.144 182.338 17.132 181.962 17.108C181.586 17.084 181.266 17.048 181.002 17V8.276ZM188.842 10.412C188.842 8.268 189.394 6.568 190.498 5.312C191.61 4.048 193.23 3.416 195.358 3.416C197.518 3.416 199.146 4.044 200.242 5.3C201.346 6.548 201.898 8.252 201.898 10.412C201.898 12.572 201.346 14.272 200.242 15.512C199.138 16.744 197.51 17.36 195.358 17.36C193.198 17.36 191.57 16.736 190.474 15.488C189.386 14.24 188.842 12.548 188.842 10.412ZM192.718 10.412C192.718 10.868 192.746 11.34 192.802 11.828C192.866 12.308 192.986 12.756 193.162 13.172C193.346 13.588 193.614 13.928 193.966 14.192C194.318 14.448 194.786 14.576 195.37 14.576C195.954 14.576 196.422 14.448 196.774 14.192C197.126 13.928 197.39 13.588 197.566 13.172C197.75 12.756 197.87 12.308 197.926 11.828C197.99 11.34 198.022 10.868 198.022 10.412C198.022 9.948 197.99 9.472 197.926 8.984C197.87 8.488 197.75 8.032 197.566 7.616C197.39 7.192 197.126 6.852 196.774 6.596C196.422 6.332 195.954 6.2 195.37 6.2C194.786 6.2 194.318 6.332 193.966 6.596C193.614 6.852 193.346 7.192 193.162 7.616C192.986 8.032 192.866 8.488 192.802 8.984C192.746 9.472 192.718 9.948 192.718 10.412Z" fill="#364760"/>
</svg>
