<svg width="187" height="21" viewBox="0 0 187 21" fill="none" xmlns="http://www.w3.org/2000/svg">
<path d="M5.61422 11.408C5.35022 10.792 5.10222 10.188 4.87022 9.596C4.63822 9.004 4.43822 8.48 4.27022 8.024L4.17422 8.06C4.23822 8.74 4.29022 9.512 4.33022 10.376C4.37822 11.232 4.41422 12.088 4.43822 12.944C4.46222 13.8 4.47422 14.56 4.47422 15.224V20C4.16222 20.056 3.85422 20.092 3.55022 20.108C3.24622 20.132 2.97422 20.144 2.73422 20.144C2.50222 20.144 2.21022 20.132 1.85822 20.108C1.51422 20.092 1.19422 20.056 0.898219 20V3.68C1.19422 3.608 1.58622 3.556 2.07422 3.524C2.56222 3.484 2.92622 3.464 3.16622 3.464C3.41422 3.464 3.74222 3.476 4.15022 3.5C4.55822 3.516 4.97422 3.552 5.39822 3.608L9.09422 12.176C9.39822 12.88 9.67822 13.552 9.93422 14.192C10.1982 14.832 10.4182 15.372 10.5942 15.812L10.6902 15.776C10.6262 15.032 10.5702 14.216 10.5222 13.328C10.4822 12.44 10.4502 11.584 10.4262 10.76C10.4022 9.936 10.3902 9.248 10.3902 8.696V5.768C10.3902 4.912 10.5622 4.312 10.9062 3.968C11.2582 3.624 11.8022 3.452 12.5382 3.452H13.7862L13.9422 3.608V19.928C13.6382 20 13.2382 20.052 12.7422 20.084C12.2542 20.124 11.8822 20.144 11.6262 20.144C11.3782 20.144 11.0502 20.132 10.6422 20.108C10.2342 20.092 9.82222 20.056 9.40622 20L5.61422 11.408ZM29.0092 15.044C29.0092 16.7 28.5132 18 27.5212 18.944C26.5372 19.888 25.0772 20.36 23.1412 20.36C21.2052 20.36 19.7412 19.888 18.7492 18.944C17.7652 18 17.2732 16.7 17.2732 15.044V6.776L17.4172 6.632H18.7852C19.5132 6.632 20.0732 6.816 20.4652 7.184C20.8652 7.552 21.0652 8.172 21.0652 9.044V15.032C21.0652 15.76 21.2172 16.332 21.5212 16.748C21.8252 17.164 22.3652 17.372 23.1412 17.372C23.9252 17.372 24.4652 17.164 24.7612 16.748C25.0572 16.332 25.2052 15.76 25.2052 15.032V6.776C25.5252 6.712 25.8532 6.672 26.1892 6.656C26.5252 6.64 26.8172 6.632 27.0652 6.632C27.2892 6.632 27.5932 6.644 27.9772 6.668C28.3612 6.684 28.7052 6.724 29.0092 6.788V15.044ZM24.5332 0.283998C24.9732 0.419999 25.4212 0.695999 25.8772 1.112C26.3412 1.52 26.6452 1.964 26.7892 2.444L22.3492 5.78C22.0372 5.684 21.7332 5.504 21.4372 5.24C21.1412 4.976 20.9292 4.672 20.8012 4.328L24.5332 0.283998ZM32.8844 6.776C33.2684 6.704 33.6884 6.656 34.1444 6.632C34.6004 6.6 34.9844 6.584 35.2964 6.584C35.5924 6.584 35.9764 6.6 36.4484 6.632C36.9204 6.656 37.3164 6.704 37.6364 6.776L38.8124 11.984C38.8844 12.296 38.9684 12.72 39.0644 13.256C39.1604 13.784 39.2564 14.352 39.3524 14.96H39.5084C39.7004 13.68 39.8804 12.688 40.0484 11.984L41.2124 6.776C41.5884 6.704 42.0004 6.656 42.4484 6.632C42.8964 6.6 43.2684 6.584 43.5644 6.584C43.8764 6.584 44.2644 6.6 44.7284 6.632C45.1924 6.656 45.6084 6.704 45.9764 6.776L47.3324 19.952C46.8124 20.08 46.1844 20.144 45.4484 20.144C45.1684 20.144 44.8684 20.132 44.5484 20.108C44.2364 20.084 43.9564 20.048 43.7084 20L43.3604 15.752C43.3204 15.208 43.2964 14.612 43.2884 13.964C43.2804 13.316 43.2804 12.684 43.2884 12.068C43.2964 11.444 43.2964 10.904 43.2884 10.448H43.1444L41.3804 17.972C41.1084 18.02 40.7764 18.056 40.3844 18.08C39.9924 18.096 39.6684 18.104 39.4124 18.104C39.1484 18.104 38.8204 18.096 38.4284 18.08C38.0444 18.056 37.7244 18.02 37.4684 17.972L35.7164 10.448H35.5484C35.5484 10.912 35.5484 11.452 35.5484 12.068C35.5564 12.684 35.5564 13.316 35.5484 13.964C35.5404 14.612 35.5124 15.216 35.4644 15.776L35.1524 20C34.8964 20.048 34.6164 20.084 34.3124 20.108C34.0164 20.132 33.7284 20.144 33.4484 20.144C32.7044 20.144 32.0644 20.08 31.5284 19.952L32.8844 6.776ZM60.3468 16.988C60.3468 18.132 60.1668 18.928 59.8068 19.376C59.4548 19.824 58.8548 20.048 58.0068 20.048H52.4748C51.7948 20.048 51.2588 19.856 50.8668 19.472C50.4748 19.08 50.2788 18.556 50.2788 17.9V6.908L50.4108 6.776H59.9028C59.9588 7.048 59.9908 7.308 59.9988 7.556C60.0068 7.804 60.0108 8.04 60.0108 8.264C60.0108 8.48 59.9868 8.724 59.9388 8.996C59.8988 9.268 59.8268 9.544 59.7228 9.824H55.5228C55.1868 9.824 54.6788 9.82 53.9988 9.812C54.0068 10.06 54.0108 10.272 54.0108 10.448C54.0188 10.624 54.0228 10.836 54.0228 11.084V11.876C54.6868 11.868 55.1868 11.864 55.5228 11.864H58.5948C58.6748 12.08 58.7268 12.328 58.7508 12.608C58.7828 12.88 58.7988 13.112 58.7988 13.304C58.7988 13.528 58.7828 13.78 58.7508 14.06C58.7268 14.332 58.6748 14.58 58.5948 14.804H55.5228C55.3708 14.804 55.1588 14.804 54.8868 14.804C54.6148 14.804 54.3268 14.804 54.0228 14.804V15.584C54.0228 15.88 54.0188 16.124 54.0108 16.316C54.0028 16.508 53.9988 16.748 53.9988 17.036V17.06C54.2788 17.044 54.5388 17.028 54.7788 17.012C55.0188 16.996 55.3108 16.988 55.6548 16.988H60.3468ZM73.7345 10.796C73.7345 11.412 73.5945 11.96 73.3145 12.44C73.0345 12.92 72.6825 13.316 72.2585 13.628C71.8425 13.94 71.4265 14.14 71.0105 14.228C71.4425 14.372 71.7985 14.592 72.0785 14.888C72.3665 15.184 72.6145 15.564 72.8225 16.028L73.4465 17.456C73.5905 17.784 73.7545 18.088 73.9385 18.368C74.1225 18.64 74.3265 18.872 74.5505 19.064C74.3185 19.352 73.9705 19.62 73.5065 19.868C73.0425 20.108 72.5385 20.228 71.9945 20.228C71.4585 20.228 71.0225 20.1 70.6865 19.844C70.3585 19.58 70.0705 19.16 69.8225 18.584L68.7665 16.16C68.5985 15.768 68.3905 15.532 68.1425 15.452C67.8945 15.372 67.5745 15.332 67.1825 15.332H66.7145V20C66.3945 20.056 66.0625 20.092 65.7185 20.108C65.3825 20.132 65.0945 20.144 64.8545 20.144C64.6305 20.144 64.3345 20.132 63.9665 20.108C63.5985 20.092 63.2625 20.056 62.9585 20V6.896L63.0905 6.752C64.0585 6.728 64.9665 6.708 65.8145 6.692C66.6705 6.668 67.5225 6.656 68.3705 6.656C69.3305 6.656 70.2185 6.784 71.0345 7.04C71.8505 7.288 72.5025 7.716 72.9905 8.324C73.4865 8.924 73.7345 9.748 73.7345 10.796ZM66.7145 9.368V12.476C66.9945 12.468 67.2505 12.464 67.4825 12.464C67.7225 12.456 67.8985 12.452 68.0105 12.452C68.7305 12.452 69.2185 12.296 69.4745 11.984C69.7305 11.672 69.8585 11.308 69.8585 10.892C69.8585 10.484 69.7305 10.132 69.4745 9.836C69.2185 9.54 68.7905 9.392 68.1905 9.392C67.9025 9.392 67.6545 9.388 67.4465 9.38C67.2385 9.372 66.9945 9.368 66.7145 9.368ZM75.5099 13.412C75.5099 11.268 76.0619 9.568 77.1659 8.312C78.2779 7.048 79.8979 6.416 82.0259 6.416C84.1859 6.416 85.8139 7.044 86.9099 8.3C88.0139 9.548 88.5659 11.252 88.5659 13.412C88.5659 15.572 88.0139 17.272 86.9099 18.512C85.8059 19.744 84.1779 20.36 82.0259 20.36C79.8659 20.36 78.2379 19.736 77.1419 18.488C76.0539 17.24 75.5099 15.548 75.5099 13.412ZM79.3859 13.412C79.3859 13.868 79.4139 14.34 79.4699 14.828C79.5339 15.308 79.6539 15.756 79.8299 16.172C80.0139 16.588 80.2819 16.928 80.6339 17.192C80.9859 17.448 81.4539 17.576 82.0379 17.576C82.6219 17.576 83.0899 17.448 83.4419 17.192C83.7939 16.928 84.0579 16.588 84.2339 16.172C84.4179 15.756 84.5379 15.308 84.5939 14.828C84.6579 14.34 84.6899 13.868 84.6899 13.412C84.6899 12.948 84.6579 12.472 84.5939 11.984C84.5379 11.488 84.4179 11.032 84.2339 10.616C84.0579 10.192 83.7939 9.852 83.4419 9.596C83.0899 9.332 82.6219 9.2 82.0379 9.2C81.4539 9.2 80.9859 9.332 80.6339 9.596C80.2819 9.852 80.0139 10.192 79.8299 10.616C79.6539 11.032 79.5339 11.488 79.4699 11.984C79.4139 12.472 79.3859 12.948 79.3859 13.412ZM104.974 10.136C104.99 9.472 104.922 8.848 104.77 8.264C104.626 7.672 104.358 7.196 103.966 6.836C103.582 6.468 103.038 6.284 102.334 6.284C101.302 6.284 100.566 6.764 100.126 7.724C99.694 8.676 99.478 10.064 99.478 11.888C99.478 13.592 99.762 14.872 100.33 15.728C100.906 16.584 101.718 17.012 102.766 17.012C103.598 17.012 104.346 16.836 105.01 16.484C105.682 16.132 106.294 15.748 106.846 15.332C107.222 15.588 107.586 15.952 107.938 16.424C108.298 16.896 108.522 17.356 108.61 17.804C108.146 18.26 107.57 18.684 106.882 19.076C106.202 19.46 105.45 19.768 104.626 20C103.802 20.24 102.946 20.36 102.058 20.36C100.802 20.36 99.746 20.116 98.89 19.628C98.042 19.132 97.366 18.476 96.862 17.66C96.358 16.836 95.994 15.924 95.77 14.924C95.554 13.916 95.446 12.896 95.446 11.864C95.446 9.856 95.762 8.216 96.394 6.944C97.034 5.672 97.886 4.736 98.95 4.136C100.014 3.536 101.186 3.236 102.466 3.236C103.706 3.236 104.786 3.456 105.706 3.896C106.634 4.336 107.35 4.932 107.854 5.684C108.366 6.436 108.622 7.284 108.622 8.228C108.622 8.972 108.426 9.512 108.034 9.848C107.65 10.176 107.114 10.34 106.426 10.34C106.146 10.34 105.89 10.32 105.658 10.28C105.434 10.24 105.206 10.192 104.974 10.136ZM121.003 16.988C121.003 18.132 120.823 18.928 120.463 19.376C120.111 19.824 119.511 20.048 118.663 20.048H113.131C112.451 20.048 111.915 19.856 111.523 19.472C111.131 19.08 110.935 18.556 110.935 17.9V6.908L111.067 6.776H120.559C120.615 7.048 120.647 7.308 120.655 7.556C120.663 7.804 120.667 8.04 120.667 8.264C120.667 8.48 120.643 8.724 120.595 8.996C120.555 9.268 120.483 9.544 120.379 9.824H116.179C115.843 9.824 115.335 9.82 114.655 9.812C114.663 10.06 114.667 10.272 114.667 10.448C114.675 10.624 114.679 10.836 114.679 11.084V11.876C115.343 11.868 115.843 11.864 116.179 11.864H119.251C119.331 12.08 119.383 12.328 119.407 12.608C119.439 12.88 119.455 13.112 119.455 13.304C119.455 13.528 119.439 13.78 119.407 14.06C119.383 14.332 119.331 14.58 119.251 14.804H116.179C116.027 14.804 115.815 14.804 115.543 14.804C115.271 14.804 114.983 14.804 114.679 14.804V15.584C114.679 15.88 114.675 16.124 114.667 16.316C114.659 16.508 114.655 16.748 114.655 17.036V17.06C114.935 17.044 115.195 17.028 115.435 17.012C115.675 16.996 115.967 16.988 116.311 16.988H121.003ZM132.951 16.928C132.903 18.096 132.699 18.912 132.339 19.376C131.979 19.84 131.339 20.072 130.419 20.072H125.763C125.075 20.072 124.535 19.88 124.143 19.496C123.759 19.104 123.567 18.58 123.567 17.924V6.8L123.711 6.656H125.151C125.879 6.656 126.431 6.84 126.807 7.208C127.183 7.568 127.371 8.172 127.371 9.02V17.048C128.195 16.968 128.935 16.928 129.591 16.928H132.951ZM146.384 15.044C146.384 16.7 145.888 18 144.896 18.944C143.912 19.888 142.452 20.36 140.516 20.36C138.58 20.36 137.116 19.888 136.124 18.944C135.14 18 134.648 16.7 134.648 15.044V6.776L134.792 6.632H136.16C136.888 6.632 137.448 6.816 137.84 7.184C138.24 7.552 138.44 8.172 138.44 9.044V15.032C138.44 15.76 138.592 16.332 138.896 16.748C139.2 17.164 139.74 17.372 140.516 17.372C141.3 17.372 141.84 17.164 142.136 16.748C142.432 16.332 142.58 15.76 142.58 15.032V6.776C142.9 6.712 143.228 6.672 143.564 6.656C143.9 6.64 144.192 6.632 144.44 6.632C144.664 6.632 144.968 6.644 145.352 6.668C145.736 6.684 146.08 6.724 146.384 6.788V15.044ZM158.943 16.928C158.895 18.096 158.691 18.912 158.331 19.376C157.971 19.84 157.331 20.072 156.411 20.072H151.755C151.067 20.072 150.527 19.88 150.135 19.496C149.751 19.104 149.559 18.58 149.559 17.924V6.8L149.703 6.656H151.143C151.871 6.656 152.423 6.84 152.799 7.208C153.175 7.568 153.363 8.172 153.363 9.02V17.048C154.187 16.968 154.927 16.928 155.583 16.928H158.943ZM164.545 17.684C164.417 17.684 164.293 17.684 164.173 17.684C164.053 17.676 163.933 17.668 163.813 17.66L163.069 20C162.837 20.056 162.585 20.096 162.313 20.12C162.041 20.152 161.757 20.168 161.461 20.168C161.141 20.168 160.817 20.144 160.489 20.096C160.169 20.048 159.905 19.98 159.697 19.892L159.565 19.688L164.233 6.776C164.649 6.712 165.049 6.672 165.433 6.656C165.825 6.64 166.181 6.632 166.501 6.632C166.797 6.632 167.117 6.64 167.461 6.656C167.805 6.672 168.193 6.712 168.625 6.776L173.161 19.82C172.881 19.948 172.525 20.044 172.093 20.108C171.661 20.18 171.313 20.216 171.049 20.216C170.609 20.216 170.185 20.132 169.777 19.964C169.369 19.796 169.061 19.352 168.853 18.632L168.553 17.66C168.425 17.668 168.301 17.676 168.181 17.684C168.061 17.684 167.933 17.684 167.797 17.684H164.545ZM165.025 13.892L164.761 14.72C164.881 14.712 165.001 14.708 165.121 14.708C165.241 14.7 165.365 14.696 165.493 14.696H166.993C167.113 14.696 167.221 14.7 167.317 14.708C167.421 14.708 167.525 14.712 167.629 14.72L167.377 13.904C167.193 13.272 167.009 12.568 166.825 11.792C166.641 11.016 166.473 10.312 166.321 9.68H166.177C166.009 10.288 165.821 10.984 165.613 11.768C165.413 12.552 165.217 13.26 165.025 13.892ZM185.766 10.796C185.766 11.412 185.626 11.96 185.346 12.44C185.066 12.92 184.714 13.316 184.29 13.628C183.874 13.94 183.458 14.14 183.042 14.228C183.474 14.372 183.83 14.592 184.11 14.888C184.398 15.184 184.646 15.564 184.854 16.028L185.478 17.456C185.622 17.784 185.786 18.088 185.97 18.368C186.154 18.64 186.358 18.872 186.582 19.064C186.35 19.352 186.002 19.62 185.538 19.868C185.074 20.108 184.57 20.228 184.026 20.228C183.49 20.228 183.054 20.1 182.718 19.844C182.39 19.58 182.102 19.16 181.854 18.584L180.798 16.16C180.63 15.768 180.422 15.532 180.174 15.452C179.926 15.372 179.606 15.332 179.214 15.332H178.746V20C178.426 20.056 178.094 20.092 177.75 20.108C177.414 20.132 177.126 20.144 176.886 20.144C176.662 20.144 176.366 20.132 175.998 20.108C175.63 20.092 175.294 20.056 174.99 20V6.896L175.122 6.752C176.09 6.728 176.998 6.708 177.846 6.692C178.702 6.668 179.554 6.656 180.402 6.656C181.362 6.656 182.25 6.784 183.066 7.04C183.882 7.288 184.534 7.716 185.022 8.324C185.518 8.924 185.766 9.748 185.766 10.796ZM178.746 9.368V12.476C179.026 12.468 179.282 12.464 179.514 12.464C179.754 12.456 179.93 12.452 180.042 12.452C180.762 12.452 181.25 12.296 181.506 11.984C181.762 11.672 181.89 11.308 181.89 10.892C181.89 10.484 181.762 10.132 181.506 9.836C181.25 9.54 180.822 9.392 180.222 9.392C179.934 9.392 179.686 9.388 179.478 9.38C179.27 9.372 179.026 9.368 178.746 9.368Z" fill="#364760"/>
</svg>
