<svg width="297" height="26" viewBox="0 0 297 26" fill="none" xmlns="http://www.w3.org/2000/svg">
<path d="M9.23892 19.852C9.04692 19.852 8.81892 19.846 8.55492 19.834C8.30292 19.822 8.05692 19.816 7.81692 19.816L6.28692 25.036C5.92692 25.12 5.53692 25.174 5.11692 25.198C4.70892 25.234 4.28292 25.252 3.83892 25.252C3.40692 25.252 2.91492 25.216 2.36292 25.144C1.82292 25.084 1.39092 24.988 1.06692 24.856L0.850922 24.55L8.80692 0.411999C9.26292 0.339998 9.80892 0.285998 10.4449 0.249998C11.0929 0.213999 11.6569 0.196 12.1369 0.196C12.5929 0.196 13.1449 0.219999 13.7929 0.267999C14.4409 0.303999 14.9989 0.363999 15.4669 0.447999L23.2069 24.622C22.8109 24.85 22.2949 25.024 21.6589 25.144C21.0349 25.264 20.4529 25.324 19.9129 25.324C19.0009 25.324 18.2869 25.114 17.7709 24.694C17.2549 24.262 16.8229 23.428 16.4749 22.192L15.7909 19.816C15.5629 19.816 15.3169 19.822 15.0529 19.834C14.7889 19.846 14.5609 19.852 14.3689 19.852H9.23892ZM9.95892 12.526L9.14892 15.316C9.37692 15.316 9.62292 15.316 9.88692 15.316C10.1509 15.304 10.3849 15.298 10.5889 15.298H13.2169C13.3969 15.298 13.6009 15.304 13.8289 15.316C14.0689 15.316 14.3029 15.316 14.5309 15.316L13.9009 13.066C13.6249 12.058 13.3009 10.87 12.9289 9.502C12.5569 8.134 12.2209 6.856 11.9209 5.668H11.7049C11.5849 6.34 11.4229 7.084 11.2189 7.9C11.0149 8.716 10.7989 9.532 10.5709 10.348C10.3549 11.152 10.1509 11.878 9.95892 12.526ZM24.168 23.506C24.168 23.05 24.258 22.546 24.438 21.994C24.618 21.43 24.864 20.908 25.176 20.428C25.488 19.948 25.83 19.588 26.202 19.348C27.09 19.828 28.08 20.242 29.172 20.59C30.264 20.926 31.332 21.094 32.376 21.094C33.048 21.094 33.6 20.956 34.032 20.68C34.476 20.404 34.698 20.014 34.698 19.51C34.698 19.186 34.572 18.892 34.32 18.628C34.068 18.352 33.63 18.1 33.006 17.872L30.018 16.702C29.094 16.366 28.23 15.946 27.426 15.442C26.622 14.938 25.974 14.32 25.482 13.588C24.99 12.856 24.744 11.98 24.744 10.96C24.744 9.088 25.464 7.564 26.904 6.388C28.344 5.212 30.282 4.624 32.718 4.624C34.098 4.624 35.466 4.786 36.822 5.11C38.19 5.422 39.336 5.782 40.26 6.19C40.26 7.006 40.092 7.81 39.756 8.602C39.42 9.394 38.958 10.018 38.37 10.474C37.482 10.078 36.516 9.748 35.472 9.484C34.428 9.208 33.486 9.07 32.646 9.07C32.022 9.07 31.542 9.202 31.206 9.466C30.882 9.73 30.72 10.048 30.72 10.42C30.72 10.768 30.882 11.032 31.206 11.212C31.53 11.392 31.932 11.572 32.412 11.752L35.382 12.886C37.038 13.486 38.352 14.314 39.324 15.37C40.308 16.414 40.8 17.704 40.8 19.24C40.8 20.596 40.434 21.742 39.702 22.678C38.982 23.614 37.992 24.322 36.732 24.802C35.484 25.282 34.074 25.528 32.502 25.54C30.63 25.54 28.962 25.324 27.498 24.892C26.046 24.46 24.936 23.998 24.168 23.506ZM44.3769 5.164C44.8329 5.068 45.3489 5.008 45.9249 4.984C46.5009 4.96 46.9569 4.948 47.2929 4.948C47.6529 4.948 48.0849 4.96 48.5889 4.984C49.1049 5.008 49.6029 5.068 50.0829 5.164V25C49.6029 25.084 49.1049 25.138 48.5889 25.162C48.0849 25.198 47.6529 25.216 47.2929 25.216C46.9569 25.216 46.5009 25.198 45.9249 25.162C45.3489 25.138 44.8329 25.084 44.3769 25V5.164ZM66.9728 19.744C66.9728 19.144 66.9848 18.544 67.0088 17.944C66.7928 17.944 66.5708 17.944 66.3428 17.944C66.1268 17.944 65.9168 17.944 65.7128 17.944C64.8248 17.944 64.1768 17.758 63.7688 17.386C63.3608 17.002 63.1568 16.396 63.1568 15.568C63.1568 15.244 63.1808 14.866 63.2288 14.434C63.2888 14.002 63.3608 13.672 63.4448 13.444C64.3088 13.408 65.1668 13.39 66.0188 13.39C66.8708 13.378 67.7348 13.372 68.6108 13.372C69.9908 13.372 70.9328 13.636 71.4368 14.164C71.9528 14.692 72.2108 15.442 72.2108 16.414V24.37C71.5748 24.574 70.7648 24.766 69.7808 24.946C68.7968 25.126 67.7768 25.27 66.7208 25.378C65.6648 25.486 64.7048 25.54 63.8408 25.54C61.4528 25.54 59.5208 25.102 58.0448 24.226C56.5808 23.35 55.5128 22.15 54.8408 20.626C54.1808 19.09 53.8508 17.35 53.8508 15.406C53.8508 12.838 54.3248 10.768 55.2728 9.196C56.2328 7.612 57.5048 6.454 59.0888 5.722C60.6728 4.99 62.4068 4.624 64.2908 4.624C65.7068 4.624 67.0688 4.768 68.3768 5.056C69.6968 5.332 70.8608 5.704 71.8688 6.172C71.8088 6.952 71.5748 7.768 71.1668 8.62C70.7708 9.46 70.3208 10.102 69.8168 10.546C67.9808 9.634 66.2348 9.178 64.5788 9.178C61.3028 9.178 59.6648 11.23 59.6648 15.334C59.6648 17.374 60.0848 18.88 60.9248 19.852C61.7648 20.824 63.0548 21.31 64.7948 21.31C65.1548 21.31 65.5208 21.298 65.8928 21.274C66.2648 21.238 66.6248 21.19 66.9728 21.13V19.744ZM83.492 15.946C83.408 15.754 83.276 15.454 83.096 15.046C82.916 14.626 82.724 14.176 82.52 13.696C82.316 13.216 82.124 12.766 81.944 12.346C81.776 11.926 81.644 11.62 81.548 11.428L81.422 11.482C81.47 12.43 81.518 13.456 81.566 14.56C81.614 15.652 81.65 16.654 81.674 17.566C81.71 18.466 81.728 19.12 81.728 19.528V25C81.26 25.084 80.81 25.138 80.378 25.162C79.946 25.198 79.544 25.216 79.172 25.216C78.836 25.216 78.416 25.198 77.912 25.162C77.42 25.138 76.952 25.084 76.508 25V5.29C76.952 5.182 77.504 5.098 78.164 5.038C78.824 4.978 79.334 4.948 79.694 4.948C80.066 4.948 80.594 4.96 81.278 4.984C81.962 4.996 82.526 5.056 82.97 5.164L87.2 14.182C87.284 14.35 87.422 14.656 87.614 15.1C87.818 15.544 88.034 16.03 88.262 16.558C88.49 17.086 88.7 17.584 88.892 18.052C89.096 18.508 89.246 18.844 89.342 19.06L89.504 19.024C89.456 18.232 89.39 17.308 89.306 16.252C89.234 15.196 89.168 14.176 89.108 13.192C89.048 12.208 89.018 11.422 89.018 10.834V8.026C89.018 6.754 89.294 5.92 89.846 5.524C90.398 5.116 91.22 4.912 92.312 4.912H94.166L94.382 5.164V24.892C93.914 25 93.35 25.078 92.69 25.126C92.03 25.186 91.526 25.216 91.178 25.216C90.938 25.216 90.608 25.21 90.188 25.198C89.768 25.186 89.336 25.168 88.892 25.144C88.46 25.12 88.1 25.072 87.812 25L83.492 15.946ZM104.611 21.526C104.419 21.526 104.233 21.526 104.053 21.526C103.873 21.514 103.693 21.502 103.513 21.49L102.397 25C102.049 25.084 101.671 25.144 101.263 25.18C100.855 25.228 100.429 25.252 99.9845 25.252C99.5045 25.252 99.0185 25.216 98.5265 25.144C98.0465 25.072 97.6505 24.97 97.3385 24.838L97.1405 24.532L104.143 5.164C104.767 5.068 105.367 5.008 105.943 4.984C106.531 4.96 107.065 4.948 107.545 4.948C107.989 4.948 108.469 4.96 108.985 4.984C109.501 5.008 110.083 5.068 110.731 5.164L117.535 24.73C117.115 24.922 116.581 25.066 115.933 25.162C115.285 25.27 114.763 25.324 114.367 25.324C113.707 25.324 113.071 25.198 112.459 24.946C111.847 24.694 111.385 24.028 111.073 22.948L110.623 21.49C110.431 21.502 110.245 21.514 110.065 21.526C109.885 21.526 109.693 21.526 109.489 21.526H104.611ZM105.331 15.838L104.935 17.08C105.115 17.068 105.295 17.062 105.475 17.062C105.655 17.05 105.841 17.044 106.033 17.044H108.283C108.463 17.044 108.625 17.05 108.769 17.062C108.925 17.062 109.081 17.068 109.237 17.08L108.859 15.856C108.583 14.908 108.307 13.852 108.031 12.688C107.755 11.524 107.503 10.468 107.275 9.52H107.059C106.807 10.432 106.525 11.476 106.213 12.652C105.913 13.828 105.619 14.89 105.331 15.838ZM136.442 11.194C136.442 12.118 136.232 12.94 135.812 13.66C135.392 14.38 134.864 14.974 134.228 15.442C133.604 15.91 132.98 16.21 132.356 16.342C133.004 16.558 133.538 16.888 133.958 17.332C134.39 17.776 134.762 18.346 135.074 19.042L136.01 21.184C136.226 21.676 136.472 22.132 136.748 22.552C137.024 22.96 137.33 23.308 137.666 23.596C137.318 24.028 136.796 24.43 136.1 24.802C135.404 25.162 134.648 25.342 133.832 25.342C133.028 25.342 132.374 25.15 131.87 24.766C131.378 24.37 130.946 23.74 130.574 22.876L128.99 19.24C128.738 18.652 128.426 18.298 128.054 18.178C127.682 18.058 127.202 17.998 126.614 17.998H125.912V25C125.432 25.084 124.934 25.138 124.418 25.162C123.914 25.198 123.482 25.216 123.122 25.216C122.786 25.216 122.342 25.198 121.79 25.162C121.238 25.138 120.734 25.084 120.278 25V5.344L120.476 5.128C121.928 5.092 123.29 5.062 124.562 5.038C125.846 5.002 127.124 4.984 128.396 4.984C129.836 4.984 131.168 5.176 132.392 5.56C133.616 5.932 134.594 6.574 135.326 7.486C136.07 8.386 136.442 9.622 136.442 11.194ZM125.912 9.052V13.714C126.332 13.702 126.716 13.696 127.064 13.696C127.424 13.684 127.688 13.678 127.856 13.678C128.936 13.678 129.668 13.444 130.052 12.976C130.436 12.508 130.628 11.962 130.628 11.338C130.628 10.726 130.436 10.198 130.052 9.754C129.668 9.31 129.026 9.088 128.126 9.088C127.694 9.088 127.322 9.082 127.01 9.07C126.698 9.058 126.332 9.052 125.912 9.052ZM148.432 19.528C148.936 19.828 149.458 20.086 149.998 20.302C150.55 20.506 151.108 20.608 151.672 20.608C152.98 20.608 153.844 20.212 154.264 19.42C154.684 18.628 154.894 17.524 154.894 16.108V0.411999C155.362 0.327999 155.872 0.273999 156.424 0.249998C156.988 0.213999 157.444 0.196 157.792 0.196C158.176 0.196 158.632 0.213999 159.16 0.249998C159.688 0.273999 160.192 0.327999 160.672 0.411999V15.568C160.672 17.452 160.444 19.132 159.988 20.608C159.544 22.084 158.716 23.248 157.504 24.1C156.304 24.94 154.576 25.36 152.32 25.36C151.372 25.36 150.37 25.234 149.314 24.982C148.258 24.718 147.304 24.316 146.452 23.776C146.56 23.056 146.782 22.312 147.118 21.544C147.466 20.776 147.904 20.104 148.432 19.528ZM180.731 20.482C180.731 22.198 180.461 23.392 179.921 24.064C179.393 24.736 178.493 25.072 177.221 25.072H168.923C167.903 25.072 167.099 24.784 166.511 24.208C165.923 23.62 165.629 22.834 165.629 21.85V5.362L165.827 5.164H180.065C180.149 5.572 180.197 5.962 180.209 6.334C180.221 6.706 180.227 7.06 180.227 7.396C180.227 7.72 180.191 8.086 180.119 8.494C180.059 8.902 179.951 9.316 179.795 9.736H173.495C172.991 9.736 172.229 9.73 171.209 9.718C171.221 10.09 171.227 10.408 171.227 10.672C171.239 10.936 171.245 11.254 171.245 11.626V12.814C172.241 12.802 172.991 12.796 173.495 12.796H178.103C178.223 13.12 178.301 13.492 178.337 13.912C178.385 14.32 178.409 14.668 178.409 14.956C178.409 15.292 178.385 15.67 178.337 16.09C178.301 16.498 178.223 16.87 178.103 17.206H173.495C173.267 17.206 172.949 17.206 172.541 17.206C172.133 17.206 171.701 17.206 171.245 17.206V18.376C171.245 18.82 171.239 19.186 171.227 19.474C171.215 19.762 171.209 20.122 171.209 20.554V20.59C171.629 20.566 172.019 20.542 172.379 20.518C172.739 20.494 173.177 20.482 173.693 20.482H180.731ZM190.337 25C189.845 25.084 189.341 25.138 188.825 25.162C188.321 25.198 187.877 25.216 187.493 25.216C187.109 25.216 186.659 25.198 186.143 25.162C185.639 25.138 185.141 25.084 184.649 25V5.326L184.847 5.164H198.797C198.881 5.488 198.941 5.854 198.977 6.262C199.025 6.67 199.049 7 199.049 7.252C199.049 8.068 198.833 8.704 198.401 9.16C197.969 9.616 197.249 9.844 196.241 9.844H192.407C192.047 9.844 191.693 9.844 191.345 9.844C191.009 9.832 190.673 9.826 190.337 9.826C190.337 10.078 190.337 10.336 190.337 10.6C190.337 10.852 190.337 11.104 190.337 11.356V13.228C190.481 13.228 190.619 13.228 190.751 13.228H196.745C196.853 13.54 196.925 13.906 196.961 14.326C197.009 14.734 197.033 15.082 197.033 15.37C197.033 15.694 197.009 16.078 196.961 16.522C196.925 16.966 196.853 17.35 196.745 17.674H190.751C190.619 17.674 190.481 17.674 190.337 17.674V25ZM205.122 21.526C204.93 21.526 204.744 21.526 204.564 21.526C204.384 21.514 204.204 21.502 204.024 21.49L202.908 25C202.56 25.084 202.182 25.144 201.774 25.18C201.366 25.228 200.94 25.252 200.496 25.252C200.016 25.252 199.53 25.216 199.038 25.144C198.558 25.072 198.162 24.97 197.85 24.838L197.652 24.532L204.654 5.164C205.278 5.068 205.878 5.008 206.454 4.984C207.042 4.96 207.576 4.948 208.056 4.948C208.5 4.948 208.98 4.96 209.496 4.984C210.012 5.008 210.594 5.068 211.242 5.164L218.046 24.73C217.626 24.922 217.092 25.066 216.444 25.162C215.796 25.27 215.274 25.324 214.878 25.324C214.218 25.324 213.582 25.198 212.97 24.946C212.358 24.694 211.896 24.028 211.584 22.948L211.134 21.49C210.942 21.502 210.756 21.514 210.576 21.526C210.396 21.526 210.204 21.526 210 21.526H205.122ZM205.842 15.838L205.446 17.08C205.626 17.068 205.806 17.062 205.986 17.062C206.166 17.05 206.352 17.044 206.544 17.044H208.794C208.974 17.044 209.136 17.05 209.28 17.062C209.436 17.062 209.592 17.068 209.748 17.08L209.37 15.856C209.094 14.908 208.818 13.852 208.542 12.688C208.266 11.524 208.014 10.468 207.786 9.52H207.57C207.318 10.432 207.036 11.476 206.724 12.652C206.424 13.828 206.13 14.89 205.842 15.838ZM222.161 11.914C222.161 11.53 222.167 11.176 222.179 10.852C222.191 10.516 222.197 10.144 222.197 9.736C221.945 9.736 221.597 9.742 221.153 9.754C220.721 9.766 220.379 9.772 220.127 9.772H216.797C216.701 9.34 216.641 8.938 216.617 8.566C216.593 8.182 216.581 7.834 216.581 7.522C216.581 7.21 216.593 6.844 216.617 6.424C216.641 5.992 216.701 5.572 216.797 5.164H233.087C233.171 5.488 233.231 5.854 233.267 6.262C233.315 6.67 233.339 7 233.339 7.252C233.339 8.068 233.123 8.692 232.691 9.124C232.259 9.556 231.539 9.772 230.531 9.772H229.793C229.541 9.772 229.205 9.766 228.785 9.754C228.377 9.742 228.059 9.736 227.831 9.736C227.831 10.144 227.837 10.516 227.849 10.852C227.861 11.176 227.867 11.53 227.867 11.914V25C227.531 25.072 227.069 25.126 226.481 25.162C225.893 25.198 225.401 25.216 225.005 25.216C224.633 25.216 224.165 25.198 223.601 25.162C223.037 25.126 222.557 25.072 222.161 25V11.914ZM253.01 17.566C253.01 20.05 252.266 22 250.778 23.416C249.302 24.832 247.112 25.54 244.208 25.54C241.304 25.54 239.108 24.832 237.62 23.416C236.144 22 235.406 20.05 235.406 17.566V5.164L235.622 4.948H237.674C238.766 4.948 239.606 5.224 240.194 5.776C240.794 6.328 241.094 7.258 241.094 8.566V17.548C241.094 18.64 241.322 19.498 241.778 20.122C242.234 20.746 243.044 21.058 244.208 21.058C245.384 21.058 246.194 20.746 246.638 20.122C247.082 19.498 247.304 18.64 247.304 17.548V5.164C247.784 5.068 248.276 5.008 248.78 4.984C249.284 4.96 249.722 4.948 250.094 4.948C250.43 4.948 250.886 4.966 251.462 5.002C252.038 5.026 252.554 5.086 253.01 5.182V17.566ZM274.008 11.194C274.008 12.118 273.798 12.94 273.378 13.66C272.958 14.38 272.43 14.974 271.794 15.442C271.17 15.91 270.546 16.21 269.922 16.342C270.57 16.558 271.104 16.888 271.524 17.332C271.956 17.776 272.328 18.346 272.64 19.042L273.576 21.184C273.792 21.676 274.038 22.132 274.314 22.552C274.59 22.96 274.896 23.308 275.232 23.596C274.884 24.028 274.362 24.43 273.666 24.802C272.97 25.162 272.214 25.342 271.398 25.342C270.594 25.342 269.94 25.15 269.436 24.766C268.944 24.37 268.512 23.74 268.14 22.876L266.556 19.24C266.304 18.652 265.992 18.298 265.62 18.178C265.248 18.058 264.768 17.998 264.18 17.998H263.478V25C262.998 25.084 262.5 25.138 261.984 25.162C261.48 25.198 261.048 25.216 260.688 25.216C260.352 25.216 259.908 25.198 259.356 25.162C258.804 25.138 258.3 25.084 257.844 25V5.344L258.042 5.128C259.494 5.092 260.856 5.062 262.128 5.038C263.412 5.002 264.69 4.984 265.962 4.984C267.402 4.984 268.734 5.176 269.958 5.56C271.182 5.932 272.16 6.574 272.892 7.486C273.636 8.386 274.008 9.622 274.008 11.194ZM263.478 9.052V13.714C263.898 13.702 264.282 13.696 264.63 13.696C264.99 13.684 265.254 13.678 265.422 13.678C266.502 13.678 267.234 13.444 267.618 12.976C268.002 12.508 268.194 11.962 268.194 11.338C268.194 10.726 268.002 10.198 267.618 9.754C267.234 9.31 266.592 9.088 265.692 9.088C265.26 9.088 264.888 9.082 264.576 9.07C264.264 9.058 263.898 9.052 263.478 9.052ZM283.38 21.526C283.188 21.526 283.002 21.526 282.822 21.526C282.642 21.514 282.462 21.502 282.282 21.49L281.166 25C280.818 25.084 280.44 25.144 280.032 25.18C279.624 25.228 279.198 25.252 278.754 25.252C278.274 25.252 277.788 25.216 277.296 25.144C276.816 25.072 276.42 24.97 276.108 24.838L275.91 24.532L282.912 5.164C283.536 5.068 284.136 5.008 284.712 4.984C285.3 4.96 285.834 4.948 286.314 4.948C286.758 4.948 287.238 4.96 287.754 4.984C288.27 5.008 288.852 5.068 289.5 5.164L296.304 24.73C295.884 24.922 295.35 25.066 294.702 25.162C294.054 25.27 293.532 25.324 293.136 25.324C292.476 25.324 291.84 25.198 291.228 24.946C290.616 24.694 290.154 24.028 289.842 22.948L289.392 21.49C289.2 21.502 289.014 21.514 288.834 21.526C288.654 21.526 288.462 21.526 288.258 21.526H283.38ZM284.1 15.838L283.704 17.08C283.884 17.068 284.064 17.062 284.244 17.062C284.424 17.05 284.61 17.044 284.802 17.044H287.052C287.232 17.044 287.394 17.05 287.538 17.062C287.694 17.062 287.85 17.068 288.006 17.08L287.628 15.856C287.352 14.908 287.076 13.852 286.8 12.688C286.524 11.524 286.272 10.468 286.044 9.52H285.828C285.576 10.432 285.294 11.476 284.982 12.652C284.682 13.828 284.388 14.89 284.1 15.838Z" fill="#364760"/>
</svg>
