<svg width="230" height="50" viewBox="0 0 230 50" fill="none" xmlns="http://www.w3.org/2000/svg">
<rect width="230" height="50" rx="10" fill="#1EBCBC"/>
<path d="M41.4768 21.204C41.5008 20.208 41.3988 19.272 41.1708 18.396C40.9548 17.508 40.5528 16.794 39.9648 16.254C39.3888 15.702 38.5728 15.426 37.5168 15.426C35.9688 15.426 34.8648 16.146 34.2048 17.586C33.5568 19.014 33.2328 21.096 33.2328 23.832C33.2328 26.388 33.6588 28.308 34.5108 29.592C35.3748 30.876 36.5928 31.518 38.1648 31.518C39.4128 31.518 40.5348 31.254 41.5308 30.726C42.5388 30.198 43.4568 29.622 44.2848 28.998C44.8488 29.382 45.3948 29.928 45.9228 30.636C46.4628 31.344 46.7988 32.034 46.9308 32.706C46.2348 33.39 45.3708 34.026 44.3388 34.614C43.3188 35.19 42.1908 35.652 40.9548 36C39.7188 36.36 38.4348 36.54 37.1028 36.54C35.2188 36.54 33.6348 36.174 32.3508 35.442C31.0788 34.698 30.0648 33.714 29.3088 32.49C28.5528 31.254 28.0068 29.886 27.6708 28.386C27.3468 26.874 27.1848 25.344 27.1848 23.796C27.1848 20.784 27.6588 18.324 28.6068 16.416C29.5668 14.508 30.8448 13.104 32.4408 12.204C34.0368 11.304 35.7948 10.854 37.7148 10.854C39.5748 10.854 41.1948 11.184 42.5748 11.844C43.9668 12.504 45.0408 13.398 45.7968 14.526C46.5648 15.654 46.9488 16.926 46.9488 18.342C46.9488 19.458 46.6548 20.268 46.0668 20.772C45.4908 21.264 44.6868 21.51 43.6548 21.51C43.2348 21.51 42.8508 21.48 42.5028 21.42C42.1668 21.36 41.8248 21.288 41.4768 21.204ZM48.9252 26.118C48.9252 22.902 49.7532 20.352 51.4092 18.468C53.0772 16.572 55.5072 15.624 58.6992 15.624C61.9392 15.624 64.3812 16.566 66.0252 18.45C67.6812 20.322 68.5092 22.878 68.5092 26.118C68.5092 29.358 67.6812 31.908 66.0252 33.768C64.3692 35.616 61.9272 36.54 58.6992 36.54C55.4592 36.54 53.0172 35.604 51.3732 33.732C49.7412 31.86 48.9252 29.322 48.9252 26.118ZM54.7392 26.118C54.7392 26.802 54.7812 27.51 54.8652 28.242C54.9612 28.962 55.1412 29.634 55.4052 30.258C55.6812 30.882 56.0832 31.392 56.6112 31.788C57.1392 32.172 57.8412 32.364 58.7172 32.364C59.5932 32.364 60.2952 32.172 60.8232 31.788C61.3512 31.392 61.7472 30.882 62.0112 30.258C62.2872 29.634 62.4672 28.962 62.5512 28.242C62.6472 27.51 62.6952 26.802 62.6952 26.118C62.6952 25.422 62.6472 24.708 62.5512 23.976C62.4672 23.232 62.2872 22.548 62.0112 21.924C61.7472 21.288 61.3512 20.778 60.8232 20.394C60.2952 19.998 59.5932 19.8 58.7172 19.8C57.8412 19.8 57.1392 19.998 56.6112 20.394C56.0832 20.778 55.6812 21.288 55.4052 21.924C55.1412 22.548 54.9612 23.232 54.8652 23.976C54.7812 24.708 54.7392 25.422 54.7392 26.118ZM79.1992 26.946C79.1152 26.754 78.9832 26.454 78.8032 26.046C78.6232 25.626 78.4312 25.176 78.2272 24.696C78.0232 24.216 77.8312 23.766 77.6512 23.346C77.4832 22.926 77.3512 22.62 77.2552 22.428L77.1292 22.482C77.1772 23.43 77.2252 24.456 77.2732 25.56C77.3212 26.652 77.3572 27.654 77.3812 28.566C77.4172 29.466 77.4352 30.12 77.4352 30.528V36C76.9672 36.084 76.5172 36.138 76.0852 36.162C75.6532 36.198 75.2512 36.216 74.8792 36.216C74.5432 36.216 74.1232 36.198 73.6192 36.162C73.1272 36.138 72.6592 36.084 72.2152 36V16.29C72.6592 16.182 73.2112 16.098 73.8712 16.038C74.5312 15.978 75.0412 15.948 75.4012 15.948C75.7732 15.948 76.3012 15.96 76.9852 15.984C77.6692 15.996 78.2332 16.056 78.6772 16.164L82.9072 25.182C82.9912 25.35 83.1292 25.656 83.3212 26.1C83.5252 26.544 83.7412 27.03 83.9692 27.558C84.1972 28.086 84.4072 28.584 84.5992 29.052C84.8032 29.508 84.9532 29.844 85.0492 30.06L85.2112 30.024C85.1632 29.232 85.0972 28.308 85.0132 27.252C84.9412 26.196 84.8752 25.176 84.8152 24.192C84.7552 23.208 84.7252 22.422 84.7252 21.834V19.026C84.7252 17.754 85.0012 16.92 85.5532 16.524C86.1052 16.116 86.9272 15.912 88.0192 15.912H89.8732L90.0892 16.164V35.892C89.6212 36 89.0572 36.078 88.3972 36.126C87.7372 36.186 87.2332 36.216 86.8852 36.216C86.6452 36.216 86.3152 36.21 85.8952 36.198C85.4752 36.186 85.0432 36.168 84.5992 36.144C84.1672 36.12 83.8072 36.072 83.5192 36L79.1992 26.946ZM93.3517 34.506C93.3517 34.05 93.4417 33.546 93.6217 32.994C93.8017 32.43 94.0477 31.908 94.3597 31.428C94.6717 30.948 95.0137 30.588 95.3857 30.348C96.2737 30.828 97.2637 31.242 98.3557 31.59C99.4477 31.926 100.516 32.094 101.56 32.094C102.232 32.094 102.784 31.956 103.216 31.68C103.66 31.404 103.882 31.014 103.882 30.51C103.882 30.186 103.756 29.892 103.504 29.628C103.252 29.352 102.814 29.1 102.19 28.872L99.2017 27.702C98.2777 27.366 97.4137 26.946 96.6097 26.442C95.8057 25.938 95.1577 25.32 94.6657 24.588C94.1737 23.856 93.9277 22.98 93.9277 21.96C93.9277 20.088 94.6477 18.564 96.0877 17.388C97.5277 16.212 99.4657 15.624 101.902 15.624C103.282 15.624 104.65 15.786 106.006 16.11C107.374 16.422 108.52 16.782 109.444 17.19C109.444 18.006 109.276 18.81 108.94 19.602C108.604 20.394 108.142 21.018 107.554 21.474C106.666 21.078 105.7 20.748 104.656 20.484C103.612 20.208 102.67 20.07 101.83 20.07C101.206 20.07 100.726 20.202 100.39 20.466C100.066 20.73 99.9037 21.048 99.9037 21.42C99.9037 21.768 100.066 22.032 100.39 22.212C100.714 22.392 101.116 22.572 101.596 22.752L104.566 23.886C106.222 24.486 107.536 25.314 108.508 26.37C109.492 27.414 109.984 28.704 109.984 30.24C109.984 31.596 109.618 32.742 108.886 33.678C108.166 34.614 107.176 35.322 105.916 35.802C104.668 36.282 103.258 36.528 101.686 36.54C99.8137 36.54 98.1457 36.324 96.6817 35.892C95.2297 35.46 94.1197 34.998 93.3517 34.506ZM130.733 28.566C130.733 31.05 129.989 33 128.501 34.416C127.025 35.832 124.835 36.54 121.931 36.54C119.027 36.54 116.831 35.832 115.343 34.416C113.867 33 113.129 31.05 113.129 28.566V16.164L113.345 15.948H115.397C116.489 15.948 117.329 16.224 117.917 16.776C118.517 17.328 118.817 18.258 118.817 19.566V28.548C118.817 29.64 119.045 30.498 119.501 31.122C119.957 31.746 120.767 32.058 121.931 32.058C123.107 32.058 123.917 31.746 124.361 31.122C124.805 30.498 125.027 29.64 125.027 28.548V16.164C125.507 16.068 125.999 16.008 126.503 15.984C127.007 15.96 127.445 15.948 127.817 15.948C128.153 15.948 128.609 15.966 129.185 16.002C129.761 16.026 130.277 16.086 130.733 16.182V28.566ZM149.571 31.392C149.499 33.144 149.193 34.368 148.653 35.064C148.113 35.76 147.153 36.108 145.773 36.108H138.789C137.757 36.108 136.947 35.82 136.359 35.244C135.783 34.656 135.495 33.87 135.495 32.886V16.2L135.711 15.984H137.871C138.963 15.984 139.791 16.26 140.355 16.812C140.919 17.352 141.201 18.258 141.201 19.53V31.572C142.437 31.452 143.547 31.392 144.531 31.392H149.571ZM152.899 22.914C152.899 22.53 152.905 22.176 152.917 21.852C152.929 21.516 152.935 21.144 152.935 20.736C152.683 20.736 152.335 20.742 151.891 20.754C151.459 20.766 151.117 20.772 150.865 20.772H147.535C147.439 20.34 147.379 19.938 147.355 19.566C147.331 19.182 147.319 18.834 147.319 18.522C147.319 18.21 147.331 17.844 147.355 17.424C147.379 16.992 147.439 16.572 147.535 16.164H163.825C163.909 16.488 163.969 16.854 164.005 17.262C164.053 17.67 164.077 18 164.077 18.252C164.077 19.068 163.861 19.692 163.429 20.124C162.997 20.556 162.277 20.772 161.269 20.772H160.531C160.279 20.772 159.943 20.766 159.523 20.754C159.115 20.742 158.797 20.736 158.569 20.736C158.569 21.144 158.575 21.516 158.587 21.852C158.599 22.176 158.605 22.53 158.605 22.914V36C158.269 36.072 157.807 36.126 157.219 36.162C156.631 36.198 156.139 36.216 155.743 36.216C155.371 36.216 154.903 36.198 154.339 36.162C153.775 36.126 153.295 36.072 152.899 36V22.914ZM169.892 32.526C169.7 32.526 169.514 32.526 169.334 32.526C169.154 32.514 168.974 32.502 168.794 32.49L167.678 36C167.33 36.084 166.952 36.144 166.544 36.18C166.136 36.228 165.71 36.252 165.266 36.252C164.786 36.252 164.3 36.216 163.808 36.144C163.328 36.072 162.932 35.97 162.62 35.838L162.422 35.532L169.424 16.164C170.048 16.068 170.648 16.008 171.224 15.984C171.812 15.96 172.346 15.948 172.826 15.948C173.27 15.948 173.75 15.96 174.266 15.984C174.782 16.008 175.364 16.068 176.012 16.164L182.816 35.73C182.396 35.922 181.862 36.066 181.214 36.162C180.566 36.27 180.044 36.324 179.648 36.324C178.988 36.324 178.352 36.198 177.74 35.946C177.128 35.694 176.666 35.028 176.354 33.948L175.904 32.49C175.712 32.502 175.526 32.514 175.346 32.526C175.166 32.526 174.974 32.526 174.77 32.526H169.892ZM170.612 26.838L170.216 28.08C170.396 28.068 170.576 28.062 170.756 28.062C170.936 28.05 171.122 28.044 171.314 28.044H173.564C173.744 28.044 173.906 28.05 174.05 28.062C174.206 28.062 174.362 28.068 174.518 28.08L174.14 26.856C173.864 25.908 173.588 24.852 173.312 23.688C173.036 22.524 172.784 21.468 172.556 20.52H172.34C172.088 21.432 171.806 22.476 171.494 23.652C171.194 24.828 170.9 25.89 170.612 26.838ZM201.723 22.194C201.723 23.118 201.513 23.94 201.093 24.66C200.673 25.38 200.145 25.974 199.509 26.442C198.885 26.91 198.261 27.21 197.637 27.342C198.285 27.558 198.819 27.888 199.239 28.332C199.671 28.776 200.043 29.346 200.355 30.042L201.291 32.184C201.507 32.676 201.753 33.132 202.029 33.552C202.305 33.96 202.611 34.308 202.947 34.596C202.599 35.028 202.077 35.43 201.381 35.802C200.685 36.162 199.929 36.342 199.113 36.342C198.309 36.342 197.655 36.15 197.151 35.766C196.659 35.37 196.227 34.74 195.855 33.876L194.271 30.24C194.019 29.652 193.707 29.298 193.335 29.178C192.963 29.058 192.483 28.998 191.895 28.998H191.193V36C190.713 36.084 190.215 36.138 189.699 36.162C189.195 36.198 188.763 36.216 188.403 36.216C188.067 36.216 187.623 36.198 187.071 36.162C186.519 36.138 186.015 36.084 185.559 36V16.344L185.757 16.128C187.209 16.092 188.571 16.062 189.843 16.038C191.127 16.002 192.405 15.984 193.677 15.984C195.117 15.984 196.449 16.176 197.673 16.56C198.897 16.932 199.875 17.574 200.607 18.486C201.351 19.386 201.723 20.622 201.723 22.194ZM191.193 20.052V24.714C191.613 24.702 191.997 24.696 192.345 24.696C192.705 24.684 192.969 24.678 193.137 24.678C194.217 24.678 194.949 24.444 195.333 23.976C195.717 23.508 195.909 22.962 195.909 22.338C195.909 21.726 195.717 21.198 195.333 20.754C194.949 20.31 194.307 20.088 193.407 20.088C192.975 20.088 192.603 20.082 192.291 20.07C191.979 20.058 191.613 20.052 191.193 20.052Z" fill="white"/>
</svg>
