<svg width="719" height="201" viewBox="0 0 719 201" fill="none" xmlns="http://www.w3.org/2000/svg">
<path d="M46.362 199C42.426 199.672 38.442 200.104 34.41 200.296C30.474 200.584 26.922 200.728 23.754 200.728C20.586 200.728 16.842 200.584 12.522 200.296C8.202 200.104 4.074 199.672 0.138001 199V4.02399L2.154 2.29599H125.274C125.946 4.79199 126.426 7.71999 126.714 11.08C127.098 14.344 127.29 17.32 127.29 20.008C127.29 27.496 125.226 32.92 121.098 36.28C117.066 39.64 110.922 41.32 102.666 41.32H66.666C63.018 41.32 59.514 41.32 56.154 41.32C52.794 41.32 49.482 41.272 46.218 41.176C46.218 45.112 46.218 49 46.218 52.84C46.314 56.584 46.362 60.28 46.362 63.928V82.216C48.282 82.216 50.106 82.216 51.834 82.216H107.706C108.57 84.808 109.194 87.976 109.578 91.72C109.962 95.368 110.154 98.44 110.154 100.936C110.154 103.528 109.962 106.648 109.578 110.296C109.194 113.944 108.57 117.16 107.706 119.944H51.834C50.106 119.944 48.282 119.944 46.362 119.944V199ZM287.319 161.272C287.319 173.944 285.303 183.544 281.271 190.072C277.335 196.6 269.271 199.864 257.079 199.864H180.471C172.215 199.864 165.735 197.464 161.031 192.664C156.327 187.864 153.975 181.288 153.975 172.936V4.31198L155.991 2.29599H280.119C280.791 5.75199 281.223 9.01599 281.415 12.088C281.607 15.064 281.703 17.848 281.703 20.44C281.703 23.032 281.367 26.248 280.695 30.088C280.119 33.832 279.207 37.432 277.959 40.888H219.063C216.951 40.888 214.071 40.888 210.423 40.888C206.871 40.792 203.175 40.696 199.335 40.6C199.335 44.536 199.383 48.088 199.479 51.256C199.575 54.328 199.623 57.784 199.623 61.624V81.64C203.463 81.544 207.159 81.496 210.711 81.496C214.263 81.4 217.047 81.352 219.063 81.352H262.983C263.943 84.136 264.615 87.352 264.999 91C265.479 94.648 265.719 97.72 265.719 100.216C265.719 102.808 265.479 105.832 264.999 109.288C264.615 112.744 263.943 115.96 262.983 118.936H219.063C217.047 118.936 214.263 118.936 210.711 118.936C207.159 118.84 203.463 118.744 199.623 118.648V140.824C199.623 144.568 199.575 148.024 199.479 151.192C199.383 154.264 199.335 157.72 199.335 161.56V161.848C202.599 161.656 205.959 161.512 209.415 161.416C212.871 161.32 216.615 161.272 220.647 161.272H287.319ZM328.429 2.58399C333.325 1.71999 338.653 1.144 344.413 0.855993C350.269 0.567991 355.309 0.42399 359.533 0.42399C363.757 0.42399 368.461 0.567991 373.645 0.855993C378.829 1.144 383.869 1.71999 388.765 2.58399L405.757 73C406.141 74.728 406.765 77.704 407.629 81.928C408.589 86.152 409.645 90.952 410.797 96.328C411.949 101.704 413.005 106.984 413.965 112.168C415.021 117.352 415.837 121.768 416.413 125.416H418.429C419.005 121.768 419.821 117.352 420.877 112.168C421.933 106.984 422.989 101.704 424.045 96.328C425.197 90.952 426.253 86.152 427.213 81.928C428.173 77.704 428.845 74.728 429.229 73L446.221 2.58399C451.117 1.71999 456.109 1.144 461.197 0.855993C466.381 0.567991 471.085 0.42399 475.309 0.42399C479.533 0.42399 484.573 0.567991 490.429 0.855993C496.285 1.144 501.613 1.71999 506.413 2.58399L521.677 198.424C518.413 199.288 514.621 199.864 510.301 200.152C506.077 200.536 502.093 200.728 498.349 200.728C494.893 200.728 491.485 200.632 488.125 200.44C484.861 200.248 481.549 199.864 478.189 199.288L473.869 119.08C473.293 108.904 472.765 97.672 472.285 85.384C471.805 73.096 471.565 62.248 471.565 52.84H469.549L441.181 170.056C437.725 170.632 433.693 171.064 429.085 171.352C424.477 171.544 420.541 171.64 417.277 171.64C414.397 171.64 410.605 171.544 405.901 171.352C401.197 171.064 397.117 170.632 393.661 170.056L365.293 52.84H363.421C363.325 62.248 363.037 73.096 362.557 85.384C362.173 97.672 361.693 108.904 361.117 119.08L356.653 199.288C353.389 199.864 350.077 200.248 346.717 200.44C343.357 200.632 339.949 200.728 336.493 200.728C332.845 200.728 328.861 200.536 324.541 200.152C320.317 199.864 316.525 199.288 313.165 198.424L328.429 2.58399ZM718.959 100.504C718.959 111.736 718.143 122.584 716.511 133.048C714.975 143.416 711.903 153.112 707.295 162.136C702.687 171.16 695.775 179.224 686.559 186.328C682.143 189.784 676.815 192.568 670.575 194.68C664.431 196.792 658.095 198.328 651.567 199.288C645.039 200.248 639.087 200.728 633.711 200.728C621.327 200.728 609.279 200.584 597.567 200.296C585.951 200.104 573.855 199.864 561.279 199.576L559.263 197.56V3.73599L561.279 1.71998C573.663 1.33599 585.711 1.04799 597.423 0.855993C609.231 0.663996 621.327 0.567997 633.711 0.567997C639.087 0.567997 645.039 1.09599 651.567 2.15199C658.095 3.11198 664.479 4.64799 670.719 6.75999C676.959 8.87199 682.239 11.656 686.559 15.112C695.679 22.216 702.543 30.28 707.151 39.304C711.759 48.232 714.879 57.88 716.511 68.248C718.143 78.616 718.959 89.368 718.959 100.504ZM671.583 100.504C671.583 93.208 671.103 85.816 670.143 78.328C669.279 70.744 667.551 63.832 664.959 57.592C662.463 51.256 658.671 46.168 653.583 42.328C648.591 38.392 641.967 36.424 633.711 36.424C628.815 36.424 624.111 36.424 619.599 36.424C615.087 36.424 610.287 36.328 605.199 36.136V165.016C610.287 164.92 615.087 164.872 619.599 164.872C624.111 164.872 628.815 164.872 633.711 164.872C641.967 164.872 648.591 162.952 653.583 159.112C658.671 155.176 662.463 150.04 664.959 143.704C667.551 137.272 669.279 130.312 670.143 122.824C671.103 115.24 671.583 107.8 671.583 100.504Z" fill="white"/>
</svg>
