<svg width="253" height="102" viewBox="0 0 253 102" fill="none" xmlns="http://www.w3.org/2000/svg">
<rect opacity="0.5" y="0.794922" width="253" height="101.083" rx="10" fill="#DBDADA"/>
<path d="M83.6108 27.9069C83.2148 26.9829 82.8428 26.0769 82.4948 25.1889C82.1468 24.3009 81.8468 23.5149 81.5948 22.8309L81.4508 22.8849C81.5468 23.9049 81.6248 25.0629 81.6848 26.3589C81.7568 27.6429 81.8108 28.9269 81.8468 30.2109C81.8828 31.4949 81.9008 32.6349 81.9008 33.6309V40.7949C81.4328 40.8789 80.9708 40.9329 80.5148 40.9569C80.0588 40.9929 79.6508 41.0109 79.2908 41.0109C78.9428 41.0109 78.5048 40.9929 77.9768 40.9569C77.4608 40.9329 76.9808 40.8789 76.5368 40.7949V16.3149C76.9808 16.2069 77.5688 16.1289 78.3008 16.0809C79.0328 16.0209 79.5788 15.9909 79.9388 15.9909C80.3108 15.9909 80.8028 16.0089 81.4148 16.0449C82.0268 16.0689 82.6508 16.1229 83.2868 16.2069L88.8308 29.0589C89.2868 30.1149 89.7068 31.1229 90.0908 32.0829C90.4868 33.0429 90.8168 33.8529 91.0808 34.5129L91.2248 34.4589C91.1288 33.3429 91.0448 32.1189 90.9728 30.7869C90.9128 29.4549 90.8648 28.1709 90.8288 26.9349C90.7928 25.6989 90.7748 24.6669 90.7748 23.8389V19.4469C90.7748 18.1629 91.0328 17.2629 91.5488 16.7469C92.0768 16.2309 92.8928 15.9729 93.9968 15.9729H95.8688L96.1028 16.2069V40.6869C95.6468 40.7949 95.0468 40.8729 94.3028 40.9209C93.5708 40.9809 93.0128 41.0109 92.6288 41.0109C92.2568 41.0109 91.7648 40.9929 91.1528 40.9569C90.5408 40.9329 89.9228 40.8789 89.2988 40.7949L83.6108 27.9069ZM118.703 33.3609C118.703 35.8449 117.959 37.7949 116.471 39.2109C114.995 40.6269 112.805 41.3349 109.901 41.3349C106.997 41.3349 104.801 40.6269 103.313 39.2109C101.837 37.7949 101.099 35.8449 101.099 33.3609V20.9589L101.315 20.7429H103.367C104.459 20.7429 105.299 21.0189 105.887 21.5709C106.487 22.1229 106.787 23.0529 106.787 24.3609V33.3429C106.787 34.4349 107.015 35.2929 107.471 35.9169C107.927 36.5409 108.737 36.8529 109.901 36.8529C111.077 36.8529 111.887 36.5409 112.331 35.9169C112.775 35.2929 112.997 34.4349 112.997 33.3429V20.9589C113.477 20.8629 113.969 20.8029 114.473 20.7789C114.977 20.7549 115.415 20.7429 115.787 20.7429C116.123 20.7429 116.579 20.7609 117.155 20.7969C117.731 20.8209 118.247 20.8809 118.703 20.9769V33.3609ZM138.639 36.2769C138.639 37.9929 138.369 39.1869 137.829 39.8589C137.301 40.5309 136.401 40.8669 135.129 40.8669H126.831C125.811 40.8669 125.007 40.5789 124.419 40.0029C123.831 39.4149 123.537 38.6289 123.537 37.6449V21.1569L123.735 20.9589H137.973C138.057 21.3669 138.105 21.7569 138.117 22.1289C138.129 22.5009 138.135 22.8549 138.135 23.1909C138.135 23.5149 138.099 23.8809 138.027 24.2889C137.967 24.6969 137.859 25.1109 137.703 25.5309H131.403C130.899 25.5309 130.137 25.5249 129.117 25.5129C129.129 25.8849 129.135 26.2029 129.135 26.4669C129.147 26.7309 129.153 27.0489 129.153 27.4209V28.6089C130.149 28.5969 130.899 28.5909 131.403 28.5909H136.011C136.131 28.9149 136.209 29.2869 136.245 29.7069C136.293 30.1149 136.317 30.4629 136.317 30.7509C136.317 31.0869 136.293 31.4649 136.245 31.8849C136.209 32.2929 136.131 32.6649 136.011 33.0009H131.403C131.175 33.0009 130.857 33.0009 130.449 33.0009C130.041 33.0009 129.609 33.0009 129.153 33.0009V34.1709C129.153 34.6149 129.147 34.9809 129.135 35.2689C129.123 35.5569 129.117 35.9169 129.117 36.3489V36.3849C129.537 36.3609 129.927 36.3369 130.287 36.3129C130.647 36.2889 131.085 36.2769 131.601 36.2769H138.639ZM154.203 20.9589C154.635 20.8629 155.013 20.8029 155.337 20.7789C155.673 20.7549 156.015 20.7429 156.363 20.7429C156.795 20.7429 157.245 20.7669 157.713 20.8149C158.193 20.8629 158.703 20.9649 159.243 21.1209L159.495 21.3909L153.591 40.7949C153.051 40.8789 152.343 40.9329 151.467 40.9569C150.591 40.9929 149.793 41.0109 149.073 41.0109C148.125 41.0109 147.321 40.8609 146.661 40.5609C146.013 40.2489 145.545 39.5769 145.257 38.5449L140.127 21.3549C140.619 21.1509 141.135 20.9949 141.675 20.8869C142.227 20.7669 142.791 20.7069 143.367 20.7069C144.231 20.7069 144.903 20.9109 145.383 21.3189C145.875 21.7149 146.265 22.4049 146.553 23.3889L148.479 29.8329C148.755 30.8049 149.001 31.7949 149.217 32.8029C149.445 33.8109 149.667 34.9509 149.883 36.2229C149.931 36.4269 150.051 36.5289 150.243 36.5289L154.203 20.9589ZM166.124 37.3209C165.932 37.3209 165.746 37.3209 165.566 37.3209C165.386 37.3089 165.206 37.2969 165.026 37.2849L163.91 40.7949C163.562 40.8789 163.184 40.9389 162.776 40.9749C162.368 41.0229 161.942 41.0469 161.498 41.0469C161.018 41.0469 160.532 41.0109 160.04 40.9389C159.56 40.8669 159.164 40.7649 158.852 40.6329L158.654 40.3269L165.656 20.9589C166.28 20.8629 166.88 20.8029 167.456 20.7789C168.044 20.7549 168.578 20.7429 169.058 20.7429C169.502 20.7429 169.982 20.7549 170.498 20.7789C171.014 20.8029 171.596 20.8629 172.244 20.9589L179.048 40.5249C178.628 40.7169 178.094 40.8609 177.446 40.9569C176.798 41.0649 176.276 41.1189 175.88 41.1189C175.22 41.1189 174.584 40.9929 173.972 40.7409C173.36 40.4889 172.898 39.8229 172.586 38.7429L172.136 37.2849C171.944 37.2969 171.758 37.3089 171.578 37.3209C171.398 37.3209 171.206 37.3209 171.002 37.3209H166.124ZM166.844 31.6329L166.448 32.8749C166.628 32.8629 166.808 32.8569 166.988 32.8569C167.168 32.8449 167.354 32.8389 167.546 32.8389H169.796C169.976 32.8389 170.138 32.8449 170.282 32.8569C170.438 32.8569 170.594 32.8629 170.75 32.8749L170.372 31.6509C170.096 30.7029 169.82 29.6469 169.544 28.4829C169.268 27.3189 169.016 26.2629 168.788 25.3149H168.572C168.32 26.2269 168.038 27.2709 167.726 28.4469C167.426 29.6229 167.132 30.6849 166.844 31.6329ZM64.3803 71.9069C63.9843 70.9829 63.6123 70.0769 63.2643 69.1889C62.9163 68.3009 62.6163 67.5149 62.3643 66.8309L62.2203 66.8849C62.3163 67.9049 62.3943 69.0629 62.4543 70.3589C62.5263 71.6429 62.5803 72.9269 62.6163 74.2109C62.6523 75.4949 62.6703 76.6349 62.6703 77.6309V84.7949C62.2023 84.8789 61.7403 84.9329 61.2843 84.9569C60.8283 84.9929 60.4203 85.0109 60.0603 85.0109C59.7123 85.0109 59.2743 84.9929 58.7463 84.9569C58.2303 84.9329 57.7503 84.8789 57.3063 84.7949V60.3149C57.7503 60.2069 58.3383 60.1289 59.0703 60.0809C59.8023 60.0209 60.3483 59.9909 60.7083 59.9909C61.0803 59.9909 61.5723 60.0089 62.1843 60.0449C62.7963 60.0689 63.4203 60.1229 64.0563 60.2069L69.6003 73.0589C70.0563 74.1149 70.4763 75.1229 70.8603 76.0829C71.2563 77.0429 71.5863 77.8529 71.8503 78.5129L71.9943 78.4589C71.8983 77.3429 71.8143 76.1189 71.7423 74.7869C71.6823 73.4549 71.6343 72.1709 71.5983 70.9349C71.5623 69.6989 71.5443 68.6669 71.5443 67.8389V63.4469C71.5443 62.1629 71.8023 61.2629 72.3183 60.7469C72.8463 60.2309 73.6623 59.9729 74.7663 59.9729H76.6383L76.8723 60.2069V84.6869C76.4163 84.7949 75.8163 84.8729 75.0723 84.9209C74.3403 84.9809 73.7823 85.0109 73.3983 85.0109C73.0263 85.0109 72.5343 84.9929 71.9223 84.9569C71.3103 84.9329 70.6923 84.8789 70.0683 84.7949L64.3803 71.9069ZM80.7707 74.9129C80.7707 71.6969 81.5987 69.1469 83.2547 67.2629C84.9227 65.3669 87.3527 64.4189 90.5447 64.4189C93.7847 64.4189 96.2267 65.3609 97.8707 67.2449C99.5267 69.1169 100.355 71.6729 100.355 74.9129C100.355 78.1529 99.5267 80.7029 97.8707 82.5629C96.2147 84.4109 93.7727 85.3349 90.5447 85.3349C87.3047 85.3349 84.8627 84.3989 83.2187 82.5269C81.5867 80.6549 80.7707 78.1169 80.7707 74.9129ZM86.5847 74.9129C86.5847 75.5969 86.6267 76.3049 86.7107 77.0369C86.8067 77.7569 86.9867 78.4289 87.2507 79.0529C87.5267 79.6769 87.9287 80.1869 88.4567 80.5829C88.9847 80.9669 89.6867 81.1589 90.5627 81.1589C91.4387 81.1589 92.1407 80.9669 92.6687 80.5829C93.1967 80.1869 93.5927 79.6769 93.8567 79.0529C94.1327 78.4289 94.3127 77.7569 94.3967 77.0369C94.4927 76.3049 94.5407 75.5969 94.5407 74.9129C94.5407 74.2169 94.4927 73.5029 94.3967 72.7709C94.3127 72.0269 94.1327 71.3429 93.8567 70.7189C93.5927 70.0829 93.1967 69.5729 92.6687 69.1889C92.1407 68.7929 91.4387 68.5949 90.5627 68.5949C89.6867 68.5949 88.9847 68.7929 88.4567 69.1889C87.9287 69.5729 87.5267 70.0829 87.2507 70.7189C86.9867 71.3429 86.8067 72.0269 86.7107 72.7709C86.6267 73.5029 86.5847 74.2169 86.5847 74.9129ZM106.698 71.7089C106.698 71.3249 106.704 70.9709 106.716 70.6469C106.728 70.3109 106.734 69.9389 106.734 69.5309C106.482 69.5309 106.134 69.5369 105.69 69.5489C105.258 69.5609 104.916 69.5669 104.664 69.5669H101.334C101.238 69.1349 101.178 68.7329 101.154 68.3609C101.13 67.9769 101.118 67.6289 101.118 67.3169C101.118 67.0049 101.13 66.6389 101.154 66.2189C101.178 65.7869 101.238 65.3669 101.334 64.9589H117.624C117.708 65.2829 117.768 65.6489 117.804 66.0569C117.852 66.4649 117.876 66.7949 117.876 67.0469C117.876 67.8629 117.66 68.4869 117.228 68.9189C116.796 69.3509 116.076 69.5669 115.068 69.5669H114.33C114.078 69.5669 113.742 69.5609 113.322 69.5489C112.914 69.5369 112.596 69.5309 112.368 69.5309C112.368 69.9389 112.374 70.3109 112.386 70.6469C112.398 70.9709 112.404 71.3249 112.404 71.7089V84.7949C112.068 84.8669 111.606 84.9209 111.018 84.9569C110.43 84.9929 109.938 85.0109 109.542 85.0109C109.17 85.0109 108.702 84.9929 108.138 84.9569C107.574 84.9209 107.094 84.8669 106.698 84.7949V71.7089ZM120.375 64.9589C120.831 64.8629 121.347 64.8029 121.923 64.7789C122.499 64.7549 122.955 64.7429 123.291 64.7429C123.651 64.7429 124.083 64.7549 124.587 64.7789C125.103 64.8029 125.601 64.8629 126.081 64.9589V84.7949C125.601 84.8789 125.103 84.9329 124.587 84.9569C124.083 84.9929 123.651 85.0109 123.291 85.0109C122.955 85.0109 122.499 84.9929 121.923 84.9569C121.347 84.9329 120.831 84.8789 120.375 84.7949V64.9589ZM142.287 73.9409C142.287 72.4169 142.083 71.1929 141.675 70.2689C141.267 69.3329 140.445 68.8649 139.209 68.8649C137.925 68.8649 137.013 69.3929 136.473 70.4489C135.933 71.5049 135.663 73.0229 135.663 75.0029C135.663 76.5149 135.855 77.6789 136.239 78.4949C136.635 79.2989 137.139 79.8569 137.751 80.1689C138.363 80.4809 139.011 80.6369 139.695 80.6369C140.583 80.6369 141.471 80.4449 142.359 80.0609C143.259 79.6649 144.063 79.2029 144.771 78.6749C145.155 78.8669 145.527 79.1729 145.887 79.5929C146.247 80.0129 146.559 80.4629 146.823 80.9429C147.087 81.4229 147.255 81.8609 147.327 82.2569C146.331 83.1089 145.119 83.8349 143.691 84.4349C142.275 85.0349 140.661 85.3349 138.849 85.3349C137.109 85.3349 135.657 85.0289 134.493 84.4169C133.341 83.8049 132.423 83.0009 131.739 82.0049C131.055 80.9969 130.569 79.8809 130.281 78.6569C129.993 77.4329 129.849 76.2029 129.849 74.9669C129.849 72.5069 130.293 70.5029 131.181 68.9549C132.081 67.3949 133.257 66.2489 134.709 65.5169C136.173 64.7849 137.739 64.4189 139.407 64.4189C141.279 64.4189 142.821 64.7489 144.033 65.4089C145.245 66.0689 146.145 66.9029 146.733 67.9109C147.321 68.9189 147.615 69.9569 147.615 71.0249C147.615 73.0769 146.463 74.1029 144.159 74.1029C143.883 74.1029 143.583 74.0849 143.259 74.0489C142.935 74.0129 142.611 73.9769 142.287 73.9409ZM151.172 64.9589C151.628 64.8629 152.144 64.8029 152.72 64.7789C153.296 64.7549 153.752 64.7429 154.088 64.7429C154.448 64.7429 154.88 64.7549 155.384 64.7789C155.9 64.8029 156.398 64.8629 156.878 64.9589V84.7949C156.398 84.8789 155.9 84.9329 155.384 84.9569C154.88 84.9929 154.448 85.0109 154.088 85.0109C153.752 85.0109 153.296 84.9929 152.72 84.9569C152.144 84.9329 151.628 84.8789 151.172 84.7949V64.9589ZM167.144 81.3209C166.952 81.3209 166.766 81.3209 166.586 81.3209C166.406 81.3089 166.226 81.2969 166.046 81.2849L164.93 84.7949C164.582 84.8789 164.204 84.9389 163.796 84.9749C163.388 85.0229 162.962 85.0469 162.518 85.0469C162.038 85.0469 161.552 85.0109 161.06 84.9389C160.58 84.8669 160.184 84.7649 159.872 84.6329L159.674 84.3269L166.676 64.9589C167.3 64.8629 167.9 64.8029 168.476 64.7789C169.064 64.7549 169.598 64.7429 170.078 64.7429C170.522 64.7429 171.002 64.7549 171.518 64.7789C172.034 64.8029 172.616 64.8629 173.264 64.9589L180.068 84.5249C179.648 84.7169 179.114 84.8609 178.466 84.9569C177.818 85.0649 177.296 85.1189 176.9 85.1189C176.24 85.1189 175.604 84.9929 174.992 84.7409C174.38 84.4889 173.918 83.8229 173.606 82.7429L173.156 81.2849C172.964 81.2969 172.778 81.3089 172.598 81.3209C172.418 81.3209 172.226 81.3209 172.022 81.3209H167.144ZM167.864 75.6329L167.468 76.8749C167.648 76.8629 167.828 76.8569 168.008 76.8569C168.188 76.8449 168.374 76.8389 168.566 76.8389H170.816C170.996 76.8389 171.158 76.8449 171.302 76.8569C171.458 76.8569 171.614 76.8629 171.77 76.8749L171.392 75.6509C171.116 74.7029 170.84 73.6469 170.564 72.4829C170.288 71.3189 170.036 70.2629 169.808 69.3149H169.592C169.34 70.2269 169.058 71.2709 168.746 72.4469C168.446 73.6229 168.152 74.6849 167.864 75.6329ZM180.885 83.3009C180.885 82.8449 180.975 82.3409 181.155 81.7889C181.335 81.2249 181.581 80.7029 181.893 80.2229C182.205 79.7429 182.547 79.3829 182.919 79.1429C183.807 79.6229 184.797 80.0369 185.889 80.3849C186.981 80.7209 188.049 80.8889 189.093 80.8889C189.765 80.8889 190.317 80.7509 190.749 80.4749C191.193 80.1989 191.415 79.8089 191.415 79.3049C191.415 78.9809 191.289 78.6869 191.037 78.4229C190.785 78.1469 190.347 77.8949 189.723 77.6669L186.735 76.4969C185.811 76.1609 184.947 75.7409 184.143 75.2369C183.339 74.7329 182.691 74.1149 182.199 73.3829C181.707 72.6509 181.461 71.7749 181.461 70.7549C181.461 68.8829 182.181 67.3589 183.621 66.1829C185.061 65.0069 186.999 64.4189 189.435 64.4189C190.815 64.4189 192.183 64.5809 193.539 64.9049C194.907 65.2169 196.053 65.5769 196.977 65.9849C196.977 66.8009 196.809 67.6049 196.473 68.3969C196.137 69.1889 195.675 69.8129 195.087 70.2689C194.199 69.8729 193.233 69.5429 192.189 69.2789C191.145 69.0029 190.203 68.8649 189.363 68.8649C188.739 68.8649 188.259 68.9969 187.923 69.2609C187.599 69.5249 187.437 69.8429 187.437 70.2149C187.437 70.5629 187.599 70.8269 187.923 71.0069C188.247 71.1869 188.649 71.3669 189.129 71.5469L192.099 72.6809C193.755 73.2809 195.069 74.1089 196.041 75.1649C197.025 76.2089 197.517 77.4989 197.517 79.0349C197.517 80.3909 197.151 81.5369 196.419 82.4729C195.699 83.4089 194.709 84.1169 193.449 84.5969C192.201 85.0769 190.791 85.3229 189.219 85.3349C187.347 85.3349 185.679 85.1189 184.215 84.6869C182.763 84.2549 181.653 83.7929 180.885 83.3009Z" fill="#364760"/>
</svg>
