<svg width="331" height="26" viewBox="0 0 331 26" fill="none" xmlns="http://www.w3.org/2000/svg">
<path d="M18.2705 8.026C18.2705 9.178 18.0485 10.204 17.6045 11.104C17.1605 11.992 16.6025 12.736 15.9305 13.336C15.2585 13.924 14.5805 14.35 13.8965 14.614C14.5685 14.854 15.1265 15.268 15.5705 15.856C16.0265 16.444 16.3925 17.134 16.6685 17.926L17.7485 20.968C18.1565 22.132 18.7505 23.02 19.5305 23.632C19.1585 24.112 18.6185 24.514 17.9105 24.838C17.2025 25.162 16.4645 25.324 15.6965 25.324C14.6645 25.324 13.9145 25.048 13.4465 24.496C12.9785 23.932 12.5525 23.098 12.1685 21.994L10.8725 18.232C10.6685 17.608 10.3505 17.08 9.91853 16.648C9.48653 16.204 8.79053 15.982 7.83053 15.982H6.33653V25C5.85653 25.084 5.35853 25.138 4.84253 25.162C4.32653 25.198 3.87053 25.216 3.47453 25.216C3.12653 25.216 2.68253 25.198 2.14253 25.162C1.60253 25.138 1.09853 25.084 0.630531 25V0.591999L0.882531 0.339998C2.41853 0.303999 3.89453 0.273999 5.31053 0.249998C6.73853 0.213999 8.13653 0.196 9.50453 0.196C11.1725 0.196 12.6665 0.472 13.9865 1.024C15.3185 1.576 16.3625 2.428 17.1185 3.58C17.8865 4.732 18.2705 6.214 18.2705 8.026ZM6.33653 4.516V11.572C6.90053 11.548 7.42853 11.53 7.92053 11.518C8.42453 11.506 8.79053 11.5 9.01853 11.5C9.93053 11.5 10.6265 11.338 11.1065 11.014C11.5985 10.678 11.9345 10.246 12.1145 9.718C12.3065 9.19 12.4025 8.626 12.4025 8.026C12.4025 7.402 12.3065 6.826 12.1145 6.298C11.9345 5.77 11.5985 5.35 11.1065 5.038C10.6265 4.714 9.93053 4.552 9.01853 4.552C8.64653 4.552 8.23253 4.552 7.77653 4.552C7.33253 4.552 6.85253 4.54 6.33653 4.516ZM37.526 20.482C37.526 22.198 37.256 23.392 36.716 24.064C36.188 24.736 35.288 25.072 34.016 25.072H25.718C24.698 25.072 23.894 24.784 23.306 24.208C22.718 23.62 22.424 22.834 22.424 21.85V5.362L22.622 5.164H36.86C36.944 5.572 36.992 5.962 37.004 6.334C37.016 6.706 37.022 7.06 37.022 7.396C37.022 7.72 36.986 8.086 36.914 8.494C36.854 8.902 36.746 9.316 36.59 9.736H30.29C29.786 9.736 29.024 9.73 28.004 9.718C28.016 10.09 28.022 10.408 28.022 10.672C28.034 10.936 28.04 11.254 28.04 11.626V12.814C29.036 12.802 29.786 12.796 30.29 12.796H34.898C35.018 13.12 35.096 13.492 35.132 13.912C35.18 14.32 35.204 14.668 35.204 14.956C35.204 15.292 35.18 15.67 35.132 16.09C35.096 16.498 35.018 16.87 34.898 17.206H30.29C30.062 17.206 29.744 17.206 29.336 17.206C28.928 17.206 28.496 17.206 28.04 17.206V18.376C28.04 18.82 28.034 19.186 28.022 19.474C28.01 19.762 28.004 20.122 28.004 20.554V20.59C28.424 20.566 28.814 20.542 29.174 20.518C29.534 20.494 29.972 20.482 30.488 20.482H37.526ZM57.2116 11.968C57.2116 13.528 56.8576 14.824 56.1496 15.856C55.4536 16.876 54.4936 17.638 53.2696 18.142C52.0456 18.634 50.6536 18.88 49.0936 18.88H47.1316V25C46.6516 25.084 46.1596 25.138 45.6556 25.162C45.1516 25.198 44.7196 25.216 44.3596 25.216C44.0236 25.216 43.5676 25.198 42.9916 25.162C42.4156 25.138 41.8996 25.084 41.4436 25V5.344L41.6416 5.128C42.6136 5.104 43.7836 5.074 45.1516 5.038C46.5196 5.002 47.8336 4.984 49.0936 4.984C50.6656 4.984 52.0636 5.224 53.2876 5.704C54.5116 6.184 55.4716 6.94 56.1676 7.972C56.8636 9.004 57.2116 10.336 57.2116 11.968ZM47.1316 9.196V14.704C47.4556 14.692 47.7496 14.686 48.0136 14.686C48.2776 14.674 48.4756 14.668 48.6076 14.668C49.3996 14.668 49.9936 14.524 50.3896 14.236C50.7976 13.936 51.0676 13.576 51.1996 13.156C51.3316 12.724 51.3976 12.316 51.3976 11.932C51.3976 11.572 51.3316 11.182 51.1996 10.762C51.0676 10.342 50.7976 9.982 50.3896 9.682C49.9936 9.382 49.3996 9.232 48.6076 9.232C48.3076 9.232 48.0916 9.232 47.9596 9.232C47.8276 9.22 47.5516 9.208 47.1316 9.196ZM59.216 15.118C59.216 11.902 60.044 9.352 61.7 7.468C63.368 5.572 65.798 4.624 68.99 4.624C72.23 4.624 74.672 5.566 76.316 7.45C77.972 9.322 78.8 11.878 78.8 15.118C78.8 18.358 77.972 20.908 76.316 22.768C74.66 24.616 72.218 25.54 68.99 25.54C65.75 25.54 63.308 24.604 61.664 22.732C60.032 20.86 59.216 18.322 59.216 15.118ZM65.03 15.118C65.03 15.802 65.072 16.51 65.156 17.242C65.252 17.962 65.432 18.634 65.696 19.258C65.972 19.882 66.374 20.392 66.902 20.788C67.43 21.172 68.132 21.364 69.008 21.364C69.884 21.364 70.586 21.172 71.114 20.788C71.642 20.392 72.038 19.882 72.302 19.258C72.578 18.634 72.758 17.962 72.842 17.242C72.938 16.51 72.986 15.802 72.986 15.118C72.986 14.422 72.938 13.708 72.842 12.976C72.758 12.232 72.578 11.548 72.302 10.924C72.038 10.288 71.642 9.778 71.114 9.394C70.586 8.998 69.884 8.8 69.008 8.8C68.132 8.8 67.43 8.998 66.902 9.394C66.374 9.778 65.972 10.288 65.696 10.924C65.432 11.548 65.252 12.232 65.156 12.976C65.072 13.708 65.03 14.422 65.03 15.118ZM98.6701 11.194C98.6701 12.118 98.4601 12.94 98.0401 13.66C97.6201 14.38 97.0921 14.974 96.4561 15.442C95.8321 15.91 95.2081 16.21 94.5841 16.342C95.2321 16.558 95.7661 16.888 96.1861 17.332C96.6181 17.776 96.9901 18.346 97.3021 19.042L98.2381 21.184C98.4541 21.676 98.7001 22.132 98.9761 22.552C99.2521 22.96 99.5581 23.308 99.8941 23.596C99.5461 24.028 99.0241 24.43 98.3281 24.802C97.6321 25.162 96.8761 25.342 96.0601 25.342C95.2561 25.342 94.6021 25.15 94.0981 24.766C93.6061 24.37 93.1741 23.74 92.8021 22.876L91.2181 19.24C90.9661 18.652 90.6541 18.298 90.2821 18.178C89.9101 18.058 89.4301 17.998 88.8421 17.998H88.1401V25C87.6601 25.084 87.1621 25.138 86.6461 25.162C86.1421 25.198 85.7101 25.216 85.3501 25.216C85.0141 25.216 84.5701 25.198 84.0181 25.162C83.4661 25.138 82.9621 25.084 82.5061 25V5.344L82.7041 5.128C84.1561 5.092 85.5181 5.062 86.7901 5.038C88.0741 5.002 89.3521 4.984 90.6241 4.984C92.0641 4.984 93.3961 5.176 94.6201 5.56C95.8441 5.932 96.8221 6.574 97.5541 7.486C98.2981 8.386 98.6701 9.622 98.6701 11.194ZM88.1401 9.052V13.714C88.5601 13.702 88.9441 13.696 89.2921 13.696C89.6521 13.684 89.9161 13.678 90.0841 13.678C91.1641 13.678 91.8961 13.444 92.2801 12.976C92.6641 12.508 92.8561 11.962 92.8561 11.338C92.8561 10.726 92.6641 10.198 92.2801 9.754C91.8961 9.31 91.2541 9.088 90.3541 9.088C89.9221 9.088 89.5501 9.082 89.2381 9.07C88.9261 9.058 88.5601 9.052 88.1401 9.052ZM106.026 11.914C106.026 11.53 106.032 11.176 106.044 10.852C106.056 10.516 106.062 10.144 106.062 9.736C105.81 9.736 105.462 9.742 105.018 9.754C104.586 9.766 104.244 9.772 103.992 9.772H100.662C100.566 9.34 100.506 8.938 100.482 8.566C100.458 8.182 100.446 7.834 100.446 7.522C100.446 7.21 100.458 6.844 100.482 6.424C100.506 5.992 100.566 5.572 100.662 5.164H116.952C117.036 5.488 117.096 5.854 117.132 6.262C117.18 6.67 117.204 7 117.204 7.252C117.204 8.068 116.988 8.692 116.556 9.124C116.124 9.556 115.404 9.772 114.396 9.772H113.658C113.406 9.772 113.07 9.766 112.65 9.754C112.242 9.742 111.924 9.736 111.696 9.736C111.696 10.144 111.702 10.516 111.714 10.852C111.726 11.176 111.732 11.53 111.732 11.914V25C111.396 25.072 110.934 25.126 110.346 25.162C109.758 25.198 109.266 25.216 108.87 25.216C108.498 25.216 108.03 25.198 107.466 25.162C106.902 25.126 106.422 25.072 106.026 25V11.914ZM134.733 20.482C134.733 22.198 134.463 23.392 133.923 24.064C133.395 24.736 132.495 25.072 131.223 25.072H122.925C121.905 25.072 121.101 24.784 120.513 24.208C119.925 23.62 119.631 22.834 119.631 21.85V5.362L119.829 5.164H134.067C134.151 5.572 134.199 5.962 134.211 6.334C134.223 6.706 134.229 7.06 134.229 7.396C134.229 7.72 134.193 8.086 134.121 8.494C134.061 8.902 133.953 9.316 133.797 9.736H127.497C126.993 9.736 126.231 9.73 125.211 9.718C125.223 10.09 125.229 10.408 125.229 10.672C125.241 10.936 125.247 11.254 125.247 11.626V12.814C126.243 12.802 126.993 12.796 127.497 12.796H132.105C132.225 13.12 132.303 13.492 132.339 13.912C132.387 14.32 132.411 14.668 132.411 14.956C132.411 15.292 132.387 15.67 132.339 16.09C132.303 16.498 132.225 16.87 132.105 17.206H127.497C127.269 17.206 126.951 17.206 126.543 17.206C126.135 17.206 125.703 17.206 125.247 17.206V18.376C125.247 18.82 125.241 19.186 125.229 19.474C125.217 19.762 125.211 20.122 125.211 20.554V20.59C125.631 20.566 126.021 20.542 126.381 20.518C126.741 20.494 127.179 20.482 127.695 20.482H134.733ZM164.651 15.118C164.651 18.478 163.865 20.992 162.293 22.66C160.721 24.316 158.243 25.144 154.859 25.144C153.431 25.144 152.075 25.132 150.791 25.108C149.519 25.096 148.175 25.072 146.759 25.036L146.561 24.82V5.344L146.759 5.128C148.187 5.092 149.537 5.062 150.809 5.038C152.081 5.002 153.431 4.984 154.859 4.984C158.207 4.984 160.673 5.854 162.257 7.594C163.853 9.322 164.651 11.83 164.651 15.118ZM158.855 15.118C158.855 14.242 158.765 13.366 158.585 12.49C158.405 11.602 158.027 10.858 157.451 10.258C156.875 9.658 156.011 9.358 154.859 9.358C154.331 9.358 153.875 9.358 153.491 9.358C153.119 9.346 152.687 9.334 152.195 9.322V20.842C152.711 20.842 153.149 20.836 153.509 20.824C153.881 20.812 154.331 20.806 154.859 20.806C156.011 20.806 156.875 20.512 157.451 19.924C158.027 19.324 158.405 18.586 158.585 17.71C158.765 16.834 158.855 15.97 158.855 15.118ZM183.495 20.482C183.495 22.198 183.225 23.392 182.685 24.064C182.157 24.736 181.257 25.072 179.985 25.072H171.687C170.667 25.072 169.863 24.784 169.275 24.208C168.687 23.62 168.393 22.834 168.393 21.85V5.362L168.591 5.164H182.829C182.913 5.572 182.961 5.962 182.973 6.334C182.985 6.706 182.991 7.06 182.991 7.396C182.991 7.72 182.955 8.086 182.883 8.494C182.823 8.902 182.715 9.316 182.559 9.736H176.259C175.755 9.736 174.993 9.73 173.973 9.718C173.985 10.09 173.991 10.408 173.991 10.672C174.003 10.936 174.009 11.254 174.009 11.626V12.814C175.005 12.802 175.755 12.796 176.259 12.796H180.867C180.987 13.12 181.065 13.492 181.101 13.912C181.149 14.32 181.173 14.668 181.173 14.956C181.173 15.292 181.149 15.67 181.101 16.09C181.065 16.498 180.987 16.87 180.867 17.206H176.259C176.031 17.206 175.713 17.206 175.305 17.206C174.897 17.206 174.465 17.206 174.009 17.206V18.376C174.009 18.82 174.003 19.186 173.991 19.474C173.979 19.762 173.973 20.122 173.973 20.554V20.59C174.393 20.566 174.783 20.542 175.143 20.518C175.503 20.494 175.941 20.482 176.457 20.482H183.495ZM201.424 19.852C201.232 19.852 201.004 19.846 200.74 19.834C200.488 19.822 200.242 19.816 200.002 19.816L198.472 25.036C198.112 25.12 197.722 25.174 197.302 25.198C196.894 25.234 196.468 25.252 196.024 25.252C195.592 25.252 195.1 25.216 194.548 25.144C194.008 25.084 193.576 24.988 193.252 24.856L193.036 24.55L200.992 0.411999C201.448 0.339998 201.994 0.285998 202.63 0.249998C203.278 0.213999 203.842 0.196 204.322 0.196C204.778 0.196 205.33 0.219999 205.978 0.267999C206.626 0.303999 207.184 0.363999 207.652 0.447999L215.392 24.622C214.996 24.85 214.48 25.024 213.844 25.144C213.22 25.264 212.638 25.324 212.098 25.324C211.186 25.324 210.472 25.114 209.956 24.694C209.44 24.262 209.008 23.428 208.66 22.192L207.976 19.816C207.748 19.816 207.502 19.822 207.238 19.834C206.974 19.846 206.746 19.852 206.554 19.852H201.424ZM202.144 12.526L201.334 15.316C201.562 15.316 201.808 15.316 202.072 15.316C202.336 15.304 202.57 15.298 202.774 15.298H205.402C205.582 15.298 205.786 15.304 206.014 15.316C206.254 15.316 206.488 15.316 206.716 15.316L206.086 13.066C205.81 12.058 205.486 10.87 205.114 9.502C204.742 8.134 204.406 6.856 204.106 5.668H203.89C203.77 6.34 203.608 7.084 203.404 7.9C203.2 8.716 202.984 9.532 202.756 10.348C202.54 11.152 202.336 11.878 202.144 12.526ZM234.048 11.968C234.048 13.528 233.694 14.824 232.986 15.856C232.29 16.876 231.33 17.638 230.106 18.142C228.882 18.634 227.49 18.88 225.93 18.88H223.968V25C223.488 25.084 222.996 25.138 222.492 25.162C221.988 25.198 221.556 25.216 221.196 25.216C220.86 25.216 220.404 25.198 219.828 25.162C219.252 25.138 218.736 25.084 218.28 25V5.344L218.478 5.128C219.45 5.104 220.62 5.074 221.988 5.038C223.356 5.002 224.67 4.984 225.93 4.984C227.502 4.984 228.9 5.224 230.124 5.704C231.348 6.184 232.308 6.94 233.004 7.972C233.7 9.004 234.048 10.336 234.048 11.968ZM223.968 9.196V14.704C224.292 14.692 224.586 14.686 224.85 14.686C225.114 14.674 225.312 14.668 225.444 14.668C226.236 14.668 226.83 14.524 227.226 14.236C227.634 13.936 227.904 13.576 228.036 13.156C228.168 12.724 228.234 12.316 228.234 11.932C228.234 11.572 228.168 11.182 228.036 10.762C227.904 10.342 227.634 9.982 227.226 9.682C226.83 9.382 226.236 9.232 225.444 9.232C225.144 9.232 224.928 9.232 224.796 9.232C224.664 9.22 224.388 9.208 223.968 9.196ZM236.052 15.118C236.052 11.902 236.88 9.352 238.536 7.468C240.204 5.572 242.634 4.624 245.826 4.624C249.066 4.624 251.508 5.566 253.152 7.45C254.808 9.322 255.636 11.878 255.636 15.118C255.636 18.358 254.808 20.908 253.152 22.768C251.496 24.616 249.054 25.54 245.826 25.54C242.586 25.54 240.144 24.604 238.5 22.732C236.868 20.86 236.052 18.322 236.052 15.118ZM241.866 15.118C241.866 15.802 241.908 16.51 241.992 17.242C242.088 17.962 242.268 18.634 242.532 19.258C242.808 19.882 243.21 20.392 243.738 20.788C244.266 21.172 244.968 21.364 245.844 21.364C246.72 21.364 247.422 21.172 247.95 20.788C248.478 20.392 248.874 19.882 249.138 19.258C249.414 18.634 249.594 17.962 249.678 17.242C249.774 16.51 249.822 15.802 249.822 15.118C249.822 14.422 249.774 13.708 249.678 12.976C249.594 12.232 249.414 11.548 249.138 10.924C248.874 10.288 248.478 9.778 247.95 9.394C247.422 8.998 246.72 8.8 245.844 8.8C244.968 8.8 244.266 8.998 243.738 9.394C243.21 9.778 242.808 10.288 242.532 10.924C242.268 11.548 242.088 12.232 241.992 12.976C241.908 13.708 241.866 14.422 241.866 15.118ZM275.506 11.194C275.506 12.118 275.296 12.94 274.876 13.66C274.456 14.38 273.928 14.974 273.292 15.442C272.668 15.91 272.044 16.21 271.42 16.342C272.068 16.558 272.602 16.888 273.022 17.332C273.454 17.776 273.826 18.346 274.138 19.042L275.074 21.184C275.29 21.676 275.536 22.132 275.812 22.552C276.088 22.96 276.394 23.308 276.73 23.596C276.382 24.028 275.86 24.43 275.164 24.802C274.468 25.162 273.712 25.342 272.896 25.342C272.092 25.342 271.438 25.15 270.934 24.766C270.442 24.37 270.01 23.74 269.638 22.876L268.054 19.24C267.802 18.652 267.49 18.298 267.118 18.178C266.746 18.058 266.266 17.998 265.678 17.998H264.976V25C264.496 25.084 263.998 25.138 263.482 25.162C262.978 25.198 262.546 25.216 262.186 25.216C261.85 25.216 261.406 25.198 260.854 25.162C260.302 25.138 259.798 25.084 259.342 25V5.344L259.54 5.128C260.992 5.092 262.354 5.062 263.626 5.038C264.91 5.002 266.188 4.984 267.46 4.984C268.9 4.984 270.232 5.176 271.456 5.56C272.68 5.932 273.658 6.574 274.39 7.486C275.134 8.386 275.506 9.622 275.506 11.194ZM264.976 9.052V13.714C265.396 13.702 265.78 13.696 266.128 13.696C266.488 13.684 266.752 13.678 266.92 13.678C268 13.678 268.732 13.444 269.116 12.976C269.5 12.508 269.692 11.962 269.692 11.338C269.692 10.726 269.5 10.198 269.116 9.754C268.732 9.31 268.09 9.088 267.19 9.088C266.758 9.088 266.386 9.082 266.074 9.07C265.762 9.058 265.396 9.052 264.976 9.052ZM282.862 11.914C282.862 11.53 282.868 11.176 282.88 10.852C282.892 10.516 282.898 10.144 282.898 9.736C282.646 9.736 282.298 9.742 281.854 9.754C281.422 9.766 281.08 9.772 280.828 9.772H277.498C277.402 9.34 277.342 8.938 277.318 8.566C277.294 8.182 277.282 7.834 277.282 7.522C277.282 7.21 277.294 6.844 277.318 6.424C277.342 5.992 277.402 5.572 277.498 5.164H293.788C293.872 5.488 293.932 5.854 293.968 6.262C294.016 6.67 294.04 7 294.04 7.252C294.04 8.068 293.824 8.692 293.392 9.124C292.96 9.556 292.24 9.772 291.232 9.772H290.494C290.242 9.772 289.906 9.766 289.486 9.754C289.078 9.742 288.76 9.736 288.532 9.736C288.532 10.144 288.538 10.516 288.55 10.852C288.562 11.176 288.568 11.53 288.568 11.914V25C288.232 25.072 287.77 25.126 287.182 25.162C286.594 25.198 286.102 25.216 285.706 25.216C285.334 25.216 284.866 25.198 284.302 25.162C283.738 25.126 283.258 25.072 282.862 25V11.914ZM311.569 20.482C311.569 22.198 311.299 23.392 310.759 24.064C310.231 24.736 309.331 25.072 308.059 25.072H299.761C298.741 25.072 297.937 24.784 297.349 24.208C296.761 23.62 296.467 22.834 296.467 21.85V5.362L296.665 5.164H310.903C310.987 5.572 311.035 5.962 311.047 6.334C311.059 6.706 311.065 7.06 311.065 7.396C311.065 7.72 311.029 8.086 310.957 8.494C310.897 8.902 310.789 9.316 310.633 9.736H304.333C303.829 9.736 303.067 9.73 302.047 9.718C302.059 10.09 302.065 10.408 302.065 10.672C302.077 10.936 302.083 11.254 302.083 11.626V12.814C303.079 12.802 303.829 12.796 304.333 12.796H308.941C309.061 13.12 309.139 13.492 309.175 13.912C309.223 14.32 309.247 14.668 309.247 14.956C309.247 15.292 309.223 15.67 309.175 16.09C309.139 16.498 309.061 16.87 308.941 17.206H304.333C304.105 17.206 303.787 17.206 303.379 17.206C302.971 17.206 302.539 17.206 302.083 17.206V18.376C302.083 18.82 302.077 19.186 302.065 19.474C302.053 19.762 302.047 20.122 302.047 20.554V20.59C302.467 20.566 302.857 20.542 303.217 20.518C303.577 20.494 304.015 20.482 304.531 20.482H311.569ZM313.561 23.506C313.561 23.05 313.651 22.546 313.831 21.994C314.011 21.43 314.257 20.908 314.569 20.428C314.881 19.948 315.223 19.588 315.595 19.348C316.483 19.828 317.473 20.242 318.565 20.59C319.657 20.926 320.725 21.094 321.769 21.094C322.441 21.094 322.993 20.956 323.425 20.68C323.869 20.404 324.091 20.014 324.091 19.51C324.091 19.186 323.965 18.892 323.713 18.628C323.461 18.352 323.023 18.1 322.399 17.872L319.411 16.702C318.487 16.366 317.623 15.946 316.819 15.442C316.015 14.938 315.367 14.32 314.875 13.588C314.383 12.856 314.137 11.98 314.137 10.96C314.137 9.088 314.857 7.564 316.297 6.388C317.737 5.212 319.675 4.624 322.111 4.624C323.491 4.624 324.859 4.786 326.215 5.11C327.583 5.422 328.729 5.782 329.653 6.19C329.653 7.006 329.485 7.81 329.149 8.602C328.813 9.394 328.351 10.018 327.763 10.474C326.875 10.078 325.909 9.748 324.865 9.484C323.821 9.208 322.879 9.07 322.039 9.07C321.415 9.07 320.935 9.202 320.599 9.466C320.275 9.73 320.113 10.048 320.113 10.42C320.113 10.768 320.275 11.032 320.599 11.212C320.923 11.392 321.325 11.572 321.805 11.752L324.775 12.886C326.431 13.486 327.745 14.314 328.717 15.37C329.701 16.414 330.193 17.704 330.193 19.24C330.193 20.596 329.827 21.742 329.095 22.678C328.375 23.614 327.385 24.322 326.125 24.802C324.877 25.282 323.467 25.528 321.895 25.54C320.023 25.54 318.355 25.324 316.891 24.892C315.439 24.46 314.329 23.998 313.561 23.506Z" fill="#364760"/>
</svg>
