<svg width="191" height="18" viewBox="0 0 191 18" fill="none" xmlns="http://www.w3.org/2000/svg">
<path d="M0.781875 15.572C0.829875 15.036 0.993875 14.504 1.27388 13.976C1.56188 13.448 1.89388 13.024 2.26988 12.704C2.94188 13.112 3.70588 13.476 4.56188 13.796C5.41788 14.116 6.27388 14.276 7.12988 14.276C7.82588 14.276 8.32588 14.108 8.62988 13.772C8.93388 13.436 9.08588 13.076 9.08588 12.692C9.08588 12.428 9.00188 12.132 8.83388 11.804C8.66588 11.476 8.24588 11.172 7.57388 10.892L4.68188 9.692C3.68988 9.276 2.86988 8.72 2.22188 8.024C1.57388 7.328 1.24988 6.408 1.24988 5.264C1.24988 4.264 1.50988 3.388 2.02988 2.636C2.54988 1.884 3.24988 1.3 4.12988 0.883999C5.01788 0.46 6.00588 0.248 7.09388 0.248C8.22188 0.248 9.28588 0.4 10.2859 0.704C11.2859 0.999999 12.0979 1.308 12.7219 1.628C12.6899 2.18 12.5579 2.712 12.3259 3.224C12.1019 3.728 11.8019 4.152 11.4259 4.496C10.8179 4.208 10.1059 3.944 9.28988 3.704C8.47388 3.456 7.74188 3.332 7.09388 3.332C6.40588 3.332 5.91388 3.488 5.61788 3.8C5.32988 4.112 5.18588 4.428 5.18588 4.748C5.18588 5.052 5.28588 5.324 5.48588 5.564C5.69388 5.804 6.06188 6.036 6.58987 6.26L9.54188 7.472C10.7019 7.952 11.5939 8.604 12.2179 9.428C12.8499 10.252 13.1659 11.18 13.1659 12.212C13.1659 13.18 12.9299 14.052 12.4579 14.828C11.9939 15.604 11.2939 16.22 10.3579 16.676C9.42188 17.132 8.25388 17.36 6.85388 17.36C5.88588 17.36 4.85388 17.208 3.75788 16.904C2.66188 16.592 1.66988 16.148 0.781875 15.572ZM25.5538 13.988C25.5538 15.132 25.3738 15.928 25.0138 16.376C24.6618 16.824 24.0618 17.048 23.2138 17.048H17.6818C17.0018 17.048 16.4658 16.856 16.0738 16.472C15.6818 16.08 15.4858 15.556 15.4858 14.9V3.908L15.6178 3.776H25.1098C25.1658 4.048 25.1978 4.308 25.2058 4.556C25.2138 4.804 25.2178 5.04 25.2178 5.264C25.2178 5.48 25.1938 5.724 25.1458 5.996C25.1058 6.268 25.0338 6.544 24.9298 6.824H20.7298C20.3938 6.824 19.8858 6.82 19.2058 6.812C19.2138 7.06 19.2178 7.272 19.2178 7.448C19.2258 7.624 19.2298 7.836 19.2298 8.084V8.876C19.8938 8.868 20.3938 8.864 20.7298 8.864H23.8018C23.8818 9.08 23.9338 9.328 23.9578 9.608C23.9898 9.88 24.0058 10.112 24.0058 10.304C24.0058 10.528 23.9898 10.78 23.9578 11.06C23.9338 11.332 23.8818 11.58 23.8018 11.804H20.7298C20.5778 11.804 20.3658 11.804 20.0938 11.804C19.8218 11.804 19.5338 11.804 19.2298 11.804V12.584C19.2298 12.88 19.2258 13.124 19.2178 13.316C19.2098 13.508 19.2058 13.748 19.2058 14.036V14.06C19.4858 14.044 19.7458 14.028 19.9858 14.012C20.2258 13.996 20.5178 13.988 20.8618 13.988H25.5538ZM37.5015 13.928C37.4535 15.096 37.2495 15.912 36.8895 16.376C36.5295 16.84 35.8895 17.072 34.9695 17.072H30.3135C29.6255 17.072 29.0855 16.88 28.6935 16.496C28.3095 16.104 28.1175 15.58 28.1175 14.924V3.8L28.2615 3.656H29.7015C30.4295 3.656 30.9815 3.84 31.3575 4.208C31.7335 4.568 31.9215 5.172 31.9215 6.02V14.048C32.7455 13.968 33.4855 13.928 34.1415 13.928H37.5015ZM49.8116 13.988C49.8116 15.132 49.6316 15.928 49.2716 16.376C48.9196 16.824 48.3196 17.048 47.4716 17.048H41.9396C41.2596 17.048 40.7236 16.856 40.3316 16.472C39.9396 16.08 39.7436 15.556 39.7436 14.9V3.908L39.8756 3.776H49.3676C49.4236 4.048 49.4556 4.308 49.4636 4.556C49.4716 4.804 49.4756 5.04 49.4756 5.264C49.4756 5.48 49.4516 5.724 49.4036 5.996C49.3636 6.268 49.2916 6.544 49.1876 6.824H44.9876C44.6516 6.824 44.1436 6.82 43.4636 6.812C43.4716 7.06 43.4756 7.272 43.4756 7.448C43.4836 7.624 43.4876 7.836 43.4876 8.084V8.876C44.1516 8.868 44.6516 8.864 44.9876 8.864H48.0596C48.1396 9.08 48.1916 9.328 48.2156 9.608C48.2476 9.88 48.2636 10.112 48.2636 10.304C48.2636 10.528 48.2476 10.78 48.2156 11.06C48.1916 11.332 48.1396 11.58 48.0596 11.804H44.9876C44.8356 11.804 44.6236 11.804 44.3516 11.804C44.0796 11.804 43.7916 11.804 43.4876 11.804V12.584C43.4876 12.88 43.4836 13.124 43.4756 13.316C43.4676 13.508 43.4636 13.748 43.4636 14.036V14.06C43.7436 14.044 44.0036 14.028 44.2436 14.012C44.4836 13.996 44.7756 13.988 45.1196 13.988H49.8116ZM59.5324 9.764C59.5324 8.748 59.3964 7.932 59.1244 7.316C58.8524 6.692 58.3044 6.38 57.4804 6.38C56.6244 6.38 56.0164 6.732 55.6564 7.436C55.2964 8.14 55.1164 9.152 55.1164 10.472C55.1164 11.48 55.2444 12.256 55.5004 12.8C55.7644 13.336 56.1004 13.708 56.5084 13.916C56.9164 14.124 57.3484 14.228 57.8044 14.228C58.3964 14.228 58.9884 14.1 59.5804 13.844C60.1804 13.58 60.7164 13.272 61.1884 12.92C61.4444 13.048 61.6924 13.252 61.9324 13.532C62.1724 13.812 62.3804 14.112 62.5564 14.432C62.7324 14.752 62.8444 15.044 62.8924 15.308C62.2284 15.876 61.4204 16.36 60.4684 16.76C59.5244 17.16 58.4484 17.36 57.2404 17.36C56.0804 17.36 55.1124 17.156 54.3364 16.748C53.5684 16.34 52.9564 15.804 52.5004 15.14C52.0444 14.468 51.7204 13.724 51.5284 12.908C51.3364 12.092 51.2404 11.272 51.2404 10.448C51.2404 8.808 51.5364 7.472 52.1284 6.44C52.7284 5.4 53.5124 4.636 54.4804 4.148C55.4564 3.66 56.5004 3.416 57.6124 3.416C58.8604 3.416 59.8884 3.636 60.6964 4.076C61.5044 4.516 62.1044 5.072 62.4964 5.744C62.8884 6.416 63.0844 7.108 63.0844 7.82C63.0844 9.188 62.3164 9.872 60.7804 9.872C60.5964 9.872 60.3964 9.86 60.1804 9.836C59.9644 9.812 59.7484 9.788 59.5324 9.764ZM72.6105 9.764C72.6105 8.748 72.4745 7.932 72.2025 7.316C71.9305 6.692 71.3825 6.38 70.5585 6.38C69.7025 6.38 69.0945 6.732 68.7345 7.436C68.3745 8.14 68.1945 9.152 68.1945 10.472C68.1945 11.48 68.3225 12.256 68.5785 12.8C68.8425 13.336 69.1785 13.708 69.5865 13.916C69.9945 14.124 70.4265 14.228 70.8825 14.228C71.4745 14.228 72.0665 14.1 72.6585 13.844C73.2585 13.58 73.7945 13.272 74.2665 12.92C74.5225 13.048 74.7705 13.252 75.0105 13.532C75.2505 13.812 75.4585 14.112 75.6345 14.432C75.8105 14.752 75.9225 15.044 75.9705 15.308C75.3065 15.876 74.4985 16.36 73.5465 16.76C72.6025 17.16 71.5265 17.36 70.3185 17.36C69.1585 17.36 68.1905 17.156 67.4145 16.748C66.6465 16.34 66.0345 15.804 65.5785 15.14C65.1225 14.468 64.7985 13.724 64.6065 12.908C64.4145 12.092 64.3185 11.272 64.3185 10.448C64.3185 8.808 64.6145 7.472 65.2065 6.44C65.8065 5.4 66.5905 4.636 67.5585 4.148C68.5345 3.66 69.5785 3.416 70.6905 3.416C71.9385 3.416 72.9665 3.636 73.7745 4.076C74.5825 4.516 75.1825 5.072 75.5745 5.744C75.9665 6.416 76.1625 7.108 76.1625 7.82C76.1625 9.188 75.3945 9.872 73.8585 9.872C73.6745 9.872 73.4745 9.86 73.2585 9.836C73.0425 9.812 72.8265 9.788 72.6105 9.764ZM78.5338 3.776C78.8378 3.712 79.1818 3.672 79.5658 3.656C79.9498 3.64 80.2538 3.632 80.4778 3.632C80.7178 3.632 81.0058 3.64 81.3418 3.656C81.6858 3.672 82.0178 3.712 82.3378 3.776V17C82.0178 17.056 81.6858 17.092 81.3418 17.108C81.0058 17.132 80.7178 17.144 80.4778 17.144C80.2538 17.144 79.9498 17.132 79.5658 17.108C79.1818 17.092 78.8378 17.056 78.5338 17V3.776ZM84.8498 10.412C84.8498 8.268 85.4018 6.568 86.5058 5.312C87.6178 4.048 89.2378 3.416 91.3658 3.416C93.5258 3.416 95.1538 4.044 96.2498 5.3C97.3538 6.548 97.9058 8.252 97.9058 10.412C97.9058 12.572 97.3538 14.272 96.2498 15.512C95.1458 16.744 93.5178 17.36 91.3658 17.36C89.2058 17.36 87.5778 16.736 86.4818 15.488C85.3938 14.24 84.8498 12.548 84.8498 10.412ZM88.7258 10.412C88.7258 10.868 88.7538 11.34 88.8098 11.828C88.8738 12.308 88.9938 12.756 89.1698 13.172C89.3538 13.588 89.6218 13.928 89.9738 14.192C90.3258 14.448 90.7938 14.576 91.3778 14.576C91.9618 14.576 92.4298 14.448 92.7818 14.192C93.1338 13.928 93.3978 13.588 93.5738 13.172C93.7578 12.756 93.8778 12.308 93.9338 11.828C93.9978 11.34 94.0298 10.868 94.0298 10.412C94.0298 9.948 93.9978 9.472 93.9338 8.984C93.8778 8.488 93.7578 8.032 93.5738 7.616C93.3978 7.192 93.1338 6.852 92.7818 6.596C92.4298 6.332 91.9618 6.2 91.3778 6.2C90.7938 6.2 90.3258 6.332 89.9738 6.596C89.6218 6.852 89.3538 7.192 89.1698 7.616C88.9938 8.032 88.8738 8.488 88.8098 8.984C88.7538 9.472 88.7258 9.948 88.7258 10.412ZM105.032 10.964C104.976 10.836 104.888 10.636 104.768 10.364C104.648 10.084 104.52 9.784 104.384 9.464C104.248 9.144 104.12 8.844 104 8.564C103.888 8.284 103.8 8.08 103.736 7.952L103.652 7.988C103.684 8.62 103.716 9.304 103.748 10.04C103.78 10.768 103.804 11.436 103.82 12.044C103.844 12.644 103.856 13.08 103.856 13.352V17C103.544 17.056 103.244 17.092 102.956 17.108C102.668 17.132 102.4 17.144 102.152 17.144C101.928 17.144 101.648 17.132 101.312 17.108C100.984 17.092 100.672 17.056 100.376 17V3.86C100.672 3.788 101.04 3.732 101.48 3.692C101.92 3.652 102.26 3.632 102.5 3.632C102.748 3.632 103.1 3.64 103.556 3.656C104.012 3.664 104.388 3.704 104.684 3.776L107.504 9.788C107.56 9.9 107.652 10.104 107.78 10.4C107.916 10.696 108.06 11.02 108.212 11.372C108.364 11.724 108.504 12.056 108.632 12.368C108.768 12.672 108.868 12.896 108.932 13.04L109.04 13.016C109.008 12.488 108.964 11.872 108.908 11.168C108.86 10.464 108.816 9.784 108.776 9.128C108.736 8.472 108.716 7.948 108.716 7.556V5.684C108.716 4.836 108.9 4.28 109.268 4.016C109.636 3.744 110.184 3.608 110.912 3.608H112.148L112.292 3.776V16.928C111.98 17 111.604 17.052 111.164 17.084C110.724 17.124 110.388 17.144 110.156 17.144C109.996 17.144 109.776 17.14 109.496 17.132C109.216 17.124 108.928 17.112 108.632 17.096C108.344 17.08 108.104 17.048 107.912 17L105.032 10.964ZM119.111 14.684C118.983 14.684 118.859 14.684 118.739 14.684C118.619 14.676 118.499 14.668 118.379 14.66L117.635 17C117.403 17.056 117.151 17.096 116.879 17.12C116.607 17.152 116.323 17.168 116.027 17.168C115.707 17.168 115.383 17.144 115.055 17.096C114.735 17.048 114.471 16.98 114.263 16.892L114.131 16.688L118.799 3.776C119.215 3.712 119.615 3.672 119.999 3.656C120.391 3.64 120.747 3.632 121.067 3.632C121.363 3.632 121.683 3.64 122.027 3.656C122.371 3.672 122.759 3.712 123.191 3.776L127.727 16.82C127.447 16.948 127.091 17.044 126.659 17.108C126.227 17.18 125.879 17.216 125.615 17.216C125.175 17.216 124.751 17.132 124.343 16.964C123.935 16.796 123.627 16.352 123.419 15.632L123.119 14.66C122.991 14.668 122.867 14.676 122.747 14.684C122.627 14.684 122.499 14.684 122.363 14.684H119.111ZM119.591 10.892L119.327 11.72C119.447 11.712 119.567 11.708 119.687 11.708C119.807 11.7 119.931 11.696 120.059 11.696H121.559C121.679 11.696 121.787 11.7 121.883 11.708C121.987 11.708 122.091 11.712 122.195 11.72L121.943 10.904C121.759 10.272 121.575 9.568 121.391 8.792C121.207 8.016 121.039 7.312 120.887 6.68H120.743C120.575 7.288 120.387 7.984 120.179 8.768C119.979 9.552 119.783 10.26 119.591 10.892ZM140.332 7.796C140.332 8.412 140.192 8.96 139.912 9.44C139.632 9.92 139.28 10.316 138.856 10.628C138.44 10.94 138.024 11.14 137.608 11.228C138.04 11.372 138.396 11.592 138.676 11.888C138.964 12.184 139.212 12.564 139.42 13.028L140.044 14.456C140.188 14.784 140.352 15.088 140.536 15.368C140.72 15.64 140.924 15.872 141.148 16.064C140.916 16.352 140.568 16.62 140.104 16.868C139.64 17.108 139.136 17.228 138.592 17.228C138.056 17.228 137.62 17.1 137.284 16.844C136.956 16.58 136.668 16.16 136.42 15.584L135.364 13.16C135.196 12.768 134.988 12.532 134.74 12.452C134.492 12.372 134.172 12.332 133.78 12.332H133.312V17C132.992 17.056 132.66 17.092 132.316 17.108C131.98 17.132 131.692 17.144 131.452 17.144C131.228 17.144 130.932 17.132 130.564 17.108C130.196 17.092 129.86 17.056 129.556 17V3.896L129.688 3.752C130.656 3.728 131.564 3.708 132.412 3.692C133.268 3.668 134.12 3.656 134.968 3.656C135.928 3.656 136.816 3.784 137.632 4.04C138.448 4.288 139.1 4.716 139.588 5.324C140.084 5.924 140.332 6.748 140.332 7.796ZM133.312 6.368V9.476C133.592 9.468 133.848 9.464 134.08 9.464C134.32 9.456 134.496 9.452 134.608 9.452C135.328 9.452 135.816 9.296 136.072 8.984C136.328 8.672 136.456 8.308 136.456 7.892C136.456 7.484 136.328 7.132 136.072 6.836C135.816 6.54 135.388 6.392 134.788 6.392C134.5 6.392 134.252 6.388 134.044 6.38C133.836 6.372 133.592 6.368 133.312 6.368ZM149.346 0.631999C149.754 0.559999 150.198 0.512 150.678 0.487999C151.166 0.463999 151.586 0.451999 151.938 0.451999C152.29 0.451999 152.682 0.463999 153.114 0.487999C153.546 0.512 153.966 0.559999 154.374 0.631999L155.79 6.5C155.822 6.644 155.874 6.892 155.946 7.244C156.026 7.596 156.114 7.996 156.21 8.444C156.306 8.892 156.394 9.332 156.474 9.764C156.562 10.196 156.63 10.564 156.678 10.868H156.846C156.894 10.564 156.962 10.196 157.05 9.764C157.138 9.332 157.226 8.892 157.314 8.444C157.41 7.996 157.498 7.596 157.578 7.244C157.658 6.892 157.714 6.644 157.746 6.5L159.162 0.631999C159.57 0.559999 159.986 0.512 160.41 0.487999C160.842 0.463999 161.234 0.451999 161.586 0.451999C161.938 0.451999 162.358 0.463999 162.846 0.487999C163.334 0.512 163.778 0.559999 164.178 0.631999L165.45 16.952C165.178 17.024 164.862 17.072 164.502 17.096C164.15 17.128 163.818 17.144 163.506 17.144C163.218 17.144 162.934 17.136 162.654 17.12C162.382 17.104 162.106 17.072 161.826 17.024L161.466 10.34C161.418 9.492 161.374 8.556 161.334 7.532C161.294 6.508 161.274 5.604 161.274 4.82H161.106L158.742 14.588C158.454 14.636 158.118 14.672 157.734 14.696C157.35 14.712 157.022 14.72 156.75 14.72C156.51 14.72 156.194 14.712 155.802 14.696C155.41 14.672 155.07 14.636 154.782 14.588L152.418 4.82H152.262C152.254 5.604 152.23 6.508 152.19 7.532C152.158 8.556 152.118 9.492 152.07 10.34L151.698 17.024C151.426 17.072 151.15 17.104 150.87 17.12C150.59 17.136 150.306 17.144 150.018 17.144C149.714 17.144 149.382 17.128 149.022 17.096C148.67 17.072 148.354 17.024 148.074 16.952L149.346 0.631999ZM178.554 13.988C178.554 15.132 178.374 15.928 178.014 16.376C177.662 16.824 177.062 17.048 176.214 17.048H170.682C170.002 17.048 169.466 16.856 169.074 16.472C168.682 16.08 168.486 15.556 168.486 14.9V3.908L168.618 3.776H178.11C178.166 4.048 178.198 4.308 178.206 4.556C178.214 4.804 178.218 5.04 178.218 5.264C178.218 5.48 178.194 5.724 178.146 5.996C178.106 6.268 178.034 6.544 177.93 6.824H173.73C173.394 6.824 172.886 6.82 172.206 6.812C172.214 7.06 172.218 7.272 172.218 7.448C172.226 7.624 172.23 7.836 172.23 8.084V8.876C172.894 8.868 173.394 8.864 173.73 8.864H176.802C176.882 9.08 176.934 9.328 176.958 9.608C176.99 9.88 177.006 10.112 177.006 10.304C177.006 10.528 176.99 10.78 176.958 11.06C176.934 11.332 176.882 11.58 176.802 11.804H173.73C173.578 11.804 173.366 11.804 173.094 11.804C172.822 11.804 172.534 11.804 172.23 11.804V12.584C172.23 12.88 172.226 13.124 172.218 13.316C172.21 13.508 172.206 13.748 172.206 14.036V14.06C172.486 14.044 172.746 14.028 172.986 14.012C173.226 13.996 173.518 13.988 173.862 13.988H178.554ZM179.882 16.004C179.882 15.7 179.942 15.364 180.062 14.996C180.182 14.62 180.346 14.272 180.554 13.952C180.762 13.632 180.99 13.392 181.238 13.232C181.83 13.552 182.49 13.828 183.218 14.06C183.946 14.284 184.658 14.396 185.354 14.396C185.802 14.396 186.17 14.304 186.458 14.12C186.754 13.936 186.902 13.676 186.902 13.34C186.902 13.124 186.818 12.928 186.65 12.752C186.482 12.568 186.19 12.4 185.773 12.248L183.782 11.468C183.166 11.244 182.59 10.964 182.054 10.628C181.518 10.292 181.086 9.88 180.758 9.392C180.43 8.904 180.266 8.32 180.266 7.64C180.266 6.392 180.746 5.376 181.706 4.592C182.666 3.808 183.958 3.416 185.582 3.416C186.502 3.416 187.414 3.524 188.318 3.74C189.23 3.948 189.994 4.188 190.61 4.46C190.61 5.004 190.498 5.54 190.274 6.068C190.05 6.596 189.742 7.012 189.35 7.316C188.758 7.052 188.114 6.832 187.418 6.656C186.722 6.472 186.094 6.38 185.534 6.38C185.118 6.38 184.798 6.468 184.574 6.644C184.358 6.82 184.25 7.032 184.25 7.28C184.25 7.512 184.358 7.688 184.574 7.808C184.79 7.928 185.058 8.048 185.378 8.168L187.358 8.924C188.462 9.324 189.338 9.876 189.986 10.58C190.642 11.276 190.97 12.136 190.97 13.16C190.97 14.064 190.726 14.828 190.238 15.452C189.758 16.076 189.098 16.548 188.258 16.868C187.426 17.188 186.486 17.352 185.438 17.36C184.19 17.36 183.078 17.216 182.102 16.928C181.134 16.64 180.394 16.332 179.882 16.004Z" fill="#364760"/>
</svg>
