<svg width="133" height="26" viewBox="0 0 133 26" fill="none" xmlns="http://www.w3.org/2000/svg">
<path d="M8.694 19.852C8.502 19.852 8.274 19.846 8.01 19.834C7.758 19.822 7.512 19.816 7.272 19.816L5.742 25.036C5.382 25.12 4.992 25.174 4.572 25.198C4.164 25.234 3.738 25.252 3.294 25.252C2.862 25.252 2.37 25.216 1.818 25.144C1.278 25.084 0.846 24.988 0.522 24.856L0.306 24.55L8.262 0.411999C8.718 0.339998 9.264 0.285998 9.9 0.249998C10.548 0.213999 11.112 0.196 11.592 0.196C12.048 0.196 12.6 0.219999 13.248 0.267999C13.896 0.303999 14.454 0.363999 14.922 0.447999L22.662 24.622C22.266 24.85 21.75 25.024 21.114 25.144C20.49 25.264 19.908 25.324 19.368 25.324C18.456 25.324 17.742 25.114 17.226 24.694C16.71 24.262 16.278 23.428 15.93 22.192L15.246 19.816C15.018 19.816 14.772 19.822 14.508 19.834C14.244 19.846 14.016 19.852 13.824 19.852H8.694ZM9.414 12.526L8.604 15.316C8.832 15.316 9.078 15.316 9.342 15.316C9.606 15.304 9.84 15.298 10.044 15.298H12.672C12.852 15.298 13.056 15.304 13.284 15.316C13.524 15.316 13.758 15.316 13.986 15.316L13.356 13.066C13.08 12.058 12.756 10.87 12.384 9.502C12.012 8.134 11.676 6.856 11.376 5.668H11.16C11.04 6.34 10.878 7.084 10.674 7.9C10.47 8.716 10.254 9.532 10.026 10.348C9.81 11.152 9.606 11.878 9.414 12.526ZM23.623 23.506C23.623 23.05 23.713 22.546 23.893 21.994C24.073 21.43 24.319 20.908 24.631 20.428C24.943 19.948 25.285 19.588 25.657 19.348C26.545 19.828 27.535 20.242 28.627 20.59C29.719 20.926 30.787 21.094 31.831 21.094C32.503 21.094 33.055 20.956 33.487 20.68C33.931 20.404 34.153 20.014 34.153 19.51C34.153 19.186 34.027 18.892 33.775 18.628C33.523 18.352 33.085 18.1 32.461 17.872L29.473 16.702C28.549 16.366 27.685 15.946 26.881 15.442C26.077 14.938 25.429 14.32 24.937 13.588C24.445 12.856 24.199 11.98 24.199 10.96C24.199 9.088 24.919 7.564 26.359 6.388C27.799 5.212 29.737 4.624 32.173 4.624C33.553 4.624 34.921 4.786 36.277 5.11C37.645 5.422 38.791 5.782 39.715 6.19C39.715 7.006 39.547 7.81 39.211 8.602C38.875 9.394 38.413 10.018 37.825 10.474C36.937 10.078 35.971 9.748 34.927 9.484C33.883 9.208 32.941 9.07 32.101 9.07C31.477 9.07 30.997 9.202 30.661 9.466C30.337 9.73 30.175 10.048 30.175 10.42C30.175 10.768 30.337 11.032 30.661 11.212C30.985 11.392 31.387 11.572 31.867 11.752L34.837 12.886C36.493 13.486 37.807 14.314 38.779 15.37C39.763 16.414 40.255 17.704 40.255 19.24C40.255 20.596 39.889 21.742 39.157 22.678C38.437 23.614 37.447 24.322 36.187 24.802C34.939 25.282 33.529 25.528 31.957 25.54C30.085 25.54 28.417 25.324 26.953 24.892C25.501 24.46 24.391 23.998 23.623 23.506ZM61.004 17.566C61.004 20.05 60.26 22 58.772 23.416C57.296 24.832 55.106 25.54 52.202 25.54C49.298 25.54 47.102 24.832 45.614 23.416C44.138 22 43.4 20.05 43.4 17.566V5.164L43.616 4.948H45.668C46.76 4.948 47.6 5.224 48.188 5.776C48.788 6.328 49.088 7.258 49.088 8.566V17.548C49.088 18.64 49.316 19.498 49.772 20.122C50.228 20.746 51.038 21.058 52.202 21.058C53.378 21.058 54.188 20.746 54.632 20.122C55.076 19.498 55.298 18.64 55.298 17.548V5.164C55.778 5.068 56.27 5.008 56.774 4.984C57.278 4.96 57.716 4.948 58.088 4.948C58.424 4.948 58.88 4.966 59.456 5.002C60.032 5.026 60.548 5.086 61.004 5.182V17.566ZM72.8221 15.946C72.7381 15.754 72.6061 15.454 72.4261 15.046C72.2461 14.626 72.0541 14.176 71.8501 13.696C71.6461 13.216 71.4541 12.766 71.2741 12.346C71.1061 11.926 70.9741 11.62 70.8781 11.428L70.7521 11.482C70.8001 12.43 70.8481 13.456 70.8961 14.56C70.9441 15.652 70.9801 16.654 71.0041 17.566C71.0401 18.466 71.0581 19.12 71.0581 19.528V25C70.5901 25.084 70.1401 25.138 69.7081 25.162C69.2761 25.198 68.8741 25.216 68.5021 25.216C68.1661 25.216 67.7461 25.198 67.2421 25.162C66.7501 25.138 66.2821 25.084 65.8381 25V5.29C66.2821 5.182 66.8341 5.098 67.4941 5.038C68.1541 4.978 68.6641 4.948 69.0241 4.948C69.3961 4.948 69.9241 4.96 70.6081 4.984C71.2921 4.996 71.8561 5.056 72.3001 5.164L76.5301 14.182C76.6141 14.35 76.7521 14.656 76.9441 15.1C77.1481 15.544 77.3641 16.03 77.5921 16.558C77.8201 17.086 78.0301 17.584 78.2221 18.052C78.4261 18.508 78.5761 18.844 78.6721 19.06L78.8341 19.024C78.7861 18.232 78.7201 17.308 78.6361 16.252C78.5641 15.196 78.4981 14.176 78.4381 13.192C78.3781 12.208 78.3481 11.422 78.3481 10.834V8.026C78.3481 6.754 78.6241 5.92 79.1761 5.524C79.7281 5.116 80.5501 4.912 81.6421 4.912H83.4961L83.7121 5.164V24.892C83.2441 25 82.6801 25.078 82.0201 25.126C81.3601 25.186 80.8561 25.216 80.5081 25.216C80.2681 25.216 79.9381 25.21 79.5181 25.198C79.0981 25.186 78.6661 25.168 78.2221 25.144C77.7901 25.12 77.4301 25.072 77.1421 25L72.8221 15.946ZM91.9246 11.914C91.9246 11.53 91.9306 11.176 91.9426 10.852C91.9546 10.516 91.9606 10.144 91.9606 9.736C91.7086 9.736 91.3606 9.742 90.9166 9.754C90.4846 9.766 90.1426 9.772 89.8906 9.772H86.5606C86.4646 9.34 86.4046 8.938 86.3806 8.566C86.3566 8.182 86.3446 7.834 86.3446 7.522C86.3446 7.21 86.3566 6.844 86.3806 6.424C86.4046 5.992 86.4646 5.572 86.5606 5.164H102.851C102.935 5.488 102.995 5.854 103.031 6.262C103.079 6.67 103.103 7 103.103 7.252C103.103 8.068 102.887 8.692 102.455 9.124C102.023 9.556 101.303 9.772 100.295 9.772H99.5566C99.3046 9.772 98.9686 9.766 98.5486 9.754C98.1406 9.742 97.8226 9.736 97.5946 9.736C97.5946 10.144 97.6006 10.516 97.6126 10.852C97.6246 11.176 97.6306 11.53 97.6306 11.914V25C97.2946 25.072 96.8326 25.126 96.2446 25.162C95.6566 25.198 95.1646 25.216 94.7686 25.216C94.3966 25.216 93.9286 25.198 93.3646 25.162C92.8006 25.126 92.3206 25.072 91.9246 25V11.914ZM103.685 15.118C103.685 11.902 104.513 9.352 106.169 7.468C107.837 5.572 110.267 4.624 113.459 4.624C116.699 4.624 119.141 5.566 120.785 7.45C122.441 9.322 123.269 11.878 123.269 15.118C123.269 18.358 122.441 20.908 120.785 22.768C119.129 24.616 116.687 25.54 113.459 25.54C110.219 25.54 107.777 24.604 106.133 22.732C104.501 20.86 103.685 18.322 103.685 15.118ZM109.499 15.118C109.499 15.802 109.541 16.51 109.625 17.242C109.721 17.962 109.901 18.634 110.165 19.258C110.441 19.882 110.843 20.392 111.371 20.788C111.899 21.172 112.601 21.364 113.477 21.364C114.353 21.364 115.055 21.172 115.583 20.788C116.111 20.392 116.507 19.882 116.771 19.258C117.047 18.634 117.227 17.962 117.311 17.242C117.407 16.51 117.455 15.802 117.455 15.118C117.455 14.422 117.407 13.708 117.311 12.976C117.227 12.232 117.047 11.548 116.771 10.924C116.507 10.288 116.111 9.778 115.583 9.394C115.055 8.998 114.353 8.8 113.477 8.8C112.601 8.8 111.899 8.998 111.371 9.394C110.843 9.778 110.441 10.288 110.165 10.924C109.901 11.548 109.721 12.232 109.625 12.976C109.541 13.708 109.499 14.422 109.499 15.118ZM126.435 22.552C126.435 22.336 126.465 22 126.525 21.544C126.597 21.088 126.711 20.698 126.867 20.374C127.227 20.17 127.665 20.008 128.181 19.888C128.709 19.768 129.213 19.708 129.693 19.708C130.161 19.708 130.659 19.768 131.187 19.888C131.715 20.008 132.159 20.17 132.519 20.374C132.675 20.698 132.783 21.088 132.843 21.544C132.903 22 132.933 22.336 132.933 22.552C132.933 22.768 132.903 23.104 132.843 23.56C132.783 24.016 132.675 24.406 132.519 24.73C132.159 24.946 131.715 25.108 131.187 25.216C130.659 25.324 130.161 25.378 129.693 25.378C129.213 25.378 128.709 25.324 128.181 25.216C127.665 25.108 127.227 24.946 126.867 24.73C126.711 24.406 126.597 24.016 126.525 23.56C126.465 23.104 126.435 22.768 126.435 22.552ZM126.435 11.428C126.435 11.212 126.465 10.876 126.525 10.42C126.597 9.964 126.711 9.574 126.867 9.25C127.227 9.046 127.665 8.884 128.181 8.764C128.709 8.644 129.213 8.584 129.693 8.584C130.161 8.584 130.659 8.644 131.187 8.764C131.715 8.884 132.159 9.046 132.519 9.25C132.675 9.574 132.783 9.964 132.843 10.42C132.903 10.876 132.933 11.212 132.933 11.428C132.933 11.644 132.903 11.98 132.843 12.436C132.783 12.892 132.675 13.282 132.519 13.606C132.159 13.822 131.715 13.984 131.187 14.092C130.659 14.2 130.161 14.254 129.693 14.254C129.213 14.254 128.709 14.2 128.181 14.092C127.665 13.984 127.227 13.822 126.867 13.606C126.711 13.282 126.597 12.892 126.525 12.436C126.465 11.98 126.435 11.644 126.435 11.428Z" fill="white" fill-opacity="0.87"/>
</svg>
