<svg width="332" height="26" viewBox="0 0 332 26" fill="none" xmlns="http://www.w3.org/2000/svg">
<path d="M0.450891 0.339998C1.89089 0.303999 3.31289 0.273999 4.71689 0.249998C6.13289 0.213999 7.47689 0.196 8.74889 0.196C11.2569 0.196 13.2849 0.723999 14.8329 1.78C16.3929 2.824 17.1729 4.48 17.1729 6.748C17.1729 7.84 16.8669 8.836 16.2549 9.736C15.6549 10.636 14.9049 11.284 14.0049 11.68C14.7969 11.944 15.5169 12.388 16.1649 13.012C16.8249 13.624 17.3469 14.362 17.7309 15.226C18.1269 16.078 18.3249 16.978 18.3249 17.926C18.3249 20.446 17.5089 22.294 15.8769 23.47C14.2569 24.634 12.0729 25.216 9.32489 25.216C7.92089 25.216 6.47489 25.198 4.98689 25.162C3.49889 25.138 1.98689 25.108 0.450891 25.072L0.198891 24.82V0.591999L0.450891 0.339998ZM8.46089 4.282C8.14889 4.282 7.75289 4.282 7.27289 4.282C6.79289 4.282 6.32489 4.27 5.86889 4.246V10.06H8.46089C9.26489 10.06 9.88889 9.916 10.3329 9.628C10.7889 9.34 11.1069 8.974 11.2869 8.53C11.4669 8.074 11.5569 7.612 11.5569 7.144C11.5569 6.436 11.3409 5.782 10.9089 5.182C10.4889 4.582 9.67289 4.282 8.46089 4.282ZM5.86889 21.184C6.45689 21.172 7.01489 21.166 7.54289 21.166C8.07089 21.154 8.52689 21.148 8.91089 21.148C9.89489 21.148 10.6449 20.968 11.1609 20.608C11.6889 20.236 12.0489 19.786 12.2409 19.258C12.4449 18.718 12.5469 18.196 12.5469 17.692C12.5469 17.164 12.4389 16.63 12.2229 16.09C12.0189 15.538 11.6469 15.076 11.1069 14.704C10.5789 14.332 9.83489 14.146 8.87489 14.146H5.86889V21.184ZM27.173 21.526C26.981 21.526 26.795 21.526 26.615 21.526C26.435 21.514 26.255 21.502 26.075 21.49L24.959 25C24.611 25.084 24.233 25.144 23.825 25.18C23.417 25.228 22.991 25.252 22.547 25.252C22.067 25.252 21.581 25.216 21.089 25.144C20.609 25.072 20.213 24.97 19.901 24.838L19.703 24.532L26.705 5.164C27.329 5.068 27.929 5.008 28.505 4.984C29.093 4.96 29.627 4.948 30.107 4.948C30.551 4.948 31.031 4.96 31.547 4.984C32.063 5.008 32.645 5.068 33.293 5.164L40.097 24.73C39.677 24.922 39.143 25.066 38.495 25.162C37.847 25.27 37.325 25.324 36.929 25.324C36.269 25.324 35.633 25.198 35.021 24.946C34.409 24.694 33.947 24.028 33.635 22.948L33.185 21.49C32.993 21.502 32.807 21.514 32.627 21.526C32.447 21.526 32.255 21.526 32.051 21.526H27.173ZM27.893 15.838L27.497 17.08C27.677 17.068 27.857 17.062 28.037 17.062C28.217 17.05 28.403 17.044 28.595 17.044H30.845C31.025 17.044 31.187 17.05 31.331 17.062C31.487 17.062 31.643 17.068 31.799 17.08L31.421 15.856C31.145 14.908 30.869 13.852 30.593 12.688C30.317 11.524 30.065 10.468 29.837 9.52H29.621C29.369 10.432 29.087 11.476 28.775 12.652C28.475 13.828 28.181 14.89 27.893 15.838ZM49.824 15.946C49.74 15.754 49.608 15.454 49.428 15.046C49.248 14.626 49.056 14.176 48.852 13.696C48.648 13.216 48.456 12.766 48.276 12.346C48.108 11.926 47.976 11.62 47.88 11.428L47.754 11.482C47.802 12.43 47.85 13.456 47.898 14.56C47.946 15.652 47.982 16.654 48.006 17.566C48.042 18.466 48.06 19.12 48.06 19.528V25C47.592 25.084 47.142 25.138 46.71 25.162C46.278 25.198 45.876 25.216 45.504 25.216C45.168 25.216 44.748 25.198 44.244 25.162C43.752 25.138 43.284 25.084 42.84 25V5.29C43.284 5.182 43.836 5.098 44.496 5.038C45.156 4.978 45.666 4.948 46.026 4.948C46.398 4.948 46.926 4.96 47.61 4.984C48.294 4.996 48.858 5.056 49.302 5.164L53.532 14.182C53.616 14.35 53.754 14.656 53.946 15.1C54.15 15.544 54.366 16.03 54.594 16.558C54.822 17.086 55.032 17.584 55.224 18.052C55.428 18.508 55.578 18.844 55.674 19.06L55.836 19.024C55.788 18.232 55.722 17.308 55.638 16.252C55.566 15.196 55.5 14.176 55.44 13.192C55.38 12.208 55.35 11.422 55.35 10.834V8.026C55.35 6.754 55.626 5.92 56.178 5.524C56.73 5.116 57.552 4.912 58.644 4.912H60.498L60.714 5.164V24.892C60.246 25 59.682 25.078 59.022 25.126C58.362 25.186 57.858 25.216 57.51 25.216C57.27 25.216 56.94 25.21 56.52 25.198C56.1 25.186 55.668 25.168 55.224 25.144C54.792 25.12 54.432 25.072 54.144 25L49.824 15.946ZM83.9925 15.118C83.9925 18.478 83.2065 20.992 81.6345 22.66C80.0625 24.316 77.5845 25.144 74.2005 25.144C72.7725 25.144 71.4165 25.132 70.1325 25.108C68.8605 25.096 67.5165 25.072 66.1005 25.036L65.9025 24.82V5.344L66.1005 5.128C67.5285 5.092 68.8785 5.062 70.1505 5.038C71.4225 5.002 72.7725 4.984 74.2005 4.984C77.5485 4.984 80.0145 5.854 81.5985 7.594C83.1945 9.322 83.9925 11.83 83.9925 15.118ZM78.1965 15.118C78.1965 14.242 78.1065 13.366 77.9265 12.49C77.7465 11.602 77.3685 10.858 76.7925 10.258C76.2165 9.658 75.3525 9.358 74.2005 9.358C73.6725 9.358 73.2165 9.358 72.8325 9.358C72.4605 9.346 72.0285 9.334 71.5365 9.322V20.842C72.0525 20.842 72.4905 20.836 72.8505 20.824C73.2225 20.812 73.6725 20.806 74.2005 20.806C75.3525 20.806 76.2165 20.512 76.7925 19.924C77.3685 19.324 77.7465 18.586 77.9265 17.71C78.1065 16.834 78.1965 15.97 78.1965 15.118ZM102.837 20.482C102.837 22.198 102.567 23.392 102.027 24.064C101.499 24.736 100.599 25.072 99.3266 25.072H91.0286C90.0086 25.072 89.2046 24.784 88.6166 24.208C88.0286 23.62 87.7346 22.834 87.7346 21.85V5.362L87.9326 5.164H102.171C102.255 5.572 102.303 5.962 102.315 6.334C102.327 6.706 102.333 7.06 102.333 7.396C102.333 7.72 102.297 8.086 102.225 8.494C102.165 8.902 102.057 9.316 101.901 9.736H95.6006C95.0966 9.736 94.3346 9.73 93.3146 9.718C93.3266 10.09 93.3326 10.408 93.3326 10.672C93.3446 10.936 93.3506 11.254 93.3506 11.626V12.814C94.3466 12.802 95.0966 12.796 95.6006 12.796H100.209C100.329 13.12 100.407 13.492 100.443 13.912C100.491 14.32 100.515 14.668 100.515 14.956C100.515 15.292 100.491 15.67 100.443 16.09C100.407 16.498 100.329 16.87 100.209 17.206H95.6006C95.3726 17.206 95.0546 17.206 94.6466 17.206C94.2386 17.206 93.8066 17.206 93.3506 17.206V18.376C93.3506 18.82 93.3446 19.186 93.3326 19.474C93.3206 19.762 93.3146 20.122 93.3146 20.554V20.59C93.7346 20.566 94.1246 20.542 94.4846 20.518C94.8446 20.494 95.2826 20.482 95.7986 20.482H102.837ZM106.106 20.014C107.162 20.686 108.164 21.022 109.112 21.022C110.036 21.022 110.708 20.728 111.128 20.14C111.548 19.54 111.758 18.664 111.758 17.512V5.164C112.214 5.068 112.718 5.008 113.27 4.984C113.822 4.96 114.266 4.948 114.602 4.948C114.974 4.948 115.424 4.96 115.952 4.984C116.48 4.996 116.978 5.056 117.446 5.164V17.296C117.446 19.936 116.876 21.97 115.736 23.398C114.608 24.814 112.646 25.522 109.85 25.522C108.806 25.522 107.744 25.366 106.664 25.054C105.596 24.742 104.774 24.37 104.198 23.938C104.318 23.242 104.54 22.546 104.864 21.85C105.188 21.142 105.602 20.53 106.106 20.014ZM126.665 21.526C126.473 21.526 126.287 21.526 126.107 21.526C125.927 21.514 125.747 21.502 125.567 21.49L124.451 25C124.103 25.084 123.725 25.144 123.317 25.18C122.909 25.228 122.483 25.252 122.039 25.252C121.559 25.252 121.073 25.216 120.581 25.144C120.101 25.072 119.705 24.97 119.393 24.838L119.195 24.532L126.197 5.164C126.821 5.068 127.421 5.008 127.997 4.984C128.585 4.96 129.119 4.948 129.599 4.948C130.043 4.948 130.523 4.96 131.039 4.984C131.555 5.008 132.137 5.068 132.785 5.164L139.589 24.73C139.169 24.922 138.635 25.066 137.987 25.162C137.339 25.27 136.817 25.324 136.421 25.324C135.761 25.324 135.125 25.198 134.513 24.946C133.901 24.694 133.439 24.028 133.127 22.948L132.677 21.49C132.485 21.502 132.299 21.514 132.119 21.526C131.939 21.526 131.747 21.526 131.543 21.526H126.665ZM127.385 15.838L126.989 17.08C127.169 17.068 127.349 17.062 127.529 17.062C127.709 17.05 127.895 17.044 128.087 17.044H130.337C130.517 17.044 130.679 17.05 130.823 17.062C130.979 17.062 131.135 17.068 131.291 17.08L130.913 15.856C130.637 14.908 130.361 13.852 130.085 12.688C129.809 11.524 129.557 10.468 129.329 9.52H129.113C128.861 10.432 128.579 11.476 128.267 12.652C127.967 13.828 127.673 14.89 127.385 15.838ZM168.332 15.118C168.332 18.478 167.546 20.992 165.974 22.66C164.402 24.316 161.924 25.144 158.54 25.144C157.112 25.144 155.756 25.132 154.472 25.108C153.2 25.096 151.856 25.072 150.44 25.036L150.242 24.82V5.344L150.44 5.128C151.868 5.092 153.218 5.062 154.49 5.038C155.762 5.002 157.112 4.984 158.54 4.984C161.888 4.984 164.354 5.854 165.938 7.594C167.534 9.322 168.332 11.83 168.332 15.118ZM162.536 15.118C162.536 14.242 162.446 13.366 162.266 12.49C162.086 11.602 161.708 10.858 161.132 10.258C160.556 9.658 159.692 9.358 158.54 9.358C158.012 9.358 157.556 9.358 157.172 9.358C156.8 9.346 156.368 9.334 155.876 9.322V20.842C156.392 20.842 156.83 20.836 157.19 20.824C157.562 20.812 158.012 20.806 158.54 20.806C159.692 20.806 160.556 20.512 161.132 19.924C161.708 19.324 162.086 18.586 162.266 17.71C162.446 16.834 162.536 15.97 162.536 15.118ZM187.176 20.482C187.176 22.198 186.906 23.392 186.366 24.064C185.838 24.736 184.938 25.072 183.666 25.072H175.368C174.348 25.072 173.544 24.784 172.956 24.208C172.368 23.62 172.074 22.834 172.074 21.85V5.362L172.272 5.164H186.51C186.594 5.572 186.642 5.962 186.654 6.334C186.666 6.706 186.672 7.06 186.672 7.396C186.672 7.72 186.636 8.086 186.564 8.494C186.504 8.902 186.396 9.316 186.24 9.736H179.94C179.436 9.736 178.674 9.73 177.654 9.718C177.666 10.09 177.672 10.408 177.672 10.672C177.684 10.936 177.69 11.254 177.69 11.626V12.814C178.686 12.802 179.436 12.796 179.94 12.796H184.548C184.668 13.12 184.746 13.492 184.782 13.912C184.83 14.32 184.854 14.668 184.854 14.956C184.854 15.292 184.83 15.67 184.782 16.09C184.746 16.498 184.668 16.87 184.548 17.206H179.94C179.712 17.206 179.394 17.206 178.986 17.206C178.578 17.206 178.146 17.206 177.69 17.206V18.376C177.69 18.82 177.684 19.186 177.672 19.474C177.66 19.762 177.654 20.122 177.654 20.554V20.59C178.074 20.566 178.464 20.542 178.824 20.518C179.184 20.494 179.622 20.482 180.138 20.482H187.176ZM204.044 21.526C203.852 21.526 203.666 21.526 203.486 21.526C203.306 21.514 203.126 21.502 202.946 21.49L201.83 25C201.482 25.084 201.104 25.144 200.696 25.18C200.288 25.228 199.862 25.252 199.418 25.252C198.938 25.252 198.452 25.216 197.96 25.144C197.48 25.072 197.084 24.97 196.772 24.838L196.574 24.532L203.576 5.164C204.2 5.068 204.8 5.008 205.376 4.984C205.964 4.96 206.498 4.948 206.978 4.948C207.422 4.948 207.902 4.96 208.418 4.984C208.934 5.008 209.516 5.068 210.164 5.164L216.968 24.73C216.548 24.922 216.014 25.066 215.366 25.162C214.718 25.27 214.196 25.324 213.8 25.324C213.14 25.324 212.504 25.198 211.892 24.946C211.28 24.694 210.818 24.028 210.506 22.948L210.056 21.49C209.864 21.502 209.678 21.514 209.498 21.526C209.318 21.526 209.126 21.526 208.922 21.526H204.044ZM204.764 15.838L204.368 17.08C204.548 17.068 204.728 17.062 204.908 17.062C205.088 17.05 205.274 17.044 205.466 17.044H207.716C207.896 17.044 208.058 17.05 208.202 17.062C208.358 17.062 208.514 17.068 208.67 17.08L208.292 15.856C208.016 14.908 207.74 13.852 207.464 12.688C207.188 11.524 206.936 10.468 206.708 9.52H206.492C206.24 10.432 205.958 11.476 205.646 12.652C205.346 13.828 205.052 14.89 204.764 15.838ZM235.479 11.968C235.479 13.528 235.125 14.824 234.417 15.856C233.721 16.876 232.761 17.638 231.537 18.142C230.313 18.634 228.921 18.88 227.361 18.88H225.399V25C224.919 25.084 224.427 25.138 223.923 25.162C223.419 25.198 222.987 25.216 222.627 25.216C222.291 25.216 221.835 25.198 221.259 25.162C220.683 25.138 220.167 25.084 219.711 25V5.344L219.909 5.128C220.881 5.104 222.051 5.074 223.419 5.038C224.787 5.002 226.101 4.984 227.361 4.984C228.933 4.984 230.331 5.224 231.555 5.704C232.779 6.184 233.739 6.94 234.435 7.972C235.131 9.004 235.479 10.336 235.479 11.968ZM225.399 9.196V14.704C225.723 14.692 226.017 14.686 226.281 14.686C226.545 14.674 226.743 14.668 226.875 14.668C227.667 14.668 228.261 14.524 228.657 14.236C229.065 13.936 229.335 13.576 229.467 13.156C229.599 12.724 229.665 12.316 229.665 11.932C229.665 11.572 229.599 11.182 229.467 10.762C229.335 10.342 229.065 9.982 228.657 9.682C228.261 9.382 227.667 9.232 226.875 9.232C226.575 9.232 226.359 9.232 226.227 9.232C226.095 9.22 225.819 9.208 225.399 9.196ZM237.484 15.118C237.484 11.902 238.312 9.352 239.968 7.468C241.636 5.572 244.066 4.624 247.258 4.624C250.498 4.624 252.94 5.566 254.584 7.45C256.24 9.322 257.068 11.878 257.068 15.118C257.068 18.358 256.24 20.908 254.584 22.768C252.928 24.616 250.486 25.54 247.258 25.54C244.018 25.54 241.576 24.604 239.932 22.732C238.3 20.86 237.484 18.322 237.484 15.118ZM243.298 15.118C243.298 15.802 243.34 16.51 243.424 17.242C243.52 17.962 243.7 18.634 243.964 19.258C244.24 19.882 244.642 20.392 245.17 20.788C245.698 21.172 246.4 21.364 247.276 21.364C248.152 21.364 248.854 21.172 249.382 20.788C249.91 20.392 250.306 19.882 250.57 19.258C250.846 18.634 251.026 17.962 251.11 17.242C251.206 16.51 251.254 15.802 251.254 15.118C251.254 14.422 251.206 13.708 251.11 12.976C251.026 12.232 250.846 11.548 250.57 10.924C250.306 10.288 249.91 9.778 249.382 9.394C248.854 8.998 248.152 8.8 247.276 8.8C246.4 8.8 245.698 8.998 245.17 9.394C244.642 9.778 244.24 10.288 243.964 10.924C243.7 11.548 243.52 12.232 243.424 12.976C243.34 13.708 243.298 14.422 243.298 15.118ZM276.938 11.194C276.938 12.118 276.728 12.94 276.308 13.66C275.888 14.38 275.36 14.974 274.724 15.442C274.1 15.91 273.476 16.21 272.852 16.342C273.5 16.558 274.034 16.888 274.454 17.332C274.886 17.776 275.258 18.346 275.57 19.042L276.506 21.184C276.722 21.676 276.968 22.132 277.244 22.552C277.52 22.96 277.826 23.308 278.162 23.596C277.814 24.028 277.292 24.43 276.596 24.802C275.9 25.162 275.144 25.342 274.328 25.342C273.524 25.342 272.87 25.15 272.366 24.766C271.874 24.37 271.442 23.74 271.07 22.876L269.486 19.24C269.234 18.652 268.922 18.298 268.55 18.178C268.178 18.058 267.698 17.998 267.11 17.998H266.408V25C265.928 25.084 265.43 25.138 264.914 25.162C264.41 25.198 263.978 25.216 263.618 25.216C263.282 25.216 262.838 25.198 262.286 25.162C261.734 25.138 261.23 25.084 260.774 25V5.344L260.972 5.128C262.424 5.092 263.786 5.062 265.058 5.038C266.342 5.002 267.62 4.984 268.892 4.984C270.332 4.984 271.664 5.176 272.888 5.56C274.112 5.932 275.09 6.574 275.822 7.486C276.566 8.386 276.938 9.622 276.938 11.194ZM266.408 9.052V13.714C266.828 13.702 267.212 13.696 267.56 13.696C267.92 13.684 268.184 13.678 268.352 13.678C269.432 13.678 270.164 13.444 270.548 12.976C270.932 12.508 271.124 11.962 271.124 11.338C271.124 10.726 270.932 10.198 270.548 9.754C270.164 9.31 269.522 9.088 268.622 9.088C268.19 9.088 267.818 9.082 267.506 9.07C267.194 9.058 266.828 9.052 266.408 9.052ZM284.294 11.914C284.294 11.53 284.3 11.176 284.312 10.852C284.324 10.516 284.33 10.144 284.33 9.736C284.078 9.736 283.73 9.742 283.286 9.754C282.854 9.766 282.512 9.772 282.26 9.772H278.93C278.834 9.34 278.774 8.938 278.75 8.566C278.726 8.182 278.714 7.834 278.714 7.522C278.714 7.21 278.726 6.844 278.75 6.424C278.774 5.992 278.834 5.572 278.93 5.164H295.22C295.304 5.488 295.364 5.854 295.4 6.262C295.448 6.67 295.472 7 295.472 7.252C295.472 8.068 295.256 8.692 294.824 9.124C294.392 9.556 293.672 9.772 292.664 9.772H291.926C291.674 9.772 291.338 9.766 290.918 9.754C290.51 9.742 290.192 9.736 289.964 9.736C289.964 10.144 289.97 10.516 289.982 10.852C289.994 11.176 290 11.53 290 11.914V25C289.664 25.072 289.202 25.126 288.614 25.162C288.026 25.198 287.534 25.216 287.138 25.216C286.766 25.216 286.298 25.198 285.734 25.162C285.17 25.126 284.69 25.072 284.294 25V11.914ZM313.001 20.482C313.001 22.198 312.731 23.392 312.191 24.064C311.663 24.736 310.763 25.072 309.491 25.072H301.193C300.173 25.072 299.369 24.784 298.781 24.208C298.193 23.62 297.899 22.834 297.899 21.85V5.362L298.097 5.164H312.335C312.419 5.572 312.467 5.962 312.479 6.334C312.491 6.706 312.497 7.06 312.497 7.396C312.497 7.72 312.461 8.086 312.389 8.494C312.329 8.902 312.221 9.316 312.065 9.736H305.765C305.261 9.736 304.499 9.73 303.479 9.718C303.491 10.09 303.497 10.408 303.497 10.672C303.509 10.936 303.515 11.254 303.515 11.626V12.814C304.511 12.802 305.261 12.796 305.765 12.796H310.373C310.493 13.12 310.571 13.492 310.607 13.912C310.655 14.32 310.679 14.668 310.679 14.956C310.679 15.292 310.655 15.67 310.607 16.09C310.571 16.498 310.493 16.87 310.373 17.206H305.765C305.537 17.206 305.219 17.206 304.811 17.206C304.403 17.206 303.971 17.206 303.515 17.206V18.376C303.515 18.82 303.509 19.186 303.497 19.474C303.485 19.762 303.479 20.122 303.479 20.554V20.59C303.899 20.566 304.289 20.542 304.649 20.518C305.009 20.494 305.447 20.482 305.963 20.482H313.001ZM314.992 23.506C314.992 23.05 315.082 22.546 315.262 21.994C315.442 21.43 315.688 20.908 316 20.428C316.312 19.948 316.654 19.588 317.026 19.348C317.914 19.828 318.904 20.242 319.996 20.59C321.088 20.926 322.156 21.094 323.2 21.094C323.872 21.094 324.424 20.956 324.856 20.68C325.3 20.404 325.522 20.014 325.522 19.51C325.522 19.186 325.396 18.892 325.144 18.628C324.892 18.352 324.454 18.1 323.83 17.872L320.842 16.702C319.918 16.366 319.054 15.946 318.25 15.442C317.446 14.938 316.798 14.32 316.306 13.588C315.814 12.856 315.568 11.98 315.568 10.96C315.568 9.088 316.288 7.564 317.728 6.388C319.168 5.212 321.106 4.624 323.542 4.624C324.922 4.624 326.29 4.786 327.646 5.11C329.014 5.422 330.16 5.782 331.084 6.19C331.084 7.006 330.916 7.81 330.58 8.602C330.244 9.394 329.782 10.018 329.194 10.474C328.306 10.078 327.34 9.748 326.296 9.484C325.252 9.208 324.31 9.07 323.47 9.07C322.846 9.07 322.366 9.202 322.03 9.466C321.706 9.73 321.544 10.048 321.544 10.42C321.544 10.768 321.706 11.032 322.03 11.212C322.354 11.392 322.756 11.572 323.236 11.752L326.206 12.886C327.862 13.486 329.176 14.314 330.148 15.37C331.132 16.414 331.624 17.704 331.624 19.24C331.624 20.596 331.258 21.742 330.526 22.678C329.806 23.614 328.816 24.322 327.556 24.802C326.308 25.282 324.898 25.528 323.326 25.54C321.454 25.54 319.786 25.324 318.322 24.892C316.87 24.46 315.76 23.998 314.992 23.506Z" fill="#364760"/>
</svg>
