<svg width="253" height="102" viewBox="0 0 253 102" fill="none" xmlns="http://www.w3.org/2000/svg">
<rect opacity="0.5" y="0.917236" width="253" height="101.083" rx="10" fill="#DBDADA"/>
<path d="M33.9685 9.34C35.4085 9.304 36.8305 9.274 38.2345 9.25C39.6505 9.214 40.9945 9.196 42.2665 9.196C44.7745 9.196 46.8025 9.724 48.3505 10.78C49.9105 11.824 50.6905 13.48 50.6905 15.748C50.6905 16.84 50.3845 17.836 49.7725 18.736C49.1725 19.636 48.4225 20.284 47.5225 20.68C48.3145 20.944 49.0345 21.388 49.6825 22.012C50.3425 22.624 50.8645 23.362 51.2485 24.226C51.6445 25.078 51.8425 25.978 51.8425 26.926C51.8425 29.446 51.0265 31.294 49.3945 32.47C47.7745 33.634 45.5905 34.216 42.8425 34.216C41.4385 34.216 39.9925 34.198 38.5045 34.162C37.0165 34.138 35.5045 34.108 33.9685 34.072L33.7165 33.82V9.592L33.9685 9.34ZM41.9785 13.282C41.6665 13.282 41.2705 13.282 40.7905 13.282C40.3105 13.282 39.8425 13.27 39.3865 13.246V19.06H41.9785C42.7825 19.06 43.4065 18.916 43.8505 18.628C44.3065 18.34 44.6245 17.974 44.8045 17.53C44.9845 17.074 45.0745 16.612 45.0745 16.144C45.0745 15.436 44.8585 14.782 44.4265 14.182C44.0065 13.582 43.1905 13.282 41.9785 13.282ZM39.3865 30.184C39.9745 30.172 40.5325 30.166 41.0605 30.166C41.5885 30.154 42.0445 30.148 42.4285 30.148C43.4125 30.148 44.1625 29.968 44.6785 29.608C45.2065 29.236 45.5665 28.786 45.7585 28.258C45.9625 27.718 46.0645 27.196 46.0645 26.692C46.0645 26.164 45.9565 25.63 45.7405 25.09C45.5365 24.538 45.1645 24.076 44.6245 23.704C44.0965 23.332 43.3525 23.146 42.3925 23.146H39.3865V30.184ZM60.6906 30.526C60.4986 30.526 60.3126 30.526 60.1326 30.526C59.9526 30.514 59.7726 30.502 59.5926 30.49L58.4766 34C58.1286 34.084 57.7506 34.144 57.3426 34.18C56.9346 34.228 56.5086 34.252 56.0646 34.252C55.5846 34.252 55.0986 34.216 54.6066 34.144C54.1266 34.072 53.7306 33.97 53.4186 33.838L53.2206 33.532L60.2226 14.164C60.8466 14.068 61.4466 14.008 62.0226 13.984C62.6106 13.96 63.1446 13.948 63.6246 13.948C64.0686 13.948 64.5486 13.96 65.0646 13.984C65.5806 14.008 66.1626 14.068 66.8106 14.164L73.6146 33.73C73.1946 33.922 72.6606 34.066 72.0126 34.162C71.3646 34.27 70.8426 34.324 70.4466 34.324C69.7866 34.324 69.1506 34.198 68.5386 33.946C67.9266 33.694 67.4646 33.028 67.1526 31.948L66.7026 30.49C66.5106 30.502 66.3246 30.514 66.1446 30.526C65.9646 30.526 65.7726 30.526 65.5686 30.526H60.6906ZM61.4106 24.838L61.0146 26.08C61.1946 26.068 61.3746 26.062 61.5546 26.062C61.7346 26.05 61.9206 26.044 62.1126 26.044H64.3626C64.5426 26.044 64.7046 26.05 64.8486 26.062C65.0046 26.062 65.1606 26.068 65.3166 26.08L64.9386 24.856C64.6626 23.908 64.3866 22.852 64.1106 21.688C63.8346 20.524 63.5826 19.468 63.3546 18.52H63.1386C62.8866 19.432 62.6046 20.476 62.2926 21.652C61.9926 22.828 61.6986 23.89 61.4106 24.838ZM83.3416 24.946C83.2576 24.754 83.1256 24.454 82.9456 24.046C82.7656 23.626 82.5736 23.176 82.3696 22.696C82.1656 22.216 81.9736 21.766 81.7936 21.346C81.6256 20.926 81.4936 20.62 81.3976 20.428L81.2716 20.482C81.3196 21.43 81.3676 22.456 81.4156 23.56C81.4636 24.652 81.4996 25.654 81.5236 26.566C81.5596 27.466 81.5776 28.12 81.5776 28.528V34C81.1096 34.084 80.6596 34.138 80.2276 34.162C79.7956 34.198 79.3936 34.216 79.0216 34.216C78.6856 34.216 78.2656 34.198 77.7616 34.162C77.2696 34.138 76.8016 34.084 76.3576 34V14.29C76.8016 14.182 77.3536 14.098 78.0136 14.038C78.6736 13.978 79.1836 13.948 79.5436 13.948C79.9156 13.948 80.4436 13.96 81.1276 13.984C81.8116 13.996 82.3756 14.056 82.8196 14.164L87.0496 23.182C87.1336 23.35 87.2716 23.656 87.4636 24.1C87.6676 24.544 87.8836 25.03 88.1116 25.558C88.3396 26.086 88.5496 26.584 88.7416 27.052C88.9456 27.508 89.0956 27.844 89.1916 28.06L89.3536 28.024C89.3056 27.232 89.2396 26.308 89.1556 25.252C89.0836 24.196 89.0176 23.176 88.9576 22.192C88.8976 21.208 88.8676 20.422 88.8676 19.834V17.026C88.8676 15.754 89.1436 14.92 89.6956 14.524C90.2476 14.116 91.0696 13.912 92.1616 13.912H94.0156L94.2316 14.164V33.892C93.7636 34 93.1996 34.078 92.5396 34.126C91.8796 34.186 91.3756 34.216 91.0276 34.216C90.7876 34.216 90.4576 34.21 90.0376 34.198C89.6176 34.186 89.1856 34.168 88.7416 34.144C88.3096 34.12 87.9496 34.072 87.6616 34L83.3416 24.946ZM117.51 24.118C117.51 27.478 116.724 29.992 115.152 31.66C113.58 33.316 111.102 34.144 107.718 34.144C106.29 34.144 104.934 34.132 103.65 34.108C102.378 34.096 101.034 34.072 99.6181 34.036L99.4201 33.82V14.344L99.6181 14.128C101.046 14.092 102.396 14.062 103.668 14.038C104.94 14.002 106.29 13.984 107.718 13.984C111.066 13.984 113.532 14.854 115.116 16.594C116.712 18.322 117.51 20.83 117.51 24.118ZM111.714 24.118C111.714 23.242 111.624 22.366 111.444 21.49C111.264 20.602 110.886 19.858 110.31 19.258C109.734 18.658 108.87 18.358 107.718 18.358C107.19 18.358 106.734 18.358 106.35 18.358C105.978 18.346 105.546 18.334 105.054 18.322V29.842C105.57 29.842 106.008 29.836 106.368 29.824C106.74 29.812 107.19 29.806 107.718 29.806C108.87 29.806 109.734 29.512 110.31 28.924C110.886 28.324 111.264 27.586 111.444 26.71C111.624 25.834 111.714 24.97 111.714 24.118ZM136.354 29.482C136.354 31.198 136.084 32.392 135.544 33.064C135.016 33.736 134.116 34.072 132.844 34.072H124.546C123.526 34.072 122.722 33.784 122.134 33.208C121.546 32.62 121.252 31.834 121.252 30.85V14.362L121.45 14.164H135.688C135.772 14.572 135.82 14.962 135.832 15.334C135.844 15.706 135.85 16.06 135.85 16.396C135.85 16.72 135.814 17.086 135.742 17.494C135.682 17.902 135.574 18.316 135.418 18.736H129.118C128.614 18.736 127.852 18.73 126.832 18.718C126.844 19.09 126.85 19.408 126.85 19.672C126.862 19.936 126.868 20.254 126.868 20.626V21.814C127.864 21.802 128.614 21.796 129.118 21.796H133.726C133.846 22.12 133.924 22.492 133.96 22.912C134.008 23.32 134.032 23.668 134.032 23.956C134.032 24.292 134.008 24.67 133.96 25.09C133.924 25.498 133.846 25.87 133.726 26.206H129.118C128.89 26.206 128.572 26.206 128.164 26.206C127.756 26.206 127.324 26.206 126.868 26.206V27.376C126.868 27.82 126.862 28.186 126.85 28.474C126.838 28.762 126.832 29.122 126.832 29.554V29.59C127.252 29.566 127.642 29.542 128.002 29.518C128.362 29.494 128.8 29.482 129.316 29.482H136.354ZM139.624 29.014C140.68 29.686 141.682 30.022 142.63 30.022C143.554 30.022 144.226 29.728 144.646 29.14C145.066 28.54 145.276 27.664 145.276 26.512V14.164C145.732 14.068 146.236 14.008 146.788 13.984C147.34 13.96 147.784 13.948 148.12 13.948C148.492 13.948 148.942 13.96 149.47 13.984C149.998 13.996 150.496 14.056 150.964 14.164V26.296C150.964 28.936 150.394 30.97 149.254 32.398C148.126 33.814 146.164 34.522 143.368 34.522C142.324 34.522 141.262 34.366 140.182 34.054C139.114 33.742 138.292 33.37 137.716 32.938C137.836 32.242 138.058 31.546 138.382 30.85C138.706 30.142 139.12 29.53 139.624 29.014ZM160.183 30.526C159.991 30.526 159.805 30.526 159.625 30.526C159.445 30.514 159.265 30.502 159.085 30.49L157.969 34C157.621 34.084 157.243 34.144 156.835 34.18C156.427 34.228 156.001 34.252 155.557 34.252C155.077 34.252 154.591 34.216 154.099 34.144C153.619 34.072 153.223 33.97 152.911 33.838L152.713 33.532L159.715 14.164C160.339 14.068 160.939 14.008 161.515 13.984C162.103 13.96 162.637 13.948 163.117 13.948C163.561 13.948 164.041 13.96 164.557 13.984C165.073 14.008 165.655 14.068 166.303 14.164L173.107 33.73C172.687 33.922 172.153 34.066 171.505 34.162C170.857 34.27 170.335 34.324 169.939 34.324C169.279 34.324 168.643 34.198 168.031 33.946C167.419 33.694 166.957 33.028 166.645 31.948L166.195 30.49C166.003 30.502 165.817 30.514 165.637 30.526C165.457 30.526 165.265 30.526 165.061 30.526H160.183ZM160.903 24.838L160.507 26.08C160.687 26.068 160.867 26.062 161.047 26.062C161.227 26.05 161.413 26.044 161.605 26.044H163.855C164.035 26.044 164.197 26.05 164.341 26.062C164.497 26.062 164.653 26.068 164.809 26.08L164.431 24.856C164.155 23.908 163.879 22.852 163.603 21.688C163.327 20.524 163.075 19.468 162.847 18.52H162.631C162.379 19.432 162.097 20.476 161.785 21.652C161.485 22.828 161.191 23.89 160.903 24.838ZM201.85 24.118C201.85 27.478 201.064 29.992 199.492 31.66C197.92 33.316 195.442 34.144 192.058 34.144C190.63 34.144 189.274 34.132 187.99 34.108C186.718 34.096 185.374 34.072 183.958 34.036L183.76 33.82V14.344L183.958 14.128C185.386 14.092 186.736 14.062 188.008 14.038C189.28 14.002 190.63 13.984 192.058 13.984C195.406 13.984 197.872 14.854 199.456 16.594C201.052 18.322 201.85 20.83 201.85 24.118ZM196.054 24.118C196.054 23.242 195.964 22.366 195.784 21.49C195.604 20.602 195.226 19.858 194.65 19.258C194.074 18.658 193.21 18.358 192.058 18.358C191.53 18.358 191.074 18.358 190.69 18.358C190.318 18.346 189.886 18.334 189.394 18.322V29.842C189.91 29.842 190.348 29.836 190.708 29.824C191.08 29.812 191.53 29.806 192.058 29.806C193.21 29.806 194.074 29.512 194.65 28.924C195.226 28.324 195.604 27.586 195.784 26.71C195.964 25.834 196.054 24.97 196.054 24.118ZM220.694 29.482C220.694 31.198 220.424 32.392 219.884 33.064C219.356 33.736 218.456 34.072 217.184 34.072H208.886C207.866 34.072 207.062 33.784 206.474 33.208C205.886 32.62 205.592 31.834 205.592 30.85V14.362L205.79 14.164H220.028C220.112 14.572 220.16 14.962 220.172 15.334C220.184 15.706 220.19 16.06 220.19 16.396C220.19 16.72 220.154 17.086 220.082 17.494C220.022 17.902 219.914 18.316 219.758 18.736H213.458C212.954 18.736 212.192 18.73 211.172 18.718C211.184 19.09 211.19 19.408 211.19 19.672C211.202 19.936 211.208 20.254 211.208 20.626V21.814C212.204 21.802 212.954 21.796 213.458 21.796H218.066C218.186 22.12 218.264 22.492 218.3 22.912C218.348 23.32 218.372 23.668 218.372 23.956C218.372 24.292 218.348 24.67 218.3 25.09C218.264 25.498 218.186 25.87 218.066 26.206H213.458C213.23 26.206 212.912 26.206 212.504 26.206C212.096 26.206 211.664 26.206 211.208 26.206V27.376C211.208 27.82 211.202 28.186 211.19 28.474C211.178 28.762 211.172 29.122 211.172 29.554V29.59C211.592 29.566 211.982 29.542 212.342 29.518C212.702 29.494 213.14 29.482 213.656 29.482H220.694ZM66.0695 74.526C65.8775 74.526 65.6915 74.526 65.5115 74.526C65.3315 74.514 65.1515 74.502 64.9715 74.49L63.8555 78C63.5075 78.084 63.1295 78.144 62.7215 78.18C62.3135 78.228 61.8875 78.252 61.4435 78.252C60.9635 78.252 60.4775 78.216 59.9855 78.144C59.5055 78.072 59.1095 77.97 58.7975 77.838L58.5995 77.532L65.6015 58.164C66.2255 58.068 66.8255 58.008 67.4015 57.984C67.9895 57.96 68.5235 57.948 69.0035 57.948C69.4475 57.948 69.9275 57.96 70.4435 57.984C70.9595 58.008 71.5415 58.068 72.1895 58.164L78.9935 77.73C78.5735 77.922 78.0395 78.066 77.3915 78.162C76.7435 78.27 76.2215 78.324 75.8255 78.324C75.1655 78.324 74.5295 78.198 73.9175 77.946C73.3055 77.694 72.8435 77.028 72.5315 75.948L72.0815 74.49C71.8895 74.502 71.7035 74.514 71.5235 74.526C71.3435 74.526 71.1515 74.526 70.9475 74.526H66.0695ZM66.7895 68.838L66.3935 70.08C66.5735 70.068 66.7535 70.062 66.9335 70.062C67.1135 70.05 67.2995 70.044 67.4915 70.044H69.7415C69.9215 70.044 70.0835 70.05 70.2275 70.062C70.3835 70.062 70.5395 70.068 70.6955 70.08L70.3175 68.856C70.0415 67.908 69.7655 66.852 69.4895 65.688C69.2135 64.524 68.9615 63.468 68.7335 62.52H68.5175C68.2655 63.432 67.9835 64.476 67.6715 65.652C67.3715 66.828 67.0775 67.89 66.7895 68.838ZM97.5045 64.968C97.5045 66.528 97.1505 67.824 96.4425 68.856C95.7465 69.876 94.7865 70.638 93.5625 71.142C92.3385 71.634 90.9465 71.88 89.3865 71.88H87.4245V78C86.9445 78.084 86.4525 78.138 85.9485 78.162C85.4445 78.198 85.0125 78.216 84.6525 78.216C84.3165 78.216 83.8605 78.198 83.2845 78.162C82.7085 78.138 82.1925 78.084 81.7365 78V58.344L81.9345 58.128C82.9065 58.104 84.0765 58.074 85.4445 58.038C86.8125 58.002 88.1265 57.984 89.3865 57.984C90.9585 57.984 92.3565 58.224 93.5805 58.704C94.8045 59.184 95.7645 59.94 96.4605 60.972C97.1565 62.004 97.5045 63.336 97.5045 64.968ZM87.4245 62.196V67.704C87.7485 67.692 88.0425 67.686 88.3065 67.686C88.5705 67.674 88.7685 67.668 88.9005 67.668C89.6925 67.668 90.2865 67.524 90.6825 67.236C91.0905 66.936 91.3605 66.576 91.4925 66.156C91.6245 65.724 91.6905 65.316 91.6905 64.932C91.6905 64.572 91.6245 64.182 91.4925 63.762C91.3605 63.342 91.0905 62.982 90.6825 62.682C90.2865 62.382 89.6925 62.232 88.9005 62.232C88.6005 62.232 88.3845 62.232 88.2525 62.232C88.1205 62.22 87.8445 62.208 87.4245 62.196ZM99.509 68.118C99.509 64.902 100.337 62.352 101.993 60.468C103.661 58.572 106.091 57.624 109.283 57.624C112.523 57.624 114.965 58.566 116.609 60.45C118.265 62.322 119.093 64.878 119.093 68.118C119.093 71.358 118.265 73.908 116.609 75.768C114.953 77.616 112.511 78.54 109.283 78.54C106.043 78.54 103.601 77.604 101.957 75.732C100.325 73.86 99.509 71.322 99.509 68.118ZM105.323 68.118C105.323 68.802 105.365 69.51 105.449 70.242C105.545 70.962 105.725 71.634 105.989 72.258C106.265 72.882 106.667 73.392 107.195 73.788C107.723 74.172 108.425 74.364 109.301 74.364C110.177 74.364 110.879 74.172 111.407 73.788C111.935 73.392 112.331 72.882 112.595 72.258C112.871 71.634 113.051 70.962 113.135 70.242C113.231 69.51 113.279 68.802 113.279 68.118C113.279 67.422 113.231 66.708 113.135 65.976C113.051 65.232 112.871 64.548 112.595 63.924C112.331 63.288 111.935 62.778 111.407 62.394C110.879 61.998 110.177 61.8 109.301 61.8C108.425 61.8 107.723 61.998 107.195 62.394C106.667 62.778 106.265 63.288 105.989 63.924C105.725 64.548 105.545 65.232 105.449 65.976C105.365 66.708 105.323 67.422 105.323 68.118ZM138.963 64.194C138.963 65.118 138.753 65.94 138.333 66.66C137.913 67.38 137.385 67.974 136.749 68.442C136.125 68.91 135.501 69.21 134.877 69.342C135.525 69.558 136.059 69.888 136.479 70.332C136.911 70.776 137.283 71.346 137.595 72.042L138.531 74.184C138.747 74.676 138.993 75.132 139.269 75.552C139.545 75.96 139.851 76.308 140.187 76.596C139.839 77.028 139.317 77.43 138.621 77.802C137.925 78.162 137.169 78.342 136.353 78.342C135.549 78.342 134.895 78.15 134.391 77.766C133.899 77.37 133.467 76.74 133.095 75.876L131.511 72.24C131.259 71.652 130.947 71.298 130.575 71.178C130.203 71.058 129.723 70.998 129.135 70.998H128.433V78C127.953 78.084 127.455 78.138 126.939 78.162C126.435 78.198 126.003 78.216 125.643 78.216C125.307 78.216 124.863 78.198 124.311 78.162C123.759 78.138 123.255 78.084 122.799 78V58.344L122.997 58.128C124.449 58.092 125.811 58.062 127.083 58.038C128.367 58.002 129.645 57.984 130.917 57.984C132.357 57.984 133.689 58.176 134.913 58.56C136.137 58.932 137.115 59.574 137.847 60.486C138.591 61.386 138.963 62.622 138.963 64.194ZM128.433 62.052V66.714C128.853 66.702 129.237 66.696 129.585 66.696C129.945 66.684 130.209 66.678 130.377 66.678C131.457 66.678 132.189 66.444 132.573 65.976C132.957 65.508 133.149 64.962 133.149 64.338C133.149 63.726 132.957 63.198 132.573 62.754C132.189 62.31 131.547 62.088 130.647 62.088C130.215 62.088 129.843 62.082 129.531 62.07C129.219 62.058 128.853 62.052 128.433 62.052ZM146.319 64.914C146.319 64.53 146.325 64.176 146.337 63.852C146.349 63.516 146.355 63.144 146.355 62.736C146.103 62.736 145.755 62.742 145.311 62.754C144.879 62.766 144.537 62.772 144.285 62.772H140.955C140.859 62.34 140.799 61.938 140.775 61.566C140.751 61.182 140.739 60.834 140.739 60.522C140.739 60.21 140.751 59.844 140.775 59.424C140.799 58.992 140.859 58.572 140.955 58.164H157.245C157.329 58.488 157.389 58.854 157.425 59.262C157.473 59.67 157.497 60 157.497 60.252C157.497 61.068 157.281 61.692 156.849 62.124C156.417 62.556 155.697 62.772 154.689 62.772H153.951C153.699 62.772 153.363 62.766 152.943 62.754C152.535 62.742 152.217 62.736 151.989 62.736C151.989 63.144 151.995 63.516 152.007 63.852C152.019 64.176 152.025 64.53 152.025 64.914V78C151.689 78.072 151.227 78.126 150.639 78.162C150.051 78.198 149.559 78.216 149.163 78.216C148.791 78.216 148.323 78.198 147.759 78.162C147.195 78.126 146.715 78.072 146.319 78V64.914ZM175.026 73.482C175.026 75.198 174.756 76.392 174.216 77.064C173.688 77.736 172.788 78.072 171.516 78.072H163.218C162.198 78.072 161.394 77.784 160.806 77.208C160.218 76.62 159.924 75.834 159.924 74.85V58.362L160.122 58.164H174.36C174.444 58.572 174.492 58.962 174.504 59.334C174.516 59.706 174.522 60.06 174.522 60.396C174.522 60.72 174.486 61.086 174.414 61.494C174.354 61.902 174.246 62.316 174.09 62.736H167.79C167.286 62.736 166.524 62.73 165.504 62.718C165.516 63.09 165.522 63.408 165.522 63.672C165.534 63.936 165.54 64.254 165.54 64.626V65.814C166.536 65.802 167.286 65.796 167.79 65.796H172.398C172.518 66.12 172.596 66.492 172.632 66.912C172.68 67.32 172.704 67.668 172.704 67.956C172.704 68.292 172.68 68.67 172.632 69.09C172.596 69.498 172.518 69.87 172.398 70.206H167.79C167.562 70.206 167.244 70.206 166.836 70.206C166.428 70.206 165.996 70.206 165.54 70.206V71.376C165.54 71.82 165.534 72.186 165.522 72.474C165.51 72.762 165.504 73.122 165.504 73.554V73.59C165.924 73.566 166.314 73.542 166.674 73.518C167.034 73.494 167.472 73.482 167.988 73.482H175.026ZM177.018 76.506C177.018 76.05 177.108 75.546 177.288 74.994C177.468 74.43 177.714 73.908 178.026 73.428C178.338 72.948 178.68 72.588 179.052 72.348C179.94 72.828 180.93 73.242 182.022 73.59C183.114 73.926 184.182 74.094 185.226 74.094C185.898 74.094 186.45 73.956 186.882 73.68C187.326 73.404 187.548 73.014 187.548 72.51C187.548 72.186 187.422 71.892 187.17 71.628C186.918 71.352 186.48 71.1 185.856 70.872L182.868 69.702C181.944 69.366 181.08 68.946 180.276 68.442C179.472 67.938 178.824 67.32 178.332 66.588C177.84 65.856 177.594 64.98 177.594 63.96C177.594 62.088 178.314 60.564 179.754 59.388C181.194 58.212 183.132 57.624 185.568 57.624C186.948 57.624 188.316 57.786 189.672 58.11C191.04 58.422 192.186 58.782 193.11 59.19C193.11 60.006 192.942 60.81 192.606 61.602C192.27 62.394 191.808 63.018 191.22 63.474C190.332 63.078 189.366 62.748 188.322 62.484C187.278 62.208 186.336 62.07 185.496 62.07C184.872 62.07 184.392 62.202 184.056 62.466C183.732 62.73 183.57 63.048 183.57 63.42C183.57 63.768 183.732 64.032 184.056 64.212C184.38 64.392 184.782 64.572 185.262 64.752L188.232 65.886C189.888 66.486 191.202 67.314 192.174 68.37C193.158 69.414 193.65 70.704 193.65 72.24C193.65 73.596 193.284 74.742 192.552 75.678C191.832 76.614 190.842 77.322 189.582 77.802C188.334 78.282 186.924 78.528 185.352 78.54C183.48 78.54 181.812 78.324 180.348 77.892C178.896 77.46 177.786 76.998 177.018 76.506Z" fill="#364760"/>
</svg>
