<svg width="219" height="90" viewBox="0 0 219 90" fill="none" xmlns="http://www.w3.org/2000/svg">
<rect width="219" height="76.875" rx="10" fill="#1EBCBC"/>
<path d="M68.0015 19.241C68.0015 20.073 67.8411 20.814 67.5205 21.464C67.1998 22.1053 66.7968 22.6427 66.3115 23.076C65.8261 23.5007 65.3365 23.8083 64.8425 23.999C65.3278 24.1723 65.7308 24.4713 66.0515 24.896C66.3808 25.3207 66.6451 25.819 66.8445 26.391L67.6245 28.588C67.9191 29.4287 68.3481 30.07 68.9115 30.512C68.6428 30.8587 68.2528 31.149 67.7415 31.383C67.2301 31.617 66.6971 31.734 66.1425 31.734C65.3971 31.734 64.8555 31.5347 64.5175 31.136C64.1795 30.7287 63.8718 30.1263 63.5945 29.329L62.6585 26.612C62.5111 26.1613 62.2815 25.78 61.9695 25.468C61.6575 25.1473 61.1548 24.987 60.4615 24.987H59.3825V31.5C59.0358 31.5607 58.6761 31.5997 58.3035 31.617C57.9308 31.643 57.6015 31.656 57.3155 31.656C57.0641 31.656 56.7435 31.643 56.3535 31.617C55.9635 31.5997 55.5995 31.5607 55.2615 31.5V13.872L55.4435 13.69C56.5528 13.664 57.6188 13.6423 58.6415 13.625C59.6728 13.599 60.6825 13.586 61.6705 13.586C62.8751 13.586 63.9541 13.7853 64.9075 14.184C65.8695 14.5827 66.6235 15.198 67.1695 16.03C67.7241 16.862 68.0015 17.9323 68.0015 19.241ZM59.3825 16.706V21.802C59.7898 21.7847 60.1711 21.7717 60.5265 21.763C60.8905 21.7543 61.1548 21.75 61.3195 21.75C61.9781 21.75 62.4808 21.633 62.8275 21.399C63.1828 21.1563 63.4255 20.8443 63.5555 20.463C63.6941 20.0817 63.7635 19.6743 63.7635 19.241C63.7635 18.7903 63.6941 18.3743 63.5555 17.993C63.4255 17.6117 63.1828 17.3083 62.8275 17.083C62.4808 16.849 61.9781 16.732 61.3195 16.732C61.0508 16.732 60.7518 16.732 60.4225 16.732C60.1018 16.732 59.7551 16.7233 59.3825 16.706ZM81.9082 28.237C81.9082 29.4763 81.7132 30.3387 81.3232 30.824C80.9419 31.3093 80.2919 31.552 79.3732 31.552H73.3802C72.6436 31.552 72.0629 31.344 71.6382 30.928C71.2136 30.5033 71.0012 29.9357 71.0012 29.225V17.317L71.1442 17.174H81.4272C81.4879 17.4687 81.5226 17.7503 81.5312 18.019C81.5399 18.2877 81.5442 18.5433 81.5442 18.786C81.5442 19.02 81.5182 19.2843 81.4662 19.579C81.4229 19.8737 81.3449 20.1727 81.2322 20.476H76.6822C76.3182 20.476 75.7679 20.4717 75.0312 20.463C75.0399 20.7317 75.0442 20.9613 75.0442 21.152C75.0529 21.3427 75.0572 21.5723 75.0572 21.841V22.699C75.7766 22.6903 76.3182 22.686 76.6822 22.686H80.0102C80.0969 22.92 80.1532 23.1887 80.1792 23.492C80.2139 23.7867 80.2312 24.038 80.2312 24.246C80.2312 24.4887 80.2139 24.7617 80.1792 25.065C80.1532 25.3597 80.0969 25.6283 80.0102 25.871H76.6822C76.5176 25.871 76.2879 25.871 75.9932 25.871C75.6986 25.871 75.3866 25.871 75.0572 25.871V26.716C75.0572 27.0367 75.0529 27.301 75.0442 27.509C75.0356 27.717 75.0312 27.977 75.0312 28.289V28.315C75.3346 28.2977 75.6162 28.2803 75.8762 28.263C76.1362 28.2457 76.4526 28.237 76.8252 28.237H81.9082ZM92.933 27.704C92.933 27.2707 92.9417 26.8373 92.959 26.404C92.803 26.404 92.6427 26.404 92.478 26.404C92.322 26.404 92.1704 26.404 92.023 26.404C91.3817 26.404 90.9137 26.2697 90.619 26.001C90.3244 25.7237 90.177 25.286 90.177 24.688C90.177 24.454 90.1944 24.181 90.229 23.869C90.2724 23.557 90.3244 23.3187 90.385 23.154C91.009 23.128 91.6287 23.115 92.244 23.115C92.8594 23.1063 93.4834 23.102 94.116 23.102C95.1127 23.102 95.793 23.2927 96.157 23.674C96.5297 24.0553 96.716 24.597 96.716 25.299V31.045C96.2567 31.1923 95.6717 31.331 94.961 31.461C94.2504 31.591 93.5137 31.695 92.751 31.773C91.9884 31.851 91.295 31.89 90.671 31.89C88.9464 31.89 87.551 31.5737 86.485 30.941C85.4277 30.3083 84.6564 29.4417 84.171 28.341C83.6944 27.2317 83.456 25.975 83.456 24.571C83.456 22.7163 83.7984 21.2213 84.483 20.086C85.1764 18.942 86.095 18.1057 87.239 17.577C88.383 17.0483 89.6354 16.784 90.996 16.784C92.0187 16.784 93.0024 16.888 93.947 17.096C94.9004 17.2953 95.741 17.564 96.469 17.902C96.4257 18.4653 96.2567 19.0547 95.962 19.67C95.676 20.2767 95.351 20.7403 94.987 21.061C93.661 20.4023 92.4 20.073 91.204 20.073C88.838 20.073 87.655 21.555 87.655 24.519C87.655 25.9923 87.9584 27.08 88.565 27.782C89.1717 28.484 90.1034 28.835 91.36 28.835C91.62 28.835 91.8844 28.8263 92.153 28.809C92.4217 28.783 92.6817 28.7483 92.933 28.705V27.704ZM99.8716 17.174C100.201 17.1047 100.574 17.0613 100.99 17.044C101.406 17.0267 101.735 17.018 101.978 17.018C102.238 17.018 102.55 17.0267 102.914 17.044C103.286 17.0613 103.646 17.1047 103.993 17.174V31.5C103.646 31.5607 103.286 31.5997 102.914 31.617C102.55 31.643 102.238 31.656 101.978 31.656C101.735 31.656 101.406 31.643 100.99 31.617C100.574 31.5997 100.201 31.5607 99.8716 31.5V17.174ZM106.376 30.421C106.376 30.0917 106.441 29.7277 106.571 29.329C106.701 28.9217 106.879 28.5447 107.104 28.198C107.329 27.8513 107.576 27.5913 107.845 27.418C108.486 27.7647 109.201 28.0637 109.99 28.315C110.779 28.5577 111.55 28.679 112.304 28.679C112.789 28.679 113.188 28.5793 113.5 28.38C113.821 28.1807 113.981 27.899 113.981 27.535C113.981 27.301 113.89 27.0887 113.708 26.898C113.526 26.6987 113.21 26.5167 112.759 26.352L110.601 25.507C109.934 25.2643 109.31 24.961 108.729 24.597C108.148 24.233 107.68 23.7867 107.325 23.258C106.97 22.7293 106.792 22.0967 106.792 21.36C106.792 20.008 107.312 18.9073 108.352 18.058C109.392 17.2087 110.792 16.784 112.551 16.784C113.548 16.784 114.536 16.901 115.515 17.135C116.503 17.3603 117.331 17.6203 117.998 17.915C117.998 18.5043 117.877 19.085 117.634 19.657C117.391 20.229 117.058 20.6797 116.633 21.009C115.992 20.723 115.294 20.4847 114.54 20.294C113.786 20.0947 113.106 19.995 112.499 19.995C112.048 19.995 111.702 20.0903 111.459 20.281C111.225 20.4717 111.108 20.7013 111.108 20.97C111.108 21.2213 111.225 21.412 111.459 21.542C111.693 21.672 111.983 21.802 112.33 21.932L114.475 22.751C115.671 23.1843 116.62 23.7823 117.322 24.545C118.033 25.299 118.388 26.2307 118.388 27.34C118.388 28.3193 118.124 29.147 117.595 29.823C117.075 30.499 116.36 31.0103 115.45 31.357C114.549 31.7037 113.53 31.8813 112.395 31.89C111.043 31.89 109.838 31.734 108.781 31.422C107.732 31.11 106.931 30.7763 106.376 30.421ZM122.722 22.049C122.722 21.7717 122.727 21.516 122.735 21.282C122.744 21.0393 122.748 20.7707 122.748 20.476C122.566 20.476 122.315 20.4803 121.994 20.489C121.682 20.4977 121.435 20.502 121.253 20.502H118.848C118.779 20.19 118.736 19.8997 118.718 19.631C118.701 19.3537 118.692 19.1023 118.692 18.877C118.692 18.6517 118.701 18.3873 118.718 18.084C118.736 17.772 118.779 17.4687 118.848 17.174H130.613C130.674 17.408 130.717 17.6723 130.743 17.967C130.778 18.2617 130.795 18.5 130.795 18.682C130.795 19.2713 130.639 19.722 130.327 20.034C130.015 20.346 129.495 20.502 128.767 20.502H128.234C128.052 20.502 127.81 20.4977 127.506 20.489C127.212 20.4803 126.982 20.476 126.817 20.476C126.817 20.7707 126.822 21.0393 126.83 21.282C126.839 21.516 126.843 21.7717 126.843 22.049V31.5C126.601 31.552 126.267 31.591 125.842 31.617C125.418 31.643 125.062 31.656 124.776 31.656C124.508 31.656 124.17 31.643 123.762 31.617C123.355 31.591 123.008 31.552 122.722 31.5V22.049ZM144.222 21.529C144.222 22.1963 144.07 22.79 143.767 23.31C143.464 23.83 143.082 24.259 142.623 24.597C142.172 24.935 141.722 25.1517 141.271 25.247C141.739 25.403 142.125 25.6413 142.428 25.962C142.74 26.2827 143.009 26.6943 143.234 27.197L143.91 28.744C144.066 29.0993 144.244 29.4287 144.443 29.732C144.642 30.0267 144.863 30.278 145.106 30.486C144.855 30.798 144.478 31.0883 143.975 31.357C143.472 31.617 142.926 31.747 142.337 31.747C141.756 31.747 141.284 31.6083 140.92 31.331C140.565 31.045 140.253 30.59 139.984 29.966L138.84 27.34C138.658 26.9153 138.433 26.6597 138.164 26.573C137.895 26.4863 137.549 26.443 137.124 26.443H136.617V31.5C136.27 31.5607 135.911 31.5997 135.538 31.617C135.174 31.643 134.862 31.656 134.602 31.656C134.359 31.656 134.039 31.643 133.64 31.617C133.241 31.5997 132.877 31.5607 132.548 31.5V17.304L132.691 17.148C133.74 17.122 134.723 17.1003 135.642 17.083C136.569 17.057 137.492 17.044 138.411 17.044C139.451 17.044 140.413 17.1827 141.297 17.46C142.181 17.7287 142.887 18.1923 143.416 18.851C143.953 19.501 144.222 20.3937 144.222 21.529ZM136.617 19.982V23.349C136.92 23.3403 137.198 23.336 137.449 23.336C137.709 23.3273 137.9 23.323 138.021 23.323C138.801 23.323 139.33 23.154 139.607 22.816C139.884 22.478 140.023 22.0837 140.023 21.633C140.023 21.191 139.884 20.8097 139.607 20.489C139.33 20.1683 138.866 20.008 138.216 20.008C137.904 20.008 137.635 20.0037 137.41 19.995C137.185 19.9863 136.92 19.982 136.617 19.982ZM150.991 28.991C150.852 28.991 150.718 28.991 150.588 28.991C150.458 28.9823 150.328 28.9737 150.198 28.965L149.392 31.5C149.14 31.5607 148.867 31.604 148.573 31.63C148.278 31.6647 147.97 31.682 147.65 31.682C147.303 31.682 146.952 31.656 146.597 31.604C146.25 31.552 145.964 31.4783 145.739 31.383L145.596 31.162L150.653 17.174C151.103 17.1047 151.537 17.0613 151.953 17.044C152.377 17.0267 152.763 17.018 153.11 17.018C153.43 17.018 153.777 17.0267 154.15 17.044C154.522 17.0613 154.943 17.1047 155.411 17.174L160.325 31.305C160.021 31.4437 159.636 31.5477 159.168 31.617C158.7 31.695 158.323 31.734 158.037 31.734C157.56 31.734 157.101 31.643 156.659 31.461C156.217 31.279 155.883 30.798 155.658 30.018L155.333 28.965C155.194 28.9737 155.06 28.9823 154.93 28.991C154.8 28.991 154.661 28.991 154.514 28.991H150.991ZM151.511 24.883L151.225 25.78C151.355 25.7713 151.485 25.767 151.615 25.767C151.745 25.7583 151.879 25.754 152.018 25.754H153.643C153.773 25.754 153.89 25.7583 153.994 25.767C154.106 25.767 154.219 25.7713 154.332 25.78L154.059 24.896C153.859 24.2113 153.66 23.4487 153.461 22.608C153.261 21.7673 153.079 21.0047 152.915 20.32H152.759C152.577 20.9787 152.373 21.7327 152.148 22.582C151.931 23.4313 151.719 24.1983 151.511 24.883ZM173.98 21.529C173.98 22.1963 173.828 22.79 173.525 23.31C173.222 23.83 172.84 24.259 172.381 24.597C171.93 24.935 171.48 25.1517 171.029 25.247C171.497 25.403 171.883 25.6413 172.186 25.962C172.498 26.2827 172.767 26.6943 172.992 27.197L173.668 28.744C173.824 29.0993 174.002 29.4287 174.201 29.732C174.4 30.0267 174.621 30.278 174.864 30.486C174.613 30.798 174.236 31.0883 173.733 31.357C173.23 31.617 172.684 31.747 172.095 31.747C171.514 31.747 171.042 31.6083 170.678 31.331C170.323 31.045 170.011 30.59 169.742 29.966L168.598 27.34C168.416 26.9153 168.191 26.6597 167.922 26.573C167.653 26.4863 167.307 26.443 166.882 26.443H166.375V31.5C166.028 31.5607 165.669 31.5997 165.296 31.617C164.932 31.643 164.62 31.656 164.36 31.656C164.117 31.656 163.797 31.643 163.398 31.617C162.999 31.5997 162.635 31.5607 162.306 31.5V17.304L162.449 17.148C163.498 17.122 164.481 17.1003 165.4 17.083C166.327 17.057 167.25 17.044 168.169 17.044C169.209 17.044 170.171 17.1827 171.055 17.46C171.939 17.7287 172.645 18.1923 173.174 18.851C173.711 19.501 173.98 20.3937 173.98 21.529ZM166.375 19.982V23.349C166.678 23.3403 166.956 23.336 167.207 23.336C167.467 23.3273 167.658 23.323 167.779 23.323C168.559 23.323 169.088 23.154 169.365 22.816C169.642 22.478 169.781 22.0837 169.781 21.633C169.781 21.191 169.642 20.8097 169.365 20.489C169.088 20.1683 168.624 20.008 167.974 20.008C167.662 20.008 167.393 20.0037 167.168 19.995C166.943 19.9863 166.678 19.982 166.375 19.982ZM79.0845 51.241C79.0845 52.073 78.9241 52.814 78.6035 53.464C78.2828 54.1053 77.8798 54.6427 77.3945 55.076C76.9091 55.5007 76.4195 55.8083 75.9255 55.999C76.4108 56.1723 76.8138 56.4713 77.1345 56.896C77.4638 57.3207 77.7281 57.819 77.9275 58.391L78.7075 60.588C79.0021 61.4287 79.4311 62.07 79.9945 62.512C79.7258 62.8587 79.3358 63.149 78.8245 63.383C78.3131 63.617 77.7801 63.734 77.2255 63.734C76.4801 63.734 75.9385 63.5347 75.6005 63.136C75.2625 62.7287 74.9548 62.1263 74.6775 61.329L73.7415 58.612C73.5941 58.1613 73.3645 57.78 73.0525 57.468C72.7405 57.1473 72.2378 56.987 71.5445 56.987H70.4655V63.5C70.1188 63.5607 69.7591 63.5997 69.3865 63.617C69.0138 63.643 68.6845 63.656 68.3985 63.656C68.1471 63.656 67.8265 63.643 67.4365 63.617C67.0465 63.5997 66.6825 63.5607 66.3445 63.5V45.872L66.5265 45.69C67.6358 45.664 68.7018 45.6423 69.7245 45.625C70.7558 45.599 71.7655 45.586 72.7535 45.586C73.9581 45.586 75.0371 45.7853 75.9905 46.184C76.9525 46.5827 77.7065 47.198 78.2525 48.03C78.8071 48.862 79.0845 49.9323 79.0845 51.241ZM70.4655 48.706V53.802C70.8728 53.7847 71.2541 53.7717 71.6095 53.763C71.9735 53.7543 72.2378 53.75 72.4025 53.75C73.0611 53.75 73.5638 53.633 73.9105 53.399C74.2658 53.1563 74.5085 52.8443 74.6385 52.463C74.7771 52.0817 74.8465 51.6743 74.8465 51.241C74.8465 50.7903 74.7771 50.3743 74.6385 49.993C74.5085 49.6117 74.2658 49.3083 73.9105 49.083C73.5638 48.849 73.0611 48.732 72.4025 48.732C72.1338 48.732 71.8348 48.732 71.5055 48.732C71.1848 48.732 70.8381 48.7233 70.4655 48.706ZM92.9912 60.237C92.9912 61.4763 92.7962 62.3387 92.4062 62.824C92.0249 63.3093 91.3749 63.552 90.4562 63.552H84.4632C83.7266 63.552 83.1459 63.344 82.7212 62.928C82.2966 62.5033 82.0842 61.9357 82.0842 61.225V49.317L82.2272 49.174H92.5102C92.5709 49.4687 92.6056 49.7503 92.6142 50.019C92.6229 50.2877 92.6272 50.5433 92.6272 50.786C92.6272 51.02 92.6012 51.2843 92.5492 51.579C92.5059 51.8737 92.4279 52.1727 92.3152 52.476H87.7652C87.4012 52.476 86.8509 52.4717 86.1142 52.463C86.1229 52.7317 86.1272 52.9613 86.1272 53.152C86.1359 53.3427 86.1402 53.5723 86.1402 53.841V54.699C86.8596 54.6903 87.4012 54.686 87.7652 54.686H91.0932C91.1799 54.92 91.2362 55.1887 91.2622 55.492C91.2969 55.7867 91.3142 56.038 91.3142 56.246C91.3142 56.4887 91.2969 56.7617 91.2622 57.065C91.2362 57.3597 91.1799 57.6283 91.0932 57.871H87.7652C87.6006 57.871 87.3709 57.871 87.0762 57.871C86.7816 57.871 86.4696 57.871 86.1402 57.871V58.716C86.1402 59.0367 86.1359 59.301 86.1272 59.509C86.1186 59.717 86.1142 59.977 86.1142 60.289V60.315C86.4176 60.2977 86.6992 60.2803 86.9592 60.263C87.2192 60.2457 87.5356 60.237 87.9082 60.237H92.9912ZM107.209 54.088C107.209 55.2147 106.953 56.1507 106.442 56.896C105.939 57.6327 105.246 58.183 104.362 58.547C103.478 58.9023 102.472 59.08 101.346 59.08H99.9286V63.5C99.5819 63.5607 99.2266 63.5997 98.8626 63.617C98.4986 63.643 98.1866 63.656 97.9266 63.656C97.6839 63.656 97.3546 63.643 96.9386 63.617C96.5226 63.5997 96.1499 63.5607 95.8206 63.5V49.304L95.9636 49.148C96.6656 49.1307 97.5106 49.109 98.4986 49.083C99.4866 49.057 100.436 49.044 101.346 49.044C102.481 49.044 103.491 49.2173 104.375 49.564C105.259 49.9107 105.952 50.4567 106.455 51.202C106.957 51.9473 107.209 52.9093 107.209 54.088ZM99.9286 52.086V56.064C100.163 56.0553 100.375 56.051 100.566 56.051C100.756 56.0423 100.899 56.038 100.995 56.038C101.567 56.038 101.996 55.934 102.282 55.726C102.576 55.5093 102.771 55.2493 102.867 54.946C102.962 54.634 103.01 54.3393 103.01 54.062C103.01 53.802 102.962 53.5203 102.867 53.217C102.771 52.9137 102.576 52.6537 102.282 52.437C101.996 52.2203 101.567 52.112 100.995 52.112C100.778 52.112 100.622 52.112 100.527 52.112C100.431 52.1033 100.232 52.0947 99.9286 52.086ZM108.656 56.363C108.656 54.0403 109.254 52.1987 110.45 50.838C111.655 49.4687 113.41 48.784 115.715 48.784C118.055 48.784 119.819 49.4643 121.006 50.825C122.202 52.177 122.8 54.023 122.8 56.363C122.8 58.703 122.202 60.5447 121.006 61.888C119.81 63.2227 118.047 63.89 115.715 63.89C113.375 63.89 111.612 63.214 110.424 61.862C109.246 60.51 108.656 58.677 108.656 56.363ZM112.855 56.363C112.855 56.857 112.886 57.3683 112.946 57.897C113.016 58.417 113.146 58.9023 113.336 59.353C113.536 59.8037 113.826 60.172 114.207 60.458C114.589 60.7353 115.096 60.874 115.728 60.874C116.361 60.874 116.868 60.7353 117.249 60.458C117.631 60.172 117.917 59.8037 118.107 59.353C118.307 58.9023 118.437 58.417 118.497 57.897C118.567 57.3683 118.601 56.857 118.601 56.363C118.601 55.8603 118.567 55.3447 118.497 54.816C118.437 54.2787 118.307 53.7847 118.107 53.334C117.917 52.8747 117.631 52.5063 117.249 52.229C116.868 51.943 116.361 51.8 115.728 51.8C115.096 51.8 114.589 51.943 114.207 52.229C113.826 52.5063 113.536 52.8747 113.336 53.334C113.146 53.7847 113.016 54.2787 112.946 54.816C112.886 55.3447 112.855 55.8603 112.855 56.363ZM137.151 53.529C137.151 54.1963 136.999 54.79 136.696 55.31C136.392 55.83 136.011 56.259 135.552 56.597C135.101 56.935 134.65 57.1517 134.2 57.247C134.668 57.403 135.053 57.6413 135.357 57.962C135.669 58.2827 135.937 58.6943 136.163 59.197L136.839 60.744C136.995 61.0993 137.172 61.4287 137.372 61.732C137.571 62.0267 137.792 62.278 138.035 62.486C137.783 62.798 137.406 63.0883 136.904 63.357C136.401 63.617 135.855 63.747 135.266 63.747C134.685 63.747 134.213 63.6083 133.849 63.331C133.493 63.045 133.181 62.59 132.913 61.966L131.769 59.34C131.587 58.9153 131.361 58.6597 131.093 58.573C130.824 58.4863 130.477 58.443 130.053 58.443H129.546V63.5C129.199 63.5607 128.839 63.5997 128.467 63.617C128.103 63.643 127.791 63.656 127.531 63.656C127.288 63.656 126.967 63.643 126.569 63.617C126.17 63.5997 125.806 63.5607 125.477 63.5V49.304L125.62 49.148C126.668 49.122 127.652 49.1003 128.571 49.083C129.498 49.057 130.421 49.044 131.34 49.044C132.38 49.044 133.342 49.1827 134.226 49.46C135.11 49.7287 135.816 50.1923 136.345 50.851C136.882 51.501 137.151 52.3937 137.151 53.529ZM129.546 51.982V55.349C129.849 55.3403 130.126 55.336 130.378 55.336C130.638 55.3273 130.828 55.323 130.95 55.323C131.73 55.323 132.258 55.154 132.536 54.816C132.813 54.478 132.952 54.0837 132.952 53.633C132.952 53.191 132.813 52.8097 132.536 52.489C132.258 52.1683 131.795 52.008 131.145 52.008C130.833 52.008 130.564 52.0037 130.339 51.995C130.113 51.9863 129.849 51.982 129.546 51.982ZM142.464 54.049C142.464 53.7717 142.468 53.516 142.477 53.282C142.485 53.0393 142.49 52.7707 142.49 52.476C142.308 52.476 142.056 52.4803 141.736 52.489C141.424 52.4977 141.177 52.502 140.995 52.502H138.59C138.52 52.19 138.477 51.8997 138.46 51.631C138.442 51.3537 138.434 51.1023 138.434 50.877C138.434 50.6517 138.442 50.3873 138.46 50.084C138.477 49.772 138.52 49.4687 138.59 49.174H150.355C150.415 49.408 150.459 49.6723 150.485 49.967C150.519 50.2617 150.537 50.5 150.537 50.682C150.537 51.2713 150.381 51.722 150.069 52.034C149.757 52.346 149.237 52.502 148.509 52.502H147.976C147.794 52.502 147.551 52.4977 147.248 52.489C146.953 52.4803 146.723 52.476 146.559 52.476C146.559 52.7707 146.563 53.0393 146.572 53.282C146.58 53.516 146.585 53.7717 146.585 54.049V63.5C146.342 63.552 146.008 63.591 145.584 63.617C145.159 63.643 144.804 63.656 144.518 63.656C144.249 63.656 143.911 63.643 143.504 63.617C143.096 63.591 142.75 63.552 142.464 63.5V54.049ZM163.196 60.237C163.196 61.4763 163.001 62.3387 162.611 62.824C162.23 63.3093 161.58 63.552 160.661 63.552H154.668C153.932 63.552 153.351 63.344 152.926 62.928C152.502 62.5033 152.289 61.9357 152.289 61.225V49.317L152.432 49.174H162.715C162.776 49.4687 162.811 49.7503 162.819 50.019C162.828 50.2877 162.832 50.5433 162.832 50.786C162.832 51.02 162.806 51.2843 162.754 51.579C162.711 51.8737 162.633 52.1727 162.52 52.476H157.97C157.606 52.476 157.056 52.4717 156.319 52.463C156.328 52.7317 156.332 52.9613 156.332 53.152C156.341 53.3427 156.345 53.5723 156.345 53.841V54.699C157.065 54.6903 157.606 54.686 157.97 54.686H161.298C161.385 54.92 161.441 55.1887 161.467 55.492C161.502 55.7867 161.519 56.038 161.519 56.246C161.519 56.4887 161.502 56.7617 161.467 57.065C161.441 57.3597 161.385 57.6283 161.298 57.871H157.97C157.806 57.871 157.576 57.871 157.281 57.871C156.987 57.871 156.675 57.871 156.345 57.871V58.716C156.345 59.0367 156.341 59.301 156.332 59.509C156.324 59.717 156.319 59.977 156.319 60.289V60.315C156.623 60.2977 156.904 60.2803 157.164 60.263C157.424 60.2457 157.741 60.237 158.113 60.237H163.196Z" fill="white"/>
</svg>
