<svg width="254" height="102" viewBox="0 0 254 102" fill="none" xmlns="http://www.w3.org/2000/svg">
<rect opacity="0.5" x="1" width="253" height="101.083" rx="10" fill="#DBDADA"/>
<path d="M23.9806 47.204C24.0046 46.208 23.9026 45.272 23.6746 44.396C23.4586 43.508 23.0566 42.794 22.4686 42.254C21.8926 41.702 21.0766 41.426 20.0206 41.426C18.4726 41.426 17.3686 42.146 16.7086 43.586C16.0606 45.014 15.7366 47.096 15.7366 49.832C15.7366 52.388 16.1626 54.308 17.0146 55.592C17.8786 56.876 19.0966 57.518 20.6686 57.518C21.9166 57.518 23.0386 57.254 24.0346 56.726C25.0426 56.198 25.9606 55.622 26.7886 54.998C27.3526 55.382 27.8986 55.928 28.4266 56.636C28.9666 57.344 29.3026 58.034 29.4346 58.706C28.7386 59.39 27.8746 60.026 26.8426 60.614C25.8226 61.19 24.6946 61.652 23.4586 62C22.2226 62.36 20.9386 62.54 19.6066 62.54C17.7226 62.54 16.1386 62.174 14.8546 61.442C13.5826 60.698 12.5686 59.714 11.8126 58.49C11.0566 57.254 10.5106 55.886 10.1746 54.386C9.85058 52.874 9.68858 51.344 9.68858 49.796C9.68858 46.784 10.1626 44.324 11.1106 42.416C12.0706 40.508 13.3486 39.104 14.9446 38.204C16.5406 37.304 18.2986 36.854 20.2186 36.854C22.0786 36.854 23.6986 37.184 25.0786 37.844C26.4706 38.504 27.5446 39.398 28.3006 40.526C29.0686 41.654 29.4526 42.926 29.4526 44.342C29.4526 45.458 29.1586 46.268 28.5706 46.772C27.9946 47.264 27.1906 47.51 26.1586 47.51C25.7386 47.51 25.3546 47.48 25.0066 47.42C24.6706 47.36 24.3286 47.288 23.9806 47.204ZM49.0861 48.194C49.0861 49.118 48.8761 49.94 48.4561 50.66C48.0361 51.38 47.5081 51.974 46.8721 52.442C46.2481 52.91 45.6241 53.21 45.0001 53.342C45.6481 53.558 46.1821 53.888 46.6021 54.332C47.0341 54.776 47.4061 55.346 47.7181 56.042L48.6541 58.184C48.8701 58.676 49.1161 59.132 49.3921 59.552C49.6681 59.96 49.9741 60.308 50.3101 60.596C49.9621 61.028 49.4401 61.43 48.7441 61.802C48.0481 62.162 47.2921 62.342 46.4761 62.342C45.6721 62.342 45.0181 62.15 44.5141 61.766C44.0221 61.37 43.5901 60.74 43.2181 59.876L41.6341 56.24C41.3821 55.652 41.0701 55.298 40.6981 55.178C40.3261 55.058 39.8461 54.998 39.2581 54.998H38.5561V62C38.0761 62.084 37.5781 62.138 37.0621 62.162C36.5581 62.198 36.1261 62.216 35.7661 62.216C35.4301 62.216 34.9861 62.198 34.4341 62.162C33.8821 62.138 33.3781 62.084 32.9221 62V42.344L33.1201 42.128C34.5721 42.092 35.9341 42.062 37.2061 42.038C38.4901 42.002 39.7681 41.984 41.0401 41.984C42.4801 41.984 43.8121 42.176 45.0361 42.56C46.2601 42.932 47.2381 43.574 47.9701 44.486C48.7141 45.386 49.0861 46.622 49.0861 48.194ZM38.5561 46.052V50.714C38.9761 50.702 39.3601 50.696 39.7081 50.696C40.0681 50.684 40.3321 50.678 40.5001 50.678C41.5801 50.678 42.3121 50.444 42.6961 49.976C43.0801 49.508 43.2721 48.962 43.2721 48.338C43.2721 47.726 43.0801 47.198 42.6961 46.754C42.3121 46.31 41.6701 46.088 40.7701 46.088C40.3381 46.088 39.9661 46.082 39.6541 46.07C39.3421 46.058 38.9761 46.052 38.5561 46.052ZM68.5202 57.482C68.5202 59.198 68.2502 60.392 67.7102 61.064C67.1822 61.736 66.2822 62.072 65.0102 62.072H56.7122C55.6922 62.072 54.8882 61.784 54.3002 61.208C53.7122 60.62 53.4182 59.834 53.4182 58.85V42.362L53.6162 42.164H67.8542C67.9382 42.572 67.9862 42.962 67.9982 43.334C68.0102 43.706 68.0162 44.06 68.0162 44.396C68.0162 44.72 67.9802 45.086 67.9082 45.494C67.8482 45.902 67.7402 46.316 67.5842 46.736H61.2842C60.7802 46.736 60.0182 46.73 58.9982 46.718C59.0102 47.09 59.0162 47.408 59.0162 47.672C59.0282 47.936 59.0342 48.254 59.0342 48.626V49.814C60.0302 49.802 60.7802 49.796 61.2842 49.796H65.8922C66.0122 50.12 66.0902 50.492 66.1262 50.912C66.1742 51.32 66.1982 51.668 66.1982 51.956C66.1982 52.292 66.1742 52.67 66.1262 53.09C66.0902 53.498 66.0122 53.87 65.8922 54.206H61.2842C61.0562 54.206 60.7382 54.206 60.3302 54.206C59.9222 54.206 59.4902 54.206 59.0342 54.206V55.376C59.0342 55.82 59.0282 56.186 59.0162 56.474C59.0042 56.762 58.9982 57.122 58.9982 57.554V57.59C59.4182 57.566 59.8082 57.542 60.1682 57.518C60.5282 57.494 60.9662 57.482 61.4822 57.482H68.5202ZM77.4777 58.526C77.2857 58.526 77.0997 58.526 76.9197 58.526C76.7397 58.514 76.5597 58.502 76.3797 58.49L75.2637 62C74.9157 62.084 74.5377 62.144 74.1297 62.18C73.7217 62.228 73.2957 62.252 72.8517 62.252C72.3717 62.252 71.8857 62.216 71.3937 62.144C70.9137 62.072 70.5177 61.97 70.2057 61.838L70.0077 61.532L77.0097 42.164C77.6337 42.068 78.2337 42.008 78.8097 41.984C79.3977 41.96 79.9317 41.948 80.4117 41.948C80.8557 41.948 81.3357 41.96 81.8517 41.984C82.3677 42.008 82.9497 42.068 83.5977 42.164L90.4017 61.73C89.9817 61.922 89.4477 62.066 88.7997 62.162C88.1517 62.27 87.6297 62.324 87.2337 62.324C86.5737 62.324 85.9377 62.198 85.3257 61.946C84.7137 61.694 84.2517 61.028 83.9397 59.948L83.4897 58.49C83.2977 58.502 83.1117 58.514 82.9317 58.526C82.7517 58.526 82.5597 58.526 82.3557 58.526H77.4777ZM78.1977 52.838L77.8017 54.08C77.9817 54.068 78.1617 54.062 78.3417 54.062C78.5217 54.05 78.7077 54.044 78.8997 54.044H81.1497C81.3297 54.044 81.4917 54.05 81.6357 54.062C81.7917 54.062 81.9477 54.068 82.1037 54.08L81.7257 52.856C81.4497 51.908 81.1737 50.852 80.8977 49.688C80.6217 48.524 80.3697 47.468 80.1417 46.52H79.9257C79.6737 47.432 79.3917 48.476 79.0797 49.652C78.7797 50.828 78.4857 51.89 78.1977 52.838ZM109.309 48.194C109.309 49.118 109.099 49.94 108.679 50.66C108.259 51.38 107.731 51.974 107.095 52.442C106.471 52.91 105.847 53.21 105.223 53.342C105.871 53.558 106.405 53.888 106.825 54.332C107.257 54.776 107.629 55.346 107.941 56.042L108.877 58.184C109.093 58.676 109.339 59.132 109.615 59.552C109.891 59.96 110.197 60.308 110.533 60.596C110.185 61.028 109.663 61.43 108.967 61.802C108.271 62.162 107.515 62.342 106.699 62.342C105.895 62.342 105.241 62.15 104.737 61.766C104.245 61.37 103.813 60.74 103.441 59.876L101.857 56.24C101.605 55.652 101.293 55.298 100.921 55.178C100.549 55.058 100.069 54.998 99.4807 54.998H98.7787V62C98.2987 62.084 97.8007 62.138 97.2847 62.162C96.7807 62.198 96.3487 62.216 95.9887 62.216C95.6527 62.216 95.2087 62.198 94.6567 62.162C94.1047 62.138 93.6007 62.084 93.1447 62V42.344L93.3427 42.128C94.7947 42.092 96.1567 42.062 97.4287 42.038C98.7127 42.002 99.9907 41.984 101.263 41.984C102.703 41.984 104.035 42.176 105.259 42.56C106.483 42.932 107.461 43.574 108.193 44.486C108.937 45.386 109.309 46.622 109.309 48.194ZM98.7787 46.052V50.714C99.1987 50.702 99.5827 50.696 99.9307 50.696C100.291 50.684 100.555 50.678 100.723 50.678C101.803 50.678 102.535 50.444 102.919 49.976C103.303 49.508 103.495 48.962 103.495 48.338C103.495 47.726 103.303 47.198 102.919 46.754C102.535 46.31 101.893 46.088 100.993 46.088C100.561 46.088 100.189 46.082 99.8767 46.07C99.5647 46.058 99.1987 46.052 98.7787 46.052ZM128.769 49.112C128.373 48.188 128.001 47.282 127.653 46.394C127.305 45.506 127.005 44.72 126.753 44.036L126.609 44.09C126.705 45.11 126.783 46.268 126.843 47.564C126.915 48.848 126.969 50.132 127.005 51.416C127.041 52.7 127.059 53.84 127.059 54.836V62C126.591 62.084 126.129 62.138 125.673 62.162C125.217 62.198 124.809 62.216 124.449 62.216C124.101 62.216 123.663 62.198 123.135 62.162C122.619 62.138 122.139 62.084 121.695 62V37.52C122.139 37.412 122.727 37.334 123.459 37.286C124.191 37.226 124.737 37.196 125.097 37.196C125.469 37.196 125.961 37.214 126.573 37.25C127.185 37.274 127.809 37.328 128.445 37.412L133.989 50.264C134.445 51.32 134.865 52.328 135.249 53.288C135.645 54.248 135.975 55.058 136.239 55.718L136.383 55.664C136.287 54.548 136.203 53.324 136.131 51.992C136.071 50.66 136.023 49.376 135.987 48.14C135.951 46.904 135.933 45.872 135.933 45.044V40.652C135.933 39.368 136.191 38.468 136.707 37.952C137.235 37.436 138.051 37.178 139.155 37.178H141.027L141.261 37.412V61.892C140.805 62 140.205 62.078 139.461 62.126C138.729 62.186 138.171 62.216 137.787 62.216C137.415 62.216 136.923 62.198 136.311 62.162C135.699 62.138 135.081 62.084 134.457 62L128.769 49.112ZM145.159 52.118C145.159 48.902 145.987 46.352 147.643 44.468C149.311 42.572 151.741 41.624 154.933 41.624C158.173 41.624 160.615 42.566 162.259 44.45C163.915 46.322 164.743 48.878 164.743 52.118C164.743 55.358 163.915 57.908 162.259 59.768C160.603 61.616 158.161 62.54 154.933 62.54C151.693 62.54 149.251 61.604 147.607 59.732C145.975 57.86 145.159 55.322 145.159 52.118ZM150.973 52.118C150.973 52.802 151.015 53.51 151.099 54.242C151.195 54.962 151.375 55.634 151.639 56.258C151.915 56.882 152.317 57.392 152.845 57.788C153.373 58.172 154.075 58.364 154.951 58.364C155.827 58.364 156.529 58.172 157.057 57.788C157.585 57.392 157.981 56.882 158.245 56.258C158.521 55.634 158.701 54.962 158.785 54.242C158.881 53.51 158.929 52.802 158.929 52.118C158.929 51.422 158.881 50.708 158.785 49.976C158.701 49.232 158.521 48.548 158.245 47.924C157.981 47.288 157.585 46.778 157.057 46.394C156.529 45.998 155.827 45.8 154.951 45.8C154.075 45.8 153.373 45.998 152.845 46.394C152.317 46.778 151.915 47.288 151.639 47.924C151.375 48.548 151.195 49.232 151.099 49.976C151.015 50.708 150.973 51.422 150.973 52.118ZM171.087 48.914C171.087 48.53 171.093 48.176 171.105 47.852C171.117 47.516 171.123 47.144 171.123 46.736C170.871 46.736 170.523 46.742 170.079 46.754C169.647 46.766 169.305 46.772 169.053 46.772H165.723C165.627 46.34 165.567 45.938 165.543 45.566C165.519 45.182 165.507 44.834 165.507 44.522C165.507 44.21 165.519 43.844 165.543 43.424C165.567 42.992 165.627 42.572 165.723 42.164H182.013C182.097 42.488 182.157 42.854 182.193 43.262C182.241 43.67 182.265 44 182.265 44.252C182.265 45.068 182.049 45.692 181.617 46.124C181.185 46.556 180.465 46.772 179.457 46.772H178.719C178.467 46.772 178.131 46.766 177.711 46.754C177.303 46.742 176.985 46.736 176.757 46.736C176.757 47.144 176.763 47.516 176.775 47.852C176.787 48.176 176.793 48.53 176.793 48.914V62C176.457 62.072 175.995 62.126 175.407 62.162C174.819 62.198 174.327 62.216 173.931 62.216C173.559 62.216 173.091 62.198 172.527 62.162C171.963 62.126 171.483 62.072 171.087 62V48.914ZM184.764 42.164C185.22 42.068 185.736 42.008 186.312 41.984C186.888 41.96 187.344 41.948 187.68 41.948C188.04 41.948 188.472 41.96 188.976 41.984C189.492 42.008 189.99 42.068 190.47 42.164V62C189.99 62.084 189.492 62.138 188.976 62.162C188.472 62.198 188.04 62.216 187.68 62.216C187.344 62.216 186.888 62.198 186.312 62.162C185.736 62.138 185.22 62.084 184.764 62V42.164ZM206.676 51.146C206.676 49.622 206.472 48.398 206.064 47.474C205.656 46.538 204.834 46.07 203.598 46.07C202.314 46.07 201.402 46.598 200.862 47.654C200.322 48.71 200.052 50.228 200.052 52.208C200.052 53.72 200.244 54.884 200.628 55.7C201.024 56.504 201.528 57.062 202.14 57.374C202.752 57.686 203.4 57.842 204.084 57.842C204.972 57.842 205.86 57.65 206.748 57.266C207.648 56.87 208.452 56.408 209.16 55.88C209.544 56.072 209.916 56.378 210.276 56.798C210.636 57.218 210.948 57.668 211.212 58.148C211.476 58.628 211.644 59.066 211.716 59.462C210.72 60.314 209.508 61.04 208.08 61.64C206.664 62.24 205.05 62.54 203.238 62.54C201.498 62.54 200.046 62.234 198.882 61.622C197.73 61.01 196.812 60.206 196.128 59.21C195.444 58.202 194.958 57.086 194.67 55.862C194.382 54.638 194.238 53.408 194.238 52.172C194.238 49.712 194.682 47.708 195.57 46.16C196.47 44.6 197.646 43.454 199.098 42.722C200.562 41.99 202.128 41.624 203.796 41.624C205.668 41.624 207.21 41.954 208.422 42.614C209.634 43.274 210.534 44.108 211.122 45.116C211.71 46.124 212.004 47.162 212.004 48.23C212.004 50.282 210.852 51.308 208.548 51.308C208.272 51.308 207.972 51.29 207.648 51.254C207.324 51.218 207 51.182 206.676 51.146ZM215.56 42.164C216.016 42.068 216.532 42.008 217.108 41.984C217.684 41.96 218.14 41.948 218.476 41.948C218.836 41.948 219.268 41.96 219.772 41.984C220.288 42.008 220.786 42.068 221.266 42.164V62C220.786 62.084 220.288 62.138 219.772 62.162C219.268 62.198 218.836 62.216 218.476 62.216C218.14 62.216 217.684 62.198 217.108 62.162C216.532 62.138 216.016 62.084 215.56 62V42.164ZM231.532 58.526C231.34 58.526 231.154 58.526 230.974 58.526C230.794 58.514 230.614 58.502 230.434 58.49L229.318 62C228.97 62.084 228.592 62.144 228.184 62.18C227.776 62.228 227.35 62.252 226.906 62.252C226.426 62.252 225.94 62.216 225.448 62.144C224.968 62.072 224.572 61.97 224.26 61.838L224.062 61.532L231.064 42.164C231.688 42.068 232.288 42.008 232.864 41.984C233.452 41.96 233.986 41.948 234.466 41.948C234.91 41.948 235.39 41.96 235.906 41.984C236.422 42.008 237.004 42.068 237.652 42.164L244.456 61.73C244.036 61.922 243.502 62.066 242.854 62.162C242.206 62.27 241.684 62.324 241.288 62.324C240.628 62.324 239.992 62.198 239.38 61.946C238.768 61.694 238.306 61.028 237.994 59.948L237.544 58.49C237.352 58.502 237.166 58.514 236.986 58.526C236.806 58.526 236.614 58.526 236.41 58.526H231.532ZM232.252 52.838L231.856 54.08C232.036 54.068 232.216 54.062 232.396 54.062C232.576 54.05 232.762 54.044 232.954 54.044H235.204C235.384 54.044 235.546 54.05 235.69 54.062C235.846 54.062 236.002 54.068 236.158 54.08L235.78 52.856C235.504 51.908 235.228 50.852 234.952 49.688C234.676 48.524 234.424 47.468 234.196 46.52H233.98C233.728 47.432 233.446 48.476 233.134 49.652C232.834 50.828 232.54 51.89 232.252 52.838Z" fill="#364760"/>
</svg>
