<svg width="253" height="102" viewBox="0 0 253 102" fill="none" xmlns="http://www.w3.org/2000/svg">
<rect opacity="0.5" width="253" height="101.083" rx="10" fill="#DBDADA"/>
<path d="M52.4275 29.146C52.4275 27.622 52.2235 26.398 51.8155 25.474C51.4075 24.538 50.5855 24.07 49.3495 24.07C48.0655 24.07 47.1535 24.598 46.6135 25.654C46.0735 26.71 45.8035 28.228 45.8035 30.208C45.8035 31.72 45.9955 32.884 46.3795 33.7C46.7755 34.504 47.2795 35.062 47.8915 35.374C48.5035 35.686 49.1515 35.842 49.8355 35.842C50.7235 35.842 51.6115 35.65 52.4995 35.266C53.3995 34.87 54.2035 34.408 54.9115 33.88C55.2955 34.072 55.6675 34.378 56.0275 34.798C56.3875 35.218 56.6995 35.668 56.9635 36.148C57.2275 36.628 57.3955 37.066 57.4675 37.462C56.4715 38.314 55.2595 39.04 53.8315 39.64C52.4155 40.24 50.8015 40.54 48.9895 40.54C47.2495 40.54 45.7975 40.234 44.6335 39.622C43.4815 39.01 42.5635 38.206 41.8795 37.21C41.1955 36.202 40.7095 35.086 40.4215 33.862C40.1335 32.638 39.9895 31.408 39.9895 30.172C39.9895 27.712 40.4335 25.708 41.3215 24.16C42.2215 22.6 43.3975 21.454 44.8495 20.722C46.3135 19.99 47.8795 19.624 49.5475 19.624C51.4195 19.624 52.9615 19.954 54.1735 20.614C55.3855 21.274 56.2855 22.108 56.8735 23.116C57.4615 24.124 57.7555 25.162 57.7555 26.23C57.7555 28.282 56.6035 29.308 54.2995 29.308C54.0235 29.308 53.7235 29.29 53.3995 29.254C53.0755 29.218 52.7515 29.182 52.4275 29.146ZM59.6067 30.118C59.6067 26.902 60.4347 24.352 62.0907 22.468C63.7587 20.572 66.1887 19.624 69.3807 19.624C72.6207 19.624 75.0627 20.566 76.7067 22.45C78.3627 24.322 79.1907 26.878 79.1907 30.118C79.1907 33.358 78.3627 35.908 76.7067 37.768C75.0507 39.616 72.6087 40.54 69.3807 40.54C66.1407 40.54 63.6987 39.604 62.0547 37.732C60.4227 35.86 59.6067 33.322 59.6067 30.118ZM65.4207 30.118C65.4207 30.802 65.4627 31.51 65.5467 32.242C65.6427 32.962 65.8227 33.634 66.0867 34.258C66.3627 34.882 66.7647 35.392 67.2927 35.788C67.8207 36.172 68.5227 36.364 69.3987 36.364C70.2747 36.364 70.9767 36.172 71.5047 35.788C72.0327 35.392 72.4287 34.882 72.6927 34.258C72.9687 33.634 73.1487 32.962 73.2327 32.242C73.3287 31.51 73.3767 30.802 73.3767 30.118C73.3767 29.422 73.3287 28.708 73.2327 27.976C73.1487 27.232 72.9687 26.548 72.6927 25.924C72.4287 25.288 72.0327 24.778 71.5047 24.394C70.9767 23.998 70.2747 23.8 69.3987 23.8C68.5227 23.8 67.8207 23.998 67.2927 24.394C66.7647 24.778 66.3627 25.288 66.0867 25.924C65.8227 26.548 65.6427 27.232 65.5467 27.976C65.4627 28.708 65.4207 29.422 65.4207 30.118ZM89.8807 30.946C89.7967 30.754 89.6647 30.454 89.4847 30.046C89.3047 29.626 89.1127 29.176 88.9087 28.696C88.7047 28.216 88.5127 27.766 88.3327 27.346C88.1647 26.926 88.0327 26.62 87.9367 26.428L87.8107 26.482C87.8587 27.43 87.9067 28.456 87.9547 29.56C88.0027 30.652 88.0387 31.654 88.0627 32.566C88.0987 33.466 88.1167 34.12 88.1167 34.528V40C87.6487 40.084 87.1987 40.138 86.7667 40.162C86.3347 40.198 85.9327 40.216 85.5607 40.216C85.2247 40.216 84.8047 40.198 84.3007 40.162C83.8087 40.138 83.3407 40.084 82.8967 40V20.29C83.3407 20.182 83.8927 20.098 84.5527 20.038C85.2127 19.978 85.7227 19.948 86.0827 19.948C86.4547 19.948 86.9827 19.96 87.6667 19.984C88.3507 19.996 88.9147 20.056 89.3587 20.164L93.5887 29.182C93.6727 29.35 93.8107 29.656 94.0027 30.1C94.2067 30.544 94.4227 31.03 94.6507 31.558C94.8787 32.086 95.0887 32.584 95.2807 33.052C95.4847 33.508 95.6347 33.844 95.7307 34.06L95.8927 34.024C95.8447 33.232 95.7787 32.308 95.6947 31.252C95.6227 30.196 95.5567 29.176 95.4967 28.192C95.4367 27.208 95.4067 26.422 95.4067 25.834V23.026C95.4067 21.754 95.6827 20.92 96.2347 20.524C96.7867 20.116 97.6087 19.912 98.7007 19.912H100.555L100.771 20.164V39.892C100.303 40 99.7387 40.078 99.0787 40.126C98.4187 40.186 97.9147 40.216 97.5667 40.216C97.3267 40.216 96.9967 40.21 96.5767 40.198C96.1567 40.186 95.7247 40.168 95.2807 40.144C94.8487 40.12 94.4887 40.072 94.2007 40L89.8807 30.946ZM104.033 38.506C104.033 38.05 104.123 37.546 104.303 36.994C104.483 36.43 104.729 35.908 105.041 35.428C105.353 34.948 105.695 34.588 106.067 34.348C106.955 34.828 107.945 35.242 109.037 35.59C110.129 35.926 111.197 36.094 112.241 36.094C112.913 36.094 113.465 35.956 113.897 35.68C114.341 35.404 114.563 35.014 114.563 34.51C114.563 34.186 114.437 33.892 114.185 33.628C113.933 33.352 113.495 33.1 112.871 32.872L109.883 31.702C108.959 31.366 108.095 30.946 107.291 30.442C106.487 29.938 105.839 29.32 105.347 28.588C104.855 27.856 104.609 26.98 104.609 25.96C104.609 24.088 105.329 22.564 106.769 21.388C108.209 20.212 110.147 19.624 112.583 19.624C113.963 19.624 115.331 19.786 116.687 20.11C118.055 20.422 119.201 20.782 120.125 21.19C120.125 22.006 119.957 22.81 119.621 23.602C119.285 24.394 118.823 25.018 118.235 25.474C117.347 25.078 116.381 24.748 115.337 24.484C114.293 24.208 113.351 24.07 112.511 24.07C111.887 24.07 111.407 24.202 111.071 24.466C110.747 24.73 110.585 25.048 110.585 25.42C110.585 25.768 110.747 26.032 111.071 26.212C111.395 26.392 111.797 26.572 112.277 26.752L115.247 27.886C116.903 28.486 118.217 29.314 119.189 30.37C120.173 31.414 120.665 32.704 120.665 34.24C120.665 35.596 120.299 36.742 119.567 37.678C118.847 38.614 117.857 39.322 116.597 39.802C115.349 40.282 113.939 40.528 112.367 40.54C110.495 40.54 108.827 40.324 107.363 39.892C105.911 39.46 104.801 38.998 104.033 38.506ZM141.414 32.566C141.414 35.05 140.67 37 139.182 38.416C137.706 39.832 135.516 40.54 132.612 40.54C129.708 40.54 127.512 39.832 126.024 38.416C124.548 37 123.81 35.05 123.81 32.566V20.164L124.026 19.948H126.078C127.17 19.948 128.01 20.224 128.598 20.776C129.198 21.328 129.498 22.258 129.498 23.566V32.548C129.498 33.64 129.726 34.498 130.182 35.122C130.638 35.746 131.448 36.058 132.612 36.058C133.788 36.058 134.598 35.746 135.042 35.122C135.486 34.498 135.708 33.64 135.708 32.548V20.164C136.188 20.068 136.68 20.008 137.184 19.984C137.688 19.96 138.126 19.948 138.498 19.948C138.834 19.948 139.29 19.966 139.866 20.002C140.442 20.026 140.958 20.086 141.414 20.182V32.566ZM160.252 35.392C160.18 37.144 159.874 38.368 159.334 39.064C158.794 39.76 157.834 40.108 156.454 40.108H149.47C148.438 40.108 147.628 39.82 147.04 39.244C146.464 38.656 146.176 37.87 146.176 36.886V20.2L146.392 19.984H148.552C149.644 19.984 150.472 20.26 151.036 20.812C151.6 21.352 151.882 22.258 151.882 23.53V35.572C153.118 35.452 154.228 35.392 155.212 35.392H160.252ZM163.581 26.914C163.581 26.53 163.587 26.176 163.599 25.852C163.611 25.516 163.617 25.144 163.617 24.736C163.365 24.736 163.017 24.742 162.573 24.754C162.141 24.766 161.799 24.772 161.547 24.772H158.217C158.121 24.34 158.061 23.938 158.037 23.566C158.013 23.182 158.001 22.834 158.001 22.522C158.001 22.21 158.013 21.844 158.037 21.424C158.061 20.992 158.121 20.572 158.217 20.164H174.507C174.591 20.488 174.651 20.854 174.687 21.262C174.735 21.67 174.759 22 174.759 22.252C174.759 23.068 174.543 23.692 174.111 24.124C173.679 24.556 172.959 24.772 171.951 24.772H171.213C170.961 24.772 170.625 24.766 170.205 24.754C169.797 24.742 169.479 24.736 169.251 24.736C169.251 25.144 169.257 25.516 169.269 25.852C169.281 26.176 169.287 26.53 169.287 26.914V40C168.951 40.072 168.489 40.126 167.901 40.162C167.313 40.198 166.821 40.216 166.425 40.216C166.053 40.216 165.585 40.198 165.021 40.162C164.457 40.126 163.977 40.072 163.581 40V26.914ZM180.573 36.526C180.381 36.526 180.195 36.526 180.015 36.526C179.835 36.514 179.655 36.502 179.475 36.49L178.359 40C178.011 40.084 177.633 40.144 177.225 40.18C176.817 40.228 176.391 40.252 175.947 40.252C175.467 40.252 174.981 40.216 174.489 40.144C174.009 40.072 173.613 39.97 173.301 39.838L173.103 39.532L180.105 20.164C180.729 20.068 181.329 20.008 181.905 19.984C182.493 19.96 183.027 19.948 183.507 19.948C183.951 19.948 184.431 19.96 184.947 19.984C185.463 20.008 186.045 20.068 186.693 20.164L193.497 39.73C193.077 39.922 192.543 40.066 191.895 40.162C191.247 40.27 190.725 40.324 190.329 40.324C189.669 40.324 189.033 40.198 188.421 39.946C187.809 39.694 187.347 39.028 187.035 37.948L186.585 36.49C186.393 36.502 186.207 36.514 186.027 36.526C185.847 36.526 185.655 36.526 185.451 36.526H180.573ZM181.293 30.838L180.897 32.08C181.077 32.068 181.257 32.062 181.437 32.062C181.617 32.05 181.803 32.044 181.995 32.044H184.245C184.425 32.044 184.587 32.05 184.731 32.062C184.887 32.062 185.043 32.068 185.199 32.08L184.821 30.856C184.545 29.908 184.269 28.852 183.993 27.688C183.717 26.524 183.465 25.468 183.237 24.52H183.021C182.769 25.432 182.487 26.476 182.175 27.652C181.875 28.828 181.581 29.89 181.293 30.838ZM212.404 26.194C212.404 27.118 212.194 27.94 211.774 28.66C211.354 29.38 210.826 29.974 210.19 30.442C209.566 30.91 208.942 31.21 208.318 31.342C208.966 31.558 209.5 31.888 209.92 32.332C210.352 32.776 210.724 33.346 211.036 34.042L211.972 36.184C212.188 36.676 212.434 37.132 212.71 37.552C212.986 37.96 213.292 38.308 213.628 38.596C213.28 39.028 212.758 39.43 212.062 39.802C211.366 40.162 210.61 40.342 209.794 40.342C208.99 40.342 208.336 40.15 207.832 39.766C207.34 39.37 206.908 38.74 206.536 37.876L204.952 34.24C204.7 33.652 204.388 33.298 204.016 33.178C203.644 33.058 203.164 32.998 202.576 32.998H201.874V40C201.394 40.084 200.896 40.138 200.38 40.162C199.876 40.198 199.444 40.216 199.084 40.216C198.748 40.216 198.304 40.198 197.752 40.162C197.2 40.138 196.696 40.084 196.24 40V20.344L196.438 20.128C197.89 20.092 199.252 20.062 200.524 20.038C201.808 20.002 203.086 19.984 204.358 19.984C205.798 19.984 207.13 20.176 208.354 20.56C209.578 20.932 210.556 21.574 211.288 22.486C212.032 23.386 212.404 24.622 212.404 26.194ZM201.874 24.052V28.714C202.294 28.702 202.678 28.696 203.026 28.696C203.386 28.684 203.65 28.678 203.818 28.678C204.898 28.678 205.63 28.444 206.014 27.976C206.398 27.508 206.59 26.962 206.59 26.338C206.59 25.726 206.398 25.198 206.014 24.754C205.63 24.31 204.988 24.088 204.088 24.088C203.656 24.088 203.284 24.082 202.972 24.07C202.66 24.058 202.294 24.052 201.874 24.052ZM91.0288 71.112C90.6328 70.188 90.2608 69.282 89.9128 68.394C89.5648 67.506 89.2648 66.72 89.0128 66.036L88.8688 66.09C88.9648 67.11 89.0428 68.268 89.1028 69.564C89.1748 70.848 89.2288 72.132 89.2648 73.416C89.3008 74.7 89.3188 75.84 89.3188 76.836V84C88.8508 84.084 88.3888 84.138 87.9328 84.162C87.4768 84.198 87.0688 84.216 86.7088 84.216C86.3608 84.216 85.9228 84.198 85.3948 84.162C84.8788 84.138 84.3988 84.084 83.9548 84V59.52C84.3988 59.412 84.9868 59.334 85.7188 59.286C86.4508 59.226 86.9968 59.196 87.3568 59.196C87.7288 59.196 88.2208 59.214 88.8328 59.25C89.4448 59.274 90.0688 59.328 90.7048 59.412L96.2488 72.264C96.7048 73.32 97.1248 74.328 97.5088 75.288C97.9048 76.248 98.2348 77.058 98.4988 77.718L98.6428 77.664C98.5468 76.548 98.4628 75.324 98.3908 73.992C98.3308 72.66 98.2828 71.376 98.2468 70.14C98.2108 68.904 98.1928 67.872 98.1928 67.044V62.652C98.1928 61.368 98.4508 60.468 98.9668 59.952C99.4948 59.436 100.311 59.178 101.415 59.178H103.287L103.521 59.412V83.892C103.065 84 102.465 84.078 101.721 84.126C100.989 84.186 100.431 84.216 100.047 84.216C99.6748 84.216 99.1828 84.198 98.5708 84.162C97.9588 84.138 97.3408 84.084 96.7168 84L91.0288 71.112ZM107.419 74.118C107.419 70.902 108.247 68.352 109.903 66.468C111.571 64.572 114.001 63.624 117.193 63.624C120.433 63.624 122.875 64.566 124.519 66.45C126.175 68.322 127.003 70.878 127.003 74.118C127.003 77.358 126.175 79.908 124.519 81.768C122.863 83.616 120.421 84.54 117.193 84.54C113.953 84.54 111.511 83.604 109.867 81.732C108.235 79.86 107.419 77.322 107.419 74.118ZM113.233 74.118C113.233 74.802 113.275 75.51 113.359 76.242C113.455 76.962 113.635 77.634 113.899 78.258C114.175 78.882 114.577 79.392 115.105 79.788C115.633 80.172 116.335 80.364 117.211 80.364C118.087 80.364 118.789 80.172 119.317 79.788C119.845 79.392 120.241 78.882 120.505 78.258C120.781 77.634 120.961 76.962 121.045 76.242C121.141 75.51 121.189 74.802 121.189 74.118C121.189 73.422 121.141 72.708 121.045 71.976C120.961 71.232 120.781 70.548 120.505 69.924C120.241 69.288 119.845 68.778 119.317 68.394C118.789 67.998 118.087 67.8 117.211 67.8C116.335 67.8 115.633 67.998 115.105 68.394C114.577 68.778 114.175 69.288 113.899 69.924C113.635 70.548 113.455 71.232 113.359 71.976C113.275 72.708 113.233 73.422 113.233 74.118ZM148.799 74.118C148.799 77.478 148.013 79.992 146.441 81.66C144.869 83.316 142.391 84.144 139.007 84.144C137.579 84.144 136.223 84.132 134.939 84.108C133.667 84.096 132.323 84.072 130.907 84.036L130.709 83.82V64.344L130.907 64.128C132.335 64.092 133.685 64.062 134.957 64.038C136.229 64.002 137.579 63.984 139.007 63.984C142.355 63.984 144.821 64.854 146.405 66.594C148.001 68.322 148.799 70.83 148.799 74.118ZM143.003 74.118C143.003 73.242 142.913 72.366 142.733 71.49C142.553 70.602 142.175 69.858 141.599 69.258C141.023 68.658 140.159 68.358 139.007 68.358C138.479 68.358 138.023 68.358 137.639 68.358C137.267 68.346 136.835 68.334 136.343 68.322V79.842C136.859 79.842 137.297 79.836 137.657 79.824C138.029 79.812 138.479 79.806 139.007 79.806C140.159 79.806 141.023 79.512 141.599 78.924C142.175 78.324 142.553 77.586 142.733 76.71C142.913 75.834 143.003 74.97 143.003 74.118ZM151.083 74.118C151.083 70.902 151.911 68.352 153.567 66.468C155.235 64.572 157.665 63.624 160.857 63.624C164.097 63.624 166.539 64.566 168.183 66.45C169.839 68.322 170.667 70.878 170.667 74.118C170.667 77.358 169.839 79.908 168.183 81.768C166.527 83.616 164.085 84.54 160.857 84.54C157.617 84.54 155.175 83.604 153.531 81.732C151.899 79.86 151.083 77.322 151.083 74.118ZM156.897 74.118C156.897 74.802 156.939 75.51 157.023 76.242C157.119 76.962 157.299 77.634 157.563 78.258C157.839 78.882 158.241 79.392 158.769 79.788C159.297 80.172 159.999 80.364 160.875 80.364C161.751 80.364 162.453 80.172 162.981 79.788C163.509 79.392 163.905 78.882 164.169 78.258C164.445 77.634 164.625 76.962 164.709 76.242C164.805 75.51 164.853 74.802 164.853 74.118C164.853 73.422 164.805 72.708 164.709 71.976C164.625 71.232 164.445 70.548 164.169 69.924C163.905 69.288 163.509 68.778 162.981 68.394C162.453 67.998 161.751 67.8 160.875 67.8C159.999 67.8 159.297 67.998 158.769 68.394C158.241 68.778 157.839 69.288 157.563 69.924C157.299 70.548 157.119 71.232 157.023 71.976C156.939 72.708 156.897 73.422 156.897 74.118Z" fill="#364760"/>
</svg>
