<svg width="282" height="61" viewBox="0 0 282 61" fill="none" xmlns="http://www.w3.org/2000/svg">
<rect width="282" height="61" rx="20" fill="#1EBCBC"/>
<g filter="url(#filter0_d)">
<path d="M62.6614 28.0835C62.684 27.1467 62.5881 26.2663 62.3736 25.4424C62.1705 24.6072 61.7924 23.9356 61.2393 23.4277C60.6976 22.9085 59.9301 22.6489 58.9368 22.6489C57.4808 22.6489 56.4425 23.3261 55.8217 24.6805C55.2122 26.0237 54.9075 27.9819 54.9075 30.5553C54.9075 32.9593 55.3081 34.7652 56.1095 35.9729C56.9221 37.1806 58.0677 37.7844 59.5463 37.7844C60.7201 37.7844 61.7754 37.5361 62.7122 37.0395C63.6603 36.5429 64.5238 36.0011 65.3025 35.4142C65.833 35.7754 66.3466 36.2889 66.8432 36.9548C67.3511 37.6208 67.6671 38.2697 67.7913 38.9018C67.1366 39.5451 66.324 40.1433 65.3533 40.6964C64.394 41.2381 63.333 41.6727 62.1705 42C61.0079 42.3386 59.8003 42.5079 58.5474 42.5079C56.7754 42.5079 55.2856 42.1637 54.0779 41.4752C52.8815 40.7754 51.9278 39.8499 51.2167 38.6986C50.5057 37.5361 49.9921 36.2494 49.6761 34.8386C49.3713 33.4165 49.219 31.9774 49.219 30.5214C49.219 27.6884 49.6648 25.3747 50.5564 23.5801C51.4594 21.7855 52.6614 20.4649 54.1625 19.6184C55.6637 18.7719 57.3172 18.3487 59.1231 18.3487C60.8725 18.3487 62.3962 18.6591 63.6942 19.2798C65.0034 19.9006 66.0136 20.7415 66.7247 21.8024C67.447 22.8634 67.8082 24.0598 67.8082 25.3916C67.8082 26.4413 67.5317 27.2031 66.9786 27.6772C66.4368 28.1399 65.6806 28.3713 64.71 28.3713C64.3149 28.3713 63.9538 28.3431 63.6265 28.2866C63.3104 28.2302 62.9888 28.1625 62.6614 28.0835ZM69.6872 30.4198C69.6872 28.0045 70.0483 25.8939 70.7707 24.088C71.5043 22.2821 72.6161 20.8769 74.1059 19.8724C75.5958 18.8679 77.4806 18.3656 79.7605 18.3656C82.0518 18.3656 83.9423 18.8735 85.4321 19.8893C86.922 20.8938 88.0281 22.3047 88.7504 24.1218C89.4728 25.9277 89.8339 28.027 89.8339 30.4198C89.8339 32.8465 89.4671 34.9684 88.7335 36.7855C87.9999 38.5914 86.8881 39.9966 85.3983 41.0011C83.9197 42.0056 82.0405 42.5079 79.7605 42.5079C77.4581 42.5079 75.5619 42 74.072 40.9842C72.5935 39.9684 71.493 38.5576 70.7707 36.7517C70.0483 34.9345 69.6872 32.8239 69.6872 30.4198ZM75.3418 30.4198C75.3418 31.3115 75.3869 32.2201 75.4772 33.1456C75.5788 34.0711 75.7763 34.9289 76.0698 35.7189C76.3745 36.509 76.8204 37.1467 77.4073 37.632C77.9942 38.1061 78.7786 38.3431 79.7605 38.3431C80.7312 38.3431 81.51 38.1061 82.0969 37.632C82.6838 37.1467 83.124 36.509 83.4174 35.7189C83.7222 34.9289 83.9197 34.0711 84.01 33.1456C84.1116 32.2201 84.1624 31.3115 84.1624 30.4198C84.1624 29.5282 84.1116 28.6196 84.01 27.6941C83.9197 26.7686 83.7222 25.9164 83.4174 25.1376C83.124 24.3589 82.6838 23.7325 82.0969 23.2584C81.51 22.7731 80.7312 22.5304 79.7605 22.5304C78.7786 22.5304 77.9942 22.7731 77.4073 23.2584C76.8204 23.7325 76.3745 24.3589 76.0698 25.1376C75.7763 25.9164 75.5788 26.7686 75.4772 27.6941C75.3869 28.6196 75.3418 29.5282 75.3418 30.4198ZM100.246 29.8781C99.874 29.009 99.5241 28.1568 99.1968 27.3216C98.8695 26.4864 98.5873 25.7471 98.3503 25.1038L98.2149 25.1546C98.3052 26.1139 98.3785 27.2031 98.4349 28.4221C98.5027 29.6298 98.5535 30.8374 98.5873 32.0451C98.6212 33.2528 98.6381 34.325 98.6381 35.2618V42C98.1979 42.079 97.7634 42.1298 97.3345 42.1524C96.9056 42.1862 96.5219 42.2032 96.1832 42.2032C95.8559 42.2032 95.444 42.1862 94.9474 42.1524C94.462 42.1298 94.0106 42.079 93.5929 42V18.9751C94.0106 18.8735 94.5636 18.8002 95.2521 18.755C95.9406 18.6986 96.4541 18.6704 96.7927 18.6704C97.1426 18.6704 97.6054 18.6873 98.181 18.7212C98.7566 18.7437 99.3435 18.7945 99.9417 18.8735L105.156 30.9616C105.585 31.9548 105.98 32.9029 106.341 33.8058C106.714 34.7088 107.024 35.4706 107.272 36.0914L107.408 36.0406C107.318 34.991 107.239 33.8397 107.171 32.5869C107.114 31.3341 107.069 30.1264 107.035 28.9638C107.002 27.8013 106.985 26.8307 106.985 26.0519V21.9209C106.985 20.7133 107.227 19.8668 107.713 19.3814C108.209 18.8961 108.977 18.6534 110.015 18.6534H111.776L111.996 18.8735V41.8984C111.567 42 111.003 42.0734 110.303 42.1185C109.614 42.1749 109.09 42.2032 108.728 42.2032C108.379 42.2032 107.916 42.1862 107.34 42.1524C106.765 42.1298 106.183 42.079 105.596 42L100.246 29.8781ZM115.104 39.9853C115.172 39.2291 115.403 38.4785 115.798 37.7336C116.204 36.9887 116.673 36.3905 117.203 35.939C118.151 36.5147 119.229 37.0282 120.437 37.4797C121.645 37.9311 122.852 38.1569 124.06 38.1569C125.042 38.1569 125.747 37.9199 126.176 37.4458C126.605 36.9718 126.82 36.4639 126.82 35.9221C126.82 35.5496 126.701 35.132 126.464 34.6693C126.227 34.2065 125.634 33.7776 124.686 33.3826L120.606 31.6896C119.207 31.1027 118.05 30.3183 117.136 29.3363C116.221 28.3544 115.764 27.0564 115.764 25.4424C115.764 24.0316 116.131 22.7957 116.865 21.7347C117.598 20.6738 118.586 19.8498 119.827 19.2629C121.08 18.6647 122.474 18.3656 124.009 18.3656C125.601 18.3656 127.102 18.5801 128.513 19.009C129.923 19.4266 131.069 19.8611 131.949 20.3126C131.904 21.0914 131.718 21.8419 131.391 22.5643C131.075 23.2753 130.651 23.8735 130.121 24.3589C129.263 23.9525 128.259 23.5801 127.107 23.2415C125.956 22.8916 124.923 22.7166 124.009 22.7166C123.038 22.7166 122.344 22.9367 121.927 23.3769C121.52 23.8171 121.317 24.2629 121.317 24.7144C121.317 25.1433 121.458 25.527 121.741 25.8656C122.034 26.2042 122.553 26.5316 123.298 26.8476L127.463 28.5575C129.099 29.2347 130.358 30.1546 131.238 31.3171C132.13 32.4797 132.576 33.7889 132.576 35.2449C132.576 36.6106 132.243 37.8408 131.577 38.9357C130.922 40.0305 129.935 40.8995 128.614 41.5429C127.294 42.1862 125.646 42.5079 123.671 42.5079C122.305 42.5079 120.849 42.2935 119.303 41.8646C117.756 41.4244 116.357 40.798 115.104 39.9853ZM153.997 33.4672C153.997 36.3341 153.201 38.5576 151.61 40.1377C150.03 41.7178 147.772 42.5079 144.838 42.5079C141.915 42.5079 139.657 41.7178 138.066 40.1377C136.474 38.5576 135.679 36.3341 135.679 33.4672V18.8735L135.916 18.6534H137.897C138.935 18.6534 139.731 18.9243 140.284 19.4661C140.837 19.9966 141.113 20.8656 141.113 22.0733V33.518C141.113 35.0643 141.395 36.2325 141.96 37.0226C142.524 37.8013 143.483 38.1907 144.838 38.1907C146.204 38.1907 147.169 37.8013 147.733 37.0226C148.297 36.2325 148.579 35.0643 148.579 33.518V18.8735C149.02 18.7945 149.477 18.7437 149.951 18.7212C150.436 18.6873 150.859 18.6704 151.221 18.6704C151.548 18.6704 151.982 18.6873 152.524 18.7212C153.077 18.7437 153.568 18.7945 153.997 18.8735V33.4672ZM173.275 37.4289C173.275 39.1445 172.992 40.3521 172.428 41.0519C171.875 41.7517 170.927 42.1016 169.584 42.1016H161.948C160.978 42.1016 160.21 41.8194 159.646 41.2551C159.082 40.6907 158.799 39.9176 158.799 38.9357V18.8735L159.036 18.6534H161.017C162.056 18.6534 162.851 18.9243 163.404 19.4661C163.957 19.9966 164.234 20.8656 164.234 22.0733V37.5474C165.34 37.4684 166.395 37.4289 167.4 37.4289H173.275ZM176.52 25.8487C176.52 25.386 176.526 24.974 176.537 24.6128C176.548 24.2404 176.554 23.8171 176.554 23.3431H176.52C176.272 23.3431 175.916 23.3487 175.454 23.36C174.991 23.3713 174.635 23.3769 174.387 23.3769H170.882C170.803 22.9706 170.753 22.5756 170.73 22.1918C170.707 21.7968 170.696 21.4469 170.696 21.1422C170.696 20.8261 170.707 20.4706 170.73 20.0756C170.753 19.6805 170.803 19.2798 170.882 18.8735H187.643C187.722 19.1557 187.784 19.4886 187.829 19.8724C187.886 20.2449 187.914 20.606 187.914 20.9559C187.914 21.8363 187.683 22.4627 187.22 22.8352C186.768 23.1963 186.057 23.3769 185.087 23.3769H184.088C183.84 23.3769 183.484 23.3713 183.021 23.36C182.559 23.3487 182.203 23.3431 181.955 23.3431H181.921C181.921 23.8171 181.926 24.2404 181.938 24.6128C181.949 24.974 181.955 25.386 181.955 25.8487V42C181.492 42.079 181.018 42.1298 180.533 42.1524C180.047 42.1862 179.618 42.2032 179.246 42.2032C178.862 42.2032 178.428 42.1862 177.942 42.1524C177.457 42.1298 176.983 42.079 176.52 42V25.8487ZM193.999 37.158C193.818 37.158 193.604 37.1524 193.355 37.1411C193.118 37.1298 192.887 37.1241 192.661 37.1241L191.222 42.0339C190.883 42.1129 190.517 42.1637 190.122 42.1862C189.738 42.2201 189.337 42.237 188.92 42.237C188.513 42.237 188.05 42.2032 187.531 42.1354C187.023 42.079 186.617 41.9887 186.312 41.8646L186.109 41.5767L193.592 18.8735C194.021 18.8058 194.535 18.755 195.133 18.7212C195.742 18.6873 196.273 18.6704 196.724 18.6704C197.153 18.6704 197.672 18.6929 198.282 18.7381C198.891 18.7719 199.416 18.8284 199.856 18.9074L207.136 41.6445C206.764 41.8589 206.279 42.0226 205.68 42.1354C205.093 42.2483 204.546 42.3047 204.038 42.3047C203.18 42.3047 202.509 42.1072 202.023 41.7122C201.538 41.3059 201.132 40.5214 200.804 39.3589L200.161 37.1241C199.947 37.1241 199.715 37.1298 199.467 37.1411C199.219 37.1524 199.004 37.158 198.824 37.158H193.999ZM194.676 30.2675L193.914 32.8916C194.128 32.8916 194.36 32.8916 194.608 32.8916C194.856 32.8803 195.076 32.8747 195.268 32.8747H197.74C197.909 32.8747 198.101 32.8803 198.316 32.8916C198.541 32.8916 198.762 32.8916 198.976 32.8916L198.383 30.7754C198.124 29.8273 197.819 28.7099 197.469 27.4232C197.119 26.1365 196.803 24.9345 196.521 23.8171H196.318C196.205 24.4492 196.053 25.1489 195.861 25.9164C195.669 26.6839 195.466 27.4514 195.251 28.2189C195.048 28.9751 194.856 29.658 194.676 30.2675ZM226.579 26.0349C226.579 27.1185 226.37 28.0835 225.952 28.93C225.535 29.7652 225.01 30.465 224.378 31.0293C223.746 31.5824 223.108 31.983 222.465 32.2313C223.097 32.4571 223.622 32.8465 224.039 33.3995C224.468 33.9526 224.812 34.6016 225.072 35.3465L226.088 38.2077C226.471 39.3025 227.03 40.1377 227.764 40.7133C227.414 41.1648 226.906 41.5429 226.24 41.8476C225.574 42.1524 224.88 42.3047 224.158 42.3047C223.187 42.3047 222.482 42.0451 222.041 41.526C221.601 40.9955 221.201 40.2111 220.839 39.1727L219.62 35.6343C219.429 35.0474 219.129 34.5508 218.723 34.1444C218.317 33.7268 217.662 33.518 216.759 33.518H215.354V42C214.903 42.079 214.434 42.1298 213.949 42.1524C213.463 42.1862 213.035 42.2032 212.662 42.2032C212.335 42.2032 211.917 42.1862 211.409 42.1524C210.901 42.1298 210.427 42.079 209.987 42V19.0428L210.224 18.8058C211.669 18.7719 213.057 18.7437 214.389 18.7212C215.732 18.6873 217.047 18.6704 218.334 18.6704C219.903 18.6704 221.308 18.93 222.549 19.4491C223.802 19.9683 224.784 20.7697 225.495 21.8532C226.217 22.9367 226.579 24.3306 226.579 26.0349ZM215.354 22.7336V29.3702C215.884 29.3476 216.381 29.3307 216.844 29.3194C217.318 29.3081 217.662 29.3024 217.877 29.3024C218.734 29.3024 219.389 29.1501 219.84 28.8453C220.303 28.5293 220.619 28.123 220.789 27.6264C220.969 27.1298 221.059 26.5993 221.059 26.0349C221.059 25.448 220.969 24.9063 220.789 24.4097C220.619 23.913 220.303 23.518 219.84 23.2245C219.389 22.9198 218.734 22.7674 217.877 22.7674C217.527 22.7674 217.137 22.7674 216.708 22.7674C216.291 22.7674 215.839 22.7562 215.354 22.7336Z" fill="white" fill-opacity="0.87"/>
</g>
<defs>
<filter id="filter0_d" x="45.219" y="18.3486" width="186.545" height="32.1592" filterUnits="userSpaceOnUse" color-interpolation-filters="sRGB">
<feFlood flood-opacity="0" result="BackgroundImageFix"/>
<feColorMatrix in="SourceAlpha" type="matrix" values="0 0 0 0 0 0 0 0 0 0 0 0 0 0 0 0 0 0 127 0"/>
<feOffset dy="4"/>
<feGaussianBlur stdDeviation="2"/>
<feColorMatrix type="matrix" values="0 0 0 0 0 0 0 0 0 0 0 0 0 0 0 0 0 0 0.25 0"/>
<feBlend mode="normal" in2="BackgroundImageFix" result="effect1_dropShadow"/>
<feBlend mode="normal" in="SourceGraphic" in2="effect1_dropShadow" result="shape"/>
</filter>
</defs>
</svg>
