<svg width="141" height="27" viewBox="0 0 141 27" fill="none" xmlns="http://www.w3.org/2000/svg">
<path d="M14.5919 11.204C14.6159 10.208 14.5139 9.272 14.2859 8.396C14.0699 7.508 13.6679 6.794 13.0799 6.254C12.5039 5.702 11.6879 5.426 10.6319 5.426C9.08391 5.426 7.97991 6.146 7.31991 7.586C6.67191 9.014 6.34791 11.096 6.34791 13.832C6.34791 16.388 6.77391 18.308 7.62591 19.592C8.48991 20.876 9.70791 21.518 11.2799 21.518C12.5279 21.518 13.6499 21.254 14.6459 20.726C15.6539 20.198 16.5719 19.622 17.3999 18.998C17.9639 19.382 18.5099 19.928 19.0379 20.636C19.5779 21.344 19.9139 22.034 20.0459 22.706C19.3499 23.39 18.4859 24.026 17.4539 24.614C16.4339 25.19 15.3059 25.652 14.0699 26C12.8339 26.36 11.5499 26.54 10.2179 26.54C8.33391 26.54 6.74991 26.174 5.46591 25.442C4.19391 24.698 3.17991 23.714 2.42391 22.49C1.66791 21.254 1.12191 19.886 0.785906 18.386C0.461906 16.874 0.299906 15.344 0.299906 13.796C0.299906 10.784 0.773906 8.324 1.72191 6.416C2.68191 4.508 3.95991 3.104 5.55591 2.204C7.15191 1.304 8.90991 0.853999 10.8299 0.853999C12.6899 0.853999 14.3099 1.184 15.6899 1.844C17.0819 2.504 18.1559 3.398 18.9119 4.526C19.6799 5.654 20.0639 6.926 20.0639 8.342C20.0639 9.458 19.7699 10.268 19.1819 10.772C18.6059 11.264 17.8019 11.51 16.7699 11.51C16.3499 11.51 15.9659 11.48 15.6179 11.42C15.2819 11.36 14.9399 11.288 14.5919 11.204ZM40.7422 18.566C40.7422 21.05 39.9983 23 38.5103 24.416C37.0343 25.832 34.8443 26.54 31.9403 26.54C29.0363 26.54 26.8403 25.832 25.3523 24.416C23.8763 23 23.1383 21.05 23.1383 18.566V6.164L23.3543 5.948H25.4062C26.4983 5.948 27.3383 6.224 27.9263 6.776C28.5263 7.328 28.8263 8.258 28.8263 9.566V18.548C28.8263 19.64 29.0543 20.498 29.5103 21.122C29.9663 21.746 30.7763 22.058 31.9403 22.058C33.1163 22.058 33.9263 21.746 34.3703 21.122C34.8143 20.498 35.0363 19.64 35.0363 18.548V6.164C35.5163 6.068 36.0083 6.008 36.5123 5.984C37.0163 5.96 37.4543 5.948 37.8263 5.948C38.1623 5.948 38.6183 5.966 39.1943 6.002C39.7703 6.026 40.2863 6.086 40.7422 6.182V18.566ZM60.6784 21.482C60.6784 23.198 60.4084 24.392 59.8684 25.064C59.3404 25.736 58.4404 26.072 57.1684 26.072H48.8704C47.8504 26.072 47.0464 25.784 46.4584 25.208C45.8704 24.62 45.5764 23.834 45.5764 22.85V6.362L45.7744 6.164H60.0124C60.0964 6.572 60.1444 6.962 60.1564 7.334C60.1684 7.706 60.1744 8.06 60.1744 8.396C60.1744 8.72 60.1384 9.086 60.0664 9.494C60.0064 9.902 59.8984 10.316 59.7424 10.736H53.4424C52.9384 10.736 52.1764 10.73 51.1564 10.718C51.1684 11.09 51.1744 11.408 51.1744 11.672C51.1864 11.936 51.1924 12.254 51.1924 12.626V13.814C52.1884 13.802 52.9384 13.796 53.4424 13.796H58.0504C58.1704 14.12 58.2484 14.492 58.2844 14.912C58.3324 15.32 58.3564 15.668 58.3564 15.956C58.3564 16.292 58.3324 16.67 58.2844 17.09C58.2484 17.498 58.1704 17.87 58.0504 18.206H53.4424C53.2144 18.206 52.8964 18.206 52.4884 18.206C52.0804 18.206 51.6484 18.206 51.1924 18.206V19.376C51.1924 19.82 51.1864 20.186 51.1744 20.474C51.1624 20.762 51.1564 21.122 51.1564 21.554V21.59C51.5764 21.566 51.9664 21.542 52.3264 21.518C52.6864 21.494 53.1244 21.482 53.6404 21.482H60.6784ZM80.7599 12.194C80.7599 13.118 80.5499 13.94 80.1299 14.66C79.7099 15.38 79.1819 15.974 78.5459 16.442C77.9219 16.91 77.2979 17.21 76.6739 17.342C77.3219 17.558 77.8559 17.888 78.2759 18.332C78.7079 18.776 79.0799 19.346 79.3919 20.042L80.3279 22.184C80.5439 22.676 80.7899 23.132 81.0659 23.552C81.3419 23.96 81.6479 24.308 81.9839 24.596C81.6359 25.028 81.1139 25.43 80.4179 25.802C79.7219 26.162 78.9659 26.342 78.1499 26.342C77.3459 26.342 76.6919 26.15 76.1879 25.766C75.6959 25.37 75.2639 24.74 74.8919 23.876L73.3079 20.24C73.0559 19.652 72.7439 19.298 72.3719 19.178C71.9999 19.058 71.5199 18.998 70.9319 18.998H70.2299V26C69.7499 26.084 69.2519 26.138 68.7359 26.162C68.2319 26.198 67.7999 26.216 67.4399 26.216C67.1039 26.216 66.6599 26.198 66.1079 26.162C65.5559 26.138 65.0519 26.084 64.5959 26V6.344L64.7939 6.128C66.2459 6.092 67.6079 6.062 68.8799 6.038C70.1639 6.002 71.4419 5.984 72.7139 5.984C74.1539 5.984 75.4859 6.176 76.7099 6.56C77.9339 6.932 78.9119 7.574 79.6439 8.486C80.3879 9.386 80.7599 10.622 80.7599 12.194ZM70.2299 10.052V14.714C70.6499 14.702 71.0339 14.696 71.3819 14.696C71.7419 14.684 72.0059 14.678 72.1739 14.678C73.2539 14.678 73.9859 14.444 74.3699 13.976C74.7539 13.508 74.9459 12.962 74.9459 12.338C74.9459 11.726 74.7539 11.198 74.3699 10.754C73.9859 10.31 73.3439 10.088 72.4439 10.088C72.0119 10.088 71.6399 10.082 71.3279 10.07C71.0159 10.058 70.6499 10.052 70.2299 10.052ZM100.86 12.968C100.86 14.528 100.506 15.824 99.798 16.856C99.102 17.876 98.142 18.638 96.918 19.142C95.694 19.634 94.302 19.88 92.742 19.88H90.78V26C90.3 26.084 89.808 26.138 89.304 26.162C88.8 26.198 88.368 26.216 88.008 26.216C87.672 26.216 87.216 26.198 86.64 26.162C86.064 26.138 85.548 26.084 85.092 26V6.344L85.29 6.128C86.262 6.104 87.432 6.074 88.8 6.038C90.168 6.002 91.482 5.984 92.742 5.984C94.314 5.984 95.712 6.224 96.936 6.704C98.16 7.184 99.12 7.94 99.816 8.972C100.512 10.004 100.86 11.336 100.86 12.968ZM90.78 10.196V15.704C91.104 15.692 91.398 15.686 91.662 15.686C91.926 15.674 92.124 15.668 92.256 15.668C93.048 15.668 93.642 15.524 94.038 15.236C94.446 14.936 94.716 14.576 94.848 14.156C94.98 13.724 95.046 13.316 95.046 12.932C95.046 12.572 94.98 12.182 94.848 11.762C94.716 11.342 94.446 10.982 94.038 10.682C93.642 10.382 93.048 10.232 92.256 10.232C91.956 10.232 91.74 10.232 91.608 10.232C91.476 10.22 91.2 10.208 90.78 10.196ZM102.864 16.118C102.864 12.902 103.692 10.352 105.348 8.468C107.016 6.572 109.446 5.624 112.638 5.624C115.878 5.624 118.32 6.566 119.964 8.45C121.62 10.322 122.448 12.878 122.448 16.118C122.448 19.358 121.62 21.908 119.964 23.768C118.308 25.616 115.866 26.54 112.638 26.54C109.398 26.54 106.956 25.604 105.312 23.732C103.68 21.86 102.864 19.322 102.864 16.118ZM108.678 16.118C108.678 16.802 108.72 17.51 108.804 18.242C108.9 18.962 109.08 19.634 109.344 20.258C109.62 20.882 110.022 21.392 110.55 21.788C111.078 22.172 111.78 22.364 112.656 22.364C113.532 22.364 114.234 22.172 114.762 21.788C115.29 21.392 115.686 20.882 115.95 20.258C116.226 19.634 116.406 18.962 116.49 18.242C116.586 17.51 116.634 16.802 116.634 16.118C116.634 15.422 116.586 14.708 116.49 13.976C116.406 13.232 116.226 12.548 115.95 11.924C115.686 11.288 115.29 10.778 114.762 10.394C114.234 9.998 113.532 9.8 112.656 9.8C111.78 9.8 111.078 9.998 110.55 10.394C110.022 10.778 109.62 11.288 109.344 11.924C109.08 12.548 108.9 13.232 108.804 13.976C108.72 14.708 108.678 15.422 108.678 16.118ZM133.525 23.552C133.525 23.336 133.555 23 133.615 22.544C133.687 22.088 133.801 21.698 133.957 21.374C134.317 21.17 134.755 21.008 135.271 20.888C135.799 20.768 136.303 20.708 136.783 20.708C137.251 20.708 137.749 20.768 138.277 20.888C138.805 21.008 139.249 21.17 139.609 21.374C139.765 21.698 139.873 22.088 139.933 22.544C139.993 23 140.023 23.336 140.023 23.552C140.023 23.768 139.993 24.104 139.933 24.56C139.873 25.016 139.765 25.406 139.609 25.73C139.249 25.946 138.805 26.108 138.277 26.216C137.749 26.324 137.251 26.378 136.783 26.378C136.303 26.378 135.799 26.324 135.271 26.216C134.755 26.108 134.317 25.946 133.957 25.73C133.801 25.406 133.687 25.016 133.615 24.56C133.555 24.104 133.525 23.768 133.525 23.552ZM133.525 12.428C133.525 12.212 133.555 11.876 133.615 11.42C133.687 10.964 133.801 10.574 133.957 10.25C134.317 10.046 134.755 9.884 135.271 9.764C135.799 9.644 136.303 9.584 136.783 9.584C137.251 9.584 137.749 9.644 138.277 9.764C138.805 9.884 139.249 10.046 139.609 10.25C139.765 10.574 139.873 10.964 139.933 11.42C139.993 11.876 140.023 12.212 140.023 12.428C140.023 12.644 139.993 12.98 139.933 13.436C139.873 13.892 139.765 14.282 139.609 14.606C139.249 14.822 138.805 14.984 138.277 15.092C137.749 15.2 137.251 15.254 136.783 15.254C136.303 15.254 135.799 15.2 135.271 15.092C134.755 14.984 134.317 14.822 133.957 14.606C133.801 14.282 133.687 13.892 133.615 13.436C133.555 12.98 133.525 12.644 133.525 12.428Z" fill="white" fill-opacity="0.87"/>
</svg>
