<svg width="171" height="50" viewBox="0 0 171 50" fill="none" xmlns="http://www.w3.org/2000/svg">
<rect width="171" height="42.7083" rx="10" fill="#1EBCBC"/>
<path d="M37.422 21.0297C37.422 23.4564 36.8543 25.272 35.719 26.4767C34.5837 27.6727 32.794 28.2707 30.35 28.2707C29.3187 28.2707 28.3393 28.262 27.412 28.2447C26.4933 28.236 25.5227 28.2187 24.5 28.1927L24.357 28.0367V13.9707L24.5 13.8147C25.5313 13.7887 26.5063 13.767 27.425 13.7497C28.3437 13.7237 29.3187 13.7107 30.35 13.7107C32.768 13.7107 34.549 14.339 35.693 15.5957C36.8457 16.8437 37.422 18.655 37.422 21.0297ZM33.236 21.0297C33.236 20.397 33.171 19.7644 33.041 19.1317C32.911 18.4904 32.638 17.953 32.222 17.5197C31.806 17.0864 31.182 16.8697 30.35 16.8697C29.9687 16.8697 29.6393 16.8697 29.362 16.8697C29.0933 16.861 28.7813 16.8524 28.426 16.8437V25.1637C28.7987 25.1637 29.115 25.1594 29.375 25.1507C29.6437 25.142 29.9687 25.1377 30.35 25.1377C31.182 25.1377 31.806 24.9254 32.222 24.5007C32.638 24.0674 32.911 23.5344 33.041 22.9017C33.171 22.269 33.236 21.645 33.236 21.0297ZM51.0316 24.9037C51.0316 26.143 50.8366 27.0054 50.4466 27.4907C50.0652 27.976 49.4152 28.2187 48.4966 28.2187H42.5036C41.7669 28.2187 41.1862 28.0107 40.7616 27.5947C40.3369 27.17 40.1246 26.6024 40.1246 25.8917V13.9837L40.2676 13.8407H50.5506C50.6112 14.1354 50.6459 14.417 50.6546 14.6857C50.6632 14.9544 50.6676 15.21 50.6676 15.4527C50.6676 15.6867 50.6416 15.951 50.5896 16.2457C50.5462 16.5404 50.4682 16.8394 50.3556 17.1427H45.8056C45.4416 17.1427 44.8912 17.1384 44.1546 17.1297C44.1632 17.3984 44.1676 17.628 44.1676 17.8187C44.1762 18.0094 44.1806 18.239 44.1806 18.5077V19.3657C44.8999 19.357 45.4416 19.3527 45.8056 19.3527H49.1336C49.2202 19.5867 49.2766 19.8554 49.3026 20.1587C49.3372 20.4534 49.3546 20.7047 49.3546 20.9127C49.3546 21.1554 49.3372 21.4284 49.3026 21.7317C49.2766 22.0264 49.2202 22.295 49.1336 22.5377H45.8056C45.6409 22.5377 45.4112 22.5377 45.1166 22.5377C44.8219 22.5377 44.5099 22.5377 44.1806 22.5377V23.3827C44.1806 23.7034 44.1762 23.9677 44.1676 24.1757C44.1589 24.3837 44.1546 24.6437 44.1546 24.9557V24.9817C44.4579 24.9644 44.7396 24.947 44.9996 24.9297C45.2596 24.9124 45.5759 24.9037 45.9486 24.9037H51.0316ZM52.4699 27.0877C52.4699 26.7584 52.5349 26.3944 52.6649 25.9957C52.7949 25.5884 52.9726 25.2114 53.1979 24.8647C53.4232 24.518 53.6702 24.258 53.9389 24.0847C54.5802 24.4314 55.2952 24.7304 56.0839 24.9817C56.8726 25.2244 57.6439 25.3457 58.3979 25.3457C58.8832 25.3457 59.2819 25.246 59.5939 25.0467C59.9146 24.8474 60.0749 24.5657 60.0749 24.2017C60.0749 23.9677 59.9839 23.7554 59.8019 23.5647C59.6199 23.3654 59.3036 23.1834 58.8529 23.0187L56.6949 22.1737C56.0276 21.931 55.4036 21.6277 54.8229 21.2637C54.2422 20.8997 53.7742 20.4534 53.4189 19.9247C53.0636 19.396 52.8859 18.7634 52.8859 18.0267C52.8859 16.6747 53.4059 15.574 54.4459 14.7247C55.4859 13.8754 56.8856 13.4507 58.6449 13.4507C59.6416 13.4507 60.6296 13.5677 61.6089 13.8017C62.5969 14.027 63.4246 14.287 64.0919 14.5817C64.0919 15.171 63.9706 15.7517 63.7279 16.3237C63.4852 16.8957 63.1516 17.3464 62.7269 17.6757C62.0856 17.3897 61.3879 17.1514 60.6339 16.9607C59.8799 16.7614 59.1996 16.6617 58.5929 16.6617C58.1422 16.6617 57.7956 16.757 57.5529 16.9477C57.3189 17.1384 57.2019 17.368 57.2019 17.6367C57.2019 17.888 57.3189 18.0787 57.5529 18.2087C57.7869 18.3387 58.0772 18.4687 58.4239 18.5987L60.5689 19.4177C61.7649 19.851 62.7139 20.449 63.4159 21.2117C64.1266 21.9657 64.4819 22.8974 64.4819 24.0067C64.4819 24.986 64.2176 25.8137 63.6889 26.4897C63.1689 27.1657 62.4539 27.677 61.5439 28.0237C60.6426 28.3704 59.6242 28.548 58.4889 28.5567C57.1369 28.5567 55.9322 28.4007 54.8749 28.0887C53.8262 27.7767 53.0246 27.443 52.4699 27.0877ZM75.0956 20.3277C75.0956 19.227 74.9483 18.343 74.6536 17.6757C74.3589 16.9997 73.7653 16.6617 72.8726 16.6617C71.9453 16.6617 71.2866 17.043 70.8966 17.8057C70.5066 18.5684 70.3116 19.6647 70.3116 21.0947C70.3116 22.1867 70.4503 23.0274 70.7276 23.6167C71.0136 24.1974 71.3776 24.6004 71.8196 24.8257C72.2616 25.051 72.7296 25.1637 73.2236 25.1637C73.8649 25.1637 74.5063 25.025 75.1476 24.7477C75.7976 24.4617 76.3783 24.128 76.8896 23.7467C77.1669 23.8854 77.4356 24.1064 77.6956 24.4097C77.9556 24.713 78.1809 25.038 78.3716 25.3847C78.5623 25.7314 78.6836 26.0477 78.7356 26.3337C78.0163 26.949 77.1409 27.4734 76.1096 27.9067C75.0869 28.34 73.9213 28.5567 72.6126 28.5567C71.3559 28.5567 70.3073 28.3357 69.4666 27.8937C68.6346 27.4517 67.9716 26.871 67.4776 26.1517C66.9836 25.4237 66.6326 24.6177 66.4246 23.7337C66.2166 22.8497 66.1126 21.9614 66.1126 21.0687C66.1126 19.292 66.4333 17.8447 67.0746 16.7267C67.7246 15.6 68.5739 14.7724 69.6226 14.2437C70.6799 13.715 71.8109 13.4507 73.0156 13.4507C74.3676 13.4507 75.4813 13.689 76.3566 14.1657C77.2319 14.6424 77.8819 15.2447 78.3066 15.9727C78.7313 16.7007 78.9436 17.4504 78.9436 18.2217C78.9436 19.7037 78.1116 20.4447 76.4476 20.4447C76.2483 20.4447 76.0316 20.4317 75.7976 20.4057C75.5636 20.3797 75.3296 20.3537 75.0956 20.3277ZM85.2275 25.6577C85.0888 25.6577 84.9545 25.6577 84.8245 25.6577C84.6945 25.649 84.5645 25.6404 84.4345 25.6317L83.6285 28.1667C83.3771 28.2274 83.1041 28.2707 82.8095 28.2967C82.5148 28.3314 82.2071 28.3487 81.8865 28.3487C81.5398 28.3487 81.1888 28.3227 80.8335 28.2707C80.4868 28.2187 80.2008 28.145 79.9755 28.0497L79.8325 27.8287L84.8895 13.8407C85.3401 13.7714 85.7735 13.728 86.1895 13.7107C86.6141 13.6934 86.9998 13.6847 87.3465 13.6847C87.6671 13.6847 88.0138 13.6934 88.3865 13.7107C88.7591 13.728 89.1795 13.7714 89.6475 13.8407L94.5615 27.9717C94.2581 28.1104 93.8725 28.2144 93.4045 28.2837C92.9365 28.3617 92.5595 28.4007 92.2735 28.4007C91.7968 28.4007 91.3375 28.3097 90.8955 28.1277C90.4535 27.9457 90.1198 27.4647 89.8945 26.6847L89.5695 25.6317C89.4308 25.6404 89.2965 25.649 89.1665 25.6577C89.0365 25.6577 88.8978 25.6577 88.7505 25.6577H85.2275ZM85.7475 21.5497L85.4615 22.4467C85.5915 22.438 85.7215 22.4337 85.8515 22.4337C85.9815 22.425 86.1158 22.4207 86.2545 22.4207H87.8795C88.0095 22.4207 88.1265 22.425 88.2305 22.4337C88.3431 22.4337 88.4558 22.438 88.5685 22.4467L88.2955 21.5627C88.0961 20.878 87.8968 20.1154 87.6975 19.2747C87.4981 18.434 87.3161 17.6714 87.1515 16.9867H86.9955C86.8135 17.6454 86.6098 18.3994 86.3845 19.2487C86.1678 20.098 85.9555 20.865 85.7475 21.5497ZM108.217 18.1957C108.217 18.863 108.065 19.4567 107.762 19.9767C107.458 20.4967 107.077 20.9257 106.618 21.2637C106.167 21.6017 105.716 21.8184 105.266 21.9137C105.734 22.0697 106.119 22.308 106.423 22.6287C106.735 22.9494 107.003 23.361 107.229 23.8637L107.905 25.4107C108.061 25.766 108.238 26.0954 108.438 26.3987C108.637 26.6934 108.858 26.9447 109.101 27.1527C108.849 27.4647 108.472 27.755 107.97 28.0237C107.467 28.2837 106.921 28.4137 106.332 28.4137C105.751 28.4137 105.279 28.275 104.915 27.9977C104.559 27.7117 104.247 27.2567 103.979 26.6327L102.835 24.0067C102.653 23.582 102.427 23.3264 102.159 23.2397C101.89 23.153 101.543 23.1097 101.119 23.1097H100.612V28.1667C100.265 28.2274 99.9052 28.2664 99.5325 28.2837C99.1685 28.3097 98.8565 28.3227 98.5965 28.3227C98.3539 28.3227 98.0332 28.3097 97.6345 28.2837C97.2359 28.2664 96.8719 28.2274 96.5425 28.1667V13.9707L96.6855 13.8147C97.7342 13.7887 98.7179 13.767 99.6365 13.7497C100.564 13.7237 101.487 13.7107 102.406 13.7107C103.446 13.7107 104.408 13.8494 105.292 14.1267C106.176 14.3954 106.882 14.859 107.411 15.5177C107.948 16.1677 108.217 17.0604 108.217 18.1957ZM100.612 16.6487V20.0157C100.915 20.007 101.192 20.0027 101.444 20.0027C101.704 19.994 101.894 19.9897 102.016 19.9897C102.796 19.9897 103.324 19.8207 103.602 19.4827C103.879 19.1447 104.018 18.7504 104.018 18.2997C104.018 17.8577 103.879 17.4764 103.602 17.1557C103.324 16.835 102.861 16.6747 102.211 16.6747C101.899 16.6747 101.63 16.6704 101.405 16.6617C101.179 16.653 100.915 16.6487 100.612 16.6487ZM119.617 24.3707C119.617 23.9374 119.626 23.504 119.643 23.0707C119.487 23.0707 119.327 23.0707 119.162 23.0707C119.006 23.0707 118.854 23.0707 118.707 23.0707C118.066 23.0707 117.598 22.9364 117.303 22.6677C117.008 22.3904 116.861 21.9527 116.861 21.3547C116.861 21.1207 116.878 20.8477 116.913 20.5357C116.956 20.2237 117.008 19.9854 117.069 19.8207C117.693 19.7947 118.313 19.7817 118.928 19.7817C119.543 19.773 120.167 19.7687 120.8 19.7687C121.797 19.7687 122.477 19.9594 122.841 20.3407C123.214 20.722 123.4 21.2637 123.4 21.9657V27.7117C122.941 27.859 122.356 27.9977 121.645 28.1277C120.934 28.2577 120.198 28.3617 119.435 28.4397C118.672 28.5177 117.979 28.5567 117.355 28.5567C115.63 28.5567 114.235 28.2404 113.169 27.6077C112.112 26.975 111.34 26.1084 110.855 25.0077C110.378 23.8984 110.14 22.6417 110.14 21.2377C110.14 19.383 110.482 17.888 111.167 16.7527C111.86 15.6087 112.779 14.7724 113.923 14.2437C115.067 13.715 116.319 13.4507 117.68 13.4507C118.703 13.4507 119.686 13.5547 120.631 13.7627C121.584 13.962 122.425 14.2307 123.153 14.5687C123.11 15.132 122.941 15.7214 122.646 16.3367C122.36 16.9434 122.035 17.407 121.671 17.7277C120.345 17.069 119.084 16.7397 117.888 16.7397C115.522 16.7397 114.339 18.2217 114.339 21.1857C114.339 22.659 114.642 23.7467 115.249 24.4487C115.856 25.1507 116.787 25.5017 118.044 25.5017C118.304 25.5017 118.568 25.493 118.837 25.4757C119.106 25.4497 119.366 25.415 119.617 25.3717V24.3707ZM130.143 25.6577C130.005 25.6577 129.87 25.6577 129.74 25.6577C129.61 25.649 129.48 25.6404 129.35 25.6317L128.544 28.1667C128.293 28.2274 128.02 28.2707 127.725 28.2967C127.431 28.3314 127.123 28.3487 126.802 28.3487C126.456 28.3487 126.105 28.3227 125.749 28.2707C125.403 28.2187 125.117 28.145 124.891 28.0497L124.748 27.8287L129.805 13.8407C130.256 13.7714 130.689 13.728 131.105 13.7107C131.53 13.6934 131.916 13.6847 132.262 13.6847C132.583 13.6847 132.93 13.6934 133.302 13.7107C133.675 13.728 134.095 13.7714 134.563 13.8407L139.477 27.9717C139.174 28.1104 138.788 28.2144 138.32 28.2837C137.852 28.3617 137.475 28.4007 137.189 28.4007C136.713 28.4007 136.253 28.3097 135.811 28.1277C135.369 27.9457 135.036 27.4647 134.81 26.6847L134.485 25.6317C134.347 25.6404 134.212 25.649 134.082 25.6577C133.952 25.6577 133.814 25.6577 133.666 25.6577H130.143ZM130.663 21.5497L130.377 22.4467C130.507 22.438 130.637 22.4337 130.767 22.4337C130.897 22.425 131.032 22.4207 131.17 22.4207H132.795C132.925 22.4207 133.042 22.425 133.146 22.4337C133.259 22.4337 133.372 22.438 133.484 22.4467L133.211 21.5627C133.012 20.878 132.813 20.1154 132.613 19.2747C132.414 18.434 132.232 17.6714 132.067 16.9867H131.911C131.729 17.6454 131.526 18.3994 131.3 19.2487C131.084 20.098 130.871 20.865 130.663 21.5497ZM153.133 18.1957C153.133 18.863 152.981 19.4567 152.678 19.9767C152.374 20.4967 151.993 20.9257 151.534 21.2637C151.083 21.6017 150.632 21.8184 150.182 21.9137C150.65 22.0697 151.035 22.308 151.339 22.6287C151.651 22.9494 151.919 23.361 152.145 23.8637L152.821 25.4107C152.977 25.766 153.154 26.0954 153.354 26.3987C153.553 26.6934 153.774 26.9447 154.017 27.1527C153.765 27.4647 153.388 27.755 152.886 28.0237C152.383 28.2837 151.837 28.4137 151.248 28.4137C150.667 28.4137 150.195 28.275 149.831 27.9977C149.475 27.7117 149.163 27.2567 148.895 26.6327L147.751 24.0067C147.569 23.582 147.343 23.3264 147.075 23.2397C146.806 23.153 146.459 23.1097 146.035 23.1097H145.528V28.1667C145.181 28.2274 144.821 28.2664 144.449 28.2837C144.085 28.3097 143.773 28.3227 143.513 28.3227C143.27 28.3227 142.949 28.3097 142.551 28.2837C142.152 28.2664 141.788 28.2274 141.459 28.1667V13.9707L141.602 13.8147C142.65 13.7887 143.634 13.767 144.553 13.7497C145.48 13.7237 146.403 13.7107 147.322 13.7107C148.362 13.7107 149.324 13.8494 150.208 14.1267C151.092 14.3954 151.798 14.859 152.327 15.5177C152.864 16.1677 153.133 17.0604 153.133 18.1957ZM145.528 16.6487V20.0157C145.831 20.007 146.108 20.0027 146.36 20.0027C146.62 19.994 146.81 19.9897 146.932 19.9897C147.712 19.9897 148.24 19.8207 148.518 19.4827C148.795 19.1447 148.934 18.7504 148.934 18.2997C148.934 17.8577 148.795 17.4764 148.518 17.1557C148.24 16.835 147.777 16.6747 147.127 16.6747C146.815 16.6747 146.546 16.6704 146.321 16.6617C146.095 16.653 145.831 16.6487 145.528 16.6487Z" fill="white"/>
</svg>
