<svg width="286" height="67" viewBox="0 0 286 67" fill="none" xmlns="http://www.w3.org/2000/svg">
<rect width="286" height="67" rx="10" fill="#1EBCBC"/>
<path d="M100.854 41.284C100.854 42.868 100.602 44.068 100.098 44.884C99.6063 45.7 98.5983 46.108 97.0743 46.108H87.4983C86.4663 46.108 85.6563 45.808 85.0683 45.208C84.4803 44.608 84.1863 43.786 84.1863 42.742V21.664L84.4383 21.412H99.9543C100.038 21.844 100.092 22.252 100.116 22.636C100.14 23.008 100.152 23.356 100.152 23.68C100.152 24.004 100.11 24.406 100.026 24.886C99.9543 25.354 99.8403 25.804 99.6843 26.236H92.3223C92.0583 26.236 91.6983 26.236 91.2423 26.236C90.7983 26.224 90.3363 26.212 89.8563 26.2C89.8563 26.692 89.8623 27.136 89.8743 27.532C89.8863 27.916 89.8923 28.348 89.8923 28.828V31.33C90.3723 31.318 90.8343 31.312 91.2783 31.312C91.7223 31.3 92.0703 31.294 92.3223 31.294H97.8123C97.9323 31.642 98.0163 32.044 98.0643 32.5C98.1243 32.956 98.1543 33.34 98.1543 33.652C98.1543 33.976 98.1243 34.354 98.0643 34.786C98.0163 35.218 97.9323 35.62 97.8123 35.992H92.3223C92.0703 35.992 91.7223 35.992 91.2783 35.992C90.8343 35.98 90.3723 35.968 89.8923 35.956V38.728C89.8923 39.196 89.8863 39.628 89.8743 40.024C89.8623 40.408 89.8563 40.84 89.8563 41.32V41.356C90.2643 41.332 90.6843 41.314 91.1163 41.302C91.5483 41.29 92.0163 41.284 92.5203 41.284H100.854ZM111.699 36.946C111.615 36.754 111.483 36.454 111.303 36.046C111.123 35.626 110.931 35.176 110.727 34.696C110.523 34.216 110.331 33.766 110.151 33.346C109.983 32.926 109.851 32.62 109.755 32.428L109.629 32.482C109.677 33.43 109.725 34.456 109.773 35.56C109.821 36.652 109.857 37.654 109.881 38.566C109.917 39.466 109.935 40.12 109.935 40.528V46C109.467 46.084 109.017 46.138 108.585 46.162C108.153 46.198 107.751 46.216 107.379 46.216C107.043 46.216 106.623 46.198 106.119 46.162C105.627 46.138 105.159 46.084 104.715 46V26.29C105.159 26.182 105.711 26.098 106.371 26.038C107.031 25.978 107.541 25.948 107.901 25.948C108.273 25.948 108.801 25.96 109.485 25.984C110.169 25.996 110.733 26.056 111.177 26.164L115.407 35.182C115.491 35.35 115.629 35.656 115.821 36.1C116.025 36.544 116.241 37.03 116.469 37.558C116.697 38.086 116.907 38.584 117.099 39.052C117.303 39.508 117.453 39.844 117.549 40.06L117.711 40.024C117.663 39.232 117.597 38.308 117.513 37.252C117.441 36.196 117.375 35.176 117.315 34.192C117.255 33.208 117.225 32.422 117.225 31.834V29.026C117.225 27.754 117.501 26.92 118.053 26.524C118.605 26.116 119.427 25.912 120.519 25.912H122.373L122.589 26.164V45.892C122.121 46 121.557 46.078 120.897 46.126C120.237 46.186 119.733 46.216 119.385 46.216C119.145 46.216 118.815 46.21 118.395 46.198C117.975 46.186 117.543 46.168 117.099 46.144C116.667 46.12 116.307 46.072 116.019 46L111.699 36.946ZM130.802 32.914C130.802 32.53 130.808 32.176 130.82 31.852C130.832 31.516 130.838 31.144 130.838 30.736C130.586 30.736 130.238 30.742 129.794 30.754C129.362 30.766 129.02 30.772 128.768 30.772H125.438C125.342 30.34 125.282 29.938 125.258 29.566C125.234 29.182 125.222 28.834 125.222 28.522C125.222 28.21 125.234 27.844 125.258 27.424C125.282 26.992 125.342 26.572 125.438 26.164H141.728C141.812 26.488 141.872 26.854 141.908 27.262C141.956 27.67 141.98 28 141.98 28.252C141.98 29.068 141.764 29.692 141.332 30.124C140.9 30.556 140.18 30.772 139.172 30.772H138.434C138.182 30.772 137.846 30.766 137.426 30.754C137.018 30.742 136.7 30.736 136.472 30.736C136.472 31.144 136.478 31.516 136.49 31.852C136.502 32.176 136.508 32.53 136.508 32.914V46C136.172 46.072 135.71 46.126 135.122 46.162C134.534 46.198 134.042 46.216 133.646 46.216C133.274 46.216 132.806 46.198 132.242 46.162C131.678 46.126 131.198 46.072 130.802 46V32.914ZM160.57 32.194C160.57 33.118 160.36 33.94 159.94 34.66C159.52 35.38 158.992 35.974 158.356 36.442C157.732 36.91 157.108 37.21 156.484 37.342C157.132 37.558 157.666 37.888 158.086 38.332C158.518 38.776 158.89 39.346 159.202 40.042L160.138 42.184C160.354 42.676 160.6 43.132 160.876 43.552C161.152 43.96 161.458 44.308 161.794 44.596C161.446 45.028 160.924 45.43 160.228 45.802C159.532 46.162 158.776 46.342 157.96 46.342C157.156 46.342 156.502 46.15 155.998 45.766C155.506 45.37 155.074 44.74 154.702 43.876L153.118 40.24C152.866 39.652 152.554 39.298 152.182 39.178C151.81 39.058 151.33 38.998 150.742 38.998H150.04V46C149.56 46.084 149.062 46.138 148.546 46.162C148.042 46.198 147.61 46.216 147.25 46.216C146.914 46.216 146.47 46.198 145.918 46.162C145.366 46.138 144.862 46.084 144.406 46V26.344L144.604 26.128C146.056 26.092 147.418 26.062 148.69 26.038C149.974 26.002 151.252 25.984 152.524 25.984C153.964 25.984 155.296 26.176 156.52 26.56C157.744 26.932 158.722 27.574 159.454 28.486C160.198 29.386 160.57 30.622 160.57 32.194ZM150.04 30.052V34.714C150.46 34.702 150.844 34.696 151.192 34.696C151.552 34.684 151.816 34.678 151.984 34.678C153.064 34.678 153.796 34.444 154.18 33.976C154.564 33.508 154.756 32.962 154.756 32.338C154.756 31.726 154.564 31.198 154.18 30.754C153.796 30.31 153.154 30.088 152.254 30.088C151.822 30.088 151.45 30.082 151.138 30.07C150.826 30.058 150.46 30.052 150.04 30.052ZM169.943 42.526C169.751 42.526 169.565 42.526 169.385 42.526C169.205 42.514 169.025 42.502 168.845 42.49L167.729 46C167.381 46.084 167.003 46.144 166.595 46.18C166.187 46.228 165.761 46.252 165.317 46.252C164.837 46.252 164.351 46.216 163.859 46.144C163.379 46.072 162.983 45.97 162.671 45.838L162.473 45.532L169.475 26.164C170.099 26.068 170.699 26.008 171.275 25.984C171.863 25.96 172.397 25.948 172.877 25.948C173.321 25.948 173.801 25.96 174.317 25.984C174.833 26.008 175.415 26.068 176.063 26.164L182.867 45.73C182.447 45.922 181.913 46.066 181.265 46.162C180.617 46.27 180.095 46.324 179.699 46.324C179.039 46.324 178.403 46.198 177.791 45.946C177.179 45.694 176.717 45.028 176.405 43.948L175.955 42.49C175.763 42.502 175.577 42.514 175.397 42.526C175.217 42.526 175.025 42.526 174.821 42.526H169.943ZM170.663 36.838L170.267 38.08C170.447 38.068 170.627 38.062 170.807 38.062C170.987 38.05 171.173 38.044 171.365 38.044H173.615C173.795 38.044 173.957 38.05 174.101 38.062C174.257 38.062 174.413 38.068 174.569 38.08L174.191 36.856C173.915 35.908 173.639 34.852 173.363 33.688C173.087 32.524 172.835 31.468 172.607 30.52H172.391C172.139 31.432 171.857 32.476 171.545 33.652C171.245 34.828 170.951 35.89 170.663 36.838ZM201.774 32.194C201.774 33.118 201.564 33.94 201.144 34.66C200.724 35.38 200.196 35.974 199.56 36.442C198.936 36.91 198.312 37.21 197.688 37.342C198.336 37.558 198.87 37.888 199.29 38.332C199.722 38.776 200.094 39.346 200.406 40.042L201.342 42.184C201.558 42.676 201.804 43.132 202.08 43.552C202.356 43.96 202.662 44.308 202.998 44.596C202.65 45.028 202.128 45.43 201.432 45.802C200.736 46.162 199.98 46.342 199.164 46.342C198.36 46.342 197.706 46.15 197.202 45.766C196.71 45.37 196.278 44.74 195.906 43.876L194.322 40.24C194.07 39.652 193.758 39.298 193.386 39.178C193.014 39.058 192.534 38.998 191.946 38.998H191.244V46C190.764 46.084 190.266 46.138 189.75 46.162C189.246 46.198 188.814 46.216 188.454 46.216C188.118 46.216 187.674 46.198 187.122 46.162C186.57 46.138 186.066 46.084 185.61 46V26.344L185.808 26.128C187.26 26.092 188.622 26.062 189.894 26.038C191.178 26.002 192.456 25.984 193.728 25.984C195.168 25.984 196.5 26.176 197.724 26.56C198.948 26.932 199.926 27.574 200.658 28.486C201.402 29.386 201.774 30.622 201.774 32.194ZM191.244 30.052V34.714C191.664 34.702 192.048 34.696 192.396 34.696C192.756 34.684 193.02 34.678 193.188 34.678C194.268 34.678 195 34.444 195.384 33.976C195.768 33.508 195.96 32.962 195.96 32.338C195.96 31.726 195.768 31.198 195.384 30.754C195 30.31 194.358 30.088 193.458 30.088C193.026 30.088 192.654 30.082 192.342 30.07C192.03 30.058 191.664 30.052 191.244 30.052Z" fill="white"/>
</svg>
