<svg width="83" height="18" viewBox="0 0 83 18" fill="none" xmlns="http://www.w3.org/2000/svg">
<path d="M10.5592 12.548C10.5592 12.284 10.5632 12.012 10.5712 11.732C10.5792 11.452 10.5912 11.168 10.6072 10.88H9.43122C8.81522 10.88 8.35522 10.764 8.05122 10.532C7.74722 10.3 7.59522 9.88 7.59522 9.272C7.59522 9.024 7.61922 8.756 7.66722 8.468C7.72322 8.18 7.79122 7.92 7.87122 7.688H11.6272C12.5792 7.688 13.2392 7.912 13.6072 8.36C13.9752 8.8 14.1592 9.368 14.1592 10.064V16.364C13.4632 16.596 12.5632 16.82 11.4592 17.036C10.3552 17.252 9.14722 17.36 7.83522 17.36C6.19522 17.36 4.83522 17.016 3.75522 16.328C2.68322 15.64 1.88322 14.664 1.35522 13.4C0.827219 12.136 0.563219 10.64 0.563219 8.912C0.563219 7.456 0.775219 6.188 1.19922 5.108C1.62322 4.02 2.19922 3.12 2.92722 2.408C3.65522 1.688 4.47522 1.148 5.38722 0.787999C6.29922 0.427999 7.24322 0.248 8.21922 0.248C9.32322 0.248 10.3792 0.408 11.3872 0.727999C12.3952 1.048 13.3072 1.46 14.1232 1.964C14.0832 2.508 13.8832 3.04 13.5232 3.56C13.1712 4.08 12.7992 4.468 12.4072 4.724C11.8232 4.332 11.1832 4.02 10.4872 3.788C9.79922 3.548 9.11922 3.428 8.44722 3.428C7.23122 3.428 6.26722 3.868 5.55522 4.748C4.84322 5.62 4.48722 7.016 4.48722 8.936C4.48722 10.808 4.83122 12.176 5.51922 13.04C6.21522 13.904 7.20722 14.336 8.49522 14.336C8.87922 14.336 9.24322 14.316 9.58722 14.276C9.93122 14.236 10.2552 14.188 10.5592 14.132V12.548ZM27.9063 7.796C27.9063 8.412 27.7663 8.96 27.4863 9.44C27.2063 9.92 26.8543 10.316 26.4303 10.628C26.0143 10.94 25.5983 11.14 25.1823 11.228C25.6143 11.372 25.9703 11.592 26.2503 11.888C26.5383 12.184 26.7863 12.564 26.9943 13.028L27.6183 14.456C27.7623 14.784 27.9263 15.088 28.1103 15.368C28.2943 15.64 28.4983 15.872 28.7223 16.064C28.4903 16.352 28.1423 16.62 27.6783 16.868C27.2143 17.108 26.7103 17.228 26.1663 17.228C25.6303 17.228 25.1943 17.1 24.8583 16.844C24.5303 16.58 24.2423 16.16 23.9943 15.584L22.9383 13.16C22.7703 12.768 22.5623 12.532 22.3143 12.452C22.0663 12.372 21.7463 12.332 21.3543 12.332H20.8863V17C20.5663 17.056 20.2343 17.092 19.8903 17.108C19.5543 17.132 19.2663 17.144 19.0263 17.144C18.8023 17.144 18.5063 17.132 18.1383 17.108C17.7703 17.092 17.4343 17.056 17.1303 17V3.896L17.2623 3.752C18.2303 3.728 19.1383 3.708 19.9863 3.692C20.8423 3.668 21.6943 3.656 22.5423 3.656C23.5023 3.656 24.3903 3.784 25.2063 4.04C26.0223 4.288 26.6743 4.716 27.1623 5.324C27.6583 5.924 27.9063 6.748 27.9063 7.796ZM20.8863 6.368V9.476C21.1663 9.468 21.4223 9.464 21.6543 9.464C21.8943 9.456 22.0703 9.452 22.1823 9.452C22.9023 9.452 23.3903 9.296 23.6463 8.984C23.9023 8.672 24.0303 8.308 24.0303 7.892C24.0303 7.484 23.9023 7.132 23.6463 6.836C23.3903 6.54 22.9623 6.392 22.3623 6.392C22.0743 6.392 21.8263 6.388 21.6183 6.38C21.4103 6.372 21.1663 6.368 20.8863 6.368ZM42.2904 12.044C42.2904 13.7 41.7944 15 40.8024 15.944C39.8184 16.888 38.3584 17.36 36.4224 17.36C34.4864 17.36 33.0224 16.888 32.0304 15.944C31.0464 15 30.5544 13.7 30.5544 12.044V3.776L30.6984 3.632H32.0664C32.7944 3.632 33.3544 3.816 33.7464 4.184C34.1464 4.552 34.3464 5.172 34.3464 6.044V12.032C34.3464 12.76 34.4984 13.332 34.8024 13.748C35.1064 14.164 35.6464 14.372 36.4224 14.372C37.2064 14.372 37.7464 14.164 38.0424 13.748C38.3384 13.332 38.4864 12.76 38.4864 12.032V3.776C38.8064 3.712 39.1344 3.672 39.4704 3.656C39.8064 3.64 40.0984 3.632 40.3464 3.632C40.5704 3.632 40.8744 3.644 41.2584 3.668C41.6424 3.684 41.9864 3.724 42.2904 3.788V12.044ZM56.0252 8.312C56.0252 9.352 55.7892 10.216 55.3172 10.904C54.8532 11.584 54.2132 12.092 53.3972 12.428C52.5812 12.756 51.6532 12.92 50.6132 12.92H49.3052V17C48.9852 17.056 48.6572 17.092 48.3212 17.108C47.9852 17.132 47.6972 17.144 47.4572 17.144C47.2332 17.144 46.9292 17.132 46.5452 17.108C46.1612 17.092 45.8172 17.056 45.5132 17V3.896L45.6452 3.752C46.2932 3.736 47.0732 3.716 47.9852 3.692C48.8972 3.668 49.7732 3.656 50.6132 3.656C51.6612 3.656 52.5932 3.816 53.4092 4.136C54.2252 4.456 54.8652 4.96 55.3292 5.648C55.7932 6.336 56.0252 7.224 56.0252 8.312ZM49.3052 6.464V10.136C49.5212 10.128 49.7172 10.124 49.8932 10.124C50.0692 10.116 50.2012 10.112 50.2892 10.112C50.8172 10.112 51.2132 10.016 51.4772 9.824C51.7492 9.624 51.9292 9.384 52.0172 9.104C52.1052 8.816 52.1492 8.544 52.1492 8.288C52.1492 8.048 52.1052 7.788 52.0172 7.508C51.9292 7.228 51.7492 6.988 51.4772 6.788C51.2132 6.588 50.8172 6.488 50.2892 6.488C50.0892 6.488 49.9452 6.488 49.8572 6.488C49.7692 6.48 49.5852 6.472 49.3052 6.464ZM57.3615 10.412C57.3615 8.268 57.9135 6.568 59.0175 5.312C60.1295 4.048 61.7495 3.416 63.8775 3.416C66.0375 3.416 67.6655 4.044 68.7615 5.3C69.8655 6.548 70.4175 8.252 70.4175 10.412C70.4175 12.572 69.8655 14.272 68.7615 15.512C67.6575 16.744 66.0295 17.36 63.8775 17.36C61.7175 17.36 60.0895 16.736 58.9935 15.488C57.9055 14.24 57.3615 12.548 57.3615 10.412ZM61.2375 10.412C61.2375 10.868 61.2655 11.34 61.3215 11.828C61.3855 12.308 61.5055 12.756 61.6815 13.172C61.8655 13.588 62.1335 13.928 62.4855 14.192C62.8375 14.448 63.3055 14.576 63.8895 14.576C64.4735 14.576 64.9415 14.448 65.2935 14.192C65.6455 13.928 65.9095 13.588 66.0855 13.172C66.2695 12.756 66.3895 12.308 66.4455 11.828C66.5095 11.34 66.5415 10.868 66.5415 10.412C66.5415 9.948 66.5095 9.472 66.4455 8.984C66.3895 8.488 66.2695 8.032 66.0855 7.616C65.9095 7.192 65.6455 6.852 65.2935 6.596C64.9415 6.332 64.4735 6.2 63.8895 6.2C63.3055 6.2 62.8375 6.332 62.4855 6.596C62.1335 6.852 61.8655 7.192 61.6815 7.616C61.5055 8.032 61.3855 8.488 61.3215 8.984C61.2655 9.472 61.2375 9.948 61.2375 10.412ZM71.6042 16.004C71.6042 15.7 71.6642 15.364 71.7842 14.996C71.9042 14.62 72.0682 14.272 72.2762 13.952C72.4842 13.632 72.7122 13.392 72.9602 13.232C73.5522 13.552 74.2122 13.828 74.9402 14.06C75.6682 14.284 76.3802 14.396 77.0762 14.396C77.5242 14.396 77.8922 14.304 78.1802 14.12C78.4762 13.936 78.6242 13.676 78.6242 13.34C78.6242 13.124 78.5402 12.928 78.3722 12.752C78.2042 12.568 77.9122 12.4 77.4962 12.248L75.5042 11.468C74.8882 11.244 74.3122 10.964 73.7762 10.628C73.2402 10.292 72.8082 9.88 72.4802 9.392C72.1522 8.904 71.9882 8.32 71.9882 7.64C71.9882 6.392 72.4682 5.376 73.4282 4.592C74.3882 3.808 75.6802 3.416 77.3042 3.416C78.2242 3.416 79.1362 3.524 80.0402 3.74C80.9522 3.948 81.7162 4.188 82.3322 4.46C82.3322 5.004 82.2202 5.54 81.9962 6.068C81.7722 6.596 81.4642 7.012 81.0722 7.316C80.4802 7.052 79.8362 6.832 79.1402 6.656C78.4442 6.472 77.8162 6.38 77.2562 6.38C76.8402 6.38 76.5202 6.468 76.2962 6.644C76.0802 6.82 75.9722 7.032 75.9722 7.28C75.9722 7.512 76.0802 7.688 76.2962 7.808C76.5122 7.928 76.7802 8.048 77.1002 8.168L79.0802 8.924C80.1842 9.324 81.0602 9.876 81.7082 10.58C82.3642 11.276 82.6922 12.136 82.6922 13.16C82.6922 14.064 82.4482 14.828 81.9602 15.452C81.4802 16.076 80.8202 16.548 79.9802 16.868C79.1482 17.188 78.2082 17.352 77.1602 17.36C75.9122 17.36 74.8002 17.216 73.8242 16.928C72.8562 16.64 72.1162 16.332 71.6042 16.004Z" fill="#364760"/>
</svg>
