<svg width="193" height="76" viewBox="0 0 193 76" fill="none" xmlns="http://www.w3.org/2000/svg">
<rect width="193" height="67.5434" rx="10" fill="#1EBCBC"/>
<path d="M55.6288 22.6915C55.6288 22.4055 55.6331 22.1108 55.6418 21.8075C55.6504 21.5041 55.6634 21.1965 55.6808 20.8845H54.4068C53.7394 20.8845 53.2411 20.7588 52.9118 20.5075C52.5824 20.2561 52.4178 19.8011 52.4178 19.1425C52.4178 18.8738 52.4438 18.5835 52.4958 18.2715C52.5564 17.9595 52.6301 17.6778 52.7168 17.4265H56.7858C57.8171 17.4265 58.5321 17.6691 58.9308 18.1545C59.3294 18.6311 59.5288 19.2465 59.5288 20.0005V26.8255C58.7748 27.0768 57.7998 27.3195 56.6038 27.5535C55.4078 27.7875 54.0991 27.9045 52.6778 27.9045C50.9011 27.9045 49.4278 27.5318 48.2578 26.7865C47.0964 26.0411 46.2298 24.9838 45.6578 23.6145C45.0858 22.2451 44.7998 20.6245 44.7998 18.7525C44.7998 17.1751 45.0294 15.8015 45.4888 14.6315C45.9481 13.4528 46.5721 12.4778 47.3608 11.7065C48.1494 10.9265 49.0378 10.3415 50.0258 9.95146C51.0138 9.56146 52.0364 9.36646 53.0938 9.36646C54.2898 9.36646 55.4338 9.5398 56.5258 9.88646C57.6178 10.2331 58.6058 10.6795 59.4898 11.2255C59.4464 11.8148 59.2298 12.3911 58.8398 12.9545C58.4584 13.5178 58.0554 13.9381 57.6308 14.2155C56.9981 13.7908 56.3048 13.4528 55.5508 13.2015C54.8054 12.9415 54.0688 12.8115 53.3408 12.8115C52.0234 12.8115 50.9791 13.2881 50.2078 14.2415C49.4364 15.1861 49.0508 16.6985 49.0508 18.7785C49.0508 20.8065 49.4234 22.2885 50.1688 23.2245C50.9228 24.1605 51.9974 24.6285 53.3928 24.6285C53.8088 24.6285 54.2031 24.6068 54.5758 24.5635C54.9484 24.5201 55.2994 24.4681 55.6288 24.4075V22.6915ZM73.6545 24.2515C73.6545 25.4908 73.4595 26.3531 73.0695 26.8385C72.6881 27.3238 72.0381 27.5665 71.1195 27.5665H65.1265C64.3898 27.5665 63.8091 27.3585 63.3845 26.9425C62.9598 26.5178 62.7475 25.9501 62.7475 25.2395V13.3315L62.8905 13.1885H73.1735C73.2341 13.4831 73.2688 13.7648 73.2775 14.0335C73.2861 14.3021 73.2905 14.5578 73.2905 14.8005C73.2905 15.0345 73.2645 15.2988 73.2125 15.5935C73.1691 15.8881 73.0911 16.1871 72.9785 16.4905H68.4285C68.0645 16.4905 67.5141 16.4861 66.7775 16.4775C66.7861 16.7461 66.7905 16.9758 66.7905 17.1665C66.7991 17.3571 66.8035 17.5868 66.8035 17.8555V18.7135C67.5228 18.7048 68.0645 18.7005 68.4285 18.7005H71.7565C71.8431 18.9345 71.8995 19.2031 71.9255 19.5065C71.9601 19.8011 71.9775 20.0525 71.9775 20.2605C71.9775 20.5031 71.9601 20.7761 71.9255 21.0795C71.8995 21.3741 71.8431 21.6428 71.7565 21.8855H68.4285C68.2638 21.8855 68.0341 21.8855 67.7395 21.8855C67.4448 21.8855 67.1328 21.8855 66.8035 21.8855V22.7305C66.8035 23.0511 66.7991 23.3155 66.7905 23.5235C66.7818 23.7315 66.7775 23.9915 66.7775 24.3035V24.3295C67.0808 24.3121 67.3625 24.2948 67.6225 24.2775C67.8825 24.2601 68.1988 24.2515 68.5715 24.2515H73.6545ZM81.5278 20.9755C81.4671 20.8368 81.3718 20.6201 81.2418 20.3255C81.1118 20.0221 80.9731 19.6971 80.8258 19.3505C80.6785 19.0038 80.5398 18.6788 80.4098 18.3755C80.2885 18.0721 80.1931 17.8511 80.1238 17.7125L80.0328 17.7515C80.0675 18.4361 80.1021 19.1771 80.1368 19.9745C80.1715 20.7631 80.1975 21.4868 80.2148 22.1455C80.2408 22.7955 80.2538 23.2678 80.2538 23.5625V27.5145C79.9158 27.5751 79.5908 27.6141 79.2788 27.6315C78.9668 27.6575 78.6765 27.6705 78.4078 27.6705C78.1651 27.6705 77.8618 27.6575 77.4978 27.6315C77.1425 27.6141 76.8045 27.5751 76.4838 27.5145V13.2795C76.8045 13.2015 77.2031 13.1408 77.6798 13.0975C78.1565 13.0541 78.5248 13.0325 78.7848 13.0325C79.0535 13.0325 79.4348 13.0411 79.9288 13.0585C80.4228 13.0671 80.8301 13.1105 81.1508 13.1885L84.2058 19.7015C84.2665 19.8228 84.3661 20.0438 84.5048 20.3645C84.6521 20.6851 84.8081 21.0361 84.9728 21.4175C85.1375 21.7988 85.2891 22.1585 85.4278 22.4965C85.5751 22.8258 85.6835 23.0685 85.7528 23.2245L85.8698 23.1985C85.8351 22.6265 85.7875 21.9591 85.7268 21.1965C85.6748 20.4338 85.6271 19.6971 85.5838 18.9865C85.5405 18.2758 85.5188 17.7081 85.5188 17.2835V15.2555C85.5188 14.3368 85.7181 13.7345 86.1168 13.4485C86.5155 13.1538 87.1091 13.0065 87.8978 13.0065H89.2368L89.3928 13.1885V27.4365C89.0548 27.5145 88.6475 27.5708 88.1708 27.6055C87.6941 27.6488 87.3301 27.6705 87.0788 27.6705C86.9055 27.6705 86.6671 27.6661 86.3638 27.6575C86.0605 27.6488 85.7485 27.6358 85.4278 27.6185C85.1158 27.6011 84.8558 27.5665 84.6478 27.5145L81.5278 20.9755ZM104.047 24.2515C104.047 25.4908 103.852 26.3531 103.462 26.8385C103.081 27.3238 102.431 27.5665 101.512 27.5665H95.5191C94.7824 27.5665 94.2017 27.3585 93.7771 26.9425C93.3524 26.5178 93.1401 25.9501 93.1401 25.2395V13.3315L93.2831 13.1885H103.566C103.627 13.4831 103.661 13.7648 103.67 14.0335C103.679 14.3021 103.683 14.5578 103.683 14.8005C103.683 15.0345 103.657 15.2988 103.605 15.5935C103.562 15.8881 103.484 16.1871 103.371 16.4905H98.8211C98.4571 16.4905 97.9067 16.4861 97.1701 16.4775C97.1787 16.7461 97.1831 16.9758 97.1831 17.1665C97.1917 17.3571 97.1961 17.5868 97.1961 17.8555V18.7135C97.9154 18.7048 98.4571 18.7005 98.8211 18.7005H102.149C102.236 18.9345 102.292 19.2031 102.318 19.5065C102.353 19.8011 102.37 20.0525 102.37 20.2605C102.37 20.5031 102.353 20.7761 102.318 21.0795C102.292 21.3741 102.236 21.6428 102.149 21.8855H98.8211C98.6564 21.8855 98.4267 21.8855 98.1321 21.8855C97.8374 21.8855 97.5254 21.8855 97.1961 21.8855V22.7305C97.1961 23.0511 97.1917 23.3155 97.1831 23.5235C97.1744 23.7315 97.1701 23.9915 97.1701 24.3035V24.3295C97.4734 24.3121 97.7551 24.2948 98.0151 24.2775C98.2751 24.2601 98.5914 24.2515 98.9641 24.2515H104.047ZM118.55 17.5435C118.55 18.2108 118.399 18.8045 118.095 19.3245C117.792 19.8445 117.411 20.2735 116.951 20.6115C116.501 20.9495 116.05 21.1661 115.599 21.2615C116.067 21.4175 116.453 21.6558 116.756 21.9765C117.068 22.2971 117.337 22.7088 117.562 23.2115L118.238 24.7585C118.394 25.1138 118.572 25.4431 118.771 25.7465C118.971 26.0411 119.192 26.2925 119.434 26.5005C119.183 26.8125 118.806 27.1028 118.303 27.3715C117.801 27.6315 117.255 27.7615 116.665 27.7615C116.085 27.7615 115.612 27.6228 115.248 27.3455C114.893 27.0595 114.581 26.6045 114.312 25.9805L113.168 23.3545C112.986 22.9298 112.761 22.6741 112.492 22.5875C112.224 22.5008 111.877 22.4575 111.452 22.4575H110.945V27.5145C110.599 27.5751 110.239 27.6141 109.866 27.6315C109.502 27.6575 109.19 27.6705 108.93 27.6705C108.688 27.6705 108.367 27.6575 107.968 27.6315C107.57 27.6141 107.206 27.5751 106.876 27.5145V13.3185L107.019 13.1625C108.068 13.1365 109.052 13.1148 109.97 13.0975C110.898 13.0715 111.821 13.0585 112.739 13.0585C113.779 13.0585 114.741 13.1971 115.625 13.4745C116.509 13.7431 117.216 14.2068 117.744 14.8655C118.282 15.5155 118.55 16.4081 118.55 17.5435ZM110.945 15.9965V19.3635C111.249 19.3548 111.526 19.3505 111.777 19.3505C112.037 19.3418 112.228 19.3375 112.349 19.3375C113.129 19.3375 113.658 19.1685 113.935 18.8305C114.213 18.4925 114.351 18.0981 114.351 17.6475C114.351 17.2055 114.213 16.8241 113.935 16.5035C113.658 16.1828 113.194 16.0225 112.544 16.0225C112.232 16.0225 111.964 16.0181 111.738 16.0095C111.513 16.0008 111.249 15.9965 110.945 15.9965ZM125.319 25.0055C125.18 25.0055 125.046 25.0055 124.916 25.0055C124.786 24.9968 124.656 24.9881 124.526 24.9795L123.72 27.5145C123.469 27.5751 123.196 27.6185 122.901 27.6445C122.606 27.6791 122.299 27.6965 121.978 27.6965C121.631 27.6965 121.28 27.6705 120.925 27.6185C120.578 27.5665 120.292 27.4928 120.067 27.3975L119.924 27.1765L124.981 13.1885C125.432 13.1191 125.865 13.0758 126.281 13.0585C126.706 13.0411 127.091 13.0325 127.438 13.0325C127.759 13.0325 128.105 13.0411 128.478 13.0585C128.851 13.0758 129.271 13.1191 129.739 13.1885L134.653 27.3195C134.35 27.4581 133.964 27.5621 133.496 27.6315C133.028 27.7095 132.651 27.7485 132.365 27.7485C131.888 27.7485 131.429 27.6575 130.987 27.4755C130.545 27.2935 130.211 26.8125 129.986 26.0325L129.661 24.9795C129.522 24.9881 129.388 24.9968 129.258 25.0055C129.128 25.0055 128.989 25.0055 128.842 25.0055H125.319ZM125.839 20.8975L125.553 21.7945C125.683 21.7858 125.813 21.7815 125.943 21.7815C126.073 21.7728 126.207 21.7685 126.346 21.7685H127.971C128.101 21.7685 128.218 21.7728 128.322 21.7815C128.435 21.7815 128.547 21.7858 128.66 21.7945L128.387 20.9105C128.188 20.2258 127.988 19.4631 127.789 18.6225C127.59 17.7818 127.408 17.0191 127.243 16.3345H127.087C126.905 16.9931 126.701 17.7471 126.476 18.5965C126.259 19.4458 126.047 20.2128 125.839 20.8975ZM148.308 17.5435C148.308 18.2108 148.157 18.8045 147.853 19.3245C147.55 19.8445 147.169 20.2735 146.709 20.6115C146.259 20.9495 145.808 21.1661 145.357 21.2615C145.825 21.4175 146.211 21.6558 146.514 21.9765C146.826 22.2971 147.095 22.7088 147.32 23.2115L147.996 24.7585C148.152 25.1138 148.33 25.4431 148.529 25.7465C148.729 26.0411 148.95 26.2925 149.192 26.5005C148.941 26.8125 148.564 27.1028 148.061 27.3715C147.559 27.6315 147.013 27.7615 146.423 27.7615C145.843 27.7615 145.37 27.6228 145.006 27.3455C144.651 27.0595 144.339 26.6045 144.07 25.9805L142.926 23.3545C142.744 22.9298 142.519 22.6741 142.25 22.5875C141.982 22.5008 141.635 22.4575 141.21 22.4575H140.703V27.5145C140.357 27.5751 139.997 27.6141 139.624 27.6315C139.26 27.6575 138.948 27.6705 138.688 27.6705C138.446 27.6705 138.125 27.6575 137.726 27.6315C137.328 27.6141 136.964 27.5751 136.634 27.5145V13.3185L136.777 13.1625C137.826 13.1365 138.81 13.1148 139.728 13.0975C140.656 13.0715 141.579 13.0585 142.497 13.0585C143.537 13.0585 144.499 13.1971 145.383 13.4745C146.267 13.7431 146.974 14.2068 147.502 14.8655C148.04 15.5155 148.308 16.4081 148.308 17.5435ZM140.703 15.9965V19.3635C141.007 19.3548 141.284 19.3505 141.535 19.3505C141.795 19.3418 141.986 19.3375 142.107 19.3375C142.887 19.3375 143.416 19.1685 143.693 18.8305C143.971 18.4925 144.109 18.0981 144.109 17.6475C144.109 17.2055 143.971 16.8241 143.693 16.5035C143.416 16.1828 142.952 16.0225 142.302 16.0225C141.99 16.0225 141.722 16.0181 141.496 16.0095C141.271 16.0008 141.007 15.9965 140.703 15.9965ZM61.5378 47.2555C61.5378 48.0875 61.3774 48.8285 61.0568 49.4785C60.7361 50.1198 60.3331 50.6571 59.8478 51.0905C59.3624 51.5151 58.8728 51.8228 58.3788 52.0135C58.8641 52.1868 59.2671 52.4858 59.5878 52.9105C59.9171 53.3351 60.1814 53.8335 60.3808 54.4055L61.1608 56.6025C61.4554 57.4431 61.8844 58.0845 62.4478 58.5265C62.1791 58.8731 61.7891 59.1635 61.2778 59.3975C60.7664 59.6315 60.2334 59.7485 59.6788 59.7485C58.9334 59.7485 58.3918 59.5491 58.0538 59.1505C57.7158 58.7431 57.4081 58.1408 57.1308 57.3435L56.1948 54.6265C56.0474 54.1758 55.8178 53.7945 55.5058 53.4825C55.1938 53.1618 54.6911 53.0015 53.9978 53.0015H52.9188V59.5145C52.5721 59.5751 52.2124 59.6141 51.8398 59.6315C51.4671 59.6575 51.1378 59.6705 50.8518 59.6705C50.6004 59.6705 50.2798 59.6575 49.8898 59.6315C49.4998 59.6141 49.1358 59.5751 48.7978 59.5145V41.8865L48.9798 41.7045C50.0891 41.6785 51.1551 41.6568 52.1778 41.6395C53.2091 41.6135 54.2188 41.6005 55.2068 41.6005C56.4114 41.6005 57.4904 41.7998 58.4438 42.1985C59.4058 42.5971 60.1598 43.2125 60.7058 44.0445C61.2604 44.8765 61.5378 45.9468 61.5378 47.2555ZM52.9188 44.7205V49.8165C53.3261 49.7991 53.7074 49.7861 54.0628 49.7775C54.4268 49.7688 54.6911 49.7645 54.8558 49.7645C55.5144 49.7645 56.0171 49.6475 56.3638 49.4135C56.7191 49.1708 56.9618 48.8588 57.0918 48.4775C57.2304 48.0961 57.2998 47.6888 57.2998 47.2555C57.2998 46.8048 57.2304 46.3888 57.0918 46.0075C56.9618 45.6261 56.7191 45.3228 56.3638 45.0975C56.0171 44.8635 55.5144 44.7465 54.8558 44.7465C54.5871 44.7465 54.2881 44.7465 53.9588 44.7465C53.6381 44.7465 53.2914 44.7378 52.9188 44.7205ZM75.4445 56.2515C75.4445 57.4908 75.2495 58.3531 74.8595 58.8385C74.4782 59.3238 73.8282 59.5665 72.9095 59.5665H66.9165C66.1799 59.5665 65.5992 59.3585 65.1745 58.9425C64.7499 58.5178 64.5375 57.9501 64.5375 57.2395V45.3315L64.6805 45.1885H74.9635C75.0242 45.4831 75.0589 45.7648 75.0675 46.0335C75.0762 46.3021 75.0805 46.5578 75.0805 46.8005C75.0805 47.0345 75.0545 47.2988 75.0025 47.5935C74.9592 47.8881 74.8812 48.1871 74.7685 48.4905H70.2185C69.8545 48.4905 69.3042 48.4861 68.5675 48.4775C68.5762 48.7461 68.5805 48.9758 68.5805 49.1665C68.5892 49.3571 68.5935 49.5868 68.5935 49.8555V50.7135C69.3129 50.7048 69.8545 50.7005 70.2185 50.7005H73.5465C73.6332 50.9345 73.6895 51.2031 73.7155 51.5065C73.7502 51.8011 73.7675 52.0525 73.7675 52.2605C73.7675 52.5031 73.7502 52.7761 73.7155 53.0795C73.6895 53.3741 73.6332 53.6428 73.5465 53.8855H70.2185C70.0539 53.8855 69.8242 53.8855 69.5295 53.8855C69.2349 53.8855 68.9229 53.8855 68.5935 53.8855V54.7305C68.5935 55.0511 68.5892 55.3155 68.5805 55.5235C68.5719 55.7315 68.5675 55.9915 68.5675 56.3035V56.3295C68.8709 56.3121 69.1525 56.2948 69.4125 56.2775C69.6725 56.2601 69.9889 56.2515 70.3615 56.2515H75.4445ZM89.6618 50.1025C89.6618 51.2291 89.4062 52.1651 88.8948 52.9105C88.3922 53.6471 87.6988 54.1975 86.8148 54.5615C85.9308 54.9168 84.9255 55.0945 83.7988 55.0945H82.3818V59.5145C82.0352 59.5751 81.6798 59.6141 81.3158 59.6315C80.9518 59.6575 80.6398 59.6705 80.3798 59.6705C80.1372 59.6705 79.8078 59.6575 79.3918 59.6315C78.9758 59.6141 78.6032 59.5751 78.2738 59.5145V45.3185L78.4168 45.1625C79.1188 45.1451 79.9638 45.1235 80.9518 45.0975C81.9398 45.0715 82.8888 45.0585 83.7988 45.0585C84.9342 45.0585 85.9438 45.2318 86.8278 45.5785C87.7118 45.9251 88.4052 46.4711 88.9078 47.2165C89.4105 47.9618 89.6618 48.9238 89.6618 50.1025ZM82.3818 48.1005V52.0785C82.6158 52.0698 82.8282 52.0655 83.0188 52.0655C83.2095 52.0568 83.3525 52.0525 83.4478 52.0525C84.0198 52.0525 84.4488 51.9485 84.7348 51.7405C85.0295 51.5238 85.2245 51.2638 85.3198 50.9605C85.4152 50.6485 85.4628 50.3538 85.4628 50.0765C85.4628 49.8165 85.4152 49.5348 85.3198 49.2315C85.2245 48.9281 85.0295 48.6681 84.7348 48.4515C84.4488 48.2348 84.0198 48.1265 83.4478 48.1265C83.2312 48.1265 83.0752 48.1265 82.9798 48.1265C82.8845 48.1178 82.6852 48.1091 82.3818 48.1005ZM91.1095 52.3775C91.1095 50.0548 91.7075 48.2131 92.9035 46.8525C94.1082 45.4831 95.8632 44.7985 98.1685 44.7985C100.509 44.7985 102.272 45.4788 103.46 46.8395C104.656 48.1915 105.254 50.0375 105.254 52.3775C105.254 54.7175 104.656 56.5591 103.46 57.9025C102.264 59.2371 100.5 59.9045 98.1685 59.9045C95.8285 59.9045 94.0649 59.2285 92.8775 57.8765C91.6989 56.5245 91.1095 54.6915 91.1095 52.3775ZM95.3085 52.3775C95.3085 52.8715 95.3389 53.3828 95.3995 53.9115C95.4689 54.4315 95.5989 54.9168 95.7895 55.3675C95.9889 55.8181 96.2792 56.1865 96.6605 56.4725C97.0419 56.7498 97.5489 56.8885 98.1815 56.8885C98.8142 56.8885 99.3212 56.7498 99.7025 56.4725C100.084 56.1865 100.37 55.8181 100.561 55.3675C100.76 54.9168 100.89 54.4315 100.951 53.9115C101.02 53.3828 101.055 52.8715 101.055 52.3775C101.055 51.8748 101.02 51.3591 100.951 50.8305C100.89 50.2931 100.76 49.7991 100.561 49.3485C100.37 48.8891 100.084 48.5208 99.7025 48.2435C99.3212 47.9575 98.8142 47.8145 98.1815 47.8145C97.5489 47.8145 97.0419 47.9575 96.6605 48.2435C96.2792 48.5208 95.9889 48.8891 95.7895 49.3485C95.5989 49.7991 95.4689 50.2931 95.3995 50.8305C95.3389 51.3591 95.3085 51.8748 95.3085 52.3775ZM119.604 49.5435C119.604 50.2108 119.452 50.8045 119.149 51.3245C118.846 51.8445 118.464 52.2735 118.005 52.6115C117.554 52.9495 117.104 53.1661 116.653 53.2615C117.121 53.4175 117.507 53.6558 117.81 53.9765C118.122 54.2971 118.391 54.7088 118.616 55.2115L119.292 56.7585C119.448 57.1138 119.626 57.4431 119.825 57.7465C120.024 58.0411 120.245 58.2925 120.488 58.5005C120.237 58.8125 119.86 59.1028 119.357 59.3715C118.854 59.6315 118.308 59.7615 117.719 59.7615C117.138 59.7615 116.666 59.6228 116.302 59.3455C115.947 59.0595 115.635 58.6045 115.366 57.9805L114.222 55.3545C114.04 54.9298 113.815 54.6741 113.546 54.5875C113.277 54.5008 112.931 54.4575 112.506 54.4575H111.999V59.5145C111.652 59.5751 111.293 59.6141 110.92 59.6315C110.556 59.6575 110.244 59.6705 109.984 59.6705C109.741 59.6705 109.421 59.6575 109.022 59.6315C108.623 59.6141 108.259 59.5751 107.93 59.5145V45.3185L108.073 45.1625C109.122 45.1365 110.105 45.1148 111.024 45.0975C111.951 45.0715 112.874 45.0585 113.793 45.0585C114.833 45.0585 115.795 45.1971 116.679 45.4745C117.563 45.7431 118.269 46.2068 118.798 46.8655C119.335 47.5155 119.604 48.4081 119.604 49.5435ZM111.999 47.9965V51.3635C112.302 51.3548 112.58 51.3505 112.831 51.3505C113.091 51.3418 113.282 51.3375 113.403 51.3375C114.183 51.3375 114.712 51.1685 114.989 50.8305C115.266 50.4925 115.405 50.0981 115.405 49.6475C115.405 49.2055 115.266 48.8241 114.989 48.5035C114.712 48.1828 114.248 48.0225 113.598 48.0225C113.286 48.0225 113.017 48.0181 112.792 48.0095C112.567 48.0008 112.302 47.9965 111.999 47.9965ZM124.917 50.0635C124.917 49.7861 124.921 49.5305 124.93 49.2965C124.938 49.0538 124.943 48.7851 124.943 48.4905C124.761 48.4905 124.509 48.4948 124.189 48.5035C123.877 48.5121 123.63 48.5165 123.448 48.5165H121.043C120.973 48.2045 120.93 47.9141 120.913 47.6455C120.895 47.3681 120.887 47.1168 120.887 46.8915C120.887 46.6661 120.895 46.4018 120.913 46.0985C120.93 45.7865 120.973 45.4831 121.043 45.1885H132.808C132.868 45.4225 132.912 45.6868 132.938 45.9815C132.972 46.2761 132.99 46.5145 132.99 46.6965C132.99 47.2858 132.834 47.7365 132.522 48.0485C132.21 48.3605 131.69 48.5165 130.962 48.5165H130.429C130.247 48.5165 130.004 48.5121 129.701 48.5035C129.406 48.4948 129.176 48.4905 129.012 48.4905C129.012 48.7851 129.016 49.0538 129.025 49.2965C129.033 49.5305 129.038 49.7861 129.038 50.0635V59.5145C128.795 59.5665 128.461 59.6055 128.037 59.6315C127.612 59.6575 127.257 59.6705 126.971 59.6705C126.702 59.6705 126.364 59.6575 125.957 59.6315C125.549 59.6055 125.203 59.5665 124.917 59.5145V50.0635ZM145.65 56.2515C145.65 57.4908 145.455 58.3531 145.065 58.8385C144.683 59.3238 144.033 59.5665 143.115 59.5665H137.122C136.385 59.5665 135.804 59.3585 135.38 58.9425C134.955 58.5178 134.743 57.9501 134.743 57.2395V45.3315L134.886 45.1885H145.169C145.229 45.4831 145.264 45.7648 145.273 46.0335C145.281 46.3021 145.286 46.5578 145.286 46.8005C145.286 47.0345 145.26 47.2988 145.208 47.5935C145.164 47.8881 145.086 48.1871 144.974 48.4905H140.424C140.06 48.4905 139.509 48.4861 138.773 48.4775C138.781 48.7461 138.786 48.9758 138.786 49.1665C138.794 49.3571 138.799 49.5868 138.799 49.8555V50.7135C139.518 50.7048 140.06 50.7005 140.424 50.7005H143.752C143.838 50.9345 143.895 51.2031 143.921 51.5065C143.955 51.8011 143.973 52.0525 143.973 52.2605C143.973 52.5031 143.955 52.7761 143.921 53.0795C143.895 53.3741 143.838 53.6428 143.752 53.8855H140.424C140.259 53.8855 140.029 53.8855 139.735 53.8855C139.44 53.8855 139.128 53.8855 138.799 53.8855V54.7305C138.799 55.0511 138.794 55.3155 138.786 55.5235C138.777 55.7315 138.773 55.9915 138.773 56.3035V56.3295C139.076 56.3121 139.358 56.2948 139.618 56.2775C139.878 56.2601 140.194 56.2515 140.567 56.2515H145.65Z" fill="white"/>
</svg>
