<svg width="132" height="18" viewBox="0 0 132 18" fill="none" xmlns="http://www.w3.org/2000/svg">
<path d="M0.676688 0.607999C0.988688 0.552 1.32869 0.515999 1.69669 0.499999C2.06469 0.475999 2.36869 0.464 2.60869 0.464C2.86469 0.464 3.16869 0.475999 3.52069 0.499999C3.87269 0.515999 4.20869 0.552 4.52869 0.607999V17C4.20869 17.056 3.87269 17.092 3.52069 17.108C3.16869 17.132 2.86469 17.144 2.60869 17.144C2.36869 17.144 2.06469 17.132 1.69669 17.108C1.32869 17.092 0.988688 17.056 0.676688 17V0.607999ZM20.2099 10.412C20.2099 12.652 19.6859 14.328 18.6379 15.44C17.5899 16.544 15.9379 17.096 13.6819 17.096C12.7299 17.096 11.8259 17.088 10.9699 17.072C10.1219 17.064 9.22588 17.048 8.28188 17.024L8.14988 16.88V3.896L8.28188 3.752C9.23388 3.728 10.1339 3.708 10.9819 3.692C11.8299 3.668 12.7299 3.656 13.6819 3.656C15.9139 3.656 17.5579 4.236 18.6139 5.396C19.6779 6.548 20.2099 8.22 20.2099 10.412ZM16.3459 10.412C16.3459 9.828 16.2859 9.244 16.1659 8.66C16.0459 8.068 15.7939 7.572 15.4099 7.172C15.0259 6.772 14.4499 6.572 13.6819 6.572C13.3299 6.572 13.0259 6.572 12.7699 6.572C12.5219 6.564 12.2339 6.556 11.9059 6.548V14.228C12.2499 14.228 12.5419 14.224 12.7819 14.216C13.0299 14.208 13.3299 14.204 13.6819 14.204C14.4499 14.204 15.0259 14.008 15.4099 13.616C15.7939 13.216 16.0459 12.724 16.1659 12.14C16.2859 11.556 16.3459 10.98 16.3459 10.412ZM28.83 0.631999C29.238 0.559999 29.682 0.512 30.162 0.487999C30.65 0.463999 31.07 0.451999 31.422 0.451999C31.774 0.451999 32.166 0.463999 32.598 0.487999C33.03 0.512 33.45 0.559999 33.858 0.631999L35.274 6.5C35.306 6.644 35.358 6.892 35.43 7.244C35.51 7.596 35.598 7.996 35.694 8.444C35.79 8.892 35.878 9.332 35.958 9.764C36.046 10.196 36.114 10.564 36.162 10.868H36.33C36.378 10.564 36.446 10.196 36.534 9.764C36.622 9.332 36.71 8.892 36.798 8.444C36.894 7.996 36.982 7.596 37.062 7.244C37.142 6.892 37.198 6.644 37.23 6.5L38.646 0.631999C39.054 0.559999 39.47 0.512 39.894 0.487999C40.326 0.463999 40.718 0.451999 41.07 0.451999C41.422 0.451999 41.842 0.463999 42.33 0.487999C42.818 0.512 43.262 0.559999 43.662 0.631999L44.934 16.952C44.662 17.024 44.346 17.072 43.986 17.096C43.634 17.128 43.302 17.144 42.99 17.144C42.702 17.144 42.418 17.136 42.138 17.12C41.866 17.104 41.59 17.072 41.31 17.024L40.95 10.34C40.902 9.492 40.858 8.556 40.818 7.532C40.778 6.508 40.758 5.604 40.758 4.82H40.59L38.226 14.588C37.938 14.636 37.602 14.672 37.218 14.696C36.834 14.712 36.506 14.72 36.234 14.72C35.994 14.72 35.678 14.712 35.286 14.696C34.894 14.672 34.554 14.636 34.266 14.588L31.902 4.82H31.746C31.738 5.604 31.714 6.508 31.674 7.532C31.642 8.556 31.602 9.492 31.554 10.34L31.182 17.024C30.91 17.072 30.634 17.104 30.354 17.12C30.074 17.136 29.79 17.144 29.502 17.144C29.198 17.144 28.866 17.128 28.506 17.096C28.154 17.072 27.838 17.024 27.558 16.952L28.83 0.631999ZM48.0182 3.776C48.3222 3.712 48.6662 3.672 49.0502 3.656C49.4342 3.64 49.7382 3.632 49.9622 3.632C50.2022 3.632 50.4902 3.64 50.8262 3.656C51.1702 3.672 51.5022 3.712 51.8222 3.776V17C51.5022 17.056 51.1702 17.092 50.8262 17.108C50.4902 17.132 50.2022 17.144 49.9622 17.144C49.7382 17.144 49.4342 17.132 49.0502 17.108C48.6662 17.092 48.3222 17.056 48.0182 17V3.776ZM65.3741 13.988C65.3741 15.132 65.1941 15.928 64.8341 16.376C64.4821 16.824 63.8821 17.048 63.0341 17.048H57.5021C56.8221 17.048 56.2861 16.856 55.8941 16.472C55.5021 16.08 55.3061 15.556 55.3061 14.9V3.908L55.4381 3.776H64.9301C64.9861 4.048 65.0181 4.308 65.0261 4.556C65.0341 4.804 65.0381 5.04 65.0381 5.264C65.0381 5.48 65.0141 5.724 64.9661 5.996C64.9261 6.268 64.8541 6.544 64.7501 6.824H60.5501C60.2141 6.824 59.7061 6.82 59.0261 6.812C59.0341 7.06 59.0381 7.272 59.0381 7.448C59.0461 7.624 59.0501 7.836 59.0501 8.084V8.876C59.7141 8.868 60.2141 8.864 60.5501 8.864H63.6221C63.7021 9.08 63.7541 9.328 63.7781 9.608C63.8101 9.88 63.8261 10.112 63.8261 10.304C63.8261 10.528 63.8101 10.78 63.7781 11.06C63.7541 11.332 63.7021 11.58 63.6221 11.804H60.5501C60.3981 11.804 60.1861 11.804 59.9141 11.804C59.6421 11.804 59.3541 11.804 59.0501 11.804V12.584C59.0501 12.88 59.0461 13.124 59.0381 13.316C59.0301 13.508 59.0261 13.748 59.0261 14.036V14.06C59.3061 14.044 59.5661 14.028 59.8061 14.012C60.0461 13.996 60.3381 13.988 60.6821 13.988H65.3741ZM68.8258 3.776C69.2098 3.704 69.6298 3.656 70.0858 3.632C70.5418 3.6 70.9258 3.584 71.2378 3.584C71.5338 3.584 71.9178 3.6 72.3898 3.632C72.8618 3.656 73.2578 3.704 73.5778 3.776L74.7538 8.984C74.8258 9.296 74.9098 9.72 75.0058 10.256C75.1018 10.784 75.1978 11.352 75.2938 11.96H75.4498C75.6418 10.68 75.8218 9.688 75.9898 8.984L77.1538 3.776C77.5298 3.704 77.9418 3.656 78.3898 3.632C78.8378 3.6 79.2098 3.584 79.5058 3.584C79.8178 3.584 80.2058 3.6 80.6698 3.632C81.1338 3.656 81.5498 3.704 81.9178 3.776L83.2738 16.952C82.7538 17.08 82.1258 17.144 81.3898 17.144C81.1098 17.144 80.8098 17.132 80.4898 17.108C80.1778 17.084 79.8978 17.048 79.6498 17L79.3018 12.752C79.2618 12.208 79.2378 11.612 79.2298 10.964C79.2218 10.316 79.2218 9.684 79.2298 9.068C79.2378 8.444 79.2378 7.904 79.2298 7.448H79.0858L77.3218 14.972C77.0498 15.02 76.7178 15.056 76.3258 15.08C75.9338 15.096 75.6098 15.104 75.3538 15.104C75.0898 15.104 74.7618 15.096 74.3698 15.08C73.9858 15.056 73.6658 15.02 73.4098 14.972L71.6578 7.448H71.4898C71.4898 7.912 71.4898 8.452 71.4898 9.068C71.4978 9.684 71.4978 10.316 71.4898 10.964C71.4818 11.612 71.4538 12.216 71.4058 12.776L71.0938 17C70.8378 17.048 70.5578 17.084 70.2538 17.108C69.9578 17.132 69.6698 17.144 69.3898 17.144C68.6458 17.144 68.0058 17.08 67.4698 16.952L68.8258 3.776ZM86.3522 3.752C86.7682 3.736 87.2682 3.72 87.8522 3.704C88.4442 3.688 89.0522 3.676 89.6762 3.668C90.3002 3.66 90.8722 3.656 91.3922 3.656C92.3762 3.656 93.2562 3.768 94.0322 3.992C94.8162 4.216 95.4322 4.588 95.8802 5.108C96.3282 5.62 96.5522 6.308 96.5522 7.172C96.5522 7.732 96.3962 8.264 96.0842 8.768C95.7802 9.272 95.3602 9.628 94.8242 9.836C95.5122 10.052 96.0882 10.476 96.5522 11.108C97.0162 11.732 97.2482 12.408 97.2482 13.136C97.2482 14.16 97.0082 14.96 96.5282 15.536C96.0562 16.104 95.4002 16.508 94.5602 16.748C93.7282 16.98 92.7762 17.096 91.7042 17.096C90.8802 17.096 90.0242 17.088 89.1362 17.072C88.2482 17.064 87.3202 17.048 86.3522 17.024L86.2202 16.904V3.896L86.3522 3.752ZM91.2242 6.236C91.0722 6.236 90.8682 6.236 90.6122 6.236C90.3562 6.236 90.1122 6.228 89.8802 6.212V8.792H91.2002C91.8402 8.792 92.2762 8.66 92.5082 8.396C92.7402 8.132 92.8562 7.836 92.8562 7.508C92.8562 7.188 92.7402 6.896 92.5082 6.632C92.2842 6.368 91.8562 6.236 91.2242 6.236ZM89.8802 14.516C90.2002 14.5 90.5122 14.492 90.8162 14.492C91.1202 14.492 91.3962 14.492 91.6442 14.492C92.3722 14.492 92.8522 14.328 93.0842 14C93.3242 13.664 93.4442 13.32 93.4442 12.968C93.4442 12.584 93.3002 12.224 93.0122 11.888C92.7322 11.552 92.2122 11.384 91.4522 11.384H89.8802V14.516ZM110.543 7.796C110.543 8.412 110.403 8.96 110.123 9.44C109.843 9.92 109.491 10.316 109.067 10.628C108.651 10.94 108.235 11.14 107.819 11.228C108.251 11.372 108.607 11.592 108.887 11.888C109.175 12.184 109.423 12.564 109.631 13.028L110.255 14.456C110.399 14.784 110.563 15.088 110.747 15.368C110.931 15.64 111.135 15.872 111.359 16.064C111.127 16.352 110.779 16.62 110.315 16.868C109.851 17.108 109.347 17.228 108.803 17.228C108.267 17.228 107.831 17.1 107.495 16.844C107.167 16.58 106.879 16.16 106.631 15.584L105.575 13.16C105.407 12.768 105.199 12.532 104.951 12.452C104.703 12.372 104.383 12.332 103.991 12.332H103.523V17C103.203 17.056 102.871 17.092 102.527 17.108C102.191 17.132 101.903 17.144 101.663 17.144C101.439 17.144 101.143 17.132 100.775 17.108C100.407 17.092 100.071 17.056 99.7671 17V3.896L99.8991 3.752C100.867 3.728 101.775 3.708 102.623 3.692C103.479 3.668 104.331 3.656 105.179 3.656C106.139 3.656 107.027 3.784 107.843 4.04C108.659 4.288 109.311 4.716 109.799 5.324C110.295 5.924 110.543 6.748 110.543 7.796ZM103.523 6.368V9.476C103.803 9.468 104.059 9.464 104.291 9.464C104.531 9.456 104.707 9.452 104.819 9.452C105.539 9.452 106.027 9.296 106.283 8.984C106.539 8.672 106.667 8.308 106.667 7.892C106.667 7.484 106.539 7.132 106.283 6.836C106.027 6.54 105.599 6.392 104.999 6.392C104.711 6.392 104.463 6.388 104.255 6.38C104.047 6.372 103.803 6.368 103.523 6.368ZM112.319 10.412C112.319 8.268 112.871 6.568 113.975 5.312C115.087 4.048 116.707 3.416 118.835 3.416C120.995 3.416 122.623 4.044 123.719 5.3C124.823 6.548 125.375 8.252 125.375 10.412C125.375 12.572 124.823 14.272 123.719 15.512C122.615 16.744 120.987 17.36 118.835 17.36C116.675 17.36 115.047 16.736 113.951 15.488C112.863 14.24 112.319 12.548 112.319 10.412ZM116.195 10.412C116.195 10.868 116.223 11.34 116.279 11.828C116.343 12.308 116.463 12.756 116.639 13.172C116.823 13.588 117.091 13.928 117.443 14.192C117.795 14.448 118.263 14.576 118.847 14.576C119.431 14.576 119.899 14.448 120.251 14.192C120.603 13.928 120.867 13.588 121.043 13.172C121.227 12.756 121.347 12.308 121.403 11.828C121.467 11.34 121.499 10.868 121.499 10.412C121.499 9.948 121.467 9.472 121.403 8.984C121.347 8.488 121.227 8.032 121.043 7.616C120.867 7.192 120.603 6.852 120.251 6.596C119.899 6.332 119.431 6.2 118.847 6.2C118.263 6.2 117.795 6.332 117.443 6.596C117.091 6.852 116.823 7.192 116.639 7.616C116.463 8.032 116.343 8.488 116.279 8.984C116.223 9.472 116.195 9.948 116.195 10.412ZM127.485 15.368C127.485 15.224 127.505 15 127.545 14.696C127.593 14.392 127.669 14.132 127.773 13.916C128.013 13.78 128.305 13.672 128.649 13.592C129.001 13.512 129.337 13.472 129.657 13.472C129.969 13.472 130.301 13.512 130.653 13.592C131.005 13.672 131.301 13.78 131.541 13.916C131.645 14.132 131.717 14.392 131.757 14.696C131.797 15 131.817 15.224 131.817 15.368C131.817 15.512 131.797 15.736 131.757 16.04C131.717 16.344 131.645 16.604 131.541 16.82C131.301 16.964 131.005 17.072 130.653 17.144C130.301 17.216 129.969 17.252 129.657 17.252C129.337 17.252 129.001 17.216 128.649 17.144C128.305 17.072 128.013 16.964 127.773 16.82C127.669 16.604 127.593 16.344 127.545 16.04C127.505 15.736 127.485 15.512 127.485 15.368ZM127.485 7.952C127.485 7.808 127.505 7.584 127.545 7.28C127.593 6.976 127.669 6.716 127.773 6.5C128.013 6.364 128.305 6.256 128.649 6.176C129.001 6.096 129.337 6.056 129.657 6.056C129.969 6.056 130.301 6.096 130.653 6.176C131.005 6.256 131.301 6.364 131.541 6.5C131.645 6.716 131.717 6.976 131.757 7.28C131.797 7.584 131.817 7.808 131.817 7.952C131.817 8.096 131.797 8.32 131.757 8.624C131.717 8.928 131.645 9.188 131.541 9.404C131.301 9.548 131.005 9.656 130.653 9.728C130.301 9.8 129.969 9.836 129.657 9.836C129.337 9.836 129.001 9.8 128.649 9.728C128.305 9.656 128.013 9.548 127.773 9.404C127.669 9.188 127.593 8.928 127.545 8.624C127.505 8.32 127.485 8.096 127.485 7.952Z" fill="#364760"/>
</svg>
