<svg width="37" height="34" viewBox="0 0 37 34" fill="none" xmlns="http://www.w3.org/2000/svg">
<path d="M31.1579 8.94737V14.2979C31.1579 14.2979 27.2826 14.3158 27.2632 14.2979V8.94737H21.4211C21.4211 8.94737 21.4405 5.38632 21.4211 5.36842H27.2632V0H31.1579V5.36842H37V8.94737H31.1579ZM25.3158 16.1053V10.7368H19.4737V5.36842H3.89474C1.75263 5.36842 0 6.97895 0 8.94737V30.4211C0 32.3895 1.75263 34 3.89474 34H27.2632C29.4053 34 31.1579 32.3895 31.1579 30.4211V16.1053H25.3158ZM3.89474 30.4211L9.73684 23.2632L13.6316 28.6316L19.4737 21.4737L27.2632 30.4211H3.89474Z" fill="black"/>
</svg>
