<svg width="316" height="35" viewBox="0 0 316 35" fill="none" xmlns="http://www.w3.org/2000/svg">
<path d="M10.2753 16.816C9.74731 15.584 9.25131 14.376 8.78731 13.192C8.32331 12.008 7.92331 10.96 7.58731 10.048L7.39531 10.12C7.52331 11.48 7.62731 13.024 7.70731 14.752C7.80331 16.464 7.87531 18.176 7.92331 19.888C7.97131 21.6 7.99531 23.12 7.99531 24.448V34C7.37131 34.112 6.75531 34.184 6.14731 34.216C5.53931 34.264 4.99531 34.288 4.51531 34.288C4.05131 34.288 3.46731 34.264 2.76331 34.216C2.07531 34.184 1.43531 34.112 0.843313 34V1.36C1.43531 1.216 2.21931 1.112 3.19531 1.048C4.17131 0.967999 4.89931 0.927999 5.37931 0.927999C5.87531 0.927999 6.53131 0.951999 7.34731 0.999997C8.16331 1.032 8.99531 1.104 9.84331 1.216L17.2353 18.352C17.8433 19.76 18.4033 21.104 18.9153 22.384C19.4433 23.664 19.8833 24.744 20.2353 25.624L20.4273 25.552C20.2993 24.064 20.1873 22.432 20.0913 20.656C20.0113 18.88 19.9473 17.168 19.8993 15.52C19.8513 13.872 19.8273 12.496 19.8273 11.392V5.536C19.8273 3.824 20.1713 2.624 20.8593 1.936C21.5633 1.248 22.6513 0.903998 24.1233 0.903998H26.6193L26.9313 1.216V33.856C26.3233 34 25.5233 34.104 24.5313 34.168C23.5553 34.248 22.8113 34.288 22.2993 34.288C21.8033 34.288 21.1473 34.264 20.3313 34.216C19.5153 34.184 18.6913 34.112 17.8593 34L10.2753 16.816ZM57.0652 24.088C57.0652 27.4 56.0732 30 54.0892 31.888C52.1212 33.776 49.2012 34.72 45.3292 34.72C41.4572 34.72 38.5292 33.776 36.5452 31.888C34.5772 30 33.5932 27.4 33.5932 24.088V7.552L33.8812 7.264H36.6172C38.0732 7.264 39.1932 7.632 39.9772 8.368C40.7772 9.104 41.1772 10.344 41.1772 12.088V24.064C41.1772 25.52 41.4812 26.664 42.0892 27.496C42.6972 28.328 43.7772 28.744 45.3292 28.744C46.8972 28.744 47.9772 28.328 48.5692 27.496C49.1612 26.664 49.4572 25.52 49.4572 24.064V7.552C50.0972 7.424 50.7532 7.344 51.4252 7.312C52.0972 7.28 52.6812 7.264 53.1772 7.264C53.6252 7.264 54.2332 7.288 55.0012 7.336C55.7692 7.368 56.4572 7.448 57.0652 7.576V24.088ZM83.6467 27.976C83.6467 30.264 83.2867 31.856 82.5667 32.752C81.8627 33.648 80.6627 34.096 78.9667 34.096H67.9027C66.5427 34.096 65.4707 33.712 64.6867 32.944C63.9027 32.16 63.5107 31.112 63.5107 29.8V7.816L63.7747 7.552H82.7587C82.8707 8.096 82.9347 8.616 82.9507 9.112C82.9667 9.608 82.9747 10.08 82.9747 10.528C82.9747 10.96 82.9267 11.448 82.8307 11.992C82.7507 12.536 82.6067 13.088 82.3987 13.648H73.9987C73.3267 13.648 72.3107 13.64 70.9507 13.624C70.9667 14.12 70.9747 14.544 70.9747 14.896C70.9907 15.248 70.9987 15.672 70.9987 16.168V17.752C72.3267 17.736 73.3267 17.728 73.9987 17.728H80.1427C80.3027 18.16 80.4067 18.656 80.4547 19.216C80.5187 19.76 80.5507 20.224 80.5507 20.608C80.5507 21.056 80.5187 21.56 80.4547 22.12C80.4067 22.664 80.3027 23.16 80.1427 23.608H73.9987C73.6947 23.608 73.2707 23.608 72.7267 23.608C72.1827 23.608 71.6067 23.608 70.9987 23.608V25.168C70.9987 25.76 70.9907 26.248 70.9747 26.632C70.9587 27.016 70.9507 27.496 70.9507 28.072V28.12C71.5107 28.088 72.0307 28.056 72.5107 28.024C72.9907 27.992 73.5747 27.976 74.2627 27.976H83.6467ZM104.398 7.552C104.974 7.424 105.478 7.344 105.91 7.312C106.358 7.28 106.814 7.264 107.278 7.264C107.854 7.264 108.454 7.296 109.078 7.36C109.718 7.424 110.398 7.56 111.118 7.768L111.454 8.128L103.582 34C102.862 34.112 101.918 34.184 100.75 34.216C99.5821 34.264 98.5181 34.288 97.5581 34.288C96.2941 34.288 95.2221 34.088 94.3421 33.688C93.4781 33.272 92.8541 32.376 92.4701 31L85.6301 8.08C86.2861 7.808 86.9741 7.6 87.6941 7.456C88.4301 7.296 89.1821 7.216 89.9501 7.216C91.1021 7.216 91.9981 7.488 92.6381 8.032C93.2941 8.56 93.8141 9.48 94.1981 10.792L96.7661 19.384C97.1341 20.68 97.4621 22 97.7501 23.344C98.0541 24.688 98.3501 26.208 98.6381 27.904C98.7021 28.176 98.8621 28.312 99.1181 28.312L104.398 7.552ZM120.293 29.368C120.037 29.368 119.789 29.368 119.549 29.368C119.309 29.352 119.069 29.336 118.829 29.32L117.341 34C116.877 34.112 116.373 34.192 115.829 34.24C115.285 34.304 114.717 34.336 114.125 34.336C113.485 34.336 112.837 34.288 112.181 34.192C111.541 34.096 111.013 33.96 110.597 33.784L110.333 33.376L119.669 7.552C120.501 7.424 121.301 7.344 122.069 7.312C122.853 7.28 123.565 7.264 124.205 7.264C124.797 7.264 125.437 7.28 126.125 7.312C126.813 7.344 127.589 7.424 128.453 7.552L137.525 33.64C136.965 33.896 136.253 34.088 135.389 34.216C134.525 34.36 133.829 34.432 133.301 34.432C132.421 34.432 131.573 34.264 130.757 33.928C129.941 33.592 129.325 32.704 128.909 31.264L128.309 29.32C128.053 29.336 127.805 29.352 127.565 29.368C127.325 29.368 127.069 29.368 126.797 29.368H120.293ZM121.253 21.784L120.725 23.44C120.965 23.424 121.205 23.416 121.445 23.416C121.685 23.4 121.933 23.392 122.189 23.392H125.189C125.429 23.392 125.645 23.4 125.837 23.416C126.045 23.416 126.253 23.424 126.461 23.44L125.957 21.808C125.589 20.544 125.221 19.136 124.853 17.584C124.485 16.032 124.149 14.624 123.845 13.36H123.557C123.221 14.576 122.845 15.968 122.429 17.536C122.029 19.104 121.637 20.52 121.253 21.784ZM161.353 16.816C160.825 15.584 160.329 14.376 159.865 13.192C159.401 12.008 159.001 10.96 158.665 10.048L158.473 10.12C158.601 11.48 158.705 13.024 158.785 14.752C158.881 16.464 158.953 18.176 159.001 19.888C159.049 21.6 159.073 23.12 159.073 24.448V34C158.449 34.112 157.833 34.184 157.225 34.216C156.617 34.264 156.073 34.288 155.593 34.288C155.129 34.288 154.545 34.264 153.841 34.216C153.153 34.184 152.513 34.112 151.921 34V1.36C152.513 1.216 153.297 1.112 154.273 1.048C155.249 0.967999 155.977 0.927999 156.457 0.927999C156.953 0.927999 157.609 0.951999 158.425 0.999997C159.241 1.032 160.073 1.104 160.921 1.216L168.313 18.352C168.921 19.76 169.481 21.104 169.993 22.384C170.521 23.664 170.961 24.744 171.313 25.624L171.505 25.552C171.377 24.064 171.265 22.432 171.169 20.656C171.089 18.88 171.025 17.168 170.977 15.52C170.929 13.872 170.905 12.496 170.905 11.392V5.536C170.905 3.824 171.249 2.624 171.937 1.936C172.641 1.248 173.729 0.903998 175.201 0.903998H177.697L178.009 1.216V33.856C177.401 34 176.601 34.104 175.609 34.168C174.633 34.248 173.889 34.288 173.377 34.288C172.881 34.288 172.225 34.264 171.409 34.216C170.593 34.184 169.769 34.112 168.937 34L161.353 16.816ZM183.207 20.824C183.207 16.536 184.311 13.136 186.519 10.624C188.743 8.096 191.983 6.832 196.239 6.832C200.559 6.832 203.815 8.088 206.007 10.6C208.215 13.096 209.319 16.504 209.319 20.824C209.319 25.144 208.215 28.544 206.007 31.024C203.799 33.488 200.543 34.72 196.239 34.72C191.919 34.72 188.663 33.472 186.471 30.976C184.295 28.48 183.207 25.096 183.207 20.824ZM190.959 20.824C190.959 21.736 191.015 22.68 191.127 23.656C191.255 24.616 191.495 25.512 191.847 26.344C192.215 27.176 192.751 27.856 193.455 28.384C194.159 28.896 195.095 29.152 196.263 29.152C197.431 29.152 198.367 28.896 199.071 28.384C199.775 27.856 200.303 27.176 200.655 26.344C201.023 25.512 201.263 24.616 201.375 23.656C201.503 22.68 201.567 21.736 201.567 20.824C201.567 19.896 201.503 18.944 201.375 17.968C201.263 16.976 201.023 16.064 200.655 15.232C200.303 14.384 199.775 13.704 199.071 13.192C198.367 12.664 197.431 12.4 196.263 12.4C195.095 12.4 194.159 12.664 193.455 13.192C192.751 13.704 192.215 14.384 191.847 15.232C191.495 16.064 191.255 16.976 191.127 17.968C191.015 18.944 190.959 19.896 190.959 20.824ZM217.777 16.552C217.777 16.04 217.785 15.568 217.801 15.136C217.817 14.688 217.825 14.192 217.825 13.648C217.489 13.648 217.025 13.656 216.433 13.672C215.857 13.688 215.401 13.696 215.065 13.696H210.625C210.497 13.12 210.417 12.584 210.385 12.088C210.353 11.576 210.337 11.112 210.337 10.696C210.337 10.28 210.353 9.792 210.385 9.232C210.417 8.656 210.497 8.096 210.625 7.552H232.345C232.457 7.984 232.537 8.472 232.585 9.016C232.649 9.56 232.681 10 232.681 10.336C232.681 11.424 232.393 12.256 231.817 12.832C231.241 13.408 230.281 13.696 228.937 13.696H227.953C227.617 13.696 227.169 13.688 226.609 13.672C226.065 13.656 225.641 13.648 225.337 13.648C225.337 14.192 225.345 14.688 225.361 15.136C225.377 15.568 225.385 16.04 225.385 16.552V34C224.937 34.096 224.321 34.168 223.537 34.216C222.753 34.264 222.097 34.288 221.569 34.288C221.073 34.288 220.449 34.264 219.697 34.216C218.945 34.168 218.305 34.096 217.777 34V16.552ZM236.013 7.552C236.621 7.424 237.309 7.344 238.077 7.312C238.845 7.28 239.453 7.264 239.901 7.264C240.381 7.264 240.957 7.28 241.629 7.312C242.317 7.344 242.981 7.424 243.621 7.552V34C242.981 34.112 242.317 34.184 241.629 34.216C240.957 34.264 240.381 34.288 239.901 34.288C239.453 34.288 238.845 34.264 238.077 34.216C237.309 34.184 236.621 34.112 236.013 34V7.552ZM265.229 19.528C265.229 17.496 264.957 15.864 264.413 14.632C263.869 13.384 262.773 12.76 261.125 12.76C259.413 12.76 258.197 13.464 257.477 14.872C256.757 16.28 256.397 18.304 256.397 20.944C256.397 22.96 256.653 24.512 257.165 25.6C257.693 26.672 258.365 27.416 259.181 27.832C259.997 28.248 260.861 28.456 261.773 28.456C262.957 28.456 264.141 28.2 265.325 27.688C266.525 27.16 267.597 26.544 268.541 25.84C269.053 26.096 269.549 26.504 270.029 27.064C270.509 27.624 270.925 28.224 271.277 28.864C271.629 29.504 271.853 30.088 271.949 30.616C270.621 31.752 269.005 32.72 267.101 33.52C265.213 34.32 263.061 34.72 260.645 34.72C258.325 34.72 256.389 34.312 254.837 33.496C253.301 32.68 252.077 31.608 251.165 30.28C250.253 28.936 249.605 27.448 249.221 25.816C248.837 24.184 248.645 22.544 248.645 20.896C248.645 17.616 249.237 14.944 250.421 12.88C251.621 10.8 253.189 9.272 255.125 8.296C257.077 7.32 259.165 6.832 261.389 6.832C263.885 6.832 265.941 7.272 267.557 8.152C269.173 9.032 270.373 10.144 271.157 11.488C271.941 12.832 272.333 14.216 272.333 15.64C272.333 18.376 270.797 19.744 267.725 19.744C267.357 19.744 266.957 19.72 266.525 19.672C266.093 19.624 265.661 19.576 265.229 19.528ZM277.075 7.552C277.683 7.424 278.371 7.344 279.139 7.312C279.907 7.28 280.515 7.264 280.963 7.264C281.443 7.264 282.019 7.28 282.691 7.312C283.379 7.344 284.043 7.424 284.683 7.552V34C284.043 34.112 283.379 34.184 282.691 34.216C282.019 34.264 281.443 34.288 280.963 34.288C280.515 34.288 279.907 34.264 279.139 34.216C278.371 34.184 277.683 34.112 277.075 34V7.552ZM298.371 29.368C298.115 29.368 297.867 29.368 297.627 29.368C297.387 29.352 297.147 29.336 296.907 29.32L295.419 34C294.955 34.112 294.451 34.192 293.907 34.24C293.363 34.304 292.795 34.336 292.203 34.336C291.563 34.336 290.915 34.288 290.259 34.192C289.619 34.096 289.091 33.96 288.675 33.784L288.411 33.376L297.747 7.552C298.579 7.424 299.379 7.344 300.147 7.312C300.931 7.28 301.643 7.264 302.283 7.264C302.875 7.264 303.515 7.28 304.203 7.312C304.891 7.344 305.667 7.424 306.531 7.552L315.603 33.64C315.043 33.896 314.331 34.088 313.467 34.216C312.603 34.36 311.907 34.432 311.379 34.432C310.499 34.432 309.651 34.264 308.835 33.928C308.019 33.592 307.403 32.704 306.987 31.264L306.387 29.32C306.131 29.336 305.883 29.352 305.643 29.368C305.403 29.368 305.147 29.368 304.875 29.368H298.371ZM299.331 21.784L298.803 23.44C299.043 23.424 299.283 23.416 299.523 23.416C299.763 23.4 300.011 23.392 300.267 23.392H303.267C303.507 23.392 303.723 23.4 303.915 23.416C304.123 23.416 304.331 23.424 304.539 23.44L304.035 21.808C303.667 20.544 303.299 19.136 302.931 17.584C302.563 16.032 302.227 14.624 301.923 13.36H301.635C301.299 14.576 300.923 15.968 300.507 17.536C300.107 19.104 299.715 20.52 299.331 21.784Z" fill="#364760"/>
</svg>
