<svg width="237" height="27" viewBox="0 0 237 27" fill="none" xmlns="http://www.w3.org/2000/svg">
<path d="M7.83148 12.9069C7.43548 11.9829 7.06348 11.0769 6.71548 10.1889C6.36748 9.30092 6.06748 8.51492 5.81548 7.83092L5.67148 7.88492C5.76748 8.90492 5.84548 10.0629 5.90548 11.3589C5.97748 12.6429 6.03148 13.9269 6.06748 15.2109C6.10348 16.4949 6.12148 17.6349 6.12148 18.6309V25.7949C5.65348 25.8789 5.19148 25.9329 4.73548 25.9569C4.27948 25.9929 3.87148 26.0109 3.51148 26.0109C3.16348 26.0109 2.72548 25.9929 2.19748 25.9569C1.68148 25.9329 1.20148 25.8789 0.757485 25.7949V1.31492C1.20148 1.20692 1.78948 1.12892 2.52148 1.08092C3.25348 1.02092 3.79948 0.990921 4.15948 0.990921C4.53148 0.990921 5.02348 1.00892 5.63548 1.04492C6.24748 1.06892 6.87148 1.12292 7.50748 1.20692L13.0515 14.0589C13.5075 15.1149 13.9275 16.1229 14.3115 17.0829C14.7075 18.0429 15.0375 18.8529 15.3015 19.5129L15.4455 19.4589C15.3495 18.3429 15.2655 17.1189 15.1935 15.7869C15.1335 14.4549 15.0855 13.1709 15.0495 11.9349C15.0135 10.6989 14.9955 9.66692 14.9955 8.83892V4.44692C14.9955 3.16292 15.2535 2.26292 15.7695 1.74692C16.2975 1.23092 17.1135 0.972921 18.2175 0.972921H20.0895L20.3235 1.20692V25.6869C19.8675 25.7949 19.2675 25.8729 18.5235 25.9209C17.7915 25.9809 17.2335 26.0109 16.8495 26.0109C16.4775 26.0109 15.9855 25.9929 15.3735 25.9569C14.7615 25.9329 14.1435 25.8789 13.5195 25.7949L7.83148 12.9069ZM42.9239 18.3609C42.9239 20.8449 42.1799 22.7949 40.6919 24.2109C39.2159 25.6269 37.0259 26.3349 34.1219 26.3349C31.2179 26.3349 29.0219 25.6269 27.5339 24.2109C26.0579 22.7949 25.3199 20.8449 25.3199 18.3609V5.95892L25.5359 5.74292H27.5879C28.6799 5.74292 29.5199 6.01892 30.1079 6.57092C30.7079 7.12292 31.0079 8.05292 31.0079 9.36092V18.3429C31.0079 19.4349 31.2359 20.2929 31.6919 20.9169C32.1479 21.5409 32.9579 21.8529 34.1219 21.8529C35.2979 21.8529 36.1079 21.5409 36.5519 20.9169C36.9959 20.2929 37.2179 19.4349 37.2179 18.3429V5.95892C37.6979 5.86292 38.1899 5.80292 38.6939 5.77892C39.1979 5.75492 39.6359 5.74292 40.0079 5.74292C40.3439 5.74292 40.7999 5.76092 41.3759 5.79692C41.9519 5.82092 42.4679 5.88092 42.9239 5.97692V18.3609ZM62.86 21.2769C62.86 22.9929 62.59 24.1869 62.05 24.8589C61.522 25.5309 60.622 25.8669 59.35 25.8669H51.052C50.032 25.8669 49.228 25.5789 48.64 25.0029C48.052 24.4149 47.758 23.6289 47.758 22.6449V6.15692L47.956 5.95892H62.194C62.278 6.36692 62.326 6.75692 62.338 7.12892C62.35 7.50092 62.356 7.85492 62.356 8.19092C62.356 8.51492 62.32 8.88092 62.248 9.28892C62.188 9.69692 62.08 10.1109 61.924 10.5309H55.624C55.12 10.5309 54.358 10.5249 53.338 10.5129C53.35 10.8849 53.356 11.2029 53.356 11.4669C53.368 11.7309 53.374 12.0489 53.374 12.4209V13.6089C54.37 13.5969 55.12 13.5909 55.624 13.5909H60.232C60.352 13.9149 60.43 14.2869 60.466 14.7069C60.514 15.1149 60.538 15.4629 60.538 15.7509C60.538 16.0869 60.514 16.4649 60.466 16.8849C60.43 17.2929 60.352 17.6649 60.232 18.0009H55.624C55.396 18.0009 55.078 18.0009 54.67 18.0009C54.262 18.0009 53.83 18.0009 53.374 18.0009V19.1709C53.374 19.6149 53.368 19.9809 53.356 20.2689C53.344 20.5569 53.338 20.9169 53.338 21.3489V21.3849C53.758 21.3609 54.148 21.3369 54.508 21.3129C54.868 21.2889 55.306 21.2769 55.822 21.2769H62.86ZM78.4235 5.95892C78.8555 5.86292 79.2335 5.80292 79.5575 5.77892C79.8935 5.75492 80.2355 5.74292 80.5835 5.74292C81.0155 5.74292 81.4655 5.76692 81.9335 5.81492C82.4135 5.86292 82.9235 5.96492 83.4635 6.12092L83.7155 6.39092L77.8115 25.7949C77.2715 25.8789 76.5635 25.9329 75.6875 25.9569C74.8115 25.9929 74.0135 26.0109 73.2935 26.0109C72.3455 26.0109 71.5415 25.8609 70.8815 25.5609C70.2335 25.2489 69.7655 24.5769 69.4775 23.5449L64.3475 6.35492C64.8395 6.15092 65.3555 5.99492 65.8955 5.88692C66.4475 5.76692 67.0115 5.70692 67.5875 5.70692C68.4515 5.70692 69.1235 5.91092 69.6035 6.31892C70.0955 6.71492 70.4855 7.40492 70.7735 8.38892L72.6995 14.8329C72.9755 15.8049 73.2215 16.7949 73.4375 17.8029C73.6655 18.8109 73.8875 19.9509 74.1035 21.2229C74.1515 21.4269 74.2715 21.5289 74.4635 21.5289L78.4235 5.95892ZM90.3449 22.3209C90.1529 22.3209 89.9669 22.3209 89.7869 22.3209C89.6069 22.3089 89.4269 22.2969 89.2469 22.2849L88.1309 25.7949C87.7829 25.8789 87.4049 25.9389 86.9969 25.9749C86.5889 26.0229 86.1629 26.0469 85.7189 26.0469C85.2389 26.0469 84.7529 26.0109 84.2609 25.9389C83.7809 25.8669 83.3849 25.7649 83.0729 25.6329L82.8749 25.3269L89.8769 5.95892C90.5009 5.86292 91.1009 5.80292 91.6769 5.77892C92.2649 5.75492 92.7989 5.74292 93.2789 5.74292C93.7229 5.74292 94.2029 5.75492 94.7189 5.77892C95.2349 5.80292 95.8169 5.86292 96.4649 5.95892L103.269 25.5249C102.849 25.7169 102.315 25.8609 101.667 25.9569C101.019 26.0649 100.497 26.1189 100.101 26.1189C99.4409 26.1189 98.8049 25.9929 98.1929 25.7409C97.5809 25.4889 97.1189 24.8229 96.8069 23.7429L96.3569 22.2849C96.1649 22.2969 95.9789 22.3089 95.7989 22.3209C95.6189 22.3209 95.4269 22.3209 95.2229 22.3209H90.3449ZM91.0649 16.6329L90.6689 17.8749C90.8489 17.8629 91.0289 17.8569 91.2089 17.8569C91.3889 17.8449 91.5749 17.8389 91.7669 17.8389H94.0169C94.1969 17.8389 94.3589 17.8449 94.5029 17.8569C94.6589 17.8569 94.8149 17.8629 94.9709 17.8749L94.5929 16.6509C94.3169 15.7029 94.0409 14.6469 93.7649 13.4829C93.4889 12.3189 93.2369 11.2629 93.0089 10.3149H92.7929C92.5409 11.2269 92.2589 12.2709 91.9469 13.4469C91.6469 14.6229 91.3529 15.6849 91.0649 16.6329ZM121.14 12.9069C120.744 11.9829 120.372 11.0769 120.024 10.1889C119.676 9.30092 119.376 8.51492 119.124 7.83092L118.98 7.88492C119.076 8.90492 119.154 10.0629 119.214 11.3589C119.286 12.6429 119.34 13.9269 119.376 15.2109C119.412 16.4949 119.43 17.6349 119.43 18.6309V25.7949C118.962 25.8789 118.5 25.9329 118.044 25.9569C117.588 25.9929 117.18 26.0109 116.82 26.0109C116.472 26.0109 116.034 25.9929 115.506 25.9569C114.99 25.9329 114.51 25.8789 114.066 25.7949V1.31492C114.51 1.20692 115.098 1.12892 115.83 1.08092C116.562 1.02092 117.108 0.990921 117.468 0.990921C117.84 0.990921 118.332 1.00892 118.944 1.04492C119.556 1.06892 120.18 1.12292 120.816 1.20692L126.36 14.0589C126.816 15.1149 127.236 16.1229 127.62 17.0829C128.016 18.0429 128.346 18.8529 128.61 19.5129L128.754 19.4589C128.658 18.3429 128.574 17.1189 128.502 15.7869C128.442 14.4549 128.394 13.1709 128.358 11.9349C128.322 10.6989 128.304 9.66692 128.304 8.83892V4.44692C128.304 3.16292 128.562 2.26292 129.078 1.74692C129.606 1.23092 130.422 0.972921 131.526 0.972921H133.398L133.632 1.20692V25.6869C133.176 25.7949 132.576 25.8729 131.832 25.9209C131.1 25.9809 130.542 26.0109 130.158 26.0109C129.786 26.0109 129.294 25.9929 128.682 25.9569C128.07 25.9329 127.452 25.8789 126.828 25.7949L121.14 12.9069ZM137.53 15.9129C137.53 12.6969 138.358 10.1469 140.014 8.26292C141.682 6.36692 144.112 5.41892 147.304 5.41892C150.544 5.41892 152.986 6.36092 154.63 8.24492C156.286 10.1169 157.114 12.6729 157.114 15.9129C157.114 19.1529 156.286 21.7029 154.63 23.5629C152.974 25.4109 150.532 26.3349 147.304 26.3349C144.064 26.3349 141.622 25.3989 139.978 23.5269C138.346 21.6549 137.53 19.1169 137.53 15.9129ZM143.344 15.9129C143.344 16.5969 143.386 17.3049 143.47 18.0369C143.566 18.7569 143.746 19.4289 144.01 20.0529C144.286 20.6769 144.688 21.1869 145.216 21.5829C145.744 21.9669 146.446 22.1589 147.322 22.1589C148.198 22.1589 148.9 21.9669 149.428 21.5829C149.956 21.1869 150.352 20.6769 150.616 20.0529C150.892 19.4289 151.072 18.7569 151.156 18.0369C151.252 17.3049 151.3 16.5969 151.3 15.9129C151.3 15.2169 151.252 14.5029 151.156 13.7709C151.072 13.0269 150.892 12.3429 150.616 11.7189C150.352 11.0829 149.956 10.5729 149.428 10.1889C148.9 9.79292 148.198 9.59492 147.322 9.59492C146.446 9.59492 145.744 9.79292 145.216 10.1889C144.688 10.5729 144.286 11.0829 144.01 11.7189C143.746 12.3429 143.566 13.0269 143.47 13.7709C143.386 14.5029 143.344 15.2169 143.344 15.9129ZM163.458 12.7089C163.458 12.3249 163.464 11.9709 163.476 11.6469C163.488 11.3109 163.494 10.9389 163.494 10.5309C163.242 10.5309 162.894 10.5369 162.45 10.5489C162.018 10.5609 161.676 10.5669 161.424 10.5669H158.094C157.998 10.1349 157.938 9.73292 157.914 9.36092C157.89 8.97692 157.878 8.62892 157.878 8.31692C157.878 8.00492 157.89 7.63892 157.914 7.21892C157.938 6.78692 157.998 6.36692 158.094 5.95892H174.384C174.468 6.28292 174.528 6.64892 174.564 7.05692C174.612 7.46492 174.636 7.79492 174.636 8.04692C174.636 8.86292 174.42 9.48692 173.988 9.91892C173.556 10.3509 172.836 10.5669 171.828 10.5669H171.09C170.838 10.5669 170.502 10.5609 170.082 10.5489C169.674 10.5369 169.356 10.5309 169.128 10.5309C169.128 10.9389 169.134 11.3109 169.146 11.6469C169.158 11.9709 169.164 12.3249 169.164 12.7089V25.7949C168.828 25.8669 168.366 25.9209 167.778 25.9569C167.19 25.9929 166.698 26.0109 166.302 26.0109C165.93 26.0109 165.462 25.9929 164.898 25.9569C164.334 25.9209 163.854 25.8669 163.458 25.7949V12.7089ZM177.135 5.95892C177.591 5.86292 178.107 5.80292 178.683 5.77892C179.259 5.75492 179.715 5.74292 180.051 5.74292C180.411 5.74292 180.843 5.75492 181.347 5.77892C181.863 5.80292 182.361 5.86292 182.841 5.95892V25.7949C182.361 25.8789 181.863 25.9329 181.347 25.9569C180.843 25.9929 180.411 26.0109 180.051 26.0109C179.715 26.0109 179.259 25.9929 178.683 25.9569C178.107 25.9329 177.591 25.8789 177.135 25.7949V5.95892ZM199.047 14.9409C199.047 13.4169 198.843 12.1929 198.435 11.2689C198.027 10.3329 197.205 9.86492 195.969 9.86492C194.685 9.86492 193.773 10.3929 193.233 11.4489C192.693 12.5049 192.423 14.0229 192.423 16.0029C192.423 17.5149 192.615 18.6789 192.999 19.4949C193.395 20.2989 193.899 20.8569 194.511 21.1689C195.123 21.4809 195.771 21.6369 196.455 21.6369C197.343 21.6369 198.231 21.4449 199.119 21.0609C200.019 20.6649 200.823 20.2029 201.531 19.6749C201.915 19.8669 202.287 20.1729 202.647 20.5929C203.007 21.0129 203.319 21.4629 203.583 21.9429C203.847 22.4229 204.015 22.8609 204.087 23.2569C203.091 24.1089 201.879 24.8349 200.451 25.4349C199.035 26.0349 197.421 26.3349 195.609 26.3349C193.869 26.3349 192.417 26.0289 191.253 25.4169C190.101 24.8049 189.183 24.0009 188.499 23.0049C187.815 21.9969 187.329 20.8809 187.041 19.6569C186.753 18.4329 186.609 17.2029 186.609 15.9669C186.609 13.5069 187.053 11.5029 187.941 9.95492C188.841 8.39492 190.017 7.24892 191.469 6.51692C192.933 5.78492 194.499 5.41892 196.167 5.41892C198.039 5.41892 199.581 5.74892 200.793 6.40892C202.005 7.06892 202.905 7.90292 203.493 8.91092C204.081 9.91892 204.375 10.9569 204.375 12.0249C204.375 14.0769 203.223 15.1029 200.919 15.1029C200.643 15.1029 200.343 15.0849 200.019 15.0489C199.695 15.0129 199.371 14.9769 199.047 14.9409ZM207.932 5.95892C208.388 5.86292 208.904 5.80292 209.48 5.77892C210.056 5.75492 210.512 5.74292 210.848 5.74292C211.208 5.74292 211.64 5.75492 212.144 5.77892C212.66 5.80292 213.158 5.86292 213.638 5.95892V25.7949C213.158 25.8789 212.66 25.9329 212.144 25.9569C211.64 25.9929 211.208 26.0109 210.848 26.0109C210.512 26.0109 210.056 25.9929 209.48 25.9569C208.904 25.9329 208.388 25.8789 207.932 25.7949V5.95892ZM223.903 22.3209C223.711 22.3209 223.525 22.3209 223.345 22.3209C223.165 22.3089 222.985 22.2969 222.805 22.2849L221.689 25.7949C221.341 25.8789 220.963 25.9389 220.555 25.9749C220.147 26.0229 219.721 26.0469 219.277 26.0469C218.797 26.0469 218.311 26.0109 217.819 25.9389C217.339 25.8669 216.943 25.7649 216.631 25.6329L216.433 25.3269L223.435 5.95892C224.059 5.86292 224.659 5.80292 225.235 5.77892C225.823 5.75492 226.357 5.74292 226.837 5.74292C227.281 5.74292 227.761 5.75492 228.277 5.77892C228.793 5.80292 229.375 5.86292 230.023 5.95892L236.827 25.5249C236.407 25.7169 235.873 25.8609 235.225 25.9569C234.577 26.0649 234.055 26.1189 233.659 26.1189C232.999 26.1189 232.363 25.9929 231.751 25.7409C231.139 25.4889 230.677 24.8229 230.365 23.7429L229.915 22.2849C229.723 22.2969 229.537 22.3089 229.357 22.3209C229.177 22.3209 228.985 22.3209 228.781 22.3209H223.903ZM224.623 16.6329L224.227 17.8749C224.407 17.8629 224.587 17.8569 224.767 17.8569C224.947 17.8449 225.133 17.8389 225.325 17.8389H227.575C227.755 17.8389 227.917 17.8449 228.061 17.8569C228.217 17.8569 228.373 17.8629 228.529 17.8749L228.151 16.6509C227.875 15.7029 227.599 14.6469 227.323 13.4829C227.047 12.3189 226.795 11.2629 226.567 10.3149H226.351C226.099 11.2269 225.817 12.2709 225.505 13.4469C225.205 14.6229 224.911 15.6849 224.623 16.6329Z" fill="#364760"/>
</svg>
