<svg width="227" height="31" viewBox="0 0 227 31" fill="none" xmlns="http://www.w3.org/2000/svg">
<path d="M17.7323 13.764C17.7323 15.648 17.3483 17.226 16.5803 18.498C15.8243 19.758 14.7803 20.706 13.4483 21.342C12.1283 21.978 10.6163 22.296 8.91227 22.296H6.08627V30C5.60627 30.084 5.09627 30.138 4.55627 30.162C4.02827 30.198 3.57227 30.216 3.18827 30.216C2.84027 30.216 2.39027 30.198 1.83827 30.162C1.28627 30.138 0.776266 30.084 0.308266 30V5.592L0.560266 5.34C2.09627 5.304 3.53027 5.274 4.86227 5.25C6.20627 5.214 7.55627 5.196 8.91227 5.196C10.6163 5.196 12.1283 5.508 13.4483 6.132C14.7803 6.744 15.8243 7.686 16.5803 8.958C17.3483 10.218 17.7323 11.82 17.7323 13.764ZM6.08627 9.588V17.976C6.59027 17.964 7.05827 17.952 7.49027 17.94C7.93427 17.928 8.24627 17.922 8.42627 17.922C9.38627 17.922 10.1123 17.694 10.6043 17.238C11.0963 16.782 11.4263 16.236 11.5943 15.6C11.7623 14.952 11.8463 14.34 11.8463 13.764C11.8463 13.2 11.7623 12.6 11.5943 11.964C11.4263 11.316 11.0963 10.764 10.6043 10.308C10.1123 9.852 9.38627 9.624 8.42627 9.624C8.06627 9.624 7.70627 9.624 7.34627 9.624C6.98627 9.612 6.56627 9.6 6.08627 9.588ZM24.048 26.526C23.856 26.526 23.67 26.526 23.49 26.526C23.31 26.514 23.13 26.502 22.95 26.49L21.834 30C21.486 30.084 21.108 30.144 20.7 30.18C20.292 30.228 19.866 30.252 19.422 30.252C18.942 30.252 18.456 30.216 17.964 30.144C17.484 30.072 17.088 29.97 16.776 29.838L16.578 29.532L23.58 10.164C24.204 10.068 24.804 10.008 25.38 9.984C25.968 9.96 26.502 9.948 26.982 9.948C27.426 9.948 27.906 9.96 28.422 9.984C28.938 10.008 29.52 10.068 30.168 10.164L36.972 29.73C36.552 29.922 36.018 30.066 35.37 30.162C34.722 30.27 34.2 30.324 33.804 30.324C33.144 30.324 32.508 30.198 31.896 29.946C31.284 29.694 30.822 29.028 30.51 27.948L30.06 26.49C29.868 26.502 29.682 26.514 29.502 26.526C29.322 26.526 29.13 26.526 28.926 26.526H24.048ZM24.768 20.838L24.372 22.08C24.552 22.068 24.732 22.062 24.912 22.062C25.092 22.05 25.278 22.044 25.47 22.044H27.72C27.9 22.044 28.062 22.05 28.206 22.062C28.362 22.062 28.518 22.068 28.674 22.08L28.296 20.856C28.02 19.908 27.744 18.852 27.468 17.688C27.192 16.524 26.94 15.468 26.712 14.52H26.496C26.244 15.432 25.962 16.476 25.65 17.652C25.35 18.828 25.056 19.89 24.768 20.838ZM55.879 16.194C55.879 17.118 55.669 17.94 55.249 18.66C54.829 19.38 54.301 19.974 53.665 20.442C53.041 20.91 52.417 21.21 51.793 21.342C52.441 21.558 52.975 21.888 53.395 22.332C53.827 22.776 54.199 23.346 54.511 24.042L55.447 26.184C55.663 26.676 55.909 27.132 56.185 27.552C56.461 27.96 56.767 28.308 57.103 28.596C56.755 29.028 56.233 29.43 55.537 29.802C54.841 30.162 54.085 30.342 53.269 30.342C52.465 30.342 51.811 30.15 51.307 29.766C50.815 29.37 50.383 28.74 50.011 27.876L48.427 24.24C48.175 23.652 47.863 23.298 47.491 23.178C47.119 23.058 46.639 22.998 46.051 22.998H45.349V30C44.869 30.084 44.371 30.138 43.855 30.162C43.351 30.198 42.919 30.216 42.559 30.216C42.223 30.216 41.779 30.198 41.227 30.162C40.675 30.138 40.171 30.084 39.715 30V10.344L39.913 10.128C41.365 10.092 42.727 10.062 43.999 10.038C45.283 10.002 46.561 9.984 47.833 9.984C49.273 9.984 50.605 10.176 51.829 10.56C53.053 10.932 54.031 11.574 54.763 12.486C55.507 13.386 55.879 14.622 55.879 16.194ZM45.349 14.052V18.714C45.769 18.702 46.153 18.696 46.501 18.696C46.861 18.684 47.125 18.678 47.293 18.678C48.373 18.678 49.105 18.444 49.489 17.976C49.873 17.508 50.065 16.962 50.065 16.338C50.065 15.726 49.873 15.198 49.489 14.754C49.105 14.31 48.463 14.088 47.563 14.088C47.131 14.088 46.759 14.082 46.447 14.07C46.135 14.058 45.769 14.052 45.349 14.052ZM63.2351 16.914C63.2351 16.53 63.2411 16.176 63.2531 15.852C63.2651 15.516 63.2711 15.144 63.2711 14.736C63.0191 14.736 62.6711 14.742 62.2271 14.754C61.7951 14.766 61.4531 14.772 61.2011 14.772H57.8711C57.7751 14.34 57.7151 13.938 57.6911 13.566C57.6671 13.182 57.6551 12.834 57.6551 12.522C57.6551 12.21 57.6671 11.844 57.6911 11.424C57.7151 10.992 57.7751 10.572 57.8711 10.164H74.1611C74.2451 10.488 74.3051 10.854 74.3411 11.262C74.3891 11.67 74.4131 12 74.4131 12.252C74.4131 13.068 74.1971 13.692 73.7651 14.124C73.3331 14.556 72.6131 14.772 71.6051 14.772H70.8671C70.6151 14.772 70.2791 14.766 69.8591 14.754C69.4511 14.742 69.1331 14.736 68.9051 14.736C68.9051 15.144 68.9111 15.516 68.9231 15.852C68.9351 16.176 68.9411 16.53 68.9411 16.914V30C68.6051 30.072 68.1431 30.126 67.5551 30.162C66.9671 30.198 66.4751 30.216 66.0791 30.216C65.7071 30.216 65.2391 30.198 64.6751 30.162C64.1111 30.126 63.6311 30.072 63.2351 30V16.914ZM76.912 10.164C77.368 10.068 77.884 10.008 78.46 9.984C79.036 9.96 79.492 9.948 79.828 9.948C80.188 9.948 80.62 9.96 81.124 9.984C81.64 10.008 82.138 10.068 82.618 10.164V30C82.138 30.084 81.64 30.138 81.124 30.162C80.62 30.198 80.188 30.216 79.828 30.216C79.492 30.216 79.036 30.198 78.46 30.162C77.884 30.138 77.368 30.084 76.912 30V10.164ZM98.824 19.146C98.824 17.622 98.62 16.398 98.212 15.474C97.804 14.538 96.982 14.07 95.746 14.07C94.462 14.07 93.55 14.598 93.01 15.654C92.47 16.71 92.2 18.228 92.2 20.208C92.2 21.72 92.392 22.884 92.776 23.7C93.172 24.504 93.676 25.062 94.288 25.374C94.9 25.686 95.548 25.842 96.232 25.842C97.12 25.842 98.008 25.65 98.896 25.266C99.796 24.87 100.6 24.408 101.308 23.88C101.692 24.072 102.064 24.378 102.424 24.798C102.784 25.218 103.096 25.668 103.36 26.148C103.624 26.628 103.792 27.066 103.864 27.462C102.868 28.314 101.656 29.04 100.228 29.64C98.812 30.24 97.198 30.54 95.386 30.54C93.646 30.54 92.194 30.234 91.03 29.622C89.878 29.01 88.96 28.206 88.276 27.21C87.592 26.202 87.106 25.086 86.818 23.862C86.53 22.638 86.386 21.408 86.386 20.172C86.386 17.712 86.83 15.708 87.718 14.16C88.618 12.6 89.794 11.454 91.246 10.722C92.71 9.99 94.276 9.624 95.944 9.624C97.816 9.624 99.358 9.954 100.57 10.614C101.782 11.274 102.682 12.108 103.27 13.116C103.858 14.124 104.152 15.162 104.152 16.23C104.152 18.282 103 19.308 100.696 19.308C100.42 19.308 100.12 19.29 99.796 19.254C99.472 19.218 99.148 19.182 98.824 19.146ZM107.709 10.164C108.165 10.068 108.681 10.008 109.257 9.984C109.833 9.96 110.289 9.948 110.625 9.948C110.985 9.948 111.417 9.96 111.921 9.984C112.437 10.008 112.935 10.068 113.415 10.164V30C112.935 30.084 112.437 30.138 111.921 30.162C111.417 30.198 110.985 30.216 110.625 30.216C110.289 30.216 109.833 30.198 109.257 30.162C108.681 30.138 108.165 30.084 107.709 30V10.164ZM134.409 16.968C134.409 18.528 134.055 19.824 133.347 20.856C132.651 21.876 131.691 22.638 130.467 23.142C129.243 23.634 127.851 23.88 126.291 23.88H124.329V30C123.849 30.084 123.357 30.138 122.853 30.162C122.349 30.198 121.917 30.216 121.557 30.216C121.221 30.216 120.765 30.198 120.189 30.162C119.613 30.138 119.097 30.084 118.641 30V10.344L118.839 10.128C119.811 10.104 120.981 10.074 122.349 10.038C123.717 10.002 125.031 9.984 126.291 9.984C127.863 9.984 129.261 10.224 130.485 10.704C131.709 11.184 132.669 11.94 133.365 12.972C134.061 14.004 134.409 15.336 134.409 16.968ZM124.329 14.196V19.704C124.653 19.692 124.947 19.686 125.211 19.686C125.475 19.674 125.673 19.668 125.805 19.668C126.597 19.668 127.191 19.524 127.587 19.236C127.995 18.936 128.265 18.576 128.397 18.156C128.529 17.724 128.595 17.316 128.595 16.932C128.595 16.572 128.529 16.182 128.397 15.762C128.265 15.342 127.995 14.982 127.587 14.682C127.191 14.382 126.597 14.232 125.805 14.232C125.505 14.232 125.289 14.232 125.157 14.232C125.025 14.22 124.749 14.208 124.329 14.196ZM141.118 26.526C140.926 26.526 140.74 26.526 140.56 26.526C140.38 26.514 140.2 26.502 140.02 26.49L138.904 30C138.556 30.084 138.178 30.144 137.77 30.18C137.362 30.228 136.936 30.252 136.492 30.252C136.012 30.252 135.526 30.216 135.034 30.144C134.554 30.072 134.158 29.97 133.846 29.838L133.648 29.532L140.65 10.164C141.274 10.068 141.874 10.008 142.45 9.984C143.038 9.96 143.572 9.948 144.052 9.948C144.496 9.948 144.976 9.96 145.492 9.984C146.008 10.008 146.59 10.068 147.238 10.164L154.042 29.73C153.622 29.922 153.088 30.066 152.44 30.162C151.792 30.27 151.27 30.324 150.874 30.324C150.214 30.324 149.578 30.198 148.966 29.946C148.354 29.694 147.892 29.028 147.58 27.948L147.13 26.49C146.938 26.502 146.752 26.514 146.572 26.526C146.392 26.526 146.2 26.526 145.996 26.526H141.118ZM141.838 20.838L141.442 22.08C141.622 22.068 141.802 22.062 141.982 22.062C142.162 22.05 142.348 22.044 142.54 22.044H144.79C144.97 22.044 145.132 22.05 145.276 22.062C145.432 22.062 145.588 22.068 145.744 22.08L145.366 20.856C145.09 19.908 144.814 18.852 144.538 17.688C144.262 16.524 144.01 15.468 143.782 14.52H143.566C143.314 15.432 143.032 16.476 142.72 17.652C142.42 18.828 142.126 19.89 141.838 20.838ZM167.308 19.146C167.308 17.622 167.104 16.398 166.696 15.474C166.288 14.538 165.466 14.07 164.23 14.07C162.946 14.07 162.034 14.598 161.494 15.654C160.954 16.71 160.684 18.228 160.684 20.208C160.684 21.72 160.876 22.884 161.26 23.7C161.656 24.504 162.16 25.062 162.772 25.374C163.384 25.686 164.032 25.842 164.716 25.842C165.604 25.842 166.492 25.65 167.38 25.266C168.28 24.87 169.084 24.408 169.792 23.88C170.176 24.072 170.548 24.378 170.908 24.798C171.268 25.218 171.58 25.668 171.844 26.148C172.108 26.628 172.276 27.066 172.348 27.462C171.352 28.314 170.14 29.04 168.712 29.64C167.296 30.24 165.682 30.54 163.87 30.54C162.13 30.54 160.678 30.234 159.514 29.622C158.362 29.01 157.444 28.206 156.76 27.21C156.076 26.202 155.59 25.086 155.302 23.862C155.014 22.638 154.87 21.408 154.87 20.172C154.87 17.712 155.314 15.708 156.202 14.16C157.102 12.6 158.278 11.454 159.73 10.722C161.194 9.99 162.76 9.624 164.428 9.624C166.3 9.624 167.842 9.954 169.054 10.614C170.266 11.274 171.166 12.108 171.754 13.116C172.342 14.124 172.636 15.162 172.636 16.23C172.636 18.282 171.484 19.308 169.18 19.308C168.904 19.308 168.604 19.29 168.28 19.254C167.956 19.218 167.632 19.182 167.308 19.146ZM176.193 10.164C176.649 10.068 177.165 10.008 177.741 9.984C178.317 9.96 178.773 9.948 179.109 9.948C179.469 9.948 179.901 9.96 180.405 9.984C180.921 10.008 181.419 10.068 181.899 10.164V30C181.419 30.084 180.921 30.138 180.405 30.162C179.901 30.198 179.469 30.216 179.109 30.216C178.773 30.216 178.317 30.198 177.741 30.162C177.165 30.138 176.649 30.084 176.193 30V10.164ZM185.667 20.118C185.667 16.902 186.495 14.352 188.151 12.468C189.819 10.572 192.249 9.624 195.441 9.624C198.681 9.624 201.123 10.566 202.767 12.45C204.423 14.322 205.251 16.878 205.251 20.118C205.251 23.358 204.423 25.908 202.767 27.768C201.111 29.616 198.669 30.54 195.441 30.54C192.201 30.54 189.759 29.604 188.115 27.732C186.483 25.86 185.667 23.322 185.667 20.118ZM191.481 20.118C191.481 20.802 191.523 21.51 191.607 22.242C191.703 22.962 191.883 23.634 192.147 24.258C192.423 24.882 192.825 25.392 193.353 25.788C193.881 26.172 194.583 26.364 195.459 26.364C196.335 26.364 197.037 26.172 197.565 25.788C198.093 25.392 198.489 24.882 198.753 24.258C199.029 23.634 199.209 22.962 199.293 22.242C199.389 21.51 199.437 20.802 199.437 20.118C199.437 19.422 199.389 18.708 199.293 17.976C199.209 17.232 199.029 16.548 198.753 15.924C198.489 15.288 198.093 14.778 197.565 14.394C197.037 13.998 196.335 13.8 195.459 13.8C194.583 13.8 193.881 13.998 193.353 14.394C192.825 14.778 192.423 15.288 192.147 15.924C191.883 16.548 191.703 17.232 191.607 17.976C191.523 18.708 191.481 19.422 191.481 20.118ZM197.673 0.425998C198.333 0.629999 199.005 1.044 199.689 1.668C200.385 2.28 200.841 2.946 201.057 3.666L194.397 8.67C193.929 8.526 193.473 8.256 193.029 7.86C192.585 7.464 192.267 7.008 192.075 6.492L197.673 0.425998ZM215.941 20.946C215.857 20.754 215.725 20.454 215.545 20.046C215.365 19.626 215.173 19.176 214.969 18.696C214.765 18.216 214.573 17.766 214.393 17.346C214.225 16.926 214.093 16.62 213.997 16.428L213.871 16.482C213.919 17.43 213.967 18.456 214.015 19.56C214.063 20.652 214.099 21.654 214.123 22.566C214.159 23.466 214.177 24.12 214.177 24.528V30C213.709 30.084 213.259 30.138 212.827 30.162C212.395 30.198 211.993 30.216 211.621 30.216C211.285 30.216 210.865 30.198 210.361 30.162C209.869 30.138 209.401 30.084 208.957 30V10.29C209.401 10.182 209.953 10.098 210.613 10.038C211.273 9.978 211.783 9.948 212.143 9.948C212.515 9.948 213.043 9.96 213.727 9.984C214.411 9.996 214.975 10.056 215.419 10.164L219.649 19.182C219.733 19.35 219.871 19.656 220.063 20.1C220.267 20.544 220.483 21.03 220.711 21.558C220.939 22.086 221.149 22.584 221.341 23.052C221.545 23.508 221.695 23.844 221.791 24.06L221.953 24.024C221.905 23.232 221.839 22.308 221.755 21.252C221.683 20.196 221.617 19.176 221.557 18.192C221.497 17.208 221.467 16.422 221.467 15.834V13.026C221.467 11.754 221.743 10.92 222.295 10.524C222.847 10.116 223.669 9.912 224.761 9.912H226.615L226.831 10.164V29.892C226.363 30 225.799 30.078 225.139 30.126C224.479 30.186 223.975 30.216 223.627 30.216C223.387 30.216 223.057 30.21 222.637 30.198C222.217 30.186 221.785 30.168 221.341 30.144C220.909 30.12 220.549 30.072 220.261 30L215.941 20.946Z" fill="#364760"/>
</svg>
