<svg width="300" height="61" viewBox="0 0 300 61" fill="none" xmlns="http://www.w3.org/2000/svg">
<rect width="300" height="61" rx="20" fill="#1EBCBC"/>
<path d="M96.9617 26.7291C96.9617 28.5011 96.6005 29.9853 95.8782 31.1817C95.1671 32.3668 94.1851 33.2584 92.9323 33.8566C91.6908 34.4548 90.2687 34.7539 88.6659 34.7539H86.0079V42C85.5565 42.079 85.0768 42.1298 84.5689 42.1524C84.0723 42.1862 83.6434 42.2032 83.2822 42.2032C82.9549 42.2032 82.5316 42.1862 82.0124 42.1524C81.4932 42.1298 81.0136 42.079 80.5734 42V19.0428L80.8104 18.8058C82.2551 18.7719 83.6039 18.7437 84.8567 18.7212C86.1208 18.6873 87.3905 18.6704 88.6659 18.6704C90.2687 18.6704 91.6908 18.9638 92.9323 19.5507C94.1851 20.1263 95.1671 21.0124 95.8782 22.2087C96.6005 23.3939 96.9617 24.9006 96.9617 26.7291ZM86.0079 22.8013V30.6907C86.482 30.6794 86.9221 30.6681 87.3285 30.6569C87.7461 30.6456 88.0395 30.6399 88.2088 30.6399C89.1118 30.6399 89.7946 30.4255 90.2574 29.9966C90.7201 29.5677 91.0305 29.0541 91.1885 28.4559C91.3465 27.8465 91.4255 27.2708 91.4255 26.7291C91.4255 26.1986 91.3465 25.6343 91.1885 25.0361C91.0305 24.4266 90.7201 23.9074 90.2574 23.4785C89.7946 23.0496 89.1118 22.8352 88.2088 22.8352C87.8702 22.8352 87.5316 22.8352 87.193 22.8352C86.8544 22.8239 86.4594 22.8126 86.0079 22.8013ZM116.398 35.0079C116.398 37.3442 115.698 39.1783 114.298 40.5102C112.91 41.842 110.85 42.5079 108.119 42.5079C105.387 42.5079 103.322 41.842 101.922 40.5102C100.534 39.1783 99.8401 37.3442 99.8401 35.0079V23.3431L100.043 23.1399H101.973C103 23.1399 103.79 23.3995 104.343 23.9187C104.908 24.4379 105.19 25.3126 105.19 26.5428V34.991C105.19 36.018 105.404 36.825 105.833 37.412C106.262 37.9989 107.024 38.2923 108.119 38.2923C109.225 38.2923 109.987 37.9989 110.404 37.412C110.822 36.825 111.031 36.018 111.031 34.991V23.3431C111.482 23.2528 111.945 23.1963 112.419 23.1738C112.893 23.1512 113.305 23.1399 113.655 23.1399C113.971 23.1399 114.4 23.1568 114.942 23.1907C115.483 23.2133 115.969 23.2697 116.398 23.36V35.0079ZM121.131 23.3092C121.718 23.2866 122.423 23.2641 123.247 23.2415C124.082 23.2189 124.94 23.202 125.82 23.1907C126.701 23.1794 127.508 23.1738 128.241 23.1738C129.63 23.1738 130.871 23.3318 131.966 23.6478C133.072 23.9638 133.941 24.4887 134.573 25.2223C135.205 25.9446 135.521 26.9153 135.521 28.1343C135.521 28.9243 135.301 29.6749 134.861 30.386C134.432 31.097 133.84 31.5993 133.083 31.8927C134.054 32.1975 134.867 32.7957 135.521 33.6873C136.176 34.5677 136.503 35.5214 136.503 36.5485C136.503 37.9932 136.165 39.1219 135.487 39.9345C134.821 40.7359 133.896 41.3059 132.711 41.6445C131.537 41.9718 130.194 42.1354 128.681 42.1354C127.519 42.1354 126.311 42.1242 125.058 42.1016C123.806 42.0903 122.496 42.0677 121.131 42.0339L120.944 41.8646V23.5124L121.131 23.3092ZM128.004 26.8137C127.79 26.8137 127.502 26.8137 127.141 26.8137C126.78 26.8137 126.435 26.8024 126.108 26.7799V30.4198H127.97C128.873 30.4198 129.488 30.2336 129.816 29.8611C130.143 29.4887 130.307 29.0711 130.307 28.6083C130.307 28.1568 130.143 27.7449 129.816 27.3724C129.5 27 128.896 26.8137 128.004 26.8137ZM126.108 38.4955C126.56 38.4729 127 38.4616 127.429 38.4616C127.858 38.4616 128.247 38.4616 128.597 38.4616C129.624 38.4616 130.301 38.2302 130.628 37.7675C130.967 37.2934 131.136 36.8081 131.136 36.3115C131.136 35.7697 130.933 35.2618 130.527 34.7878C130.132 34.3137 129.398 34.0767 128.326 34.0767H126.108V38.4955ZM153.229 37.6659C153.161 39.3138 152.873 40.465 152.365 41.1196C151.857 41.7743 150.954 42.1016 149.656 42.1016H143.087C142.117 42.1016 141.355 41.8307 140.802 41.2889C140.26 40.7359 139.989 39.9966 139.989 39.0711V23.3769L140.192 23.1738H142.224C143.251 23.1738 144.03 23.4334 144.56 23.9525C145.091 24.4604 145.356 25.3126 145.356 26.509V37.8352C146.519 37.7223 147.563 37.6659 148.488 37.6659H153.229ZM156.46 23.3431C156.888 23.2528 157.374 23.1963 157.915 23.1738C158.457 23.1512 158.886 23.1399 159.202 23.1399C159.541 23.1399 159.947 23.1512 160.421 23.1738C160.906 23.1963 161.375 23.2528 161.826 23.3431V42C161.375 42.079 160.906 42.1298 160.421 42.1524C159.947 42.1862 159.541 42.2032 159.202 42.2032C158.886 42.2032 158.457 42.1862 157.915 42.1524C157.374 42.1298 156.888 42.079 156.46 42V23.3431ZM177.069 31.7912C177.069 30.3578 176.877 29.2065 176.493 28.3374C176.11 27.4571 175.336 27.0169 174.174 27.0169C172.966 27.0169 172.108 27.5135 171.601 28.5067C171.093 29.5 170.839 30.9277 170.839 32.79C170.839 34.2122 171.019 35.307 171.38 36.0745C171.753 36.8307 172.227 37.3555 172.803 37.649C173.378 37.9424 173.988 38.0892 174.631 38.0892C175.466 38.0892 176.301 37.9086 177.137 37.5474C177.983 37.1749 178.739 36.7404 179.405 36.2438C179.766 36.4244 180.116 36.7122 180.455 37.1072C180.794 37.5022 181.087 37.9255 181.335 38.377C181.584 38.8284 181.742 39.2404 181.809 39.6129C180.873 40.4142 179.733 41.0971 178.389 41.6614C177.058 42.2257 175.54 42.5079 173.835 42.5079C172.199 42.5079 170.833 42.2201 169.738 41.6445C168.655 41.0688 167.791 40.3126 167.148 39.3758C166.505 38.4278 166.047 37.3781 165.777 36.2268C165.506 35.0756 165.37 33.9187 165.37 32.7562C165.37 30.4424 165.788 28.5575 166.623 27.1015C167.47 25.6343 168.576 24.5564 169.941 23.8679C171.318 23.1794 172.791 22.8352 174.36 22.8352C176.121 22.8352 177.571 23.1455 178.711 23.7663C179.851 24.3871 180.698 25.1715 181.251 26.1196C181.804 27.0677 182.08 28.044 182.08 29.0485C182.08 30.9785 180.997 31.9435 178.83 31.9435C178.57 31.9435 178.288 31.9266 177.983 31.8927C177.678 31.8589 177.374 31.825 177.069 31.7912ZM190.264 38.7325C190.083 38.7325 189.908 38.7325 189.739 38.7325C189.57 38.7212 189.4 38.7099 189.231 38.6986L188.181 42C187.854 42.079 187.499 42.1354 187.115 42.1693C186.731 42.2144 186.33 42.237 185.913 42.237C185.461 42.237 185.004 42.2032 184.541 42.1354C184.09 42.0677 183.718 41.9718 183.424 41.8476L183.238 41.5598L189.824 23.3431C190.411 23.2528 190.975 23.1963 191.517 23.1738C192.07 23.1512 192.572 23.1399 193.023 23.1399C193.441 23.1399 193.893 23.1512 194.378 23.1738C194.863 23.1963 195.411 23.2528 196.02 23.3431L202.42 41.746C202.025 41.9266 201.522 42.0621 200.913 42.1524C200.303 42.254 199.812 42.3047 199.44 42.3047C198.819 42.3047 198.221 42.1862 197.645 41.9492C197.07 41.7122 196.635 41.0858 196.342 40.07L195.918 38.6986C195.738 38.7099 195.563 38.7212 195.394 38.7325C195.224 38.7325 195.044 38.7325 194.852 38.7325H190.264ZM190.941 33.3826L190.569 34.5508C190.738 34.5395 190.907 34.5338 191.076 34.5338C191.246 34.5226 191.421 34.5169 191.601 34.5169H193.718C193.887 34.5169 194.039 34.5226 194.175 34.5338C194.321 34.5338 194.468 34.5395 194.615 34.5508L194.259 33.3995C194 32.5079 193.74 31.5146 193.481 30.4198C193.221 29.325 192.984 28.3318 192.769 27.4401H192.566C192.329 28.2979 192.064 29.2799 191.771 30.386C191.488 31.4921 191.212 32.4909 190.941 33.3826ZM220.203 29.0146C220.203 29.8837 220.005 30.6569 219.61 31.3341C219.215 32.0113 218.719 32.5699 218.12 33.0101C217.534 33.4503 216.947 33.7325 216.36 33.8566C216.969 34.0598 217.471 34.3702 217.866 34.7878C218.273 35.2054 218.623 35.7415 218.916 36.3961L219.796 38.4108C220 38.8736 220.231 39.3025 220.491 39.6975C220.75 40.0813 221.038 40.4086 221.354 40.6795C221.027 41.0858 220.536 41.4639 219.881 41.8138C219.227 42.1524 218.515 42.3217 217.748 42.3217C216.992 42.3217 216.377 42.1411 215.903 41.7799C215.44 41.4074 215.033 40.8149 214.684 40.0023L213.194 36.5824C212.957 36.0293 212.663 35.6964 212.313 35.5835C211.964 35.4706 211.512 35.4142 210.959 35.4142H210.299V42C209.847 42.079 209.379 42.1298 208.894 42.1524C208.419 42.1862 208.013 42.2032 207.675 42.2032C207.359 42.2032 206.941 42.1862 206.422 42.1524C205.903 42.1298 205.429 42.079 205 42V23.5124L205.186 23.3092C206.552 23.2753 207.833 23.2471 209.029 23.2245C210.237 23.1907 211.439 23.1738 212.635 23.1738C213.989 23.1738 215.242 23.3543 216.394 23.7155C217.545 24.0654 218.465 24.6693 219.153 25.527C219.853 26.3735 220.203 27.5361 220.203 29.0146ZM210.299 27V31.3848C210.694 31.3736 211.055 31.3679 211.382 31.3679C211.721 31.3566 211.969 31.351 212.127 31.351C213.143 31.351 213.831 31.1309 214.193 30.6907C214.554 30.2505 214.734 29.737 214.734 29.1501C214.734 28.5745 214.554 28.0778 214.193 27.6602C213.831 27.2426 213.228 27.0338 212.381 27.0338C211.975 27.0338 211.625 27.0282 211.331 27.0169C211.038 27.0056 210.694 27 210.299 27Z" fill="white" fill-opacity="0.87"/>
</svg>
