<svg width="153" height="35" viewBox="0 0 153 35" fill="none" xmlns="http://www.w3.org/2000/svg">
<path d="M0.0559375 31.144C0.151938 30.072 0.479938 29.008 1.03994 27.952C1.61594 26.896 2.27994 26.048 3.03194 25.408C4.37594 26.224 5.90394 26.952 7.61594 27.592C9.32794 28.232 11.0399 28.552 12.7519 28.552C14.1439 28.552 15.1439 28.216 15.7519 27.544C16.3599 26.872 16.6639 26.152 16.6639 25.384C16.6639 24.856 16.4959 24.264 16.1599 23.608C15.8239 22.952 14.9839 22.344 13.6399 21.784L7.85594 19.384C5.87194 18.552 4.23194 17.44 2.93594 16.048C1.63994 14.656 0.991938 12.816 0.991938 10.528C0.991938 8.528 1.51194 6.776 2.55194 5.272C3.59194 3.768 4.99194 2.6 6.75194 1.768C8.52794 0.919999 10.5039 0.495999 12.6799 0.495999C14.9359 0.495999 17.0639 0.799999 19.0639 1.408C21.0639 2 22.6879 2.616 23.9359 3.256C23.8719 4.36 23.6079 5.424 23.1439 6.448C22.6959 7.456 22.0959 8.304 21.3439 8.992C20.1279 8.416 18.7039 7.888 17.0719 7.408C15.4399 6.912 13.9759 6.664 12.6799 6.664C11.3039 6.664 10.3199 6.976 9.72794 7.6C9.15194 8.224 8.86394 8.856 8.86394 9.496C8.86394 10.104 9.06394 10.648 9.46394 11.128C9.87994 11.608 10.6159 12.072 11.6719 12.52L17.5759 14.944C19.8959 15.904 21.6799 17.208 22.9279 18.856C24.1919 20.504 24.8239 22.36 24.8239 24.424C24.8239 26.36 24.3519 28.104 23.4079 29.656C22.4799 31.208 21.0799 32.44 19.2079 33.352C17.3359 34.264 14.9999 34.72 12.1999 34.72C10.2639 34.72 8.19994 34.416 6.00794 33.808C3.81594 33.184 1.83194 32.296 0.0559375 31.144ZM29.5598 7.552C30.1678 7.424 30.8558 7.344 31.6238 7.312C32.3918 7.28 32.9998 7.264 33.4478 7.264C33.9278 7.264 34.5038 7.28 35.1758 7.312C35.8638 7.344 36.5278 7.424 37.1678 7.552V34C36.5278 34.112 35.8638 34.184 35.1758 34.216C34.5038 34.264 33.9278 34.288 33.4478 34.288C32.9998 34.288 32.3918 34.264 31.6238 34.216C30.8558 34.184 30.1678 34.112 29.5598 34V7.552ZM53.4477 21.928C53.3357 21.672 53.1597 21.272 52.9197 20.728C52.6797 20.168 52.4237 19.568 52.1517 18.928C51.8797 18.288 51.6237 17.688 51.3837 17.128C51.1597 16.568 50.9837 16.16 50.8557 15.904L50.6877 15.976C50.7517 17.24 50.8157 18.608 50.8797 20.08C50.9437 21.536 50.9917 22.872 51.0237 24.088C51.0717 25.288 51.0957 26.16 51.0957 26.704V34C50.4717 34.112 49.8717 34.184 49.2957 34.216C48.7197 34.264 48.1837 34.288 47.6877 34.288C47.2397 34.288 46.6797 34.264 46.0077 34.216C45.3517 34.184 44.7277 34.112 44.1357 34V7.72C44.7277 7.576 45.4637 7.464 46.3437 7.384C47.2237 7.304 47.9037 7.264 48.3837 7.264C48.8797 7.264 49.5837 7.28 50.4957 7.312C51.4077 7.328 52.1597 7.408 52.7517 7.552L58.3917 19.576C58.5037 19.8 58.6877 20.208 58.9437 20.8C59.2157 21.392 59.5037 22.04 59.8077 22.744C60.1117 23.448 60.3917 24.112 60.6477 24.736C60.9197 25.344 61.1197 25.792 61.2477 26.08L61.4637 26.032C61.3997 24.976 61.3117 23.744 61.1997 22.336C61.1037 20.928 61.0157 19.568 60.9357 18.256C60.8557 16.944 60.8157 15.896 60.8157 15.112V11.368C60.8157 9.672 61.1837 8.56 61.9197 8.032C62.6557 7.488 63.7517 7.216 65.2077 7.216H67.6797L67.9677 7.552V33.856C67.3437 34 66.5917 34.104 65.7117 34.168C64.8317 34.248 64.1597 34.288 63.6957 34.288C63.3757 34.288 62.9357 34.28 62.3757 34.264C61.8157 34.248 61.2397 34.224 60.6477 34.192C60.0717 34.16 59.5917 34.096 59.2077 34L53.4477 21.928ZM90.4377 26.992C90.4377 26.192 90.4537 25.392 90.4857 24.592C90.1977 24.592 89.9017 24.592 89.5977 24.592C89.3097 24.592 89.0297 24.592 88.7577 24.592C87.5737 24.592 86.7097 24.344 86.1657 23.848C85.6217 23.336 85.3497 22.528 85.3497 21.424C85.3497 20.992 85.3817 20.488 85.4457 19.912C85.5257 19.336 85.6217 18.896 85.7337 18.592C86.8857 18.544 88.0297 18.52 89.1657 18.52C90.3017 18.504 91.4537 18.496 92.6217 18.496C94.4617 18.496 95.7177 18.848 96.3897 19.552C97.0777 20.256 97.4217 21.256 97.4217 22.552V33.16C96.5737 33.432 95.4937 33.688 94.1817 33.928C92.8697 34.168 91.5097 34.36 90.1017 34.504C88.6937 34.648 87.4137 34.72 86.2617 34.72C83.0777 34.72 80.5017 34.136 78.5337 32.968C76.5817 31.8 75.1577 30.2 74.2617 28.168C73.3817 26.12 72.9417 23.8 72.9417 21.208C72.9417 17.784 73.5737 15.024 74.8377 12.928C76.1177 10.816 77.8137 9.272 79.9257 8.296C82.0377 7.32 84.3497 6.832 86.8617 6.832C88.7497 6.832 90.5657 7.024 92.3097 7.408C94.0697 7.776 95.6217 8.272 96.9657 8.896C96.8857 9.936 96.5737 11.024 96.0297 12.16C95.5017 13.28 94.9017 14.136 94.2297 14.728C91.7817 13.512 89.4537 12.904 87.2457 12.904C82.8777 12.904 80.6937 15.64 80.6937 21.112C80.6937 23.832 81.2537 25.84 82.3737 27.136C83.4937 28.432 85.2137 29.08 87.5337 29.08C88.0137 29.08 88.5017 29.064 88.9977 29.032C89.4937 28.984 89.9737 28.92 90.4377 28.84V26.992ZM113.794 7.552C114.402 7.424 115.09 7.344 115.858 7.312C116.626 7.28 117.234 7.264 117.682 7.264C118.162 7.264 118.738 7.28 119.41 7.312C120.098 7.344 120.762 7.424 121.402 7.552V34C120.762 34.112 120.098 34.184 119.41 34.216C118.738 34.264 118.162 34.288 117.682 34.288C117.234 34.288 116.626 34.264 115.858 34.216C115.09 34.184 114.402 34.112 113.794 34V7.552ZM137.682 21.928C137.57 21.672 137.394 21.272 137.154 20.728C136.914 20.168 136.658 19.568 136.386 18.928C136.114 18.288 135.858 17.688 135.618 17.128C135.394 16.568 135.218 16.16 135.09 15.904L134.922 15.976C134.986 17.24 135.05 18.608 135.114 20.08C135.178 21.536 135.226 22.872 135.258 24.088C135.306 25.288 135.33 26.16 135.33 26.704V34C134.706 34.112 134.106 34.184 133.53 34.216C132.954 34.264 132.418 34.288 131.922 34.288C131.474 34.288 130.914 34.264 130.242 34.216C129.586 34.184 128.962 34.112 128.37 34V7.72C128.962 7.576 129.698 7.464 130.578 7.384C131.458 7.304 132.138 7.264 132.618 7.264C133.114 7.264 133.818 7.28 134.73 7.312C135.642 7.328 136.394 7.408 136.986 7.552L142.626 19.576C142.738 19.8 142.922 20.208 143.178 20.8C143.45 21.392 143.738 22.04 144.042 22.744C144.346 23.448 144.626 24.112 144.882 24.736C145.154 25.344 145.354 25.792 145.482 26.08L145.698 26.032C145.634 24.976 145.546 23.744 145.434 22.336C145.338 20.928 145.25 19.568 145.17 18.256C145.09 16.944 145.05 15.896 145.05 15.112V11.368C145.05 9.672 145.418 8.56 146.154 8.032C146.89 7.488 147.986 7.216 149.442 7.216H151.914L152.202 7.552V33.856C151.578 34 150.826 34.104 149.946 34.168C149.066 34.248 148.394 34.288 147.93 34.288C147.61 34.288 147.17 34.28 146.61 34.264C146.05 34.248 145.474 34.224 144.882 34.192C144.306 34.16 143.826 34.096 143.442 34L137.682 21.928Z" fill="white"/>
</svg>
