<svg width="259" height="26" viewBox="0 0 259 26" fill="none" xmlns="http://www.w3.org/2000/svg">
<path d="M6.59925 7.828C6.59925 7.336 6.60525 6.898 6.61725 6.514C6.62925 6.118 6.63525 5.668 6.63525 5.164H6.59925C6.33525 5.164 5.95725 5.17 5.46525 5.182C4.97325 5.194 4.59525 5.2 4.33125 5.2H0.60525C0.52125 4.768 0.46725 4.348 0.44325 3.94C0.41925 3.52 0.40725 3.148 0.40725 2.824C0.40725 2.488 0.41925 2.11 0.44325 1.69C0.46725 1.27 0.52125 0.843999 0.60525 0.411999H18.4253C18.5093 0.711999 18.5753 1.066 18.6233 1.474C18.6833 1.87 18.7133 2.254 18.7133 2.626C18.7133 3.562 18.4673 4.228 17.9753 4.624C17.4953 5.008 16.7393 5.2 15.7073 5.2H14.6453C14.3813 5.2 14.0033 5.194 13.5113 5.182C13.0193 5.17 12.6413 5.164 12.3773 5.164H12.3413C12.3413 5.668 12.3473 6.118 12.3593 6.514C12.3713 6.898 12.3773 7.336 12.3773 7.828V25C11.8853 25.084 11.3813 25.138 10.8652 25.162C10.3493 25.198 9.89325 25.216 9.49725 25.216C9.08925 25.216 8.62725 25.198 8.11125 25.162C7.59525 25.138 7.09125 25.084 6.59925 25V7.828ZM20.664 5.164C21.12 5.068 21.636 5.008 22.212 4.984C22.788 4.96 23.244 4.948 23.58 4.948C23.94 4.948 24.372 4.96 24.876 4.984C25.392 5.008 25.89 5.068 26.37 5.164V25C25.89 25.084 25.392 25.138 24.876 25.162C24.372 25.198 23.94 25.216 23.58 25.216C23.244 25.216 22.788 25.198 22.212 25.162C21.636 25.138 21.12 25.084 20.664 25V5.164ZM47.3639 11.968C47.3639 13.528 47.0099 14.824 46.3019 15.856C45.6059 16.876 44.6459 17.638 43.4219 18.142C42.1979 18.634 40.8059 18.88 39.2459 18.88H37.2839V25C36.8039 25.084 36.3119 25.138 35.8079 25.162C35.3039 25.198 34.8719 25.216 34.5119 25.216C34.1759 25.216 33.7199 25.198 33.1439 25.162C32.5679 25.138 32.0519 25.084 31.5959 25V5.344L31.7939 5.128C32.7659 5.104 33.9359 5.074 35.3039 5.038C36.6719 5.002 37.9859 4.984 39.2459 4.984C40.8179 4.984 42.2159 5.224 43.4399 5.704C44.6639 6.184 45.6239 6.94 46.3199 7.972C47.0159 9.004 47.3639 10.336 47.3639 11.968ZM37.2839 9.196V14.704C37.6079 14.692 37.9019 14.686 38.1659 14.686C38.4299 14.674 38.6279 14.668 38.7599 14.668C39.5519 14.668 40.1459 14.524 40.5419 14.236C40.9499 13.936 41.2199 13.576 41.3519 13.156C41.4839 12.724 41.5499 12.316 41.5499 11.932C41.5499 11.572 41.4839 11.182 41.3519 10.762C41.2199 10.342 40.9499 9.982 40.5419 9.682C40.1459 9.382 39.5519 9.232 38.7599 9.232C38.4599 9.232 38.2439 9.232 38.1119 9.232C37.9799 9.22 37.7039 9.208 37.2839 9.196ZM49.3684 15.118C49.3684 11.902 50.1964 9.352 51.8524 7.468C53.5204 5.572 55.9504 4.624 59.1424 4.624C62.3824 4.624 64.8244 5.566 66.4684 7.45C68.1244 9.322 68.9524 11.878 68.9524 15.118C68.9524 18.358 68.1244 20.908 66.4684 22.768C64.8124 24.616 62.3704 25.54 59.1424 25.54C55.9024 25.54 53.4604 24.604 51.8164 22.732C50.1844 20.86 49.3684 18.322 49.3684 15.118ZM55.1824 15.118C55.1824 15.802 55.2244 16.51 55.3084 17.242C55.4044 17.962 55.5844 18.634 55.8484 19.258C56.1244 19.882 56.5264 20.392 57.0544 20.788C57.5824 21.172 58.2844 21.364 59.1604 21.364C60.0364 21.364 60.7384 21.172 61.2664 20.788C61.7944 20.392 62.1904 19.882 62.4544 19.258C62.7304 18.634 62.9104 17.962 62.9944 17.242C63.0904 16.51 63.1384 15.802 63.1384 15.118C63.1384 14.422 63.0904 13.708 62.9944 12.976C62.9104 12.232 62.7304 11.548 62.4544 10.924C62.1904 10.288 61.7944 9.778 61.2664 9.394C60.7384 8.998 60.0364 8.8 59.1604 8.8C58.2844 8.8 57.5824 8.998 57.0544 9.394C56.5264 9.778 56.1244 10.288 55.8484 10.924C55.5844 11.548 55.4044 12.232 55.3084 12.976C55.2244 13.708 55.1824 14.422 55.1824 15.118ZM98.6586 15.118C98.6586 18.478 97.8726 20.992 96.3006 22.66C94.7286 24.316 92.2506 25.144 88.8666 25.144C87.4386 25.144 86.0826 25.132 84.7986 25.108C83.5266 25.096 82.1826 25.072 80.7666 25.036L80.5686 24.82V5.344L80.7666 5.128C82.1946 5.092 83.5446 5.062 84.8166 5.038C86.0886 5.002 87.4386 4.984 88.8666 4.984C92.2146 4.984 94.6806 5.854 96.2646 7.594C97.8606 9.322 98.6586 11.83 98.6586 15.118ZM92.8626 15.118C92.8626 14.242 92.7726 13.366 92.5926 12.49C92.4126 11.602 92.0346 10.858 91.4586 10.258C90.8826 9.658 90.0186 9.358 88.8666 9.358C88.3386 9.358 87.8826 9.358 87.4986 9.358C87.1266 9.346 86.6946 9.334 86.2026 9.322V20.842C86.7186 20.842 87.1566 20.836 87.5166 20.824C87.8886 20.812 88.3386 20.806 88.8666 20.806C90.0186 20.806 90.8826 20.512 91.4586 19.924C92.0346 19.324 92.4126 18.586 92.5926 17.71C92.7726 16.834 92.8626 15.97 92.8626 15.118ZM117.503 20.482C117.503 22.198 117.233 23.392 116.693 24.064C116.165 24.736 115.265 25.072 113.993 25.072H105.695C104.675 25.072 103.871 24.784 103.283 24.208C102.695 23.62 102.401 22.834 102.401 21.85V5.362L102.599 5.164H116.837C116.921 5.572 116.969 5.962 116.981 6.334C116.993 6.706 116.999 7.06 116.999 7.396C116.999 7.72 116.963 8.086 116.891 8.494C116.831 8.902 116.723 9.316 116.567 9.736H110.267C109.763 9.736 109.001 9.73 107.981 9.718C107.993 10.09 107.999 10.408 107.999 10.672C108.011 10.936 108.017 11.254 108.017 11.626V12.814C109.013 12.802 109.763 12.796 110.267 12.796H114.875C114.995 13.12 115.073 13.492 115.109 13.912C115.157 14.32 115.181 14.668 115.181 14.956C115.181 15.292 115.157 15.67 115.109 16.09C115.073 16.498 114.995 16.87 114.875 17.206H110.267C110.039 17.206 109.721 17.206 109.313 17.206C108.905 17.206 108.473 17.206 108.017 17.206V18.376C108.017 18.82 108.011 19.186 107.999 19.474C107.987 19.762 107.981 20.122 107.981 20.554V20.59C108.401 20.566 108.791 20.542 109.151 20.518C109.511 20.494 109.949 20.482 110.465 20.482H117.503ZM136.314 15.946C136.23 15.754 136.098 15.454 135.918 15.046C135.738 14.626 135.546 14.176 135.342 13.696C135.138 13.216 134.946 12.766 134.766 12.346C134.598 11.926 134.466 11.62 134.37 11.428L134.244 11.482C134.292 12.43 134.34 13.456 134.388 14.56C134.436 15.652 134.472 16.654 134.496 17.566C134.532 18.466 134.55 19.12 134.55 19.528V25C134.082 25.084 133.632 25.138 133.2 25.162C132.768 25.198 132.366 25.216 131.994 25.216C131.658 25.216 131.238 25.198 130.734 25.162C130.242 25.138 129.774 25.084 129.33 25V5.29C129.774 5.182 130.326 5.098 130.986 5.038C131.646 4.978 132.156 4.948 132.516 4.948C132.888 4.948 133.416 4.96 134.1 4.984C134.784 4.996 135.348 5.056 135.792 5.164L140.022 14.182C140.106 14.35 140.244 14.656 140.436 15.1C140.64 15.544 140.856 16.03 141.084 16.558C141.312 17.086 141.522 17.584 141.714 18.052C141.918 18.508 142.068 18.844 142.164 19.06L142.326 19.024C142.278 18.232 142.212 17.308 142.128 16.252C142.056 15.196 141.99 14.176 141.93 13.192C141.87 12.208 141.84 11.422 141.84 10.834V8.026C141.84 6.754 142.116 5.92 142.668 5.524C143.22 5.116 144.042 4.912 145.134 4.912H146.988L147.204 5.164V24.892C146.736 25 146.172 25.078 145.512 25.126C144.852 25.186 144.348 25.216 144 25.216C143.76 25.216 143.43 25.21 143.01 25.198C142.59 25.186 142.158 25.168 141.714 25.144C141.282 25.12 140.922 25.072 140.634 25L136.314 15.946ZM150.935 15.118C150.935 11.902 151.763 9.352 153.419 7.468C155.087 5.572 157.517 4.624 160.709 4.624C163.949 4.624 166.391 5.566 168.035 7.45C169.691 9.322 170.519 11.878 170.519 15.118C170.519 18.358 169.691 20.908 168.035 22.768C166.379 24.616 163.937 25.54 160.709 25.54C157.469 25.54 155.027 24.604 153.383 22.732C151.751 20.86 150.935 18.322 150.935 15.118ZM156.749 15.118C156.749 15.802 156.791 16.51 156.875 17.242C156.971 17.962 157.151 18.634 157.415 19.258C157.691 19.882 158.093 20.392 158.621 20.788C159.149 21.172 159.851 21.364 160.727 21.364C161.603 21.364 162.305 21.172 162.833 20.788C163.361 20.392 163.757 19.882 164.021 19.258C164.297 18.634 164.477 17.962 164.561 17.242C164.657 16.51 164.705 15.802 164.705 15.118C164.705 14.422 164.657 13.708 164.561 12.976C164.477 12.232 164.297 11.548 164.021 10.924C163.757 10.288 163.361 9.778 162.833 9.394C162.305 8.998 161.603 8.8 160.727 8.8C159.851 8.8 159.149 8.998 158.621 9.394C158.093 9.778 157.691 10.288 157.415 10.924C157.151 11.548 156.971 12.232 156.875 12.976C156.791 13.708 156.749 14.422 156.749 15.118ZM176.862 11.914C176.862 11.53 176.868 11.176 176.88 10.852C176.892 10.516 176.898 10.144 176.898 9.736C176.646 9.736 176.298 9.742 175.854 9.754C175.422 9.766 175.08 9.772 174.828 9.772H171.498C171.402 9.34 171.342 8.938 171.318 8.566C171.294 8.182 171.282 7.834 171.282 7.522C171.282 7.21 171.294 6.844 171.318 6.424C171.342 5.992 171.402 5.572 171.498 5.164H187.788C187.872 5.488 187.932 5.854 187.968 6.262C188.016 6.67 188.04 7 188.04 7.252C188.04 8.068 187.824 8.692 187.392 9.124C186.96 9.556 186.24 9.772 185.232 9.772H184.494C184.242 9.772 183.906 9.766 183.486 9.754C183.078 9.742 182.76 9.736 182.532 9.736C182.532 10.144 182.538 10.516 182.55 10.852C182.562 11.176 182.568 11.53 182.568 11.914V25C182.232 25.072 181.77 25.126 181.182 25.162C180.594 25.198 180.102 25.216 179.706 25.216C179.334 25.216 178.866 25.198 178.302 25.162C177.738 25.126 177.258 25.072 176.862 25V11.914ZM190.539 5.164C190.995 5.068 191.511 5.008 192.087 4.984C192.663 4.96 193.119 4.948 193.455 4.948C193.815 4.948 194.247 4.96 194.751 4.984C195.267 5.008 195.765 5.068 196.245 5.164V25C195.765 25.084 195.267 25.138 194.751 25.162C194.247 25.198 193.815 25.216 193.455 25.216C193.119 25.216 192.663 25.198 192.087 25.162C191.511 25.138 190.995 25.084 190.539 25V5.164ZM212.451 14.146C212.451 12.622 212.247 11.398 211.839 10.474C211.431 9.538 210.609 9.07 209.373 9.07C208.089 9.07 207.177 9.598 206.637 10.654C206.097 11.71 205.827 13.228 205.827 15.208C205.827 16.72 206.019 17.884 206.403 18.7C206.799 19.504 207.303 20.062 207.915 20.374C208.527 20.686 209.175 20.842 209.859 20.842C210.747 20.842 211.635 20.65 212.523 20.266C213.423 19.87 214.227 19.408 214.935 18.88C215.319 19.072 215.691 19.378 216.051 19.798C216.411 20.218 216.723 20.668 216.987 21.148C217.251 21.628 217.419 22.066 217.491 22.462C216.495 23.314 215.283 24.04 213.855 24.64C212.439 25.24 210.825 25.54 209.013 25.54C207.273 25.54 205.821 25.234 204.657 24.622C203.505 24.01 202.587 23.206 201.903 22.21C201.219 21.202 200.733 20.086 200.445 18.862C200.157 17.638 200.013 16.408 200.013 15.172C200.013 12.712 200.457 10.708 201.345 9.16C202.245 7.6 203.421 6.454 204.873 5.722C206.337 4.99 207.903 4.624 209.571 4.624C211.443 4.624 212.985 4.954 214.197 5.614C215.409 6.274 216.309 7.108 216.897 8.116C217.485 9.124 217.779 10.162 217.779 11.23C217.779 13.282 216.627 14.308 214.323 14.308C214.047 14.308 213.747 14.29 213.423 14.254C213.099 14.218 212.775 14.182 212.451 14.146ZM221.336 5.164C221.792 5.068 222.308 5.008 222.884 4.984C223.46 4.96 223.916 4.948 224.252 4.948C224.612 4.948 225.044 4.96 225.548 4.984C226.064 5.008 226.562 5.068 227.042 5.164V25C226.562 25.084 226.064 25.138 225.548 25.162C225.044 25.198 224.612 25.216 224.252 25.216C223.916 25.216 223.46 25.198 222.884 25.162C222.308 25.138 221.792 25.084 221.336 25V5.164ZM237.308 21.526C237.116 21.526 236.93 21.526 236.75 21.526C236.57 21.514 236.39 21.502 236.21 21.49L235.094 25C234.746 25.084 234.368 25.144 233.96 25.18C233.552 25.228 233.126 25.252 232.682 25.252C232.202 25.252 231.716 25.216 231.224 25.144C230.744 25.072 230.348 24.97 230.036 24.838L229.838 24.532L236.84 5.164C237.464 5.068 238.064 5.008 238.64 4.984C239.228 4.96 239.762 4.948 240.242 4.948C240.686 4.948 241.166 4.96 241.682 4.984C242.198 5.008 242.78 5.068 243.428 5.164L250.232 24.73C249.812 24.922 249.278 25.066 248.63 25.162C247.982 25.27 247.46 25.324 247.064 25.324C246.404 25.324 245.768 25.198 245.156 24.946C244.544 24.694 244.082 24.028 243.77 22.948L243.32 21.49C243.128 21.502 242.942 21.514 242.762 21.526C242.582 21.526 242.39 21.526 242.186 21.526H237.308ZM238.028 15.838L237.632 17.08C237.812 17.068 237.992 17.062 238.172 17.062C238.352 17.05 238.538 17.044 238.73 17.044H240.98C241.16 17.044 241.322 17.05 241.466 17.062C241.622 17.062 241.778 17.068 241.934 17.08L241.556 15.856C241.28 14.908 241.004 13.852 240.728 12.688C240.452 11.524 240.2 10.468 239.972 9.52H239.756C239.504 10.432 239.222 11.476 238.91 12.652C238.61 13.828 238.316 14.89 238.028 15.838ZM252.435 22.552C252.435 22.336 252.465 22 252.525 21.544C252.597 21.088 252.711 20.698 252.867 20.374C253.227 20.17 253.665 20.008 254.181 19.888C254.709 19.768 255.213 19.708 255.693 19.708C256.161 19.708 256.659 19.768 257.187 19.888C257.715 20.008 258.159 20.17 258.519 20.374C258.675 20.698 258.783 21.088 258.843 21.544C258.903 22 258.933 22.336 258.933 22.552C258.933 22.768 258.903 23.104 258.843 23.56C258.783 24.016 258.675 24.406 258.519 24.73C258.159 24.946 257.715 25.108 257.187 25.216C256.659 25.324 256.161 25.378 255.693 25.378C255.213 25.378 254.709 25.324 254.181 25.216C253.665 25.108 253.227 24.946 252.867 24.73C252.711 24.406 252.597 24.016 252.525 23.56C252.465 23.104 252.435 22.768 252.435 22.552ZM252.435 11.428C252.435 11.212 252.465 10.876 252.525 10.42C252.597 9.964 252.711 9.574 252.867 9.25C253.227 9.046 253.665 8.884 254.181 8.764C254.709 8.644 255.213 8.584 255.693 8.584C256.161 8.584 256.659 8.644 257.187 8.764C257.715 8.884 258.159 9.046 258.519 9.25C258.675 9.574 258.783 9.964 258.843 10.42C258.903 10.876 258.933 11.212 258.933 11.428C258.933 11.644 258.903 11.98 258.843 12.436C258.783 12.892 258.675 13.282 258.519 13.606C258.159 13.822 257.715 13.984 257.187 14.092C256.659 14.2 256.161 14.254 255.693 14.254C255.213 14.254 254.709 14.2 254.181 14.092C253.665 13.984 253.227 13.822 252.867 13.606C252.711 13.282 252.597 12.892 252.525 12.436C252.465 11.98 252.435 11.644 252.435 11.428Z" fill="white" fill-opacity="0.87"/>
</svg>
