<svg width="343" height="26" viewBox="0 0 343 26" fill="none" xmlns="http://www.w3.org/2000/svg">
<path d="M6.25941 7.828C6.25941 7.336 6.26541 6.898 6.27741 6.514C6.28941 6.118 6.29541 5.668 6.29541 5.164H6.25941C5.99541 5.164 5.61741 5.17 5.12541 5.182C4.63341 5.194 4.25541 5.2 3.99141 5.2H0.265406C0.181406 4.768 0.127406 4.348 0.103406 3.94C0.0794063 3.52 0.0674063 3.148 0.0674063 2.824C0.0674063 2.488 0.0794063 2.11 0.103406 1.69C0.127406 1.27 0.181406 0.843999 0.265406 0.411999H18.0854C18.1694 0.711999 18.2354 1.066 18.2834 1.474C18.3434 1.87 18.3734 2.254 18.3734 2.626C18.3734 3.562 18.1274 4.228 17.6354 4.624C17.1554 5.008 16.3994 5.2 15.3674 5.2H14.3054C14.0414 5.2 13.6634 5.194 13.1714 5.182C12.6794 5.17 12.3014 5.164 12.0374 5.164H12.0014C12.0014 5.668 12.0074 6.118 12.0194 6.514C12.0314 6.898 12.0374 7.336 12.0374 7.828V25C11.5454 25.084 11.0414 25.138 10.5254 25.162C10.0094 25.198 9.55341 25.216 9.15741 25.216C8.74941 25.216 8.28741 25.198 7.77141 25.162C7.25541 25.138 6.75141 25.084 6.25941 25V7.828ZM20.3242 5.164C20.7802 5.068 21.2962 5.008 21.8722 4.984C22.4482 4.96 22.9042 4.948 23.2402 4.948C23.6002 4.948 24.0322 4.96 24.5362 4.984C25.0522 5.008 25.5502 5.068 26.0302 5.164V25C25.5502 25.084 25.0522 25.138 24.5362 25.162C24.0322 25.198 23.6002 25.216 23.2402 25.216C22.9042 25.216 22.4482 25.198 21.8722 25.162C21.2962 25.138 20.7802 25.084 20.3242 25V5.164ZM34.2801 11.914C34.2801 11.53 34.2861 11.176 34.2981 10.852C34.3101 10.516 34.3161 10.144 34.3161 9.736C34.0641 9.736 33.7161 9.742 33.2721 9.754C32.8401 9.766 32.4981 9.772 32.2461 9.772H28.9161C28.8201 9.34 28.7601 8.938 28.7361 8.566C28.7121 8.182 28.7001 7.834 28.7001 7.522C28.7001 7.21 28.7121 6.844 28.7361 6.424C28.7601 5.992 28.8201 5.572 28.9161 5.164H45.2061C45.2901 5.488 45.3501 5.854 45.3861 6.262C45.4341 6.67 45.4581 7 45.4581 7.252C45.4581 8.068 45.2421 8.692 44.8101 9.124C44.3781 9.556 43.6581 9.772 42.6501 9.772H41.9121C41.6601 9.772 41.3241 9.766 40.9041 9.754C40.4961 9.742 40.1781 9.736 39.9501 9.736C39.9501 10.144 39.9561 10.516 39.9681 10.852C39.9801 11.176 39.9861 11.53 39.9861 11.914V25C39.6501 25.072 39.1881 25.126 38.6001 25.162C38.0121 25.198 37.5201 25.216 37.1241 25.216C36.7521 25.216 36.2841 25.198 35.7201 25.162C35.1561 25.126 34.6761 25.072 34.2801 25V11.914ZM65.129 17.566C65.129 20.05 64.385 22 62.897 23.416C61.421 24.832 59.231 25.54 56.327 25.54C53.423 25.54 51.227 24.832 49.739 23.416C48.263 22 47.525 20.05 47.525 17.566V5.164L47.741 4.948H49.793C50.885 4.948 51.725 5.224 52.313 5.776C52.913 6.328 53.213 7.258 53.213 8.566V17.548C53.213 18.64 53.441 19.498 53.897 20.122C54.353 20.746 55.163 21.058 56.327 21.058C57.503 21.058 58.313 20.746 58.757 20.122C59.201 19.498 59.423 18.64 59.423 17.548V5.164C59.903 5.068 60.395 5.008 60.899 4.984C61.403 4.96 61.841 4.948 62.213 4.948C62.549 4.948 63.005 4.966 63.581 5.002C64.157 5.026 64.673 5.086 65.129 5.182V17.566ZM83.9671 20.392C83.8951 22.144 83.5891 23.368 83.0491 24.064C82.5091 24.76 81.5491 25.108 80.1691 25.108H73.1851C72.1531 25.108 71.3431 24.82 70.7551 24.244C70.1791 23.656 69.8911 22.87 69.8911 21.886V5.2L70.1071 4.984H72.2671C73.3591 4.984 74.1871 5.26 74.7511 5.812C75.3151 6.352 75.5971 7.258 75.5971 8.53V20.572C76.8331 20.452 77.9431 20.392 78.9271 20.392H83.9671ZM85.3801 15.118C85.3801 11.902 86.2081 9.352 87.8641 7.468C89.5321 5.572 91.9621 4.624 95.1541 4.624C98.3941 4.624 100.836 5.566 102.48 7.45C104.136 9.322 104.964 11.878 104.964 15.118C104.964 18.358 104.136 20.908 102.48 22.768C100.824 24.616 98.3821 25.54 95.1541 25.54C91.9141 25.54 89.4721 24.604 87.8281 22.732C86.1961 20.86 85.3801 18.322 85.3801 15.118ZM91.1941 15.118C91.1941 15.802 91.2361 16.51 91.3201 17.242C91.4161 17.962 91.5961 18.634 91.8601 19.258C92.1361 19.882 92.5381 20.392 93.0661 20.788C93.5941 21.172 94.2961 21.364 95.1721 21.364C96.0481 21.364 96.7501 21.172 97.2781 20.788C97.8061 20.392 98.2021 19.882 98.4661 19.258C98.7421 18.634 98.9221 17.962 99.0061 17.242C99.1021 16.51 99.1501 15.802 99.1501 15.118C99.1501 14.422 99.1021 13.708 99.0061 12.976C98.9221 12.232 98.7421 11.548 98.4661 10.924C98.2021 10.288 97.8061 9.778 97.2781 9.394C96.7501 8.998 96.0481 8.8 95.1721 8.8C94.2961 8.8 93.5941 8.998 93.0661 9.394C92.5381 9.778 92.1361 10.288 91.8601 10.924C91.5961 11.548 91.4161 12.232 91.3201 12.976C91.2361 13.708 91.1941 14.422 91.1941 15.118ZM134.67 15.118C134.67 18.478 133.884 20.992 132.312 22.66C130.74 24.316 128.262 25.144 124.878 25.144C123.45 25.144 122.094 25.132 120.81 25.108C119.538 25.096 118.194 25.072 116.778 25.036L116.58 24.82V5.344L116.778 5.128C118.206 5.092 119.556 5.062 120.828 5.038C122.1 5.002 123.45 4.984 124.878 4.984C128.226 4.984 130.692 5.854 132.276 7.594C133.872 9.322 134.67 11.83 134.67 15.118ZM128.874 15.118C128.874 14.242 128.784 13.366 128.604 12.49C128.424 11.602 128.046 10.858 127.47 10.258C126.894 9.658 126.03 9.358 124.878 9.358C124.35 9.358 123.894 9.358 123.51 9.358C123.138 9.346 122.706 9.334 122.214 9.322V20.842C122.73 20.842 123.168 20.836 123.528 20.824C123.9 20.812 124.35 20.806 124.878 20.806C126.03 20.806 126.894 20.512 127.47 19.924C128.046 19.324 128.424 18.586 128.604 17.71C128.784 16.834 128.874 15.97 128.874 15.118ZM153.514 20.482C153.514 22.198 153.244 23.392 152.704 24.064C152.176 24.736 151.276 25.072 150.004 25.072H141.706C140.686 25.072 139.882 24.784 139.294 24.208C138.706 23.62 138.412 22.834 138.412 21.85V5.362L138.61 5.164H152.848C152.932 5.572 152.98 5.962 152.992 6.334C153.004 6.706 153.01 7.06 153.01 7.396C153.01 7.72 152.974 8.086 152.902 8.494C152.842 8.902 152.734 9.316 152.578 9.736H146.278C145.774 9.736 145.012 9.73 143.992 9.718C144.004 10.09 144.01 10.408 144.01 10.672C144.022 10.936 144.028 11.254 144.028 11.626V12.814C145.024 12.802 145.774 12.796 146.278 12.796H150.886C151.006 13.12 151.084 13.492 151.12 13.912C151.168 14.32 151.192 14.668 151.192 14.956C151.192 15.292 151.168 15.67 151.12 16.09C151.084 16.498 151.006 16.87 150.886 17.206H146.278C146.05 17.206 145.732 17.206 145.324 17.206C144.916 17.206 144.484 17.206 144.028 17.206V18.376C144.028 18.82 144.022 19.186 144.01 19.474C143.998 19.762 143.992 20.122 143.992 20.554V20.59C144.412 20.566 144.802 20.542 145.162 20.518C145.522 20.494 145.96 20.482 146.476 20.482H153.514ZM179.346 20.392C179.274 22.144 178.968 23.368 178.428 24.064C177.888 24.76 176.928 25.108 175.548 25.108H168.564C167.532 25.108 166.722 24.82 166.134 24.244C165.558 23.656 165.27 22.87 165.27 21.886V5.2L165.486 4.984H167.646C168.738 4.984 169.566 5.26 170.13 5.812C170.694 6.352 170.976 7.258 170.976 8.53V20.572C172.212 20.452 173.322 20.392 174.306 20.392H179.346ZM187.749 21.526C187.557 21.526 187.371 21.526 187.191 21.526C187.011 21.514 186.831 21.502 186.651 21.49L185.535 25C185.187 25.084 184.809 25.144 184.401 25.18C183.993 25.228 183.567 25.252 183.123 25.252C182.643 25.252 182.157 25.216 181.665 25.144C181.185 25.072 180.789 24.97 180.477 24.838L180.279 24.532L187.281 5.164C187.905 5.068 188.505 5.008 189.081 4.984C189.669 4.96 190.203 4.948 190.683 4.948C191.127 4.948 191.607 4.96 192.123 4.984C192.639 5.008 193.221 5.068 193.869 5.164L200.673 24.73C200.253 24.922 199.719 25.066 199.071 25.162C198.423 25.27 197.901 25.324 197.505 25.324C196.845 25.324 196.209 25.198 195.597 24.946C194.985 24.694 194.523 24.028 194.211 22.948L193.761 21.49C193.569 21.502 193.383 21.514 193.203 21.526C193.023 21.526 192.831 21.526 192.627 21.526H187.749ZM188.469 15.838L188.073 17.08C188.253 17.068 188.433 17.062 188.613 17.062C188.793 17.05 188.979 17.044 189.171 17.044H191.421C191.601 17.044 191.763 17.05 191.907 17.062C192.063 17.062 192.219 17.068 192.375 17.08L191.997 15.856C191.721 14.908 191.445 13.852 191.169 12.688C190.893 11.524 190.641 10.468 190.413 9.52H190.197C189.945 10.432 189.663 11.476 189.351 12.652C189.051 13.828 188.757 14.89 188.469 15.838ZM218.544 12.112C218.148 11.188 217.776 10.282 217.428 9.394C217.08 8.506 216.78 7.72 216.528 7.036L216.384 7.09C216.48 8.11 216.558 9.268 216.618 10.564C216.69 11.848 216.744 13.132 216.78 14.416C216.816 15.7 216.834 16.84 216.834 17.836V25C216.366 25.084 215.904 25.138 215.448 25.162C214.992 25.198 214.584 25.216 214.224 25.216C213.876 25.216 213.438 25.198 212.91 25.162C212.394 25.138 211.914 25.084 211.47 25V0.52C211.914 0.411999 212.502 0.333999 213.234 0.286C213.966 0.226 214.512 0.196 214.872 0.196C215.244 0.196 215.736 0.213999 216.348 0.249998C216.96 0.273999 217.584 0.327999 218.22 0.411999L223.764 13.264C224.22 14.32 224.64 15.328 225.024 16.288C225.42 17.248 225.75 18.058 226.014 18.718L226.158 18.664C226.062 17.548 225.978 16.324 225.906 14.992C225.846 13.66 225.798 12.376 225.762 11.14C225.726 9.904 225.708 8.872 225.708 8.044V3.652C225.708 2.368 225.966 1.468 226.482 0.951998C227.01 0.435999 227.826 0.177999 228.93 0.177999H230.802L231.036 0.411999V24.892C230.58 25 229.98 25.078 229.236 25.126C228.504 25.186 227.946 25.216 227.562 25.216C227.19 25.216 226.698 25.198 226.086 25.162C225.474 25.138 224.856 25.084 224.232 25L218.544 12.112ZM234.935 15.118C234.935 11.902 235.763 9.352 237.419 7.468C239.087 5.572 241.517 4.624 244.709 4.624C247.949 4.624 250.391 5.566 252.035 7.45C253.691 9.322 254.519 11.878 254.519 15.118C254.519 18.358 253.691 20.908 252.035 22.768C250.379 24.616 247.937 25.54 244.709 25.54C241.469 25.54 239.027 24.604 237.383 22.732C235.751 20.86 234.935 18.322 234.935 15.118ZM240.749 15.118C240.749 15.802 240.791 16.51 240.875 17.242C240.971 17.962 241.151 18.634 241.415 19.258C241.691 19.882 242.093 20.392 242.621 20.788C243.149 21.172 243.851 21.364 244.727 21.364C245.603 21.364 246.305 21.172 246.833 20.788C247.361 20.392 247.757 19.882 248.021 19.258C248.297 18.634 248.477 17.962 248.561 17.242C248.657 16.51 248.705 15.802 248.705 15.118C248.705 14.422 248.657 13.708 248.561 12.976C248.477 12.232 248.297 11.548 248.021 10.924C247.757 10.288 247.361 9.778 246.833 9.394C246.305 8.998 245.603 8.8 244.727 8.8C243.851 8.8 243.149 8.998 242.621 9.394C242.093 9.778 241.691 10.288 241.415 10.924C241.151 11.548 240.971 12.232 240.875 12.976C240.791 13.708 240.749 14.422 240.749 15.118ZM260.862 11.914C260.862 11.53 260.868 11.176 260.88 10.852C260.892 10.516 260.898 10.144 260.898 9.736C260.646 9.736 260.298 9.742 259.854 9.754C259.422 9.766 259.08 9.772 258.828 9.772H255.498C255.402 9.34 255.342 8.938 255.318 8.566C255.294 8.182 255.282 7.834 255.282 7.522C255.282 7.21 255.294 6.844 255.318 6.424C255.342 5.992 255.402 5.572 255.498 5.164H271.788C271.872 5.488 271.932 5.854 271.968 6.262C272.016 6.67 272.04 7 272.04 7.252C272.04 8.068 271.824 8.692 271.392 9.124C270.96 9.556 270.24 9.772 269.232 9.772H268.494C268.242 9.772 267.906 9.766 267.486 9.754C267.078 9.742 266.76 9.736 266.532 9.736C266.532 10.144 266.538 10.516 266.55 10.852C266.562 11.176 266.568 11.53 266.568 11.914V25C266.232 25.072 265.77 25.126 265.182 25.162C264.594 25.198 264.102 25.216 263.706 25.216C263.334 25.216 262.866 25.198 262.302 25.162C261.738 25.126 261.258 25.072 260.862 25V11.914ZM274.539 5.164C274.995 5.068 275.511 5.008 276.087 4.984C276.663 4.96 277.119 4.948 277.455 4.948C277.815 4.948 278.247 4.96 278.751 4.984C279.267 5.008 279.765 5.068 280.245 5.164V25C279.765 25.084 279.267 25.138 278.751 25.162C278.247 25.198 277.815 25.216 277.455 25.216C277.119 25.216 276.663 25.198 276.087 25.162C275.511 25.138 274.995 25.084 274.539 25V5.164ZM296.451 14.146C296.451 12.622 296.247 11.398 295.839 10.474C295.431 9.538 294.609 9.07 293.373 9.07C292.089 9.07 291.177 9.598 290.637 10.654C290.097 11.71 289.827 13.228 289.827 15.208C289.827 16.72 290.019 17.884 290.403 18.7C290.799 19.504 291.303 20.062 291.915 20.374C292.527 20.686 293.175 20.842 293.859 20.842C294.747 20.842 295.635 20.65 296.523 20.266C297.423 19.87 298.227 19.408 298.935 18.88C299.319 19.072 299.691 19.378 300.051 19.798C300.411 20.218 300.723 20.668 300.987 21.148C301.251 21.628 301.419 22.066 301.491 22.462C300.495 23.314 299.283 24.04 297.855 24.64C296.439 25.24 294.825 25.54 293.013 25.54C291.273 25.54 289.821 25.234 288.657 24.622C287.505 24.01 286.587 23.206 285.903 22.21C285.219 21.202 284.733 20.086 284.445 18.862C284.157 17.638 284.013 16.408 284.013 15.172C284.013 12.712 284.457 10.708 285.345 9.16C286.245 7.6 287.421 6.454 288.873 5.722C290.337 4.99 291.903 4.624 293.571 4.624C295.443 4.624 296.985 4.954 298.197 5.614C299.409 6.274 300.309 7.108 300.897 8.116C301.485 9.124 301.779 10.162 301.779 11.23C301.779 13.282 300.627 14.308 298.323 14.308C298.047 14.308 297.747 14.29 297.423 14.254C297.099 14.218 296.775 14.182 296.451 14.146ZM305.336 5.164C305.792 5.068 306.308 5.008 306.884 4.984C307.46 4.96 307.916 4.948 308.252 4.948C308.612 4.948 309.044 4.96 309.548 4.984C310.064 5.008 310.562 5.068 311.042 5.164V25C310.562 25.084 310.064 25.138 309.548 25.162C309.044 25.198 308.612 25.216 308.252 25.216C307.916 25.216 307.46 25.198 306.884 25.162C306.308 25.138 305.792 25.084 305.336 25V5.164ZM321.308 21.526C321.116 21.526 320.93 21.526 320.75 21.526C320.57 21.514 320.39 21.502 320.21 21.49L319.094 25C318.746 25.084 318.368 25.144 317.96 25.18C317.552 25.228 317.126 25.252 316.682 25.252C316.202 25.252 315.716 25.216 315.224 25.144C314.744 25.072 314.348 24.97 314.036 24.838L313.838 24.532L320.84 5.164C321.464 5.068 322.064 5.008 322.64 4.984C323.228 4.96 323.762 4.948 324.242 4.948C324.686 4.948 325.166 4.96 325.682 4.984C326.198 5.008 326.78 5.068 327.428 5.164L334.232 24.73C333.812 24.922 333.278 25.066 332.63 25.162C331.982 25.27 331.46 25.324 331.064 25.324C330.404 25.324 329.768 25.198 329.156 24.946C328.544 24.694 328.082 24.028 327.77 22.948L327.32 21.49C327.128 21.502 326.942 21.514 326.762 21.526C326.582 21.526 326.39 21.526 326.186 21.526H321.308ZM322.028 15.838L321.632 17.08C321.812 17.068 321.992 17.062 322.172 17.062C322.352 17.05 322.538 17.044 322.73 17.044H324.98C325.16 17.044 325.322 17.05 325.466 17.062C325.622 17.062 325.778 17.068 325.934 17.08L325.556 15.856C325.28 14.908 325.004 13.852 324.728 12.688C324.452 11.524 324.2 10.468 323.972 9.52H323.756C323.504 10.432 323.222 11.476 322.91 12.652C322.61 13.828 322.316 14.89 322.028 15.838ZM336.435 22.552C336.435 22.336 336.465 22 336.525 21.544C336.597 21.088 336.711 20.698 336.867 20.374C337.227 20.17 337.665 20.008 338.181 19.888C338.709 19.768 339.213 19.708 339.693 19.708C340.161 19.708 340.659 19.768 341.187 19.888C341.715 20.008 342.159 20.17 342.519 20.374C342.675 20.698 342.783 21.088 342.843 21.544C342.903 22 342.933 22.336 342.933 22.552C342.933 22.768 342.903 23.104 342.843 23.56C342.783 24.016 342.675 24.406 342.519 24.73C342.159 24.946 341.715 25.108 341.187 25.216C340.659 25.324 340.161 25.378 339.693 25.378C339.213 25.378 338.709 25.324 338.181 25.216C337.665 25.108 337.227 24.946 336.867 24.73C336.711 24.406 336.597 24.016 336.525 23.56C336.465 23.104 336.435 22.768 336.435 22.552ZM336.435 11.428C336.435 11.212 336.465 10.876 336.525 10.42C336.597 9.964 336.711 9.574 336.867 9.25C337.227 9.046 337.665 8.884 338.181 8.764C338.709 8.644 339.213 8.584 339.693 8.584C340.161 8.584 340.659 8.644 341.187 8.764C341.715 8.884 342.159 9.046 342.519 9.25C342.675 9.574 342.783 9.964 342.843 10.42C342.903 10.876 342.933 11.212 342.933 11.428C342.933 11.644 342.903 11.98 342.843 12.436C342.783 12.892 342.675 13.282 342.519 13.606C342.159 13.822 341.715 13.984 341.187 14.092C340.659 14.2 340.161 14.254 339.693 14.254C339.213 14.254 338.709 14.2 338.181 14.092C337.665 13.984 337.227 13.822 336.867 13.606C336.711 13.282 336.597 12.892 336.525 12.436C336.465 11.98 336.435 11.644 336.435 11.428Z" fill="white" fill-opacity="0.87"/>
</svg>
