<svg width="505" height="35" viewBox="0 0 505 35" fill="none" xmlns="http://www.w3.org/2000/svg">
<path d="M21.7546 1.216C22.3146 1.072 22.8826 0.991998 23.4586 0.975999C24.0346 0.943999 24.5786 0.927999 25.0906 0.927999C25.5546 0.927999 26.1226 0.967999 26.7946 1.048C27.4826 1.128 28.0906 1.256 28.6186 1.432L28.9306 1.864L19.9306 34C19.0346 34.096 18.0346 34.168 16.9306 34.216C15.8426 34.264 14.8026 34.288 13.8106 34.288C12.3706 34.288 11.2426 34.048 10.4266 33.568C9.61056 33.088 9.01056 32.176 8.62656 30.832L0.634563 1.912C1.32256 1.608 2.05856 1.344 2.84256 1.12C3.62656 0.895998 4.43456 0.783998 5.26656 0.783998C6.41856 0.783998 7.30656 1.096 7.93056 1.72C8.57056 2.328 9.05856 3.288 9.39456 4.6L13.0906 18.256C13.4746 19.664 13.8186 21.12 14.1226 22.624C14.4266 24.128 14.6906 25.584 14.9146 26.992C14.9626 27.248 15.0186 27.416 15.0826 27.496C15.1626 27.56 15.2746 27.592 15.4186 27.592L21.7546 1.216ZM51.9904 27.976C51.9904 30.264 51.6304 31.856 50.9104 32.752C50.2064 33.648 49.0064 34.096 47.3104 34.096H36.2464C34.8864 34.096 33.8144 33.712 33.0304 32.944C32.2464 32.16 31.8544 31.112 31.8544 29.8V7.816L32.1184 7.552H51.1024C51.2144 8.096 51.2784 8.616 51.2944 9.112C51.3104 9.608 51.3184 10.08 51.3184 10.528C51.3184 10.96 51.2704 11.448 51.1744 11.992C51.0944 12.536 50.9504 13.088 50.7424 13.648H42.3424C41.6704 13.648 40.6544 13.64 39.2944 13.624C39.3104 14.12 39.3184 14.544 39.3184 14.896C39.3344 15.248 39.3424 15.672 39.3424 16.168V17.752C40.6704 17.736 41.6704 17.728 42.3424 17.728H48.4864C48.6464 18.16 48.7504 18.656 48.7984 19.216C48.8624 19.76 48.8944 20.224 48.8944 20.608C48.8944 21.056 48.8624 21.56 48.7984 22.12C48.7504 22.664 48.6464 23.16 48.4864 23.608H42.3424C42.0384 23.608 41.6144 23.608 41.0704 23.608C40.5264 23.608 39.9504 23.608 39.3424 23.608V25.168C39.3424 25.76 39.3344 26.248 39.3184 26.632C39.3024 27.016 39.2944 27.496 39.2944 28.072V28.12C39.8544 28.088 40.3744 28.056 40.8544 28.024C41.3344 27.992 41.9184 27.976 42.6064 27.976H51.9904ZM78.7658 15.592C78.7658 16.824 78.4858 17.92 77.9258 18.88C77.3658 19.84 76.6618 20.632 75.8138 21.256C74.9818 21.88 74.1498 22.28 73.3178 22.456C74.1818 22.744 74.8938 23.184 75.4538 23.776C76.0298 24.368 76.5258 25.128 76.9418 26.056L78.1898 28.912C78.4778 29.568 78.8058 30.176 79.1738 30.736C79.5418 31.28 79.9498 31.744 80.3978 32.128C79.9338 32.704 79.2378 33.24 78.3098 33.736C77.3818 34.216 76.3738 34.456 75.2858 34.456C74.2138 34.456 73.3418 34.2 72.6698 33.688C72.0138 33.16 71.4378 32.32 70.9418 31.168L68.8298 26.32C68.4938 25.536 68.0778 25.064 67.5818 24.904C67.0858 24.744 66.4458 24.664 65.6618 24.664H64.7258V34C64.0858 34.112 63.4218 34.184 62.7338 34.216C62.0618 34.264 61.4858 34.288 61.0058 34.288C60.5578 34.288 59.9658 34.264 59.2298 34.216C58.4938 34.184 57.8218 34.112 57.2138 34V7.792L57.4778 7.504C59.4138 7.456 61.2298 7.416 62.9258 7.384C64.6378 7.336 66.3418 7.312 68.0378 7.312C69.9578 7.312 71.7338 7.568 73.3658 8.08C74.9978 8.576 76.3018 9.432 77.2778 10.648C78.2698 11.848 78.7658 13.496 78.7658 15.592ZM64.7258 12.736V18.952C65.2858 18.936 65.7978 18.928 66.2618 18.928C66.7418 18.912 67.0938 18.904 67.3178 18.904C68.7578 18.904 69.7338 18.592 70.2458 17.968C70.7578 17.344 71.0138 16.616 71.0138 15.784C71.0138 14.968 70.7578 14.264 70.2458 13.672C69.7338 13.08 68.8778 12.784 67.6778 12.784C67.1018 12.784 66.6058 12.776 66.1898 12.76C65.7738 12.744 65.2858 12.736 64.7258 12.736ZM96.7688 7.552C97.5368 7.408 98.3768 7.312 99.2888 7.264C100.201 7.2 100.969 7.168 101.593 7.168C102.185 7.168 102.953 7.2 103.897 7.264C104.841 7.312 105.633 7.408 106.273 7.552L108.625 17.968C108.769 18.592 108.937 19.44 109.129 20.512C109.321 21.568 109.513 22.704 109.705 23.92H110.017C110.401 21.36 110.761 19.376 111.097 17.968L113.425 7.552C114.177 7.408 115.001 7.312 115.897 7.264C116.793 7.2 117.537 7.168 118.129 7.168C118.753 7.168 119.529 7.2 120.457 7.264C121.385 7.312 122.217 7.408 122.953 7.552L125.665 33.904C124.625 34.16 123.369 34.288 121.897 34.288C121.337 34.288 120.737 34.264 120.097 34.216C119.473 34.168 118.913 34.096 118.417 34L117.721 25.504C117.641 24.416 117.593 23.224 117.577 21.928C117.561 20.632 117.561 19.368 117.577 18.136C117.593 16.888 117.593 15.808 117.577 14.896H117.289L113.761 29.944C113.217 30.04 112.553 30.112 111.769 30.16C110.985 30.192 110.337 30.208 109.825 30.208C109.297 30.208 108.641 30.192 107.857 30.16C107.089 30.112 106.449 30.04 105.937 29.944L102.433 14.896H102.097C102.097 15.824 102.097 16.904 102.097 18.136C102.113 19.368 102.113 20.632 102.097 21.928C102.081 23.224 102.025 24.432 101.929 25.552L101.305 34C100.793 34.096 100.233 34.168 99.6248 34.216C99.0328 34.264 98.4568 34.288 97.8968 34.288C96.4088 34.288 95.1288 34.16 94.0568 33.904L96.7688 7.552ZM131.654 7.552C132.262 7.424 132.95 7.344 133.718 7.312C134.486 7.28 135.094 7.264 135.542 7.264C136.022 7.264 136.598 7.28 137.27 7.312C137.958 7.344 138.622 7.424 139.262 7.552V34C138.622 34.112 137.958 34.184 137.27 34.216C136.598 34.264 136.022 34.288 135.542 34.288C135.094 34.288 134.486 34.264 133.718 34.216C132.95 34.184 132.262 34.112 131.654 34V7.552ZM166.365 27.976C166.365 30.264 166.005 31.856 165.285 32.752C164.581 33.648 163.381 34.096 161.685 34.096H150.621C149.261 34.096 148.189 33.712 147.405 32.944C146.621 32.16 146.229 31.112 146.229 29.8V7.816L146.493 7.552H165.477C165.589 8.096 165.653 8.616 165.669 9.112C165.685 9.608 165.693 10.08 165.693 10.528C165.693 10.96 165.645 11.448 165.549 11.992C165.469 12.536 165.325 13.088 165.117 13.648H156.717C156.045 13.648 155.029 13.64 153.669 13.624C153.685 14.12 153.693 14.544 153.693 14.896C153.709 15.248 153.717 15.672 153.717 16.168V17.752C155.045 17.736 156.045 17.728 156.717 17.728H162.861C163.021 18.16 163.125 18.656 163.173 19.216C163.237 19.76 163.269 20.224 163.269 20.608C163.269 21.056 163.237 21.56 163.173 22.12C163.125 22.664 163.021 23.16 162.861 23.608H156.717C156.413 23.608 155.989 23.608 155.445 23.608C154.901 23.608 154.325 23.608 153.717 23.608V25.168C153.717 25.76 153.709 26.248 153.693 26.632C153.677 27.016 153.669 27.496 153.669 28.072V28.12C154.229 28.088 154.749 28.056 155.229 28.024C155.709 27.992 156.293 27.976 156.981 27.976H166.365ZM173.269 7.552C174.037 7.408 174.877 7.312 175.789 7.264C176.701 7.2 177.469 7.168 178.093 7.168C178.685 7.168 179.453 7.2 180.397 7.264C181.341 7.312 182.133 7.408 182.773 7.552L185.125 17.968C185.269 18.592 185.437 19.44 185.629 20.512C185.821 21.568 186.013 22.704 186.205 23.92H186.517C186.901 21.36 187.261 19.376 187.597 17.968L189.925 7.552C190.677 7.408 191.501 7.312 192.397 7.264C193.293 7.2 194.037 7.168 194.629 7.168C195.253 7.168 196.029 7.2 196.957 7.264C197.885 7.312 198.717 7.408 199.453 7.552L202.165 33.904C201.125 34.16 199.869 34.288 198.397 34.288C197.837 34.288 197.237 34.264 196.597 34.216C195.973 34.168 195.413 34.096 194.917 34L194.221 25.504C194.141 24.416 194.093 23.224 194.077 21.928C194.061 20.632 194.061 19.368 194.077 18.136C194.093 16.888 194.093 15.808 194.077 14.896H193.789L190.261 29.944C189.717 30.04 189.053 30.112 188.269 30.16C187.485 30.192 186.837 30.208 186.325 30.208C185.797 30.208 185.141 30.192 184.357 30.16C183.589 30.112 182.949 30.04 182.437 29.944L178.933 14.896H178.597C178.597 15.824 178.597 16.904 178.597 18.136C178.613 19.368 178.613 20.632 178.597 21.928C178.581 23.224 178.525 24.432 178.429 25.552L177.805 34C177.293 34.096 176.733 34.168 176.125 34.216C175.533 34.264 174.957 34.288 174.397 34.288C172.909 34.288 171.629 34.16 170.557 33.904L173.269 7.552ZM208.322 7.504C209.154 7.472 210.154 7.44 211.322 7.408C212.506 7.376 213.722 7.352 214.97 7.336C216.218 7.32 217.362 7.312 218.402 7.312C220.37 7.312 222.13 7.536 223.682 7.984C225.25 8.432 226.482 9.176 227.378 10.216C228.274 11.24 228.722 12.616 228.722 14.344C228.722 15.464 228.41 16.528 227.786 17.536C227.178 18.544 226.338 19.256 225.266 19.672C226.642 20.104 227.794 20.952 228.722 22.216C229.65 23.464 230.114 24.816 230.114 26.272C230.114 28.32 229.634 29.92 228.674 31.072C227.73 32.208 226.418 33.016 224.738 33.496C223.074 33.96 221.17 34.192 219.026 34.192C217.378 34.192 215.666 34.176 213.89 34.144C212.114 34.128 210.258 34.096 208.322 34.048L208.058 33.808V7.792L208.322 7.504ZM218.066 12.472C217.762 12.472 217.354 12.472 216.842 12.472C216.33 12.472 215.842 12.456 215.378 12.424V17.584H218.018C219.298 17.584 220.17 17.32 220.634 16.792C221.098 16.264 221.33 15.672 221.33 15.016C221.33 14.376 221.098 13.792 220.634 13.264C220.186 12.736 219.33 12.472 218.066 12.472ZM215.378 29.032C216.018 29 216.642 28.984 217.25 28.984C217.858 28.984 218.41 28.984 218.906 28.984C220.362 28.984 221.322 28.656 221.786 28C222.266 27.328 222.506 26.64 222.506 25.936C222.506 25.168 222.218 24.448 221.642 23.776C221.082 23.104 220.042 22.768 218.522 22.768H215.378V29.032ZM256.703 15.592C256.703 16.824 256.423 17.92 255.863 18.88C255.303 19.84 254.599 20.632 253.751 21.256C252.919 21.88 252.087 22.28 251.255 22.456C252.119 22.744 252.831 23.184 253.391 23.776C253.967 24.368 254.463 25.128 254.879 26.056L256.127 28.912C256.415 29.568 256.743 30.176 257.111 30.736C257.479 31.28 257.887 31.744 258.335 32.128C257.871 32.704 257.175 33.24 256.247 33.736C255.319 34.216 254.311 34.456 253.223 34.456C252.151 34.456 251.279 34.2 250.607 33.688C249.951 33.16 249.375 32.32 248.879 31.168L246.767 26.32C246.431 25.536 246.015 25.064 245.519 24.904C245.023 24.744 244.383 24.664 243.599 24.664H242.663V34C242.023 34.112 241.359 34.184 240.671 34.216C239.999 34.264 239.423 34.288 238.943 34.288C238.495 34.288 237.903 34.264 237.167 34.216C236.431 34.184 235.759 34.112 235.151 34V7.792L235.415 7.504C237.351 7.456 239.167 7.416 240.863 7.384C242.575 7.336 244.279 7.312 245.975 7.312C247.895 7.312 249.671 7.568 251.303 8.08C252.935 8.576 254.239 9.432 255.215 10.648C256.207 11.848 256.703 13.496 256.703 15.592ZM242.663 12.736V18.952C243.223 18.936 243.735 18.928 244.199 18.928C244.679 18.912 245.031 18.904 245.255 18.904C246.695 18.904 247.671 18.592 248.183 17.968C248.695 17.344 248.951 16.616 248.951 15.784C248.951 14.968 248.695 14.264 248.183 13.672C247.671 13.08 246.815 12.784 245.615 12.784C245.039 12.784 244.543 12.776 244.127 12.76C243.711 12.744 243.223 12.736 242.663 12.736ZM260.254 20.824C260.254 16.536 261.358 13.136 263.566 10.624C265.79 8.096 269.03 6.832 273.286 6.832C277.606 6.832 280.862 8.088 283.054 10.6C285.262 13.096 286.366 16.504 286.366 20.824C286.366 25.144 285.262 28.544 283.054 31.024C280.846 33.488 277.59 34.72 273.286 34.72C268.966 34.72 265.71 33.472 263.518 30.976C261.342 28.48 260.254 25.096 260.254 20.824ZM268.006 20.824C268.006 21.736 268.062 22.68 268.174 23.656C268.302 24.616 268.542 25.512 268.894 26.344C269.262 27.176 269.798 27.856 270.502 28.384C271.206 28.896 272.142 29.152 273.31 29.152C274.478 29.152 275.414 28.896 276.118 28.384C276.822 27.856 277.35 27.176 277.702 26.344C278.07 25.512 278.31 24.616 278.422 23.656C278.55 22.68 278.614 21.736 278.614 20.824C278.614 19.896 278.55 18.944 278.422 17.968C278.31 16.976 278.07 16.064 277.702 15.232C277.35 14.384 276.822 13.704 276.118 13.192C275.414 12.664 274.478 12.4 273.31 12.4C272.142 12.4 271.206 12.664 270.502 13.192C269.798 13.704 269.262 14.384 268.894 15.232C268.542 16.064 268.302 16.976 268.174 17.968C268.062 18.944 268.006 19.896 268.006 20.824ZM288.74 32.008C288.74 31.4 288.86 30.728 289.1 29.992C289.34 29.24 289.668 28.544 290.084 27.904C290.5 27.264 290.956 26.784 291.452 26.464C292.636 27.104 293.956 27.656 295.412 28.12C296.868 28.568 298.292 28.792 299.684 28.792C300.58 28.792 301.316 28.608 301.892 28.24C302.484 27.872 302.78 27.352 302.78 26.68C302.78 26.248 302.612 25.856 302.276 25.504C301.94 25.136 301.356 24.8 300.524 24.496L296.54 22.936C295.308 22.488 294.156 21.928 293.084 21.256C292.012 20.584 291.148 19.76 290.492 18.784C289.836 17.808 289.508 16.64 289.508 15.28C289.508 12.784 290.468 10.752 292.388 9.184C294.308 7.616 296.892 6.832 300.14 6.832C301.98 6.832 303.804 7.048 305.612 7.48C307.436 7.896 308.964 8.376 310.196 8.92C310.196 10.008 309.972 11.08 309.524 12.136C309.076 13.192 308.46 14.024 307.676 14.632C306.492 14.104 305.204 13.664 303.812 13.312C302.42 12.944 301.164 12.76 300.044 12.76C299.212 12.76 298.572 12.936 298.124 13.288C297.692 13.64 297.476 14.064 297.476 14.56C297.476 15.024 297.692 15.376 298.124 15.616C298.556 15.856 299.092 16.096 299.732 16.336L303.692 17.848C305.9 18.648 307.652 19.752 308.948 21.16C310.26 22.552 310.916 24.272 310.916 26.32C310.916 28.128 310.428 29.656 309.452 30.904C308.492 32.152 307.172 33.096 305.492 33.736C303.828 34.376 301.948 34.704 299.852 34.72C297.356 34.72 295.132 34.432 293.18 33.856C291.244 33.28 289.764 32.664 288.74 32.008ZM350.256 20.824C350.256 25.304 349.208 28.656 347.112 30.88C345.016 33.088 341.712 34.192 337.2 34.192C335.296 34.192 333.488 34.176 331.776 34.144C330.08 34.128 328.288 34.096 326.4 34.048L326.136 33.76V7.792L326.4 7.504C328.304 7.456 330.104 7.416 331.8 7.384C333.496 7.336 335.296 7.312 337.2 7.312C341.664 7.312 344.952 8.472 347.064 10.792C349.192 13.096 350.256 16.44 350.256 20.824ZM342.528 20.824C342.528 19.656 342.408 18.488 342.168 17.32C341.928 16.136 341.424 15.144 340.656 14.344C339.888 13.544 338.736 13.144 337.2 13.144C336.496 13.144 335.888 13.144 335.376 13.144C334.88 13.128 334.304 13.112 333.648 13.096V28.456C334.336 28.456 334.92 28.448 335.4 28.432C335.896 28.416 336.496 28.408 337.2 28.408C338.736 28.408 339.888 28.016 340.656 27.232C341.424 26.432 341.928 25.448 342.168 24.28C342.408 23.112 342.528 21.96 342.528 20.824ZM375.381 27.976C375.381 30.264 375.021 31.856 374.301 32.752C373.597 33.648 372.397 34.096 370.701 34.096H359.637C358.277 34.096 357.205 33.712 356.421 32.944C355.637 32.16 355.245 31.112 355.245 29.8V7.816L355.509 7.552H374.493C374.605 8.096 374.669 8.616 374.685 9.112C374.701 9.608 374.709 10.08 374.709 10.528C374.709 10.96 374.661 11.448 374.565 11.992C374.485 12.536 374.341 13.088 374.133 13.648H365.733C365.061 13.648 364.045 13.64 362.685 13.624C362.701 14.12 362.709 14.544 362.709 14.896C362.725 15.248 362.733 15.672 362.733 16.168V17.752C364.061 17.736 365.061 17.728 365.733 17.728H371.877C372.037 18.16 372.141 18.656 372.189 19.216C372.253 19.76 372.285 20.224 372.285 20.608C372.285 21.056 372.253 21.56 372.189 22.12C372.141 22.664 372.037 23.16 371.877 23.608H365.733C365.429 23.608 365.005 23.608 364.461 23.608C363.917 23.608 363.341 23.608 362.733 23.608V25.168C362.733 25.76 362.725 26.248 362.709 26.632C362.693 27.016 362.685 27.496 362.685 28.072V28.12C363.245 28.088 363.765 28.056 364.245 28.024C364.725 27.992 365.309 27.976 365.997 27.976H375.381ZM400.463 21.928C400.351 21.672 400.175 21.272 399.935 20.728C399.695 20.168 399.439 19.568 399.167 18.928C398.895 18.288 398.639 17.688 398.399 17.128C398.175 16.568 397.999 16.16 397.871 15.904L397.703 15.976C397.767 17.24 397.831 18.608 397.895 20.08C397.959 21.536 398.007 22.872 398.039 24.088C398.087 25.288 398.111 26.16 398.111 26.704V34C397.487 34.112 396.887 34.184 396.311 34.216C395.735 34.264 395.199 34.288 394.703 34.288C394.255 34.288 393.695 34.264 393.023 34.216C392.367 34.184 391.743 34.112 391.151 34V7.72C391.743 7.576 392.479 7.464 393.359 7.384C394.239 7.304 394.919 7.264 395.399 7.264C395.895 7.264 396.599 7.28 397.511 7.312C398.423 7.328 399.175 7.408 399.767 7.552L405.407 19.576C405.519 19.8 405.703 20.208 405.959 20.8C406.231 21.392 406.519 22.04 406.823 22.744C407.127 23.448 407.407 24.112 407.663 24.736C407.935 25.344 408.135 25.792 408.263 26.08L408.479 26.032C408.415 24.976 408.327 23.744 408.215 22.336C408.119 20.928 408.031 19.568 407.951 18.256C407.871 16.944 407.831 15.896 407.831 15.112V11.368C407.831 9.672 408.199 8.56 408.935 8.032C409.671 7.488 410.767 7.216 412.223 7.216H414.695L414.983 7.552V33.856C414.359 34 413.607 34.104 412.727 34.168C411.847 34.248 411.175 34.288 410.711 34.288C410.391 34.288 409.951 34.28 409.391 34.264C408.831 34.248 408.255 34.224 407.663 34.192C407.087 34.16 406.607 34.096 406.223 34L400.463 21.928ZM419.957 20.824C419.957 16.536 421.061 13.136 423.269 10.624C425.493 8.096 428.733 6.832 432.989 6.832C437.309 6.832 440.565 8.088 442.757 10.6C444.965 13.096 446.069 16.504 446.069 20.824C446.069 25.144 444.965 28.544 442.757 31.024C440.549 33.488 437.293 34.72 432.989 34.72C428.669 34.72 425.413 33.472 423.221 30.976C421.045 28.48 419.957 25.096 419.957 20.824ZM427.709 20.824C427.709 21.736 427.765 22.68 427.877 23.656C428.005 24.616 428.245 25.512 428.597 26.344C428.965 27.176 429.501 27.856 430.205 28.384C430.909 28.896 431.845 29.152 433.013 29.152C434.181 29.152 435.117 28.896 435.821 28.384C436.525 27.856 437.053 27.176 437.405 26.344C437.773 25.512 438.013 24.616 438.125 23.656C438.253 22.68 438.317 21.736 438.317 20.824C438.317 19.896 438.253 18.944 438.125 17.968C438.013 16.976 437.773 16.064 437.405 15.232C437.053 14.384 436.525 13.704 435.821 13.192C435.117 12.664 434.181 12.4 433.013 12.4C431.845 12.4 430.909 12.664 430.205 13.192C429.501 13.704 428.965 14.384 428.597 15.232C428.245 16.064 428.005 16.976 427.877 17.968C427.765 18.944 427.709 19.896 427.709 20.824ZM475.131 20.824C475.131 25.304 474.083 28.656 471.987 30.88C469.891 33.088 466.587 34.192 462.075 34.192C460.171 34.192 458.363 34.176 456.651 34.144C454.955 34.128 453.163 34.096 451.275 34.048L451.011 33.76V7.792L451.275 7.504C453.179 7.456 454.979 7.416 456.675 7.384C458.371 7.336 460.171 7.312 462.075 7.312C466.539 7.312 469.827 8.472 471.939 10.792C474.067 13.096 475.131 16.44 475.131 20.824ZM467.403 20.824C467.403 19.656 467.283 18.488 467.043 17.32C466.803 16.136 466.299 15.144 465.531 14.344C464.763 13.544 463.611 13.144 462.075 13.144C461.371 13.144 460.763 13.144 460.251 13.144C459.755 13.128 459.179 13.112 458.523 13.096V28.456C459.211 28.456 459.795 28.448 460.275 28.432C460.771 28.416 461.371 28.408 462.075 28.408C463.611 28.408 464.763 28.016 465.531 27.232C466.299 26.432 466.803 25.448 467.043 24.28C467.283 23.112 467.403 21.96 467.403 20.824ZM478.176 20.824C478.176 16.536 479.28 13.136 481.488 10.624C483.712 8.096 486.952 6.832 491.208 6.832C495.528 6.832 498.784 8.088 500.976 10.6C503.184 13.096 504.288 16.504 504.288 20.824C504.288 25.144 503.184 28.544 500.976 31.024C498.768 33.488 495.512 34.72 491.208 34.72C486.888 34.72 483.632 33.472 481.44 30.976C479.264 28.48 478.176 25.096 478.176 20.824ZM485.928 20.824C485.928 21.736 485.984 22.68 486.096 23.656C486.224 24.616 486.464 25.512 486.816 26.344C487.184 27.176 487.72 27.856 488.424 28.384C489.128 28.896 490.064 29.152 491.232 29.152C492.4 29.152 493.336 28.896 494.04 28.384C494.744 27.856 495.272 27.176 495.624 26.344C495.992 25.512 496.232 24.616 496.344 23.656C496.472 22.68 496.536 21.736 496.536 20.824C496.536 19.896 496.472 18.944 496.344 17.968C496.232 16.976 495.992 16.064 495.624 15.232C495.272 14.384 494.744 13.704 494.04 13.192C493.336 12.664 492.4 12.4 491.232 12.4C490.064 12.4 489.128 12.664 488.424 13.192C487.72 13.704 487.184 14.384 486.816 15.232C486.464 16.064 486.224 16.976 486.096 17.968C485.984 18.944 485.928 19.896 485.928 20.824Z" fill="#364760"/>
</svg>
