<svg width="253" height="102" viewBox="0 0 253 102" fill="none" xmlns="http://www.w3.org/2000/svg">
<rect opacity="0.5" y="0.794678" width="253" height="101.083" rx="10" fill="#DBDADA"/>
<path d="M36.439 38.2067C36.859 38.0987 37.285 38.0387 37.717 38.0267C38.149 38.0027 38.557 37.9907 38.941 37.9907C39.289 37.9907 39.715 38.0207 40.219 38.0807C40.735 38.1407 41.191 38.2367 41.587 38.3687L41.821 38.6927L35.071 62.7947C34.399 62.8667 33.649 62.9207 32.821 62.9567C32.005 62.9927 31.225 63.0107 30.481 63.0107C29.401 63.0107 28.555 62.8307 27.943 62.4707C27.331 62.1107 26.881 61.4267 26.593 60.4187L20.599 38.7287C21.115 38.5007 21.667 38.3027 22.255 38.1347C22.843 37.9667 23.449 37.8827 24.073 37.8827C24.937 37.8827 25.603 38.1167 26.071 38.5847C26.551 39.0407 26.917 39.7607 27.169 40.7447L29.941 50.9867C30.229 52.0427 30.487 53.1347 30.715 54.2627C30.943 55.3907 31.141 56.4827 31.309 57.5387C31.345 57.7307 31.387 57.8567 31.435 57.9167C31.495 57.9647 31.579 57.9887 31.687 57.9887L36.439 38.2067ZM59.1159 58.2767C59.1159 59.9927 58.8459 61.1867 58.3059 61.8587C57.7779 62.5307 56.8779 62.8667 55.6059 62.8667H47.3079C46.2879 62.8667 45.4839 62.5787 44.8959 62.0027C44.3079 61.4147 44.0139 60.6287 44.0139 59.6447V43.1567L44.2119 42.9587H58.4499C58.5339 43.3667 58.5819 43.7567 58.5939 44.1287C58.6059 44.5007 58.6119 44.8547 58.6119 45.1907C58.6119 45.5147 58.5759 45.8807 58.5039 46.2887C58.4439 46.6967 58.3359 47.1107 58.1799 47.5307H51.8799C51.3759 47.5307 50.6139 47.5247 49.5939 47.5127C49.6059 47.8847 49.6119 48.2027 49.6119 48.4667C49.6239 48.7307 49.6299 49.0487 49.6299 49.4207V50.6087C50.6259 50.5967 51.3759 50.5907 51.8799 50.5907H56.4879C56.6079 50.9147 56.6859 51.2867 56.7219 51.7067C56.7699 52.1147 56.7939 52.4627 56.7939 52.7507C56.7939 53.0867 56.7699 53.4647 56.7219 53.8847C56.6859 54.2927 56.6079 54.6647 56.4879 55.0007H51.8799C51.6519 55.0007 51.3339 55.0007 50.9259 55.0007C50.5179 55.0007 50.0859 55.0007 49.6299 55.0007V56.1707C49.6299 56.6147 49.6239 56.9807 49.6119 57.2687C49.5999 57.5567 49.5939 57.9167 49.5939 58.3487V58.3847C50.0139 58.3607 50.4039 58.3367 50.7639 58.3127C51.1239 58.2887 51.5619 58.2767 52.0779 58.2767H59.1159ZM79.1974 48.9887C79.1974 49.9127 78.9874 50.7347 78.5674 51.4547C78.1474 52.1747 77.6194 52.7687 76.9834 53.2367C76.3594 53.7047 75.7354 54.0047 75.1114 54.1367C75.7594 54.3527 76.2934 54.6827 76.7134 55.1267C77.1454 55.5707 77.5174 56.1407 77.8294 56.8367L78.7654 58.9787C78.9814 59.4707 79.2274 59.9267 79.5034 60.3467C79.7794 60.7547 80.0854 61.1027 80.4214 61.3907C80.0734 61.8227 79.5514 62.2247 78.8554 62.5967C78.1594 62.9567 77.4034 63.1367 76.5874 63.1367C75.7834 63.1367 75.1294 62.9447 74.6254 62.5607C74.1334 62.1647 73.7014 61.5347 73.3294 60.6707L71.7454 57.0347C71.4934 56.4467 71.1814 56.0927 70.8094 55.9727C70.4374 55.8527 69.9574 55.7927 69.3694 55.7927H68.6674V62.7947C68.1874 62.8787 67.6894 62.9327 67.1734 62.9567C66.6694 62.9927 66.2374 63.0107 65.8774 63.0107C65.5414 63.0107 65.0974 62.9927 64.5454 62.9567C63.9934 62.9327 63.4894 62.8787 63.0334 62.7947V43.1387L63.2314 42.9227C64.6834 42.8867 66.0454 42.8567 67.3174 42.8327C68.6014 42.7967 69.8794 42.7787 71.1514 42.7787C72.5914 42.7787 73.9234 42.9707 75.1474 43.3547C76.3714 43.7267 77.3494 44.3687 78.0814 45.2807C78.8254 46.1807 79.1974 47.4167 79.1974 48.9887ZM68.6674 46.8467V51.5087C69.0874 51.4967 69.4714 51.4907 69.8194 51.4907C70.1794 51.4787 70.4434 51.4727 70.6114 51.4727C71.6914 51.4727 72.4234 51.2387 72.8074 50.7707C73.1914 50.3027 73.3834 49.7567 73.3834 49.1327C73.3834 48.5207 73.1914 47.9927 72.8074 47.5487C72.4234 47.1047 71.7814 46.8827 70.8814 46.8827C70.4494 46.8827 70.0774 46.8767 69.7654 46.8647C69.4534 46.8527 69.0874 46.8467 68.6674 46.8467ZM98.6577 49.9067C98.2617 48.9827 97.8897 48.0767 97.5417 47.1887C97.1937 46.3007 96.8937 45.5147 96.6417 44.8307L96.4977 44.8847C96.5937 45.9047 96.6717 47.0627 96.7317 48.3587C96.8037 49.6427 96.8577 50.9267 96.8937 52.2107C96.9297 53.4947 96.9477 54.6347 96.9477 55.6307V62.7947C96.4797 62.8787 96.0177 62.9327 95.5617 62.9567C95.1057 62.9927 94.6977 63.0107 94.3377 63.0107C93.9897 63.0107 93.5517 62.9927 93.0237 62.9567C92.5077 62.9327 92.0277 62.8787 91.5837 62.7947V38.3147C92.0277 38.2067 92.6157 38.1287 93.3477 38.0807C94.0797 38.0207 94.6257 37.9907 94.9857 37.9907C95.3577 37.9907 95.8497 38.0087 96.4617 38.0447C97.0737 38.0687 97.6977 38.1227 98.3337 38.2067L103.878 51.0587C104.334 52.1147 104.754 53.1227 105.138 54.0827C105.534 55.0427 105.864 55.8527 106.128 56.5127L106.272 56.4587C106.176 55.3427 106.092 54.1187 106.02 52.7867C105.96 51.4547 105.912 50.1707 105.876 48.9347C105.84 47.6987 105.822 46.6667 105.822 45.8387V41.4467C105.822 40.1627 106.08 39.2627 106.596 38.7467C107.124 38.2307 107.94 37.9727 109.044 37.9727H110.916L111.15 38.2067V62.6867C110.694 62.7947 110.094 62.8727 109.35 62.9207C108.618 62.9807 108.06 63.0107 107.676 63.0107C107.304 63.0107 106.812 62.9927 106.2 62.9567C105.588 62.9327 104.97 62.8787 104.346 62.7947L98.6577 49.9067ZM115.048 52.9127C115.048 49.6967 115.876 47.1467 117.532 45.2627C119.2 43.3667 121.63 42.4187 124.822 42.4187C128.062 42.4187 130.504 43.3607 132.148 45.2447C133.804 47.1167 134.632 49.6727 134.632 52.9127C134.632 56.1527 133.804 58.7027 132.148 60.5627C130.492 62.4107 128.05 63.3347 124.822 63.3347C121.582 63.3347 119.14 62.3987 117.496 60.5267C115.864 58.6547 115.048 56.1167 115.048 52.9127ZM120.862 52.9127C120.862 53.5967 120.904 54.3047 120.988 55.0367C121.084 55.7567 121.264 56.4287 121.528 57.0527C121.804 57.6767 122.206 58.1867 122.734 58.5827C123.262 58.9667 123.964 59.1587 124.84 59.1587C125.716 59.1587 126.418 58.9667 126.946 58.5827C127.474 58.1867 127.87 57.6767 128.134 57.0527C128.41 56.4287 128.59 55.7567 128.674 55.0367C128.77 54.3047 128.818 53.5967 128.818 52.9127C128.818 52.2167 128.77 51.5027 128.674 50.7707C128.59 50.0267 128.41 49.3427 128.134 48.7187C127.87 48.0827 127.474 47.5727 126.946 47.1887C126.418 46.7927 125.716 46.5947 124.84 46.5947C123.964 46.5947 123.262 46.7927 122.734 47.1887C122.206 47.5727 121.804 48.0827 121.528 48.7187C121.264 49.3427 121.084 50.0267 120.988 50.7707C120.904 51.5027 120.862 52.2167 120.862 52.9127ZM140.975 49.7087C140.975 49.3247 140.981 48.9707 140.993 48.6467C141.005 48.3107 141.011 47.9387 141.011 47.5307C140.759 47.5307 140.411 47.5367 139.967 47.5487C139.535 47.5607 139.193 47.5667 138.941 47.5667H135.611C135.515 47.1347 135.455 46.7327 135.431 46.3607C135.407 45.9767 135.395 45.6287 135.395 45.3167C135.395 45.0047 135.407 44.6387 135.431 44.2187C135.455 43.7867 135.515 43.3667 135.611 42.9587H151.901C151.985 43.2827 152.045 43.6487 152.081 44.0567C152.129 44.4647 152.153 44.7947 152.153 45.0467C152.153 45.8627 151.937 46.4867 151.505 46.9187C151.073 47.3507 150.353 47.5667 149.345 47.5667H148.607C148.355 47.5667 148.019 47.5607 147.599 47.5487C147.191 47.5367 146.873 47.5307 146.645 47.5307C146.645 47.9387 146.651 48.3107 146.663 48.6467C146.675 48.9707 146.681 49.3247 146.681 49.7087V62.7947C146.345 62.8667 145.883 62.9207 145.295 62.9567C144.707 62.9927 144.215 63.0107 143.819 63.0107C143.447 63.0107 142.979 62.9927 142.415 62.9567C141.851 62.9207 141.371 62.8667 140.975 62.7947V49.7087ZM154.652 42.9587C155.108 42.8627 155.624 42.8027 156.2 42.7787C156.776 42.7547 157.232 42.7427 157.568 42.7427C157.928 42.7427 158.36 42.7547 158.864 42.7787C159.38 42.8027 159.878 42.8627 160.358 42.9587V62.7947C159.878 62.8787 159.38 62.9327 158.864 62.9567C158.36 62.9927 157.928 63.0107 157.568 63.0107C157.232 63.0107 156.776 62.9927 156.2 62.9567C155.624 62.9327 155.108 62.8787 154.652 62.7947V42.9587ZM176.564 51.9407C176.564 50.4167 176.36 49.1927 175.952 48.2687C175.544 47.3327 174.722 46.8647 173.486 46.8647C172.202 46.8647 171.29 47.3927 170.75 48.4487C170.21 49.5047 169.94 51.0227 169.94 53.0027C169.94 54.5147 170.132 55.6787 170.516 56.4947C170.912 57.2987 171.416 57.8567 172.028 58.1687C172.64 58.4807 173.288 58.6367 173.972 58.6367C174.86 58.6367 175.748 58.4447 176.636 58.0607C177.536 57.6647 178.34 57.2027 179.048 56.6747C179.432 56.8667 179.804 57.1727 180.164 57.5927C180.524 58.0127 180.836 58.4627 181.1 58.9427C181.364 59.4227 181.532 59.8607 181.604 60.2567C180.608 61.1087 179.396 61.8347 177.968 62.4347C176.552 63.0347 174.938 63.3347 173.126 63.3347C171.386 63.3347 169.934 63.0287 168.77 62.4167C167.618 61.8047 166.7 61.0007 166.016 60.0047C165.332 58.9967 164.846 57.8807 164.558 56.6567C164.27 55.4327 164.126 54.2027 164.126 52.9667C164.126 50.5067 164.57 48.5027 165.458 46.9547C166.358 45.3947 167.534 44.2487 168.986 43.5167C170.45 42.7847 172.016 42.4187 173.684 42.4187C175.556 42.4187 177.098 42.7487 178.31 43.4087C179.522 44.0687 180.422 44.9027 181.01 45.9107C181.598 46.9187 181.892 47.9567 181.892 49.0247C181.892 51.0767 180.74 52.1027 178.436 52.1027C178.16 52.1027 177.86 52.0847 177.536 52.0487C177.212 52.0127 176.888 51.9767 176.564 51.9407ZM185.449 42.9587C185.905 42.8627 186.421 42.8027 186.997 42.7787C187.573 42.7547 188.029 42.7427 188.365 42.7427C188.725 42.7427 189.157 42.7547 189.661 42.7787C190.177 42.8027 190.675 42.8627 191.155 42.9587V62.7947C190.675 62.8787 190.177 62.9327 189.661 62.9567C189.157 62.9927 188.725 63.0107 188.365 63.0107C188.029 63.0107 187.573 62.9927 186.997 62.9567C186.421 62.9327 185.905 62.8787 185.449 62.7947V42.9587ZM201.421 59.3207C201.229 59.3207 201.043 59.3207 200.863 59.3207C200.683 59.3087 200.503 59.2967 200.323 59.2847L199.207 62.7947C198.859 62.8787 198.481 62.9387 198.073 62.9747C197.665 63.0227 197.239 63.0467 196.795 63.0467C196.315 63.0467 195.829 63.0107 195.337 62.9387C194.857 62.8667 194.461 62.7647 194.149 62.6327L193.951 62.3267L200.953 42.9587C201.577 42.8627 202.177 42.8027 202.753 42.7787C203.341 42.7547 203.875 42.7427 204.355 42.7427C204.799 42.7427 205.279 42.7547 205.795 42.7787C206.311 42.8027 206.893 42.8627 207.541 42.9587L214.345 62.5247C213.925 62.7167 213.391 62.8607 212.743 62.9567C212.095 63.0647 211.573 63.1187 211.177 63.1187C210.517 63.1187 209.881 62.9927 209.269 62.7407C208.657 62.4887 208.195 61.8227 207.883 60.7427L207.433 59.2847C207.241 59.2967 207.055 59.3087 206.875 59.3207C206.695 59.3207 206.503 59.3207 206.299 59.3207H201.421ZM202.141 53.6327L201.745 54.8747C201.925 54.8627 202.105 54.8567 202.285 54.8567C202.465 54.8447 202.651 54.8387 202.843 54.8387H205.093C205.273 54.8387 205.435 54.8447 205.579 54.8567C205.735 54.8567 205.891 54.8627 206.047 54.8747L205.669 53.6507C205.393 52.7027 205.117 51.6467 204.841 50.4827C204.565 49.3187 204.313 48.2627 204.085 47.3147H203.869C203.617 48.2267 203.335 49.2707 203.023 50.4467C202.723 51.6227 202.429 52.6847 202.141 53.6327ZM215.162 61.3007C215.162 60.8447 215.252 60.3407 215.432 59.7887C215.612 59.2247 215.858 58.7027 216.17 58.2227C216.482 57.7427 216.824 57.3827 217.196 57.1427C218.084 57.6227 219.074 58.0367 220.166 58.3847C221.258 58.7207 222.326 58.8887 223.37 58.8887C224.042 58.8887 224.594 58.7507 225.026 58.4747C225.47 58.1987 225.692 57.8087 225.692 57.3047C225.692 56.9807 225.566 56.6867 225.314 56.4227C225.062 56.1467 224.624 55.8947 224 55.6667L221.012 54.4967C220.088 54.1607 219.224 53.7407 218.42 53.2367C217.616 52.7327 216.968 52.1147 216.476 51.3827C215.984 50.6507 215.738 49.7747 215.738 48.7547C215.738 46.8827 216.458 45.3587 217.898 44.1827C219.338 43.0067 221.276 42.4187 223.712 42.4187C225.092 42.4187 226.46 42.5807 227.816 42.9047C229.184 43.2167 230.33 43.5767 231.254 43.9847C231.254 44.8007 231.086 45.6047 230.75 46.3967C230.414 47.1887 229.952 47.8127 229.364 48.2687C228.476 47.8727 227.51 47.5427 226.466 47.2787C225.422 47.0027 224.48 46.8647 223.64 46.8647C223.016 46.8647 222.536 46.9967 222.2 47.2607C221.876 47.5247 221.714 47.8427 221.714 48.2147C221.714 48.5627 221.876 48.8267 222.2 49.0067C222.524 49.1867 222.926 49.3667 223.406 49.5467L226.376 50.6807C228.032 51.2807 229.346 52.1087 230.318 53.1647C231.302 54.2087 231.794 55.4987 231.794 57.0347C231.794 58.3907 231.428 59.5367 230.696 60.4727C229.976 61.4087 228.986 62.1167 227.726 62.5967C226.478 63.0767 225.068 63.3227 223.496 63.3347C221.624 63.3347 219.956 63.1187 218.492 62.6867C217.04 62.2547 215.93 61.7927 215.162 61.3007Z" fill="#364760"/>
</svg>
