<svg width="57" height="18" viewBox="0 0 57 18" fill="none" xmlns="http://www.w3.org/2000/svg">
<path d="M6.03194 5.948C6.26394 5.628 6.56794 5.24 6.94394 4.784C7.31994 4.32 7.65994 3.924 7.96394 3.596L7.89194 3.524C7.33194 3.596 6.69594 3.648 5.98394 3.68C5.27994 3.712 4.68394 3.728 4.19594 3.728H0.751938C0.695938 3.504 0.655938 3.288 0.631938 3.08C0.615938 2.864 0.607938 2.652 0.607938 2.444C0.607938 2.116 0.631938 1.808 0.679938 1.52C0.727938 1.232 0.791938 0.927999 0.871938 0.607999H11.4919C11.6599 1.208 11.7799 1.66 11.8519 1.964C11.9319 2.268 11.9799 2.488 11.9959 2.624C12.0119 2.752 12.0199 2.864 12.0199 2.96C12.0199 3.176 11.9879 3.396 11.9239 3.62C11.8679 3.844 11.7599 4.072 11.5999 4.304L6.24794 11.648C6.01594 11.968 5.72394 12.344 5.37194 12.776C5.01994 13.2 4.68794 13.576 4.37594 13.904L4.44794 13.976C4.95994 13.936 5.55994 13.9 6.24794 13.868C6.93594 13.828 7.53594 13.808 8.04794 13.808H9.37994C9.96394 13.808 10.4799 13.752 10.9279 13.64C11.3759 13.528 11.7639 13.396 12.0919 13.244C12.1639 13.476 12.2239 13.748 12.2719 14.06C12.3199 14.372 12.3439 14.676 12.3439 14.972C12.3439 15.66 12.1079 16.172 11.6359 16.508C11.1719 16.836 10.5719 17 9.83594 17H0.655938C0.527938 16.432 0.431938 16.004 0.367938 15.716C0.311938 15.428 0.275938 15.216 0.259938 15.08C0.243938 14.936 0.235938 14.808 0.235938 14.696C0.235938 14.464 0.271938 14.224 0.343938 13.976C0.423938 13.72 0.539938 13.488 0.691938 13.28L6.03194 5.948ZM13.6857 10.412C13.6857 8.268 14.2377 6.568 15.3417 5.312C16.4537 4.048 18.0737 3.416 20.2017 3.416C22.3617 3.416 23.9897 4.044 25.0857 5.3C26.1897 6.548 26.7417 8.252 26.7417 10.412C26.7417 12.572 26.1897 14.272 25.0857 15.512C23.9817 16.744 22.3537 17.36 20.2017 17.36C18.0417 17.36 16.4137 16.736 15.3177 15.488C14.2297 14.24 13.6857 12.548 13.6857 10.412ZM17.5617 10.412C17.5617 10.868 17.5897 11.34 17.6457 11.828C17.7097 12.308 17.8297 12.756 18.0057 13.172C18.1897 13.588 18.4577 13.928 18.8097 14.192C19.1617 14.448 19.6297 14.576 20.2137 14.576C20.7977 14.576 21.2657 14.448 21.6177 14.192C21.9697 13.928 22.2337 13.588 22.4097 13.172C22.5937 12.756 22.7137 12.308 22.7697 11.828C22.8337 11.34 22.8657 10.868 22.8657 10.412C22.8657 9.948 22.8337 9.472 22.7697 8.984C22.7137 8.488 22.5937 8.032 22.4097 7.616C22.2337 7.192 21.9697 6.852 21.6177 6.596C21.2657 6.332 20.7977 6.2 20.2137 6.2C19.6297 6.2 19.1617 6.332 18.8097 6.596C18.4577 6.852 18.1897 7.192 18.0057 7.616C17.8297 8.032 17.7097 8.488 17.6457 8.984C17.5897 9.472 17.5617 9.948 17.5617 10.412ZM33.8684 10.964C33.8124 10.836 33.7244 10.636 33.6044 10.364C33.4844 10.084 33.3564 9.784 33.2204 9.464C33.0844 9.144 32.9564 8.844 32.8364 8.564C32.7244 8.284 32.6364 8.08 32.5724 7.952L32.4884 7.988C32.5204 8.62 32.5524 9.304 32.5844 10.04C32.6164 10.768 32.6404 11.436 32.6564 12.044C32.6804 12.644 32.6924 13.08 32.6924 13.352V17C32.3804 17.056 32.0804 17.092 31.7924 17.108C31.5044 17.132 31.2364 17.144 30.9884 17.144C30.7644 17.144 30.4844 17.132 30.1484 17.108C29.8204 17.092 29.5084 17.056 29.2124 17V3.86C29.5084 3.788 29.8764 3.732 30.3164 3.692C30.7564 3.652 31.0964 3.632 31.3364 3.632C31.5844 3.632 31.9364 3.64 32.3924 3.656C32.8484 3.664 33.2244 3.704 33.5204 3.776L36.3404 9.788C36.3964 9.9 36.4884 10.104 36.6164 10.4C36.7524 10.696 36.8964 11.02 37.0484 11.372C37.2004 11.724 37.3404 12.056 37.4684 12.368C37.6044 12.672 37.7044 12.896 37.7684 13.04L37.8764 13.016C37.8444 12.488 37.8004 11.872 37.7444 11.168C37.6964 10.464 37.6524 9.784 37.6124 9.128C37.5724 8.472 37.5524 7.948 37.5524 7.556V5.684C37.5524 4.836 37.7364 4.28 38.1044 4.016C38.4724 3.744 39.0204 3.608 39.7484 3.608H40.9844L41.1284 3.776V16.928C40.8164 17 40.4404 17.052 40.0004 17.084C39.5604 17.124 39.2244 17.144 38.9924 17.144C38.8324 17.144 38.6124 17.14 38.3324 17.132C38.0524 17.124 37.7644 17.112 37.4684 17.096C37.1804 17.08 36.9404 17.048 36.7484 17L33.8684 10.964ZM47.9474 14.684C47.8194 14.684 47.6954 14.684 47.5754 14.684C47.4554 14.676 47.3354 14.668 47.2154 14.66L46.4714 17C46.2394 17.056 45.9874 17.096 45.7154 17.12C45.4434 17.152 45.1594 17.168 44.8634 17.168C44.5434 17.168 44.2194 17.144 43.8914 17.096C43.5714 17.048 43.3074 16.98 43.0994 16.892L42.9674 16.688L47.6354 3.776C48.0514 3.712 48.4514 3.672 48.8354 3.656C49.2274 3.64 49.5834 3.632 49.9034 3.632C50.1994 3.632 50.5194 3.64 50.8634 3.656C51.2074 3.672 51.5954 3.712 52.0274 3.776L56.5634 16.82C56.2834 16.948 55.9274 17.044 55.4954 17.108C55.0634 17.18 54.7154 17.216 54.4514 17.216C54.0114 17.216 53.5874 17.132 53.1794 16.964C52.7714 16.796 52.4634 16.352 52.2554 15.632L51.9554 14.66C51.8274 14.668 51.7034 14.676 51.5834 14.684C51.4634 14.684 51.3354 14.684 51.1994 14.684H47.9474ZM48.4274 10.892L48.1634 11.72C48.2834 11.712 48.4034 11.708 48.5234 11.708C48.6434 11.7 48.7674 11.696 48.8954 11.696H50.3954C50.5154 11.696 50.6234 11.7 50.7194 11.708C50.8234 11.708 50.9274 11.712 51.0314 11.72L50.7794 10.904C50.5954 10.272 50.4114 9.568 50.2274 8.792C50.0434 8.016 49.8754 7.312 49.7234 6.68H49.5794C49.4114 7.288 49.2234 7.984 49.0154 8.768C48.8154 9.552 48.6194 10.26 48.4274 10.892Z" fill="#364760"/>
</svg>
