<svg width="114" height="27" viewBox="0 0 114 27" fill="none" xmlns="http://www.w3.org/2000/svg">
<path d="M15.9502 19.322C15.9502 18.926 15.9562 18.518 15.9682 18.098C15.9802 17.678 15.9982 17.252 16.0222 16.82H14.2582C13.3342 16.82 12.6442 16.646 12.1882 16.298C11.7322 15.95 11.5042 15.32 11.5042 14.408C11.5042 14.036 11.5402 13.634 11.6122 13.202C11.6962 12.77 11.7982 12.38 11.9182 12.032H17.5522C18.9802 12.032 19.9702 12.368 20.5222 13.04C21.0742 13.7 21.3502 14.552 21.3502 15.596V25.046C20.3062 25.394 18.9562 25.73 17.3002 26.054C15.6442 26.378 13.8322 26.54 11.8642 26.54C9.40416 26.54 7.36416 26.024 5.74416 24.992C4.13616 23.96 2.93616 22.496 2.14416 20.6C1.35216 18.704 0.956156 16.46 0.956156 13.868C0.956156 11.684 1.27416 9.782 1.91016 8.162C2.54616 6.53 3.41016 5.18 4.50216 4.112C5.59416 3.032 6.82416 2.222 8.19216 1.682C9.56016 1.142 10.9762 0.872 12.4402 0.872C14.0962 0.872 15.6802 1.112 17.1922 1.592C18.7042 2.072 20.0722 2.69 21.2962 3.446C21.2362 4.262 20.9362 5.06 20.3962 5.84C19.8682 6.62 19.3102 7.202 18.7222 7.586C17.8462 6.998 16.8862 6.53 15.8422 6.182C14.8102 5.822 13.7902 5.642 12.7822 5.642C10.9582 5.642 9.51216 6.302 8.44416 7.622C7.37616 8.93 6.84216 11.024 6.84216 13.904C6.84216 16.712 7.35816 18.764 8.39016 20.06C9.43416 21.356 10.9222 22.004 12.8542 22.004C13.4302 22.004 13.9762 21.974 14.4922 21.914C15.0082 21.854 15.4942 21.782 15.9502 21.698V19.322ZM43.5908 9.026C43.5908 10.178 43.3688 11.204 42.9248 12.104C42.4808 12.992 41.9228 13.736 41.2508 14.336C40.5788 14.924 39.9008 15.35 39.2168 15.614C39.8888 15.854 40.4468 16.268 40.8908 16.856C41.3468 17.444 41.7128 18.134 41.9888 18.926L43.0688 21.968C43.4768 23.132 44.0708 24.02 44.8508 24.632C44.4788 25.112 43.9388 25.514 43.2308 25.838C42.5228 26.162 41.7848 26.324 41.0168 26.324C39.9848 26.324 39.2348 26.048 38.7668 25.496C38.2988 24.932 37.8728 24.098 37.4888 22.994L36.1928 19.232C35.9888 18.608 35.6708 18.08 35.2388 17.648C34.8068 17.204 34.1108 16.982 33.1508 16.982H31.6568V26C31.1768 26.084 30.6788 26.138 30.1628 26.162C29.6468 26.198 29.1908 26.216 28.7948 26.216C28.4468 26.216 28.0028 26.198 27.4628 26.162C26.9228 26.138 26.4188 26.084 25.9508 26V1.592L26.2028 1.34C27.7388 1.304 29.2148 1.274 30.6308 1.25C32.0588 1.214 33.4568 1.196 34.8248 1.196C36.4928 1.196 37.9868 1.472 39.3068 2.024C40.6388 2.576 41.6828 3.428 42.4388 4.58C43.2068 5.732 43.5908 7.214 43.5908 9.026ZM31.6568 5.516V12.572C32.2208 12.548 32.7488 12.53 33.2408 12.518C33.7448 12.506 34.1108 12.5 34.3388 12.5C35.2508 12.5 35.9468 12.338 36.4268 12.014C36.9188 11.678 37.2548 11.246 37.4348 10.718C37.6268 10.19 37.7228 9.626 37.7228 9.026C37.7228 8.402 37.6268 7.826 37.4348 7.298C37.2548 6.77 36.9188 6.35 36.4268 6.038C35.9468 5.714 35.2508 5.552 34.3388 5.552C33.9668 5.552 33.5528 5.552 33.0968 5.552C32.6528 5.552 32.1728 5.54 31.6568 5.516ZM66.7583 16.928C66.7583 19.976 65.9123 22.34 64.2203 24.02C62.5403 25.7 60.1403 26.54 57.0203 26.54C53.9123 26.54 51.5123 25.7 49.8203 24.02C48.1283 22.34 47.2822 19.976 47.2822 16.928V1.412L47.5343 1.178H49.6403C50.7443 1.178 51.5903 1.466 52.1783 2.042C52.7663 2.606 53.0603 3.53 53.0603 4.814V16.982C53.0603 18.626 53.3603 19.868 53.9603 20.708C54.5603 21.536 55.5803 21.95 57.0203 21.95C58.4723 21.95 59.4983 21.536 60.0983 20.708C60.6983 19.868 60.9983 18.626 60.9983 16.982V1.412C61.4663 1.328 61.9523 1.274 62.4563 1.25C62.9723 1.214 63.4223 1.196 63.8063 1.196C64.1543 1.196 64.6163 1.214 65.1923 1.25C65.7803 1.274 66.3023 1.328 66.7583 1.412V16.928ZM89.3241 9.764C89.3241 11.648 88.9401 13.226 88.1721 14.498C87.4161 15.758 86.3721 16.706 85.0401 17.342C83.7201 17.978 82.2081 18.296 80.5041 18.296H77.6781V26C77.1981 26.084 76.6881 26.138 76.1481 26.162C75.6201 26.198 75.1641 26.216 74.7801 26.216C74.4321 26.216 73.9821 26.198 73.4301 26.162C72.8781 26.138 72.3681 26.084 71.9001 26V1.592L72.1521 1.34C73.6881 1.304 75.1221 1.274 76.4541 1.25C77.7981 1.214 79.1481 1.196 80.5041 1.196C82.2081 1.196 83.7201 1.508 85.0401 2.132C86.3721 2.744 87.4161 3.686 88.1721 4.958C88.9401 6.218 89.3241 7.82 89.3241 9.764ZM77.6781 5.588V13.976C78.1821 13.964 78.6501 13.952 79.0821 13.94C79.5261 13.928 79.8381 13.922 80.0181 13.922C80.9781 13.922 81.7041 13.694 82.1961 13.238C82.6881 12.782 83.0181 12.236 83.1861 11.6C83.3541 10.952 83.4381 10.34 83.4381 9.764C83.4381 9.2 83.3541 8.6 83.1861 7.964C83.0181 7.316 82.6881 6.764 82.1961 6.308C81.7041 5.852 80.9781 5.624 80.0181 5.624C79.6581 5.624 79.2981 5.624 78.9381 5.624C78.5781 5.612 78.1581 5.6 77.6781 5.588ZM91.6593 13.688C91.6593 11.12 92.0433 8.876 92.8113 6.956C93.5913 5.036 94.7733 3.542 96.3573 2.474C97.9413 1.406 99.9453 0.872 102.369 0.872C104.805 0.872 106.815 1.412 108.399 2.492C109.983 3.56 111.159 5.06 111.927 6.992C112.695 8.912 113.079 11.144 113.079 13.688C113.079 16.268 112.689 18.524 111.909 20.456C111.129 22.376 109.947 23.87 108.363 24.938C106.791 26.006 104.793 26.54 102.369 26.54C99.9213 26.54 97.9053 26 96.3213 24.92C94.7493 23.84 93.5793 22.34 92.8113 20.42C92.0433 18.488 91.6593 16.244 91.6593 13.688ZM97.6713 13.688C97.6713 14.636 97.7193 15.602 97.8153 16.586C97.9233 17.57 98.1333 18.482 98.4453 19.322C98.7693 20.162 99.2433 20.84 99.8673 21.356C100.491 21.86 101.325 22.112 102.369 22.112C103.401 22.112 104.229 21.86 104.853 21.356C105.477 20.84 105.945 20.162 106.257 19.322C106.581 18.482 106.791 17.57 106.887 16.586C106.995 15.602 107.049 14.636 107.049 13.688C107.049 12.74 106.995 11.774 106.887 10.79C106.791 9.806 106.581 8.9 106.257 8.072C105.945 7.244 105.477 6.578 104.853 6.074C104.229 5.558 103.401 5.3 102.369 5.3C101.325 5.3 100.491 5.558 99.8673 6.074C99.2433 6.578 98.7693 7.244 98.4453 8.072C98.1333 8.9 97.9233 9.806 97.8153 10.79C97.7193 11.774 97.6713 12.74 97.6713 13.688Z" fill="#364760"/>
</svg>
