<svg width="124" height="18" viewBox="0 0 124 18" fill="none" xmlns="http://www.w3.org/2000/svg">
<path d="M0.454031 0.607999C0.766031 0.552 1.10603 0.515999 1.47403 0.499999C1.84203 0.475999 2.14603 0.464 2.38603 0.464C2.64203 0.464 2.94603 0.475999 3.29803 0.499999C3.65003 0.515999 3.98603 0.552 4.30603 0.607999V17C3.98603 17.056 3.65003 17.092 3.29803 17.108C2.94603 17.132 2.64203 17.144 2.38603 17.144C2.14603 17.144 1.84203 17.132 1.47403 17.108C1.10603 17.092 0.766031 17.056 0.454031 17V0.607999ZM21.3312 8.792C21.3312 9.728 21.2632 10.632 21.1272 11.504C20.9992 12.368 20.7432 13.176 20.3592 13.928C19.9752 14.68 19.3992 15.352 18.6312 15.944C18.2632 16.232 17.8192 16.464 17.2992 16.64C16.7872 16.816 16.2592 16.944 15.7152 17.024C15.1712 17.104 14.6752 17.144 14.2272 17.144C13.1952 17.144 12.1912 17.132 11.2152 17.108C10.2472 17.092 9.23922 17.072 8.19122 17.048L8.02322 16.88V0.727999L8.19122 0.559999C9.22322 0.527999 10.2272 0.503999 11.2032 0.487999C12.1872 0.472 13.1952 0.464 14.2272 0.464C14.6752 0.464 15.1712 0.507999 15.7152 0.595999C16.2592 0.675999 16.7912 0.803999 17.3112 0.98C17.8312 1.156 18.2712 1.388 18.6312 1.676C19.3912 2.268 19.9632 2.94 20.3472 3.692C20.7312 4.436 20.9912 5.24 21.1272 6.104C21.2632 6.968 21.3312 7.864 21.3312 8.792ZM17.3832 8.792C17.3832 8.184 17.3432 7.568 17.2632 6.944C17.1912 6.312 17.0472 5.736 16.8312 5.216C16.6232 4.688 16.3072 4.264 15.8832 3.944C15.4672 3.616 14.9152 3.452 14.2272 3.452C13.8192 3.452 13.4272 3.452 13.0512 3.452C12.6752 3.452 12.2752 3.444 11.8512 3.428V14.168C12.2752 14.16 12.6752 14.156 13.0512 14.156C13.4272 14.156 13.8192 14.156 14.2272 14.156C14.9152 14.156 15.4672 13.996 15.8832 13.676C16.3072 13.348 16.6232 12.92 16.8312 12.392C17.0472 11.856 17.1912 11.276 17.2632 10.652C17.3432 10.02 17.3832 9.4 17.3832 8.792ZM41.2919 10.412C41.2919 12.652 40.7679 14.328 39.7199 15.44C38.6719 16.544 37.0199 17.096 34.7639 17.096C33.8119 17.096 32.9079 17.088 32.0519 17.072C31.2039 17.064 30.3079 17.048 29.3639 17.024L29.2319 16.88V3.896L29.3639 3.752C30.3159 3.728 31.2159 3.708 32.0639 3.692C32.9119 3.668 33.8119 3.656 34.7639 3.656C36.9959 3.656 38.6399 4.236 39.6959 5.396C40.7599 6.548 41.2919 8.22 41.2919 10.412ZM37.4279 10.412C37.4279 9.828 37.3679 9.244 37.2479 8.66C37.1279 8.068 36.8759 7.572 36.4919 7.172C36.1079 6.772 35.5319 6.572 34.7639 6.572C34.4119 6.572 34.1079 6.572 33.8519 6.572C33.6039 6.564 33.3159 6.556 32.9879 6.548V14.228C33.3319 14.228 33.6239 14.224 33.8639 14.216C34.1119 14.208 34.4119 14.204 34.7639 14.204C35.5319 14.204 36.1079 14.008 36.4919 13.616C36.8759 13.216 37.1279 12.724 37.2479 12.14C37.3679 11.556 37.4279 10.98 37.4279 10.412ZM53.8546 13.988C53.8546 15.132 53.6746 15.928 53.3146 16.376C52.9626 16.824 52.3626 17.048 51.5146 17.048H45.9826C45.3026 17.048 44.7666 16.856 44.3746 16.472C43.9826 16.08 43.7866 15.556 43.7866 14.9V3.908L43.9186 3.776H53.4106C53.4666 4.048 53.4986 4.308 53.5066 4.556C53.5146 4.804 53.5186 5.04 53.5186 5.264C53.5186 5.48 53.4946 5.724 53.4466 5.996C53.4066 6.268 53.3346 6.544 53.2306 6.824H49.0306C48.6946 6.824 48.1866 6.82 47.5066 6.812C47.5146 7.06 47.5186 7.272 47.5186 7.448C47.5266 7.624 47.5306 7.836 47.5306 8.084V8.876C48.1946 8.868 48.6946 8.864 49.0306 8.864H52.1026C52.1826 9.08 52.2346 9.328 52.2586 9.608C52.2906 9.88 52.3066 10.112 52.3066 10.304C52.3066 10.528 52.2906 10.78 52.2586 11.06C52.2346 11.332 52.1826 11.58 52.1026 11.804H49.0306C48.8786 11.804 48.6666 11.804 48.3946 11.804C48.1226 11.804 47.8346 11.804 47.5306 11.804V12.584C47.5306 12.88 47.5266 13.124 47.5186 13.316C47.5106 13.508 47.5066 13.748 47.5066 14.036V14.06C47.7866 14.044 48.0466 14.028 48.2866 14.012C48.5266 13.996 48.8186 13.988 49.1626 13.988H53.8546ZM66.7077 5.948C66.9397 5.628 67.2437 5.24 67.6197 4.784C67.9957 4.32 68.3357 3.924 68.6397 3.596L68.5677 3.524C68.0077 3.596 67.3717 3.648 66.6597 3.68C65.9557 3.712 65.3597 3.728 64.8717 3.728H61.4277C61.3717 3.504 61.3317 3.288 61.3077 3.08C61.2917 2.864 61.2837 2.652 61.2837 2.444C61.2837 2.116 61.3077 1.808 61.3557 1.52C61.4037 1.232 61.4677 0.927999 61.5477 0.607999H72.1677C72.3357 1.208 72.4557 1.66 72.5277 1.964C72.6077 2.268 72.6557 2.488 72.6717 2.624C72.6877 2.752 72.6957 2.864 72.6957 2.96C72.6957 3.176 72.6637 3.396 72.5997 3.62C72.5437 3.844 72.4357 4.072 72.2757 4.304L66.9237 11.648C66.6917 11.968 66.3997 12.344 66.0477 12.776C65.6957 13.2 65.3637 13.576 65.0517 13.904L65.1237 13.976C65.6357 13.936 66.2357 13.9 66.9237 13.868C67.6117 13.828 68.2117 13.808 68.7237 13.808H70.0557C70.6397 13.808 71.1557 13.752 71.6037 13.64C72.0517 13.528 72.4397 13.396 72.7677 13.244C72.8397 13.476 72.8997 13.748 72.9477 14.06C72.9957 14.372 73.0197 14.676 73.0197 14.972C73.0197 15.66 72.7837 16.172 72.3117 16.508C71.8477 16.836 71.2477 17 70.5117 17H61.3317C61.2037 16.432 61.1077 16.004 61.0437 15.716C60.9877 15.428 60.9517 15.216 60.9357 15.08C60.9197 14.936 60.9117 14.808 60.9117 14.696C60.9117 14.464 60.9477 14.224 61.0197 13.976C61.0997 13.72 61.2157 13.488 61.3677 13.28L66.7077 5.948ZM74.3615 10.412C74.3615 8.268 74.9135 6.568 76.0175 5.312C77.1295 4.048 78.7495 3.416 80.8775 3.416C83.0375 3.416 84.6655 4.044 85.7615 5.3C86.8655 6.548 87.4175 8.252 87.4175 10.412C87.4175 12.572 86.8655 14.272 85.7615 15.512C84.6575 16.744 83.0295 17.36 80.8775 17.36C78.7175 17.36 77.0895 16.736 75.9935 15.488C74.9055 14.24 74.3615 12.548 74.3615 10.412ZM78.2375 10.412C78.2375 10.868 78.2655 11.34 78.3215 11.828C78.3855 12.308 78.5055 12.756 78.6815 13.172C78.8655 13.588 79.1335 13.928 79.4855 14.192C79.8375 14.448 80.3055 14.576 80.8895 14.576C81.4735 14.576 81.9415 14.448 82.2935 14.192C82.6455 13.928 82.9095 13.588 83.0855 13.172C83.2695 12.756 83.3895 12.308 83.4455 11.828C83.5095 11.34 83.5415 10.868 83.5415 10.412C83.5415 9.948 83.5095 9.472 83.4455 8.984C83.3895 8.488 83.2695 8.032 83.0855 7.616C82.9095 7.192 82.6455 6.852 82.2935 6.596C81.9415 6.332 81.4735 6.2 80.8895 6.2C80.3055 6.2 79.8375 6.332 79.4855 6.596C79.1335 6.852 78.8655 7.192 78.6815 7.616C78.5055 8.032 78.3855 8.488 78.3215 8.984C78.2655 9.472 78.2375 9.948 78.2375 10.412ZM94.5442 10.964C94.4882 10.836 94.4002 10.636 94.2802 10.364C94.1602 10.084 94.0322 9.784 93.8962 9.464C93.7602 9.144 93.6322 8.844 93.5122 8.564C93.4002 8.284 93.3122 8.08 93.2482 7.952L93.1642 7.988C93.1962 8.62 93.2282 9.304 93.2602 10.04C93.2922 10.768 93.3162 11.436 93.3322 12.044C93.3562 12.644 93.3682 13.08 93.3682 13.352V17C93.0562 17.056 92.7562 17.092 92.4682 17.108C92.1802 17.132 91.9122 17.144 91.6642 17.144C91.4402 17.144 91.1602 17.132 90.8242 17.108C90.4962 17.092 90.1842 17.056 89.8882 17V3.86C90.1842 3.788 90.5522 3.732 90.9922 3.692C91.4322 3.652 91.7722 3.632 92.0122 3.632C92.2602 3.632 92.6122 3.64 93.0682 3.656C93.5242 3.664 93.9002 3.704 94.1962 3.776L97.0162 9.788C97.0722 9.9 97.1642 10.104 97.2922 10.4C97.4282 10.696 97.5722 11.02 97.7242 11.372C97.8762 11.724 98.0162 12.056 98.1442 12.368C98.2802 12.672 98.3802 12.896 98.4442 13.04L98.5522 13.016C98.5202 12.488 98.4762 11.872 98.4202 11.168C98.3722 10.464 98.3282 9.784 98.2882 9.128C98.2482 8.472 98.2282 7.948 98.2282 7.556V5.684C98.2282 4.836 98.4122 4.28 98.7802 4.016C99.1482 3.744 99.6962 3.608 100.424 3.608H101.66L101.804 3.776V16.928C101.492 17 101.116 17.052 100.676 17.084C100.236 17.124 99.9002 17.144 99.6682 17.144C99.5082 17.144 99.2882 17.14 99.0082 17.132C98.7282 17.124 98.4402 17.112 98.1442 17.096C97.8562 17.08 97.6162 17.048 97.4242 17L94.5442 10.964ZM108.623 14.684C108.495 14.684 108.371 14.684 108.251 14.684C108.131 14.676 108.011 14.668 107.891 14.66L107.147 17C106.915 17.056 106.663 17.096 106.391 17.12C106.119 17.152 105.835 17.168 105.539 17.168C105.219 17.168 104.895 17.144 104.567 17.096C104.247 17.048 103.983 16.98 103.775 16.892L103.643 16.688L108.311 3.776C108.727 3.712 109.127 3.672 109.511 3.656C109.903 3.64 110.259 3.632 110.579 3.632C110.875 3.632 111.195 3.64 111.539 3.656C111.883 3.672 112.271 3.712 112.703 3.776L117.239 16.82C116.959 16.948 116.603 17.044 116.171 17.108C115.739 17.18 115.391 17.216 115.127 17.216C114.687 17.216 114.263 17.132 113.855 16.964C113.447 16.796 113.139 16.352 112.931 15.632L112.631 14.66C112.503 14.668 112.379 14.676 112.259 14.684C112.139 14.684 112.011 14.684 111.875 14.684H108.623ZM109.103 10.892L108.839 11.72C108.959 11.712 109.079 11.708 109.199 11.708C109.319 11.7 109.443 11.696 109.571 11.696H111.071C111.191 11.696 111.299 11.7 111.395 11.708C111.499 11.708 111.603 11.712 111.707 11.72L111.455 10.904C111.271 10.272 111.087 9.568 110.903 8.792C110.719 8.016 110.551 7.312 110.399 6.68H110.255C110.087 7.288 109.899 7.984 109.691 8.768C109.491 9.552 109.295 10.26 109.103 10.892ZM118.708 15.368C118.708 15.224 118.728 15 118.768 14.696C118.816 14.392 118.892 14.132 118.996 13.916C119.236 13.78 119.528 13.672 119.872 13.592C120.224 13.512 120.56 13.472 120.88 13.472C121.192 13.472 121.524 13.512 121.876 13.592C122.228 13.672 122.524 13.78 122.764 13.916C122.868 14.132 122.94 14.392 122.98 14.696C123.02 15 123.04 15.224 123.04 15.368C123.04 15.512 123.02 15.736 122.98 16.04C122.94 16.344 122.868 16.604 122.764 16.82C122.524 16.964 122.228 17.072 121.876 17.144C121.524 17.216 121.192 17.252 120.88 17.252C120.56 17.252 120.224 17.216 119.872 17.144C119.528 17.072 119.236 16.964 118.996 16.82C118.892 16.604 118.816 16.344 118.768 16.04C118.728 15.736 118.708 15.512 118.708 15.368ZM118.708 7.952C118.708 7.808 118.728 7.584 118.768 7.28C118.816 6.976 118.892 6.716 118.996 6.5C119.236 6.364 119.528 6.256 119.872 6.176C120.224 6.096 120.56 6.056 120.88 6.056C121.192 6.056 121.524 6.096 121.876 6.176C122.228 6.256 122.524 6.364 122.764 6.5C122.868 6.716 122.94 6.976 122.98 7.28C123.02 7.584 123.04 7.808 123.04 7.952C123.04 8.096 123.02 8.32 122.98 8.624C122.94 8.928 122.868 9.188 122.764 9.404C122.524 9.548 122.228 9.656 121.876 9.728C121.524 9.8 121.192 9.836 120.88 9.836C120.56 9.836 120.224 9.8 119.872 9.728C119.528 9.656 119.236 9.548 118.996 9.404C118.892 9.188 118.816 8.928 118.768 8.624C118.728 8.32 118.708 8.096 118.708 7.952Z" fill="#364760"/>
</svg>
