<svg width="127" height="18" viewBox="0 0 127 18" fill="none" xmlns="http://www.w3.org/2000/svg">
<path d="M0.813406 0.607999C1.12541 0.552 1.46541 0.515999 1.83341 0.499999C2.20141 0.475999 2.50541 0.464 2.74541 0.464C3.00141 0.464 3.30541 0.475999 3.65741 0.499999C4.00941 0.515999 4.34541 0.552 4.66541 0.607999V17C4.34541 17.056 4.00941 17.092 3.65741 17.108C3.30541 17.132 3.00141 17.144 2.74541 17.144C2.50541 17.144 2.20141 17.132 1.83341 17.108C1.46541 17.092 1.12541 17.056 0.813406 17V0.607999ZM21.6906 8.792C21.6906 9.728 21.6226 10.632 21.4866 11.504C21.3586 12.368 21.1026 13.176 20.7186 13.928C20.3346 14.68 19.7586 15.352 18.9906 15.944C18.6226 16.232 18.1786 16.464 17.6586 16.64C17.1466 16.816 16.6186 16.944 16.0746 17.024C15.5306 17.104 15.0346 17.144 14.5866 17.144C13.5546 17.144 12.5506 17.132 11.5746 17.108C10.6066 17.092 9.59859 17.072 8.55059 17.048L8.38259 16.88V0.727999L8.55059 0.559999C9.58259 0.527999 10.5866 0.503999 11.5626 0.487999C12.5466 0.472 13.5546 0.464 14.5866 0.464C15.0346 0.464 15.5306 0.507999 16.0746 0.595999C16.6186 0.675999 17.1506 0.803999 17.6706 0.98C18.1906 1.156 18.6306 1.388 18.9906 1.676C19.7506 2.268 20.3226 2.94 20.7066 3.692C21.0906 4.436 21.3506 5.24 21.4866 6.104C21.6226 6.968 21.6906 7.864 21.6906 8.792ZM17.7426 8.792C17.7426 8.184 17.7026 7.568 17.6226 6.944C17.5506 6.312 17.4066 5.736 17.1906 5.216C16.9826 4.688 16.6666 4.264 16.2426 3.944C15.8266 3.616 15.2746 3.452 14.5866 3.452C14.1786 3.452 13.7866 3.452 13.4106 3.452C13.0346 3.452 12.6346 3.444 12.2106 3.428V14.168C12.6346 14.16 13.0346 14.156 13.4106 14.156C13.7866 14.156 14.1786 14.156 14.5866 14.156C15.2746 14.156 15.8266 13.996 16.2426 13.676C16.6666 13.348 16.9826 12.92 17.1906 12.392C17.4066 11.856 17.5506 11.276 17.6226 10.652C17.7026 10.02 17.7426 9.4 17.7426 8.792ZM41.6513 10.412C41.6513 12.652 41.1273 14.328 40.0793 15.44C39.0313 16.544 37.3793 17.096 35.1233 17.096C34.1713 17.096 33.2673 17.088 32.4113 17.072C31.5633 17.064 30.6673 17.048 29.7233 17.024L29.5913 16.88V3.896L29.7233 3.752C30.6753 3.728 31.5753 3.708 32.4233 3.692C33.2713 3.668 34.1713 3.656 35.1233 3.656C37.3553 3.656 38.9993 4.236 40.0553 5.396C41.1193 6.548 41.6513 8.22 41.6513 10.412ZM37.7873 10.412C37.7873 9.828 37.7273 9.244 37.6073 8.66C37.4873 8.068 37.2353 7.572 36.8513 7.172C36.4673 6.772 35.8913 6.572 35.1233 6.572C34.7713 6.572 34.4673 6.572 34.2113 6.572C33.9633 6.564 33.6753 6.556 33.3473 6.548V14.228C33.6913 14.228 33.9833 14.224 34.2233 14.216C34.4713 14.208 34.7713 14.204 35.1233 14.204C35.8913 14.204 36.4673 14.008 36.8513 13.616C37.2353 13.216 37.4873 12.724 37.6073 12.14C37.7273 11.556 37.7873 10.98 37.7873 10.412ZM54.214 13.988C54.214 15.132 54.034 15.928 53.674 16.376C53.322 16.824 52.722 17.048 51.874 17.048H46.342C45.662 17.048 45.126 16.856 44.734 16.472C44.342 16.08 44.146 15.556 44.146 14.9V3.908L44.278 3.776H53.77C53.826 4.048 53.858 4.308 53.866 4.556C53.874 4.804 53.878 5.04 53.878 5.264C53.878 5.48 53.854 5.724 53.806 5.996C53.766 6.268 53.694 6.544 53.59 6.824H49.39C49.054 6.824 48.546 6.82 47.866 6.812C47.874 7.06 47.878 7.272 47.878 7.448C47.886 7.624 47.89 7.836 47.89 8.084V8.876C48.554 8.868 49.054 8.864 49.39 8.864H52.462C52.542 9.08 52.594 9.328 52.618 9.608C52.65 9.88 52.666 10.112 52.666 10.304C52.666 10.528 52.65 10.78 52.618 11.06C52.594 11.332 52.542 11.58 52.462 11.804H49.39C49.238 11.804 49.026 11.804 48.754 11.804C48.482 11.804 48.194 11.804 47.89 11.804V12.584C47.89 12.88 47.886 13.124 47.878 13.316C47.87 13.508 47.866 13.748 47.866 14.036V14.06C48.146 14.044 48.406 14.028 48.646 14.012C48.886 13.996 49.178 13.988 49.522 13.988H54.214ZM73.9551 5.684C73.9551 6.452 73.8071 7.136 73.5111 7.736C73.2151 8.328 72.8431 8.824 72.3951 9.224C71.9471 9.616 71.4951 9.9 71.0391 10.076C71.4871 10.236 71.8591 10.512 72.1551 10.904C72.4591 11.296 72.7031 11.756 72.8871 12.284L73.6071 14.312C73.8791 15.088 74.2751 15.68 74.7951 16.088C74.5471 16.408 74.1871 16.676 73.7151 16.892C73.2431 17.108 72.7511 17.216 72.2391 17.216C71.5511 17.216 71.0511 17.032 70.7391 16.664C70.4271 16.288 70.1431 15.732 69.8871 14.996L69.0231 12.488C68.8871 12.072 68.6751 11.72 68.3871 11.432C68.0991 11.136 67.6351 10.988 66.9951 10.988H65.9991V17C65.6791 17.056 65.3471 17.092 65.0031 17.108C64.6591 17.132 64.3551 17.144 64.0911 17.144C63.8591 17.144 63.5631 17.132 63.2031 17.108C62.8431 17.092 62.5071 17.056 62.1951 17V0.727999L62.3631 0.559999C63.3871 0.535999 64.3711 0.515999 65.3151 0.499999C66.2671 0.475999 67.1991 0.464 68.1111 0.464C69.2231 0.464 70.2191 0.648 71.0991 1.016C71.9871 1.384 72.6831 1.952 73.1871 2.72C73.6991 3.488 73.9551 4.476 73.9551 5.684ZM65.9991 3.344V8.048C66.3751 8.032 66.7271 8.02 67.0551 8.012C67.3911 8.004 67.6351 8 67.7871 8C68.3951 8 68.8591 7.892 69.1791 7.676C69.5071 7.452 69.7311 7.164 69.8511 6.812C69.9791 6.46 70.0431 6.084 70.0431 5.684C70.0431 5.268 69.9791 4.884 69.8511 4.532C69.7311 4.18 69.5071 3.9 69.1791 3.692C68.8591 3.476 68.3951 3.368 67.7871 3.368C67.5391 3.368 67.2631 3.368 66.9591 3.368C66.6631 3.368 66.3431 3.36 65.9991 3.344ZM80.2247 14.684C80.0967 14.684 79.9727 14.684 79.8527 14.684C79.7327 14.676 79.6127 14.668 79.4927 14.66L78.7487 17C78.5167 17.056 78.2647 17.096 77.9927 17.12C77.7207 17.152 77.4367 17.168 77.1407 17.168C76.8207 17.168 76.4967 17.144 76.1687 17.096C75.8487 17.048 75.5847 16.98 75.3767 16.892L75.2447 16.688L79.9127 3.776C80.3287 3.712 80.7287 3.672 81.1127 3.656C81.5047 3.64 81.8607 3.632 82.1807 3.632C82.4767 3.632 82.7967 3.64 83.1407 3.656C83.4847 3.672 83.8727 3.712 84.3047 3.776L88.8407 16.82C88.5607 16.948 88.2047 17.044 87.7727 17.108C87.3407 17.18 86.9927 17.216 86.7287 17.216C86.2887 17.216 85.8647 17.132 85.4567 16.964C85.0487 16.796 84.7407 16.352 84.5327 15.632L84.2327 14.66C84.1047 14.668 83.9807 14.676 83.8607 14.684C83.7407 14.684 83.6127 14.684 83.4767 14.684H80.2247ZM80.7047 10.892L80.4407 11.72C80.5607 11.712 80.6807 11.708 80.8007 11.708C80.9207 11.7 81.0447 11.696 81.1727 11.696H82.6727C82.7927 11.696 82.9007 11.7 82.9967 11.708C83.1007 11.708 83.2047 11.712 83.3087 11.72L83.0567 10.904C82.8727 10.272 82.6887 9.568 82.5047 8.792C82.3207 8.016 82.1527 7.312 82.0007 6.68H81.8567C81.6887 7.288 81.5007 7.984 81.2927 8.768C81.0927 9.552 80.8967 10.26 80.7047 10.892ZM91.5094 3.776C91.8934 3.704 92.3134 3.656 92.7694 3.632C93.2254 3.6 93.6094 3.584 93.9214 3.584C94.2174 3.584 94.6014 3.6 95.0734 3.632C95.5454 3.656 95.9414 3.704 96.2614 3.776L97.4374 8.984C97.5094 9.296 97.5934 9.72 97.6894 10.256C97.7854 10.784 97.8814 11.352 97.9774 11.96H98.1334C98.3254 10.68 98.5054 9.688 98.6734 8.984L99.8374 3.776C100.213 3.704 100.625 3.656 101.073 3.632C101.521 3.6 101.893 3.584 102.189 3.584C102.501 3.584 102.889 3.6 103.353 3.632C103.817 3.656 104.233 3.704 104.601 3.776L105.957 16.952C105.437 17.08 104.809 17.144 104.073 17.144C103.793 17.144 103.493 17.132 103.173 17.108C102.861 17.084 102.581 17.048 102.333 17L101.985 12.752C101.945 12.208 101.921 11.612 101.913 10.964C101.905 10.316 101.905 9.684 101.913 9.068C101.921 8.444 101.921 7.904 101.913 7.448H101.769L100.005 14.972C99.7334 15.02 99.4014 15.056 99.0094 15.08C98.6174 15.096 98.2934 15.104 98.0374 15.104C97.7734 15.104 97.4454 15.096 97.0534 15.08C96.6694 15.056 96.3494 15.02 96.0934 14.972L94.3414 7.448H94.1734C94.1734 7.912 94.1734 8.452 94.1734 9.068C94.1814 9.684 94.1814 10.316 94.1734 10.964C94.1654 11.612 94.1374 12.216 94.0894 12.776L93.7774 17C93.5214 17.048 93.2414 17.084 92.9374 17.108C92.6414 17.132 92.3534 17.144 92.0734 17.144C91.3294 17.144 90.6894 17.08 90.1534 16.952L91.5094 3.776ZM112.264 14.684C112.136 14.684 112.012 14.684 111.892 14.684C111.772 14.676 111.652 14.668 111.532 14.66L110.788 17C110.556 17.056 110.304 17.096 110.032 17.12C109.76 17.152 109.476 17.168 109.18 17.168C108.86 17.168 108.536 17.144 108.208 17.096C107.888 17.048 107.624 16.98 107.416 16.892L107.284 16.688L111.952 3.776C112.368 3.712 112.768 3.672 113.152 3.656C113.544 3.64 113.9 3.632 114.22 3.632C114.516 3.632 114.836 3.64 115.18 3.656C115.524 3.672 115.912 3.712 116.344 3.776L120.88 16.82C120.6 16.948 120.244 17.044 119.812 17.108C119.38 17.18 119.032 17.216 118.768 17.216C118.328 17.216 117.904 17.132 117.496 16.964C117.088 16.796 116.78 16.352 116.572 15.632L116.272 14.66C116.144 14.668 116.02 14.676 115.9 14.684C115.78 14.684 115.652 14.684 115.516 14.684H112.264ZM112.744 10.892L112.48 11.72C112.6 11.712 112.72 11.708 112.84 11.708C112.96 11.7 113.084 11.696 113.212 11.696H114.712C114.832 11.696 114.94 11.7 115.036 11.708C115.14 11.708 115.244 11.712 115.348 11.72L115.096 10.904C114.912 10.272 114.728 9.568 114.544 8.792C114.36 8.016 114.192 7.312 114.04 6.68H113.896C113.728 7.288 113.54 7.984 113.332 8.768C113.132 9.552 112.936 10.26 112.744 10.892ZM122.348 15.368C122.348 15.224 122.368 15 122.408 14.696C122.456 14.392 122.532 14.132 122.636 13.916C122.876 13.78 123.168 13.672 123.512 13.592C123.864 13.512 124.2 13.472 124.52 13.472C124.832 13.472 125.164 13.512 125.516 13.592C125.868 13.672 126.164 13.78 126.404 13.916C126.508 14.132 126.58 14.392 126.62 14.696C126.66 15 126.68 15.224 126.68 15.368C126.68 15.512 126.66 15.736 126.62 16.04C126.58 16.344 126.508 16.604 126.404 16.82C126.164 16.964 125.868 17.072 125.516 17.144C125.164 17.216 124.832 17.252 124.52 17.252C124.2 17.252 123.864 17.216 123.512 17.144C123.168 17.072 122.876 16.964 122.636 16.82C122.532 16.604 122.456 16.344 122.408 16.04C122.368 15.736 122.348 15.512 122.348 15.368ZM122.348 7.952C122.348 7.808 122.368 7.584 122.408 7.28C122.456 6.976 122.532 6.716 122.636 6.5C122.876 6.364 123.168 6.256 123.512 6.176C123.864 6.096 124.2 6.056 124.52 6.056C124.832 6.056 125.164 6.096 125.516 6.176C125.868 6.256 126.164 6.364 126.404 6.5C126.508 6.716 126.58 6.976 126.62 7.28C126.66 7.584 126.68 7.808 126.68 7.952C126.68 8.096 126.66 8.32 126.62 8.624C126.58 8.928 126.508 9.188 126.404 9.404C126.164 9.548 125.868 9.656 125.516 9.728C125.164 9.8 124.832 9.836 124.52 9.836C124.2 9.836 123.864 9.8 123.512 9.728C123.168 9.656 122.876 9.548 122.636 9.404C122.532 9.188 122.456 8.928 122.408 8.624C122.368 8.32 122.348 8.096 122.348 7.952Z" fill="#364760"/>
</svg>
