<svg width="119" height="18" viewBox="0 0 119 18" fill="none" xmlns="http://www.w3.org/2000/svg">
<path d="M0.426688 0.607999C0.738688 0.552 1.07869 0.515999 1.44669 0.499999C1.81469 0.475999 2.11869 0.464 2.35869 0.464C2.61469 0.464 2.91869 0.475999 3.27069 0.499999C3.62269 0.515999 3.95869 0.552 4.27869 0.607999V17C3.95869 17.056 3.62269 17.092 3.27069 17.108C2.91869 17.132 2.61469 17.144 2.35869 17.144C2.11869 17.144 1.81469 17.132 1.44669 17.108C1.07869 17.092 0.738688 17.056 0.426688 17V0.607999ZM21.3039 8.792C21.3039 9.728 21.2359 10.632 21.0999 11.504C20.9719 12.368 20.7159 13.176 20.3319 13.928C19.9479 14.68 19.3719 15.352 18.6039 15.944C18.2359 16.232 17.7919 16.464 17.2719 16.64C16.7599 16.816 16.2319 16.944 15.6879 17.024C15.1439 17.104 14.6479 17.144 14.1999 17.144C13.1679 17.144 12.1639 17.132 11.1879 17.108C10.2199 17.092 9.21188 17.072 8.16388 17.048L7.99588 16.88V0.727999L8.16388 0.559999C9.19588 0.527999 10.1999 0.503999 11.1759 0.487999C12.1599 0.472 13.1679 0.464 14.1999 0.464C14.6479 0.464 15.1439 0.507999 15.6879 0.595999C16.2319 0.675999 16.7639 0.803999 17.2839 0.98C17.8039 1.156 18.2439 1.388 18.6039 1.676C19.3639 2.268 19.9359 2.94 20.3199 3.692C20.7039 4.436 20.9639 5.24 21.0999 6.104C21.2359 6.968 21.3039 7.864 21.3039 8.792ZM17.3559 8.792C17.3559 8.184 17.3159 7.568 17.2359 6.944C17.1639 6.312 17.0199 5.736 16.8039 5.216C16.5959 4.688 16.2799 4.264 15.8559 3.944C15.4399 3.616 14.8879 3.452 14.1999 3.452C13.7919 3.452 13.3999 3.452 13.0239 3.452C12.6479 3.452 12.2479 3.444 11.8239 3.428V14.168C12.2479 14.16 12.6479 14.156 13.0239 14.156C13.3999 14.156 13.7919 14.156 14.1999 14.156C14.8879 14.156 15.4399 13.996 15.8559 13.676C16.2799 13.348 16.5959 12.92 16.8039 12.392C17.0199 11.856 17.1639 11.276 17.2359 10.652C17.3159 10.02 17.3559 9.4 17.3559 8.792ZM42.0446 10.952C42.0446 12.984 41.4806 14.56 40.3526 15.68C39.2326 16.8 37.6326 17.36 35.5526 17.36C33.4806 17.36 31.8806 16.8 30.7526 15.68C29.6246 14.56 29.0606 12.984 29.0606 10.952V0.607999L29.2286 0.451999H30.6326C31.3686 0.451999 31.9326 0.643999 32.3246 1.028C32.7166 1.404 32.9126 2.02 32.9126 2.876V10.988C32.9126 12.084 33.1126 12.912 33.5126 13.472C33.9126 14.024 34.5926 14.3 35.5526 14.3C36.5206 14.3 37.2046 14.024 37.6046 13.472C38.0046 12.912 38.2046 12.084 38.2046 10.988V0.607999C38.5166 0.552 38.8406 0.515999 39.1766 0.499999C39.5206 0.475999 39.8206 0.464 40.0766 0.464C40.3086 0.464 40.6166 0.475999 41.0006 0.499999C41.3926 0.515999 41.7406 0.552 42.0446 0.607999V10.952ZM44.069 16.004C44.069 15.7 44.129 15.364 44.249 14.996C44.369 14.62 44.533 14.272 44.741 13.952C44.949 13.632 45.177 13.392 45.425 13.232C46.017 13.552 46.677 13.828 47.405 14.06C48.133 14.284 48.845 14.396 49.541 14.396C49.989 14.396 50.357 14.304 50.645 14.12C50.941 13.936 51.089 13.676 51.089 13.34C51.089 13.124 51.005 12.928 50.837 12.752C50.669 12.568 50.377 12.4 49.961 12.248L47.969 11.468C47.353 11.244 46.777 10.964 46.241 10.628C45.705 10.292 45.273 9.88 44.945 9.392C44.617 8.904 44.453 8.32 44.453 7.64C44.453 6.392 44.933 5.376 45.893 4.592C46.853 3.808 48.145 3.416 49.769 3.416C50.689 3.416 51.601 3.524 52.505 3.74C53.417 3.948 54.181 4.188 54.797 4.46C54.797 5.004 54.685 5.54 54.461 6.068C54.237 6.596 53.929 7.012 53.537 7.316C52.945 7.052 52.301 6.832 51.605 6.656C50.909 6.472 50.281 6.38 49.721 6.38C49.305 6.38 48.985 6.468 48.761 6.644C48.545 6.82 48.437 7.032 48.437 7.28C48.437 7.512 48.545 7.688 48.761 7.808C48.977 7.928 49.245 8.048 49.565 8.168L51.545 8.924C52.649 9.324 53.525 9.876 54.173 10.58C54.829 11.276 55.157 12.136 55.157 13.16C55.157 14.064 54.913 14.828 54.425 15.452C53.945 16.076 53.285 16.548 52.445 16.868C51.613 17.188 50.673 17.352 49.625 17.36C48.377 17.36 47.265 17.216 46.289 16.928C45.321 16.64 44.581 16.332 44.069 16.004ZM68.9896 12.044C68.9896 13.7 68.4936 15 67.5016 15.944C66.5176 16.888 65.0576 17.36 63.1216 17.36C61.1856 17.36 59.7216 16.888 58.7296 15.944C57.7456 15 57.2536 13.7 57.2536 12.044V3.776L57.3976 3.632H58.7656C59.4936 3.632 60.0536 3.816 60.4456 4.184C60.8456 4.552 61.0456 5.172 61.0456 6.044V12.032C61.0456 12.76 61.1976 13.332 61.5016 13.748C61.8056 14.164 62.3456 14.372 63.1216 14.372C63.9056 14.372 64.4456 14.164 64.7416 13.748C65.0376 13.332 65.1856 12.76 65.1856 12.032V3.776C65.5056 3.712 65.8336 3.672 66.1696 3.656C66.5056 3.64 66.7976 3.632 67.0456 3.632C67.2696 3.632 67.5736 3.644 67.9576 3.668C68.3416 3.684 68.6856 3.724 68.9896 3.788V12.044ZM75.1739 14.684C75.0459 14.684 74.9219 14.684 74.8019 14.684C74.6819 14.676 74.5619 14.668 74.4419 14.66L73.6979 17C73.4659 17.056 73.2139 17.096 72.9419 17.12C72.6699 17.152 72.3859 17.168 72.0899 17.168C71.7699 17.168 71.4459 17.144 71.1179 17.096C70.7979 17.048 70.5339 16.98 70.3259 16.892L70.1939 16.688L74.8619 3.776C75.2779 3.712 75.6779 3.672 76.0619 3.656C76.4539 3.64 76.8099 3.632 77.1299 3.632C77.4259 3.632 77.7459 3.64 78.0899 3.656C78.4339 3.672 78.8219 3.712 79.2539 3.776L83.7899 16.82C83.5099 16.948 83.1539 17.044 82.7219 17.108C82.2899 17.18 81.9419 17.216 81.6779 17.216C81.2379 17.216 80.8139 17.132 80.4059 16.964C79.9979 16.796 79.6899 16.352 79.4819 15.632L79.1819 14.66C79.0539 14.668 78.9299 14.676 78.8099 14.684C78.6899 14.684 78.5619 14.684 78.4259 14.684H75.1739ZM75.6539 10.892L75.3899 11.72C75.5099 11.712 75.6299 11.708 75.7499 11.708C75.8699 11.7 75.9939 11.696 76.1219 11.696H77.6219C77.7419 11.696 77.8499 11.7 77.9459 11.708C78.0499 11.708 78.1539 11.712 78.2579 11.72L78.0059 10.904C77.8219 10.272 77.6379 9.568 77.4539 8.792C77.2699 8.016 77.1019 7.312 76.9499 6.68H76.8059C76.6379 7.288 76.4499 7.984 76.2419 8.768C76.0419 9.552 75.8459 10.26 75.6539 10.892ZM96.3946 7.796C96.3946 8.412 96.2546 8.96 95.9746 9.44C95.6946 9.92 95.3426 10.316 94.9186 10.628C94.5026 10.94 94.0866 11.14 93.6706 11.228C94.1026 11.372 94.4586 11.592 94.7386 11.888C95.0266 12.184 95.2746 12.564 95.4826 13.028L96.1066 14.456C96.2506 14.784 96.4146 15.088 96.5986 15.368C96.7826 15.64 96.9866 15.872 97.2106 16.064C96.9786 16.352 96.6306 16.62 96.1666 16.868C95.7026 17.108 95.1986 17.228 94.6546 17.228C94.1186 17.228 93.6826 17.1 93.3466 16.844C93.0186 16.58 92.7306 16.16 92.4826 15.584L91.4266 13.16C91.2586 12.768 91.0506 12.532 90.8026 12.452C90.5546 12.372 90.2346 12.332 89.8426 12.332H89.3746V17C89.0546 17.056 88.7226 17.092 88.3786 17.108C88.0426 17.132 87.7546 17.144 87.5146 17.144C87.2906 17.144 86.9946 17.132 86.6266 17.108C86.2586 17.092 85.9226 17.056 85.6186 17V3.896L85.7506 3.752C86.7186 3.728 87.6266 3.708 88.4746 3.692C89.3306 3.668 90.1826 3.656 91.0306 3.656C91.9906 3.656 92.8786 3.784 93.6946 4.04C94.5106 4.288 95.1626 4.716 95.6506 5.324C96.1466 5.924 96.3946 6.748 96.3946 7.796ZM89.3746 6.368V9.476C89.6546 9.468 89.9106 9.464 90.1426 9.464C90.3826 9.456 90.5586 9.452 90.6706 9.452C91.3906 9.452 91.8786 9.296 92.1346 8.984C92.3906 8.672 92.5186 8.308 92.5186 7.892C92.5186 7.484 92.3906 7.132 92.1346 6.836C91.8786 6.54 91.4506 6.392 90.8506 6.392C90.5626 6.392 90.3146 6.388 90.1066 6.38C89.8986 6.372 89.6546 6.368 89.3746 6.368ZM99.3307 3.776C99.6347 3.712 99.9787 3.672 100.363 3.656C100.747 3.64 101.051 3.632 101.275 3.632C101.515 3.632 101.803 3.64 102.139 3.656C102.483 3.672 102.815 3.712 103.135 3.776V17C102.815 17.056 102.483 17.092 102.139 17.108C101.803 17.132 101.515 17.144 101.275 17.144C101.051 17.144 100.747 17.132 100.363 17.108C99.9787 17.092 99.6347 17.056 99.3307 17V3.776ZM105.647 10.412C105.647 8.268 106.199 6.568 107.303 5.312C108.415 4.048 110.035 3.416 112.163 3.416C114.323 3.416 115.951 4.044 117.047 5.3C118.151 6.548 118.703 8.252 118.703 10.412C118.703 12.572 118.151 14.272 117.047 15.512C115.943 16.744 114.315 17.36 112.163 17.36C110.003 17.36 108.375 16.736 107.279 15.488C106.191 14.24 105.647 12.548 105.647 10.412ZM109.523 10.412C109.523 10.868 109.551 11.34 109.607 11.828C109.671 12.308 109.791 12.756 109.967 13.172C110.151 13.588 110.419 13.928 110.771 14.192C111.123 14.448 111.591 14.576 112.175 14.576C112.759 14.576 113.227 14.448 113.579 14.192C113.931 13.928 114.195 13.588 114.371 13.172C114.555 12.756 114.675 12.308 114.731 11.828C114.795 11.34 114.827 10.868 114.827 10.412C114.827 9.948 114.795 9.472 114.731 8.984C114.675 8.488 114.555 8.032 114.371 7.616C114.195 7.192 113.931 6.852 113.579 6.596C113.227 6.332 112.759 6.2 112.175 6.2C111.591 6.2 111.123 6.332 110.771 6.596C110.419 6.852 110.151 7.192 109.967 7.616C109.791 8.032 109.671 8.488 109.607 8.984C109.551 9.472 109.523 9.948 109.523 10.412Z" fill="#364760"/>
</svg>
