<svg width="95" height="48" viewBox="0 0 95 48" fill="none" xmlns="http://www.w3.org/2000/svg">
<path d="M8.40328 8.408C8.13928 7.792 7.89128 7.188 7.65928 6.596C7.42728 6.004 7.22728 5.48 7.05928 5.024L6.96328 5.06C7.02728 5.74 7.07928 6.512 7.11928 7.376C7.16728 8.232 7.20328 9.088 7.22728 9.944C7.25128 10.8 7.26328 11.56 7.26328 12.224V17C6.95128 17.056 6.64328 17.092 6.33928 17.108C6.03528 17.132 5.76328 17.144 5.52328 17.144C5.29128 17.144 4.99928 17.132 4.64728 17.108C4.30328 17.092 3.98328 17.056 3.68728 17V0.68C3.98328 0.607999 4.37528 0.555999 4.86328 0.524C5.35128 0.484 5.71528 0.464 5.95528 0.464C6.20328 0.464 6.53128 0.475999 6.93928 0.499999C7.34728 0.515999 7.76328 0.552 8.18728 0.607999L11.8833 9.176C12.1873 9.88 12.4673 10.552 12.7233 11.192C12.9873 11.832 13.2073 12.372 13.3833 12.812L13.4793 12.776C13.4153 12.032 13.3593 11.216 13.3113 10.328C13.2713 9.44 13.2393 8.584 13.2153 7.76C13.1913 6.936 13.1793 6.248 13.1793 5.696V2.768C13.1793 1.912 13.3513 1.312 13.6953 0.967999C14.0473 0.623999 14.5913 0.451999 15.3273 0.451999H16.5753L16.7313 0.607999V16.928C16.4273 17 16.0273 17.052 15.5313 17.084C15.0433 17.124 14.6713 17.144 14.4153 17.144C14.1673 17.144 13.8393 17.132 13.4313 17.108C13.0233 17.092 12.6113 17.056 12.1953 17L8.40328 8.408ZM19.3302 10.412C19.3302 8.268 19.8822 6.568 20.9862 5.312C22.0982 4.048 23.7182 3.416 25.8462 3.416C28.0062 3.416 29.6342 4.044 30.7302 5.3C31.8342 6.548 32.3862 8.252 32.3862 10.412C32.3862 12.572 31.8342 14.272 30.7302 15.512C29.6262 16.744 27.9982 17.36 25.8462 17.36C23.6862 17.36 22.0582 16.736 20.9622 15.488C19.8742 14.24 19.3302 12.548 19.3302 10.412ZM23.2062 10.412C23.2062 10.868 23.2342 11.34 23.2902 11.828C23.3542 12.308 23.4742 12.756 23.6502 13.172C23.8342 13.588 24.1022 13.928 24.4542 14.192C24.8062 14.448 25.2742 14.576 25.8582 14.576C26.4422 14.576 26.9102 14.448 27.2622 14.192C27.6142 13.928 27.8782 13.588 28.0542 13.172C28.2382 12.756 28.3582 12.308 28.4142 11.828C28.4782 11.34 28.5102 10.868 28.5102 10.412C28.5102 9.948 28.4782 9.472 28.4142 8.984C28.3582 8.488 28.2382 8.032 28.0542 7.616C27.8782 7.192 27.6142 6.852 27.2622 6.596C26.9102 6.332 26.4422 6.2 25.8582 6.2C25.2742 6.2 24.8062 6.332 24.4542 6.596C24.1022 6.852 23.8342 7.192 23.6502 7.616C23.4742 8.032 23.3542 8.488 23.2902 8.984C23.2342 9.472 23.2062 9.948 23.2062 10.412ZM35.5797 3.776C35.9637 3.704 36.3837 3.656 36.8397 3.632C37.2957 3.6 37.6797 3.584 37.9917 3.584C38.2877 3.584 38.6717 3.6 39.1437 3.632C39.6157 3.656 40.0117 3.704 40.3317 3.776L41.5077 8.984C41.5797 9.296 41.6637 9.72 41.7597 10.256C41.8557 10.784 41.9517 11.352 42.0477 11.96H42.2037C42.3957 10.68 42.5757 9.688 42.7437 8.984L43.9077 3.776C44.2837 3.704 44.6957 3.656 45.1437 3.632C45.5917 3.6 45.9637 3.584 46.2597 3.584C46.5717 3.584 46.9597 3.6 47.4237 3.632C47.8877 3.656 48.3037 3.704 48.6717 3.776L50.0277 16.952C49.5077 17.08 48.8797 17.144 48.1437 17.144C47.8637 17.144 47.5637 17.132 47.2437 17.108C46.9317 17.084 46.6517 17.048 46.4037 17L46.0557 12.752C46.0157 12.208 45.9917 11.612 45.9837 10.964C45.9757 10.316 45.9757 9.684 45.9837 9.068C45.9917 8.444 45.9917 7.904 45.9837 7.448H45.8397L44.0757 14.972C43.8037 15.02 43.4717 15.056 43.0797 15.08C42.6877 15.096 42.3637 15.104 42.1077 15.104C41.8437 15.104 41.5157 15.096 41.1237 15.08C40.7397 15.056 40.4197 15.02 40.1637 14.972L38.4117 7.448H38.2437C38.2437 7.912 38.2437 8.452 38.2437 9.068C38.2517 9.684 38.2517 10.316 38.2437 10.964C38.2357 11.612 38.2077 12.216 38.1597 12.776L37.8477 17C37.5917 17.048 37.3117 17.084 37.0077 17.108C36.7117 17.132 36.4237 17.144 36.1437 17.144C35.3997 17.144 34.7597 17.08 34.2237 16.952L35.5797 3.776ZM53.1061 3.752C53.5221 3.736 54.0221 3.72 54.6061 3.704C55.1981 3.688 55.8061 3.676 56.4301 3.668C57.0541 3.66 57.6261 3.656 58.1461 3.656C59.1301 3.656 60.0101 3.768 60.7861 3.992C61.5701 4.216 62.1861 4.588 62.6341 5.108C63.0821 5.62 63.3061 6.308 63.3061 7.172C63.3061 7.732 63.1501 8.264 62.8381 8.768C62.5341 9.272 62.1141 9.628 61.5781 9.836C62.2661 10.052 62.8421 10.476 63.3061 11.108C63.7701 11.732 64.0021 12.408 64.0021 13.136C64.0021 14.16 63.7621 14.96 63.2821 15.536C62.8101 16.104 62.1541 16.508 61.3141 16.748C60.4821 16.98 59.5301 17.096 58.4581 17.096C57.6341 17.096 56.7781 17.088 55.8901 17.072C55.0021 17.064 54.0741 17.048 53.1061 17.024L52.9741 16.904V3.896L53.1061 3.752ZM57.9781 6.236C57.8261 6.236 57.6221 6.236 57.3661 6.236C57.1101 6.236 56.8661 6.228 56.6341 6.212V8.792H57.9541C58.5941 8.792 59.0301 8.66 59.2621 8.396C59.4941 8.132 59.6101 7.836 59.6101 7.508C59.6101 7.188 59.4941 6.896 59.2621 6.632C59.0381 6.368 58.6101 6.236 57.9781 6.236ZM56.6341 14.516C56.9541 14.5 57.2661 14.492 57.5701 14.492C57.8741 14.492 58.1501 14.492 58.3981 14.492C59.1261 14.492 59.6061 14.328 59.8381 14C60.0781 13.664 60.1981 13.32 60.1981 12.968C60.1981 12.584 60.0541 12.224 59.7661 11.888C59.4861 11.552 58.9661 11.384 58.2061 11.384H56.6341V14.516ZM77.297 7.796C77.297 8.412 77.157 8.96 76.877 9.44C76.597 9.92 76.245 10.316 75.821 10.628C75.405 10.94 74.989 11.14 74.573 11.228C75.005 11.372 75.361 11.592 75.641 11.888C75.929 12.184 76.177 12.564 76.385 13.028L77.009 14.456C77.153 14.784 77.317 15.088 77.501 15.368C77.685 15.64 77.889 15.872 78.113 16.064C77.881 16.352 77.533 16.62 77.069 16.868C76.605 17.108 76.101 17.228 75.557 17.228C75.021 17.228 74.585 17.1 74.249 16.844C73.921 16.58 73.633 16.16 73.385 15.584L72.329 13.16C72.161 12.768 71.953 12.532 71.705 12.452C71.457 12.372 71.137 12.332 70.745 12.332H70.277V17C69.957 17.056 69.625 17.092 69.281 17.108C68.945 17.132 68.657 17.144 68.417 17.144C68.193 17.144 67.897 17.132 67.529 17.108C67.161 17.092 66.825 17.056 66.521 17V3.896L66.653 3.752C67.621 3.728 68.529 3.708 69.377 3.692C70.233 3.668 71.085 3.656 71.933 3.656C72.893 3.656 73.781 3.784 74.597 4.04C75.413 4.288 76.065 4.716 76.553 5.324C77.049 5.924 77.297 6.748 77.297 7.796ZM70.277 6.368V9.476C70.557 9.468 70.813 9.464 71.045 9.464C71.285 9.456 71.461 9.452 71.573 9.452C72.293 9.452 72.781 9.296 73.037 8.984C73.293 8.672 73.421 8.308 73.421 7.892C73.421 7.484 73.293 7.132 73.037 6.836C72.781 6.54 72.353 6.392 71.753 6.392C71.465 6.392 71.217 6.388 71.009 6.38C70.801 6.372 70.557 6.368 70.277 6.368ZM90.253 13.988C90.253 15.132 90.073 15.928 89.713 16.376C89.361 16.824 88.761 17.048 87.913 17.048H82.381C81.701 17.048 81.165 16.856 80.773 16.472C80.381 16.08 80.185 15.556 80.185 14.9V3.908L80.317 3.776H89.809C89.865 4.048 89.897 4.308 89.905 4.556C89.913 4.804 89.917 5.04 89.917 5.264C89.917 5.48 89.893 5.724 89.845 5.996C89.805 6.268 89.733 6.544 89.629 6.824H85.429C85.093 6.824 84.585 6.82 83.905 6.812C83.913 7.06 83.917 7.272 83.917 7.448C83.925 7.624 83.929 7.836 83.929 8.084V8.876C84.593 8.868 85.093 8.864 85.429 8.864H88.501C88.581 9.08 88.633 9.328 88.657 9.608C88.689 9.88 88.705 10.112 88.705 10.304C88.705 10.528 88.689 10.78 88.657 11.06C88.633 11.332 88.581 11.58 88.501 11.804H85.429C85.277 11.804 85.065 11.804 84.793 11.804C84.521 11.804 84.233 11.804 83.929 11.804V12.584C83.929 12.88 83.925 13.124 83.917 13.316C83.909 13.508 83.905 13.748 83.905 14.036V14.06C84.185 14.044 84.445 14.028 84.685 14.012C84.925 13.996 85.217 13.988 85.561 13.988H90.253ZM11.7056 36.176C11.7056 37.432 11.4496 38.484 10.9376 39.332C10.4336 40.172 9.73763 40.804 8.84963 41.228C7.96963 41.652 6.96163 41.864 5.82563 41.864H3.94163V47C3.62163 47.056 3.28163 47.092 2.92163 47.108C2.56963 47.132 2.26563 47.144 2.00963 47.144C1.77763 47.144 1.47763 47.132 1.10963 47.108C0.741625 47.092 0.401625 47.056 0.0896251 47V30.728L0.257625 30.56C1.28163 30.536 2.23763 30.516 3.12563 30.5C4.02163 30.476 4.92163 30.464 5.82563 30.464C6.96163 30.464 7.96963 30.672 8.84963 31.088C9.73763 31.496 10.4336 32.124 10.9376 32.972C11.4496 33.812 11.7056 34.88 11.7056 36.176ZM3.94163 33.392V38.984C4.27763 38.976 4.58963 38.968 4.87762 38.96C5.17362 38.952 5.38163 38.948 5.50163 38.948C6.14163 38.948 6.62563 38.796 6.95363 38.492C7.28163 38.188 7.50163 37.824 7.61363 37.4C7.72563 36.968 7.78163 36.56 7.78163 36.176C7.78163 35.8 7.72563 35.4 7.61363 34.976C7.50163 34.544 7.28163 34.176 6.95363 33.872C6.62563 33.568 6.14163 33.416 5.50163 33.416C5.26163 33.416 5.02163 33.416 4.78163 33.416C4.54163 33.408 4.26163 33.4 3.94163 33.392ZM24.171 43.988C24.171 45.132 23.991 45.928 23.631 46.376C23.279 46.824 22.679 47.048 21.831 47.048H16.299C15.619 47.048 15.083 46.856 14.691 46.472C14.299 46.08 14.103 45.556 14.103 44.9V33.908L14.235 33.776H23.727C23.783 34.048 23.815 34.308 23.823 34.556C23.831 34.804 23.835 35.04 23.835 35.264C23.835 35.48 23.811 35.724 23.763 35.996C23.723 36.268 23.651 36.544 23.547 36.824H19.347C19.011 36.824 18.503 36.82 17.823 36.812C17.831 37.06 17.835 37.272 17.835 37.448C17.843 37.624 17.847 37.836 17.847 38.084V38.876C18.511 38.868 19.011 38.864 19.347 38.864H22.419C22.499 39.08 22.551 39.328 22.575 39.608C22.607 39.88 22.623 40.112 22.623 40.304C22.623 40.528 22.607 40.78 22.575 41.06C22.551 41.332 22.499 41.58 22.419 41.804H19.347C19.195 41.804 18.983 41.804 18.711 41.804C18.439 41.804 18.151 41.804 17.847 41.804V42.584C17.847 42.88 17.843 43.124 17.835 43.316C17.827 43.508 17.823 43.748 17.823 44.036V44.06C18.103 44.044 18.363 44.028 18.603 44.012C18.843 43.996 19.135 43.988 19.479 43.988H24.171ZM37.5587 37.796C37.5587 38.412 37.4187 38.96 37.1387 39.44C36.8587 39.92 36.5067 40.316 36.0827 40.628C35.6667 40.94 35.2507 41.14 34.8347 41.228C35.2667 41.372 35.6227 41.592 35.9027 41.888C36.1907 42.184 36.4387 42.564 36.6467 43.028L37.2707 44.456C37.4147 44.784 37.5787 45.088 37.7627 45.368C37.9467 45.64 38.1507 45.872 38.3747 46.064C38.1427 46.352 37.7947 46.62 37.3307 46.868C36.8667 47.108 36.3627 47.228 35.8187 47.228C35.2827 47.228 34.8467 47.1 34.5107 46.844C34.1827 46.58 33.8947 46.16 33.6467 45.584L32.5907 43.16C32.4227 42.768 32.2147 42.532 31.9667 42.452C31.7187 42.372 31.3987 42.332 31.0067 42.332H30.5387V47C30.2187 47.056 29.8867 47.092 29.5427 47.108C29.2067 47.132 28.9187 47.144 28.6787 47.144C28.4547 47.144 28.1587 47.132 27.7907 47.108C27.4227 47.092 27.0867 47.056 26.7827 47V33.896L26.9147 33.752C27.8827 33.728 28.7907 33.708 29.6387 33.692C30.4947 33.668 31.3467 33.656 32.1947 33.656C33.1547 33.656 34.0427 33.784 34.8587 34.04C35.6747 34.288 36.3267 34.716 36.8147 35.324C37.3107 35.924 37.5587 36.748 37.5587 37.796ZM30.5387 36.368V39.476C30.8187 39.468 31.0747 39.464 31.3067 39.464C31.5467 39.456 31.7227 39.452 31.8347 39.452C32.5547 39.452 33.0427 39.296 33.2987 38.984C33.5547 38.672 33.6827 38.308 33.6827 37.892C33.6827 37.484 33.5547 37.132 33.2987 36.836C33.0427 36.54 32.6147 36.392 32.0147 36.392C31.7267 36.392 31.4787 36.388 31.2707 36.38C31.0627 36.372 30.8187 36.368 30.5387 36.368ZM39.1628 46.004C39.1628 45.7 39.2228 45.364 39.3428 44.996C39.4628 44.62 39.6268 44.272 39.8348 43.952C40.0428 43.632 40.2708 43.392 40.5188 43.232C41.1108 43.552 41.7708 43.828 42.4988 44.06C43.2268 44.284 43.9388 44.396 44.6348 44.396C45.0828 44.396 45.4508 44.304 45.7388 44.12C46.0348 43.936 46.1828 43.676 46.1828 43.34C46.1828 43.124 46.0988 42.928 45.9308 42.752C45.7628 42.568 45.4708 42.4 45.0547 42.248L43.0628 41.468C42.4468 41.244 41.8708 40.964 41.3348 40.628C40.7988 40.292 40.3668 39.88 40.0388 39.392C39.7108 38.904 39.5468 38.32 39.5468 37.64C39.5468 36.392 40.0268 35.376 40.9868 34.592C41.9468 33.808 43.2388 33.416 44.8628 33.416C45.7828 33.416 46.6948 33.524 47.5988 33.74C48.5108 33.948 49.2748 34.188 49.8908 34.46C49.8908 35.004 49.7788 35.54 49.5548 36.068C49.3308 36.596 49.0228 37.012 48.6308 37.316C48.0388 37.052 47.3948 36.832 46.6988 36.656C46.0028 36.472 45.3748 36.38 44.8148 36.38C44.3988 36.38 44.0788 36.468 43.8548 36.644C43.6388 36.82 43.5308 37.032 43.5308 37.28C43.5308 37.512 43.6388 37.688 43.8548 37.808C44.0708 37.928 44.3388 38.048 44.6588 38.168L46.6388 38.924C47.7428 39.324 48.6188 39.876 49.2668 40.58C49.9228 41.276 50.2508 42.136 50.2508 43.16C50.2508 44.064 50.0068 44.828 49.5188 45.452C49.0388 46.076 48.3788 46.548 47.5388 46.868C46.7068 47.188 45.7668 47.352 44.7188 47.36C43.4708 47.36 42.3588 47.216 41.3828 46.928C40.4148 46.64 39.6748 46.332 39.1628 46.004ZM51.756 40.412C51.756 38.268 52.308 36.568 53.412 35.312C54.524 34.048 56.144 33.416 58.272 33.416C60.432 33.416 62.06 34.044 63.156 35.3C64.26 36.548 64.812 38.252 64.812 40.412C64.812 42.572 64.26 44.272 63.156 45.512C62.052 46.744 60.424 47.36 58.272 47.36C56.112 47.36 54.484 46.736 53.388 45.488C52.3 44.24 51.756 42.548 51.756 40.412ZM55.632 40.412C55.632 40.868 55.66 41.34 55.716 41.828C55.78 42.308 55.9 42.756 56.076 43.172C56.26 43.588 56.528 43.928 56.88 44.192C57.232 44.448 57.7 44.576 58.284 44.576C58.868 44.576 59.336 44.448 59.688 44.192C60.04 43.928 60.304 43.588 60.48 43.172C60.664 42.756 60.784 42.308 60.84 41.828C60.904 41.34 60.936 40.868 60.936 40.412C60.936 39.948 60.904 39.472 60.84 38.984C60.784 38.488 60.664 38.032 60.48 37.616C60.304 37.192 60.04 36.852 59.688 36.596C59.336 36.332 58.868 36.2 58.284 36.2C57.7 36.2 57.232 36.332 56.88 36.596C56.528 36.852 56.26 37.192 56.076 37.616C55.9 38.032 55.78 38.488 55.716 38.984C55.66 39.472 55.632 39.948 55.632 40.412ZM71.9387 40.964C71.8827 40.836 71.7947 40.636 71.6747 40.364C71.5547 40.084 71.4267 39.784 71.2907 39.464C71.1547 39.144 71.0267 38.844 70.9067 38.564C70.7947 38.284 70.7067 38.08 70.6427 37.952L70.5587 37.988C70.5907 38.62 70.6227 39.304 70.6547 40.04C70.6867 40.768 70.7107 41.436 70.7267 42.044C70.7507 42.644 70.7627 43.08 70.7627 43.352V47C70.4507 47.056 70.1507 47.092 69.8627 47.108C69.5747 47.132 69.3067 47.144 69.0587 47.144C68.8347 47.144 68.5547 47.132 68.2187 47.108C67.8907 47.092 67.5787 47.056 67.2827 47V33.86C67.5787 33.788 67.9467 33.732 68.3867 33.692C68.8267 33.652 69.1667 33.632 69.4067 33.632C69.6547 33.632 70.0067 33.64 70.4627 33.656C70.9187 33.664 71.2947 33.704 71.5907 33.776L74.4107 39.788C74.4667 39.9 74.5587 40.104 74.6867 40.4C74.8227 40.696 74.9667 41.02 75.1187 41.372C75.2707 41.724 75.4107 42.056 75.5387 42.368C75.6747 42.672 75.7747 42.896 75.8387 43.04L75.9467 43.016C75.9147 42.488 75.8707 41.872 75.8147 41.168C75.7667 40.464 75.7227 39.784 75.6827 39.128C75.6427 38.472 75.6227 37.948 75.6227 37.556V35.684C75.6227 34.836 75.8067 34.28 76.1747 34.016C76.5427 33.744 77.0907 33.608 77.8187 33.608H79.0547L79.1987 33.776V46.928C78.8867 47 78.5107 47.052 78.0707 47.084C77.6307 47.124 77.2947 47.144 77.0627 47.144C76.9027 47.144 76.6827 47.14 76.4027 47.132C76.1227 47.124 75.8347 47.112 75.5387 47.096C75.2507 47.08 75.0107 47.048 74.8187 47L71.9387 40.964ZM86.0177 44.684C85.8897 44.684 85.7657 44.684 85.6457 44.684C85.5257 44.676 85.4057 44.668 85.2857 44.66L84.5417 47C84.3097 47.056 84.0577 47.096 83.7857 47.12C83.5137 47.152 83.2297 47.168 82.9337 47.168C82.6137 47.168 82.2897 47.144 81.9617 47.096C81.6417 47.048 81.3777 46.98 81.1697 46.892L81.0377 46.688L85.7057 33.776C86.1217 33.712 86.5217 33.672 86.9057 33.656C87.2977 33.64 87.6537 33.632 87.9737 33.632C88.2697 33.632 88.5897 33.64 88.9337 33.656C89.2777 33.672 89.6657 33.712 90.0977 33.776L94.6337 46.82C94.3537 46.948 93.9977 47.044 93.5657 47.108C93.1337 47.18 92.7857 47.216 92.5217 47.216C92.0817 47.216 91.6577 47.132 91.2497 46.964C90.8417 46.796 90.5337 46.352 90.3257 45.632L90.0257 44.66C89.8977 44.668 89.7737 44.676 89.6537 44.684C89.5337 44.684 89.4057 44.684 89.2697 44.684H86.0177ZM86.4977 40.892L86.2337 41.72C86.3537 41.712 86.4737 41.708 86.5937 41.708C86.7137 41.7 86.8377 41.696 86.9657 41.696H88.4657C88.5857 41.696 88.6937 41.7 88.7897 41.708C88.8937 41.708 88.9977 41.712 89.1017 41.72L88.8497 40.904C88.6657 40.272 88.4817 39.568 88.2977 38.792C88.1137 38.016 87.9457 37.312 87.7937 36.68H87.6497C87.4817 37.288 87.2937 37.984 87.0857 38.768C86.8857 39.552 86.6897 40.26 86.4977 40.892Z" fill="#364760"/>
</svg>
