<svg width="189" height="18" viewBox="0 0 189 18" fill="none" xmlns="http://www.w3.org/2000/svg">
<path d="M4.80953 8.408C4.54553 7.792 4.29753 7.188 4.06553 6.596C3.83353 6.004 3.63353 5.48 3.46553 5.024L3.36953 5.06C3.43353 5.74 3.48553 6.512 3.52553 7.376C3.57353 8.232 3.60953 9.088 3.63353 9.944C3.65753 10.8 3.66953 11.56 3.66953 12.224V17C3.35753 17.056 3.04953 17.092 2.74553 17.108C2.44153 17.132 2.16953 17.144 1.92953 17.144C1.69753 17.144 1.40553 17.132 1.05353 17.108C0.709531 17.092 0.389531 17.056 0.0935314 17V0.68C0.389531 0.607999 0.781531 0.555999 1.26953 0.524C1.75753 0.484 2.12153 0.464 2.36153 0.464C2.60953 0.464 2.93753 0.475999 3.34553 0.499999C3.75353 0.515999 4.16953 0.552 4.59353 0.607999L8.28953 9.176C8.59353 9.88 8.87353 10.552 9.12953 11.192C9.39353 11.832 9.61353 12.372 9.78953 12.812L9.88553 12.776C9.82153 12.032 9.76553 11.216 9.71753 10.328C9.67753 9.44 9.64553 8.584 9.62153 7.76C9.59753 6.936 9.58553 6.248 9.58553 5.696V2.768C9.58553 1.912 9.75753 1.312 10.1015 0.967999C10.4535 0.623999 10.9975 0.451999 11.7335 0.451999H12.9815L13.1375 0.607999V16.928C12.8335 17 12.4335 17.052 11.9375 17.084C11.4495 17.124 11.0775 17.144 10.8215 17.144C10.5735 17.144 10.2455 17.132 9.83753 17.108C9.42953 17.092 9.01753 17.056 8.60153 17L4.80953 8.408ZM15.7365 10.412C15.7365 8.268 16.2885 6.568 17.3925 5.312C18.5045 4.048 20.1245 3.416 22.2525 3.416C24.4125 3.416 26.0405 4.044 27.1365 5.3C28.2405 6.548 28.7925 8.252 28.7925 10.412C28.7925 12.572 28.2405 14.272 27.1365 15.512C26.0325 16.744 24.4045 17.36 22.2525 17.36C20.0925 17.36 18.4645 16.736 17.3685 15.488C16.2805 14.24 15.7365 12.548 15.7365 10.412ZM19.6125 10.412C19.6125 10.868 19.6405 11.34 19.6965 11.828C19.7605 12.308 19.8805 12.756 20.0565 13.172C20.2405 13.588 20.5085 13.928 20.8605 14.192C21.2125 14.448 21.6805 14.576 22.2645 14.576C22.8485 14.576 23.3165 14.448 23.6685 14.192C24.0205 13.928 24.2845 13.588 24.4605 13.172C24.6445 12.756 24.7645 12.308 24.8205 11.828C24.8845 11.34 24.9165 10.868 24.9165 10.412C24.9165 9.948 24.8845 9.472 24.8205 8.984C24.7645 8.488 24.6445 8.032 24.4605 7.616C24.2845 7.192 24.0205 6.852 23.6685 6.596C23.3165 6.332 22.8485 6.2 22.2645 6.2C21.6805 6.2 21.2125 6.332 20.8605 6.596C20.5085 6.852 20.2405 7.192 20.0565 7.616C19.8805 8.032 19.7605 8.488 19.6965 8.984C19.6405 9.472 19.6125 9.948 19.6125 10.412ZM31.986 3.776C32.37 3.704 32.79 3.656 33.246 3.632C33.702 3.6 34.086 3.584 34.398 3.584C34.694 3.584 35.078 3.6 35.55 3.632C36.022 3.656 36.418 3.704 36.738 3.776L37.914 8.984C37.986 9.296 38.07 9.72 38.166 10.256C38.262 10.784 38.358 11.352 38.454 11.96H38.61C38.802 10.68 38.982 9.688 39.15 8.984L40.314 3.776C40.69 3.704 41.102 3.656 41.55 3.632C41.998 3.6 42.37 3.584 42.666 3.584C42.978 3.584 43.366 3.6 43.83 3.632C44.294 3.656 44.71 3.704 45.078 3.776L46.434 16.952C45.914 17.08 45.286 17.144 44.55 17.144C44.27 17.144 43.97 17.132 43.65 17.108C43.338 17.084 43.058 17.048 42.81 17L42.462 12.752C42.422 12.208 42.398 11.612 42.39 10.964C42.382 10.316 42.382 9.684 42.39 9.068C42.398 8.444 42.398 7.904 42.39 7.448H42.246L40.482 14.972C40.21 15.02 39.878 15.056 39.486 15.08C39.094 15.096 38.77 15.104 38.514 15.104C38.25 15.104 37.922 15.096 37.53 15.08C37.146 15.056 36.826 15.02 36.57 14.972L34.818 7.448H34.65C34.65 7.912 34.65 8.452 34.65 9.068C34.658 9.684 34.658 10.316 34.65 10.964C34.642 11.612 34.614 12.216 34.566 12.776L34.254 17C33.998 17.048 33.718 17.084 33.414 17.108C33.118 17.132 32.83 17.144 32.55 17.144C31.806 17.144 31.166 17.08 30.63 16.952L31.986 3.776ZM49.5123 3.752C49.9283 3.736 50.4283 3.72 51.0123 3.704C51.6043 3.688 52.2123 3.676 52.8363 3.668C53.4603 3.66 54.0323 3.656 54.5523 3.656C55.5363 3.656 56.4163 3.768 57.1923 3.992C57.9763 4.216 58.5923 4.588 59.0403 5.108C59.4883 5.62 59.7123 6.308 59.7123 7.172C59.7123 7.732 59.5563 8.264 59.2443 8.768C58.9403 9.272 58.5203 9.628 57.9843 9.836C58.6723 10.052 59.2483 10.476 59.7123 11.108C60.1763 11.732 60.4083 12.408 60.4083 13.136C60.4083 14.16 60.1683 14.96 59.6883 15.536C59.2163 16.104 58.5603 16.508 57.7203 16.748C56.8883 16.98 55.9363 17.096 54.8643 17.096C54.0403 17.096 53.1843 17.088 52.2963 17.072C51.4083 17.064 50.4803 17.048 49.5123 17.024L49.3803 16.904V3.896L49.5123 3.752ZM54.3843 6.236C54.2323 6.236 54.0283 6.236 53.7723 6.236C53.5163 6.236 53.2723 6.228 53.0403 6.212V8.792H54.3603C55.0003 8.792 55.4363 8.66 55.6683 8.396C55.9003 8.132 56.0163 7.836 56.0163 7.508C56.0163 7.188 55.9003 6.896 55.6683 6.632C55.4443 6.368 55.0163 6.236 54.3843 6.236ZM53.0403 14.516C53.3603 14.5 53.6723 14.492 53.9763 14.492C54.2803 14.492 54.5563 14.492 54.8043 14.492C55.5323 14.492 56.0123 14.328 56.2443 14C56.4843 13.664 56.6043 13.32 56.6043 12.968C56.6043 12.584 56.4603 12.224 56.1723 11.888C55.8923 11.552 55.3723 11.384 54.6123 11.384H53.0403V14.516ZM73.7032 7.796C73.7032 8.412 73.5632 8.96 73.2832 9.44C73.0032 9.92 72.6512 10.316 72.2272 10.628C71.8112 10.94 71.3952 11.14 70.9792 11.228C71.4112 11.372 71.7672 11.592 72.0472 11.888C72.3352 12.184 72.5832 12.564 72.7912 13.028L73.4152 14.456C73.5592 14.784 73.7232 15.088 73.9072 15.368C74.0912 15.64 74.2952 15.872 74.5192 16.064C74.2872 16.352 73.9392 16.62 73.4752 16.868C73.0112 17.108 72.5072 17.228 71.9632 17.228C71.4272 17.228 70.9912 17.1 70.6552 16.844C70.3272 16.58 70.0392 16.16 69.7912 15.584L68.7352 13.16C68.5672 12.768 68.3592 12.532 68.1112 12.452C67.8632 12.372 67.5432 12.332 67.1512 12.332H66.6832V17C66.3632 17.056 66.0312 17.092 65.6872 17.108C65.3512 17.132 65.0632 17.144 64.8232 17.144C64.5992 17.144 64.3032 17.132 63.9352 17.108C63.5672 17.092 63.2312 17.056 62.9272 17V3.896L63.0592 3.752C64.0272 3.728 64.9352 3.708 65.7832 3.692C66.6392 3.668 67.4912 3.656 68.3392 3.656C69.2992 3.656 70.1872 3.784 71.0032 4.04C71.8192 4.288 72.4712 4.716 72.9592 5.324C73.4552 5.924 73.7032 6.748 73.7032 7.796ZM66.6832 6.368V9.476C66.9632 9.468 67.2192 9.464 67.4512 9.464C67.6912 9.456 67.8672 9.452 67.9792 9.452C68.6992 9.452 69.1872 9.296 69.4432 8.984C69.6992 8.672 69.8272 8.308 69.8272 7.892C69.8272 7.484 69.6992 7.132 69.4432 6.836C69.1872 6.54 68.7592 6.392 68.1592 6.392C67.8712 6.392 67.6232 6.388 67.4152 6.38C67.2072 6.372 66.9632 6.368 66.6832 6.368ZM86.6593 13.988C86.6593 15.132 86.4793 15.928 86.1193 16.376C85.7673 16.824 85.1673 17.048 84.3193 17.048H78.7873C78.1073 17.048 77.5713 16.856 77.1793 16.472C76.7873 16.08 76.5913 15.556 76.5913 14.9V3.908L76.7233 3.776H86.2153C86.2713 4.048 86.3033 4.308 86.3113 4.556C86.3193 4.804 86.3233 5.04 86.3233 5.264C86.3233 5.48 86.2993 5.724 86.2513 5.996C86.2113 6.268 86.1393 6.544 86.0353 6.824H81.8353C81.4993 6.824 80.9913 6.82 80.3113 6.812C80.3193 7.06 80.3233 7.272 80.3233 7.448C80.3313 7.624 80.3353 7.836 80.3353 8.084V8.876C80.9993 8.868 81.4993 8.864 81.8353 8.864H84.9073C84.9873 9.08 85.0393 9.328 85.0633 9.608C85.0953 9.88 85.1113 10.112 85.1113 10.304C85.1113 10.528 85.0953 10.78 85.0633 11.06C85.0393 11.332 84.9873 11.58 84.9073 11.804H81.8353C81.6833 11.804 81.4713 11.804 81.1993 11.804C80.9273 11.804 80.6393 11.804 80.3353 11.804V12.584C80.3353 12.88 80.3313 13.124 80.3233 13.316C80.3153 13.508 80.3113 13.748 80.3113 14.036V14.06C80.5913 14.044 80.8513 14.028 81.0913 14.012C81.3313 13.996 81.6233 13.988 81.9673 13.988H86.6593ZM106.604 10.412C106.604 12.652 106.08 14.328 105.032 15.44C103.984 16.544 102.332 17.096 100.076 17.096C99.1244 17.096 98.2204 17.088 97.3644 17.072C96.5164 17.064 95.6204 17.048 94.6764 17.024L94.5444 16.88V3.896L94.6764 3.752C95.6284 3.728 96.5284 3.708 97.3764 3.692C98.2244 3.668 99.1244 3.656 100.076 3.656C102.308 3.656 103.952 4.236 105.008 5.396C106.072 6.548 106.604 8.22 106.604 10.412ZM102.74 10.412C102.74 9.828 102.68 9.244 102.56 8.66C102.44 8.068 102.188 7.572 101.804 7.172C101.42 6.772 100.844 6.572 100.076 6.572C99.7244 6.572 99.4204 6.572 99.1644 6.572C98.9164 6.564 98.6284 6.556 98.3004 6.548V14.228C98.6444 14.228 98.9364 14.224 99.1764 14.216C99.4244 14.208 99.7244 14.204 100.076 14.204C100.844 14.204 101.42 14.008 101.804 13.616C102.188 13.216 102.44 12.724 102.56 12.14C102.68 11.556 102.74 10.98 102.74 10.412ZM119.167 13.988C119.167 15.132 118.987 15.928 118.627 16.376C118.275 16.824 117.675 17.048 116.827 17.048H111.295C110.615 17.048 110.079 16.856 109.687 16.472C109.295 16.08 109.099 15.556 109.099 14.9V3.908L109.231 3.776H118.723C118.779 4.048 118.811 4.308 118.819 4.556C118.827 4.804 118.831 5.04 118.831 5.264C118.831 5.48 118.807 5.724 118.759 5.996C118.719 6.268 118.647 6.544 118.543 6.824H114.343C114.007 6.824 113.499 6.82 112.819 6.812C112.827 7.06 112.831 7.272 112.831 7.448C112.839 7.624 112.843 7.836 112.843 8.084V8.876C113.507 8.868 114.007 8.864 114.343 8.864H117.415C117.495 9.08 117.547 9.328 117.571 9.608C117.603 9.88 117.619 10.112 117.619 10.304C117.619 10.528 117.603 10.78 117.571 11.06C117.547 11.332 117.495 11.58 117.415 11.804H114.343C114.191 11.804 113.979 11.804 113.707 11.804C113.435 11.804 113.147 11.804 112.843 11.804V12.584C112.843 12.88 112.839 13.124 112.831 13.316C112.823 13.508 112.819 13.748 112.819 14.036V14.06C113.099 14.044 113.359 14.028 113.599 14.012C113.839 13.996 114.131 13.988 114.475 13.988H119.167ZM132.02 5.948C132.252 5.628 132.556 5.24 132.932 4.784C133.308 4.32 133.648 3.924 133.952 3.596L133.88 3.524C133.32 3.596 132.684 3.648 131.972 3.68C131.268 3.712 130.672 3.728 130.184 3.728H126.74C126.684 3.504 126.644 3.288 126.62 3.08C126.604 2.864 126.596 2.652 126.596 2.444C126.596 2.116 126.62 1.808 126.668 1.52C126.716 1.232 126.78 0.927999 126.86 0.607999H137.48C137.648 1.208 137.768 1.66 137.84 1.964C137.92 2.268 137.968 2.488 137.984 2.624C138 2.752 138.008 2.864 138.008 2.96C138.008 3.176 137.976 3.396 137.912 3.62C137.856 3.844 137.748 4.072 137.588 4.304L132.236 11.648C132.004 11.968 131.712 12.344 131.36 12.776C131.008 13.2 130.676 13.576 130.364 13.904L130.436 13.976C130.948 13.936 131.548 13.9 132.236 13.868C132.924 13.828 133.524 13.808 134.036 13.808H135.368C135.952 13.808 136.468 13.752 136.916 13.64C137.364 13.528 137.752 13.396 138.08 13.244C138.152 13.476 138.212 13.748 138.26 14.06C138.308 14.372 138.332 14.676 138.332 14.972C138.332 15.66 138.096 16.172 137.624 16.508C137.16 16.836 136.56 17 135.824 17H126.644C126.516 16.432 126.42 16.004 126.356 15.716C126.3 15.428 126.264 15.216 126.248 15.08C126.232 14.936 126.224 14.808 126.224 14.696C126.224 14.464 126.26 14.224 126.332 13.976C126.412 13.72 126.528 13.488 126.68 13.28L132.02 5.948ZM139.674 10.412C139.674 8.268 140.226 6.568 141.33 5.312C142.442 4.048 144.062 3.416 146.19 3.416C148.35 3.416 149.978 4.044 151.074 5.3C152.178 6.548 152.73 8.252 152.73 10.412C152.73 12.572 152.178 14.272 151.074 15.512C149.97 16.744 148.342 17.36 146.19 17.36C144.03 17.36 142.402 16.736 141.306 15.488C140.218 14.24 139.674 12.548 139.674 10.412ZM143.55 10.412C143.55 10.868 143.578 11.34 143.634 11.828C143.698 12.308 143.818 12.756 143.994 13.172C144.178 13.588 144.446 13.928 144.798 14.192C145.15 14.448 145.618 14.576 146.202 14.576C146.786 14.576 147.254 14.448 147.606 14.192C147.958 13.928 148.222 13.588 148.398 13.172C148.582 12.756 148.702 12.308 148.758 11.828C148.822 11.34 148.854 10.868 148.854 10.412C148.854 9.948 148.822 9.472 148.758 8.984C148.702 8.488 148.582 8.032 148.398 7.616C148.222 7.192 147.958 6.852 147.606 6.596C147.254 6.332 146.786 6.2 146.202 6.2C145.618 6.2 145.15 6.332 144.798 6.596C144.446 6.852 144.178 7.192 143.994 7.616C143.818 8.032 143.698 8.488 143.634 8.984C143.578 9.472 143.55 9.948 143.55 10.412ZM159.857 10.964C159.801 10.836 159.713 10.636 159.593 10.364C159.473 10.084 159.345 9.784 159.209 9.464C159.073 9.144 158.945 8.844 158.825 8.564C158.713 8.284 158.625 8.08 158.561 7.952L158.477 7.988C158.509 8.62 158.541 9.304 158.573 10.04C158.605 10.768 158.629 11.436 158.645 12.044C158.669 12.644 158.681 13.08 158.681 13.352V17C158.369 17.056 158.069 17.092 157.781 17.108C157.493 17.132 157.225 17.144 156.977 17.144C156.753 17.144 156.473 17.132 156.137 17.108C155.809 17.092 155.497 17.056 155.201 17V3.86C155.497 3.788 155.865 3.732 156.305 3.692C156.745 3.652 157.085 3.632 157.325 3.632C157.573 3.632 157.925 3.64 158.381 3.656C158.837 3.664 159.213 3.704 159.509 3.776L162.329 9.788C162.385 9.9 162.477 10.104 162.605 10.4C162.741 10.696 162.885 11.02 163.037 11.372C163.189 11.724 163.329 12.056 163.457 12.368C163.593 12.672 163.693 12.896 163.757 13.04L163.865 13.016C163.833 12.488 163.789 11.872 163.733 11.168C163.685 10.464 163.641 9.784 163.601 9.128C163.561 8.472 163.541 7.948 163.541 7.556V5.684C163.541 4.836 163.725 4.28 164.093 4.016C164.461 3.744 165.009 3.608 165.737 3.608H166.973L167.117 3.776V16.928C166.805 17 166.429 17.052 165.989 17.084C165.549 17.124 165.213 17.144 164.981 17.144C164.821 17.144 164.601 17.14 164.321 17.132C164.041 17.124 163.753 17.112 163.457 17.096C163.169 17.08 162.929 17.048 162.737 17L159.857 10.964ZM173.936 14.684C173.808 14.684 173.684 14.684 173.564 14.684C173.444 14.676 173.324 14.668 173.204 14.66L172.46 17C172.228 17.056 171.976 17.096 171.704 17.12C171.432 17.152 171.148 17.168 170.852 17.168C170.532 17.168 170.208 17.144 169.88 17.096C169.56 17.048 169.296 16.98 169.088 16.892L168.956 16.688L173.624 3.776C174.04 3.712 174.44 3.672 174.824 3.656C175.216 3.64 175.572 3.632 175.892 3.632C176.188 3.632 176.508 3.64 176.852 3.656C177.196 3.672 177.584 3.712 178.016 3.776L182.552 16.82C182.272 16.948 181.916 17.044 181.484 17.108C181.052 17.18 180.704 17.216 180.44 17.216C180 17.216 179.576 17.132 179.168 16.964C178.76 16.796 178.452 16.352 178.244 15.632L177.944 14.66C177.816 14.668 177.692 14.676 177.572 14.684C177.452 14.684 177.324 14.684 177.188 14.684H173.936ZM174.416 10.892L174.152 11.72C174.272 11.712 174.392 11.708 174.512 11.708C174.632 11.7 174.756 11.696 174.884 11.696H176.384C176.504 11.696 176.612 11.7 176.708 11.708C176.812 11.708 176.916 11.712 177.02 11.72L176.768 10.904C176.584 10.272 176.4 9.568 176.216 8.792C176.032 8.016 175.864 7.312 175.712 6.68H175.568C175.4 7.288 175.212 7.984 175.004 8.768C174.804 9.552 174.608 10.26 174.416 10.892ZM184.02 15.368C184.02 15.224 184.04 15 184.08 14.696C184.128 14.392 184.204 14.132 184.308 13.916C184.548 13.78 184.84 13.672 185.184 13.592C185.536 13.512 185.872 13.472 186.192 13.472C186.504 13.472 186.836 13.512 187.188 13.592C187.54 13.672 187.836 13.78 188.076 13.916C188.18 14.132 188.252 14.392 188.292 14.696C188.332 15 188.352 15.224 188.352 15.368C188.352 15.512 188.332 15.736 188.292 16.04C188.252 16.344 188.18 16.604 188.076 16.82C187.836 16.964 187.54 17.072 187.188 17.144C186.836 17.216 186.504 17.252 186.192 17.252C185.872 17.252 185.536 17.216 185.184 17.144C184.84 17.072 184.548 16.964 184.308 16.82C184.204 16.604 184.128 16.344 184.08 16.04C184.04 15.736 184.02 15.512 184.02 15.368ZM184.02 7.952C184.02 7.808 184.04 7.584 184.08 7.28C184.128 6.976 184.204 6.716 184.308 6.5C184.548 6.364 184.84 6.256 185.184 6.176C185.536 6.096 185.872 6.056 186.192 6.056C186.504 6.056 186.836 6.096 187.188 6.176C187.54 6.256 187.836 6.364 188.076 6.5C188.18 6.716 188.252 6.976 188.292 7.28C188.332 7.584 188.352 7.808 188.352 7.952C188.352 8.096 188.332 8.32 188.292 8.624C188.252 8.928 188.18 9.188 188.076 9.404C187.836 9.548 187.54 9.656 187.188 9.728C186.836 9.8 186.504 9.836 186.192 9.836C185.872 9.836 185.536 9.8 185.184 9.728C184.84 9.656 184.548 9.548 184.308 9.404C184.204 9.188 184.128 8.928 184.08 8.624C184.04 8.32 184.02 8.096 184.02 7.952Z" fill="#364760"/>
</svg>
