<svg width="192" height="18" viewBox="0 0 192 18" fill="none" xmlns="http://www.w3.org/2000/svg">
<path d="M5.16891 8.408C4.90491 7.792 4.65691 7.188 4.42491 6.596C4.19291 6.004 3.99291 5.48 3.82491 5.024L3.72891 5.06C3.79291 5.74 3.84491 6.512 3.88491 7.376C3.93291 8.232 3.96891 9.088 3.99291 9.944C4.01691 10.8 4.02891 11.56 4.02891 12.224V17C3.71691 17.056 3.40891 17.092 3.10491 17.108C2.80091 17.132 2.52891 17.144 2.28891 17.144C2.05691 17.144 1.76491 17.132 1.41291 17.108C1.06891 17.092 0.748906 17.056 0.452906 17V0.68C0.748906 0.607999 1.14091 0.555999 1.62891 0.524C2.11691 0.484 2.48091 0.464 2.72091 0.464C2.96891 0.464 3.29691 0.475999 3.70491 0.499999C4.11291 0.515999 4.52891 0.552 4.95291 0.607999L8.64891 9.176C8.95291 9.88 9.23291 10.552 9.48891 11.192C9.75291 11.832 9.97291 12.372 10.1489 12.812L10.2449 12.776C10.1809 12.032 10.1249 11.216 10.0769 10.328C10.0369 9.44 10.0049 8.584 9.98091 7.76C9.95691 6.936 9.94491 6.248 9.94491 5.696V2.768C9.94491 1.912 10.1169 1.312 10.4609 0.967999C10.8129 0.623999 11.3569 0.451999 12.0929 0.451999H13.3409L13.4969 0.607999V16.928C13.1929 17 12.7929 17.052 12.2969 17.084C11.8089 17.124 11.4369 17.144 11.1809 17.144C10.9329 17.144 10.6049 17.132 10.1969 17.108C9.78891 17.092 9.37691 17.056 8.96091 17L5.16891 8.408ZM16.0958 10.412C16.0958 8.268 16.6478 6.568 17.7518 5.312C18.8638 4.048 20.4838 3.416 22.6118 3.416C24.7718 3.416 26.3998 4.044 27.4958 5.3C28.5998 6.548 29.1518 8.252 29.1518 10.412C29.1518 12.572 28.5998 14.272 27.4958 15.512C26.3918 16.744 24.7638 17.36 22.6118 17.36C20.4518 17.36 18.8238 16.736 17.7278 15.488C16.6398 14.24 16.0958 12.548 16.0958 10.412ZM19.9718 10.412C19.9718 10.868 19.9998 11.34 20.0558 11.828C20.1198 12.308 20.2398 12.756 20.4158 13.172C20.5998 13.588 20.8678 13.928 21.2198 14.192C21.5718 14.448 22.0398 14.576 22.6238 14.576C23.2078 14.576 23.6758 14.448 24.0278 14.192C24.3798 13.928 24.6438 13.588 24.8198 13.172C25.0038 12.756 25.1238 12.308 25.1798 11.828C25.2438 11.34 25.2758 10.868 25.2758 10.412C25.2758 9.948 25.2438 9.472 25.1798 8.984C25.1238 8.488 25.0038 8.032 24.8198 7.616C24.6438 7.192 24.3798 6.852 24.0278 6.596C23.6758 6.332 23.2078 6.2 22.6238 6.2C22.0398 6.2 21.5718 6.332 21.2198 6.596C20.8678 6.852 20.5998 7.192 20.4158 7.616C20.2398 8.032 20.1198 8.488 20.0558 8.984C19.9998 9.472 19.9718 9.948 19.9718 10.412ZM32.3453 3.776C32.7293 3.704 33.1493 3.656 33.6053 3.632C34.0613 3.6 34.4453 3.584 34.7573 3.584C35.0533 3.584 35.4373 3.6 35.9093 3.632C36.3813 3.656 36.7773 3.704 37.0973 3.776L38.2733 8.984C38.3453 9.296 38.4293 9.72 38.5253 10.256C38.6213 10.784 38.7173 11.352 38.8133 11.96H38.9693C39.1613 10.68 39.3413 9.688 39.5093 8.984L40.6733 3.776C41.0493 3.704 41.4613 3.656 41.9093 3.632C42.3573 3.6 42.7293 3.584 43.0253 3.584C43.3373 3.584 43.7253 3.6 44.1893 3.632C44.6533 3.656 45.0693 3.704 45.4373 3.776L46.7933 16.952C46.2733 17.08 45.6453 17.144 44.9093 17.144C44.6293 17.144 44.3293 17.132 44.0093 17.108C43.6973 17.084 43.4173 17.048 43.1693 17L42.8213 12.752C42.7813 12.208 42.7573 11.612 42.7493 10.964C42.7413 10.316 42.7413 9.684 42.7493 9.068C42.7573 8.444 42.7573 7.904 42.7493 7.448H42.6053L40.8413 14.972C40.5693 15.02 40.2373 15.056 39.8453 15.08C39.4533 15.096 39.1293 15.104 38.8733 15.104C38.6093 15.104 38.2813 15.096 37.8893 15.08C37.5053 15.056 37.1853 15.02 36.9293 14.972L35.1773 7.448H35.0093C35.0093 7.912 35.0093 8.452 35.0093 9.068C35.0173 9.684 35.0173 10.316 35.0093 10.964C35.0013 11.612 34.9733 12.216 34.9253 12.776L34.6133 17C34.3573 17.048 34.0773 17.084 33.7733 17.108C33.4773 17.132 33.1893 17.144 32.9093 17.144C32.1653 17.144 31.5253 17.08 30.9893 16.952L32.3453 3.776ZM49.8717 3.752C50.2877 3.736 50.7877 3.72 51.3717 3.704C51.9637 3.688 52.5717 3.676 53.1957 3.668C53.8197 3.66 54.3917 3.656 54.9117 3.656C55.8957 3.656 56.7757 3.768 57.5517 3.992C58.3357 4.216 58.9517 4.588 59.3997 5.108C59.8477 5.62 60.0717 6.308 60.0717 7.172C60.0717 7.732 59.9157 8.264 59.6037 8.768C59.2997 9.272 58.8797 9.628 58.3437 9.836C59.0317 10.052 59.6077 10.476 60.0717 11.108C60.5357 11.732 60.7677 12.408 60.7677 13.136C60.7677 14.16 60.5277 14.96 60.0477 15.536C59.5757 16.104 58.9197 16.508 58.0797 16.748C57.2477 16.98 56.2957 17.096 55.2237 17.096C54.3997 17.096 53.5437 17.088 52.6557 17.072C51.7677 17.064 50.8397 17.048 49.8717 17.024L49.7397 16.904V3.896L49.8717 3.752ZM54.7437 6.236C54.5917 6.236 54.3877 6.236 54.1317 6.236C53.8757 6.236 53.6317 6.228 53.3997 6.212V8.792H54.7197C55.3597 8.792 55.7957 8.66 56.0277 8.396C56.2597 8.132 56.3757 7.836 56.3757 7.508C56.3757 7.188 56.2597 6.896 56.0277 6.632C55.8037 6.368 55.3757 6.236 54.7437 6.236ZM53.3997 14.516C53.7197 14.5 54.0317 14.492 54.3357 14.492C54.6397 14.492 54.9157 14.492 55.1637 14.492C55.8917 14.492 56.3717 14.328 56.6037 14C56.8437 13.664 56.9637 13.32 56.9637 12.968C56.9637 12.584 56.8197 12.224 56.5317 11.888C56.2517 11.552 55.7317 11.384 54.9717 11.384H53.3997V14.516ZM74.0626 7.796C74.0626 8.412 73.9226 8.96 73.6426 9.44C73.3626 9.92 73.0106 10.316 72.5866 10.628C72.1706 10.94 71.7546 11.14 71.3386 11.228C71.7706 11.372 72.1266 11.592 72.4066 11.888C72.6946 12.184 72.9426 12.564 73.1506 13.028L73.7746 14.456C73.9186 14.784 74.0826 15.088 74.2666 15.368C74.4506 15.64 74.6546 15.872 74.8786 16.064C74.6466 16.352 74.2986 16.62 73.8346 16.868C73.3706 17.108 72.8666 17.228 72.3226 17.228C71.7866 17.228 71.3506 17.1 71.0146 16.844C70.6866 16.58 70.3986 16.16 70.1506 15.584L69.0946 13.16C68.9266 12.768 68.7186 12.532 68.4706 12.452C68.2226 12.372 67.9026 12.332 67.5106 12.332H67.0426V17C66.7226 17.056 66.3906 17.092 66.0466 17.108C65.7106 17.132 65.4226 17.144 65.1826 17.144C64.9586 17.144 64.6626 17.132 64.2946 17.108C63.9266 17.092 63.5906 17.056 63.2866 17V3.896L63.4186 3.752C64.3866 3.728 65.2946 3.708 66.1426 3.692C66.9986 3.668 67.8506 3.656 68.6986 3.656C69.6586 3.656 70.5466 3.784 71.3626 4.04C72.1786 4.288 72.8306 4.716 73.3186 5.324C73.8146 5.924 74.0626 6.748 74.0626 7.796ZM67.0426 6.368V9.476C67.3226 9.468 67.5786 9.464 67.8106 9.464C68.0506 9.456 68.2266 9.452 68.3386 9.452C69.0586 9.452 69.5466 9.296 69.8026 8.984C70.0586 8.672 70.1866 8.308 70.1866 7.892C70.1866 7.484 70.0586 7.132 69.8026 6.836C69.5466 6.54 69.1186 6.392 68.5186 6.392C68.2306 6.392 67.9826 6.388 67.7746 6.38C67.5666 6.372 67.3226 6.368 67.0426 6.368ZM87.0187 13.988C87.0187 15.132 86.8387 15.928 86.4787 16.376C86.1267 16.824 85.5267 17.048 84.6787 17.048H79.1467C78.4667 17.048 77.9307 16.856 77.5387 16.472C77.1467 16.08 76.9507 15.556 76.9507 14.9V3.908L77.0827 3.776H86.5747C86.6307 4.048 86.6627 4.308 86.6707 4.556C86.6787 4.804 86.6827 5.04 86.6827 5.264C86.6827 5.48 86.6587 5.724 86.6107 5.996C86.5707 6.268 86.4987 6.544 86.3947 6.824H82.1947C81.8587 6.824 81.3507 6.82 80.6707 6.812C80.6787 7.06 80.6827 7.272 80.6827 7.448C80.6907 7.624 80.6947 7.836 80.6947 8.084V8.876C81.3587 8.868 81.8587 8.864 82.1947 8.864H85.2667C85.3467 9.08 85.3987 9.328 85.4227 9.608C85.4547 9.88 85.4707 10.112 85.4707 10.304C85.4707 10.528 85.4547 10.78 85.4227 11.06C85.3987 11.332 85.3467 11.58 85.2667 11.804H82.1947C82.0427 11.804 81.8307 11.804 81.5587 11.804C81.2867 11.804 80.9987 11.804 80.6947 11.804V12.584C80.6947 12.88 80.6907 13.124 80.6827 13.316C80.6747 13.508 80.6707 13.748 80.6707 14.036V14.06C80.9507 14.044 81.2107 14.028 81.4507 14.012C81.6907 13.996 81.9827 13.988 82.3267 13.988H87.0187ZM106.964 10.412C106.964 12.652 106.44 14.328 105.392 15.44C104.344 16.544 102.692 17.096 100.436 17.096C99.4838 17.096 98.5798 17.088 97.7238 17.072C96.8758 17.064 95.9798 17.048 95.0358 17.024L94.9038 16.88V3.896L95.0358 3.752C95.9878 3.728 96.8878 3.708 97.7358 3.692C98.5838 3.668 99.4838 3.656 100.436 3.656C102.668 3.656 104.312 4.236 105.368 5.396C106.432 6.548 106.964 8.22 106.964 10.412ZM103.1 10.412C103.1 9.828 103.04 9.244 102.92 8.66C102.8 8.068 102.548 7.572 102.164 7.172C101.78 6.772 101.204 6.572 100.436 6.572C100.084 6.572 99.7798 6.572 99.5238 6.572C99.2758 6.564 98.9878 6.556 98.6598 6.548V14.228C99.0038 14.228 99.2958 14.224 99.5358 14.216C99.7838 14.208 100.084 14.204 100.436 14.204C101.204 14.204 101.78 14.008 102.164 13.616C102.548 13.216 102.8 12.724 102.92 12.14C103.04 11.556 103.1 10.98 103.1 10.412ZM119.526 13.988C119.526 15.132 119.346 15.928 118.986 16.376C118.634 16.824 118.034 17.048 117.186 17.048H111.654C110.974 17.048 110.438 16.856 110.046 16.472C109.654 16.08 109.458 15.556 109.458 14.9V3.908L109.59 3.776H119.082C119.138 4.048 119.17 4.308 119.178 4.556C119.186 4.804 119.19 5.04 119.19 5.264C119.19 5.48 119.166 5.724 119.118 5.996C119.078 6.268 119.006 6.544 118.902 6.824H114.702C114.366 6.824 113.858 6.82 113.178 6.812C113.186 7.06 113.19 7.272 113.19 7.448C113.198 7.624 113.202 7.836 113.202 8.084V8.876C113.866 8.868 114.366 8.864 114.702 8.864H117.774C117.854 9.08 117.906 9.328 117.93 9.608C117.962 9.88 117.978 10.112 117.978 10.304C117.978 10.528 117.962 10.78 117.93 11.06C117.906 11.332 117.854 11.58 117.774 11.804H114.702C114.55 11.804 114.338 11.804 114.066 11.804C113.794 11.804 113.506 11.804 113.202 11.804V12.584C113.202 12.88 113.198 13.124 113.19 13.316C113.182 13.508 113.178 13.748 113.178 14.036V14.06C113.458 14.044 113.718 14.028 113.958 14.012C114.198 13.996 114.49 13.988 114.834 13.988H119.526ZM139.268 5.684C139.268 6.452 139.12 7.136 138.824 7.736C138.528 8.328 138.156 8.824 137.708 9.224C137.26 9.616 136.808 9.9 136.352 10.076C136.8 10.236 137.172 10.512 137.468 10.904C137.772 11.296 138.016 11.756 138.2 12.284L138.92 14.312C139.192 15.088 139.588 15.68 140.108 16.088C139.86 16.408 139.5 16.676 139.028 16.892C138.556 17.108 138.064 17.216 137.552 17.216C136.864 17.216 136.364 17.032 136.052 16.664C135.74 16.288 135.456 15.732 135.2 14.996L134.336 12.488C134.2 12.072 133.988 11.72 133.7 11.432C133.412 11.136 132.948 10.988 132.308 10.988H131.312V17C130.992 17.056 130.66 17.092 130.316 17.108C129.972 17.132 129.668 17.144 129.404 17.144C129.172 17.144 128.876 17.132 128.516 17.108C128.156 17.092 127.82 17.056 127.508 17V0.727999L127.676 0.559999C128.7 0.535999 129.684 0.515999 130.628 0.499999C131.58 0.475999 132.512 0.464 133.424 0.464C134.536 0.464 135.532 0.648 136.412 1.016C137.3 1.384 137.996 1.952 138.5 2.72C139.012 3.488 139.268 4.476 139.268 5.684ZM131.312 3.344V8.048C131.688 8.032 132.04 8.02 132.368 8.012C132.704 8.004 132.948 8 133.1 8C133.708 8 134.172 7.892 134.492 7.676C134.82 7.452 135.044 7.164 135.164 6.812C135.292 6.46 135.356 6.084 135.356 5.684C135.356 5.268 135.292 4.884 135.164 4.532C135.044 4.18 134.82 3.9 134.492 3.692C134.172 3.476 133.708 3.368 133.1 3.368C132.852 3.368 132.576 3.368 132.272 3.368C131.976 3.368 131.656 3.36 131.312 3.344ZM145.537 14.684C145.409 14.684 145.285 14.684 145.165 14.684C145.045 14.676 144.925 14.668 144.805 14.66L144.061 17C143.829 17.056 143.577 17.096 143.305 17.12C143.033 17.152 142.749 17.168 142.453 17.168C142.133 17.168 141.809 17.144 141.481 17.096C141.161 17.048 140.897 16.98 140.689 16.892L140.557 16.688L145.225 3.776C145.641 3.712 146.041 3.672 146.425 3.656C146.817 3.64 147.173 3.632 147.493 3.632C147.789 3.632 148.109 3.64 148.453 3.656C148.797 3.672 149.185 3.712 149.617 3.776L154.153 16.82C153.873 16.948 153.517 17.044 153.085 17.108C152.653 17.18 152.305 17.216 152.041 17.216C151.601 17.216 151.177 17.132 150.769 16.964C150.361 16.796 150.053 16.352 149.845 15.632L149.545 14.66C149.417 14.668 149.293 14.676 149.173 14.684C149.053 14.684 148.925 14.684 148.789 14.684H145.537ZM146.017 10.892L145.753 11.72C145.873 11.712 145.993 11.708 146.113 11.708C146.233 11.7 146.357 11.696 146.485 11.696H147.985C148.105 11.696 148.213 11.7 148.309 11.708C148.413 11.708 148.517 11.712 148.621 11.72L148.369 10.904C148.185 10.272 148.001 9.568 147.817 8.792C147.633 8.016 147.465 7.312 147.313 6.68H147.169C147.001 7.288 146.813 7.984 146.605 8.768C146.405 9.552 146.209 10.26 146.017 10.892ZM156.822 3.776C157.206 3.704 157.626 3.656 158.082 3.632C158.538 3.6 158.922 3.584 159.234 3.584C159.53 3.584 159.914 3.6 160.386 3.632C160.858 3.656 161.254 3.704 161.574 3.776L162.75 8.984C162.822 9.296 162.906 9.72 163.002 10.256C163.098 10.784 163.194 11.352 163.29 11.96H163.446C163.638 10.68 163.818 9.688 163.986 8.984L165.15 3.776C165.526 3.704 165.938 3.656 166.386 3.632C166.834 3.6 167.206 3.584 167.502 3.584C167.814 3.584 168.202 3.6 168.666 3.632C169.13 3.656 169.546 3.704 169.914 3.776L171.27 16.952C170.75 17.08 170.122 17.144 169.386 17.144C169.106 17.144 168.806 17.132 168.486 17.108C168.174 17.084 167.894 17.048 167.646 17L167.298 12.752C167.258 12.208 167.234 11.612 167.226 10.964C167.218 10.316 167.218 9.684 167.226 9.068C167.234 8.444 167.234 7.904 167.226 7.448H167.082L165.318 14.972C165.046 15.02 164.714 15.056 164.322 15.08C163.93 15.096 163.606 15.104 163.35 15.104C163.086 15.104 162.758 15.096 162.366 15.08C161.982 15.056 161.662 15.02 161.406 14.972L159.654 7.448H159.486C159.486 7.912 159.486 8.452 159.486 9.068C159.494 9.684 159.494 10.316 159.486 10.964C159.478 11.612 159.45 12.216 159.402 12.776L159.09 17C158.834 17.048 158.554 17.084 158.25 17.108C157.954 17.132 157.666 17.144 157.386 17.144C156.642 17.144 156.002 17.08 155.466 16.952L156.822 3.776ZM177.576 14.684C177.448 14.684 177.324 14.684 177.204 14.684C177.084 14.676 176.964 14.668 176.844 14.66L176.1 17C175.868 17.056 175.616 17.096 175.344 17.12C175.072 17.152 174.788 17.168 174.492 17.168C174.172 17.168 173.848 17.144 173.52 17.096C173.2 17.048 172.936 16.98 172.728 16.892L172.596 16.688L177.264 3.776C177.68 3.712 178.08 3.672 178.464 3.656C178.856 3.64 179.212 3.632 179.532 3.632C179.828 3.632 180.148 3.64 180.492 3.656C180.836 3.672 181.224 3.712 181.656 3.776L186.192 16.82C185.912 16.948 185.556 17.044 185.124 17.108C184.692 17.18 184.344 17.216 184.08 17.216C183.64 17.216 183.216 17.132 182.808 16.964C182.4 16.796 182.092 16.352 181.884 15.632L181.584 14.66C181.456 14.668 181.332 14.676 181.212 14.684C181.092 14.684 180.964 14.684 180.828 14.684H177.576ZM178.056 10.892L177.792 11.72C177.912 11.712 178.032 11.708 178.152 11.708C178.272 11.7 178.396 11.696 178.524 11.696H180.024C180.144 11.696 180.252 11.7 180.348 11.708C180.452 11.708 180.556 11.712 180.66 11.72L180.408 10.904C180.224 10.272 180.04 9.568 179.856 8.792C179.672 8.016 179.504 7.312 179.352 6.68H179.208C179.04 7.288 178.852 7.984 178.644 8.768C178.444 9.552 178.248 10.26 178.056 10.892ZM187.661 15.368C187.661 15.224 187.681 15 187.721 14.696C187.769 14.392 187.845 14.132 187.949 13.916C188.189 13.78 188.481 13.672 188.825 13.592C189.177 13.512 189.513 13.472 189.833 13.472C190.145 13.472 190.477 13.512 190.829 13.592C191.181 13.672 191.477 13.78 191.717 13.916C191.821 14.132 191.893 14.392 191.933 14.696C191.973 15 191.993 15.224 191.993 15.368C191.993 15.512 191.973 15.736 191.933 16.04C191.893 16.344 191.821 16.604 191.717 16.82C191.477 16.964 191.181 17.072 190.829 17.144C190.477 17.216 190.145 17.252 189.833 17.252C189.513 17.252 189.177 17.216 188.825 17.144C188.481 17.072 188.189 16.964 187.949 16.82C187.845 16.604 187.769 16.344 187.721 16.04C187.681 15.736 187.661 15.512 187.661 15.368ZM187.661 7.952C187.661 7.808 187.681 7.584 187.721 7.28C187.769 6.976 187.845 6.716 187.949 6.5C188.189 6.364 188.481 6.256 188.825 6.176C189.177 6.096 189.513 6.056 189.833 6.056C190.145 6.056 190.477 6.096 190.829 6.176C191.181 6.256 191.477 6.364 191.717 6.5C191.821 6.716 191.893 6.976 191.933 7.28C191.973 7.584 191.993 7.808 191.993 7.952C191.993 8.096 191.973 8.32 191.933 8.624C191.893 8.928 191.821 9.188 191.717 9.404C191.477 9.548 191.181 9.656 190.829 9.728C190.477 9.8 190.145 9.836 189.833 9.836C189.513 9.836 189.177 9.8 188.825 9.728C188.481 9.656 188.189 9.548 187.949 9.404C187.845 9.188 187.769 8.928 187.721 8.624C187.681 8.32 187.661 8.096 187.661 7.952Z" fill="#364760"/>
</svg>
