<svg width="115" height="27" viewBox="0 0 115 27" fill="none" xmlns="http://www.w3.org/2000/svg">
<path d="M17.8311 9.026C17.8311 10.178 17.6091 11.204 17.1651 12.104C16.7211 12.992 16.1631 13.736 15.4911 14.336C14.8191 14.924 14.1411 15.35 13.4571 15.614C14.1291 15.854 14.6871 16.268 15.1311 16.856C15.5871 17.444 15.9531 18.134 16.2291 18.926L17.3091 21.968C17.7171 23.132 18.3111 24.02 19.0911 24.632C18.7191 25.112 18.1791 25.514 17.4711 25.838C16.7631 26.162 16.0251 26.324 15.2571 26.324C14.2251 26.324 13.4751 26.048 13.0071 25.496C12.5391 24.932 12.1131 24.098 11.7291 22.994L10.4331 19.232C10.2291 18.608 9.91108 18.08 9.47908 17.648C9.04708 17.204 8.35108 16.982 7.39108 16.982H5.89708V26C5.41708 26.084 4.91908 26.138 4.40308 26.162C3.88708 26.198 3.43108 26.216 3.03508 26.216C2.68708 26.216 2.24308 26.198 1.70308 26.162C1.16308 26.138 0.659078 26.084 0.191078 26V1.592L0.443078 1.34C1.97908 1.304 3.45508 1.274 4.87108 1.25C6.29908 1.214 7.69708 1.196 9.06508 1.196C10.7331 1.196 12.2271 1.472 13.5471 2.024C14.8791 2.576 15.9231 3.428 16.6791 4.58C17.4471 5.732 17.8311 7.214 17.8311 9.026ZM5.89708 5.516V12.572C6.46108 12.548 6.98908 12.53 7.48108 12.518C7.98508 12.506 8.35108 12.5 8.57908 12.5C9.49108 12.5 10.1871 12.338 10.6671 12.014C11.1591 11.678 11.4951 11.246 11.6751 10.718C11.8671 10.19 11.9631 9.626 11.9631 9.026C11.9631 8.402 11.8671 7.826 11.6751 7.298C11.4951 6.77 11.1591 6.35 10.6671 6.038C10.1871 5.714 9.49108 5.552 8.57908 5.552C8.20708 5.552 7.79308 5.552 7.33708 5.552C6.89308 5.552 6.41308 5.54 5.89708 5.516ZM28.2975 20.852C28.1055 20.852 27.8775 20.846 27.6135 20.834C27.3615 20.822 27.1155 20.816 26.8755 20.816L25.3455 26.036C24.9855 26.12 24.5955 26.174 24.1755 26.198C23.7675 26.234 23.3415 26.252 22.8975 26.252C22.4655 26.252 21.9735 26.216 21.4215 26.144C20.8815 26.084 20.4495 25.988 20.1255 25.856L19.9095 25.55L27.8655 1.412C28.3215 1.34 28.8675 1.286 29.5035 1.25C30.1515 1.214 30.7155 1.196 31.1955 1.196C31.6515 1.196 32.2035 1.22 32.8515 1.268C33.4995 1.304 34.0575 1.364 34.5255 1.448L42.2655 25.622C41.8695 25.85 41.3535 26.024 40.7175 26.144C40.0935 26.264 39.5115 26.324 38.9715 26.324C38.0595 26.324 37.3455 26.114 36.8295 25.694C36.3135 25.262 35.8815 24.428 35.5335 23.192L34.8495 20.816C34.6215 20.816 34.3755 20.822 34.1115 20.834C33.8475 20.846 33.6195 20.852 33.4275 20.852H28.2975ZM29.0175 13.526L28.2075 16.316C28.4355 16.316 28.6815 16.316 28.9455 16.316C29.2095 16.304 29.4435 16.298 29.6475 16.298H32.2755C32.4555 16.298 32.6595 16.304 32.8875 16.316C33.1275 16.316 33.3615 16.316 33.5895 16.316L32.9595 14.066C32.6835 13.058 32.3595 11.87 31.9875 10.502C31.6155 9.134 31.2795 7.856 30.9795 6.668H30.7635C30.6435 7.34 30.4815 8.084 30.2775 8.9C30.0735 9.716 29.8575 10.532 29.6295 11.348C29.4135 12.152 29.2095 12.878 29.0175 13.526ZM46.4305 1.448C47.0425 1.34 47.7085 1.268 48.4285 1.232C49.1605 1.196 49.7905 1.178 50.3185 1.178C50.8465 1.178 51.4345 1.196 52.0825 1.232C52.7305 1.268 53.3605 1.34 53.9725 1.448L56.0965 10.25C56.1445 10.466 56.2225 10.838 56.3305 11.366C56.4505 11.894 56.5825 12.494 56.7265 13.166C56.8705 13.838 57.0025 14.498 57.1225 15.146C57.2545 15.794 57.3565 16.346 57.4285 16.802H57.6805C57.7525 16.346 57.8545 15.794 57.9865 15.146C58.1185 14.498 58.2505 13.838 58.3825 13.166C58.5265 12.494 58.6585 11.894 58.7785 11.366C58.8985 10.838 58.9825 10.466 59.0305 10.25L61.1545 1.448C61.7665 1.34 62.3905 1.268 63.0265 1.232C63.6745 1.196 64.2625 1.178 64.7905 1.178C65.3185 1.178 65.9485 1.196 66.6805 1.232C67.4125 1.268 68.0785 1.34 68.6785 1.448L70.5865 25.928C70.1785 26.036 69.7045 26.108 69.1645 26.144C68.6365 26.192 68.1385 26.216 67.6705 26.216C67.2385 26.216 66.8125 26.204 66.3925 26.18C65.9845 26.156 65.5705 26.108 65.1505 26.036L64.6105 16.01C64.5385 14.738 64.4725 13.334 64.4125 11.798C64.3525 10.262 64.3225 8.906 64.3225 7.73H64.0705L60.5245 22.382C60.0925 22.454 59.5885 22.508 59.0125 22.544C58.4365 22.568 57.9445 22.58 57.5365 22.58C57.1765 22.58 56.7025 22.568 56.1145 22.544C55.5265 22.508 55.0165 22.454 54.5845 22.382L51.0385 7.73H50.8045C50.7925 8.906 50.7565 10.262 50.6965 11.798C50.6485 13.334 50.5885 14.738 50.5165 16.01L49.9585 26.036C49.5505 26.108 49.1365 26.156 48.7165 26.18C48.2965 26.204 47.8705 26.216 47.4385 26.216C46.9825 26.216 46.4845 26.192 45.9445 26.144C45.4165 26.108 44.9425 26.036 44.5225 25.928L46.4305 1.448ZM81.2428 20.852C81.0508 20.852 80.8228 20.846 80.5588 20.834C80.3068 20.822 80.0608 20.816 79.8208 20.816L78.2908 26.036C77.9308 26.12 77.5408 26.174 77.1208 26.198C76.7128 26.234 76.2868 26.252 75.8428 26.252C75.4108 26.252 74.9188 26.216 74.3668 26.144C73.8268 26.084 73.3948 25.988 73.0708 25.856L72.8548 25.55L80.8108 1.412C81.2668 1.34 81.8128 1.286 82.4488 1.25C83.0968 1.214 83.6608 1.196 84.1408 1.196C84.5968 1.196 85.1488 1.22 85.7968 1.268C86.4448 1.304 87.0028 1.364 87.4708 1.448L95.2108 25.622C94.8148 25.85 94.2988 26.024 93.6628 26.144C93.0388 26.264 92.4568 26.324 91.9168 26.324C91.0048 26.324 90.2908 26.114 89.7748 25.694C89.2588 25.262 88.8268 24.428 88.4788 23.192L87.7948 20.816C87.5668 20.816 87.3208 20.822 87.0568 20.834C86.7928 20.846 86.5648 20.852 86.3728 20.852H81.2428ZM81.9628 13.526L81.1528 16.316C81.3808 16.316 81.6268 16.316 81.8908 16.316C82.1548 16.304 82.3888 16.298 82.5928 16.298H85.2208C85.4008 16.298 85.6048 16.304 85.8328 16.316C86.0728 16.316 86.3068 16.316 86.5348 16.316L85.9048 14.066C85.6288 13.058 85.3048 11.87 84.9328 10.502C84.5608 9.134 84.2248 7.856 83.9248 6.668H83.7088C83.5888 7.34 83.4268 8.084 83.2228 8.9C83.0188 9.716 82.8028 10.532 82.5748 11.348C82.3588 12.152 82.1548 12.878 81.9628 13.526ZM96.0459 23.858C96.1179 23.054 96.3639 22.256 96.7839 21.464C97.2159 20.672 97.7139 20.036 98.2779 19.556C99.2859 20.168 100.432 20.714 101.716 21.194C103 21.674 104.284 21.914 105.568 21.914C106.612 21.914 107.362 21.662 107.818 21.158C108.274 20.654 108.502 20.114 108.502 19.538C108.502 19.142 108.376 18.698 108.124 18.206C107.872 17.714 107.242 17.258 106.234 16.838L101.896 15.038C100.408 14.414 99.1779 13.58 98.2059 12.536C97.2339 11.492 96.7479 10.112 96.7479 8.396C96.7479 6.896 97.1379 5.582 97.9179 4.454C98.6979 3.326 99.7479 2.45 101.068 1.826C102.4 1.19 103.882 0.872 105.514 0.872C107.206 0.872 108.802 1.1 110.302 1.556C111.802 2 113.02 2.462 113.956 2.942C113.908 3.77 113.71 4.568 113.362 5.336C113.026 6.092 112.576 6.728 112.012 7.244C111.1 6.812 110.032 6.416 108.808 6.056C107.584 5.684 106.486 5.498 105.514 5.498C104.482 5.498 103.744 5.732 103.3 6.2C102.868 6.668 102.652 7.142 102.652 7.622C102.652 8.078 102.802 8.486 103.102 8.846C103.414 9.206 103.966 9.554 104.758 9.89L109.186 11.708C110.926 12.428 112.264 13.406 113.2 14.642C114.148 15.878 114.622 17.27 114.622 18.818C114.622 20.27 114.268 21.578 113.56 22.742C112.864 23.906 111.814 24.83 110.41 25.514C109.006 26.198 107.254 26.54 105.154 26.54C103.702 26.54 102.154 26.312 100.51 25.856C98.8659 25.388 97.3779 24.722 96.0459 23.858Z" fill="#364760"/>
</svg>
