<svg width="392" height="155" viewBox="0 0 392 155" fill="none" xmlns="http://www.w3.org/2000/svg">
<rect width="392" height="155" rx="20" fill="black" fill-opacity="0.25"/>
<path d="M36.2269 54.8781C35.8544 54.009 35.5045 53.1568 35.1772 52.3216C34.8499 51.4864 34.5677 50.7471 34.3307 50.1038L34.1953 50.1546C34.2856 51.1139 34.3589 52.2031 34.4154 53.4221C34.4831 54.6298 34.5339 55.8374 34.5677 57.0451C34.6016 58.2528 34.6185 59.325 34.6185 60.2618V67C34.1784 67.079 33.7438 67.1298 33.3149 67.1524C32.886 67.1862 32.5023 67.2032 32.1637 67.2032C31.8364 67.2032 31.4244 67.1862 30.9278 67.1524C30.4424 67.1298 29.991 67.079 29.5734 67V43.9751C29.991 43.8735 30.544 43.8002 31.2325 43.755C31.921 43.6986 32.4346 43.6704 32.7732 43.6704C33.123 43.6704 33.5858 43.6873 34.1614 43.7212C34.737 43.7437 35.324 43.7945 35.9221 43.8735L41.1366 55.9616C41.5655 56.9548 41.9605 57.9029 42.3217 58.8058C42.6942 59.7088 43.0046 60.4706 43.2529 61.0914L43.3883 61.0406C43.298 59.991 43.219 58.8397 43.1513 57.5869C43.0949 56.3341 43.0497 55.1264 43.0158 53.9638C42.982 52.8013 42.9651 51.8307 42.9651 51.0519V46.9209C42.9651 45.7133 43.2077 44.8668 43.6931 44.3814C44.1897 43.8961 44.9572 43.6534 45.9955 43.6534H47.7563L47.9764 43.8735V66.8984C47.5475 67 46.9831 67.0734 46.2834 67.1185C45.5949 67.1749 45.07 67.2032 44.7089 67.2032C44.359 67.2032 43.8962 67.1862 43.3206 67.1524C42.745 67.1298 42.1637 67.079 41.5768 67L36.2269 54.8781ZM69.2334 60.0079C69.2334 62.3442 68.5336 64.1783 67.1341 65.5102C65.7458 66.842 63.686 67.5079 60.9546 67.5079C58.2232 67.5079 56.1577 66.842 54.7582 65.5102C53.3699 64.1783 52.6758 62.3442 52.6758 60.0079V48.3431L52.8789 48.1399H54.809C55.8361 48.1399 56.6261 48.3995 57.1792 48.9187C57.7435 49.4379 58.0257 50.3126 58.0257 51.5428V59.991C58.0257 61.018 58.2401 61.825 58.669 62.412C59.0979 62.9989 59.8598 63.2923 60.9546 63.2923C62.0607 63.2923 62.8225 62.9989 63.2401 62.412C63.6577 61.825 63.8666 61.018 63.8666 59.991V48.3431C64.318 48.2528 64.7808 48.1963 65.2548 48.1738C65.7289 48.1512 66.1408 48.1399 66.4907 48.1399C66.8067 48.1399 67.2356 48.1568 67.7774 48.1907C68.3192 48.2133 68.8045 48.2697 69.2334 48.36V60.0079ZM87.9845 62.7506C87.9845 64.3646 87.7305 65.4876 87.2226 66.1196C86.726 66.7517 85.8795 67.0677 84.6831 67.0677H76.8784C75.919 67.0677 75.1628 66.7968 74.6097 66.2551C74.0567 65.702 73.7802 64.9627 73.7802 64.0372V48.5293L73.9664 48.3431H87.3581C87.4371 48.7268 87.4822 49.0936 87.4935 49.4435C87.5048 49.7934 87.5105 50.1264 87.5105 50.4424C87.5105 50.7471 87.4766 51.0914 87.4089 51.4751C87.3524 51.8589 87.2509 52.2483 87.1041 52.6433H81.1786C80.7046 52.6433 79.9879 52.6377 79.0285 52.6264C79.0398 52.9763 79.0454 53.2754 79.0454 53.5237C79.0567 53.772 79.0624 54.0711 79.0624 54.421V55.5383C79.9991 55.5271 80.7046 55.5214 81.1786 55.5214H85.5127C85.6256 55.8262 85.6989 56.176 85.7328 56.5711C85.7779 56.9548 85.8005 57.2821 85.8005 57.553C85.8005 57.869 85.7779 58.2246 85.7328 58.6196C85.6989 59.0034 85.6256 59.3533 85.5127 59.6693H81.1786C80.9642 59.6693 80.6651 59.6693 80.2813 59.6693C79.8976 59.6693 79.4912 59.6693 79.0624 59.6693V60.7697C79.0624 61.1873 79.0567 61.5316 79.0454 61.8025C79.0341 62.0733 79.0285 62.412 79.0285 62.8183V62.8521C79.4235 62.8296 79.7903 62.807 80.1289 62.7844C80.4675 62.7618 80.8795 62.7506 81.3648 62.7506H87.9845ZM102.623 48.3431C103.029 48.2528 103.385 48.1963 103.69 48.1738C104.006 48.1512 104.327 48.1399 104.655 48.1399C105.061 48.1399 105.484 48.1625 105.924 48.2076C106.376 48.2528 106.855 48.3487 107.363 48.4954L107.6 48.7494L102.047 67C101.539 67.079 100.873 67.1298 100.05 67.1524C99.2256 67.1862 98.4751 67.2032 97.7979 67.2032C96.9062 67.2032 96.15 67.0621 95.5292 66.7799C94.9197 66.4865 94.4796 65.8544 94.2087 64.8837L89.3836 48.7155C89.8464 48.5236 90.3317 48.3769 90.8396 48.2753C91.3588 48.1625 91.8893 48.106 92.431 48.106C93.2437 48.106 93.8757 48.2979 94.3272 48.6817C94.7899 49.0541 95.1568 49.7031 95.4276 50.6286L97.2392 56.6896C97.4988 57.6038 97.7301 58.535 97.9333 59.483C98.1477 60.4311 98.3565 61.5034 98.5597 62.6998C98.6049 62.8916 98.7177 62.9876 98.8983 62.9876L102.623 48.3431ZM108.385 57.7054C108.385 54.6806 109.164 52.2821 110.722 50.5101C112.29 48.7268 114.576 47.8352 117.578 47.8352C120.626 47.8352 122.923 48.7212 124.469 50.4932C126.026 52.2539 126.805 54.658 126.805 57.7054C126.805 60.7528 126.026 63.1512 124.469 64.9007C122.911 66.6388 120.614 67.5079 117.578 67.5079C114.531 67.5079 112.234 66.6275 110.688 64.8668C109.153 63.1061 108.385 60.7189 108.385 57.7054ZM113.854 57.7054C113.854 58.3487 113.893 59.0146 113.972 59.7031C114.062 60.3803 114.232 61.0124 114.48 61.5993C114.74 62.1862 115.118 62.6659 115.614 63.0384C116.111 63.3995 116.771 63.5801 117.595 63.5801C118.419 63.5801 119.079 63.3995 119.576 63.0384C120.073 62.6659 120.445 62.1862 120.693 61.5993C120.953 61.0124 121.122 60.3803 121.201 59.7031C121.292 59.0146 121.337 58.3487 121.337 57.7054C121.337 57.0508 121.292 56.3792 121.201 55.6907C121.122 54.9909 120.953 54.3476 120.693 53.7607C120.445 53.1625 120.073 52.6828 119.576 52.3216C119.079 51.9492 118.419 51.7629 117.595 51.7629C116.771 51.7629 116.111 51.9492 115.614 52.3216C115.118 52.6828 114.74 53.1625 114.48 53.7607C114.232 54.3476 114.062 54.9909 113.972 55.6907C113.893 56.3792 113.854 57.0508 113.854 57.7054ZM47.5531 100.467C47.5531 103.334 46.7574 105.558 45.166 107.138C43.5858 108.718 41.3285 109.508 38.3939 109.508C35.4707 109.508 33.2133 108.718 31.6219 107.138C30.0305 105.558 29.2348 103.334 29.2348 100.467V85.8735L29.4718 85.6534H31.4526C32.491 85.6534 33.2867 85.9243 33.8397 86.4661C34.3928 86.9966 34.6693 87.8656 34.6693 89.0733V100.518C34.6693 102.064 34.9515 103.232 35.5158 104.023C36.0802 104.801 37.0395 105.191 38.3939 105.191C39.7596 105.191 40.7246 104.801 41.289 104.023C41.8533 103.232 42.1355 102.064 42.1355 100.518V85.8735C42.5757 85.7945 43.0328 85.7437 43.5068 85.7212C43.9921 85.6873 44.4154 85.6704 44.7766 85.6704C45.1039 85.6704 45.5384 85.6873 46.0802 85.7212C46.6332 85.7437 47.1242 85.7945 47.5531 85.8735V100.467ZM50.4093 107.595C50.4093 107.166 50.4939 106.692 50.6632 106.173C50.8325 105.642 51.0639 105.151 51.3573 104.7C51.6508 104.248 51.9725 103.91 52.3224 103.684C53.1576 104.135 54.0887 104.525 55.1158 104.852C56.1429 105.168 57.1474 105.326 58.1294 105.326C58.7614 105.326 59.2806 105.196 59.6869 104.937C60.1045 104.677 60.3134 104.31 60.3134 103.836C60.3134 103.532 60.1948 103.255 59.9578 103.007C59.7208 102.747 59.3088 102.51 58.7219 102.296L55.9115 101.195C55.0425 100.879 54.2298 100.484 53.4736 100.01C52.7174 99.5361 52.1079 98.9548 51.6452 98.2663C51.1824 97.5778 50.951 96.7539 50.951 95.7945C50.951 94.0338 51.6282 92.6004 52.9826 91.4943C54.337 90.3882 56.1598 89.8352 58.451 89.8352C59.749 89.8352 61.0357 89.9875 62.3111 90.2923C63.5978 90.5857 64.6757 90.9243 65.5447 91.3081C65.5447 92.0756 65.3867 92.8318 65.0707 93.5767C64.7547 94.3216 64.3201 94.9085 63.7671 95.3374C62.9319 94.965 62.0233 94.6546 61.0413 94.4063C60.0594 94.1467 59.1734 94.0169 58.3833 94.0169C57.7964 94.0169 57.3449 94.141 57.0289 94.3893C56.7242 94.6377 56.5718 94.9368 56.5718 95.2866C56.5718 95.614 56.7242 95.8623 57.0289 96.0316C57.3337 96.2009 57.7118 96.3702 58.1632 96.5395L60.9567 97.6061C62.5143 98.1704 63.7502 98.9492 64.6644 99.9424C65.5899 100.924 66.0526 102.138 66.0526 103.582C66.0526 104.858 65.7084 105.936 65.0199 106.816C64.3427 107.696 63.4116 108.362 62.2265 108.814C61.0526 109.265 59.7264 109.497 58.2479 109.508C56.4872 109.508 54.9183 109.305 53.5413 108.898C52.1756 108.492 51.1316 108.058 50.4093 107.595ZM85.5683 102.008C85.5683 104.344 84.8685 106.178 83.4689 107.51C82.0807 108.842 80.0208 109.508 77.2894 109.508C74.5581 109.508 72.4926 108.842 71.093 107.51C69.7048 106.178 69.0106 104.344 69.0106 102.008V90.3431L69.2138 90.1399H71.1438C72.1709 90.1399 72.961 90.3995 73.514 90.9187C74.0784 91.4379 74.3605 92.3126 74.3605 93.5428V101.991C74.3605 103.018 74.575 103.825 75.0039 104.412C75.4328 104.999 76.1946 105.292 77.2894 105.292C78.3955 105.292 79.1574 104.999 79.575 104.412C79.9926 103.825 80.2014 103.018 80.2014 101.991V90.3431C80.6529 90.2528 81.1156 90.1963 81.5897 90.1738C82.0637 90.1512 82.4757 90.1399 82.8256 90.1399C83.1416 90.1399 83.5705 90.1568 84.1123 90.1907C84.654 90.2133 85.1394 90.2697 85.5683 90.36V102.008ZM94.2933 105.732C94.1127 105.732 93.9378 105.732 93.7685 105.732C93.5992 105.721 93.4299 105.71 93.2606 105.699L92.2109 109C91.8836 109.079 91.5281 109.135 91.1443 109.169C90.7606 109.214 90.3599 109.237 89.9423 109.237C89.4908 109.237 89.0337 109.203 88.571 109.135C88.1195 109.068 87.747 108.972 87.4536 108.848L87.2673 108.56L93.8531 90.3431C94.4401 90.2528 95.0044 90.1963 95.5462 90.1738C96.0992 90.1512 96.6015 90.1399 97.0529 90.1399C97.4705 90.1399 97.922 90.1512 98.4073 90.1738C98.8927 90.1963 99.4401 90.2528 100.05 90.3431L106.449 108.746C106.054 108.927 105.552 109.062 104.942 109.152C104.333 109.254 103.842 109.305 103.469 109.305C102.849 109.305 102.25 109.186 101.675 108.949C101.099 108.712 100.665 108.086 100.371 107.07L99.948 105.699C99.7674 105.71 99.5924 105.721 99.4231 105.732C99.2538 105.732 99.0732 105.732 98.8814 105.732H94.2933ZM94.9705 100.383L94.5981 101.551C94.7674 101.539 94.9367 101.534 95.106 101.534C95.2753 101.523 95.4502 101.517 95.6308 101.517H97.7471C97.9164 101.517 98.0687 101.523 98.2042 101.534C98.3509 101.534 98.4976 101.539 98.6444 101.551L98.2888 100.4C98.0292 99.5079 97.7696 98.5146 97.51 97.4198C97.2504 96.325 97.0134 95.3318 96.799 94.4401H96.5958C96.3588 95.2979 96.0936 96.2799 95.8001 97.386C95.5179 98.4921 95.2414 99.4909 94.9705 100.383ZM124.232 96.0146C124.232 96.8837 124.035 97.6569 123.64 98.3341C123.245 99.0113 122.748 99.5699 122.15 100.01C121.563 100.45 120.976 100.732 120.389 100.857C120.999 101.06 121.501 101.37 121.896 101.788C122.302 102.205 122.652 102.742 122.946 103.396L123.826 105.411C124.029 105.874 124.261 106.302 124.52 106.698C124.78 107.081 125.068 107.409 125.384 107.679C125.056 108.086 124.565 108.464 123.911 108.814C123.256 109.152 122.545 109.322 121.777 109.322C121.021 109.322 120.406 109.141 119.932 108.78C119.469 108.407 119.063 107.815 118.713 107.002L117.223 103.582C116.986 103.029 116.693 102.696 116.343 102.584C115.993 102.471 115.542 102.414 114.988 102.414H114.328V109C113.877 109.079 113.408 109.13 112.923 109.152C112.449 109.186 112.043 109.203 111.704 109.203C111.388 109.203 110.97 109.186 110.451 109.152C109.932 109.13 109.458 109.079 109.029 109V90.5124L109.215 90.3092C110.581 90.2753 111.862 90.2471 113.058 90.2245C114.266 90.1907 115.468 90.1738 116.665 90.1738C118.019 90.1738 119.272 90.3543 120.423 90.7155C121.574 91.0654 122.494 91.6693 123.183 92.527C123.882 93.3735 124.232 94.5361 124.232 96.0146ZM114.328 94V98.3848C114.723 98.3736 115.084 98.3679 115.412 98.3679C115.75 98.3566 115.999 98.351 116.157 98.351C117.172 98.351 117.861 98.1309 118.222 97.6907C118.583 97.2505 118.764 96.737 118.764 96.1501C118.764 95.5745 118.583 95.0778 118.222 94.6602C117.861 94.2426 117.257 94.0338 116.411 94.0338C116.004 94.0338 115.654 94.0282 115.361 94.0169C115.067 94.0056 114.723 94 114.328 94ZM128.375 90.3431C128.804 90.2528 129.289 90.1963 129.831 90.1738C130.372 90.1512 130.801 90.1399 131.117 90.1399C131.456 90.1399 131.862 90.1512 132.336 90.1738C132.822 90.1963 133.29 90.2528 133.741 90.3431V109C133.29 109.079 132.822 109.13 132.336 109.152C131.862 109.186 131.456 109.203 131.117 109.203C130.801 109.203 130.372 109.186 129.831 109.152C129.289 109.13 128.804 109.079 128.375 109V90.3431ZM137.285 99.7054C137.285 96.6806 138.064 94.2821 139.622 92.5101C141.191 90.7268 143.476 89.8352 146.478 89.8352C149.526 89.8352 151.823 90.7212 153.369 92.4932C154.927 94.2539 155.705 96.658 155.705 99.7054C155.705 102.753 154.927 105.151 153.369 106.901C151.811 108.639 149.515 109.508 146.478 109.508C143.431 109.508 141.134 108.628 139.588 106.867C138.053 105.106 137.285 102.719 137.285 99.7054ZM142.754 99.7054C142.754 100.349 142.793 101.015 142.872 101.703C142.963 102.38 143.132 103.012 143.38 103.599C143.64 104.186 144.018 104.666 144.515 105.038C145.011 105.4 145.671 105.58 146.495 105.58C147.319 105.58 147.98 105.4 148.476 105.038C148.973 104.666 149.345 104.186 149.594 103.599C149.853 103.012 150.022 102.38 150.101 101.703C150.192 101.015 150.237 100.349 150.237 99.7054C150.237 99.0508 150.192 98.3792 150.101 97.6907C150.022 96.9909 149.853 96.3476 149.594 95.7607C149.345 95.1625 148.973 94.6828 148.476 94.3216C147.98 93.9492 147.319 93.7629 146.495 93.7629C145.671 93.7629 145.011 93.9492 144.515 94.3216C144.018 94.6828 143.64 95.1625 143.38 95.7607C143.132 96.3476 142.963 96.9909 142.872 97.6907C142.793 98.3792 142.754 99.0508 142.754 99.7054Z" fill="white" fill-opacity="0.87"/>
<path d="M283.313 112.09C285.203 119 329.702 119 331.313 112.09C332.924 105.18 327.583 66.9603 307.313 68.4535C287.917 69.8823 281.424 105.18 283.313 112.09Z" fill="#C4C4C4"/>
<path d="M298.586 53.1808C302.676 58.6339 311.951 58.6339 316.04 53.1808C319.108 49.0909 319.108 44.1797 316.04 40.0899C311.951 34.6367 302.676 34.6367 298.586 40.0899C295.519 44.1797 295.519 49.0909 298.586 53.1808Z" fill="#C4C4C4"/>
<path d="M336.5 50.75V56.25H331C330.37 58.6145 330.381 59.9279 331 62.25H336.5V67.75C338.891 68.4317 340.222 68.4188 342.5 67.75V62.25H348C348.778 59.9391 348.578 58.6355 348 56.25H342.5V50.75C340.144 50.0954 338.812 50.1093 336.5 50.75Z" fill="#C4C4C4"/>
<path d="M283.313 112.09C285.203 119 329.702 119 331.313 112.09C332.924 105.18 327.583 66.9603 307.313 68.4535C287.917 69.8823 281.424 105.18 283.313 112.09Z" stroke="#546886" stroke-width="4"/>
<path d="M298.586 53.1808C302.676 58.6339 311.951 58.6339 316.04 53.1808C319.108 49.0909 319.108 44.1797 316.04 40.0899C311.951 34.6367 302.676 34.6367 298.586 40.0899C295.519 44.1797 295.519 49.0909 298.586 53.1808Z" stroke="#546886" stroke-width="4"/>
<path d="M336.5 50.75V56.25H331C330.37 58.6145 330.381 59.9279 331 62.25H336.5V67.75C338.891 68.4317 340.222 68.4188 342.5 67.75V62.25H348C348.778 59.9391 348.578 58.6355 348 56.25H342.5V50.75C340.144 50.0954 338.812 50.1093 336.5 50.75Z" stroke="#546886" stroke-width="4"/>
</svg>
