<svg width="392" height="155" viewBox="0 0 392 155" fill="none" xmlns="http://www.w3.org/2000/svg">
<rect width="392" height="155" rx="20" fill="black" fill-opacity="0.25"/>
<path d="M45.2168 63.5643C45.2168 65.0542 44.9797 66.1828 44.5057 66.9503C44.0429 67.7178 43.0949 68.1016 41.6614 68.1016H32.6546C31.684 68.1016 30.9221 67.8194 30.3691 67.2551C29.816 66.6907 29.5395 65.9176 29.5395 64.9357V45.1105L29.7765 44.8735H44.3703C44.4493 45.2798 44.5001 45.6636 44.5226 46.0248C44.5452 46.3747 44.5565 46.702 44.5565 47.0067C44.5565 47.3115 44.517 47.6896 44.438 48.141C44.3703 48.5812 44.263 49.0045 44.1163 49.4108H37.1919C36.9436 49.4108 36.605 49.4108 36.1761 49.4108C35.7585 49.3995 35.324 49.3882 34.8725 49.3769C34.8725 49.8397 34.8781 50.2573 34.8894 50.6297C34.9007 50.9909 34.9063 51.3972 34.9063 51.8487V54.202C35.3578 54.1907 35.7924 54.1851 36.21 54.1851C36.6276 54.1738 36.9549 54.1681 37.1919 54.1681H42.3556C42.4684 54.4954 42.5474 54.8736 42.5926 55.3024C42.649 55.7313 42.6772 56.0925 42.6772 56.386C42.6772 56.6907 42.649 57.0462 42.5926 57.4526C42.5474 57.8589 42.4684 58.237 42.3556 58.5869H37.1919C36.9549 58.5869 36.6276 58.5869 36.21 58.5869C35.7924 58.5756 35.3578 58.5643 34.9063 58.553V61.1603C34.9063 61.6004 34.9007 62.0068 34.8894 62.3792C34.8781 62.7404 34.8725 63.1467 34.8725 63.5982V63.632C35.2562 63.6095 35.6513 63.5925 36.0576 63.5813C36.4639 63.57 36.9041 63.5643 37.3781 63.5643H45.2168ZM62.0196 63.6659C61.9519 65.3138 61.6641 66.465 61.1562 67.1196C60.6483 67.7743 59.7453 68.1016 58.4473 68.1016H51.8785C50.9078 68.1016 50.146 67.8307 49.5929 67.2889C49.0512 66.7359 48.7803 65.9966 48.7803 65.0711V49.3769L48.9834 49.1738H51.015C52.0421 49.1738 52.8209 49.4334 53.3514 49.9525C53.8819 50.4604 54.1471 51.3126 54.1471 52.509V63.8352C55.3096 63.7223 56.3537 63.6659 57.2792 63.6659H62.0196ZM65.2506 49.3431C65.6795 49.2528 66.1648 49.1963 66.7066 49.1738C67.2483 49.1512 67.6772 49.1399 67.9933 49.1399C68.3319 49.1399 68.7382 49.1512 69.2122 49.1738C69.6976 49.1963 70.1659 49.2528 70.6174 49.3431V68C70.1659 68.079 69.6976 68.1298 69.2122 68.1524C68.7382 68.1862 68.3319 68.2032 67.9933 68.2032C67.6772 68.2032 67.2483 68.1862 66.7066 68.1524C66.1648 68.1298 65.6795 68.079 65.2506 68V49.3431ZM76.7178 49.3431C77.2596 49.2415 77.8521 49.1738 78.4955 49.1399C79.1388 49.0948 79.6806 49.0722 80.1207 49.0722C80.5384 49.0722 81.0801 49.0948 81.746 49.1399C82.4119 49.1738 82.9706 49.2415 83.4221 49.3431L85.0813 56.6907C85.1828 57.1309 85.3013 57.7291 85.4368 58.4853C85.5722 59.2302 85.7077 60.0316 85.8431 60.8894H86.0632C86.3341 59.0835 86.588 57.6839 86.8251 56.6907L88.4673 49.3431C88.9977 49.2415 89.579 49.1738 90.2111 49.1399C90.8431 49.0948 91.368 49.0722 91.7856 49.0722C92.2257 49.0722 92.7732 49.0948 93.4278 49.1399C94.0824 49.1738 94.6693 49.2415 95.1885 49.3431L97.1016 67.9323C96.368 68.1129 95.482 68.2032 94.4436 68.2032C94.0486 68.2032 93.6253 68.1862 93.1738 68.1524C92.7336 68.1185 92.3386 68.0677 91.9887 68L91.4978 62.0068C91.4413 61.2393 91.4075 60.3984 91.3962 59.4842C91.3849 58.5699 91.3849 57.6783 91.3962 56.8092C91.4075 55.9289 91.4075 55.167 91.3962 54.5237H91.193L88.7043 65.1388C88.3205 65.2065 87.8521 65.2573 87.2991 65.2912C86.746 65.3138 86.2889 65.325 85.9278 65.325C85.5553 65.325 85.0925 65.3138 84.5395 65.2912C83.9977 65.2573 83.5463 65.2065 83.1851 65.1388L80.7133 54.5237H80.4763C80.4763 55.1783 80.4763 55.9401 80.4763 56.8092C80.4876 57.6783 80.4876 58.5699 80.4763 59.4842C80.465 60.3984 80.4255 61.2505 80.3578 62.0406L79.9176 68C79.5564 68.0677 79.1614 68.1185 78.7325 68.1524C78.3149 68.1862 77.9085 68.2032 77.5135 68.2032C76.4638 68.2032 75.5609 68.1129 74.8047 67.9323L76.7178 49.3431ZM101.326 49.3431C101.755 49.2528 102.24 49.1963 102.782 49.1738C103.324 49.1512 103.753 49.1399 104.069 49.1399C104.407 49.1399 104.814 49.1512 105.288 49.1738C105.773 49.1963 106.242 49.2528 106.693 49.3431V68C106.242 68.079 105.773 68.1298 105.288 68.1524C104.814 68.1862 104.407 68.2032 104.069 68.2032C103.753 68.2032 103.324 68.1862 102.782 68.1524C102.24 68.1298 101.755 68.079 101.326 68V49.3431ZM118.177 59.4842C118.098 59.3036 117.974 59.0214 117.805 58.6377C117.635 58.2426 117.455 57.8194 117.263 57.3679C117.071 56.9164 116.89 56.4932 116.721 56.0982C116.563 55.7031 116.439 55.4153 116.349 55.2347L116.23 55.2855C116.275 56.1772 116.32 57.1422 116.366 58.1806C116.411 59.2076 116.445 60.1501 116.467 61.0079C116.501 61.8544 116.518 62.4695 116.518 62.8533V68C116.078 68.079 115.655 68.1298 115.248 68.1524C114.842 68.1862 114.464 68.2032 114.114 68.2032C113.798 68.2032 113.403 68.1862 112.929 68.1524C112.466 68.1298 112.026 68.079 111.608 68V49.4616C112.026 49.36 112.545 49.281 113.166 49.2245C113.787 49.1681 114.266 49.1399 114.605 49.1399C114.955 49.1399 115.451 49.1512 116.095 49.1738C116.738 49.185 117.269 49.2415 117.686 49.3431L121.665 57.825C121.744 57.983 121.874 58.2709 122.054 58.6885C122.246 59.1061 122.449 59.5632 122.664 60.0598C122.878 60.5564 123.076 61.0248 123.256 61.465C123.448 61.8939 123.589 62.2099 123.679 62.4131L123.832 62.3792C123.787 61.6343 123.725 60.7652 123.646 59.772C123.578 58.7788 123.516 57.8194 123.459 56.8939C123.403 55.9684 123.375 55.2291 123.375 54.676V52.0349C123.375 50.8386 123.634 50.0541 124.153 49.6817C124.673 49.2979 125.446 49.106 126.473 49.106H128.217L128.42 49.3431V67.8984C127.98 68 127.449 68.0734 126.828 68.1185C126.208 68.1749 125.734 68.2032 125.406 68.2032C125.181 68.2032 124.87 68.1975 124.475 68.1862C124.08 68.1749 123.674 68.158 123.256 68.1354C122.85 68.1129 122.511 68.0677 122.24 68L118.177 59.4842ZM138.04 64.7325C137.86 64.7325 137.685 64.7325 137.516 64.7325C137.346 64.7212 137.177 64.7099 137.008 64.6986L135.958 68C135.631 68.079 135.275 68.1354 134.891 68.1693C134.508 68.2144 134.107 68.237 133.689 68.237C133.238 68.237 132.781 68.2032 132.318 68.1354C131.867 68.0677 131.494 67.9718 131.201 67.8476L131.014 67.5598L137.6 49.3431C138.187 49.2528 138.751 49.1963 139.293 49.1738C139.846 49.1512 140.348 49.1399 140.8 49.1399C141.218 49.1399 141.669 49.1512 142.154 49.1738C142.64 49.1963 143.187 49.2528 143.797 49.3431L150.196 67.746C149.801 67.9266 149.299 68.0621 148.689 68.1524C148.08 68.254 147.589 68.3047 147.216 68.3047C146.596 68.3047 145.997 68.1862 145.422 67.9492C144.846 67.7122 144.412 67.0858 144.118 66.07L143.695 64.6986C143.514 64.7099 143.339 64.7212 143.17 64.7325C143.001 64.7325 142.82 64.7325 142.628 64.7325H138.04ZM138.718 59.3826L138.345 60.5508C138.514 60.5395 138.684 60.5338 138.853 60.5338C139.022 60.5226 139.197 60.5169 139.378 60.5169H141.494C141.663 60.5169 141.816 60.5226 141.951 60.5338C142.098 60.5338 142.245 60.5395 142.391 60.5508L142.036 59.3995C141.776 58.5079 141.517 57.5146 141.257 56.4198C140.997 55.325 140.76 54.3318 140.546 53.4401H140.343C140.106 54.2979 139.841 55.2799 139.547 56.386C139.265 57.4921 138.988 58.4909 138.718 59.3826ZM167.979 55.0146C167.979 55.8837 167.782 56.6569 167.387 57.3341C166.992 58.0113 166.495 58.5699 165.897 59.0101C165.31 59.4503 164.723 59.7325 164.136 59.8566C164.746 60.0598 165.248 60.3702 165.643 60.7878C166.049 61.2054 166.399 61.7415 166.693 62.3961L167.573 64.4108C167.776 64.8736 168.008 65.3025 168.267 65.6975C168.527 66.0813 168.815 66.4086 169.131 66.6795C168.803 67.0858 168.312 67.4639 167.658 67.8138C167.003 68.1524 166.292 68.3217 165.524 68.3217C164.768 68.3217 164.153 68.1411 163.679 67.7799C163.216 67.4074 162.81 66.8149 162.46 66.0023L160.97 62.5824C160.733 62.0293 160.44 61.6964 160.09 61.5835C159.74 61.4706 159.289 61.4142 158.736 61.4142H158.075V68C157.624 68.079 157.155 68.1298 156.67 68.1524C156.196 68.1862 155.79 68.2032 155.451 68.2032C155.135 68.2032 154.717 68.1862 154.198 68.1524C153.679 68.1298 153.205 68.079 152.776 68V49.5124L152.962 49.3092C154.328 49.2753 155.609 49.2471 156.805 49.2245C158.013 49.1907 159.215 49.1738 160.412 49.1738C161.766 49.1738 163.019 49.3543 164.17 49.7155C165.321 50.0654 166.241 50.6693 166.93 51.527C167.629 52.3735 167.979 53.5361 167.979 55.0146ZM158.075 53V57.3848C158.47 57.3736 158.831 57.3679 159.159 57.3679C159.497 57.3566 159.746 57.351 159.904 57.351C160.92 57.351 161.608 57.1309 161.969 56.6907C162.33 56.2505 162.511 55.737 162.511 55.1501C162.511 54.5745 162.33 54.0778 161.969 53.6602C161.608 53.2426 161.004 53.0338 160.158 53.0338C159.751 53.0338 159.401 53.0282 159.108 53.0169C158.815 53.0056 158.47 53 158.075 53ZM47.5531 101.467C47.5531 104.334 46.7574 106.558 45.166 108.138C43.5858 109.718 41.3285 110.508 38.3939 110.508C35.4707 110.508 33.2133 109.718 31.6219 108.138C30.0305 106.558 29.2348 104.334 29.2348 101.467V86.8735L29.4718 86.6534H31.4526C32.491 86.6534 33.2867 86.9243 33.8397 87.4661C34.3928 87.9966 34.6693 88.8656 34.6693 90.0733V101.518C34.6693 103.064 34.9515 104.232 35.5158 105.023C36.0802 105.801 37.0395 106.191 38.3939 106.191C39.7596 106.191 40.7246 105.801 41.289 105.023C41.8533 104.232 42.1355 103.064 42.1355 101.518V86.8735C42.5757 86.7945 43.0328 86.7437 43.5068 86.7212C43.9921 86.6873 44.4154 86.6704 44.7766 86.6704C45.1039 86.6704 45.5384 86.6873 46.0802 86.7212C46.6332 86.7437 47.1242 86.7945 47.5531 86.8735V101.467ZM50.4093 108.595C50.4093 108.166 50.4939 107.692 50.6632 107.173C50.8325 106.642 51.0639 106.151 51.3573 105.7C51.6508 105.248 51.9725 104.91 52.3224 104.684C53.1576 105.135 54.0887 105.525 55.1158 105.852C56.1429 106.168 57.1474 106.326 58.1294 106.326C58.7614 106.326 59.2806 106.196 59.6869 105.937C60.1045 105.677 60.3134 105.31 60.3134 104.836C60.3134 104.532 60.1948 104.255 59.9578 104.007C59.7208 103.747 59.3088 103.51 58.7219 103.296L55.9115 102.195C55.0425 101.879 54.2298 101.484 53.4736 101.01C52.7174 100.536 52.1079 99.9548 51.6452 99.2663C51.1824 98.5778 50.951 97.7539 50.951 96.7945C50.951 95.0338 51.6282 93.6004 52.9826 92.4943C54.337 91.3882 56.1598 90.8352 58.451 90.8352C59.749 90.8352 61.0357 90.9875 62.3111 91.2923C63.5978 91.5857 64.6757 91.9243 65.5447 92.3081C65.5447 93.0756 65.3867 93.8318 65.0707 94.5767C64.7547 95.3216 64.3201 95.9085 63.7671 96.3374C62.9319 95.965 62.0233 95.6546 61.0413 95.4063C60.0594 95.1467 59.1734 95.0169 58.3833 95.0169C57.7964 95.0169 57.3449 95.141 57.0289 95.3893C56.7242 95.6377 56.5718 95.9368 56.5718 96.2866C56.5718 96.614 56.7242 96.8623 57.0289 97.0316C57.3337 97.2009 57.7118 97.3702 58.1632 97.5395L60.9567 98.6061C62.5143 99.1704 63.7502 99.9492 64.6644 100.942C65.5899 101.924 66.0526 103.138 66.0526 104.582C66.0526 105.858 65.7084 106.936 65.0199 107.816C64.3427 108.696 63.4116 109.362 62.2265 109.814C61.0526 110.265 59.7264 110.497 58.2479 110.508C56.4872 110.508 54.9183 110.305 53.5413 109.898C52.1756 109.492 51.1316 109.058 50.4093 108.595ZM85.5683 103.008C85.5683 105.344 84.8685 107.178 83.4689 108.51C82.0807 109.842 80.0208 110.508 77.2894 110.508C74.5581 110.508 72.4926 109.842 71.093 108.51C69.7048 107.178 69.0106 105.344 69.0106 103.008V91.3431L69.2138 91.1399H71.1438C72.1709 91.1399 72.961 91.3995 73.514 91.9187C74.0784 92.4379 74.3605 93.3126 74.3605 94.5428V102.991C74.3605 104.018 74.575 104.825 75.0039 105.412C75.4328 105.999 76.1946 106.292 77.2894 106.292C78.3955 106.292 79.1574 105.999 79.575 105.412C79.9926 104.825 80.2014 104.018 80.2014 102.991V91.3431C80.6529 91.2528 81.1156 91.1963 81.5897 91.1738C82.0637 91.1512 82.4757 91.1399 82.8256 91.1399C83.1416 91.1399 83.5705 91.1568 84.1123 91.1907C84.654 91.2133 85.1394 91.2697 85.5683 91.36V103.008ZM94.2933 106.732C94.1127 106.732 93.9378 106.732 93.7685 106.732C93.5992 106.721 93.4299 106.71 93.2606 106.699L92.2109 110C91.8836 110.079 91.5281 110.135 91.1443 110.169C90.7606 110.214 90.3599 110.237 89.9423 110.237C89.4908 110.237 89.0337 110.203 88.571 110.135C88.1195 110.068 87.747 109.972 87.4536 109.848L87.2673 109.56L93.8531 91.3431C94.4401 91.2528 95.0044 91.1963 95.5462 91.1738C96.0992 91.1512 96.6015 91.1399 97.0529 91.1399C97.4705 91.1399 97.922 91.1512 98.4073 91.1738C98.8927 91.1963 99.4401 91.2528 100.05 91.3431L106.449 109.746C106.054 109.927 105.552 110.062 104.942 110.152C104.333 110.254 103.842 110.305 103.469 110.305C102.849 110.305 102.25 110.186 101.675 109.949C101.099 109.712 100.665 109.086 100.371 108.07L99.948 106.699C99.7674 106.71 99.5924 106.721 99.4231 106.732C99.2538 106.732 99.0732 106.732 98.8814 106.732H94.2933ZM94.9705 101.383L94.5981 102.551C94.7674 102.539 94.9367 102.534 95.106 102.534C95.2753 102.523 95.4502 102.517 95.6308 102.517H97.7471C97.9164 102.517 98.0687 102.523 98.2042 102.534C98.3509 102.534 98.4976 102.539 98.6444 102.551L98.2888 101.4C98.0292 100.508 97.7696 99.5146 97.51 98.4198C97.2504 97.325 97.0134 96.3318 96.799 95.4401H96.5958C96.3588 96.2979 96.0936 97.2799 95.8001 98.386C95.5179 99.4921 95.2414 100.491 94.9705 101.383ZM124.232 97.0146C124.232 97.8837 124.035 98.6569 123.64 99.3341C123.245 100.011 122.748 100.57 122.15 101.01C121.563 101.45 120.976 101.732 120.389 101.857C120.999 102.06 121.501 102.37 121.896 102.788C122.302 103.205 122.652 103.742 122.946 104.396L123.826 106.411C124.029 106.874 124.261 107.302 124.52 107.698C124.78 108.081 125.068 108.409 125.384 108.679C125.056 109.086 124.565 109.464 123.911 109.814C123.256 110.152 122.545 110.322 121.777 110.322C121.021 110.322 120.406 110.141 119.932 109.78C119.469 109.407 119.063 108.815 118.713 108.002L117.223 104.582C116.986 104.029 116.693 103.696 116.343 103.584C115.993 103.471 115.542 103.414 114.988 103.414H114.328V110C113.877 110.079 113.408 110.13 112.923 110.152C112.449 110.186 112.043 110.203 111.704 110.203C111.388 110.203 110.97 110.186 110.451 110.152C109.932 110.13 109.458 110.079 109.029 110V91.5124L109.215 91.3092C110.581 91.2753 111.862 91.2471 113.058 91.2245C114.266 91.1907 115.468 91.1738 116.665 91.1738C118.019 91.1738 119.272 91.3543 120.423 91.7155C121.574 92.0654 122.494 92.6693 123.183 93.527C123.882 94.3735 124.232 95.5361 124.232 97.0146ZM114.328 95V99.3848C114.723 99.3736 115.084 99.3679 115.412 99.3679C115.75 99.3566 115.999 99.351 116.157 99.351C117.172 99.351 117.861 99.1309 118.222 98.6907C118.583 98.2505 118.764 97.737 118.764 97.1501C118.764 96.5745 118.583 96.0778 118.222 95.6602C117.861 95.2426 117.257 95.0338 116.411 95.0338C116.004 95.0338 115.654 95.0282 115.361 95.0169C115.067 95.0056 114.723 95 114.328 95ZM128.375 91.3431C128.804 91.2528 129.289 91.1963 129.831 91.1738C130.372 91.1512 130.801 91.1399 131.117 91.1399C131.456 91.1399 131.862 91.1512 132.336 91.1738C132.822 91.1963 133.29 91.2528 133.741 91.3431V110C133.29 110.079 132.822 110.13 132.336 110.152C131.862 110.186 131.456 110.203 131.117 110.203C130.801 110.203 130.372 110.186 129.831 110.152C129.289 110.13 128.804 110.079 128.375 110V91.3431ZM137.285 100.705C137.285 97.6806 138.064 95.2821 139.622 93.5101C141.191 91.7268 143.476 90.8352 146.478 90.8352C149.526 90.8352 151.823 91.7212 153.369 93.4932C154.927 95.2539 155.705 97.658 155.705 100.705C155.705 103.753 154.927 106.151 153.369 107.901C151.811 109.639 149.515 110.508 146.478 110.508C143.431 110.508 141.134 109.628 139.588 107.867C138.053 106.106 137.285 103.719 137.285 100.705ZM142.754 100.705C142.754 101.349 142.793 102.015 142.872 102.703C142.963 103.38 143.132 104.012 143.38 104.599C143.64 105.186 144.018 105.666 144.515 106.038C145.011 106.4 145.671 106.58 146.495 106.58C147.319 106.58 147.98 106.4 148.476 106.038C148.973 105.666 149.345 105.186 149.594 104.599C149.853 104.012 150.022 103.38 150.101 102.703C150.192 102.015 150.237 101.349 150.237 100.705C150.237 100.051 150.192 99.3792 150.101 98.6907C150.022 97.9909 149.853 97.3476 149.594 96.7607C149.345 96.1625 148.973 95.6828 148.476 95.3216C147.98 94.9492 147.319 94.7629 146.495 94.7629C145.671 94.7629 145.011 94.9492 144.515 95.3216C144.018 95.6828 143.64 96.1625 143.38 96.7607C143.132 97.3476 142.963 97.9909 142.872 98.6907C142.793 99.3792 142.754 100.051 142.754 100.705Z" fill="white" fill-opacity="0.87"/>
<path d="M284.313 112.09C286.202 119 330.702 119 332.313 112.09C333.924 105.18 328.583 66.9603 308.313 68.4535C288.917 69.8823 282.424 105.18 284.313 112.09Z" fill="#C4C4C4"/>
<path d="M299.586 53.1808C303.676 58.6339 312.95 58.6339 317.04 53.1808C320.108 49.0909 320.108 44.1797 317.04 40.0899C312.95 34.6367 303.676 34.6367 299.586 40.0899C296.518 44.1797 296.518 49.0909 299.586 53.1808Z" fill="#C4C4C4"/>
<path d="M284.313 112.09C286.202 119 330.702 119 332.313 112.09C333.924 105.18 328.583 66.9603 308.313 68.4535C288.917 69.8823 282.424 105.18 284.313 112.09Z" stroke="#546886" stroke-width="4"/>
<path d="M299.586 53.1808C303.676 58.6339 312.95 58.6339 317.04 53.1808C320.108 49.0909 320.108 44.1797 317.04 40.0899C312.95 34.6367 303.676 34.6367 299.586 40.0899C296.518 44.1797 296.518 49.0909 299.586 53.1808Z" stroke="#546886" stroke-width="4"/>
</svg>
