<svg width="392" height="155" viewBox="0 0 392 155" fill="none" xmlns="http://www.w3.org/2000/svg">
<rect width="392" height="155" rx="20" fill="black" fill-opacity="0.25"/>
<path d="M299.586 51.6808C303.676 57.1339 312.95 57.1339 317.04 51.6808C320.108 47.5909 320.108 42.6797 317.04 38.5899C312.95 33.1367 303.676 33.1367 299.586 38.5899C296.518 42.6797 296.518 47.5909 299.586 51.6808Z" fill="#C4C4C4"/>
<path d="M278 118L282 121.5L288.725 113.571L322.3 73.9882L334.79 59L344 56.5L350.5 50.5L351 45.5L348.5 43L345.5 43.5L343.79 48.5L338.5 51.5L335.29 52V48.5L337.29 43L340 41L339 38.5899L336.5 37.5L333 38.5899L329.5 42.5L328.79 54.5L317.04 69.3906L284.23 110.243L278 118Z" fill="#C4C4C4"/>
<path d="M317.04 69.3906C314.572 67.9562 311.48 66.7202 308.313 66.9535C289.222 68.3598 282.631 102.577 284.23 110.243L317.04 69.3906Z" fill="#C4C4C4"/>
<path d="M332.313 110.59C333.473 105.616 331.32 84.9184 322.3 73.9882L288.725 113.571C300.401 117.29 330.983 116.297 332.313 110.59Z" fill="#C4C4C4"/>
<path d="M284.313 110.59C284.283 110.481 284.256 110.365 284.23 110.243M317.04 69.3906L328.79 54.5L329.5 42.5L333 38.5899L336.5 37.5L339 38.5899L340 41L337.29 43L335.29 48.5V52L338.5 51.5L343.79 48.5L345.5 43.5L348.5 43L351 45.5L350.5 50.5L344 56.5L334.79 59L322.3 73.9882M317.04 69.3906C314.572 67.9562 311.48 66.7202 308.313 66.9535C289.222 68.3598 282.631 102.577 284.23 110.243M317.04 69.3906L284.23 110.243M322.3 73.9882C331.32 84.9184 333.473 105.616 332.313 110.59C330.983 116.297 300.401 117.29 288.725 113.571M322.3 73.9882L288.725 113.571M288.725 113.571L282 121.5L278 118L284.23 110.243M299.586 51.6808C303.676 57.1339 312.95 57.1339 317.04 51.6808C320.108 47.5909 320.108 42.6797 317.04 38.5899C312.95 33.1367 303.676 33.1367 299.586 38.5899C296.518 42.6797 296.518 47.5909 299.586 51.6808Z" stroke="#546886" stroke-width="4"/>
<path d="M30.64 44.9074C31.2156 44.8058 31.842 44.7381 32.5192 44.7042C33.2077 44.6704 33.8002 44.6534 34.2969 44.6534C34.7935 44.6534 35.3465 44.6704 35.956 44.7042C36.5655 44.7381 37.158 44.8058 37.7337 44.9074L39.7314 53.1862C39.7766 53.3893 39.8499 53.7392 39.9515 54.2359C40.0644 54.7325 40.1885 55.2968 40.324 55.9289C40.4594 56.5609 40.5836 57.1817 40.6964 57.7912C40.8206 58.4006 40.9165 58.9198 40.9842 59.3487H41.2213C41.289 58.9198 41.3849 58.4006 41.5091 57.7912C41.6332 57.1817 41.7574 56.5609 41.8815 55.9289C42.017 55.2968 42.1411 54.7325 42.254 54.2359C42.3669 53.7392 42.4459 53.3893 42.491 53.1862L44.4888 44.9074C45.0644 44.8058 45.6513 44.7381 46.2495 44.7042C46.859 44.6704 47.412 44.6534 47.9086 44.6534C48.4053 44.6534 48.9978 44.6704 49.6863 44.7042C50.3748 44.7381 51.0012 44.8058 51.5655 44.9074L53.3601 67.9323C52.9764 68.0339 52.5305 68.1016 52.0226 68.1354C51.526 68.1806 51.0576 68.2032 50.6175 68.2032C50.2111 68.2032 49.8105 68.1919 49.4154 68.1693C49.0317 68.1467 48.6423 68.1016 48.2472 68.0339L47.7393 58.6038C47.6716 57.4074 47.6095 56.0869 47.5531 54.6422C47.4967 53.1975 47.4685 51.9221 47.4685 50.816H47.2314L43.8962 64.5971C43.4899 64.6648 43.0158 64.7156 42.4741 64.7494C41.9323 64.772 41.4696 64.7833 41.0858 64.7833C40.7472 64.7833 40.3014 64.772 39.7483 64.7494C39.1953 64.7156 38.7156 64.6648 38.3093 64.5971L34.9741 50.816H34.754C34.7427 51.9221 34.7088 53.1975 34.6524 54.6422C34.6072 56.0869 34.5508 57.4074 34.4831 58.6038L33.9583 68.0339C33.5745 68.1016 33.1851 68.1467 32.7901 68.1693C32.395 68.1919 31.9944 68.2032 31.588 68.2032C31.1592 68.2032 30.6908 68.1806 30.1829 68.1354C29.6862 68.1016 29.2404 68.0339 28.8454 67.9323L30.64 44.9074ZM56.2724 58.7054C56.2724 55.6806 57.0511 53.2821 58.6087 51.5101C60.1776 49.7268 62.4631 48.8352 65.4654 48.8352C68.5128 48.8352 70.8096 49.7212 72.3559 51.4932C73.9135 53.2539 74.6923 55.658 74.6923 58.7054C74.6923 61.7528 73.9135 64.1512 72.3559 65.9007C70.7984 67.6388 68.5015 68.5079 65.4654 68.5079C62.418 68.5079 60.1211 67.6275 58.5748 65.8668C57.0399 64.1061 56.2724 61.7189 56.2724 58.7054ZM61.7408 58.7054C61.7408 59.3487 61.7803 60.0146 61.8593 60.7031C61.9496 61.3803 62.1189 62.0124 62.3672 62.5993C62.6268 63.1862 63.0049 63.6659 63.5015 64.0384C63.9981 64.3995 64.6584 64.5801 65.4823 64.5801C66.3062 64.5801 66.9665 64.3995 67.4631 64.0384C67.9597 63.6659 68.3322 63.1862 68.5805 62.5993C68.8401 62.0124 69.0094 61.3803 69.0884 60.7031C69.1787 60.0146 69.2239 59.3487 69.2239 58.7054C69.2239 58.0508 69.1787 57.3792 69.0884 56.6907C69.0094 55.9909 68.8401 55.3476 68.5805 54.7607C68.3322 54.1625 67.9597 53.6828 67.4631 53.3216C66.9665 52.9492 66.3062 52.7629 65.4823 52.7629C64.6584 52.7629 63.9981 52.9492 63.5015 53.3216C63.0049 53.6828 62.6268 54.1625 62.3672 54.7607C62.1189 55.3476 61.9496 55.9909 61.8593 56.6907C61.7803 57.3792 61.7408 58.0508 61.7408 58.7054ZM95.1927 58.7054C95.1927 61.8657 94.4535 64.2302 92.9749 65.7991C91.4963 67.3567 89.1656 68.1354 85.9828 68.1354C84.6397 68.1354 83.3643 68.1242 82.1566 68.1016C80.9602 68.0903 79.6961 68.0677 78.3643 68.0339L78.178 67.8307V49.5124L78.3643 49.3092C79.7074 49.2753 80.9771 49.2471 82.1735 49.2245C83.3699 49.1907 84.6397 49.1738 85.9828 49.1738C89.1318 49.1738 91.4512 49.992 92.941 51.6286C94.4422 53.2539 95.1927 55.6128 95.1927 58.7054ZM89.7413 58.7054C89.7413 57.8815 89.6566 57.0575 89.4873 56.2336C89.318 55.3984 88.9625 54.6986 88.4207 54.1343C87.879 53.5699 87.0663 53.2878 85.9828 53.2878C85.4862 53.2878 85.0573 53.2878 84.6961 53.2878C84.3462 53.2765 83.9399 53.2652 83.4771 53.2539V64.0892C83.9625 64.0892 84.3744 64.0835 84.713 64.0722C85.0629 64.0609 85.4862 64.0553 85.9828 64.0553C87.0663 64.0553 87.879 63.7788 88.4207 63.2257C88.9625 62.6614 89.318 61.9673 89.4873 61.1433C89.6566 60.3194 89.7413 59.5067 89.7413 58.7054ZM98.7801 49.3431C99.209 49.2528 99.6943 49.1963 100.236 49.1738C100.778 49.1512 101.207 49.1399 101.523 49.1399C101.861 49.1399 102.268 49.1512 102.742 49.1738C103.227 49.1963 103.695 49.2528 104.147 49.3431V68C103.695 68.079 103.227 68.1298 102.742 68.1524C102.268 68.1862 101.861 68.2032 101.523 68.2032C101.207 68.2032 100.778 68.1862 100.236 68.1524C99.6943 68.1298 99.209 68.079 98.7801 68V49.3431ZM114.412 68C113.949 68.079 113.475 68.1298 112.99 68.1524C112.516 68.1862 112.098 68.2032 111.737 68.2032C111.376 68.2032 110.953 68.1862 110.467 68.1524C109.993 68.1298 109.525 68.079 109.062 68V49.4954L109.248 49.3431H122.369C122.448 49.6478 122.505 49.992 122.539 50.3758C122.584 50.7595 122.606 51.0699 122.606 51.3069C122.606 52.0744 122.403 52.6726 121.997 53.1015C121.59 53.5304 120.913 53.7449 119.965 53.7449H116.359C116.02 53.7449 115.687 53.7449 115.36 53.7449C115.044 53.7336 114.728 53.7279 114.412 53.7279C114.412 53.965 114.412 54.2076 114.412 54.4559C114.412 54.693 114.412 54.93 114.412 55.167V56.9277C114.548 56.9277 114.677 56.9277 114.801 56.9277H120.439C120.541 57.2212 120.608 57.5654 120.642 57.9605C120.687 58.3442 120.71 58.6715 120.71 58.9424C120.71 59.2472 120.687 59.6083 120.642 60.0259C120.608 60.4435 120.541 60.8047 120.439 61.1095H114.801C114.677 61.1095 114.548 61.1095 114.412 61.1095V68ZM125.663 49.3431C126.092 49.2528 126.577 49.1963 127.119 49.1738C127.661 49.1512 128.09 49.1399 128.406 49.1399C128.744 49.1399 129.151 49.1512 129.625 49.1738C130.11 49.1963 130.579 49.2528 131.03 49.3431V68C130.579 68.079 130.11 68.1298 129.625 68.1524C129.151 68.1862 128.744 68.2032 128.406 68.2032C128.09 68.2032 127.661 68.1862 127.119 68.1524C126.577 68.1298 126.092 68.079 125.663 68V49.3431ZM146.273 57.7912C146.273 56.3578 146.081 55.2065 145.697 54.3374C145.313 53.4571 144.54 53.0169 143.378 53.0169C142.17 53.0169 141.312 53.5135 140.804 54.5067C140.296 55.5 140.042 56.9277 140.042 58.79C140.042 60.2122 140.223 61.307 140.584 62.0745C140.957 62.8307 141.431 63.3555 142.006 63.649C142.582 63.9424 143.191 64.0892 143.835 64.0892C144.67 64.0892 145.505 63.9086 146.34 63.5474C147.187 63.1749 147.943 62.7404 148.609 62.2438C148.97 62.4244 149.32 62.7122 149.659 63.1072C149.997 63.5022 150.291 63.9255 150.539 64.377C150.787 64.8284 150.945 65.2404 151.013 65.6129C150.076 66.4142 148.936 67.0971 147.593 67.6614C146.261 68.2257 144.743 68.5079 143.039 68.5079C141.402 68.5079 140.037 68.2201 138.942 67.6445C137.858 67.0688 136.995 66.3126 136.352 65.3758C135.708 64.4278 135.251 63.3781 134.98 62.2268C134.709 61.0756 134.574 59.9187 134.574 58.7562C134.574 56.4424 134.992 54.5575 135.827 53.1015C136.673 51.6343 137.779 50.5564 139.145 49.8679C140.522 49.1794 141.995 48.8352 143.564 48.8352C145.325 48.8352 146.775 49.1455 147.915 49.7663C149.055 50.3871 149.901 51.1715 150.454 52.1196C151.007 53.0677 151.284 54.044 151.284 55.0485C151.284 56.9785 150.2 57.9435 148.033 57.9435C147.774 57.9435 147.492 57.9266 147.187 57.8927C146.882 57.8589 146.577 57.825 146.273 57.7912ZM159.467 64.7325C159.287 64.7325 159.112 64.7325 158.943 64.7325C158.773 64.7212 158.604 64.7099 158.435 64.6986L157.385 68C157.058 68.079 156.702 68.1354 156.318 68.1693C155.935 68.2144 155.534 68.237 155.116 68.237C154.665 68.237 154.208 68.2032 153.745 68.1354C153.294 68.0677 152.921 67.9718 152.628 67.8476L152.442 67.5598L159.027 49.3431C159.614 49.2528 160.179 49.1963 160.72 49.1738C161.273 49.1512 161.776 49.1399 162.227 49.1399C162.645 49.1399 163.096 49.1512 163.581 49.1738C164.067 49.1963 164.614 49.2528 165.224 49.3431L171.623 67.746C171.228 67.9266 170.726 68.0621 170.117 68.1524C169.507 68.254 169.016 68.3047 168.644 68.3047C168.023 68.3047 167.425 68.1862 166.849 67.9492C166.273 67.7122 165.839 67.0858 165.545 66.07L165.122 64.6986C164.942 64.7099 164.767 64.7212 164.597 64.7325C164.428 64.7325 164.247 64.7325 164.056 64.7325H159.467ZM160.145 59.3826L159.772 60.5508C159.942 60.5395 160.111 60.5338 160.28 60.5338C160.449 60.5226 160.624 60.5169 160.805 60.5169H162.921C163.091 60.5169 163.243 60.5226 163.378 60.5338C163.525 60.5338 163.672 60.5395 163.819 60.5508L163.463 59.3995C163.203 58.5079 162.944 57.5146 162.684 56.4198C162.425 55.325 162.188 54.3318 161.973 53.4401H161.77C161.533 54.2979 161.268 55.2799 160.974 56.386C160.692 57.4921 160.416 58.4909 160.145 59.3826ZM189.406 55.0146C189.406 55.8837 189.209 56.6569 188.814 57.3341C188.419 58.0113 187.922 58.5699 187.324 59.0101C186.737 59.4503 186.15 59.7325 185.563 59.8566C186.173 60.0598 186.675 60.3702 187.07 60.7878C187.476 61.2054 187.826 61.7415 188.12 62.3961L189 64.4108C189.203 64.8736 189.435 65.3025 189.694 65.6975C189.954 66.0813 190.242 66.4086 190.558 66.6795C190.23 67.0858 189.739 67.4639 189.085 67.8138C188.43 68.1524 187.719 68.3217 186.952 68.3217C186.195 68.3217 185.58 68.1411 185.106 67.7799C184.643 67.4074 184.237 66.8149 183.887 66.0023L182.397 62.5824C182.16 62.0293 181.867 61.6964 181.517 61.5835C181.167 61.4706 180.716 61.4142 180.163 61.4142H179.502V68C179.051 68.079 178.583 68.1298 178.097 68.1524C177.623 68.1862 177.217 68.2032 176.878 68.2032C176.562 68.2032 176.145 68.1862 175.625 68.1524C175.106 68.1298 174.632 68.079 174.203 68V49.5124L174.389 49.3092C175.755 49.2753 177.036 49.2471 178.233 49.2245C179.44 49.1907 180.642 49.1738 181.839 49.1738C183.193 49.1738 184.446 49.3543 185.597 49.7155C186.748 50.0654 187.668 50.6693 188.357 51.527C189.057 52.3735 189.406 53.5361 189.406 55.0146ZM179.502 53V57.3848C179.897 57.3736 180.259 57.3679 180.586 57.3679C180.925 57.3566 181.173 57.351 181.331 57.351C182.347 57.351 183.035 57.1309 183.396 56.6907C183.757 56.2505 183.938 55.737 183.938 55.1501C183.938 54.5745 183.757 54.0778 183.396 53.6602C183.035 53.2426 182.431 53.0338 181.585 53.0338C181.178 53.0338 180.829 53.0282 180.535 53.0169C180.242 53.0056 179.897 53 179.502 53ZM29.6411 86.8735C30.0813 86.7945 30.561 86.7437 31.0801 86.7212C31.5993 86.6873 32.0282 86.6704 32.3668 86.6704C32.728 86.6704 33.1569 86.6873 33.6535 86.7212C34.1501 86.7437 34.6242 86.7945 35.0756 86.8735V110C34.6242 110.079 34.1501 110.13 33.6535 110.152C33.1569 110.186 32.728 110.203 32.3668 110.203C32.0282 110.203 31.5993 110.186 31.0801 110.152C30.561 110.13 30.0813 110.079 29.6411 110V86.8735ZM46.7534 101.484C46.6744 101.304 46.5503 101.021 46.381 100.638C46.2117 100.243 46.0311 99.8194 45.8392 99.3679C45.6473 98.9164 45.4667 98.4932 45.2974 98.0982C45.1394 97.7031 45.0153 97.4153 44.925 97.2347L44.8065 97.2855C44.8516 98.1772 44.8968 99.1422 44.9419 100.181C44.9871 101.208 45.0209 102.15 45.0435 103.008C45.0773 103.854 45.0943 104.47 45.0943 104.853V110C44.6541 110.079 44.2308 110.13 43.8245 110.152C43.4182 110.186 43.0401 110.203 42.6902 110.203C42.3742 110.203 41.9791 110.186 41.5051 110.152C41.0423 110.13 40.6022 110.079 40.1846 110V91.4616C40.6022 91.36 41.1214 91.281 41.7421 91.2245C42.3629 91.1681 42.8426 91.1399 43.1812 91.1399C43.5311 91.1399 44.0277 91.1512 44.671 91.1738C45.3144 91.185 45.8448 91.2415 46.2625 91.3431L50.241 99.825C50.32 99.983 50.4498 100.271 50.6304 100.688C50.8223 101.106 51.0254 101.563 51.2399 102.06C51.4543 102.556 51.6519 103.025 51.8324 103.465C52.0243 103.894 52.1654 104.21 52.2557 104.413L52.4081 104.379C52.3629 103.634 52.3008 102.765 52.2218 101.772C52.1541 100.779 52.092 99.8194 52.0356 98.8939C51.9792 97.9684 51.951 97.2291 51.951 96.676V94.0349C51.951 92.8386 52.2106 92.0541 52.7297 91.6817C53.2489 91.2979 54.0221 91.106 55.0492 91.106H56.793L56.9961 91.3431V109.898C56.5559 110 56.0255 110.073 55.4047 110.119C54.7839 110.175 54.3099 110.203 53.9826 110.203C53.7568 110.203 53.4464 110.198 53.0514 110.186C52.6564 110.175 52.2501 110.158 51.8324 110.135C51.4261 110.113 51.0875 110.068 50.8166 110L46.7534 101.484ZM67.2261 110C66.7634 110.079 66.2893 110.13 65.804 110.152C65.3299 110.186 64.9123 110.203 64.5512 110.203C64.19 110.203 63.7667 110.186 63.2814 110.152C62.8074 110.13 62.339 110.079 61.8762 110V91.4954L62.0624 91.3431H75.1832C75.2623 91.6478 75.3187 91.992 75.3525 92.3758C75.3977 92.7595 75.4203 93.0699 75.4203 93.3069C75.4203 94.0744 75.2171 94.6726 74.8108 95.1015C74.4045 95.5304 73.7273 95.7449 72.7792 95.7449H69.1731C68.8345 95.7449 68.5015 95.7449 68.1742 95.7449C67.8582 95.7336 67.5421 95.7279 67.2261 95.7279C67.2261 95.965 67.2261 96.2076 67.2261 96.4559C67.2261 96.693 67.2261 96.93 67.2261 97.167V98.9277C67.3616 98.9277 67.4914 98.9277 67.6155 98.9277H73.2532C73.3548 99.2212 73.4225 99.5654 73.4564 99.9605C73.5015 100.344 73.5241 100.672 73.5241 100.942C73.5241 101.247 73.5015 101.608 73.4564 102.026C73.4225 102.444 73.3548 102.805 73.2532 103.109H67.6155C67.4914 103.109 67.3616 103.109 67.2261 103.109V110ZM76.7736 100.705C76.7736 97.6806 77.5524 95.2821 79.11 93.5101C80.6788 91.7268 82.9644 90.8352 85.9666 90.8352C89.0141 90.8352 91.3109 91.7212 92.8572 93.4932C94.4147 95.2539 95.1935 97.658 95.1935 100.705C95.1935 103.753 94.4147 106.151 92.8572 107.901C91.2996 109.639 89.0028 110.508 85.9666 110.508C82.9192 110.508 80.6224 109.628 79.0761 107.867C77.5411 106.106 76.7736 103.719 76.7736 100.705ZM82.242 100.705C82.242 101.349 82.2815 102.015 82.3605 102.703C82.4508 103.38 82.6201 104.012 82.8684 104.599C83.128 105.186 83.5061 105.666 84.0028 106.038C84.4994 106.4 85.1596 106.58 85.9836 106.58C86.8075 106.58 87.4678 106.4 87.9644 106.038C88.461 105.666 88.8335 105.186 89.0818 104.599C89.3414 104.012 89.5107 103.38 89.5897 102.703C89.68 102.015 89.7251 101.349 89.7251 100.705C89.7251 100.051 89.68 99.3792 89.5897 98.6907C89.5107 97.9909 89.3414 97.3476 89.0818 96.7607C88.8335 96.1625 88.461 95.6828 87.9644 95.3216C87.4678 94.9492 86.8075 94.7629 85.9836 94.7629C85.1596 94.7629 84.4994 94.9492 84.0028 95.3216C83.5061 95.6828 83.128 96.1625 82.8684 96.7607C82.6201 97.3476 82.4508 97.9909 82.3605 98.6907C82.2815 99.3792 82.242 100.051 82.242 100.705ZM113.882 97.0146C113.882 97.8837 113.685 98.6569 113.29 99.3341C112.895 100.011 112.398 100.57 111.8 101.01C111.213 101.45 110.626 101.732 110.039 101.857C110.649 102.06 111.151 102.37 111.546 102.788C111.952 103.205 112.302 103.742 112.596 104.396L113.476 106.411C113.679 106.874 113.911 107.302 114.17 107.698C114.43 108.081 114.718 108.409 115.034 108.679C114.706 109.086 114.215 109.464 113.561 109.814C112.906 110.152 112.195 110.322 111.428 110.322C110.671 110.322 110.056 110.141 109.582 109.78C109.119 109.407 108.713 108.815 108.363 108.002L106.873 104.582C106.636 104.029 106.343 103.696 105.993 103.584C105.643 103.471 105.192 103.414 104.639 103.414H103.978V110C103.527 110.079 103.059 110.13 102.573 110.152C102.099 110.186 101.693 110.203 101.354 110.203C101.038 110.203 100.621 110.186 100.101 110.152C99.5822 110.13 99.1082 110.079 98.6793 110V91.5124L98.8655 91.3092C100.231 91.2753 101.512 91.2471 102.709 91.2245C103.916 91.1907 105.118 91.1738 106.315 91.1738C107.669 91.1738 108.922 91.3543 110.073 91.7155C111.224 92.0654 112.144 92.6693 112.833 93.527C113.533 94.3735 113.882 95.5361 113.882 97.0146ZM103.978 95V99.3848C104.373 99.3736 104.735 99.3679 105.062 99.3679C105.401 99.3566 105.649 99.351 105.807 99.351C106.823 99.351 107.511 99.1309 107.872 98.6907C108.233 98.2505 108.414 97.737 108.414 97.1501C108.414 96.5745 108.233 96.0778 107.872 95.6602C107.511 95.2426 106.907 95.0338 106.061 95.0338C105.654 95.0338 105.305 95.0282 105.011 95.0169C104.718 95.0056 104.373 95 103.978 95ZM119.142 91.3431C119.684 91.2415 120.276 91.1738 120.92 91.1399C121.563 91.0948 122.105 91.0722 122.545 91.0722C122.963 91.0722 123.504 91.0948 124.17 91.1399C124.836 91.1738 125.395 91.2415 125.846 91.3431L127.506 98.6907C127.607 99.1309 127.726 99.7291 127.861 100.485C127.997 101.23 128.132 102.032 128.267 102.889H128.488C128.758 101.083 129.012 99.6839 129.249 98.6907L130.892 91.3431C131.422 91.2415 132.003 91.1738 132.635 91.1399C133.268 91.0948 133.792 91.0722 134.21 91.0722C134.65 91.0722 135.198 91.0948 135.852 91.1399C136.507 91.1738 137.094 91.2415 137.613 91.3431L139.526 109.932C138.792 110.113 137.906 110.203 136.868 110.203C136.473 110.203 136.05 110.186 135.598 110.152C135.158 110.119 134.763 110.068 134.413 110L133.922 104.007C133.866 103.239 133.832 102.398 133.821 101.484C133.809 100.57 133.809 99.6783 133.821 98.8092C133.832 97.9289 133.832 97.167 133.821 96.5237H133.617L131.129 107.139C130.745 107.207 130.277 107.257 129.723 107.291C129.17 107.314 128.713 107.325 128.352 107.325C127.98 107.325 127.517 107.314 126.964 107.291C126.422 107.257 125.971 107.207 125.609 107.139L123.138 96.5237H122.901C122.901 97.1783 122.901 97.9401 122.901 98.8092C122.912 99.6783 122.912 100.57 122.901 101.484C122.889 102.398 122.85 103.251 122.782 104.041L122.342 110C121.981 110.068 121.586 110.119 121.157 110.152C120.739 110.186 120.333 110.203 119.938 110.203C118.888 110.203 117.985 110.113 117.229 109.932L119.142 91.3431ZM148.423 106.732C148.243 106.732 148.068 106.732 147.898 106.732C147.729 106.721 147.56 106.71 147.391 106.699L146.341 110C146.014 110.079 145.658 110.135 145.274 110.169C144.891 110.214 144.49 110.237 144.072 110.237C143.621 110.237 143.164 110.203 142.701 110.135C142.249 110.068 141.877 109.972 141.584 109.848L141.397 109.56L147.983 91.3431C148.57 91.2528 149.134 91.1963 149.676 91.1738C150.229 91.1512 150.731 91.1399 151.183 91.1399C151.6 91.1399 152.052 91.1512 152.537 91.1738C153.023 91.1963 153.57 91.2528 154.179 91.3431L160.579 109.746C160.184 109.927 159.682 110.062 159.072 110.152C158.463 110.254 157.972 110.305 157.599 110.305C156.979 110.305 156.38 110.186 155.805 109.949C155.229 109.712 154.795 109.086 154.501 108.07L154.078 106.699C153.897 106.71 153.722 106.721 153.553 106.732C153.384 106.732 153.203 106.732 153.011 106.732H148.423ZM149.1 101.383L148.728 102.551C148.897 102.539 149.067 102.534 149.236 102.534C149.405 102.523 149.58 102.517 149.761 102.517H151.877C152.046 102.517 152.199 102.523 152.334 102.534C152.481 102.534 152.628 102.539 152.774 102.551L152.419 101.4C152.159 100.508 151.9 99.5146 151.64 98.4198C151.38 97.325 151.143 96.3318 150.929 95.4401H150.726C150.489 96.2979 150.223 97.2799 149.93 98.386C149.648 99.4921 149.371 100.491 149.1 101.383ZM173.057 99.7912C173.057 98.3578 172.865 97.2065 172.481 96.3374C172.097 95.4571 171.324 95.0169 170.161 95.0169C168.954 95.0169 168.096 95.5135 167.588 96.5067C167.08 97.5 166.826 98.9277 166.826 100.79C166.826 102.212 167.007 103.307 167.368 104.074C167.74 104.831 168.215 105.356 168.79 105.649C169.366 105.942 169.975 106.089 170.619 106.089C171.454 106.089 172.289 105.909 173.124 105.547C173.971 105.175 174.727 104.74 175.393 104.244C175.754 104.424 176.104 104.712 176.443 105.107C176.781 105.502 177.075 105.925 177.323 106.377C177.571 106.828 177.729 107.24 177.797 107.613C176.86 108.414 175.72 109.097 174.377 109.661C173.045 110.226 171.527 110.508 169.823 110.508C168.186 110.508 166.821 110.22 165.726 109.644C164.642 109.069 163.779 108.313 163.135 107.376C162.492 106.428 162.035 105.378 161.764 104.227C161.493 103.076 161.358 101.919 161.358 100.756C161.358 98.4424 161.775 96.5575 162.611 95.1015C163.457 93.6343 164.563 92.5564 165.929 91.8679C167.306 91.1794 168.779 90.8352 170.348 90.8352C172.108 90.8352 173.559 91.1455 174.699 91.7663C175.839 92.3871 176.685 93.1715 177.238 94.1196C177.791 95.0677 178.068 96.044 178.068 97.0485C178.068 98.9785 176.984 99.9435 174.817 99.9435C174.558 99.9435 174.275 99.9266 173.971 99.8927C173.666 99.8589 173.361 99.825 173.057 99.7912ZM181.413 91.3431C181.842 91.2528 182.328 91.1963 182.869 91.1738C183.411 91.1512 183.84 91.1399 184.156 91.1399C184.495 91.1399 184.901 91.1512 185.375 91.1738C185.86 91.1963 186.329 91.2528 186.78 91.3431V110C186.329 110.079 185.86 110.13 185.375 110.152C184.901 110.186 184.495 110.203 184.156 110.203C183.84 110.203 183.411 110.186 182.869 110.152C182.328 110.13 181.842 110.079 181.413 110V91.3431ZM190.324 100.705C190.324 97.6806 191.103 95.2821 192.66 93.5101C194.229 91.7268 196.515 90.8352 199.517 90.8352C202.565 90.8352 204.861 91.7212 206.408 93.4932C207.965 95.2539 208.744 97.658 208.744 100.705C208.744 103.753 207.965 106.151 206.408 107.901C204.85 109.639 202.553 110.508 199.517 110.508C196.47 110.508 194.173 109.628 192.627 107.867C191.092 106.106 190.324 103.719 190.324 100.705ZM195.793 100.705C195.793 101.349 195.832 102.015 195.911 102.703C196.001 103.38 196.171 104.012 196.419 104.599C196.679 105.186 197.057 105.666 197.553 106.038C198.05 106.4 198.71 106.58 199.534 106.58C200.358 106.58 201.018 106.4 201.515 106.038C202.012 105.666 202.384 105.186 202.632 104.599C202.892 104.012 203.061 103.38 203.14 102.703C203.23 102.015 203.276 101.349 203.276 100.705C203.276 100.051 203.23 99.3792 203.14 98.6907C203.061 97.9909 202.892 97.3476 202.632 96.7607C202.384 96.1625 202.012 95.6828 201.515 95.3216C201.018 94.9492 200.358 94.7629 199.534 94.7629C198.71 94.7629 198.05 94.9492 197.553 95.3216C197.057 95.6828 196.679 96.1625 196.419 96.7607C196.171 97.3476 196.001 97.9909 195.911 98.6907C195.832 99.3792 195.793 100.051 195.793 100.705ZM201.616 82.1839C202.237 82.3758 202.869 82.7652 203.513 83.3521C204.167 83.9277 204.596 84.5541 204.799 85.2313L198.535 89.9379C198.095 89.8024 197.666 89.5485 197.249 89.176C196.831 88.8036 196.532 88.3747 196.351 87.8893L201.616 82.1839ZM218.799 101.484C218.72 101.304 218.595 101.021 218.426 100.638C218.257 100.243 218.076 99.8194 217.884 99.3679C217.693 98.9164 217.512 98.4932 217.343 98.0982C217.185 97.7031 217.06 97.4153 216.97 97.2347L216.852 97.2855C216.897 98.1772 216.942 99.1422 216.987 100.181C217.032 101.208 217.066 102.15 217.089 103.008C217.123 103.854 217.14 104.47 217.14 104.853V110C216.699 110.079 216.276 110.13 215.87 110.152C215.463 110.186 215.085 110.203 214.735 110.203C214.419 110.203 214.024 110.186 213.55 110.152C213.088 110.13 212.647 110.079 212.23 110V91.4616C212.647 91.36 213.167 91.281 213.787 91.2245C214.408 91.1681 214.888 91.1399 215.226 91.1399C215.576 91.1399 216.073 91.1512 216.716 91.1738C217.36 91.185 217.89 91.2415 218.308 91.3431L222.286 99.825C222.365 99.983 222.495 100.271 222.676 100.688C222.868 101.106 223.071 101.563 223.285 102.06C223.5 102.556 223.697 103.025 223.878 103.465C224.07 103.894 224.211 104.21 224.301 104.413L224.453 104.379C224.408 103.634 224.346 102.765 224.267 101.772C224.199 100.779 224.137 99.8194 224.081 98.8939C224.024 97.9684 223.996 97.2291 223.996 96.676V94.0349C223.996 92.8386 224.256 92.0541 224.775 91.6817C225.294 91.2979 226.067 91.106 227.094 91.106H228.838L229.041 91.3431V109.898C228.601 110 228.071 110.073 227.45 110.119C226.829 110.175 226.355 110.203 226.028 110.203C225.802 110.203 225.492 110.198 225.097 110.186C224.702 110.175 224.295 110.158 223.878 110.135C223.471 110.113 223.133 110.068 222.862 110L218.799 101.484Z" fill="white" fill-opacity="0.87"/>
</svg>
