<svg width="392" height="155" viewBox="0 0 392 155" fill="none" xmlns="http://www.w3.org/2000/svg">
<rect width="392" height="155" rx="20" fill="black" fill-opacity="0.25"/>
<path d="M35.1772 62.158C34.9966 62.158 34.7822 62.1524 34.5339 62.1411C34.2969 62.1298 34.0655 62.1241 33.8397 62.1241L32.4007 67.0339C32.0621 67.1129 31.6953 67.1637 31.3002 67.1862C30.9165 67.2201 30.5158 67.237 30.0982 67.237C29.6919 67.237 29.2291 67.2032 28.7099 67.1354C28.202 67.079 27.7957 66.9887 27.491 66.8646L27.2878 66.5767L34.7709 43.8735C35.1998 43.8058 35.7133 43.755 36.3115 43.7212C36.921 43.6873 37.4515 43.6704 37.903 43.6704C38.3319 43.6704 38.8511 43.6929 39.4605 43.7381C40.07 43.7719 40.5948 43.8284 41.035 43.9074L48.315 66.6445C47.9425 66.8589 47.4572 67.0226 46.859 67.1354C46.2721 67.2483 45.7247 67.3047 45.2168 67.3047C44.359 67.3047 43.6874 67.1072 43.2021 66.7122C42.7167 66.3059 42.3104 65.5214 41.9831 64.3589L41.3398 62.1241C41.1253 62.1241 40.8939 62.1298 40.6456 62.1411C40.3973 62.1524 40.1829 62.158 40.0023 62.158H35.1772ZM35.8544 55.2675L35.0926 57.8916C35.307 57.8916 35.5384 57.8916 35.7867 57.8916C36.035 57.8803 36.2551 57.8747 36.447 57.8747H38.9188C39.0881 57.8747 39.2799 57.8803 39.4944 57.8916C39.7201 57.8916 39.9402 57.8916 40.1547 57.8916L39.5621 55.7754C39.3025 54.8273 38.9978 53.7099 38.6479 52.4232C38.298 51.1365 37.982 49.9345 37.6998 48.8171H37.4966C37.3838 49.4492 37.2314 50.1489 37.0395 50.9164C36.8477 51.6839 36.6445 52.4514 36.4301 53.2189C36.2269 53.9751 36.035 54.658 35.8544 55.2675ZM66.7865 60.0079C66.7865 62.3442 66.0867 64.1783 64.6871 65.5102C63.2989 66.842 61.239 67.5079 58.5077 67.5079C55.7763 67.5079 53.7108 66.842 52.3112 65.5102C50.923 64.1783 50.2289 62.3442 50.2289 60.0079V48.3431L50.432 48.1399H52.362C53.3891 48.1399 54.1792 48.3995 54.7323 48.9187C55.2966 49.4379 55.5788 50.3126 55.5788 51.5428V59.991C55.5788 61.018 55.7932 61.825 56.2221 62.412C56.651 62.9989 57.4128 63.2923 58.5077 63.2923C59.6138 63.2923 60.3756 62.9989 60.7932 62.412C61.2108 61.825 61.4196 61.018 61.4196 59.991V48.3431C61.8711 48.2528 62.3339 48.1963 62.8079 48.1738C63.2819 48.1512 63.6939 48.1399 64.0438 48.1399C64.3598 48.1399 64.7887 48.1568 65.3305 48.1907C65.8722 48.2133 66.3576 48.2697 66.7865 48.36V60.0079ZM74.1775 54.6918C74.1775 54.3307 74.1831 53.9977 74.1944 53.693C74.2057 53.3769 74.2114 53.027 74.2114 52.6433C73.9743 52.6433 73.647 52.6489 73.2294 52.6602C72.8231 52.6715 72.5014 52.6772 72.2644 52.6772H69.1323C69.042 52.2708 68.9856 51.8927 68.963 51.5428C68.9405 51.1817 68.9292 50.8544 68.9292 50.5609C68.9292 50.2674 68.9405 49.9232 68.963 49.5282C68.9856 49.1218 69.042 48.7268 69.1323 48.3431H84.454C84.5331 48.6478 84.5895 48.992 84.6233 49.3758C84.6685 49.7595 84.6911 50.0699 84.6911 50.3069C84.6911 51.0744 84.4879 51.6614 84.0816 52.0677C83.6753 52.474 82.9981 52.6772 82.05 52.6772H81.3558C81.1188 52.6772 80.8028 52.6715 80.4078 52.6602C80.024 52.6489 79.7249 52.6433 79.5105 52.6433C79.5105 53.027 79.5161 53.3769 79.5274 53.693C79.5387 53.9977 79.5443 54.3307 79.5443 54.6918V67C79.2283 67.0677 78.7938 67.1185 78.2407 67.1524C77.6877 67.1862 77.2249 67.2032 76.8524 67.2032C76.5026 67.2032 76.0624 67.1862 75.5319 67.1524C75.0014 67.1185 74.55 67.0677 74.1775 67V54.6918ZM85.2387 57.7054C85.2387 54.6806 86.0174 52.2821 87.575 50.5101C89.1439 48.7268 91.4294 47.8352 94.4317 47.8352C97.4791 47.8352 99.7759 48.7212 101.322 50.4932C102.88 52.2539 103.659 54.658 103.659 57.7054C103.659 60.7528 102.88 63.1512 101.322 64.9007C99.7647 66.6388 97.4678 67.5079 94.4317 67.5079C91.3843 67.5079 89.0874 66.6275 87.5411 64.8668C86.0061 63.1061 85.2387 60.7189 85.2387 57.7054ZM90.7071 57.7054C90.7071 58.3487 90.7466 59.0146 90.8256 59.7031C90.9159 60.3803 91.0852 61.0124 91.3335 61.5993C91.5931 62.1862 91.9712 62.6659 92.4678 63.0384C92.9644 63.3995 93.6247 63.5801 94.4486 63.5801C95.2725 63.5801 95.9328 63.3995 96.4294 63.0384C96.926 62.6659 97.2985 62.1862 97.5468 61.5993C97.8064 61.0124 97.9757 60.3803 98.0547 59.7031C98.145 59.0146 98.1902 58.3487 98.1902 57.7054C98.1902 57.0508 98.145 56.3792 98.0547 55.6907C97.9757 54.9909 97.8064 54.3476 97.5468 53.7607C97.2985 53.1625 96.926 52.6828 96.4294 52.3216C95.9328 51.9492 95.2725 51.7629 94.4486 51.7629C93.6247 51.7629 92.9644 51.9492 92.4678 52.3216C91.9712 52.6828 91.5931 53.1625 91.3335 53.7607C91.0852 54.3476 90.9159 54.9909 90.8256 55.6907C90.7466 56.3792 90.7071 57.0508 90.7071 57.7054ZM122.348 54.0146C122.348 54.8837 122.15 55.6569 121.755 56.3341C121.36 57.0113 120.863 57.5699 120.265 58.0101C119.678 58.4503 119.091 58.7325 118.504 58.8566C119.114 59.0598 119.616 59.3702 120.011 59.7878C120.417 60.2054 120.767 60.7415 121.061 61.3961L121.941 63.4108C122.144 63.8736 122.376 64.3025 122.635 64.6975C122.895 65.0813 123.183 65.4086 123.499 65.6795C123.171 66.0858 122.68 66.4639 122.026 66.8138C121.371 67.1524 120.66 67.3217 119.893 67.3217C119.136 67.3217 118.521 67.1411 118.047 66.7799C117.585 66.4074 117.178 65.8149 116.828 65.0023L115.338 61.5824C115.101 61.0293 114.808 60.6964 114.458 60.5835C114.108 60.4706 113.657 60.4142 113.104 60.4142H112.443V67C111.992 67.079 111.524 67.1298 111.038 67.1524C110.564 67.1862 110.158 67.2032 109.819 67.2032C109.503 67.2032 109.086 67.1862 108.566 67.1524C108.047 67.1298 107.573 67.079 107.144 67V48.5124L107.331 48.3092C108.696 48.2753 109.977 48.2471 111.174 48.2245C112.381 48.1907 113.583 48.1738 114.78 48.1738C116.134 48.1738 117.387 48.3543 118.538 48.7155C119.689 49.0654 120.609 49.6693 121.298 50.527C121.998 51.3735 122.348 52.5361 122.348 54.0146ZM112.443 52V56.3848C112.838 56.3736 113.2 56.3679 113.527 56.3679C113.866 56.3566 114.114 56.351 114.272 56.351C115.288 56.351 115.976 56.1309 116.337 55.6907C116.699 55.2505 116.879 54.737 116.879 54.1501C116.879 53.5745 116.699 53.0778 116.337 52.6602C115.976 52.2426 115.372 52.0338 114.526 52.0338C114.12 52.0338 113.77 52.0282 113.476 52.0169C113.183 52.0056 112.838 52 112.443 52ZM126.49 48.3431C126.919 48.2528 127.404 48.1963 127.946 48.1738C128.488 48.1512 128.916 48.1399 129.232 48.1399C129.571 48.1399 129.977 48.1512 130.451 48.1738C130.937 48.1963 131.405 48.2528 131.857 48.3431V67C131.405 67.079 130.937 67.1298 130.451 67.1524C129.977 67.1862 129.571 67.2032 129.232 67.2032C128.916 67.2032 128.488 67.1862 127.946 67.1524C127.404 67.1298 126.919 67.079 126.49 67V48.3431ZM142.41 54.8611C142.602 54.658 142.855 54.3984 143.172 54.0824C143.488 53.7663 143.815 53.4559 144.153 53.1512C144.492 52.8352 144.786 52.5812 145.034 52.3893L144.966 52.2878C144.447 52.3442 143.854 52.395 143.188 52.4401C142.534 52.474 141.919 52.5022 141.343 52.5248C140.779 52.5474 140.372 52.5586 140.124 52.5586H136.196C136.117 52.2313 136.067 51.9266 136.044 51.6444C136.021 51.351 136.01 51.0632 136.01 50.781C136.01 50.3182 136.038 49.9119 136.095 49.562C136.162 49.2009 136.253 48.7945 136.366 48.3431H149.977C150.214 49.1896 150.384 49.8216 150.485 50.2392C150.587 50.6456 150.649 50.9334 150.672 51.1027C150.705 51.272 150.722 51.4074 150.722 51.509C150.722 51.8024 150.683 52.0959 150.604 52.3893C150.536 52.6828 150.378 52.9706 150.13 53.2528L143.798 60.465C143.516 60.781 143.138 61.1761 142.664 61.6501C142.201 62.1241 141.778 62.5135 141.394 62.8183L141.462 62.9537C142.24 62.8973 143.047 62.8521 143.883 62.8183C144.729 62.7844 145.491 62.7506 146.168 62.7167L147.133 62.6828C147.754 62.6603 148.386 62.6038 149.029 62.5135C149.684 62.4232 150.237 62.2596 150.688 62.0226C150.79 62.3724 150.863 62.7054 150.909 63.0214C150.965 63.3375 150.993 63.7269 150.993 64.1896C150.993 65.1038 150.643 65.8093 149.944 66.3059C149.244 66.7912 148.414 67.0339 147.455 67.0339H136.01C135.852 66.2551 135.734 65.6682 135.655 65.2731C135.576 64.8781 135.519 64.5903 135.485 64.4097C135.463 64.2291 135.451 64.0767 135.451 63.9526C135.451 63.2528 135.66 62.6377 136.078 62.1072L142.41 54.8611ZM159.269 63.7325C159.089 63.7325 158.914 63.7325 158.744 63.7325C158.575 63.7212 158.406 63.7099 158.236 63.6986L157.187 67C156.859 67.079 156.504 67.1354 156.12 67.1693C155.736 67.2144 155.336 67.237 154.918 67.237C154.467 67.237 154.009 67.2032 153.547 67.1354C153.095 67.0677 152.723 66.9718 152.429 66.8476L152.243 66.5598L158.829 48.3431C159.416 48.2528 159.98 48.1963 160.522 48.1738C161.075 48.1512 161.577 48.1399 162.029 48.1399C162.446 48.1399 162.898 48.1512 163.383 48.1738C163.868 48.1963 164.416 48.2528 165.025 48.3431L171.425 66.746C171.03 66.9266 170.528 67.0621 169.918 67.1524C169.309 67.254 168.818 67.3047 168.445 67.3047C167.824 67.3047 167.226 67.1862 166.651 66.9492C166.075 66.7122 165.64 66.0858 165.347 65.07L164.924 63.6986C164.743 63.7099 164.568 63.7212 164.399 63.7325C164.23 63.7325 164.049 63.7325 163.857 63.7325H159.269ZM159.946 58.3826L159.574 59.5508C159.743 59.5395 159.912 59.5338 160.082 59.5338C160.251 59.5226 160.426 59.5169 160.607 59.5169H162.723C162.892 59.5169 163.045 59.5226 163.18 59.5338C163.327 59.5338 163.473 59.5395 163.62 59.5508L163.265 58.3995C163.005 57.5079 162.745 56.5146 162.486 55.4198C162.226 54.325 161.989 53.3318 161.775 52.4401H161.572C161.335 53.2979 161.069 54.2799 160.776 55.386C160.494 56.4921 160.217 57.4909 159.946 58.3826ZM189.208 54.0146C189.208 54.8837 189.011 55.6569 188.616 56.3341C188.22 57.0113 187.724 57.5699 187.126 58.0101C186.539 58.4503 185.952 58.7325 185.365 58.8566C185.974 59.0598 186.477 59.3702 186.872 59.7878C187.278 60.2054 187.628 60.7415 187.921 61.3961L188.802 63.4108C189.005 63.8736 189.236 64.3025 189.496 64.6975C189.755 65.0813 190.043 65.4086 190.359 65.6795C190.032 66.0858 189.541 66.4639 188.886 66.8138C188.232 67.1524 187.521 67.3217 186.753 67.3217C185.997 67.3217 185.382 67.1411 184.908 66.7799C184.445 66.4074 184.039 65.8149 183.689 65.0023L182.199 61.5824C181.962 61.0293 181.669 60.6964 181.319 60.5835C180.969 60.4706 180.517 60.4142 179.964 60.4142H179.304V67C178.853 67.079 178.384 67.1298 177.899 67.1524C177.425 67.1862 177.018 67.2032 176.68 67.2032C176.364 67.2032 175.946 67.1862 175.427 67.1524C174.908 67.1298 174.434 67.079 174.005 67V48.5124L174.191 48.3092C175.557 48.2753 176.838 48.2471 178.034 48.2245C179.242 48.1907 180.444 48.1738 181.64 48.1738C182.995 48.1738 184.248 48.3543 185.399 48.7155C186.55 49.0654 187.47 49.6693 188.158 50.527C188.858 51.3735 189.208 52.5361 189.208 54.0146ZM179.304 52V56.3848C179.699 56.3736 180.06 56.3679 180.388 56.3679C180.726 56.3566 180.974 56.351 181.132 56.351C182.148 56.351 182.837 56.1309 183.198 55.6907C183.559 55.2505 183.74 54.737 183.74 54.1501C183.74 53.5745 183.559 53.0778 183.198 52.6602C182.837 52.2426 182.233 52.0338 181.386 52.0338C180.98 52.0338 180.63 52.0282 180.337 52.0169C180.043 52.0056 179.699 52 179.304 52ZM30.64 85.9074C31.2156 85.8058 31.842 85.7381 32.5192 85.7042C33.2077 85.6704 33.8002 85.6534 34.2969 85.6534C34.7935 85.6534 35.3465 85.6704 35.956 85.7042C36.5655 85.7381 37.158 85.8058 37.7337 85.9074L39.7314 94.1862C39.7766 94.3893 39.8499 94.7392 39.9515 95.2359C40.0644 95.7325 40.1885 96.2968 40.324 96.9289C40.4594 97.5609 40.5836 98.1817 40.6964 98.7912C40.8206 99.4006 40.9165 99.9198 40.9842 100.349H41.2213C41.289 99.9198 41.3849 99.4006 41.5091 98.7912C41.6332 98.1817 41.7574 97.5609 41.8815 96.9289C42.017 96.2968 42.1411 95.7325 42.254 95.2359C42.3669 94.7392 42.4459 94.3893 42.491 94.1862L44.4888 85.9074C45.0644 85.8058 45.6513 85.7381 46.2495 85.7042C46.859 85.6704 47.412 85.6534 47.9086 85.6534C48.4053 85.6534 48.9978 85.6704 49.6863 85.7042C50.3748 85.7381 51.0012 85.8058 51.5655 85.9074L53.3601 108.932C52.9764 109.034 52.5305 109.102 52.0226 109.135C51.526 109.181 51.0576 109.203 50.6175 109.203C50.2111 109.203 49.8105 109.192 49.4154 109.169C49.0317 109.147 48.6423 109.102 48.2472 109.034L47.7393 99.6038C47.6716 98.4074 47.6095 97.0869 47.5531 95.6422C47.4967 94.1975 47.4685 92.9221 47.4685 91.816H47.2314L43.8962 105.597C43.4899 105.665 43.0158 105.716 42.4741 105.749C41.9323 105.772 41.4696 105.783 41.0858 105.783C40.7472 105.783 40.3014 105.772 39.7483 105.749C39.1953 105.716 38.7156 105.665 38.3093 105.597L34.9741 91.816H34.754C34.7427 92.9221 34.7088 94.1975 34.6524 95.6422C34.6072 97.0869 34.5508 98.4074 34.4831 99.6038L33.9583 109.034C33.5745 109.102 33.1851 109.147 32.7901 109.169C32.395 109.192 31.9944 109.203 31.588 109.203C31.1592 109.203 30.6908 109.181 30.1829 109.135C29.6862 109.102 29.2404 109.034 28.8454 108.932L30.64 85.9074ZM56.2724 99.7054C56.2724 96.6806 57.0511 94.2821 58.6087 92.5101C60.1776 90.7268 62.4631 89.8352 65.4654 89.8352C68.5128 89.8352 70.8096 90.7212 72.3559 92.4932C73.9135 94.2539 74.6923 96.658 74.6923 99.7054C74.6923 102.753 73.9135 105.151 72.3559 106.901C70.7984 108.639 68.5015 109.508 65.4654 109.508C62.418 109.508 60.1211 108.628 58.5748 106.867C57.0399 105.106 56.2724 102.719 56.2724 99.7054ZM61.7408 99.7054C61.7408 100.349 61.7803 101.015 61.8593 101.703C61.9496 102.38 62.1189 103.012 62.3672 103.599C62.6268 104.186 63.0049 104.666 63.5015 105.038C63.9981 105.4 64.6584 105.58 65.4823 105.58C66.3062 105.58 66.9665 105.4 67.4631 105.038C67.9597 104.666 68.3322 104.186 68.5805 103.599C68.8401 103.012 69.0094 102.38 69.0884 101.703C69.1787 101.015 69.2239 100.349 69.2239 99.7054C69.2239 99.0508 69.1787 98.3792 69.0884 97.6907C69.0094 96.9909 68.8401 96.3476 68.5805 95.7607C68.3322 95.1625 67.9597 94.6828 67.4631 94.3216C66.9665 93.9492 66.3062 93.7629 65.4823 93.7629C64.6584 93.7629 63.9981 93.9492 63.5015 94.3216C63.0049 94.6828 62.6268 95.1625 62.3672 95.7607C62.1189 96.3476 61.9496 96.9909 61.8593 97.6907C61.7803 98.3792 61.7408 99.0508 61.7408 99.7054ZM88.735 90.3431C89.1413 90.2528 89.4968 90.1963 89.8016 90.1738C90.1176 90.1512 90.4393 90.1399 90.7666 90.1399C91.1729 90.1399 91.5962 90.1625 92.0363 90.2076C92.4878 90.2528 92.9675 90.3487 93.4754 90.4954L93.7124 90.7494L88.1594 109C87.6515 109.079 86.9855 109.13 86.1616 109.152C85.3377 109.186 84.5871 109.203 83.9099 109.203C83.0183 109.203 82.262 109.062 81.6413 108.78C81.0318 108.486 80.5916 107.854 80.3207 106.884L75.4957 90.7155C75.9584 90.5236 76.4437 90.3769 76.9516 90.2753C77.4708 90.1625 78.0013 90.106 78.5431 90.106C79.3557 90.106 79.9878 90.2979 80.4392 90.6817C80.902 91.0541 81.2688 91.7031 81.5397 92.6286L83.3512 98.6896C83.6108 99.6038 83.8422 100.535 84.0453 101.483C84.2598 102.431 84.4686 103.503 84.6718 104.7C84.7169 104.892 84.8298 104.988 85.0104 104.988L88.735 90.3431ZM96.3331 90.3431C96.762 90.2528 97.2474 90.1963 97.7891 90.1738C98.3309 90.1512 98.7598 90.1399 99.0758 90.1399C99.4144 90.1399 99.8207 90.1512 100.295 90.1738C100.78 90.1963 101.248 90.2528 101.7 90.3431V109C101.248 109.079 100.78 109.13 100.295 109.152C99.8207 109.186 99.4144 109.203 99.0758 109.203C98.7598 109.203 98.3309 109.186 97.7891 109.152C97.2474 109.13 96.762 109.079 96.3331 109V90.3431ZM107.8 90.3431C108.342 90.2415 108.935 90.1738 109.578 90.1399C110.221 90.0948 110.763 90.0722 111.203 90.0722C111.621 90.0722 112.163 90.0948 112.829 90.1399C113.494 90.1738 114.053 90.2415 114.505 90.3431L116.164 97.6907C116.265 98.1309 116.384 98.7291 116.519 99.4853C116.655 100.23 116.79 101.032 116.926 101.889H117.146C117.417 100.083 117.671 98.6839 117.908 97.6907L119.55 90.3431C120.08 90.2415 120.662 90.1738 121.294 90.1399C121.926 90.0948 122.451 90.0722 122.868 90.0722C123.308 90.0722 123.856 90.0948 124.51 90.1399C125.165 90.1738 125.752 90.2415 126.271 90.3431L128.184 108.932C127.451 109.113 126.565 109.203 125.526 109.203C125.131 109.203 124.708 109.186 124.256 109.152C123.816 109.119 123.421 109.068 123.071 109L122.58 103.007C122.524 102.239 122.49 101.398 122.479 100.484C122.467 99.5699 122.467 98.6783 122.479 97.8092C122.49 96.9289 122.49 96.167 122.479 95.5237H122.276L119.787 106.139C119.403 106.207 118.935 106.257 118.382 106.291C117.829 106.314 117.371 106.325 117.01 106.325C116.638 106.325 116.175 106.314 115.622 106.291C115.08 106.257 114.629 106.207 114.268 106.139L111.796 95.5237H111.559C111.559 96.1783 111.559 96.9401 111.559 97.8092C111.57 98.6783 111.57 99.5699 111.559 100.484C111.548 101.398 111.508 102.251 111.44 103.041L111 109C110.639 109.068 110.244 109.119 109.815 109.152C109.397 109.186 108.991 109.203 108.596 109.203C107.546 109.203 106.643 109.113 105.887 108.932L107.8 90.3431ZM132.409 90.3431C132.838 90.2528 133.323 90.1963 133.865 90.1738C134.406 90.1512 134.835 90.1399 135.151 90.1399C135.49 90.1399 135.896 90.1512 136.37 90.1738C136.856 90.1963 137.324 90.2528 137.776 90.3431V109C137.324 109.079 136.856 109.13 136.37 109.152C135.896 109.186 135.49 109.203 135.151 109.203C134.835 109.203 134.406 109.186 133.865 109.152C133.323 109.13 132.838 109.079 132.409 109V90.3431ZM156.895 104.751C156.895 106.365 156.641 107.488 156.133 108.12C155.637 108.752 154.79 109.068 153.594 109.068H145.789C144.83 109.068 144.073 108.797 143.52 108.255C142.967 107.702 142.691 106.963 142.691 106.037V90.5293L142.877 90.3431H156.269C156.348 90.7268 156.393 91.0936 156.404 91.4435C156.415 91.7934 156.421 92.1264 156.421 92.4424C156.421 92.7471 156.387 93.0914 156.32 93.4751C156.263 93.8589 156.162 94.2483 156.015 94.6433H150.089C149.615 94.6433 148.899 94.6377 147.939 94.6264C147.95 94.9763 147.956 95.2754 147.956 95.5237C147.967 95.772 147.973 96.0711 147.973 96.421V97.5383C148.91 97.5271 149.615 97.5214 150.089 97.5214H154.423C154.536 97.8262 154.61 98.176 154.643 98.5711C154.689 98.9548 154.711 99.2821 154.711 99.553C154.711 99.869 154.689 100.225 154.643 100.62C154.61 101.003 154.536 101.353 154.423 101.669H150.089C149.875 101.669 149.576 101.669 149.192 101.669C148.808 101.669 148.402 101.669 147.973 101.669V102.77C147.973 103.187 147.967 103.532 147.956 103.802C147.945 104.073 147.939 104.412 147.939 104.818V104.852C148.334 104.83 148.701 104.807 149.04 104.784C149.378 104.762 149.79 104.751 150.276 104.751H156.895ZM167.149 100.484C167.07 100.304 166.946 100.021 166.776 99.6377C166.607 99.2426 166.426 98.8194 166.234 98.3679C166.043 97.9164 165.862 97.4932 165.693 97.0982C165.535 96.7031 165.411 96.4153 165.32 96.2347L165.202 96.2855C165.247 97.1772 165.292 98.1422 165.337 99.1806C165.382 100.208 165.416 101.15 165.439 102.008C165.473 102.854 165.49 103.47 165.49 103.853V109C165.049 109.079 164.626 109.13 164.22 109.152C163.813 109.186 163.435 109.203 163.085 109.203C162.769 109.203 162.374 109.186 161.9 109.152C161.438 109.13 160.997 109.079 160.58 109V90.4616C160.997 90.36 161.517 90.281 162.137 90.2245C162.758 90.1681 163.238 90.1399 163.576 90.1399C163.926 90.1399 164.423 90.1512 165.066 90.1738C165.71 90.185 166.24 90.2415 166.658 90.3431L170.636 98.825C170.715 98.983 170.845 99.2709 171.026 99.6885C171.218 100.106 171.421 100.563 171.635 101.06C171.85 101.556 172.047 102.025 172.228 102.465C172.42 102.894 172.561 103.21 172.651 103.413L172.803 103.379C172.758 102.634 172.696 101.765 172.617 100.772C172.549 99.7788 172.487 98.8194 172.431 97.8939C172.374 96.9684 172.346 96.2291 172.346 95.676V93.0349C172.346 91.8386 172.606 91.0541 173.125 90.6817C173.644 90.2979 174.417 90.106 175.444 90.106H177.188L177.391 90.3431V108.898C176.951 109 176.421 109.073 175.8 109.119C175.179 109.175 174.705 109.203 174.378 109.203C174.152 109.203 173.842 109.198 173.447 109.186C173.052 109.175 172.645 109.158 172.228 109.135C171.821 109.113 171.483 109.068 171.212 109L167.149 100.484ZM185.116 96.6918C185.116 96.3307 185.121 95.9977 185.133 95.693C185.144 95.3769 185.15 95.027 185.15 94.6433C184.913 94.6433 184.585 94.6489 184.168 94.6602C183.761 94.6715 183.44 94.6772 183.203 94.6772H180.071C179.98 94.2708 179.924 93.8927 179.901 93.5428C179.879 93.1817 179.867 92.8544 179.867 92.5609C179.867 92.2674 179.879 91.9232 179.901 91.5282C179.924 91.1218 179.98 90.7268 180.071 90.3431H195.392C195.471 90.6478 195.528 90.992 195.562 91.3758C195.607 91.7595 195.629 92.0699 195.629 92.3069C195.629 93.0744 195.426 93.6614 195.02 94.0677C194.614 94.474 193.936 94.6772 192.988 94.6772H192.294C192.057 94.6772 191.741 94.6715 191.346 94.6602C190.962 94.6489 190.663 94.6433 190.449 94.6433C190.449 95.027 190.454 95.3769 190.466 95.693C190.477 95.9977 190.483 96.3307 190.483 96.6918V109C190.167 109.068 189.732 109.119 189.179 109.152C188.626 109.186 188.163 109.203 187.791 109.203C187.441 109.203 187.001 109.186 186.47 109.152C185.94 109.119 185.488 109.068 185.116 109V96.6918ZM196.177 99.7054C196.177 96.6806 196.956 94.2821 198.513 92.5101C200.082 90.7268 202.368 89.8352 205.37 89.8352C208.417 89.8352 210.714 90.7212 212.26 92.4932C213.818 94.2539 214.597 96.658 214.597 99.7054C214.597 102.753 213.818 105.151 212.26 106.901C210.703 108.639 208.406 109.508 205.37 109.508C202.323 109.508 200.026 108.628 198.479 106.867C196.944 105.106 196.177 102.719 196.177 99.7054ZM201.645 99.7054C201.645 100.349 201.685 101.015 201.764 101.703C201.854 102.38 202.023 103.012 202.272 103.599C202.531 104.186 202.909 104.666 203.406 105.038C203.903 105.4 204.563 105.58 205.387 105.58C206.211 105.58 206.871 105.4 207.368 105.038C207.864 104.666 208.237 104.186 208.485 103.599C208.745 103.012 208.914 102.38 208.993 101.703C209.083 101.015 209.128 100.349 209.128 99.7054C209.128 99.0508 209.083 98.3792 208.993 97.6907C208.914 96.9909 208.745 96.3476 208.485 95.7607C208.237 95.1625 207.864 94.6828 207.368 94.3216C206.871 93.9492 206.211 93.7629 205.387 93.7629C204.563 93.7629 203.903 93.9492 203.406 94.3216C202.909 94.6828 202.531 95.1625 202.272 95.7607C202.023 96.3476 201.854 96.9909 201.764 97.6907C201.685 98.3792 201.645 99.0508 201.645 99.7054Z" fill="white" fill-opacity="0.87"/>
<path d="M293 38.5C300.5 27.5384 326 33 326 33V26.5L336 42.5L320.5 45.5L324.5 41.5C324.5 41.5 324.999 40 318 38.5C311 37 300.966 40.547 300.966 40.547C291 45.5 290.113 42.7192 293 38.5Z" stroke="#1EBCBC" stroke-width="2"/>
<path d="M260 126.09L308 126.09C308 126.09 304.27 80.9603 284 82.4535C264.604 83.8823 260 126.09 260 126.09Z" fill="#546886"/>
<path d="M275.273 67.1808C279.363 72.6339 288.637 72.6339 292.727 67.1808C295.795 63.0909 295.795 58.1797 292.727 54.0899C288.637 48.6367 279.363 48.6367 275.273 54.0899C272.205 58.1797 272.205 63.0909 275.273 67.1808Z" fill="#546886"/>
<path d="M260 126.09L308 126.09C308 126.09 304.27 80.9603 284 82.4535C264.604 83.8823 260 126.09 260 126.09Z" stroke="#D7D9DC" stroke-width="4.36364"/>
<path d="M275.273 67.1808C279.363 72.6339 288.637 72.6339 292.727 67.1808C295.795 63.0909 295.795 58.1797 292.727 54.0899C288.637 48.6367 279.363 48.6367 275.273 54.0899C272.205 58.1797 272.205 63.0909 275.273 67.1808Z" stroke="#D7D9DC" stroke-width="4.36364"/>
<path d="M324 126.09L372 126.09C372 126.09 368.27 80.9603 348 82.4535C328.604 83.8823 324 126.09 324 126.09Z" fill="#546886"/>
<path d="M324 126.09L372 126.09C372 126.09 368.27 80.9603 348 82.4535C328.604 83.8823 324 126.09 324 126.09Z" fill="url(#paint0_linear)"/>
<path d="M339.273 67.1808C343.363 72.6339 352.637 72.6339 356.727 67.1808C359.795 63.0909 359.795 58.1797 356.727 54.0899C352.637 48.6367 343.363 48.6367 339.273 54.0899C336.205 58.1797 336.205 63.0909 339.273 67.1808Z" fill="#546886"/>
<path d="M339.273 67.1808C343.363 72.6339 352.637 72.6339 356.727 67.1808C359.795 63.0909 359.795 58.1797 356.727 54.0899C352.637 48.6367 343.363 48.6367 339.273 54.0899C336.205 58.1797 336.205 63.0909 339.273 67.1808Z" fill="url(#paint1_linear)"/>
<path d="M324 126.09L372 126.09C372 126.09 368.27 80.9603 348 82.4535C328.604 83.8823 324 126.09 324 126.09Z" stroke="#D7D9DC" stroke-width="4.36364"/>
<path d="M339.273 67.1808C343.363 72.6339 352.637 72.6339 356.727 67.1808C359.795 63.0909 359.795 58.1797 356.727 54.0899C352.637 48.6367 343.363 48.6367 339.273 54.0899C336.205 58.1797 336.205 63.0909 339.273 67.1808Z" stroke="#D7D9DC" stroke-width="4.36364"/>
<defs>
<linearGradient id="paint0_linear" x1="348" y1="50" x2="348" y2="126.09" gradientUnits="userSpaceOnUse">
<stop stop-color="white"/>
<stop offset="1" stop-color="white" stop-opacity="0"/>
</linearGradient>
<linearGradient id="paint1_linear" x1="348" y1="50" x2="348" y2="126.09" gradientUnits="userSpaceOnUse">
<stop stop-color="white"/>
<stop offset="1" stop-color="white" stop-opacity="0"/>
</linearGradient>
</defs>
</svg>
