<svg width="103" height="26" viewBox="0 0 103 26" fill="none" xmlns="http://www.w3.org/2000/svg">
<path d="M8.94244 8.422C9.29044 7.942 9.74644 7.36 10.3104 6.676C10.8744 5.98 11.3844 5.386 11.8404 4.894L11.7324 4.786C10.8924 4.894 9.93844 4.972 8.87044 5.02C7.81444 5.068 6.92044 5.092 6.18844 5.092H1.02244C0.938438 4.756 0.878438 4.432 0.842438 4.12C0.818438 3.796 0.806438 3.478 0.806438 3.166C0.806438 2.674 0.842438 2.212 0.914438 1.78C0.986438 1.348 1.08244 0.891999 1.20244 0.411999H17.1324C17.3844 1.312 17.5644 1.99 17.6724 2.446C17.7924 2.902 17.8644 3.232 17.8884 3.436C17.9124 3.628 17.9244 3.796 17.9244 3.94C17.9244 4.264 17.8764 4.594 17.7804 4.93C17.6964 5.266 17.5344 5.608 17.2944 5.956L9.26644 16.972C8.91844 17.452 8.48044 18.016 7.95244 18.664C7.42444 19.3 6.92644 19.864 6.45844 20.356L6.56644 20.464C7.33444 20.404 8.23444 20.35 9.26644 20.302C10.2984 20.242 11.1984 20.212 11.9664 20.212H13.9644C14.8404 20.212 15.6144 20.128 16.2864 19.96C16.9584 19.792 17.5404 19.594 18.0324 19.366C18.1404 19.714 18.2304 20.122 18.3024 20.59C18.3744 21.058 18.4104 21.514 18.4104 21.958C18.4104 22.99 18.0564 23.758 17.3484 24.262C16.6524 24.754 15.7524 25 14.6484 25H0.878438C0.686438 24.148 0.542438 23.506 0.446438 23.074C0.362438 22.642 0.308438 22.324 0.284438 22.12C0.260438 21.904 0.248438 21.712 0.248438 21.544C0.248438 21.196 0.302438 20.836 0.410438 20.464C0.530438 20.08 0.704438 19.732 0.932438 19.42L8.94244 8.422ZM20.4231 15.118C20.4231 11.902 21.2511 9.352 22.9071 7.468C24.5751 5.572 27.0051 4.624 30.1971 4.624C33.4371 4.624 35.8791 5.566 37.5231 7.45C39.1791 9.322 40.0071 11.878 40.0071 15.118C40.0071 18.358 39.1791 20.908 37.5231 22.768C35.8671 24.616 33.4251 25.54 30.1971 25.54C26.9571 25.54 24.5151 24.604 22.8711 22.732C21.2391 20.86 20.4231 18.322 20.4231 15.118ZM26.2371 15.118C26.2371 15.802 26.2791 16.51 26.3631 17.242C26.4591 17.962 26.6391 18.634 26.9031 19.258C27.1791 19.882 27.5811 20.392 28.1091 20.788C28.6371 21.172 29.3391 21.364 30.2151 21.364C31.0911 21.364 31.7931 21.172 32.3211 20.788C32.8491 20.392 33.2451 19.882 33.5091 19.258C33.7851 18.634 33.9651 17.962 34.0491 17.242C34.1451 16.51 34.1931 15.802 34.1931 15.118C34.1931 14.422 34.1451 13.708 34.0491 12.976C33.9651 12.232 33.7851 11.548 33.5091 10.924C33.2451 10.288 32.8491 9.778 32.3211 9.394C31.7931 8.998 31.0911 8.8 30.2151 8.8C29.3391 8.8 28.6371 8.998 28.1091 9.394C27.5811 9.778 27.1791 10.288 26.9031 10.924C26.6391 11.548 26.4591 12.232 26.3631 12.976C26.2791 13.708 26.2371 14.422 26.2371 15.118ZM50.6971 15.946C50.6131 15.754 50.4811 15.454 50.3011 15.046C50.1211 14.626 49.9291 14.176 49.7251 13.696C49.5211 13.216 49.3291 12.766 49.1491 12.346C48.9811 11.926 48.8491 11.62 48.7531 11.428L48.6271 11.482C48.6751 12.43 48.7231 13.456 48.7711 14.56C48.8191 15.652 48.8551 16.654 48.8791 17.566C48.9151 18.466 48.9331 19.12 48.9331 19.528V25C48.4651 25.084 48.0151 25.138 47.5831 25.162C47.1511 25.198 46.7491 25.216 46.3771 25.216C46.0411 25.216 45.6211 25.198 45.1171 25.162C44.6251 25.138 44.1571 25.084 43.7131 25V5.29C44.1571 5.182 44.7091 5.098 45.3691 5.038C46.0291 4.978 46.5391 4.948 46.8991 4.948C47.2711 4.948 47.7991 4.96 48.4831 4.984C49.1671 4.996 49.7311 5.056 50.1751 5.164L54.4051 14.182C54.4891 14.35 54.6271 14.656 54.8191 15.1C55.0231 15.544 55.2391 16.03 55.4671 16.558C55.6951 17.086 55.9051 17.584 56.0971 18.052C56.3011 18.508 56.4511 18.844 56.5471 19.06L56.7091 19.024C56.6611 18.232 56.5951 17.308 56.5111 16.252C56.4391 15.196 56.3731 14.176 56.3131 13.192C56.2531 12.208 56.2231 11.422 56.2231 10.834V8.026C56.2231 6.754 56.4991 5.92 57.0511 5.524C57.6031 5.116 58.4251 4.912 59.5171 4.912H61.3711L61.5871 5.164V24.892C61.1191 25 60.5551 25.078 59.8951 25.126C59.2351 25.186 58.7311 25.216 58.3831 25.216C58.1431 25.216 57.8131 25.21 57.3931 25.198C56.9731 25.186 56.5411 25.168 56.0971 25.144C55.6651 25.12 55.3051 25.072 55.0171 25L50.6971 15.946ZM71.8156 21.526C71.6236 21.526 71.4376 21.526 71.2576 21.526C71.0776 21.514 70.8976 21.502 70.7176 21.49L69.6016 25C69.2536 25.084 68.8756 25.144 68.4676 25.18C68.0596 25.228 67.6336 25.252 67.1896 25.252C66.7096 25.252 66.2236 25.216 65.7316 25.144C65.2516 25.072 64.8556 24.97 64.5436 24.838L64.3456 24.532L71.3476 5.164C71.9716 5.068 72.5716 5.008 73.1476 4.984C73.7356 4.96 74.2696 4.948 74.7496 4.948C75.1936 4.948 75.6736 4.96 76.1896 4.984C76.7056 5.008 77.2876 5.068 77.9356 5.164L84.7396 24.73C84.3196 24.922 83.7856 25.066 83.1376 25.162C82.4896 25.27 81.9676 25.324 81.5716 25.324C80.9116 25.324 80.2756 25.198 79.6636 24.946C79.0516 24.694 78.5896 24.028 78.2776 22.948L77.8276 21.49C77.6356 21.502 77.4496 21.514 77.2696 21.526C77.0896 21.526 76.8976 21.526 76.6936 21.526H71.8156ZM72.5356 15.838L72.1396 17.08C72.3196 17.068 72.4996 17.062 72.6796 17.062C72.8596 17.05 73.0456 17.044 73.2376 17.044H75.4876C75.6676 17.044 75.8296 17.05 75.9736 17.062C76.1296 17.062 76.2856 17.068 76.4416 17.08L76.0636 15.856C75.7876 14.908 75.5116 13.852 75.2356 12.688C74.9596 11.524 74.7076 10.468 74.4796 9.52H74.2636C74.0116 10.432 73.7296 11.476 73.4176 12.652C73.1176 13.828 72.8236 14.89 72.5356 15.838ZM85.5566 23.506C85.5566 23.05 85.6466 22.546 85.8266 21.994C86.0066 21.43 86.2526 20.908 86.5646 20.428C86.8766 19.948 87.2186 19.588 87.5906 19.348C88.4786 19.828 89.4686 20.242 90.5606 20.59C91.6526 20.926 92.7206 21.094 93.7646 21.094C94.4366 21.094 94.9886 20.956 95.4206 20.68C95.8646 20.404 96.0866 20.014 96.0866 19.51C96.0866 19.186 95.9606 18.892 95.7086 18.628C95.4566 18.352 95.0186 18.1 94.3946 17.872L91.4066 16.702C90.4826 16.366 89.6186 15.946 88.8146 15.442C88.0106 14.938 87.3626 14.32 86.8706 13.588C86.3786 12.856 86.1326 11.98 86.1326 10.96C86.1326 9.088 86.8526 7.564 88.2926 6.388C89.7326 5.212 91.6706 4.624 94.1066 4.624C95.4866 4.624 96.8546 4.786 98.2106 5.11C99.5786 5.422 100.725 5.782 101.649 6.19C101.649 7.006 101.481 7.81 101.145 8.602C100.809 9.394 100.347 10.018 99.7586 10.474C98.8706 10.078 97.9046 9.748 96.8606 9.484C95.8166 9.208 94.8746 9.07 94.0346 9.07C93.4106 9.07 92.9306 9.202 92.5946 9.466C92.2706 9.73 92.1086 10.048 92.1086 10.42C92.1086 10.768 92.2706 11.032 92.5946 11.212C92.9186 11.392 93.3206 11.572 93.8006 11.752L96.7706 12.886C98.4266 13.486 99.7406 14.314 100.713 15.37C101.697 16.414 102.189 17.704 102.189 19.24C102.189 20.596 101.823 21.742 101.091 22.678C100.371 23.614 99.3806 24.322 98.1206 24.802C96.8726 25.282 95.4626 25.528 93.8906 25.54C92.0186 25.54 90.3506 25.324 88.8866 24.892C87.4346 24.46 86.3246 23.998 85.5566 23.506Z" fill="#364760"/>
</svg>
