<svg width="255" height="20" viewBox="0 0 255 20" fill="none" xmlns="http://www.w3.org/2000/svg">
<path d="M10.2623 12.548C10.2623 12.284 10.2663 12.012 10.2743 11.732C10.2823 11.452 10.2943 11.168 10.3103 10.88H9.13434C8.51834 10.88 8.05834 10.764 7.75434 10.532C7.45034 10.3 7.29834 9.88 7.29834 9.272C7.29834 9.024 7.32234 8.756 7.37034 8.468C7.42634 8.18 7.49434 7.92 7.57434 7.688H11.3303C12.2823 7.688 12.9423 7.912 13.3103 8.36C13.6783 8.8 13.8623 9.368 13.8623 10.064V16.364C13.1663 16.596 12.2663 16.82 11.1623 17.036C10.0583 17.252 8.85034 17.36 7.53834 17.36C5.89834 17.36 4.53834 17.016 3.45834 16.328C2.38634 15.64 1.58634 14.664 1.05834 13.4C0.530344 12.136 0.266344 10.64 0.266344 8.912C0.266344 7.456 0.478344 6.188 0.902344 5.108C1.32634 4.02 1.90234 3.12 2.63034 2.408C3.35834 1.688 4.17834 1.148 5.09034 0.787999C6.00234 0.427999 6.94634 0.248 7.92234 0.248C9.02634 0.248 10.0823 0.408 11.0903 0.727999C12.0983 1.048 13.0103 1.46 13.8263 1.964C13.7863 2.508 13.5863 3.04 13.2263 3.56C12.8743 4.08 12.5023 4.468 12.1103 4.724C11.5263 4.332 10.8863 4.02 10.1903 3.788C9.50234 3.548 8.82234 3.428 8.15034 3.428C6.93434 3.428 5.97034 3.868 5.25834 4.748C4.54634 5.62 4.19034 7.016 4.19034 8.936C4.19034 10.808 4.53434 12.176 5.22234 13.04C5.91834 13.904 6.91034 14.336 8.19834 14.336C8.58234 14.336 8.94634 14.316 9.29034 14.276C9.63434 14.236 9.95834 14.188 10.2623 14.132V12.548ZM27.6095 7.796C27.6095 8.412 27.4695 8.96 27.1895 9.44C26.9095 9.92 26.5575 10.316 26.1335 10.628C25.7175 10.94 25.3015 11.14 24.8855 11.228C25.3175 11.372 25.6735 11.592 25.9535 11.888C26.2415 12.184 26.4895 12.564 26.6975 13.028L27.3215 14.456C27.4655 14.784 27.6295 15.088 27.8135 15.368C27.9975 15.64 28.2015 15.872 28.4255 16.064C28.1935 16.352 27.8455 16.62 27.3815 16.868C26.9175 17.108 26.4135 17.228 25.8695 17.228C25.3335 17.228 24.8975 17.1 24.5615 16.844C24.2335 16.58 23.9455 16.16 23.6975 15.584L22.6415 13.16C22.4735 12.768 22.2655 12.532 22.0175 12.452C21.7695 12.372 21.4495 12.332 21.0575 12.332H20.5895V17C20.2695 17.056 19.9375 17.092 19.5935 17.108C19.2575 17.132 18.9695 17.144 18.7295 17.144C18.5055 17.144 18.2095 17.132 17.8415 17.108C17.4735 17.092 17.1375 17.056 16.8335 17V3.896L16.9655 3.752C17.9335 3.728 18.8415 3.708 19.6895 3.692C20.5455 3.668 21.3975 3.656 22.2455 3.656C23.2055 3.656 24.0935 3.784 24.9095 4.04C25.7255 4.288 26.3775 4.716 26.8655 5.324C27.3615 5.924 27.6095 6.748 27.6095 7.796ZM20.5895 6.368V9.476C20.8695 9.468 21.1255 9.464 21.3575 9.464C21.5975 9.456 21.7735 9.452 21.8855 9.452C22.6055 9.452 23.0935 9.296 23.3495 8.984C23.6055 8.672 23.7335 8.308 23.7335 7.892C23.7335 7.484 23.6055 7.132 23.3495 6.836C23.0935 6.54 22.6655 6.392 22.0655 6.392C21.7775 6.392 21.5295 6.388 21.3215 6.38C21.1135 6.372 20.8695 6.368 20.5895 6.368ZM41.9935 12.044C41.9935 13.7 41.4975 15 40.5055 15.944C39.5215 16.888 38.0615 17.36 36.1255 17.36C34.1895 17.36 32.7255 16.888 31.7335 15.944C30.7495 15 30.2575 13.7 30.2575 12.044V3.776L30.4015 3.632H31.7695C32.4975 3.632 33.0575 3.816 33.4495 4.184C33.8495 4.552 34.0495 5.172 34.0495 6.044V12.032C34.0495 12.76 34.2015 13.332 34.5055 13.748C34.8095 14.164 35.3495 14.372 36.1255 14.372C36.9095 14.372 37.4495 14.164 37.7455 13.748C38.0415 13.332 38.1895 12.76 38.1895 12.032V3.776C38.5095 3.712 38.8375 3.672 39.1735 3.656C39.5095 3.64 39.8015 3.632 40.0495 3.632C40.2735 3.632 40.5775 3.644 40.9615 3.668C41.3455 3.684 41.6895 3.724 41.9935 3.788V12.044ZM55.7283 8.312C55.7283 9.352 55.4923 10.216 55.0203 10.904C54.5563 11.584 53.9163 12.092 53.1003 12.428C52.2843 12.756 51.3563 12.92 50.3163 12.92H49.0083V17C48.6883 17.056 48.3603 17.092 48.0243 17.108C47.6883 17.132 47.4003 17.144 47.1603 17.144C46.9363 17.144 46.6323 17.132 46.2483 17.108C45.8643 17.092 45.5203 17.056 45.2163 17V3.896L45.3483 3.752C45.9963 3.736 46.7763 3.716 47.6883 3.692C48.6003 3.668 49.4763 3.656 50.3163 3.656C51.3643 3.656 52.2963 3.816 53.1123 4.136C53.9283 4.456 54.5683 4.96 55.0323 5.648C55.4963 6.336 55.7283 7.224 55.7283 8.312ZM49.0083 6.464V10.136C49.2243 10.128 49.4203 10.124 49.5963 10.124C49.7723 10.116 49.9043 10.112 49.9923 10.112C50.5203 10.112 50.9163 10.016 51.1803 9.824C51.4523 9.624 51.6323 9.384 51.7203 9.104C51.8083 8.816 51.8523 8.544 51.8523 8.288C51.8523 8.048 51.8083 7.788 51.7203 7.508C51.6323 7.228 51.4523 6.988 51.1803 6.788C50.9163 6.588 50.5203 6.488 49.9923 6.488C49.7923 6.488 49.6483 6.488 49.5603 6.488C49.4723 6.48 49.2883 6.472 49.0083 6.464ZM57.0646 10.412C57.0646 8.268 57.6166 6.568 58.7206 5.312C59.8326 4.048 61.4526 3.416 63.5806 3.416C65.7406 3.416 67.3686 4.044 68.4646 5.3C69.5686 6.548 70.1206 8.252 70.1206 10.412C70.1206 12.572 69.5686 14.272 68.4646 15.512C67.3606 16.744 65.7326 17.36 63.5806 17.36C61.4206 17.36 59.7926 16.736 58.6966 15.488C57.6086 14.24 57.0646 12.548 57.0646 10.412ZM60.9406 10.412C60.9406 10.868 60.9686 11.34 61.0246 11.828C61.0886 12.308 61.2086 12.756 61.3846 13.172C61.5686 13.588 61.8366 13.928 62.1886 14.192C62.5406 14.448 63.0086 14.576 63.5926 14.576C64.1766 14.576 64.6446 14.448 64.9966 14.192C65.3486 13.928 65.6126 13.588 65.7886 13.172C65.9726 12.756 66.0926 12.308 66.1486 11.828C66.2126 11.34 66.2446 10.868 66.2446 10.412C66.2446 9.948 66.2126 9.472 66.1486 8.984C66.0926 8.488 65.9726 8.032 65.7886 7.616C65.6126 7.192 65.3486 6.852 64.9966 6.596C64.6446 6.332 64.1766 6.2 63.5926 6.2C63.0086 6.2 62.5406 6.332 62.1886 6.596C61.8366 6.852 61.5686 7.192 61.3846 7.616C61.2086 8.032 61.0886 8.488 61.0246 8.984C60.9686 9.472 60.9406 9.948 60.9406 10.412ZM81.2247 14.684C81.0967 14.684 80.9727 14.684 80.8527 14.684C80.7327 14.676 80.6127 14.668 80.4927 14.66L79.7487 17C79.5167 17.056 79.2647 17.096 78.9927 17.12C78.7207 17.152 78.4367 17.168 78.1407 17.168C77.8207 17.168 77.4967 17.144 77.1687 17.096C76.8487 17.048 76.5847 16.98 76.3767 16.892L76.2447 16.688L80.9127 3.776C81.3287 3.712 81.7287 3.672 82.1127 3.656C82.5047 3.64 82.8607 3.632 83.1807 3.632C83.4767 3.632 83.7967 3.64 84.1407 3.656C84.4847 3.672 84.8727 3.712 85.3047 3.776L89.8407 16.82C89.5607 16.948 89.2047 17.044 88.7727 17.108C88.3407 17.18 87.9927 17.216 87.7287 17.216C87.2887 17.216 86.8647 17.132 86.4567 16.964C86.0487 16.796 85.7407 16.352 85.5327 15.632L85.2327 14.66C85.1047 14.668 84.9807 14.676 84.8607 14.684C84.7407 14.684 84.6127 14.684 84.4767 14.684H81.2247ZM81.7047 10.892L81.4407 11.72C81.5607 11.712 81.6807 11.708 81.8007 11.708C81.9207 11.7 82.0447 11.696 82.1727 11.696H83.6727C83.7927 11.696 83.9007 11.7 83.9967 11.708C84.1007 11.708 84.2047 11.712 84.3087 11.72L84.0567 10.904C83.8727 10.272 83.6887 9.568 83.5047 8.792C83.3207 8.016 83.1527 7.312 83.0007 6.68H82.8567C82.6887 7.288 82.5007 7.984 82.2927 8.768C82.0927 9.552 81.8967 10.26 81.7047 10.892ZM101.005 13.928C100.957 15.096 100.753 15.912 100.393 16.376C100.033 16.84 99.3934 17.072 98.4734 17.072H93.8174C93.1294 17.072 92.5894 16.88 92.1974 16.496C91.8134 16.104 91.6214 15.58 91.6214 14.924V3.8L91.7654 3.656H93.2054C93.9334 3.656 94.4854 3.84 94.8614 4.208C95.2374 4.568 95.4254 5.172 95.4254 6.02V14.048C96.2494 13.968 96.9894 13.928 97.6454 13.928H101.005ZM107.549 10.412C107.549 8.268 108.101 6.568 109.205 5.312C110.317 4.048 111.937 3.416 114.065 3.416C116.225 3.416 117.853 4.044 118.949 5.3C120.053 6.548 120.605 8.252 120.605 10.412C120.605 11.7 120.373 12.852 119.909 13.868C119.445 14.884 118.765 15.648 117.869 16.16C118.501 16.688 119.089 16.988 119.633 17.06C120.185 17.14 120.633 17.192 120.977 17.216C120.929 18.096 120.661 18.76 120.173 19.208C119.685 19.656 119.109 19.88 118.445 19.88C118.117 19.88 117.733 19.82 117.293 19.7C116.861 19.58 116.401 19.28 115.913 18.8L114.341 17.348C114.317 17.356 114.289 17.36 114.257 17.36C112.017 17.36 110.337 16.752 109.217 15.536C108.105 14.32 107.549 12.612 107.549 10.412ZM111.425 10.412C111.425 10.868 111.453 11.34 111.509 11.828C111.573 12.308 111.693 12.756 111.869 13.172C112.053 13.588 112.321 13.928 112.673 14.192C113.025 14.448 113.493 14.576 114.077 14.576C114.661 14.576 115.129 14.448 115.481 14.192C115.833 13.928 116.097 13.588 116.273 13.172C116.457 12.756 116.577 12.308 116.633 11.828C116.697 11.34 116.729 10.868 116.729 10.412C116.729 9.948 116.697 9.472 116.633 8.984C116.577 8.488 116.457 8.032 116.273 7.616C116.097 7.192 115.833 6.852 115.481 6.596C115.129 6.332 114.661 6.2 114.077 6.2C113.493 6.2 113.025 6.332 112.673 6.596C112.321 6.852 112.053 7.192 111.869 7.616C111.693 8.032 111.573 8.488 111.509 8.984C111.453 9.472 111.425 9.948 111.425 10.412ZM134.642 12.044C134.642 13.7 134.146 15 133.154 15.944C132.17 16.888 130.71 17.36 128.774 17.36C126.838 17.36 125.374 16.888 124.382 15.944C123.398 15 122.906 13.7 122.906 12.044V3.776L123.05 3.632H124.418C125.146 3.632 125.706 3.816 126.098 4.184C126.498 4.552 126.698 5.172 126.698 6.044V12.032C126.698 12.76 126.85 13.332 127.154 13.748C127.458 14.164 127.998 14.372 128.774 14.372C129.558 14.372 130.098 14.164 130.394 13.748C130.69 13.332 130.838 12.76 130.838 12.032V3.776C131.158 3.712 131.486 3.672 131.822 3.656C132.158 3.64 132.45 3.632 132.698 3.632C132.922 3.632 133.226 3.644 133.61 3.668C133.994 3.684 134.338 3.724 134.642 3.788V12.044ZM147.933 13.988C147.933 15.132 147.753 15.928 147.393 16.376C147.041 16.824 146.441 17.048 145.593 17.048H140.061C139.381 17.048 138.845 16.856 138.453 16.472C138.061 16.08 137.865 15.556 137.865 14.9V3.908L137.997 3.776H147.489C147.545 4.048 147.577 4.308 147.585 4.556C147.593 4.804 147.597 5.04 147.597 5.264C147.597 5.48 147.573 5.724 147.525 5.996C147.485 6.268 147.413 6.544 147.309 6.824H143.109C142.773 6.824 142.265 6.82 141.585 6.812C141.593 7.06 141.597 7.272 141.597 7.448C141.605 7.624 141.609 7.836 141.609 8.084V8.876C142.273 8.868 142.773 8.864 143.109 8.864H146.181C146.261 9.08 146.313 9.328 146.337 9.608C146.369 9.88 146.385 10.112 146.385 10.304C146.385 10.528 146.369 10.78 146.337 11.06C146.313 11.332 146.261 11.58 146.181 11.804H143.109C142.957 11.804 142.745 11.804 142.473 11.804C142.201 11.804 141.913 11.804 141.609 11.804V12.584C141.609 12.88 141.605 13.124 141.597 13.316C141.589 13.508 141.585 13.748 141.585 14.036V14.06C141.865 14.044 142.125 14.028 142.365 14.012C142.605 13.996 142.897 13.988 143.241 13.988H147.933ZM154.534 16.004C154.534 15.7 154.594 15.364 154.714 14.996C154.834 14.62 154.998 14.272 155.206 13.952C155.414 13.632 155.642 13.392 155.89 13.232C156.482 13.552 157.142 13.828 157.87 14.06C158.598 14.284 159.31 14.396 160.006 14.396C160.454 14.396 160.822 14.304 161.11 14.12C161.406 13.936 161.554 13.676 161.554 13.34C161.554 13.124 161.47 12.928 161.302 12.752C161.134 12.568 160.842 12.4 160.426 12.248L158.434 11.468C157.818 11.244 157.242 10.964 156.706 10.628C156.17 10.292 155.738 9.88 155.41 9.392C155.082 8.904 154.918 8.32 154.918 7.64C154.918 6.392 155.398 5.376 156.358 4.592C157.318 3.808 158.61 3.416 160.234 3.416C161.154 3.416 162.066 3.524 162.97 3.74C163.882 3.948 164.646 4.188 165.262 4.46C165.262 5.004 165.15 5.54 164.926 6.068C164.702 6.596 164.394 7.012 164.002 7.316C163.41 7.052 162.766 6.832 162.07 6.656C161.374 6.472 160.746 6.38 160.186 6.38C159.77 6.38 159.45 6.468 159.226 6.644C159.01 6.82 158.902 7.032 158.902 7.28C158.902 7.512 159.01 7.688 159.226 7.808C159.442 7.928 159.71 8.048 160.03 8.168L162.01 8.924C163.114 9.324 163.99 9.876 164.638 10.58C165.294 11.276 165.622 12.136 165.622 13.16C165.622 14.064 165.378 14.828 164.89 15.452C164.41 16.076 163.75 16.548 162.91 16.868C162.078 17.188 161.138 17.352 160.09 17.36C158.842 17.36 157.73 17.216 156.754 16.928C155.786 16.64 155.046 16.332 154.534 16.004ZM178.026 13.988C178.026 15.132 177.846 15.928 177.486 16.376C177.134 16.824 176.534 17.048 175.686 17.048H170.154C169.474 17.048 168.938 16.856 168.546 16.472C168.154 16.08 167.958 15.556 167.958 14.9V3.908L168.09 3.776H177.582C177.638 4.048 177.67 4.308 177.678 4.556C177.686 4.804 177.69 5.04 177.69 5.264C177.69 5.48 177.666 5.724 177.618 5.996C177.578 6.268 177.506 6.544 177.402 6.824H173.202C172.866 6.824 172.358 6.82 171.678 6.812C171.686 7.06 171.69 7.272 171.69 7.448C171.698 7.624 171.702 7.836 171.702 8.084V8.876C172.366 8.868 172.866 8.864 173.202 8.864H176.274C176.354 9.08 176.406 9.328 176.43 9.608C176.462 9.88 176.478 10.112 176.478 10.304C176.478 10.528 176.462 10.78 176.43 11.06C176.406 11.332 176.354 11.58 176.274 11.804H173.202C173.05 11.804 172.838 11.804 172.566 11.804C172.294 11.804 172.006 11.804 171.702 11.804V12.584C171.702 12.88 171.698 13.124 171.69 13.316C171.682 13.508 171.678 13.748 171.678 14.036V14.06C171.958 14.044 172.218 14.028 172.458 14.012C172.698 13.996 172.99 13.988 173.334 13.988H178.026ZM186.752 3.776C187.136 3.704 187.556 3.656 188.012 3.632C188.468 3.6 188.852 3.584 189.164 3.584C189.46 3.584 189.844 3.6 190.316 3.632C190.788 3.656 191.184 3.704 191.504 3.776L192.68 8.984C192.752 9.296 192.836 9.72 192.932 10.256C193.028 10.784 193.124 11.352 193.22 11.96H193.376C193.568 10.68 193.748 9.688 193.916 8.984L195.08 3.776C195.456 3.704 195.868 3.656 196.316 3.632C196.764 3.6 197.136 3.584 197.432 3.584C197.744 3.584 198.132 3.6 198.596 3.632C199.06 3.656 199.476 3.704 199.844 3.776L201.2 16.952C200.68 17.08 200.052 17.144 199.316 17.144C199.036 17.144 198.736 17.132 198.416 17.108C198.104 17.084 197.824 17.048 197.576 17L197.228 12.752C197.188 12.208 197.164 11.612 197.156 10.964C197.148 10.316 197.148 9.684 197.156 9.068C197.164 8.444 197.164 7.904 197.156 7.448H197.012L195.248 14.972C194.976 15.02 194.644 15.056 194.252 15.08C193.86 15.096 193.536 15.104 193.28 15.104C193.016 15.104 192.688 15.096 192.296 15.08C191.912 15.056 191.592 15.02 191.336 14.972L189.584 7.448H189.416C189.416 7.912 189.416 8.452 189.416 9.068C189.424 9.684 189.424 10.316 189.416 10.964C189.408 11.612 189.38 12.216 189.332 12.776L189.02 17C188.764 17.048 188.484 17.084 188.18 17.108C187.884 17.132 187.596 17.144 187.316 17.144C186.572 17.144 185.932 17.08 185.396 16.952L186.752 3.776ZM215.642 12.044C215.642 13.7 215.146 15 214.154 15.944C213.17 16.888 211.71 17.36 209.774 17.36C207.838 17.36 206.374 16.888 205.382 15.944C204.398 15 203.906 13.7 203.906 12.044V3.776L204.05 3.632H205.418C206.146 3.632 206.706 3.816 207.098 4.184C207.498 4.552 207.698 5.172 207.698 6.044V12.032C207.698 12.76 207.85 13.332 208.154 13.748C208.458 14.164 208.998 14.372 209.774 14.372C210.558 14.372 211.098 14.164 211.394 13.748C211.69 13.332 211.838 12.76 211.838 12.032V3.776C212.158 3.712 212.486 3.672 212.822 3.656C213.158 3.64 213.45 3.632 213.698 3.632C213.922 3.632 214.226 3.644 214.61 3.668C214.994 3.684 215.338 3.724 215.642 3.788V12.044ZM228.933 13.988C228.933 15.132 228.753 15.928 228.393 16.376C228.041 16.824 227.441 17.048 226.593 17.048H221.061C220.381 17.048 219.845 16.856 219.453 16.472C219.061 16.08 218.865 15.556 218.865 14.9V3.908L218.997 3.776H228.489C228.545 4.048 228.577 4.308 228.585 4.556C228.593 4.804 228.597 5.04 228.597 5.264C228.597 5.48 228.573 5.724 228.525 5.996C228.485 6.268 228.413 6.544 228.309 6.824H224.109C223.773 6.824 223.265 6.82 222.585 6.812C222.593 7.06 222.597 7.272 222.597 7.448C222.605 7.624 222.609 7.836 222.609 8.084V8.876C223.273 8.868 223.773 8.864 224.109 8.864H227.181C227.261 9.08 227.313 9.328 227.337 9.608C227.369 9.88 227.385 10.112 227.385 10.304C227.385 10.528 227.369 10.78 227.337 11.06C227.313 11.332 227.261 11.58 227.181 11.804H224.109C223.957 11.804 223.745 11.804 223.473 11.804C223.201 11.804 222.913 11.804 222.609 11.804V12.584C222.609 12.88 222.605 13.124 222.597 13.316C222.589 13.508 222.585 13.748 222.585 14.036V14.06C222.865 14.044 223.125 14.028 223.365 14.012C223.605 13.996 223.897 13.988 224.241 13.988H228.933ZM239.308 3.776C239.596 3.712 239.848 3.672 240.064 3.656C240.288 3.64 240.516 3.632 240.748 3.632C241.036 3.632 241.336 3.648 241.648 3.68C241.968 3.712 242.308 3.78 242.668 3.884L242.836 4.064L238.9 17C238.54 17.056 238.068 17.092 237.484 17.108C236.9 17.132 236.368 17.144 235.888 17.144C235.256 17.144 234.72 17.044 234.28 16.844C233.848 16.636 233.536 16.188 233.344 15.5L229.924 4.04C230.252 3.904 230.596 3.8 230.956 3.728C231.324 3.648 231.7 3.608 232.084 3.608C232.66 3.608 233.108 3.744 233.428 4.016C233.756 4.28 234.016 4.74 234.208 5.396L235.492 9.692C235.676 10.34 235.84 11 235.984 11.672C236.136 12.344 236.284 13.104 236.428 13.952C236.46 14.088 236.54 14.156 236.668 14.156L239.308 3.776ZM254.714 13.988C254.714 15.132 254.534 15.928 254.174 16.376C253.822 16.824 253.222 17.048 252.374 17.048H246.842C246.162 17.048 245.626 16.856 245.234 16.472C244.842 16.08 244.646 15.556 244.646 14.9V3.908L244.778 3.776H254.27C254.326 4.048 254.358 4.308 254.366 4.556C254.374 4.804 254.378 5.04 254.378 5.264C254.378 5.48 254.354 5.724 254.306 5.996C254.266 6.268 254.194 6.544 254.09 6.824H249.89C249.554 6.824 249.046 6.82 248.366 6.812C248.374 7.06 248.378 7.272 248.378 7.448C248.386 7.624 248.39 7.836 248.39 8.084V8.876C249.054 8.868 249.554 8.864 249.89 8.864H252.962C253.042 9.08 253.094 9.328 253.118 9.608C253.15 9.88 253.166 10.112 253.166 10.304C253.166 10.528 253.15 10.78 253.118 11.06C253.094 11.332 253.042 11.58 252.962 11.804H249.89C249.738 11.804 249.526 11.804 249.254 11.804C248.982 11.804 248.694 11.804 248.39 11.804V12.584C248.39 12.88 248.386 13.124 248.378 13.316C248.37 13.508 248.366 13.748 248.366 14.036V14.06C248.646 14.044 248.906 14.028 249.146 14.012C249.386 13.996 249.678 13.988 250.022 13.988H254.714Z" fill="#364760"/>
</svg>
