<svg width="118" height="104" viewBox="0 0 118 104" fill="none" xmlns="http://www.w3.org/2000/svg">
<path d="M35 79.0899C36.0001 80.6797 81.5001 81.1797 83 79.0898C84.5 77 79.2697 33.9603 59 35.4535C39.6041 36.8823 34 77.5 35 79.0899Z" fill="#546886"/>
<path d="M50.2728 20.1808C54.3626 25.6339 63.6375 25.6339 67.7273 20.1808C70.7947 16.0909 70.7947 11.1797 67.7273 7.08985C63.6375 1.63671 54.3626 1.63671 50.2728 7.08985C47.2054 11.1797 47.2054 16.0909 50.2728 20.1808Z" fill="#546886"/>
<path d="M35 79.0899C36.0001 80.6797 81.5001 81.1797 83 79.0898C84.5 77 79.2697 33.9603 59 35.4535C39.6041 36.8823 34 77.5 35 79.0899Z" stroke="#1EBCBC" stroke-width="4.36364"/>
<path d="M50.2728 20.1808C54.3626 25.6339 63.6375 25.6339 67.7273 20.1808C70.7947 16.0909 70.7947 11.1797 67.7273 7.08985C63.6375 1.63671 54.3626 1.63671 50.2728 7.08985C47.2054 11.1797 47.2054 16.0909 50.2728 20.1808Z" stroke="#1EBCBC" stroke-width="4.36364"/>
<path d="M3 101.09L51 101.09C51 101.09 47.2697 55.9603 27 57.4535C7.60408 58.8823 3 101.09 3 101.09Z" fill="#546886"/>
<path d="M18.2727 42.1808C22.3626 47.6339 31.6374 47.6339 35.7273 42.1808C38.7947 38.0909 38.7947 33.1797 35.7273 29.0899C31.6374 23.6367 22.3626 23.6367 18.2727 29.0899C15.2053 33.1797 15.2053 38.0909 18.2727 42.1808Z" fill="#546886"/>
<path d="M3 101.09L51 101.09C51 101.09 47.2697 55.9603 27 57.4535C7.60408 58.8823 3 101.09 3 101.09Z" stroke="#1EBCBC" stroke-width="4.36364"/>
<path d="M18.2727 42.1808C22.3626 47.6339 31.6374 47.6339 35.7273 42.1808C38.7947 38.0909 38.7947 33.1797 35.7273 29.0899C31.6374 23.6367 22.3626 23.6367 18.2727 29.0899C15.2053 33.1797 15.2053 38.0909 18.2727 42.1808Z" stroke="#1EBCBC" stroke-width="4.36364"/>
<path d="M67 101.09L115 101.09C115 101.09 111.27 55.9603 91 57.4535C71.6041 58.8823 67 101.09 67 101.09Z" fill="#546886"/>
<path d="M82.2727 42.1808C86.3626 47.6339 95.6374 47.6339 99.7273 42.1808C102.795 38.0909 102.795 33.1797 99.7273 29.0899C95.6374 23.6367 86.3626 23.6367 82.2727 29.0899C79.2053 33.1797 79.2053 38.0909 82.2727 42.1808Z" fill="#546886"/>
<path d="M67 101.09L115 101.09C115 101.09 111.27 55.9603 91 57.4535C71.6041 58.8823 67 101.09 67 101.09Z" stroke="#1EBCBC" stroke-width="4.36364"/>
<path d="M82.2727 42.1808C86.3626 47.6339 95.6374 47.6339 99.7273 42.1808C102.795 38.0909 102.795 33.1797 99.7273 29.0899C95.6374 23.6367 86.3626 23.6367 82.2727 29.0899C79.2053 33.1797 79.2053 38.0909 82.2727 42.1808Z" stroke="#1EBCBC" stroke-width="4.36364"/>
</svg>
