<svg width="255" height="18" viewBox="0 0 255 18" fill="none" xmlns="http://www.w3.org/2000/svg">
<path d="M10.735 12.548C10.735 12.284 10.739 12.012 10.747 11.732C10.755 11.452 10.767 11.168 10.783 10.88H9.607C8.991 10.88 8.531 10.764 8.227 10.532C7.923 10.3 7.771 9.88 7.771 9.272C7.771 9.024 7.795 8.756 7.843 8.468C7.899 8.18 7.967 7.92 8.047 7.688H11.803C12.755 7.688 13.415 7.912 13.783 8.36C14.151 8.8 14.335 9.368 14.335 10.064V16.364C13.639 16.596 12.739 16.82 11.635 17.036C10.531 17.252 9.323 17.36 8.011 17.36C6.371 17.36 5.011 17.016 3.931 16.328C2.859 15.64 2.059 14.664 1.531 13.4C1.003 12.136 0.739 10.64 0.739 8.912C0.739 7.456 0.951 6.188 1.375 5.108C1.799 4.02 2.375 3.12 3.103 2.408C3.831 1.688 4.651 1.148 5.563 0.787999C6.475 0.427999 7.419 0.248 8.395 0.248C9.499 0.248 10.555 0.408 11.563 0.727999C12.571 1.048 13.483 1.46 14.299 1.964C14.259 2.508 14.059 3.04 13.699 3.56C13.347 4.08 12.975 4.468 12.583 4.724C11.999 4.332 11.359 4.02 10.663 3.788C9.975 3.548 9.295 3.428 8.623 3.428C7.407 3.428 6.443 3.868 5.731 4.748C5.019 5.62 4.663 7.016 4.663 8.936C4.663 10.808 5.007 12.176 5.695 13.04C6.391 13.904 7.383 14.336 8.671 14.336C9.055 14.336 9.419 14.316 9.763 14.276C10.107 14.236 10.431 14.188 10.735 14.132V12.548ZM28.0821 7.796C28.0821 8.412 27.9421 8.96 27.6621 9.44C27.3821 9.92 27.0301 10.316 26.6061 10.628C26.1901 10.94 25.7741 11.14 25.3581 11.228C25.7901 11.372 26.1461 11.592 26.4261 11.888C26.7141 12.184 26.9621 12.564 27.1701 13.028L27.7941 14.456C27.9381 14.784 28.1021 15.088 28.2861 15.368C28.4701 15.64 28.6741 15.872 28.8981 16.064C28.6661 16.352 28.3181 16.62 27.8541 16.868C27.3901 17.108 26.8861 17.228 26.3421 17.228C25.8061 17.228 25.3701 17.1 25.0341 16.844C24.7061 16.58 24.4181 16.16 24.1701 15.584L23.1141 13.16C22.9461 12.768 22.7381 12.532 22.4901 12.452C22.2421 12.372 21.9221 12.332 21.5301 12.332H21.0621V17C20.7421 17.056 20.4101 17.092 20.0661 17.108C19.7301 17.132 19.4421 17.144 19.2021 17.144C18.9781 17.144 18.6821 17.132 18.3141 17.108C17.9461 17.092 17.6101 17.056 17.3061 17V3.896L17.4381 3.752C18.4061 3.728 19.3141 3.708 20.1621 3.692C21.0181 3.668 21.8701 3.656 22.7181 3.656C23.6781 3.656 24.5661 3.784 25.3821 4.04C26.1981 4.288 26.8501 4.716 27.3381 5.324C27.8341 5.924 28.0821 6.748 28.0821 7.796ZM21.0621 6.368V9.476C21.3421 9.468 21.5981 9.464 21.8301 9.464C22.0701 9.456 22.2461 9.452 22.3581 9.452C23.0781 9.452 23.5661 9.296 23.8221 8.984C24.0781 8.672 24.2061 8.308 24.2061 7.892C24.2061 7.484 24.0781 7.132 23.8221 6.836C23.5661 6.54 23.1381 6.392 22.5381 6.392C22.2501 6.392 22.0021 6.388 21.7941 6.38C21.5861 6.372 21.3421 6.368 21.0621 6.368ZM42.4662 12.044C42.4662 13.7 41.9702 15 40.9782 15.944C39.9942 16.888 38.5342 17.36 36.5982 17.36C34.6622 17.36 33.1982 16.888 32.2062 15.944C31.2222 15 30.7302 13.7 30.7302 12.044V3.776L30.8742 3.632H32.2422C32.9702 3.632 33.5302 3.816 33.9222 4.184C34.3222 4.552 34.5222 5.172 34.5222 6.044V12.032C34.5222 12.76 34.6742 13.332 34.9782 13.748C35.2822 14.164 35.8222 14.372 36.5982 14.372C37.3822 14.372 37.9222 14.164 38.2182 13.748C38.5142 13.332 38.6622 12.76 38.6622 12.032V3.776C38.9822 3.712 39.3102 3.672 39.6462 3.656C39.9822 3.64 40.2742 3.632 40.5222 3.632C40.7462 3.632 41.0502 3.644 41.4342 3.668C41.8182 3.684 42.1622 3.724 42.4662 3.788V12.044ZM56.2009 8.312C56.2009 9.352 55.9649 10.216 55.4929 10.904C55.0289 11.584 54.3889 12.092 53.5729 12.428C52.7569 12.756 51.8289 12.92 50.7889 12.92H49.4809V17C49.1609 17.056 48.8329 17.092 48.4969 17.108C48.1609 17.132 47.8729 17.144 47.6329 17.144C47.4089 17.144 47.1049 17.132 46.7209 17.108C46.3369 17.092 45.9929 17.056 45.6889 17V3.896L45.8209 3.752C46.4689 3.736 47.2489 3.716 48.1609 3.692C49.0729 3.668 49.9489 3.656 50.7889 3.656C51.8369 3.656 52.7689 3.816 53.5849 4.136C54.4009 4.456 55.0409 4.96 55.5049 5.648C55.9689 6.336 56.2009 7.224 56.2009 8.312ZM49.4809 6.464V10.136C49.6969 10.128 49.8929 10.124 50.0689 10.124C50.2449 10.116 50.3769 10.112 50.4649 10.112C50.9929 10.112 51.3889 10.016 51.6529 9.824C51.9249 9.624 52.1049 9.384 52.1929 9.104C52.2809 8.816 52.3249 8.544 52.3249 8.288C52.3249 8.048 52.2809 7.788 52.1929 7.508C52.1049 7.228 51.9249 6.988 51.6529 6.788C51.3889 6.588 50.9929 6.488 50.4649 6.488C50.2649 6.488 50.1209 6.488 50.0329 6.488C49.9449 6.48 49.7609 6.472 49.4809 6.464ZM57.5373 10.412C57.5373 8.268 58.0893 6.568 59.1933 5.312C60.3053 4.048 61.9253 3.416 64.0533 3.416C66.2133 3.416 67.8413 4.044 68.9373 5.3C70.0413 6.548 70.5933 8.252 70.5933 10.412C70.5933 12.572 70.0413 14.272 68.9373 15.512C67.8333 16.744 66.2053 17.36 64.0533 17.36C61.8933 17.36 60.2653 16.736 59.1693 15.488C58.0813 14.24 57.5373 12.548 57.5373 10.412ZM61.4133 10.412C61.4133 10.868 61.4413 11.34 61.4973 11.828C61.5613 12.308 61.6813 12.756 61.8573 13.172C62.0413 13.588 62.3093 13.928 62.6613 14.192C63.0133 14.448 63.4813 14.576 64.0653 14.576C64.6493 14.576 65.1173 14.448 65.4693 14.192C65.8213 13.928 66.0853 13.588 66.2613 13.172C66.4453 12.756 66.5653 12.308 66.6213 11.828C66.6853 11.34 66.7173 10.868 66.7173 10.412C66.7173 9.948 66.6853 9.472 66.6213 8.984C66.5653 8.488 66.4453 8.032 66.2613 7.616C66.0853 7.192 65.8213 6.852 65.4693 6.596C65.1173 6.332 64.6493 6.2 64.0653 6.2C63.4813 6.2 63.0133 6.332 62.6613 6.596C62.3093 6.852 62.0413 7.192 61.8573 7.616C61.6813 8.032 61.5613 8.488 61.4973 8.984C61.4413 9.472 61.4133 9.948 61.4133 10.412ZM90.3974 10.412C90.3974 12.652 89.8734 14.328 88.8254 15.44C87.7774 16.544 86.1254 17.096 83.8694 17.096C82.9174 17.096 82.0134 17.088 81.1574 17.072C80.3094 17.064 79.4134 17.048 78.4694 17.024L78.3374 16.88V3.896L78.4694 3.752C79.4214 3.728 80.3214 3.708 81.1694 3.692C82.0174 3.668 82.9174 3.656 83.8694 3.656C86.1014 3.656 87.7454 4.236 88.8014 5.396C89.8654 6.548 90.3974 8.22 90.3974 10.412ZM86.5334 10.412C86.5334 9.828 86.4734 9.244 86.3534 8.66C86.2334 8.068 85.9814 7.572 85.5974 7.172C85.2134 6.772 84.6374 6.572 83.8694 6.572C83.5174 6.572 83.2134 6.572 82.9574 6.572C82.7094 6.564 82.4214 6.556 82.0934 6.548V14.228C82.4374 14.228 82.7294 14.224 82.9694 14.216C83.2174 14.208 83.5174 14.204 83.8694 14.204C84.6374 14.204 85.2134 14.008 85.5974 13.616C85.9814 13.216 86.2334 12.724 86.3534 12.14C86.4734 11.556 86.5334 10.98 86.5334 10.412ZM102.96 13.988C102.96 15.132 102.78 15.928 102.42 16.376C102.068 16.824 101.468 17.048 100.62 17.048H95.0881C94.4081 17.048 93.8721 16.856 93.4801 16.472C93.0881 16.08 92.8921 15.556 92.8921 14.9V3.908L93.0241 3.776H102.516C102.572 4.048 102.604 4.308 102.612 4.556C102.62 4.804 102.624 5.04 102.624 5.264C102.624 5.48 102.6 5.724 102.552 5.996C102.512 6.268 102.44 6.544 102.336 6.824H98.1361C97.8001 6.824 97.2921 6.82 96.6121 6.812C96.6201 7.06 96.6241 7.272 96.6241 7.448C96.6321 7.624 96.6361 7.836 96.6361 8.084V8.876C97.3001 8.868 97.8001 8.864 98.1361 8.864H101.208C101.288 9.08 101.34 9.328 101.364 9.608C101.396 9.88 101.412 10.112 101.412 10.304C101.412 10.528 101.396 10.78 101.364 11.06C101.34 11.332 101.288 11.58 101.208 11.804H98.1361C97.9841 11.804 97.7721 11.804 97.5001 11.804C97.2281 11.804 96.9401 11.804 96.6361 11.804V12.584C96.6361 12.88 96.6321 13.124 96.6241 13.316C96.6161 13.508 96.6121 13.748 96.6121 14.036V14.06C96.8921 14.044 97.1521 14.028 97.3921 14.012C97.6321 13.996 97.9241 13.988 98.2681 13.988H102.96ZM122.557 6.176C122.557 7.432 122.301 8.484 121.789 9.332C121.285 10.172 120.589 10.804 119.701 11.228C118.821 11.652 117.813 11.864 116.677 11.864H114.793V17C114.473 17.056 114.133 17.092 113.773 17.108C113.421 17.132 113.117 17.144 112.861 17.144C112.629 17.144 112.329 17.132 111.961 17.108C111.593 17.092 111.253 17.056 110.941 17V0.727999L111.109 0.559999C112.133 0.535999 113.089 0.515999 113.977 0.499999C114.873 0.475999 115.773 0.464 116.677 0.464C117.813 0.464 118.821 0.671999 119.701 1.088C120.589 1.496 121.285 2.124 121.789 2.972C122.301 3.812 122.557 4.88 122.557 6.176ZM114.793 3.392V8.984C115.129 8.976 115.441 8.968 115.729 8.96C116.025 8.952 116.233 8.948 116.353 8.948C116.993 8.948 117.477 8.796 117.805 8.492C118.133 8.188 118.353 7.824 118.465 7.4C118.577 6.968 118.633 6.56 118.633 6.176C118.633 5.8 118.577 5.4 118.465 4.976C118.353 4.544 118.133 4.176 117.805 3.872C117.477 3.568 116.993 3.416 116.353 3.416C116.113 3.416 115.873 3.416 115.633 3.416C115.393 3.408 115.113 3.4 114.793 3.392ZM135.731 7.796C135.731 8.412 135.591 8.96 135.311 9.44C135.031 9.92 134.679 10.316 134.255 10.628C133.839 10.94 133.423 11.14 133.007 11.228C133.439 11.372 133.795 11.592 134.075 11.888C134.363 12.184 134.611 12.564 134.819 13.028L135.443 14.456C135.587 14.784 135.751 15.088 135.935 15.368C136.119 15.64 136.323 15.872 136.547 16.064C136.315 16.352 135.967 16.62 135.503 16.868C135.039 17.108 134.535 17.228 133.991 17.228C133.455 17.228 133.019 17.1 132.683 16.844C132.355 16.58 132.067 16.16 131.819 15.584L130.763 13.16C130.595 12.768 130.387 12.532 130.139 12.452C129.891 12.372 129.571 12.332 129.179 12.332H128.711V17C128.391 17.056 128.059 17.092 127.715 17.108C127.379 17.132 127.091 17.144 126.851 17.144C126.627 17.144 126.331 17.132 125.963 17.108C125.595 17.092 125.259 17.056 124.955 17V3.896L125.087 3.752C126.055 3.728 126.963 3.708 127.811 3.692C128.667 3.668 129.519 3.656 130.367 3.656C131.327 3.656 132.215 3.784 133.031 4.04C133.847 4.288 134.499 4.716 134.987 5.324C135.483 5.924 135.731 6.748 135.731 7.796ZM128.711 6.368V9.476C128.991 9.468 129.247 9.464 129.479 9.464C129.719 9.456 129.895 9.452 130.007 9.452C130.727 9.452 131.215 9.296 131.471 8.984C131.727 8.672 131.855 8.308 131.855 7.892C131.855 7.484 131.727 7.132 131.471 6.836C131.215 6.54 130.787 6.392 130.187 6.392C129.899 6.392 129.651 6.388 129.443 6.38C129.235 6.372 128.991 6.368 128.711 6.368ZM137.506 10.412C137.506 8.268 138.058 6.568 139.162 5.312C140.274 4.048 141.894 3.416 144.022 3.416C146.182 3.416 147.81 4.044 148.906 5.3C150.01 6.548 150.562 8.252 150.562 10.412C150.562 12.572 150.01 14.272 148.906 15.512C147.802 16.744 146.174 17.36 144.022 17.36C141.862 17.36 140.234 16.736 139.138 15.488C138.05 14.24 137.506 12.548 137.506 10.412ZM141.382 10.412C141.382 10.868 141.41 11.34 141.466 11.828C141.53 12.308 141.65 12.756 141.826 13.172C142.01 13.588 142.278 13.928 142.63 14.192C142.982 14.448 143.45 14.576 144.034 14.576C144.618 14.576 145.086 14.448 145.438 14.192C145.79 13.928 146.054 13.588 146.23 13.172C146.414 12.756 146.534 12.308 146.59 11.828C146.654 11.34 146.686 10.868 146.686 10.412C146.686 9.948 146.654 9.472 146.59 8.984C146.534 8.488 146.414 8.032 146.23 7.616C146.054 7.192 145.79 6.852 145.438 6.596C145.086 6.332 144.618 6.2 144.034 6.2C143.45 6.2 142.982 6.332 142.63 6.596C142.278 6.852 142.01 7.192 141.826 7.616C141.65 8.032 141.53 8.488 141.466 8.984C141.41 9.472 141.382 9.948 141.382 10.412ZM160.353 9.764C160.353 8.748 160.217 7.932 159.945 7.316C159.673 6.692 159.125 6.38 158.301 6.38C157.445 6.38 156.837 6.732 156.477 7.436C156.117 8.14 155.937 9.152 155.937 10.472C155.937 11.48 156.065 12.256 156.321 12.8C156.585 13.336 156.921 13.708 157.329 13.916C157.737 14.124 158.169 14.228 158.625 14.228C159.217 14.228 159.809 14.1 160.401 13.844C161.001 13.58 161.537 13.272 162.009 12.92C162.265 13.048 162.513 13.252 162.753 13.532C162.993 13.812 163.201 14.112 163.377 14.432C163.553 14.752 163.665 15.044 163.713 15.308C163.049 15.876 162.241 16.36 161.289 16.76C160.345 17.16 159.269 17.36 158.061 17.36C156.901 17.36 155.933 17.156 155.157 16.748C154.389 16.34 153.777 15.804 153.321 15.14C152.865 14.468 152.541 13.724 152.349 12.908C152.157 12.092 152.061 11.272 152.061 10.448C152.061 8.808 152.357 7.472 152.949 6.44C153.549 5.4 154.333 4.636 155.301 4.148C156.277 3.66 157.321 3.416 158.433 3.416C159.681 3.416 160.709 3.636 161.517 4.076C162.325 4.516 162.925 5.072 163.317 5.744C163.709 6.416 163.905 7.108 163.905 7.82C163.905 9.188 163.137 9.872 161.601 9.872C161.417 9.872 161.217 9.86 161.001 9.836C160.785 9.812 160.569 9.788 160.353 9.764ZM176.296 13.988C176.296 15.132 176.116 15.928 175.756 16.376C175.404 16.824 174.804 17.048 173.956 17.048H168.424C167.744 17.048 167.208 16.856 166.816 16.472C166.424 16.08 166.228 15.556 166.228 14.9V3.908L166.36 3.776H175.852C175.908 4.048 175.94 4.308 175.948 4.556C175.956 4.804 175.96 5.04 175.96 5.264C175.96 5.48 175.936 5.724 175.888 5.996C175.848 6.268 175.776 6.544 175.672 6.824H171.472C171.136 6.824 170.628 6.82 169.948 6.812C169.956 7.06 169.96 7.272 169.96 7.448C169.968 7.624 169.972 7.836 169.972 8.084V8.876C170.636 8.868 171.136 8.864 171.472 8.864H174.544C174.624 9.08 174.676 9.328 174.7 9.608C174.732 9.88 174.748 10.112 174.748 10.304C174.748 10.528 174.732 10.78 174.7 11.06C174.676 11.332 174.624 11.58 174.544 11.804H171.472C171.32 11.804 171.108 11.804 170.836 11.804C170.564 11.804 170.276 11.804 169.972 11.804V12.584C169.972 12.88 169.968 13.124 169.96 13.316C169.952 13.508 169.948 13.748 169.948 14.036V14.06C170.228 14.044 170.488 14.028 170.728 14.012C170.968 13.996 171.26 13.988 171.604 13.988H176.296ZM190.968 10.412C190.968 12.652 190.444 14.328 189.396 15.44C188.348 16.544 186.696 17.096 184.44 17.096C183.488 17.096 182.584 17.088 181.728 17.072C180.88 17.064 179.984 17.048 179.04 17.024L178.908 16.88V3.896L179.04 3.752C179.992 3.728 180.892 3.708 181.74 3.692C182.588 3.668 183.488 3.656 184.44 3.656C186.672 3.656 188.316 4.236 189.372 5.396C190.436 6.548 190.968 8.22 190.968 10.412ZM187.104 10.412C187.104 9.828 187.044 9.244 186.924 8.66C186.804 8.068 186.552 7.572 186.168 7.172C185.784 6.772 185.208 6.572 184.44 6.572C184.088 6.572 183.784 6.572 183.528 6.572C183.28 6.564 182.992 6.556 182.664 6.548V14.228C183.008 14.228 183.3 14.224 183.54 14.216C183.788 14.208 184.088 14.204 184.44 14.204C185.208 14.204 185.784 14.008 186.168 13.616C186.552 13.216 186.804 12.724 186.924 12.14C187.044 11.556 187.104 10.98 187.104 10.412ZM203.53 13.988C203.53 15.132 203.35 15.928 202.99 16.376C202.638 16.824 202.038 17.048 201.19 17.048H195.658C194.978 17.048 194.442 16.856 194.05 16.472C193.658 16.08 193.462 15.556 193.462 14.9V3.908L193.594 3.776H203.086C203.142 4.048 203.174 4.308 203.182 4.556C203.19 4.804 203.194 5.04 203.194 5.264C203.194 5.48 203.17 5.724 203.122 5.996C203.082 6.268 203.01 6.544 202.906 6.824H198.706C198.37 6.824 197.862 6.82 197.182 6.812C197.19 7.06 197.194 7.272 197.194 7.448C197.202 7.624 197.206 7.836 197.206 8.084V8.876C197.87 8.868 198.37 8.864 198.706 8.864H201.778C201.858 9.08 201.91 9.328 201.934 9.608C201.966 9.88 201.982 10.112 201.982 10.304C201.982 10.528 201.966 10.78 201.934 11.06C201.91 11.332 201.858 11.58 201.778 11.804H198.706C198.554 11.804 198.342 11.804 198.07 11.804C197.798 11.804 197.51 11.804 197.206 11.804V12.584C197.206 12.88 197.202 13.124 197.194 13.316C197.186 13.508 197.182 13.748 197.182 14.036V14.06C197.462 14.044 197.722 14.028 197.962 14.012C198.202 13.996 198.494 13.988 198.838 13.988H203.53ZM210.798 10.964C210.742 10.836 210.654 10.636 210.534 10.364C210.414 10.084 210.286 9.784 210.15 9.464C210.014 9.144 209.886 8.844 209.766 8.564C209.654 8.284 209.566 8.08 209.502 7.952L209.418 7.988C209.45 8.62 209.482 9.304 209.514 10.04C209.546 10.768 209.57 11.436 209.586 12.044C209.61 12.644 209.622 13.08 209.622 13.352V17C209.31 17.056 209.01 17.092 208.722 17.108C208.434 17.132 208.166 17.144 207.918 17.144C207.694 17.144 207.414 17.132 207.078 17.108C206.75 17.092 206.438 17.056 206.142 17V3.86C206.438 3.788 206.806 3.732 207.246 3.692C207.686 3.652 208.026 3.632 208.266 3.632C208.514 3.632 208.866 3.64 209.322 3.656C209.778 3.664 210.154 3.704 210.45 3.776L213.27 9.788C213.326 9.9 213.418 10.104 213.546 10.4C213.682 10.696 213.826 11.02 213.978 11.372C214.13 11.724 214.27 12.056 214.398 12.368C214.534 12.672 214.634 12.896 214.698 13.04L214.806 13.016C214.774 12.488 214.73 11.872 214.674 11.168C214.626 10.464 214.582 9.784 214.542 9.128C214.502 8.472 214.482 7.948 214.482 7.556V5.684C214.482 4.836 214.666 4.28 215.034 4.016C215.402 3.744 215.95 3.608 216.678 3.608H217.914L218.058 3.776V16.928C217.746 17 217.37 17.052 216.93 17.084C216.49 17.124 216.154 17.144 215.922 17.144C215.762 17.144 215.542 17.14 215.262 17.132C214.982 17.124 214.694 17.112 214.398 17.096C214.11 17.08 213.87 17.048 213.678 17L210.798 10.964ZM228.837 9.764C228.837 8.748 228.701 7.932 228.429 7.316C228.157 6.692 227.609 6.38 226.785 6.38C225.929 6.38 225.321 6.732 224.961 7.436C224.601 8.14 224.421 9.152 224.421 10.472C224.421 11.48 224.549 12.256 224.805 12.8C225.069 13.336 225.405 13.708 225.813 13.916C226.221 14.124 226.653 14.228 227.109 14.228C227.701 14.228 228.293 14.1 228.885 13.844C229.485 13.58 230.021 13.272 230.493 12.92C230.749 13.048 230.997 13.252 231.237 13.532C231.477 13.812 231.685 14.112 231.861 14.432C232.037 14.752 232.149 15.044 232.197 15.308C231.533 15.876 230.725 16.36 229.773 16.76C228.829 17.16 227.753 17.36 226.545 17.36C225.385 17.36 224.417 17.156 223.641 16.748C222.873 16.34 222.261 15.804 221.805 15.14C221.349 14.468 221.025 13.724 220.833 12.908C220.641 12.092 220.545 11.272 220.545 10.448C220.545 8.808 220.841 7.472 221.433 6.44C222.033 5.4 222.817 4.636 223.785 4.148C224.761 3.66 225.805 3.416 226.917 3.416C228.165 3.416 229.193 3.636 230.001 4.076C230.809 4.516 231.409 5.072 231.801 5.744C232.193 6.416 232.389 7.108 232.389 7.82C232.389 9.188 231.621 9.872 230.085 9.872C229.901 9.872 229.701 9.86 229.485 9.836C229.269 9.812 229.053 9.788 228.837 9.764ZM234.76 3.776C235.064 3.712 235.408 3.672 235.792 3.656C236.176 3.64 236.48 3.632 236.704 3.632C236.944 3.632 237.232 3.64 237.568 3.656C237.912 3.672 238.244 3.712 238.564 3.776V17C238.244 17.056 237.912 17.092 237.568 17.108C237.232 17.132 236.944 17.144 236.704 17.144C236.48 17.144 236.176 17.132 235.792 17.108C235.408 17.092 235.064 17.056 234.76 17V3.776ZM245.408 14.684C245.28 14.684 245.156 14.684 245.036 14.684C244.916 14.676 244.796 14.668 244.676 14.66L243.932 17C243.7 17.056 243.448 17.096 243.176 17.12C242.904 17.152 242.62 17.168 242.324 17.168C242.004 17.168 241.68 17.144 241.352 17.096C241.032 17.048 240.768 16.98 240.56 16.892L240.428 16.688L245.096 3.776C245.512 3.712 245.912 3.672 246.296 3.656C246.688 3.64 247.044 3.632 247.364 3.632C247.66 3.632 247.98 3.64 248.324 3.656C248.668 3.672 249.056 3.712 249.488 3.776L254.024 16.82C253.744 16.948 253.388 17.044 252.956 17.108C252.524 17.18 252.176 17.216 251.912 17.216C251.472 17.216 251.048 17.132 250.64 16.964C250.232 16.796 249.924 16.352 249.716 15.632L249.416 14.66C249.288 14.668 249.164 14.676 249.044 14.684C248.924 14.684 248.796 14.684 248.66 14.684H245.408ZM245.888 10.892L245.624 11.72C245.744 11.712 245.864 11.708 245.984 11.708C246.104 11.7 246.228 11.696 246.356 11.696H247.856C247.976 11.696 248.084 11.7 248.18 11.708C248.284 11.708 248.388 11.712 248.492 11.72L248.24 10.904C248.056 10.272 247.872 9.568 247.688 8.792C247.504 8.016 247.336 7.312 247.184 6.68H247.04C246.872 7.288 246.684 7.984 246.476 8.768C246.276 9.552 246.08 10.26 245.888 10.892Z" fill="#364760"/>
</svg>
