<svg width="199" height="25" viewBox="0 0 199 25" fill="none" xmlns="http://www.w3.org/2000/svg">
<path d="M0.641091 0.873522C1.08127 0.794516 1.56096 0.743725 2.08015 0.721151C2.59934 0.687291 3.02823 0.670362 3.36683 0.670362C3.72801 0.670362 4.1569 0.687291 4.65352 0.721151C5.15013 0.743725 5.62418 0.794516 6.07564 0.873522V24C5.62418 24.079 5.15013 24.1298 4.65352 24.1524C4.1569 24.1862 3.72801 24.2032 3.36683 24.2032C3.02823 24.2032 2.59934 24.1862 2.08015 24.1524C1.56096 24.1298 1.08127 24.079 0.641091 24V0.873522ZM28.1993 14.7054C28.1993 17.8657 27.46 20.2302 25.9814 21.7991C24.5029 23.3567 22.1722 24.1354 18.9893 24.1354C17.6462 24.1354 16.3708 24.1242 15.1631 24.1016C13.9667 24.0903 12.7026 24.0677 11.3708 24.0339L11.1846 23.8307V5.51236L11.3708 5.3092C12.7139 5.27534 13.9837 5.24712 15.1801 5.22455C16.3764 5.19069 17.6462 5.17376 18.9893 5.17376C22.1383 5.17376 24.4577 5.99205 25.9476 7.62862C27.4487 9.25391 28.1993 11.6128 28.1993 14.7054ZM22.7478 14.7054C22.7478 13.8815 22.6631 13.0575 22.4938 12.2336C22.3245 11.3984 21.969 10.6986 21.4273 10.1343C20.8855 9.56994 20.0728 9.28777 18.9893 9.28777C18.4927 9.28777 18.0638 9.28777 17.7026 9.28777C17.3527 9.27648 16.9464 9.26519 16.4837 9.25391V20.0892C16.969 20.0892 17.381 20.0835 17.7196 20.0722C18.0695 20.0609 18.4927 20.0553 18.9893 20.0553C20.0728 20.0553 20.8855 19.7788 21.4273 19.2257C21.969 18.6614 22.3245 17.9673 22.4938 17.1433C22.6631 16.3194 22.7478 15.5067 22.7478 14.7054ZM56.1736 14.7054C56.1736 17.8657 55.4343 20.2302 53.9557 21.7991C52.4772 23.3567 50.1465 24.1354 46.9636 24.1354C45.6205 24.1354 44.3451 24.1242 43.1374 24.1016C41.941 24.0903 40.6769 24.0677 39.3451 24.0339L39.1589 23.8307V5.51236L39.3451 5.3092C40.6882 5.27534 41.958 5.24712 43.1544 5.22455C44.3507 5.19069 45.6205 5.17376 46.9636 5.17376C50.1126 5.17376 52.432 5.99205 53.9219 7.62862C55.423 9.25391 56.1736 11.6128 56.1736 14.7054ZM50.7221 14.7054C50.7221 13.8815 50.6374 13.0575 50.4681 12.2336C50.2988 11.3984 49.9433 10.6986 49.4015 10.1343C48.8598 9.56994 48.0471 9.28777 46.9636 9.28777C46.467 9.28777 46.0381 9.28777 45.6769 9.28777C45.327 9.27648 44.9207 9.26519 44.458 9.25391V20.0892C44.9433 20.0892 45.3553 20.0835 45.6939 20.0722C46.0438 20.0609 46.467 20.0553 46.9636 20.0553C48.0471 20.0553 48.8598 19.7788 49.4015 19.2257C49.9433 18.6614 50.2988 17.9673 50.4681 17.1433C50.6374 16.3194 50.7221 15.5067 50.7221 14.7054ZM73.8975 19.7506C73.8975 21.3646 73.6436 22.4876 73.1357 23.1196C72.639 23.7517 71.7925 24.0677 70.5961 24.0677H62.7914C61.832 24.0677 61.0758 23.7968 60.5228 23.2551C59.9697 22.702 59.6932 21.9627 59.6932 21.0372V5.52929L59.8794 5.34306H73.2711C73.3501 5.72681 73.3953 6.09363 73.4065 6.44352C73.4178 6.7934 73.4235 7.12636 73.4235 7.44239C73.4235 7.74713 73.3896 8.09138 73.3219 8.47512C73.2655 8.85887 73.1639 9.24826 73.0171 9.6433H67.0916C66.6176 9.6433 65.9009 9.63766 64.9415 9.62637C64.9528 9.97626 64.9584 10.2754 64.9584 10.5237C64.9697 10.772 64.9754 11.0711 64.9754 11.421V12.5383C65.9122 12.5271 66.6176 12.5214 67.0916 12.5214H71.4257C71.5386 12.8262 71.6119 13.176 71.6458 13.5711C71.691 13.9548 71.7135 14.2821 71.7135 14.553C71.7135 14.869 71.691 15.2246 71.6458 15.6196C71.6119 16.0034 71.5386 16.3533 71.4257 16.6693H67.0916C66.8772 16.6693 66.5781 16.6693 66.1943 16.6693C65.8106 16.6693 65.4043 16.6693 64.9754 16.6693V17.7697C64.9754 18.1873 64.9697 18.5316 64.9584 18.8025C64.9471 19.0733 64.9415 19.412 64.9415 19.8183V19.8521C65.3365 19.8296 65.7034 19.807 66.042 19.7844C66.3806 19.7618 66.7925 19.7506 67.2779 19.7506H73.8975ZM90.7538 19.6659C90.6861 21.3138 90.3982 22.465 89.8903 23.1196C89.3824 23.7743 88.4795 24.1016 87.1815 24.1016H80.6127C79.642 24.1016 78.8802 23.8307 78.3271 23.2889C77.7853 22.7359 77.5145 21.9966 77.5145 21.0711V5.37692L77.7176 5.17376H79.7492C80.7763 5.17376 81.5551 5.43335 82.0856 5.95254C82.6161 6.46045 82.8813 7.31259 82.8813 8.50898V19.8352C84.0438 19.7223 85.0878 19.6659 86.0134 19.6659H90.7538ZM114.241 17.7189C114.241 17.3465 114.246 16.9627 114.258 16.5677C114.269 16.1727 114.286 15.772 114.309 15.3657H112.649C111.78 15.3657 111.131 15.202 110.702 14.8747C110.274 14.5474 110.059 13.9548 110.059 13.097C110.059 12.7471 110.093 12.369 110.161 11.9627C110.24 11.5564 110.336 11.1896 110.448 10.8623H115.748C117.091 10.8623 118.022 11.1783 118.541 11.8103C119.06 12.4311 119.32 13.2325 119.32 14.2144V23.1027C118.338 23.43 117.068 23.746 115.511 24.0508C113.953 24.3555 112.249 24.5079 110.398 24.5079C108.084 24.5079 106.165 24.0226 104.641 23.0519C103.129 22.0813 102 20.7043 101.255 18.921C100.511 17.1377 100.138 15.0271 100.138 12.5891C100.138 10.5349 100.437 8.74601 101.035 7.2223C101.634 5.68731 102.446 4.41755 103.473 3.41303C104.5 2.39723 105.657 1.63537 106.944 1.12747C108.231 0.619571 109.562 0.365621 110.939 0.365621C112.497 0.365621 113.987 0.591355 115.409 1.04282C116.831 1.49429 118.118 2.07556 119.269 2.78662C119.213 3.55412 118.93 4.30468 118.423 5.03832C117.926 5.77196 117.401 6.31936 116.848 6.68054C116.024 6.12749 115.121 5.68731 114.139 5.35999C113.169 5.02139 112.209 4.85209 111.261 4.85209C109.546 4.85209 108.185 5.47286 107.181 6.7144C106.176 7.94465 105.674 9.91418 105.674 12.623C105.674 15.2641 106.16 17.1941 107.13 18.4131C108.112 19.632 109.512 20.2415 111.329 20.2415C111.871 20.2415 112.384 20.2133 112.869 20.1569C113.355 20.1004 113.812 20.0327 114.241 19.9537V17.7189ZM138.715 11.0146C138.715 11.8837 138.517 12.6569 138.122 13.3341C137.727 14.0113 137.231 14.5699 136.632 15.0101C136.046 15.4503 135.459 15.7325 134.872 15.8566C135.481 16.0598 135.983 16.3702 136.378 16.7878C136.785 17.2054 137.135 17.7415 137.428 18.3961L138.308 20.4108C138.512 20.8736 138.743 21.3025 139.003 21.6975C139.262 22.0813 139.55 22.4086 139.866 22.6795C139.539 23.0858 139.048 23.4639 138.393 23.8138C137.739 24.1524 137.027 24.3217 136.26 24.3217C135.504 24.3217 134.889 24.1411 134.415 23.7799C133.952 23.4074 133.545 22.8149 133.196 22.0023L131.706 18.5824C131.469 18.0293 131.175 17.6964 130.825 17.5835C130.476 17.4706 130.024 17.4142 129.471 17.4142H128.811V24C128.359 24.079 127.891 24.1298 127.406 24.1524C126.931 24.1862 126.525 24.2032 126.187 24.2032C125.871 24.2032 125.453 24.1862 124.934 24.1524C124.415 24.1298 123.941 24.079 123.512 24V5.51236L123.698 5.3092C125.064 5.27534 126.345 5.24712 127.541 5.22455C128.749 5.19069 129.951 5.17376 131.147 5.17376C132.501 5.17376 133.754 5.35435 134.906 5.71552C136.057 6.06541 136.977 6.66925 137.665 7.52704C138.365 8.37354 138.715 9.53608 138.715 11.0146ZM128.811 8.99996V13.3848C129.206 13.3736 129.567 13.3679 129.894 13.3679C130.233 13.3566 130.481 13.351 130.639 13.351C131.655 13.351 132.343 13.1309 132.705 12.6907C133.066 12.2505 133.246 11.737 133.246 11.1501C133.246 10.5745 133.066 10.0778 132.705 9.66023C132.343 9.24262 131.74 9.03382 130.893 9.03382C130.487 9.03382 130.137 9.02817 129.843 9.01689C129.55 9.0056 129.206 8.99996 128.811 8.99996ZM159.008 17.0079C159.008 19.3442 158.309 21.1783 156.909 22.5102C155.521 23.842 153.461 24.5079 150.73 24.5079C147.998 24.5079 145.933 23.842 144.533 22.5102C143.145 21.1783 142.451 19.3442 142.451 17.0079V5.34306L142.654 5.1399H144.584C145.611 5.1399 146.401 5.39949 146.954 5.91868C147.519 6.43787 147.801 7.31259 147.801 8.54284V16.991C147.801 18.018 148.015 18.825 148.444 19.412C148.873 19.9989 149.635 20.2923 150.73 20.2923C151.836 20.2923 152.598 19.9989 153.015 19.412C153.433 18.825 153.642 18.018 153.642 16.991V5.34306C154.093 5.25277 154.556 5.19633 155.03 5.17376C155.504 5.15119 155.916 5.1399 156.266 5.1399C156.582 5.1399 157.011 5.15683 157.552 5.19069C158.094 5.21326 158.58 5.2697 159.008 5.35999V17.0079ZM178.386 11.7426C178.386 13.2099 178.053 14.4289 177.387 15.3995C176.732 16.3589 175.829 17.0756 174.678 17.5496C173.527 18.0124 172.218 18.2438 170.75 18.2438H168.905V24C168.454 24.079 167.991 24.1298 167.517 24.1524C167.043 24.1862 166.636 24.2032 166.298 24.2032C165.982 24.2032 165.553 24.1862 165.011 24.1524C164.469 24.1298 163.984 24.079 163.555 24V5.51236L163.741 5.3092C164.656 5.28663 165.756 5.25841 167.043 5.22455C168.329 5.19069 169.565 5.17376 170.75 5.17376C172.229 5.17376 173.544 5.39949 174.695 5.85096C175.846 6.30243 176.749 7.01349 177.404 7.98415C178.059 8.95481 178.386 10.2076 178.386 11.7426ZM168.905 9.1354V14.316C169.21 14.3047 169.486 14.2991 169.735 14.2991C169.983 14.2878 170.169 14.2821 170.293 14.2821C171.038 14.2821 171.597 14.1467 171.969 13.8758C172.353 13.5936 172.607 13.255 172.731 12.86C172.855 12.4537 172.918 12.0699 172.918 11.7088C172.918 11.3702 172.855 11.0033 172.731 10.6083C172.607 10.2133 172.353 9.87468 171.969 9.59251C171.597 9.31034 171.038 9.16926 170.293 9.16926C170.011 9.16926 169.808 9.16926 169.684 9.16926C169.56 9.15797 169.3 9.14668 168.905 9.1354ZM180.271 14.7054C180.271 11.6806 181.05 9.28212 182.608 7.51011C184.176 5.72681 186.462 4.83516 189.464 4.83516C192.512 4.83516 194.809 5.72117 196.355 7.49318C197.912 9.25391 198.691 11.658 198.691 14.7054C198.691 17.7528 197.912 20.1512 196.355 21.9007C194.797 23.6388 192.5 24.5079 189.464 24.5079C186.417 24.5079 184.12 23.6275 182.574 21.8668C181.039 20.1061 180.271 17.7189 180.271 14.7054ZM185.74 14.7054C185.74 15.3487 185.779 16.0146 185.858 16.7031C185.948 17.3803 186.118 18.0124 186.366 18.5993C186.626 19.1862 187.004 19.6659 187.5 20.0384C187.997 20.3995 188.657 20.5801 189.481 20.5801C190.305 20.5801 190.965 20.3995 191.462 20.0384C191.959 19.6659 192.331 19.1862 192.579 18.5993C192.839 18.0124 193.008 17.3803 193.087 16.7031C193.178 16.0146 193.223 15.3487 193.223 14.7054C193.223 14.0508 193.178 13.3792 193.087 12.6907C193.008 11.9909 192.839 11.3476 192.579 10.7607C192.331 10.1625 191.959 9.6828 191.462 9.32163C190.965 8.94917 190.305 8.76294 189.481 8.76294C188.657 8.76294 187.997 8.94917 187.5 9.32163C187.004 9.6828 186.626 10.1625 186.366 10.7607C186.118 11.3476 185.948 11.9909 185.858 12.6907C185.779 13.3792 185.74 14.0508 185.74 14.7054Z" fill="white" fill-opacity="0.87"/>
</svg>
