<svg width="21" height="18" viewBox="0 0 21 18" fill="none" xmlns="http://www.w3.org/2000/svg">
<path d="M0.0477813 0.607999C0.359781 0.552 0.699781 0.515999 1.06778 0.499999C1.43578 0.475999 1.73978 0.464 1.97978 0.464C2.23578 0.464 2.53978 0.475999 2.89178 0.499999C3.24378 0.515999 3.57978 0.552 3.89978 0.607999V17C3.57978 17.056 3.24378 17.092 2.89178 17.108C2.53978 17.132 2.23578 17.144 1.97978 17.144C1.73978 17.144 1.43578 17.132 1.06778 17.108C0.699781 17.092 0.359781 17.056 0.0477813 17V0.607999ZM20.925 8.792C20.925 9.728 20.857 10.632 20.721 11.504C20.593 12.368 20.337 13.176 19.953 13.928C19.569 14.68 18.993 15.352 18.225 15.944C17.857 16.232 17.413 16.464 16.893 16.64C16.381 16.816 15.853 16.944 15.309 17.024C14.765 17.104 14.269 17.144 13.821 17.144C12.789 17.144 11.785 17.132 10.809 17.108C9.84097 17.092 8.83297 17.072 7.78497 17.048L7.61697 16.88V0.727999L7.78497 0.559999C8.81697 0.527999 9.82097 0.503999 10.797 0.487999C11.781 0.472 12.789 0.464 13.821 0.464C14.269 0.464 14.765 0.507999 15.309 0.595999C15.853 0.675999 16.385 0.803999 16.905 0.98C17.425 1.156 17.865 1.388 18.225 1.676C18.985 2.268 19.557 2.94 19.941 3.692C20.325 4.436 20.585 5.24 20.721 6.104C20.857 6.968 20.925 7.864 20.925 8.792ZM16.977 8.792C16.977 8.184 16.937 7.568 16.857 6.944C16.785 6.312 16.641 5.736 16.425 5.216C16.217 4.688 15.901 4.264 15.477 3.944C15.061 3.616 14.509 3.452 13.821 3.452C13.413 3.452 13.021 3.452 12.645 3.452C12.269 3.452 11.869 3.444 11.445 3.428V14.168C11.869 14.16 12.269 14.156 12.645 14.156C13.021 14.156 13.413 14.156 13.821 14.156C14.509 14.156 15.061 13.996 15.477 13.676C15.901 13.348 16.217 12.92 16.425 12.392C16.641 11.856 16.785 11.276 16.857 10.652C16.937 10.02 16.977 9.4 16.977 8.792Z" fill="#364760"/>
</svg>
