<svg width="365" height="31" viewBox="0 0 365 31" fill="none" xmlns="http://www.w3.org/2000/svg">
<path d="M0.0365157 5.412C0.504516 5.328 1.01452 5.274 1.56652 5.25C2.11852 5.214 2.57452 5.196 2.93452 5.196C3.31852 5.196 3.77452 5.214 4.30252 5.25C4.83052 5.274 5.33452 5.328 5.81452 5.412V30C5.33452 30.084 4.83052 30.138 4.30252 30.162C3.77452 30.198 3.31852 30.216 2.93452 30.216C2.57452 30.216 2.11852 30.198 1.56652 30.162C1.01452 30.138 0.504516 30.084 0.0365157 30V5.412ZM18.2303 20.946C18.1463 20.754 18.0143 20.454 17.8343 20.046C17.6543 19.626 17.4623 19.176 17.2583 18.696C17.0543 18.216 16.8623 17.766 16.6823 17.346C16.5143 16.926 16.3823 16.62 16.2863 16.428L16.1603 16.482C16.2083 17.43 16.2563 18.456 16.3043 19.56C16.3523 20.652 16.3883 21.654 16.4123 22.566C16.4483 23.466 16.4663 24.12 16.4663 24.528V30C15.9983 30.084 15.5483 30.138 15.1163 30.162C14.6843 30.198 14.2823 30.216 13.9103 30.216C13.5743 30.216 13.1543 30.198 12.6503 30.162C12.1583 30.138 11.6903 30.084 11.2463 30V10.29C11.6903 10.182 12.2423 10.098 12.9023 10.038C13.5623 9.978 14.0723 9.948 14.4323 9.948C14.8043 9.948 15.3323 9.96 16.0163 9.984C16.7003 9.996 17.2643 10.056 17.7083 10.164L21.9383 19.182C22.0223 19.35 22.1603 19.656 22.3523 20.1C22.5563 20.544 22.7723 21.03 23.0003 21.558C23.2283 22.086 23.4383 22.584 23.6303 23.052C23.8343 23.508 23.9843 23.844 24.0803 24.06L24.2423 24.024C24.1943 23.232 24.1283 22.308 24.0443 21.252C23.9723 20.196 23.9063 19.176 23.8463 18.192C23.7863 17.208 23.7563 16.422 23.7563 15.834V13.026C23.7563 11.754 24.0323 10.92 24.5843 10.524C25.1363 10.116 25.9583 9.912 27.0503 9.912H28.9043L29.1203 10.164V29.892C28.6523 30 28.0883 30.078 27.4283 30.126C26.7683 30.186 26.2643 30.216 25.9163 30.216C25.6763 30.216 25.3463 30.21 24.9263 30.198C24.5063 30.186 24.0743 30.168 23.6303 30.144C23.1983 30.12 22.8383 30.072 22.5503 30L18.2303 20.946ZM39.9968 30C39.5048 30.084 39.0008 30.138 38.4848 30.162C37.9808 30.198 37.5368 30.216 37.1528 30.216C36.7688 30.216 36.3188 30.198 35.8028 30.162C35.2988 30.138 34.8008 30.084 34.3088 30V10.326L34.5068 10.164H48.4568C48.5408 10.488 48.6008 10.854 48.6368 11.262C48.6848 11.67 48.7088 12 48.7088 12.252C48.7088 13.068 48.4928 13.704 48.0608 14.16C47.6288 14.616 46.9088 14.844 45.9008 14.844H42.0668C41.7068 14.844 41.3528 14.844 41.0048 14.844C40.6688 14.832 40.3328 14.826 39.9968 14.826C39.9968 15.078 39.9968 15.336 39.9968 15.6C39.9968 15.852 39.9968 16.104 39.9968 16.356V18.228C40.1408 18.228 40.2788 18.228 40.4108 18.228H46.4048C46.5128 18.54 46.5848 18.906 46.6208 19.326C46.6688 19.734 46.6928 20.082 46.6928 20.37C46.6928 20.694 46.6688 21.078 46.6208 21.522C46.5848 21.966 46.5128 22.35 46.4048 22.674H40.4108C40.2788 22.674 40.1408 22.674 39.9968 22.674V30ZM50.1477 20.118C50.1477 16.902 50.9757 14.352 52.6317 12.468C54.2997 10.572 56.7297 9.624 59.9217 9.624C63.1617 9.624 65.6037 10.566 67.2477 12.45C68.9037 14.322 69.7317 16.878 69.7317 20.118C69.7317 23.358 68.9037 25.908 67.2477 27.768C65.5917 29.616 63.1497 30.54 59.9217 30.54C56.6817 30.54 54.2397 29.604 52.5957 27.732C50.9637 25.86 50.1477 23.322 50.1477 20.118ZM55.9617 20.118C55.9617 20.802 56.0037 21.51 56.0877 22.242C56.1837 22.962 56.3637 23.634 56.6277 24.258C56.9037 24.882 57.3057 25.392 57.8337 25.788C58.3617 26.172 59.0637 26.364 59.9397 26.364C60.8157 26.364 61.5177 26.172 62.0457 25.788C62.5737 25.392 62.9697 24.882 63.2337 24.258C63.5097 23.634 63.6897 22.962 63.7737 22.242C63.8697 21.51 63.9177 20.802 63.9177 20.118C63.9177 19.422 63.8697 18.708 63.7737 17.976C63.6897 17.232 63.5097 16.548 63.2337 15.924C62.9697 15.288 62.5737 14.778 62.0457 14.394C61.5177 13.998 60.8157 13.8 59.9397 13.8C59.0637 13.8 58.3617 13.998 57.8337 14.394C57.3057 14.778 56.9037 15.288 56.6277 15.924C56.3637 16.548 56.1837 17.232 56.0877 17.976C56.0037 18.708 55.9617 19.422 55.9617 20.118ZM89.6017 16.194C89.6017 17.118 89.3917 17.94 88.9717 18.66C88.5517 19.38 88.0237 19.974 87.3877 20.442C86.7637 20.91 86.1397 21.21 85.5157 21.342C86.1637 21.558 86.6977 21.888 87.1177 22.332C87.5497 22.776 87.9217 23.346 88.2337 24.042L89.1697 26.184C89.3857 26.676 89.6317 27.132 89.9077 27.552C90.1837 27.96 90.4897 28.308 90.8257 28.596C90.4777 29.028 89.9557 29.43 89.2597 29.802C88.5637 30.162 87.8077 30.342 86.9917 30.342C86.1877 30.342 85.5337 30.15 85.0297 29.766C84.5377 29.37 84.1057 28.74 83.7337 27.876L82.1497 24.24C81.8977 23.652 81.5857 23.298 81.2137 23.178C80.8417 23.058 80.3617 22.998 79.7737 22.998H79.0717V30C78.5917 30.084 78.0937 30.138 77.5777 30.162C77.0737 30.198 76.6417 30.216 76.2817 30.216C75.9457 30.216 75.5017 30.198 74.9497 30.162C74.3977 30.138 73.8937 30.084 73.4377 30V10.344L73.6357 10.128C75.0877 10.092 76.4497 10.062 77.7217 10.038C79.0057 10.002 80.2837 9.984 81.5557 9.984C82.9957 9.984 84.3277 10.176 85.5517 10.56C86.7757 10.932 87.7537 11.574 88.4857 12.486C89.2297 13.386 89.6017 14.622 89.6017 16.194ZM79.0717 14.052V18.714C79.4917 18.702 79.8757 18.696 80.2237 18.696C80.5837 18.684 80.8477 18.678 81.0157 18.678C82.0957 18.678 82.8277 18.444 83.2117 17.976C83.5957 17.508 83.7877 16.962 83.7877 16.338C83.7877 15.726 83.5957 15.198 83.2117 14.754C82.8277 14.31 82.1857 14.088 81.2857 14.088C80.8537 14.088 80.4817 14.082 80.1697 14.07C79.8577 14.058 79.4917 14.052 79.0717 14.052ZM95.1938 10.164C95.7698 10.056 96.3998 9.984 97.0838 9.948C97.7678 9.9 98.3438 9.876 98.8118 9.876C99.2558 9.876 99.8318 9.9 100.54 9.948C101.248 9.984 101.842 10.056 102.322 10.164L104.086 17.976C104.194 18.444 104.32 19.08 104.464 19.884C104.608 20.676 104.752 21.528 104.896 22.44H105.13C105.418 20.52 105.688 19.032 105.94 17.976L107.686 10.164C108.25 10.056 108.868 9.984 109.54 9.948C110.212 9.9 110.77 9.876 111.214 9.876C111.682 9.876 112.264 9.9 112.96 9.948C113.656 9.984 114.28 10.056 114.832 10.164L116.866 29.928C116.086 30.12 115.144 30.216 114.04 30.216C113.62 30.216 113.17 30.198 112.69 30.162C112.222 30.126 111.802 30.072 111.43 30L110.908 23.628C110.848 22.812 110.812 21.918 110.8 20.946C110.788 19.974 110.788 19.026 110.8 18.102C110.812 17.166 110.812 16.356 110.8 15.672H110.584L107.938 26.958C107.53 27.03 107.032 27.084 106.444 27.12C105.856 27.144 105.37 27.156 104.986 27.156C104.59 27.156 104.098 27.144 103.51 27.12C102.934 27.084 102.454 27.03 102.07 26.958L99.4418 15.672H99.1898C99.1898 16.368 99.1898 17.178 99.1898 18.102C99.2018 19.026 99.2018 19.974 99.1898 20.946C99.1778 21.918 99.1358 22.824 99.0638 23.664L98.5958 30C98.2118 30.072 97.7918 30.126 97.3358 30.162C96.8918 30.198 96.4598 30.216 96.0398 30.216C94.9238 30.216 93.9638 30.12 93.1598 29.928L95.1938 10.164ZM126.325 26.526C126.133 26.526 125.947 26.526 125.767 26.526C125.587 26.514 125.407 26.502 125.227 26.49L124.111 30C123.763 30.084 123.385 30.144 122.977 30.18C122.569 30.228 122.143 30.252 121.699 30.252C121.219 30.252 120.733 30.216 120.241 30.144C119.761 30.072 119.365 29.97 119.053 29.838L118.855 29.532L125.857 10.164C126.481 10.068 127.081 10.008 127.657 9.984C128.245 9.96 128.779 9.948 129.259 9.948C129.703 9.948 130.183 9.96 130.699 9.984C131.215 10.008 131.797 10.068 132.445 10.164L139.249 29.73C138.829 29.922 138.295 30.066 137.647 30.162C136.999 30.27 136.477 30.324 136.081 30.324C135.421 30.324 134.785 30.198 134.173 29.946C133.561 29.694 133.099 29.028 132.787 27.948L132.337 26.49C132.145 26.502 131.959 26.514 131.779 26.526C131.599 26.526 131.407 26.526 131.203 26.526H126.325ZM127.045 20.838L126.649 22.08C126.829 22.068 127.009 22.062 127.189 22.062C127.369 22.05 127.555 22.044 127.747 22.044H129.997C130.177 22.044 130.339 22.05 130.483 22.062C130.639 22.062 130.795 22.068 130.951 22.08L130.573 20.856C130.297 19.908 130.021 18.852 129.745 17.688C129.469 16.524 129.217 15.468 128.989 14.52H128.773C128.521 15.432 128.239 16.476 127.927 17.652C127.627 18.828 127.333 19.89 127.045 20.838ZM152.515 19.146C152.515 17.622 152.311 16.398 151.903 15.474C151.495 14.538 150.673 14.07 149.437 14.07C148.153 14.07 147.241 14.598 146.701 15.654C146.161 16.71 145.891 18.228 145.891 20.208C145.891 21.72 146.083 22.884 146.467 23.7C146.863 24.504 147.367 25.062 147.979 25.374C148.591 25.686 149.239 25.842 149.923 25.842C150.811 25.842 151.699 25.65 152.587 25.266C153.487 24.87 154.291 24.408 154.999 23.88C155.383 24.072 155.755 24.378 156.115 24.798C156.475 25.218 156.787 25.668 157.051 26.148C157.315 26.628 157.483 27.066 157.555 27.462C156.559 28.314 155.347 29.04 153.919 29.64C152.503 30.24 150.889 30.54 149.077 30.54C147.337 30.54 145.885 30.234 144.721 29.622C143.569 29.01 142.651 28.206 141.967 27.21C141.283 26.202 140.797 25.086 140.509 23.862C140.221 22.638 140.077 21.408 140.077 20.172C140.077 17.712 140.521 15.708 141.409 14.16C142.309 12.6 143.485 11.454 144.937 10.722C146.401 9.99 147.967 9.624 149.635 9.624C151.507 9.624 153.049 9.954 154.261 10.614C155.473 11.274 156.373 12.108 156.961 13.116C157.549 14.124 157.843 15.162 157.843 16.23C157.843 18.282 156.691 19.308 154.387 19.308C154.111 19.308 153.811 19.29 153.487 19.254C153.163 19.218 152.839 19.182 152.515 19.146ZM161.4 10.164C161.856 10.068 162.372 10.008 162.948 9.984C163.524 9.96 163.98 9.948 164.316 9.948C164.676 9.948 165.108 9.96 165.612 9.984C166.128 10.008 166.626 10.068 167.106 10.164V30C166.626 30.084 166.128 30.138 165.612 30.162C165.108 30.198 164.676 30.216 164.316 30.216C163.98 30.216 163.524 30.198 162.948 30.162C162.372 30.138 161.856 30.084 161.4 30V10.164ZM170.874 20.118C170.874 16.902 171.702 14.352 173.358 12.468C175.026 10.572 177.456 9.624 180.648 9.624C183.888 9.624 186.33 10.566 187.974 12.45C189.63 14.322 190.458 16.878 190.458 20.118C190.458 23.358 189.63 25.908 187.974 27.768C186.318 29.616 183.876 30.54 180.648 30.54C177.408 30.54 174.966 29.604 173.322 27.732C171.69 25.86 170.874 23.322 170.874 20.118ZM176.688 20.118C176.688 20.802 176.73 21.51 176.814 22.242C176.91 22.962 177.09 23.634 177.354 24.258C177.63 24.882 178.032 25.392 178.56 25.788C179.088 26.172 179.79 26.364 180.666 26.364C181.542 26.364 182.244 26.172 182.772 25.788C183.3 25.392 183.696 24.882 183.96 24.258C184.236 23.634 184.416 22.962 184.5 22.242C184.596 21.51 184.644 20.802 184.644 20.118C184.644 19.422 184.596 18.708 184.5 17.976C184.416 17.232 184.236 16.548 183.96 15.924C183.696 15.288 183.3 14.778 182.772 14.394C182.244 13.998 181.542 13.8 180.666 13.8C179.79 13.8 179.088 13.998 178.56 14.394C178.032 14.778 177.63 15.288 177.354 15.924C177.09 16.548 176.91 17.232 176.814 17.976C176.73 18.708 176.688 19.422 176.688 20.118ZM182.88 0.425998C183.54 0.629999 184.212 1.044 184.896 1.668C185.592 2.28 186.048 2.946 186.264 3.666L179.604 8.67C179.136 8.526 178.68 8.256 178.236 7.86C177.792 7.464 177.474 7.008 177.282 6.492L182.88 0.425998ZM201.148 20.946C201.064 20.754 200.932 20.454 200.752 20.046C200.572 19.626 200.38 19.176 200.176 18.696C199.972 18.216 199.78 17.766 199.6 17.346C199.432 16.926 199.3 16.62 199.204 16.428L199.078 16.482C199.126 17.43 199.174 18.456 199.222 19.56C199.27 20.652 199.306 21.654 199.33 22.566C199.366 23.466 199.384 24.12 199.384 24.528V30C198.916 30.084 198.466 30.138 198.034 30.162C197.602 30.198 197.2 30.216 196.828 30.216C196.492 30.216 196.072 30.198 195.568 30.162C195.076 30.138 194.608 30.084 194.164 30V10.29C194.608 10.182 195.16 10.098 195.82 10.038C196.48 9.978 196.99 9.948 197.35 9.948C197.722 9.948 198.25 9.96 198.934 9.984C199.618 9.996 200.182 10.056 200.626 10.164L204.856 19.182C204.94 19.35 205.078 19.656 205.27 20.1C205.474 20.544 205.69 21.03 205.918 21.558C206.146 22.086 206.356 22.584 206.548 23.052C206.752 23.508 206.902 23.844 206.998 24.06L207.16 24.024C207.112 23.232 207.046 22.308 206.962 21.252C206.89 20.196 206.824 19.176 206.764 18.192C206.704 17.208 206.674 16.422 206.674 15.834V13.026C206.674 11.754 206.95 10.92 207.502 10.524C208.054 10.116 208.876 9.912 209.968 9.912H211.822L212.038 10.164V29.892C211.57 30 211.006 30.078 210.346 30.126C209.686 30.186 209.182 30.216 208.834 30.216C208.594 30.216 208.264 30.21 207.844 30.198C207.424 30.186 206.992 30.168 206.548 30.144C206.116 30.12 205.756 30.072 205.468 30L201.148 20.946ZM238.835 23.322C238.835 22.926 238.841 22.518 238.853 22.098C238.865 21.678 238.883 21.252 238.907 20.82H237.143C236.219 20.82 235.529 20.646 235.073 20.298C234.617 19.95 234.389 19.32 234.389 18.408C234.389 18.036 234.425 17.634 234.497 17.202C234.581 16.77 234.683 16.38 234.803 16.032H240.437C241.865 16.032 242.855 16.368 243.407 17.04C243.959 17.7 244.235 18.552 244.235 19.596V29.046C243.191 29.394 241.841 29.73 240.185 30.054C238.529 30.378 236.717 30.54 234.749 30.54C232.289 30.54 230.249 30.024 228.629 28.992C227.021 27.96 225.821 26.496 225.029 24.6C224.237 22.704 223.841 20.46 223.841 17.868C223.841 15.684 224.159 13.782 224.795 12.162C225.431 10.53 226.295 9.18 227.387 8.112C228.479 7.032 229.709 6.222 231.077 5.682C232.445 5.142 233.861 4.872 235.325 4.872C236.981 4.872 238.565 5.112 240.077 5.592C241.589 6.072 242.957 6.69 244.181 7.446C244.121 8.262 243.821 9.06 243.281 9.84C242.753 10.62 242.195 11.202 241.607 11.586C240.731 10.998 239.771 10.53 238.727 10.182C237.695 9.822 236.675 9.642 235.667 9.642C233.843 9.642 232.397 10.302 231.329 11.622C230.261 12.93 229.727 15.024 229.727 17.904C229.727 20.712 230.243 22.764 231.275 24.06C232.319 25.356 233.807 26.004 235.739 26.004C236.315 26.004 236.861 25.974 237.377 25.914C237.893 25.854 238.379 25.782 238.835 25.698V23.322ZM263.794 25.482C263.794 27.198 263.524 28.392 262.984 29.064C262.456 29.736 261.556 30.072 260.284 30.072H251.986C250.966 30.072 250.162 29.784 249.574 29.208C248.986 28.62 248.692 27.834 248.692 26.85V10.362L248.89 10.164H263.128C263.212 10.572 263.26 10.962 263.272 11.334C263.284 11.706 263.29 12.06 263.29 12.396C263.29 12.72 263.254 13.086 263.182 13.494C263.122 13.902 263.014 14.316 262.858 14.736H256.558C256.054 14.736 255.292 14.73 254.272 14.718C254.284 15.09 254.29 15.408 254.29 15.672C254.302 15.936 254.308 16.254 254.308 16.626V17.814C255.304 17.802 256.054 17.796 256.558 17.796H261.166C261.286 18.12 261.364 18.492 261.4 18.912C261.448 19.32 261.472 19.668 261.472 19.956C261.472 20.292 261.448 20.67 261.4 21.09C261.364 21.498 261.286 21.87 261.166 22.206H256.558C256.33 22.206 256.012 22.206 255.604 22.206C255.196 22.206 254.764 22.206 254.308 22.206V23.376C254.308 23.82 254.302 24.186 254.29 24.474C254.278 24.762 254.272 25.122 254.272 25.554V25.59C254.692 25.566 255.082 25.542 255.442 25.518C255.802 25.494 256.24 25.482 256.756 25.482H263.794ZM274.695 20.946C274.611 20.754 274.479 20.454 274.299 20.046C274.119 19.626 273.927 19.176 273.723 18.696C273.519 18.216 273.327 17.766 273.147 17.346C272.979 16.926 272.847 16.62 272.751 16.428L272.625 16.482C272.673 17.43 272.721 18.456 272.769 19.56C272.817 20.652 272.853 21.654 272.877 22.566C272.913 23.466 272.931 24.12 272.931 24.528V30C272.463 30.084 272.013 30.138 271.581 30.162C271.149 30.198 270.747 30.216 270.375 30.216C270.039 30.216 269.619 30.198 269.115 30.162C268.623 30.138 268.155 30.084 267.711 30V10.29C268.155 10.182 268.707 10.098 269.367 10.038C270.027 9.978 270.537 9.948 270.897 9.948C271.269 9.948 271.797 9.96 272.481 9.984C273.165 9.996 273.729 10.056 274.173 10.164L278.403 19.182C278.487 19.35 278.625 19.656 278.817 20.1C279.021 20.544 279.237 21.03 279.465 21.558C279.693 22.086 279.903 22.584 280.095 23.052C280.299 23.508 280.449 23.844 280.545 24.06L280.707 24.024C280.659 23.232 280.593 22.308 280.509 21.252C280.437 20.196 280.371 19.176 280.311 18.192C280.251 17.208 280.221 16.422 280.221 15.834V13.026C280.221 11.754 280.497 10.92 281.049 10.524C281.601 10.116 282.423 9.912 283.515 9.912H285.369L285.585 10.164V29.892C285.117 30 284.553 30.078 283.893 30.126C283.233 30.186 282.729 30.216 282.381 30.216C282.141 30.216 281.811 30.21 281.391 30.198C280.971 30.186 280.539 30.168 280.095 30.144C279.663 30.12 279.303 30.072 279.015 30L274.695 20.946ZM305.876 25.482C305.876 27.198 305.606 28.392 305.066 29.064C304.538 29.736 303.638 30.072 302.366 30.072H294.068C293.048 30.072 292.244 29.784 291.656 29.208C291.068 28.62 290.774 27.834 290.774 26.85V10.362L290.972 10.164H305.21C305.294 10.572 305.342 10.962 305.354 11.334C305.366 11.706 305.372 12.06 305.372 12.396C305.372 12.72 305.336 13.086 305.264 13.494C305.204 13.902 305.096 14.316 304.94 14.736H298.64C298.136 14.736 297.374 14.73 296.354 14.718C296.366 15.09 296.372 15.408 296.372 15.672C296.384 15.936 296.39 16.254 296.39 16.626V17.814C297.386 17.802 298.136 17.796 298.64 17.796H303.248C303.368 18.12 303.446 18.492 303.482 18.912C303.53 19.32 303.554 19.668 303.554 19.956C303.554 20.292 303.53 20.67 303.482 21.09C303.446 21.498 303.368 21.87 303.248 22.206H298.64C298.412 22.206 298.094 22.206 297.686 22.206C297.278 22.206 296.846 22.206 296.39 22.206V23.376C296.39 23.82 296.384 24.186 296.372 24.474C296.36 24.762 296.354 25.122 296.354 25.554V25.59C296.774 25.566 297.164 25.542 297.524 25.518C297.884 25.494 298.322 25.482 298.838 25.482H305.876ZM325.957 16.194C325.957 17.118 325.747 17.94 325.327 18.66C324.907 19.38 324.379 19.974 323.743 20.442C323.119 20.91 322.495 21.21 321.871 21.342C322.519 21.558 323.053 21.888 323.473 22.332C323.905 22.776 324.277 23.346 324.589 24.042L325.525 26.184C325.741 26.676 325.987 27.132 326.263 27.552C326.539 27.96 326.845 28.308 327.181 28.596C326.833 29.028 326.311 29.43 325.615 29.802C324.919 30.162 324.163 30.342 323.347 30.342C322.543 30.342 321.889 30.15 321.385 29.766C320.893 29.37 320.461 28.74 320.089 27.876L318.505 24.24C318.253 23.652 317.941 23.298 317.569 23.178C317.197 23.058 316.717 22.998 316.129 22.998H315.427V30C314.947 30.084 314.449 30.138 313.933 30.162C313.429 30.198 312.997 30.216 312.637 30.216C312.301 30.216 311.857 30.198 311.305 30.162C310.753 30.138 310.249 30.084 309.793 30V10.344L309.991 10.128C311.443 10.092 312.805 10.062 314.077 10.038C315.361 10.002 316.639 9.984 317.911 9.984C319.351 9.984 320.683 10.176 321.907 10.56C323.131 10.932 324.109 11.574 324.841 12.486C325.585 13.386 325.957 14.622 325.957 16.194ZM315.427 14.052V18.714C315.847 18.702 316.231 18.696 316.579 18.696C316.939 18.684 317.203 18.678 317.371 18.678C318.451 18.678 319.183 18.444 319.567 17.976C319.951 17.508 320.143 16.962 320.143 16.338C320.143 15.726 319.951 15.198 319.567 14.754C319.183 14.31 318.541 14.088 317.641 14.088C317.209 14.088 316.837 14.082 316.525 14.07C316.213 14.058 315.847 14.052 315.427 14.052ZM335.329 26.526C335.137 26.526 334.951 26.526 334.771 26.526C334.591 26.514 334.411 26.502 334.231 26.49L333.115 30C332.767 30.084 332.389 30.144 331.981 30.18C331.573 30.228 331.147 30.252 330.703 30.252C330.223 30.252 329.737 30.216 329.245 30.144C328.765 30.072 328.369 29.97 328.057 29.838L327.859 29.532L334.861 10.164C335.485 10.068 336.085 10.008 336.661 9.984C337.249 9.96 337.783 9.948 338.263 9.948C338.707 9.948 339.187 9.96 339.703 9.984C340.219 10.008 340.801 10.068 341.449 10.164L348.253 29.73C347.833 29.922 347.299 30.066 346.651 30.162C346.003 30.27 345.481 30.324 345.085 30.324C344.425 30.324 343.789 30.198 343.177 29.946C342.565 29.694 342.103 29.028 341.791 27.948L341.341 26.49C341.149 26.502 340.963 26.514 340.783 26.526C340.603 26.526 340.411 26.526 340.207 26.526H335.329ZM336.049 20.838L335.653 22.08C335.833 22.068 336.013 22.062 336.193 22.062C336.373 22.05 336.559 22.044 336.751 22.044H339.001C339.181 22.044 339.343 22.05 339.487 22.062C339.643 22.062 339.799 22.068 339.955 22.08L339.577 20.856C339.301 19.908 339.025 18.852 338.749 17.688C338.473 16.524 338.221 15.468 337.993 14.52H337.777C337.525 15.432 337.243 16.476 336.931 17.652C336.631 18.828 336.337 19.89 336.049 20.838ZM365 25.392C364.928 27.144 364.622 28.368 364.082 29.064C363.542 29.76 362.582 30.108 361.202 30.108H354.218C353.186 30.108 352.376 29.82 351.788 29.244C351.212 28.656 350.924 27.87 350.924 26.886V10.2L351.14 9.984H353.3C354.392 9.984 355.22 10.26 355.784 10.812C356.348 11.352 356.63 12.258 356.63 13.53V25.572C357.866 25.452 358.976 25.392 359.96 25.392H365Z" fill="#364760"/>
</svg>
