<svg width="213" height="31" viewBox="0 0 213 31" fill="none" xmlns="http://www.w3.org/2000/svg">
<path d="M0.604875 5.412C1.07288 5.328 1.58288 5.274 2.13488 5.25C2.68688 5.214 3.14288 5.196 3.50288 5.196C3.88688 5.196 4.34288 5.214 4.87088 5.25C5.39888 5.274 5.90288 5.328 6.38288 5.412V30C5.90288 30.084 5.39888 30.138 4.87088 30.162C4.34288 30.198 3.88688 30.216 3.50288 30.216C3.14288 30.216 2.68688 30.198 2.13488 30.162C1.58288 30.138 1.07288 30.084 0.604875 30V5.412ZM18.7987 20.946C18.7147 20.754 18.5827 20.454 18.4027 20.046C18.2227 19.626 18.0307 19.176 17.8267 18.696C17.6227 18.216 17.4307 17.766 17.2507 17.346C17.0827 16.926 16.9507 16.62 16.8547 16.428L16.7287 16.482C16.7767 17.43 16.8247 18.456 16.8727 19.56C16.9207 20.652 16.9567 21.654 16.9807 22.566C17.0167 23.466 17.0347 24.12 17.0347 24.528V30C16.5667 30.084 16.1167 30.138 15.6847 30.162C15.2527 30.198 14.8507 30.216 14.4787 30.216C14.1427 30.216 13.7227 30.198 13.2187 30.162C12.7267 30.138 12.2587 30.084 11.8147 30V10.29C12.2587 10.182 12.8107 10.098 13.4707 10.038C14.1307 9.978 14.6407 9.948 15.0007 9.948C15.3727 9.948 15.9007 9.96 16.5847 9.984C17.2687 9.996 17.8327 10.056 18.2767 10.164L22.5067 19.182C22.5907 19.35 22.7287 19.656 22.9207 20.1C23.1247 20.544 23.3407 21.03 23.5687 21.558C23.7967 22.086 24.0067 22.584 24.1987 23.052C24.4027 23.508 24.5527 23.844 24.6487 24.06L24.8107 24.024C24.7627 23.232 24.6967 22.308 24.6127 21.252C24.5407 20.196 24.4747 19.176 24.4147 18.192C24.3547 17.208 24.3247 16.422 24.3247 15.834V13.026C24.3247 11.754 24.6007 10.92 25.1527 10.524C25.7047 10.116 26.5267 9.912 27.6187 9.912H29.4727L29.6887 10.164V29.892C29.2207 30 28.6567 30.078 27.9967 30.126C27.3367 30.186 26.8327 30.216 26.4847 30.216C26.2447 30.216 25.9147 30.21 25.4947 30.198C25.0747 30.186 24.6427 30.168 24.1987 30.144C23.7667 30.12 23.4067 30.072 23.1187 30L18.7987 20.946ZM40.5652 30C40.0732 30.084 39.5692 30.138 39.0532 30.162C38.5492 30.198 38.1052 30.216 37.7212 30.216C37.3372 30.216 36.8872 30.198 36.3712 30.162C35.8672 30.138 35.3692 30.084 34.8772 30V10.326L35.0752 10.164H49.0252C49.1092 10.488 49.1692 10.854 49.2052 11.262C49.2532 11.67 49.2772 12 49.2772 12.252C49.2772 13.068 49.0612 13.704 48.6292 14.16C48.1972 14.616 47.4772 14.844 46.4692 14.844H42.6352C42.2752 14.844 41.9212 14.844 41.5732 14.844C41.2372 14.832 40.9012 14.826 40.5652 14.826C40.5652 15.078 40.5652 15.336 40.5652 15.6C40.5652 15.852 40.5652 16.104 40.5652 16.356V18.228C40.7092 18.228 40.8472 18.228 40.9792 18.228H46.9732C47.0812 18.54 47.1532 18.906 47.1892 19.326C47.2372 19.734 47.2612 20.082 47.2612 20.37C47.2612 20.694 47.2372 21.078 47.1892 21.522C47.1532 21.966 47.0812 22.35 46.9732 22.674H40.9792C40.8472 22.674 40.7092 22.674 40.5652 22.674V30ZM50.716 20.118C50.716 16.902 51.544 14.352 53.2 12.468C54.868 10.572 57.298 9.624 60.49 9.624C63.73 9.624 66.172 10.566 67.816 12.45C69.472 14.322 70.3 16.878 70.3 20.118C70.3 23.358 69.472 25.908 67.816 27.768C66.16 29.616 63.718 30.54 60.49 30.54C57.25 30.54 54.808 29.604 53.164 27.732C51.532 25.86 50.716 23.322 50.716 20.118ZM56.53 20.118C56.53 20.802 56.572 21.51 56.656 22.242C56.752 22.962 56.932 23.634 57.196 24.258C57.472 24.882 57.874 25.392 58.402 25.788C58.93 26.172 59.632 26.364 60.508 26.364C61.384 26.364 62.086 26.172 62.614 25.788C63.142 25.392 63.538 24.882 63.802 24.258C64.078 23.634 64.258 22.962 64.342 22.242C64.438 21.51 64.486 20.802 64.486 20.118C64.486 19.422 64.438 18.708 64.342 17.976C64.258 17.232 64.078 16.548 63.802 15.924C63.538 15.288 63.142 14.778 62.614 14.394C62.086 13.998 61.384 13.8 60.508 13.8C59.632 13.8 58.93 13.998 58.402 14.394C57.874 14.778 57.472 15.288 57.196 15.924C56.932 16.548 56.752 17.232 56.656 17.976C56.572 18.708 56.53 19.422 56.53 20.118ZM90.1701 16.194C90.1701 17.118 89.9601 17.94 89.5401 18.66C89.1201 19.38 88.5921 19.974 87.9561 20.442C87.3321 20.91 86.7081 21.21 86.0841 21.342C86.7321 21.558 87.2661 21.888 87.6861 22.332C88.1181 22.776 88.4901 23.346 88.8021 24.042L89.7381 26.184C89.9541 26.676 90.2001 27.132 90.4761 27.552C90.7521 27.96 91.0581 28.308 91.3941 28.596C91.0461 29.028 90.5241 29.43 89.8281 29.802C89.1321 30.162 88.3761 30.342 87.5601 30.342C86.7561 30.342 86.1021 30.15 85.5981 29.766C85.1061 29.37 84.6741 28.74 84.3021 27.876L82.7181 24.24C82.4661 23.652 82.1541 23.298 81.7821 23.178C81.4101 23.058 80.9301 22.998 80.3421 22.998H79.6401V30C79.1601 30.084 78.6621 30.138 78.1461 30.162C77.6421 30.198 77.2101 30.216 76.8501 30.216C76.5141 30.216 76.0701 30.198 75.5181 30.162C74.9661 30.138 74.4621 30.084 74.0061 30V10.344L74.2041 10.128C75.6561 10.092 77.0181 10.062 78.2901 10.038C79.5741 10.002 80.8521 9.984 82.1241 9.984C83.5641 9.984 84.8961 10.176 86.1201 10.56C87.3441 10.932 88.3221 11.574 89.0541 12.486C89.7981 13.386 90.1701 14.622 90.1701 16.194ZM79.6401 14.052V18.714C80.0601 18.702 80.4441 18.696 80.7921 18.696C81.1521 18.684 81.4161 18.678 81.5841 18.678C82.6641 18.678 83.3961 18.444 83.7801 17.976C84.1641 17.508 84.3561 16.962 84.3561 16.338C84.3561 15.726 84.1641 15.198 83.7801 14.754C83.3961 14.31 82.7541 14.088 81.8541 14.088C81.4221 14.088 81.0501 14.082 80.7381 14.07C80.4261 14.058 80.0601 14.052 79.6401 14.052ZM95.7622 10.164C96.3382 10.056 96.9682 9.984 97.6522 9.948C98.3362 9.9 98.9122 9.876 99.3802 9.876C99.8242 9.876 100.4 9.9 101.108 9.948C101.816 9.984 102.41 10.056 102.89 10.164L104.654 17.976C104.762 18.444 104.888 19.08 105.032 19.884C105.176 20.676 105.32 21.528 105.464 22.44H105.698C105.986 20.52 106.256 19.032 106.508 17.976L108.254 10.164C108.818 10.056 109.436 9.984 110.108 9.948C110.78 9.9 111.338 9.876 111.782 9.876C112.25 9.876 112.832 9.9 113.528 9.948C114.224 9.984 114.848 10.056 115.4 10.164L117.434 29.928C116.654 30.12 115.712 30.216 114.608 30.216C114.188 30.216 113.738 30.198 113.258 30.162C112.79 30.126 112.37 30.072 111.998 30L111.476 23.628C111.416 22.812 111.38 21.918 111.368 20.946C111.356 19.974 111.356 19.026 111.368 18.102C111.38 17.166 111.38 16.356 111.368 15.672H111.152L108.506 26.958C108.098 27.03 107.6 27.084 107.012 27.12C106.424 27.144 105.938 27.156 105.554 27.156C105.158 27.156 104.666 27.144 104.078 27.12C103.502 27.084 103.022 27.03 102.638 26.958L100.01 15.672H99.7582C99.7582 16.368 99.7582 17.178 99.7582 18.102C99.7702 19.026 99.7702 19.974 99.7582 20.946C99.7462 21.918 99.7042 22.824 99.6322 23.664L99.1642 30C98.7802 30.072 98.3602 30.126 97.9042 30.162C97.4602 30.198 97.0282 30.216 96.6082 30.216C95.4922 30.216 94.5322 30.12 93.7282 29.928L95.7622 10.164ZM126.894 26.526C126.702 26.526 126.516 26.526 126.336 26.526C126.156 26.514 125.976 26.502 125.796 26.49L124.68 30C124.332 30.084 123.954 30.144 123.546 30.18C123.138 30.228 122.712 30.252 122.268 30.252C121.788 30.252 121.302 30.216 120.81 30.144C120.33 30.072 119.934 29.97 119.622 29.838L119.424 29.532L126.426 10.164C127.05 10.068 127.65 10.008 128.226 9.984C128.814 9.96 129.348 9.948 129.828 9.948C130.272 9.948 130.752 9.96 131.268 9.984C131.784 10.008 132.366 10.068 133.014 10.164L139.818 29.73C139.398 29.922 138.864 30.066 138.216 30.162C137.568 30.27 137.046 30.324 136.65 30.324C135.99 30.324 135.354 30.198 134.742 29.946C134.13 29.694 133.668 29.028 133.356 27.948L132.906 26.49C132.714 26.502 132.528 26.514 132.348 26.526C132.168 26.526 131.976 26.526 131.772 26.526H126.894ZM127.614 20.838L127.218 22.08C127.398 22.068 127.578 22.062 127.758 22.062C127.938 22.05 128.124 22.044 128.316 22.044H130.566C130.746 22.044 130.908 22.05 131.052 22.062C131.208 22.062 131.364 22.068 131.52 22.08L131.142 20.856C130.866 19.908 130.59 18.852 130.314 17.688C130.038 16.524 129.786 15.468 129.558 14.52H129.342C129.09 15.432 128.808 16.476 128.496 17.652C128.196 18.828 127.902 19.89 127.614 20.838ZM153.084 19.146C153.084 17.622 152.88 16.398 152.472 15.474C152.064 14.538 151.242 14.07 150.006 14.07C148.722 14.07 147.81 14.598 147.27 15.654C146.73 16.71 146.46 18.228 146.46 20.208C146.46 21.72 146.652 22.884 147.036 23.7C147.432 24.504 147.936 25.062 148.548 25.374C149.16 25.686 149.808 25.842 150.492 25.842C151.38 25.842 152.268 25.65 153.156 25.266C154.056 24.87 154.86 24.408 155.568 23.88C155.952 24.072 156.324 24.378 156.684 24.798C157.044 25.218 157.356 25.668 157.62 26.148C157.884 26.628 158.052 27.066 158.124 27.462C157.128 28.314 155.916 29.04 154.488 29.64C153.072 30.24 151.458 30.54 149.646 30.54C147.906 30.54 146.454 30.234 145.29 29.622C144.138 29.01 143.22 28.206 142.536 27.21C141.852 26.202 141.366 25.086 141.078 23.862C140.79 22.638 140.646 21.408 140.646 20.172C140.646 17.712 141.09 15.708 141.978 14.16C142.878 12.6 144.054 11.454 145.506 10.722C146.97 9.99 148.536 9.624 150.204 9.624C152.076 9.624 153.618 9.954 154.83 10.614C156.042 11.274 156.942 12.108 157.53 13.116C158.118 14.124 158.412 15.162 158.412 16.23C158.412 18.282 157.26 19.308 154.956 19.308C154.68 19.308 154.38 19.29 154.056 19.254C153.732 19.218 153.408 19.182 153.084 19.146ZM161.969 10.164C162.425 10.068 162.941 10.008 163.517 9.984C164.093 9.96 164.549 9.948 164.885 9.948C165.245 9.948 165.677 9.96 166.181 9.984C166.697 10.008 167.195 10.068 167.675 10.164V30C167.195 30.084 166.697 30.138 166.181 30.162C165.677 30.198 165.245 30.216 164.885 30.216C164.549 30.216 164.093 30.198 163.517 30.162C162.941 30.138 162.425 30.084 161.969 30V10.164ZM171.443 20.118C171.443 16.902 172.271 14.352 173.927 12.468C175.595 10.572 178.025 9.624 181.217 9.624C184.457 9.624 186.899 10.566 188.543 12.45C190.199 14.322 191.027 16.878 191.027 20.118C191.027 23.358 190.199 25.908 188.543 27.768C186.887 29.616 184.445 30.54 181.217 30.54C177.977 30.54 175.535 29.604 173.891 27.732C172.259 25.86 171.443 23.322 171.443 20.118ZM177.257 20.118C177.257 20.802 177.299 21.51 177.383 22.242C177.479 22.962 177.659 23.634 177.923 24.258C178.199 24.882 178.601 25.392 179.129 25.788C179.657 26.172 180.359 26.364 181.235 26.364C182.111 26.364 182.813 26.172 183.341 25.788C183.869 25.392 184.265 24.882 184.529 24.258C184.805 23.634 184.985 22.962 185.069 22.242C185.165 21.51 185.213 20.802 185.213 20.118C185.213 19.422 185.165 18.708 185.069 17.976C184.985 17.232 184.805 16.548 184.529 15.924C184.265 15.288 183.869 14.778 183.341 14.394C182.813 13.998 182.111 13.8 181.235 13.8C180.359 13.8 179.657 13.998 179.129 14.394C178.601 14.778 178.199 15.288 177.923 15.924C177.659 16.548 177.479 17.232 177.383 17.976C177.299 18.708 177.257 19.422 177.257 20.118ZM183.449 0.425998C184.109 0.629999 184.781 1.044 185.465 1.668C186.161 2.28 186.617 2.946 186.833 3.666L180.173 8.67C179.705 8.526 179.249 8.256 178.805 7.86C178.361 7.464 178.043 7.008 177.851 6.492L183.449 0.425998ZM201.717 20.946C201.633 20.754 201.501 20.454 201.321 20.046C201.141 19.626 200.949 19.176 200.745 18.696C200.541 18.216 200.349 17.766 200.169 17.346C200.001 16.926 199.869 16.62 199.773 16.428L199.647 16.482C199.695 17.43 199.743 18.456 199.791 19.56C199.839 20.652 199.875 21.654 199.899 22.566C199.935 23.466 199.953 24.12 199.953 24.528V30C199.485 30.084 199.035 30.138 198.603 30.162C198.171 30.198 197.769 30.216 197.397 30.216C197.061 30.216 196.641 30.198 196.137 30.162C195.645 30.138 195.177 30.084 194.733 30V10.29C195.177 10.182 195.729 10.098 196.389 10.038C197.049 9.978 197.559 9.948 197.919 9.948C198.291 9.948 198.819 9.96 199.503 9.984C200.187 9.996 200.751 10.056 201.195 10.164L205.425 19.182C205.509 19.35 205.647 19.656 205.839 20.1C206.043 20.544 206.259 21.03 206.487 21.558C206.715 22.086 206.925 22.584 207.117 23.052C207.321 23.508 207.471 23.844 207.567 24.06L207.729 24.024C207.681 23.232 207.615 22.308 207.531 21.252C207.459 20.196 207.393 19.176 207.333 18.192C207.273 17.208 207.243 16.422 207.243 15.834V13.026C207.243 11.754 207.519 10.92 208.071 10.524C208.623 10.116 209.445 9.912 210.537 9.912H212.391L212.607 10.164V29.892C212.139 30 211.575 30.078 210.915 30.126C210.255 30.186 209.751 30.216 209.403 30.216C209.163 30.216 208.833 30.21 208.413 30.198C207.993 30.186 207.561 30.168 207.117 30.144C206.685 30.12 206.325 30.072 206.037 30L201.717 20.946Z" fill="#364760"/>
</svg>
