<svg width="207" height="26" viewBox="0 0 207 26" fill="none" xmlns="http://www.w3.org/2000/svg">
<path d="M0.735734 0.411999C1.20373 0.327999 1.71373 0.273999 2.26573 0.249998C2.81773 0.213999 3.27373 0.196 3.63373 0.196C4.01773 0.196 4.47373 0.213999 5.00173 0.249998C5.52973 0.273999 6.03373 0.327999 6.51373 0.411999V25C6.03373 25.084 5.52973 25.138 5.00173 25.162C4.47373 25.198 4.01773 25.216 3.63373 25.216C3.27373 25.216 2.81773 25.198 2.26573 25.162C1.71373 25.138 1.20373 25.084 0.735734 25V0.411999ZM18.9295 15.946C18.8455 15.754 18.7135 15.454 18.5335 15.046C18.3535 14.626 18.1615 14.176 17.9575 13.696C17.7535 13.216 17.5615 12.766 17.3815 12.346C17.2135 11.926 17.0815 11.62 16.9855 11.428L16.8595 11.482C16.9075 12.43 16.9555 13.456 17.0035 14.56C17.0515 15.652 17.0875 16.654 17.1115 17.566C17.1475 18.466 17.1655 19.12 17.1655 19.528V25C16.6975 25.084 16.2475 25.138 15.8155 25.162C15.3835 25.198 14.9815 25.216 14.6095 25.216C14.2735 25.216 13.8535 25.198 13.3495 25.162C12.8575 25.138 12.3895 25.084 11.9455 25V5.29C12.3895 5.182 12.9415 5.098 13.6015 5.038C14.2615 4.978 14.7715 4.948 15.1315 4.948C15.5035 4.948 16.0315 4.96 16.7155 4.984C17.3995 4.996 17.9635 5.056 18.4075 5.164L22.6375 14.182C22.7215 14.35 22.8595 14.656 23.0515 15.1C23.2555 15.544 23.4715 16.03 23.6995 16.558C23.9275 17.086 24.1375 17.584 24.3295 18.052C24.5335 18.508 24.6835 18.844 24.7795 19.06L24.9415 19.024C24.8935 18.232 24.8275 17.308 24.7435 16.252C24.6715 15.196 24.6055 14.176 24.5455 13.192C24.4855 12.208 24.4555 11.422 24.4555 10.834V8.026C24.4555 6.754 24.7315 5.92 25.2835 5.524C25.8355 5.116 26.6575 4.912 27.7495 4.912H29.6035L29.8195 5.164V24.892C29.3515 25 28.7875 25.078 28.1275 25.126C27.4675 25.186 26.9635 25.216 26.6155 25.216C26.3755 25.216 26.0455 25.21 25.6255 25.198C25.2055 25.186 24.7735 25.168 24.3295 25.144C23.8975 25.12 23.5375 25.072 23.2495 25L18.9295 15.946ZM38.032 11.914C38.032 11.53 38.038 11.176 38.05 10.852C38.062 10.516 38.068 10.144 38.068 9.736C37.816 9.736 37.468 9.742 37.024 9.754C36.592 9.766 36.25 9.772 35.998 9.772H32.668C32.572 9.34 32.512 8.938 32.488 8.566C32.464 8.182 32.452 7.834 32.452 7.522C32.452 7.21 32.464 6.844 32.488 6.424C32.512 5.992 32.572 5.572 32.668 5.164H48.958C49.042 5.488 49.102 5.854 49.138 6.262C49.186 6.67 49.21 7 49.21 7.252C49.21 8.068 48.994 8.692 48.562 9.124C48.13 9.556 47.41 9.772 46.402 9.772H45.664C45.412 9.772 45.076 9.766 44.656 9.754C44.248 9.742 43.93 9.736 43.702 9.736C43.702 10.144 43.708 10.516 43.72 10.852C43.732 11.176 43.738 11.53 43.738 11.914V25C43.402 25.072 42.94 25.126 42.352 25.162C41.764 25.198 41.272 25.216 40.876 25.216C40.504 25.216 40.036 25.198 39.472 25.162C38.908 25.126 38.428 25.072 38.032 25V11.914ZM66.7389 20.482C66.7389 22.198 66.4689 23.392 65.9289 24.064C65.4009 24.736 64.5009 25.072 63.2289 25.072H54.9309C53.9109 25.072 53.1069 24.784 52.5189 24.208C51.9309 23.62 51.6369 22.834 51.6369 21.85V5.362L51.8349 5.164H66.0729C66.1569 5.572 66.2049 5.962 66.2169 6.334C66.2289 6.706 66.2349 7.06 66.2349 7.396C66.2349 7.72 66.1989 8.086 66.1269 8.494C66.0669 8.902 65.9589 9.316 65.8029 9.736H59.5029C58.9989 9.736 58.2369 9.73 57.2169 9.718C57.2289 10.09 57.2349 10.408 57.2349 10.672C57.2469 10.936 57.2529 11.254 57.2529 11.626V12.814C58.2489 12.802 58.9989 12.796 59.5029 12.796H64.1109C64.2309 13.12 64.3089 13.492 64.3449 13.912C64.3929 14.32 64.4169 14.668 64.4169 14.956C64.4169 15.292 64.3929 15.67 64.3449 16.09C64.3089 16.498 64.2309 16.87 64.1109 17.206H59.5029C59.2749 17.206 58.9569 17.206 58.5489 17.206C58.1409 17.206 57.7089 17.206 57.2529 17.206V18.376C57.2529 18.82 57.2469 19.186 57.2349 19.474C57.2229 19.762 57.2169 20.122 57.2169 20.554V20.59C57.6369 20.566 58.0269 20.542 58.3869 20.518C58.7469 20.494 59.1849 20.482 59.7009 20.482H66.7389ZM82.004 19.744C82.004 19.144 82.016 18.544 82.04 17.944C81.824 17.944 81.602 17.944 81.374 17.944C81.158 17.944 80.948 17.944 80.744 17.944C79.856 17.944 79.208 17.758 78.8 17.386C78.392 17.002 78.188 16.396 78.188 15.568C78.188 15.244 78.212 14.866 78.26 14.434C78.32 14.002 78.392 13.672 78.476 13.444C79.34 13.408 80.198 13.39 81.05 13.39C81.902 13.378 82.766 13.372 83.642 13.372C85.022 13.372 85.964 13.636 86.468 14.164C86.984 14.692 87.242 15.442 87.242 16.414V24.37C86.606 24.574 85.796 24.766 84.812 24.946C83.828 25.126 82.808 25.27 81.752 25.378C80.696 25.486 79.736 25.54 78.872 25.54C76.484 25.54 74.552 25.102 73.076 24.226C71.612 23.35 70.544 22.15 69.872 20.626C69.212 19.09 68.882 17.35 68.882 15.406C68.882 12.838 69.356 10.768 70.304 9.196C71.264 7.612 72.536 6.454 74.12 5.722C75.704 4.99 77.438 4.624 79.322 4.624C80.738 4.624 82.1 4.768 83.408 5.056C84.728 5.332 85.892 5.704 86.9 6.172C86.84 6.952 86.606 7.768 86.198 8.62C85.802 9.46 85.352 10.102 84.848 10.546C83.012 9.634 81.266 9.178 79.61 9.178C76.334 9.178 74.696 11.23 74.696 15.334C74.696 17.374 75.116 18.88 75.956 19.852C76.796 20.824 78.086 21.31 79.826 21.31C80.186 21.31 80.552 21.298 80.924 21.274C81.296 21.238 81.656 21.19 82.004 21.13V19.744ZM107.703 11.194C107.703 12.118 107.493 12.94 107.073 13.66C106.653 14.38 106.125 14.974 105.489 15.442C104.865 15.91 104.241 16.21 103.617 16.342C104.265 16.558 104.799 16.888 105.219 17.332C105.651 17.776 106.023 18.346 106.335 19.042L107.271 21.184C107.487 21.676 107.733 22.132 108.009 22.552C108.285 22.96 108.591 23.308 108.927 23.596C108.579 24.028 108.057 24.43 107.361 24.802C106.665 25.162 105.909 25.342 105.093 25.342C104.289 25.342 103.635 25.15 103.131 24.766C102.639 24.37 102.207 23.74 101.835 22.876L100.251 19.24C99.9993 18.652 99.6873 18.298 99.3153 18.178C98.9433 18.058 98.4633 17.998 97.8753 17.998H97.1733V25C96.6933 25.084 96.1953 25.138 95.6793 25.162C95.1753 25.198 94.7433 25.216 94.3833 25.216C94.0473 25.216 93.6033 25.198 93.0513 25.162C92.4993 25.138 91.9953 25.084 91.5393 25V5.344L91.7373 5.128C93.1893 5.092 94.5513 5.062 95.8233 5.038C97.1073 5.002 98.3853 4.984 99.6573 4.984C101.097 4.984 102.429 5.176 103.653 5.56C104.877 5.932 105.855 6.574 106.587 7.486C107.331 8.386 107.703 9.622 107.703 11.194ZM97.1733 9.052V13.714C97.5933 13.702 97.9773 13.696 98.3253 13.696C98.6853 13.684 98.9493 13.678 99.1173 13.678C100.197 13.678 100.929 13.444 101.313 12.976C101.697 12.508 101.889 11.962 101.889 11.338C101.889 10.726 101.697 10.198 101.313 9.754C100.929 9.31 100.287 9.088 99.3873 9.088C98.9553 9.088 98.5833 9.082 98.2713 9.07C97.9593 9.058 97.5933 9.052 97.1733 9.052ZM117.075 21.526C116.883 21.526 116.697 21.526 116.517 21.526C116.337 21.514 116.157 21.502 115.977 21.49L114.861 25C114.513 25.084 114.135 25.144 113.727 25.18C113.319 25.228 112.893 25.252 112.449 25.252C111.969 25.252 111.483 25.216 110.991 25.144C110.511 25.072 110.115 24.97 109.803 24.838L109.605 24.532L116.607 5.164C117.231 5.068 117.831 5.008 118.407 4.984C118.995 4.96 119.529 4.948 120.009 4.948C120.453 4.948 120.933 4.96 121.449 4.984C121.965 5.008 122.547 5.068 123.195 5.164L129.999 24.73C129.579 24.922 129.045 25.066 128.397 25.162C127.749 25.27 127.227 25.324 126.831 25.324C126.171 25.324 125.535 25.198 124.923 24.946C124.311 24.694 123.849 24.028 123.537 22.948L123.087 21.49C122.895 21.502 122.709 21.514 122.529 21.526C122.349 21.526 122.157 21.526 121.953 21.526H117.075ZM117.795 15.838L117.399 17.08C117.579 17.068 117.759 17.062 117.939 17.062C118.119 17.05 118.305 17.044 118.497 17.044H120.747C120.927 17.044 121.089 17.05 121.233 17.062C121.389 17.062 121.545 17.068 121.701 17.08L121.323 15.856C121.047 14.908 120.771 13.852 120.495 12.688C120.219 11.524 119.967 10.468 119.739 9.52H119.523C119.271 10.432 118.989 11.476 118.677 12.652C118.377 13.828 118.083 14.89 117.795 15.838ZM139.726 15.946C139.642 15.754 139.51 15.454 139.33 15.046C139.15 14.626 138.958 14.176 138.754 13.696C138.55 13.216 138.358 12.766 138.178 12.346C138.01 11.926 137.878 11.62 137.782 11.428L137.656 11.482C137.704 12.43 137.752 13.456 137.8 14.56C137.848 15.652 137.884 16.654 137.908 17.566C137.944 18.466 137.962 19.12 137.962 19.528V25C137.494 25.084 137.044 25.138 136.612 25.162C136.18 25.198 135.778 25.216 135.406 25.216C135.07 25.216 134.65 25.198 134.146 25.162C133.654 25.138 133.186 25.084 132.742 25V5.29C133.186 5.182 133.738 5.098 134.398 5.038C135.058 4.978 135.568 4.948 135.928 4.948C136.3 4.948 136.828 4.96 137.512 4.984C138.196 4.996 138.76 5.056 139.204 5.164L143.434 14.182C143.518 14.35 143.656 14.656 143.848 15.1C144.052 15.544 144.268 16.03 144.496 16.558C144.724 17.086 144.934 17.584 145.126 18.052C145.33 18.508 145.48 18.844 145.576 19.06L145.738 19.024C145.69 18.232 145.624 17.308 145.54 16.252C145.468 15.196 145.402 14.176 145.342 13.192C145.282 12.208 145.252 11.422 145.252 10.834V8.026C145.252 6.754 145.528 5.92 146.08 5.524C146.632 5.116 147.454 4.912 148.546 4.912H150.4L150.616 5.164V24.892C150.148 25 149.584 25.078 148.924 25.126C148.264 25.186 147.76 25.216 147.412 25.216C147.172 25.216 146.842 25.21 146.422 25.198C146.002 25.186 145.57 25.168 145.126 25.144C144.694 25.12 144.334 25.072 144.046 25L139.726 15.946ZM158.829 11.914C158.829 11.53 158.835 11.176 158.847 10.852C158.859 10.516 158.865 10.144 158.865 9.736C158.613 9.736 158.265 9.742 157.821 9.754C157.389 9.766 157.047 9.772 156.795 9.772H153.465C153.369 9.34 153.309 8.938 153.285 8.566C153.261 8.182 153.249 7.834 153.249 7.522C153.249 7.21 153.261 6.844 153.285 6.424C153.309 5.992 153.369 5.572 153.465 5.164H169.755C169.839 5.488 169.899 5.854 169.935 6.262C169.983 6.67 170.007 7 170.007 7.252C170.007 8.068 169.791 8.692 169.359 9.124C168.927 9.556 168.207 9.772 167.199 9.772H166.461C166.209 9.772 165.873 9.766 165.453 9.754C165.045 9.742 164.727 9.736 164.499 9.736C164.499 10.144 164.505 10.516 164.517 10.852C164.529 11.176 164.535 11.53 164.535 11.914V25C164.199 25.072 163.737 25.126 163.149 25.162C162.561 25.198 162.069 25.216 161.673 25.216C161.301 25.216 160.833 25.198 160.269 25.162C159.705 25.126 159.225 25.072 158.829 25V11.914ZM187.536 20.482C187.536 22.198 187.266 23.392 186.726 24.064C186.198 24.736 185.298 25.072 184.026 25.072H175.728C174.708 25.072 173.904 24.784 173.316 24.208C172.728 23.62 172.434 22.834 172.434 21.85V5.362L172.632 5.164H186.87C186.954 5.572 187.002 5.962 187.014 6.334C187.026 6.706 187.032 7.06 187.032 7.396C187.032 7.72 186.996 8.086 186.924 8.494C186.864 8.902 186.756 9.316 186.6 9.736H180.3C179.796 9.736 179.034 9.73 178.014 9.718C178.026 10.09 178.032 10.408 178.032 10.672C178.044 10.936 178.05 11.254 178.05 11.626V12.814C179.046 12.802 179.796 12.796 180.3 12.796H184.908C185.028 13.12 185.106 13.492 185.142 13.912C185.19 14.32 185.214 14.668 185.214 14.956C185.214 15.292 185.19 15.67 185.142 16.09C185.106 16.498 185.028 16.87 184.908 17.206H180.3C180.072 17.206 179.754 17.206 179.346 17.206C178.938 17.206 178.506 17.206 178.05 17.206V18.376C178.05 18.82 178.044 19.186 178.032 19.474C178.02 19.762 178.014 20.122 178.014 20.554V20.59C178.434 20.566 178.824 20.542 179.184 20.518C179.544 20.494 179.982 20.482 180.498 20.482H187.536ZM189.527 23.506C189.527 23.05 189.617 22.546 189.797 21.994C189.977 21.43 190.223 20.908 190.535 20.428C190.847 19.948 191.189 19.588 191.561 19.348C192.449 19.828 193.439 20.242 194.531 20.59C195.623 20.926 196.691 21.094 197.735 21.094C198.407 21.094 198.959 20.956 199.391 20.68C199.835 20.404 200.057 20.014 200.057 19.51C200.057 19.186 199.931 18.892 199.679 18.628C199.427 18.352 198.989 18.1 198.365 17.872L195.377 16.702C194.453 16.366 193.589 15.946 192.785 15.442C191.981 14.938 191.333 14.32 190.841 13.588C190.349 12.856 190.103 11.98 190.103 10.96C190.103 9.088 190.823 7.564 192.263 6.388C193.703 5.212 195.641 4.624 198.077 4.624C199.457 4.624 200.825 4.786 202.181 5.11C203.549 5.422 204.695 5.782 205.619 6.19C205.619 7.006 205.451 7.81 205.115 8.602C204.779 9.394 204.317 10.018 203.729 10.474C202.841 10.078 201.875 9.748 200.831 9.484C199.787 9.208 198.845 9.07 198.005 9.07C197.381 9.07 196.901 9.202 196.565 9.466C196.241 9.73 196.079 10.048 196.079 10.42C196.079 10.768 196.241 11.032 196.565 11.212C196.889 11.392 197.291 11.572 197.771 11.752L200.741 12.886C202.397 13.486 203.711 14.314 204.683 15.37C205.667 16.414 206.159 17.704 206.159 19.24C206.159 20.596 205.793 21.742 205.061 22.678C204.341 23.614 203.351 24.322 202.091 24.802C200.843 25.282 199.433 25.528 197.861 25.54C195.989 25.54 194.321 25.324 192.857 24.892C191.405 24.46 190.295 23.998 189.527 23.506Z" fill="#364760"/>
</svg>
