<svg width="133" height="35" viewBox="0 0 133 35" fill="none" xmlns="http://www.w3.org/2000/svg">
<path d="M21.1747 27.52C21.1747 29.952 20.7747 31.664 19.9747 32.656C19.1907 33.648 17.8467 34.144 15.9427 34.144H5.11869C3.74269 34.144 2.65469 33.744 1.85469 32.944C1.05469 32.144 0.654688 31.048 0.654688 29.656V1.216L0.990688 0.903998H3.79869C5.27069 0.903998 6.39869 1.288 7.18269 2.056C7.96669 2.808 8.35869 4.04 8.35869 5.752V27.688C9.92669 27.576 11.4227 27.52 12.8467 27.52H21.1747ZM23.5511 20.824C23.5511 16.536 24.6551 13.136 26.8631 10.624C29.0871 8.096 32.3271 6.832 36.5831 6.832C40.9031 6.832 44.1591 8.088 46.3511 10.6C48.5591 13.096 49.6631 16.504 49.6631 20.824C49.6631 25.144 48.5591 28.544 46.3511 31.024C44.1431 33.488 40.8871 34.72 36.5831 34.72C32.2631 34.72 29.0071 33.472 26.8151 30.976C24.6391 28.48 23.5511 25.096 23.5511 20.824ZM31.3031 20.824C31.3031 21.736 31.3591 22.68 31.4711 23.656C31.5991 24.616 31.8391 25.512 32.1911 26.344C32.5591 27.176 33.0951 27.856 33.7991 28.384C34.5031 28.896 35.4391 29.152 36.6071 29.152C37.7751 29.152 38.7111 28.896 39.4151 28.384C40.1191 27.856 40.6471 27.176 40.9991 26.344C41.3671 25.512 41.6071 24.616 41.7191 23.656C41.8471 22.68 41.9111 21.736 41.9111 20.824C41.9111 19.896 41.8471 18.944 41.7191 17.968C41.6071 16.976 41.3671 16.064 40.9991 15.232C40.6471 14.384 40.1191 13.704 39.4151 13.192C38.7111 12.664 37.7751 12.4 36.6071 12.4C35.4391 12.4 34.5031 12.664 33.7991 13.192C33.0951 13.704 32.5591 14.384 32.1911 15.232C31.8391 16.064 31.5991 16.976 31.4711 17.968C31.3591 18.944 31.3031 19.896 31.3031 20.824ZM70.1564 26.992C70.1564 26.192 70.1724 25.392 70.2044 24.592C69.9164 24.592 69.6204 24.592 69.3164 24.592C69.0284 24.592 68.7484 24.592 68.4764 24.592C67.2924 24.592 66.4284 24.344 65.8844 23.848C65.3404 23.336 65.0684 22.528 65.0684 21.424C65.0684 20.992 65.1004 20.488 65.1644 19.912C65.2444 19.336 65.3404 18.896 65.4524 18.592C66.6044 18.544 67.7484 18.52 68.8844 18.52C70.0204 18.504 71.1724 18.496 72.3404 18.496C74.1804 18.496 75.4364 18.848 76.1084 19.552C76.7964 20.256 77.1404 21.256 77.1404 22.552V33.16C76.2924 33.432 75.2124 33.688 73.9004 33.928C72.5884 34.168 71.2284 34.36 69.8204 34.504C68.4124 34.648 67.1324 34.72 65.9804 34.72C62.7964 34.72 60.2204 34.136 58.2524 32.968C56.3004 31.8 54.8764 30.2 53.9804 28.168C53.1004 26.12 52.6604 23.8 52.6604 21.208C52.6604 17.784 53.2924 15.024 54.5564 12.928C55.8364 10.816 57.5324 9.272 59.6444 8.296C61.7564 7.32 64.0684 6.832 66.5804 6.832C68.4684 6.832 70.2844 7.024 72.0284 7.408C73.7884 7.776 75.3404 8.272 76.6844 8.896C76.6044 9.936 76.2924 11.024 75.7484 12.16C75.2204 13.28 74.6204 14.136 73.9484 14.728C71.5004 13.512 69.1724 12.904 66.9644 12.904C62.5964 12.904 60.4124 15.64 60.4124 21.112C60.4124 23.832 60.9724 25.84 62.0924 27.136C63.2124 28.432 64.9324 29.08 67.2524 29.08C67.7324 29.08 68.2204 29.064 68.7164 29.032C69.2124 28.984 69.6924 28.92 70.1564 28.84V26.992ZM93.7049 1.216C94.3289 1.104 95.0089 1.032 95.7449 0.999997C96.4809 0.951999 97.0889 0.927999 97.5689 0.927999C98.0809 0.927999 98.6889 0.951999 99.3929 0.999997C100.097 1.032 100.769 1.104 101.409 1.216V34C100.769 34.112 100.097 34.184 99.3929 34.216C98.6889 34.264 98.0809 34.288 97.5689 34.288C97.0889 34.288 96.4809 34.264 95.7449 34.216C95.0089 34.184 94.3289 34.112 93.7049 34V1.216ZM117.963 21.928C117.851 21.672 117.675 21.272 117.435 20.728C117.195 20.168 116.939 19.568 116.667 18.928C116.395 18.288 116.139 17.688 115.899 17.128C115.675 16.568 115.499 16.16 115.371 15.904L115.203 15.976C115.267 17.24 115.331 18.608 115.395 20.08C115.459 21.536 115.507 22.872 115.539 24.088C115.587 25.288 115.611 26.16 115.611 26.704V34C114.987 34.112 114.387 34.184 113.811 34.216C113.235 34.264 112.699 34.288 112.203 34.288C111.755 34.288 111.195 34.264 110.523 34.216C109.867 34.184 109.243 34.112 108.651 34V7.72C109.243 7.576 109.979 7.464 110.859 7.384C111.739 7.304 112.419 7.264 112.899 7.264C113.395 7.264 114.099 7.28 115.011 7.312C115.923 7.328 116.675 7.408 117.267 7.552L122.907 19.576C123.019 19.8 123.203 20.208 123.459 20.8C123.731 21.392 124.019 22.04 124.323 22.744C124.627 23.448 124.907 24.112 125.163 24.736C125.435 25.344 125.635 25.792 125.763 26.08L125.979 26.032C125.915 24.976 125.827 23.744 125.715 22.336C125.619 20.928 125.531 19.568 125.451 18.256C125.371 16.944 125.331 15.896 125.331 15.112V11.368C125.331 9.672 125.699 8.56 126.435 8.032C127.171 7.488 128.267 7.216 129.723 7.216H132.195L132.483 7.552V33.856C131.859 34 131.107 34.104 130.227 34.168C129.347 34.248 128.675 34.288 128.211 34.288C127.891 34.288 127.451 34.28 126.891 34.264C126.331 34.248 125.755 34.224 125.163 34.192C124.587 34.16 124.107 34.096 123.723 34L117.963 21.928Z" fill="white"/>
</svg>
