<svg width="264" height="69" viewBox="0 0 264 69" fill="none" xmlns="http://www.w3.org/2000/svg">
<path d="M41.3494 54.04C41.3494 58.904 40.5494 62.328 38.9494 64.312C37.3814 66.296 34.6934 67.288 30.8854 67.288H9.23738C6.48538 67.288 4.30938 66.488 2.70938 64.888C1.10938 63.288 0.309375 61.096 0.309375 58.312V1.432L0.981375 0.807997H6.59738C9.54138 0.807997 11.7974 1.576 13.3654 3.112C14.9334 4.616 15.7174 7.08 15.7174 10.504V54.376C18.8534 54.152 21.8454 54.04 24.6934 54.04H41.3494ZM46.1021 40.648C46.1021 32.072 48.3101 25.272 52.7261 20.248C57.1741 15.192 63.6541 12.664 72.1661 12.664C80.8061 12.664 87.3181 15.176 91.7021 20.2C96.1181 25.192 98.3261 32.008 98.3261 40.648C98.3261 49.288 96.1181 56.088 91.7021 61.048C87.2861 65.976 80.7741 68.44 72.1661 68.44C63.5261 68.44 57.0141 65.944 52.6301 60.952C48.2781 55.96 46.1021 49.192 46.1021 40.648ZM61.6061 40.648C61.6061 42.472 61.7181 44.36 61.9421 46.312C62.1981 48.232 62.6781 50.024 63.3821 51.688C64.1181 53.352 65.1901 54.712 66.5981 55.768C68.0061 56.792 69.8781 57.304 72.2141 57.304C74.5501 57.304 76.4221 56.792 77.8301 55.768C79.2381 54.712 80.2941 53.352 80.9981 51.688C81.7341 50.024 82.2141 48.232 82.4381 46.312C82.6941 44.36 82.8221 42.472 82.8221 40.648C82.8221 38.792 82.6941 36.888 82.4381 34.936C82.2141 32.952 81.7341 31.128 80.9981 29.464C80.2941 27.768 79.2381 26.408 77.8301 25.384C76.4221 24.328 74.5501 23.8 72.2141 23.8C69.8781 23.8 68.0061 24.328 66.5981 25.384C65.1901 26.408 64.1181 27.768 63.3821 29.464C62.6781 31.128 62.1981 32.952 61.9421 34.936C61.7181 36.888 61.6061 38.792 61.6061 40.648ZM139.313 52.984C139.313 51.384 139.345 49.784 139.409 48.184C138.833 48.184 138.241 48.184 137.633 48.184C137.057 48.184 136.497 48.184 135.953 48.184C133.585 48.184 131.857 47.688 130.769 46.696C129.681 45.672 129.137 44.056 129.137 41.848C129.137 40.984 129.201 39.976 129.329 38.824C129.489 37.672 129.681 36.792 129.905 36.184C132.209 36.088 134.497 36.04 136.769 36.04C139.041 36.008 141.345 35.992 143.681 35.992C147.361 35.992 149.873 36.696 151.217 38.104C152.593 39.512 153.281 41.512 153.281 44.104V65.32C151.585 65.864 149.425 66.376 146.801 66.856C144.177 67.336 141.457 67.72 138.641 68.008C135.825 68.296 133.265 68.44 130.961 68.44C124.593 68.44 119.441 67.272 115.505 64.936C111.601 62.6 108.753 59.4 106.961 55.336C105.201 51.24 104.321 46.6 104.321 41.416C104.321 34.568 105.585 29.048 108.113 24.856C110.673 20.632 114.065 17.544 118.289 15.592C122.513 13.64 127.137 12.664 132.161 12.664C135.937 12.664 139.569 13.048 143.057 13.816C146.577 14.552 149.681 15.544 152.369 16.792C152.209 18.872 151.585 21.048 150.497 23.32C149.441 25.56 148.241 27.272 146.897 28.456C142.001 26.024 137.345 24.808 132.929 24.808C124.193 24.808 119.825 30.28 119.825 41.224C119.825 46.664 120.945 50.68 123.185 53.272C125.425 55.864 128.865 57.16 133.505 57.16C134.465 57.16 135.441 57.128 136.433 57.064C137.425 56.968 138.385 56.84 139.313 56.68V52.984ZM186.41 1.432C187.658 1.208 189.018 1.064 190.49 0.999994C191.962 0.903997 193.178 0.855999 194.138 0.855999C195.162 0.855999 196.378 0.903997 197.786 0.999994C199.194 1.064 200.538 1.208 201.818 1.432V67C200.538 67.224 199.194 67.368 197.786 67.432C196.378 67.528 195.162 67.576 194.138 67.576C193.178 67.576 191.962 67.528 190.49 67.432C189.018 67.368 187.658 67.224 186.41 67V1.432ZM234.927 42.856C234.703 42.344 234.351 41.544 233.871 40.456C233.391 39.336 232.879 38.136 232.335 36.856C231.791 35.576 231.279 34.376 230.799 33.256C230.351 32.136 229.999 31.32 229.743 30.808L229.407 30.952C229.535 33.48 229.663 36.216 229.791 39.16C229.919 42.072 230.015 44.744 230.079 47.176C230.175 49.576 230.223 51.32 230.223 52.408V67C228.975 67.224 227.775 67.368 226.623 67.432C225.471 67.528 224.399 67.576 223.407 67.576C222.511 67.576 221.391 67.528 220.047 67.432C218.735 67.368 217.487 67.224 216.303 67V14.44C217.487 14.152 218.959 13.928 220.719 13.768C222.479 13.608 223.839 13.528 224.799 13.528C225.791 13.528 227.199 13.56 229.023 13.624C230.847 13.656 232.351 13.816 233.535 14.104L244.815 38.152C245.039 38.6 245.407 39.416 245.919 40.6C246.463 41.784 247.039 43.08 247.647 44.488C248.255 45.896 248.815 47.224 249.327 48.472C249.871 49.688 250.271 50.584 250.527 51.16L250.959 51.064C250.831 48.952 250.655 46.488 250.431 43.672C250.239 40.856 250.063 38.136 249.903 35.512C249.743 32.888 249.663 30.792 249.663 29.224V21.736C249.663 18.344 250.399 16.12 251.871 15.064C253.343 13.976 255.535 13.432 258.447 13.432H263.391L263.967 14.104V66.712C262.719 67 261.215 67.208 259.455 67.336C257.695 67.496 256.351 67.576 255.423 67.576C254.783 67.576 253.903 67.56 252.783 67.528C251.663 67.496 250.511 67.448 249.327 67.384C248.175 67.32 247.215 67.192 246.447 67L234.927 42.856Z" fill="white"/>
</svg>
