<svg width="806" height="766" viewBox="0 0 806 766" fill="none" xmlns="http://www.w3.org/2000/svg">
<g clip-path="url(#clip0)" filter="url(#filter0_dd)">
<path d="M430.333 221.386L445.399 222.688C434.774 206.994 437.249 164.467 437.249 164.467L470.299 191.091C486.753 192.513 430.239 126.113 425.257 141.461C408.658 192.616 430.333 221.386 430.333 221.386ZM563.172 269.619L578.626 252.578L538.852 236.758L563.173 269.619L563.172 269.619ZM632.272 325.123L645.327 303.481L623.639 295.614L632.272 325.123ZM171.072 337.051C303.671 349.578 378.561 327.292 383.519 319.199C316.329 344.816 177.194 309.353 119.031 322.965C119.031 322.965 144.198 278.274 179.676 262.169C215.152 246.063 371.608 281.42 371.608 281.42C251.4 230.286 129.92 249.343 129.92 249.343C172.858 150 272.947 181.286 272.947 181.286C260.915 166.398 200.498 169.167 200.498 169.167L175.827 152.654C230.687 109.463 309.196 125.436 309.196 125.436C304.983 118.68 262.339 112.997 262.339 112.997L237.869 95.7027C285.609 79.4615 346.847 101.129 346.847 101.129C346.998 94.7528 315.692 87.25 315.692 87.25L303.466 76.2081C338.848 68.8839 386.089 86.1472 386.089 86.1472C388.085 81.5259 374.392 64.3649 374.392 64.3649C417.676 67.3083 442.992 99.4517 442.992 99.4517C444.724 94.8107 444.488 82.1403 444.488 82.1403C502.814 115.942 507.008 184.477 507.008 184.477L539.852 186.515L577.762 225.478L579.65 234.427C618.204 256.667 636.701 267.586 652.243 278.785C662.157 293.487 656.775 309.532 656.775 309.532L629.465 352.839L563.5 353.527L559.559 366.77L617.116 370.944L605.236 397.479L612.489 424.468L588.959 424.034L578.871 448.326L568.988 437.884L553.002 456.475L530.853 426.202L531.662 421.478L518.576 420.347L472.681 364.452L482.921 333.783L464.869 325.429L457.836 291.271L481.102 248.544L460.755 234.404L464.232 254.274L442.426 293.935L453.758 335.39L466.825 341.314L457.887 367.702L514.176 440.473L523.277 439.929C618.587 569.596 545.477 657.545 545.477 657.545C539.793 600.067 501.436 563.198 501.436 563.198C530.447 529.487 521.735 482.401 521.735 482.401C509.144 535.637 473.882 567.739 473.882 567.739L446.375 528.613C481.612 490.649 480.143 452.175 480.143 452.175C435.096 542.016 390.306 548.798 390.306 548.798L378.749 509.985C444.066 462.905 444.894 422.5 444.894 422.5C393.321 513.906 299.942 515.956 299.942 515.956L298.813 467.393C395.923 428.388 412.008 383.972 412.008 383.972C318.072 466.393 228.14 465.545 228.14 465.545C235.88 456.094 239.786 404.771 239.786 404.771C374.801 389.277 406.212 333.943 406.212 333.943C283.229 419.713 181.938 371.544 112.909 393.804C117.909 372.929 171.074 337.051 171.074 337.051" fill="white"/>
</g>
<defs>
<filter id="filter0_dd" x="-3.99997" y="0" width="813.281" height="773.349" filterUnits="userSpaceOnUse" color-interpolation-filters="sRGB">
<feFlood flood-opacity="0" result="BackgroundImageFix"/>
<feColorMatrix in="SourceAlpha" type="matrix" values="0 0 0 0 0 0 0 0 0 0 0 0 0 0 0 0 0 0 127 0"/>
<feOffset dy="4"/>
<feGaussianBlur stdDeviation="2"/>
<feColorMatrix type="matrix" values="0 0 0 0 0 0 0 0 0 0 0 0 0 0 0 0 0 0 0.25 0"/>
<feBlend mode="normal" in2="BackgroundImageFix" result="effect1_dropShadow"/>
<feColorMatrix in="SourceAlpha" type="matrix" values="0 0 0 0 0 0 0 0 0 0 0 0 0 0 0 0 0 0 127 0"/>
<feOffset dy="4"/>
<feGaussianBlur stdDeviation="2"/>
<feColorMatrix type="matrix" values="0 0 0 0 0 0 0 0 0 0 0 0 0 0 0 0 0 0 0.25 0"/>
<feBlend mode="normal" in2="effect1_dropShadow" result="effect2_dropShadow"/>
<feBlend mode="normal" in="SourceGraphic" in2="effect2_dropShadow" result="shape"/>
</filter>
<clipPath id="clip0">
<rect width="750" height="706.35" fill="white" transform="matrix(-0.996647 -0.081823 -0.081823 0.996647 805.281 61.3672)"/>
</clipPath>
</defs>
</svg>
