<svg width="139" height="25" viewBox="0 0 139 25" fill="none" xmlns="http://www.w3.org/2000/svg">
<path d="M2.69169 0.907382C3.26731 0.805802 3.89373 0.738082 4.57093 0.704222C5.25942 0.670361 5.85197 0.653431 6.34859 0.653431C6.8452 0.653431 7.39825 0.670361 8.00774 0.704222C8.61722 0.738082 9.20977 0.805802 9.78539 0.907382L11.7831 9.18619C11.8283 9.38935 11.9017 9.73924 12.0032 10.2359C12.1161 10.7325 12.2403 11.2968 12.3757 11.9289C12.5111 12.5609 12.6353 13.1817 12.7482 13.7912C12.8723 14.4006 12.9682 14.9198 13.036 15.3487H13.273C13.3407 14.9198 13.4366 14.4006 13.5608 13.7912C13.685 13.1817 13.8091 12.5609 13.9333 11.9289C14.0687 11.2968 14.1929 10.7325 14.3057 10.2359C14.4186 9.73924 14.4976 9.38935 14.5427 9.18619L16.5405 0.907382C17.1161 0.805802 17.703 0.738082 18.3012 0.704222C18.9107 0.670361 19.4638 0.653431 19.9604 0.653431C20.457 0.653431 21.0495 0.670361 21.738 0.704222C22.4265 0.738082 23.0529 0.805802 23.6173 0.907382L25.4118 23.9323C25.0281 24.0339 24.5823 24.1016 24.0744 24.1354C23.5778 24.1806 23.1094 24.2032 22.6692 24.2032C22.2629 24.2032 21.8622 24.1919 21.4671 24.1693C21.0834 24.1467 20.694 24.1016 20.299 24.0339L19.7911 14.6038C19.7233 13.4074 19.6613 12.0869 19.6048 10.6422C19.5484 9.19747 19.5202 7.92207 19.5202 6.81598H19.2832L15.9479 20.5971C15.5416 20.6648 15.0676 20.7156 14.5258 20.7494C13.9841 20.772 13.5213 20.7833 13.1375 20.7833C12.7989 20.7833 12.3531 20.772 11.8001 20.7494C11.247 20.7156 10.7673 20.6648 10.361 20.5971L7.02579 6.81598H6.8057C6.79441 7.92207 6.76055 9.19747 6.70412 10.6422C6.65897 12.0869 6.60254 13.4074 6.53482 14.6038L6.00999 24.0339C5.62624 24.1016 5.23685 24.1467 4.84181 24.1693C4.44678 24.1919 4.0461 24.2032 3.63978 24.2032C3.21088 24.2032 2.74248 24.1806 2.23458 24.1354C1.73797 24.1016 1.29214 24.0339 0.897105 23.9323L2.69169 0.907382ZM29.7631 5.34306C30.192 5.25277 30.6774 5.19633 31.2191 5.17376C31.7609 5.15119 32.1898 5.1399 32.5058 5.1399C32.8444 5.1399 33.2507 5.15119 33.7248 5.17376C34.2101 5.19633 34.6785 5.25277 35.13 5.34306V24C34.6785 24.079 34.2101 24.1298 33.7248 24.1524C33.2507 24.1862 32.8444 24.2032 32.5058 24.2032C32.1898 24.2032 31.7609 24.1862 31.2191 24.1524C30.6774 24.1298 30.192 24.079 29.7631 24V5.34306ZM54.2496 19.7506C54.2496 21.3646 53.9956 22.4876 53.4877 23.1196C52.9911 23.7517 52.1446 24.0677 50.9482 24.0677H43.1434C42.1841 24.0677 41.4279 23.7968 40.8748 23.2551C40.3218 22.702 40.0452 21.9627 40.0452 21.0372V5.52929L40.2315 5.34306H53.6232C53.7022 5.72681 53.7473 6.09363 53.7586 6.44352C53.7699 6.7934 53.7755 7.12636 53.7755 7.44239C53.7755 7.74713 53.7417 8.09138 53.674 8.47512C53.6175 8.85887 53.5159 9.24826 53.3692 9.6433H47.4437C46.9696 9.6433 46.2529 9.63766 45.2936 9.62637C45.3049 9.97626 45.3105 10.2754 45.3105 10.5237C45.3218 10.772 45.3274 11.0711 45.3274 11.421V12.5383C46.2642 12.5271 46.9696 12.5214 47.4437 12.5214H51.7778C51.8907 12.8262 51.964 13.176 51.9979 13.5711C52.043 13.9548 52.0656 14.2821 52.0656 14.553C52.0656 14.869 52.043 15.2246 51.9979 15.6196C51.964 16.0034 51.8907 16.3533 51.7778 16.6693H47.4437C47.2292 16.6693 46.9301 16.6693 46.5464 16.6693C46.1626 16.6693 45.7563 16.6693 45.3274 16.6693V17.7697C45.3274 18.1873 45.3218 18.5316 45.3105 18.8025C45.2992 19.0733 45.2936 19.412 45.2936 19.8183V19.8521C45.6886 19.8296 46.0554 19.807 46.394 19.7844C46.7326 19.7618 47.1446 19.7506 47.6299 19.7506H54.2496ZM59.1194 5.34306C59.6611 5.24148 60.2537 5.17376 60.897 5.1399C61.5404 5.09475 62.0821 5.07218 62.5223 5.07218C62.9399 5.07218 63.4817 5.09475 64.1476 5.1399C64.8135 5.17376 65.3722 5.24148 65.8237 5.34306L67.4828 12.6907C67.5844 13.1309 67.7029 13.7291 67.8383 14.4853C67.9738 15.2302 68.1092 16.0316 68.2447 16.8894H68.4648C68.7356 15.0835 68.9896 13.6839 69.2266 12.6907L70.8688 5.34306C71.3993 5.24148 71.9806 5.17376 72.6126 5.1399C73.2447 5.09475 73.7695 5.07218 74.1871 5.07218C74.6273 5.07218 75.1747 5.09475 75.8293 5.1399C76.484 5.17376 77.0709 5.24148 77.5901 5.34306L79.5032 23.9323C78.7695 24.1129 77.8835 24.2032 76.8451 24.2032C76.4501 24.2032 76.0269 24.1862 75.5754 24.1524C75.1352 24.1185 74.7402 24.0677 74.3903 24L73.8993 18.0068C73.8429 17.2393 73.809 16.3984 73.7977 15.4842C73.7864 14.5699 73.7864 13.6783 73.7977 12.8092C73.809 11.9289 73.809 11.167 73.7977 10.5237H73.5946L71.1058 21.1388C70.7221 21.2065 70.2537 21.2573 69.7007 21.2912C69.1476 21.3138 68.6905 21.325 68.3293 21.325C67.9569 21.325 67.4941 21.3138 66.9411 21.2912C66.3993 21.2573 65.9478 21.2065 65.5866 21.1388L63.1149 10.5237H62.8778C62.8778 11.1783 62.8778 11.9401 62.8778 12.8092C62.8891 13.6783 62.8891 14.5699 62.8778 15.4842C62.8665 16.3984 62.827 17.2505 62.7593 18.0406L62.3191 24C61.958 24.0677 61.5629 24.1185 61.134 24.1524C60.7164 24.1862 60.3101 24.2032 59.9151 24.2032C58.8654 24.2032 57.9625 24.1129 57.2063 23.9323L59.1194 5.34306ZM83.8463 5.3092C84.4332 5.28663 85.1386 5.26405 85.9625 5.24148C86.7977 5.21891 87.6555 5.20198 88.5359 5.19069C89.4162 5.1794 90.2232 5.17376 90.9569 5.17376C92.3451 5.17376 93.5867 5.33177 94.6815 5.6478C95.7876 5.96383 96.6567 6.48866 97.2887 7.2223C97.9208 7.94465 98.2368 8.91531 98.2368 10.1343C98.2368 10.9243 98.0167 11.6749 97.5765 12.386C97.1476 13.097 96.5551 13.5993 95.7989 13.8927C96.7695 14.1975 97.5822 14.7957 98.2368 15.6873C98.8914 16.5677 99.2188 17.5214 99.2188 18.5485C99.2188 19.9932 98.8802 21.1219 98.203 21.9345C97.537 22.7359 96.6115 23.3059 95.4264 23.6445C94.2526 23.9718 92.9095 24.1354 91.3971 24.1354C90.2345 24.1354 89.0269 24.1242 87.774 24.1016C86.5212 24.0903 85.2119 24.0677 83.8463 24.0339L83.66 23.8646V5.51236L83.8463 5.3092ZM90.7199 8.81373C90.5054 8.81373 90.2176 8.81373 89.8564 8.81373C89.4953 8.81373 89.151 8.80244 88.8237 8.77987V12.4198H90.686C91.5889 12.4198 92.2041 12.2336 92.5314 11.8611C92.8587 11.4887 93.0224 11.0711 93.0224 10.6083C93.0224 10.1568 92.8587 9.74488 92.5314 9.37242C92.2154 8.99996 91.6115 8.81373 90.7199 8.81373ZM88.8237 20.4955C89.2752 20.4729 89.7153 20.4616 90.1442 20.4616C90.5731 20.4616 90.9625 20.4616 91.3124 20.4616C92.3395 20.4616 93.0167 20.2302 93.344 19.7675C93.6826 19.2934 93.8519 18.8081 93.8519 18.3115C93.8519 17.7697 93.6488 17.2618 93.2424 16.7878C92.8474 16.3137 92.1138 16.0767 91.0415 16.0767H88.8237V20.4955ZM117.976 11.0146C117.976 11.8837 117.778 12.6569 117.383 13.3341C116.988 14.0113 116.491 14.5699 115.893 15.0101C115.306 15.4503 114.719 15.7325 114.133 15.8566C114.742 16.0598 115.244 16.3702 115.639 16.7878C116.046 17.2054 116.396 17.7415 116.689 18.3961L117.569 20.4108C117.773 20.8736 118.004 21.3025 118.263 21.6975C118.523 22.0813 118.811 22.4086 119.127 22.6795C118.8 23.0858 118.309 23.4639 117.654 23.8138C116.999 24.1524 116.288 24.3217 115.521 24.3217C114.765 24.3217 114.149 24.1411 113.675 23.7799C113.213 23.4074 112.806 22.8149 112.456 22.0023L110.967 18.5824C110.73 18.0293 110.436 17.6964 110.086 17.5835C109.736 17.4706 109.285 17.4142 108.732 17.4142H108.072V24C107.62 24.079 107.152 24.1298 106.666 24.1524C106.192 24.1862 105.786 24.2032 105.447 24.2032C105.131 24.2032 104.714 24.1862 104.195 24.1524C103.675 24.1298 103.201 24.079 102.772 24V5.51236L102.959 5.3092C104.324 5.27534 105.605 5.24712 106.802 5.22455C108.01 5.19069 109.212 5.17376 110.408 5.17376C111.762 5.17376 113.015 5.35435 114.166 5.71552C115.318 6.06541 116.238 6.66925 116.926 7.52704C117.626 8.37354 117.976 9.53608 117.976 11.0146ZM108.072 8.99996V13.3848C108.467 13.3736 108.828 13.3679 109.155 13.3679C109.494 13.3566 109.742 13.351 109.9 13.351C110.916 13.351 111.604 13.1309 111.966 12.6907C112.327 12.2505 112.507 11.737 112.507 11.1501C112.507 10.5745 112.327 10.0778 111.966 9.66023C111.604 9.24262 111 9.03382 110.154 9.03382C109.748 9.03382 109.398 9.02817 109.104 9.01689C108.811 9.0056 108.467 8.99996 108.072 8.99996ZM120.481 14.7054C120.481 11.6806 121.259 9.28212 122.817 7.51011C124.386 5.72681 126.671 4.83516 129.674 4.83516C132.721 4.83516 135.018 5.72117 136.564 7.49318C138.122 9.25391 138.9 11.658 138.9 14.7054C138.9 17.7528 138.122 20.1512 136.564 21.9007C135.007 23.6388 132.71 24.5079 129.674 24.5079C126.626 24.5079 124.329 23.6275 122.783 21.8668C121.248 20.1061 120.481 17.7189 120.481 14.7054ZM125.949 14.7054C125.949 15.3487 125.988 16.0146 126.067 16.7031C126.158 17.3803 126.327 18.0124 126.575 18.5993C126.835 19.1862 127.213 19.6659 127.71 20.0384C128.206 20.3995 128.867 20.5801 129.69 20.5801C130.514 20.5801 131.175 20.3995 131.671 20.0384C132.168 19.6659 132.54 19.1862 132.789 18.5993C133.048 18.0124 133.218 17.3803 133.297 16.7031C133.387 16.0146 133.432 15.3487 133.432 14.7054C133.432 14.0508 133.387 13.3792 133.297 12.6907C133.218 11.9909 133.048 11.3476 132.789 10.7607C132.54 10.1625 132.168 9.6828 131.671 9.32163C131.175 8.94917 130.514 8.76294 129.69 8.76294C128.867 8.76294 128.206 8.94917 127.71 9.32163C127.213 9.6828 126.835 10.1625 126.575 10.7607C126.327 11.3476 126.158 11.9909 126.067 12.6907C125.988 13.3792 125.949 14.0508 125.949 14.7054Z" fill="#CECED9"/>
</svg>
