<svg width="168" height="26" viewBox="0 0 168 26" fill="none" xmlns="http://www.w3.org/2000/svg">
<path d="M2.05289 19.528C2.55689 19.828 3.07889 20.086 3.61889 20.302C4.17089 20.506 4.72889 20.608 5.29289 20.608C6.60089 20.608 7.46489 20.212 7.88489 19.42C8.30489 18.628 8.51489 17.524 8.51489 16.108V0.411999C8.98289 0.327999 9.49289 0.273999 10.0449 0.249998C10.6089 0.213999 11.0649 0.196 11.4129 0.196C11.7969 0.196 12.2529 0.213999 12.7809 0.249998C13.3089 0.273999 13.8129 0.327999 14.2929 0.411999V15.568C14.2929 17.452 14.0649 19.132 13.6089 20.608C13.1649 22.084 12.3369 23.248 11.1249 24.1C9.92489 24.94 8.19689 25.36 5.94089 25.36C4.99289 25.36 3.99089 25.234 2.93489 24.982C1.87889 24.718 0.924891 24.316 0.0728907 23.776C0.180891 23.056 0.402891 22.312 0.738891 21.544C1.08689 20.776 1.52489 20.104 2.05289 19.528ZM34.3522 20.482C34.3522 22.198 34.0822 23.392 33.5422 24.064C33.0142 24.736 32.1142 25.072 30.8422 25.072H22.5442C21.5242 25.072 20.7202 24.784 20.1322 24.208C19.5442 23.62 19.2502 22.834 19.2502 21.85V5.362L19.4482 5.164H33.6862C33.7702 5.572 33.8182 5.962 33.8302 6.334C33.8422 6.706 33.8482 7.06 33.8482 7.396C33.8482 7.72 33.8122 8.086 33.7402 8.494C33.6802 8.902 33.5722 9.316 33.4162 9.736H27.1162C26.6122 9.736 25.8502 9.73 24.8302 9.718C24.8422 10.09 24.8482 10.408 24.8482 10.672C24.8602 10.936 24.8662 11.254 24.8662 11.626V12.814C25.8622 12.802 26.6122 12.796 27.1162 12.796H31.7242C31.8442 13.12 31.9222 13.492 31.9582 13.912C32.0062 14.32 32.0302 14.668 32.0302 14.956C32.0302 15.292 32.0062 15.67 31.9582 16.09C31.9222 16.498 31.8442 16.87 31.7242 17.206H27.1162C26.8882 17.206 26.5702 17.206 26.1622 17.206C25.7542 17.206 25.3222 17.206 24.8662 17.206V18.376C24.8662 18.82 24.8602 19.186 24.8482 19.474C24.8362 19.762 24.8302 20.122 24.8302 20.554V20.59C25.2502 20.566 25.6402 20.542 26.0002 20.518C26.3602 20.494 26.7982 20.482 27.3142 20.482H34.3522ZM43.9577 25C43.4657 25.084 42.9617 25.138 42.4457 25.162C41.9417 25.198 41.4977 25.216 41.1137 25.216C40.7297 25.216 40.2797 25.198 39.7637 25.162C39.2597 25.138 38.7617 25.084 38.2697 25V5.326L38.4677 5.164H52.4177C52.5017 5.488 52.5617 5.854 52.5977 6.262C52.6457 6.67 52.6697 7 52.6697 7.252C52.6697 8.068 52.4537 8.704 52.0217 9.16C51.5897 9.616 50.8697 9.844 49.8617 9.844H46.0277C45.6677 9.844 45.3137 9.844 44.9657 9.844C44.6297 9.832 44.2937 9.826 43.9577 9.826C43.9577 10.078 43.9577 10.336 43.9577 10.6C43.9577 10.852 43.9577 11.104 43.9577 11.356V13.228C44.1017 13.228 44.2397 13.228 44.3717 13.228H50.3657C50.4737 13.54 50.5457 13.906 50.5817 14.326C50.6297 14.734 50.6537 15.082 50.6537 15.37C50.6537 15.694 50.6297 16.078 50.5817 16.522C50.5457 16.966 50.4737 17.35 50.3657 17.674H44.3717C44.2397 17.674 44.1017 17.674 43.9577 17.674V25ZM58.7433 21.526C58.5513 21.526 58.3653 21.526 58.1853 21.526C58.0053 21.514 57.8253 21.502 57.6453 21.49L56.5293 25C56.1813 25.084 55.8033 25.144 55.3953 25.18C54.9873 25.228 54.5613 25.252 54.1173 25.252C53.6373 25.252 53.1513 25.216 52.6593 25.144C52.1793 25.072 51.7833 24.97 51.4713 24.838L51.2733 24.532L58.2753 5.164C58.8993 5.068 59.4993 5.008 60.0753 4.984C60.6633 4.96 61.1973 4.948 61.6773 4.948C62.1213 4.948 62.6013 4.96 63.1173 4.984C63.6333 5.008 64.2153 5.068 64.8633 5.164L71.6673 24.73C71.2473 24.922 70.7133 25.066 70.0653 25.162C69.4173 25.27 68.8953 25.324 68.4993 25.324C67.8393 25.324 67.2033 25.198 66.5913 24.946C65.9793 24.694 65.5173 24.028 65.2053 22.948L64.7553 21.49C64.5633 21.502 64.3773 21.514 64.1973 21.526C64.0173 21.526 63.8253 21.526 63.6213 21.526H58.7433ZM59.4633 15.838L59.0673 17.08C59.2473 17.068 59.4273 17.062 59.6073 17.062C59.7873 17.05 59.9733 17.044 60.1653 17.044H62.4153C62.5953 17.044 62.7573 17.05 62.9013 17.062C63.0573 17.062 63.2133 17.068 63.3693 17.08L62.9913 15.856C62.7153 14.908 62.4393 13.852 62.1633 12.688C61.8873 11.524 61.6353 10.468 61.4073 9.52H61.1913C60.9393 10.432 60.6573 11.476 60.3453 12.652C60.0453 13.828 59.7513 14.89 59.4633 15.838ZM75.782 11.914C75.782 11.53 75.788 11.176 75.8 10.852C75.812 10.516 75.818 10.144 75.818 9.736C75.566 9.736 75.218 9.742 74.774 9.754C74.342 9.766 74 9.772 73.748 9.772H70.418C70.322 9.34 70.262 8.938 70.238 8.566C70.214 8.182 70.202 7.834 70.202 7.522C70.202 7.21 70.214 6.844 70.238 6.424C70.262 5.992 70.322 5.572 70.418 5.164H86.708C86.792 5.488 86.852 5.854 86.888 6.262C86.936 6.67 86.96 7 86.96 7.252C86.96 8.068 86.744 8.692 86.312 9.124C85.88 9.556 85.16 9.772 84.152 9.772H83.414C83.162 9.772 82.826 9.766 82.406 9.754C81.998 9.742 81.68 9.736 81.452 9.736C81.452 10.144 81.458 10.516 81.47 10.852C81.482 11.176 81.488 11.53 81.488 11.914V25C81.152 25.072 80.69 25.126 80.102 25.162C79.514 25.198 79.022 25.216 78.626 25.216C78.254 25.216 77.786 25.198 77.222 25.162C76.658 25.126 76.178 25.072 75.782 25V11.914ZM106.631 17.566C106.631 20.05 105.887 22 104.399 23.416C102.923 24.832 100.733 25.54 97.8289 25.54C94.9249 25.54 92.7289 24.832 91.2409 23.416C89.7649 22 89.0269 20.05 89.0269 17.566V5.164L89.2429 4.948H91.2949C92.3869 4.948 93.2269 5.224 93.8149 5.776C94.4149 6.328 94.7149 7.258 94.7149 8.566V17.548C94.7149 18.64 94.9429 19.498 95.3989 20.122C95.8549 20.746 96.6649 21.058 97.8289 21.058C99.0049 21.058 99.8149 20.746 100.259 20.122C100.703 19.498 100.925 18.64 100.925 17.548V5.164C101.405 5.068 101.897 5.008 102.401 4.984C102.905 4.96 103.343 4.948 103.715 4.948C104.051 4.948 104.507 4.966 105.083 5.002C105.659 5.026 106.175 5.086 106.631 5.182V17.566ZM127.629 11.194C127.629 12.118 127.419 12.94 126.999 13.66C126.579 14.38 126.051 14.974 125.415 15.442C124.791 15.91 124.167 16.21 123.543 16.342C124.191 16.558 124.725 16.888 125.145 17.332C125.577 17.776 125.949 18.346 126.261 19.042L127.197 21.184C127.413 21.676 127.659 22.132 127.935 22.552C128.211 22.96 128.517 23.308 128.853 23.596C128.505 24.028 127.983 24.43 127.287 24.802C126.591 25.162 125.835 25.342 125.019 25.342C124.215 25.342 123.561 25.15 123.057 24.766C122.565 24.37 122.133 23.74 121.761 22.876L120.177 19.24C119.925 18.652 119.613 18.298 119.241 18.178C118.869 18.058 118.389 17.998 117.801 17.998H117.099V25C116.619 25.084 116.121 25.138 115.605 25.162C115.101 25.198 114.669 25.216 114.309 25.216C113.973 25.216 113.529 25.198 112.977 25.162C112.425 25.138 111.921 25.084 111.465 25V5.344L111.663 5.128C113.115 5.092 114.477 5.062 115.749 5.038C117.033 5.002 118.311 4.984 119.583 4.984C121.023 4.984 122.355 5.176 123.579 5.56C124.803 5.932 125.781 6.574 126.513 7.486C127.257 8.386 127.629 9.622 127.629 11.194ZM117.099 9.052V13.714C117.519 13.702 117.903 13.696 118.251 13.696C118.611 13.684 118.875 13.678 119.043 13.678C120.123 13.678 120.855 13.444 121.239 12.976C121.623 12.508 121.815 11.962 121.815 11.338C121.815 10.726 121.623 10.198 121.239 9.754C120.855 9.31 120.213 9.088 119.313 9.088C118.881 9.088 118.509 9.082 118.197 9.07C117.885 9.058 117.519 9.052 117.099 9.052ZM137.001 21.526C136.809 21.526 136.623 21.526 136.443 21.526C136.263 21.514 136.083 21.502 135.903 21.49L134.787 25C134.439 25.084 134.061 25.144 133.653 25.18C133.245 25.228 132.819 25.252 132.375 25.252C131.895 25.252 131.409 25.216 130.917 25.144C130.437 25.072 130.041 24.97 129.729 24.838L129.531 24.532L136.533 5.164C137.157 5.068 137.757 5.008 138.333 4.984C138.921 4.96 139.455 4.948 139.935 4.948C140.379 4.948 140.859 4.96 141.375 4.984C141.891 5.008 142.473 5.068 143.121 5.164L149.925 24.73C149.505 24.922 148.971 25.066 148.323 25.162C147.675 25.27 147.153 25.324 146.757 25.324C146.097 25.324 145.461 25.198 144.849 24.946C144.237 24.694 143.775 24.028 143.463 22.948L143.013 21.49C142.821 21.502 142.635 21.514 142.455 21.526C142.275 21.526 142.083 21.526 141.879 21.526H137.001ZM137.721 15.838L137.325 17.08C137.505 17.068 137.685 17.062 137.865 17.062C138.045 17.05 138.231 17.044 138.423 17.044H140.673C140.853 17.044 141.015 17.05 141.159 17.062C141.315 17.062 141.471 17.068 141.627 17.08L141.249 15.856C140.973 14.908 140.697 13.852 140.421 12.688C140.145 11.524 139.893 10.468 139.665 9.52H139.449C139.197 10.432 138.915 11.476 138.603 12.652C138.303 13.828 138.009 14.89 137.721 15.838ZM150.742 23.506C150.742 23.05 150.832 22.546 151.012 21.994C151.192 21.43 151.438 20.908 151.75 20.428C152.062 19.948 152.404 19.588 152.776 19.348C153.664 19.828 154.654 20.242 155.746 20.59C156.838 20.926 157.906 21.094 158.95 21.094C159.622 21.094 160.174 20.956 160.606 20.68C161.05 20.404 161.272 20.014 161.272 19.51C161.272 19.186 161.146 18.892 160.894 18.628C160.642 18.352 160.204 18.1 159.58 17.872L156.592 16.702C155.668 16.366 154.804 15.946 154 15.442C153.196 14.938 152.548 14.32 152.056 13.588C151.564 12.856 151.318 11.98 151.318 10.96C151.318 9.088 152.038 7.564 153.478 6.388C154.918 5.212 156.856 4.624 159.292 4.624C160.672 4.624 162.04 4.786 163.396 5.11C164.764 5.422 165.91 5.782 166.834 6.19C166.834 7.006 166.666 7.81 166.33 8.602C165.994 9.394 165.532 10.018 164.944 10.474C164.056 10.078 163.09 9.748 162.046 9.484C161.002 9.208 160.06 9.07 159.22 9.07C158.596 9.07 158.116 9.202 157.78 9.466C157.456 9.73 157.294 10.048 157.294 10.42C157.294 10.768 157.456 11.032 157.78 11.212C158.104 11.392 158.506 11.572 158.986 11.752L161.956 12.886C163.612 13.486 164.926 14.314 165.898 15.37C166.882 16.414 167.374 17.704 167.374 19.24C167.374 20.596 167.008 21.742 166.276 22.678C165.556 23.614 164.566 24.322 163.306 24.802C162.058 25.282 160.648 25.528 159.076 25.54C157.204 25.54 155.536 25.324 154.072 24.892C152.62 24.46 151.51 23.998 150.742 23.506Z" fill="#364760"/>
</svg>
