<svg width="293" height="25" viewBox="0 0 293 25" fill="none" xmlns="http://www.w3.org/2000/svg">
<path d="M2.63997 0.907382C3.21559 0.805802 3.842 0.738082 4.5192 0.704222C5.20769 0.670361 5.80025 0.653431 6.29686 0.653431C6.79348 0.653431 7.34653 0.670361 7.95601 0.704222C8.56549 0.738082 9.15804 0.805802 9.73366 0.907382L11.7314 9.18619C11.7766 9.38935 11.8499 9.73924 11.9515 10.2359C12.0644 10.7325 12.1885 11.2968 12.324 11.9289C12.4594 12.5609 12.5836 13.1817 12.6964 13.7912C12.8206 14.4006 12.9165 14.9198 12.9842 15.3487H13.2213C13.289 14.9198 13.3849 14.4006 13.5091 13.7912C13.6332 13.1817 13.7574 12.5609 13.8815 11.9289C14.017 11.2968 14.1411 10.7325 14.254 10.2359C14.3669 9.73924 14.4459 9.38935 14.491 9.18619L16.4888 0.907382C17.0644 0.805802 17.6513 0.738082 18.2495 0.704222C18.859 0.670361 19.412 0.653431 19.9086 0.653431C20.4053 0.653431 20.9978 0.670361 21.6863 0.704222C22.3748 0.738082 23.0012 0.805802 23.5655 0.907382L25.3601 23.9323C24.9764 24.0339 24.5305 24.1016 24.0226 24.1354C23.526 24.1806 23.0576 24.2032 22.6175 24.2032C22.2111 24.2032 21.8105 24.1919 21.4154 24.1693C21.0317 24.1467 20.6423 24.1016 20.2472 24.0339L19.7393 14.6038C19.6716 13.4074 19.6095 12.0869 19.5531 10.6422C19.4967 9.19747 19.4685 7.92207 19.4685 6.81598H19.2314L15.8962 20.5971C15.4899 20.6648 15.0158 20.7156 14.4741 20.7494C13.9323 20.772 13.4696 20.7833 13.0858 20.7833C12.7472 20.7833 12.3014 20.772 11.7483 20.7494C11.1953 20.7156 10.7156 20.6648 10.3093 20.5971L6.97406 6.81598H6.75397C6.74269 7.92207 6.70883 9.19747 6.65239 10.6422C6.60725 12.0869 6.55081 13.4074 6.48309 14.6038L5.95826 24.0339C5.57451 24.1016 5.18512 24.1467 4.79008 24.1693C4.39505 24.1919 3.99437 24.2032 3.58805 24.2032C3.15915 24.2032 2.69076 24.1806 2.18285 24.1354C1.68624 24.1016 1.24041 24.0339 0.845378 23.9323L2.63997 0.907382ZM28.2724 14.7054C28.2724 11.6806 29.0511 9.28212 30.6087 7.51011C32.1776 5.72681 34.4631 4.83516 37.4654 4.83516C40.5128 4.83516 42.8096 5.72117 44.3559 7.49318C45.9135 9.25391 46.6923 11.658 46.6923 14.7054C46.6923 17.7528 45.9135 20.1512 44.3559 21.9007C42.7984 23.6388 40.5015 24.5079 37.4654 24.5079C34.418 24.5079 32.1211 23.6275 30.5748 21.8668C29.0399 20.1061 28.2724 17.7189 28.2724 14.7054ZM33.7408 14.7054C33.7408 15.3487 33.7803 16.0146 33.8593 16.7031C33.9496 17.3803 34.1189 18.0124 34.3672 18.5993C34.6268 19.1862 35.0049 19.6659 35.5015 20.0384C35.9981 20.3995 36.6584 20.5801 37.4823 20.5801C38.3062 20.5801 38.9665 20.3995 39.4631 20.0384C39.9597 19.6659 40.3322 19.1862 40.5805 18.5993C40.8401 18.0124 41.0094 17.3803 41.0884 16.7031C41.1787 16.0146 41.2239 15.3487 41.2239 14.7054C41.2239 14.0508 41.1787 13.3792 41.0884 12.6907C41.0094 11.9909 40.8401 11.3476 40.5805 10.7607C40.3322 10.1625 39.9597 9.6828 39.4631 9.32163C38.9665 8.94917 38.3062 8.76294 37.4823 8.76294C36.6584 8.76294 35.9981 8.94917 35.5015 9.32163C35.0049 9.6828 34.6268 10.1625 34.3672 10.7607C34.1189 11.3476 33.9496 11.9909 33.8593 12.6907C33.7803 13.3792 33.7408 14.0508 33.7408 14.7054ZM56.7469 15.4842C56.6679 15.3036 56.5437 15.0214 56.3744 14.6377C56.2051 14.2426 56.0245 13.8194 55.8327 13.3679C55.6408 12.9164 55.4602 12.4932 55.2909 12.0982C55.1329 11.7031 55.0087 11.4153 54.9184 11.2347L54.7999 11.2855C54.8451 12.1772 54.8902 13.1422 54.9354 14.1806C54.9805 15.2076 55.0144 16.1501 55.037 17.0079C55.0708 17.8544 55.0877 18.4695 55.0877 18.8533V24C54.6476 24.079 54.2243 24.1298 53.818 24.1524C53.4117 24.1862 53.0336 24.2032 52.6837 24.2032C52.3676 24.2032 51.9726 24.1862 51.4986 24.1524C51.0358 24.1298 50.5956 24.079 50.178 24V5.46157C50.5956 5.35999 51.1148 5.28098 51.7356 5.22455C52.3564 5.16812 52.836 5.1399 53.1746 5.1399C53.5245 5.1399 54.0211 5.15119 54.6645 5.17376C55.3078 5.18505 55.8383 5.24148 56.2559 5.34306L60.2345 13.825C60.3135 13.983 60.4433 14.2709 60.6239 14.6885C60.8157 15.1061 61.0189 15.5632 61.2334 16.0598C61.4478 16.5564 61.6453 17.0248 61.8259 17.465C62.0178 17.8939 62.1589 18.2099 62.2492 18.4131L62.4015 18.3792C62.3564 17.6343 62.2943 16.7652 62.2153 15.772C62.1476 14.7788 62.0855 13.8194 62.0291 12.8939C61.9726 11.9684 61.9444 11.2291 61.9444 10.676V8.03494C61.9444 6.83855 62.204 6.05412 62.7232 5.68166C63.2424 5.29791 64.0155 5.10604 65.0426 5.10604H66.7864L66.9896 5.34306V23.8984C66.5494 24 66.0189 24.0734 65.3982 24.1185C64.7774 24.1749 64.3033 24.2032 63.976 24.2032C63.7503 24.2032 63.4399 24.1975 63.0449 24.1862C62.6498 24.1749 62.2435 24.158 61.8259 24.1354C61.4196 24.1129 61.081 24.0677 60.8101 24L56.7469 15.4842ZM71.9374 5.34306C72.3663 5.25277 72.8516 5.19633 73.3934 5.17376C73.9351 5.15119 74.364 5.1399 74.6801 5.1399C75.0187 5.1399 75.425 5.15119 75.899 5.17376C76.3844 5.19633 76.8528 5.25277 77.3042 5.34306V24C76.8528 24.079 76.3844 24.1298 75.899 24.1524C75.425 24.1862 75.0187 24.2032 74.6801 24.2032C74.364 24.2032 73.9351 24.1862 73.3934 24.1524C72.8516 24.1298 72.3663 24.079 71.9374 24V5.34306ZM85.0638 11.6918C85.0638 11.3307 85.0694 10.9977 85.0807 10.693C85.092 10.3769 85.0976 10.027 85.0976 9.6433C84.8606 9.6433 84.5333 9.64894 84.1157 9.66023C83.7093 9.67152 83.3877 9.67716 83.1507 9.67716H80.0186C79.9283 9.27084 79.8719 8.89273 79.8493 8.54284C79.8267 8.18167 79.8154 7.85435 79.8154 7.5609C79.8154 7.26745 79.8267 6.9232 79.8493 6.52817C79.8719 6.12184 79.9283 5.72681 80.0186 5.34306H95.3403C95.4193 5.6478 95.4757 5.99205 95.5096 6.3758C95.5548 6.75954 95.5773 7.06993 95.5773 7.30695C95.5773 8.07445 95.3742 8.66136 94.9678 9.06768C94.5615 9.474 93.8843 9.67716 92.9362 9.67716H92.2421C92.0051 9.67716 91.6891 9.67152 91.294 9.66023C90.9103 9.64894 90.6112 9.6433 90.3967 9.6433C90.3967 10.027 90.4024 10.3769 90.4137 10.693C90.4249 10.9977 90.4306 11.3307 90.4306 11.6918V24C90.1146 24.0677 89.68 24.1185 89.127 24.1524C88.5739 24.1862 88.1112 24.2032 87.7387 24.2032C87.3888 24.2032 86.9486 24.1862 86.4182 24.1524C85.8877 24.1185 85.4362 24.0677 85.0638 24V11.6918ZM96.1249 14.7054C96.1249 11.6806 96.9037 9.28212 98.4613 7.51011C100.03 5.72681 102.316 4.83516 105.318 4.83516C108.365 4.83516 110.662 5.72117 112.208 7.49318C113.766 9.25391 114.545 11.658 114.545 14.7054C114.545 17.7528 113.766 20.1512 112.208 21.9007C110.651 23.6388 108.354 24.5079 105.318 24.5079C102.271 24.5079 99.9737 23.6275 98.4274 21.8668C96.8924 20.1061 96.1249 17.7189 96.1249 14.7054ZM101.593 14.7054C101.593 15.3487 101.633 16.0146 101.712 16.7031C101.802 17.3803 101.971 18.0124 102.22 18.5993C102.479 19.1862 102.857 19.6659 103.354 20.0384C103.851 20.3995 104.511 20.5801 105.335 20.5801C106.159 20.5801 106.819 20.3995 107.316 20.0384C107.812 19.6659 108.185 19.1862 108.433 18.5993C108.693 18.0124 108.862 17.3803 108.941 16.7031C109.031 16.0146 109.076 15.3487 109.076 14.7054C109.076 14.0508 109.031 13.3792 108.941 12.6907C108.862 11.9909 108.693 11.3476 108.433 10.7607C108.185 10.1625 107.812 9.6828 107.316 9.32163C106.819 8.94917 106.159 8.76294 105.335 8.76294C104.511 8.76294 103.851 8.94917 103.354 9.32163C102.857 9.6828 102.479 10.1625 102.22 10.7607C101.971 11.3476 101.802 11.9909 101.712 12.6907C101.633 13.3792 101.593 14.0508 101.593 14.7054ZM133.234 11.0146C133.234 11.8837 133.036 12.6569 132.641 13.3341C132.246 14.0113 131.75 14.5699 131.151 15.0101C130.564 15.4503 129.978 15.7325 129.391 15.8566C130 16.0598 130.502 16.3702 130.897 16.7878C131.304 17.2054 131.654 17.7415 131.947 18.3961L132.827 20.4108C133.031 20.8736 133.262 21.3025 133.522 21.6975C133.781 22.0813 134.069 22.4086 134.385 22.6795C134.058 23.0858 133.567 23.4639 132.912 23.8138C132.257 24.1524 131.546 24.3217 130.779 24.3217C130.023 24.3217 129.408 24.1411 128.934 23.7799C128.471 23.4074 128.064 22.8149 127.715 22.0023L126.225 18.5824C125.988 18.0293 125.694 17.6964 125.344 17.5835C124.994 17.4706 124.543 17.4142 123.99 17.4142H123.33V24C122.878 24.079 122.41 24.1298 121.924 24.1524C121.45 24.1862 121.044 24.2032 120.706 24.2032C120.389 24.2032 119.972 24.1862 119.453 24.1524C118.934 24.1298 118.459 24.079 118.031 24V5.51236L118.217 5.3092C119.582 5.27534 120.864 5.24712 122.06 5.22455C123.268 5.19069 124.47 5.17376 125.666 5.17376C127.02 5.17376 128.273 5.35435 129.425 5.71552C130.576 6.06541 131.496 6.66925 132.184 7.52704C132.884 8.37354 133.234 9.53608 133.234 11.0146ZM123.33 8.99996V13.3848C123.725 13.3736 124.086 13.3679 124.413 13.3679C124.752 13.3566 125 13.351 125.158 13.351C126.174 13.351 126.862 13.1309 127.224 12.6907C127.585 12.2505 127.765 11.737 127.765 11.1501C127.765 10.5745 127.585 10.0778 127.224 9.66023C126.862 9.24262 126.259 9.03382 125.412 9.03382C125.006 9.03382 124.656 9.02817 124.362 9.01689C124.069 9.0056 123.725 8.99996 123.33 8.99996ZM150.488 19.158C150.307 19.158 150.093 19.1524 149.844 19.1411C149.607 19.1298 149.376 19.1241 149.15 19.1241L147.711 24.0339C147.373 24.1129 147.006 24.1637 146.611 24.1862C146.227 24.2201 145.826 24.237 145.409 24.237C145.002 24.237 144.54 24.2032 144.02 24.1354C143.512 24.079 143.106 23.9887 142.801 23.8646L142.598 23.5767L150.081 0.873522C150.51 0.805801 151.024 0.755011 151.622 0.721151C152.231 0.687291 152.762 0.670362 153.213 0.670362C153.642 0.670362 154.161 0.692935 154.771 0.738081C155.38 0.771942 155.905 0.828375 156.345 0.907382L163.625 23.6445C163.253 23.8589 162.768 24.0226 162.169 24.1354C161.582 24.2483 161.035 24.3047 160.527 24.3047C159.669 24.3047 158.998 24.1072 158.512 23.7122C158.027 23.3059 157.621 22.5214 157.294 21.3589L156.65 19.1241C156.436 19.1241 156.204 19.1298 155.956 19.1411C155.708 19.1524 155.493 19.158 155.313 19.158H150.488ZM151.165 12.2675L150.403 14.8916C150.617 14.8916 150.849 14.8916 151.097 14.8916C151.345 14.8803 151.566 14.8747 151.757 14.8747H154.229C154.398 14.8747 154.59 14.8803 154.805 14.8916C155.031 14.8916 155.251 14.8916 155.465 14.8916L154.873 12.7754C154.613 11.8273 154.308 10.7099 153.958 9.42321C153.608 8.13652 153.292 6.93449 153.01 5.8171H152.807C152.694 6.44916 152.542 7.14894 152.35 7.91643C152.158 8.68393 151.955 9.45143 151.74 10.2189C151.537 10.9751 151.345 11.658 151.165 12.2675ZM164.529 22.5948C164.529 22.1659 164.614 21.6919 164.783 21.1727C164.953 20.6422 165.184 20.1512 165.477 19.6998C165.771 19.2483 166.092 18.9097 166.442 18.684C167.278 19.1354 168.209 19.5248 169.236 19.8521C170.263 20.1682 171.267 20.3262 172.249 20.3262C172.881 20.3262 173.401 20.1964 173.807 19.9368C174.225 19.6772 174.433 19.3104 174.433 18.8363C174.433 18.5316 174.315 18.2551 174.078 18.0068C173.841 17.7472 173.429 17.5101 172.842 17.2957L170.032 16.1952C169.162 15.8792 168.35 15.4842 167.594 15.0101C166.837 14.5361 166.228 13.9548 165.765 13.2663C165.302 12.5778 165.071 11.7539 165.071 10.7945C165.071 9.03382 165.748 7.6004 167.103 6.49431C168.457 5.38821 170.28 4.83516 172.571 4.83516C173.869 4.83516 175.156 4.98753 176.431 5.29227C177.718 5.58573 178.796 5.92433 179.665 6.30807C179.665 7.07557 179.507 7.83178 179.191 8.5767C178.875 9.32163 178.44 9.90854 177.887 10.3374C177.052 9.96497 176.143 9.65459 175.161 9.40628C174.179 9.14668 173.293 9.01689 172.503 9.01689C171.916 9.01689 171.465 9.14104 171.149 9.38935C170.844 9.63766 170.692 9.93675 170.692 10.2866C170.692 10.614 170.844 10.8623 171.149 11.0316C171.454 11.2009 171.832 11.3702 172.283 11.5395L175.077 12.6061C176.634 13.1704 177.87 13.9492 178.784 14.9424C179.71 15.9244 180.173 17.1377 180.173 18.5824C180.173 19.8578 179.828 20.9357 179.14 21.816C178.463 22.6964 177.532 23.3623 176.346 23.8138C175.173 24.2652 173.846 24.4966 172.368 24.5079C170.607 24.5079 169.038 24.3047 167.661 23.8984C166.296 23.4921 165.252 23.0576 164.529 22.5948ZM183.537 5.34306C183.966 5.25277 184.451 5.19633 184.993 5.17376C185.535 5.15119 185.964 5.1399 186.28 5.1399C186.618 5.1399 187.025 5.15119 187.499 5.17376C187.984 5.19633 188.452 5.25277 188.904 5.34306V24C188.452 24.079 187.984 24.1298 187.499 24.1524C187.025 24.1862 186.618 24.2032 186.28 24.2032C185.964 24.2032 185.535 24.1862 184.993 24.1524C184.451 24.1298 183.966 24.079 183.537 24V5.34306ZM204.79 19.0564C204.79 18.4921 204.801 17.9277 204.824 17.3634C204.62 17.3634 204.412 17.3634 204.197 17.3634C203.994 17.3634 203.797 17.3634 203.605 17.3634C202.769 17.3634 202.16 17.1885 201.776 16.8386C201.392 16.4774 201.201 15.9074 201.201 15.1286C201.201 14.8239 201.223 14.4684 201.268 14.062C201.325 13.6557 201.392 13.3453 201.471 13.1309C202.284 13.097 203.091 13.0801 203.892 13.0801C204.694 13.0688 205.506 13.0632 206.33 13.0632C207.628 13.0632 208.514 13.3115 208.988 13.8081C209.474 14.3047 209.716 15.0101 209.716 15.9244V23.4074C209.118 23.5993 208.356 23.7799 207.431 23.9492C206.505 24.1185 205.546 24.254 204.553 24.3555C203.56 24.4571 202.657 24.5079 201.844 24.5079C199.598 24.5079 197.781 24.0959 196.392 23.272C195.015 22.4481 194.011 21.3194 193.379 19.886C192.758 18.4413 192.448 16.8047 192.448 14.9763C192.448 12.5609 192.894 10.614 193.785 9.1354C194.688 7.64555 195.885 6.55638 197.374 5.86789C198.864 5.1794 200.495 4.83516 202.267 4.83516C203.599 4.83516 204.88 4.9706 206.11 5.24148C207.352 5.50108 208.447 5.85096 209.395 6.29115C209.338 7.02478 209.118 7.79228 208.734 8.59364C208.362 9.3837 207.939 9.98754 207.465 10.4052C205.738 9.54736 204.096 9.11847 202.538 9.11847C199.457 9.11847 197.916 11.0485 197.916 14.9086C197.916 16.8273 198.311 18.2438 199.101 19.158C199.891 20.0722 201.105 20.5293 202.741 20.5293C203.08 20.5293 203.424 20.518 203.774 20.4955C204.124 20.4616 204.462 20.4165 204.79 20.36V19.0564ZM220.327 15.4842C220.248 15.3036 220.124 15.0214 219.955 14.6377C219.785 14.2426 219.605 13.8194 219.413 13.3679C219.221 12.9164 219.04 12.4932 218.871 12.0982C218.713 11.7031 218.589 11.4153 218.499 11.2347L218.38 11.2855C218.425 12.1772 218.47 13.1422 218.516 14.1806C218.561 15.2076 218.595 16.1501 218.617 17.0079C218.651 17.8544 218.668 18.4695 218.668 18.8533V24C218.228 24.079 217.804 24.1298 217.398 24.1524C216.992 24.1862 216.614 24.2032 216.264 24.2032C215.948 24.2032 215.553 24.1862 215.079 24.1524C214.616 24.1298 214.176 24.079 213.758 24V5.46157C214.176 5.35999 214.695 5.28098 215.316 5.22455C215.937 5.16812 216.416 5.1399 216.755 5.1399C217.105 5.1399 217.601 5.15119 218.245 5.17376C218.888 5.18505 219.418 5.24148 219.836 5.34306L223.815 13.825C223.894 13.983 224.023 14.2709 224.204 14.6885C224.396 15.1061 224.599 15.5632 224.814 16.0598C225.028 16.5564 225.226 17.0248 225.406 17.465C225.598 17.8939 225.739 18.2099 225.829 18.4131L225.982 18.3792C225.937 17.6343 225.875 16.7652 225.795 15.772C225.728 14.7788 225.666 13.8194 225.609 12.8939C225.553 11.9684 225.525 11.2291 225.525 10.676V8.03494C225.525 6.83855 225.784 6.05412 226.303 5.68166C226.823 5.29791 227.596 5.10604 228.623 5.10604H230.367L230.57 5.34306V23.8984C230.13 24 229.599 24.0734 228.978 24.1185C228.358 24.1749 227.884 24.2032 227.556 24.2032C227.33 24.2032 227.02 24.1975 226.625 24.1862C226.23 24.1749 225.824 24.158 225.406 24.1354C225 24.1129 224.661 24.0677 224.39 24L220.327 15.4842ZM240.19 20.7325C240.01 20.7325 239.835 20.7325 239.665 20.7325C239.496 20.7212 239.327 20.7099 239.158 20.6986L238.108 24C237.781 24.079 237.425 24.1354 237.041 24.1693C236.658 24.2144 236.257 24.237 235.839 24.237C235.388 24.237 234.931 24.2032 234.468 24.1354C234.016 24.0677 233.644 23.9718 233.351 23.8476L233.164 23.5598L239.75 5.34306C240.337 5.25277 240.901 5.19633 241.443 5.17376C241.996 5.15119 242.498 5.1399 242.95 5.1399C243.367 5.1399 243.819 5.15119 244.304 5.17376C244.79 5.19633 245.337 5.25277 245.947 5.34306L252.346 23.746C251.951 23.9266 251.449 24.0621 250.839 24.1524C250.23 24.254 249.739 24.3047 249.366 24.3047C248.746 24.3047 248.147 24.1862 247.572 23.9492C246.996 23.7122 246.562 23.0858 246.268 22.07L245.845 20.6986C245.664 20.7099 245.489 20.7212 245.32 20.7325C245.151 20.7325 244.97 20.7325 244.778 20.7325H240.19ZM240.867 15.3826L240.495 16.5508C240.664 16.5395 240.834 16.5338 241.003 16.5338C241.172 16.5226 241.347 16.5169 241.528 16.5169H243.644C243.813 16.5169 243.966 16.5226 244.101 16.5338C244.248 16.5338 244.395 16.5395 244.541 16.5508L244.186 15.3995C243.926 14.5079 243.667 13.5146 243.407 12.4198C243.147 11.325 242.91 10.3318 242.696 9.44014H242.493C242.256 10.2979 241.991 11.2799 241.697 12.386C241.415 13.4921 241.138 14.4909 240.867 15.3826ZM271.941 14.7054C271.941 17.8657 271.202 20.2302 269.723 21.7991C268.244 23.3567 265.914 24.1354 262.731 24.1354C261.388 24.1354 260.112 24.1242 258.905 24.1016C257.708 24.0903 256.444 24.0677 255.112 24.0339L254.926 23.8307V5.51236L255.112 5.3092C256.455 5.27534 257.725 5.24712 258.922 5.22455C260.118 5.19069 261.388 5.17376 262.731 5.17376C265.88 5.17376 268.199 5.99205 269.689 7.62862C271.19 9.25391 271.941 11.6128 271.941 14.7054ZM266.489 14.7054C266.489 13.8815 266.405 13.0575 266.235 12.2336C266.066 11.3984 265.711 10.6986 265.169 10.1343C264.627 9.56994 263.814 9.28777 262.731 9.28777C262.234 9.28777 261.805 9.28777 261.444 9.28777C261.094 9.27648 260.688 9.26519 260.225 9.25391V20.0892C260.71 20.0892 261.122 20.0835 261.461 20.0722C261.811 20.0609 262.234 20.0553 262.731 20.0553C263.814 20.0553 264.627 19.7788 265.169 19.2257C265.711 18.6614 266.066 17.9673 266.235 17.1433C266.405 16.3194 266.489 15.5067 266.489 14.7054ZM274.089 14.7054C274.089 11.6806 274.868 9.28212 276.425 7.51011C277.994 5.72681 280.28 4.83516 283.282 4.83516C286.329 4.83516 288.626 5.72117 290.173 7.49318C291.73 9.25391 292.509 11.658 292.509 14.7054C292.509 17.7528 291.73 20.1512 290.173 21.9007C288.615 23.6388 286.318 24.5079 283.282 24.5079C280.235 24.5079 277.938 23.6275 276.392 21.8668C274.857 20.1061 274.089 17.7189 274.089 14.7054ZM279.557 14.7054C279.557 15.3487 279.597 16.0146 279.676 16.7031C279.766 17.3803 279.936 18.0124 280.184 18.5993C280.443 19.1862 280.822 19.6659 281.318 20.0384C281.815 20.3995 282.475 20.5801 283.299 20.5801C284.123 20.5801 284.783 20.3995 285.28 20.0384C285.776 19.6659 286.149 19.1862 286.397 18.5993C286.657 18.0124 286.826 17.3803 286.905 16.7031C286.995 16.0146 287.041 15.3487 287.041 14.7054C287.041 14.0508 286.995 13.3792 286.905 12.6907C286.826 11.9909 286.657 11.3476 286.397 10.7607C286.149 10.1625 285.776 9.6828 285.28 9.32163C284.783 8.94917 284.123 8.76294 283.299 8.76294C282.475 8.76294 281.815 8.94917 281.318 9.32163C280.822 9.6828 280.443 10.1625 280.184 10.7607C279.936 11.3476 279.766 11.9909 279.676 12.6907C279.597 13.3792 279.557 14.0508 279.557 14.7054Z" fill="white" fill-opacity="0.87"/>
</svg>
