<svg width="201" height="18" viewBox="0 0 201 18" fill="none" xmlns="http://www.w3.org/2000/svg">
<path d="M5.23141 8.408C4.96741 7.792 4.71941 7.188 4.48741 6.596C4.25541 6.004 4.05541 5.48 3.88741 5.024L3.79141 5.06C3.85541 5.74 3.90741 6.512 3.94741 7.376C3.99541 8.232 4.03141 9.088 4.05541 9.944C4.07941 10.8 4.09141 11.56 4.09141 12.224V17C3.77941 17.056 3.47141 17.092 3.16741 17.108C2.86341 17.132 2.59141 17.144 2.35141 17.144C2.11941 17.144 1.82741 17.132 1.47541 17.108C1.13141 17.092 0.811406 17.056 0.515406 17V0.68C0.811406 0.607999 1.20341 0.555999 1.69141 0.524C2.17941 0.484 2.54341 0.464 2.78341 0.464C3.03141 0.464 3.35941 0.475999 3.76741 0.499999C4.17541 0.515999 4.59141 0.552 5.01541 0.607999L8.71141 9.176C9.01541 9.88 9.29541 10.552 9.55141 11.192C9.81541 11.832 10.0354 12.372 10.2114 12.812L10.3074 12.776C10.2434 12.032 10.1874 11.216 10.1394 10.328C10.0994 9.44 10.0674 8.584 10.0434 7.76C10.0194 6.936 10.0074 6.248 10.0074 5.696V2.768C10.0074 1.912 10.1794 1.312 10.5234 0.967999C10.8754 0.623999 11.4194 0.451999 12.1554 0.451999H13.4034L13.5594 0.607999V16.928C13.2554 17 12.8554 17.052 12.3594 17.084C11.8714 17.124 11.4994 17.144 11.2434 17.144C10.9954 17.144 10.6674 17.132 10.2594 17.108C9.85141 17.092 9.43941 17.056 9.02341 17L5.23141 8.408ZM17.1783 3.776C17.4823 3.712 17.8263 3.672 18.2103 3.656C18.5943 3.64 18.8983 3.632 19.1223 3.632C19.3623 3.632 19.6503 3.64 19.9863 3.656C20.3303 3.672 20.6623 3.712 20.9823 3.776V17C20.6623 17.056 20.3303 17.092 19.9863 17.108C19.6503 17.132 19.3623 17.144 19.1223 17.144C18.8983 17.144 18.5943 17.132 18.2103 17.108C17.8263 17.092 17.4823 17.056 17.1783 17V3.776ZM32.2303 3.776C32.5183 3.712 32.7703 3.672 32.9863 3.656C33.2103 3.64 33.4383 3.632 33.6703 3.632C33.9583 3.632 34.2583 3.648 34.5703 3.68C34.8903 3.712 35.2303 3.78 35.5903 3.884L35.7583 4.064L31.8223 17C31.4623 17.056 30.9903 17.092 30.4063 17.108C29.8223 17.132 29.2903 17.144 28.8103 17.144C28.1783 17.144 27.6423 17.044 27.2023 16.844C26.7703 16.636 26.4583 16.188 26.2663 15.5L22.8463 4.04C23.1743 3.904 23.5183 3.8 23.8783 3.728C24.2463 3.648 24.6223 3.608 25.0063 3.608C25.5823 3.608 26.0303 3.744 26.3503 4.016C26.6783 4.28 26.9383 4.74 27.1303 5.396L28.4143 9.692C28.5983 10.34 28.7623 11 28.9063 11.672C29.0583 12.344 29.2063 13.104 29.3503 13.952C29.3823 14.088 29.4623 14.156 29.5903 14.156L32.2303 3.776ZM47.6358 13.988C47.6358 15.132 47.4558 15.928 47.0958 16.376C46.7438 16.824 46.1438 17.048 45.2958 17.048H39.7638C39.0838 17.048 38.5478 16.856 38.1558 16.472C37.7638 16.08 37.5678 15.556 37.5678 14.9V3.908L37.6998 3.776H47.1918C47.2478 4.048 47.2798 4.308 47.2878 4.556C47.2958 4.804 47.2998 5.04 47.2998 5.264C47.2998 5.48 47.2758 5.724 47.2278 5.996C47.1878 6.268 47.1158 6.544 47.0118 6.824H42.8118C42.4758 6.824 41.9678 6.82 41.2878 6.812C41.2958 7.06 41.2998 7.272 41.2998 7.448C41.3078 7.624 41.3118 7.836 41.3118 8.084V8.876C41.9758 8.868 42.4758 8.864 42.8118 8.864H45.8838C45.9638 9.08 46.0158 9.328 46.0398 9.608C46.0718 9.88 46.0878 10.112 46.0878 10.304C46.0878 10.528 46.0718 10.78 46.0398 11.06C46.0158 11.332 45.9638 11.58 45.8838 11.804H42.8118C42.6598 11.804 42.4478 11.804 42.1758 11.804C41.9038 11.804 41.6158 11.804 41.3118 11.804V12.584C41.3118 12.88 41.3078 13.124 41.2998 13.316C41.2918 13.508 41.2878 13.748 41.2878 14.036V14.06C41.5678 14.044 41.8278 14.028 42.0678 14.012C42.3078 13.996 42.5998 13.988 42.9438 13.988H47.6358ZM59.5835 13.928C59.5355 15.096 59.3315 15.912 58.9715 16.376C58.6115 16.84 57.9715 17.072 57.0515 17.072H52.3955C51.7075 17.072 51.1675 16.88 50.7755 16.496C50.3915 16.104 50.1995 15.58 50.1995 14.924V3.8L50.3435 3.656H51.7835C52.5115 3.656 53.0635 3.84 53.4395 4.208C53.8155 4.568 54.0035 5.172 54.0035 6.02V14.048C54.8275 13.968 55.5675 13.928 56.2235 13.928H59.5835ZM70.4591 14.684C70.3311 14.684 70.2071 14.684 70.0871 14.684C69.9671 14.676 69.8471 14.668 69.7271 14.66L68.9831 17C68.7511 17.056 68.4991 17.096 68.2271 17.12C67.9551 17.152 67.6711 17.168 67.3751 17.168C67.0551 17.168 66.7311 17.144 66.4031 17.096C66.0831 17.048 65.8191 16.98 65.6111 16.892L65.4791 16.688L70.1471 3.776C70.5631 3.712 70.9631 3.672 71.3471 3.656C71.7391 3.64 72.0951 3.632 72.4151 3.632C72.7111 3.632 73.0311 3.64 73.3751 3.656C73.7191 3.672 74.1071 3.712 74.5391 3.776L79.0751 16.82C78.7951 16.948 78.4391 17.044 78.0071 17.108C77.5751 17.18 77.2271 17.216 76.9631 17.216C76.5231 17.216 76.0991 17.132 75.6911 16.964C75.2831 16.796 74.9751 16.352 74.7671 15.632L74.4671 14.66C74.3391 14.668 74.2151 14.676 74.0951 14.684C73.9751 14.684 73.8471 14.684 73.7111 14.684H70.4591ZM70.9391 10.892L70.6751 11.72C70.7951 11.712 70.9151 11.708 71.0351 11.708C71.1551 11.7 71.2791 11.696 71.4071 11.696H72.9071C73.0271 11.696 73.1351 11.7 73.2311 11.708C73.3351 11.708 73.4391 11.712 73.5431 11.72L73.2911 10.904C73.1071 10.272 72.9231 9.568 72.7391 8.792C72.5551 8.016 72.3871 7.312 72.2351 6.68H72.0911C71.9231 7.288 71.7351 7.984 71.5271 8.768C71.3271 9.552 71.1311 10.26 70.9391 10.892ZM93.4972 9.764C93.4972 8.748 93.3612 7.932 93.0892 7.316C92.8172 6.692 92.2692 6.38 91.4452 6.38C90.5892 6.38 89.9812 6.732 89.6212 7.436C89.2612 8.14 89.0812 9.152 89.0812 10.472C89.0812 11.48 89.2092 12.256 89.4652 12.8C89.7292 13.336 90.0652 13.708 90.4732 13.916C90.8812 14.124 91.3132 14.228 91.7692 14.228C92.3612 14.228 92.9532 14.1 93.5452 13.844C94.1452 13.58 94.6812 13.272 95.1532 12.92C95.4092 13.048 95.6572 13.252 95.8972 13.532C96.1372 13.812 96.3452 14.112 96.5212 14.432C96.6972 14.752 96.8092 15.044 96.8572 15.308C96.1932 15.876 95.3852 16.36 94.4332 16.76C93.4892 17.16 92.4132 17.36 91.2052 17.36C90.0452 17.36 89.0772 17.156 88.3012 16.748C87.5332 16.34 86.9212 15.804 86.4652 15.14C86.0092 14.468 85.6852 13.724 85.4932 12.908C85.3012 12.092 85.2052 11.272 85.2052 10.448C85.2052 8.808 85.5012 7.472 86.0932 6.44C86.6932 5.4 87.4772 4.636 88.4452 4.148C89.4212 3.66 90.4652 3.416 91.5772 3.416C92.8252 3.416 93.8532 3.636 94.6612 4.076C95.4692 4.516 96.0692 5.072 96.4612 5.744C96.8532 6.416 97.0492 7.108 97.0492 7.82C97.0492 9.188 96.2812 9.872 94.7452 9.872C94.5612 9.872 94.3612 9.86 94.1452 9.836C93.9292 9.812 93.7132 9.788 93.4972 9.764ZM98.2833 10.412C98.2833 8.268 98.8353 6.568 99.9393 5.312C101.051 4.048 102.671 3.416 104.799 3.416C106.959 3.416 108.587 4.044 109.683 5.3C110.787 6.548 111.339 8.252 111.339 10.412C111.339 12.572 110.787 14.272 109.683 15.512C108.579 16.744 106.951 17.36 104.799 17.36C102.639 17.36 101.011 16.736 99.9153 15.488C98.8273 14.24 98.2833 12.548 98.2833 10.412ZM102.159 10.412C102.159 10.868 102.187 11.34 102.243 11.828C102.307 12.308 102.427 12.756 102.603 13.172C102.787 13.588 103.055 13.928 103.407 14.192C103.759 14.448 104.227 14.576 104.811 14.576C105.395 14.576 105.863 14.448 106.215 14.192C106.567 13.928 106.831 13.588 107.007 13.172C107.191 12.756 107.311 12.308 107.367 11.828C107.431 11.34 107.463 10.868 107.463 10.412C107.463 9.948 107.431 9.472 107.367 8.984C107.311 8.488 107.191 8.032 107.007 7.616C106.831 7.192 106.567 6.852 106.215 6.596C105.863 6.332 105.395 6.2 104.811 6.2C104.227 6.2 103.759 6.332 103.407 6.596C103.055 6.852 102.787 7.192 102.603 7.616C102.427 8.032 102.307 8.488 102.243 8.984C102.187 9.472 102.159 9.948 102.159 10.412ZM118.466 10.964C118.41 10.836 118.322 10.636 118.202 10.364C118.082 10.084 117.954 9.784 117.818 9.464C117.682 9.144 117.554 8.844 117.434 8.564C117.322 8.284 117.234 8.08 117.17 7.952L117.086 7.988C117.118 8.62 117.15 9.304 117.182 10.04C117.214 10.768 117.238 11.436 117.254 12.044C117.278 12.644 117.29 13.08 117.29 13.352V17C116.978 17.056 116.678 17.092 116.39 17.108C116.102 17.132 115.834 17.144 115.586 17.144C115.362 17.144 115.082 17.132 114.746 17.108C114.418 17.092 114.106 17.056 113.81 17V3.86C114.106 3.788 114.474 3.732 114.914 3.692C115.354 3.652 115.694 3.632 115.934 3.632C116.182 3.632 116.534 3.64 116.99 3.656C117.446 3.664 117.822 3.704 118.118 3.776L120.938 9.788C120.994 9.9 121.086 10.104 121.214 10.4C121.35 10.696 121.494 11.02 121.646 11.372C121.798 11.724 121.938 12.056 122.066 12.368C122.202 12.672 122.302 12.896 122.366 13.04L122.474 13.016C122.442 12.488 122.398 11.872 122.342 11.168C122.294 10.464 122.25 9.784 122.21 9.128C122.17 8.472 122.15 7.948 122.15 7.556V5.684C122.15 4.836 122.334 4.28 122.702 4.016C123.07 3.744 123.618 3.608 124.346 3.608H125.582L125.726 3.776V16.928C125.414 17 125.038 17.052 124.598 17.084C124.158 17.124 123.822 17.144 123.59 17.144C123.43 17.144 123.21 17.14 122.93 17.132C122.65 17.124 122.362 17.112 122.066 17.096C121.778 17.08 121.538 17.048 121.346 17L118.466 10.964ZM127.901 16.004C127.901 15.7 127.961 15.364 128.081 14.996C128.201 14.62 128.365 14.272 128.573 13.952C128.781 13.632 129.009 13.392 129.257 13.232C129.849 13.552 130.509 13.828 131.237 14.06C131.965 14.284 132.677 14.396 133.373 14.396C133.821 14.396 134.189 14.304 134.477 14.12C134.773 13.936 134.921 13.676 134.921 13.34C134.921 13.124 134.837 12.928 134.669 12.752C134.501 12.568 134.209 12.4 133.793 12.248L131.801 11.468C131.185 11.244 130.609 10.964 130.073 10.628C129.537 10.292 129.105 9.88 128.777 9.392C128.449 8.904 128.285 8.32 128.285 7.64C128.285 6.392 128.765 5.376 129.725 4.592C130.685 3.808 131.977 3.416 133.601 3.416C134.521 3.416 135.433 3.524 136.337 3.74C137.249 3.948 138.013 4.188 138.629 4.46C138.629 5.004 138.517 5.54 138.293 6.068C138.069 6.596 137.761 7.012 137.369 7.316C136.777 7.052 136.133 6.832 135.437 6.656C134.741 6.472 134.113 6.38 133.553 6.38C133.137 6.38 132.817 6.468 132.593 6.644C132.377 6.82 132.269 7.032 132.269 7.28C132.269 7.512 132.377 7.688 132.593 7.808C132.809 7.928 133.077 8.048 133.397 8.168L135.377 8.924C136.481 9.324 137.357 9.876 138.005 10.58C138.661 11.276 138.989 12.136 138.989 13.16C138.989 14.064 138.745 14.828 138.257 15.452C137.777 16.076 137.117 16.548 136.277 16.868C135.445 17.188 134.505 17.352 133.457 17.36C132.209 17.36 131.097 17.216 130.121 16.928C129.153 16.64 128.413 16.332 127.901 16.004ZM152.822 12.044C152.822 13.7 152.326 15 151.334 15.944C150.35 16.888 148.89 17.36 146.954 17.36C145.018 17.36 143.554 16.888 142.562 15.944C141.578 15 141.086 13.7 141.086 12.044V3.776L141.23 3.632H142.598C143.326 3.632 143.886 3.816 144.278 4.184C144.678 4.552 144.878 5.172 144.878 6.044V12.032C144.878 12.76 145.03 13.332 145.334 13.748C145.638 14.164 146.178 14.372 146.954 14.372C147.738 14.372 148.278 14.164 148.574 13.748C148.87 13.332 149.018 12.76 149.018 12.032V3.776C149.338 3.712 149.666 3.672 150.002 3.656C150.338 3.64 150.63 3.632 150.878 3.632C151.102 3.632 151.406 3.644 151.79 3.668C152.174 3.684 152.518 3.724 152.822 3.788V12.044ZM165.38 13.928C165.332 15.096 165.128 15.912 164.768 16.376C164.408 16.84 163.768 17.072 162.848 17.072H158.192C157.504 17.072 156.964 16.88 156.572 16.496C156.188 16.104 155.996 15.58 155.996 14.924V3.8L156.14 3.656H157.58C158.308 3.656 158.86 3.84 159.236 4.208C159.612 4.568 159.8 5.172 159.8 6.02V14.048C160.624 13.968 161.364 13.928 162.02 13.928H165.38ZM167.599 8.276C167.599 8.02 167.603 7.784 167.611 7.568C167.619 7.344 167.623 7.096 167.623 6.824C167.455 6.824 167.223 6.828 166.927 6.836C166.639 6.844 166.411 6.848 166.243 6.848H164.023C163.959 6.56 163.919 6.292 163.903 6.044C163.887 5.788 163.879 5.556 163.879 5.348C163.879 5.14 163.887 4.896 163.903 4.616C163.919 4.328 163.959 4.048 164.023 3.776H174.883C174.939 3.992 174.979 4.236 175.003 4.508C175.035 4.78 175.051 5 175.051 5.168C175.051 5.712 174.907 6.128 174.619 6.416C174.331 6.704 173.851 6.848 173.179 6.848H172.687C172.519 6.848 172.295 6.844 172.015 6.836C171.743 6.828 171.531 6.824 171.379 6.824C171.379 7.096 171.383 7.344 171.391 7.568C171.399 7.784 171.403 8.02 171.403 8.276V17C171.179 17.048 170.871 17.084 170.479 17.108C170.087 17.132 169.759 17.144 169.495 17.144C169.247 17.144 168.935 17.132 168.559 17.108C168.183 17.084 167.863 17.048 167.599 17V8.276ZM178.928 14.684C178.8 14.684 178.676 14.684 178.556 14.684C178.436 14.676 178.316 14.668 178.196 14.66L177.452 17C177.22 17.056 176.968 17.096 176.696 17.12C176.424 17.152 176.14 17.168 175.844 17.168C175.524 17.168 175.2 17.144 174.872 17.096C174.552 17.048 174.288 16.98 174.08 16.892L173.948 16.688L178.616 3.776C179.032 3.712 179.432 3.672 179.816 3.656C180.208 3.64 180.564 3.632 180.884 3.632C181.18 3.632 181.5 3.64 181.844 3.656C182.188 3.672 182.576 3.712 183.008 3.776L187.544 16.82C187.264 16.948 186.908 17.044 186.476 17.108C186.044 17.18 185.696 17.216 185.432 17.216C184.992 17.216 184.568 17.132 184.16 16.964C183.752 16.796 183.444 16.352 183.236 15.632L182.936 14.66C182.808 14.668 182.684 14.676 182.564 14.684C182.444 14.684 182.316 14.684 182.18 14.684H178.928ZM179.408 10.892L179.144 11.72C179.264 11.712 179.384 11.708 179.504 11.708C179.624 11.7 179.748 11.696 179.876 11.696H181.376C181.496 11.696 181.604 11.7 181.7 11.708C181.804 11.708 181.908 11.712 182.012 11.72L181.76 10.904C181.576 10.272 181.392 9.568 181.208 8.792C181.024 8.016 180.856 7.312 180.704 6.68H180.56C180.392 7.288 180.204 7.984 179.996 8.768C179.796 9.552 179.6 10.26 179.408 10.892ZM200.149 7.796C200.149 8.412 200.009 8.96 199.729 9.44C199.449 9.92 199.097 10.316 198.673 10.628C198.257 10.94 197.841 11.14 197.425 11.228C197.857 11.372 198.213 11.592 198.493 11.888C198.781 12.184 199.029 12.564 199.237 13.028L199.861 14.456C200.005 14.784 200.169 15.088 200.353 15.368C200.537 15.64 200.741 15.872 200.965 16.064C200.733 16.352 200.385 16.62 199.921 16.868C199.457 17.108 198.953 17.228 198.409 17.228C197.873 17.228 197.437 17.1 197.101 16.844C196.773 16.58 196.485 16.16 196.237 15.584L195.181 13.16C195.013 12.768 194.805 12.532 194.557 12.452C194.309 12.372 193.989 12.332 193.597 12.332H193.129V17C192.809 17.056 192.477 17.092 192.133 17.108C191.797 17.132 191.509 17.144 191.269 17.144C191.045 17.144 190.749 17.132 190.381 17.108C190.013 17.092 189.677 17.056 189.373 17V3.896L189.505 3.752C190.473 3.728 191.381 3.708 192.229 3.692C193.085 3.668 193.937 3.656 194.785 3.656C195.745 3.656 196.633 3.784 197.449 4.04C198.265 4.288 198.917 4.716 199.405 5.324C199.901 5.924 200.149 6.748 200.149 7.796ZM193.129 6.368V9.476C193.409 9.468 193.665 9.464 193.897 9.464C194.137 9.456 194.313 9.452 194.425 9.452C195.145 9.452 195.633 9.296 195.889 8.984C196.145 8.672 196.273 8.308 196.273 7.892C196.273 7.484 196.145 7.132 195.889 6.836C195.633 6.54 195.205 6.392 194.605 6.392C194.317 6.392 194.069 6.388 193.861 6.38C193.653 6.372 193.409 6.368 193.129 6.368Z" fill="#364760"/>
</svg>
