<svg width="138" height="18" viewBox="0 0 138 18" fill="none" xmlns="http://www.w3.org/2000/svg">
<path d="M0.387625 0.607999C0.699625 0.552 1.03963 0.515999 1.40763 0.499999C1.77563 0.475999 2.07963 0.464 2.31963 0.464C2.57563 0.464 2.87963 0.475999 3.23163 0.499999C3.58363 0.515999 3.91963 0.552 4.23963 0.607999V17C3.91963 17.056 3.58363 17.092 3.23163 17.108C2.87963 17.132 2.57563 17.144 2.31963 17.144C2.07963 17.144 1.77563 17.132 1.40763 17.108C1.03963 17.092 0.699625 17.056 0.387625 17V0.607999ZM21.2648 8.792C21.2648 9.728 21.1968 10.632 21.0608 11.504C20.9328 12.368 20.6768 13.176 20.2928 13.928C19.9088 14.68 19.3328 15.352 18.5648 15.944C18.1968 16.232 17.7528 16.464 17.2328 16.64C16.7208 16.816 16.1928 16.944 15.6488 17.024C15.1048 17.104 14.6088 17.144 14.1608 17.144C13.1288 17.144 12.1248 17.132 11.1488 17.108C10.1808 17.092 9.17281 17.072 8.12481 17.048L7.95681 16.88V0.727999L8.12481 0.559999C9.15681 0.527999 10.1608 0.503999 11.1368 0.487999C12.1208 0.472 13.1288 0.464 14.1608 0.464C14.6088 0.464 15.1048 0.507999 15.6488 0.595999C16.1928 0.675999 16.7248 0.803999 17.2448 0.98C17.7648 1.156 18.2048 1.388 18.5648 1.676C19.3248 2.268 19.8968 2.94 20.2808 3.692C20.6648 4.436 20.9248 5.24 21.0608 6.104C21.1968 6.968 21.2648 7.864 21.2648 8.792ZM17.3168 8.792C17.3168 8.184 17.2768 7.568 17.1968 6.944C17.1248 6.312 16.9808 5.736 16.7648 5.216C16.5568 4.688 16.2408 4.264 15.8168 3.944C15.4008 3.616 14.8488 3.452 14.1608 3.452C13.7528 3.452 13.3608 3.452 12.9848 3.452C12.6088 3.452 12.2088 3.444 11.7848 3.428V14.168C12.2088 14.16 12.6088 14.156 12.9848 14.156C13.3608 14.156 13.7528 14.156 14.1608 14.156C14.8488 14.156 15.4008 13.996 15.8168 13.676C16.2408 13.348 16.5568 12.92 16.7648 12.392C16.9808 11.856 17.1248 11.276 17.1968 10.652C17.2768 10.02 17.3168 9.4 17.3168 8.792ZM41.2255 10.412C41.2255 12.652 40.7015 14.328 39.6535 15.44C38.6055 16.544 36.9535 17.096 34.6975 17.096C33.7455 17.096 32.8415 17.088 31.9855 17.072C31.1375 17.064 30.2415 17.048 29.2975 17.024L29.1655 16.88V3.896L29.2975 3.752C30.2495 3.728 31.1495 3.708 31.9975 3.692C32.8455 3.668 33.7455 3.656 34.6975 3.656C36.9295 3.656 38.5735 4.236 39.6295 5.396C40.6935 6.548 41.2255 8.22 41.2255 10.412ZM37.3615 10.412C37.3615 9.828 37.3015 9.244 37.1815 8.66C37.0615 8.068 36.8095 7.572 36.4255 7.172C36.0415 6.772 35.4655 6.572 34.6975 6.572C34.3455 6.572 34.0415 6.572 33.7855 6.572C33.5375 6.564 33.2495 6.556 32.9215 6.548V14.228C33.2655 14.228 33.5575 14.224 33.7975 14.216C34.0455 14.208 34.3455 14.204 34.6975 14.204C35.4655 14.204 36.0415 14.008 36.4255 13.616C36.8095 13.216 37.0615 12.724 37.1815 12.14C37.3015 11.556 37.3615 10.98 37.3615 10.412ZM53.7882 13.988C53.7882 15.132 53.6082 15.928 53.2482 16.376C52.8962 16.824 52.2962 17.048 51.4482 17.048H45.9162C45.2362 17.048 44.7002 16.856 44.3082 16.472C43.9162 16.08 43.7202 15.556 43.7202 14.9V3.908L43.8522 3.776H53.3442C53.4002 4.048 53.4322 4.308 53.4402 4.556C53.4482 4.804 53.4522 5.04 53.4522 5.264C53.4522 5.48 53.4282 5.724 53.3802 5.996C53.3402 6.268 53.2682 6.544 53.1642 6.824H48.9642C48.6282 6.824 48.1202 6.82 47.4402 6.812C47.4482 7.06 47.4522 7.272 47.4522 7.448C47.4602 7.624 47.4642 7.836 47.4642 8.084V8.876C48.1282 8.868 48.6282 8.864 48.9642 8.864H52.0362C52.1162 9.08 52.1682 9.328 52.1922 9.608C52.2242 9.88 52.2402 10.112 52.2402 10.304C52.2402 10.528 52.2242 10.78 52.1922 11.06C52.1682 11.332 52.1162 11.58 52.0362 11.804H48.9642C48.8122 11.804 48.6002 11.804 48.3282 11.804C48.0562 11.804 47.7682 11.804 47.4642 11.804V12.584C47.4642 12.88 47.4602 13.124 47.4522 13.316C47.4442 13.508 47.4402 13.748 47.4402 14.036V14.06C47.7202 14.044 47.9802 14.028 48.2202 14.012C48.4602 13.996 48.7522 13.988 49.0962 13.988H53.7882ZM70.8053 12.548C70.8053 12.284 70.8093 12.012 70.8173 11.732C70.8253 11.452 70.8373 11.168 70.8533 10.88H69.6773C69.0613 10.88 68.6013 10.764 68.2973 10.532C67.9933 10.3 67.8413 9.88 67.8413 9.272C67.8413 9.024 67.8653 8.756 67.9133 8.468C67.9693 8.18 68.0373 7.92 68.1173 7.688H71.8733C72.8253 7.688 73.4853 7.912 73.8533 8.36C74.2213 8.8 74.4053 9.368 74.4053 10.064V16.364C73.7093 16.596 72.8093 16.82 71.7053 17.036C70.6013 17.252 69.3933 17.36 68.0813 17.36C66.4413 17.36 65.0813 17.016 64.0013 16.328C62.9293 15.64 62.1293 14.664 61.6013 13.4C61.0733 12.136 60.8093 10.64 60.8093 8.912C60.8093 7.456 61.0213 6.188 61.4453 5.108C61.8693 4.02 62.4453 3.12 63.1733 2.408C63.9013 1.688 64.7213 1.148 65.6333 0.787999C66.5453 0.427999 67.4893 0.248 68.4653 0.248C69.5693 0.248 70.6253 0.408 71.6333 0.727999C72.6413 1.048 73.5533 1.46 74.3693 1.964C74.3293 2.508 74.1293 3.04 73.7693 3.56C73.4173 4.08 73.0453 4.468 72.6533 4.724C72.0693 4.332 71.4293 4.02 70.7333 3.788C70.0453 3.548 69.3653 3.428 68.6933 3.428C67.4773 3.428 66.5133 3.868 65.8013 4.748C65.0893 5.62 64.7333 7.016 64.7333 8.936C64.7333 10.808 65.0773 12.176 65.7653 13.04C66.4613 13.904 67.4533 14.336 68.7413 14.336C69.1253 14.336 69.4893 14.316 69.8333 14.276C70.1773 14.236 70.5013 14.188 70.8053 14.132V12.548ZM88.1524 7.796C88.1524 8.412 88.0124 8.96 87.7324 9.44C87.4524 9.92 87.1004 10.316 86.6764 10.628C86.2604 10.94 85.8444 11.14 85.4284 11.228C85.8604 11.372 86.2164 11.592 86.4964 11.888C86.7844 12.184 87.0324 12.564 87.2404 13.028L87.8644 14.456C88.0084 14.784 88.1724 15.088 88.3564 15.368C88.5404 15.64 88.7444 15.872 88.9684 16.064C88.7364 16.352 88.3884 16.62 87.9244 16.868C87.4604 17.108 86.9564 17.228 86.4124 17.228C85.8764 17.228 85.4404 17.1 85.1044 16.844C84.7764 16.58 84.4884 16.16 84.2404 15.584L83.1844 13.16C83.0164 12.768 82.8084 12.532 82.5604 12.452C82.3124 12.372 81.9924 12.332 81.6004 12.332H81.1324V17C80.8124 17.056 80.4804 17.092 80.1364 17.108C79.8004 17.132 79.5124 17.144 79.2724 17.144C79.0484 17.144 78.7524 17.132 78.3844 17.108C78.0164 17.092 77.6804 17.056 77.3764 17V3.896L77.5084 3.752C78.4764 3.728 79.3844 3.708 80.2324 3.692C81.0884 3.668 81.9404 3.656 82.7884 3.656C83.7484 3.656 84.6364 3.784 85.4524 4.04C86.2684 4.288 86.9204 4.716 87.4084 5.324C87.9044 5.924 88.1524 6.748 88.1524 7.796ZM81.1324 6.368V9.476C81.4124 9.468 81.6684 9.464 81.9004 9.464C82.1404 9.456 82.3164 9.452 82.4284 9.452C83.1484 9.452 83.6364 9.296 83.8924 8.984C84.1484 8.672 84.2764 8.308 84.2764 7.892C84.2764 7.484 84.1484 7.132 83.8924 6.836C83.6364 6.54 83.2084 6.392 82.6084 6.392C82.3204 6.392 82.0724 6.388 81.8644 6.38C81.6564 6.372 81.4124 6.368 81.1324 6.368ZM102.536 12.044C102.536 13.7 102.041 15 101.049 15.944C100.065 16.888 98.6045 17.36 96.6685 17.36C94.7325 17.36 93.2685 16.888 92.2765 15.944C91.2925 15 90.8005 13.7 90.8005 12.044V3.776L90.9445 3.632H92.3125C93.0405 3.632 93.6005 3.816 93.9925 4.184C94.3925 4.552 94.5925 5.172 94.5925 6.044V12.032C94.5925 12.76 94.7445 13.332 95.0485 13.748C95.3525 14.164 95.8925 14.372 96.6685 14.372C97.4525 14.372 97.9925 14.164 98.2885 13.748C98.5845 13.332 98.7325 12.76 98.7325 12.032V3.776C99.0525 3.712 99.3805 3.672 99.7165 3.656C100.053 3.64 100.345 3.632 100.593 3.632C100.817 3.632 101.121 3.644 101.505 3.668C101.889 3.684 102.233 3.724 102.536 3.788V12.044ZM116.271 8.312C116.271 9.352 116.035 10.216 115.563 10.904C115.099 11.584 114.459 12.092 113.643 12.428C112.827 12.756 111.899 12.92 110.859 12.92H109.551V17C109.231 17.056 108.903 17.092 108.567 17.108C108.231 17.132 107.943 17.144 107.703 17.144C107.479 17.144 107.175 17.132 106.791 17.108C106.407 17.092 106.063 17.056 105.759 17V3.896L105.891 3.752C106.539 3.736 107.319 3.716 108.231 3.692C109.143 3.668 110.019 3.656 110.859 3.656C111.907 3.656 112.839 3.816 113.655 4.136C114.471 4.456 115.111 4.96 115.575 5.648C116.039 6.336 116.271 7.224 116.271 8.312ZM109.551 6.464V10.136C109.767 10.128 109.963 10.124 110.139 10.124C110.315 10.116 110.447 10.112 110.535 10.112C111.063 10.112 111.459 10.016 111.723 9.824C111.995 9.624 112.175 9.384 112.263 9.104C112.351 8.816 112.395 8.544 112.395 8.288C112.395 8.048 112.351 7.788 112.263 7.508C112.175 7.228 111.995 6.988 111.723 6.788C111.459 6.588 111.063 6.488 110.535 6.488C110.335 6.488 110.191 6.488 110.103 6.488C110.015 6.48 109.831 6.472 109.551 6.464ZM117.608 10.412C117.608 8.268 118.16 6.568 119.264 5.312C120.376 4.048 121.996 3.416 124.124 3.416C126.284 3.416 127.912 4.044 129.008 5.3C130.112 6.548 130.664 8.252 130.664 10.412C130.664 12.572 130.112 14.272 129.008 15.512C127.904 16.744 126.276 17.36 124.124 17.36C121.964 17.36 120.336 16.736 119.24 15.488C118.152 14.24 117.608 12.548 117.608 10.412ZM121.484 10.412C121.484 10.868 121.512 11.34 121.568 11.828C121.632 12.308 121.752 12.756 121.928 13.172C122.112 13.588 122.38 13.928 122.732 14.192C123.084 14.448 123.552 14.576 124.136 14.576C124.72 14.576 125.188 14.448 125.54 14.192C125.892 13.928 126.156 13.588 126.332 13.172C126.516 12.756 126.636 12.308 126.692 11.828C126.756 11.34 126.788 10.868 126.788 10.412C126.788 9.948 126.756 9.472 126.692 8.984C126.636 8.488 126.516 8.032 126.332 7.616C126.156 7.192 125.892 6.852 125.54 6.596C125.188 6.332 124.72 6.2 124.136 6.2C123.552 6.2 123.084 6.332 122.732 6.596C122.38 6.852 122.112 7.192 121.928 7.616C121.752 8.032 121.632 8.488 121.568 8.984C121.512 9.472 121.484 9.948 121.484 10.412ZM132.774 15.368C132.774 15.224 132.794 15 132.834 14.696C132.882 14.392 132.958 14.132 133.062 13.916C133.302 13.78 133.594 13.672 133.938 13.592C134.29 13.512 134.626 13.472 134.946 13.472C135.258 13.472 135.59 13.512 135.942 13.592C136.294 13.672 136.59 13.78 136.83 13.916C136.934 14.132 137.006 14.392 137.046 14.696C137.086 15 137.106 15.224 137.106 15.368C137.106 15.512 137.086 15.736 137.046 16.04C137.006 16.344 136.934 16.604 136.83 16.82C136.59 16.964 136.294 17.072 135.942 17.144C135.59 17.216 135.258 17.252 134.946 17.252C134.626 17.252 134.29 17.216 133.938 17.144C133.594 17.072 133.302 16.964 133.062 16.82C132.958 16.604 132.882 16.344 132.834 16.04C132.794 15.736 132.774 15.512 132.774 15.368ZM132.774 7.952C132.774 7.808 132.794 7.584 132.834 7.28C132.882 6.976 132.958 6.716 133.062 6.5C133.302 6.364 133.594 6.256 133.938 6.176C134.29 6.096 134.626 6.056 134.946 6.056C135.258 6.056 135.59 6.096 135.942 6.176C136.294 6.256 136.59 6.364 136.83 6.5C136.934 6.716 137.006 6.976 137.046 7.28C137.086 7.584 137.106 7.808 137.106 7.952C137.106 8.096 137.086 8.32 137.046 8.624C137.006 8.928 136.934 9.188 136.83 9.404C136.59 9.548 136.294 9.656 135.942 9.728C135.59 9.8 135.258 9.836 134.946 9.836C134.626 9.836 134.29 9.8 133.938 9.728C133.594 9.656 133.302 9.548 133.062 9.404C132.958 9.188 132.882 8.928 132.834 8.624C132.794 8.32 132.774 8.096 132.774 7.952Z" fill="#364760"/>
</svg>
