<svg width="203" height="18" viewBox="0 0 203 18" fill="none" xmlns="http://www.w3.org/2000/svg">
<path d="M4.74313 8.408C4.47913 7.792 4.23113 7.188 3.99913 6.596C3.76713 6.004 3.56713 5.48 3.39913 5.024L3.30313 5.06C3.36713 5.74 3.41913 6.512 3.45913 7.376C3.50713 8.232 3.54313 9.088 3.56713 9.944C3.59113 10.8 3.60313 11.56 3.60313 12.224V17C3.29113 17.056 2.98313 17.092 2.67913 17.108C2.37513 17.132 2.10313 17.144 1.86313 17.144C1.63113 17.144 1.33913 17.132 0.987125 17.108C0.643125 17.092 0.323125 17.056 0.0271251 17V0.68C0.323125 0.607999 0.715125 0.555999 1.20312 0.524C1.69113 0.484 2.05513 0.464 2.29513 0.464C2.54313 0.464 2.87113 0.475999 3.27913 0.499999C3.68713 0.515999 4.10313 0.552 4.52713 0.607999L8.22313 9.176C8.52713 9.88 8.80713 10.552 9.06313 11.192C9.32713 11.832 9.54713 12.372 9.72313 12.812L9.81913 12.776C9.75513 12.032 9.69913 11.216 9.65113 10.328C9.61113 9.44 9.57913 8.584 9.55513 7.76C9.53113 6.936 9.51913 6.248 9.51913 5.696V2.768C9.51913 1.912 9.69113 1.312 10.0351 0.967999C10.3871 0.623999 10.9311 0.451999 11.6671 0.451999H12.9151L13.0711 0.607999V16.928C12.7671 17 12.3671 17.052 11.8711 17.084C11.3831 17.124 11.0111 17.144 10.7551 17.144C10.5071 17.144 10.1791 17.132 9.77113 17.108C9.36313 17.092 8.95113 17.056 8.53513 17L4.74313 8.408ZM15.6701 10.412C15.6701 8.268 16.2221 6.568 17.3261 5.312C18.4381 4.048 20.0581 3.416 22.1861 3.416C24.3461 3.416 25.9741 4.044 27.0701 5.3C28.1741 6.548 28.7261 8.252 28.7261 10.412C28.7261 12.572 28.1741 14.272 27.0701 15.512C25.9661 16.744 24.3381 17.36 22.1861 17.36C20.0261 17.36 18.3981 16.736 17.3021 15.488C16.2141 14.24 15.6701 12.548 15.6701 10.412ZM19.5461 10.412C19.5461 10.868 19.5741 11.34 19.6301 11.828C19.6941 12.308 19.8141 12.756 19.9901 13.172C20.1741 13.588 20.4421 13.928 20.7941 14.192C21.1461 14.448 21.6141 14.576 22.1981 14.576C22.7821 14.576 23.2501 14.448 23.6021 14.192C23.9541 13.928 24.2181 13.588 24.3941 13.172C24.5781 12.756 24.6981 12.308 24.7541 11.828C24.8181 11.34 24.8501 10.868 24.8501 10.412C24.8501 9.948 24.8181 9.472 24.7541 8.984C24.6981 8.488 24.5781 8.032 24.3941 7.616C24.2181 7.192 23.9541 6.852 23.6021 6.596C23.2501 6.332 22.7821 6.2 22.1981 6.2C21.6141 6.2 21.1461 6.332 20.7941 6.596C20.4421 6.852 20.1741 7.192 19.9901 7.616C19.8141 8.032 19.6941 8.488 19.6301 8.984C19.5741 9.472 19.5461 9.948 19.5461 10.412ZM31.9196 3.776C32.3036 3.704 32.7236 3.656 33.1796 3.632C33.6356 3.6 34.0196 3.584 34.3316 3.584C34.6276 3.584 35.0116 3.6 35.4836 3.632C35.9556 3.656 36.3516 3.704 36.6716 3.776L37.8476 8.984C37.9196 9.296 38.0036 9.72 38.0996 10.256C38.1956 10.784 38.2916 11.352 38.3876 11.96H38.5436C38.7356 10.68 38.9156 9.688 39.0836 8.984L40.2476 3.776C40.6236 3.704 41.0356 3.656 41.4836 3.632C41.9316 3.6 42.3036 3.584 42.5996 3.584C42.9116 3.584 43.2996 3.6 43.7636 3.632C44.2276 3.656 44.6436 3.704 45.0116 3.776L46.3676 16.952C45.8476 17.08 45.2196 17.144 44.4836 17.144C44.2036 17.144 43.9036 17.132 43.5836 17.108C43.2716 17.084 42.9916 17.048 42.7436 17L42.3956 12.752C42.3556 12.208 42.3316 11.612 42.3236 10.964C42.3156 10.316 42.3156 9.684 42.3236 9.068C42.3316 8.444 42.3316 7.904 42.3236 7.448H42.1796L40.4156 14.972C40.1436 15.02 39.8116 15.056 39.4196 15.08C39.0276 15.096 38.7036 15.104 38.4476 15.104C38.1836 15.104 37.8556 15.096 37.4636 15.08C37.0796 15.056 36.7596 15.02 36.5036 14.972L34.7516 7.448H34.5836C34.5836 7.912 34.5836 8.452 34.5836 9.068C34.5916 9.684 34.5916 10.316 34.5836 10.964C34.5756 11.612 34.5476 12.216 34.4996 12.776L34.1876 17C33.9316 17.048 33.6516 17.084 33.3476 17.108C33.0516 17.132 32.7636 17.144 32.4836 17.144C31.7396 17.144 31.0996 17.08 30.5636 16.952L31.9196 3.776ZM49.4459 3.752C49.8619 3.736 50.3619 3.72 50.9459 3.704C51.5379 3.688 52.1459 3.676 52.7699 3.668C53.3939 3.66 53.9659 3.656 54.4859 3.656C55.4699 3.656 56.3499 3.768 57.1259 3.992C57.9099 4.216 58.5259 4.588 58.9739 5.108C59.4219 5.62 59.6459 6.308 59.6459 7.172C59.6459 7.732 59.4899 8.264 59.1779 8.768C58.8739 9.272 58.4539 9.628 57.9179 9.836C58.6059 10.052 59.1819 10.476 59.6459 11.108C60.1099 11.732 60.3419 12.408 60.3419 13.136C60.3419 14.16 60.1019 14.96 59.6219 15.536C59.1499 16.104 58.4939 16.508 57.6539 16.748C56.8219 16.98 55.8699 17.096 54.7979 17.096C53.9739 17.096 53.1179 17.088 52.2299 17.072C51.3419 17.064 50.4139 17.048 49.4459 17.024L49.3139 16.904V3.896L49.4459 3.752ZM54.3179 6.236C54.1659 6.236 53.9619 6.236 53.7059 6.236C53.4499 6.236 53.2059 6.228 52.9739 6.212V8.792H54.2939C54.9339 8.792 55.3699 8.66 55.6019 8.396C55.8339 8.132 55.9499 7.836 55.9499 7.508C55.9499 7.188 55.8339 6.896 55.6019 6.632C55.3779 6.368 54.9499 6.236 54.3179 6.236ZM52.9739 14.516C53.2939 14.5 53.6059 14.492 53.9099 14.492C54.2139 14.492 54.4899 14.492 54.7379 14.492C55.4659 14.492 55.9459 14.328 56.1779 14C56.4179 13.664 56.5379 13.32 56.5379 12.968C56.5379 12.584 56.3939 12.224 56.1059 11.888C55.8259 11.552 55.3059 11.384 54.5459 11.384H52.9739V14.516ZM73.6368 7.796C73.6368 8.412 73.4968 8.96 73.2168 9.44C72.9368 9.92 72.5848 10.316 72.1608 10.628C71.7448 10.94 71.3288 11.14 70.9128 11.228C71.3448 11.372 71.7008 11.592 71.9808 11.888C72.2688 12.184 72.5168 12.564 72.7248 13.028L73.3488 14.456C73.4928 14.784 73.6568 15.088 73.8408 15.368C74.0248 15.64 74.2288 15.872 74.4528 16.064C74.2208 16.352 73.8728 16.62 73.4088 16.868C72.9448 17.108 72.4408 17.228 71.8968 17.228C71.3608 17.228 70.9248 17.1 70.5888 16.844C70.2608 16.58 69.9728 16.16 69.7248 15.584L68.6688 13.16C68.5008 12.768 68.2928 12.532 68.0448 12.452C67.7968 12.372 67.4768 12.332 67.0848 12.332H66.6168V17C66.2968 17.056 65.9648 17.092 65.6208 17.108C65.2848 17.132 64.9968 17.144 64.7568 17.144C64.5328 17.144 64.2368 17.132 63.8688 17.108C63.5008 17.092 63.1648 17.056 62.8608 17V3.896L62.9928 3.752C63.9608 3.728 64.8688 3.708 65.7168 3.692C66.5728 3.668 67.4248 3.656 68.2728 3.656C69.2328 3.656 70.1208 3.784 70.9368 4.04C71.7528 4.288 72.4048 4.716 72.8928 5.324C73.3888 5.924 73.6368 6.748 73.6368 7.796ZM66.6168 6.368V9.476C66.8968 9.468 67.1528 9.464 67.3848 9.464C67.6248 9.456 67.8008 9.452 67.9128 9.452C68.6328 9.452 69.1208 9.296 69.3768 8.984C69.6328 8.672 69.7608 8.308 69.7608 7.892C69.7608 7.484 69.6328 7.132 69.3768 6.836C69.1208 6.54 68.6928 6.392 68.0928 6.392C67.8048 6.392 67.5568 6.388 67.3488 6.38C67.1408 6.372 66.8968 6.368 66.6168 6.368ZM86.5929 13.988C86.5929 15.132 86.4129 15.928 86.0529 16.376C85.7009 16.824 85.1009 17.048 84.2529 17.048H78.7209C78.0409 17.048 77.5049 16.856 77.1129 16.472C76.7209 16.08 76.5249 15.556 76.5249 14.9V3.908L76.6569 3.776H86.1489C86.2049 4.048 86.2369 4.308 86.2449 4.556C86.2529 4.804 86.2569 5.04 86.2569 5.264C86.2569 5.48 86.2329 5.724 86.1849 5.996C86.1449 6.268 86.0729 6.544 85.9689 6.824H81.7689C81.4329 6.824 80.9249 6.82 80.2449 6.812C80.2529 7.06 80.2569 7.272 80.2569 7.448C80.2649 7.624 80.2689 7.836 80.2689 8.084V8.876C80.9329 8.868 81.4329 8.864 81.7689 8.864H84.8409C84.9209 9.08 84.9729 9.328 84.9969 9.608C85.0289 9.88 85.0449 10.112 85.0449 10.304C85.0449 10.528 85.0289 10.78 84.9969 11.06C84.9729 11.332 84.9209 11.58 84.8409 11.804H81.7689C81.6169 11.804 81.4049 11.804 81.1329 11.804C80.8609 11.804 80.5729 11.804 80.2689 11.804V12.584C80.2689 12.88 80.2649 13.124 80.2569 13.316C80.2489 13.508 80.2449 13.748 80.2449 14.036V14.06C80.5249 14.044 80.7849 14.028 81.0249 14.012C81.2649 13.996 81.5569 13.988 81.9009 13.988H86.5929ZM106.538 10.412C106.538 12.652 106.014 14.328 104.966 15.44C103.918 16.544 102.266 17.096 100.01 17.096C99.058 17.096 98.154 17.088 97.298 17.072C96.45 17.064 95.554 17.048 94.61 17.024L94.478 16.88V3.896L94.61 3.752C95.562 3.728 96.462 3.708 97.31 3.692C98.158 3.668 99.058 3.656 100.01 3.656C102.242 3.656 103.886 4.236 104.942 5.396C106.006 6.548 106.538 8.22 106.538 10.412ZM102.674 10.412C102.674 9.828 102.614 9.244 102.494 8.66C102.374 8.068 102.122 7.572 101.738 7.172C101.354 6.772 100.778 6.572 100.01 6.572C99.658 6.572 99.354 6.572 99.098 6.572C98.85 6.564 98.562 6.556 98.234 6.548V14.228C98.578 14.228 98.87 14.224 99.11 14.216C99.358 14.208 99.658 14.204 100.01 14.204C100.778 14.204 101.354 14.008 101.738 13.616C102.122 13.216 102.374 12.724 102.494 12.14C102.614 11.556 102.674 10.98 102.674 10.412ZM119.101 13.988C119.101 15.132 118.921 15.928 118.561 16.376C118.209 16.824 117.609 17.048 116.761 17.048H111.229C110.549 17.048 110.013 16.856 109.621 16.472C109.229 16.08 109.033 15.556 109.033 14.9V3.908L109.165 3.776H118.657C118.713 4.048 118.745 4.308 118.753 4.556C118.761 4.804 118.765 5.04 118.765 5.264C118.765 5.48 118.741 5.724 118.693 5.996C118.653 6.268 118.581 6.544 118.477 6.824H114.277C113.941 6.824 113.433 6.82 112.753 6.812C112.761 7.06 112.765 7.272 112.765 7.448C112.773 7.624 112.777 7.836 112.777 8.084V8.876C113.441 8.868 113.941 8.864 114.277 8.864H117.349C117.429 9.08 117.481 9.328 117.505 9.608C117.537 9.88 117.553 10.112 117.553 10.304C117.553 10.528 117.537 10.78 117.505 11.06C117.481 11.332 117.429 11.58 117.349 11.804H114.277C114.125 11.804 113.913 11.804 113.641 11.804C113.369 11.804 113.081 11.804 112.777 11.804V12.584C112.777 12.88 112.773 13.124 112.765 13.316C112.757 13.508 112.753 13.748 112.753 14.036V14.06C113.033 14.044 113.293 14.028 113.533 14.012C113.773 13.996 114.065 13.988 114.409 13.988H119.101ZM136.118 12.548C136.118 12.284 136.122 12.012 136.13 11.732C136.138 11.452 136.15 11.168 136.166 10.88H134.99C134.374 10.88 133.914 10.764 133.61 10.532C133.306 10.3 133.154 9.88 133.154 9.272C133.154 9.024 133.178 8.756 133.226 8.468C133.282 8.18 133.35 7.92 133.43 7.688H137.186C138.138 7.688 138.798 7.912 139.166 8.36C139.534 8.8 139.718 9.368 139.718 10.064V16.364C139.022 16.596 138.122 16.82 137.018 17.036C135.914 17.252 134.706 17.36 133.394 17.36C131.754 17.36 130.394 17.016 129.314 16.328C128.242 15.64 127.442 14.664 126.914 13.4C126.386 12.136 126.122 10.64 126.122 8.912C126.122 7.456 126.334 6.188 126.758 5.108C127.182 4.02 127.758 3.12 128.486 2.408C129.214 1.688 130.034 1.148 130.946 0.787999C131.858 0.427999 132.802 0.248 133.778 0.248C134.882 0.248 135.938 0.408 136.946 0.727999C137.954 1.048 138.866 1.46 139.682 1.964C139.642 2.508 139.442 3.04 139.082 3.56C138.73 4.08 138.358 4.468 137.966 4.724C137.382 4.332 136.742 4.02 136.046 3.788C135.358 3.548 134.678 3.428 134.006 3.428C132.79 3.428 131.826 3.868 131.114 4.748C130.402 5.62 130.046 7.016 130.046 8.936C130.046 10.808 130.39 12.176 131.078 13.04C131.774 13.904 132.766 14.336 134.054 14.336C134.438 14.336 134.802 14.316 135.146 14.276C135.49 14.236 135.814 14.188 136.118 14.132V12.548ZM153.465 7.796C153.465 8.412 153.325 8.96 153.045 9.44C152.765 9.92 152.413 10.316 151.989 10.628C151.573 10.94 151.157 11.14 150.741 11.228C151.173 11.372 151.529 11.592 151.809 11.888C152.097 12.184 152.345 12.564 152.553 13.028L153.177 14.456C153.321 14.784 153.485 15.088 153.669 15.368C153.853 15.64 154.057 15.872 154.281 16.064C154.049 16.352 153.701 16.62 153.237 16.868C152.773 17.108 152.269 17.228 151.725 17.228C151.189 17.228 150.753 17.1 150.417 16.844C150.089 16.58 149.801 16.16 149.553 15.584L148.497 13.16C148.329 12.768 148.121 12.532 147.873 12.452C147.625 12.372 147.305 12.332 146.913 12.332H146.445V17C146.125 17.056 145.793 17.092 145.449 17.108C145.113 17.132 144.825 17.144 144.585 17.144C144.361 17.144 144.065 17.132 143.697 17.108C143.329 17.092 142.993 17.056 142.689 17V3.896L142.821 3.752C143.789 3.728 144.697 3.708 145.545 3.692C146.401 3.668 147.253 3.656 148.101 3.656C149.061 3.656 149.949 3.784 150.765 4.04C151.581 4.288 152.233 4.716 152.721 5.324C153.217 5.924 153.465 6.748 153.465 7.796ZM146.445 6.368V9.476C146.725 9.468 146.981 9.464 147.213 9.464C147.453 9.456 147.629 9.452 147.741 9.452C148.461 9.452 148.949 9.296 149.205 8.984C149.461 8.672 149.589 8.308 149.589 7.892C149.589 7.484 149.461 7.132 149.205 6.836C148.949 6.54 148.521 6.392 147.921 6.392C147.633 6.392 147.385 6.388 147.177 6.38C146.969 6.372 146.725 6.368 146.445 6.368ZM167.849 12.044C167.849 13.7 167.353 15 166.361 15.944C165.377 16.888 163.917 17.36 161.981 17.36C160.045 17.36 158.581 16.888 157.589 15.944C156.605 15 156.113 13.7 156.113 12.044V3.776L156.257 3.632H157.625C158.353 3.632 158.913 3.816 159.305 4.184C159.705 4.552 159.905 5.172 159.905 6.044V12.032C159.905 12.76 160.057 13.332 160.361 13.748C160.665 14.164 161.205 14.372 161.981 14.372C162.765 14.372 163.305 14.164 163.601 13.748C163.897 13.332 164.045 12.76 164.045 12.032V3.776C164.365 3.712 164.693 3.672 165.029 3.656C165.365 3.64 165.657 3.632 165.905 3.632C166.129 3.632 166.433 3.644 166.817 3.668C167.201 3.684 167.545 3.724 167.849 3.788V12.044ZM181.584 8.312C181.584 9.352 181.348 10.216 180.876 10.904C180.412 11.584 179.772 12.092 178.956 12.428C178.14 12.756 177.212 12.92 176.172 12.92H174.864V17C174.544 17.056 174.216 17.092 173.88 17.108C173.544 17.132 173.256 17.144 173.016 17.144C172.792 17.144 172.488 17.132 172.104 17.108C171.72 17.092 171.376 17.056 171.072 17V3.896L171.204 3.752C171.852 3.736 172.632 3.716 173.544 3.692C174.456 3.668 175.332 3.656 176.172 3.656C177.22 3.656 178.152 3.816 178.968 4.136C179.784 4.456 180.424 4.96 180.888 5.648C181.352 6.336 181.584 7.224 181.584 8.312ZM174.864 6.464V10.136C175.08 10.128 175.276 10.124 175.452 10.124C175.628 10.116 175.76 10.112 175.848 10.112C176.376 10.112 176.772 10.016 177.036 9.824C177.308 9.624 177.488 9.384 177.576 9.104C177.664 8.816 177.708 8.544 177.708 8.288C177.708 8.048 177.664 7.788 177.576 7.508C177.488 7.228 177.308 6.988 177.036 6.788C176.772 6.588 176.376 6.488 175.848 6.488C175.648 6.488 175.504 6.488 175.416 6.488C175.328 6.48 175.144 6.472 174.864 6.464ZM182.92 10.412C182.92 8.268 183.472 6.568 184.576 5.312C185.688 4.048 187.308 3.416 189.436 3.416C191.596 3.416 193.224 4.044 194.32 5.3C195.424 6.548 195.976 8.252 195.976 10.412C195.976 12.572 195.424 14.272 194.32 15.512C193.216 16.744 191.588 17.36 189.436 17.36C187.276 17.36 185.648 16.736 184.552 15.488C183.464 14.24 182.92 12.548 182.92 10.412ZM186.796 10.412C186.796 10.868 186.824 11.34 186.88 11.828C186.944 12.308 187.064 12.756 187.24 13.172C187.424 13.588 187.692 13.928 188.044 14.192C188.396 14.448 188.864 14.576 189.448 14.576C190.032 14.576 190.5 14.448 190.852 14.192C191.204 13.928 191.468 13.588 191.644 13.172C191.828 12.756 191.948 12.308 192.004 11.828C192.068 11.34 192.1 10.868 192.1 10.412C192.1 9.948 192.068 9.472 192.004 8.984C191.948 8.488 191.828 8.032 191.644 7.616C191.468 7.192 191.204 6.852 190.852 6.596C190.5 6.332 190.032 6.2 189.448 6.2C188.864 6.2 188.396 6.332 188.044 6.596C187.692 6.852 187.424 7.192 187.24 7.616C187.064 8.032 186.944 8.488 186.88 8.984C186.824 9.472 186.796 9.948 186.796 10.412ZM198.087 15.368C198.087 15.224 198.107 15 198.147 14.696C198.195 14.392 198.271 14.132 198.375 13.916C198.615 13.78 198.907 13.672 199.251 13.592C199.603 13.512 199.939 13.472 200.259 13.472C200.571 13.472 200.903 13.512 201.255 13.592C201.607 13.672 201.903 13.78 202.143 13.916C202.247 14.132 202.319 14.392 202.359 14.696C202.399 15 202.419 15.224 202.419 15.368C202.419 15.512 202.399 15.736 202.359 16.04C202.319 16.344 202.247 16.604 202.143 16.82C201.903 16.964 201.607 17.072 201.255 17.144C200.903 17.216 200.571 17.252 200.259 17.252C199.939 17.252 199.603 17.216 199.251 17.144C198.907 17.072 198.615 16.964 198.375 16.82C198.271 16.604 198.195 16.344 198.147 16.04C198.107 15.736 198.087 15.512 198.087 15.368ZM198.087 7.952C198.087 7.808 198.107 7.584 198.147 7.28C198.195 6.976 198.271 6.716 198.375 6.5C198.615 6.364 198.907 6.256 199.251 6.176C199.603 6.096 199.939 6.056 200.259 6.056C200.571 6.056 200.903 6.096 201.255 6.176C201.607 6.256 201.903 6.364 202.143 6.5C202.247 6.716 202.319 6.976 202.359 7.28C202.399 7.584 202.419 7.808 202.419 7.952C202.419 8.096 202.399 8.32 202.359 8.624C202.319 8.928 202.247 9.188 202.143 9.404C201.903 9.548 201.607 9.656 201.255 9.728C200.903 9.8 200.571 9.836 200.259 9.836C199.939 9.836 199.603 9.8 199.251 9.728C198.907 9.656 198.615 9.548 198.375 9.404C198.271 9.188 198.195 8.928 198.147 8.624C198.107 8.32 198.087 8.096 198.087 7.952Z" fill="#364760"/>
</svg>
