<svg width="131" height="26" viewBox="0 0 131 26" fill="none" xmlns="http://www.w3.org/2000/svg">
<path d="M7.35492 12.112C6.95892 11.188 6.58692 10.282 6.23892 9.394C5.89092 8.506 5.59092 7.72 5.33892 7.036L5.19492 7.09C5.29092 8.11 5.36892 9.268 5.42892 10.564C5.50092 11.848 5.55492 13.132 5.59092 14.416C5.62692 15.7 5.64492 16.84 5.64492 17.836V25C5.17692 25.084 4.71492 25.138 4.25892 25.162C3.80292 25.198 3.39492 25.216 3.03492 25.216C2.68692 25.216 2.24892 25.198 1.72092 25.162C1.20492 25.138 0.724922 25.084 0.280922 25V0.52C0.724922 0.411999 1.31292 0.333999 2.04492 0.286C2.77692 0.226 3.32292 0.196 3.68292 0.196C4.05492 0.196 4.54692 0.213999 5.15892 0.249998C5.77092 0.273999 6.39492 0.327999 7.03092 0.411999L12.5749 13.264C13.0309 14.32 13.4509 15.328 13.8349 16.288C14.2309 17.248 14.5609 18.058 14.8249 18.718L14.9689 18.664C14.8729 17.548 14.7889 16.324 14.7169 14.992C14.6569 13.66 14.6089 12.376 14.5729 11.14C14.5369 9.904 14.5189 8.872 14.5189 8.044V3.652C14.5189 2.368 14.7769 1.468 15.2929 0.951998C15.8209 0.435999 16.6369 0.177999 17.7409 0.177999H19.6129L19.8469 0.411999V24.892C19.3909 25 18.7909 25.078 18.0469 25.126C17.3149 25.186 16.7569 25.216 16.3729 25.216C16.0009 25.216 15.5089 25.198 14.8969 25.162C14.2849 25.138 13.6669 25.084 13.0429 25L7.35492 12.112ZM23.7453 15.118C23.7453 11.902 24.5733 9.352 26.2293 7.468C27.8973 5.572 30.3273 4.624 33.5193 4.624C36.7593 4.624 39.2013 5.566 40.8453 7.45C42.5013 9.322 43.3293 11.878 43.3293 15.118C43.3293 18.358 42.5013 20.908 40.8453 22.768C39.1893 24.616 36.7473 25.54 33.5193 25.54C30.2793 25.54 27.8373 24.604 26.1933 22.732C24.5613 20.86 23.7453 18.322 23.7453 15.118ZM29.5593 15.118C29.5593 15.802 29.6013 16.51 29.6853 17.242C29.7813 17.962 29.9613 18.634 30.2253 19.258C30.5013 19.882 30.9033 20.392 31.4313 20.788C31.9593 21.172 32.6613 21.364 33.5373 21.364C34.4133 21.364 35.1153 21.172 35.6433 20.788C36.1713 20.392 36.5673 19.882 36.8313 19.258C37.1073 18.634 37.2873 17.962 37.3713 17.242C37.4673 16.51 37.5153 15.802 37.5153 15.118C37.5153 14.422 37.4673 13.708 37.3713 12.976C37.2873 12.232 37.1073 11.548 36.8313 10.924C36.5673 10.288 36.1713 9.778 35.6433 9.394C35.1153 8.998 34.4133 8.8 33.5373 8.8C32.6613 8.8 31.9593 8.998 31.4313 9.394C30.9033 9.778 30.5013 10.288 30.2253 10.924C29.9613 11.548 29.7813 12.232 29.6853 12.976C29.6013 13.708 29.5593 14.422 29.5593 15.118ZM48.1196 5.164C48.6956 5.056 49.3256 4.984 50.0096 4.948C50.6936 4.9 51.2696 4.876 51.7376 4.876C52.1816 4.876 52.7576 4.9 53.4656 4.948C54.1736 4.984 54.7676 5.056 55.2476 5.164L57.0116 12.976C57.1196 13.444 57.2456 14.08 57.3896 14.884C57.5336 15.676 57.6776 16.528 57.8216 17.44H58.0556C58.3436 15.52 58.6136 14.032 58.8656 12.976L60.6116 5.164C61.1756 5.056 61.7936 4.984 62.4656 4.948C63.1376 4.9 63.6956 4.876 64.1396 4.876C64.6076 4.876 65.1896 4.9 65.8856 4.948C66.5816 4.984 67.2056 5.056 67.7576 5.164L69.7916 24.928C69.0116 25.12 68.0696 25.216 66.9656 25.216C66.5456 25.216 66.0956 25.198 65.6156 25.162C65.1476 25.126 64.7276 25.072 64.3556 25L63.8336 18.628C63.7736 17.812 63.7376 16.918 63.7256 15.946C63.7136 14.974 63.7136 14.026 63.7256 13.102C63.7376 12.166 63.7376 11.356 63.7256 10.672H63.5096L60.8636 21.958C60.4556 22.03 59.9576 22.084 59.3696 22.12C58.7816 22.144 58.2956 22.156 57.9116 22.156C57.5156 22.156 57.0236 22.144 56.4356 22.12C55.8596 22.084 55.3796 22.03 54.9956 21.958L52.3676 10.672H52.1156C52.1156 11.368 52.1156 12.178 52.1156 13.102C52.1276 14.026 52.1276 14.974 52.1156 15.946C52.1036 16.918 52.0616 17.824 51.9896 18.664L51.5216 25C51.1376 25.072 50.7176 25.126 50.2616 25.162C49.8176 25.198 49.3856 25.216 48.9656 25.216C47.8496 25.216 46.8896 25.12 46.0856 24.928L48.1196 5.164ZM74.4091 5.128C75.0331 5.104 75.7831 5.08 76.6591 5.056C77.5471 5.032 78.4591 5.014 79.3951 5.002C80.3311 4.99 81.1891 4.984 81.9691 4.984C83.4451 4.984 84.7651 5.152 85.9291 5.488C87.1051 5.824 88.0291 6.382 88.7011 7.162C89.3731 7.93 89.7091 8.962 89.7091 10.258C89.7091 11.098 89.4751 11.896 89.0071 12.652C88.5511 13.408 87.9211 13.942 87.1171 14.254C88.1491 14.578 89.0131 15.214 89.7091 16.162C90.4051 17.098 90.7531 18.112 90.7531 19.204C90.7531 20.74 90.3931 21.94 89.6731 22.804C88.9651 23.656 87.9811 24.262 86.7211 24.622C85.4731 24.97 84.0451 25.144 82.4371 25.144C81.2011 25.144 79.9171 25.132 78.5851 25.108C77.2531 25.096 75.8611 25.072 74.4091 25.036L74.2111 24.856V5.344L74.4091 5.128ZM81.7171 8.854C81.4891 8.854 81.1831 8.854 80.7991 8.854C80.4151 8.854 80.0491 8.842 79.7011 8.818V12.688H81.6811C82.6411 12.688 83.2951 12.49 83.6431 12.094C83.9911 11.698 84.1651 11.254 84.1651 10.762C84.1651 10.282 83.9911 9.844 83.6431 9.448C83.3071 9.052 82.6651 8.854 81.7171 8.854ZM79.7011 21.274C80.1811 21.25 80.6491 21.238 81.1051 21.238C81.5611 21.238 81.9751 21.238 82.3471 21.238C83.4391 21.238 84.1591 20.992 84.5071 20.5C84.8671 19.996 85.0471 19.48 85.0471 18.952C85.0471 18.376 84.8311 17.836 84.3991 17.332C83.9791 16.828 83.1991 16.576 82.0591 16.576H79.7011V21.274ZM110.695 11.194C110.695 12.118 110.485 12.94 110.065 13.66C109.645 14.38 109.117 14.974 108.481 15.442C107.857 15.91 107.233 16.21 106.609 16.342C107.257 16.558 107.791 16.888 108.211 17.332C108.643 17.776 109.015 18.346 109.327 19.042L110.263 21.184C110.479 21.676 110.725 22.132 111.001 22.552C111.277 22.96 111.583 23.308 111.919 23.596C111.571 24.028 111.049 24.43 110.353 24.802C109.657 25.162 108.901 25.342 108.085 25.342C107.281 25.342 106.627 25.15 106.123 24.766C105.631 24.37 105.199 23.74 104.827 22.876L103.243 19.24C102.991 18.652 102.679 18.298 102.307 18.178C101.935 18.058 101.455 17.998 100.867 17.998H100.165V25C99.6855 25.084 99.1875 25.138 98.6715 25.162C98.1675 25.198 97.7355 25.216 97.3755 25.216C97.0395 25.216 96.5955 25.198 96.0435 25.162C95.4915 25.138 94.9875 25.084 94.5315 25V5.344L94.7295 5.128C96.1815 5.092 97.5435 5.062 98.8155 5.038C100.099 5.002 101.377 4.984 102.649 4.984C104.089 4.984 105.421 5.176 106.645 5.56C107.869 5.932 108.847 6.574 109.579 7.486C110.323 8.386 110.695 9.622 110.695 11.194ZM100.165 9.052V13.714C100.585 13.702 100.969 13.696 101.317 13.696C101.677 13.684 101.941 13.678 102.109 13.678C103.189 13.678 103.921 13.444 104.305 12.976C104.689 12.508 104.881 11.962 104.881 11.338C104.881 10.726 104.689 10.198 104.305 9.754C103.921 9.31 103.279 9.088 102.379 9.088C101.947 9.088 101.575 9.082 101.263 9.07C100.951 9.058 100.585 9.052 100.165 9.052ZM130.13 20.482C130.13 22.198 129.86 23.392 129.32 24.064C128.792 24.736 127.892 25.072 126.62 25.072H118.322C117.302 25.072 116.498 24.784 115.91 24.208C115.322 23.62 115.028 22.834 115.028 21.85V5.362L115.226 5.164H129.464C129.548 5.572 129.596 5.962 129.608 6.334C129.62 6.706 129.626 7.06 129.626 7.396C129.626 7.72 129.59 8.086 129.518 8.494C129.458 8.902 129.35 9.316 129.194 9.736H122.894C122.39 9.736 121.628 9.73 120.608 9.718C120.62 10.09 120.626 10.408 120.626 10.672C120.638 10.936 120.644 11.254 120.644 11.626V12.814C121.64 12.802 122.39 12.796 122.894 12.796H127.502C127.622 13.12 127.7 13.492 127.736 13.912C127.784 14.32 127.808 14.668 127.808 14.956C127.808 15.292 127.784 15.67 127.736 16.09C127.7 16.498 127.622 16.87 127.502 17.206H122.894C122.666 17.206 122.348 17.206 121.94 17.206C121.532 17.206 121.1 17.206 120.644 17.206V18.376C120.644 18.82 120.638 19.186 120.626 19.474C120.614 19.762 120.608 20.122 120.608 20.554V20.59C121.028 20.566 121.418 20.542 121.778 20.518C122.138 20.494 122.576 20.482 123.092 20.482H130.13Z" fill="#364760"/>
</svg>
