<svg width="294" height="25" viewBox="0 0 294 25" fill="none" xmlns="http://www.w3.org/2000/svg">
<path d="M7.22689 11.8781C6.85443 11.009 6.50454 10.1568 6.17722 9.32163C5.84991 8.48641 5.56774 7.74713 5.33072 7.10379L5.19528 7.15458C5.28557 8.11395 5.35894 9.20312 5.41537 10.4221C5.48309 11.6298 5.53388 12.8374 5.56774 14.0451C5.6016 15.2528 5.61853 16.325 5.61853 17.2618V24C5.17835 24.079 4.74381 24.1298 4.31492 24.1524C3.88602 24.1862 3.50227 24.2032 3.16367 24.2032C2.83636 24.2032 2.42439 24.1862 1.92778 24.1524C1.44245 24.1298 0.990979 24.079 0.573371 24V0.975103C0.990979 0.873522 1.54403 0.800159 2.23252 0.755012C2.92101 0.698579 3.43455 0.670362 3.77315 0.670362C4.12304 0.670362 4.5858 0.687291 5.16142 0.721151C5.73704 0.743725 6.32395 0.794516 6.92215 0.873522L12.1366 12.9616C12.5655 13.9548 12.9605 14.9029 13.3217 15.8058C13.6942 16.7088 14.0046 17.4706 14.2529 18.0914L14.3883 18.0406C14.298 16.991 14.219 15.8397 14.1513 14.5869C14.0949 13.3341 14.0497 12.1264 14.0158 10.9638C13.982 9.80131 13.9651 8.83066 13.9651 8.05187V3.92093C13.9651 2.71326 14.2077 1.86675 14.6931 1.38142C15.1897 0.896095 15.9572 0.653431 16.9955 0.653431H18.7563L18.9764 0.873522V23.8984C18.5475 24 17.9831 24.0734 17.2834 24.1185C16.5949 24.1749 16.07 24.2032 15.7089 24.2032C15.359 24.2032 14.8962 24.1862 14.3206 24.1524C13.745 24.1298 13.1637 24.079 12.5768 24L7.22689 11.8781ZM22.643 14.7054C22.643 11.6806 23.4218 9.28212 24.9794 7.51011C26.5482 5.72681 28.8338 4.83516 31.8361 4.83516C34.8835 4.83516 37.1803 5.72117 38.7266 7.49318C40.2842 9.25391 41.063 11.658 41.063 14.7054C41.063 17.7528 40.2842 20.1512 38.7266 21.9007C37.169 23.6388 34.8722 24.5079 31.8361 24.5079C28.7887 24.5079 26.4918 23.6275 24.9455 21.8668C23.4105 20.1061 22.643 17.7189 22.643 14.7054ZM28.1115 14.7054C28.1115 15.3487 28.151 16.0146 28.23 16.7031C28.3203 17.3803 28.4896 18.0124 28.7379 18.5993C28.9975 19.1862 29.3756 19.6659 29.8722 20.0384C30.3688 20.3995 31.0291 20.5801 31.853 20.5801C32.6769 20.5801 33.3372 20.3995 33.8338 20.0384C34.3304 19.6659 34.7029 19.1862 34.9512 18.5993C35.2108 18.0124 35.3801 17.3803 35.4591 16.7031C35.5494 16.0146 35.5945 15.3487 35.5945 14.7054C35.5945 14.0508 35.5494 13.3792 35.4591 12.6907C35.3801 11.9909 35.2108 11.3476 34.9512 10.7607C34.7029 10.1625 34.3304 9.6828 33.8338 9.32163C33.3372 8.94917 32.6769 8.76294 31.853 8.76294C31.0291 8.76294 30.3688 8.94917 29.8722 9.32163C29.3756 9.6828 28.9975 10.1625 28.7379 10.7607C28.4896 11.3476 28.3203 11.9909 28.23 12.6907C28.151 13.3792 28.1115 14.0508 28.1115 14.7054ZM45.5685 5.34306C46.1102 5.24148 46.7028 5.17376 47.3461 5.1399C47.9895 5.09475 48.5312 5.07218 48.9714 5.07218C49.389 5.07218 49.9308 5.09475 50.5967 5.1399C51.2626 5.17376 51.8213 5.24148 52.2728 5.34306L53.9319 12.6907C54.0335 13.1309 54.152 13.7291 54.2875 14.4853C54.4229 15.2302 54.5583 16.0316 54.6938 16.8894H54.9139C55.1848 15.0835 55.4387 13.6839 55.6757 12.6907L57.3179 5.34306C57.8484 5.24148 58.4297 5.17376 59.0617 5.1399C59.6938 5.09475 60.2186 5.07218 60.6362 5.07218C61.0764 5.07218 61.6238 5.09475 62.2785 5.1399C62.9331 5.17376 63.52 5.24148 64.0392 5.34306L65.9523 23.9323C65.2186 24.1129 64.3326 24.2032 63.2943 24.2032C62.8992 24.2032 62.476 24.1862 62.0245 24.1524C61.5843 24.1185 61.1893 24.0677 60.8394 24L60.3484 18.0068C60.292 17.2393 60.2581 16.3984 60.2468 15.4842C60.2356 14.5699 60.2356 13.6783 60.2468 12.8092C60.2581 11.9289 60.2581 11.167 60.2468 10.5237H60.0437L57.555 21.1388C57.1712 21.2065 56.7028 21.2573 56.1498 21.2912C55.5967 21.3138 55.1396 21.325 54.7784 21.325C54.406 21.325 53.9432 21.3138 53.3902 21.2912C52.8484 21.2573 52.3969 21.2065 52.0358 21.1388L49.564 10.5237H49.3269C49.3269 11.1783 49.3269 11.9401 49.3269 12.8092C49.3382 13.6783 49.3382 14.5699 49.3269 15.4842C49.3157 16.3984 49.2762 17.2505 49.2084 18.0406L48.7683 24C48.4071 24.0677 48.012 24.1185 47.5832 24.1524C47.1655 24.1862 46.7592 24.2032 46.3642 24.2032C45.3145 24.2032 44.4116 24.1129 43.6554 23.9323L45.5685 5.34306ZM70.2954 5.3092C70.8823 5.28663 71.5877 5.26405 72.4116 5.24148C73.2468 5.21891 74.1046 5.20198 74.985 5.19069C75.8654 5.1794 76.6724 5.17376 77.406 5.17376C78.7943 5.17376 80.0358 5.33177 81.1306 5.6478C82.2367 5.96383 83.1058 6.48866 83.7378 7.2223C84.3699 7.94465 84.6859 8.91531 84.6859 10.1343C84.6859 10.9243 84.4658 11.6749 84.0257 12.386C83.5968 13.097 83.0042 13.5993 82.248 13.8927C83.2187 14.1975 84.0313 14.7957 84.6859 15.6873C85.3406 16.5677 85.6679 17.5214 85.6679 18.5485C85.6679 19.9932 85.3293 21.1219 84.6521 21.9345C83.9862 22.7359 83.0606 23.3059 81.8755 23.6445C80.7017 23.9718 79.3586 24.1354 77.8462 24.1354C76.6837 24.1354 75.476 24.1242 74.2231 24.1016C72.9703 24.0903 71.6611 24.0677 70.2954 24.0339L70.1091 23.8646V5.51236L70.2954 5.3092ZM77.169 8.81373C76.9545 8.81373 76.6667 8.81373 76.3055 8.81373C75.9444 8.81373 75.6001 8.80244 75.2728 8.77987V12.4198H77.1351C78.0381 12.4198 78.6532 12.2336 78.9805 11.8611C79.3078 11.4887 79.4715 11.0711 79.4715 10.6083C79.4715 10.1568 79.3078 9.74488 78.9805 9.37242C78.6645 8.99996 78.0606 8.81373 77.169 8.81373ZM75.2728 20.4955C75.7243 20.4729 76.1645 20.4616 76.5934 20.4616C77.0223 20.4616 77.4116 20.4616 77.7615 20.4616C78.7886 20.4616 79.4658 20.2302 79.7931 19.7675C80.1317 19.2934 80.301 18.8081 80.301 18.3115C80.301 17.7697 80.0979 17.2618 79.6916 16.7878C79.2965 16.3137 78.5629 16.0767 77.4907 16.0767H75.2728V20.4955ZM104.425 11.0146C104.425 11.8837 104.227 12.6569 103.832 13.3341C103.437 14.0113 102.941 14.5699 102.342 15.0101C101.756 15.4503 101.169 15.7325 100.582 15.8566C101.191 16.0598 101.693 16.3702 102.088 16.7878C102.495 17.2054 102.845 17.7415 103.138 18.3961L104.018 20.4108C104.222 20.8736 104.453 21.3025 104.713 21.6975C104.972 22.0813 105.26 22.4086 105.576 22.6795C105.249 23.0858 104.758 23.4639 104.103 23.8138C103.449 24.1524 102.737 24.3217 101.97 24.3217C101.214 24.3217 100.599 24.1411 100.125 23.7799C99.6618 23.4074 99.2555 22.8149 98.9056 22.0023L97.4158 18.5824C97.1787 18.0293 96.8853 17.6964 96.5354 17.5835C96.1855 17.4706 95.734 17.4142 95.181 17.4142H94.5207V24C94.0693 24.079 93.6009 24.1298 93.1155 24.1524C92.6415 24.1862 92.2352 24.2032 91.8966 24.2032C91.5805 24.2032 91.1629 24.1862 90.6437 24.1524C90.1245 24.1298 89.6505 24.079 89.2216 24V5.51236L89.4078 5.3092C90.7735 5.27534 92.0546 5.24712 93.251 5.22455C94.4586 5.19069 95.6607 5.17376 96.8571 5.17376C98.2115 5.17376 99.4643 5.35435 100.616 5.71552C101.767 6.06541 102.687 6.66925 103.375 7.52704C104.075 8.37354 104.425 9.53608 104.425 11.0146ZM94.5207 8.99996V13.3848C94.9158 13.3736 95.2769 13.3679 95.6042 13.3679C95.9428 13.3566 96.1912 13.351 96.3492 13.351C97.365 13.351 98.0535 13.1309 98.4146 12.6907C98.7758 12.2505 98.9564 11.737 98.9564 11.1501C98.9564 10.5745 98.7758 10.0778 98.4146 9.66023C98.0535 9.24262 97.4496 9.03382 96.6031 9.03382C96.1968 9.03382 95.8469 9.02817 95.5535 9.01689C95.26 9.0056 94.9158 8.99996 94.5207 8.99996ZM122.704 19.7506C122.704 21.3646 122.45 22.4876 121.942 23.1196C121.445 23.7517 120.599 24.0677 119.402 24.0677H111.598C110.638 24.0677 109.882 23.7968 109.329 23.2551C108.776 22.702 108.499 21.9627 108.499 21.0372V5.52929L108.686 5.34306H122.077C122.156 5.72681 122.201 6.09363 122.213 6.44352C122.224 6.7934 122.23 7.12636 122.23 7.44239C122.23 7.74713 122.196 8.09138 122.128 8.47512C122.072 8.85887 121.97 9.24826 121.823 9.6433H115.898C115.424 9.6433 114.707 9.63766 113.748 9.62637C113.759 9.97626 113.765 10.2754 113.765 10.5237C113.776 10.772 113.782 11.0711 113.782 11.421V12.5383C114.718 12.5271 115.424 12.5214 115.898 12.5214H120.232C120.345 12.8262 120.418 13.176 120.452 13.5711C120.497 13.9548 120.52 14.2821 120.52 14.553C120.52 14.869 120.497 15.2246 120.452 15.6196C120.418 16.0034 120.345 16.3533 120.232 16.6693H115.898C115.683 16.6693 115.384 16.6693 115.001 16.6693C114.617 16.6693 114.21 16.6693 113.782 16.6693V17.7697C113.782 18.1873 113.776 18.5316 113.765 18.8025C113.753 19.0733 113.748 19.412 113.748 19.8183V19.8521C114.143 19.8296 114.51 19.807 114.848 19.7844C115.187 19.7618 115.599 19.7506 116.084 19.7506H122.704ZM150.843 14.7054C150.843 17.8657 150.104 20.2302 148.625 21.7991C147.147 23.3567 144.816 24.1354 141.633 24.1354C140.29 24.1354 139.015 24.1242 137.807 24.1016C136.611 24.0903 135.346 24.0677 134.015 24.0339L133.828 23.8307V5.51236L134.015 5.3092C135.358 5.27534 136.627 5.24712 137.824 5.22455C139.02 5.19069 140.29 5.17376 141.633 5.17376C144.782 5.17376 147.102 5.99205 148.591 7.62862C150.093 9.25391 150.843 11.6128 150.843 14.7054ZM145.392 14.7054C145.392 13.8815 145.307 13.0575 145.138 12.2336C144.968 11.3984 144.613 10.6986 144.071 10.1343C143.529 9.56994 142.717 9.28777 141.633 9.28777C141.137 9.28777 140.708 9.28777 140.346 9.28777C139.997 9.27648 139.59 9.26519 139.127 9.25391V20.0892C139.613 20.0892 140.025 20.0835 140.363 20.0722C140.713 20.0609 141.137 20.0553 141.633 20.0553C142.717 20.0553 143.529 19.7788 144.071 19.2257C144.613 18.6614 144.968 17.9673 145.138 17.1433C145.307 16.3194 145.392 15.5067 145.392 14.7054ZM168.567 19.7506C168.567 21.3646 168.313 22.4876 167.805 23.1196C167.309 23.7517 166.462 24.0677 165.266 24.0677H157.461C156.502 24.0677 155.745 23.7968 155.192 23.2551C154.639 22.702 154.363 21.9627 154.363 21.0372V5.52929L154.549 5.34306H167.941C168.02 5.72681 168.065 6.09363 168.076 6.44352C168.087 6.7934 168.093 7.12636 168.093 7.44239C168.093 7.74713 168.059 8.09138 167.991 8.47512C167.935 8.85887 167.833 9.24826 167.687 9.6433H161.761C161.287 9.6433 160.57 9.63766 159.611 9.62637C159.622 9.97626 159.628 10.2754 159.628 10.5237C159.639 10.772 159.645 11.0711 159.645 11.421V12.5383C160.582 12.5271 161.287 12.5214 161.761 12.5214H166.095C166.208 12.8262 166.281 13.176 166.315 13.5711C166.36 13.9548 166.383 14.2821 166.383 14.553C166.383 14.869 166.36 15.2246 166.315 15.6196C166.281 16.0034 166.208 16.3533 166.095 16.6693H161.761C161.547 16.6693 161.248 16.6693 160.864 16.6693C160.48 16.6693 160.074 16.6693 159.645 16.6693V17.7697C159.645 18.1873 159.639 18.5316 159.628 18.8025C159.617 19.0733 159.611 19.412 159.611 19.8183V19.8521C160.006 19.8296 160.373 19.807 160.711 19.7844C161.05 19.7618 161.462 19.7506 161.947 19.7506H168.567ZM185.423 19.6659C185.356 21.3138 185.068 22.465 184.56 23.1196C184.052 23.7743 183.149 24.1016 181.851 24.1016H175.282C174.312 24.1016 173.55 23.8307 172.997 23.2889C172.455 22.7359 172.184 21.9966 172.184 21.0711V5.37692L172.387 5.17376H174.419C175.446 5.17376 176.225 5.43335 176.755 5.95254C177.286 6.46045 177.551 7.31259 177.551 8.50898V19.8352C178.713 19.7223 179.757 19.6659 180.683 19.6659H185.423ZM208.91 17.7189C208.91 17.3465 208.916 16.9627 208.927 16.5677C208.939 16.1727 208.955 15.772 208.978 15.3657H207.319C206.45 15.3657 205.801 15.202 205.372 14.8747C204.943 14.5474 204.729 13.9548 204.729 13.097C204.729 12.7471 204.762 12.369 204.83 11.9627C204.909 11.5564 205.005 11.1896 205.118 10.8623H210.417C211.76 10.8623 212.691 11.1783 213.211 11.8103C213.73 12.4311 213.989 13.2325 213.989 14.2144V23.1027C213.007 23.43 211.738 23.746 210.18 24.0508C208.623 24.3555 206.918 24.5079 205.067 24.5079C202.753 24.5079 200.835 24.0226 199.311 23.0519C197.799 22.0813 196.67 20.7043 195.925 18.921C195.18 17.1377 194.808 15.0271 194.808 12.5891C194.808 10.5349 195.107 8.74601 195.705 7.2223C196.303 5.68731 197.116 4.41755 198.143 3.41303C199.17 2.39723 200.327 1.63537 201.613 1.12747C202.9 0.619571 204.232 0.365621 205.609 0.365621C207.167 0.365621 208.656 0.591355 210.078 1.04282C211.501 1.49429 212.787 2.07556 213.939 2.78662C213.882 3.55412 213.6 4.30468 213.092 5.03832C212.595 5.77196 212.071 6.31936 211.518 6.68054C210.694 6.12749 209.791 5.68731 208.809 5.35999C207.838 5.02139 206.879 4.85209 205.931 4.85209C204.215 4.85209 202.855 5.47286 201.85 6.7144C200.846 7.94465 200.344 9.91418 200.344 12.623C200.344 15.2641 200.829 17.1941 201.8 18.4131C202.782 19.632 204.181 20.2415 205.998 20.2415C206.54 20.2415 207.054 20.2133 207.539 20.1569C208.024 20.1004 208.481 20.0327 208.91 19.9537V17.7189ZM233.384 11.0146C233.384 11.8837 233.187 12.6569 232.792 13.3341C232.397 14.0113 231.9 14.5699 231.302 15.0101C230.715 15.4503 230.128 15.7325 229.541 15.8566C230.151 16.0598 230.653 16.3702 231.048 16.7878C231.454 17.2054 231.804 17.7415 232.098 18.3961L232.978 20.4108C233.181 20.8736 233.413 21.3025 233.672 21.6975C233.932 22.0813 234.22 22.4086 234.536 22.6795C234.208 23.0858 233.717 23.4639 233.063 23.8138C232.408 24.1524 231.697 24.3217 230.929 24.3217C230.173 24.3217 229.558 24.1411 229.084 23.7799C228.621 23.4074 228.215 22.8149 227.865 22.0023L226.375 18.5824C226.138 18.0293 225.845 17.6964 225.495 17.5835C225.145 17.4706 224.694 17.4142 224.141 17.4142H223.48V24C223.029 24.079 222.56 24.1298 222.075 24.1524C221.601 24.1862 221.195 24.2032 220.856 24.2032C220.54 24.2032 220.122 24.1862 219.603 24.1524C219.084 24.1298 218.61 24.079 218.181 24V5.51236L218.367 5.3092C219.733 5.27534 221.014 5.24712 222.21 5.22455C223.418 5.19069 224.62 5.17376 225.817 5.17376C227.171 5.17376 228.424 5.35435 229.575 5.71552C230.726 6.06541 231.646 6.66925 232.335 7.52704C233.034 8.37354 233.384 9.53608 233.384 11.0146ZM223.48 8.99996V13.3848C223.875 13.3736 224.236 13.3679 224.564 13.3679C224.902 13.3566 225.151 13.351 225.309 13.351C226.324 13.351 227.013 13.1309 227.374 12.6907C227.735 12.2505 227.916 11.737 227.916 11.1501C227.916 10.5745 227.735 10.0778 227.374 9.66023C227.013 9.24262 226.409 9.03382 225.563 9.03382C225.156 9.03382 224.806 9.02817 224.513 9.01689C224.22 9.0056 223.875 8.99996 223.48 8.99996ZM253.678 17.0079C253.678 19.3442 252.978 21.1783 251.579 22.5102C250.19 23.842 248.131 24.5079 245.399 24.5079C242.668 24.5079 240.602 23.842 239.203 22.5102C237.814 21.1783 237.12 19.3442 237.12 17.0079V5.34306L237.323 5.1399H239.254C240.281 5.1399 241.071 5.39949 241.624 5.91868C242.188 6.43787 242.47 7.31259 242.47 8.54284V16.991C242.47 18.018 242.685 18.825 243.114 19.412C243.542 19.9989 244.304 20.2923 245.399 20.2923C246.505 20.2923 247.267 19.9989 247.685 19.412C248.102 18.825 248.311 18.018 248.311 16.991V5.34306C248.763 5.25277 249.225 5.19633 249.699 5.17376C250.173 5.15119 250.585 5.1399 250.935 5.1399C251.251 5.1399 251.68 5.15683 252.222 5.19069C252.764 5.21326 253.249 5.2697 253.678 5.35999V17.0079ZM273.055 11.7426C273.055 13.2099 272.722 14.4289 272.057 15.3995C271.402 16.3589 270.499 17.0756 269.348 17.5496C268.197 18.0124 266.887 18.2438 265.42 18.2438H263.575V24C263.123 24.079 262.66 24.1298 262.186 24.1524C261.712 24.1862 261.306 24.2032 260.967 24.2032C260.651 24.2032 260.222 24.1862 259.681 24.1524C259.139 24.1298 258.654 24.079 258.225 24V5.51236L258.411 5.3092C259.325 5.28663 260.426 5.25841 261.712 5.22455C262.999 5.19069 264.235 5.17376 265.42 5.17376C266.899 5.17376 268.213 5.39949 269.365 5.85096C270.516 6.30243 271.419 7.01349 272.074 7.98415C272.728 8.95481 273.055 10.2076 273.055 11.7426ZM263.575 9.1354V14.316C263.879 14.3047 264.156 14.2991 264.404 14.2991C264.652 14.2878 264.839 14.2821 264.963 14.2821C265.708 14.2821 266.266 14.1467 266.639 13.8758C267.023 13.5936 267.277 13.255 267.401 12.86C267.525 12.4537 267.587 12.0699 267.587 11.7088C267.587 11.3702 267.525 11.0033 267.401 10.6083C267.277 10.2133 267.023 9.87468 266.639 9.59251C266.266 9.31034 265.708 9.16926 264.963 9.16926C264.681 9.16926 264.478 9.16926 264.353 9.16926C264.229 9.15797 263.97 9.14668 263.575 9.1354ZM274.941 14.7054C274.941 11.6806 275.72 9.28212 277.277 7.51011C278.846 5.72681 281.132 4.83516 284.134 4.83516C287.181 4.83516 289.478 5.72117 291.024 7.49318C292.582 9.25391 293.361 11.658 293.361 14.7054C293.361 17.7528 292.582 20.1512 291.024 21.9007C289.467 23.6388 287.17 24.5079 284.134 24.5079C281.086 24.5079 278.79 23.6275 277.243 21.8668C275.708 20.1061 274.941 17.7189 274.941 14.7054ZM280.409 14.7054C280.409 15.3487 280.449 16.0146 280.528 16.7031C280.618 17.3803 280.787 18.0124 281.036 18.5993C281.295 19.1862 281.673 19.6659 282.17 20.0384C282.667 20.3995 283.327 20.5801 284.151 20.5801C284.975 20.5801 285.635 20.3995 286.132 20.0384C286.628 19.6659 287.001 19.1862 287.249 18.5993C287.509 18.0124 287.678 17.3803 287.757 16.7031C287.847 16.0146 287.892 15.3487 287.892 14.7054C287.892 14.0508 287.847 13.3792 287.757 12.6907C287.678 11.9909 287.509 11.3476 287.249 10.7607C287.001 10.1625 286.628 9.6828 286.132 9.32163C285.635 8.94917 284.975 8.76294 284.151 8.76294C283.327 8.76294 282.667 8.94917 282.17 9.32163C281.673 9.6828 281.295 10.1625 281.036 10.7607C280.787 11.3476 280.618 11.9909 280.528 12.6907C280.449 13.3792 280.409 14.0508 280.409 14.7054Z" fill="white" fill-opacity="0.87"/>
</svg>
