<svg width="202" height="18" viewBox="0 0 202 18" fill="none" xmlns="http://www.w3.org/2000/svg">
<path d="M5.52828 8.408C5.26428 7.792 5.01628 7.188 4.78428 6.596C4.55228 6.004 4.35228 5.48 4.18428 5.024L4.08828 5.06C4.15228 5.74 4.20428 6.512 4.24428 7.376C4.29228 8.232 4.32828 9.088 4.35228 9.944C4.37628 10.8 4.38828 11.56 4.38828 12.224V17C4.07628 17.056 3.76828 17.092 3.46428 17.108C3.16028 17.132 2.88828 17.144 2.64828 17.144C2.41628 17.144 2.12428 17.132 1.77228 17.108C1.42828 17.092 1.10828 17.056 0.812281 17V0.68C1.10828 0.607999 1.50028 0.555999 1.98828 0.524C2.47628 0.484 2.84028 0.464 3.08028 0.464C3.32828 0.464 3.65628 0.475999 4.06428 0.499999C4.47228 0.515999 4.88828 0.552 5.31228 0.607999L9.00828 9.176C9.31228 9.88 9.59228 10.552 9.84828 11.192C10.1123 11.832 10.3323 12.372 10.5083 12.812L10.6043 12.776C10.5403 12.032 10.4843 11.216 10.4363 10.328C10.3963 9.44 10.3643 8.584 10.3403 7.76C10.3163 6.936 10.3043 6.248 10.3043 5.696V2.768C10.3043 1.912 10.4763 1.312 10.8203 0.967999C11.1723 0.623999 11.7163 0.451999 12.4523 0.451999H13.7003L13.8563 0.607999V16.928C13.5523 17 13.1523 17.052 12.6563 17.084C12.1683 17.124 11.7963 17.144 11.5403 17.144C11.2923 17.144 10.9643 17.132 10.5563 17.108C10.1483 17.092 9.73628 17.056 9.32028 17L5.52828 8.408ZM16.4552 10.412C16.4552 8.268 17.0072 6.568 18.1112 5.312C19.2232 4.048 20.8432 3.416 22.9712 3.416C25.1312 3.416 26.7592 4.044 27.8552 5.3C28.9592 6.548 29.5112 8.252 29.5112 10.412C29.5112 12.572 28.9592 14.272 27.8552 15.512C26.7512 16.744 25.1232 17.36 22.9712 17.36C20.8112 17.36 19.1832 16.736 18.0872 15.488C16.9992 14.24 16.4552 12.548 16.4552 10.412ZM20.3312 10.412C20.3312 10.868 20.3592 11.34 20.4152 11.828C20.4792 12.308 20.5992 12.756 20.7752 13.172C20.9592 13.588 21.2272 13.928 21.5792 14.192C21.9312 14.448 22.3992 14.576 22.9832 14.576C23.5672 14.576 24.0352 14.448 24.3872 14.192C24.7392 13.928 25.0032 13.588 25.1792 13.172C25.3632 12.756 25.4832 12.308 25.5392 11.828C25.6032 11.34 25.6352 10.868 25.6352 10.412C25.6352 9.948 25.6032 9.472 25.5392 8.984C25.4832 8.488 25.3632 8.032 25.1792 7.616C25.0032 7.192 24.7392 6.852 24.3872 6.596C24.0352 6.332 23.5672 6.2 22.9832 6.2C22.3992 6.2 21.9312 6.332 21.5792 6.596C21.2272 6.852 20.9592 7.192 20.7752 7.616C20.5992 8.032 20.4792 8.488 20.4152 8.984C20.3592 9.472 20.3312 9.948 20.3312 10.412ZM32.7047 3.776C33.0887 3.704 33.5087 3.656 33.9647 3.632C34.4207 3.6 34.8047 3.584 35.1167 3.584C35.4127 3.584 35.7967 3.6 36.2687 3.632C36.7407 3.656 37.1367 3.704 37.4567 3.776L38.6327 8.984C38.7047 9.296 38.7887 9.72 38.8847 10.256C38.9807 10.784 39.0767 11.352 39.1727 11.96H39.3287C39.5207 10.68 39.7007 9.688 39.8687 8.984L41.0327 3.776C41.4087 3.704 41.8207 3.656 42.2687 3.632C42.7167 3.6 43.0887 3.584 43.3847 3.584C43.6967 3.584 44.0847 3.6 44.5487 3.632C45.0127 3.656 45.4287 3.704 45.7967 3.776L47.1527 16.952C46.6327 17.08 46.0047 17.144 45.2687 17.144C44.9887 17.144 44.6887 17.132 44.3687 17.108C44.0567 17.084 43.7767 17.048 43.5287 17L43.1807 12.752C43.1407 12.208 43.1167 11.612 43.1087 10.964C43.1007 10.316 43.1007 9.684 43.1087 9.068C43.1167 8.444 43.1167 7.904 43.1087 7.448H42.9647L41.2007 14.972C40.9287 15.02 40.5967 15.056 40.2047 15.08C39.8127 15.096 39.4887 15.104 39.2327 15.104C38.9687 15.104 38.6407 15.096 38.2487 15.08C37.8647 15.056 37.5447 15.02 37.2887 14.972L35.5367 7.448H35.3687C35.3687 7.912 35.3687 8.452 35.3687 9.068C35.3767 9.684 35.3767 10.316 35.3687 10.964C35.3607 11.612 35.3327 12.216 35.2847 12.776L34.9727 17C34.7167 17.048 34.4367 17.084 34.1327 17.108C33.8367 17.132 33.5487 17.144 33.2687 17.144C32.5247 17.144 31.8847 17.08 31.3487 16.952L32.7047 3.776ZM50.2311 3.752C50.6471 3.736 51.1471 3.72 51.7311 3.704C52.3231 3.688 52.9311 3.676 53.5551 3.668C54.1791 3.66 54.7511 3.656 55.2711 3.656C56.2551 3.656 57.1351 3.768 57.9111 3.992C58.6951 4.216 59.3111 4.588 59.7591 5.108C60.2071 5.62 60.4311 6.308 60.4311 7.172C60.4311 7.732 60.2751 8.264 59.9631 8.768C59.6591 9.272 59.2391 9.628 58.7031 9.836C59.3911 10.052 59.9671 10.476 60.4311 11.108C60.8951 11.732 61.1271 12.408 61.1271 13.136C61.1271 14.16 60.8871 14.96 60.4071 15.536C59.9351 16.104 59.2791 16.508 58.4391 16.748C57.6071 16.98 56.6551 17.096 55.5831 17.096C54.7591 17.096 53.9031 17.088 53.0151 17.072C52.1271 17.064 51.1991 17.048 50.2311 17.024L50.0991 16.904V3.896L50.2311 3.752ZM55.1031 6.236C54.9511 6.236 54.7471 6.236 54.4911 6.236C54.2351 6.236 53.9911 6.228 53.7591 6.212V8.792H55.0791C55.7191 8.792 56.1551 8.66 56.3871 8.396C56.6191 8.132 56.7351 7.836 56.7351 7.508C56.7351 7.188 56.6191 6.896 56.3871 6.632C56.1631 6.368 55.7351 6.236 55.1031 6.236ZM53.7591 14.516C54.0791 14.5 54.3911 14.492 54.6951 14.492C54.9991 14.492 55.2751 14.492 55.5231 14.492C56.2511 14.492 56.7311 14.328 56.9631 14C57.2031 13.664 57.3231 13.32 57.3231 12.968C57.3231 12.584 57.1791 12.224 56.8911 11.888C56.6111 11.552 56.0911 11.384 55.3311 11.384H53.7591V14.516ZM74.422 7.796C74.422 8.412 74.282 8.96 74.002 9.44C73.722 9.92 73.37 10.316 72.946 10.628C72.53 10.94 72.114 11.14 71.698 11.228C72.13 11.372 72.486 11.592 72.766 11.888C73.054 12.184 73.302 12.564 73.51 13.028L74.134 14.456C74.278 14.784 74.442 15.088 74.626 15.368C74.81 15.64 75.014 15.872 75.238 16.064C75.006 16.352 74.658 16.62 74.194 16.868C73.73 17.108 73.226 17.228 72.682 17.228C72.146 17.228 71.71 17.1 71.374 16.844C71.046 16.58 70.758 16.16 70.51 15.584L69.454 13.16C69.286 12.768 69.078 12.532 68.83 12.452C68.582 12.372 68.262 12.332 67.87 12.332H67.402V17C67.082 17.056 66.75 17.092 66.406 17.108C66.07 17.132 65.782 17.144 65.542 17.144C65.318 17.144 65.022 17.132 64.654 17.108C64.286 17.092 63.95 17.056 63.646 17V3.896L63.778 3.752C64.746 3.728 65.654 3.708 66.502 3.692C67.358 3.668 68.21 3.656 69.058 3.656C70.018 3.656 70.906 3.784 71.722 4.04C72.538 4.288 73.19 4.716 73.678 5.324C74.174 5.924 74.422 6.748 74.422 7.796ZM67.402 6.368V9.476C67.682 9.468 67.938 9.464 68.17 9.464C68.41 9.456 68.586 9.452 68.698 9.452C69.418 9.452 69.906 9.296 70.162 8.984C70.418 8.672 70.546 8.308 70.546 7.892C70.546 7.484 70.418 7.132 70.162 6.836C69.906 6.54 69.478 6.392 68.878 6.392C68.59 6.392 68.342 6.388 68.134 6.38C67.926 6.372 67.682 6.368 67.402 6.368ZM87.378 13.988C87.378 15.132 87.198 15.928 86.838 16.376C86.486 16.824 85.886 17.048 85.038 17.048H79.506C78.826 17.048 78.29 16.856 77.898 16.472C77.506 16.08 77.31 15.556 77.31 14.9V3.908L77.442 3.776H86.934C86.99 4.048 87.022 4.308 87.03 4.556C87.038 4.804 87.042 5.04 87.042 5.264C87.042 5.48 87.018 5.724 86.97 5.996C86.93 6.268 86.858 6.544 86.754 6.824H82.554C82.218 6.824 81.71 6.82 81.03 6.812C81.038 7.06 81.042 7.272 81.042 7.448C81.05 7.624 81.054 7.836 81.054 8.084V8.876C81.718 8.868 82.218 8.864 82.554 8.864H85.626C85.706 9.08 85.758 9.328 85.782 9.608C85.814 9.88 85.83 10.112 85.83 10.304C85.83 10.528 85.814 10.78 85.782 11.06C85.758 11.332 85.706 11.58 85.626 11.804H82.554C82.402 11.804 82.19 11.804 81.918 11.804C81.646 11.804 81.358 11.804 81.054 11.804V12.584C81.054 12.88 81.05 13.124 81.042 13.316C81.034 13.508 81.03 13.748 81.03 14.036V14.06C81.31 14.044 81.57 14.028 81.81 14.012C82.05 13.996 82.342 13.988 82.686 13.988H87.378ZM107.323 10.412C107.323 12.652 106.799 14.328 105.751 15.44C104.703 16.544 103.051 17.096 100.795 17.096C99.8432 17.096 98.9392 17.088 98.0832 17.072C97.2352 17.064 96.3392 17.048 95.3952 17.024L95.2632 16.88V3.896L95.3952 3.752C96.3472 3.728 97.2472 3.708 98.0952 3.692C98.9432 3.668 99.8432 3.656 100.795 3.656C103.027 3.656 104.671 4.236 105.727 5.396C106.791 6.548 107.323 8.22 107.323 10.412ZM103.459 10.412C103.459 9.828 103.399 9.244 103.279 8.66C103.159 8.068 102.907 7.572 102.523 7.172C102.139 6.772 101.563 6.572 100.795 6.572C100.443 6.572 100.139 6.572 99.8832 6.572C99.6352 6.564 99.3472 6.556 99.0192 6.548V14.228C99.3632 14.228 99.6552 14.224 99.8952 14.216C100.143 14.208 100.443 14.204 100.795 14.204C101.563 14.204 102.139 14.008 102.523 13.616C102.907 13.216 103.159 12.724 103.279 12.14C103.399 11.556 103.459 10.98 103.459 10.412ZM119.886 13.988C119.886 15.132 119.706 15.928 119.346 16.376C118.994 16.824 118.394 17.048 117.546 17.048H112.014C111.334 17.048 110.798 16.856 110.406 16.472C110.014 16.08 109.818 15.556 109.818 14.9V3.908L109.95 3.776H119.442C119.498 4.048 119.53 4.308 119.538 4.556C119.546 4.804 119.55 5.04 119.55 5.264C119.55 5.48 119.526 5.724 119.478 5.996C119.438 6.268 119.366 6.544 119.262 6.824H115.062C114.726 6.824 114.218 6.82 113.538 6.812C113.546 7.06 113.55 7.272 113.55 7.448C113.558 7.624 113.562 7.836 113.562 8.084V8.876C114.226 8.868 114.726 8.864 115.062 8.864H118.134C118.214 9.08 118.266 9.328 118.29 9.608C118.322 9.88 118.338 10.112 118.338 10.304C118.338 10.528 118.322 10.78 118.29 11.06C118.266 11.332 118.214 11.58 118.134 11.804H115.062C114.91 11.804 114.698 11.804 114.426 11.804C114.154 11.804 113.866 11.804 113.562 11.804V12.584C113.562 12.88 113.558 13.124 113.55 13.316C113.542 13.508 113.538 13.748 113.538 14.036V14.06C113.818 14.044 114.078 14.028 114.318 14.012C114.558 13.996 114.85 13.988 115.194 13.988H119.886ZM135.547 13.496C135.547 13.096 135.555 12.696 135.571 12.296C135.427 12.296 135.279 12.296 135.127 12.296C134.983 12.296 134.843 12.296 134.707 12.296C134.115 12.296 133.683 12.172 133.411 11.924C133.139 11.668 133.003 11.264 133.003 10.712C133.003 10.496 133.019 10.244 133.051 9.956C133.091 9.668 133.139 9.448 133.195 9.296C133.771 9.272 134.343 9.26 134.911 9.26C135.479 9.252 136.055 9.248 136.639 9.248C137.559 9.248 138.187 9.424 138.523 9.776C138.867 10.128 139.039 10.628 139.039 11.276V16.58C138.615 16.716 138.075 16.844 137.419 16.964C136.763 17.084 136.083 17.18 135.379 17.252C134.675 17.324 134.035 17.36 133.459 17.36C131.867 17.36 130.579 17.068 129.595 16.484C128.619 15.9 127.907 15.1 127.459 14.084C127.019 13.06 126.799 11.9 126.799 10.604C126.799 8.892 127.115 7.512 127.747 6.464C128.387 5.408 129.235 4.636 130.291 4.148C131.347 3.66 132.503 3.416 133.759 3.416C134.703 3.416 135.611 3.512 136.483 3.704C137.363 3.888 138.139 4.136 138.811 4.448C138.771 4.968 138.615 5.512 138.343 6.08C138.079 6.64 137.779 7.068 137.443 7.364C136.219 6.756 135.055 6.452 133.951 6.452C131.767 6.452 130.675 7.82 130.675 10.556C130.675 11.916 130.955 12.92 131.515 13.568C132.075 14.216 132.935 14.54 134.095 14.54C134.335 14.54 134.579 14.532 134.827 14.516C135.075 14.492 135.315 14.46 135.547 14.42V13.496ZM152.68 7.796C152.68 8.412 152.54 8.96 152.26 9.44C151.98 9.92 151.628 10.316 151.204 10.628C150.788 10.94 150.372 11.14 149.956 11.228C150.388 11.372 150.744 11.592 151.024 11.888C151.312 12.184 151.56 12.564 151.768 13.028L152.392 14.456C152.536 14.784 152.7 15.088 152.884 15.368C153.068 15.64 153.272 15.872 153.496 16.064C153.264 16.352 152.916 16.62 152.452 16.868C151.988 17.108 151.484 17.228 150.94 17.228C150.404 17.228 149.968 17.1 149.632 16.844C149.304 16.58 149.016 16.16 148.768 15.584L147.712 13.16C147.544 12.768 147.336 12.532 147.088 12.452C146.84 12.372 146.52 12.332 146.128 12.332H145.66V17C145.34 17.056 145.008 17.092 144.664 17.108C144.328 17.132 144.04 17.144 143.8 17.144C143.576 17.144 143.28 17.132 142.912 17.108C142.544 17.092 142.208 17.056 141.904 17V3.896L142.036 3.752C143.004 3.728 143.912 3.708 144.76 3.692C145.616 3.668 146.468 3.656 147.316 3.656C148.276 3.656 149.164 3.784 149.98 4.04C150.796 4.288 151.448 4.716 151.936 5.324C152.432 5.924 152.68 6.748 152.68 7.796ZM145.66 6.368V9.476C145.94 9.468 146.196 9.464 146.428 9.464C146.668 9.456 146.844 9.452 146.956 9.452C147.676 9.452 148.164 9.296 148.42 8.984C148.676 8.672 148.804 8.308 148.804 7.892C148.804 7.484 148.676 7.132 148.42 6.836C148.164 6.54 147.736 6.392 147.136 6.392C146.848 6.392 146.6 6.388 146.392 6.38C146.184 6.372 145.94 6.368 145.66 6.368ZM167.064 12.044C167.064 13.7 166.568 15 165.576 15.944C164.592 16.888 163.132 17.36 161.196 17.36C159.26 17.36 157.796 16.888 156.804 15.944C155.82 15 155.328 13.7 155.328 12.044V3.776L155.472 3.632H156.84C157.568 3.632 158.128 3.816 158.52 4.184C158.92 4.552 159.12 5.172 159.12 6.044V12.032C159.12 12.76 159.272 13.332 159.576 13.748C159.88 14.164 160.42 14.372 161.196 14.372C161.98 14.372 162.52 14.164 162.816 13.748C163.112 13.332 163.26 12.76 163.26 12.032V3.776C163.58 3.712 163.908 3.672 164.244 3.656C164.58 3.64 164.872 3.632 165.12 3.632C165.344 3.632 165.648 3.644 166.032 3.668C166.416 3.684 166.76 3.724 167.064 3.788V12.044ZM180.799 8.312C180.799 9.352 180.563 10.216 180.091 10.904C179.627 11.584 178.987 12.092 178.171 12.428C177.355 12.756 176.427 12.92 175.387 12.92H174.079V17C173.759 17.056 173.431 17.092 173.095 17.108C172.759 17.132 172.471 17.144 172.231 17.144C172.007 17.144 171.703 17.132 171.319 17.108C170.935 17.092 170.591 17.056 170.287 17V3.896L170.419 3.752C171.067 3.736 171.847 3.716 172.759 3.692C173.671 3.668 174.547 3.656 175.387 3.656C176.435 3.656 177.367 3.816 178.183 4.136C178.999 4.456 179.639 4.96 180.103 5.648C180.567 6.336 180.799 7.224 180.799 8.312ZM174.079 6.464V10.136C174.295 10.128 174.491 10.124 174.667 10.124C174.843 10.116 174.975 10.112 175.063 10.112C175.591 10.112 175.987 10.016 176.251 9.824C176.523 9.624 176.703 9.384 176.791 9.104C176.879 8.816 176.923 8.544 176.923 8.288C176.923 8.048 176.879 7.788 176.791 7.508C176.703 7.228 176.523 6.988 176.251 6.788C175.987 6.588 175.591 6.488 175.063 6.488C174.863 6.488 174.719 6.488 174.631 6.488C174.543 6.48 174.359 6.472 174.079 6.464ZM182.135 10.412C182.135 8.268 182.687 6.568 183.791 5.312C184.903 4.048 186.523 3.416 188.651 3.416C190.811 3.416 192.439 4.044 193.535 5.3C194.639 6.548 195.191 8.252 195.191 10.412C195.191 12.572 194.639 14.272 193.535 15.512C192.431 16.744 190.803 17.36 188.651 17.36C186.491 17.36 184.863 16.736 183.767 15.488C182.679 14.24 182.135 12.548 182.135 10.412ZM186.011 10.412C186.011 10.868 186.039 11.34 186.095 11.828C186.159 12.308 186.279 12.756 186.455 13.172C186.639 13.588 186.907 13.928 187.259 14.192C187.611 14.448 188.079 14.576 188.663 14.576C189.247 14.576 189.715 14.448 190.067 14.192C190.419 13.928 190.683 13.588 190.859 13.172C191.043 12.756 191.163 12.308 191.219 11.828C191.283 11.34 191.315 10.868 191.315 10.412C191.315 9.948 191.283 9.472 191.219 8.984C191.163 8.488 191.043 8.032 190.859 7.616C190.683 7.192 190.419 6.852 190.067 6.596C189.715 6.332 189.247 6.2 188.663 6.2C188.079 6.2 187.611 6.332 187.259 6.596C186.907 6.852 186.639 7.192 186.455 7.616C186.279 8.032 186.159 8.488 186.095 8.984C186.039 9.472 186.011 9.948 186.011 10.412ZM197.302 15.368C197.302 15.224 197.322 15 197.362 14.696C197.41 14.392 197.486 14.132 197.59 13.916C197.83 13.78 198.122 13.672 198.466 13.592C198.818 13.512 199.154 13.472 199.474 13.472C199.786 13.472 200.118 13.512 200.47 13.592C200.822 13.672 201.118 13.78 201.358 13.916C201.462 14.132 201.534 14.392 201.574 14.696C201.614 15 201.634 15.224 201.634 15.368C201.634 15.512 201.614 15.736 201.574 16.04C201.534 16.344 201.462 16.604 201.358 16.82C201.118 16.964 200.822 17.072 200.47 17.144C200.118 17.216 199.786 17.252 199.474 17.252C199.154 17.252 198.818 17.216 198.466 17.144C198.122 17.072 197.83 16.964 197.59 16.82C197.486 16.604 197.41 16.344 197.362 16.04C197.322 15.736 197.302 15.512 197.302 15.368ZM197.302 7.952C197.302 7.808 197.322 7.584 197.362 7.28C197.41 6.976 197.486 6.716 197.59 6.5C197.83 6.364 198.122 6.256 198.466 6.176C198.818 6.096 199.154 6.056 199.474 6.056C199.786 6.056 200.118 6.096 200.47 6.176C200.822 6.256 201.118 6.364 201.358 6.5C201.462 6.716 201.534 6.976 201.574 7.28C201.614 7.584 201.634 7.808 201.634 7.952C201.634 8.096 201.614 8.32 201.574 8.624C201.534 8.928 201.462 9.188 201.358 9.404C201.118 9.548 200.822 9.656 200.47 9.728C200.118 9.8 199.786 9.836 199.474 9.836C199.154 9.836 198.818 9.8 198.466 9.728C198.122 9.656 197.83 9.548 197.59 9.404C197.486 9.188 197.41 8.928 197.362 8.624C197.322 8.32 197.302 8.096 197.302 7.952Z" fill="#364760"/>
</svg>
