<svg width="253" height="102" viewBox="0 0 253 102" fill="none" xmlns="http://www.w3.org/2000/svg">
<rect opacity="0.5" y="0.794922" width="253" height="101.083" rx="10" fill="#DBDADA"/>
<path d="M16.8315 49.9069C16.4355 48.9829 16.0635 48.0769 15.7155 47.1889C15.3675 46.3009 15.0675 45.5149 14.8155 44.8309L14.6715 44.8849C14.7675 45.9049 14.8455 47.0629 14.9055 48.3589C14.9775 49.6429 15.0315 50.9269 15.0675 52.2109C15.1035 53.4949 15.1215 54.6349 15.1215 55.6309V62.7949C14.6535 62.8789 14.1915 62.9329 13.7355 62.9569C13.2795 62.9929 12.8715 63.0109 12.5115 63.0109C12.1635 63.0109 11.7255 62.9929 11.1975 62.9569C10.6815 62.9329 10.2015 62.8789 9.75748 62.7949V38.3149C10.2015 38.2069 10.7895 38.1289 11.5215 38.0809C12.2535 38.0209 12.7995 37.9909 13.1595 37.9909C13.5315 37.9909 14.0235 38.0089 14.6355 38.0449C15.2475 38.0689 15.8715 38.1229 16.5075 38.2069L22.0515 51.0589C22.5075 52.1149 22.9275 53.1229 23.3115 54.0829C23.7075 55.0429 24.0375 55.8529 24.3015 56.5129L24.4455 56.4589C24.3495 55.3429 24.2655 54.1189 24.1935 52.7869C24.1335 51.4549 24.0855 50.1709 24.0495 48.9349C24.0135 47.6989 23.9955 46.6669 23.9955 45.8389V41.4469C23.9955 40.1629 24.2535 39.2629 24.7695 38.7469C25.2975 38.2309 26.1135 37.9729 27.2175 37.9729H29.0895L29.3235 38.2069V62.6869C28.8675 62.7949 28.2675 62.8729 27.5235 62.9209C26.7915 62.9809 26.2335 63.0109 25.8495 63.0109C25.4775 63.0109 24.9855 62.9929 24.3735 62.9569C23.7615 62.9329 23.1435 62.8789 22.5195 62.7949L16.8315 49.9069ZM51.9239 55.3609C51.9239 57.8449 51.1799 59.7949 49.6919 61.2109C48.2159 62.6269 46.0259 63.3349 43.1219 63.3349C40.2179 63.3349 38.0219 62.6269 36.5339 61.2109C35.0579 59.7949 34.3199 57.8449 34.3199 55.3609V42.9589L34.5359 42.7429H36.5879C37.6799 42.7429 38.5199 43.0189 39.1079 43.5709C39.7079 44.1229 40.0079 45.0529 40.0079 46.3609V55.3429C40.0079 56.4349 40.2359 57.2929 40.6919 57.9169C41.1479 58.5409 41.9579 58.8529 43.1219 58.8529C44.2979 58.8529 45.1079 58.5409 45.5519 57.9169C45.9959 57.2929 46.2179 56.4349 46.2179 55.3429V42.9589C46.6979 42.8629 47.1899 42.8029 47.6939 42.7789C48.1979 42.7549 48.6359 42.7429 49.0079 42.7429C49.3439 42.7429 49.7999 42.7609 50.3759 42.7969C50.9519 42.8209 51.4679 42.8809 51.9239 42.9769V55.3609ZM71.86 58.2769C71.86 59.9929 71.59 61.1869 71.05 61.8589C70.522 62.5309 69.622 62.8669 68.35 62.8669H60.052C59.032 62.8669 58.228 62.5789 57.64 62.0029C57.052 61.4149 56.758 60.6289 56.758 59.6449V43.1569L56.956 42.9589H71.194C71.278 43.3669 71.326 43.7569 71.338 44.1289C71.35 44.5009 71.356 44.8549 71.356 45.1909C71.356 45.5149 71.32 45.8809 71.248 46.2889C71.188 46.6969 71.08 47.1109 70.924 47.5309H64.624C64.12 47.5309 63.358 47.5249 62.338 47.5129C62.35 47.8849 62.356 48.2029 62.356 48.4669C62.368 48.7309 62.374 49.0489 62.374 49.4209V50.6089C63.37 50.5969 64.12 50.5909 64.624 50.5909H69.232C69.352 50.9149 69.43 51.2869 69.466 51.7069C69.514 52.1149 69.538 52.4629 69.538 52.7509C69.538 53.0869 69.514 53.4649 69.466 53.8849C69.43 54.2929 69.352 54.6649 69.232 55.0009H64.624C64.396 55.0009 64.078 55.0009 63.67 55.0009C63.262 55.0009 62.83 55.0009 62.374 55.0009V56.1709C62.374 56.6149 62.368 56.9809 62.356 57.2689C62.344 57.5569 62.338 57.9169 62.338 58.3489V58.3849C62.758 58.3609 63.148 58.3369 63.508 58.3129C63.868 58.2889 64.306 58.2769 64.822 58.2769H71.86ZM87.4235 42.9589C87.8555 42.8629 88.2335 42.8029 88.5575 42.7789C88.8935 42.7549 89.2355 42.7429 89.5835 42.7429C90.0155 42.7429 90.4655 42.7669 90.9335 42.8149C91.4135 42.8629 91.9235 42.9649 92.4635 43.1209L92.7155 43.3909L86.8115 62.7949C86.2715 62.8789 85.5635 62.9329 84.6875 62.9569C83.8115 62.9929 83.0135 63.0109 82.2935 63.0109C81.3455 63.0109 80.5415 62.8609 79.8815 62.5609C79.2335 62.2489 78.7655 61.5769 78.4775 60.5449L73.3475 43.3549C73.8395 43.1509 74.3555 42.9949 74.8955 42.8869C75.4475 42.7669 76.0115 42.7069 76.5875 42.7069C77.4515 42.7069 78.1235 42.9109 78.6035 43.3189C79.0955 43.7149 79.4855 44.4049 79.7735 45.3889L81.6995 51.8329C81.9755 52.8049 82.2215 53.7949 82.4375 54.8029C82.6655 55.8109 82.8875 56.9509 83.1035 58.2229C83.1515 58.4269 83.2715 58.5289 83.4635 58.5289L87.4235 42.9589ZM99.3449 59.3209C99.1529 59.3209 98.9669 59.3209 98.7869 59.3209C98.6069 59.3089 98.4269 59.2969 98.2469 59.2849L97.1309 62.7949C96.7829 62.8789 96.4049 62.9389 95.9969 62.9749C95.5889 63.0229 95.1629 63.0469 94.7189 63.0469C94.2389 63.0469 93.7529 63.0109 93.2609 62.9389C92.7809 62.8669 92.3849 62.7649 92.0729 62.6329L91.8749 62.3269L98.8769 42.9589C99.5009 42.8629 100.101 42.8029 100.677 42.7789C101.265 42.7549 101.799 42.7429 102.279 42.7429C102.723 42.7429 103.203 42.7549 103.719 42.7789C104.235 42.8029 104.817 42.8629 105.465 42.9589L112.269 62.5249C111.849 62.7169 111.315 62.8609 110.667 62.9569C110.019 63.0649 109.497 63.1189 109.101 63.1189C108.441 63.1189 107.805 62.9929 107.193 62.7409C106.581 62.4889 106.119 61.8229 105.807 60.7429L105.357 59.2849C105.165 59.2969 104.979 59.3089 104.799 59.3209C104.619 59.3209 104.427 59.3209 104.223 59.3209H99.3449ZM100.065 53.6329L99.6689 54.8749C99.8489 54.8629 100.029 54.8569 100.209 54.8569C100.389 54.8449 100.575 54.8389 100.767 54.8389H103.017C103.197 54.8389 103.359 54.8449 103.503 54.8569C103.659 54.8569 103.815 54.8629 103.971 54.8749L103.593 53.6509C103.317 52.7029 103.041 51.6469 102.765 50.4829C102.489 49.3189 102.237 48.2629 102.009 47.3149H101.793C101.541 48.2269 101.259 49.2709 100.947 50.4469C100.647 51.6229 100.353 52.6849 100.065 53.6329ZM130.14 49.9069C129.744 48.9829 129.372 48.0769 129.024 47.1889C128.676 46.3009 128.376 45.5149 128.124 44.8309L127.98 44.8849C128.076 45.9049 128.154 47.0629 128.214 48.3589C128.286 49.6429 128.34 50.9269 128.376 52.2109C128.412 53.4949 128.43 54.6349 128.43 55.6309V62.7949C127.962 62.8789 127.5 62.9329 127.044 62.9569C126.588 62.9929 126.18 63.0109 125.82 63.0109C125.472 63.0109 125.034 62.9929 124.506 62.9569C123.99 62.9329 123.51 62.8789 123.066 62.7949V38.3149C123.51 38.2069 124.098 38.1289 124.83 38.0809C125.562 38.0209 126.108 37.9909 126.468 37.9909C126.84 37.9909 127.332 38.0089 127.944 38.0449C128.556 38.0689 129.18 38.1229 129.816 38.2069L135.36 51.0589C135.816 52.1149 136.236 53.1229 136.62 54.0829C137.016 55.0429 137.346 55.8529 137.61 56.5129L137.754 56.4589C137.658 55.3429 137.574 54.1189 137.502 52.7869C137.442 51.4549 137.394 50.1709 137.358 48.9349C137.322 47.6989 137.304 46.6669 137.304 45.8389V41.4469C137.304 40.1629 137.562 39.2629 138.078 38.7469C138.606 38.2309 139.422 37.9729 140.526 37.9729H142.398L142.632 38.2069V62.6869C142.176 62.7949 141.576 62.8729 140.832 62.9209C140.1 62.9809 139.542 63.0109 139.158 63.0109C138.786 63.0109 138.294 62.9929 137.682 62.9569C137.07 62.9329 136.452 62.8789 135.828 62.7949L130.14 49.9069ZM146.53 52.9129C146.53 49.6969 147.358 47.1469 149.014 45.2629C150.682 43.3669 153.112 42.4189 156.304 42.4189C159.544 42.4189 161.986 43.3609 163.63 45.2449C165.286 47.1169 166.114 49.6729 166.114 52.9129C166.114 56.1529 165.286 58.7029 163.63 60.5629C161.974 62.4109 159.532 63.3349 156.304 63.3349C153.064 63.3349 150.622 62.3989 148.978 60.5269C147.346 58.6549 146.53 56.1169 146.53 52.9129ZM152.344 52.9129C152.344 53.5969 152.386 54.3049 152.47 55.0369C152.566 55.7569 152.746 56.4289 153.01 57.0529C153.286 57.6769 153.688 58.1869 154.216 58.5829C154.744 58.9669 155.446 59.1589 156.322 59.1589C157.198 59.1589 157.9 58.9669 158.428 58.5829C158.956 58.1869 159.352 57.6769 159.616 57.0529C159.892 56.4289 160.072 55.7569 160.156 55.0369C160.252 54.3049 160.3 53.5969 160.3 52.9129C160.3 52.2169 160.252 51.5029 160.156 50.7709C160.072 50.0269 159.892 49.3429 159.616 48.7189C159.352 48.0829 158.956 47.5729 158.428 47.1889C157.9 46.7929 157.198 46.5949 156.322 46.5949C155.446 46.5949 154.744 46.7929 154.216 47.1889C153.688 47.5729 153.286 48.0829 153.01 48.7189C152.746 49.3429 152.566 50.0269 152.47 50.7709C152.386 51.5029 152.344 52.2169 152.344 52.9129ZM172.458 49.7089C172.458 49.3249 172.464 48.9709 172.476 48.6469C172.488 48.3109 172.494 47.9389 172.494 47.5309C172.242 47.5309 171.894 47.5369 171.45 47.5489C171.018 47.5609 170.676 47.5669 170.424 47.5669H167.094C166.998 47.1349 166.938 46.7329 166.914 46.3609C166.89 45.9769 166.878 45.6289 166.878 45.3169C166.878 45.0049 166.89 44.6389 166.914 44.2189C166.938 43.7869 166.998 43.3669 167.094 42.9589H183.384C183.468 43.2829 183.528 43.6489 183.564 44.0569C183.612 44.4649 183.636 44.7949 183.636 45.0469C183.636 45.8629 183.42 46.4869 182.988 46.9189C182.556 47.3509 181.836 47.5669 180.828 47.5669H180.09C179.838 47.5669 179.502 47.5609 179.082 47.5489C178.674 47.5369 178.356 47.5309 178.128 47.5309C178.128 47.9389 178.134 48.3109 178.146 48.6469C178.158 48.9709 178.164 49.3249 178.164 49.7089V62.7949C177.828 62.8669 177.366 62.9209 176.778 62.9569C176.19 62.9929 175.698 63.0109 175.302 63.0109C174.93 63.0109 174.462 62.9929 173.898 62.9569C173.334 62.9209 172.854 62.8669 172.458 62.7949V49.7089ZM186.135 42.9589C186.591 42.8629 187.107 42.8029 187.683 42.7789C188.259 42.7549 188.715 42.7429 189.051 42.7429C189.411 42.7429 189.843 42.7549 190.347 42.7789C190.863 42.8029 191.361 42.8629 191.841 42.9589V62.7949C191.361 62.8789 190.863 62.9329 190.347 62.9569C189.843 62.9929 189.411 63.0109 189.051 63.0109C188.715 63.0109 188.259 62.9929 187.683 62.9569C187.107 62.9329 186.591 62.8789 186.135 62.7949V42.9589ZM208.047 51.9409C208.047 50.4169 207.843 49.1929 207.435 48.2689C207.027 47.3329 206.205 46.8649 204.969 46.8649C203.685 46.8649 202.773 47.3929 202.233 48.4489C201.693 49.5049 201.423 51.0229 201.423 53.0029C201.423 54.5149 201.615 55.6789 201.999 56.4949C202.395 57.2989 202.899 57.8569 203.511 58.1689C204.123 58.4809 204.771 58.6369 205.455 58.6369C206.343 58.6369 207.231 58.4449 208.119 58.0609C209.019 57.6649 209.823 57.2029 210.531 56.6749C210.915 56.8669 211.287 57.1729 211.647 57.5929C212.007 58.0129 212.319 58.4629 212.583 58.9429C212.847 59.4229 213.015 59.8609 213.087 60.2569C212.091 61.1089 210.879 61.8349 209.451 62.4349C208.035 63.0349 206.421 63.3349 204.609 63.3349C202.869 63.3349 201.417 63.0289 200.253 62.4169C199.101 61.8049 198.183 61.0009 197.499 60.0049C196.815 58.9969 196.329 57.8809 196.041 56.6569C195.753 55.4329 195.609 54.2029 195.609 52.9669C195.609 50.5069 196.053 48.5029 196.941 46.9549C197.841 45.3949 199.017 44.2489 200.469 43.5169C201.933 42.7849 203.499 42.4189 205.167 42.4189C207.039 42.4189 208.581 42.7489 209.793 43.4089C211.005 44.0689 211.905 44.9029 212.493 45.9109C213.081 46.9189 213.375 47.9569 213.375 49.0249C213.375 51.0769 212.223 52.1029 209.919 52.1029C209.643 52.1029 209.343 52.0849 209.019 52.0489C208.695 52.0129 208.371 51.9769 208.047 51.9409ZM216.932 42.9589C217.388 42.8629 217.904 42.8029 218.48 42.7789C219.056 42.7549 219.512 42.7429 219.848 42.7429C220.208 42.7429 220.64 42.7549 221.144 42.7789C221.66 42.8029 222.158 42.8629 222.638 42.9589V62.7949C222.158 62.8789 221.66 62.9329 221.144 62.9569C220.64 62.9929 220.208 63.0109 219.848 63.0109C219.512 63.0109 219.056 62.9929 218.48 62.9569C217.904 62.9329 217.388 62.8789 216.932 62.7949V42.9589ZM232.903 59.3209C232.711 59.3209 232.525 59.3209 232.345 59.3209C232.165 59.3089 231.985 59.2969 231.805 59.2849L230.689 62.7949C230.341 62.8789 229.963 62.9389 229.555 62.9749C229.147 63.0229 228.721 63.0469 228.277 63.0469C227.797 63.0469 227.311 63.0109 226.819 62.9389C226.339 62.8669 225.943 62.7649 225.631 62.6329L225.433 62.3269L232.435 42.9589C233.059 42.8629 233.659 42.8029 234.235 42.7789C234.823 42.7549 235.357 42.7429 235.837 42.7429C236.281 42.7429 236.761 42.7549 237.277 42.7789C237.793 42.8029 238.375 42.8629 239.023 42.9589L245.827 62.5249C245.407 62.7169 244.873 62.8609 244.225 62.9569C243.577 63.0649 243.055 63.1189 242.659 63.1189C241.999 63.1189 241.363 62.9929 240.751 62.7409C240.139 62.4889 239.677 61.8229 239.365 60.7429L238.915 59.2849C238.723 59.2969 238.537 59.3089 238.357 59.3209C238.177 59.3209 237.985 59.3209 237.781 59.3209H232.903ZM233.623 53.6329L233.227 54.8749C233.407 54.8629 233.587 54.8569 233.767 54.8569C233.947 54.8449 234.133 54.8389 234.325 54.8389H236.575C236.755 54.8389 236.917 54.8449 237.061 54.8569C237.217 54.8569 237.373 54.8629 237.529 54.8749L237.151 53.6509C236.875 52.7029 236.599 51.6469 236.323 50.4829C236.047 49.3189 235.795 48.2629 235.567 47.3149H235.351C235.099 48.2269 234.817 49.2709 234.505 50.4469C234.205 51.6229 233.911 52.6849 233.623 53.6329Z" fill="#364760"/>
</svg>
