<svg width="52" height="47" viewBox="0 0 52 47" fill="none" xmlns="http://www.w3.org/2000/svg">
<path d="M51 5.00758V19.3077C51 21.4937 49.337 23.2971 47.3044 23.2971H34.1177C32.5723 23.2971 31.2451 22.2588 30.7077 20.8014C30.5396 20.346 30.4388 19.8359 30.4388 19.3077V5.00756C30.4388 2.80342 32.0851 1 34.1177 1H47.3044C49.337 1 51 2.80343 51 5.00758Z" fill="#F43735"/>
<path d="M28.4149 9.55933V19.7215L22.3339 24.3411L3.56024 10.0276L28.4149 9.55933Z" fill="#4AA0EC"/>
<path d="M43.6679 25.4808V40.8556H6.0227L1 45.9927V11.2354L22.3339 26.8105L29.0533 22.1107C30.0108 24.1692 31.9426 25.4808 34.1096 25.4808H43.6679Z" fill="#4AA0EC"/>
<path d="M1.01465 11.231V36.8681V40.1441" stroke="#303030" stroke-width="1.22292" stroke-miterlimit="10" stroke-linecap="round" stroke-linejoin="round"/>
<path d="M43.6759 25.8643V40.1469C43.6759 40.5659 43.4408 40.8574 43.2392 40.8574L6.48434 40.7299" stroke="#303030" stroke-width="1.22292" stroke-miterlimit="10" stroke-linecap="round" stroke-linejoin="round"/>
<path d="M28.0739 9.56177H3.94775" stroke="#303030" stroke-width="1.22292" stroke-miterlimit="10" stroke-linecap="round" stroke-linejoin="round"/>
<path d="M1.00836 11.238L21.5024 26.54C21.7543 26.7222 22.0399 26.8132 22.3423 26.8132C22.6279 26.8132 22.9134 26.7222 23.1654 26.54L28.6221 22.4241" stroke="#303030" stroke-width="1.22292" stroke-miterlimit="10" stroke-linecap="round" stroke-linejoin="round"/>
<path d="M1.01465 40.1443V45.9999L5.28372 41.4341C5.28372 41.4341 5.89457 40.7287 6.48489 40.7308" stroke="#303030" stroke-width="1.22292" stroke-miterlimit="10" stroke-linecap="round" stroke-linejoin="round"/>
<path d="M5.28314 20.5366V29.344" stroke="#303030" stroke-width="1.22292" stroke-miterlimit="10" stroke-linecap="round" stroke-linejoin="round"/>
<path d="M5.28314 32.3799V34.3313" stroke="#303030" stroke-width="1.22292" stroke-miterlimit="10" stroke-linecap="round" stroke-linejoin="round"/>
<path d="M51 5.00758V19.3077C51 21.4937 49.337 23.2971 47.3044 23.2971H34.1177C32.5723 23.2971 31.2451 22.2588 30.7077 20.8014C30.5396 20.346 30.4388 19.8359 30.4388 19.3077V5.00756C30.4388 2.80342 32.0851 1 34.1177 1H47.3044C49.337 1 51 2.80343 51 5.00758Z" stroke="#303030" stroke-width="1.22292" stroke-miterlimit="10" stroke-linecap="round" stroke-linejoin="round"/>
<path d="M30.4388 17.2492V9.56177" stroke="#303030" stroke-width="1.22292" stroke-miterlimit="10" stroke-linecap="round" stroke-linejoin="round"/>
<path d="M41.173 7.41235L39.258 8.52366L39.4932 9.50732L41.005 8.61472H41.0386V16.885H42.1809V7.41237H41.173V7.41235Z" fill="white"/>
</svg>
