<svg width="487" height="27" viewBox="0 0 487 27" fill="none" xmlns="http://www.w3.org/2000/svg">
<path d="M0.311625 13.688C0.311625 11.12 0.695625 8.876 1.46363 6.956C2.24363 5.036 3.42563 3.542 5.00963 2.474C6.59363 1.406 8.59763 0.872 11.0216 0.872C13.4576 0.872 15.4676 1.412 17.0516 2.492C18.6356 3.56 19.8116 5.06 20.5796 6.992C21.3476 8.912 21.7316 11.144 21.7316 13.688C21.7316 16.268 21.3416 18.524 20.5616 20.456C19.7816 22.376 18.5996 23.87 17.0156 24.938C15.4436 26.006 13.4456 26.54 11.0216 26.54C8.57363 26.54 6.55763 26 4.97363 24.92C3.40163 23.84 2.23163 22.34 1.46363 20.42C0.695625 18.488 0.311625 16.244 0.311625 13.688ZM6.32363 13.688C6.32363 14.636 6.37163 15.602 6.46763 16.586C6.57563 17.57 6.78563 18.482 7.09763 19.322C7.42163 20.162 7.89563 20.84 8.51962 21.356C9.14363 21.86 9.97763 22.112 11.0216 22.112C12.0536 22.112 12.8816 21.86 13.5056 21.356C14.1296 20.84 14.5976 20.162 14.9096 19.322C15.2336 18.482 15.4436 17.57 15.5396 16.586C15.6476 15.602 15.7016 14.636 15.7016 13.688C15.7016 12.74 15.6476 11.774 15.5396 10.79C15.4436 9.806 15.2336 8.9 14.9096 8.072C14.5976 7.244 14.1296 6.578 13.5056 6.074C12.8816 5.558 12.0536 5.3 11.0216 5.3C9.97763 5.3 9.14363 5.558 8.51962 6.074C7.89563 6.578 7.42163 7.244 7.09763 8.072C6.78563 8.9 6.57563 9.806 6.46763 10.79C6.37163 11.774 6.32363 12.74 6.32363 13.688ZM41.3522 12.968C41.3522 14.528 40.9982 15.824 40.2902 16.856C39.5942 17.876 38.6342 18.638 37.4102 19.142C36.1862 19.634 34.7942 19.88 33.2342 19.88H31.2722V26C30.7922 26.084 30.3002 26.138 29.7962 26.162C29.2922 26.198 28.8602 26.216 28.5002 26.216C28.1642 26.216 27.7082 26.198 27.1322 26.162C26.5562 26.138 26.0402 26.084 25.5842 26V6.344L25.7822 6.128C26.7542 6.104 27.9242 6.074 29.2922 6.038C30.6602 6.002 31.9742 5.984 33.2342 5.984C34.8062 5.984 36.2042 6.224 37.4282 6.704C38.6522 7.184 39.6122 7.94 40.3082 8.972C41.0042 10.004 41.3522 11.336 41.3522 12.968ZM31.2722 10.196V15.704C31.5962 15.692 31.8902 15.686 32.1542 15.686C32.4182 15.674 32.6162 15.668 32.7482 15.668C33.5402 15.668 34.1342 15.524 34.5302 15.236C34.9382 14.936 35.2082 14.576 35.3402 14.156C35.4722 13.724 35.5382 13.316 35.5382 12.932C35.5382 12.572 35.4722 12.182 35.3402 11.762C35.2082 11.342 34.9382 10.982 34.5302 10.682C34.1342 10.382 33.5402 10.232 32.7482 10.232C32.4482 10.232 32.2322 10.232 32.1002 10.232C31.9682 10.22 31.6922 10.208 31.2722 10.196ZM59.9167 21.482C59.9167 23.198 59.6467 24.392 59.1067 25.064C58.5787 25.736 57.6787 26.072 56.4067 26.072H48.1087C47.0887 26.072 46.2847 25.784 45.6967 25.208C45.1087 24.62 44.8147 23.834 44.8147 22.85V6.362L45.0127 6.164H59.2507C59.3347 6.572 59.3827 6.962 59.3947 7.334C59.4067 7.706 59.4127 8.06 59.4127 8.396C59.4127 8.72 59.3767 9.086 59.3047 9.494C59.2447 9.902 59.1367 10.316 58.9807 10.736H52.6807C52.1767 10.736 51.4147 10.73 50.3947 10.718C50.4067 11.09 50.4127 11.408 50.4127 11.672C50.4247 11.936 50.4307 12.254 50.4307 12.626V13.814C51.4267 13.802 52.1767 13.796 52.6807 13.796H57.2887C57.4087 14.12 57.4867 14.492 57.5227 14.912C57.5707 15.32 57.5947 15.668 57.5947 15.956C57.5947 16.292 57.5707 16.67 57.5227 17.09C57.4867 17.498 57.4087 17.87 57.2887 18.206H52.6807C52.4527 18.206 52.1347 18.206 51.7267 18.206C51.3187 18.206 50.8867 18.206 50.4307 18.206V19.376C50.4307 19.82 50.4247 20.186 50.4127 20.474C50.4007 20.762 50.3947 21.122 50.3947 21.554V21.59C50.8147 21.566 51.2047 21.542 51.5647 21.518C51.9247 21.494 52.3627 21.482 52.8787 21.482H59.9167ZM79.9982 12.194C79.9982 13.118 79.7882 13.94 79.3682 14.66C78.9482 15.38 78.4202 15.974 77.7842 16.442C77.1602 16.91 76.5362 17.21 75.9122 17.342C76.5602 17.558 77.0942 17.888 77.5142 18.332C77.9462 18.776 78.3182 19.346 78.6302 20.042L79.5662 22.184C79.7822 22.676 80.0282 23.132 80.3042 23.552C80.5802 23.96 80.8862 24.308 81.2222 24.596C80.8742 25.028 80.3522 25.43 79.6562 25.802C78.9602 26.162 78.2042 26.342 77.3882 26.342C76.5842 26.342 75.9302 26.15 75.4262 25.766C74.9342 25.37 74.5022 24.74 74.1302 23.876L72.5462 20.24C72.2942 19.652 71.9822 19.298 71.6102 19.178C71.2382 19.058 70.7582 18.998 70.1702 18.998H69.4682V26C68.9882 26.084 68.4902 26.138 67.9742 26.162C67.4702 26.198 67.0382 26.216 66.6782 26.216C66.3422 26.216 65.8982 26.198 65.3462 26.162C64.7942 26.138 64.2902 26.084 63.8342 26V6.344L64.0322 6.128C65.4842 6.092 66.8462 6.062 68.1182 6.038C69.4022 6.002 70.6802 5.984 71.9522 5.984C73.3922 5.984 74.7242 6.176 75.9482 6.56C77.1722 6.932 78.1502 7.574 78.8822 8.486C79.6262 9.386 79.9982 10.622 79.9982 12.194ZM69.4682 10.052V14.714C69.8882 14.702 70.2722 14.696 70.6202 14.696C70.9802 14.684 71.2442 14.678 71.4122 14.678C72.4922 14.678 73.2242 14.444 73.6082 13.976C73.9922 13.508 74.1842 12.962 74.1842 12.338C74.1842 11.726 73.9922 11.198 73.6082 10.754C73.2242 10.31 72.5822 10.088 71.6822 10.088C71.2502 10.088 70.8782 10.082 70.5662 10.07C70.2542 10.058 69.8882 10.052 69.4682 10.052ZM89.3703 22.526C89.1783 22.526 88.9923 22.526 88.8123 22.526C88.6323 22.514 88.4523 22.502 88.2723 22.49L87.1563 26C86.8083 26.084 86.4303 26.144 86.0223 26.18C85.6143 26.228 85.1883 26.252 84.7443 26.252C84.2643 26.252 83.7783 26.216 83.2863 26.144C82.8063 26.072 82.4103 25.97 82.0983 25.838L81.9003 25.532L88.9023 6.164C89.5263 6.068 90.1263 6.008 90.7023 5.984C91.2903 5.96 91.8243 5.948 92.3043 5.948C92.7483 5.948 93.2283 5.96 93.7443 5.984C94.2603 6.008 94.8423 6.068 95.4903 6.164L102.294 25.73C101.874 25.922 101.34 26.066 100.692 26.162C100.044 26.27 99.5223 26.324 99.1263 26.324C98.4663 26.324 97.8303 26.198 97.2183 25.946C96.6063 25.694 96.1443 25.028 95.8323 23.948L95.3823 22.49C95.1903 22.502 95.0043 22.514 94.8243 22.526C94.6443 22.526 94.4523 22.526 94.2483 22.526H89.3703ZM90.0903 16.838L89.6943 18.08C89.8743 18.068 90.0543 18.062 90.2343 18.062C90.4143 18.05 90.6003 18.044 90.7923 18.044H93.0423C93.2223 18.044 93.3843 18.05 93.5283 18.062C93.6843 18.062 93.8403 18.068 93.9963 18.08L93.6183 16.856C93.3423 15.908 93.0663 14.852 92.7903 13.688C92.5143 12.524 92.2623 11.468 92.0343 10.52H91.8183C91.5663 11.432 91.2843 12.476 90.9723 13.652C90.6723 14.828 90.3783 15.89 90.0903 16.838ZM115.56 15.146C115.56 13.622 115.356 12.398 114.948 11.474C114.54 10.538 113.718 10.07 112.482 10.07C111.198 10.07 110.286 10.598 109.746 11.654C109.206 12.71 108.936 14.228 108.936 16.208C108.936 17.72 109.128 18.884 109.512 19.7C109.908 20.504 110.412 21.062 111.024 21.374C111.636 21.686 112.284 21.842 112.968 21.842C113.856 21.842 114.744 21.65 115.632 21.266C116.532 20.87 117.336 20.408 118.044 19.88C118.428 20.072 118.8 20.378 119.16 20.798C119.52 21.218 119.832 21.668 120.096 22.148C120.36 22.628 120.528 23.066 120.6 23.462C119.604 24.314 118.392 25.04 116.964 25.64C115.548 26.24 113.934 26.54 112.122 26.54C110.382 26.54 108.93 26.234 107.766 25.622C106.614 25.01 105.696 24.206 105.012 23.21C104.328 22.202 103.842 21.086 103.554 19.862C103.266 18.638 103.122 17.408 103.122 16.172C103.122 13.712 103.566 11.708 104.454 10.16C105.354 8.6 106.53 7.454 107.982 6.722C109.446 5.99 111.012 5.624 112.68 5.624C114.552 5.624 116.094 5.954 117.306 6.614C118.518 7.274 119.418 8.108 120.006 9.116C120.594 10.124 120.888 11.162 120.888 12.23C120.888 14.282 119.736 15.308 117.432 15.308C117.156 15.308 116.856 15.29 116.532 15.254C116.208 15.218 115.884 15.182 115.56 15.146ZM124.445 6.164C124.901 6.068 125.417 6.008 125.993 5.984C126.569 5.96 127.025 5.948 127.361 5.948C127.721 5.948 128.153 5.96 128.657 5.984C129.173 6.008 129.671 6.068 130.151 6.164V26C129.671 26.084 129.173 26.138 128.657 26.162C128.153 26.198 127.721 26.216 127.361 26.216C127.025 26.216 126.569 26.198 125.993 26.162C125.417 26.138 124.901 26.084 124.445 26V6.164ZM133.919 16.118C133.919 12.902 134.747 10.352 136.403 8.468C138.071 6.572 140.501 5.624 143.693 5.624C146.933 5.624 149.375 6.566 151.019 8.45C152.675 10.322 153.503 12.878 153.503 16.118C153.503 19.358 152.675 21.908 151.019 23.768C149.363 25.616 146.921 26.54 143.693 26.54C140.453 26.54 138.011 25.604 136.367 23.732C134.735 21.86 133.919 19.322 133.919 16.118ZM139.733 16.118C139.733 16.802 139.775 17.51 139.859 18.242C139.955 18.962 140.135 19.634 140.399 20.258C140.675 20.882 141.077 21.392 141.605 21.788C142.133 22.172 142.835 22.364 143.711 22.364C144.587 22.364 145.289 22.172 145.817 21.788C146.345 21.392 146.741 20.882 147.005 20.258C147.281 19.634 147.461 18.962 147.545 18.242C147.641 17.51 147.689 16.802 147.689 16.118C147.689 15.422 147.641 14.708 147.545 13.976C147.461 13.232 147.281 12.548 147.005 11.924C146.741 11.288 146.345 10.778 145.817 10.394C145.289 9.998 144.587 9.8 143.711 9.8C142.835 9.8 142.133 9.998 141.605 10.394C141.077 10.778 140.675 11.288 140.399 11.924C140.135 12.548 139.955 13.232 139.859 13.976C139.775 14.708 139.733 15.422 139.733 16.118ZM164.193 16.946C164.109 16.754 163.977 16.454 163.797 16.046C163.617 15.626 163.425 15.176 163.221 14.696C163.017 14.216 162.825 13.766 162.645 13.346C162.477 12.926 162.345 12.62 162.249 12.428L162.123 12.482C162.171 13.43 162.219 14.456 162.267 15.56C162.315 16.652 162.351 17.654 162.375 18.566C162.411 19.466 162.429 20.12 162.429 20.528V26C161.961 26.084 161.511 26.138 161.079 26.162C160.647 26.198 160.245 26.216 159.873 26.216C159.537 26.216 159.117 26.198 158.613 26.162C158.121 26.138 157.653 26.084 157.209 26V6.29C157.653 6.182 158.205 6.098 158.865 6.038C159.525 5.978 160.035 5.948 160.395 5.948C160.767 5.948 161.295 5.96 161.979 5.984C162.663 5.996 163.227 6.056 163.671 6.164L167.901 15.182C167.985 15.35 168.123 15.656 168.315 16.1C168.519 16.544 168.735 17.03 168.963 17.558C169.191 18.086 169.401 18.584 169.593 19.052C169.797 19.508 169.947 19.844 170.043 20.06L170.205 20.024C170.157 19.232 170.091 18.308 170.007 17.252C169.935 16.196 169.869 15.176 169.809 14.192C169.749 13.208 169.719 12.422 169.719 11.834V9.026C169.719 7.754 169.995 6.92 170.547 6.524C171.099 6.116 171.921 5.912 173.013 5.912H174.867L175.083 6.164V25.892C174.615 26 174.051 26.078 173.391 26.126C172.731 26.186 172.227 26.216 171.879 26.216C171.639 26.216 171.309 26.21 170.889 26.198C170.469 26.186 170.037 26.168 169.593 26.144C169.161 26.12 168.801 26.072 168.513 26L164.193 16.946ZM195.374 21.482C195.374 23.198 195.104 24.392 194.564 25.064C194.036 25.736 193.136 26.072 191.864 26.072H183.566C182.546 26.072 181.742 25.784 181.154 25.208C180.566 24.62 180.272 23.834 180.272 22.85V6.362L180.47 6.164H194.708C194.792 6.572 194.84 6.962 194.852 7.334C194.864 7.706 194.87 8.06 194.87 8.396C194.87 8.72 194.834 9.086 194.762 9.494C194.702 9.902 194.594 10.316 194.438 10.736H188.138C187.634 10.736 186.872 10.73 185.852 10.718C185.864 11.09 185.87 11.408 185.87 11.672C185.882 11.936 185.888 12.254 185.888 12.626V13.814C186.884 13.802 187.634 13.796 188.138 13.796H192.746C192.866 14.12 192.944 14.492 192.98 14.912C193.028 15.32 193.052 15.668 193.052 15.956C193.052 16.292 193.028 16.67 192.98 17.09C192.944 17.498 192.866 17.87 192.746 18.206H188.138C187.91 18.206 187.592 18.206 187.184 18.206C186.776 18.206 186.344 18.206 185.888 18.206V19.376C185.888 19.82 185.882 20.186 185.87 20.474C185.858 20.762 185.852 21.122 185.852 21.554V21.59C186.272 21.566 186.662 21.542 187.022 21.518C187.382 21.494 187.82 21.482 188.336 21.482H195.374ZM197.365 24.506C197.365 24.05 197.455 23.546 197.635 22.994C197.815 22.43 198.061 21.908 198.373 21.428C198.685 20.948 199.027 20.588 199.399 20.348C200.287 20.828 201.277 21.242 202.369 21.59C203.461 21.926 204.529 22.094 205.573 22.094C206.245 22.094 206.797 21.956 207.229 21.68C207.673 21.404 207.895 21.014 207.895 20.51C207.895 20.186 207.769 19.892 207.517 19.628C207.265 19.352 206.827 19.1 206.203 18.872L203.215 17.702C202.291 17.366 201.427 16.946 200.623 16.442C199.819 15.938 199.171 15.32 198.679 14.588C198.187 13.856 197.941 12.98 197.941 11.96C197.941 10.088 198.661 8.564 200.101 7.388C201.541 6.212 203.479 5.624 205.915 5.624C207.295 5.624 208.663 5.786 210.019 6.11C211.387 6.422 212.533 6.782 213.457 7.19C213.457 8.006 213.289 8.81 212.953 9.602C212.617 10.394 212.155 11.018 211.567 11.474C210.679 11.078 209.713 10.748 208.669 10.484C207.625 10.208 206.683 10.07 205.843 10.07C205.219 10.07 204.739 10.202 204.403 10.466C204.079 10.73 203.917 11.048 203.917 11.42C203.917 11.768 204.079 12.032 204.403 12.212C204.727 12.392 205.129 12.572 205.609 12.752L208.579 13.886C210.235 14.486 211.549 15.314 212.521 16.37C213.505 17.414 213.997 18.704 213.997 20.24C213.997 21.596 213.631 22.742 212.899 23.678C212.179 24.614 211.189 25.322 209.929 25.802C208.681 26.282 207.271 26.528 205.699 26.54C203.827 26.54 202.159 26.324 200.695 25.892C199.243 25.46 198.133 24.998 197.365 24.506ZM223.486 24.506C223.486 24.05 223.576 23.546 223.756 22.994C223.936 22.43 224.182 21.908 224.494 21.428C224.806 20.948 225.148 20.588 225.52 20.348C226.408 20.828 227.398 21.242 228.49 21.59C229.582 21.926 230.65 22.094 231.694 22.094C232.366 22.094 232.918 21.956 233.35 21.68C233.794 21.404 234.016 21.014 234.016 20.51C234.016 20.186 233.89 19.892 233.638 19.628C233.386 19.352 232.948 19.1 232.324 18.872L229.336 17.702C228.412 17.366 227.548 16.946 226.744 16.442C225.94 15.938 225.292 15.32 224.8 14.588C224.308 13.856 224.062 12.98 224.062 11.96C224.062 10.088 224.782 8.564 226.222 7.388C227.662 6.212 229.6 5.624 232.036 5.624C233.416 5.624 234.784 5.786 236.14 6.11C237.508 6.422 238.654 6.782 239.578 7.19C239.578 8.006 239.41 8.81 239.074 9.602C238.738 10.394 238.276 11.018 237.688 11.474C236.8 11.078 235.834 10.748 234.79 10.484C233.746 10.208 232.804 10.07 231.964 10.07C231.34 10.07 230.86 10.202 230.524 10.466C230.2 10.73 230.038 11.048 230.038 11.42C230.038 11.768 230.2 12.032 230.524 12.212C230.848 12.392 231.25 12.572 231.73 12.752L234.7 13.886C236.356 14.486 237.67 15.314 238.642 16.37C239.626 17.414 240.118 18.704 240.118 20.24C240.118 21.596 239.752 22.742 239.02 23.678C238.3 24.614 237.31 25.322 236.05 25.802C234.802 26.282 233.392 26.528 231.82 26.54C229.948 26.54 228.28 26.324 226.816 25.892C225.364 25.46 224.254 24.998 223.486 24.506ZM242.376 16.118C242.376 12.902 243.204 10.352 244.86 8.468C246.528 6.572 248.958 5.624 252.15 5.624C255.39 5.624 257.832 6.566 259.476 8.45C261.132 10.322 261.96 12.878 261.96 16.118C261.96 19.358 261.132 21.908 259.476 23.768C257.82 25.616 255.378 26.54 252.15 26.54C248.91 26.54 246.468 25.604 244.824 23.732C243.192 21.86 242.376 19.322 242.376 16.118ZM248.19 16.118C248.19 16.802 248.232 17.51 248.316 18.242C248.412 18.962 248.592 19.634 248.856 20.258C249.132 20.882 249.534 21.392 250.062 21.788C250.59 22.172 251.292 22.364 252.168 22.364C253.044 22.364 253.746 22.172 254.274 21.788C254.802 21.392 255.198 20.882 255.462 20.258C255.738 19.634 255.918 18.962 256.002 18.242C256.098 17.51 256.146 16.802 256.146 16.118C256.146 15.422 256.098 14.708 256.002 13.976C255.918 13.232 255.738 12.548 255.462 11.924C255.198 11.288 254.802 10.778 254.274 10.394C253.746 9.998 253.044 9.8 252.168 9.8C251.292 9.8 250.59 9.998 250.062 10.394C249.534 10.778 249.132 11.288 248.856 11.924C248.592 12.548 248.412 13.232 248.316 13.976C248.232 14.708 248.19 15.422 248.19 16.118ZM265.864 6.128C266.488 6.104 267.238 6.08 268.114 6.056C269.002 6.032 269.914 6.014 270.85 6.002C271.786 5.99 272.644 5.984 273.424 5.984C274.9 5.984 276.22 6.152 277.384 6.488C278.56 6.824 279.484 7.382 280.156 8.162C280.828 8.93 281.164 9.962 281.164 11.258C281.164 12.098 280.93 12.896 280.462 13.652C280.006 14.408 279.376 14.942 278.572 15.254C279.604 15.578 280.468 16.214 281.164 17.162C281.86 18.098 282.208 19.112 282.208 20.204C282.208 21.74 281.848 22.94 281.128 23.804C280.42 24.656 279.436 25.262 278.176 25.622C276.928 25.97 275.5 26.144 273.892 26.144C272.656 26.144 271.372 26.132 270.04 26.108C268.708 26.096 267.316 26.072 265.864 26.036L265.666 25.856V6.344L265.864 6.128ZM273.172 9.854C272.944 9.854 272.638 9.854 272.254 9.854C271.87 9.854 271.504 9.842 271.156 9.818V13.688H273.136C274.096 13.688 274.75 13.49 275.098 13.094C275.446 12.698 275.62 12.254 275.62 11.762C275.62 11.282 275.446 10.844 275.098 10.448C274.762 10.052 274.12 9.854 273.172 9.854ZM271.156 22.274C271.636 22.25 272.104 22.238 272.56 22.238C273.016 22.238 273.43 22.238 273.802 22.238C274.894 22.238 275.614 21.992 275.962 21.5C276.322 20.996 276.502 20.48 276.502 19.952C276.502 19.376 276.286 18.836 275.854 18.332C275.434 17.828 274.654 17.576 273.514 17.576H271.156V22.274ZM302.151 12.194C302.151 13.118 301.941 13.94 301.521 14.66C301.101 15.38 300.573 15.974 299.937 16.442C299.313 16.91 298.689 17.21 298.065 17.342C298.713 17.558 299.247 17.888 299.667 18.332C300.099 18.776 300.471 19.346 300.783 20.042L301.719 22.184C301.935 22.676 302.181 23.132 302.457 23.552C302.733 23.96 303.039 24.308 303.375 24.596C303.027 25.028 302.505 25.43 301.809 25.802C301.113 26.162 300.357 26.342 299.541 26.342C298.737 26.342 298.083 26.15 297.579 25.766C297.087 25.37 296.655 24.74 296.283 23.876L294.699 20.24C294.447 19.652 294.135 19.298 293.763 19.178C293.391 19.058 292.911 18.998 292.323 18.998H291.621V26C291.141 26.084 290.643 26.138 290.127 26.162C289.623 26.198 289.191 26.216 288.831 26.216C288.495 26.216 288.051 26.198 287.499 26.162C286.947 26.138 286.443 26.084 285.987 26V6.344L286.185 6.128C287.637 6.092 288.999 6.062 290.271 6.038C291.555 6.002 292.833 5.984 294.105 5.984C295.545 5.984 296.877 6.176 298.101 6.56C299.325 6.932 300.303 7.574 301.035 8.486C301.779 9.386 302.151 10.622 302.151 12.194ZM291.621 10.052V14.714C292.041 14.702 292.425 14.696 292.773 14.696C293.133 14.684 293.397 14.678 293.565 14.678C294.645 14.678 295.377 14.444 295.761 13.976C296.145 13.508 296.337 12.962 296.337 12.338C296.337 11.726 296.145 11.198 295.761 10.754C295.377 10.31 294.735 10.088 293.835 10.088C293.403 10.088 293.031 10.082 292.719 10.07C292.407 10.058 292.041 10.052 291.621 10.052ZM321.585 21.482C321.585 23.198 321.315 24.392 320.775 25.064C320.247 25.736 319.347 26.072 318.075 26.072H309.777C308.757 26.072 307.953 25.784 307.365 25.208C306.777 24.62 306.483 23.834 306.483 22.85V6.362L306.681 6.164H320.919C321.003 6.572 321.051 6.962 321.063 7.334C321.075 7.706 321.081 8.06 321.081 8.396C321.081 8.72 321.045 9.086 320.973 9.494C320.913 9.902 320.805 10.316 320.649 10.736H314.349C313.845 10.736 313.083 10.73 312.063 10.718C312.075 11.09 312.081 11.408 312.081 11.672C312.093 11.936 312.099 12.254 312.099 12.626V13.814C313.095 13.802 313.845 13.796 314.349 13.796H318.957C319.077 14.12 319.155 14.492 319.191 14.912C319.239 15.32 319.263 15.668 319.263 15.956C319.263 16.292 319.239 16.67 319.191 17.09C319.155 17.498 319.077 17.87 318.957 18.206H314.349C314.121 18.206 313.803 18.206 313.395 18.206C312.987 18.206 312.555 18.206 312.099 18.206V19.376C312.099 19.82 312.093 20.186 312.081 20.474C312.069 20.762 312.063 21.122 312.063 21.554V21.59C312.483 21.566 312.873 21.542 313.233 21.518C313.593 21.494 314.031 21.482 314.547 21.482H321.585ZM352.672 16.928C352.672 19.976 351.826 22.34 350.134 24.02C348.454 25.7 346.054 26.54 342.934 26.54C339.826 26.54 337.426 25.7 335.734 24.02C334.042 22.34 333.196 19.976 333.196 16.928V1.412L333.448 1.178H335.554C336.658 1.178 337.504 1.466 338.092 2.042C338.68 2.606 338.974 3.53 338.974 4.814V16.982C338.974 18.626 339.274 19.868 339.874 20.708C340.474 21.536 341.494 21.95 342.934 21.95C344.386 21.95 345.412 21.536 346.012 20.708C346.612 19.868 346.912 18.626 346.912 16.982V1.412C347.38 1.328 347.866 1.274 348.37 1.25C348.886 1.214 349.336 1.196 349.72 1.196C350.068 1.196 350.53 1.214 351.106 1.25C351.694 1.274 352.216 1.328 352.672 1.412V16.928ZM355.709 24.506C355.709 24.05 355.799 23.546 355.979 22.994C356.159 22.43 356.405 21.908 356.717 21.428C357.029 20.948 357.371 20.588 357.743 20.348C358.631 20.828 359.621 21.242 360.713 21.59C361.805 21.926 362.873 22.094 363.917 22.094C364.589 22.094 365.141 21.956 365.573 21.68C366.017 21.404 366.239 21.014 366.239 20.51C366.239 20.186 366.113 19.892 365.861 19.628C365.609 19.352 365.171 19.1 364.547 18.872L361.559 17.702C360.635 17.366 359.771 16.946 358.967 16.442C358.163 15.938 357.515 15.32 357.023 14.588C356.531 13.856 356.285 12.98 356.285 11.96C356.285 10.088 357.005 8.564 358.445 7.388C359.885 6.212 361.823 5.624 364.259 5.624C365.639 5.624 367.007 5.786 368.363 6.11C369.731 6.422 370.877 6.782 371.801 7.19C371.801 8.006 371.633 8.81 371.297 9.602C370.961 10.394 370.499 11.018 369.911 11.474C369.023 11.078 368.057 10.748 367.013 10.484C365.969 10.208 365.027 10.07 364.187 10.07C363.563 10.07 363.083 10.202 362.747 10.466C362.423 10.73 362.261 11.048 362.261 11.42C362.261 11.768 362.423 12.032 362.747 12.212C363.071 12.392 363.473 12.572 363.953 12.752L366.923 13.886C368.579 14.486 369.893 15.314 370.865 16.37C371.849 17.414 372.341 18.704 372.341 20.24C372.341 21.596 371.975 22.742 371.243 23.678C370.523 24.614 369.533 25.322 368.273 25.802C367.025 26.282 365.615 26.528 364.043 26.54C362.171 26.54 360.503 26.324 359.039 25.892C357.587 25.46 356.477 24.998 355.709 24.506ZM393.09 18.566C393.09 21.05 392.346 23 390.858 24.416C389.382 25.832 387.192 26.54 384.288 26.54C381.384 26.54 379.188 25.832 377.7 24.416C376.224 23 375.486 21.05 375.486 18.566V6.164L375.702 5.948H377.754C378.846 5.948 379.686 6.224 380.274 6.776C380.874 7.328 381.174 8.258 381.174 9.566V18.548C381.174 19.64 381.402 20.498 381.858 21.122C382.314 21.746 383.124 22.058 384.288 22.058C385.464 22.058 386.274 21.746 386.718 21.122C387.162 20.498 387.384 19.64 387.384 18.548V6.164C387.864 6.068 388.356 6.008 388.86 5.984C389.364 5.96 389.802 5.948 390.174 5.948C390.51 5.948 390.966 5.966 391.542 6.002C392.118 6.026 392.634 6.086 393.09 6.182V18.566ZM402.366 22.526C402.174 22.526 401.988 22.526 401.808 22.526C401.628 22.514 401.448 22.502 401.268 22.49L400.152 26C399.804 26.084 399.426 26.144 399.018 26.18C398.61 26.228 398.184 26.252 397.74 26.252C397.26 26.252 396.774 26.216 396.282 26.144C395.802 26.072 395.406 25.97 395.094 25.838L394.896 25.532L401.898 6.164C402.522 6.068 403.122 6.008 403.698 5.984C404.286 5.96 404.82 5.948 405.3 5.948C405.744 5.948 406.224 5.96 406.74 5.984C407.256 6.008 407.838 6.068 408.486 6.164L415.29 25.73C414.87 25.922 414.336 26.066 413.688 26.162C413.04 26.27 412.518 26.324 412.122 26.324C411.462 26.324 410.826 26.198 410.214 25.946C409.602 25.694 409.14 25.028 408.828 23.948L408.378 22.49C408.186 22.502 408 22.514 407.82 22.526C407.64 22.526 407.448 22.526 407.244 22.526H402.366ZM403.086 16.838L402.69 18.08C402.87 18.068 403.05 18.062 403.23 18.062C403.41 18.05 403.596 18.044 403.788 18.044H406.038C406.218 18.044 406.38 18.05 406.524 18.062C406.68 18.062 406.836 18.068 406.992 18.08L406.614 16.856C406.338 15.908 406.062 14.852 405.786 13.688C405.51 12.524 405.258 11.468 405.03 10.52H404.814C404.562 11.432 404.28 12.476 403.968 13.652C403.668 14.828 403.374 15.89 403.086 16.838ZM434.197 12.194C434.197 13.118 433.987 13.94 433.567 14.66C433.147 15.38 432.619 15.974 431.983 16.442C431.359 16.91 430.735 17.21 430.111 17.342C430.759 17.558 431.293 17.888 431.713 18.332C432.145 18.776 432.517 19.346 432.829 20.042L433.765 22.184C433.981 22.676 434.227 23.132 434.503 23.552C434.779 23.96 435.085 24.308 435.421 24.596C435.073 25.028 434.551 25.43 433.855 25.802C433.159 26.162 432.403 26.342 431.587 26.342C430.783 26.342 430.129 26.15 429.625 25.766C429.133 25.37 428.701 24.74 428.329 23.876L426.745 20.24C426.493 19.652 426.181 19.298 425.809 19.178C425.437 19.058 424.957 18.998 424.369 18.998H423.667V26C423.187 26.084 422.689 26.138 422.173 26.162C421.669 26.198 421.237 26.216 420.877 26.216C420.541 26.216 420.097 26.198 419.545 26.162C418.993 26.138 418.489 26.084 418.033 26V6.344L418.231 6.128C419.683 6.092 421.045 6.062 422.317 6.038C423.601 6.002 424.879 5.984 426.151 5.984C427.591 5.984 428.923 6.176 430.147 6.56C431.371 6.932 432.349 7.574 433.081 8.486C433.825 9.386 434.197 10.622 434.197 12.194ZM423.667 10.052V14.714C424.087 14.702 424.471 14.696 424.819 14.696C425.179 14.684 425.443 14.678 425.611 14.678C426.691 14.678 427.423 14.444 427.807 13.976C428.191 13.508 428.383 12.962 428.383 12.338C428.383 11.726 428.191 11.198 427.807 10.754C427.423 10.31 426.781 10.088 425.881 10.088C425.449 10.088 425.077 10.082 424.765 10.07C424.453 10.058 424.087 10.052 423.667 10.052ZM438.602 6.164C439.058 6.068 439.574 6.008 440.15 5.984C440.726 5.96 441.182 5.948 441.518 5.948C441.878 5.948 442.31 5.96 442.814 5.984C443.33 6.008 443.828 6.068 444.308 6.164V26C443.828 26.084 443.33 26.138 442.814 26.162C442.31 26.198 441.878 26.216 441.518 26.216C441.182 26.216 440.726 26.198 440.15 26.162C439.574 26.138 439.058 26.084 438.602 26V6.164ZM448.075 16.118C448.075 12.902 448.903 10.352 450.559 8.468C452.227 6.572 454.657 5.624 457.849 5.624C461.089 5.624 463.531 6.566 465.175 8.45C466.831 10.322 467.659 12.878 467.659 16.118C467.659 19.358 466.831 21.908 465.175 23.768C463.519 25.616 461.077 26.54 457.849 26.54C454.609 26.54 452.167 25.604 450.523 23.732C448.891 21.86 448.075 19.322 448.075 16.118ZM453.889 16.118C453.889 16.802 453.931 17.51 454.015 18.242C454.111 18.962 454.291 19.634 454.555 20.258C454.831 20.882 455.233 21.392 455.761 21.788C456.289 22.172 456.991 22.364 457.867 22.364C458.743 22.364 459.445 22.172 459.973 21.788C460.501 21.392 460.897 20.882 461.161 20.258C461.437 19.634 461.617 18.962 461.701 18.242C461.797 17.51 461.845 16.802 461.845 16.118C461.845 15.422 461.797 14.708 461.701 13.976C461.617 13.232 461.437 12.548 461.161 11.924C460.897 11.288 460.501 10.778 459.973 10.394C459.445 9.998 458.743 9.8 457.867 9.8C456.991 9.8 456.289 9.998 455.761 10.394C455.233 10.778 454.831 11.288 454.555 11.924C454.291 12.548 454.111 13.232 454.015 13.976C453.931 14.708 453.889 15.422 453.889 16.118ZM469.439 24.506C469.439 24.05 469.529 23.546 469.709 22.994C469.889 22.43 470.135 21.908 470.447 21.428C470.759 20.948 471.101 20.588 471.473 20.348C472.361 20.828 473.351 21.242 474.443 21.59C475.535 21.926 476.603 22.094 477.647 22.094C478.319 22.094 478.871 21.956 479.303 21.68C479.747 21.404 479.969 21.014 479.969 20.51C479.969 20.186 479.843 19.892 479.591 19.628C479.339 19.352 478.901 19.1 478.277 18.872L475.289 17.702C474.365 17.366 473.501 16.946 472.697 16.442C471.893 15.938 471.245 15.32 470.753 14.588C470.261 13.856 470.015 12.98 470.015 11.96C470.015 10.088 470.735 8.564 472.175 7.388C473.615 6.212 475.553 5.624 477.989 5.624C479.369 5.624 480.737 5.786 482.093 6.11C483.461 6.422 484.607 6.782 485.531 7.19C485.531 8.006 485.363 8.81 485.027 9.602C484.691 10.394 484.229 11.018 483.641 11.474C482.753 11.078 481.787 10.748 480.743 10.484C479.699 10.208 478.757 10.07 477.917 10.07C477.293 10.07 476.813 10.202 476.477 10.466C476.153 10.73 475.991 11.048 475.991 11.42C475.991 11.768 476.153 12.032 476.477 12.212C476.801 12.392 477.203 12.572 477.683 12.752L480.653 13.886C482.309 14.486 483.623 15.314 484.595 16.37C485.579 17.414 486.071 18.704 486.071 20.24C486.071 21.596 485.705 22.742 484.973 23.678C484.253 24.614 483.263 25.322 482.003 25.802C480.755 26.282 479.345 26.528 477.773 26.54C475.901 26.54 474.233 26.324 472.769 25.892C471.317 25.46 470.207 24.998 469.439 24.506Z" fill="#364760"/>
</svg>
