<svg width="66" height="26" viewBox="0 0 66 26" fill="none" xmlns="http://www.w3.org/2000/svg">
<path d="M17.7772 8.764C17.7772 10.648 17.3932 12.226 16.6252 13.498C15.8692 14.758 14.8252 15.706 13.4932 16.342C12.1732 16.978 10.6612 17.296 8.95719 17.296H6.13119V25C5.65119 25.084 5.14119 25.138 4.60119 25.162C4.07319 25.198 3.61719 25.216 3.23319 25.216C2.88519 25.216 2.43519 25.198 1.88319 25.162C1.33119 25.138 0.821188 25.084 0.353188 25V0.591999L0.605188 0.339998C2.14119 0.303999 3.57519 0.273999 4.90719 0.249998C6.25119 0.213999 7.60119 0.196 8.95719 0.196C10.6612 0.196 12.1732 0.507999 13.4932 1.132C14.8252 1.744 15.8692 2.686 16.6252 3.958C17.3932 5.218 17.7772 6.82 17.7772 8.764ZM6.13119 4.588V12.976C6.63519 12.964 7.10319 12.952 7.53519 12.94C7.97919 12.928 8.29119 12.922 8.47119 12.922C9.43119 12.922 10.1572 12.694 10.6492 12.238C11.1412 11.782 11.4712 11.236 11.6392 10.6C11.8072 9.952 11.8912 9.34 11.8912 8.764C11.8912 8.2 11.8072 7.6 11.6392 6.964C11.4712 6.316 11.1412 5.764 10.6492 5.308C10.1572 4.852 9.43119 4.624 8.47119 4.624C8.11119 4.624 7.75119 4.624 7.39119 4.624C7.03119 4.612 6.61119 4.6 6.13119 4.588ZM24.0929 21.526C23.9009 21.526 23.7149 21.526 23.5349 21.526C23.3549 21.514 23.1749 21.502 22.9949 21.49L21.8789 25C21.5309 25.084 21.1529 25.144 20.7449 25.18C20.3369 25.228 19.9109 25.252 19.4669 25.252C18.9869 25.252 18.5009 25.216 18.0089 25.144C17.5289 25.072 17.1329 24.97 16.8209 24.838L16.6229 24.532L23.6249 5.164C24.2489 5.068 24.8489 5.008 25.4249 4.984C26.0129 4.96 26.5469 4.948 27.0269 4.948C27.4709 4.948 27.9509 4.96 28.4669 4.984C28.9829 5.008 29.5649 5.068 30.2129 5.164L37.0169 24.73C36.5969 24.922 36.0629 25.066 35.4149 25.162C34.7669 25.27 34.2449 25.324 33.8489 25.324C33.1889 25.324 32.5529 25.198 31.9409 24.946C31.3289 24.694 30.8669 24.028 30.5549 22.948L30.1049 21.49C29.9129 21.502 29.7269 21.514 29.5469 21.526C29.3669 21.526 29.1749 21.526 28.9709 21.526H24.0929ZM24.8129 15.838L24.4169 17.08C24.5969 17.068 24.7769 17.062 24.9569 17.062C25.1369 17.05 25.3229 17.044 25.5149 17.044H27.7649C27.9449 17.044 28.1069 17.05 28.2509 17.062C28.4069 17.062 28.5629 17.068 28.7189 17.08L28.3409 15.856C28.0649 14.908 27.7889 13.852 27.5129 12.688C27.2369 11.524 26.9849 10.468 26.7569 9.52H26.5409C26.2889 10.432 26.0069 11.476 25.6949 12.652C25.3949 13.828 25.1009 14.89 24.8129 15.838ZM39.832 5.164C40.288 5.068 40.804 5.008 41.38 4.984C41.956 4.96 42.412 4.948 42.748 4.948C43.108 4.948 43.54 4.96 44.044 4.984C44.56 5.008 45.058 5.068 45.538 5.164V25C45.058 25.084 44.56 25.138 44.044 25.162C43.54 25.198 43.108 25.216 42.748 25.216C42.412 25.216 41.956 25.198 41.38 25.162C40.804 25.138 40.288 25.084 39.832 25V5.164ZM48.8379 23.506C48.8379 23.05 48.9279 22.546 49.1079 21.994C49.2879 21.43 49.5339 20.908 49.8459 20.428C50.1579 19.948 50.4999 19.588 50.8719 19.348C51.7599 19.828 52.7499 20.242 53.8419 20.59C54.9339 20.926 56.0019 21.094 57.0459 21.094C57.7179 21.094 58.2699 20.956 58.7019 20.68C59.1459 20.404 59.3679 20.014 59.3679 19.51C59.3679 19.186 59.2419 18.892 58.9899 18.628C58.7379 18.352 58.2999 18.1 57.6759 17.872L54.6879 16.702C53.7639 16.366 52.8999 15.946 52.0959 15.442C51.2919 14.938 50.6439 14.32 50.1519 13.588C49.6599 12.856 49.4139 11.98 49.4139 10.96C49.4139 9.088 50.1339 7.564 51.5739 6.388C53.0139 5.212 54.9519 4.624 57.3879 4.624C58.7679 4.624 60.1359 4.786 61.4919 5.11C62.8599 5.422 64.0059 5.782 64.9299 6.19C64.9299 7.006 64.7619 7.81 64.4259 8.602C64.0899 9.394 63.6279 10.018 63.0399 10.474C62.1519 10.078 61.1859 9.748 60.1419 9.484C59.0979 9.208 58.1559 9.07 57.3159 9.07C56.6919 9.07 56.2119 9.202 55.8759 9.466C55.5519 9.73 55.3899 10.048 55.3899 10.42C55.3899 10.768 55.5519 11.032 55.8759 11.212C56.1999 11.392 56.6019 11.572 57.0819 11.752L60.0519 12.886C61.7079 13.486 63.0219 14.314 63.9939 15.37C64.9779 16.414 65.4699 17.704 65.4699 19.24C65.4699 20.596 65.1039 21.742 64.3719 22.678C63.6519 23.614 62.6619 24.322 61.4019 24.802C60.1539 25.282 58.7439 25.528 57.1719 25.54C55.2999 25.54 53.6319 25.324 52.1679 24.892C50.7159 24.46 49.6059 23.998 48.8379 23.506Z" fill="#364760"/>
</svg>
