<svg width="167" height="26" viewBox="0 0 167 26" fill="none" xmlns="http://www.w3.org/2000/svg">
<path d="M18.3455 8.764C18.3455 10.648 17.9615 12.226 17.1935 13.498C16.4375 14.758 15.3935 15.706 14.0615 16.342C12.7415 16.978 11.2295 17.296 9.52555 17.296H6.69955V25C6.21955 25.084 5.70955 25.138 5.16955 25.162C4.64155 25.198 4.18555 25.216 3.80155 25.216C3.45355 25.216 3.00355 25.198 2.45155 25.162C1.89955 25.138 1.38955 25.084 0.921547 25V0.591999L1.17355 0.339998C2.70955 0.303999 4.14355 0.273999 5.47555 0.249998C6.81955 0.213999 8.16955 0.196 9.52555 0.196C11.2295 0.196 12.7415 0.507999 14.0615 1.132C15.3935 1.744 16.4375 2.686 17.1935 3.958C17.9615 5.218 18.3455 6.82 18.3455 8.764ZM6.69955 4.588V12.976C7.20355 12.964 7.67155 12.952 8.10355 12.94C8.54755 12.928 8.85955 12.922 9.03955 12.922C9.99955 12.922 10.7255 12.694 11.2175 12.238C11.7095 11.782 12.0395 11.236 12.2075 10.6C12.3755 9.952 12.4595 9.34 12.4595 8.764C12.4595 8.2 12.3755 7.6 12.2075 6.964C12.0395 6.316 11.7095 5.764 11.2175 5.308C10.7255 4.852 9.99955 4.624 9.03955 4.624C8.67955 4.624 8.31955 4.624 7.95955 4.624C7.59955 4.612 7.17955 4.6 6.69955 4.588ZM24.6613 21.526C24.4693 21.526 24.2833 21.526 24.1033 21.526C23.9233 21.514 23.7433 21.502 23.5633 21.49L22.4473 25C22.0993 25.084 21.7213 25.144 21.3133 25.18C20.9053 25.228 20.4793 25.252 20.0353 25.252C19.5553 25.252 19.0693 25.216 18.5773 25.144C18.0973 25.072 17.7013 24.97 17.3893 24.838L17.1913 24.532L24.1933 5.164C24.8173 5.068 25.4173 5.008 25.9933 4.984C26.5813 4.96 27.1153 4.948 27.5953 4.948C28.0393 4.948 28.5193 4.96 29.0353 4.984C29.5513 5.008 30.1333 5.068 30.7813 5.164L37.5853 24.73C37.1653 24.922 36.6313 25.066 35.9833 25.162C35.3353 25.27 34.8133 25.324 34.4173 25.324C33.7573 25.324 33.1213 25.198 32.5093 24.946C31.8973 24.694 31.4353 24.028 31.1233 22.948L30.6733 21.49C30.4813 21.502 30.2953 21.514 30.1153 21.526C29.9353 21.526 29.7433 21.526 29.5393 21.526H24.6613ZM25.3813 15.838L24.9853 17.08C25.1653 17.068 25.3453 17.062 25.5253 17.062C25.7053 17.05 25.8913 17.044 26.0833 17.044H28.3333C28.5133 17.044 28.6753 17.05 28.8193 17.062C28.9753 17.062 29.1313 17.068 29.2873 17.08L28.9093 15.856C28.6333 14.908 28.3573 13.852 28.0813 12.688C27.8053 11.524 27.5533 10.468 27.3253 9.52H27.1093C26.8573 10.432 26.5753 11.476 26.2633 12.652C25.9633 13.828 25.6693 14.89 25.3813 15.838ZM38.4023 23.506C38.4023 23.05 38.4923 22.546 38.6723 21.994C38.8523 21.43 39.0983 20.908 39.4103 20.428C39.7223 19.948 40.0643 19.588 40.4363 19.348C41.3243 19.828 42.3143 20.242 43.4063 20.59C44.4983 20.926 45.5663 21.094 46.6103 21.094C47.2823 21.094 47.8343 20.956 48.2663 20.68C48.7103 20.404 48.9323 20.014 48.9323 19.51C48.9323 19.186 48.8063 18.892 48.5543 18.628C48.3023 18.352 47.8643 18.1 47.2403 17.872L44.2523 16.702C43.3283 16.366 42.4643 15.946 41.6603 15.442C40.8563 14.938 40.2083 14.32 39.7163 13.588C39.2243 12.856 38.9783 11.98 38.9783 10.96C38.9783 9.088 39.6983 7.564 41.1383 6.388C42.5783 5.212 44.5163 4.624 46.9523 4.624C48.3323 4.624 49.7003 4.786 51.0563 5.11C52.4243 5.422 53.5703 5.782 54.4943 6.19C54.4943 7.006 54.3263 7.81 53.9903 8.602C53.6543 9.394 53.1923 10.018 52.6043 10.474C51.7163 10.078 50.7503 9.748 49.7063 9.484C48.6623 9.208 47.7203 9.07 46.8803 9.07C46.2563 9.07 45.7763 9.202 45.4403 9.466C45.1163 9.73 44.9543 10.048 44.9543 10.42C44.9543 10.768 45.1163 11.032 45.4403 11.212C45.7643 11.392 46.1663 11.572 46.6463 11.752L49.6163 12.886C51.2723 13.486 52.5863 14.314 53.5583 15.37C54.5423 16.414 55.0343 17.704 55.0343 19.24C55.0343 20.596 54.6683 21.742 53.9363 22.678C53.2163 23.614 52.2263 24.322 50.9663 24.802C49.7183 25.282 48.3083 25.528 46.7363 25.54C44.8643 25.54 43.1963 25.324 41.7323 24.892C40.2803 24.46 39.1703 23.998 38.4023 23.506ZM57.1055 23.506C57.1055 23.05 57.1955 22.546 57.3755 21.994C57.5555 21.43 57.8015 20.908 58.1135 20.428C58.4255 19.948 58.7675 19.588 59.1395 19.348C60.0275 19.828 61.0175 20.242 62.1095 20.59C63.2015 20.926 64.2695 21.094 65.3135 21.094C65.9855 21.094 66.5375 20.956 66.9695 20.68C67.4135 20.404 67.6355 20.014 67.6355 19.51C67.6355 19.186 67.5095 18.892 67.2575 18.628C67.0055 18.352 66.5675 18.1 65.9435 17.872L62.9555 16.702C62.0315 16.366 61.1675 15.946 60.3635 15.442C59.5595 14.938 58.9115 14.32 58.4195 13.588C57.9275 12.856 57.6815 11.98 57.6815 10.96C57.6815 9.088 58.4015 7.564 59.8415 6.388C61.2815 5.212 63.2195 4.624 65.6555 4.624C67.0355 4.624 68.4035 4.786 69.7595 5.11C71.1275 5.422 72.2735 5.782 73.1975 6.19C73.1975 7.006 73.0295 7.81 72.6935 8.602C72.3575 9.394 71.8955 10.018 71.3075 10.474C70.4195 10.078 69.4535 9.748 68.4095 9.484C67.3655 9.208 66.4235 9.07 65.5835 9.07C64.9595 9.07 64.4795 9.202 64.1435 9.466C63.8195 9.73 63.6575 10.048 63.6575 10.42C63.6575 10.768 63.8195 11.032 64.1435 11.212C64.4675 11.392 64.8695 11.572 65.3495 11.752L68.3195 12.886C69.9755 13.486 71.2895 14.314 72.2615 15.37C73.2455 16.414 73.7375 17.704 73.7375 19.24C73.7375 20.596 73.3715 21.742 72.6395 22.678C71.9195 23.614 70.9295 24.322 69.6695 24.802C68.4215 25.282 67.0115 25.528 65.4395 25.54C63.5675 25.54 61.8995 25.324 60.4355 24.892C58.9835 24.46 57.8735 23.998 57.1055 23.506ZM74.8397 5.434C75.2357 5.278 75.7277 5.152 76.3157 5.056C76.9157 4.96 77.4677 4.912 77.9717 4.912C78.9557 4.912 79.6457 5.146 80.0417 5.614C80.4497 6.082 80.7617 6.91 80.9777 8.098L82.2197 15.154C82.3517 15.874 82.4777 16.672 82.5977 17.548C82.7297 18.424 82.8437 19.246 82.9397 20.014C82.9637 20.206 82.9937 20.326 83.0297 20.374C83.0657 20.41 83.1437 20.428 83.2637 20.428L85.7657 5.434C86.2937 5.35 86.8697 5.29 87.4937 5.254C88.1177 5.218 88.7117 5.2 89.2757 5.2C89.8397 5.2 90.4217 5.218 91.0217 5.254C91.6337 5.29 92.2097 5.35 92.7497 5.434L95.0537 20.014C95.1017 20.29 95.2217 20.428 95.4137 20.428C95.4977 19.612 95.5997 18.718 95.7197 17.746C95.8517 16.774 95.9957 15.892 96.1517 15.1L97.9517 5.182C98.3957 5.086 98.8157 5.032 99.2117 5.02C99.6197 4.996 100.016 4.984 100.4 4.984C100.868 4.984 101.348 5.02 101.84 5.092C102.332 5.152 102.77 5.254 103.154 5.398L103.424 5.704L99.2657 25C98.7257 25.108 97.9877 25.186 97.0517 25.234C96.1157 25.282 95.2757 25.306 94.5317 25.306C93.7277 25.306 93.0017 25.162 92.3537 24.874C91.7177 24.574 91.3097 23.89 91.1297 22.822L90.1937 17.224C90.0017 16 89.8217 14.746 89.6537 13.462C89.4977 12.166 89.3837 11.158 89.3117 10.438H89.0597C88.9757 11.158 88.8497 12.16 88.6817 13.444C88.5137 14.716 88.3217 15.976 88.1057 17.224L86.7737 25C86.1977 25.084 85.4597 25.144 84.5597 25.18C83.6597 25.228 82.8137 25.252 82.0217 25.252C81.1337 25.252 80.3777 25.114 79.7537 24.838C79.1417 24.562 78.7277 23.89 78.5117 22.822L74.8397 5.434ZM104.788 15.118C104.788 11.902 105.616 9.352 107.272 7.468C108.94 5.572 111.37 4.624 114.562 4.624C117.802 4.624 120.244 5.566 121.888 7.45C123.544 9.322 124.372 11.878 124.372 15.118C124.372 18.358 123.544 20.908 121.888 22.768C120.232 24.616 117.79 25.54 114.562 25.54C111.322 25.54 108.88 24.604 107.236 22.732C105.604 20.86 104.788 18.322 104.788 15.118ZM110.602 15.118C110.602 15.802 110.644 16.51 110.728 17.242C110.824 17.962 111.004 18.634 111.268 19.258C111.544 19.882 111.946 20.392 112.474 20.788C113.002 21.172 113.704 21.364 114.58 21.364C115.456 21.364 116.158 21.172 116.686 20.788C117.214 20.392 117.61 19.882 117.874 19.258C118.15 18.634 118.33 17.962 118.414 17.242C118.51 16.51 118.558 15.802 118.558 15.118C118.558 14.422 118.51 13.708 118.414 12.976C118.33 12.232 118.15 11.548 117.874 10.924C117.61 10.288 117.214 9.778 116.686 9.394C116.158 8.998 115.456 8.8 114.58 8.8C113.704 8.8 113.002 8.998 112.474 9.394C111.946 9.778 111.544 10.288 111.268 10.924C111.004 11.548 110.824 12.232 110.728 12.976C110.644 13.708 110.602 14.422 110.602 15.118ZM144.242 11.194C144.242 12.118 144.032 12.94 143.612 13.66C143.192 14.38 142.664 14.974 142.028 15.442C141.404 15.91 140.78 16.21 140.156 16.342C140.804 16.558 141.338 16.888 141.758 17.332C142.19 17.776 142.562 18.346 142.874 19.042L143.81 21.184C144.026 21.676 144.272 22.132 144.548 22.552C144.824 22.96 145.13 23.308 145.466 23.596C145.118 24.028 144.596 24.43 143.9 24.802C143.204 25.162 142.448 25.342 141.632 25.342C140.828 25.342 140.174 25.15 139.67 24.766C139.178 24.37 138.746 23.74 138.374 22.876L136.79 19.24C136.538 18.652 136.226 18.298 135.854 18.178C135.482 18.058 135.002 17.998 134.414 17.998H133.712V25C133.232 25.084 132.734 25.138 132.218 25.162C131.714 25.198 131.282 25.216 130.922 25.216C130.586 25.216 130.142 25.198 129.59 25.162C129.038 25.138 128.534 25.084 128.078 25V5.344L128.276 5.128C129.728 5.092 131.09 5.062 132.362 5.038C133.646 5.002 134.924 4.984 136.196 4.984C137.636 4.984 138.968 5.176 140.192 5.56C141.416 5.932 142.394 6.574 143.126 7.486C143.87 8.386 144.242 9.622 144.242 11.194ZM133.712 9.052V13.714C134.132 13.702 134.516 13.696 134.864 13.696C135.224 13.684 135.488 13.678 135.656 13.678C136.736 13.678 137.468 13.444 137.852 12.976C138.236 12.508 138.428 11.962 138.428 11.338C138.428 10.726 138.236 10.198 137.852 9.754C137.468 9.31 136.826 9.088 135.926 9.088C135.494 9.088 135.122 9.082 134.81 9.07C134.498 9.058 134.132 9.052 133.712 9.052ZM166.664 15.118C166.664 18.478 165.878 20.992 164.306 22.66C162.734 24.316 160.256 25.144 156.872 25.144C155.444 25.144 154.088 25.132 152.804 25.108C151.532 25.096 150.188 25.072 148.772 25.036L148.574 24.82V5.344L148.772 5.128C150.2 5.092 151.55 5.062 152.822 5.038C154.094 5.002 155.444 4.984 156.872 4.984C160.22 4.984 162.686 5.854 164.27 7.594C165.866 9.322 166.664 11.83 166.664 15.118ZM160.868 15.118C160.868 14.242 160.778 13.366 160.598 12.49C160.418 11.602 160.04 10.858 159.464 10.258C158.888 9.658 158.024 9.358 156.872 9.358C156.344 9.358 155.888 9.358 155.504 9.358C155.132 9.346 154.7 9.334 154.208 9.322V20.842C154.724 20.842 155.162 20.836 155.522 20.824C155.894 20.812 156.344 20.806 156.872 20.806C158.024 20.806 158.888 20.512 159.464 19.924C160.04 19.324 160.418 18.586 160.598 17.71C160.778 16.834 160.868 15.97 160.868 15.118Z" fill="#364760"/>
</svg>
