<svg width="199" height="35" viewBox="0 0 199 35" fill="none" xmlns="http://www.w3.org/2000/svg">
<path d="M23.9191 12.352C23.9191 14.864 23.4071 16.968 22.3831 18.664C21.3751 20.344 19.9831 21.608 18.2071 22.456C16.4471 23.304 14.4311 23.728 12.1591 23.728H8.39106V34C7.75106 34.112 7.07106 34.184 6.35106 34.216C5.64706 34.264 5.03906 34.288 4.52706 34.288C4.06306 34.288 3.46306 34.264 2.72706 34.216C1.99106 34.184 1.31106 34.112 0.687063 34V1.456L1.02306 1.12C3.07106 1.072 4.98306 1.032 6.75906 0.999997C8.55106 0.951999 10.3511 0.927999 12.1591 0.927999C14.4311 0.927999 16.4471 1.344 18.2071 2.176C19.9831 2.992 21.3751 4.248 22.3831 5.944C23.4071 7.624 23.9191 9.76 23.9191 12.352ZM8.39106 6.784V17.968C9.06306 17.952 9.68706 17.936 10.2631 17.92C10.8551 17.904 11.2711 17.896 11.5111 17.896C12.7911 17.896 13.7591 17.592 14.4151 16.984C15.0711 16.376 15.5111 15.648 15.7351 14.8C15.9591 13.936 16.0711 13.12 16.0711 12.352C16.0711 11.6 15.9591 10.8 15.7351 9.952C15.5111 9.088 15.0711 8.352 14.4151 7.744C13.7591 7.136 12.7911 6.832 11.5111 6.832C11.0311 6.832 10.5511 6.832 10.0711 6.832C9.59106 6.816 9.03106 6.8 8.39106 6.784ZM50.2658 15.592C50.2658 16.824 49.9858 17.92 49.4258 18.88C48.8658 19.84 48.1618 20.632 47.3138 21.256C46.4818 21.88 45.6498 22.28 44.8178 22.456C45.6818 22.744 46.3938 23.184 46.9538 23.776C47.5298 24.368 48.0258 25.128 48.4418 26.056L49.6898 28.912C49.9778 29.568 50.3058 30.176 50.6738 30.736C51.0418 31.28 51.4498 31.744 51.8978 32.128C51.4338 32.704 50.7378 33.24 49.8098 33.736C48.8818 34.216 47.8738 34.456 46.7858 34.456C45.7138 34.456 44.8418 34.2 44.1698 33.688C43.5138 33.16 42.9378 32.32 42.4418 31.168L40.3298 26.32C39.9938 25.536 39.5778 25.064 39.0818 24.904C38.5858 24.744 37.9458 24.664 37.1618 24.664H36.2258V34C35.5858 34.112 34.9218 34.184 34.2338 34.216C33.5618 34.264 32.9858 34.288 32.5058 34.288C32.0578 34.288 31.4658 34.264 30.7298 34.216C29.9938 34.184 29.3218 34.112 28.7138 34V7.792L28.9778 7.504C30.9138 7.456 32.7298 7.416 34.4258 7.384C36.1378 7.336 37.8418 7.312 39.5378 7.312C41.4578 7.312 43.2338 7.568 44.8658 8.08C46.4978 8.576 47.8018 9.432 48.7778 10.648C49.7698 11.848 50.2658 13.496 50.2658 15.592ZM36.2258 12.736V18.952C36.7858 18.936 37.2978 18.928 37.7618 18.928C38.2418 18.912 38.5938 18.904 38.8178 18.904C40.2578 18.904 41.2338 18.592 41.7458 17.968C42.2578 17.344 42.5138 16.616 42.5138 15.784C42.5138 14.968 42.2578 14.264 41.7458 13.672C41.2338 13.08 40.3778 12.784 39.1778 12.784C38.6018 12.784 38.1058 12.776 37.6898 12.76C37.2738 12.744 36.7858 12.736 36.2258 12.736ZM53.8167 20.824C53.8167 16.536 54.9207 13.136 57.1287 10.624C59.3527 8.096 62.5927 6.832 66.8487 6.832C71.1687 6.832 74.4247 8.088 76.6167 10.6C78.8247 13.096 79.9287 16.504 79.9287 20.824C79.9287 25.144 78.8247 28.544 76.6167 31.024C74.4087 33.488 71.1527 34.72 66.8487 34.72C62.5287 34.72 59.2727 33.472 57.0807 30.976C54.9047 28.48 53.8167 25.096 53.8167 20.824ZM61.5687 20.824C61.5687 21.736 61.6247 22.68 61.7367 23.656C61.8647 24.616 62.1047 25.512 62.4567 26.344C62.8247 27.176 63.3607 27.856 64.0647 28.384C64.7687 28.896 65.7047 29.152 66.8727 29.152C68.0407 29.152 68.9767 28.896 69.6807 28.384C70.3847 27.856 70.9127 27.176 71.2647 26.344C71.6327 25.512 71.8727 24.616 71.9847 23.656C72.1127 22.68 72.1767 21.736 72.1767 20.824C72.1767 19.896 72.1127 18.944 71.9847 17.968C71.8727 16.976 71.6327 16.064 71.2647 15.232C70.9127 14.384 70.3847 13.704 69.6807 13.192C68.9767 12.664 68.0407 12.4 66.8727 12.4C65.7047 12.4 64.7687 12.664 64.0647 13.192C63.3607 13.704 62.8247 14.384 62.4567 15.232C62.1047 16.064 61.8647 16.976 61.7367 17.968C61.6247 18.944 61.5687 19.896 61.5687 20.824ZM83.5373 27.352C84.9453 28.248 86.2813 28.696 87.5453 28.696C88.7773 28.696 89.6733 28.304 90.2333 27.52C90.7933 26.72 91.0733 25.552 91.0733 24.016V7.552C91.6813 7.424 92.3533 7.344 93.0893 7.312C93.8253 7.28 94.4173 7.264 94.8653 7.264C95.3613 7.264 95.9613 7.28 96.6653 7.312C97.3693 7.328 98.0333 7.408 98.6573 7.552V23.728C98.6573 27.248 97.8973 29.96 96.3773 31.864C94.8733 33.752 92.2573 34.696 88.5293 34.696C87.1373 34.696 85.7213 34.488 84.2813 34.072C82.8573 33.656 81.7613 33.16 80.9933 32.584C81.1533 31.656 81.4493 30.728 81.8813 29.8C82.3133 28.856 82.8653 28.04 83.5373 27.352ZM125.162 27.976C125.162 30.264 124.802 31.856 124.082 32.752C123.378 33.648 122.178 34.096 120.482 34.096H109.418C108.058 34.096 106.986 33.712 106.202 32.944C105.418 32.16 105.026 31.112 105.026 29.8V7.816L105.29 7.552H124.274C124.386 8.096 124.45 8.616 124.466 9.112C124.482 9.608 124.49 10.08 124.49 10.528C124.49 10.96 124.442 11.448 124.346 11.992C124.266 12.536 124.122 13.088 123.914 13.648H115.514C114.842 13.648 113.826 13.64 112.466 13.624C112.482 14.12 112.49 14.544 112.49 14.896C112.506 15.248 112.514 15.672 112.514 16.168V17.752C113.842 17.736 114.842 17.728 115.514 17.728H121.658C121.818 18.16 121.922 18.656 121.97 19.216C122.034 19.76 122.066 20.224 122.066 20.608C122.066 21.056 122.034 21.56 121.97 22.12C121.922 22.664 121.818 23.16 121.658 23.608H115.514C115.21 23.608 114.786 23.608 114.242 23.608C113.698 23.608 113.122 23.608 112.514 23.608V25.168C112.514 25.76 112.506 26.248 112.49 26.632C112.474 27.016 112.466 27.496 112.466 28.072V28.12C113.026 28.088 113.546 28.056 114.026 28.024C114.506 27.992 115.09 27.976 115.778 27.976H125.162ZM144.604 19.528C144.604 17.496 144.332 15.864 143.788 14.632C143.244 13.384 142.148 12.76 140.5 12.76C138.788 12.76 137.572 13.464 136.852 14.872C136.132 16.28 135.772 18.304 135.772 20.944C135.772 22.96 136.028 24.512 136.54 25.6C137.068 26.672 137.74 27.416 138.556 27.832C139.372 28.248 140.236 28.456 141.148 28.456C142.332 28.456 143.516 28.2 144.7 27.688C145.9 27.16 146.972 26.544 147.916 25.84C148.428 26.096 148.924 26.504 149.404 27.064C149.884 27.624 150.3 28.224 150.652 28.864C151.004 29.504 151.228 30.088 151.324 30.616C149.996 31.752 148.38 32.72 146.476 33.52C144.588 34.32 142.436 34.72 140.02 34.72C137.7 34.72 135.764 34.312 134.212 33.496C132.676 32.68 131.452 31.608 130.54 30.28C129.628 28.936 128.98 27.448 128.596 25.816C128.212 24.184 128.02 22.544 128.02 20.896C128.02 17.616 128.612 14.944 129.796 12.88C130.996 10.8 132.564 9.272 134.5 8.296C136.452 7.32 138.54 6.832 140.764 6.832C143.26 6.832 145.316 7.272 146.932 8.152C148.548 9.032 149.748 10.144 150.532 11.488C151.316 12.832 151.708 14.216 151.708 15.64C151.708 18.376 150.172 19.744 147.1 19.744C146.732 19.744 146.332 19.72 145.9 19.672C145.468 19.624 145.036 19.576 144.604 19.528ZM160.996 16.552C160.996 16.04 161.004 15.568 161.02 15.136C161.036 14.688 161.044 14.192 161.044 13.648C160.708 13.648 160.244 13.656 159.652 13.672C159.076 13.688 158.62 13.696 158.284 13.696H153.844C153.716 13.12 153.636 12.584 153.604 12.088C153.572 11.576 153.556 11.112 153.556 10.696C153.556 10.28 153.572 9.792 153.604 9.232C153.636 8.656 153.716 8.096 153.844 7.552H175.564C175.676 7.984 175.756 8.472 175.804 9.016C175.868 9.56 175.9 10 175.9 10.336C175.9 11.424 175.612 12.256 175.036 12.832C174.46 13.408 173.5 13.696 172.156 13.696H171.172C170.836 13.696 170.388 13.688 169.828 13.672C169.284 13.656 168.86 13.648 168.556 13.648C168.556 14.192 168.564 14.688 168.58 15.136C168.596 15.568 168.604 16.04 168.604 16.552V34C168.156 34.096 167.54 34.168 166.756 34.216C165.972 34.264 165.316 34.288 164.788 34.288C164.292 34.288 163.668 34.264 162.916 34.216C162.164 34.168 161.524 34.096 160.996 34V16.552ZM176.568 32.008C176.568 31.4 176.688 30.728 176.928 29.992C177.168 29.24 177.496 28.544 177.912 27.904C178.328 27.264 178.784 26.784 179.28 26.464C180.464 27.104 181.784 27.656 183.24 28.12C184.696 28.568 186.12 28.792 187.512 28.792C188.408 28.792 189.144 28.608 189.72 28.24C190.312 27.872 190.608 27.352 190.608 26.68C190.608 26.248 190.44 25.856 190.104 25.504C189.768 25.136 189.184 24.8 188.352 24.496L184.368 22.936C183.136 22.488 181.984 21.928 180.912 21.256C179.84 20.584 178.976 19.76 178.32 18.784C177.664 17.808 177.336 16.64 177.336 15.28C177.336 12.784 178.296 10.752 180.216 9.184C182.136 7.616 184.72 6.832 187.968 6.832C189.808 6.832 191.632 7.048 193.44 7.48C195.264 7.896 196.792 8.376 198.024 8.92C198.024 10.008 197.8 11.08 197.352 12.136C196.904 13.192 196.288 14.024 195.504 14.632C194.32 14.104 193.032 13.664 191.64 13.312C190.248 12.944 188.992 12.76 187.872 12.76C187.04 12.76 186.4 12.936 185.952 13.288C185.52 13.64 185.304 14.064 185.304 14.56C185.304 15.024 185.52 15.376 185.952 15.616C186.384 15.856 186.92 16.096 187.56 16.336L191.52 17.848C193.728 18.648 195.48 19.752 196.776 21.16C198.088 22.552 198.744 24.272 198.744 26.32C198.744 28.128 198.256 29.656 197.28 30.904C196.32 32.152 195 33.096 193.32 33.736C191.656 34.376 189.776 34.704 187.68 34.72C185.184 34.72 182.96 34.432 181.008 33.856C179.072 33.28 177.592 32.664 176.568 32.008Z" fill="white"/>
</svg>
