<svg width="392" height="29" viewBox="0 0 392 29" fill="none" xmlns="http://www.w3.org/2000/svg">
<path d="M17.1648 8.03494C17.1648 9.11847 16.956 10.0835 16.5384 10.93C16.1208 11.7652 15.596 12.465 14.9639 13.0293C14.3319 13.5824 13.6942 13.983 13.0508 14.2313C13.6829 14.4571 14.2077 14.8465 14.6253 15.3995C15.0542 15.9526 15.3985 16.6016 15.6581 17.3465L16.6739 20.2077C17.0576 21.3025 17.6163 22.1377 18.3499 22.7133C18.0001 23.1648 17.4922 23.5429 16.8262 23.8476C16.1603 24.1524 15.4662 24.3047 14.7438 24.3047C13.7732 24.3047 13.0678 24.0451 12.6276 23.526C12.1874 22.9955 11.7867 22.2111 11.4255 21.1727L10.2066 17.6343C10.0147 17.0474 9.71561 16.5508 9.30929 16.1444C8.90297 15.7268 8.24834 15.518 7.3454 15.518H5.9402V24C5.48873 24.079 5.02034 24.1298 4.53501 24.1524C4.04968 24.1862 3.62078 24.2032 3.24832 24.2032C2.92101 24.2032 2.5034 24.1862 1.9955 24.1524C1.48759 24.1298 1.01355 24.079 0.573371 24V1.04282L0.810392 0.805801C2.25509 0.771942 3.64336 0.743725 4.97519 0.721151C6.31831 0.687291 7.63321 0.670362 8.9199 0.670362C10.4887 0.670362 11.8939 0.929956 13.1355 1.44915C14.3883 1.96833 15.3703 2.76969 16.0813 3.85321C16.8037 4.93674 17.1648 6.33065 17.1648 8.03494ZM5.9402 4.73358V11.3702C6.47068 11.3476 6.96729 11.3307 7.43005 11.3194C7.90409 11.3081 8.24834 11.3024 8.46278 11.3024C9.32057 11.3024 9.9752 11.1501 10.4267 10.8453C10.8894 10.5293 11.2055 10.123 11.3748 9.62637C11.5553 9.12975 11.6456 8.59928 11.6456 8.03494C11.6456 7.44803 11.5553 6.90627 11.3748 6.40966C11.2055 5.91304 10.8894 5.518 10.4267 5.22455C9.9752 4.91981 9.32057 4.76744 8.46278 4.76744C8.1129 4.76744 7.7235 4.76744 7.29461 4.76744C6.877 4.76744 6.42553 4.75615 5.9402 4.73358ZM26.0103 20.7325C25.8297 20.7325 25.6547 20.7325 25.4854 20.7325C25.3161 20.7212 25.1468 20.7099 24.9775 20.6986L23.9279 24C23.6006 24.079 23.245 24.1354 22.8613 24.1693C22.4775 24.2144 22.0769 24.237 21.6592 24.237C21.2078 24.237 20.7507 24.2032 20.2879 24.1354C19.8364 24.0677 19.464 23.9718 19.1705 23.8476L18.9843 23.5598L25.5701 5.34306C26.157 5.25277 26.7213 5.19633 27.2631 5.17376C27.8161 5.15119 28.3184 5.1399 28.7699 5.1399C29.1875 5.1399 29.639 5.15119 30.1243 5.17376C30.6096 5.19633 31.157 5.25277 31.7665 5.34306L38.1661 23.746C37.771 23.9266 37.2688 24.0621 36.6593 24.1524C36.0498 24.254 35.5588 24.3047 35.1864 24.3047C34.5656 24.3047 33.9674 24.1862 33.3918 23.9492C32.8162 23.7122 32.3816 23.0858 32.0882 22.07L31.6649 20.6986C31.4843 20.7099 31.3094 20.7212 31.1401 20.7325C30.9708 20.7325 30.7902 20.7325 30.5983 20.7325H26.0103ZM26.6875 15.3826L26.315 16.5508C26.4843 16.5395 26.6536 16.5338 26.8229 16.5338C26.9922 16.5226 27.1672 16.5169 27.3477 16.5169H29.464C29.6333 16.5169 29.7857 16.5226 29.9211 16.5338C30.0678 16.5338 30.2146 16.5395 30.3613 16.5508L30.0058 15.3995C29.7462 14.5079 29.4866 13.5146 29.227 12.4198C28.9674 11.325 28.7304 10.3318 28.5159 9.44014H28.3128C28.0757 10.2979 27.8105 11.2799 27.517 12.386C27.2349 13.4921 26.9584 14.4909 26.6875 15.3826ZM41.9312 5.34306C42.4729 5.24148 43.0655 5.17376 43.7088 5.1399C44.3522 5.09475 44.8939 5.07218 45.3341 5.07218C45.7517 5.07218 46.2935 5.09475 46.9594 5.1399C47.6253 5.17376 48.184 5.24148 48.6355 5.34306L50.2946 12.6907C50.3962 13.1309 50.5147 13.7291 50.6501 14.4853C50.7856 15.2302 50.921 16.0316 51.0565 16.8894H51.2766C51.5474 15.0835 51.8014 13.6839 52.0384 12.6907L53.6806 5.34306C54.2111 5.24148 54.7924 5.17376 55.4244 5.1399C56.0565 5.09475 56.5813 5.07218 56.9989 5.07218C57.4391 5.07218 57.9865 5.09475 58.6411 5.1399C59.2958 5.17376 59.8827 5.24148 60.4019 5.34306L62.315 23.9323C61.5813 24.1129 60.6953 24.2032 59.6569 24.2032C59.2619 24.2032 58.8387 24.1862 58.3872 24.1524C57.947 24.1185 57.552 24.0677 57.2021 24L56.7111 18.0068C56.6547 17.2393 56.6208 16.3984 56.6095 15.4842C56.5982 14.5699 56.5982 13.6783 56.6095 12.8092C56.6208 11.9289 56.6208 11.167 56.6095 10.5237H56.4064L53.9176 21.1388C53.5339 21.2065 53.0655 21.2573 52.5124 21.2912C51.9594 21.3138 51.5023 21.325 51.1411 21.325C50.7686 21.325 50.3059 21.3138 49.7528 21.2912C49.2111 21.2573 48.7596 21.2065 48.3984 21.1388L45.9266 10.5237H45.6896C45.6896 11.1783 45.6896 11.9401 45.6896 12.8092C45.7009 13.6783 45.7009 14.5699 45.6896 15.4842C45.6783 16.3984 45.6388 17.2505 45.5711 18.0406L45.1309 24C44.7698 24.0677 44.3747 24.1185 43.9458 24.1524C43.5282 24.1862 43.1219 24.2032 42.7269 24.2032C41.6772 24.2032 40.7743 24.1129 40.0181 23.9323L41.9312 5.34306ZM71.2122 20.7325C71.0317 20.7325 70.8567 20.7325 70.6874 20.7325C70.5181 20.7212 70.3488 20.7099 70.1795 20.6986L69.1298 24C68.8025 24.079 68.447 24.1354 68.0632 24.1693C67.6795 24.2144 67.2788 24.237 66.8612 24.237C66.4097 24.237 65.9526 24.2032 65.4899 24.1354C65.0384 24.0677 64.6659 23.9718 64.3725 23.8476L64.1863 23.5598L70.7721 5.34306C71.359 5.25277 71.9233 5.19633 72.4651 5.17376C73.0181 5.15119 73.5204 5.1399 73.9718 5.1399C74.3895 5.1399 74.8409 5.15119 75.3262 5.17376C75.8116 5.19633 76.359 5.25277 76.9685 5.34306L83.368 23.746C82.973 23.9266 82.4707 24.0621 81.8613 24.1524C81.2518 24.254 80.7608 24.3047 80.3883 24.3047C79.7676 24.3047 79.1694 24.1862 78.5938 23.9492C78.0181 23.7122 77.5836 23.0858 77.2901 22.07L76.8669 20.6986C76.6863 20.7099 76.5114 20.7212 76.3421 20.7325C76.1728 20.7325 75.9922 20.7325 75.8003 20.7325H71.2122ZM71.8894 15.3826L71.517 16.5508C71.6863 16.5395 71.8556 16.5338 72.0249 16.5338C72.1942 16.5226 72.3691 16.5169 72.5497 16.5169H74.666C74.8353 16.5169 74.9876 16.5226 75.1231 16.5338C75.2698 16.5338 75.4165 16.5395 75.5633 16.5508L75.2077 15.3995C74.9481 14.5079 74.6885 13.5146 74.429 12.4198C74.1694 11.325 73.9323 10.3318 73.7179 9.44014H73.5147C73.2777 10.2979 73.0125 11.2799 72.719 12.386C72.4368 13.4921 72.1603 14.4909 71.8894 15.3826ZM98.1284 20.7325C97.9478 20.7325 97.7729 20.7325 97.6036 20.7325C97.4343 20.7212 97.265 20.7099 97.0957 20.6986L96.046 24C95.7187 24.079 95.3632 24.1354 94.9794 24.1693C94.5957 24.2144 94.195 24.237 93.7774 24.237C93.3259 24.237 92.8688 24.2032 92.406 24.1354C91.9546 24.0677 91.5821 23.9718 91.2887 23.8476L91.1024 23.5598L97.6882 5.34306C98.2751 5.25277 98.8395 5.19633 99.3812 5.17376C99.9343 5.15119 100.437 5.1399 100.888 5.1399C101.306 5.1399 101.757 5.15119 102.242 5.17376C102.728 5.19633 103.275 5.25277 103.885 5.34306L110.284 23.746C109.889 23.9266 109.387 24.0621 108.777 24.1524C108.168 24.254 107.677 24.3047 107.305 24.3047C106.684 24.3047 106.086 24.1862 105.51 23.9492C104.934 23.7122 104.5 23.0858 104.206 22.07L103.783 20.6986C103.602 20.7099 103.428 20.7212 103.258 20.7325C103.089 20.7325 102.908 20.7325 102.716 20.7325H98.1284ZM98.8056 15.3826L98.4331 16.5508C98.6025 16.5395 98.7718 16.5338 98.9411 16.5338C99.1104 16.5226 99.2853 16.5169 99.4659 16.5169H101.582C101.751 16.5169 101.904 16.5226 102.039 16.5338C102.186 16.5338 102.333 16.5395 102.479 16.5508L102.124 15.3995C101.864 14.5079 101.605 13.5146 101.345 12.4198C101.086 11.325 100.849 10.3318 100.634 9.44014H100.431C100.194 10.2979 99.9286 11.2799 99.6352 12.386C99.353 13.4921 99.0765 14.4909 98.8056 15.3826ZM133.476 19.6659C133.408 21.3138 133.12 22.465 132.612 23.1196C132.104 23.7743 131.201 24.1016 129.903 24.1016H123.335C122.364 24.1016 121.602 23.8307 121.049 23.2889C120.507 22.7359 120.236 21.9966 120.236 21.0711V5.37692L120.44 5.17376H122.471C123.498 5.17376 124.277 5.43335 124.808 5.95254C125.338 6.46045 125.603 7.31259 125.603 8.50898V19.8352C126.766 19.7223 127.81 19.6659 128.735 19.6659H133.476ZM141.379 20.7325C141.199 20.7325 141.024 20.7325 140.855 20.7325C140.685 20.7212 140.516 20.7099 140.347 20.6986L139.297 24C138.97 24.079 138.614 24.1354 138.23 24.1693C137.847 24.2144 137.446 24.237 137.028 24.237C136.577 24.237 136.12 24.2032 135.657 24.1354C135.206 24.0677 134.833 23.9718 134.54 23.8476L134.353 23.5598L140.939 5.34306C141.526 5.25277 142.091 5.19633 142.632 5.17376C143.185 5.15119 143.688 5.1399 144.139 5.1399C144.557 5.1399 145.008 5.15119 145.493 5.17376C145.979 5.19633 146.526 5.25277 147.136 5.34306L153.535 23.746C153.14 23.9266 152.638 24.0621 152.028 24.1524C151.419 24.254 150.928 24.3047 150.556 24.3047C149.935 24.3047 149.337 24.1862 148.761 23.9492C148.185 23.7122 147.751 23.0858 147.457 22.07L147.034 20.6986C146.854 20.7099 146.679 20.7212 146.509 20.7325C146.34 20.7325 146.159 20.7325 145.967 20.7325H141.379ZM142.057 15.3826L141.684 16.5508C141.853 16.5395 142.023 16.5338 142.192 16.5338C142.361 16.5226 142.536 16.5169 142.717 16.5169H144.833C145.002 16.5169 145.155 16.5226 145.29 16.5338C145.437 16.5338 145.584 16.5395 145.73 16.5508L145.375 15.3995C145.115 14.5079 144.856 13.5146 144.596 12.4198C144.337 11.325 144.1 10.3318 143.885 9.44014H143.682C143.445 10.2979 143.18 11.2799 142.886 12.386C142.604 13.4921 142.328 14.4909 142.057 15.3826ZM162.184 14.7054C162.184 11.6806 162.963 9.28212 164.52 7.51011C166.089 5.72681 168.375 4.83516 171.377 4.83516C174.424 4.83516 176.721 5.72117 178.267 7.49318C179.825 9.25391 180.604 11.658 180.604 14.7054C180.604 16.5226 180.276 18.1478 179.622 19.5813C178.967 21.0147 178.008 22.0925 176.744 22.8149C177.635 23.5598 178.465 23.9831 179.232 24.0847C180.011 24.1975 180.643 24.2709 181.129 24.3047C181.061 25.5463 180.683 26.4831 179.994 27.1151C179.306 27.7472 178.493 28.0632 177.556 28.0632C177.094 28.0632 176.552 27.9786 175.931 27.8093C175.322 27.64 174.673 27.2167 173.984 26.5395L171.766 24.491C171.732 24.5023 171.693 24.5079 171.648 24.5079C168.487 24.5079 166.117 23.6501 164.537 21.9345C162.968 20.219 162.184 17.8092 162.184 14.7054ZM167.652 14.7054C167.652 15.3487 167.692 16.0146 167.771 16.7031C167.861 17.3803 168.03 18.0124 168.279 18.5993C168.538 19.1862 168.916 19.6659 169.413 20.0384C169.91 20.3995 170.57 20.5801 171.394 20.5801C172.218 20.5801 172.878 20.3995 173.375 20.0384C173.871 19.6659 174.244 19.1862 174.492 18.5993C174.752 18.0124 174.921 17.3803 175 16.7031C175.09 16.0146 175.135 15.3487 175.135 14.7054C175.135 14.0508 175.09 13.3792 175 12.6907C174.921 11.9909 174.752 11.3476 174.492 10.7607C174.244 10.1625 173.871 9.6828 173.375 9.32163C172.878 8.94917 172.218 8.76294 171.394 8.76294C170.57 8.76294 169.91 8.94917 169.413 9.32163C168.916 9.6828 168.538 10.1625 168.279 10.7607C168.03 11.3476 167.861 11.9909 167.771 12.6907C167.692 13.3792 167.652 14.0508 167.652 14.7054ZM200.408 17.0079C200.408 19.3442 199.708 21.1783 198.308 22.5102C196.92 23.842 194.86 24.5079 192.129 24.5079C189.398 24.5079 187.332 23.842 185.933 22.5102C184.544 21.1783 183.85 19.3442 183.85 17.0079V5.34306L184.053 5.1399H185.983C187.01 5.1399 187.8 5.39949 188.354 5.91868C188.918 6.43787 189.2 7.31259 189.2 8.54284V16.991C189.2 18.018 189.414 18.825 189.843 19.412C190.272 19.9989 191.034 20.2923 192.129 20.2923C193.235 20.2923 193.997 19.9989 194.414 19.412C194.832 18.825 195.041 18.018 195.041 16.991V5.34306C195.492 5.25277 195.955 5.19633 196.429 5.17376C196.903 5.15119 197.315 5.1399 197.665 5.1399C197.981 5.1399 198.41 5.15683 198.952 5.19069C199.493 5.21326 199.979 5.2697 200.408 5.35999V17.0079ZM219.159 19.7506C219.159 21.3646 218.905 22.4876 218.397 23.1196C217.9 23.7517 217.054 24.0677 215.857 24.0677H208.053C207.093 24.0677 206.337 23.7968 205.784 23.2551C205.231 22.702 204.955 21.9627 204.955 21.0372V5.52929L205.141 5.34306H218.532C218.611 5.72681 218.657 6.09363 218.668 6.44352C218.679 6.7934 218.685 7.12636 218.685 7.44239C218.685 7.74713 218.651 8.09138 218.583 8.47512C218.527 8.85887 218.425 9.24826 218.278 9.6433H212.353C211.879 9.6433 211.162 9.63766 210.203 9.62637C210.214 9.97626 210.22 10.2754 210.22 10.5237C210.231 10.772 210.237 11.0711 210.237 11.421V12.5383C211.173 12.5271 211.879 12.5214 212.353 12.5214H216.687C216.8 12.8262 216.873 13.176 216.907 13.5711C216.952 13.9548 216.975 14.2821 216.975 14.553C216.975 14.869 216.952 15.2246 216.907 15.6196C216.873 16.0034 216.8 16.3533 216.687 16.6693H212.353C212.138 16.6693 211.839 16.6693 211.456 16.6693C211.072 16.6693 210.666 16.6693 210.237 16.6693V17.7697C210.237 18.1873 210.231 18.5316 210.22 18.8025C210.208 19.0733 210.203 19.412 210.203 19.8183V19.8521C210.598 19.8296 210.965 19.807 211.303 19.7844C211.642 19.7618 212.054 19.7506 212.539 19.7506H219.159ZM245.114 11.7426C245.114 13.2099 244.781 14.4289 244.115 15.3995C243.461 16.3589 242.558 17.0756 241.407 17.5496C240.255 18.0124 238.946 18.2438 237.479 18.2438H235.633V24C235.182 24.079 234.719 24.1298 234.245 24.1524C233.771 24.1862 233.365 24.2032 233.026 24.2032C232.71 24.2032 232.281 24.1862 231.739 24.1524C231.198 24.1298 230.712 24.079 230.283 24V5.51236L230.47 5.3092C231.384 5.28663 232.484 5.25841 233.771 5.22455C235.058 5.19069 236.294 5.17376 237.479 5.17376C238.957 5.17376 240.272 5.39949 241.423 5.85096C242.575 6.30243 243.478 7.01349 244.132 7.98415C244.787 8.95481 245.114 10.2076 245.114 11.7426ZM235.633 9.1354V14.316C235.938 14.3047 236.215 14.2991 236.463 14.2991C236.711 14.2878 236.897 14.2821 237.022 14.2821C237.767 14.2821 238.325 14.1467 238.698 13.8758C239.081 13.5936 239.335 13.255 239.46 12.86C239.584 12.4537 239.646 12.0699 239.646 11.7088C239.646 11.3702 239.584 11.0033 239.46 10.6083C239.335 10.2133 239.081 9.87468 238.698 9.59251C238.325 9.31034 237.767 9.16926 237.022 9.16926C236.739 9.16926 236.536 9.16926 236.412 9.16926C236.288 9.15797 236.028 9.14668 235.633 9.1354ZM262.575 19.7506C262.575 21.3646 262.321 22.4876 261.813 23.1196C261.317 23.7517 260.47 24.0677 259.274 24.0677H251.469C250.51 24.0677 249.754 23.7968 249.2 23.2551C248.647 22.702 248.371 21.9627 248.371 21.0372V5.52929L248.557 5.34306H261.949C262.028 5.72681 262.073 6.09363 262.084 6.44352C262.096 6.7934 262.101 7.12636 262.101 7.44239C262.101 7.74713 262.067 8.09138 262 8.47512C261.943 8.85887 261.842 9.24826 261.695 9.6433H255.769C255.295 9.6433 254.579 9.63766 253.619 9.62637C253.63 9.97626 253.636 10.2754 253.636 10.5237C253.647 10.772 253.653 11.0711 253.653 11.421V12.5383C254.59 12.5271 255.295 12.5214 255.769 12.5214H260.103C260.216 12.8262 260.29 13.176 260.324 13.5711C260.369 13.9548 260.391 14.2821 260.391 14.553C260.391 14.869 260.369 15.2246 260.324 15.6196C260.29 16.0034 260.216 16.3533 260.103 16.6693H255.769C255.555 16.6693 255.256 16.6693 254.872 16.6693C254.488 16.6693 254.082 16.6693 253.653 16.6693V17.7697C253.653 18.1873 253.647 18.5316 253.636 18.8025C253.625 19.0733 253.619 19.412 253.619 19.8183V19.8521C254.014 19.8296 254.381 19.807 254.72 19.7844C255.058 19.7618 255.47 19.7506 255.956 19.7506H262.575ZM281.463 11.0146C281.463 11.8837 281.266 12.6569 280.871 13.3341C280.476 14.0113 279.979 14.5699 279.381 15.0101C278.794 15.4503 278.207 15.7325 277.62 15.8566C278.229 16.0598 278.732 16.3702 279.127 16.7878C279.533 17.2054 279.883 17.7415 280.176 18.3961L281.057 20.4108C281.26 20.8736 281.491 21.3025 281.751 21.6975C282.011 22.0813 282.298 22.4086 282.614 22.6795C282.287 23.0858 281.796 23.4639 281.141 23.8138C280.487 24.1524 279.776 24.3217 279.008 24.3217C278.252 24.3217 277.637 24.1411 277.163 23.7799C276.7 23.4074 276.294 22.8149 275.944 22.0023L274.454 18.5824C274.217 18.0293 273.924 17.6964 273.574 17.5835C273.224 17.4706 272.772 17.4142 272.219 17.4142H271.559V24C271.108 24.079 270.639 24.1298 270.154 24.1524C269.68 24.1862 269.273 24.2032 268.935 24.2032C268.619 24.2032 268.201 24.1862 267.682 24.1524C267.163 24.1298 266.689 24.079 266.26 24V5.51236L266.446 5.3092C267.812 5.27534 269.093 5.24712 270.289 5.22455C271.497 5.19069 272.699 5.17376 273.895 5.17376C275.25 5.17376 276.503 5.35435 277.654 5.71552C278.805 6.06541 279.725 6.66925 280.413 7.52704C281.113 8.37354 281.463 9.53608 281.463 11.0146ZM271.559 8.99996V13.3848C271.954 13.3736 272.315 13.3679 272.643 13.3679C272.981 13.3566 273.229 13.351 273.387 13.351C274.403 13.351 275.092 13.1309 275.453 12.6907C275.814 12.2505 275.995 11.737 275.995 11.1501C275.995 10.5745 275.814 10.0778 275.453 9.66023C275.092 9.24262 274.488 9.03382 273.641 9.03382C273.235 9.03382 272.885 9.02817 272.592 9.01689C272.298 9.0056 271.954 8.99996 271.559 8.99996ZM288.382 11.6918C288.382 11.3307 288.388 10.9977 288.399 10.693C288.41 10.3769 288.416 10.027 288.416 9.6433C288.179 9.6433 287.851 9.64894 287.434 9.66023C287.028 9.67152 286.706 9.67716 286.469 9.67716H283.337C283.246 9.27084 283.19 8.89273 283.167 8.54284C283.145 8.18167 283.134 7.85435 283.134 7.5609C283.134 7.26745 283.145 6.9232 283.167 6.52817C283.19 6.12184 283.246 5.72681 283.337 5.34306H298.658C298.737 5.6478 298.794 5.99205 298.828 6.3758C298.873 6.75954 298.895 7.06993 298.895 7.30695C298.895 8.07445 298.692 8.66136 298.286 9.06768C297.88 9.474 297.202 9.67716 296.254 9.67716H295.56C295.323 9.67716 295.007 9.67152 294.612 9.66023C294.228 9.64894 293.929 9.6433 293.715 9.6433C293.715 10.027 293.721 10.3769 293.732 10.693C293.743 10.9977 293.749 11.3307 293.749 11.6918V24C293.433 24.0677 292.998 24.1185 292.445 24.1524C291.892 24.1862 291.429 24.2032 291.057 24.2032C290.707 24.2032 290.267 24.1862 289.736 24.1524C289.206 24.1185 288.754 24.0677 288.382 24V11.6918ZM315.382 19.7506C315.382 21.3646 315.129 22.4876 314.621 23.1196C314.124 23.7517 313.278 24.0677 312.081 24.0677H304.276C303.317 24.0677 302.561 23.7968 302.008 23.2551C301.455 22.702 301.178 21.9627 301.178 21.0372V5.52929L301.364 5.34306H314.756C314.835 5.72681 314.88 6.09363 314.892 6.44352C314.903 6.7934 314.908 7.12636 314.908 7.44239C314.908 7.74713 314.875 8.09138 314.807 8.47512C314.75 8.85887 314.649 9.24826 314.502 9.6433H308.577C308.103 9.6433 307.386 9.63766 306.426 9.62637C306.438 9.97626 306.443 10.2754 306.443 10.5237C306.455 10.772 306.46 11.0711 306.46 11.421V12.5383C307.397 12.5271 308.103 12.5214 308.577 12.5214H312.911C313.024 12.8262 313.097 13.176 313.131 13.5711C313.176 13.9548 313.199 14.2821 313.199 14.553C313.199 14.869 313.176 15.2246 313.131 15.6196C313.097 16.0034 313.024 16.3533 312.911 16.6693H308.577C308.362 16.6693 308.063 16.6693 307.679 16.6693C307.296 16.6693 306.889 16.6693 306.46 16.6693V17.7697C306.46 18.1873 306.455 18.5316 306.443 18.8025C306.432 19.0733 306.426 19.412 306.426 19.8183V19.8521C306.822 19.8296 307.188 19.807 307.527 19.7844C307.866 19.7618 308.278 19.7506 308.763 19.7506H315.382ZM325.636 15.4842C325.557 15.3036 325.433 15.0214 325.264 14.6377C325.094 14.2426 324.914 13.8194 324.722 13.3679C324.53 12.9164 324.349 12.4932 324.18 12.0982C324.022 11.7031 323.898 11.4153 323.808 11.2347L323.689 11.2855C323.734 12.1772 323.779 13.1422 323.824 14.1806C323.87 15.2076 323.903 16.1501 323.926 17.0079C323.96 17.8544 323.977 18.4695 323.977 18.8533V24C323.537 24.079 323.113 24.1298 322.707 24.1524C322.301 24.1862 321.923 24.2032 321.573 24.2032C321.257 24.2032 320.862 24.1862 320.388 24.1524C319.925 24.1298 319.485 24.079 319.067 24V5.46157C319.485 5.35999 320.004 5.28098 320.625 5.22455C321.245 5.16812 321.725 5.1399 322.064 5.1399C322.414 5.1399 322.91 5.15119 323.554 5.17376C324.197 5.18505 324.727 5.24148 325.145 5.34306L329.124 13.825C329.203 13.983 329.332 14.2709 329.513 14.6885C329.705 15.1061 329.908 15.5632 330.122 16.0598C330.337 16.5564 330.534 17.0248 330.715 17.465C330.907 17.8939 331.048 18.2099 331.138 18.4131L331.291 18.3792C331.246 17.6343 331.183 16.7652 331.104 15.772C331.037 14.7788 330.975 13.8194 330.918 12.8939C330.862 11.9684 330.834 11.2291 330.834 10.676V8.03494C330.834 6.83855 331.093 6.05412 331.612 5.68166C332.132 5.29791 332.905 5.10604 333.932 5.10604H335.676L335.879 5.34306V23.8984C335.439 24 334.908 24.0734 334.287 24.1185C333.667 24.1749 333.192 24.2032 332.865 24.2032C332.639 24.2032 332.329 24.1975 331.934 24.1862C331.539 24.1749 331.133 24.158 330.715 24.1354C330.309 24.1129 329.97 24.0677 329.699 24L325.636 15.4842ZM354.963 19.7506C354.963 21.3646 354.709 22.4876 354.201 23.1196C353.705 23.7517 352.858 24.0677 351.662 24.0677H343.857C342.898 24.0677 342.141 23.7968 341.588 23.2551C341.035 22.702 340.759 21.9627 340.759 21.0372V5.52929L340.945 5.34306H354.337C354.416 5.72681 354.461 6.09363 354.472 6.44352C354.483 6.7934 354.489 7.12636 354.489 7.44239C354.489 7.74713 354.455 8.09138 354.388 8.47512C354.331 8.85887 354.229 9.24826 354.083 9.6433H348.157C347.683 9.6433 346.966 9.63766 346.007 9.62637C346.018 9.97626 346.024 10.2754 346.024 10.5237C346.035 10.772 346.041 11.0711 346.041 11.421V12.5383C346.978 12.5271 347.683 12.5214 348.157 12.5214H352.491C352.604 12.8262 352.678 13.176 352.711 13.5711C352.757 13.9548 352.779 14.2821 352.779 14.553C352.779 14.869 352.757 15.2246 352.711 15.6196C352.678 16.0034 352.604 16.3533 352.491 16.6693H348.157C347.943 16.6693 347.644 16.6693 347.26 16.6693C346.876 16.6693 346.47 16.6693 346.041 16.6693V17.7697C346.041 18.1873 346.035 18.5316 346.024 18.8025C346.013 19.0733 346.007 19.412 346.007 19.8183V19.8521C346.402 19.8296 346.769 19.807 347.108 19.7844C347.446 19.7618 347.858 19.7506 348.343 19.7506H354.963ZM368.678 13.7912C368.678 12.3578 368.486 11.2065 368.102 10.3374C367.718 9.45707 366.945 9.01689 365.782 9.01689C364.575 9.01689 363.717 9.5135 363.209 10.5067C362.701 11.5 362.447 12.9277 362.447 14.79C362.447 16.2122 362.628 17.307 362.989 18.0745C363.361 18.8307 363.836 19.3555 364.411 19.649C364.987 19.9424 365.596 20.0892 366.24 20.0892C367.075 20.0892 367.91 19.9086 368.745 19.5474C369.592 19.1749 370.348 18.7404 371.014 18.2438C371.375 18.4244 371.725 18.7122 372.064 19.1072C372.402 19.5022 372.696 19.9255 372.944 20.377C373.192 20.8284 373.35 21.2404 373.418 21.6129C372.481 22.4142 371.341 23.0971 369.998 23.6614C368.666 24.2257 367.148 24.5079 365.444 24.5079C363.807 24.5079 362.442 24.2201 361.347 23.6445C360.263 23.0688 359.4 22.3126 358.757 21.3758C358.113 20.4278 357.656 19.3781 357.385 18.2268C357.114 17.0756 356.979 15.9187 356.979 14.7562C356.979 12.4424 357.396 10.5575 358.232 9.10154C359.078 7.63426 360.184 6.55638 361.55 5.86789C362.927 5.1794 364.4 4.83516 365.969 4.83516C367.729 4.83516 369.18 5.14554 370.32 5.76631C371.46 6.38708 372.306 7.17151 372.859 8.11959C373.412 9.06768 373.689 10.044 373.689 11.0485C373.689 12.9785 372.605 13.9435 370.438 13.9435C370.179 13.9435 369.897 13.9266 369.592 13.8927C369.287 13.8589 368.982 13.825 368.678 13.7912ZM391.171 19.7506C391.171 21.3646 390.917 22.4876 390.409 23.1196C389.913 23.7517 389.066 24.0677 387.87 24.0677H380.065C379.106 24.0677 378.349 23.7968 377.796 23.2551C377.243 22.702 376.967 21.9627 376.967 21.0372V5.52929L377.153 5.34306H390.545C390.624 5.72681 390.669 6.09363 390.68 6.44352C390.691 6.7934 390.697 7.12636 390.697 7.44239C390.697 7.74713 390.663 8.09138 390.595 8.47512C390.539 8.85887 390.437 9.24826 390.291 9.6433H384.365C383.891 9.6433 383.174 9.63766 382.215 9.62637C382.226 9.97626 382.232 10.2754 382.232 10.5237C382.243 10.772 382.249 11.0711 382.249 11.421V12.5383C383.186 12.5271 383.891 12.5214 384.365 12.5214H388.699C388.812 12.8262 388.885 13.176 388.919 13.5711C388.964 13.9548 388.987 14.2821 388.987 14.553C388.987 14.869 388.964 15.2246 388.919 15.6196C388.885 16.0034 388.812 16.3533 388.699 16.6693H384.365C384.151 16.6693 383.852 16.6693 383.468 16.6693C383.084 16.6693 382.678 16.6693 382.249 16.6693V17.7697C382.249 18.1873 382.243 18.5316 382.232 18.8025C382.221 19.0733 382.215 19.412 382.215 19.8183V19.8521C382.61 19.8296 382.977 19.807 383.315 19.7844C383.654 19.7618 384.066 19.7506 384.551 19.7506H391.171Z" fill="white" fill-opacity="0.87"/>
</svg>
