<svg width="326" height="35" viewBox="0 0 326 35" fill="none" xmlns="http://www.w3.org/2000/svg">
<path d="M23.6446 11.368C23.6446 12.904 23.3486 14.272 22.7566 15.472C22.1646 16.656 21.4206 17.648 20.5246 18.448C19.6286 19.232 18.7246 19.8 17.8126 20.152C18.7086 20.472 19.4526 21.024 20.0446 21.808C20.6526 22.592 21.1406 23.512 21.5086 24.568L22.9486 28.624C23.4926 30.176 24.2846 31.36 25.3246 32.176C24.8286 32.816 24.1086 33.352 23.1646 33.784C22.2206 34.216 21.2366 34.432 20.2126 34.432C18.8366 34.432 17.8366 34.064 17.2126 33.328C16.5886 32.576 16.0206 31.464 15.5086 29.992L13.7806 24.976C13.5086 24.144 13.0846 23.44 12.5086 22.864C11.9326 22.272 11.0046 21.976 9.72456 21.976H7.73256V34C7.09256 34.112 6.42856 34.184 5.74056 34.216C5.05256 34.264 4.44456 34.288 3.91656 34.288C3.45256 34.288 2.86056 34.264 2.14056 34.216C1.42056 34.184 0.748563 34.112 0.124563 34V1.456L0.460563 1.12C2.50856 1.072 4.47656 1.032 6.36456 0.999997C8.26856 0.951999 10.1326 0.927999 11.9566 0.927999C14.1806 0.927999 16.1726 1.296 17.9326 2.032C19.7086 2.768 21.1006 3.904 22.1086 5.44C23.1326 6.976 23.6446 8.952 23.6446 11.368ZM7.73256 6.688V16.096C8.48456 16.064 9.18856 16.04 9.84456 16.024C10.5166 16.008 11.0046 16 11.3086 16C12.5246 16 13.4526 15.784 14.0926 15.352C14.7486 14.904 15.1966 14.328 15.4366 13.624C15.6926 12.92 15.8206 12.168 15.8206 11.368C15.8206 10.536 15.6926 9.768 15.4366 9.064C15.1966 8.36 14.7486 7.8 14.0926 7.384C13.4526 6.952 12.5246 6.736 11.3086 6.736C10.8126 6.736 10.2606 6.736 9.65256 6.736C9.06056 6.736 8.42056 6.72 7.73256 6.688ZM36.1838 29.368C35.9278 29.368 35.6798 29.368 35.4398 29.368C35.1998 29.352 34.9598 29.336 34.7198 29.32L33.2318 34C32.7678 34.112 32.2638 34.192 31.7198 34.24C31.1758 34.304 30.6078 34.336 30.0158 34.336C29.3758 34.336 28.7278 34.288 28.0718 34.192C27.4318 34.096 26.9038 33.96 26.4878 33.784L26.2238 33.376L35.5598 7.552C36.3918 7.424 37.1918 7.344 37.9598 7.312C38.7438 7.28 39.4558 7.264 40.0958 7.264C40.6878 7.264 41.3278 7.28 42.0158 7.312C42.7038 7.344 43.4798 7.424 44.3438 7.552L53.4158 33.64C52.8558 33.896 52.1438 34.088 51.2798 34.216C50.4158 34.36 49.7198 34.432 49.1918 34.432C48.3118 34.432 47.4638 34.264 46.6478 33.928C45.8318 33.592 45.2158 32.704 44.7998 31.264L44.1998 29.32C43.9438 29.336 43.6958 29.352 43.4558 29.368C43.2158 29.368 42.9598 29.368 42.6878 29.368H36.1838ZM37.1438 21.784L36.6158 23.44C36.8558 23.424 37.0958 23.416 37.3358 23.416C37.5758 23.4 37.8238 23.392 38.0798 23.392H41.0798C41.3198 23.392 41.5358 23.4 41.7278 23.416C41.9358 23.416 42.1438 23.424 42.3518 23.44L41.8478 21.808C41.4798 20.544 41.1118 19.136 40.7438 17.584C40.3758 16.032 40.0398 14.624 39.7358 13.36H39.4478C39.1118 14.576 38.7358 15.968 38.3198 17.536C37.9198 19.104 37.5278 20.52 37.1438 21.784ZM58.7532 7.552C59.5212 7.408 60.3612 7.312 61.2732 7.264C62.1852 7.2 62.9532 7.168 63.5772 7.168C64.1692 7.168 64.9372 7.2 65.8812 7.264C66.8252 7.312 67.6172 7.408 68.2572 7.552L70.6092 17.968C70.7532 18.592 70.9212 19.44 71.1132 20.512C71.3052 21.568 71.4972 22.704 71.6892 23.92H72.0012C72.3852 21.36 72.7452 19.376 73.0812 17.968L75.4092 7.552C76.1612 7.408 76.9852 7.312 77.8812 7.264C78.7772 7.2 79.5212 7.168 80.1132 7.168C80.7372 7.168 81.5132 7.2 82.4412 7.264C83.3692 7.312 84.2012 7.408 84.9372 7.552L87.6492 33.904C86.6092 34.16 85.3532 34.288 83.8812 34.288C83.3212 34.288 82.7212 34.264 82.0812 34.216C81.4572 34.168 80.8972 34.096 80.4012 34L79.7052 25.504C79.6252 24.416 79.5772 23.224 79.5612 21.928C79.5452 20.632 79.5452 19.368 79.5612 18.136C79.5772 16.888 79.5772 15.808 79.5612 14.896H79.2732L75.7452 29.944C75.2012 30.04 74.5372 30.112 73.7532 30.16C72.9692 30.192 72.3212 30.208 71.8092 30.208C71.2812 30.208 70.6252 30.192 69.8412 30.16C69.0732 30.112 68.4332 30.04 67.9212 29.944L64.4172 14.896H64.0812C64.0812 15.824 64.0812 16.904 64.0812 18.136C64.0972 19.368 64.0972 20.632 64.0812 21.928C64.0652 23.224 64.0092 24.432 63.9132 25.552L63.2892 34C62.7772 34.096 62.2172 34.168 61.6092 34.216C61.0172 34.264 60.4412 34.288 59.8812 34.288C58.3932 34.288 57.1132 34.16 56.0412 33.904L58.7532 7.552ZM100.262 29.368C100.006 29.368 99.7579 29.368 99.5179 29.368C99.2779 29.352 99.0379 29.336 98.7979 29.32L97.3099 34C96.8459 34.112 96.3419 34.192 95.7979 34.24C95.2539 34.304 94.6859 34.336 94.0939 34.336C93.4539 34.336 92.8059 34.288 92.1499 34.192C91.5099 34.096 90.9819 33.96 90.5659 33.784L90.3019 33.376L99.6379 7.552C100.47 7.424 101.27 7.344 102.038 7.312C102.822 7.28 103.534 7.264 104.174 7.264C104.766 7.264 105.406 7.28 106.094 7.312C106.782 7.344 107.558 7.424 108.422 7.552L117.494 33.64C116.934 33.896 116.222 34.088 115.358 34.216C114.494 34.36 113.798 34.432 113.27 34.432C112.39 34.432 111.542 34.264 110.726 33.928C109.91 33.592 109.294 32.704 108.878 31.264L108.278 29.32C108.022 29.336 107.774 29.352 107.534 29.368C107.294 29.368 107.038 29.368 106.766 29.368H100.262ZM101.222 21.784L100.694 23.44C100.934 23.424 101.174 23.416 101.414 23.416C101.654 23.4 101.902 23.392 102.158 23.392H105.158C105.398 23.392 105.614 23.4 105.806 23.416C106.014 23.416 106.222 23.424 106.43 23.44L105.926 21.808C105.558 20.544 105.19 19.136 104.822 17.584C104.454 16.032 104.118 14.624 103.814 13.36H103.526C103.19 14.576 102.814 15.968 102.398 17.536C101.998 19.104 101.606 20.52 101.222 21.784ZM118.583 32.008C118.583 31.4 118.703 30.728 118.943 29.992C119.183 29.24 119.511 28.544 119.927 27.904C120.343 27.264 120.799 26.784 121.295 26.464C122.479 27.104 123.799 27.656 125.255 28.12C126.711 28.568 128.135 28.792 129.527 28.792C130.423 28.792 131.159 28.608 131.735 28.24C132.327 27.872 132.623 27.352 132.623 26.68C132.623 26.248 132.455 25.856 132.119 25.504C131.783 25.136 131.199 24.8 130.367 24.496L126.383 22.936C125.151 22.488 123.999 21.928 122.927 21.256C121.855 20.584 120.991 19.76 120.335 18.784C119.679 17.808 119.351 16.64 119.351 15.28C119.351 12.784 120.311 10.752 122.231 9.184C124.151 7.616 126.735 6.832 129.983 6.832C131.823 6.832 133.647 7.048 135.455 7.48C137.279 7.896 138.807 8.376 140.039 8.92C140.039 10.008 139.815 11.08 139.367 12.136C138.919 13.192 138.303 14.024 137.519 14.632C136.335 14.104 135.047 13.664 133.655 13.312C132.263 12.944 131.007 12.76 129.887 12.76C129.055 12.76 128.415 12.936 127.967 13.288C127.535 13.64 127.319 14.064 127.319 14.56C127.319 15.024 127.535 15.376 127.967 15.616C128.399 15.856 128.935 16.096 129.575 16.336L133.535 17.848C135.743 18.648 137.495 19.752 138.791 21.16C140.103 22.552 140.759 24.272 140.759 26.32C140.759 28.128 140.271 29.656 139.295 30.904C138.335 32.152 137.015 33.096 135.335 33.736C133.671 34.376 131.791 34.704 129.695 34.72C127.199 34.72 124.975 34.432 123.023 33.856C121.087 33.28 119.607 32.664 118.583 32.008ZM169.419 7.576C169.995 7.448 170.571 7.368 171.147 7.336C171.739 7.288 172.275 7.264 172.755 7.264C173.395 7.264 174.019 7.304 174.627 7.384C175.251 7.448 175.795 7.56 176.259 7.72L176.595 8.104L168.459 26.536V34C167.835 34.112 167.195 34.184 166.539 34.216C165.883 34.264 165.315 34.288 164.835 34.288C164.387 34.288 163.795 34.264 163.059 34.216C162.323 34.184 161.643 34.112 161.019 34V26.344L152.955 8.224C153.643 7.904 154.395 7.64 155.211 7.432C156.043 7.224 156.787 7.12 157.443 7.12C158.499 7.12 159.347 7.336 159.987 7.768C160.643 8.184 161.171 8.92 161.571 9.976L163.179 14.248C163.611 15.4 163.947 16.36 164.187 17.128C164.443 17.88 164.659 18.76 164.835 19.768H165.147C165.739 17.576 166.403 15.496 167.139 13.528L169.419 7.576ZM200.978 11.896C201.442 11.256 202.05 10.48 202.802 9.568C203.554 8.64 204.234 7.848 204.842 7.192L204.698 7.048C203.578 7.192 202.306 7.296 200.882 7.36C199.474 7.424 198.282 7.456 197.306 7.456H190.418C190.306 7.008 190.226 6.576 190.178 6.16C190.146 5.728 190.13 5.304 190.13 4.888C190.13 4.232 190.178 3.616 190.274 3.04C190.37 2.464 190.498 1.856 190.658 1.216H211.898C212.234 2.416 212.474 3.32 212.618 3.928C212.778 4.536 212.874 4.976 212.906 5.248C212.938 5.504 212.954 5.728 212.954 5.92C212.954 6.352 212.89 6.792 212.762 7.24C212.65 7.688 212.434 8.144 212.114 8.608L201.41 23.296C200.946 23.936 200.362 24.688 199.658 25.552C198.954 26.4 198.29 27.152 197.666 27.808L197.81 27.952C198.834 27.872 200.034 27.8 201.41 27.736C202.786 27.656 203.986 27.616 205.01 27.616H207.674C208.842 27.616 209.874 27.504 210.77 27.28C211.666 27.056 212.442 26.792 213.098 26.488C213.242 26.952 213.362 27.496 213.458 28.12C213.554 28.744 213.602 29.352 213.602 29.944C213.602 31.32 213.13 32.344 212.186 33.016C211.258 33.672 210.058 34 208.586 34H190.226C189.97 32.864 189.778 32.008 189.65 31.432C189.538 30.856 189.466 30.432 189.434 30.16C189.402 29.872 189.386 29.616 189.386 29.392C189.386 28.928 189.458 28.448 189.602 27.952C189.762 27.44 189.994 26.976 190.298 26.56L200.978 11.896ZM216.285 20.824C216.285 16.536 217.389 13.136 219.597 10.624C221.821 8.096 225.061 6.832 229.317 6.832C233.637 6.832 236.893 8.088 239.085 10.6C241.293 13.096 242.397 16.504 242.397 20.824C242.397 25.144 241.293 28.544 239.085 31.024C236.877 33.488 233.621 34.72 229.317 34.72C224.997 34.72 221.741 33.472 219.549 30.976C217.373 28.48 216.285 25.096 216.285 20.824ZM224.037 20.824C224.037 21.736 224.093 22.68 224.205 23.656C224.333 24.616 224.573 25.512 224.925 26.344C225.293 27.176 225.829 27.856 226.533 28.384C227.237 28.896 228.173 29.152 229.341 29.152C230.509 29.152 231.445 28.896 232.149 28.384C232.853 27.856 233.381 27.176 233.733 26.344C234.101 25.512 234.341 24.616 234.453 23.656C234.581 22.68 234.645 21.736 234.645 20.824C234.645 19.896 234.581 18.944 234.453 17.968C234.341 16.976 234.101 16.064 233.733 15.232C233.381 14.384 232.853 13.704 232.149 13.192C231.445 12.664 230.509 12.4 229.341 12.4C228.173 12.4 227.237 12.664 226.533 13.192C225.829 13.704 225.293 14.384 224.925 15.232C224.573 16.064 224.333 16.976 224.205 17.968C224.093 18.944 224.037 19.896 224.037 20.824ZM256.651 21.928C256.539 21.672 256.363 21.272 256.123 20.728C255.883 20.168 255.627 19.568 255.355 18.928C255.083 18.288 254.827 17.688 254.587 17.128C254.363 16.568 254.187 16.16 254.059 15.904L253.891 15.976C253.955 17.24 254.019 18.608 254.083 20.08C254.147 21.536 254.195 22.872 254.227 24.088C254.275 25.288 254.299 26.16 254.299 26.704V34C253.675 34.112 253.075 34.184 252.499 34.216C251.923 34.264 251.387 34.288 250.891 34.288C250.443 34.288 249.883 34.264 249.211 34.216C248.555 34.184 247.931 34.112 247.339 34V7.72C247.931 7.576 248.667 7.464 249.547 7.384C250.427 7.304 251.107 7.264 251.587 7.264C252.083 7.264 252.787 7.28 253.699 7.312C254.611 7.328 255.363 7.408 255.955 7.552L261.595 19.576C261.707 19.8 261.891 20.208 262.147 20.8C262.419 21.392 262.707 22.04 263.011 22.744C263.315 23.448 263.595 24.112 263.851 24.736C264.123 25.344 264.323 25.792 264.451 26.08L264.667 26.032C264.603 24.976 264.515 23.744 264.403 22.336C264.307 20.928 264.219 19.568 264.139 18.256C264.059 16.944 264.019 15.896 264.019 15.112V11.368C264.019 9.672 264.387 8.56 265.123 8.032C265.859 7.488 266.955 7.216 268.411 7.216H270.883L271.171 7.552V33.856C270.547 34 269.795 34.104 268.915 34.168C268.035 34.248 267.363 34.288 266.899 34.288C266.579 34.288 266.139 34.28 265.579 34.264C265.019 34.248 264.443 34.224 263.851 34.192C263.275 34.16 262.795 34.096 262.411 34L256.651 21.928ZM284.809 29.368C284.553 29.368 284.305 29.368 284.065 29.368C283.825 29.352 283.585 29.336 283.345 29.32L281.857 34C281.393 34.112 280.889 34.192 280.345 34.24C279.801 34.304 279.233 34.336 278.641 34.336C278.001 34.336 277.353 34.288 276.697 34.192C276.057 34.096 275.529 33.96 275.113 33.784L274.849 33.376L284.185 7.552C285.017 7.424 285.817 7.344 286.585 7.312C287.369 7.28 288.081 7.264 288.721 7.264C289.313 7.264 289.953 7.28 290.641 7.312C291.329 7.344 292.105 7.424 292.969 7.552L302.041 33.64C301.481 33.896 300.769 34.088 299.905 34.216C299.041 34.36 298.345 34.432 297.817 34.432C296.937 34.432 296.089 34.264 295.273 33.928C294.457 33.592 293.841 32.704 293.425 31.264L292.825 29.32C292.569 29.336 292.321 29.352 292.081 29.368C291.841 29.368 291.585 29.368 291.313 29.368H284.809ZM285.769 21.784L285.241 23.44C285.481 23.424 285.721 23.416 285.961 23.416C286.201 23.4 286.449 23.392 286.705 23.392H289.705C289.945 23.392 290.161 23.4 290.353 23.416C290.561 23.416 290.769 23.424 290.977 23.44L290.473 21.808C290.105 20.544 289.737 19.136 289.369 17.584C289.001 16.032 288.665 14.624 288.361 13.36H288.073C287.737 14.576 287.361 15.968 286.945 17.536C286.545 19.104 286.153 20.52 285.769 21.784ZM303.13 32.008C303.13 31.4 303.25 30.728 303.49 29.992C303.73 29.24 304.058 28.544 304.474 27.904C304.89 27.264 305.346 26.784 305.842 26.464C307.026 27.104 308.346 27.656 309.802 28.12C311.258 28.568 312.682 28.792 314.074 28.792C314.97 28.792 315.706 28.608 316.282 28.24C316.874 27.872 317.17 27.352 317.17 26.68C317.17 26.248 317.002 25.856 316.666 25.504C316.33 25.136 315.746 24.8 314.914 24.496L310.93 22.936C309.698 22.488 308.546 21.928 307.474 21.256C306.402 20.584 305.538 19.76 304.882 18.784C304.226 17.808 303.898 16.64 303.898 15.28C303.898 12.784 304.858 10.752 306.778 9.184C308.698 7.616 311.282 6.832 314.53 6.832C316.37 6.832 318.194 7.048 320.002 7.48C321.826 7.896 323.354 8.376 324.586 8.92C324.586 10.008 324.362 11.08 323.914 12.136C323.466 13.192 322.85 14.024 322.066 14.632C320.882 14.104 319.594 13.664 318.202 13.312C316.81 12.944 315.554 12.76 314.434 12.76C313.602 12.76 312.962 12.936 312.514 13.288C312.082 13.64 311.866 14.064 311.866 14.56C311.866 15.024 312.082 15.376 312.514 15.616C312.946 15.856 313.482 16.096 314.122 16.336L318.082 17.848C320.29 18.648 322.042 19.752 323.338 21.16C324.65 22.552 325.306 24.272 325.306 26.32C325.306 28.128 324.818 29.656 323.842 30.904C322.882 32.152 321.562 33.096 319.882 33.736C318.218 34.376 316.338 34.704 314.242 34.72C311.746 34.72 309.522 34.432 307.57 33.856C305.634 33.28 304.154 32.664 303.13 32.008Z" fill="#364760"/>
</svg>
