<svg width="362" height="26" viewBox="0 0 362 26" fill="none" xmlns="http://www.w3.org/2000/svg">
<path d="M17.7393 8.026C17.7393 9.178 17.5173 10.204 17.0733 11.104C16.6293 11.992 16.0713 12.736 15.3993 13.336C14.7273 13.924 14.0493 14.35 13.3653 14.614C14.0373 14.854 14.5953 15.268 15.0393 15.856C15.4953 16.444 15.8613 17.134 16.1373 17.926L17.2173 20.968C17.6253 22.132 18.2193 23.02 18.9993 23.632C18.6273 24.112 18.0873 24.514 17.3793 24.838C16.6713 25.162 15.9333 25.324 15.1653 25.324C14.1333 25.324 13.3833 25.048 12.9153 24.496C12.4473 23.932 12.0213 23.098 11.6373 21.994L10.3413 18.232C10.1373 17.608 9.81928 17.08 9.38728 16.648C8.95528 16.204 8.25928 15.982 7.29928 15.982H5.80528V25C5.32528 25.084 4.82728 25.138 4.31128 25.162C3.79528 25.198 3.33928 25.216 2.94328 25.216C2.59528 25.216 2.15128 25.198 1.61128 25.162C1.07128 25.138 0.567281 25.084 0.0992814 25V0.591999L0.351281 0.339998C1.88728 0.303999 3.36328 0.273999 4.77928 0.249998C6.20728 0.213999 7.60528 0.196 8.97328 0.196C10.6413 0.196 12.1353 0.472 13.4553 1.024C14.7873 1.576 15.8313 2.428 16.5873 3.58C17.3553 4.732 17.7393 6.214 17.7393 8.026ZM5.80528 4.516V11.572C6.36928 11.548 6.89728 11.53 7.38928 11.518C7.89328 11.506 8.25928 11.5 8.48728 11.5C9.39928 11.5 10.0953 11.338 10.5753 11.014C11.0673 10.678 11.4033 10.246 11.5833 9.718C11.7753 9.19 11.8713 8.626 11.8713 8.026C11.8713 7.402 11.7753 6.826 11.5833 6.298C11.4033 5.77 11.0673 5.35 10.5753 5.038C10.0953 4.714 9.39928 4.552 8.48728 4.552C8.11528 4.552 7.70128 4.552 7.24528 4.552C6.80128 4.552 6.32128 4.54 5.80528 4.516ZM27.1437 21.526C26.9517 21.526 26.7657 21.526 26.5857 21.526C26.4057 21.514 26.2257 21.502 26.0457 21.49L24.9297 25C24.5817 25.084 24.2037 25.144 23.7957 25.18C23.3877 25.228 22.9617 25.252 22.5177 25.252C22.0377 25.252 21.5517 25.216 21.0597 25.144C20.5797 25.072 20.1837 24.97 19.8717 24.838L19.6737 24.532L26.6757 5.164C27.2997 5.068 27.8997 5.008 28.4757 4.984C29.0637 4.96 29.5977 4.948 30.0777 4.948C30.5217 4.948 31.0017 4.96 31.5177 4.984C32.0337 5.008 32.6157 5.068 33.2637 5.164L40.0677 24.73C39.6477 24.922 39.1137 25.066 38.4657 25.162C37.8177 25.27 37.2957 25.324 36.8997 25.324C36.2397 25.324 35.6037 25.198 34.9917 24.946C34.3797 24.694 33.9177 24.028 33.6057 22.948L33.1557 21.49C32.9637 21.502 32.7777 21.514 32.5977 21.526C32.4177 21.526 32.2257 21.526 32.0217 21.526H27.1437ZM27.8637 15.838L27.4677 17.08C27.6477 17.068 27.8277 17.062 28.0077 17.062C28.1877 17.05 28.3737 17.044 28.5657 17.044H30.8157C30.9957 17.044 31.1577 17.05 31.3017 17.062C31.4577 17.062 31.6137 17.068 31.7697 17.08L31.3917 15.856C31.1157 14.908 30.8397 13.852 30.5637 12.688C30.2877 11.524 30.0357 10.468 29.8077 9.52H29.5917C29.3397 10.432 29.0577 11.476 28.7457 12.652C28.4457 13.828 28.1517 14.89 27.8637 15.838ZM44.0708 5.164C44.6468 5.056 45.2768 4.984 45.9608 4.948C46.6448 4.9 47.2208 4.876 47.6888 4.876C48.1328 4.876 48.7088 4.9 49.4168 4.948C50.1248 4.984 50.7188 5.056 51.1988 5.164L52.9628 12.976C53.0708 13.444 53.1968 14.08 53.3408 14.884C53.4848 15.676 53.6288 16.528 53.7728 17.44H54.0068C54.2948 15.52 54.5648 14.032 54.8168 12.976L56.5628 5.164C57.1268 5.056 57.7448 4.984 58.4168 4.948C59.0888 4.9 59.6468 4.876 60.0908 4.876C60.5588 4.876 61.1408 4.9 61.8368 4.948C62.5328 4.984 63.1568 5.056 63.7088 5.164L65.7428 24.928C64.9628 25.12 64.0208 25.216 62.9168 25.216C62.4968 25.216 62.0468 25.198 61.5668 25.162C61.0988 25.126 60.6788 25.072 60.3068 25L59.7848 18.628C59.7248 17.812 59.6888 16.918 59.6768 15.946C59.6648 14.974 59.6648 14.026 59.6768 13.102C59.6888 12.166 59.6888 11.356 59.6768 10.672H59.4608L56.8148 21.958C56.4068 22.03 55.9088 22.084 55.3208 22.12C54.7328 22.144 54.2468 22.156 53.8628 22.156C53.4668 22.156 52.9748 22.144 52.3868 22.12C51.8108 22.084 51.3308 22.03 50.9468 21.958L48.3188 10.672H48.0668C48.0668 11.368 48.0668 12.178 48.0668 13.102C48.0788 14.026 48.0788 14.974 48.0668 15.946C48.0548 16.918 48.0128 17.824 47.9408 18.664L47.4728 25C47.0888 25.072 46.6688 25.126 46.2128 25.162C45.7688 25.198 45.3368 25.216 44.9168 25.216C43.8008 25.216 42.8408 25.12 42.0368 24.928L44.0708 5.164ZM75.2023 21.526C75.0103 21.526 74.8243 21.526 74.6443 21.526C74.4643 21.514 74.2843 21.502 74.1043 21.49L72.9883 25C72.6403 25.084 72.2623 25.144 71.8543 25.18C71.4463 25.228 71.0203 25.252 70.5763 25.252C70.0963 25.252 69.6103 25.216 69.1183 25.144C68.6383 25.072 68.2423 24.97 67.9303 24.838L67.7323 24.532L74.7343 5.164C75.3583 5.068 75.9583 5.008 76.5343 4.984C77.1223 4.96 77.6563 4.948 78.1363 4.948C78.5803 4.948 79.0603 4.96 79.5763 4.984C80.0923 5.008 80.6743 5.068 81.3223 5.164L88.1263 24.73C87.7063 24.922 87.1723 25.066 86.5243 25.162C85.8763 25.27 85.3543 25.324 84.9583 25.324C84.2983 25.324 83.6623 25.198 83.0503 24.946C82.4383 24.694 81.9763 24.028 81.6643 22.948L81.2143 21.49C81.0223 21.502 80.8363 21.514 80.6563 21.526C80.4763 21.526 80.2843 21.526 80.0803 21.526H75.2023ZM75.9223 15.838L75.5263 17.08C75.7063 17.068 75.8863 17.062 76.0663 17.062C76.2463 17.05 76.4323 17.044 76.6243 17.044H78.8743C79.0543 17.044 79.2163 17.05 79.3603 17.062C79.5163 17.062 79.6723 17.068 79.8283 17.08L79.4503 15.856C79.1743 14.908 78.8983 13.852 78.6223 12.688C78.3463 11.524 78.0943 10.468 77.8663 9.52H77.6503C77.3983 10.432 77.1163 11.476 76.8043 12.652C76.5043 13.828 76.2103 14.89 75.9223 15.838ZM88.9433 23.506C88.9433 23.05 89.0333 22.546 89.2133 21.994C89.3933 21.43 89.6393 20.908 89.9513 20.428C90.2633 19.948 90.6053 19.588 90.9773 19.348C91.8653 19.828 92.8553 20.242 93.9473 20.59C95.0393 20.926 96.1073 21.094 97.1513 21.094C97.8233 21.094 98.3753 20.956 98.8073 20.68C99.2513 20.404 99.4733 20.014 99.4733 19.51C99.4733 19.186 99.3473 18.892 99.0953 18.628C98.8433 18.352 98.4053 18.1 97.7813 17.872L94.7933 16.702C93.8693 16.366 93.0053 15.946 92.2013 15.442C91.3973 14.938 90.7493 14.32 90.2573 13.588C89.7653 12.856 89.5193 11.98 89.5193 10.96C89.5193 9.088 90.2393 7.564 91.6793 6.388C93.1193 5.212 95.0573 4.624 97.4933 4.624C98.8733 4.624 100.241 4.786 101.597 5.11C102.965 5.422 104.111 5.782 105.035 6.19C105.035 7.006 104.867 7.81 104.531 8.602C104.195 9.394 103.733 10.018 103.145 10.474C102.257 10.078 101.291 9.748 100.247 9.484C99.2033 9.208 98.2613 9.07 97.4213 9.07C96.7973 9.07 96.3173 9.202 95.9813 9.466C95.6573 9.73 95.4953 10.048 95.4953 10.42C95.4953 10.768 95.6573 11.032 95.9813 11.212C96.3053 11.392 96.7073 11.572 97.1873 11.752L100.157 12.886C101.813 13.486 103.127 14.314 104.099 15.37C105.083 16.414 105.575 17.704 105.575 19.24C105.575 20.596 105.209 21.742 104.477 22.678C103.757 23.614 102.767 24.322 101.507 24.802C100.259 25.282 98.8493 25.528 97.2773 25.54C95.4053 25.54 93.7373 25.324 92.2733 24.892C90.8213 24.46 89.7113 23.998 88.9433 23.506ZM127.97 14.146C127.97 12.622 127.766 11.398 127.358 10.474C126.95 9.538 126.128 9.07 124.892 9.07C123.608 9.07 122.696 9.598 122.156 10.654C121.616 11.71 121.346 13.228 121.346 15.208C121.346 16.72 121.538 17.884 121.922 18.7C122.318 19.504 122.822 20.062 123.434 20.374C124.046 20.686 124.694 20.842 125.378 20.842C126.266 20.842 127.154 20.65 128.042 20.266C128.942 19.87 129.746 19.408 130.454 18.88C130.838 19.072 131.21 19.378 131.57 19.798C131.93 20.218 132.242 20.668 132.506 21.148C132.77 21.628 132.938 22.066 133.01 22.462C132.014 23.314 130.802 24.04 129.374 24.64C127.958 25.24 126.344 25.54 124.532 25.54C122.792 25.54 121.34 25.234 120.176 24.622C119.024 24.01 118.106 23.206 117.422 22.21C116.738 21.202 116.252 20.086 115.964 18.862C115.676 17.638 115.532 16.408 115.532 15.172C115.532 12.712 115.976 10.708 116.864 9.16C117.764 7.6 118.94 6.454 120.392 5.722C121.856 4.99 123.422 4.624 125.09 4.624C126.962 4.624 128.504 4.954 129.716 5.614C130.928 6.274 131.828 7.108 132.416 8.116C133.004 9.124 133.298 10.162 133.298 11.23C133.298 13.282 132.146 14.308 129.842 14.308C129.566 14.308 129.266 14.29 128.942 14.254C128.618 14.218 128.294 14.182 127.97 14.146ZM135.15 15.118C135.15 11.902 135.978 9.352 137.634 7.468C139.302 5.572 141.732 4.624 144.924 4.624C148.164 4.624 150.606 5.566 152.25 7.45C153.906 9.322 154.734 11.878 154.734 15.118C154.734 18.358 153.906 20.908 152.25 22.768C150.594 24.616 148.152 25.54 144.924 25.54C141.684 25.54 139.242 24.604 137.598 22.732C135.966 20.86 135.15 18.322 135.15 15.118ZM140.964 15.118C140.964 15.802 141.006 16.51 141.09 17.242C141.186 17.962 141.366 18.634 141.63 19.258C141.906 19.882 142.308 20.392 142.836 20.788C143.364 21.172 144.066 21.364 144.942 21.364C145.818 21.364 146.52 21.172 147.048 20.788C147.576 20.392 147.972 19.882 148.236 19.258C148.512 18.634 148.692 17.962 148.776 17.242C148.872 16.51 148.92 15.802 148.92 15.118C148.92 14.422 148.872 13.708 148.776 12.976C148.692 12.232 148.512 11.548 148.236 10.924C147.972 10.288 147.576 9.778 147.048 9.394C146.52 8.998 145.818 8.8 144.942 8.8C144.066 8.8 143.364 8.998 142.836 9.394C142.308 9.778 141.906 10.288 141.63 10.924C141.366 11.548 141.186 12.232 141.09 12.976C141.006 13.708 140.964 14.422 140.964 15.118ZM165.424 15.946C165.34 15.754 165.208 15.454 165.028 15.046C164.848 14.626 164.656 14.176 164.452 13.696C164.248 13.216 164.056 12.766 163.876 12.346C163.708 11.926 163.576 11.62 163.48 11.428L163.354 11.482C163.402 12.43 163.45 13.456 163.498 14.56C163.546 15.652 163.582 16.654 163.606 17.566C163.642 18.466 163.66 19.12 163.66 19.528V25C163.192 25.084 162.742 25.138 162.31 25.162C161.878 25.198 161.476 25.216 161.104 25.216C160.768 25.216 160.348 25.198 159.844 25.162C159.352 25.138 158.884 25.084 158.44 25V5.29C158.884 5.182 159.436 5.098 160.096 5.038C160.756 4.978 161.266 4.948 161.626 4.948C161.998 4.948 162.526 4.96 163.21 4.984C163.894 4.996 164.458 5.056 164.902 5.164L169.132 14.182C169.216 14.35 169.354 14.656 169.546 15.1C169.75 15.544 169.966 16.03 170.194 16.558C170.422 17.086 170.632 17.584 170.824 18.052C171.028 18.508 171.178 18.844 171.274 19.06L171.436 19.024C171.388 18.232 171.322 17.308 171.238 16.252C171.166 15.196 171.1 14.176 171.04 13.192C170.98 12.208 170.95 11.422 170.95 10.834V8.026C170.95 6.754 171.226 5.92 171.778 5.524C172.33 5.116 173.152 4.912 174.244 4.912H176.098L176.314 5.164V24.892C175.846 25 175.282 25.078 174.622 25.126C173.962 25.186 173.458 25.216 173.11 25.216C172.87 25.216 172.54 25.21 172.12 25.198C171.7 25.186 171.268 25.168 170.824 25.144C170.392 25.12 170.032 25.072 169.744 25L165.424 15.946ZM196.63 12.112C196.234 11.188 195.862 10.282 195.514 9.394C195.166 8.506 194.866 7.72 194.614 7.036L194.47 7.09C194.566 8.11 194.644 9.268 194.704 10.564C194.776 11.848 194.83 13.132 194.866 14.416C194.902 15.7 194.92 16.84 194.92 17.836V25C194.452 25.084 193.99 25.138 193.534 25.162C193.078 25.198 192.67 25.216 192.31 25.216C191.962 25.216 191.524 25.198 190.996 25.162C190.48 25.138 190 25.084 189.556 25V0.52C190 0.411999 190.588 0.333999 191.32 0.286C192.052 0.226 192.598 0.196 192.958 0.196C193.33 0.196 193.822 0.213999 194.434 0.249998C195.046 0.273999 195.67 0.327999 196.306 0.411999L201.85 13.264C202.306 14.32 202.726 15.328 203.11 16.288C203.506 17.248 203.836 18.058 204.1 18.718L204.244 18.664C204.148 17.548 204.064 16.324 203.992 14.992C203.932 13.66 203.884 12.376 203.848 11.14C203.812 9.904 203.794 8.872 203.794 8.044V3.652C203.794 2.368 204.052 1.468 204.568 0.951998C205.096 0.435999 205.912 0.177999 207.016 0.177999H208.888L209.122 0.411999V24.892C208.666 25 208.066 25.078 207.322 25.126C206.59 25.186 206.032 25.216 205.648 25.216C205.276 25.216 204.784 25.198 204.172 25.162C203.56 25.138 202.942 25.084 202.318 25L196.63 12.112ZM229.581 20.482C229.581 22.198 229.311 23.392 228.771 24.064C228.243 24.736 227.343 25.072 226.071 25.072H217.773C216.753 25.072 215.949 24.784 215.361 24.208C214.773 23.62 214.479 22.834 214.479 21.85V5.362L214.677 5.164H228.915C228.999 5.572 229.047 5.962 229.059 6.334C229.071 6.706 229.077 7.06 229.077 7.396C229.077 7.72 229.041 8.086 228.969 8.494C228.909 8.902 228.801 9.316 228.645 9.736H222.345C221.841 9.736 221.079 9.73 220.059 9.718C220.071 10.09 220.077 10.408 220.077 10.672C220.089 10.936 220.095 11.254 220.095 11.626V12.814C221.091 12.802 221.841 12.796 222.345 12.796H226.953C227.073 13.12 227.151 13.492 227.187 13.912C227.235 14.32 227.259 14.668 227.259 14.956C227.259 15.292 227.235 15.67 227.187 16.09C227.151 16.498 227.073 16.87 226.953 17.206H222.345C222.117 17.206 221.799 17.206 221.391 17.206C220.983 17.206 220.551 17.206 220.095 17.206V18.376C220.095 18.82 220.089 19.186 220.077 19.474C220.065 19.762 220.059 20.122 220.059 20.554V20.59C220.479 20.566 220.869 20.542 221.229 20.518C221.589 20.494 222.027 20.482 222.543 20.482H229.581ZM244.162 14.146C244.162 12.622 243.958 11.398 243.55 10.474C243.142 9.538 242.32 9.07 241.084 9.07C239.8 9.07 238.888 9.598 238.348 10.654C237.808 11.71 237.538 13.228 237.538 15.208C237.538 16.72 237.73 17.884 238.114 18.7C238.51 19.504 239.014 20.062 239.626 20.374C240.238 20.686 240.886 20.842 241.57 20.842C242.458 20.842 243.346 20.65 244.234 20.266C245.134 19.87 245.938 19.408 246.646 18.88C247.03 19.072 247.402 19.378 247.762 19.798C248.122 20.218 248.434 20.668 248.698 21.148C248.962 21.628 249.13 22.066 249.202 22.462C248.206 23.314 246.994 24.04 245.566 24.64C244.15 25.24 242.536 25.54 240.724 25.54C238.984 25.54 237.532 25.234 236.368 24.622C235.216 24.01 234.298 23.206 233.614 22.21C232.93 21.202 232.444 20.086 232.156 18.862C231.868 17.638 231.724 16.408 231.724 15.172C231.724 12.712 232.168 10.708 233.056 9.16C233.956 7.6 235.132 6.454 236.584 5.722C238.048 4.99 239.614 4.624 241.282 4.624C243.154 4.624 244.696 4.954 245.908 5.614C247.12 6.274 248.02 7.108 248.608 8.116C249.196 9.124 249.49 10.162 249.49 11.23C249.49 13.282 248.338 14.308 246.034 14.308C245.758 14.308 245.458 14.29 245.134 14.254C244.81 14.218 244.486 14.182 244.162 14.146ZM268.077 20.482C268.077 22.198 267.807 23.392 267.267 24.064C266.739 24.736 265.839 25.072 264.567 25.072H256.269C255.249 25.072 254.445 24.784 253.857 24.208C253.269 23.62 252.975 22.834 252.975 21.85V5.362L253.173 5.164H267.411C267.495 5.572 267.543 5.962 267.555 6.334C267.567 6.706 267.573 7.06 267.573 7.396C267.573 7.72 267.537 8.086 267.465 8.494C267.405 8.902 267.297 9.316 267.141 9.736H260.841C260.337 9.736 259.575 9.73 258.555 9.718C258.567 10.09 258.573 10.408 258.573 10.672C258.585 10.936 258.591 11.254 258.591 11.626V12.814C259.587 12.802 260.337 12.796 260.841 12.796H265.449C265.569 13.12 265.647 13.492 265.683 13.912C265.731 14.32 265.755 14.668 265.755 14.956C265.755 15.292 265.731 15.67 265.683 16.09C265.647 16.498 265.569 16.87 265.449 17.206H260.841C260.613 17.206 260.295 17.206 259.887 17.206C259.479 17.206 259.047 17.206 258.591 17.206V18.376C258.591 18.82 258.585 19.186 258.573 19.474C258.561 19.762 258.555 20.122 258.555 20.554V20.59C258.975 20.566 259.365 20.542 259.725 20.518C260.085 20.494 260.523 20.482 261.039 20.482H268.077ZM270.068 23.506C270.068 23.05 270.158 22.546 270.338 21.994C270.518 21.43 270.764 20.908 271.076 20.428C271.388 19.948 271.73 19.588 272.102 19.348C272.99 19.828 273.98 20.242 275.072 20.59C276.164 20.926 277.232 21.094 278.276 21.094C278.948 21.094 279.5 20.956 279.932 20.68C280.376 20.404 280.598 20.014 280.598 19.51C280.598 19.186 280.472 18.892 280.22 18.628C279.968 18.352 279.53 18.1 278.906 17.872L275.918 16.702C274.994 16.366 274.13 15.946 273.326 15.442C272.522 14.938 271.874 14.32 271.382 13.588C270.89 12.856 270.644 11.98 270.644 10.96C270.644 9.088 271.364 7.564 272.804 6.388C274.244 5.212 276.182 4.624 278.618 4.624C279.998 4.624 281.366 4.786 282.722 5.11C284.09 5.422 285.236 5.782 286.16 6.19C286.16 7.006 285.992 7.81 285.656 8.602C285.32 9.394 284.858 10.018 284.27 10.474C283.382 10.078 282.416 9.748 281.372 9.484C280.328 9.208 279.386 9.07 278.546 9.07C277.922 9.07 277.442 9.202 277.106 9.466C276.782 9.73 276.62 10.048 276.62 10.42C276.62 10.768 276.782 11.032 277.106 11.212C277.43 11.392 277.832 11.572 278.312 11.752L281.282 12.886C282.938 13.486 284.252 14.314 285.224 15.37C286.208 16.414 286.7 17.704 286.7 19.24C286.7 20.596 286.334 21.742 285.602 22.678C284.882 23.614 283.892 24.322 282.632 24.802C281.384 25.282 279.974 25.528 278.402 25.54C276.53 25.54 274.862 25.324 273.398 24.892C271.946 24.46 270.836 23.998 270.068 23.506ZM290.277 5.164C290.733 5.068 291.249 5.008 291.825 4.984C292.401 4.96 292.857 4.948 293.193 4.948C293.553 4.948 293.985 4.96 294.489 4.984C295.005 5.008 295.503 5.068 295.983 5.164V25C295.503 25.084 295.005 25.138 294.489 25.162C293.985 25.198 293.553 25.216 293.193 25.216C292.857 25.216 292.401 25.198 291.825 25.162C291.249 25.138 290.733 25.084 290.277 25V5.164ZM319.299 15.118C319.299 18.478 318.513 20.992 316.941 22.66C315.369 24.316 312.891 25.144 309.507 25.144C308.079 25.144 306.723 25.132 305.439 25.108C304.167 25.096 302.823 25.072 301.407 25.036L301.209 24.82V5.344L301.407 5.128C302.835 5.092 304.185 5.062 305.457 5.038C306.729 5.002 308.079 4.984 309.507 4.984C312.855 4.984 315.321 5.854 316.905 7.594C318.501 9.322 319.299 11.83 319.299 15.118ZM313.503 15.118C313.503 14.242 313.413 13.366 313.233 12.49C313.053 11.602 312.675 10.858 312.099 10.258C311.523 9.658 310.659 9.358 309.507 9.358C308.979 9.358 308.523 9.358 308.139 9.358C307.767 9.346 307.335 9.334 306.843 9.322V20.842C307.359 20.842 307.797 20.836 308.157 20.824C308.529 20.812 308.979 20.806 309.507 20.806C310.659 20.806 311.523 20.512 312.099 19.924C312.675 19.324 313.053 18.586 313.233 17.71C313.413 16.834 313.503 15.97 313.503 15.118ZM327.73 21.526C327.538 21.526 327.352 21.526 327.172 21.526C326.992 21.514 326.812 21.502 326.632 21.49L325.516 25C325.168 25.084 324.79 25.144 324.382 25.18C323.974 25.228 323.548 25.252 323.104 25.252C322.624 25.252 322.138 25.216 321.646 25.144C321.166 25.072 320.77 24.97 320.458 24.838L320.26 24.532L327.262 5.164C327.886 5.068 328.486 5.008 329.062 4.984C329.65 4.96 330.184 4.948 330.664 4.948C331.108 4.948 331.588 4.96 332.104 4.984C332.62 5.008 333.202 5.068 333.85 5.164L340.654 24.73C340.234 24.922 339.7 25.066 339.052 25.162C338.404 25.27 337.882 25.324 337.486 25.324C336.826 25.324 336.19 25.198 335.578 24.946C334.966 24.694 334.504 24.028 334.192 22.948L333.742 21.49C333.55 21.502 333.364 21.514 333.184 21.526C333.004 21.526 332.812 21.526 332.608 21.526H327.73ZM328.45 15.838L328.054 17.08C328.234 17.068 328.414 17.062 328.594 17.062C328.774 17.05 328.96 17.044 329.152 17.044H331.402C331.582 17.044 331.744 17.05 331.888 17.062C332.044 17.062 332.2 17.068 332.356 17.08L331.978 15.856C331.702 14.908 331.426 13.852 331.15 12.688C330.874 11.524 330.622 10.468 330.394 9.52H330.178C329.926 10.432 329.644 11.476 329.332 12.652C329.032 13.828 328.738 14.89 328.45 15.838ZM361.487 15.118C361.487 18.478 360.701 20.992 359.129 22.66C357.557 24.316 355.079 25.144 351.695 25.144C350.267 25.144 348.911 25.132 347.627 25.108C346.355 25.096 345.011 25.072 343.595 25.036L343.397 24.82V5.344L343.595 5.128C345.023 5.092 346.373 5.062 347.645 5.038C348.917 5.002 350.267 4.984 351.695 4.984C355.043 4.984 357.509 5.854 359.093 7.594C360.689 9.322 361.487 11.83 361.487 15.118ZM355.691 15.118C355.691 14.242 355.601 13.366 355.421 12.49C355.241 11.602 354.863 10.858 354.287 10.258C353.711 9.658 352.847 9.358 351.695 9.358C351.167 9.358 350.711 9.358 350.327 9.358C349.955 9.346 349.523 9.334 349.031 9.322V20.842C349.547 20.842 349.985 20.836 350.345 20.824C350.717 20.812 351.167 20.806 351.695 20.806C352.847 20.806 353.711 20.512 354.287 19.924C354.863 19.324 355.241 18.586 355.421 17.71C355.601 16.834 355.691 15.97 355.691 15.118Z" fill="#364760"/>
</svg>
