<svg width="253" height="102" viewBox="0 0 253 102" fill="none" xmlns="http://www.w3.org/2000/svg">
<rect opacity="0.5" y="0.0439453" width="253" height="101.083" rx="10" fill="#DBDADA"/>
<path d="M92.3135 23.0699C92.3135 24.2219 92.0915 25.2479 91.6475 26.1479C91.2035 27.0359 90.6455 27.7799 89.9735 28.3799C89.3015 28.9679 88.6235 29.3939 87.9395 29.6579C88.6115 29.8979 89.1695 30.3119 89.6135 30.8999C90.0695 31.4879 90.4355 32.1779 90.7115 32.9699L91.7915 36.0119C92.1995 37.1759 92.7935 38.0639 93.5735 38.6759C93.2015 39.1559 92.6615 39.5579 91.9535 39.8819C91.2455 40.2059 90.5075 40.3679 89.7395 40.3679C88.7075 40.3679 87.9575 40.0919 87.4895 39.5399C87.0215 38.9759 86.5955 38.1419 86.2115 37.0379L84.9155 33.2759C84.7115 32.6519 84.3935 32.1239 83.9615 31.6919C83.5295 31.2479 82.8335 31.0259 81.8735 31.0259H80.3795V40.0439C79.8995 40.1279 79.4015 40.1819 78.8855 40.2059C78.3695 40.2419 77.9135 40.2599 77.5175 40.2599C77.1695 40.2599 76.7255 40.2419 76.1855 40.2059C75.6455 40.1819 75.1415 40.1279 74.6735 40.0439V15.6359L74.9255 15.3839C76.4615 15.3479 77.9375 15.3179 79.3535 15.2939C80.7815 15.2579 82.1795 15.2399 83.5475 15.2399C85.2155 15.2399 86.7095 15.5159 88.0295 16.0679C89.3615 16.6199 90.4055 17.4719 91.1615 18.6239C91.9295 19.7759 92.3135 21.2579 92.3135 23.0699ZM80.3795 19.5599V26.6159C80.9435 26.5919 81.4715 26.5739 81.9635 26.5619C82.4675 26.5499 82.8335 26.5439 83.0615 26.5439C83.9735 26.5439 84.6695 26.3819 85.1495 26.0579C85.6415 25.7219 85.9775 25.2899 86.1575 24.7619C86.3495 24.2339 86.4455 23.6699 86.4455 23.0699C86.4455 22.4459 86.3495 21.8699 86.1575 21.3419C85.9775 20.8139 85.6415 20.3939 85.1495 20.0819C84.6695 19.7579 83.9735 19.5959 83.0615 19.5959C82.6895 19.5959 82.2755 19.5959 81.8195 19.5959C81.3755 19.5959 80.8955 19.5839 80.3795 19.5599ZM101.718 36.5699C101.526 36.5699 101.34 36.5699 101.16 36.5699C100.98 36.5579 100.8 36.5459 100.62 36.5339L99.5039 40.0439C99.1559 40.1279 98.7779 40.1879 98.3699 40.2239C97.9619 40.2719 97.5359 40.2959 97.0919 40.2959C96.6119 40.2959 96.1259 40.2599 95.6339 40.1879C95.1539 40.1159 94.7579 40.0139 94.4459 39.8819L94.2479 39.5759L101.25 20.2079C101.874 20.1119 102.474 20.0519 103.05 20.0279C103.638 20.0039 104.172 19.9919 104.652 19.9919C105.096 19.9919 105.576 20.0039 106.092 20.0279C106.608 20.0519 107.19 20.1119 107.838 20.2079L114.642 39.7739C114.222 39.9659 113.688 40.1099 113.04 40.2059C112.392 40.3139 111.87 40.3679 111.474 40.3679C110.814 40.3679 110.178 40.2419 109.566 39.9899C108.954 39.7379 108.492 39.0719 108.18 37.9919L107.73 36.5339C107.538 36.5459 107.352 36.5579 107.172 36.5699C106.992 36.5699 106.8 36.5699 106.596 36.5699H101.718ZM102.438 30.8819L102.042 32.1239C102.222 32.1119 102.402 32.1059 102.582 32.1059C102.762 32.0939 102.948 32.0879 103.14 32.0879H105.39C105.57 32.0879 105.732 32.0939 105.876 32.1059C106.032 32.1059 106.188 32.1119 106.344 32.1239L105.966 30.8999C105.69 29.9519 105.414 28.8959 105.138 27.7319C104.862 26.5679 104.61 25.5119 104.382 24.5639H104.166C103.914 25.4759 103.632 26.5199 103.32 27.6959C103.02 28.8719 102.726 29.9339 102.438 30.8819ZM118.645 20.2079C119.221 20.0999 119.851 20.0279 120.535 19.9919C121.219 19.9439 121.795 19.9199 122.263 19.9199C122.707 19.9199 123.283 19.9439 123.991 19.9919C124.699 20.0279 125.293 20.0999 125.773 20.2079L127.537 28.0199C127.645 28.4879 127.771 29.1239 127.915 29.9279C128.059 30.7199 128.203 31.5719 128.347 32.4839H128.581C128.869 30.5639 129.139 29.0759 129.391 28.0199L131.137 20.2079C131.701 20.0999 132.319 20.0279 132.991 19.9919C133.663 19.9439 134.221 19.9199 134.665 19.9199C135.133 19.9199 135.715 19.9439 136.411 19.9919C137.107 20.0279 137.731 20.0999 138.283 20.2079L140.317 39.9719C139.537 40.1639 138.595 40.2599 137.491 40.2599C137.071 40.2599 136.621 40.2419 136.141 40.2059C135.673 40.1699 135.253 40.1159 134.881 40.0439L134.359 33.6719C134.299 32.8559 134.263 31.9619 134.251 30.9899C134.239 30.0179 134.239 29.0699 134.251 28.1459C134.263 27.2099 134.263 26.3999 134.251 25.7159H134.035L131.389 37.0019C130.981 37.0739 130.483 37.1279 129.895 37.1639C129.307 37.1879 128.821 37.1999 128.437 37.1999C128.041 37.1999 127.549 37.1879 126.961 37.1639C126.385 37.1279 125.905 37.0739 125.521 37.0019L122.893 25.7159H122.641C122.641 26.4119 122.641 27.2219 122.641 28.1459C122.653 29.0699 122.653 30.0179 122.641 30.9899C122.629 31.9619 122.587 32.8679 122.515 33.7079L122.047 40.0439C121.663 40.1159 121.243 40.1699 120.787 40.2059C120.343 40.2419 119.911 40.2599 119.491 40.2599C118.375 40.2599 117.415 40.1639 116.611 39.9719L118.645 20.2079ZM149.777 36.5699C149.585 36.5699 149.399 36.5699 149.219 36.5699C149.039 36.5579 148.859 36.5459 148.679 36.5339L147.563 40.0439C147.215 40.1279 146.837 40.1879 146.429 40.2239C146.021 40.2719 145.595 40.2959 145.151 40.2959C144.671 40.2959 144.185 40.2599 143.693 40.1879C143.213 40.1159 142.817 40.0139 142.505 39.8819L142.307 39.5759L149.309 20.2079C149.933 20.1119 150.533 20.0519 151.109 20.0279C151.697 20.0039 152.231 19.9919 152.711 19.9919C153.155 19.9919 153.635 20.0039 154.151 20.0279C154.667 20.0519 155.249 20.1119 155.897 20.2079L162.701 39.7739C162.281 39.9659 161.747 40.1099 161.099 40.2059C160.451 40.3139 159.929 40.3679 159.533 40.3679C158.873 40.3679 158.237 40.2419 157.625 39.9899C157.013 39.7379 156.551 39.0719 156.239 37.9919L155.789 36.5339C155.597 36.5459 155.411 36.5579 155.231 36.5699C155.051 36.5699 154.859 36.5699 154.655 36.5699H149.777ZM150.497 30.8819L150.101 32.1239C150.281 32.1119 150.461 32.1059 150.641 32.1059C150.821 32.0939 151.007 32.0879 151.199 32.0879H153.449C153.629 32.0879 153.791 32.0939 153.935 32.1059C154.091 32.1059 154.247 32.1119 154.403 32.1239L154.025 30.8999C153.749 29.9519 153.473 28.8959 153.197 27.7319C152.921 26.5679 152.669 25.5119 152.441 24.5639H152.225C151.973 25.4759 151.691 26.5199 151.379 27.6959C151.079 28.8719 150.785 29.9339 150.497 30.8819ZM163.518 38.5499C163.518 38.0939 163.608 37.5899 163.788 37.0379C163.968 36.4739 164.214 35.9519 164.526 35.4719C164.838 34.9919 165.18 34.6319 165.552 34.3919C166.44 34.8719 167.43 35.2859 168.522 35.6339C169.614 35.9699 170.682 36.1379 171.726 36.1379C172.398 36.1379 172.95 35.9999 173.382 35.7239C173.826 35.4479 174.048 35.0579 174.048 34.5539C174.048 34.2299 173.922 33.9359 173.67 33.6719C173.418 33.3959 172.98 33.1439 172.356 32.9159L169.368 31.7459C168.444 31.4099 167.58 30.9899 166.776 30.4859C165.972 29.9819 165.324 29.3639 164.832 28.6319C164.34 27.8999 164.094 27.0239 164.094 26.0039C164.094 24.1319 164.814 22.6079 166.254 21.4319C167.694 20.2559 169.632 19.6679 172.068 19.6679C173.448 19.6679 174.816 19.8299 176.172 20.1539C177.54 20.4659 178.686 20.8259 179.61 21.2339C179.61 22.0499 179.442 22.8539 179.106 23.6459C178.77 24.4379 178.308 25.0619 177.72 25.5179C176.832 25.1219 175.866 24.7919 174.822 24.5279C173.778 24.2519 172.836 24.1139 171.996 24.1139C171.372 24.1139 170.892 24.2459 170.556 24.5099C170.232 24.7739 170.07 25.0919 170.07 25.4639C170.07 25.8119 170.232 26.0759 170.556 26.2559C170.88 26.4359 171.282 26.6159 171.762 26.7959L174.732 27.9299C176.388 28.5299 177.702 29.3579 178.674 30.4139C179.658 31.4579 180.15 32.7479 180.15 34.2839C180.15 35.6399 179.784 36.7859 179.052 37.7219C178.332 38.6579 177.342 39.3659 176.082 39.8459C174.834 40.3259 173.424 40.5719 171.852 40.5839C169.98 40.5839 168.312 40.3679 166.848 39.9359C165.396 39.5039 164.286 39.0419 163.518 38.5499ZM74.7217 67.4659C75.0697 66.9859 75.5257 66.4039 76.0897 65.7199C76.6537 65.0239 77.1637 64.4299 77.6197 63.9379L77.5117 63.8299C76.6717 63.9379 75.7177 64.0159 74.6497 64.0639C73.5937 64.1119 72.6997 64.1359 71.9677 64.1359H66.8017C66.7177 63.7999 66.6577 63.4759 66.6217 63.1639C66.5977 62.8399 66.5857 62.5219 66.5857 62.2099C66.5857 61.7179 66.6217 61.2559 66.6937 60.8239C66.7657 60.3919 66.8617 59.9359 66.9817 59.4559H82.9117C83.1637 60.3559 83.3437 61.0339 83.4517 61.4899C83.5717 61.9459 83.6437 62.2759 83.6677 62.4799C83.6917 62.6719 83.7037 62.8399 83.7037 62.9839C83.7037 63.3079 83.6557 63.6379 83.5597 63.9739C83.4757 64.3099 83.3137 64.6519 83.0737 64.9999L75.0457 76.0159C74.6977 76.4959 74.2597 77.0599 73.7317 77.7079C73.2037 78.3439 72.7057 78.9079 72.2377 79.3999L72.3457 79.5079C73.1137 79.4479 74.0137 79.3939 75.0457 79.3459C76.0777 79.2859 76.9777 79.2559 77.7457 79.2559H79.7437C80.6197 79.2559 81.3937 79.1719 82.0657 79.0039C82.7377 78.8359 83.3197 78.6379 83.8117 78.4099C83.9197 78.7579 84.0097 79.1659 84.0817 79.6339C84.1537 80.1019 84.1897 80.5579 84.1897 81.0019C84.1897 82.0339 83.8357 82.8019 83.1277 83.3059C82.4317 83.7979 81.5317 84.0439 80.4277 84.0439H66.6577C66.4657 83.1919 66.3217 82.5499 66.2257 82.1179C66.1417 81.6859 66.0877 81.3679 66.0637 81.1639C66.0397 80.9479 66.0277 80.7559 66.0277 80.5879C66.0277 80.2399 66.0817 79.8799 66.1897 79.5079C66.3097 79.1239 66.4837 78.7759 66.7117 78.4639L74.7217 67.4659ZM86.2024 74.1619C86.2024 70.9459 87.0304 68.3959 88.6864 66.5119C90.3544 64.6159 92.7844 63.6679 95.9764 63.6679C99.2164 63.6679 101.658 64.6099 103.302 66.4939C104.958 68.3659 105.786 70.9219 105.786 74.1619C105.786 77.4019 104.958 79.9519 103.302 81.8119C101.646 83.6599 99.2044 84.5839 95.9764 84.5839C92.7364 84.5839 90.2944 83.6479 88.6504 81.7759C87.0184 79.9039 86.2024 77.3659 86.2024 74.1619ZM92.0164 74.1619C92.0164 74.8459 92.0584 75.5539 92.1424 76.2859C92.2384 77.0059 92.4184 77.6779 92.6824 78.3019C92.9584 78.9259 93.3604 79.4359 93.8884 79.8319C94.4164 80.2159 95.1184 80.4079 95.9944 80.4079C96.8704 80.4079 97.5724 80.2159 98.1004 79.8319C98.6284 79.4359 99.0244 78.9259 99.2884 78.3019C99.5644 77.6779 99.7444 77.0059 99.8284 76.2859C99.9244 75.5539 99.9724 74.8459 99.9724 74.1619C99.9724 73.4659 99.9244 72.7519 99.8284 72.0199C99.7444 71.2759 99.5644 70.5919 99.2884 69.9679C99.0244 69.3319 98.6284 68.8219 98.1004 68.4379C97.5724 68.0419 96.8704 67.8439 95.9944 67.8439C95.1184 67.8439 94.4164 68.0419 93.8884 68.4379C93.3604 68.8219 92.9584 69.3319 92.6824 69.9679C92.4184 70.5919 92.2384 71.2759 92.1424 72.0199C92.0584 72.7519 92.0164 73.4659 92.0164 74.1619ZM116.476 74.9899C116.392 74.7979 116.26 74.4979 116.08 74.0899C115.9 73.6699 115.708 73.2199 115.504 72.7399C115.3 72.2599 115.108 71.8099 114.928 71.3899C114.76 70.9699 114.628 70.6639 114.532 70.4719L114.406 70.5259C114.454 71.4739 114.502 72.4999 114.55 73.6039C114.598 74.6959 114.634 75.6979 114.658 76.6099C114.694 77.5099 114.712 78.1639 114.712 78.5719V84.0439C114.244 84.1279 113.794 84.1819 113.362 84.2059C112.93 84.2419 112.528 84.2599 112.156 84.2599C111.82 84.2599 111.4 84.2419 110.896 84.2059C110.404 84.1819 109.936 84.1279 109.492 84.0439V64.3339C109.936 64.2259 110.488 64.1419 111.148 64.0819C111.808 64.0219 112.318 63.9919 112.678 63.9919C113.05 63.9919 113.578 64.0039 114.262 64.0279C114.946 64.0399 115.51 64.0999 115.954 64.2079L120.184 73.2259C120.268 73.3939 120.406 73.6999 120.598 74.1439C120.802 74.5879 121.018 75.0739 121.246 75.6019C121.474 76.1299 121.684 76.6279 121.876 77.0959C122.08 77.5519 122.23 77.8879 122.326 78.1039L122.488 78.0679C122.44 77.2759 122.374 76.3519 122.29 75.2959C122.218 74.2399 122.152 73.2199 122.092 72.2359C122.032 71.2519 122.002 70.4659 122.002 69.8779V67.0699C122.002 65.7979 122.278 64.9639 122.83 64.5679C123.382 64.1599 124.204 63.9559 125.296 63.9559H127.15L127.366 64.2079V83.9359C126.898 84.0439 126.334 84.1219 125.674 84.1699C125.014 84.2299 124.51 84.2599 124.162 84.2599C123.922 84.2599 123.592 84.2539 123.172 84.2419C122.752 84.2299 122.32 84.2119 121.876 84.1879C121.444 84.1639 121.084 84.1159 120.796 84.0439L116.476 74.9899ZM137.595 80.5699C137.403 80.5699 137.217 80.5699 137.037 80.5699C136.857 80.5579 136.677 80.5459 136.497 80.5339L135.381 84.0439C135.033 84.1279 134.655 84.1879 134.247 84.2239C133.839 84.2719 133.413 84.2959 132.969 84.2959C132.489 84.2959 132.003 84.2599 131.511 84.1879C131.031 84.1159 130.635 84.0139 130.323 83.8819L130.125 83.5759L137.127 64.2079C137.751 64.1119 138.351 64.0519 138.927 64.0279C139.515 64.0039 140.049 63.9919 140.529 63.9919C140.973 63.9919 141.453 64.0039 141.969 64.0279C142.485 64.0519 143.067 64.1119 143.715 64.2079L150.519 83.7739C150.099 83.9659 149.565 84.1099 148.917 84.2059C148.269 84.3139 147.747 84.3679 147.351 84.3679C146.691 84.3679 146.055 84.2419 145.443 83.9899C144.831 83.7379 144.369 83.0719 144.057 81.9919L143.607 80.5339C143.415 80.5459 143.229 80.5579 143.049 80.5699C142.869 80.5699 142.677 80.5699 142.473 80.5699H137.595ZM138.315 74.8819L137.919 76.1239C138.099 76.1119 138.279 76.1059 138.459 76.1059C138.639 76.0939 138.825 76.0879 139.017 76.0879H141.267C141.447 76.0879 141.609 76.0939 141.753 76.1059C141.909 76.1059 142.065 76.1119 142.221 76.1239L141.843 74.8999C141.567 73.9519 141.291 72.8959 141.015 71.7319C140.739 70.5679 140.487 69.5119 140.259 68.5639H140.043C139.791 69.4759 139.509 70.5199 139.197 71.6959C138.897 72.8719 138.603 73.9339 138.315 74.8819ZM151.336 82.5499C151.336 82.0939 151.426 81.5899 151.606 81.0379C151.786 80.4739 152.032 79.9519 152.344 79.4719C152.656 78.9919 152.998 78.6319 153.37 78.3919C154.258 78.8719 155.248 79.2859 156.34 79.6339C157.432 79.9699 158.5 80.1379 159.544 80.1379C160.216 80.1379 160.768 79.9999 161.2 79.7239C161.644 79.4479 161.866 79.0579 161.866 78.5539C161.866 78.2299 161.74 77.9359 161.488 77.6719C161.236 77.3959 160.798 77.1439 160.174 76.9159L157.186 75.7459C156.262 75.4099 155.398 74.9899 154.594 74.4859C153.79 73.9819 153.142 73.3639 152.65 72.6319C152.158 71.8999 151.912 71.0239 151.912 70.0039C151.912 68.1319 152.632 66.6079 154.072 65.4319C155.512 64.2559 157.45 63.6679 159.886 63.6679C161.266 63.6679 162.634 63.8299 163.99 64.1539C165.358 64.4659 166.504 64.8259 167.428 65.2339C167.428 66.0499 167.26 66.8539 166.924 67.6459C166.588 68.4379 166.126 69.0619 165.538 69.5179C164.65 69.1219 163.684 68.7919 162.64 68.5279C161.596 68.2519 160.654 68.1139 159.814 68.1139C159.19 68.1139 158.71 68.2459 158.374 68.5099C158.05 68.7739 157.888 69.0919 157.888 69.4639C157.888 69.8119 158.05 70.0759 158.374 70.2559C158.698 70.4359 159.1 70.6159 159.58 70.7959L162.55 71.9299C164.206 72.5299 165.52 73.3579 166.492 74.4139C167.476 75.4579 167.968 76.7479 167.968 78.2839C167.968 79.6399 167.602 80.7859 166.87 81.7219C166.15 82.6579 165.16 83.3659 163.9 83.8459C162.652 84.3259 161.242 84.5719 159.67 84.5839C157.798 84.5839 156.13 84.3679 154.666 83.9359C153.214 83.5039 152.104 83.0419 151.336 82.5499ZM170.951 70.3099H173.795C174.251 70.3099 174.665 70.3159 175.037 70.3279C175.421 70.3399 175.823 70.3459 176.243 70.3459C176.243 69.9019 176.237 69.4939 176.225 69.1219C176.213 68.7379 176.207 68.3119 176.207 67.8439V64.8019C176.627 64.7179 177.029 64.6639 177.413 64.6399C177.809 64.6159 178.205 64.6039 178.601 64.6039C178.997 64.6039 179.387 64.6159 179.771 64.6399C180.167 64.6639 180.575 64.7179 180.995 64.8019V67.8439C180.995 68.3119 180.989 68.7379 180.977 69.1219C180.965 69.4939 180.959 69.9019 180.959 70.3459C181.379 70.3459 181.775 70.3399 182.147 70.3279C182.531 70.3159 182.951 70.3099 183.407 70.3099H186.251C186.407 71.0779 186.485 71.8279 186.485 72.5599C186.485 73.3759 186.407 74.1199 186.251 74.7919H183.407C182.951 74.7919 182.531 74.7919 182.147 74.7919C181.775 74.7799 181.379 74.7679 180.959 74.7559C180.959 75.1879 180.965 75.5899 180.977 75.9619C180.989 76.3219 180.995 76.7299 180.995 77.1859V80.2639C180.575 80.3479 180.179 80.4019 179.807 80.4259C179.447 80.4499 179.069 80.4619 178.673 80.4619C178.265 80.4619 177.857 80.4499 177.449 80.4259C177.041 80.4019 176.627 80.3479 176.207 80.2639V77.1859C176.207 76.7299 176.213 76.3219 176.225 75.9619C176.237 75.5899 176.243 75.1879 176.243 74.7559C175.823 74.7679 175.421 74.7799 175.037 74.7919C174.665 74.7919 174.251 74.7919 173.795 74.7919H170.951C170.867 74.4559 170.807 74.1019 170.771 73.7299C170.735 73.3459 170.717 72.9559 170.717 72.5599C170.717 71.7319 170.795 70.9819 170.951 70.3099Z" fill="#364760"/>
</svg>
