<svg width="234" height="37" viewBox="0 0 234 37" fill="none" xmlns="http://www.w3.org/2000/svg">
<g filter="url(#filter0_d)">
<path d="M24.1478 9.14C24.1478 10.42 23.9011 11.56 23.4078 12.56C22.9145 13.5467 22.2945 14.3733 21.5478 15.04C20.8011 15.6933 20.0478 16.1667 19.2878 16.46C20.0345 16.7267 20.6545 17.1867 21.1478 17.84C21.6545 18.4933 22.0611 19.26 22.3678 20.14L23.5678 23.52C24.0211 24.8133 24.6811 25.8 25.5478 26.48C25.1345 27.0133 24.5345 27.46 23.7478 27.82C22.9611 28.18 22.1411 28.36 21.2878 28.36C20.1411 28.36 19.3078 28.0533 18.7878 27.44C18.2678 26.8133 17.7945 25.8867 17.3678 24.66L15.9278 20.48C15.7011 19.7867 15.3478 19.2 14.8678 18.72C14.3878 18.2267 13.6145 17.98 12.5478 17.98H10.8878V28C10.3545 28.0933 9.80115 28.1533 9.22781 28.18C8.65448 28.22 8.14781 28.24 7.70781 28.24C7.32115 28.24 6.82781 28.22 6.22781 28.18C5.62781 28.1533 5.06781 28.0933 4.54781 28V0.879999L4.82781 0.599998C6.53448 0.559999 8.17448 0.526666 9.74781 0.499998C11.3345 0.459999 12.8878 0.44 14.4078 0.44C16.2611 0.44 17.9211 0.746666 19.3878 1.36C20.8678 1.97333 22.0278 2.92 22.8678 4.2C23.7211 5.48 24.1478 7.12667 24.1478 9.14ZM10.8878 5.24V13.08C11.5145 13.0533 12.1011 13.0333 12.6478 13.02C13.2078 13.0067 13.6145 13 13.8678 13C14.8811 13 15.6545 12.82 16.1878 12.46C16.7345 12.0867 17.1078 11.6067 17.3078 11.02C17.5211 10.4333 17.6278 9.80667 17.6278 9.14C17.6278 8.44667 17.5211 7.80667 17.3078 7.22C17.1078 6.63333 16.7345 6.16667 16.1878 5.82C15.6545 5.46 14.8811 5.28 13.8678 5.28C13.4545 5.28 12.9945 5.28 12.4878 5.28C11.9945 5.28 11.4611 5.26667 10.8878 5.24ZM45.5428 22.98C45.5428 24.8867 45.2428 26.2133 44.6428 26.96C44.0561 27.7067 43.0561 28.08 41.6428 28.08H32.4228C31.2895 28.08 30.3961 27.76 29.7428 27.12C29.0895 26.4667 28.7628 25.5933 28.7628 24.5V6.18L28.9828 5.96H44.8028C44.8961 6.41333 44.9495 6.84667 44.9628 7.26C44.9761 7.67333 44.9828 8.06667 44.9828 8.44C44.9828 8.8 44.9428 9.20667 44.8628 9.66C44.7961 10.1133 44.6761 10.5733 44.5028 11.04H37.5028C36.9428 11.04 36.0961 11.0333 34.9628 11.02C34.9761 11.4333 34.9828 11.7867 34.9828 12.08C34.9961 12.3733 35.0028 12.7267 35.0028 13.14V14.46C36.1095 14.4467 36.9428 14.44 37.5028 14.44H42.6228C42.7561 14.8 42.8428 15.2133 42.8828 15.68C42.9361 16.1333 42.9628 16.52 42.9628 16.84C42.9628 17.2133 42.9361 17.6333 42.8828 18.1C42.8428 18.5533 42.7561 18.9667 42.6228 19.34H37.5028C37.2495 19.34 36.8961 19.34 36.4428 19.34C35.9895 19.34 35.5095 19.34 35.0028 19.34V20.64C35.0028 21.1333 34.9961 21.54 34.9828 21.86C34.9695 22.18 34.9628 22.58 34.9628 23.06V23.1C35.4295 23.0733 35.8628 23.0467 36.2628 23.02C36.6628 22.9933 37.1495 22.98 37.7228 22.98H45.5428ZM62.5041 22.16C62.5041 21.4933 62.5174 20.8267 62.5441 20.16C62.3041 20.16 62.0574 20.16 61.8041 20.16C61.5641 20.16 61.3307 20.16 61.1041 20.16C60.1174 20.16 59.3974 19.9533 58.9441 19.54C58.4907 19.1133 58.2641 18.44 58.2641 17.52C58.2641 17.16 58.2907 16.74 58.3441 16.26C58.4107 15.78 58.4907 15.4133 58.5841 15.16C59.5441 15.12 60.4974 15.1 61.4441 15.1C62.3907 15.0867 63.3507 15.08 64.3241 15.08C65.8574 15.08 66.9041 15.3733 67.4641 15.96C68.0374 16.5467 68.3241 17.38 68.3241 18.46V27.3C67.6174 27.5267 66.7174 27.74 65.6241 27.94C64.5307 28.14 63.3974 28.3 62.2241 28.42C61.0507 28.54 59.9841 28.6 59.0241 28.6C56.3707 28.6 54.2241 28.1133 52.5841 27.14C50.9574 26.1667 49.7707 24.8333 49.0241 23.14C48.2907 21.4333 47.9241 19.5 47.9241 17.34C47.9241 14.4867 48.4507 12.1867 49.5041 10.44C50.5707 8.68 51.9841 7.39333 53.7441 6.58C55.5041 5.76666 57.4307 5.36 59.5241 5.36C61.0974 5.36 62.6107 5.52 64.0641 5.84C65.5307 6.14667 66.8241 6.56 67.9441 7.08C67.8774 7.94667 67.6174 8.85333 67.1641 9.8C66.7241 10.7333 66.2241 11.4467 65.6641 11.94C63.6241 10.9267 61.6841 10.42 59.8441 10.42C56.2041 10.42 54.3841 12.7 54.3841 17.26C54.3841 19.5267 54.8507 21.2 55.7841 22.28C56.7174 23.36 58.1507 23.9 60.0841 23.9C60.4841 23.9 60.8907 23.8867 61.3041 23.86C61.7174 23.82 62.1174 23.7667 62.5041 23.7V22.16ZM73.1788 5.96C73.6854 5.85333 74.2588 5.78667 74.8988 5.76C75.5388 5.73333 76.0454 5.72 76.4188 5.72C76.8188 5.72 77.2988 5.73333 77.8588 5.76C78.4321 5.78667 78.9854 5.85333 79.5188 5.96V28C78.9854 28.0933 78.4321 28.1533 77.8588 28.18C77.2988 28.22 76.8188 28.24 76.4188 28.24C76.0454 28.24 75.5388 28.22 74.8988 28.18C74.2588 28.1533 73.6854 28.0933 73.1788 28V5.96ZM83.1853 26.34C83.1853 25.8333 83.2853 25.2733 83.4853 24.66C83.6853 24.0333 83.9586 23.4533 84.3053 22.92C84.652 22.3867 85.032 21.9867 85.4453 21.72C86.432 22.2533 87.532 22.7133 88.7453 23.1C89.9586 23.4733 91.1453 23.66 92.3053 23.66C93.052 23.66 93.6653 23.5067 94.1453 23.2C94.6386 22.8933 94.8853 22.46 94.8853 21.9C94.8853 21.54 94.7453 21.2133 94.4653 20.92C94.1853 20.6133 93.6986 20.3333 93.0053 20.08L89.6853 18.78C88.6586 18.4067 87.6986 17.94 86.8053 17.38C85.912 16.82 85.192 16.1333 84.6453 15.32C84.0986 14.5067 83.8253 13.5333 83.8253 12.4C83.8253 10.32 84.6253 8.62667 86.2253 7.32C87.8253 6.01333 89.9786 5.36 92.6853 5.36C94.2186 5.36 95.7386 5.54 97.2453 5.9C98.7653 6.24667 100.039 6.64667 101.065 7.1C101.065 8.00667 100.879 8.9 100.505 9.78C100.132 10.66 99.6186 11.3533 98.9653 11.86C97.9786 11.42 96.9053 11.0533 95.7453 10.76C94.5853 10.4533 93.5386 10.3 92.6053 10.3C91.912 10.3 91.3786 10.4467 91.0053 10.74C90.6453 11.0333 90.4653 11.3867 90.4653 11.8C90.4653 12.1867 90.6453 12.48 91.0053 12.68C91.3653 12.88 91.812 13.08 92.3453 13.28L95.6453 14.54C97.4853 15.2067 98.9453 16.1267 100.025 17.3C101.119 18.46 101.665 19.8933 101.665 21.6C101.665 23.1067 101.259 24.38 100.445 25.42C99.6453 26.46 98.5453 27.2467 97.1453 27.78C95.7586 28.3133 94.192 28.5867 92.4453 28.6C90.3653 28.6 88.512 28.36 86.8853 27.88C85.272 27.4 84.0386 26.8867 83.1853 26.34ZM108.334 13.46C108.334 13.0333 108.34 12.64 108.354 12.28C108.367 11.9067 108.374 11.4933 108.374 11.04C108.094 11.04 107.707 11.0467 107.214 11.06C106.734 11.0733 106.354 11.08 106.074 11.08H102.374C102.267 10.6 102.2 10.1533 102.174 9.74C102.147 9.31333 102.134 8.92667 102.134 8.58C102.134 8.23333 102.147 7.82667 102.174 7.36C102.2 6.88 102.267 6.41333 102.374 5.96H120.474C120.567 6.32 120.634 6.72667 120.674 7.18C120.727 7.63333 120.754 8 120.754 8.28C120.754 9.18667 120.514 9.88 120.034 10.36C119.554 10.84 118.754 11.08 117.634 11.08H116.814C116.534 11.08 116.16 11.0733 115.694 11.06C115.24 11.0467 114.887 11.04 114.634 11.04C114.634 11.4933 114.64 11.9067 114.654 12.28C114.667 12.64 114.674 13.0333 114.674 13.46V28C114.3 28.08 113.787 28.14 113.134 28.18C112.48 28.22 111.934 28.24 111.494 28.24C111.08 28.24 110.56 28.22 109.934 28.18C109.307 28.14 108.774 28.08 108.334 28V13.46ZM141.41 12.66C141.41 13.6867 141.177 14.6 140.71 15.4C140.244 16.2 139.657 16.86 138.95 17.38C138.257 17.9 137.564 18.2333 136.87 18.38C137.59 18.62 138.184 18.9867 138.65 19.48C139.13 19.9733 139.544 20.6067 139.89 21.38L140.93 23.76C141.17 24.3067 141.444 24.8133 141.75 25.28C142.057 25.7333 142.397 26.12 142.77 26.44C142.384 26.92 141.804 27.3667 141.03 27.78C140.257 28.18 139.417 28.38 138.51 28.38C137.617 28.38 136.89 28.1667 136.33 27.74C135.784 27.3 135.304 26.6 134.89 25.64L133.13 21.6C132.85 20.9467 132.504 20.5533 132.09 20.42C131.677 20.2867 131.144 20.22 130.49 20.22H129.71V28C129.177 28.0933 128.624 28.1533 128.05 28.18C127.49 28.22 127.01 28.24 126.61 28.24C126.237 28.24 125.744 28.22 125.13 28.18C124.517 28.1533 123.957 28.0933 123.45 28V6.16L123.67 5.92C125.284 5.88 126.797 5.84667 128.21 5.82C129.637 5.78 131.057 5.76 132.47 5.76C134.07 5.76 135.55 5.97333 136.91 6.4C138.27 6.81333 139.357 7.52667 140.17 8.54C140.997 9.54 141.41 10.9133 141.41 12.66ZM129.71 10.28V15.46C130.177 15.4467 130.604 15.44 130.99 15.44C131.39 15.4267 131.684 15.42 131.87 15.42C133.07 15.42 133.884 15.16 134.31 14.64C134.737 14.12 134.95 13.5133 134.95 12.82C134.95 12.14 134.737 11.5533 134.31 11.06C133.884 10.5667 133.17 10.32 132.17 10.32C131.69 10.32 131.277 10.3133 130.93 10.3C130.584 10.2867 130.177 10.28 129.71 10.28ZM151.824 24.14C151.61 24.14 151.404 24.14 151.204 24.14C151.004 24.1267 150.804 24.1133 150.604 24.1L149.364 28C148.977 28.0933 148.557 28.16 148.104 28.2C147.65 28.2533 147.177 28.28 146.684 28.28C146.15 28.28 145.61 28.24 145.064 28.16C144.53 28.08 144.09 27.9667 143.744 27.82L143.524 27.48L151.304 5.96C151.997 5.85333 152.664 5.78667 153.304 5.76C153.957 5.73333 154.55 5.72 155.084 5.72C155.577 5.72 156.11 5.73333 156.684 5.76C157.257 5.78667 157.904 5.85333 158.624 5.96L166.184 27.7C165.717 27.9133 165.124 28.0733 164.404 28.18C163.684 28.3 163.104 28.36 162.664 28.36C161.93 28.36 161.224 28.22 160.544 27.94C159.864 27.66 159.35 26.92 159.004 25.72L158.504 24.1C158.29 24.1133 158.084 24.1267 157.884 24.14C157.684 24.14 157.47 24.14 157.244 24.14H151.824ZM152.624 17.82L152.184 19.2C152.384 19.1867 152.584 19.18 152.784 19.18C152.984 19.1667 153.19 19.16 153.404 19.16H155.904C156.104 19.16 156.284 19.1667 156.444 19.18C156.617 19.18 156.79 19.1867 156.964 19.2L156.544 17.84C156.237 16.7867 155.93 15.6133 155.624 14.32C155.317 13.0267 155.037 11.8533 154.784 10.8H154.544C154.264 11.8133 153.95 12.9733 153.604 14.28C153.27 15.5867 152.944 16.7667 152.624 17.82ZM187.192 12.66C187.192 13.6867 186.958 14.6 186.492 15.4C186.025 16.2 185.438 16.86 184.732 17.38C184.038 17.9 183.345 18.2333 182.652 18.38C183.372 18.62 183.965 18.9867 184.432 19.48C184.912 19.9733 185.325 20.6067 185.672 21.38L186.712 23.76C186.952 24.3067 187.225 24.8133 187.532 25.28C187.838 25.7333 188.178 26.12 188.552 26.44C188.165 26.92 187.585 27.3667 186.812 27.78C186.038 28.18 185.198 28.38 184.292 28.38C183.398 28.38 182.672 28.1667 182.112 27.74C181.565 27.3 181.085 26.6 180.672 25.64L178.912 21.6C178.632 20.9467 178.285 20.5533 177.872 20.42C177.458 20.2867 176.925 20.22 176.272 20.22H175.492V28C174.958 28.0933 174.405 28.1533 173.832 28.18C173.272 28.22 172.792 28.24 172.392 28.24C172.018 28.24 171.525 28.22 170.912 28.18C170.298 28.1533 169.738 28.0933 169.232 28V6.16L169.452 5.92C171.065 5.88 172.578 5.84667 173.992 5.82C175.418 5.78 176.838 5.76 178.252 5.76C179.852 5.76 181.332 5.97333 182.692 6.4C184.052 6.81333 185.138 7.52667 185.952 8.54C186.778 9.54 187.192 10.9133 187.192 12.66ZM175.492 10.28V15.46C175.958 15.4467 176.385 15.44 176.772 15.44C177.172 15.4267 177.465 15.42 177.652 15.42C178.852 15.42 179.665 15.16 180.092 14.64C180.518 14.12 180.732 13.5133 180.732 12.82C180.732 12.14 180.518 11.5533 180.092 11.06C179.665 10.5667 178.952 10.32 177.952 10.32C177.472 10.32 177.058 10.3133 176.712 10.3C176.365 10.2867 175.958 10.28 175.492 10.28ZM189.865 26.34C189.865 25.8333 189.965 25.2733 190.165 24.66C190.365 24.0333 190.638 23.4533 190.985 22.92C191.332 22.3867 191.712 21.9867 192.125 21.72C193.112 22.2533 194.212 22.7133 195.425 23.1C196.638 23.4733 197.825 23.66 198.985 23.66C199.732 23.66 200.345 23.5067 200.825 23.2C201.318 22.8933 201.565 22.46 201.565 21.9C201.565 21.54 201.425 21.2133 201.145 20.92C200.865 20.6133 200.378 20.3333 199.685 20.08L196.365 18.78C195.338 18.4067 194.378 17.94 193.485 17.38C192.592 16.82 191.872 16.1333 191.325 15.32C190.778 14.5067 190.505 13.5333 190.505 12.4C190.505 10.32 191.305 8.62667 192.905 7.32C194.505 6.01333 196.658 5.36 199.365 5.36C200.898 5.36 202.418 5.54 203.925 5.9C205.445 6.24667 206.718 6.64667 207.745 7.1C207.745 8.00667 207.558 8.9 207.185 9.78C206.812 10.66 206.298 11.3533 205.645 11.86C204.658 11.42 203.585 11.0533 202.425 10.76C201.265 10.4533 200.218 10.3 199.285 10.3C198.592 10.3 198.058 10.4467 197.685 10.74C197.325 11.0333 197.145 11.3867 197.145 11.8C197.145 12.1867 197.325 12.48 197.685 12.68C198.045 12.88 198.492 13.08 199.025 13.28L202.325 14.54C204.165 15.2067 205.625 16.1267 206.705 17.3C207.798 18.46 208.345 19.8933 208.345 21.6C208.345 23.1067 207.938 24.38 207.125 25.42C206.325 26.46 205.225 27.2467 203.825 27.78C202.438 28.3133 200.872 28.5867 199.125 28.6C197.045 28.6 195.192 28.36 193.565 27.88C191.952 27.4 190.718 26.8867 189.865 26.34ZM229.019 22.98C229.019 24.8867 228.719 26.2133 228.119 26.96C227.533 27.7067 226.533 28.08 225.119 28.08H215.899C214.766 28.08 213.873 27.76 213.219 27.12C212.566 26.4667 212.239 25.5933 212.239 24.5V6.18L212.459 5.96H228.279C228.373 6.41333 228.426 6.84667 228.439 7.26C228.453 7.67333 228.459 8.06667 228.459 8.44C228.459 8.8 228.419 9.20667 228.339 9.66C228.273 10.1133 228.153 10.5733 227.979 11.04H220.979C220.419 11.04 219.573 11.0333 218.439 11.02C218.453 11.4333 218.459 11.7867 218.459 12.08C218.473 12.3733 218.479 12.7267 218.479 13.14V14.46C219.586 14.4467 220.419 14.44 220.979 14.44H226.099C226.233 14.8 226.319 15.2133 226.359 15.68C226.413 16.1333 226.439 16.52 226.439 16.84C226.439 17.2133 226.413 17.6333 226.359 18.1C226.319 18.5533 226.233 18.9667 226.099 19.34H220.979C220.726 19.34 220.373 19.34 219.919 19.34C219.466 19.34 218.986 19.34 218.479 19.34V20.64C218.479 21.1333 218.473 21.54 218.459 21.86C218.446 22.18 218.439 22.58 218.439 23.06V23.1C218.906 23.0733 219.339 23.0467 219.739 23.02C220.139 22.9933 220.626 22.98 221.199 22.98H229.019Z" fill="#364760"/>
</g>
<defs>
<filter id="filter0_d" x="0.547852" y="0.439941" width="232.472" height="36.16" filterUnits="userSpaceOnUse" color-interpolation-filters="sRGB">
<feFlood flood-opacity="0" result="BackgroundImageFix"/>
<feColorMatrix in="SourceAlpha" type="matrix" values="0 0 0 0 0 0 0 0 0 0 0 0 0 0 0 0 0 0 127 0"/>
<feOffset dy="4"/>
<feGaussianBlur stdDeviation="2"/>
<feColorMatrix type="matrix" values="0 0 0 0 0 0 0 0 0 0 0 0 0 0 0 0 0 0 0.25 0"/>
<feBlend mode="normal" in2="BackgroundImageFix" result="effect1_dropShadow"/>
<feBlend mode="normal" in="SourceGraphic" in2="effect1_dropShadow" result="shape"/>
</filter>
</defs>
</svg>
