<svg width="393" height="155" viewBox="0 0 393 155" fill="none" xmlns="http://www.w3.org/2000/svg">
<rect x="0.5" width="392" height="155" rx="20" fill="black" fill-opacity="0.25"/>
<path d="M46.1648 52.0349C46.1648 53.1185 45.956 54.0835 45.5384 54.93C45.1208 55.7652 44.596 56.465 43.9639 57.0293C43.3319 57.5824 42.6942 57.983 42.0508 58.2313C42.6829 58.4571 43.2077 58.8465 43.6253 59.3995C44.0542 59.9526 44.3985 60.6016 44.6581 61.3465L45.6739 64.2077C46.0576 65.3025 46.6163 66.1377 47.3499 66.7133C47.0001 67.1648 46.4922 67.5429 45.8262 67.8476C45.1603 68.1524 44.4662 68.3047 43.7438 68.3047C42.7732 68.3047 42.0678 68.0451 41.6276 67.526C41.1874 66.9955 40.7867 66.2111 40.4255 65.1727L39.2066 61.6343C39.0147 61.0474 38.7156 60.5508 38.3093 60.1444C37.903 59.7268 37.2483 59.518 36.3454 59.518H34.9402V68C34.4887 68.079 34.0203 68.1298 33.535 68.1524C33.0497 68.1862 32.6208 68.2032 32.2483 68.2032C31.921 68.2032 31.5034 68.1862 30.9955 68.1524C30.4876 68.1298 30.0136 68.079 29.5734 68V45.0428L29.8104 44.8058C31.2551 44.7719 32.6434 44.7437 33.9752 44.7212C35.3183 44.6873 36.6332 44.6704 37.9199 44.6704C39.4887 44.6704 40.8939 44.93 42.1355 45.4491C43.3883 45.9683 44.3703 46.7697 45.0813 47.8532C45.8037 48.9367 46.1648 50.3306 46.1648 52.0349ZM34.9402 48.7336V55.3702C35.4707 55.3476 35.9673 55.3307 36.4301 55.3194C36.9041 55.3081 37.2483 55.3024 37.4628 55.3024C38.3206 55.3024 38.9752 55.1501 39.4267 54.8453C39.8894 54.5293 40.2055 54.123 40.3748 53.6264C40.5553 53.1298 40.6456 52.5993 40.6456 52.0349C40.6456 51.448 40.5553 50.9063 40.3748 50.4097C40.2055 49.913 39.8894 49.518 39.4267 49.2245C38.9752 48.9198 38.3206 48.7674 37.4628 48.7674C37.1129 48.7674 36.7235 48.7674 36.2946 48.7674C35.877 48.7674 35.4255 48.7562 34.9402 48.7336ZM64.2758 63.7506C64.2758 65.3646 64.0218 66.4876 63.5139 67.1196C63.0173 67.7517 62.1708 68.0677 60.9744 68.0677H53.1697C52.2103 68.0677 51.4541 67.7968 50.901 67.2551C50.348 66.702 50.0715 65.9627 50.0715 65.0372V49.5293L50.2577 49.3431H63.6494C63.7284 49.7268 63.7735 50.0936 63.7848 50.4435C63.7961 50.7934 63.8017 51.1264 63.8017 51.4424C63.8017 51.7471 63.7679 52.0914 63.7002 52.4751C63.6437 52.8589 63.5421 53.2483 63.3954 53.6433H57.4699C56.9959 53.6433 56.2791 53.6377 55.3198 53.6264C55.3311 53.9763 55.3367 54.2754 55.3367 54.5237C55.348 54.772 55.3536 55.0711 55.3536 55.421V56.5383C56.2904 56.5271 56.9959 56.5214 57.4699 56.5214H61.804C61.9169 56.8262 61.9902 57.176 62.0241 57.5711C62.0692 57.9548 62.0918 58.2821 62.0918 58.553C62.0918 58.869 62.0692 59.2246 62.0241 59.6196C61.9902 60.0034 61.9169 60.3533 61.804 60.6693H57.4699C57.2554 60.6693 56.9564 60.6693 56.5726 60.6693C56.1889 60.6693 55.7825 60.6693 55.3536 60.6693V61.7697C55.3536 62.1873 55.348 62.5316 55.3367 62.8025C55.3254 63.0733 55.3198 63.412 55.3198 63.8183V63.8521C55.7148 63.8296 56.0816 63.807 56.4202 63.7844C56.7588 63.7618 57.1708 63.7506 57.6561 63.7506H64.2758ZM82.7912 55.7426C82.7912 57.2099 82.4582 58.4289 81.7923 59.3995C81.1377 60.3589 80.2348 61.0756 79.0835 61.5496C77.9323 62.0124 76.623 62.2438 75.1557 62.2438H73.3104V68C72.8589 68.079 72.3961 68.1298 71.9221 68.1524C71.448 68.1862 71.0417 68.2032 70.7031 68.2032C70.3871 68.2032 69.9582 68.1862 69.4164 68.1524C68.8747 68.1298 68.3893 68.079 67.9605 68V49.5124L68.1467 49.3092C69.0609 49.2866 70.1614 49.2584 71.448 49.2245C72.7347 49.1907 73.9706 49.1738 75.1557 49.1738C76.6343 49.1738 77.9492 49.3995 79.1004 49.851C80.2517 50.3024 81.1546 51.0135 81.8093 51.9842C82.4639 52.9548 82.7912 54.2076 82.7912 55.7426ZM73.3104 53.1354V58.316C73.6151 58.3047 73.8916 58.2991 74.1399 58.2991C74.3882 58.2878 74.5745 58.2821 74.6986 58.2821C75.4435 58.2821 76.0022 58.1467 76.3747 57.8758C76.7584 57.5936 77.0124 57.255 77.1366 56.86C77.2607 56.4537 77.3228 56.0699 77.3228 55.7088C77.3228 55.3702 77.2607 55.0033 77.1366 54.6083C77.0124 54.2133 76.7584 53.8747 76.3747 53.5925C76.0022 53.3103 75.4435 53.1693 74.6986 53.1693C74.4165 53.1693 74.2133 53.1693 74.0891 53.1693C73.965 53.158 73.7054 53.1467 73.3104 53.1354ZM84.6765 58.7054C84.6765 55.6806 85.4553 53.2821 87.0129 51.5101C88.5817 49.7268 90.8673 48.8352 93.8695 48.8352C96.917 48.8352 99.2138 49.7212 100.76 51.4932C102.318 53.2539 103.096 55.658 103.096 58.7054C103.096 61.7528 102.318 64.1512 100.76 65.9007C99.2025 67.6388 96.9057 68.5079 93.8695 68.5079C90.8221 68.5079 88.5253 67.6275 86.979 65.8668C85.444 64.1061 84.6765 61.7189 84.6765 58.7054ZM90.1449 58.7054C90.1449 59.3487 90.1844 60.0146 90.2634 60.7031C90.3537 61.3803 90.523 62.0124 90.7713 62.5993C91.0309 63.1862 91.409 63.6659 91.9057 64.0384C92.4023 64.3995 93.0625 64.5801 93.8865 64.5801C94.7104 64.5801 95.3707 64.3995 95.8673 64.0384C96.3639 63.6659 96.7364 63.1862 96.9847 62.5993C97.2443 62.0124 97.4136 61.3803 97.4926 60.7031C97.5829 60.0146 97.628 59.3487 97.628 58.7054C97.628 58.0508 97.5829 57.3792 97.4926 56.6907C97.4136 55.9909 97.2443 55.3476 96.9847 54.7607C96.7364 54.1625 96.3639 53.6828 95.8673 53.3216C95.3707 52.9492 94.7104 52.7629 93.8865 52.7629C93.0625 52.7629 92.4023 52.9492 91.9057 53.3216C91.409 53.6828 91.0309 54.1625 90.7713 54.7607C90.523 55.3476 90.3537 55.9909 90.2634 56.6907C90.1844 57.3792 90.1449 58.0508 90.1449 58.7054ZM121.785 55.0146C121.785 55.8837 121.588 56.6569 121.193 57.3341C120.798 58.0113 120.301 58.5699 119.703 59.0101C119.116 59.4503 118.529 59.7325 117.942 59.8566C118.552 60.0598 119.054 60.3702 119.449 60.7878C119.855 61.2054 120.205 61.7415 120.499 62.3961L121.379 64.4108C121.582 64.8736 121.814 65.3025 122.073 65.6975C122.333 66.0813 122.621 66.4086 122.937 66.6795C122.609 67.0858 122.118 67.4639 121.464 67.8138C120.809 68.1524 120.098 68.3217 119.331 68.3217C118.574 68.3217 117.959 68.1411 117.485 67.7799C117.022 67.4074 116.616 66.8149 116.266 66.0023L114.776 62.5824C114.539 62.0293 114.246 61.6964 113.896 61.5835C113.546 61.4706 113.095 61.4142 112.542 61.4142H111.881V68C111.43 68.079 110.961 68.1298 110.476 68.1524C110.002 68.1862 109.596 68.2032 109.257 68.2032C108.941 68.2032 108.523 68.1862 108.004 68.1524C107.485 68.1298 107.011 68.079 106.582 68V49.5124L106.768 49.3092C108.134 49.2753 109.415 49.2471 110.612 49.2245C111.819 49.1907 113.021 49.1738 114.218 49.1738C115.572 49.1738 116.825 49.3543 117.976 49.7155C119.127 50.0654 120.047 50.6693 120.736 51.527C121.435 52.3735 121.785 53.5361 121.785 55.0146ZM111.881 53V57.3848C112.276 57.3736 112.638 57.3679 112.965 57.3679C113.303 57.3566 113.552 57.351 113.71 57.351C114.726 57.351 115.414 57.1309 115.775 56.6907C116.136 56.2505 116.317 55.737 116.317 55.1501C116.317 54.5745 116.136 54.0778 115.775 53.6602C115.414 53.2426 114.81 53.0338 113.964 53.0338C113.557 53.0338 113.207 53.0282 112.914 53.0169C112.621 53.0056 112.276 53 111.881 53ZM128.704 55.6918C128.704 55.3307 128.71 54.9977 128.721 54.693C128.732 54.3769 128.738 54.027 128.738 53.6433C128.501 53.6433 128.174 53.6489 127.756 53.6602C127.35 53.6715 127.028 53.6772 126.791 53.6772H123.659C123.569 53.2708 123.512 52.8927 123.49 52.5428C123.467 52.1817 123.456 51.8544 123.456 51.5609C123.456 51.2674 123.467 50.9232 123.49 50.5282C123.512 50.1218 123.569 49.7268 123.659 49.3431H138.981C139.06 49.6478 139.116 49.992 139.15 50.3758C139.195 50.7595 139.218 51.0699 139.218 51.3069C139.218 52.0744 139.015 52.6614 138.608 53.0677C138.202 53.474 137.525 53.6772 136.577 53.6772H135.883C135.646 53.6772 135.33 53.6715 134.934 53.6602C134.551 53.6489 134.252 53.6433 134.037 53.6433C134.037 54.027 134.043 54.3769 134.054 54.693C134.065 54.9977 134.071 55.3307 134.071 55.6918V68C133.755 68.0677 133.32 68.1185 132.767 68.1524C132.214 68.1862 131.752 68.2032 131.379 68.2032C131.029 68.2032 130.589 68.1862 130.059 68.1524C129.528 68.1185 129.077 68.0677 128.704 68V55.6918ZM155.705 63.7506C155.705 65.3646 155.451 66.4876 154.943 67.1196C154.446 67.7517 153.6 68.0677 152.403 68.0677H144.599C143.639 68.0677 142.883 67.7968 142.33 67.2551C141.777 66.702 141.5 65.9627 141.5 65.0372V49.5293L141.687 49.3431H155.078C155.157 49.7268 155.203 50.0936 155.214 50.4435C155.225 50.7934 155.231 51.1264 155.231 51.4424C155.231 51.7471 155.197 52.0914 155.129 52.4751C155.073 52.8589 154.971 53.2483 154.824 53.6433H148.899C148.425 53.6433 147.708 53.6377 146.749 53.6264C146.76 53.9763 146.766 54.2754 146.766 54.5237C146.777 54.772 146.783 55.0711 146.783 55.421V56.5383C147.719 56.5271 148.425 56.5214 148.899 56.5214H153.233C153.346 56.8262 153.419 57.176 153.453 57.5711C153.498 57.9548 153.521 58.2821 153.521 58.553C153.521 58.869 153.498 59.2246 153.453 59.6196C153.419 60.0034 153.346 60.3533 153.233 60.6693H148.899C148.684 60.6693 148.385 60.6693 148.002 60.6693C147.618 60.6693 147.212 60.6693 146.783 60.6693V61.7697C146.783 62.1873 146.777 62.5316 146.766 62.8025C146.754 63.0733 146.749 63.412 146.749 63.8183V63.8521C147.144 63.8296 147.511 63.807 147.849 63.7844C148.188 63.7618 148.6 63.7506 149.085 63.7506H155.705ZM185.74 56.4198C185.74 57.7404 185.644 59.0158 185.453 60.246C185.272 61.465 184.911 62.605 184.369 63.6659C183.827 64.7269 183.015 65.6749 181.931 66.5102C181.412 66.9165 180.785 67.2438 180.052 67.4921C179.329 67.7404 178.585 67.921 177.817 68.0339C177.05 68.1467 176.35 68.2032 175.718 68.2032C174.262 68.2032 172.845 68.1862 171.468 68.1524C170.103 68.1298 168.68 68.1016 167.202 68.0677L166.965 67.8307V45.0428L167.202 44.8058C168.658 44.7607 170.074 44.7268 171.451 44.7042C172.84 44.6816 174.262 44.6704 175.718 44.6704C176.35 44.6704 177.05 44.7324 177.817 44.8566C178.585 44.9695 179.335 45.15 180.069 45.3984C180.802 45.6467 181.423 45.974 181.931 46.3803C183.003 47.2155 183.81 48.1636 184.352 49.2245C184.894 50.2742 185.261 51.4085 185.453 52.6275C185.644 53.8465 185.74 55.1106 185.74 56.4198ZM180.17 56.4198C180.17 55.562 180.114 54.693 180.001 53.8126C179.899 52.9209 179.696 52.1083 179.392 51.3747C179.098 50.6297 178.652 50.0316 178.054 49.5801C177.467 49.1173 176.688 48.8859 175.718 48.8859C175.142 48.8859 174.589 48.8859 174.059 48.8859C173.528 48.8859 172.964 48.8747 172.366 48.8521V64.0045C172.964 63.9932 173.528 63.9876 174.059 63.9876C174.589 63.9876 175.142 63.9876 175.718 63.9876C176.688 63.9876 177.467 63.7618 178.054 63.3104C178.652 62.8476 179.098 62.2438 179.392 61.4989C179.696 60.7426 179.899 59.9244 180.001 59.044C180.114 58.1523 180.17 57.2776 180.17 56.4198ZM203.651 63.7506C203.651 65.3646 203.397 66.4876 202.889 67.1196C202.393 67.7517 201.546 68.0677 200.35 68.0677H192.545C191.586 68.0677 190.83 67.7968 190.277 67.2551C189.723 66.702 189.447 65.9627 189.447 65.0372V49.5293L189.633 49.3431H203.025C203.104 49.7268 203.149 50.0936 203.16 50.4435C203.172 50.7934 203.177 51.1264 203.177 51.4424C203.177 51.7471 203.143 52.0914 203.076 52.4751C203.019 52.8589 202.918 53.2483 202.771 53.6433H196.845C196.371 53.6433 195.655 53.6377 194.695 53.6264C194.707 53.9763 194.712 54.2754 194.712 54.5237C194.723 54.772 194.729 55.0711 194.729 55.421V56.5383C195.666 56.5271 196.371 56.5214 196.845 56.5214H201.179C201.292 56.8262 201.366 57.176 201.4 57.5711C201.445 57.9548 201.467 58.2821 201.467 58.553C201.467 58.869 201.445 59.2246 201.4 59.6196C201.366 60.0034 201.292 60.3533 201.179 60.6693H196.845C196.631 60.6693 196.332 60.6693 195.948 60.6693C195.564 60.6693 195.158 60.6693 194.729 60.6693V61.7697C194.729 62.1873 194.723 62.5316 194.712 62.8025C194.701 63.0733 194.695 63.412 194.695 63.8183V63.8521C195.09 63.8296 195.457 63.807 195.796 63.7844C196.134 63.7618 196.546 63.7506 197.032 63.7506H203.651ZM35.1772 105.158C34.9966 105.158 34.7822 105.152 34.5339 105.141C34.2969 105.13 34.0655 105.124 33.8397 105.124L32.4007 110.034C32.0621 110.113 31.6953 110.164 31.3002 110.186C30.9165 110.22 30.5158 110.237 30.0982 110.237C29.6919 110.237 29.2291 110.203 28.7099 110.135C28.202 110.079 27.7957 109.989 27.491 109.865L27.2878 109.577L34.7709 86.8735C35.1998 86.8058 35.7133 86.755 36.3115 86.7212C36.921 86.6873 37.4515 86.6704 37.903 86.6704C38.3319 86.6704 38.8511 86.6929 39.4605 86.7381C40.07 86.7719 40.5948 86.8284 41.035 86.9074L48.315 109.644C47.9425 109.859 47.4572 110.023 46.859 110.135C46.2721 110.248 45.7247 110.305 45.2168 110.305C44.359 110.305 43.6874 110.107 43.2021 109.712C42.7167 109.306 42.3104 108.521 41.9831 107.359L41.3398 105.124C41.1253 105.124 40.8939 105.13 40.6456 105.141C40.3973 105.152 40.1829 105.158 40.0023 105.158H35.1772ZM35.8544 98.2675L35.0926 100.892C35.307 100.892 35.5384 100.892 35.7867 100.892C36.035 100.88 36.2551 100.875 36.447 100.875H38.9188C39.0881 100.875 39.2799 100.88 39.4944 100.892C39.7201 100.892 39.9402 100.892 40.1547 100.892L39.5621 98.7754C39.3025 97.8273 38.9978 96.7099 38.6479 95.4232C38.298 94.1365 37.982 92.9345 37.6998 91.8171H37.4966C37.3838 92.4492 37.2314 93.1489 37.0395 93.9164C36.8477 94.6839 36.6445 95.4514 36.4301 96.2189C36.2269 96.9751 36.035 97.658 35.8544 98.2675ZM65.8611 97.7426C65.8611 99.2099 65.5282 100.429 64.8623 101.4C64.2076 102.359 63.3047 103.076 62.1534 103.55C61.0022 104.012 59.6929 104.244 58.2257 104.244H56.3803V110C55.9288 110.079 55.4661 110.13 54.992 110.152C54.518 110.186 54.1117 110.203 53.7731 110.203C53.457 110.203 53.0281 110.186 52.4864 110.152C51.9446 110.13 51.4593 110.079 51.0304 110V91.5124L51.2166 91.3092C52.1308 91.2866 53.2313 91.2584 54.518 91.2245C55.8047 91.1907 57.0406 91.1738 58.2257 91.1738C59.7042 91.1738 61.0191 91.3995 62.1704 91.851C63.3216 92.3024 64.2246 93.0135 64.8792 93.9842C65.5338 94.9548 65.8611 96.2076 65.8611 97.7426ZM56.3803 95.1354V100.316C56.685 100.305 56.9616 100.299 57.2099 100.299C57.4582 100.288 57.6444 100.282 57.7686 100.282C58.5135 100.282 59.0722 100.147 59.4446 99.8758C59.8284 99.5936 60.0823 99.255 60.2065 98.86C60.3306 98.4537 60.3927 98.0699 60.3927 97.7088C60.3927 97.3702 60.3306 97.0033 60.2065 96.6083C60.0823 96.2133 59.8284 95.8747 59.4446 95.5925C59.0722 95.3103 58.5135 95.1693 57.7686 95.1693C57.4864 95.1693 57.2832 95.1693 57.1591 95.1693C57.0349 95.158 56.7753 95.1467 56.3803 95.1354ZM67.7464 100.705C67.7464 97.6806 68.5252 95.2821 70.0828 93.5101C71.6517 91.7268 73.9372 90.8352 76.9395 90.8352C79.9869 90.8352 82.2837 91.7212 83.83 93.4932C85.3876 95.2539 86.1664 97.658 86.1664 100.705C86.1664 103.753 85.3876 106.151 83.83 107.901C82.2725 109.639 79.9756 110.508 76.9395 110.508C73.8921 110.508 71.5952 109.628 70.0489 107.867C68.5139 106.106 67.7464 103.719 67.7464 100.705ZM73.2149 100.705C73.2149 101.349 73.2544 102.015 73.3334 102.703C73.4237 103.38 73.593 104.012 73.8413 104.599C74.1009 105.186 74.479 105.666 74.9756 106.038C75.4722 106.4 76.1325 106.58 76.9564 106.58C77.7803 106.58 78.4406 106.4 78.9372 106.038C79.4338 105.666 79.8063 105.186 80.0546 104.599C80.3142 104.012 80.4835 103.38 80.5625 102.703C80.6528 102.015 80.698 101.349 80.698 100.705C80.698 100.051 80.6528 99.3792 80.5625 98.6907C80.4835 97.9909 80.3142 97.3476 80.0546 96.7607C79.8063 96.1625 79.4338 95.6828 78.9372 95.3216C78.4406 94.9492 77.7803 94.7629 76.9564 94.7629C76.1325 94.7629 75.4722 94.9492 74.9756 95.3216C74.479 95.6828 74.1009 96.1625 73.8413 96.7607C73.593 97.3476 73.4237 97.9909 73.3334 98.6907C73.2544 99.3792 73.2149 100.051 73.2149 100.705ZM104.855 97.0146C104.855 97.8837 104.658 98.6569 104.263 99.3341C103.868 100.011 103.371 100.57 102.773 101.01C102.186 101.45 101.599 101.732 101.012 101.857C101.622 102.06 102.124 102.37 102.519 102.788C102.925 103.205 103.275 103.742 103.569 104.396L104.449 106.411C104.652 106.874 104.884 107.302 105.143 107.698C105.403 108.081 105.691 108.409 106.007 108.679C105.679 109.086 105.188 109.464 104.534 109.814C103.879 110.152 103.168 110.322 102.4 110.322C101.644 110.322 101.029 110.141 100.555 109.78C100.092 109.407 99.686 108.815 99.3361 108.002L97.8463 104.582C97.6092 104.029 97.3158 103.696 96.9659 103.584C96.616 103.471 96.1645 103.414 95.6115 103.414H94.9512V110C94.4998 110.079 94.0314 110.13 93.546 110.152C93.072 110.186 92.6657 110.203 92.3271 110.203C92.011 110.203 91.5934 110.186 91.0742 110.152C90.555 110.13 90.081 110.079 89.6521 110V91.5124L89.8383 91.3092C91.204 91.2753 92.4851 91.2471 93.6815 91.2245C94.8891 91.1907 96.0912 91.1738 97.2876 91.1738C98.642 91.1738 99.8948 91.3543 101.046 91.7155C102.197 92.0654 103.117 92.6693 103.806 93.527C104.505 94.3735 104.855 95.5361 104.855 97.0146ZM94.9512 95V99.3848C95.3463 99.3736 95.7074 99.3679 96.0347 99.3679C96.3733 99.3566 96.6217 99.351 96.7797 99.351C97.7955 99.351 98.484 99.1309 98.8451 98.6907C99.2063 98.2505 99.3869 97.737 99.3869 97.1501C99.3869 96.5745 99.2063 96.0778 98.8451 95.6602C98.484 95.2426 97.8801 95.0338 97.0336 95.0338C96.6273 95.0338 96.2774 95.0282 95.984 95.0169C95.6905 95.0056 95.3463 95 94.9512 95ZM111.774 97.6918C111.774 97.3307 111.78 96.9977 111.791 96.693C111.802 96.3769 111.808 96.027 111.808 95.6433C111.571 95.6433 111.244 95.6489 110.826 95.6602C110.42 95.6715 110.098 95.6772 109.861 95.6772H106.729C106.639 95.2708 106.582 94.8927 106.56 94.5428C106.537 94.1817 106.526 93.8544 106.526 93.5609C106.526 93.2674 106.537 92.9232 106.56 92.5282C106.582 92.1218 106.639 91.7268 106.729 91.3431H122.051C122.13 91.6478 122.186 91.992 122.22 92.3758C122.265 92.7595 122.288 93.0699 122.288 93.3069C122.288 94.0744 122.085 94.6614 121.678 95.0677C121.272 95.474 120.595 95.6772 119.647 95.6772H118.953C118.715 95.6772 118.399 95.6715 118.004 95.6602C117.621 95.6489 117.322 95.6433 117.107 95.6433C117.107 96.027 117.113 96.3769 117.124 96.693C117.135 96.9977 117.141 97.3307 117.141 97.6918V110C116.825 110.068 116.39 110.119 115.837 110.152C115.284 110.186 114.822 110.203 114.449 110.203C114.099 110.203 113.659 110.186 113.129 110.152C112.598 110.119 112.147 110.068 111.774 110V97.6918ZM138.775 105.751C138.775 107.365 138.521 108.488 138.013 109.12C137.516 109.752 136.67 110.068 135.473 110.068H127.669C126.709 110.068 125.953 109.797 125.4 109.255C124.847 108.702 124.57 107.963 124.57 107.037V91.5293L124.757 91.3431H138.148C138.227 91.7268 138.272 92.0936 138.284 92.4435C138.295 92.7934 138.301 93.1264 138.301 93.4424C138.301 93.7471 138.267 94.0914 138.199 94.4751C138.143 94.8589 138.041 95.2483 137.894 95.6433H131.969C131.495 95.6433 130.778 95.6377 129.819 95.6264C129.83 95.9763 129.836 96.2754 129.836 96.5237C129.847 96.772 129.853 97.0711 129.853 97.421V98.5383C130.789 98.5271 131.495 98.5214 131.969 98.5214H136.303C136.416 98.8262 136.489 99.176 136.523 99.5711C136.568 99.9548 136.591 100.282 136.591 100.553C136.591 100.869 136.568 101.225 136.523 101.62C136.489 102.003 136.416 102.353 136.303 102.669H131.969C131.754 102.669 131.455 102.669 131.072 102.669C130.688 102.669 130.281 102.669 129.853 102.669V103.77C129.853 104.187 129.847 104.532 129.836 104.802C129.824 105.073 129.819 105.412 129.819 105.818V105.852C130.214 105.83 130.581 105.807 130.919 105.784C131.258 105.762 131.67 105.751 132.155 105.751H138.775ZM140.648 108.595C140.648 108.166 140.733 107.692 140.902 107.173C141.071 106.642 141.302 106.151 141.596 105.7C141.889 105.248 142.211 104.91 142.561 104.684C143.396 105.135 144.327 105.525 145.354 105.852C146.382 106.168 147.386 106.326 148.368 106.326C149 106.326 149.519 106.196 149.926 105.937C150.343 105.677 150.552 105.31 150.552 104.836C150.552 104.532 150.433 104.255 150.196 104.007C149.959 103.747 149.547 103.51 148.961 103.296L146.15 102.195C145.281 101.879 144.468 101.484 143.712 101.01C142.956 100.536 142.347 99.9548 141.884 99.2663C141.421 98.5778 141.19 97.7539 141.19 96.7945C141.19 95.0338 141.867 93.6004 143.221 92.4943C144.576 91.3882 146.398 90.8352 148.69 90.8352C149.988 90.8352 151.274 90.9875 152.55 91.2923C153.836 91.5857 154.914 91.9243 155.783 92.3081C155.783 93.0756 155.625 93.8318 155.309 94.5767C154.993 95.3216 154.559 95.9085 154.006 96.3374C153.17 95.965 152.262 95.6546 151.28 95.4063C150.298 95.1467 149.412 95.0169 148.622 95.0169C148.035 95.0169 147.584 95.141 147.268 95.3893C146.963 95.6377 146.81 95.9368 146.81 96.2866C146.81 96.614 146.963 96.8623 147.268 97.0316C147.572 97.2009 147.95 97.3702 148.402 97.5395L151.195 98.6061C152.753 99.1704 153.989 99.9492 154.903 100.942C155.828 101.924 156.291 103.138 156.291 104.582C156.291 105.858 155.947 106.936 155.259 107.816C154.581 108.696 153.65 109.362 152.465 109.814C151.291 110.265 149.965 110.497 148.486 110.508C146.726 110.508 145.157 110.305 143.78 109.898C142.414 109.492 141.37 109.058 140.648 108.595Z" fill="white" fill-opacity="0.87"/>
<path d="M361 116H285C282.239 116 280 113.761 280 111V53C280 50.2386 282.234 48 284.996 48H361.011C363.773 48 366 50.2368 366 52.9982V111.017C366 113.778 363.761 116 361 116Z" fill="url(#paint0_linear)" stroke="#C4C4C4" stroke-width="4.36364"/>
<path d="M321.916 77.5795C322.265 77.8307 322.735 77.8307 323.084 77.5795L353.325 55.8116C354.113 55.2444 353.712 54 352.741 54H292.259C291.288 54 290.887 55.2444 291.675 55.8116L321.916 77.5795Z" fill="#C4C4C4"/>
<defs>
<linearGradient id="paint0_linear" x1="323" y1="48" x2="323" y2="116" gradientUnits="userSpaceOnUse">
<stop stop-color="white" stop-opacity="0"/>
<stop offset="0.994792" stop-color="#546886"/>
</linearGradient>
</defs>
</svg>
