<svg width="253" height="103" viewBox="0 0 253 103" fill="none" xmlns="http://www.w3.org/2000/svg">
<rect opacity="0.5" y="0.960938" width="253" height="101.083" rx="10" fill="#DBDADA"/>
<path d="M46.8406 28.6489C46.8406 30.0529 46.7386 31.4089 46.5346 32.7169C46.3426 34.0129 45.9586 35.2249 45.3826 36.3529C44.8066 37.4809 43.9426 38.4889 42.7906 39.3769C42.2386 39.8089 41.5726 40.1569 40.7926 40.4209C40.0246 40.6849 39.2326 40.8769 38.4166 40.9969C37.6006 41.1169 36.8566 41.1769 36.1846 41.1769C34.6366 41.1769 33.1306 41.1589 31.6666 41.1229C30.2146 41.0989 28.7026 41.0689 27.1306 41.0329L26.8786 40.7809V16.5529L27.1306 16.3009C28.6786 16.2529 30.1846 16.2169 31.6486 16.1929C33.1246 16.1689 34.6366 16.1569 36.1846 16.1569C36.8566 16.1569 37.6006 16.2229 38.4166 16.3549C39.2326 16.4749 40.0306 16.6669 40.8106 16.9309C41.5906 17.1949 42.2506 17.5429 42.7906 17.9749C43.9306 18.8629 44.7886 19.8709 45.3646 20.9989C45.9406 22.1149 46.3306 23.3209 46.5346 24.6169C46.7386 25.9129 46.8406 27.2569 46.8406 28.6489ZM40.9186 28.6489C40.9186 27.7369 40.8586 26.8129 40.7386 25.8769C40.6306 24.9289 40.4146 24.0649 40.0906 23.2849C39.7786 22.4929 39.3046 21.8569 38.6686 21.3769C38.0446 20.8849 37.2166 20.6389 36.1846 20.6389C35.5726 20.6389 34.9846 20.6389 34.4206 20.6389C33.8566 20.6389 33.2566 20.6269 32.6206 20.6029V36.7129C33.2566 36.7009 33.8566 36.6949 34.4206 36.6949C34.9846 36.6949 35.5726 36.6949 36.1846 36.6949C37.2166 36.6949 38.0446 36.4549 38.6686 35.9749C39.3046 35.4829 39.7786 34.8409 40.0906 34.0489C40.4146 33.2449 40.6306 32.3749 40.7386 31.4389C40.8586 30.4909 40.9186 29.5609 40.9186 28.6489ZM49.3235 31.0789C49.3235 27.8629 50.1515 25.3129 51.8075 23.4289C53.4755 21.5329 55.9055 20.5849 59.0975 20.5849C62.3375 20.5849 64.7795 21.5269 66.4235 23.4109C68.0795 25.2829 68.9075 27.8389 68.9075 31.0789C68.9075 34.3189 68.0795 36.8689 66.4235 38.7289C64.7675 40.5769 62.3255 41.5009 59.0975 41.5009C55.8575 41.5009 53.4155 40.5649 51.7715 38.6929C50.1395 36.8209 49.3235 34.2829 49.3235 31.0789ZM55.1375 31.0789C55.1375 31.7629 55.1795 32.4709 55.2635 33.2029C55.3595 33.9229 55.5395 34.5949 55.8035 35.2189C56.0795 35.8429 56.4815 36.3529 57.0095 36.7489C57.5375 37.1329 58.2395 37.3249 59.1155 37.3249C59.9915 37.3249 60.6935 37.1329 61.2215 36.7489C61.7495 36.3529 62.1455 35.8429 62.4095 35.2189C62.6855 34.5949 62.8655 33.9229 62.9495 33.2029C63.0455 32.4709 63.0935 31.7629 63.0935 31.0789C63.0935 30.3829 63.0455 29.6689 62.9495 28.9369C62.8655 28.1929 62.6855 27.5089 62.4095 26.8849C62.1455 26.2489 61.7495 25.7389 61.2215 25.3549C60.6935 24.9589 59.9915 24.7609 59.1155 24.7609C58.2395 24.7609 57.5375 24.9589 57.0095 25.3549C56.4815 25.7389 56.0795 26.2489 55.8035 26.8849C55.5395 27.5089 55.3595 28.1929 55.2635 28.9369C55.1795 29.6689 55.1375 30.3829 55.1375 31.0789ZM79.5975 31.9069C79.5135 31.7149 79.3815 31.4149 79.2015 31.0069C79.0215 30.5869 78.8295 30.1369 78.6255 29.6569C78.4215 29.1769 78.2295 28.7269 78.0495 28.3069C77.8815 27.8869 77.7495 27.5809 77.6535 27.3889L77.5275 27.4429C77.5755 28.3909 77.6235 29.4169 77.6715 30.5209C77.7195 31.6129 77.7555 32.6149 77.7795 33.5269C77.8155 34.4269 77.8335 35.0809 77.8335 35.4889V40.9609C77.3655 41.0449 76.9155 41.0989 76.4835 41.1229C76.0515 41.1589 75.6495 41.1769 75.2775 41.1769C74.9415 41.1769 74.5215 41.1589 74.0175 41.1229C73.5255 41.0989 73.0575 41.0449 72.6135 40.9609V21.2509C73.0575 21.1429 73.6095 21.0589 74.2695 20.9989C74.9295 20.9389 75.4395 20.9089 75.7995 20.9089C76.1715 20.9089 76.6995 20.9209 77.3835 20.9449C78.0675 20.9569 78.6315 21.0169 79.0755 21.1249L83.3055 30.1429C83.3895 30.3109 83.5275 30.6169 83.7195 31.0609C83.9235 31.5049 84.1395 31.9909 84.3675 32.5189C84.5955 33.0469 84.8055 33.5449 84.9975 34.0129C85.2015 34.4689 85.3515 34.8049 85.4475 35.0209L85.6095 34.9849C85.5615 34.1929 85.4955 33.2689 85.4115 32.2129C85.3395 31.1569 85.2735 30.1369 85.2135 29.1529C85.1535 28.1689 85.1235 27.3829 85.1235 26.7949V23.9869C85.1235 22.7149 85.3995 21.8809 85.9515 21.4849C86.5035 21.0769 87.3255 20.8729 88.4175 20.8729H90.2715L90.4875 21.1249V40.8529C90.0195 40.9609 89.4555 41.0389 88.7955 41.0869C88.1355 41.1469 87.6315 41.1769 87.2835 41.1769C87.0435 41.1769 86.7135 41.1709 86.2935 41.1589C85.8735 41.1469 85.4415 41.1289 84.9975 41.1049C84.5655 41.0809 84.2055 41.0329 83.9175 40.9609L79.5975 31.9069ZM113.766 31.0789C113.766 34.4389 112.98 36.9529 111.408 38.6209C109.836 40.2769 107.358 41.1049 103.974 41.1049C102.546 41.1049 101.19 41.0929 99.906 41.0689C98.634 41.0569 97.29 41.0329 95.874 40.9969L95.676 40.7809V21.3049L95.874 21.0889C97.302 21.0529 98.652 21.0229 99.924 20.9989C101.196 20.9629 102.546 20.9449 103.974 20.9449C107.322 20.9449 109.788 21.8149 111.372 23.5549C112.968 25.2829 113.766 27.7909 113.766 31.0789ZM107.97 31.0789C107.97 30.2029 107.88 29.3269 107.7 28.4509C107.52 27.5629 107.142 26.8189 106.566 26.2189C105.99 25.6189 105.126 25.3189 103.974 25.3189C103.446 25.3189 102.99 25.3189 102.606 25.3189C102.234 25.3069 101.802 25.2949 101.31 25.2829V36.8029C101.826 36.8029 102.264 36.7969 102.624 36.7849C102.996 36.7729 103.446 36.7669 103.974 36.7669C105.126 36.7669 105.99 36.4729 106.566 35.8849C107.142 35.2849 107.52 34.5469 107.7 33.6709C107.88 32.7949 107.97 31.9309 107.97 31.0789ZM132.61 36.4429C132.61 38.1589 132.34 39.3529 131.8 40.0249C131.272 40.6969 130.372 41.0329 129.1 41.0329H120.802C119.782 41.0329 118.978 40.7449 118.39 40.1689C117.802 39.5809 117.508 38.7949 117.508 37.8109V21.3229L117.706 21.1249H131.944C132.028 21.5329 132.076 21.9229 132.088 22.2949C132.1 22.6669 132.106 23.0209 132.106 23.3569C132.106 23.6809 132.07 24.0469 131.998 24.4549C131.938 24.8629 131.83 25.2769 131.674 25.6969H125.374C124.87 25.6969 124.108 25.6909 123.088 25.6789C123.1 26.0509 123.106 26.3689 123.106 26.6329C123.118 26.8969 123.124 27.2149 123.124 27.5869V28.7749C124.12 28.7629 124.87 28.7569 125.374 28.7569H129.982C130.102 29.0809 130.18 29.4529 130.216 29.8729C130.264 30.2809 130.288 30.6289 130.288 30.9169C130.288 31.2529 130.264 31.6309 130.216 32.0509C130.18 32.4589 130.102 32.8309 129.982 33.1669H125.374C125.146 33.1669 124.828 33.1669 124.42 33.1669C124.012 33.1669 123.58 33.1669 123.124 33.1669V34.3369C123.124 34.7809 123.118 35.1469 123.106 35.4349C123.094 35.7229 123.088 36.0829 123.088 36.5149V36.5509C123.508 36.5269 123.898 36.5029 124.258 36.4789C124.618 36.4549 125.056 36.4429 125.572 36.4429H132.61ZM144.186 35.4889C144.69 35.7889 145.212 36.0469 145.752 36.2629C146.304 36.4669 146.862 36.5689 147.426 36.5689C148.734 36.5689 149.598 36.1729 150.018 35.3809C150.438 34.5889 150.648 33.4849 150.648 32.0689V16.3729C151.116 16.2889 151.626 16.2349 152.178 16.2109C152.742 16.1749 153.198 16.1569 153.546 16.1569C153.93 16.1569 154.386 16.1749 154.914 16.2109C155.442 16.2349 155.946 16.2889 156.426 16.3729V31.5289C156.426 33.4129 156.198 35.0929 155.742 36.5689C155.298 38.0449 154.47 39.2089 153.258 40.0609C152.058 40.9009 150.33 41.3209 148.074 41.3209C147.126 41.3209 146.124 41.1949 145.068 40.9429C144.012 40.6789 143.058 40.2769 142.206 39.7369C142.314 39.0169 142.536 38.2729 142.872 37.5049C143.22 36.7369 143.658 36.0649 144.186 35.4889ZM176.485 36.4429C176.485 38.1589 176.215 39.3529 175.675 40.0249C175.147 40.6969 174.247 41.0329 172.975 41.0329H164.677C163.657 41.0329 162.853 40.7449 162.265 40.1689C161.677 39.5809 161.383 38.7949 161.383 37.8109V21.3229L161.581 21.1249H175.819C175.903 21.5329 175.951 21.9229 175.963 22.2949C175.975 22.6669 175.981 23.0209 175.981 23.3569C175.981 23.6809 175.945 24.0469 175.873 24.4549C175.813 24.8629 175.705 25.2769 175.549 25.6969H169.249C168.745 25.6969 167.983 25.6909 166.963 25.6789C166.975 26.0509 166.981 26.3689 166.981 26.6329C166.993 26.8969 166.999 27.2149 166.999 27.5869V28.7749C167.995 28.7629 168.745 28.7569 169.249 28.7569H173.857C173.977 29.0809 174.055 29.4529 174.091 29.8729C174.139 30.2809 174.163 30.6289 174.163 30.9169C174.163 31.2529 174.139 31.6309 174.091 32.0509C174.055 32.4589 173.977 32.8309 173.857 33.1669H169.249C169.021 33.1669 168.703 33.1669 168.295 33.1669C167.887 33.1669 167.455 33.1669 166.999 33.1669V34.3369C166.999 34.7809 166.993 35.1469 166.981 35.4349C166.969 35.7229 166.963 36.0829 166.963 36.5149V36.5509C167.383 36.5269 167.773 36.5029 168.133 36.4789C168.493 36.4549 168.931 36.4429 169.447 36.4429H176.485ZM186.091 40.9609C185.599 41.0449 185.095 41.0989 184.579 41.1229C184.075 41.1589 183.631 41.1769 183.247 41.1769C182.863 41.1769 182.413 41.1589 181.897 41.1229C181.393 41.0989 180.895 41.0449 180.403 40.9609V21.2869L180.601 21.1249H194.551C194.635 21.4489 194.695 21.8149 194.731 22.2229C194.779 22.6309 194.803 22.9609 194.803 23.2129C194.803 24.0289 194.587 24.6649 194.155 25.1209C193.723 25.5769 193.003 25.8049 191.995 25.8049H188.161C187.801 25.8049 187.447 25.8049 187.099 25.8049C186.763 25.7929 186.427 25.7869 186.091 25.7869C186.091 26.0389 186.091 26.2969 186.091 26.5609C186.091 26.8129 186.091 27.0649 186.091 27.3169V29.1889C186.235 29.1889 186.373 29.1889 186.505 29.1889H192.499C192.607 29.5009 192.679 29.8669 192.715 30.2869C192.763 30.6949 192.787 31.0429 192.787 31.3309C192.787 31.6549 192.763 32.0389 192.715 32.4829C192.679 32.9269 192.607 33.3109 192.499 33.6349H186.505C186.373 33.6349 186.235 33.6349 186.091 33.6349V40.9609ZM213.083 36.4429C213.083 38.1589 212.813 39.3529 212.273 40.0249C211.745 40.6969 210.845 41.0329 209.573 41.0329H201.275C200.255 41.0329 199.451 40.7449 198.863 40.1689C198.275 39.5809 197.981 38.7949 197.981 37.8109V21.3229L198.179 21.1249H212.417C212.501 21.5329 212.549 21.9229 212.561 22.2949C212.573 22.6669 212.579 23.0209 212.579 23.3569C212.579 23.6809 212.543 24.0469 212.471 24.4549C212.411 24.8629 212.303 25.2769 212.147 25.6969H205.847C205.343 25.6969 204.581 25.6909 203.561 25.6789C203.573 26.0509 203.579 26.3689 203.579 26.6329C203.591 26.8969 203.597 27.2149 203.597 27.5869V28.7749C204.593 28.7629 205.343 28.7569 205.847 28.7569H210.455C210.575 29.0809 210.653 29.4529 210.689 29.8729C210.737 30.2809 210.761 30.6289 210.761 30.9169C210.761 31.2529 210.737 31.6309 210.689 32.0509C210.653 32.4589 210.575 32.8309 210.455 33.1669H205.847C205.619 33.1669 205.301 33.1669 204.893 33.1669C204.485 33.1669 204.053 33.1669 203.597 33.1669V34.3369C203.597 34.7809 203.591 35.1469 203.579 35.4349C203.567 35.7229 203.561 36.0829 203.561 36.5149V36.5509C203.981 36.5269 204.371 36.5029 204.731 36.4789C205.091 36.4549 205.529 36.4429 206.045 36.4429H213.083ZM223.876 17.7409C224.704 17.8489 225.538 18.0469 226.378 18.3349C227.218 18.6229 227.98 19.0369 228.664 19.5769L219.376 44.2909C218.56 44.1949 217.732 44.0029 216.892 43.7149C216.052 43.4269 215.29 43.0129 214.606 42.4729L223.876 17.7409ZM58.1415 60.4089C58.7535 60.3009 59.4195 60.2289 60.1395 60.1929C60.8715 60.1569 61.5015 60.1389 62.0295 60.1389C62.5575 60.1389 63.1455 60.1569 63.7935 60.1929C64.4415 60.2289 65.0715 60.3009 65.6835 60.4089L67.8075 69.2109C67.8555 69.4269 67.9335 69.7989 68.0415 70.3269C68.1615 70.8549 68.2935 71.4549 68.4375 72.1269C68.5815 72.7989 68.7135 73.4589 68.8335 74.1069C68.9655 74.7549 69.0675 75.3069 69.1395 75.7629H69.3915C69.4635 75.3069 69.5655 74.7549 69.6975 74.1069C69.8295 73.4589 69.9615 72.7989 70.0935 72.1269C70.2375 71.4549 70.3695 70.8549 70.4895 70.3269C70.6095 69.7989 70.6935 69.4269 70.7415 69.2109L72.8655 60.4089C73.4775 60.3009 74.1015 60.2289 74.7375 60.1929C75.3855 60.1569 75.9735 60.1389 76.5015 60.1389C77.0295 60.1389 77.6595 60.1569 78.3915 60.1929C79.1235 60.2289 79.7895 60.3009 80.3895 60.4089L82.2975 84.8889C81.8895 84.9969 81.4155 85.0689 80.8755 85.1049C80.3475 85.1529 79.8495 85.1769 79.3815 85.1769C78.9495 85.1769 78.5235 85.1649 78.1035 85.1409C77.6955 85.1169 77.2815 85.0689 76.8615 84.9969L76.3215 74.9709C76.2495 73.6989 76.1835 72.2949 76.1235 70.7589C76.0635 69.2229 76.0335 67.8669 76.0335 66.6909H75.7815L72.2355 81.3429C71.8035 81.4149 71.2995 81.4689 70.7235 81.5049C70.1475 81.5289 69.6555 81.5409 69.2475 81.5409C68.8875 81.5409 68.4135 81.5289 67.8255 81.5049C67.2375 81.4689 66.7275 81.4149 66.2955 81.3429L62.7495 66.6909H62.5155C62.5035 67.8669 62.4675 69.2229 62.4075 70.7589C62.3595 72.2949 62.2995 73.6989 62.2275 74.9709L61.6695 84.9969C61.2615 85.0689 60.8475 85.1169 60.4275 85.1409C60.0075 85.1649 59.5815 85.1769 59.1495 85.1769C58.6935 85.1769 58.1955 85.1529 57.6555 85.1049C57.1275 85.0689 56.6535 84.9969 56.2335 84.8889L58.1415 60.4089ZM85.3938 75.0789C85.3938 71.8629 86.2218 69.3129 87.8778 67.4289C89.5458 65.5329 91.9758 64.5849 95.1678 64.5849C98.4078 64.5849 100.85 65.5269 102.494 67.4109C104.15 69.2829 104.978 71.8389 104.978 75.0789C104.978 78.3189 104.15 80.8689 102.494 82.7289C100.838 84.5769 98.3958 85.5009 95.1678 85.5009C91.9278 85.5009 89.4858 84.5649 87.8418 82.6929C86.2098 80.8209 85.3938 78.2829 85.3938 75.0789ZM91.2078 75.0789C91.2078 75.7629 91.2498 76.4709 91.3338 77.2029C91.4298 77.9229 91.6098 78.5949 91.8738 79.2189C92.1498 79.8429 92.5518 80.3529 93.0798 80.7489C93.6078 81.1329 94.3098 81.3249 95.1858 81.3249C96.0618 81.3249 96.7638 81.1329 97.2918 80.7489C97.8198 80.3529 98.2158 79.8429 98.4798 79.2189C98.7558 78.5949 98.9358 77.9229 99.0198 77.2029C99.1158 76.4709 99.1638 75.7629 99.1638 75.0789C99.1638 74.3829 99.1158 73.6689 99.0198 72.9369C98.9358 72.1929 98.7558 71.5089 98.4798 70.8849C98.2158 70.2489 97.8198 69.7389 97.2918 69.3549C96.7638 68.9589 96.0618 68.7609 95.1858 68.7609C94.3098 68.7609 93.6078 68.9589 93.0798 69.3549C92.5518 69.7389 92.1498 70.2489 91.8738 70.8849C91.6098 71.5089 91.4298 72.1929 91.3338 72.9369C91.2498 73.6689 91.2078 74.3829 91.2078 75.0789ZM115.668 75.9069C115.584 75.7149 115.452 75.4149 115.272 75.0069C115.092 74.5869 114.9 74.1369 114.696 73.6569C114.492 73.1769 114.3 72.7269 114.12 72.3069C113.952 71.8869 113.82 71.5809 113.724 71.3889L113.598 71.4429C113.646 72.3909 113.694 73.4169 113.742 74.5209C113.79 75.6129 113.826 76.6149 113.85 77.5269C113.886 78.4269 113.904 79.0809 113.904 79.4889V84.9609C113.436 85.0449 112.986 85.0989 112.554 85.1229C112.122 85.1589 111.72 85.1769 111.348 85.1769C111.012 85.1769 110.592 85.1589 110.088 85.1229C109.596 85.0989 109.128 85.0449 108.684 84.9609V65.2509C109.128 65.1429 109.68 65.0589 110.34 64.9989C111 64.9389 111.51 64.9089 111.87 64.9089C112.242 64.9089 112.77 64.9209 113.454 64.9449C114.138 64.9569 114.702 65.0169 115.146 65.1249L119.376 74.1429C119.46 74.3109 119.598 74.6169 119.79 75.0609C119.994 75.5049 120.21 75.9909 120.438 76.5189C120.666 77.0469 120.876 77.5449 121.068 78.0129C121.272 78.4689 121.422 78.8049 121.518 79.0209L121.68 78.9849C121.632 78.1929 121.566 77.2689 121.482 76.2129C121.41 75.1569 121.344 74.1369 121.284 73.1529C121.224 72.1689 121.194 71.3829 121.194 70.7949V67.9869C121.194 66.7149 121.47 65.8809 122.022 65.4849C122.574 65.0769 123.396 64.8729 124.488 64.8729H126.342L126.558 65.1249V84.8529C126.09 84.9609 125.526 85.0389 124.866 85.0869C124.206 85.1469 123.702 85.1769 123.354 85.1769C123.114 85.1769 122.784 85.1709 122.364 85.1589C121.944 85.1469 121.512 85.1289 121.068 85.1049C120.636 85.0809 120.276 85.0329 119.988 84.9609L115.668 75.9069ZM131.818 65.1249C132.274 65.0289 132.79 64.9689 133.366 64.9449C133.942 64.9209 134.398 64.9089 134.734 64.9089C135.094 64.9089 135.526 64.9209 136.03 64.9449C136.546 64.9689 137.044 65.0289 137.524 65.1249V84.9609C137.044 85.0449 136.546 85.0989 136.03 85.1229C135.526 85.1589 135.094 85.1769 134.734 85.1769C134.398 85.1769 133.942 85.1589 133.366 85.1229C132.79 85.0989 132.274 85.0449 131.818 84.9609V65.1249ZM145.774 71.8749C145.774 71.4909 145.78 71.1369 145.792 70.8129C145.804 70.4769 145.81 70.1049 145.81 69.6969C145.558 69.6969 145.21 69.7029 144.766 69.7149C144.334 69.7269 143.992 69.7329 143.74 69.7329H140.41C140.314 69.3009 140.254 68.8989 140.23 68.5269C140.206 68.1429 140.194 67.7949 140.194 67.4829C140.194 67.1709 140.206 66.8049 140.23 66.3849C140.254 65.9529 140.314 65.5329 140.41 65.1249H156.7C156.784 65.4489 156.844 65.8149 156.88 66.2229C156.928 66.6309 156.952 66.9609 156.952 67.2129C156.952 68.0289 156.736 68.6529 156.304 69.0849C155.872 69.5169 155.152 69.7329 154.144 69.7329H153.406C153.154 69.7329 152.818 69.7269 152.398 69.7149C151.99 69.7029 151.672 69.6969 151.444 69.6969C151.444 70.1049 151.45 70.4769 151.462 70.8129C151.474 71.1369 151.48 71.4909 151.48 71.8749V84.9609C151.144 85.0329 150.682 85.0869 150.094 85.1229C149.506 85.1589 149.014 85.1769 148.618 85.1769C148.246 85.1769 147.778 85.1589 147.214 85.1229C146.65 85.0869 146.17 85.0329 145.774 84.9609V71.8749ZM157.534 75.0789C157.534 71.8629 158.362 69.3129 160.018 67.4289C161.686 65.5329 164.116 64.5849 167.308 64.5849C170.548 64.5849 172.99 65.5269 174.634 67.4109C176.29 69.2829 177.118 71.8389 177.118 75.0789C177.118 78.3189 176.29 80.8689 174.634 82.7289C172.978 84.5769 170.536 85.5009 167.308 85.5009C164.068 85.5009 161.626 84.5649 159.982 82.6929C158.35 80.8209 157.534 78.2829 157.534 75.0789ZM163.348 75.0789C163.348 75.7629 163.39 76.4709 163.474 77.2029C163.57 77.9229 163.75 78.5949 164.014 79.2189C164.29 79.8429 164.692 80.3529 165.22 80.7489C165.748 81.1329 166.45 81.3249 167.326 81.3249C168.202 81.3249 168.904 81.1329 169.432 80.7489C169.96 80.3529 170.356 79.8429 170.62 79.2189C170.896 78.5949 171.076 77.9229 171.16 77.2029C171.256 76.4709 171.304 75.7629 171.304 75.0789C171.304 74.3829 171.256 73.6689 171.16 72.9369C171.076 72.1929 170.896 71.5089 170.62 70.8849C170.356 70.2489 169.96 69.7389 169.432 69.3549C168.904 68.9589 168.202 68.7609 167.326 68.7609C166.45 68.7609 165.748 68.9589 165.22 69.3549C164.692 69.7389 164.29 70.2489 164.014 70.8849C163.75 71.5089 163.57 72.1929 163.474 72.9369C163.39 73.6689 163.348 74.3829 163.348 75.0789ZM196.988 71.1549C196.988 72.0789 196.778 72.9009 196.358 73.6209C195.938 74.3409 195.41 74.9349 194.774 75.4029C194.15 75.8709 193.526 76.1709 192.902 76.3029C193.55 76.5189 194.084 76.8489 194.504 77.2929C194.936 77.7369 195.308 78.3069 195.62 79.0029L196.556 81.1449C196.772 81.6369 197.018 82.0929 197.294 82.5129C197.57 82.9209 197.876 83.2689 198.212 83.5569C197.864 83.9889 197.342 84.3909 196.646 84.7629C195.95 85.1229 195.194 85.3029 194.378 85.3029C193.574 85.3029 192.92 85.1109 192.416 84.7269C191.924 84.3309 191.492 83.7009 191.12 82.8369L189.536 79.2009C189.284 78.6129 188.972 78.2589 188.6 78.1389C188.228 78.0189 187.748 77.9589 187.16 77.9589H186.458V84.9609C185.978 85.0449 185.48 85.0989 184.964 85.1229C184.46 85.1589 184.028 85.1769 183.668 85.1769C183.332 85.1769 182.888 85.1589 182.336 85.1229C181.784 85.0989 181.28 85.0449 180.824 84.9609V65.3049L181.022 65.0889C182.474 65.0529 183.836 65.0229 185.108 64.9989C186.392 64.9629 187.67 64.9449 188.942 64.9449C190.382 64.9449 191.714 65.1369 192.938 65.5209C194.162 65.8929 195.14 66.5349 195.872 67.4469C196.616 68.3469 196.988 69.5829 196.988 71.1549ZM186.458 69.0129V73.6749C186.878 73.6629 187.262 73.6569 187.61 73.6569C187.97 73.6449 188.234 73.6389 188.402 73.6389C189.482 73.6389 190.214 73.4049 190.598 72.9369C190.982 72.4689 191.174 71.9229 191.174 71.2989C191.174 70.6869 190.982 70.1589 190.598 69.7149C190.214 69.2709 189.572 69.0489 188.672 69.0489C188.24 69.0489 187.868 69.0429 187.556 69.0309C187.244 69.0189 186.878 69.0129 186.458 69.0129Z" fill="#364760"/>
</svg>
