<svg width="144" height="51" viewBox="0 0 144 51" fill="none" xmlns="http://www.w3.org/2000/svg">
<rect opacity="0.5" x="0.566925" width="143.433" height="50.0828" rx="10" fill="#DBDADA"/>
<path d="M27.4499 34.858C27.5219 34.054 27.7679 33.256 28.1879 32.464C28.6199 31.672 29.1179 31.036 29.6819 30.556C30.6899 31.168 31.8359 31.714 33.1199 32.194C34.4039 32.674 35.6879 32.914 36.9719 32.914C38.0159 32.914 38.7659 32.662 39.2219 32.158C39.6779 31.654 39.9059 31.114 39.9059 30.538C39.9059 30.142 39.7799 29.698 39.5279 29.206C39.2759 28.714 38.6459 28.258 37.6379 27.838L33.2999 26.038C31.8119 25.414 30.5819 24.58 29.6099 23.536C28.6379 22.492 28.1519 21.112 28.1519 19.396C28.1519 17.896 28.5419 16.582 29.3219 15.454C30.1019 14.326 31.1519 13.45 32.4719 12.826C33.8039 12.19 35.2859 11.872 36.9179 11.872C38.6099 11.872 40.2059 12.1 41.7059 12.556C43.2059 13 44.4239 13.462 45.3599 13.942C45.3119 14.77 45.1139 15.568 44.7659 16.336C44.4299 17.092 43.9799 17.728 43.4159 18.244C42.5039 17.812 41.4359 17.416 40.2119 17.056C38.9879 16.684 37.8899 16.498 36.9179 16.498C35.8859 16.498 35.1479 16.732 34.7039 17.2C34.2719 17.668 34.0559 18.142 34.0559 18.622C34.0559 19.078 34.2059 19.486 34.5059 19.846C34.8179 20.206 35.3699 20.554 36.1619 20.89L40.5899 22.708C42.3299 23.428 43.6679 24.406 44.6039 25.642C45.5519 26.878 46.0259 28.27 46.0259 29.818C46.0259 31.27 45.6719 32.578 44.9639 33.742C44.2679 34.906 43.2179 35.83 41.8139 36.514C40.4099 37.198 38.6579 37.54 36.5579 37.54C35.1059 37.54 33.5579 37.312 31.9139 36.856C30.2699 36.388 28.7819 35.722 27.4499 34.858ZM54.581 33.526C54.389 33.526 54.203 33.526 54.023 33.526C53.843 33.514 53.663 33.502 53.483 33.49L52.367 37C52.019 37.084 51.641 37.144 51.233 37.18C50.825 37.228 50.399 37.252 49.955 37.252C49.475 37.252 48.989 37.216 48.497 37.144C48.017 37.072 47.621 36.97 47.309 36.838L47.111 36.532L54.113 17.164C54.737 17.068 55.337 17.008 55.913 16.984C56.501 16.96 57.035 16.948 57.515 16.948C57.959 16.948 58.439 16.96 58.955 16.984C59.471 17.008 60.053 17.068 60.701 17.164L67.505 36.73C67.085 36.922 66.551 37.066 65.903 37.162C65.255 37.27 64.733 37.324 64.337 37.324C63.677 37.324 63.041 37.198 62.429 36.946C61.817 36.694 61.355 36.028 61.043 34.948L60.593 33.49C60.401 33.502 60.215 33.514 60.035 33.526C59.855 33.526 59.663 33.526 59.459 33.526H54.581ZM55.301 27.838L54.905 29.08C55.085 29.068 55.265 29.062 55.445 29.062C55.625 29.05 55.811 29.044 56.003 29.044H58.253C58.433 29.044 58.595 29.05 58.739 29.062C58.895 29.062 59.051 29.068 59.207 29.08L58.829 27.856C58.553 26.908 58.277 25.852 58.001 24.688C57.725 23.524 57.473 22.468 57.245 21.52H57.029C56.777 22.432 56.495 23.476 56.183 24.652C55.883 25.828 55.589 26.89 55.301 27.838ZM84.252 32.392C84.18 34.144 83.874 35.368 83.334 36.064C82.794 36.76 81.834 37.108 80.454 37.108H73.47C72.438 37.108 71.628 36.82 71.04 36.244C70.464 35.656 70.176 34.87 70.176 33.886V17.2L70.392 16.984H72.552C73.644 16.984 74.472 17.26 75.036 17.812C75.6 18.352 75.882 19.258 75.882 20.53V32.572C77.118 32.452 78.228 32.392 79.212 32.392H84.252ZM87.6872 17.164C88.1432 17.068 88.6592 17.008 89.2352 16.984C89.8112 16.96 90.2672 16.948 90.6032 16.948C90.9632 16.948 91.3952 16.96 91.8992 16.984C92.4152 17.008 92.9132 17.068 93.3932 17.164V37C92.9132 37.084 92.4152 37.138 91.8992 37.162C91.3952 37.198 90.9632 37.216 90.6032 37.216C90.2672 37.216 89.8112 37.198 89.2352 37.162C88.6592 37.138 88.1432 37.084 87.6872 37V17.164ZM114.783 23.194C114.783 24.118 114.573 24.94 114.153 25.66C113.733 26.38 113.205 26.974 112.569 27.442C111.945 27.91 111.321 28.21 110.697 28.342C111.345 28.558 111.879 28.888 112.299 29.332C112.731 29.776 113.103 30.346 113.415 31.042L114.351 33.184C114.567 33.676 114.813 34.132 115.089 34.552C115.365 34.96 115.671 35.308 116.007 35.596C115.659 36.028 115.137 36.43 114.441 36.802C113.745 37.162 112.989 37.342 112.173 37.342C111.369 37.342 110.715 37.15 110.211 36.766C109.719 36.37 109.287 35.74 108.915 34.876L107.331 31.24C107.079 30.652 106.767 30.298 106.395 30.178C106.023 30.058 105.543 29.998 104.955 29.998H104.253V37C103.773 37.084 103.275 37.138 102.759 37.162C102.255 37.198 101.823 37.216 101.463 37.216C101.127 37.216 100.683 37.198 100.131 37.162C99.5791 37.138 99.0751 37.084 98.6191 37V17.344L98.8171 17.128C100.269 17.092 101.631 17.062 102.903 17.038C104.187 17.002 105.465 16.984 106.737 16.984C108.177 16.984 109.509 17.176 110.733 17.56C111.957 17.932 112.935 18.574 113.667 19.486C114.411 20.386 114.783 21.622 114.783 23.194ZM104.253 21.052V25.714C104.673 25.702 105.057 25.696 105.405 25.696C105.765 25.684 106.029 25.678 106.197 25.678C107.277 25.678 108.009 25.444 108.393 24.976C108.777 24.508 108.969 23.962 108.969 23.338C108.969 22.726 108.777 22.198 108.393 21.754C108.009 21.31 107.367 21.088 106.467 21.088C106.035 21.088 105.663 21.082 105.351 21.07C105.039 21.058 104.673 21.052 104.253 21.052Z" fill="#364760"/>
</svg>
