<svg width="274" height="113" viewBox="0 0 274 113" fill="none" xmlns="http://www.w3.org/2000/svg">
<rect opacity="0.5" y="11" width="253" height="101.083" rx="10" fill="#DBDADA"/>
<path d="M49.8038 80.192C49.9318 78.7627 50.3691 77.344 51.1158 75.936C51.8838 74.528 52.7691 73.3973 53.7718 72.544C55.5638 73.632 57.6011 74.6027 59.8838 75.456C62.1664 76.3093 64.4491 76.736 66.7318 76.736C68.5878 76.736 69.9211 76.288 70.7318 75.392C71.5424 74.496 71.9478 73.536 71.9478 72.512C71.9478 71.808 71.7238 71.0187 71.2758 70.144C70.8278 69.2693 69.7078 68.4587 67.9158 67.712L60.2038 64.512C57.5584 63.4027 55.3718 61.92 53.6438 60.064C51.9158 58.208 51.0518 55.7547 51.0518 52.704C51.0518 50.0373 51.7451 47.7013 53.1318 45.696C54.5184 43.6907 56.3851 42.1333 58.7318 41.024C61.0998 39.8933 63.7344 39.328 66.6358 39.328C69.6438 39.328 72.4811 39.7333 75.1478 40.544C77.8144 41.3333 79.9798 42.1547 81.6438 43.008C81.5584 44.48 81.2064 45.8987 80.5878 47.264C79.9904 48.608 79.1904 49.7387 78.1878 50.656C76.5664 49.888 74.6678 49.184 72.4918 48.544C70.3158 47.8827 68.3638 47.552 66.6358 47.552C64.8011 47.552 63.4891 47.968 62.6998 48.8C61.9318 49.632 61.5478 50.4747 61.5478 51.328C61.5478 52.1387 61.8144 52.864 62.3478 53.504C62.9024 54.144 63.8838 54.7627 65.2917 55.36L73.1638 58.592C76.2571 59.872 78.6358 61.6107 80.2998 63.808C81.9851 66.0053 82.8278 68.48 82.8278 71.232C82.8278 73.8133 82.1984 76.1387 80.9398 78.208C79.7024 80.2773 77.8358 81.92 75.3398 83.136C72.8438 84.352 69.7291 84.96 65.9958 84.96C63.4144 84.96 60.6624 84.5547 57.7398 83.744C54.8171 82.912 52.1718 81.728 49.8038 80.192ZM98.0368 77.824C97.6954 77.824 97.3648 77.824 97.0448 77.824C96.7248 77.8027 96.4048 77.7813 96.0848 77.76L94.1008 84C93.4821 84.1493 92.8101 84.256 92.0848 84.32C91.3594 84.4053 90.6021 84.448 89.8128 84.448C88.9594 84.448 88.0954 84.384 87.2208 84.256C86.3674 84.128 85.6634 83.9467 85.1088 83.712L84.7568 83.168L97.2048 48.736C98.3141 48.5653 99.3808 48.4587 100.405 48.416C101.45 48.3733 102.399 48.352 103.253 48.352C104.042 48.352 104.895 48.3733 105.813 48.416C106.73 48.4587 107.765 48.5653 108.917 48.736L121.013 83.52C120.266 83.8613 119.317 84.1173 118.165 84.288C117.013 84.48 116.085 84.576 115.381 84.576C114.207 84.576 113.077 84.352 111.989 83.904C110.901 83.456 110.079 82.272 109.525 80.352L108.725 77.76C108.383 77.7813 108.053 77.8027 107.733 77.824C107.413 77.824 107.071 77.824 106.709 77.824H98.0368ZM99.3168 67.712L98.6128 69.92C98.9328 69.8987 99.2528 69.888 99.5728 69.888C99.8928 69.8667 100.223 69.856 100.565 69.856H104.565C104.885 69.856 105.173 69.8667 105.429 69.888C105.706 69.888 105.983 69.8987 106.261 69.92L105.589 67.744C105.098 66.0587 104.607 64.1813 104.117 62.112C103.626 60.0427 103.178 58.1653 102.773 56.48H102.389C101.941 58.1013 101.439 59.9573 100.885 62.048C100.351 64.1387 99.8288 66.0267 99.3168 67.712ZM150.785 75.808C150.657 78.9227 150.113 81.0987 149.153 82.336C148.193 83.5733 146.487 84.192 144.033 84.192H131.617C129.783 84.192 128.343 83.68 127.297 82.656C126.273 81.6107 125.761 80.2133 125.761 78.464V48.8L126.145 48.416H129.985C131.927 48.416 133.399 48.9067 134.401 49.888C135.404 50.848 135.905 52.4587 135.905 54.72V76.128C138.103 75.9147 140.076 75.808 141.825 75.808H150.785ZM156.892 48.736C157.703 48.5653 158.62 48.4587 159.644 48.416C160.668 48.3733 161.479 48.352 162.076 48.352C162.716 48.352 163.484 48.3733 164.38 48.416C165.298 48.4587 166.183 48.5653 167.036 48.736V84C166.183 84.1493 165.298 84.2453 164.38 84.288C163.484 84.352 162.716 84.384 162.076 84.384C161.479 84.384 160.668 84.352 159.644 84.288C158.62 84.2453 157.703 84.1493 156.892 84V48.736ZM205.063 59.456C205.063 61.0987 204.689 62.56 203.943 63.84C203.196 65.12 202.257 66.176 201.127 67.008C200.017 67.84 198.908 68.3733 197.799 68.608C198.951 68.992 199.9 69.5787 200.647 70.368C201.415 71.1573 202.076 72.1707 202.631 73.408L204.295 77.216C204.679 78.0907 205.116 78.9013 205.607 79.648C206.097 80.3733 206.641 80.992 207.239 81.504C206.62 82.272 205.692 82.9867 204.455 83.648C203.217 84.288 201.873 84.608 200.423 84.608C198.993 84.608 197.831 84.2667 196.935 83.584C196.06 82.88 195.292 81.76 194.631 80.224L191.815 73.76C191.367 72.7147 190.812 72.0853 190.151 71.872C189.489 71.6587 188.636 71.552 187.591 71.552H186.343V84C185.489 84.1493 184.604 84.2453 183.687 84.288C182.791 84.352 182.023 84.384 181.383 84.384C180.785 84.384 179.996 84.352 179.015 84.288C178.033 84.2453 177.137 84.1493 176.327 84V49.056L176.679 48.672C179.26 48.608 181.681 48.5547 183.943 48.512C186.225 48.448 188.497 48.416 190.759 48.416C193.319 48.416 195.687 48.7573 197.863 49.44C200.039 50.1013 201.777 51.2427 203.079 52.864C204.401 54.464 205.063 56.6613 205.063 59.456ZM186.343 55.648V63.936C187.089 63.9147 187.772 63.904 188.391 63.904C189.031 63.8827 189.5 63.872 189.799 63.872C191.719 63.872 193.02 63.456 193.703 62.624C194.385 61.792 194.727 60.8213 194.727 59.712C194.727 58.624 194.385 57.6853 193.703 56.896C193.02 56.1067 191.879 55.712 190.279 55.712C189.511 55.712 188.849 55.7013 188.295 55.68C187.74 55.6587 187.089 55.648 186.343 55.648Z" fill="#364760"/>
</svg>
