<svg width="419" height="27" viewBox="0 0 419 27" fill="none" xmlns="http://www.w3.org/2000/svg">
<path d="M0.498984 23.858C0.570984 23.054 0.816984 22.256 1.23698 21.464C1.66898 20.672 2.16698 20.036 2.73098 19.556C3.73898 20.168 4.88498 20.714 6.16898 21.194C7.45298 21.674 8.73698 21.914 10.021 21.914C11.065 21.914 11.815 21.662 12.271 21.158C12.727 20.654 12.955 20.114 12.955 19.538C12.955 19.142 12.829 18.698 12.577 18.206C12.325 17.714 11.695 17.258 10.687 16.838L6.34898 15.038C4.86098 14.414 3.63098 13.58 2.65898 12.536C1.68698 11.492 1.20098 10.112 1.20098 8.396C1.20098 6.896 1.59098 5.582 2.37098 4.454C3.15098 3.326 4.20098 2.45 5.52098 1.826C6.85298 1.19 8.33498 0.872 9.96699 0.872C11.659 0.872 13.255 1.1 14.755 1.556C16.255 2 17.473 2.462 18.409 2.942C18.361 3.77 18.163 4.568 17.815 5.336C17.479 6.092 17.029 6.728 16.465 7.244C15.553 6.812 14.485 6.416 13.261 6.056C12.037 5.684 10.939 5.498 9.96699 5.498C8.93499 5.498 8.19698 5.732 7.75298 6.2C7.32098 6.668 7.10498 7.142 7.10498 7.622C7.10498 8.078 7.25498 8.486 7.55498 8.846C7.86698 9.206 8.41898 9.554 9.21098 9.89L13.639 11.708C15.379 12.428 16.717 13.406 17.653 14.642C18.601 15.878 19.075 17.27 19.075 18.818C19.075 20.27 18.721 21.578 18.013 22.742C17.317 23.906 16.267 24.83 14.863 25.514C13.459 26.198 11.707 26.54 9.60698 26.54C8.15498 26.54 6.60698 26.312 4.96298 25.856C3.31898 25.388 1.83098 24.722 0.498984 23.858ZM37.6569 21.482C37.6569 23.198 37.3869 24.392 36.8469 25.064C36.3189 25.736 35.4189 26.072 34.1469 26.072H25.8489C24.8289 26.072 24.0249 25.784 23.4369 25.208C22.8489 24.62 22.5549 23.834 22.5549 22.85V6.362L22.7529 6.164H36.9909C37.0749 6.572 37.1229 6.962 37.1349 7.334C37.1469 7.706 37.1529 8.06 37.1529 8.396C37.1529 8.72 37.1169 9.086 37.0449 9.494C36.9849 9.902 36.8769 10.316 36.7209 10.736H30.4209C29.9169 10.736 29.1549 10.73 28.1349 10.718C28.1469 11.09 28.1529 11.408 28.1529 11.672C28.1649 11.936 28.1709 12.254 28.1709 12.626V13.814C29.1669 13.802 29.9169 13.796 30.4209 13.796H35.0289C35.1489 14.12 35.2269 14.492 35.2629 14.912C35.3109 15.32 35.3349 15.668 35.3349 15.956C35.3349 16.292 35.3109 16.67 35.2629 17.09C35.2269 17.498 35.1489 17.87 35.0289 18.206H30.4209C30.1929 18.206 29.8749 18.206 29.4669 18.206C29.0589 18.206 28.6269 18.206 28.1709 18.206V19.376C28.1709 19.82 28.1649 20.186 28.1529 20.474C28.1409 20.762 28.1349 21.122 28.1349 21.554V21.59C28.5549 21.566 28.9449 21.542 29.3049 21.518C29.6649 21.494 30.1029 21.482 30.6189 21.482H37.6569ZM55.5784 21.392C55.5064 23.144 55.2004 24.368 54.6604 25.064C54.1204 25.76 53.1604 26.108 51.7804 26.108H44.7964C43.7644 26.108 42.9544 25.82 42.3664 25.244C41.7904 24.656 41.5024 23.87 41.5024 22.886V6.2L41.7184 5.984H43.8784C44.9704 5.984 45.7984 6.26 46.3624 6.812C46.9264 7.352 47.2084 8.258 47.2084 9.53V21.572C48.4444 21.452 49.5544 21.392 50.5384 21.392H55.5784ZM74.0436 21.482C74.0436 23.198 73.7736 24.392 73.2336 25.064C72.7056 25.736 71.8056 26.072 70.5336 26.072H62.2356C61.2156 26.072 60.4116 25.784 59.8236 25.208C59.2356 24.62 58.9416 23.834 58.9416 22.85V6.362L59.1396 6.164H73.3776C73.4616 6.572 73.5096 6.962 73.5216 7.334C73.5336 7.706 73.5396 8.06 73.5396 8.396C73.5396 8.72 73.5036 9.086 73.4316 9.494C73.3716 9.902 73.2636 10.316 73.1076 10.736H66.8076C66.3036 10.736 65.5416 10.73 64.5216 10.718C64.5336 11.09 64.5396 11.408 64.5396 11.672C64.5516 11.936 64.5576 12.254 64.5576 12.626V13.814C65.5536 13.802 66.3036 13.796 66.8076 13.796H71.4156C71.5356 14.12 71.6136 14.492 71.6496 14.912C71.6976 15.32 71.7216 15.668 71.7216 15.956C71.7216 16.292 71.6976 16.67 71.6496 17.09C71.6136 17.498 71.5356 17.87 71.4156 18.206H66.8076C66.5796 18.206 66.2616 18.206 65.8536 18.206C65.4456 18.206 65.0136 18.206 64.5576 18.206V19.376C64.5576 19.82 64.5516 20.186 64.5396 20.474C64.5276 20.762 64.5216 21.122 64.5216 21.554V21.59C64.9416 21.566 65.3316 21.542 65.6916 21.518C66.0516 21.494 66.4896 21.482 67.0056 21.482H74.0436ZM88.6247 15.146C88.6247 13.622 88.4207 12.398 88.0127 11.474C87.6047 10.538 86.7827 10.07 85.5467 10.07C84.2627 10.07 83.3507 10.598 82.8107 11.654C82.2707 12.71 82.0007 14.228 82.0007 16.208C82.0007 17.72 82.1927 18.884 82.5767 19.7C82.9727 20.504 83.4767 21.062 84.0887 21.374C84.7007 21.686 85.3487 21.842 86.0327 21.842C86.9207 21.842 87.8087 21.65 88.6967 21.266C89.5967 20.87 90.4007 20.408 91.1087 19.88C91.4927 20.072 91.8647 20.378 92.2247 20.798C92.5847 21.218 92.8967 21.668 93.1607 22.148C93.4247 22.628 93.5927 23.066 93.6647 23.462C92.6687 24.314 91.4567 25.04 90.0287 25.64C88.6127 26.24 86.9987 26.54 85.1867 26.54C83.4467 26.54 81.9947 26.234 80.8307 25.622C79.6787 25.01 78.7607 24.206 78.0767 23.21C77.3927 22.202 76.9067 21.086 76.6187 19.862C76.3307 18.638 76.1867 17.408 76.1867 16.172C76.1867 13.712 76.6307 11.708 77.5187 10.16C78.4187 8.6 79.5947 7.454 81.0467 6.722C82.5107 5.99 84.0767 5.624 85.7447 5.624C87.6167 5.624 89.1587 5.954 90.3707 6.614C91.5827 7.274 92.4827 8.108 93.0707 9.116C93.6587 10.124 93.9527 11.162 93.9527 12.23C93.9527 14.282 92.8007 15.308 90.4967 15.308C90.2207 15.308 89.9207 15.29 89.5967 15.254C89.2727 15.218 88.9487 15.182 88.6247 15.146ZM108.242 15.146C108.242 13.622 108.038 12.398 107.63 11.474C107.222 10.538 106.4 10.07 105.164 10.07C103.88 10.07 102.968 10.598 102.428 11.654C101.888 12.71 101.618 14.228 101.618 16.208C101.618 17.72 101.81 18.884 102.194 19.7C102.59 20.504 103.094 21.062 103.706 21.374C104.318 21.686 104.966 21.842 105.65 21.842C106.538 21.842 107.426 21.65 108.314 21.266C109.214 20.87 110.018 20.408 110.726 19.88C111.11 20.072 111.482 20.378 111.842 20.798C112.202 21.218 112.514 21.668 112.778 22.148C113.042 22.628 113.21 23.066 113.282 23.462C112.286 24.314 111.074 25.04 109.646 25.64C108.23 26.24 106.616 26.54 104.804 26.54C103.064 26.54 101.612 26.234 100.448 25.622C99.2959 25.01 98.3779 24.206 97.6939 23.21C97.0099 22.202 96.5239 21.086 96.2359 19.862C95.9479 18.638 95.8039 17.408 95.8039 16.172C95.8039 13.712 96.2479 11.708 97.1359 10.16C98.0359 8.6 99.2119 7.454 100.664 6.722C102.128 5.99 103.694 5.624 105.362 5.624C107.234 5.624 108.776 5.954 109.988 6.614C111.2 7.274 112.1 8.108 112.688 9.116C113.276 10.124 113.57 11.162 113.57 12.23C113.57 14.282 112.418 15.308 110.114 15.308C109.838 15.308 109.538 15.29 109.214 15.254C108.89 15.218 108.566 15.182 108.242 15.146ZM117.127 6.164C117.583 6.068 118.099 6.008 118.675 5.984C119.251 5.96 119.707 5.948 120.043 5.948C120.403 5.948 120.835 5.96 121.339 5.984C121.855 6.008 122.353 6.068 122.833 6.164V26C122.353 26.084 121.855 26.138 121.339 26.162C120.835 26.198 120.403 26.216 120.043 26.216C119.707 26.216 119.251 26.198 118.675 26.162C118.099 26.138 117.583 26.084 117.127 26V6.164ZM126.601 16.118C126.601 12.902 127.429 10.352 129.085 8.468C130.753 6.572 133.183 5.624 136.375 5.624C139.615 5.624 142.057 6.566 143.701 8.45C145.357 10.322 146.185 12.878 146.185 16.118C146.185 19.358 145.357 21.908 143.701 23.768C142.045 25.616 139.603 26.54 136.375 26.54C133.135 26.54 130.693 25.604 129.049 23.732C127.417 21.86 126.601 19.322 126.601 16.118ZM132.415 16.118C132.415 16.802 132.457 17.51 132.541 18.242C132.637 18.962 132.817 19.634 133.081 20.258C133.357 20.882 133.759 21.392 134.287 21.788C134.815 22.172 135.517 22.364 136.393 22.364C137.269 22.364 137.971 22.172 138.499 21.788C139.027 21.392 139.423 20.882 139.687 20.258C139.963 19.634 140.143 18.962 140.227 18.242C140.323 17.51 140.371 16.802 140.371 16.118C140.371 15.422 140.323 14.708 140.227 13.976C140.143 13.232 139.963 12.548 139.687 11.924C139.423 11.288 139.027 10.778 138.499 10.394C137.971 9.998 137.269 9.8 136.393 9.8C135.517 9.8 134.815 9.998 134.287 10.394C133.759 10.778 133.357 11.288 133.081 11.924C132.817 12.548 132.637 13.232 132.541 13.976C132.457 14.708 132.415 15.422 132.415 16.118ZM156.875 16.946C156.791 16.754 156.659 16.454 156.479 16.046C156.299 15.626 156.107 15.176 155.903 14.696C155.699 14.216 155.507 13.766 155.327 13.346C155.159 12.926 155.027 12.62 154.931 12.428L154.805 12.482C154.853 13.43 154.901 14.456 154.949 15.56C154.997 16.652 155.033 17.654 155.057 18.566C155.093 19.466 155.111 20.12 155.111 20.528V26C154.643 26.084 154.193 26.138 153.761 26.162C153.329 26.198 152.927 26.216 152.555 26.216C152.219 26.216 151.799 26.198 151.295 26.162C150.803 26.138 150.335 26.084 149.891 26V6.29C150.335 6.182 150.887 6.098 151.547 6.038C152.207 5.978 152.717 5.948 153.077 5.948C153.449 5.948 153.977 5.96 154.661 5.984C155.345 5.996 155.909 6.056 156.353 6.164L160.583 15.182C160.667 15.35 160.805 15.656 160.997 16.1C161.201 16.544 161.417 17.03 161.645 17.558C161.873 18.086 162.083 18.584 162.275 19.052C162.479 19.508 162.629 19.844 162.725 20.06L162.887 20.024C162.839 19.232 162.773 18.308 162.689 17.252C162.617 16.196 162.551 15.176 162.491 14.192C162.431 13.208 162.401 12.422 162.401 11.834V9.026C162.401 7.754 162.677 6.92 163.229 6.524C163.781 6.116 164.603 5.912 165.695 5.912H167.549L167.765 6.164V25.892C167.297 26 166.733 26.078 166.073 26.126C165.413 26.186 164.909 26.216 164.561 26.216C164.321 26.216 163.991 26.21 163.571 26.198C163.151 26.186 162.719 26.168 162.275 26.144C161.843 26.12 161.483 26.072 161.195 26L156.875 16.946ZM177.993 22.526C177.801 22.526 177.615 22.526 177.435 22.526C177.255 22.514 177.075 22.502 176.895 22.49L175.779 26C175.431 26.084 175.053 26.144 174.645 26.18C174.237 26.228 173.811 26.252 173.367 26.252C172.887 26.252 172.401 26.216 171.909 26.144C171.429 26.072 171.033 25.97 170.721 25.838L170.523 25.532L177.525 6.164C178.149 6.068 178.749 6.008 179.325 5.984C179.913 5.96 180.447 5.948 180.927 5.948C181.371 5.948 181.851 5.96 182.367 5.984C182.883 6.008 183.465 6.068 184.113 6.164L190.917 25.73C190.497 25.922 189.963 26.066 189.315 26.162C188.667 26.27 188.145 26.324 187.749 26.324C187.089 26.324 186.453 26.198 185.841 25.946C185.229 25.694 184.767 25.028 184.455 23.948L184.005 22.49C183.813 22.502 183.627 22.514 183.447 22.526C183.267 22.526 183.075 22.526 182.871 22.526H177.993ZM178.713 16.838L178.317 18.08C178.497 18.068 178.677 18.062 178.857 18.062C179.037 18.05 179.223 18.044 179.415 18.044H181.665C181.845 18.044 182.007 18.05 182.151 18.062C182.307 18.062 182.463 18.068 182.619 18.08L182.241 16.856C181.965 15.908 181.689 14.852 181.413 13.688C181.137 12.524 180.885 11.468 180.657 10.52H180.441C180.189 11.432 179.907 12.476 179.595 13.652C179.295 14.828 179.001 15.89 178.713 16.838ZM209.824 12.194C209.824 13.118 209.614 13.94 209.194 14.66C208.774 15.38 208.246 15.974 207.61 16.442C206.986 16.91 206.362 17.21 205.738 17.342C206.386 17.558 206.92 17.888 207.34 18.332C207.772 18.776 208.144 19.346 208.456 20.042L209.392 22.184C209.608 22.676 209.854 23.132 210.13 23.552C210.406 23.96 210.712 24.308 211.048 24.596C210.7 25.028 210.178 25.43 209.482 25.802C208.786 26.162 208.03 26.342 207.214 26.342C206.41 26.342 205.756 26.15 205.252 25.766C204.76 25.37 204.328 24.74 203.956 23.876L202.372 20.24C202.12 19.652 201.808 19.298 201.436 19.178C201.064 19.058 200.584 18.998 199.996 18.998H199.294V26C198.814 26.084 198.316 26.138 197.8 26.162C197.296 26.198 196.864 26.216 196.504 26.216C196.168 26.216 195.724 26.198 195.172 26.162C194.62 26.138 194.116 26.084 193.66 26V6.344L193.858 6.128C195.31 6.092 196.672 6.062 197.944 6.038C199.228 6.002 200.506 5.984 201.778 5.984C203.218 5.984 204.55 6.176 205.774 6.56C206.998 6.932 207.976 7.574 208.708 8.486C209.452 9.386 209.824 10.622 209.824 12.194ZM199.294 10.052V14.714C199.714 14.702 200.098 14.696 200.446 14.696C200.806 14.684 201.07 14.678 201.238 14.678C202.318 14.678 203.05 14.444 203.434 13.976C203.818 13.508 204.01 12.962 204.01 12.338C204.01 11.726 203.818 11.198 203.434 10.754C203.05 10.31 202.408 10.088 201.508 10.088C201.076 10.088 200.704 10.082 200.392 10.07C200.08 10.058 199.714 10.052 199.294 10.052ZM223.345 1.448C223.957 1.34 224.623 1.268 225.343 1.232C226.075 1.196 226.705 1.178 227.233 1.178C227.761 1.178 228.349 1.196 228.997 1.232C229.645 1.268 230.275 1.34 230.887 1.448L233.011 10.25C233.059 10.466 233.137 10.838 233.245 11.366C233.365 11.894 233.497 12.494 233.641 13.166C233.785 13.838 233.917 14.498 234.037 15.146C234.169 15.794 234.271 16.346 234.343 16.802H234.595C234.667 16.346 234.769 15.794 234.901 15.146C235.033 14.498 235.165 13.838 235.297 13.166C235.441 12.494 235.573 11.894 235.693 11.366C235.813 10.838 235.897 10.466 235.945 10.25L238.069 1.448C238.681 1.34 239.305 1.268 239.941 1.232C240.589 1.196 241.177 1.178 241.705 1.178C242.233 1.178 242.863 1.196 243.595 1.232C244.327 1.268 244.993 1.34 245.593 1.448L247.501 25.928C247.093 26.036 246.619 26.108 246.079 26.144C245.551 26.192 245.053 26.216 244.585 26.216C244.153 26.216 243.727 26.204 243.307 26.18C242.899 26.156 242.485 26.108 242.065 26.036L241.525 16.01C241.453 14.738 241.387 13.334 241.327 11.798C241.267 10.262 241.237 8.906 241.237 7.73H240.985L237.439 22.382C237.007 22.454 236.503 22.508 235.927 22.544C235.351 22.568 234.859 22.58 234.451 22.58C234.091 22.58 233.617 22.568 233.029 22.544C232.441 22.508 231.931 22.454 231.499 22.382L227.953 7.73H227.719C227.707 8.906 227.671 10.262 227.611 11.798C227.563 13.334 227.503 14.738 227.431 16.01L226.873 26.036C226.465 26.108 226.051 26.156 225.631 26.18C225.211 26.204 224.785 26.216 224.353 26.216C223.897 26.216 223.399 26.192 222.859 26.144C222.331 26.108 221.857 26.036 221.437 25.928L223.345 1.448ZM250.597 16.118C250.597 12.902 251.425 10.352 253.081 8.468C254.749 6.572 257.179 5.624 260.371 5.624C263.611 5.624 266.053 6.566 267.697 8.45C269.353 10.322 270.181 12.878 270.181 16.118C270.181 19.358 269.353 21.908 267.697 23.768C266.041 25.616 263.599 26.54 260.371 26.54C257.131 26.54 254.689 25.604 253.045 23.732C251.413 21.86 250.597 19.322 250.597 16.118ZM256.411 16.118C256.411 16.802 256.453 17.51 256.537 18.242C256.633 18.962 256.813 19.634 257.077 20.258C257.353 20.882 257.755 21.392 258.283 21.788C258.811 22.172 259.513 22.364 260.389 22.364C261.265 22.364 261.967 22.172 262.495 21.788C263.023 21.392 263.419 20.882 263.683 20.258C263.959 19.634 264.139 18.962 264.223 18.242C264.319 17.51 264.367 16.802 264.367 16.118C264.367 15.422 264.319 14.708 264.223 13.976C264.139 13.232 263.959 12.548 263.683 11.924C263.419 11.288 263.023 10.778 262.495 10.394C261.967 9.998 261.265 9.8 260.389 9.8C259.513 9.8 258.811 9.998 258.283 10.394C257.755 10.778 257.353 11.288 257.077 11.924C256.813 12.548 256.633 13.232 256.537 13.976C256.453 14.708 256.411 15.422 256.411 16.118ZM285.111 6.164C285.543 6.068 285.921 6.008 286.245 5.984C286.581 5.96 286.923 5.948 287.271 5.948C287.703 5.948 288.153 5.972 288.621 6.02C289.101 6.068 289.611 6.17 290.151 6.326L290.403 6.596L284.499 26C283.959 26.084 283.251 26.138 282.375 26.162C281.499 26.198 280.701 26.216 279.981 26.216C279.033 26.216 278.229 26.066 277.569 25.766C276.921 25.454 276.453 24.782 276.165 23.75L271.035 6.56C271.527 6.356 272.043 6.2 272.583 6.092C273.135 5.972 273.699 5.912 274.275 5.912C275.139 5.912 275.811 6.116 276.291 6.524C276.783 6.92 277.173 7.61 277.461 8.594L279.387 15.038C279.663 16.01 279.909 17 280.125 18.008C280.353 19.016 280.575 20.156 280.791 21.428C280.839 21.632 280.959 21.734 281.151 21.734L285.111 6.164ZM293.189 6.164C293.645 6.068 294.161 6.008 294.737 5.984C295.313 5.96 295.769 5.948 296.105 5.948C296.465 5.948 296.897 5.96 297.401 5.984C297.917 6.008 298.415 6.068 298.895 6.164V26C298.415 26.084 297.917 26.138 297.401 26.162C296.897 26.198 296.465 26.216 296.105 26.216C295.769 26.216 295.313 26.198 294.737 26.162C294.161 26.138 293.645 26.084 293.189 26V6.164ZM305.381 6.164C305.957 6.056 306.587 5.984 307.271 5.948C307.955 5.9 308.531 5.876 308.999 5.876C309.443 5.876 310.019 5.9 310.727 5.948C311.435 5.984 312.029 6.056 312.509 6.164L314.273 13.976C314.381 14.444 314.507 15.08 314.651 15.884C314.795 16.676 314.939 17.528 315.083 18.44H315.317C315.605 16.52 315.875 15.032 316.127 13.976L317.873 6.164C318.437 6.056 319.055 5.984 319.727 5.948C320.399 5.9 320.957 5.876 321.401 5.876C321.869 5.876 322.451 5.9 323.147 5.948C323.843 5.984 324.467 6.056 325.019 6.164L327.053 25.928C326.273 26.12 325.331 26.216 324.227 26.216C323.807 26.216 323.357 26.198 322.877 26.162C322.409 26.126 321.989 26.072 321.617 26L321.095 19.628C321.035 18.812 320.999 17.918 320.987 16.946C320.975 15.974 320.975 15.026 320.987 14.102C320.999 13.166 320.999 12.356 320.987 11.672H320.771L318.125 22.958C317.717 23.03 317.219 23.084 316.631 23.12C316.043 23.144 315.557 23.156 315.173 23.156C314.777 23.156 314.285 23.144 313.697 23.12C313.121 23.084 312.641 23.03 312.257 22.958L309.629 11.672H309.377C309.377 12.368 309.377 13.178 309.377 14.102C309.389 15.026 309.389 15.974 309.377 16.946C309.365 17.918 309.323 18.824 309.251 19.664L308.783 26C308.399 26.072 307.979 26.126 307.523 26.162C307.079 26.198 306.647 26.216 306.227 26.216C305.111 26.216 304.151 26.12 303.347 25.928L305.381 6.164ZM331.545 6.164C332.001 6.068 332.517 6.008 333.093 5.984C333.669 5.96 334.125 5.948 334.461 5.948C334.821 5.948 335.253 5.96 335.757 5.984C336.273 6.008 336.771 6.068 337.251 6.164V26C336.771 26.084 336.273 26.138 335.757 26.162C335.253 26.198 334.821 26.216 334.461 26.216C334.125 26.216 333.669 26.198 333.093 26.162C332.517 26.138 332.001 26.084 331.545 26V6.164ZM357.579 21.482C357.579 23.198 357.309 24.392 356.769 25.064C356.241 25.736 355.341 26.072 354.069 26.072H345.771C344.751 26.072 343.947 25.784 343.359 25.208C342.771 24.62 342.477 23.834 342.477 22.85V6.362L342.675 6.164H356.913C356.997 6.572 357.045 6.962 357.057 7.334C357.069 7.706 357.075 8.06 357.075 8.396C357.075 8.72 357.039 9.086 356.967 9.494C356.907 9.902 356.799 10.316 356.643 10.736H350.343C349.839 10.736 349.077 10.73 348.057 10.718C348.069 11.09 348.075 11.408 348.075 11.672C348.087 11.936 348.093 12.254 348.093 12.626V13.814C349.089 13.802 349.839 13.796 350.343 13.796H354.951C355.071 14.12 355.149 14.492 355.185 14.912C355.233 15.32 355.257 15.668 355.257 15.956C355.257 16.292 355.233 16.67 355.185 17.09C355.149 17.498 355.071 17.87 354.951 18.206H350.343C350.115 18.206 349.797 18.206 349.389 18.206C348.981 18.206 348.549 18.206 348.093 18.206V19.376C348.093 19.82 348.087 20.186 348.075 20.474C348.063 20.762 348.057 21.122 348.057 21.554V21.59C348.477 21.566 348.867 21.542 349.227 21.518C349.587 21.494 350.025 21.482 350.541 21.482H357.579ZM368.48 16.946C368.396 16.754 368.264 16.454 368.084 16.046C367.904 15.626 367.712 15.176 367.508 14.696C367.304 14.216 367.112 13.766 366.932 13.346C366.764 12.926 366.632 12.62 366.536 12.428L366.41 12.482C366.458 13.43 366.506 14.456 366.554 15.56C366.602 16.652 366.638 17.654 366.662 18.566C366.698 19.466 366.716 20.12 366.716 20.528V26C366.248 26.084 365.798 26.138 365.366 26.162C364.934 26.198 364.532 26.216 364.16 26.216C363.824 26.216 363.404 26.198 362.9 26.162C362.408 26.138 361.94 26.084 361.496 26V6.29C361.94 6.182 362.492 6.098 363.152 6.038C363.812 5.978 364.322 5.948 364.682 5.948C365.054 5.948 365.582 5.96 366.266 5.984C366.95 5.996 367.514 6.056 367.958 6.164L372.188 15.182C372.272 15.35 372.41 15.656 372.602 16.1C372.806 16.544 373.022 17.03 373.25 17.558C373.478 18.086 373.688 18.584 373.88 19.052C374.084 19.508 374.234 19.844 374.33 20.06L374.492 20.024C374.444 19.232 374.378 18.308 374.294 17.252C374.222 16.196 374.156 15.176 374.096 14.192C374.036 13.208 374.006 12.422 374.006 11.834V9.026C374.006 7.754 374.282 6.92 374.834 6.524C375.386 6.116 376.208 5.912 377.3 5.912H379.154L379.37 6.164V25.892C378.902 26 378.338 26.078 377.678 26.126C377.018 26.186 376.514 26.216 376.166 26.216C375.926 26.216 375.596 26.21 375.176 26.198C374.756 26.186 374.324 26.168 373.88 26.144C373.448 26.12 373.088 26.072 372.8 26L368.48 16.946ZM387.583 12.914C387.583 12.53 387.589 12.176 387.601 11.852C387.613 11.516 387.619 11.144 387.619 10.736C387.367 10.736 387.019 10.742 386.575 10.754C386.143 10.766 385.801 10.772 385.549 10.772H382.219C382.123 10.34 382.063 9.938 382.039 9.566C382.015 9.182 382.003 8.834 382.003 8.522C382.003 8.21 382.015 7.844 382.039 7.424C382.063 6.992 382.123 6.572 382.219 6.164H398.509C398.593 6.488 398.653 6.854 398.689 7.262C398.737 7.67 398.761 8 398.761 8.252C398.761 9.068 398.545 9.692 398.113 10.124C397.681 10.556 396.961 10.772 395.953 10.772H395.215C394.963 10.772 394.627 10.766 394.207 10.754C393.799 10.742 393.481 10.736 393.253 10.736C393.253 11.144 393.259 11.516 393.271 11.852C393.283 12.176 393.289 12.53 393.289 12.914V26C392.953 26.072 392.491 26.126 391.903 26.162C391.315 26.198 390.823 26.216 390.427 26.216C390.055 26.216 389.587 26.198 389.023 26.162C388.459 26.126 387.979 26.072 387.583 26V12.914ZM399.343 16.118C399.343 12.902 400.171 10.352 401.827 8.468C403.495 6.572 405.925 5.624 409.117 5.624C412.357 5.624 414.799 6.566 416.443 8.45C418.099 10.322 418.927 12.878 418.927 16.118C418.927 19.358 418.099 21.908 416.443 23.768C414.787 25.616 412.345 26.54 409.117 26.54C405.877 26.54 403.435 25.604 401.791 23.732C400.159 21.86 399.343 19.322 399.343 16.118ZM405.157 16.118C405.157 16.802 405.199 17.51 405.283 18.242C405.379 18.962 405.559 19.634 405.823 20.258C406.099 20.882 406.501 21.392 407.029 21.788C407.557 22.172 408.259 22.364 409.135 22.364C410.011 22.364 410.713 22.172 411.241 21.788C411.769 21.392 412.165 20.882 412.429 20.258C412.705 19.634 412.885 18.962 412.969 18.242C413.065 17.51 413.113 16.802 413.113 16.118C413.113 15.422 413.065 14.708 412.969 13.976C412.885 13.232 412.705 12.548 412.429 11.924C412.165 11.288 411.769 10.778 411.241 10.394C410.713 9.998 410.011 9.8 409.135 9.8C408.259 9.8 407.557 9.998 407.029 10.394C406.501 10.778 406.099 11.288 405.823 11.924C405.559 12.548 405.379 13.232 405.283 13.976C405.199 14.708 405.157 15.422 405.157 16.118Z" fill="#364760"/>
</svg>
