<svg width="220" height="71" viewBox="0 0 220 71" fill="none" xmlns="http://www.w3.org/2000/svg">
<g opacity="0.7">
<g opacity="0.7">
<path opacity="0.7" d="M144.466 58.1834C144.466 63.8012 139.911 68.3553 134.293 68.3553H87.6984C82.0811 68.3553 77.5264 63.8012 77.5264 58.1834V11.5883C77.5264 5.97055 82.0811 1.41637 87.6984 1.41637H134.293C139.911 1.41637 144.466 5.97055 144.466 11.5883V58.1834Z" fill="#1EBCBC"/>
</g>
</g>
<path d="M134.91 22.6346C133.338 23.3322 131.647 23.8039 129.874 24.0155C131.684 22.93 133.076 21.2122 133.73 19.164C132.037 20.1691 130.161 20.8993 128.162 21.293C126.561 19.5876 124.282 18.5231 121.76 18.5231C116.917 18.5231 112.99 22.4502 112.99 27.2927C112.99 27.981 113.067 28.6491 113.217 29.2904C105.928 28.9263 99.4671 25.4347 95.141 20.1272C94.3876 21.4242 93.9547 22.93 93.9547 24.5372C93.9547 27.5788 95.5025 30.2652 97.8542 31.8358C96.4179 31.7925 95.0656 31.3948 93.8829 30.7383V30.849C93.8829 35.0979 96.9062 38.6429 100.917 39.4485C100.181 39.648 99.4042 39.7578 98.6066 39.7578C98.0425 39.7578 97.4913 39.7012 96.9557 39.5985C98.072 43.0824 101.31 45.6175 105.147 45.6898C102.148 48.041 98.3674 49.4442 94.256 49.4442C93.549 49.4442 92.8519 49.4018 92.1659 49.3214C96.0457 51.8065 100.656 53.2597 105.611 53.2597C121.74 53.2597 130.56 39.8993 130.56 28.309C130.56 27.9301 130.551 27.5521 130.536 27.1731C132.247 25.9382 133.732 24.3939 134.91 22.6346Z" fill="white"/>
<g clip-path="url(#clip0)">
<g opacity="0.8">
<path opacity="0.8" d="M219.983 58.6457C219.984 60.0034 219.717 61.348 219.198 62.6025C218.679 63.857 217.918 64.9969 216.958 65.9569C215.998 66.917 214.858 67.6784 213.603 68.1975C212.349 68.7167 211.004 68.9834 209.646 68.9826H162.33C160.973 68.9826 159.629 68.7151 158.375 68.1956C157.122 67.676 155.983 66.9145 155.023 65.9545C154.064 64.9946 153.303 63.855 152.784 62.6009C152.266 61.3468 151.999 60.0028 152 58.6457V11.3293C152 8.58957 153.088 5.96208 155.026 4.02482C156.963 2.08755 159.59 0.999209 162.33 0.999209H209.646C211.004 0.998316 212.348 1.26485 213.602 1.78359C214.856 2.30232 215.995 3.06309 216.955 4.02241C217.915 4.98174 218.677 6.12082 219.196 7.37456C219.716 8.62831 219.983 9.97214 219.983 11.3293V58.6457Z" fill="#364760"/>
</g>
<path d="M186.491 28.0565C182.106 28.0565 178.551 31.4999 178.551 35.7523C178.551 40.0046 182.106 43.4446 186.491 43.4446C190.876 43.4446 194.432 39.9978 194.432 35.7523C194.432 31.5067 190.876 28.0565 186.491 28.0565ZM201.754 32.7848H198.273C198.611 33.8861 198.783 35.0318 198.783 36.184C198.783 42.7579 193.279 48.081 186.491 48.081C179.703 48.081 174.2 42.7512 174.2 36.184C174.2 35.0319 174.372 33.8863 174.71 32.7848H171.083V49.4849C171.084 49.9008 171.25 50.2994 171.544 50.5932C171.839 50.8869 172.237 51.0519 172.653 51.0519H200.187C200.603 51.0519 201.001 50.8869 201.296 50.5932C201.59 50.2994 201.756 49.9008 201.757 49.4849L201.754 32.7848ZM195.489 20.456C195.017 20.4578 194.564 20.6465 194.23 20.9809C193.897 21.3153 193.709 21.7681 193.708 22.2406V26.4929C193.709 26.9651 193.897 27.4176 194.23 27.7514C194.564 28.0853 195.017 28.2732 195.489 28.2741H199.955C200.428 28.2732 200.88 28.0853 201.214 27.7514C201.548 27.4176 201.736 26.9651 201.737 26.4929V22.2406C201.736 21.7681 201.548 21.3153 201.214 20.9809C200.88 20.6465 200.428 20.4578 199.955 20.456H195.489ZM171.763 16.0677H201.149C202.493 16.0739 203.78 16.6106 204.73 17.561C205.681 18.5114 206.217 19.7986 206.224 21.1426V50.5284C206.216 51.8719 205.679 53.1582 204.729 54.1079C203.779 55.0575 202.492 55.5938 201.149 55.6H171.763C170.419 55.5938 169.133 55.0575 168.182 54.1079C167.232 53.1582 166.695 51.8719 166.688 50.5284V21.1426C166.694 19.7986 167.231 18.5114 168.181 17.561C169.132 16.6106 170.419 16.0739 171.763 16.0677Z" fill="white"/>
</g>
<g opacity="0.89999">
<g opacity="0.89999">
<path opacity="0.89999" d="M68.2606 58.9895C68.2606 64.6072 63.7068 69.1614 58.0891 69.1614H11.4939C5.8762 69.1614 1.32202 64.6072 1.32202 58.9895V12.3944C1.32202 6.77662 5.8762 2.22244 11.4939 2.22244H58.0891C63.7068 2.22244 68.2606 6.77662 68.2606 12.3944V58.9895Z" fill="#3A5A98"/>
</g>
</g>
<path d="M52.6708 40.8914L53.7531 32.4981H45.4423V27.1396C45.4423 24.7095 46.1194 23.0532 49.6037 23.0532L54.0441 23.051V15.5444C53.2778 15.4422 50.6419 15.2132 47.569 15.2132C41.1613 15.2132 36.7767 19.1256 36.7767 26.309V32.4981H29.5281V40.8914H36.7767V62.4265H45.4423V40.8914H52.6708Z" fill="#FFEED7"/>
<defs>
<clipPath id="clip0">
<rect width="67.9765" height="67.9732" fill="white" transform="translate(152 0.999207)"/>
</clipPath>
</defs>
</svg>
