<svg width="505" height="27" viewBox="0 0 505 27" fill="none" xmlns="http://www.w3.org/2000/svg">
<path d="M0.907188 23.858C0.979188 23.054 1.22519 22.256 1.64519 21.464C2.07719 20.672 2.57519 20.036 3.13919 19.556C4.14719 20.168 5.29319 20.714 6.57719 21.194C7.86119 21.674 9.14519 21.914 10.4292 21.914C11.4732 21.914 12.2232 21.662 12.6792 21.158C13.1352 20.654 13.3632 20.114 13.3632 19.538C13.3632 19.142 13.2372 18.698 12.9852 18.206C12.7332 17.714 12.1032 17.258 11.0952 16.838L6.75719 15.038C5.26919 14.414 4.03919 13.58 3.06719 12.536C2.09519 11.492 1.60919 10.112 1.60919 8.396C1.60919 6.896 1.99919 5.582 2.77919 4.454C3.55919 3.326 4.60919 2.45 5.92919 1.826C7.26119 1.19 8.74319 0.872 10.3752 0.872C12.0672 0.872 13.6632 1.1 15.1632 1.556C16.6632 2 17.8812 2.462 18.8172 2.942C18.7692 3.77 18.5712 4.568 18.2232 5.336C17.8872 6.092 17.4372 6.728 16.8732 7.244C15.9612 6.812 14.8932 6.416 13.6692 6.056C12.4452 5.684 11.3472 5.498 10.3752 5.498C9.34319 5.498 8.60519 5.732 8.16119 6.2C7.72919 6.668 7.51319 7.142 7.51319 7.622C7.51319 8.078 7.66319 8.486 7.96319 8.846C8.27519 9.206 8.82719 9.554 9.61919 9.89L14.0472 11.708C15.7872 12.428 17.1252 13.406 18.0612 14.642C19.0092 15.878 19.4832 17.27 19.4832 18.818C19.4832 20.27 19.1292 21.578 18.4212 22.742C17.7252 23.906 16.6752 24.83 15.2712 25.514C13.8672 26.198 12.1152 26.54 10.0152 26.54C8.56319 26.54 7.01519 26.312 5.37119 25.856C3.72719 25.388 2.23919 24.722 0.907188 23.858ZM21.5403 16.118C21.5403 12.902 22.3683 10.352 24.0243 8.468C25.6923 6.572 28.1223 5.624 31.3143 5.624C34.5543 5.624 36.9963 6.566 38.6403 8.45C40.2963 10.322 41.1243 12.878 41.1243 16.118C41.1243 19.358 40.2963 21.908 38.6403 23.768C36.9843 25.616 34.5423 26.54 31.3143 26.54C28.0743 26.54 25.6323 25.604 23.9883 23.732C22.3563 21.86 21.5403 19.322 21.5403 16.118ZM27.3543 16.118C27.3543 16.802 27.3963 17.51 27.4803 18.242C27.5763 18.962 27.7563 19.634 28.0203 20.258C28.2963 20.882 28.6983 21.392 29.2263 21.788C29.7543 22.172 30.4563 22.364 31.3323 22.364C32.2083 22.364 32.9103 22.172 33.4383 21.788C33.9663 21.392 34.3623 20.882 34.6263 20.258C34.9023 19.634 35.0823 18.962 35.1663 18.242C35.2623 17.51 35.3103 16.802 35.3103 16.118C35.3103 15.422 35.2623 14.708 35.1663 13.976C35.0823 13.232 34.9023 12.548 34.6263 11.924C34.3623 11.288 33.9663 10.778 33.4383 10.394C32.9103 9.998 32.2083 9.8 31.3323 9.8C30.4563 9.8 29.7543 9.998 29.2263 10.394C28.6983 10.778 28.2963 11.288 28.0203 11.924C27.7563 12.548 27.5763 13.232 27.4803 13.976C27.3963 14.708 27.3543 15.422 27.3543 16.118ZM58.8343 21.392C58.7623 23.144 58.4563 24.368 57.9163 25.064C57.3763 25.76 56.4163 26.108 55.0363 26.108H48.0523C47.0203 26.108 46.2103 25.82 45.6223 25.244C45.0463 24.656 44.7583 23.87 44.7583 22.886V6.2L44.9743 5.984H47.1343C48.2263 5.984 49.0543 6.26 49.6183 6.812C50.1823 7.352 50.4643 8.258 50.4643 9.53V21.572C51.7003 21.452 52.8103 21.392 53.7943 21.392H58.8343ZM62.2695 6.164C62.7255 6.068 63.2415 6.008 63.8175 5.984C64.3935 5.96 64.8495 5.948 65.1855 5.948C65.5455 5.948 65.9775 5.96 66.4815 5.984C66.9975 6.008 67.4955 6.068 67.9755 6.164V26C67.4955 26.084 66.9975 26.138 66.4815 26.162C65.9775 26.198 65.5455 26.216 65.1855 26.216C64.8495 26.216 64.3935 26.198 63.8175 26.162C63.2415 26.138 62.7255 26.084 62.2695 26V6.164ZM84.1814 15.146C84.1814 13.622 83.9774 12.398 83.5694 11.474C83.1614 10.538 82.3394 10.07 81.1034 10.07C79.8194 10.07 78.9074 10.598 78.3674 11.654C77.8274 12.71 77.5574 14.228 77.5574 16.208C77.5574 17.72 77.7494 18.884 78.1334 19.7C78.5294 20.504 79.0334 21.062 79.6454 21.374C80.2574 21.686 80.9054 21.842 81.5894 21.842C82.4774 21.842 83.3654 21.65 84.2534 21.266C85.1534 20.87 85.9574 20.408 86.6654 19.88C87.0494 20.072 87.4214 20.378 87.7814 20.798C88.1414 21.218 88.4534 21.668 88.7174 22.148C88.9814 22.628 89.1494 23.066 89.2214 23.462C88.2254 24.314 87.0134 25.04 85.5854 25.64C84.1694 26.24 82.5554 26.54 80.7434 26.54C79.0034 26.54 77.5514 26.234 76.3874 25.622C75.2354 25.01 74.3174 24.206 73.6334 23.21C72.9494 22.202 72.4634 21.086 72.1754 19.862C71.8874 18.638 71.7434 17.408 71.7434 16.172C71.7434 13.712 72.1874 11.708 73.0754 10.16C73.9754 8.6 75.1514 7.454 76.6034 6.722C78.0674 5.99 79.6334 5.624 81.3014 5.624C83.1734 5.624 84.7154 5.954 85.9274 6.614C87.1394 7.274 88.0394 8.108 88.6274 9.116C89.2154 10.124 89.5094 11.162 89.5094 12.23C89.5094 14.282 88.3574 15.308 86.0534 15.308C85.7774 15.308 85.4774 15.29 85.1534 15.254C84.8294 15.218 84.5054 15.182 84.1814 15.146ZM93.0663 6.164C93.5223 6.068 94.0383 6.008 94.6143 5.984C95.1903 5.96 95.6463 5.948 95.9823 5.948C96.3423 5.948 96.7743 5.96 97.2783 5.984C97.7943 6.008 98.2923 6.068 98.7723 6.164V26C98.2923 26.084 97.7943 26.138 97.2783 26.162C96.7743 26.198 96.3423 26.216 95.9823 26.216C95.6463 26.216 95.1903 26.198 94.6143 26.162C94.0383 26.138 93.5223 26.084 93.0663 26V6.164ZM107.022 12.914C107.022 12.53 107.028 12.176 107.04 11.852C107.052 11.516 107.058 11.144 107.058 10.736C106.806 10.736 106.458 10.742 106.014 10.754C105.582 10.766 105.24 10.772 104.988 10.772H101.658C101.562 10.34 101.502 9.938 101.478 9.566C101.454 9.182 101.442 8.834 101.442 8.522C101.442 8.21 101.454 7.844 101.478 7.424C101.502 6.992 101.562 6.572 101.658 6.164H117.948C118.032 6.488 118.092 6.854 118.128 7.262C118.176 7.67 118.2 8 118.2 8.252C118.2 9.068 117.984 9.692 117.552 10.124C117.12 10.556 116.4 10.772 115.392 10.772H114.654C114.402 10.772 114.066 10.766 113.646 10.754C113.238 10.742 112.92 10.736 112.692 10.736C112.692 11.144 112.698 11.516 112.71 11.852C112.722 12.176 112.728 12.53 112.728 12.914V26C112.392 26.072 111.93 26.126 111.342 26.162C110.754 26.198 110.262 26.216 109.866 26.216C109.494 26.216 109.026 26.198 108.462 26.162C107.898 26.126 107.418 26.072 107.022 26V12.914ZM137.871 18.566C137.871 21.05 137.127 23 135.639 24.416C134.163 25.832 131.973 26.54 129.069 26.54C126.165 26.54 123.969 25.832 122.481 24.416C121.005 23 120.267 21.05 120.267 18.566V6.164L120.483 5.948H122.535C123.627 5.948 124.467 6.224 125.055 6.776C125.655 7.328 125.955 8.258 125.955 9.566V18.548C125.955 19.64 126.183 20.498 126.639 21.122C127.095 21.746 127.905 22.058 129.069 22.058C130.245 22.058 131.055 21.746 131.499 21.122C131.943 20.498 132.165 19.64 132.165 18.548V6.164C132.645 6.068 133.137 6.008 133.641 5.984C134.145 5.96 134.583 5.948 134.955 5.948C135.291 5.948 135.747 5.966 136.323 6.002C136.899 6.026 137.415 6.086 137.871 6.182V18.566ZM160.795 16.118C160.795 19.478 160.009 21.992 158.437 23.66C156.865 25.316 154.387 26.144 151.003 26.144C149.575 26.144 148.219 26.132 146.935 26.108C145.663 26.096 144.319 26.072 142.903 26.036L142.705 25.82V6.344L142.903 6.128C144.331 6.092 145.681 6.062 146.953 6.038C148.225 6.002 149.575 5.984 151.003 5.984C154.351 5.984 156.817 6.854 158.401 8.594C159.997 10.322 160.795 12.83 160.795 16.118ZM154.999 16.118C154.999 15.242 154.909 14.366 154.729 13.49C154.549 12.602 154.171 11.858 153.595 11.258C153.019 10.658 152.155 10.358 151.003 10.358C150.475 10.358 150.019 10.358 149.635 10.358C149.263 10.346 148.831 10.334 148.339 10.322V21.842C148.855 21.842 149.293 21.836 149.653 21.824C150.025 21.812 150.475 21.806 151.003 21.806C152.155 21.806 153.019 21.512 153.595 20.924C154.171 20.324 154.549 19.586 154.729 18.71C154.909 17.834 154.999 16.97 154.999 16.118ZM190.537 16.118C190.537 19.478 189.751 21.992 188.179 23.66C186.607 25.316 184.129 26.144 180.745 26.144C179.317 26.144 177.961 26.132 176.677 26.108C175.405 26.096 174.061 26.072 172.645 26.036L172.447 25.82V6.344L172.645 6.128C174.073 6.092 175.423 6.062 176.695 6.038C177.967 6.002 179.317 5.984 180.745 5.984C184.093 5.984 186.559 6.854 188.143 8.594C189.739 10.322 190.537 12.83 190.537 16.118ZM184.741 16.118C184.741 15.242 184.651 14.366 184.471 13.49C184.291 12.602 183.913 11.858 183.337 11.258C182.761 10.658 181.897 10.358 180.745 10.358C180.217 10.358 179.761 10.358 179.377 10.358C179.005 10.346 178.573 10.334 178.081 10.322V21.842C178.597 21.842 179.035 21.836 179.395 21.824C179.767 21.812 180.217 21.806 180.745 21.806C181.897 21.806 182.761 21.512 183.337 20.924C183.913 20.324 184.291 19.586 184.471 18.71C184.651 17.834 184.741 16.97 184.741 16.118ZM209.382 21.482C209.382 23.198 209.112 24.392 208.572 25.064C208.044 25.736 207.144 26.072 205.872 26.072H197.574C196.554 26.072 195.75 25.784 195.162 25.208C194.574 24.62 194.28 23.834 194.28 22.85V6.362L194.478 6.164H208.716C208.8 6.572 208.848 6.962 208.86 7.334C208.872 7.706 208.878 8.06 208.878 8.396C208.878 8.72 208.842 9.086 208.77 9.494C208.71 9.902 208.602 10.316 208.446 10.736H202.146C201.642 10.736 200.88 10.73 199.86 10.718C199.872 11.09 199.878 11.408 199.878 11.672C199.89 11.936 199.896 12.254 199.896 12.626V13.814C200.892 13.802 201.642 13.796 202.146 13.796H206.754C206.874 14.12 206.952 14.492 206.988 14.912C207.036 15.32 207.06 15.668 207.06 15.956C207.06 16.292 207.036 16.67 206.988 17.09C206.952 17.498 206.874 17.87 206.754 18.206H202.146C201.918 18.206 201.6 18.206 201.191 18.206C200.784 18.206 200.352 18.206 199.896 18.206V19.376C199.896 19.82 199.89 20.186 199.878 20.474C199.866 20.762 199.86 21.122 199.86 21.554V21.59C200.28 21.566 200.67 21.542 201.03 21.518C201.39 21.494 201.828 21.482 202.344 21.482H209.382ZM234.205 11.204C234.229 10.208 234.127 9.272 233.899 8.396C233.683 7.508 233.281 6.794 232.693 6.254C232.117 5.702 231.301 5.426 230.245 5.426C228.697 5.426 227.593 6.146 226.933 7.586C226.285 9.014 225.961 11.096 225.961 13.832C225.961 16.388 226.387 18.308 227.239 19.592C228.103 20.876 229.321 21.518 230.893 21.518C232.141 21.518 233.263 21.254 234.259 20.726C235.267 20.198 236.185 19.622 237.013 18.998C237.577 19.382 238.123 19.928 238.651 20.636C239.191 21.344 239.527 22.034 239.659 22.706C238.963 23.39 238.099 24.026 237.067 24.614C236.047 25.19 234.919 25.652 233.683 26C232.447 26.36 231.163 26.54 229.831 26.54C227.947 26.54 226.363 26.174 225.079 25.442C223.807 24.698 222.793 23.714 222.037 22.49C221.281 21.254 220.735 19.886 220.399 18.386C220.075 16.874 219.913 15.344 219.913 13.796C219.913 10.784 220.387 8.324 221.335 6.416C222.295 4.508 223.573 3.104 225.169 2.204C226.765 1.304 228.523 0.853999 230.443 0.853999C232.303 0.853999 233.923 1.184 235.303 1.844C236.695 2.504 237.769 3.398 238.525 4.526C239.293 5.654 239.677 6.926 239.677 8.342C239.677 9.458 239.383 10.268 238.795 10.772C238.219 11.264 237.415 11.51 236.383 11.51C235.963 11.51 235.579 11.48 235.231 11.42C234.895 11.36 234.553 11.288 234.205 11.204ZM248.187 22.526C247.995 22.526 247.809 22.526 247.629 22.526C247.449 22.514 247.269 22.502 247.089 22.49L245.973 26C245.625 26.084 245.247 26.144 244.839 26.18C244.431 26.228 244.005 26.252 243.561 26.252C243.081 26.252 242.595 26.216 242.103 26.144C241.623 26.072 241.227 25.97 240.915 25.838L240.717 25.532L247.719 6.164C248.343 6.068 248.943 6.008 249.519 5.984C250.107 5.96 250.641 5.948 251.121 5.948C251.565 5.948 252.045 5.96 252.561 5.984C253.077 6.008 253.659 6.068 254.307 6.164L261.111 25.73C260.691 25.922 260.157 26.066 259.509 26.162C258.861 26.27 258.339 26.324 257.943 26.324C257.283 26.324 256.647 26.198 256.035 25.946C255.423 25.694 254.961 25.028 254.649 23.948L254.199 22.49C254.007 22.502 253.821 22.514 253.641 22.526C253.461 22.526 253.269 22.526 253.065 22.526H248.187ZM248.907 16.838L248.511 18.08C248.691 18.068 248.871 18.062 249.051 18.062C249.231 18.05 249.417 18.044 249.609 18.044H251.859C252.039 18.044 252.201 18.05 252.345 18.062C252.501 18.062 252.657 18.068 252.813 18.08L252.435 16.856C252.159 15.908 251.883 14.852 251.607 13.688C251.331 12.524 251.079 11.468 250.851 10.52H250.635C250.383 11.432 250.101 12.476 249.789 13.652C249.489 14.828 249.195 15.89 248.907 16.838ZM265.114 6.164C265.69 6.056 266.32 5.984 267.004 5.948C267.688 5.9 268.264 5.876 268.732 5.876C269.176 5.876 269.752 5.9 270.46 5.948C271.168 5.984 271.762 6.056 272.242 6.164L274.006 13.976C274.114 14.444 274.24 15.08 274.384 15.884C274.528 16.676 274.672 17.528 274.816 18.44H275.05C275.338 16.52 275.608 15.032 275.86 13.976L277.606 6.164C278.17 6.056 278.788 5.984 279.46 5.948C280.132 5.9 280.69 5.876 281.134 5.876C281.602 5.876 282.184 5.9 282.88 5.948C283.576 5.984 284.2 6.056 284.752 6.164L286.786 25.928C286.006 26.12 285.064 26.216 283.96 26.216C283.54 26.216 283.09 26.198 282.61 26.162C282.142 26.126 281.722 26.072 281.35 26L280.828 19.628C280.768 18.812 280.732 17.918 280.72 16.946C280.708 15.974 280.708 15.026 280.72 14.102C280.732 13.166 280.732 12.356 280.72 11.672H280.504L277.858 22.958C277.45 23.03 276.952 23.084 276.364 23.12C275.776 23.144 275.29 23.156 274.906 23.156C274.51 23.156 274.018 23.144 273.43 23.12C272.854 23.084 272.374 23.03 271.99 22.958L269.362 11.672H269.11C269.11 12.368 269.11 13.178 269.11 14.102C269.122 15.026 269.122 15.974 269.11 16.946C269.098 17.918 269.056 18.824 268.984 19.664L268.516 26C268.132 26.072 267.712 26.126 267.256 26.162C266.812 26.198 266.38 26.216 265.96 26.216C264.844 26.216 263.884 26.12 263.08 25.928L265.114 6.164ZM291.403 6.128C292.027 6.104 292.777 6.08 293.653 6.056C294.541 6.032 295.453 6.014 296.389 6.002C297.325 5.99 298.183 5.984 298.963 5.984C300.439 5.984 301.759 6.152 302.923 6.488C304.099 6.824 305.023 7.382 305.695 8.162C306.367 8.93 306.703 9.962 306.703 11.258C306.703 12.098 306.469 12.896 306.001 13.652C305.545 14.408 304.915 14.942 304.111 15.254C305.143 15.578 306.007 16.214 306.703 17.162C307.399 18.098 307.747 19.112 307.747 20.204C307.747 21.74 307.387 22.94 306.667 23.804C305.959 24.656 304.975 25.262 303.715 25.622C302.467 25.97 301.039 26.144 299.431 26.144C298.195 26.144 296.911 26.132 295.579 26.108C294.247 26.096 292.855 26.072 291.403 26.036L291.205 25.856V6.344L291.403 6.128ZM298.711 9.854C298.483 9.854 298.177 9.854 297.793 9.854C297.409 9.854 297.043 9.842 296.695 9.818V13.688H298.675C299.635 13.688 300.289 13.49 300.637 13.094C300.985 12.698 301.159 12.254 301.159 11.762C301.159 11.282 300.985 10.844 300.637 10.448C300.301 10.052 299.659 9.854 298.711 9.854ZM296.695 22.274C297.175 22.25 297.643 22.238 298.099 22.238C298.555 22.238 298.969 22.238 299.341 22.238C300.433 22.238 301.153 21.992 301.501 21.5C301.861 20.996 302.041 20.48 302.041 19.952C302.041 19.376 301.825 18.836 301.393 18.332C300.973 17.828 300.193 17.576 299.053 17.576H296.695V22.274ZM311.598 6.164C312.054 6.068 312.57 6.008 313.146 5.984C313.722 5.96 314.178 5.948 314.514 5.948C314.874 5.948 315.306 5.96 315.81 5.984C316.326 6.008 316.824 6.068 317.304 6.164V26C316.824 26.084 316.326 26.138 315.81 26.162C315.306 26.198 314.874 26.216 314.514 26.216C314.178 26.216 313.722 26.198 313.146 26.162C312.57 26.138 312.054 26.084 311.598 26V6.164ZM321.072 16.118C321.072 12.902 321.9 10.352 323.556 8.468C325.224 6.572 327.654 5.624 330.846 5.624C334.086 5.624 336.528 6.566 338.172 8.45C339.828 10.322 340.656 12.878 340.656 16.118C340.656 19.358 339.828 21.908 338.172 23.768C336.516 25.616 334.074 26.54 330.846 26.54C327.606 26.54 325.164 25.604 323.52 23.732C321.888 21.86 321.072 19.322 321.072 16.118ZM326.886 16.118C326.886 16.802 326.928 17.51 327.012 18.242C327.108 18.962 327.288 19.634 327.552 20.258C327.828 20.882 328.23 21.392 328.758 21.788C329.286 22.172 329.988 22.364 330.864 22.364C331.74 22.364 332.442 22.172 332.97 21.788C333.498 21.392 333.894 20.882 334.158 20.258C334.434 19.634 334.614 18.962 334.698 18.242C334.794 17.51 334.842 16.802 334.842 16.118C334.842 15.422 334.794 14.708 334.698 13.976C334.614 13.232 334.434 12.548 334.158 11.924C333.894 11.288 333.498 10.778 332.97 10.394C332.442 9.998 331.74 9.8 330.864 9.8C329.988 9.8 329.286 9.998 328.758 10.394C328.23 10.778 327.828 11.288 327.552 11.924C327.288 12.548 327.108 13.232 327.012 13.976C326.928 14.708 326.886 15.422 326.886 16.118ZM370.362 16.118C370.362 19.478 369.576 21.992 368.004 23.66C366.432 25.316 363.954 26.144 360.57 26.144C359.142 26.144 357.786 26.132 356.502 26.108C355.23 26.096 353.886 26.072 352.47 26.036L352.272 25.82V6.344L352.47 6.128C353.898 6.092 355.248 6.062 356.52 6.038C357.792 6.002 359.142 5.984 360.57 5.984C363.918 5.984 366.384 6.854 367.968 8.594C369.564 10.322 370.362 12.83 370.362 16.118ZM364.566 16.118C364.566 15.242 364.476 14.366 364.296 13.49C364.116 12.602 363.738 11.858 363.162 11.258C362.586 10.658 361.722 10.358 360.57 10.358C360.042 10.358 359.586 10.358 359.202 10.358C358.83 10.346 358.398 10.334 357.906 10.322V21.842C358.422 21.842 358.86 21.836 359.22 21.824C359.592 21.812 360.042 21.806 360.57 21.806C361.722 21.806 362.586 21.512 363.162 20.924C363.738 20.324 364.116 19.586 364.296 18.71C364.476 17.834 364.566 16.97 364.566 16.118ZM389.206 21.482C389.206 23.198 388.936 24.392 388.396 25.064C387.868 25.736 386.968 26.072 385.696 26.072H377.398C376.378 26.072 375.574 25.784 374.986 25.208C374.398 24.62 374.104 23.834 374.104 22.85V6.362L374.302 6.164H388.54C388.624 6.572 388.672 6.962 388.684 7.334C388.696 7.706 388.702 8.06 388.702 8.396C388.702 8.72 388.666 9.086 388.594 9.494C388.534 9.902 388.426 10.316 388.27 10.736H381.97C381.466 10.736 380.704 10.73 379.684 10.718C379.696 11.09 379.702 11.408 379.702 11.672C379.714 11.936 379.72 12.254 379.72 12.626V13.814C380.716 13.802 381.466 13.796 381.97 13.796H386.578C386.698 14.12 386.776 14.492 386.812 14.912C386.86 15.32 386.884 15.668 386.884 15.956C386.884 16.292 386.86 16.67 386.812 17.09C386.776 17.498 386.698 17.87 386.578 18.206H381.97C381.742 18.206 381.424 18.206 381.016 18.206C380.608 18.206 380.176 18.206 379.72 18.206V19.376C379.72 19.82 379.714 20.186 379.702 20.474C379.69 20.762 379.684 21.122 379.684 21.554V21.59C380.104 21.566 380.494 21.542 380.854 21.518C381.214 21.494 381.652 21.482 382.168 21.482H389.206ZM414.731 19.322C414.731 18.926 414.737 18.518 414.749 18.098C414.761 17.678 414.779 17.252 414.803 16.82H413.039C412.115 16.82 411.425 16.646 410.969 16.298C410.513 15.95 410.285 15.32 410.285 14.408C410.285 14.036 410.321 13.634 410.393 13.202C410.477 12.77 410.579 12.38 410.699 12.032H416.333C417.761 12.032 418.751 12.368 419.303 13.04C419.855 13.7 420.131 14.552 420.131 15.596V25.046C419.087 25.394 417.737 25.73 416.081 26.054C414.425 26.378 412.613 26.54 410.645 26.54C408.185 26.54 406.145 26.024 404.525 24.992C402.917 23.96 401.717 22.496 400.925 20.6C400.133 18.704 399.737 16.46 399.737 13.868C399.737 11.684 400.055 9.782 400.691 8.162C401.327 6.53 402.191 5.18 403.283 4.112C404.375 3.032 405.605 2.222 406.973 1.682C408.341 1.142 409.757 0.872 411.221 0.872C412.877 0.872 414.461 1.112 415.973 1.592C417.485 2.072 418.853 2.69 420.077 3.446C420.017 4.262 419.717 5.06 419.177 5.84C418.649 6.62 418.091 7.202 417.503 7.586C416.627 6.998 415.667 6.53 414.623 6.182C413.591 5.822 412.571 5.642 411.563 5.642C409.739 5.642 408.293 6.302 407.225 7.622C406.157 8.93 405.623 11.024 405.623 13.904C405.623 16.712 406.139 18.764 407.171 20.06C408.215 21.356 409.703 22.004 411.635 22.004C412.211 22.004 412.757 21.974 413.273 21.914C413.789 21.854 414.275 21.782 414.731 21.698V19.322ZM440.752 12.194C440.752 13.118 440.542 13.94 440.122 14.66C439.702 15.38 439.174 15.974 438.538 16.442C437.914 16.91 437.29 17.21 436.666 17.342C437.314 17.558 437.848 17.888 438.268 18.332C438.7 18.776 439.072 19.346 439.384 20.042L440.32 22.184C440.536 22.676 440.782 23.132 441.058 23.552C441.334 23.96 441.64 24.308 441.976 24.596C441.628 25.028 441.106 25.43 440.41 25.802C439.714 26.162 438.958 26.342 438.142 26.342C437.338 26.342 436.684 26.15 436.18 25.766C435.688 25.37 435.256 24.74 434.884 23.876L433.3 20.24C433.048 19.652 432.736 19.298 432.364 19.178C431.992 19.058 431.512 18.998 430.924 18.998H430.222V26C429.742 26.084 429.244 26.138 428.728 26.162C428.224 26.198 427.792 26.216 427.432 26.216C427.096 26.216 426.652 26.198 426.1 26.162C425.548 26.138 425.044 26.084 424.588 26V6.344L424.786 6.128C426.238 6.092 427.6 6.062 428.872 6.038C430.156 6.002 431.434 5.984 432.706 5.984C434.146 5.984 435.478 6.176 436.702 6.56C437.926 6.932 438.904 7.574 439.636 8.486C440.38 9.386 440.752 10.622 440.752 12.194ZM430.222 10.052V14.714C430.642 14.702 431.026 14.696 431.374 14.696C431.734 14.684 431.998 14.678 432.166 14.678C433.246 14.678 433.978 14.444 434.362 13.976C434.746 13.508 434.938 12.962 434.938 12.338C434.938 11.726 434.746 11.198 434.362 10.754C433.978 10.31 433.336 10.088 432.436 10.088C432.004 10.088 431.632 10.082 431.32 10.07C431.008 10.058 430.642 10.052 430.222 10.052ZM462.328 18.566C462.328 21.05 461.584 23 460.096 24.416C458.62 25.832 456.43 26.54 453.526 26.54C450.622 26.54 448.426 25.832 446.938 24.416C445.462 23 444.724 21.05 444.724 18.566V6.164L444.94 5.948H446.992C448.084 5.948 448.924 6.224 449.512 6.776C450.112 7.328 450.412 8.258 450.412 9.566V18.548C450.412 19.64 450.64 20.498 451.096 21.122C451.552 21.746 452.362 22.058 453.526 22.058C454.702 22.058 455.512 21.746 455.956 21.122C456.4 20.498 456.622 19.64 456.622 18.548V6.164C457.102 6.068 457.594 6.008 458.098 5.984C458.602 5.96 459.04 5.948 459.412 5.948C459.748 5.948 460.204 5.966 460.78 6.002C461.356 6.026 461.872 6.086 462.328 6.182V18.566ZM482.93 12.968C482.93 14.528 482.576 15.824 481.868 16.856C481.172 17.876 480.212 18.638 478.988 19.142C477.764 19.634 476.372 19.88 474.812 19.88H472.85V26C472.37 26.084 471.878 26.138 471.374 26.162C470.87 26.198 470.438 26.216 470.078 26.216C469.742 26.216 469.286 26.198 468.71 26.162C468.134 26.138 467.618 26.084 467.162 26V6.344L467.36 6.128C468.332 6.104 469.502 6.074 470.87 6.038C472.238 6.002 473.552 5.984 474.812 5.984C476.384 5.984 477.782 6.224 479.006 6.704C480.23 7.184 481.19 7.94 481.886 8.972C482.582 10.004 482.93 11.336 482.93 12.968ZM472.85 10.196V15.704C473.174 15.692 473.468 15.686 473.732 15.686C473.996 15.674 474.194 15.668 474.326 15.668C475.118 15.668 475.712 15.524 476.108 15.236C476.516 14.936 476.786 14.576 476.918 14.156C477.05 13.724 477.116 13.316 477.116 12.932C477.116 12.572 477.05 12.182 476.918 11.762C476.786 11.342 476.516 10.982 476.108 10.682C475.712 10.382 475.118 10.232 474.326 10.232C474.026 10.232 473.81 10.232 473.678 10.232C473.546 10.22 473.27 10.208 472.85 10.196ZM484.935 16.118C484.935 12.902 485.763 10.352 487.419 8.468C489.087 6.572 491.517 5.624 494.709 5.624C497.949 5.624 500.391 6.566 502.035 8.45C503.691 10.322 504.519 12.878 504.519 16.118C504.519 19.358 503.691 21.908 502.035 23.768C500.379 25.616 497.937 26.54 494.709 26.54C491.469 26.54 489.027 25.604 487.383 23.732C485.751 21.86 484.935 19.322 484.935 16.118ZM490.749 16.118C490.749 16.802 490.791 17.51 490.875 18.242C490.971 18.962 491.151 19.634 491.415 20.258C491.691 20.882 492.093 21.392 492.621 21.788C493.149 22.172 493.851 22.364 494.727 22.364C495.603 22.364 496.305 22.172 496.833 21.788C497.361 21.392 497.757 20.882 498.021 20.258C498.297 19.634 498.477 18.962 498.561 18.242C498.657 17.51 498.705 16.802 498.705 16.118C498.705 15.422 498.657 14.708 498.561 13.976C498.477 13.232 498.297 12.548 498.021 11.924C497.757 11.288 497.361 10.778 496.833 10.394C496.305 9.998 495.603 9.8 494.727 9.8C493.851 9.8 493.149 9.998 492.621 10.394C492.093 10.778 491.691 11.288 491.415 11.924C491.151 12.548 490.971 13.232 490.875 13.976C490.791 14.708 490.749 15.422 490.749 16.118Z" fill="#364760"/>
</svg>
