<svg width="157" height="26" viewBox="0 0 157 26" fill="none" xmlns="http://www.w3.org/2000/svg">
<path d="M6.74378 7.828C6.74378 7.336 6.74978 6.898 6.76178 6.514C6.77378 6.118 6.77978 5.668 6.77978 5.164H6.74378C6.47978 5.164 6.10178 5.17 5.60978 5.182C5.11778 5.194 4.73978 5.2 4.47578 5.2H0.749781C0.665781 4.768 0.611781 4.348 0.587781 3.94C0.563781 3.52 0.551781 3.148 0.551781 2.824C0.551781 2.488 0.563781 2.11 0.587781 1.69C0.611781 1.27 0.665781 0.843999 0.749781 0.411999H18.5698C18.6538 0.711999 18.7198 1.066 18.7678 1.474C18.8278 1.87 18.8578 2.254 18.8578 2.626C18.8578 3.562 18.6118 4.228 18.1198 4.624C17.6398 5.008 16.8838 5.2 15.8518 5.2H14.7898C14.5258 5.2 14.1478 5.194 13.6558 5.182C13.1638 5.17 12.7858 5.164 12.5218 5.164H12.4858C12.4858 5.668 12.4918 6.118 12.5038 6.514C12.5158 6.898 12.5218 7.336 12.5218 7.828V25C12.0298 25.084 11.5258 25.138 11.0098 25.162C10.4938 25.198 10.0378 25.216 9.64178 25.216C9.23378 25.216 8.77178 25.198 8.25578 25.162C7.73978 25.138 7.23578 25.084 6.74378 25V7.828ZM35.8385 20.482C35.8385 22.198 35.5685 23.392 35.0285 24.064C34.5005 24.736 33.6005 25.072 32.3285 25.072H24.0305C23.0105 25.072 22.2065 24.784 21.6185 24.208C21.0305 23.62 20.7365 22.834 20.7365 21.85V5.362L20.9345 5.164H35.1725C35.2565 5.572 35.3045 5.962 35.3165 6.334C35.3285 6.706 35.3345 7.06 35.3345 7.396C35.3345 7.72 35.2985 8.086 35.2265 8.494C35.1665 8.902 35.0585 9.316 34.9025 9.736H28.6025C28.0985 9.736 27.3365 9.73 26.3165 9.718C26.3285 10.09 26.3345 10.408 26.3345 10.672C26.3465 10.936 26.3525 11.254 26.3525 11.626V12.814C27.3485 12.802 28.0985 12.796 28.6025 12.796H33.2105C33.3305 13.12 33.4085 13.492 33.4445 13.912C33.4925 14.32 33.5165 14.668 33.5165 14.956C33.5165 15.292 33.4925 15.67 33.4445 16.09C33.4085 16.498 33.3305 16.87 33.2105 17.206H28.6025C28.3745 17.206 28.0565 17.206 27.6485 17.206C27.2405 17.206 26.8085 17.206 26.3525 17.206V18.376C26.3525 18.82 26.3465 19.186 26.3345 19.474C26.3225 19.762 26.3165 20.122 26.3165 20.554V20.59C26.7365 20.566 27.1265 20.542 27.4865 20.518C27.8465 20.494 28.2845 20.482 28.8005 20.482H35.8385ZM53.7601 20.392C53.6881 22.144 53.3821 23.368 52.8421 24.064C52.3021 24.76 51.3421 25.108 49.9621 25.108H42.9781C41.9461 25.108 41.1361 24.82 40.5481 24.244C39.9721 23.656 39.6841 22.87 39.6841 21.886V5.2L39.9001 4.984H42.0601C43.1521 4.984 43.9801 5.26 44.5441 5.812C45.1081 6.352 45.3901 7.258 45.3901 8.53V20.572C46.6261 20.452 47.7361 20.392 48.7201 20.392H53.7601ZM72.2253 20.482C72.2253 22.198 71.9553 23.392 71.4153 24.064C70.8873 24.736 69.9873 25.072 68.7153 25.072H60.4173C59.3973 25.072 58.5933 24.784 58.0053 24.208C57.4173 23.62 57.1233 22.834 57.1233 21.85V5.362L57.3213 5.164H71.5593C71.6433 5.572 71.6913 5.962 71.7033 6.334C71.7153 6.706 71.7213 7.06 71.7213 7.396C71.7213 7.72 71.6853 8.086 71.6133 8.494C71.5533 8.902 71.4453 9.316 71.2893 9.736H64.9893C64.4853 9.736 63.7233 9.73 62.7033 9.718C62.7153 10.09 62.7213 10.408 62.7213 10.672C62.7333 10.936 62.7393 11.254 62.7393 11.626V12.814C63.7353 12.802 64.4853 12.796 64.9893 12.796H69.5973C69.7173 13.12 69.7953 13.492 69.8313 13.912C69.8793 14.32 69.9033 14.668 69.9033 14.956C69.9033 15.292 69.8793 15.67 69.8313 16.09C69.7953 16.498 69.7173 16.87 69.5973 17.206H64.9893C64.7613 17.206 64.4433 17.206 64.0352 17.206C63.6273 17.206 63.1953 17.206 62.7393 17.206V18.376C62.7393 18.82 62.7333 19.186 62.7213 19.474C62.7093 19.762 62.7033 20.122 62.7033 20.554V20.59C63.1233 20.566 63.5133 20.542 63.8733 20.518C64.2333 20.494 64.6713 20.482 65.1873 20.482H72.2253ZM81.8308 25C81.3388 25.084 80.8348 25.138 80.3188 25.162C79.8148 25.198 79.3708 25.216 78.9868 25.216C78.6028 25.216 78.1528 25.198 77.6368 25.162C77.1328 25.138 76.6348 25.084 76.1428 25V5.326L76.3408 5.164H90.2908C90.3748 5.488 90.4348 5.854 90.4708 6.262C90.5188 6.67 90.5428 7 90.5428 7.252C90.5428 8.068 90.3268 8.704 89.8948 9.16C89.4628 9.616 88.7428 9.844 87.7348 9.844H83.9008C83.5408 9.844 83.1868 9.844 82.8388 9.844C82.5028 9.832 82.1668 9.826 81.8308 9.826C81.8308 10.078 81.8308 10.336 81.8308 10.6C81.8308 10.852 81.8308 11.104 81.8308 11.356V13.228C81.9748 13.228 82.1128 13.228 82.2448 13.228H88.2388C88.3468 13.54 88.4188 13.906 88.4548 14.326C88.5028 14.734 88.5268 15.082 88.5268 15.37C88.5268 15.694 88.5028 16.078 88.4548 16.522C88.4188 16.966 88.3468 17.35 88.2388 17.674H82.2448C82.1128 17.674 81.9748 17.674 81.8308 17.674V25ZM91.9817 15.118C91.9817 11.902 92.8097 9.352 94.4657 7.468C96.1337 5.572 98.5637 4.624 101.756 4.624C104.996 4.624 107.438 5.566 109.082 7.45C110.738 9.322 111.566 11.878 111.566 15.118C111.566 18.358 110.738 20.908 109.082 22.768C107.426 24.616 104.984 25.54 101.756 25.54C98.5157 25.54 96.0737 24.604 94.4297 22.732C92.7977 20.86 91.9817 18.322 91.9817 15.118ZM97.7957 15.118C97.7957 15.802 97.8377 16.51 97.9217 17.242C98.0177 17.962 98.1977 18.634 98.4617 19.258C98.7377 19.882 99.1397 20.392 99.6677 20.788C100.196 21.172 100.898 21.364 101.774 21.364C102.65 21.364 103.352 21.172 103.88 20.788C104.408 20.392 104.804 19.882 105.068 19.258C105.344 18.634 105.524 17.962 105.608 17.242C105.704 16.51 105.752 15.802 105.752 15.118C105.752 14.422 105.704 13.708 105.608 12.976C105.524 12.232 105.344 11.548 105.068 10.924C104.804 10.288 104.408 9.778 103.88 9.394C103.352 8.998 102.65 8.8 101.774 8.8C100.898 8.8 100.196 8.998 99.6677 9.394C99.1397 9.778 98.7377 10.288 98.4617 10.924C98.1977 11.548 98.0177 12.232 97.9217 12.976C97.8377 13.708 97.7957 14.422 97.7957 15.118ZM122.256 15.946C122.172 15.754 122.04 15.454 121.86 15.046C121.68 14.626 121.488 14.176 121.284 13.696C121.08 13.216 120.888 12.766 120.708 12.346C120.54 11.926 120.408 11.62 120.312 11.428L120.186 11.482C120.234 12.43 120.282 13.456 120.33 14.56C120.378 15.652 120.414 16.654 120.438 17.566C120.474 18.466 120.492 19.12 120.492 19.528V25C120.024 25.084 119.574 25.138 119.142 25.162C118.71 25.198 118.308 25.216 117.936 25.216C117.6 25.216 117.18 25.198 116.676 25.162C116.184 25.138 115.716 25.084 115.272 25V5.29C115.716 5.182 116.268 5.098 116.928 5.038C117.588 4.978 118.098 4.948 118.458 4.948C118.83 4.948 119.358 4.96 120.042 4.984C120.726 4.996 121.29 5.056 121.734 5.164L125.964 14.182C126.048 14.35 126.186 14.656 126.378 15.1C126.582 15.544 126.798 16.03 127.026 16.558C127.254 17.086 127.464 17.584 127.656 18.052C127.86 18.508 128.01 18.844 128.106 19.06L128.268 19.024C128.22 18.232 128.154 17.308 128.07 16.252C127.998 15.196 127.932 14.176 127.872 13.192C127.812 12.208 127.782 11.422 127.782 10.834V8.026C127.782 6.754 128.058 5.92 128.61 5.524C129.162 5.116 129.984 4.912 131.076 4.912H132.93L133.146 5.164V24.892C132.678 25 132.114 25.078 131.454 25.126C130.794 25.186 130.29 25.216 129.942 25.216C129.702 25.216 129.372 25.21 128.952 25.198C128.532 25.186 128.1 25.168 127.656 25.144C127.224 25.12 126.864 25.072 126.576 25L122.256 15.946ZM136.876 15.118C136.876 11.902 137.704 9.352 139.36 7.468C141.028 5.572 143.458 4.624 146.65 4.624C149.89 4.624 152.332 5.566 153.976 7.45C155.632 9.322 156.46 11.878 156.46 15.118C156.46 18.358 155.632 20.908 153.976 22.768C152.32 24.616 149.878 25.54 146.65 25.54C143.41 25.54 140.968 24.604 139.324 22.732C137.692 20.86 136.876 18.322 136.876 15.118ZM142.69 15.118C142.69 15.802 142.732 16.51 142.816 17.242C142.912 17.962 143.092 18.634 143.356 19.258C143.632 19.882 144.034 20.392 144.562 20.788C145.09 21.172 145.792 21.364 146.668 21.364C147.544 21.364 148.246 21.172 148.774 20.788C149.302 20.392 149.698 19.882 149.962 19.258C150.238 18.634 150.418 17.962 150.502 17.242C150.598 16.51 150.646 15.802 150.646 15.118C150.646 14.422 150.598 13.708 150.502 12.976C150.418 12.232 150.238 11.548 149.962 10.924C149.698 10.288 149.302 9.778 148.774 9.394C148.246 8.998 147.544 8.8 146.668 8.8C145.792 8.8 145.09 8.998 144.562 9.394C144.034 9.778 143.632 10.288 143.356 10.924C143.092 11.548 142.912 12.232 142.816 12.976C142.732 13.708 142.69 14.422 142.69 15.118Z" fill="#364760"/>
</svg>
