<svg width="297" height="31" viewBox="0 0 297 31" fill="none" xmlns="http://www.w3.org/2000/svg">
<path d="M19.9555 20.928C19.9555 23.976 19.1095 26.34 17.4175 28.02C15.7375 29.7 13.3375 30.54 10.2175 30.54C7.10952 30.54 4.70952 29.7 3.01752 28.02C1.32552 26.34 0.479516 23.976 0.479516 20.928V5.412L0.731516 5.178H2.83752C3.94152 5.178 4.78752 5.466 5.37552 6.042C5.96352 6.606 6.25752 7.53 6.25752 8.814V20.982C6.25752 22.626 6.55752 23.868 7.15752 24.708C7.75752 25.536 8.77752 25.95 10.2175 25.95C11.6695 25.95 12.6955 25.536 13.2955 24.708C13.8955 23.868 14.1955 22.626 14.1955 20.982V5.412C14.6635 5.328 15.1495 5.274 15.6535 5.25C16.1695 5.214 16.6195 5.196 17.0035 5.196C17.3515 5.196 17.8135 5.214 18.3895 5.25C18.9775 5.274 19.4995 5.328 19.9555 5.412V20.928ZM25.1513 10.128C25.7753 10.104 26.5253 10.08 27.4013 10.056C28.2893 10.032 29.2013 10.014 30.1373 10.002C31.0733 9.99 31.9313 9.984 32.7113 9.984C34.1873 9.984 35.5073 10.152 36.6713 10.488C37.8473 10.824 38.7713 11.382 39.4433 12.162C40.1153 12.93 40.4513 13.962 40.4513 15.258C40.4513 16.098 40.2173 16.896 39.7493 17.652C39.2933 18.408 38.6633 18.942 37.8593 19.254C38.8913 19.578 39.7553 20.214 40.4513 21.162C41.1473 22.098 41.4953 23.112 41.4953 24.204C41.4953 25.74 41.1353 26.94 40.4153 27.804C39.7073 28.656 38.7233 29.262 37.4633 29.622C36.2153 29.97 34.7873 30.144 33.1793 30.144C31.9433 30.144 30.6593 30.132 29.3273 30.108C27.9953 30.096 26.6033 30.072 25.1513 30.036L24.9533 29.856V10.344L25.1513 10.128ZM32.4593 13.854C32.2313 13.854 31.9253 13.854 31.5413 13.854C31.1573 13.854 30.7913 13.842 30.4433 13.818V17.688H32.4233C33.3833 17.688 34.0373 17.49 34.3853 17.094C34.7333 16.698 34.9073 16.254 34.9073 15.762C34.9073 15.282 34.7333 14.844 34.3853 14.448C34.0493 14.052 33.4073 13.854 32.4593 13.854ZM30.4433 26.274C30.9233 26.25 31.3913 26.238 31.8473 26.238C32.3033 26.238 32.7173 26.238 33.0893 26.238C34.1813 26.238 34.9013 25.992 35.2493 25.5C35.6093 24.996 35.7893 24.48 35.7893 23.952C35.7893 23.376 35.5733 22.836 35.1413 22.332C34.7213 21.828 33.9413 21.576 32.8013 21.576H30.4433V26.274ZM45.3456 10.164C45.8016 10.068 46.3176 10.008 46.8936 9.984C47.4696 9.96 47.9256 9.948 48.2616 9.948C48.6216 9.948 49.0536 9.96 49.5576 9.984C50.0736 10.008 50.5716 10.068 51.0516 10.164V30C50.5716 30.084 50.0736 30.138 49.5576 30.162C49.0536 30.198 48.6216 30.216 48.2616 30.216C47.9256 30.216 47.4696 30.198 46.8936 30.162C46.3176 30.138 45.8016 30.084 45.3456 30V10.164ZM67.2575 19.146C67.2575 17.622 67.0535 16.398 66.6455 15.474C66.2375 14.538 65.4155 14.07 64.1795 14.07C62.8955 14.07 61.9835 14.598 61.4435 15.654C60.9035 16.71 60.6335 18.228 60.6335 20.208C60.6335 21.72 60.8255 22.884 61.2095 23.7C61.6055 24.504 62.1095 25.062 62.7215 25.374C63.3335 25.686 63.9815 25.842 64.6655 25.842C65.5535 25.842 66.4415 25.65 67.3295 25.266C68.2295 24.87 69.0335 24.408 69.7415 23.88C70.1255 24.072 70.4975 24.378 70.8575 24.798C71.2175 25.218 71.5295 25.668 71.7935 26.148C72.0575 26.628 72.2255 27.066 72.2975 27.462C71.3015 28.314 70.0895 29.04 68.6615 29.64C67.2455 30.24 65.6315 30.54 63.8195 30.54C62.0795 30.54 60.6275 30.234 59.4635 29.622C58.3115 29.01 57.3935 28.206 56.7095 27.21C56.0255 26.202 55.5395 25.086 55.2515 23.862C54.9635 22.638 54.8195 21.408 54.8195 20.172C54.8195 17.712 55.2635 15.708 56.1515 14.16C57.0515 12.6 58.2275 11.454 59.6795 10.722C61.1435 9.99 62.7095 9.624 64.3775 9.624C66.2495 9.624 67.7915 9.954 69.0035 10.614C70.2155 11.274 71.1155 12.108 71.7035 13.116C72.2915 14.124 72.5855 15.162 72.5855 16.23C72.5855 18.282 71.4335 19.308 69.1295 19.308C68.8535 19.308 68.5535 19.29 68.2295 19.254C67.9055 19.218 67.5815 19.182 67.2575 19.146ZM81.2863 26.526C81.0943 26.526 80.9083 26.526 80.7283 26.526C80.5483 26.514 80.3683 26.502 80.1883 26.49L79.0723 30C78.7243 30.084 78.3463 30.144 77.9383 30.18C77.5303 30.228 77.1043 30.252 76.6603 30.252C76.1803 30.252 75.6943 30.216 75.2023 30.144C74.7223 30.072 74.3263 29.97 74.0143 29.838L73.8163 29.532L80.8183 10.164C81.4423 10.068 82.0423 10.008 82.6183 9.984C83.2063 9.96 83.7403 9.948 84.2203 9.948C84.6643 9.948 85.1443 9.96 85.6603 9.984C86.1763 10.008 86.7583 10.068 87.4063 10.164L94.2103 29.73C93.7903 29.922 93.2563 30.066 92.6083 30.162C91.9603 30.27 91.4383 30.324 91.0423 30.324C90.3823 30.324 89.7463 30.198 89.1343 29.946C88.5223 29.694 88.0603 29.028 87.7483 27.948L87.2983 26.49C87.1063 26.502 86.9203 26.514 86.7403 26.526C86.5603 26.526 86.3683 26.526 86.1643 26.526H81.2863ZM82.0063 20.838L81.6103 22.08C81.7903 22.068 81.9703 22.062 82.1503 22.062C82.3303 22.05 82.5163 22.044 82.7083 22.044H84.9583C85.1383 22.044 85.3003 22.05 85.4443 22.062C85.6003 22.062 85.7563 22.068 85.9123 22.08L85.5343 20.856C85.2583 19.908 84.9823 18.852 84.7063 17.688C84.4303 16.524 84.1783 15.468 83.9503 14.52H83.7343C83.4823 15.432 83.2003 16.476 82.8883 17.652C82.5883 18.828 82.2943 19.89 82.0063 20.838ZM107.476 19.146C107.476 17.622 107.272 16.398 106.864 15.474C106.456 14.538 105.634 14.07 104.398 14.07C103.114 14.07 102.202 14.598 101.662 15.654C101.122 16.71 100.852 18.228 100.852 20.208C100.852 21.72 101.044 22.884 101.428 23.7C101.824 24.504 102.328 25.062 102.94 25.374C103.552 25.686 104.2 25.842 104.884 25.842C105.772 25.842 106.66 25.65 107.548 25.266C108.448 24.87 109.252 24.408 109.96 23.88C110.344 24.072 110.716 24.378 111.076 24.798C111.436 25.218 111.748 25.668 112.012 26.148C112.276 26.628 112.444 27.066 112.516 27.462C111.52 28.314 110.308 29.04 108.88 29.64C107.464 30.24 105.85 30.54 104.038 30.54C102.298 30.54 100.846 30.234 99.6823 29.622C98.5303 29.01 97.6123 28.206 96.9283 27.21C96.2443 26.202 95.7583 25.086 95.4703 23.862C95.1823 22.638 95.0383 21.408 95.0383 20.172C95.0383 17.712 95.4823 15.708 96.3703 14.16C97.2703 12.6 98.4463 11.454 99.8983 10.722C101.362 9.99 102.928 9.624 104.596 9.624C106.468 9.624 108.01 9.954 109.222 10.614C110.434 11.274 111.334 12.108 111.922 13.116C112.51 14.124 112.804 15.162 112.804 16.23C112.804 18.282 111.652 19.308 109.348 19.308C109.072 19.308 108.772 19.29 108.448 19.254C108.124 19.218 107.8 19.182 107.476 19.146ZM116.361 10.164C116.817 10.068 117.333 10.008 117.909 9.984C118.485 9.96 118.941 9.948 119.277 9.948C119.637 9.948 120.069 9.96 120.573 9.984C121.089 10.008 121.587 10.068 122.067 10.164V30C121.587 30.084 121.089 30.138 120.573 30.162C120.069 30.198 119.637 30.216 119.277 30.216C118.941 30.216 118.485 30.198 117.909 30.162C117.333 30.138 116.817 30.084 116.361 30V10.164ZM125.835 20.118C125.835 16.902 126.663 14.352 128.319 12.468C129.987 10.572 132.417 9.624 135.609 9.624C138.849 9.624 141.291 10.566 142.935 12.45C144.591 14.322 145.419 16.878 145.419 20.118C145.419 23.358 144.591 25.908 142.935 27.768C141.279 29.616 138.837 30.54 135.609 30.54C132.369 30.54 129.927 29.604 128.283 27.732C126.651 25.86 125.835 23.322 125.835 20.118ZM131.649 20.118C131.649 20.802 131.691 21.51 131.775 22.242C131.871 22.962 132.051 23.634 132.315 24.258C132.591 24.882 132.993 25.392 133.521 25.788C134.049 26.172 134.751 26.364 135.627 26.364C136.503 26.364 137.205 26.172 137.733 25.788C138.261 25.392 138.657 24.882 138.921 24.258C139.197 23.634 139.377 22.962 139.461 22.242C139.557 21.51 139.605 20.802 139.605 20.118C139.605 19.422 139.557 18.708 139.461 17.976C139.377 17.232 139.197 16.548 138.921 15.924C138.657 15.288 138.261 14.778 137.733 14.394C137.205 13.998 136.503 13.8 135.627 13.8C134.751 13.8 134.049 13.998 133.521 14.394C132.993 14.778 132.591 15.288 132.315 15.924C132.051 16.548 131.871 17.232 131.775 17.976C131.691 18.708 131.649 19.422 131.649 20.118ZM137.841 0.425998C138.501 0.629999 139.173 1.044 139.857 1.668C140.553 2.28 141.009 2.946 141.225 3.666L134.565 8.67C134.097 8.526 133.641 8.256 133.197 7.86C132.753 7.464 132.435 7.008 132.243 6.492L137.841 0.425998ZM156.109 20.946C156.025 20.754 155.893 20.454 155.713 20.046C155.533 19.626 155.341 19.176 155.137 18.696C154.933 18.216 154.741 17.766 154.561 17.346C154.393 16.926 154.261 16.62 154.165 16.428L154.039 16.482C154.087 17.43 154.135 18.456 154.183 19.56C154.231 20.652 154.267 21.654 154.291 22.566C154.327 23.466 154.345 24.12 154.345 24.528V30C153.877 30.084 153.427 30.138 152.995 30.162C152.563 30.198 152.161 30.216 151.789 30.216C151.453 30.216 151.033 30.198 150.529 30.162C150.037 30.138 149.569 30.084 149.125 30V10.29C149.569 10.182 150.121 10.098 150.781 10.038C151.441 9.978 151.951 9.948 152.311 9.948C152.683 9.948 153.211 9.96 153.895 9.984C154.579 9.996 155.143 10.056 155.587 10.164L159.817 19.182C159.901 19.35 160.039 19.656 160.231 20.1C160.435 20.544 160.651 21.03 160.879 21.558C161.107 22.086 161.317 22.584 161.509 23.052C161.713 23.508 161.863 23.844 161.959 24.06L162.121 24.024C162.073 23.232 162.007 22.308 161.923 21.252C161.851 20.196 161.785 19.176 161.725 18.192C161.665 17.208 161.635 16.422 161.635 15.834V13.026C161.635 11.754 161.911 10.92 162.463 10.524C163.015 10.116 163.837 9.912 164.929 9.912H166.783L166.999 10.164V29.892C166.531 30 165.967 30.078 165.307 30.126C164.647 30.186 164.143 30.216 163.795 30.216C163.555 30.216 163.225 30.21 162.805 30.198C162.385 30.186 161.953 30.168 161.509 30.144C161.077 30.12 160.717 30.072 160.429 30L156.109 20.946ZM186.2 24.852C186.008 24.852 185.78 24.846 185.516 24.834C185.264 24.822 185.018 24.816 184.778 24.816L183.248 30.036C182.888 30.12 182.498 30.174 182.078 30.198C181.67 30.234 181.244 30.252 180.8 30.252C180.368 30.252 179.876 30.216 179.324 30.144C178.784 30.084 178.352 29.988 178.028 29.856L177.812 29.55L185.768 5.412C186.224 5.34 186.77 5.286 187.406 5.25C188.054 5.214 188.618 5.196 189.098 5.196C189.554 5.196 190.106 5.22 190.754 5.268C191.402 5.304 191.96 5.364 192.428 5.448L200.168 29.622C199.772 29.85 199.256 30.024 198.62 30.144C197.996 30.264 197.414 30.324 196.874 30.324C195.962 30.324 195.248 30.114 194.732 29.694C194.216 29.262 193.784 28.428 193.436 27.192L192.752 24.816C192.524 24.816 192.278 24.822 192.014 24.834C191.75 24.846 191.522 24.852 191.33 24.852H186.2ZM186.92 17.526L186.11 20.316C186.338 20.316 186.584 20.316 186.848 20.316C187.112 20.304 187.346 20.298 187.55 20.298H190.178C190.358 20.298 190.562 20.304 190.79 20.316C191.03 20.316 191.264 20.316 191.492 20.316L190.862 18.066C190.586 17.058 190.262 15.87 189.89 14.502C189.518 13.134 189.182 11.856 188.882 10.668H188.666C188.546 11.34 188.384 12.084 188.18 12.9C187.976 13.716 187.76 14.532 187.532 15.348C187.316 16.152 187.112 16.878 186.92 17.526ZM214.035 19.146C214.035 17.622 213.831 16.398 213.423 15.474C213.015 14.538 212.193 14.07 210.957 14.07C209.673 14.07 208.761 14.598 208.221 15.654C207.681 16.71 207.411 18.228 207.411 20.208C207.411 21.72 207.603 22.884 207.987 23.7C208.383 24.504 208.887 25.062 209.499 25.374C210.111 25.686 210.759 25.842 211.443 25.842C212.331 25.842 213.219 25.65 214.107 25.266C215.007 24.87 215.811 24.408 216.519 23.88C216.903 24.072 217.275 24.378 217.635 24.798C217.995 25.218 218.307 25.668 218.571 26.148C218.835 26.628 219.003 27.066 219.075 27.462C218.079 28.314 216.867 29.04 215.439 29.64C214.023 30.24 212.409 30.54 210.597 30.54C208.857 30.54 207.405 30.234 206.241 29.622C205.089 29.01 204.171 28.206 203.487 27.21C202.803 26.202 202.317 25.086 202.029 23.862C201.741 22.638 201.597 21.408 201.597 20.172C201.597 17.712 202.041 15.708 202.929 14.16C203.829 12.6 205.005 11.454 206.457 10.722C207.921 9.99 209.487 9.624 211.155 9.624C213.027 9.624 214.569 9.954 215.781 10.614C216.993 11.274 217.893 12.108 218.481 13.116C219.069 14.124 219.363 15.162 219.363 16.23C219.363 18.282 218.211 19.308 215.907 19.308C215.631 19.308 215.331 19.29 215.007 19.254C214.683 19.218 214.359 19.182 214.035 19.146ZM226.329 16.914C226.329 16.53 226.335 16.176 226.347 15.852C226.359 15.516 226.365 15.144 226.365 14.736C226.113 14.736 225.765 14.742 225.321 14.754C224.889 14.766 224.547 14.772 224.295 14.772H220.965C220.869 14.34 220.809 13.938 220.785 13.566C220.761 13.182 220.749 12.834 220.749 12.522C220.749 12.21 220.761 11.844 220.785 11.424C220.809 10.992 220.869 10.572 220.965 10.164H237.255C237.339 10.488 237.399 10.854 237.435 11.262C237.483 11.67 237.507 12 237.507 12.252C237.507 13.068 237.291 13.692 236.859 14.124C236.427 14.556 235.707 14.772 234.699 14.772H233.961C233.709 14.772 233.373 14.766 232.953 14.754C232.545 14.742 232.227 14.736 231.999 14.736C231.999 15.144 232.005 15.516 232.017 15.852C232.029 16.176 232.035 16.53 232.035 16.914V30C231.699 30.072 231.237 30.126 230.649 30.162C230.061 30.198 229.569 30.216 229.173 30.216C228.801 30.216 228.333 30.198 227.769 30.162C227.205 30.126 226.725 30.072 226.329 30V16.914ZM257.178 22.566C257.178 25.05 256.434 27 254.946 28.416C253.47 29.832 251.28 30.54 248.376 30.54C245.472 30.54 243.276 29.832 241.788 28.416C240.312 27 239.574 25.05 239.574 22.566V10.164L239.79 9.948H241.842C242.934 9.948 243.774 10.224 244.362 10.776C244.962 11.328 245.262 12.258 245.262 13.566V22.548C245.262 23.64 245.49 24.498 245.946 25.122C246.402 25.746 247.212 26.058 248.376 26.058C249.552 26.058 250.362 25.746 250.806 25.122C251.25 24.498 251.472 23.64 251.472 22.548V10.164C251.952 10.068 252.444 10.008 252.948 9.984C253.452 9.96 253.89 9.948 254.262 9.948C254.598 9.948 255.054 9.966 255.63 10.002C256.206 10.026 256.722 10.086 257.178 10.182V22.566ZM266.454 26.526C266.262 26.526 266.076 26.526 265.896 26.526C265.716 26.514 265.536 26.502 265.356 26.49L264.24 30C263.892 30.084 263.514 30.144 263.106 30.18C262.698 30.228 262.272 30.252 261.828 30.252C261.348 30.252 260.862 30.216 260.37 30.144C259.89 30.072 259.494 29.97 259.182 29.838L258.984 29.532L265.986 10.164C266.61 10.068 267.21 10.008 267.786 9.984C268.374 9.96 268.908 9.948 269.388 9.948C269.832 9.948 270.312 9.96 270.828 9.984C271.344 10.008 271.926 10.068 272.574 10.164L279.378 29.73C278.958 29.922 278.424 30.066 277.776 30.162C277.128 30.27 276.606 30.324 276.21 30.324C275.55 30.324 274.914 30.198 274.302 29.946C273.69 29.694 273.228 29.028 272.916 27.948L272.466 26.49C272.274 26.502 272.088 26.514 271.908 26.526C271.728 26.526 271.536 26.526 271.332 26.526H266.454ZM267.174 20.838L266.778 22.08C266.958 22.068 267.138 22.062 267.318 22.062C267.498 22.05 267.684 22.044 267.876 22.044H270.126C270.306 22.044 270.468 22.05 270.612 22.062C270.768 22.062 270.924 22.068 271.08 22.08L270.702 20.856C270.426 19.908 270.15 18.852 269.874 17.688C269.598 16.524 269.346 15.468 269.118 14.52H268.902C268.65 15.432 268.368 16.476 268.056 17.652C267.756 18.828 267.462 19.89 267.174 20.838ZM296.125 25.392C296.053 27.144 295.747 28.368 295.207 29.064C294.667 29.76 293.707 30.108 292.327 30.108H285.343C284.311 30.108 283.501 29.82 282.913 29.244C282.337 28.656 282.049 27.87 282.049 26.886V10.2L282.265 9.984H284.425C285.517 9.984 286.345 10.26 286.909 10.812C287.473 11.352 287.755 12.258 287.755 13.53V25.572C288.991 25.452 290.101 25.392 291.085 25.392H296.125Z" fill="#364760"/>
</svg>
