<svg width="135" height="26" viewBox="0 0 135 26" fill="none" xmlns="http://www.w3.org/2000/svg">
<path d="M19.8754 15.928C19.8754 18.976 19.0294 21.34 17.3374 23.02C15.6574 24.7 13.2574 25.54 10.1374 25.54C7.02944 25.54 4.62944 24.7 2.93744 23.02C1.24544 21.34 0.399437 18.976 0.399437 15.928V0.411999L0.651438 0.177999H2.75744C3.86144 0.177999 4.70744 0.465999 5.29544 1.042C5.88344 1.606 6.17744 2.53 6.17744 3.814V15.982C6.17744 17.626 6.47744 18.868 7.07744 19.708C7.67744 20.536 8.69744 20.95 10.1374 20.95C11.5894 20.95 12.6154 20.536 13.2154 19.708C13.8154 18.868 14.1154 17.626 14.1154 15.982V0.411999C14.5834 0.327999 15.0694 0.273999 15.5734 0.249998C16.0894 0.213999 16.5394 0.196 16.9234 0.196C17.2714 0.196 17.7334 0.213999 18.3094 0.249998C18.8974 0.273999 19.4194 0.327999 19.8754 0.411999V15.928ZM22.9121 23.506C22.9121 23.05 23.0021 22.546 23.1821 21.994C23.3621 21.43 23.6081 20.908 23.9201 20.428C24.2321 19.948 24.5741 19.588 24.9461 19.348C25.8341 19.828 26.8241 20.242 27.9161 20.59C29.0081 20.926 30.0761 21.094 31.1201 21.094C31.7921 21.094 32.3441 20.956 32.7761 20.68C33.2201 20.404 33.4421 20.014 33.4421 19.51C33.4421 19.186 33.3161 18.892 33.0641 18.628C32.8121 18.352 32.3741 18.1 31.7501 17.872L28.7621 16.702C27.8381 16.366 26.9741 15.946 26.1701 15.442C25.3661 14.938 24.7181 14.32 24.2261 13.588C23.7341 12.856 23.4881 11.98 23.4881 10.96C23.4881 9.088 24.2081 7.564 25.6481 6.388C27.0881 5.212 29.0261 4.624 31.4621 4.624C32.8421 4.624 34.2101 4.786 35.5661 5.11C36.9341 5.422 38.0801 5.782 39.0041 6.19C39.0041 7.006 38.8361 7.81 38.5001 8.602C38.1641 9.394 37.7021 10.018 37.1141 10.474C36.2261 10.078 35.2601 9.748 34.2161 9.484C33.1721 9.208 32.2301 9.07 31.3901 9.07C30.7661 9.07 30.2861 9.202 29.9501 9.466C29.6261 9.73 29.4641 10.048 29.4641 10.42C29.4641 10.768 29.6261 11.032 29.9501 11.212C30.2741 11.392 30.6761 11.572 31.1561 11.752L34.1261 12.886C35.7821 13.486 37.0961 14.314 38.0681 15.37C39.0521 16.414 39.5441 17.704 39.5441 19.24C39.5441 20.596 39.1781 21.742 38.4461 22.678C37.7261 23.614 36.7361 24.322 35.4761 24.802C34.2281 25.282 32.8181 25.528 31.2461 25.54C29.3741 25.54 27.7061 25.324 26.2421 24.892C24.7901 24.46 23.6801 23.998 22.9121 23.506ZM60.293 17.566C60.293 20.05 59.549 22 58.061 23.416C56.585 24.832 54.395 25.54 51.491 25.54C48.587 25.54 46.391 24.832 44.903 23.416C43.427 22 42.689 20.05 42.689 17.566V5.164L42.905 4.948H44.957C46.049 4.948 46.889 5.224 47.477 5.776C48.077 6.328 48.377 7.258 48.377 8.566V17.548C48.377 18.64 48.605 19.498 49.061 20.122C49.517 20.746 50.327 21.058 51.491 21.058C52.667 21.058 53.477 20.746 53.921 20.122C54.365 19.498 54.587 18.64 54.587 17.548V5.164C55.067 5.068 55.559 5.008 56.063 4.984C56.567 4.96 57.005 4.948 57.377 4.948C57.713 4.948 58.169 4.966 58.745 5.002C59.321 5.026 59.837 5.086 60.293 5.182V17.566ZM69.5695 21.526C69.3775 21.526 69.1915 21.526 69.0115 21.526C68.8315 21.514 68.6515 21.502 68.4715 21.49L67.3555 25C67.0075 25.084 66.6295 25.144 66.2215 25.18C65.8135 25.228 65.3875 25.252 64.9435 25.252C64.4635 25.252 63.9775 25.216 63.4855 25.144C63.0055 25.072 62.6095 24.97 62.2975 24.838L62.0995 24.532L69.1015 5.164C69.7255 5.068 70.3255 5.008 70.9015 4.984C71.4895 4.96 72.0235 4.948 72.5035 4.948C72.9475 4.948 73.4275 4.96 73.9435 4.984C74.4595 5.008 75.0415 5.068 75.6895 5.164L82.4935 24.73C82.0735 24.922 81.5395 25.066 80.8915 25.162C80.2435 25.27 79.7215 25.324 79.3255 25.324C78.6655 25.324 78.0295 25.198 77.4175 24.946C76.8055 24.694 76.3435 24.028 76.0315 22.948L75.5815 21.49C75.3895 21.502 75.2035 21.514 75.0235 21.526C74.8435 21.526 74.6515 21.526 74.4475 21.526H69.5695ZM70.2895 15.838L69.8935 17.08C70.0735 17.068 70.2535 17.062 70.4335 17.062C70.6135 17.05 70.7995 17.044 70.9915 17.044H73.2415C73.4215 17.044 73.5835 17.05 73.7275 17.062C73.8835 17.062 74.0395 17.068 74.1955 17.08L73.8175 15.856C73.5415 14.908 73.2655 13.852 72.9895 12.688C72.7135 11.524 72.4615 10.468 72.2335 9.52H72.0175C71.7655 10.432 71.4835 11.476 71.1715 12.652C70.8715 13.828 70.5775 14.89 70.2895 15.838ZM101.401 11.194C101.401 12.118 101.191 12.94 100.771 13.66C100.351 14.38 99.8225 14.974 99.1865 15.442C98.5625 15.91 97.9385 16.21 97.3145 16.342C97.9625 16.558 98.4965 16.888 98.9165 17.332C99.3485 17.776 99.7205 18.346 100.033 19.042L100.969 21.184C101.185 21.676 101.431 22.132 101.707 22.552C101.983 22.96 102.289 23.308 102.625 23.596C102.277 24.028 101.755 24.43 101.059 24.802C100.363 25.162 99.6065 25.342 98.7905 25.342C97.9865 25.342 97.3325 25.15 96.8285 24.766C96.3365 24.37 95.9045 23.74 95.5325 22.876L93.9485 19.24C93.6965 18.652 93.3845 18.298 93.0125 18.178C92.6405 18.058 92.1605 17.998 91.5725 17.998H90.8705V25C90.3905 25.084 89.8925 25.138 89.3765 25.162C88.8725 25.198 88.4405 25.216 88.0805 25.216C87.7445 25.216 87.3005 25.198 86.7485 25.162C86.1965 25.138 85.6925 25.084 85.2365 25V5.344L85.4345 5.128C86.8865 5.092 88.2485 5.062 89.5205 5.038C90.8045 5.002 92.0825 4.984 93.3545 4.984C94.7945 4.984 96.1265 5.176 97.3505 5.56C98.5745 5.932 99.5525 6.574 100.285 7.486C101.029 8.386 101.401 9.622 101.401 11.194ZM90.8705 9.052V13.714C91.2905 13.702 91.6745 13.696 92.0225 13.696C92.3825 13.684 92.6465 13.678 92.8145 13.678C93.8945 13.678 94.6265 13.444 95.0105 12.976C95.3945 12.508 95.5865 11.962 95.5865 11.338C95.5865 10.726 95.3945 10.198 95.0105 9.754C94.6265 9.31 93.9845 9.088 93.0845 9.088C92.6525 9.088 92.2805 9.082 91.9685 9.07C91.6565 9.058 91.2905 9.052 90.8705 9.052ZM105.805 5.164C106.261 5.068 106.777 5.008 107.353 4.984C107.929 4.96 108.385 4.948 108.721 4.948C109.081 4.948 109.513 4.96 110.017 4.984C110.533 5.008 111.031 5.068 111.511 5.164V25C111.031 25.084 110.533 25.138 110.017 25.162C109.513 25.198 109.081 25.216 108.721 25.216C108.385 25.216 107.929 25.198 107.353 25.162C106.777 25.138 106.261 25.084 105.805 25V5.164ZM115.279 15.118C115.279 11.902 116.107 9.352 117.763 7.468C119.431 5.572 121.861 4.624 125.053 4.624C128.293 4.624 130.735 5.566 132.379 7.45C134.035 9.322 134.863 11.878 134.863 15.118C134.863 18.358 134.035 20.908 132.379 22.768C130.723 24.616 128.281 25.54 125.053 25.54C121.813 25.54 119.371 24.604 117.727 22.732C116.095 20.86 115.279 18.322 115.279 15.118ZM121.093 15.118C121.093 15.802 121.135 16.51 121.219 17.242C121.315 17.962 121.495 18.634 121.759 19.258C122.035 19.882 122.437 20.392 122.965 20.788C123.493 21.172 124.195 21.364 125.071 21.364C125.947 21.364 126.649 21.172 127.177 20.788C127.705 20.392 128.101 19.882 128.365 19.258C128.641 18.634 128.821 17.962 128.905 17.242C129.001 16.51 129.049 15.802 129.049 15.118C129.049 14.422 129.001 13.708 128.905 12.976C128.821 12.232 128.641 11.548 128.365 10.924C128.101 10.288 127.705 9.778 127.177 9.394C126.649 8.998 125.947 8.8 125.071 8.8C124.195 8.8 123.493 8.998 122.965 9.394C122.437 9.778 122.035 10.288 121.759 10.924C121.495 11.548 121.315 12.232 121.219 12.976C121.135 13.708 121.093 14.422 121.093 15.118Z" fill="#364760"/>
<path d="M19.8754 15.928C19.8754 18.976 19.0294 21.34 17.3374 23.02C15.6574 24.7 13.2574 25.54 10.1374 25.54C7.02944 25.54 4.62944 24.7 2.93744 23.02C1.24544 21.34 0.399437 18.976 0.399437 15.928V0.411999L0.651438 0.177999H2.75744C3.86144 0.177999 4.70744 0.465999 5.29544 1.042C5.88344 1.606 6.17744 2.53 6.17744 3.814V15.982C6.17744 17.626 6.47744 18.868 7.07744 19.708C7.67744 20.536 8.69744 20.95 10.1374 20.95C11.5894 20.95 12.6154 20.536 13.2154 19.708C13.8154 18.868 14.1154 17.626 14.1154 15.982V0.411999C14.5834 0.327999 15.0694 0.273999 15.5734 0.249998C16.0894 0.213999 16.5394 0.196 16.9234 0.196C17.2714 0.196 17.7334 0.213999 18.3094 0.249998C18.8974 0.273999 19.4194 0.327999 19.8754 0.411999V15.928ZM22.9121 23.506C22.9121 23.05 23.0021 22.546 23.1821 21.994C23.3621 21.43 23.6081 20.908 23.9201 20.428C24.2321 19.948 24.5741 19.588 24.9461 19.348C25.8341 19.828 26.8241 20.242 27.9161 20.59C29.0081 20.926 30.0761 21.094 31.1201 21.094C31.7921 21.094 32.3441 20.956 32.7761 20.68C33.2201 20.404 33.4421 20.014 33.4421 19.51C33.4421 19.186 33.3161 18.892 33.0641 18.628C32.8121 18.352 32.3741 18.1 31.7501 17.872L28.7621 16.702C27.8381 16.366 26.9741 15.946 26.1701 15.442C25.3661 14.938 24.7181 14.32 24.2261 13.588C23.7341 12.856 23.4881 11.98 23.4881 10.96C23.4881 9.088 24.2081 7.564 25.6481 6.388C27.0881 5.212 29.0261 4.624 31.4621 4.624C32.8421 4.624 34.2101 4.786 35.5661 5.11C36.9341 5.422 38.0801 5.782 39.0041 6.19C39.0041 7.006 38.8361 7.81 38.5001 8.602C38.1641 9.394 37.7021 10.018 37.1141 10.474C36.2261 10.078 35.2601 9.748 34.2161 9.484C33.1721 9.208 32.2301 9.07 31.3901 9.07C30.7661 9.07 30.2861 9.202 29.9501 9.466C29.6261 9.73 29.4641 10.048 29.4641 10.42C29.4641 10.768 29.6261 11.032 29.9501 11.212C30.2741 11.392 30.6761 11.572 31.1561 11.752L34.1261 12.886C35.7821 13.486 37.0961 14.314 38.0681 15.37C39.0521 16.414 39.5441 17.704 39.5441 19.24C39.5441 20.596 39.1781 21.742 38.4461 22.678C37.7261 23.614 36.7361 24.322 35.4761 24.802C34.2281 25.282 32.8181 25.528 31.2461 25.54C29.3741 25.54 27.7061 25.324 26.2421 24.892C24.7901 24.46 23.6801 23.998 22.9121 23.506ZM60.293 17.566C60.293 20.05 59.549 22 58.061 23.416C56.585 24.832 54.395 25.54 51.491 25.54C48.587 25.54 46.391 24.832 44.903 23.416C43.427 22 42.689 20.05 42.689 17.566V5.164L42.905 4.948H44.957C46.049 4.948 46.889 5.224 47.477 5.776C48.077 6.328 48.377 7.258 48.377 8.566V17.548C48.377 18.64 48.605 19.498 49.061 20.122C49.517 20.746 50.327 21.058 51.491 21.058C52.667 21.058 53.477 20.746 53.921 20.122C54.365 19.498 54.587 18.64 54.587 17.548V5.164C55.067 5.068 55.559 5.008 56.063 4.984C56.567 4.96 57.005 4.948 57.377 4.948C57.713 4.948 58.169 4.966 58.745 5.002C59.321 5.026 59.837 5.086 60.293 5.182V17.566ZM69.5695 21.526C69.3775 21.526 69.1915 21.526 69.0115 21.526C68.8315 21.514 68.6515 21.502 68.4715 21.49L67.3555 25C67.0075 25.084 66.6295 25.144 66.2215 25.18C65.8135 25.228 65.3875 25.252 64.9435 25.252C64.4635 25.252 63.9775 25.216 63.4855 25.144C63.0055 25.072 62.6095 24.97 62.2975 24.838L62.0995 24.532L69.1015 5.164C69.7255 5.068 70.3255 5.008 70.9015 4.984C71.4895 4.96 72.0235 4.948 72.5035 4.948C72.9475 4.948 73.4275 4.96 73.9435 4.984C74.4595 5.008 75.0415 5.068 75.6895 5.164L82.4935 24.73C82.0735 24.922 81.5395 25.066 80.8915 25.162C80.2435 25.27 79.7215 25.324 79.3255 25.324C78.6655 25.324 78.0295 25.198 77.4175 24.946C76.8055 24.694 76.3435 24.028 76.0315 22.948L75.5815 21.49C75.3895 21.502 75.2035 21.514 75.0235 21.526C74.8435 21.526 74.6515 21.526 74.4475 21.526H69.5695ZM70.2895 15.838L69.8935 17.08C70.0735 17.068 70.2535 17.062 70.4335 17.062C70.6135 17.05 70.7995 17.044 70.9915 17.044H73.2415C73.4215 17.044 73.5835 17.05 73.7275 17.062C73.8835 17.062 74.0395 17.068 74.1955 17.08L73.8175 15.856C73.5415 14.908 73.2655 13.852 72.9895 12.688C72.7135 11.524 72.4615 10.468 72.2335 9.52H72.0175C71.7655 10.432 71.4835 11.476 71.1715 12.652C70.8715 13.828 70.5775 14.89 70.2895 15.838ZM101.401 11.194C101.401 12.118 101.191 12.94 100.771 13.66C100.351 14.38 99.8225 14.974 99.1865 15.442C98.5625 15.91 97.9385 16.21 97.3145 16.342C97.9625 16.558 98.4965 16.888 98.9165 17.332C99.3485 17.776 99.7205 18.346 100.033 19.042L100.969 21.184C101.185 21.676 101.431 22.132 101.707 22.552C101.983 22.96 102.289 23.308 102.625 23.596C102.277 24.028 101.755 24.43 101.059 24.802C100.363 25.162 99.6065 25.342 98.7905 25.342C97.9865 25.342 97.3325 25.15 96.8285 24.766C96.3365 24.37 95.9045 23.74 95.5325 22.876L93.9485 19.24C93.6965 18.652 93.3845 18.298 93.0125 18.178C92.6405 18.058 92.1605 17.998 91.5725 17.998H90.8705V25C90.3905 25.084 89.8925 25.138 89.3765 25.162C88.8725 25.198 88.4405 25.216 88.0805 25.216C87.7445 25.216 87.3005 25.198 86.7485 25.162C86.1965 25.138 85.6925 25.084 85.2365 25V5.344L85.4345 5.128C86.8865 5.092 88.2485 5.062 89.5205 5.038C90.8045 5.002 92.0825 4.984 93.3545 4.984C94.7945 4.984 96.1265 5.176 97.3505 5.56C98.5745 5.932 99.5525 6.574 100.285 7.486C101.029 8.386 101.401 9.622 101.401 11.194ZM90.8705 9.052V13.714C91.2905 13.702 91.6745 13.696 92.0225 13.696C92.3825 13.684 92.6465 13.678 92.8145 13.678C93.8945 13.678 94.6265 13.444 95.0105 12.976C95.3945 12.508 95.5865 11.962 95.5865 11.338C95.5865 10.726 95.3945 10.198 95.0105 9.754C94.6265 9.31 93.9845 9.088 93.0845 9.088C92.6525 9.088 92.2805 9.082 91.9685 9.07C91.6565 9.058 91.2905 9.052 90.8705 9.052ZM105.805 5.164C106.261 5.068 106.777 5.008 107.353 4.984C107.929 4.96 108.385 4.948 108.721 4.948C109.081 4.948 109.513 4.96 110.017 4.984C110.533 5.008 111.031 5.068 111.511 5.164V25C111.031 25.084 110.533 25.138 110.017 25.162C109.513 25.198 109.081 25.216 108.721 25.216C108.385 25.216 107.929 25.198 107.353 25.162C106.777 25.138 106.261 25.084 105.805 25V5.164ZM115.279 15.118C115.279 11.902 116.107 9.352 117.763 7.468C119.431 5.572 121.861 4.624 125.053 4.624C128.293 4.624 130.735 5.566 132.379 7.45C134.035 9.322 134.863 11.878 134.863 15.118C134.863 18.358 134.035 20.908 132.379 22.768C130.723 24.616 128.281 25.54 125.053 25.54C121.813 25.54 119.371 24.604 117.727 22.732C116.095 20.86 115.279 18.322 115.279 15.118ZM121.093 15.118C121.093 15.802 121.135 16.51 121.219 17.242C121.315 17.962 121.495 18.634 121.759 19.258C122.035 19.882 122.437 20.392 122.965 20.788C123.493 21.172 124.195 21.364 125.071 21.364C125.947 21.364 126.649 21.172 127.177 20.788C127.705 20.392 128.101 19.882 128.365 19.258C128.641 18.634 128.821 17.962 128.905 17.242C129.001 16.51 129.049 15.802 129.049 15.118C129.049 14.422 129.001 13.708 128.905 12.976C128.821 12.232 128.641 11.548 128.365 10.924C128.101 10.288 127.705 9.778 127.177 9.394C126.649 8.998 125.947 8.8 125.071 8.8C124.195 8.8 123.493 8.998 122.965 9.394C122.437 9.778 122.035 10.288 121.759 10.924C121.495 11.548 121.315 12.232 121.219 12.976C121.135 13.708 121.093 14.422 121.093 15.118Z" fill="url(#paint0_linear)"/>
<path d="M19.8754 15.928C19.8754 18.976 19.0294 21.34 17.3374 23.02C15.6574 24.7 13.2574 25.54 10.1374 25.54C7.02944 25.54 4.62944 24.7 2.93744 23.02C1.24544 21.34 0.399437 18.976 0.399437 15.928V0.411999L0.651438 0.177999H2.75744C3.86144 0.177999 4.70744 0.465999 5.29544 1.042C5.88344 1.606 6.17744 2.53 6.17744 3.814V15.982C6.17744 17.626 6.47744 18.868 7.07744 19.708C7.67744 20.536 8.69744 20.95 10.1374 20.95C11.5894 20.95 12.6154 20.536 13.2154 19.708C13.8154 18.868 14.1154 17.626 14.1154 15.982V0.411999C14.5834 0.327999 15.0694 0.273999 15.5734 0.249998C16.0894 0.213999 16.5394 0.196 16.9234 0.196C17.2714 0.196 17.7334 0.213999 18.3094 0.249998C18.8974 0.273999 19.4194 0.327999 19.8754 0.411999V15.928ZM22.9121 23.506C22.9121 23.05 23.0021 22.546 23.1821 21.994C23.3621 21.43 23.6081 20.908 23.9201 20.428C24.2321 19.948 24.5741 19.588 24.9461 19.348C25.8341 19.828 26.8241 20.242 27.9161 20.59C29.0081 20.926 30.0761 21.094 31.1201 21.094C31.7921 21.094 32.3441 20.956 32.7761 20.68C33.2201 20.404 33.4421 20.014 33.4421 19.51C33.4421 19.186 33.3161 18.892 33.0641 18.628C32.8121 18.352 32.3741 18.1 31.7501 17.872L28.7621 16.702C27.8381 16.366 26.9741 15.946 26.1701 15.442C25.3661 14.938 24.7181 14.32 24.2261 13.588C23.7341 12.856 23.4881 11.98 23.4881 10.96C23.4881 9.088 24.2081 7.564 25.6481 6.388C27.0881 5.212 29.0261 4.624 31.4621 4.624C32.8421 4.624 34.2101 4.786 35.5661 5.11C36.9341 5.422 38.0801 5.782 39.0041 6.19C39.0041 7.006 38.8361 7.81 38.5001 8.602C38.1641 9.394 37.7021 10.018 37.1141 10.474C36.2261 10.078 35.2601 9.748 34.2161 9.484C33.1721 9.208 32.2301 9.07 31.3901 9.07C30.7661 9.07 30.2861 9.202 29.9501 9.466C29.6261 9.73 29.4641 10.048 29.4641 10.42C29.4641 10.768 29.6261 11.032 29.9501 11.212C30.2741 11.392 30.6761 11.572 31.1561 11.752L34.1261 12.886C35.7821 13.486 37.0961 14.314 38.0681 15.37C39.0521 16.414 39.5441 17.704 39.5441 19.24C39.5441 20.596 39.1781 21.742 38.4461 22.678C37.7261 23.614 36.7361 24.322 35.4761 24.802C34.2281 25.282 32.8181 25.528 31.2461 25.54C29.3741 25.54 27.7061 25.324 26.2421 24.892C24.7901 24.46 23.6801 23.998 22.9121 23.506ZM60.293 17.566C60.293 20.05 59.549 22 58.061 23.416C56.585 24.832 54.395 25.54 51.491 25.54C48.587 25.54 46.391 24.832 44.903 23.416C43.427 22 42.689 20.05 42.689 17.566V5.164L42.905 4.948H44.957C46.049 4.948 46.889 5.224 47.477 5.776C48.077 6.328 48.377 7.258 48.377 8.566V17.548C48.377 18.64 48.605 19.498 49.061 20.122C49.517 20.746 50.327 21.058 51.491 21.058C52.667 21.058 53.477 20.746 53.921 20.122C54.365 19.498 54.587 18.64 54.587 17.548V5.164C55.067 5.068 55.559 5.008 56.063 4.984C56.567 4.96 57.005 4.948 57.377 4.948C57.713 4.948 58.169 4.966 58.745 5.002C59.321 5.026 59.837 5.086 60.293 5.182V17.566ZM69.5695 21.526C69.3775 21.526 69.1915 21.526 69.0115 21.526C68.8315 21.514 68.6515 21.502 68.4715 21.49L67.3555 25C67.0075 25.084 66.6295 25.144 66.2215 25.18C65.8135 25.228 65.3875 25.252 64.9435 25.252C64.4635 25.252 63.9775 25.216 63.4855 25.144C63.0055 25.072 62.6095 24.97 62.2975 24.838L62.0995 24.532L69.1015 5.164C69.7255 5.068 70.3255 5.008 70.9015 4.984C71.4895 4.96 72.0235 4.948 72.5035 4.948C72.9475 4.948 73.4275 4.96 73.9435 4.984C74.4595 5.008 75.0415 5.068 75.6895 5.164L82.4935 24.73C82.0735 24.922 81.5395 25.066 80.8915 25.162C80.2435 25.27 79.7215 25.324 79.3255 25.324C78.6655 25.324 78.0295 25.198 77.4175 24.946C76.8055 24.694 76.3435 24.028 76.0315 22.948L75.5815 21.49C75.3895 21.502 75.2035 21.514 75.0235 21.526C74.8435 21.526 74.6515 21.526 74.4475 21.526H69.5695ZM70.2895 15.838L69.8935 17.08C70.0735 17.068 70.2535 17.062 70.4335 17.062C70.6135 17.05 70.7995 17.044 70.9915 17.044H73.2415C73.4215 17.044 73.5835 17.05 73.7275 17.062C73.8835 17.062 74.0395 17.068 74.1955 17.08L73.8175 15.856C73.5415 14.908 73.2655 13.852 72.9895 12.688C72.7135 11.524 72.4615 10.468 72.2335 9.52H72.0175C71.7655 10.432 71.4835 11.476 71.1715 12.652C70.8715 13.828 70.5775 14.89 70.2895 15.838ZM101.401 11.194C101.401 12.118 101.191 12.94 100.771 13.66C100.351 14.38 99.8225 14.974 99.1865 15.442C98.5625 15.91 97.9385 16.21 97.3145 16.342C97.9625 16.558 98.4965 16.888 98.9165 17.332C99.3485 17.776 99.7205 18.346 100.033 19.042L100.969 21.184C101.185 21.676 101.431 22.132 101.707 22.552C101.983 22.96 102.289 23.308 102.625 23.596C102.277 24.028 101.755 24.43 101.059 24.802C100.363 25.162 99.6065 25.342 98.7905 25.342C97.9865 25.342 97.3325 25.15 96.8285 24.766C96.3365 24.37 95.9045 23.74 95.5325 22.876L93.9485 19.24C93.6965 18.652 93.3845 18.298 93.0125 18.178C92.6405 18.058 92.1605 17.998 91.5725 17.998H90.8705V25C90.3905 25.084 89.8925 25.138 89.3765 25.162C88.8725 25.198 88.4405 25.216 88.0805 25.216C87.7445 25.216 87.3005 25.198 86.7485 25.162C86.1965 25.138 85.6925 25.084 85.2365 25V5.344L85.4345 5.128C86.8865 5.092 88.2485 5.062 89.5205 5.038C90.8045 5.002 92.0825 4.984 93.3545 4.984C94.7945 4.984 96.1265 5.176 97.3505 5.56C98.5745 5.932 99.5525 6.574 100.285 7.486C101.029 8.386 101.401 9.622 101.401 11.194ZM90.8705 9.052V13.714C91.2905 13.702 91.6745 13.696 92.0225 13.696C92.3825 13.684 92.6465 13.678 92.8145 13.678C93.8945 13.678 94.6265 13.444 95.0105 12.976C95.3945 12.508 95.5865 11.962 95.5865 11.338C95.5865 10.726 95.3945 10.198 95.0105 9.754C94.6265 9.31 93.9845 9.088 93.0845 9.088C92.6525 9.088 92.2805 9.082 91.9685 9.07C91.6565 9.058 91.2905 9.052 90.8705 9.052ZM105.805 5.164C106.261 5.068 106.777 5.008 107.353 4.984C107.929 4.96 108.385 4.948 108.721 4.948C109.081 4.948 109.513 4.96 110.017 4.984C110.533 5.008 111.031 5.068 111.511 5.164V25C111.031 25.084 110.533 25.138 110.017 25.162C109.513 25.198 109.081 25.216 108.721 25.216C108.385 25.216 107.929 25.198 107.353 25.162C106.777 25.138 106.261 25.084 105.805 25V5.164ZM115.279 15.118C115.279 11.902 116.107 9.352 117.763 7.468C119.431 5.572 121.861 4.624 125.053 4.624C128.293 4.624 130.735 5.566 132.379 7.45C134.035 9.322 134.863 11.878 134.863 15.118C134.863 18.358 134.035 20.908 132.379 22.768C130.723 24.616 128.281 25.54 125.053 25.54C121.813 25.54 119.371 24.604 117.727 22.732C116.095 20.86 115.279 18.322 115.279 15.118ZM121.093 15.118C121.093 15.802 121.135 16.51 121.219 17.242C121.315 17.962 121.495 18.634 121.759 19.258C122.035 19.882 122.437 20.392 122.965 20.788C123.493 21.172 124.195 21.364 125.071 21.364C125.947 21.364 126.649 21.172 127.177 20.788C127.705 20.392 128.101 19.882 128.365 19.258C128.641 18.634 128.821 17.962 128.905 17.242C129.001 16.51 129.049 15.802 129.049 15.118C129.049 14.422 129.001 13.708 128.905 12.976C128.821 12.232 128.641 11.548 128.365 10.924C128.101 10.288 127.705 9.778 127.177 9.394C126.649 8.998 125.947 8.8 125.071 8.8C124.195 8.8 123.493 8.998 122.965 9.394C122.437 9.778 122.035 10.288 121.759 10.924C121.495 11.548 121.315 12.232 121.219 12.976C121.135 13.708 121.093 14.422 121.093 15.118Z" fill="url(#paint1_linear)"/>
<defs>
<linearGradient id="paint0_linear" x1="67" y1="-9" x2="67" y2="35" gradientUnits="userSpaceOnUse">
<stop stop-color="white"/>
<stop offset="1" stop-color="white" stop-opacity="0"/>
</linearGradient>
<linearGradient id="paint1_linear" x1="67" y1="-9" x2="67" y2="35" gradientUnits="userSpaceOnUse">
<stop stop-color="white"/>
<stop offset="1" stop-color="white" stop-opacity="0"/>
</linearGradient>
</defs>
</svg>
