<svg width="92" height="125" viewBox="0 0 92 125" fill="none" xmlns="http://www.w3.org/2000/svg">
<path d="M33.5369 8.93663L34.9131 49.2811L12.223 70.4605C12.223 70.4605 5.79743 69.7893 3.35432 72.1894C0.7299 74.7676 0.177615 78.3204 2.31771 81.2663C4.55443 84.3451 8.74408 85.2246 12.223 83.4274C15.0437 81.9702 16.3201 79.636 16.1391 76.6198C16.0455 75.0609 14.757 72.8377 14.757 72.8377L38.9444 51.3342C39.9579 51.3342 41.4399 73.8103 42.0542 85.0483L31.9185 96.0702C29.997 94.6727 22.0132 97.691 25.0078 102.77C28.0024 107.848 32.751 104.931 33.7613 103.958C34.7716 102.986 35.7193 101.689 35.1435 99.7441C34.5676 97.7991 34.4524 97.7991 34.4524 97.7991L41.3631 90.235L42.0542 104.391C42.0542 104.391 36.3529 107.401 35.1435 110.766C33.8912 114.25 34.3769 117.137 36.756 120.059C39.1763 123.032 42.1137 124.276 46.0854 123.949C49.4148 123.675 51.5596 122.562 53.572 120.059C56.5511 116.353 56.3829 111.993 53.572 108.173C52.1353 106.22 48.5042 104.391 48.5042 104.391L47.3524 75.5392L62.6711 88.3981C62.6711 88.3981 63.1502 93.6676 65.7809 94.1251C68.0264 94.5157 70.3408 93.3183 70.7335 91.2076C71.0732 89.3822 69.9062 88.0339 68.1996 87.1014C67.3507 86.6375 65.7809 86.453 65.7809 86.453L47.3524 70.4605L48.389 50.7939L78.1049 73.378C78.1049 73.378 77.2022 77.3772 78.5656 79.3212C80.1634 81.5992 82.6159 82.3991 85.4763 81.9146C88.1174 81.4672 90.0561 80.2344 90.7745 77.8084C91.5414 75.2186 90.2861 73.0657 88.0102 71.433C85.8424 69.8778 81.0996 70.4605 81.0996 70.4605L51.7291 48.4166L50.4561 8.93663L41.3458 1L33.5369 8.93663Z" fill="#364760" stroke="#3A5A98" stroke-width="0.176996"/>
</svg>
