<svg width="158" height="18" viewBox="0 0 158 18" fill="none" xmlns="http://www.w3.org/2000/svg">
<path d="M13.6515 8.792C13.6515 9.728 13.5835 10.632 13.4475 11.504C13.3195 12.368 13.0635 13.176 12.6795 13.928C12.2955 14.68 11.7195 15.352 10.9515 15.944C10.5835 16.232 10.1395 16.464 9.61953 16.64C9.10753 16.816 8.57953 16.944 8.03553 17.024C7.49153 17.104 6.99553 17.144 6.54753 17.144C5.51553 17.144 4.51153 17.132 3.53553 17.108C2.56753 17.092 1.55953 17.072 0.511531 17.048L0.343531 16.88V0.727999L0.511531 0.559999C1.54353 0.527999 2.54753 0.503999 3.52353 0.487999C4.50753 0.472 5.51553 0.464 6.54753 0.464C6.99553 0.464 7.49153 0.507999 8.03553 0.595999C8.57953 0.675999 9.11153 0.803999 9.63153 0.98C10.1515 1.156 10.5915 1.388 10.9515 1.676C11.7115 2.268 12.2835 2.94 12.6675 3.692C13.0515 4.436 13.3115 5.24 13.4475 6.104C13.5835 6.968 13.6515 7.864 13.6515 8.792ZM9.70353 8.792C9.70353 8.184 9.66353 7.568 9.58353 6.944C9.51153 6.312 9.36753 5.736 9.15153 5.216C8.94353 4.688 8.62753 4.264 8.20353 3.944C7.78753 3.616 7.23553 3.452 6.54753 3.452C6.13953 3.452 5.74753 3.452 5.37153 3.452C4.99553 3.452 4.59553 3.444 4.17153 3.428V14.168C4.59553 14.16 4.99553 14.156 5.37153 14.156C5.74753 14.156 6.13953 14.156 6.54753 14.156C7.23553 14.156 7.78753 13.996 8.20353 13.676C8.62753 13.348 8.94353 12.92 9.15153 12.392C9.36753 11.856 9.51153 11.276 9.58353 10.652C9.66353 10.02 9.70353 9.4 9.70353 8.792ZM19.2169 14.684C19.0889 14.684 18.9649 14.684 18.8449 14.684C18.7249 14.676 18.6049 14.668 18.4849 14.66L17.7409 17C17.5089 17.056 17.2569 17.096 16.9849 17.12C16.7129 17.152 16.4289 17.168 16.1329 17.168C15.8129 17.168 15.4889 17.144 15.1609 17.096C14.8409 17.048 14.5769 16.98 14.3689 16.892L14.2369 16.688L18.9049 3.776C19.3209 3.712 19.7209 3.672 20.1049 3.656C20.4969 3.64 20.8529 3.632 21.1729 3.632C21.4689 3.632 21.7889 3.64 22.1329 3.656C22.4769 3.672 22.8649 3.712 23.2969 3.776L27.8329 16.82C27.5529 16.948 27.1969 17.044 26.7649 17.108C26.3329 17.18 25.9849 17.216 25.7209 17.216C25.2809 17.216 24.8569 17.132 24.4489 16.964C24.0409 16.796 23.7329 16.352 23.5249 15.632L23.2249 14.66C23.0969 14.668 22.9729 14.676 22.8529 14.684C22.7329 14.684 22.6049 14.684 22.4689 14.684H19.2169ZM19.6969 10.892L19.4329 11.72C19.5529 11.712 19.6729 11.708 19.7929 11.708C19.9129 11.7 20.0369 11.696 20.1649 11.696H21.6649C21.7849 11.696 21.8929 11.7 21.9889 11.708C22.0929 11.708 22.1969 11.712 22.3009 11.72L22.0489 10.904C21.8649 10.272 21.6809 9.568 21.4969 8.792C21.3129 8.016 21.1449 7.312 20.9929 6.68H20.8489C20.6809 7.288 20.4929 7.984 20.2849 8.768C20.0849 9.552 19.8889 10.26 19.6969 10.892ZM30.576 8.276C30.576 8.02 30.58 7.784 30.588 7.568C30.596 7.344 30.6 7.096 30.6 6.824C30.432 6.824 30.2 6.828 29.904 6.836C29.616 6.844 29.388 6.848 29.22 6.848H27C26.936 6.56 26.896 6.292 26.88 6.044C26.864 5.788 26.856 5.556 26.856 5.348C26.856 5.14 26.864 4.896 26.88 4.616C26.896 4.328 26.936 4.048 27 3.776H37.86C37.916 3.992 37.956 4.236 37.98 4.508C38.012 4.78 38.028 5 38.028 5.168C38.028 5.712 37.884 6.128 37.596 6.416C37.308 6.704 36.828 6.848 36.156 6.848H35.664C35.496 6.848 35.272 6.844 34.992 6.836C34.72 6.828 34.508 6.824 34.356 6.824C34.356 7.096 34.36 7.344 34.368 7.568C34.376 7.784 34.38 8.02 34.38 8.276V17C34.156 17.048 33.848 17.084 33.456 17.108C33.064 17.132 32.736 17.144 32.472 17.144C32.224 17.144 31.912 17.132 31.536 17.108C31.16 17.084 30.84 17.048 30.576 17V8.276ZM38.4162 10.412C38.4162 8.268 38.9682 6.568 40.0722 5.312C41.1842 4.048 42.8042 3.416 44.9322 3.416C47.0922 3.416 48.7202 4.044 49.8162 5.3C50.9202 6.548 51.4722 8.252 51.4722 10.412C51.4722 12.572 50.9202 14.272 49.8162 15.512C48.7122 16.744 47.0842 17.36 44.9322 17.36C42.7722 17.36 41.1442 16.736 40.0482 15.488C38.9602 14.24 38.4162 12.548 38.4162 10.412ZM42.2922 10.412C42.2922 10.868 42.3202 11.34 42.3762 11.828C42.4402 12.308 42.5602 12.756 42.7362 13.172C42.9202 13.588 43.1882 13.928 43.5402 14.192C43.8922 14.448 44.3602 14.576 44.9442 14.576C45.5282 14.576 45.9962 14.448 46.3482 14.192C46.7002 13.928 46.9642 13.588 47.1402 13.172C47.3242 12.756 47.4442 12.308 47.5002 11.828C47.5642 11.34 47.5962 10.868 47.5962 10.412C47.5962 9.948 47.5642 9.472 47.5002 8.984C47.4442 8.488 47.3242 8.032 47.1402 7.616C46.9642 7.192 46.7002 6.852 46.3482 6.596C45.9962 6.332 45.5282 6.2 44.9442 6.2C44.3602 6.2 43.8922 6.332 43.5402 6.596C43.1882 6.852 42.9202 7.192 42.7362 7.616C42.5602 8.032 42.4402 8.488 42.3762 8.984C42.3202 9.472 42.2922 9.948 42.2922 10.412ZM52.6588 16.004C52.6588 15.7 52.7188 15.364 52.8388 14.996C52.9588 14.62 53.1228 14.272 53.3308 13.952C53.5388 13.632 53.7668 13.392 54.0148 13.232C54.6068 13.552 55.2668 13.828 55.9948 14.06C56.7228 14.284 57.4348 14.396 58.1308 14.396C58.5788 14.396 58.9468 14.304 59.2348 14.12C59.5308 13.936 59.6788 13.676 59.6788 13.34C59.6788 13.124 59.5948 12.928 59.4268 12.752C59.2588 12.568 58.9668 12.4 58.5508 12.248L56.5588 11.468C55.9428 11.244 55.3668 10.964 54.8308 10.628C54.2948 10.292 53.8628 9.88 53.5348 9.392C53.2068 8.904 53.0428 8.32 53.0428 7.64C53.0428 6.392 53.5228 5.376 54.4828 4.592C55.4428 3.808 56.7348 3.416 58.3588 3.416C59.2788 3.416 60.1908 3.524 61.0948 3.74C62.0068 3.948 62.7708 4.188 63.3868 4.46C63.3868 5.004 63.2748 5.54 63.0508 6.068C62.8268 6.596 62.5188 7.012 62.1268 7.316C61.5348 7.052 60.8908 6.832 60.1948 6.656C59.4988 6.472 58.8708 6.38 58.3108 6.38C57.8948 6.38 57.5748 6.468 57.3508 6.644C57.1348 6.82 57.0268 7.032 57.0268 7.28C57.0268 7.512 57.1348 7.688 57.3508 7.808C57.5668 7.928 57.8348 8.048 58.1548 8.168L60.1348 8.924C61.2388 9.324 62.1148 9.876 62.7628 10.58C63.4188 11.276 63.7468 12.136 63.7468 13.16C63.7468 14.064 63.5028 14.828 63.0148 15.452C62.5348 16.076 61.8748 16.548 61.0348 16.868C60.2028 17.188 59.2628 17.352 58.2148 17.36C56.9668 17.36 55.8548 17.216 54.8788 16.928C53.9108 16.64 53.1708 16.332 52.6588 16.004ZM84.7609 8.792C84.7609 9.728 84.6929 10.632 84.5569 11.504C84.4289 12.368 84.1729 13.176 83.7889 13.928C83.4049 14.68 82.8289 15.352 82.0609 15.944C81.6929 16.232 81.2489 16.464 80.7289 16.64C80.2169 16.816 79.6889 16.944 79.1449 17.024C78.6009 17.104 78.1049 17.144 77.6569 17.144C76.6249 17.144 75.6209 17.132 74.6449 17.108C73.6769 17.092 72.6689 17.072 71.6209 17.048L71.4529 16.88V0.727999L71.6209 0.559999C72.6529 0.527999 73.6569 0.503999 74.6329 0.487999C75.6169 0.472 76.6249 0.464 77.6569 0.464C78.1049 0.464 78.6009 0.507999 79.1449 0.595999C79.6889 0.675999 80.2209 0.803999 80.7409 0.98C81.2609 1.156 81.7009 1.388 82.0609 1.676C82.8209 2.268 83.3929 2.94 83.7769 3.692C84.1609 4.436 84.4209 5.24 84.5569 6.104C84.6929 6.968 84.7609 7.864 84.7609 8.792ZM80.8129 8.792C80.8129 8.184 80.7729 7.568 80.6929 6.944C80.6209 6.312 80.4769 5.736 80.2609 5.216C80.0529 4.688 79.7369 4.264 79.3129 3.944C78.8969 3.616 78.3449 3.452 77.6569 3.452C77.2489 3.452 76.8569 3.452 76.4809 3.452C76.1049 3.452 75.7049 3.444 75.2809 3.428V14.168C75.7049 14.16 76.1049 14.156 76.4809 14.156C76.8569 14.156 77.2489 14.156 77.6569 14.156C78.3449 14.156 78.8969 13.996 79.3129 13.676C79.7369 13.348 80.0529 12.92 80.2609 12.392C80.4769 11.856 80.6209 11.276 80.6929 10.652C80.7729 10.02 80.8129 9.4 80.8129 8.792ZM97.4562 13.988C97.4562 15.132 97.2762 15.928 96.9162 16.376C96.5642 16.824 95.9642 17.048 95.1162 17.048H89.5842C88.9042 17.048 88.3682 16.856 87.9762 16.472C87.5842 16.08 87.3882 15.556 87.3882 14.9V3.908L87.5202 3.776H97.0122C97.0682 4.048 97.1002 4.308 97.1082 4.556C97.1162 4.804 97.1202 5.04 97.1202 5.264C97.1202 5.48 97.0962 5.724 97.0482 5.996C97.0082 6.268 96.9362 6.544 96.8322 6.824H92.6322C92.2962 6.824 91.7882 6.82 91.1082 6.812C91.1162 7.06 91.1202 7.272 91.1202 7.448C91.1282 7.624 91.1322 7.836 91.1322 8.084V8.876C91.7962 8.868 92.2962 8.864 92.6322 8.864H95.7042C95.7842 9.08 95.8362 9.328 95.8602 9.608C95.8922 9.88 95.9082 10.112 95.9082 10.304C95.9082 10.528 95.8922 10.78 95.8602 11.06C95.8362 11.332 95.7842 11.58 95.7042 11.804H92.6322C92.4802 11.804 92.2682 11.804 91.9962 11.804C91.7242 11.804 91.4362 11.804 91.1322 11.804V12.584C91.1322 12.88 91.1282 13.124 91.1202 13.316C91.1122 13.508 91.1082 13.748 91.1082 14.036V14.06C91.3882 14.044 91.6482 14.028 91.8882 14.012C92.1282 13.996 92.4202 13.988 92.7642 13.988H97.4562ZM98.7838 16.004C98.7838 15.7 98.8438 15.364 98.9638 14.996C99.0838 14.62 99.2478 14.272 99.4558 13.952C99.6638 13.632 99.8918 13.392 100.14 13.232C100.732 13.552 101.392 13.828 102.12 14.06C102.848 14.284 103.56 14.396 104.256 14.396C104.704 14.396 105.072 14.304 105.36 14.12C105.656 13.936 105.804 13.676 105.804 13.34C105.804 13.124 105.72 12.928 105.552 12.752C105.384 12.568 105.092 12.4 104.676 12.248L102.684 11.468C102.068 11.244 101.492 10.964 100.956 10.628C100.42 10.292 99.9878 9.88 99.6598 9.392C99.3318 8.904 99.1678 8.32 99.1678 7.64C99.1678 6.392 99.6478 5.376 100.608 4.592C101.568 3.808 102.86 3.416 104.484 3.416C105.404 3.416 106.316 3.524 107.22 3.74C108.132 3.948 108.896 4.188 109.512 4.46C109.512 5.004 109.4 5.54 109.176 6.068C108.952 6.596 108.644 7.012 108.252 7.316C107.66 7.052 107.016 6.832 106.32 6.656C105.624 6.472 104.996 6.38 104.436 6.38C104.02 6.38 103.7 6.468 103.476 6.644C103.26 6.82 103.152 7.032 103.152 7.28C103.152 7.512 103.26 7.688 103.476 7.808C103.692 7.928 103.96 8.048 104.28 8.168L106.26 8.924C107.364 9.324 108.24 9.876 108.888 10.58C109.544 11.276 109.872 12.136 109.872 13.16C109.872 14.064 109.628 14.828 109.14 15.452C108.66 16.076 108 16.548 107.16 16.868C106.328 17.188 105.388 17.352 104.34 17.36C103.092 17.36 101.98 17.216 101.004 16.928C100.036 16.64 99.2958 16.332 98.7838 16.004ZM113.873 8.276C113.873 8.02 113.877 7.784 113.885 7.568C113.893 7.344 113.897 7.096 113.897 6.824C113.729 6.824 113.497 6.828 113.201 6.836C112.913 6.844 112.685 6.848 112.517 6.848H110.297C110.233 6.56 110.193 6.292 110.177 6.044C110.161 5.788 110.153 5.556 110.153 5.348C110.153 5.14 110.161 4.896 110.177 4.616C110.193 4.328 110.233 4.048 110.297 3.776H121.157C121.213 3.992 121.253 4.236 121.277 4.508C121.309 4.78 121.325 5 121.325 5.168C121.325 5.712 121.181 6.128 120.893 6.416C120.605 6.704 120.125 6.848 119.453 6.848H118.961C118.793 6.848 118.569 6.844 118.289 6.836C118.017 6.828 117.805 6.824 117.653 6.824C117.653 7.096 117.657 7.344 117.665 7.568C117.673 7.784 117.677 8.02 117.677 8.276V17C117.453 17.048 117.145 17.084 116.753 17.108C116.361 17.132 116.033 17.144 115.769 17.144C115.521 17.144 115.209 17.132 114.833 17.108C114.457 17.084 114.137 17.048 113.873 17V8.276ZM122.991 3.776C123.295 3.712 123.639 3.672 124.023 3.656C124.407 3.64 124.711 3.632 124.935 3.632C125.175 3.632 125.463 3.64 125.799 3.656C126.143 3.672 126.475 3.712 126.795 3.776V17C126.475 17.056 126.143 17.092 125.799 17.108C125.463 17.132 125.175 17.144 124.935 17.144C124.711 17.144 124.407 17.132 124.023 17.108C123.639 17.092 123.295 17.056 122.991 17V3.776ZM134.935 10.964C134.879 10.836 134.791 10.636 134.671 10.364C134.551 10.084 134.423 9.784 134.287 9.464C134.151 9.144 134.023 8.844 133.903 8.564C133.791 8.284 133.703 8.08 133.639 7.952L133.555 7.988C133.587 8.62 133.619 9.304 133.651 10.04C133.683 10.768 133.707 11.436 133.723 12.044C133.747 12.644 133.759 13.08 133.759 13.352V17C133.447 17.056 133.147 17.092 132.859 17.108C132.571 17.132 132.303 17.144 132.055 17.144C131.831 17.144 131.551 17.132 131.215 17.108C130.887 17.092 130.575 17.056 130.279 17V3.86C130.575 3.788 130.943 3.732 131.383 3.692C131.823 3.652 132.163 3.632 132.403 3.632C132.651 3.632 133.003 3.64 133.459 3.656C133.915 3.664 134.291 3.704 134.587 3.776L137.407 9.788C137.463 9.9 137.555 10.104 137.683 10.4C137.819 10.696 137.963 11.02 138.115 11.372C138.267 11.724 138.407 12.056 138.535 12.368C138.671 12.672 138.771 12.896 138.835 13.04L138.943 13.016C138.911 12.488 138.867 11.872 138.811 11.168C138.763 10.464 138.719 9.784 138.679 9.128C138.639 8.472 138.619 7.948 138.619 7.556V5.684C138.619 4.836 138.803 4.28 139.171 4.016C139.539 3.744 140.087 3.608 140.815 3.608H142.051L142.195 3.776V16.928C141.883 17 141.507 17.052 141.067 17.084C140.627 17.124 140.291 17.144 140.059 17.144C139.899 17.144 139.679 17.14 139.399 17.132C139.119 17.124 138.831 17.112 138.535 17.096C138.247 17.08 138.007 17.048 137.815 17L134.935 10.964ZM144.682 10.412C144.682 8.268 145.234 6.568 146.338 5.312C147.45 4.048 149.07 3.416 151.198 3.416C153.358 3.416 154.986 4.044 156.082 5.3C157.186 6.548 157.738 8.252 157.738 10.412C157.738 12.572 157.186 14.272 156.082 15.512C154.978 16.744 153.35 17.36 151.198 17.36C149.038 17.36 147.41 16.736 146.314 15.488C145.226 14.24 144.682 12.548 144.682 10.412ZM148.558 10.412C148.558 10.868 148.586 11.34 148.642 11.828C148.706 12.308 148.826 12.756 149.002 13.172C149.186 13.588 149.454 13.928 149.806 14.192C150.158 14.448 150.626 14.576 151.21 14.576C151.794 14.576 152.262 14.448 152.614 14.192C152.966 13.928 153.23 13.588 153.406 13.172C153.59 12.756 153.71 12.308 153.766 11.828C153.83 11.34 153.862 10.868 153.862 10.412C153.862 9.948 153.83 9.472 153.766 8.984C153.71 8.488 153.59 8.032 153.406 7.616C153.23 7.192 152.966 6.852 152.614 6.596C152.262 6.332 151.794 6.2 151.21 6.2C150.626 6.2 150.158 6.332 149.806 6.596C149.454 6.852 149.186 7.192 149.002 7.616C148.826 8.032 148.706 8.488 148.642 8.984C148.586 9.472 148.558 9.948 148.558 10.412Z" fill="#364760"/>
</svg>
