<svg width="214" height="18" viewBox="0 0 214 18" fill="none" xmlns="http://www.w3.org/2000/svg">
<path d="M14.2179 8.792C14.2179 9.728 14.1499 10.632 14.0139 11.504C13.8859 12.368 13.6299 13.176 13.2459 13.928C12.8619 14.68 12.2859 15.352 11.5179 15.944C11.1499 16.232 10.7059 16.464 10.1859 16.64C9.67394 16.816 9.14594 16.944 8.60194 17.024C8.05794 17.104 7.56194 17.144 7.11394 17.144C6.08194 17.144 5.07794 17.132 4.10194 17.108C3.13394 17.092 2.12594 17.072 1.07794 17.048L0.909938 16.88V0.727999L1.07794 0.559999C2.10994 0.527999 3.11394 0.503999 4.08994 0.487999C5.07394 0.472 6.08194 0.464 7.11394 0.464C7.56194 0.464 8.05794 0.507999 8.60194 0.595999C9.14594 0.675999 9.67794 0.803999 10.1979 0.98C10.7179 1.156 11.1579 1.388 11.5179 1.676C12.2779 2.268 12.8499 2.94 13.2339 3.692C13.6179 4.436 13.8779 5.24 14.0139 6.104C14.1499 6.968 14.2179 7.864 14.2179 8.792ZM10.2699 8.792C10.2699 8.184 10.2299 7.568 10.1499 6.944C10.0779 6.312 9.93394 5.736 9.71794 5.216C9.50994 4.688 9.19394 4.264 8.76994 3.944C8.35394 3.616 7.80194 3.452 7.11394 3.452C6.70594 3.452 6.31394 3.452 5.93794 3.452C5.56194 3.452 5.16194 3.444 4.73794 3.428V14.168C5.16194 14.16 5.56194 14.156 5.93794 14.156C6.31394 14.156 6.70594 14.156 7.11394 14.156C7.80194 14.156 8.35394 13.996 8.76994 13.676C9.19394 13.348 9.50994 12.92 9.71794 12.392C9.93394 11.856 10.0779 11.276 10.1499 10.652C10.2299 10.02 10.2699 9.4 10.2699 8.792ZM19.7833 14.684C19.6553 14.684 19.5313 14.684 19.4113 14.684C19.2913 14.676 19.1713 14.668 19.0513 14.66L18.3073 17C18.0753 17.056 17.8233 17.096 17.5513 17.12C17.2793 17.152 16.9953 17.168 16.6993 17.168C16.3793 17.168 16.0553 17.144 15.7273 17.096C15.4073 17.048 15.1433 16.98 14.9353 16.892L14.8033 16.688L19.4713 3.776C19.8873 3.712 20.2873 3.672 20.6713 3.656C21.0633 3.64 21.4193 3.632 21.7393 3.632C22.0353 3.632 22.3553 3.64 22.6993 3.656C23.0433 3.672 23.4313 3.712 23.8633 3.776L28.3993 16.82C28.1193 16.948 27.7633 17.044 27.3313 17.108C26.8993 17.18 26.5513 17.216 26.2873 17.216C25.8473 17.216 25.4233 17.132 25.0153 16.964C24.6073 16.796 24.2993 16.352 24.0913 15.632L23.7913 14.66C23.6633 14.668 23.5393 14.676 23.4193 14.684C23.2993 14.684 23.1713 14.684 23.0353 14.684H19.7833ZM20.2633 10.892L19.9993 11.72C20.1193 11.712 20.2393 11.708 20.3593 11.708C20.4793 11.7 20.6033 11.696 20.7313 11.696H22.2313C22.3513 11.696 22.4593 11.7 22.5553 11.708C22.6593 11.708 22.7633 11.712 22.8673 11.72L22.6153 10.904C22.4313 10.272 22.2473 9.568 22.0633 8.792C21.8793 8.016 21.7113 7.312 21.5593 6.68H21.4153C21.2473 7.288 21.0593 7.984 20.8513 8.768C20.6513 9.552 20.4553 10.26 20.2633 10.892ZM31.1424 8.276C31.1424 8.02 31.1464 7.784 31.1544 7.568C31.1624 7.344 31.1664 7.096 31.1664 6.824C30.9984 6.824 30.7664 6.828 30.4704 6.836C30.1824 6.844 29.9544 6.848 29.7864 6.848H27.5664C27.5024 6.56 27.4624 6.292 27.4464 6.044C27.4304 5.788 27.4224 5.556 27.4224 5.348C27.4224 5.14 27.4304 4.896 27.4464 4.616C27.4624 4.328 27.5024 4.048 27.5664 3.776H38.4264C38.4824 3.992 38.5224 4.236 38.5464 4.508C38.5784 4.78 38.5944 5 38.5944 5.168C38.5944 5.712 38.4504 6.128 38.1624 6.416C37.8744 6.704 37.3944 6.848 36.7224 6.848H36.2304C36.0624 6.848 35.8384 6.844 35.5584 6.836C35.2864 6.828 35.0744 6.824 34.9224 6.824C34.9224 7.096 34.9264 7.344 34.9344 7.568C34.9424 7.784 34.9464 8.02 34.9464 8.276V17C34.7224 17.048 34.4144 17.084 34.0224 17.108C33.6304 17.132 33.3024 17.144 33.0384 17.144C32.7904 17.144 32.4784 17.132 32.1024 17.108C31.7264 17.084 31.4064 17.048 31.1424 17V8.276ZM38.9826 10.412C38.9826 8.268 39.5346 6.568 40.6386 5.312C41.7506 4.048 43.3706 3.416 45.4986 3.416C47.6586 3.416 49.2866 4.044 50.3826 5.3C51.4866 6.548 52.0386 8.252 52.0386 10.412C52.0386 12.572 51.4866 14.272 50.3826 15.512C49.2786 16.744 47.6506 17.36 45.4986 17.36C43.3386 17.36 41.7106 16.736 40.6146 15.488C39.5266 14.24 38.9826 12.548 38.9826 10.412ZM42.8586 10.412C42.8586 10.868 42.8866 11.34 42.9426 11.828C43.0066 12.308 43.1266 12.756 43.3026 13.172C43.4866 13.588 43.7546 13.928 44.1066 14.192C44.4586 14.448 44.9266 14.576 45.5106 14.576C46.0946 14.576 46.5626 14.448 46.9146 14.192C47.2666 13.928 47.5306 13.588 47.7066 13.172C47.8906 12.756 48.0106 12.308 48.0666 11.828C48.1306 11.34 48.1626 10.868 48.1626 10.412C48.1626 9.948 48.1306 9.472 48.0666 8.984C48.0106 8.488 47.8906 8.032 47.7066 7.616C47.5306 7.192 47.2666 6.852 46.9146 6.596C46.5626 6.332 46.0946 6.2 45.5106 6.2C44.9266 6.2 44.4586 6.332 44.1066 6.596C43.7546 6.852 43.4866 7.192 43.3026 7.616C43.1266 8.032 43.0066 8.488 42.9426 8.984C42.8866 9.472 42.8586 9.948 42.8586 10.412ZM53.2253 16.004C53.2253 15.7 53.2853 15.364 53.4053 14.996C53.5253 14.62 53.6893 14.272 53.8973 13.952C54.1053 13.632 54.3333 13.392 54.5813 13.232C55.1733 13.552 55.8333 13.828 56.5613 14.06C57.2893 14.284 58.0013 14.396 58.6973 14.396C59.1453 14.396 59.5133 14.304 59.8013 14.12C60.0973 13.936 60.2453 13.676 60.2453 13.34C60.2453 13.124 60.1613 12.928 59.9933 12.752C59.8253 12.568 59.5333 12.4 59.1172 12.248L57.1253 11.468C56.5093 11.244 55.9333 10.964 55.3973 10.628C54.8613 10.292 54.4293 9.88 54.1013 9.392C53.7733 8.904 53.6093 8.32 53.6093 7.64C53.6093 6.392 54.0893 5.376 55.0493 4.592C56.0093 3.808 57.3013 3.416 58.9253 3.416C59.8453 3.416 60.7573 3.524 61.6613 3.74C62.5733 3.948 63.3373 4.188 63.9533 4.46C63.9533 5.004 63.8413 5.54 63.6173 6.068C63.3933 6.596 63.0853 7.012 62.6933 7.316C62.1013 7.052 61.4573 6.832 60.7613 6.656C60.0653 6.472 59.4373 6.38 58.8773 6.38C58.4613 6.38 58.1413 6.468 57.9173 6.644C57.7013 6.82 57.5933 7.032 57.5933 7.28C57.5933 7.512 57.7013 7.688 57.9173 7.808C58.1333 7.928 58.4013 8.048 58.7213 8.168L60.7013 8.924C61.8053 9.324 62.6813 9.876 63.3293 10.58C63.9853 11.276 64.3133 12.136 64.3133 13.16C64.3133 14.064 64.0693 14.828 63.5813 15.452C63.1013 16.076 62.4413 16.548 61.6013 16.868C60.7693 17.188 59.8293 17.352 58.7812 17.36C57.5333 17.36 56.4213 17.216 55.4453 16.928C54.4773 16.64 53.7373 16.332 53.2253 16.004ZM82.4353 8.312C82.4353 9.352 82.1993 10.216 81.7273 10.904C81.2633 11.584 80.6233 12.092 79.8073 12.428C78.9913 12.756 78.0633 12.92 77.0233 12.92H75.7153V17C75.3953 17.056 75.0673 17.092 74.7313 17.108C74.3953 17.132 74.1073 17.144 73.8673 17.144C73.6433 17.144 73.3393 17.132 72.9553 17.108C72.5713 17.092 72.2273 17.056 71.9233 17V3.896L72.0553 3.752C72.7033 3.736 73.4833 3.716 74.3953 3.692C75.3073 3.668 76.1833 3.656 77.0233 3.656C78.0713 3.656 79.0033 3.816 79.8193 4.136C80.6353 4.456 81.2753 4.96 81.7393 5.648C82.2033 6.336 82.4353 7.224 82.4353 8.312ZM75.7153 6.464V10.136C75.9313 10.128 76.1273 10.124 76.3033 10.124C76.4793 10.116 76.6113 10.112 76.6993 10.112C77.2273 10.112 77.6233 10.016 77.8873 9.824C78.1593 9.624 78.3393 9.384 78.4273 9.104C78.5153 8.816 78.5593 8.544 78.5593 8.288C78.5593 8.048 78.5153 7.788 78.4273 7.508C78.3393 7.228 78.1593 6.988 77.8873 6.788C77.6233 6.588 77.2273 6.488 76.6993 6.488C76.4993 6.488 76.3553 6.488 76.2673 6.488C76.1793 6.48 75.9953 6.472 75.7153 6.464ZM95.5196 7.796C95.5196 8.412 95.3796 8.96 95.0996 9.44C94.8196 9.92 94.4676 10.316 94.0436 10.628C93.6276 10.94 93.2116 11.14 92.7956 11.228C93.2276 11.372 93.5836 11.592 93.8636 11.888C94.1516 12.184 94.3996 12.564 94.6076 13.028L95.2316 14.456C95.3756 14.784 95.5396 15.088 95.7236 15.368C95.9076 15.64 96.1116 15.872 96.3356 16.064C96.1036 16.352 95.7556 16.62 95.2916 16.868C94.8276 17.108 94.3236 17.228 93.7796 17.228C93.2436 17.228 92.8076 17.1 92.4716 16.844C92.1436 16.58 91.8556 16.16 91.6076 15.584L90.5516 13.16C90.3836 12.768 90.1756 12.532 89.9276 12.452C89.6796 12.372 89.3596 12.332 88.9676 12.332H88.4996V17C88.1796 17.056 87.8476 17.092 87.5036 17.108C87.1676 17.132 86.8796 17.144 86.6396 17.144C86.4156 17.144 86.1196 17.132 85.7516 17.108C85.3836 17.092 85.0476 17.056 84.7436 17V3.896L84.8756 3.752C85.8436 3.728 86.7516 3.708 87.5996 3.692C88.4556 3.668 89.3076 3.656 90.1556 3.656C91.1156 3.656 92.0036 3.784 92.8196 4.04C93.6356 4.288 94.2876 4.716 94.7756 5.324C95.2716 5.924 95.5196 6.748 95.5196 7.796ZM88.4996 6.368V9.476C88.7796 9.468 89.0356 9.464 89.2676 9.464C89.5076 9.456 89.6836 9.452 89.7956 9.452C90.5156 9.452 91.0036 9.296 91.2596 8.984C91.5156 8.672 91.6436 8.308 91.6436 7.892C91.6436 7.484 91.5156 7.132 91.2596 6.836C91.0036 6.54 90.5756 6.392 89.9756 6.392C89.6876 6.392 89.4396 6.388 89.2316 6.38C89.0236 6.372 88.7796 6.368 88.4996 6.368ZM97.2951 10.412C97.2951 8.268 97.8471 6.568 98.9511 5.312C100.063 4.048 101.683 3.416 103.811 3.416C105.971 3.416 107.599 4.044 108.695 5.3C109.799 6.548 110.351 8.252 110.351 10.412C110.351 12.572 109.799 14.272 108.695 15.512C107.591 16.744 105.963 17.36 103.811 17.36C101.651 17.36 100.023 16.736 98.9271 15.488C97.8391 14.24 97.2951 12.548 97.2951 10.412ZM101.171 10.412C101.171 10.868 101.199 11.34 101.255 11.828C101.319 12.308 101.439 12.756 101.615 13.172C101.799 13.588 102.067 13.928 102.419 14.192C102.771 14.448 103.239 14.576 103.823 14.576C104.407 14.576 104.875 14.448 105.227 14.192C105.579 13.928 105.843 13.588 106.019 13.172C106.203 12.756 106.323 12.308 106.379 11.828C106.443 11.34 106.475 10.868 106.475 10.412C106.475 9.948 106.443 9.472 106.379 8.984C106.323 8.488 106.203 8.032 106.019 7.616C105.843 7.192 105.579 6.852 105.227 6.596C104.875 6.332 104.407 6.2 103.823 6.2C103.239 6.2 102.771 6.332 102.419 6.596C102.067 6.852 101.799 7.192 101.615 7.616C101.439 8.032 101.319 8.488 101.255 8.984C101.199 9.472 101.171 9.948 101.171 10.412ZM120.142 9.764C120.142 8.748 120.006 7.932 119.734 7.316C119.462 6.692 118.914 6.38 118.09 6.38C117.234 6.38 116.626 6.732 116.266 7.436C115.906 8.14 115.726 9.152 115.726 10.472C115.726 11.48 115.854 12.256 116.11 12.8C116.374 13.336 116.71 13.708 117.118 13.916C117.526 14.124 117.958 14.228 118.414 14.228C119.006 14.228 119.598 14.1 120.19 13.844C120.79 13.58 121.326 13.272 121.798 12.92C122.054 13.048 122.302 13.252 122.542 13.532C122.782 13.812 122.99 14.112 123.166 14.432C123.342 14.752 123.454 15.044 123.502 15.308C122.838 15.876 122.03 16.36 121.078 16.76C120.134 17.16 119.058 17.36 117.85 17.36C116.69 17.36 115.722 17.156 114.946 16.748C114.178 16.34 113.566 15.804 113.11 15.14C112.654 14.468 112.33 13.724 112.138 12.908C111.946 12.092 111.85 11.272 111.85 10.448C111.85 8.808 112.146 7.472 112.738 6.44C113.338 5.4 114.122 4.636 115.09 4.148C116.066 3.66 117.11 3.416 118.222 3.416C119.47 3.416 120.498 3.636 121.306 4.076C122.114 4.516 122.714 5.072 123.106 5.744C123.498 6.416 123.694 7.108 123.694 7.82C123.694 9.188 122.926 9.872 121.39 9.872C121.206 9.872 121.006 9.86 120.79 9.836C120.574 9.812 120.358 9.788 120.142 9.764ZM136.085 13.988C136.085 15.132 135.905 15.928 135.545 16.376C135.193 16.824 134.593 17.048 133.745 17.048H128.213C127.533 17.048 126.997 16.856 126.605 16.472C126.213 16.08 126.017 15.556 126.017 14.9V3.908L126.149 3.776H135.641C135.697 4.048 135.729 4.308 135.737 4.556C135.745 4.804 135.749 5.04 135.749 5.264C135.749 5.48 135.725 5.724 135.677 5.996C135.637 6.268 135.565 6.544 135.461 6.824H131.261C130.925 6.824 130.417 6.82 129.737 6.812C129.745 7.06 129.749 7.272 129.749 7.448C129.757 7.624 129.761 7.836 129.761 8.084V8.876C130.425 8.868 130.925 8.864 131.261 8.864H134.333C134.413 9.08 134.465 9.328 134.489 9.608C134.521 9.88 134.537 10.112 134.537 10.304C134.537 10.528 134.521 10.78 134.489 11.06C134.465 11.332 134.413 11.58 134.333 11.804H131.261C131.109 11.804 130.897 11.804 130.625 11.804C130.353 11.804 130.065 11.804 129.761 11.804V12.584C129.761 12.88 129.757 13.124 129.749 13.316C129.741 13.508 129.737 13.748 129.737 14.036V14.06C130.017 14.044 130.277 14.028 130.517 14.012C130.757 13.996 131.049 13.988 131.393 13.988H136.085ZM150.757 10.412C150.757 12.652 150.233 14.328 149.185 15.44C148.137 16.544 146.485 17.096 144.229 17.096C143.277 17.096 142.373 17.088 141.517 17.072C140.669 17.064 139.773 17.048 138.829 17.024L138.697 16.88V3.896L138.829 3.752C139.781 3.728 140.681 3.708 141.529 3.692C142.377 3.668 143.277 3.656 144.229 3.656C146.461 3.656 148.105 4.236 149.161 5.396C150.225 6.548 150.757 8.22 150.757 10.412ZM146.893 10.412C146.893 9.828 146.833 9.244 146.713 8.66C146.593 8.068 146.341 7.572 145.957 7.172C145.573 6.772 144.997 6.572 144.229 6.572C143.877 6.572 143.573 6.572 143.317 6.572C143.069 6.564 142.781 6.556 142.453 6.548V14.228C142.797 14.228 143.089 14.224 143.329 14.216C143.577 14.208 143.877 14.204 144.229 14.204C144.997 14.204 145.573 14.008 145.957 13.616C146.341 13.216 146.593 12.724 146.713 12.14C146.833 11.556 146.893 10.98 146.893 10.412ZM163.319 13.988C163.319 15.132 163.139 15.928 162.779 16.376C162.427 16.824 161.827 17.048 160.979 17.048H155.447C154.767 17.048 154.231 16.856 153.839 16.472C153.447 16.08 153.251 15.556 153.251 14.9V3.908L153.383 3.776H162.875C162.931 4.048 162.963 4.308 162.971 4.556C162.979 4.804 162.983 5.04 162.983 5.264C162.983 5.48 162.959 5.724 162.911 5.996C162.871 6.268 162.799 6.544 162.695 6.824H158.495C158.159 6.824 157.651 6.82 156.971 6.812C156.979 7.06 156.983 7.272 156.983 7.448C156.991 7.624 156.995 7.836 156.995 8.084V8.876C157.659 8.868 158.159 8.864 158.495 8.864H161.567C161.647 9.08 161.699 9.328 161.723 9.608C161.755 9.88 161.771 10.112 161.771 10.304C161.771 10.528 161.755 10.78 161.723 11.06C161.699 11.332 161.647 11.58 161.567 11.804H158.495C158.343 11.804 158.131 11.804 157.859 11.804C157.587 11.804 157.299 11.804 156.995 11.804V12.584C156.995 12.88 156.991 13.124 156.983 13.316C156.975 13.508 156.971 13.748 156.971 14.036V14.06C157.251 14.044 157.511 14.028 157.751 14.012C157.991 13.996 158.283 13.988 158.627 13.988H163.319ZM170.587 10.964C170.531 10.836 170.443 10.636 170.323 10.364C170.203 10.084 170.075 9.784 169.939 9.464C169.803 9.144 169.675 8.844 169.555 8.564C169.443 8.284 169.355 8.08 169.291 7.952L169.207 7.988C169.239 8.62 169.271 9.304 169.303 10.04C169.335 10.768 169.359 11.436 169.375 12.044C169.399 12.644 169.411 13.08 169.411 13.352V17C169.099 17.056 168.799 17.092 168.511 17.108C168.223 17.132 167.955 17.144 167.707 17.144C167.483 17.144 167.203 17.132 166.867 17.108C166.539 17.092 166.227 17.056 165.931 17V3.86C166.227 3.788 166.595 3.732 167.035 3.692C167.475 3.652 167.815 3.632 168.055 3.632C168.303 3.632 168.655 3.64 169.111 3.656C169.567 3.664 169.943 3.704 170.239 3.776L173.059 9.788C173.115 9.9 173.207 10.104 173.335 10.4C173.471 10.696 173.615 11.02 173.767 11.372C173.919 11.724 174.059 12.056 174.187 12.368C174.323 12.672 174.423 12.896 174.487 13.04L174.595 13.016C174.563 12.488 174.519 11.872 174.463 11.168C174.415 10.464 174.371 9.784 174.331 9.128C174.291 8.472 174.271 7.948 174.271 7.556V5.684C174.271 4.836 174.455 4.28 174.823 4.016C175.191 3.744 175.739 3.608 176.467 3.608H177.703L177.847 3.776V16.928C177.535 17 177.159 17.052 176.719 17.084C176.279 17.124 175.943 17.144 175.711 17.144C175.551 17.144 175.331 17.14 175.051 17.132C174.771 17.124 174.483 17.112 174.187 17.096C173.899 17.08 173.659 17.048 173.467 17L170.587 10.964ZM188.626 9.764C188.626 8.748 188.49 7.932 188.218 7.316C187.946 6.692 187.398 6.38 186.574 6.38C185.718 6.38 185.11 6.732 184.75 7.436C184.39 8.14 184.21 9.152 184.21 10.472C184.21 11.48 184.338 12.256 184.594 12.8C184.858 13.336 185.194 13.708 185.602 13.916C186.01 14.124 186.442 14.228 186.898 14.228C187.49 14.228 188.082 14.1 188.674 13.844C189.274 13.58 189.81 13.272 190.282 12.92C190.538 13.048 190.786 13.252 191.026 13.532C191.266 13.812 191.474 14.112 191.65 14.432C191.826 14.752 191.938 15.044 191.986 15.308C191.322 15.876 190.514 16.36 189.562 16.76C188.618 17.16 187.542 17.36 186.334 17.36C185.174 17.36 184.206 17.156 183.43 16.748C182.662 16.34 182.05 15.804 181.594 15.14C181.138 14.468 180.814 13.724 180.622 12.908C180.43 12.092 180.334 11.272 180.334 10.448C180.334 8.808 180.63 7.472 181.222 6.44C181.822 5.4 182.606 4.636 183.574 4.148C184.55 3.66 185.594 3.416 186.706 3.416C187.954 3.416 188.982 3.636 189.79 4.076C190.598 4.516 191.198 5.072 191.59 5.744C191.982 6.416 192.178 7.108 192.178 7.82C192.178 9.188 191.41 9.872 189.874 9.872C189.69 9.872 189.49 9.86 189.274 9.836C189.058 9.812 188.842 9.788 188.626 9.764ZM194.549 3.776C194.853 3.712 195.197 3.672 195.581 3.656C195.965 3.64 196.269 3.632 196.493 3.632C196.733 3.632 197.021 3.64 197.357 3.656C197.701 3.672 198.033 3.712 198.353 3.776V17C198.033 17.056 197.701 17.092 197.357 17.108C197.021 17.132 196.733 17.144 196.493 17.144C196.269 17.144 195.965 17.132 195.581 17.108C195.197 17.092 194.853 17.056 194.549 17V3.776ZM205.197 14.684C205.069 14.684 204.945 14.684 204.825 14.684C204.705 14.676 204.585 14.668 204.465 14.66L203.721 17C203.489 17.056 203.237 17.096 202.965 17.12C202.693 17.152 202.409 17.168 202.113 17.168C201.793 17.168 201.469 17.144 201.141 17.096C200.821 17.048 200.557 16.98 200.349 16.892L200.217 16.688L204.885 3.776C205.301 3.712 205.701 3.672 206.085 3.656C206.477 3.64 206.833 3.632 207.153 3.632C207.449 3.632 207.769 3.64 208.113 3.656C208.457 3.672 208.845 3.712 209.277 3.776L213.813 16.82C213.533 16.948 213.177 17.044 212.745 17.108C212.313 17.18 211.965 17.216 211.701 17.216C211.261 17.216 210.837 17.132 210.429 16.964C210.021 16.796 209.713 16.352 209.505 15.632L209.205 14.66C209.077 14.668 208.953 14.676 208.833 14.684C208.713 14.684 208.585 14.684 208.449 14.684H205.197ZM205.677 10.892L205.413 11.72C205.533 11.712 205.653 11.708 205.773 11.708C205.893 11.7 206.017 11.696 206.145 11.696H207.645C207.765 11.696 207.873 11.7 207.969 11.708C208.073 11.708 208.177 11.712 208.281 11.72L208.029 10.904C207.845 10.272 207.661 9.568 207.477 8.792C207.293 8.016 207.125 7.312 206.973 6.68H206.829C206.661 7.288 206.473 7.984 206.265 8.768C206.065 9.552 205.869 10.26 205.677 10.892Z" fill="#364760"/>
</svg>
