<svg width="388" height="29" viewBox="0 0 388 29" fill="none" xmlns="http://www.w3.org/2000/svg">
<path d="M8.44698 8.4074C8.77429 7.95594 9.20319 7.40853 9.73366 6.76519C10.2641 6.11056 10.7438 5.55186 11.1727 5.08911L11.0711 4.98753C10.2811 5.08911 9.38378 5.16247 8.37926 5.20762C7.38603 5.25277 6.54517 5.27534 5.85668 5.27534H0.997749C0.918742 4.95931 0.862308 4.65457 0.828448 4.36112C0.805874 4.05638 0.794588 3.75728 0.794588 3.46382C0.794588 3.00107 0.828448 2.56653 0.896168 2.16021C0.963888 1.75389 1.05418 1.32499 1.16705 0.873522H16.1502C16.3872 1.72003 16.5565 2.35773 16.6581 2.78662C16.7709 3.21552 16.8387 3.5259 16.8612 3.71777C16.8838 3.89836 16.8951 4.05638 16.8951 4.19182C16.8951 4.49656 16.8499 4.80694 16.7596 5.12297C16.6806 5.439 16.5283 5.76067 16.3025 6.08798L8.75172 16.4492C8.42441 16.9007 8.01244 17.4311 7.51583 18.0406C7.01921 18.6388 6.55081 19.1693 6.11063 19.632L6.21221 19.7336C6.93456 19.6772 7.78106 19.6264 8.75172 19.5813C9.72238 19.5248 10.5689 19.4966 11.2912 19.4966H13.1705C13.9944 19.4966 14.7224 19.4176 15.3544 19.2596C15.9865 19.1016 16.5339 18.9153 16.9967 18.7009C17.0982 19.0282 17.1829 19.412 17.2506 19.8521C17.3183 20.2923 17.3522 20.7212 17.3522 21.1388C17.3522 22.1095 17.0192 22.8318 16.3533 23.3059C15.6987 23.7686 14.8522 24 13.8138 24H0.862308C0.68172 23.1986 0.54628 22.5948 0.455986 22.1885C0.376979 21.7822 0.326189 21.4831 0.303616 21.2912C0.281042 21.088 0.269755 20.9074 0.269755 20.7494C0.269755 20.4221 0.320546 20.0835 0.422126 19.7336C0.534993 19.3724 0.698651 19.0451 0.913098 18.7517L8.44698 8.4074ZM19.2452 14.7054C19.2452 11.6806 20.024 9.28212 21.5815 7.51011C23.1504 5.72681 25.436 4.83516 28.4382 4.83516C31.4856 4.83516 33.7825 5.72117 35.3288 7.49318C36.8863 9.25391 37.6651 11.658 37.6651 14.7054C37.6651 17.7528 36.8863 20.1512 35.3288 21.9007C33.7712 23.6388 31.4743 24.5079 28.4382 24.5079C25.3908 24.5079 23.094 23.6275 21.5477 21.8668C20.0127 20.1061 19.2452 17.7189 19.2452 14.7054ZM24.7136 14.7054C24.7136 15.3487 24.7531 16.0146 24.8321 16.7031C24.9224 17.3803 25.0917 18.0124 25.34 18.5993C25.5996 19.1862 25.9777 19.6659 26.4743 20.0384C26.9709 20.3995 27.6312 20.5801 28.4552 20.5801C29.2791 20.5801 29.9394 20.3995 30.436 20.0384C30.9326 19.6659 31.305 19.1862 31.5534 18.5993C31.8129 18.0124 31.9822 17.3803 32.0613 16.7031C32.1515 16.0146 32.1967 15.3487 32.1967 14.7054C32.1967 14.0508 32.1515 13.3792 32.0613 12.6907C31.9822 11.9909 31.8129 11.3476 31.5534 10.7607C31.305 10.1625 30.9326 9.6828 30.436 9.32163C29.9394 8.94917 29.2791 8.76294 28.4552 8.76294C27.6312 8.76294 26.9709 8.94917 26.4743 9.32163C25.9777 9.6828 25.5996 10.1625 25.34 10.7607C25.0917 11.3476 24.9224 11.9909 24.8321 12.6907C24.7531 13.3792 24.7136 14.0508 24.7136 14.7054ZM47.7197 15.4842C47.6407 15.3036 47.5166 15.0214 47.3473 14.6377C47.178 14.2426 46.9974 13.8194 46.8055 13.3679C46.6136 12.9164 46.433 12.4932 46.2637 12.0982C46.1057 11.7031 45.9816 11.4153 45.8913 11.2347L45.7728 11.2855C45.8179 12.1772 45.8631 13.1422 45.9082 14.1806C45.9533 15.2076 45.9872 16.1501 46.0098 17.0079C46.0436 17.8544 46.0606 18.4695 46.0606 18.8533V24C45.6204 24.079 45.1971 24.1298 44.7908 24.1524C44.3845 24.1862 44.0064 24.2032 43.6565 24.2032C43.3405 24.2032 42.9454 24.1862 42.4714 24.1524C42.0086 24.1298 41.5685 24.079 41.1509 24V5.46157C41.5685 5.35999 42.0876 5.28098 42.7084 5.22455C43.3292 5.16812 43.8089 5.1399 44.1475 5.1399C44.4974 5.1399 44.994 5.15119 45.6373 5.17376C46.2807 5.18505 46.8111 5.24148 47.2287 5.34306L51.2073 13.825C51.2863 13.983 51.4161 14.2709 51.5967 14.6885C51.7886 15.1061 51.9917 15.5632 52.2062 16.0598C52.4206 16.5564 52.6182 17.0248 52.7987 17.465C52.9906 17.8939 53.1317 18.2099 53.222 18.4131L53.3744 18.3792C53.3292 17.6343 53.2671 16.7652 53.1881 15.772C53.1204 14.7788 53.0583 13.8194 53.0019 12.8939C52.9455 11.9684 52.9173 11.2291 52.9173 10.676V8.03494C52.9173 6.83855 53.1768 6.05412 53.696 5.68166C54.2152 5.29791 54.9884 5.10604 56.0155 5.10604H57.7593L57.9624 5.34306V23.8984C57.5222 24 56.9918 24.0734 56.371 24.1185C55.7502 24.1749 55.2762 24.2032 54.9489 24.2032C54.7231 24.2032 54.4127 24.1975 54.0177 24.1862C53.6227 24.1749 53.2163 24.158 52.7987 24.1354C52.3924 24.1129 52.0538 24.0677 51.7829 24L47.7197 15.4842ZM67.5829 20.7325C67.4023 20.7325 67.2274 20.7325 67.0581 20.7325C66.8888 20.7212 66.7195 20.7099 66.5502 20.6986L65.5005 24C65.1732 24.079 64.8177 24.1354 64.4339 24.1693C64.0502 24.2144 63.6495 24.237 63.2319 24.237C62.7804 24.237 62.3233 24.2032 61.8606 24.1354C61.4091 24.0677 61.0366 23.9718 60.7432 23.8476L60.5569 23.5598L67.1427 5.34306C67.7297 5.25277 68.294 5.19633 68.8358 5.17376C69.3888 5.15119 69.8911 5.1399 70.3425 5.1399C70.7601 5.1399 71.2116 5.15119 71.6969 5.17376C72.1823 5.19633 72.7297 5.25277 73.3392 5.34306L79.7387 23.746C79.3437 23.9266 78.8414 24.0621 78.2319 24.1524C77.6225 24.254 77.1315 24.3047 76.759 24.3047C76.1383 24.3047 75.5401 24.1862 74.9644 23.9492C74.3888 23.7122 73.9543 23.0858 73.6608 22.07L73.2376 20.6986C73.057 20.7099 72.882 20.7212 72.7127 20.7325C72.5434 20.7325 72.3628 20.7325 72.171 20.7325H67.5829ZM68.2601 15.3826L67.8877 16.5508C68.057 16.5395 68.2263 16.5338 68.3956 16.5338C68.5649 16.5226 68.7398 16.5169 68.9204 16.5169H71.0367C71.206 16.5169 71.3583 16.5226 71.4938 16.5338C71.6405 16.5338 71.7872 16.5395 71.934 16.5508L71.5784 15.3995C71.3188 14.5079 71.0592 13.5146 70.7996 12.4198C70.54 11.325 70.303 10.3318 70.0886 9.44014H69.8854C69.6484 10.2979 69.3832 11.2799 69.0897 12.386C68.8075 13.4921 68.531 14.4909 68.2601 15.3826ZM94.4991 20.7325C94.3185 20.7325 94.1436 20.7325 93.9743 20.7325C93.805 20.7212 93.6357 20.7099 93.4664 20.6986L92.4167 24C92.0894 24.079 91.7338 24.1354 91.3501 24.1693C90.9663 24.2144 90.5657 24.237 90.1481 24.237C89.6966 24.237 89.2395 24.2032 88.7767 24.1354C88.3253 24.0677 87.9528 23.9718 87.6593 23.8476L87.4731 23.5598L94.0589 5.34306C94.6458 5.25277 95.2102 5.19633 95.7519 5.17376C96.305 5.15119 96.8072 5.1399 97.2587 5.1399C97.6763 5.1399 98.1278 5.15119 98.6131 5.17376C99.0984 5.19633 99.6458 5.25277 100.255 5.34306L106.655 23.746C106.26 23.9266 105.758 24.0621 105.148 24.1524C104.539 24.254 104.048 24.3047 103.675 24.3047C103.054 24.3047 102.456 24.1862 101.881 23.9492C101.305 23.7122 100.87 23.0858 100.577 22.07L100.154 20.6986C99.9731 20.7099 99.7982 20.7212 99.6289 20.7325C99.4596 20.7325 99.279 20.7325 99.0871 20.7325H94.4991ZM95.1763 15.3826L94.8038 16.5508C94.9731 16.5395 95.1424 16.5338 95.3117 16.5338C95.481 16.5226 95.656 16.5169 95.8366 16.5169H97.9528C98.1221 16.5169 98.2745 16.5226 98.4099 16.5338C98.5567 16.5338 98.7034 16.5395 98.8501 16.5508L98.4946 15.3995C98.235 14.5079 97.9754 13.5146 97.7158 12.4198C97.4562 11.325 97.2192 10.3318 97.0047 9.44014H96.8016C96.5646 10.2979 96.2993 11.2799 96.0059 12.386C95.7237 13.4921 95.4472 14.4909 95.1763 15.3826ZM129.846 19.6659C129.779 21.3138 129.491 22.465 128.983 23.1196C128.475 23.7743 127.572 24.1016 126.274 24.1016H119.705C118.735 24.1016 117.973 23.8307 117.42 23.2889C116.878 22.7359 116.607 21.9966 116.607 21.0711V5.37692L116.81 5.17376H118.842C119.869 5.17376 120.648 5.43335 121.178 5.95254C121.709 6.46045 121.974 7.31259 121.974 8.50898V19.8352C123.136 19.7223 124.181 19.6659 125.106 19.6659H129.846ZM137.75 20.7325C137.57 20.7325 137.395 20.7325 137.225 20.7325C137.056 20.7212 136.887 20.7099 136.717 20.6986L135.668 24C135.34 24.079 134.985 24.1354 134.601 24.1693C134.217 24.2144 133.817 24.237 133.399 24.237C132.948 24.237 132.491 24.2032 132.028 24.1354C131.576 24.0677 131.204 23.9718 130.91 23.8476L130.724 23.5598L137.31 5.34306C137.897 5.25277 138.461 5.19633 139.003 5.17376C139.556 5.15119 140.058 5.1399 140.51 5.1399C140.927 5.1399 141.379 5.15119 141.864 5.17376C142.349 5.19633 142.897 5.25277 143.506 5.34306L149.906 23.746C149.511 23.9266 149.009 24.0621 148.399 24.1524C147.79 24.254 147.299 24.3047 146.926 24.3047C146.305 24.3047 145.707 24.1862 145.132 23.9492C144.556 23.7122 144.121 23.0858 143.828 22.07L143.405 20.6986C143.224 20.7099 143.049 20.7212 142.88 20.7325C142.711 20.7325 142.53 20.7325 142.338 20.7325H137.75ZM138.427 15.3826L138.055 16.5508C138.224 16.5395 138.393 16.5338 138.563 16.5338C138.732 16.5226 138.907 16.5169 139.088 16.5169H141.204C141.373 16.5169 141.526 16.5226 141.661 16.5338C141.808 16.5338 141.954 16.5395 142.101 16.5508L141.746 15.3995C141.486 14.5079 141.226 13.5146 140.967 12.4198C140.707 11.325 140.47 10.3318 140.256 9.44014H140.053C139.816 10.2979 139.55 11.2799 139.257 12.386C138.975 13.4921 138.698 14.4909 138.427 15.3826ZM158.555 14.7054C158.555 11.6806 159.333 9.28212 160.891 7.51011C162.46 5.72681 164.745 4.83516 167.748 4.83516C170.795 4.83516 173.092 5.72117 174.638 7.49318C176.196 9.25391 176.974 11.658 176.974 14.7054C176.974 16.5226 176.647 18.1478 175.993 19.5813C175.338 21.0147 174.379 22.0925 173.114 22.8149C174.006 23.5598 174.836 23.9831 175.603 24.0847C176.382 24.1975 177.014 24.2709 177.499 24.3047C177.432 25.5463 177.053 26.4831 176.365 27.1151C175.676 27.7472 174.864 28.0632 173.927 28.0632C173.464 28.0632 172.923 27.9786 172.302 27.8093C171.692 27.64 171.043 27.2167 170.355 26.5395L168.137 24.491C168.103 24.5023 168.064 24.5079 168.018 24.5079C164.858 24.5079 162.488 23.6501 160.908 21.9345C159.339 20.219 158.555 17.8092 158.555 14.7054ZM164.023 14.7054C164.023 15.3487 164.062 16.0146 164.141 16.7031C164.232 17.3803 164.401 18.0124 164.649 18.5993C164.909 19.1862 165.287 19.6659 165.784 20.0384C166.28 20.3995 166.941 20.5801 167.764 20.5801C168.588 20.5801 169.249 20.3995 169.745 20.0384C170.242 19.6659 170.614 19.1862 170.863 18.5993C171.122 18.0124 171.292 17.3803 171.371 16.7031C171.461 16.0146 171.506 15.3487 171.506 14.7054C171.506 14.0508 171.461 13.3792 171.371 12.6907C171.292 11.9909 171.122 11.3476 170.863 10.7607C170.614 10.1625 170.242 9.6828 169.745 9.32163C169.249 8.94917 168.588 8.76294 167.764 8.76294C166.941 8.76294 166.28 8.94917 165.784 9.32163C165.287 9.6828 164.909 10.1625 164.649 10.7607C164.401 11.3476 164.232 11.9909 164.141 12.6907C164.062 13.3792 164.023 14.0508 164.023 14.7054ZM196.778 17.0079C196.778 19.3442 196.079 21.1783 194.679 22.5102C193.291 23.842 191.231 24.5079 188.5 24.5079C185.768 24.5079 183.703 23.842 182.303 22.5102C180.915 21.1783 180.221 19.3442 180.221 17.0079V5.34306L180.424 5.1399H182.354C183.381 5.1399 184.171 5.39949 184.724 5.91868C185.289 6.43787 185.571 7.31259 185.571 8.54284V16.991C185.571 18.018 185.785 18.825 186.214 19.412C186.643 19.9989 187.405 20.2923 188.5 20.2923C189.606 20.2923 190.368 19.9989 190.785 19.412C191.203 18.825 191.412 18.018 191.412 16.991V5.34306C191.863 5.25277 192.326 5.19633 192.8 5.17376C193.274 5.15119 193.686 5.1399 194.036 5.1399C194.352 5.1399 194.781 5.15683 195.322 5.19069C195.864 5.21326 196.35 5.2697 196.778 5.35999V17.0079ZM215.53 19.7506C215.53 21.3646 215.276 22.4876 214.768 23.1196C214.271 23.7517 213.425 24.0677 212.228 24.0677H204.423C203.464 24.0677 202.708 23.7968 202.155 23.2551C201.602 22.702 201.325 21.9627 201.325 21.0372V5.52929L201.511 5.34306H214.903C214.982 5.72681 215.027 6.09363 215.039 6.44352C215.05 6.7934 215.055 7.12636 215.055 7.44239C215.055 7.74713 215.022 8.09138 214.954 8.47512C214.897 8.85887 214.796 9.24826 214.649 9.6433H208.724C208.25 9.6433 207.533 9.63766 206.574 9.62637C206.585 9.97626 206.59 10.2754 206.59 10.5237C206.602 10.772 206.607 11.0711 206.607 11.421V12.5383C207.544 12.5271 208.25 12.5214 208.724 12.5214H213.058C213.171 12.8262 213.244 13.176 213.278 13.5711C213.323 13.9548 213.346 14.2821 213.346 14.553C213.346 14.869 213.323 15.2246 213.278 15.6196C213.244 16.0034 213.171 16.3533 213.058 16.6693H208.724C208.509 16.6693 208.21 16.6693 207.826 16.6693C207.443 16.6693 207.036 16.6693 206.607 16.6693V17.7697C206.607 18.1873 206.602 18.5316 206.59 18.8025C206.579 19.0733 206.574 19.412 206.574 19.8183V19.8521C206.969 19.8296 207.335 19.807 207.674 19.7844C208.013 19.7618 208.425 19.7506 208.91 19.7506H215.53ZM241.485 11.7426C241.485 13.2099 241.152 14.4289 240.486 15.3995C239.831 16.3589 238.928 17.0756 237.777 17.5496C236.626 18.0124 235.317 18.2438 233.849 18.2438H232.004V24C231.553 24.079 231.09 24.1298 230.616 24.1524C230.142 24.1862 229.735 24.2032 229.397 24.2032C229.081 24.2032 228.652 24.1862 228.11 24.1524C227.568 24.1298 227.083 24.079 226.654 24V5.51236L226.84 5.3092C227.755 5.28663 228.855 5.25841 230.142 5.22455C231.428 5.19069 232.664 5.17376 233.849 5.17376C235.328 5.17376 236.643 5.39949 237.794 5.85096C238.945 6.30243 239.848 7.01349 240.503 7.98415C241.158 8.95481 241.485 10.2076 241.485 11.7426ZM232.004 9.1354V14.316C232.309 14.3047 232.585 14.2991 232.834 14.2991C233.082 14.2878 233.268 14.2821 233.392 14.2821C234.137 14.2821 234.696 14.1467 235.068 13.8758C235.452 13.5936 235.706 13.255 235.83 12.86C235.954 12.4537 236.016 12.0699 236.016 11.7088C236.016 11.3702 235.954 11.0033 235.83 10.6083C235.706 10.2133 235.452 9.87468 235.068 9.59251C234.696 9.31034 234.137 9.16926 233.392 9.16926C233.11 9.16926 232.907 9.16926 232.783 9.16926C232.659 9.15797 232.399 9.14668 232.004 9.1354ZM258.946 19.7506C258.946 21.3646 258.692 22.4876 258.184 23.1196C257.687 23.7517 256.841 24.0677 255.645 24.0677H247.84C246.88 24.0677 246.124 23.7968 245.571 23.2551C245.018 22.702 244.742 21.9627 244.742 21.0372V5.52929L244.928 5.34306H258.319C258.398 5.72681 258.444 6.09363 258.455 6.44352C258.466 6.7934 258.472 7.12636 258.472 7.44239C258.472 7.74713 258.438 8.09138 258.37 8.47512C258.314 8.85887 258.212 9.24826 258.066 9.6433H252.14C251.666 9.6433 250.949 9.63766 249.99 9.62637C250.001 9.97626 250.007 10.2754 250.007 10.5237C250.018 10.772 250.024 11.0711 250.024 11.421V12.5383C250.961 12.5271 251.666 12.5214 252.14 12.5214H256.474C256.587 12.8262 256.66 13.176 256.694 13.5711C256.739 13.9548 256.762 14.2821 256.762 14.553C256.762 14.869 256.739 15.2246 256.694 15.6196C256.66 16.0034 256.587 16.3533 256.474 16.6693H252.14C251.926 16.6693 251.626 16.6693 251.243 16.6693C250.859 16.6693 250.453 16.6693 250.024 16.6693V17.7697C250.024 18.1873 250.018 18.5316 250.007 18.8025C249.996 19.0733 249.99 19.412 249.99 19.8183V19.8521C250.385 19.8296 250.752 19.807 251.09 19.7844C251.429 19.7618 251.841 19.7506 252.326 19.7506H258.946ZM277.834 11.0146C277.834 11.8837 277.636 12.6569 277.241 13.3341C276.846 14.0113 276.35 14.5699 275.751 15.0101C275.164 15.4503 274.578 15.7325 273.991 15.8566C274.6 16.0598 275.102 16.3702 275.497 16.7878C275.904 17.2054 276.254 17.7415 276.547 18.3961L277.427 20.4108C277.631 20.8736 277.862 21.3025 278.122 21.6975C278.381 22.0813 278.669 22.4086 278.985 22.6795C278.658 23.0858 278.167 23.4639 277.512 23.8138C276.857 24.1524 276.146 24.3217 275.379 24.3217C274.623 24.3217 274.008 24.1411 273.534 23.7799C273.071 23.4074 272.664 22.8149 272.315 22.0023L270.825 18.5824C270.588 18.0293 270.294 17.6964 269.944 17.5835C269.594 17.4706 269.143 17.4142 268.59 17.4142H267.93V24C267.478 24.079 267.01 24.1298 266.524 24.1524C266.05 24.1862 265.644 24.2032 265.306 24.2032C264.989 24.2032 264.572 24.1862 264.053 24.1524C263.533 24.1298 263.059 24.079 262.631 24V5.51236L262.817 5.3092C264.182 5.27534 265.464 5.24712 266.66 5.22455C267.868 5.19069 269.07 5.17376 270.266 5.17376C271.62 5.17376 272.873 5.35435 274.024 5.71552C275.176 6.06541 276.096 6.66925 276.784 7.52704C277.484 8.37354 277.834 9.53608 277.834 11.0146ZM267.93 8.99996V13.3848C268.325 13.3736 268.686 13.3679 269.013 13.3679C269.352 13.3566 269.6 13.351 269.758 13.351C270.774 13.351 271.462 13.1309 271.824 12.6907C272.185 12.2505 272.365 11.737 272.365 11.1501C272.365 10.5745 272.185 10.0778 271.824 9.66023C271.462 9.24262 270.859 9.03382 270.012 9.03382C269.606 9.03382 269.256 9.02817 268.962 9.01689C268.669 9.0056 268.325 8.99996 267.93 8.99996ZM284.753 11.6918C284.753 11.3307 284.758 10.9977 284.77 10.693C284.781 10.3769 284.786 10.027 284.786 9.6433C284.549 9.6433 284.222 9.64894 283.805 9.66023C283.398 9.67152 283.077 9.67716 282.84 9.67716H279.707C279.617 9.27084 279.561 8.89273 279.538 8.54284C279.516 8.18167 279.504 7.85435 279.504 7.5609C279.504 7.26745 279.516 6.9232 279.538 6.52817C279.561 6.12184 279.617 5.72681 279.707 5.34306H295.029C295.108 5.6478 295.165 5.99205 295.198 6.3758C295.244 6.75954 295.266 7.06993 295.266 7.30695C295.266 8.07445 295.063 8.66136 294.657 9.06768C294.25 9.474 293.573 9.67716 292.625 9.67716H291.931C291.694 9.67716 291.378 9.67152 290.983 9.66023C290.599 9.64894 290.3 9.6433 290.086 9.6433C290.086 10.027 290.091 10.3769 290.103 10.693C290.114 10.9977 290.119 11.3307 290.119 11.6918V24C289.803 24.0677 289.369 24.1185 288.816 24.1524C288.263 24.1862 287.8 24.2032 287.428 24.2032C287.078 24.2032 286.637 24.1862 286.107 24.1524C285.577 24.1185 285.125 24.0677 284.753 24V11.6918ZM311.753 19.7506C311.753 21.3646 311.499 22.4876 310.991 23.1196C310.495 23.7517 309.648 24.0677 308.452 24.0677H300.647C299.688 24.0677 298.931 23.7968 298.378 23.2551C297.825 22.702 297.549 21.9627 297.549 21.0372V5.52929L297.735 5.34306H311.127C311.206 5.72681 311.251 6.09363 311.262 6.44352C311.273 6.7934 311.279 7.12636 311.279 7.44239C311.279 7.74713 311.245 8.09138 311.178 8.47512C311.121 8.85887 311.02 9.24826 310.873 9.6433H304.947C304.473 9.6433 303.757 9.63766 302.797 9.62637C302.808 9.97626 302.814 10.2754 302.814 10.5237C302.825 10.772 302.831 11.0711 302.831 11.421V12.5383C303.768 12.5271 304.473 12.5214 304.947 12.5214H309.281C309.394 12.8262 309.468 13.176 309.501 13.5711C309.547 13.9548 309.569 14.2821 309.569 14.553C309.569 14.869 309.547 15.2246 309.501 15.6196C309.468 16.0034 309.394 16.3533 309.281 16.6693H304.947C304.733 16.6693 304.434 16.6693 304.05 16.6693C303.666 16.6693 303.26 16.6693 302.831 16.6693V17.7697C302.831 18.1873 302.825 18.5316 302.814 18.8025C302.803 19.0733 302.797 19.412 302.797 19.8183V19.8521C303.192 19.8296 303.559 19.807 303.898 19.7844C304.236 19.7618 304.648 19.7506 305.134 19.7506H311.753ZM322.007 15.4842C321.928 15.3036 321.804 15.0214 321.634 14.6377C321.465 14.2426 321.284 13.8194 321.092 13.3679C320.901 12.9164 320.72 12.4932 320.551 12.0982C320.393 11.7031 320.269 11.4153 320.178 11.2347L320.06 11.2855C320.105 12.1772 320.15 13.1422 320.195 14.1806C320.24 15.2076 320.274 16.1501 320.297 17.0079C320.331 17.8544 320.348 18.4695 320.348 18.8533V24C319.907 24.079 319.484 24.1298 319.078 24.1524C318.671 24.1862 318.293 24.2032 317.943 24.2032C317.627 24.2032 317.232 24.1862 316.758 24.1524C316.296 24.1298 315.855 24.079 315.438 24V5.46157C315.855 5.35999 316.375 5.28098 316.995 5.22455C317.616 5.16812 318.096 5.1399 318.434 5.1399C318.784 5.1399 319.281 5.15119 319.924 5.17376C320.568 5.18505 321.098 5.24148 321.516 5.34306L325.494 13.825C325.573 13.983 325.703 14.2709 325.884 14.6885C326.076 15.1061 326.279 15.5632 326.493 16.0598C326.708 16.5564 326.905 17.0248 327.086 17.465C327.278 17.8939 327.419 18.2099 327.509 18.4131L327.661 18.3792C327.616 17.6343 327.554 16.7652 327.475 15.772C327.407 14.7788 327.345 13.8194 327.289 12.8939C327.232 11.9684 327.204 11.2291 327.204 10.676V8.03494C327.204 6.83855 327.464 6.05412 327.983 5.68166C328.502 5.29791 329.275 5.10604 330.302 5.10604H332.046L332.249 5.34306V23.8984C331.809 24 331.279 24.0734 330.658 24.1185C330.037 24.1749 329.563 24.2032 329.236 24.2032C329.01 24.2032 328.7 24.1975 328.305 24.1862C327.91 24.1749 327.503 24.158 327.086 24.1354C326.679 24.1129 326.341 24.0677 326.07 24L322.007 15.4842ZM351.334 19.7506C351.334 21.3646 351.08 22.4876 350.572 23.1196C350.075 23.7517 349.229 24.0677 348.032 24.0677H340.228C339.268 24.0677 338.512 23.7968 337.959 23.2551C337.406 22.702 337.129 21.9627 337.129 21.0372V5.52929L337.316 5.34306H350.707C350.786 5.72681 350.832 6.09363 350.843 6.44352C350.854 6.7934 350.86 7.12636 350.86 7.44239C350.86 7.74713 350.826 8.09138 350.758 8.47512C350.702 8.85887 350.6 9.24826 350.453 9.6433H344.528C344.054 9.6433 343.337 9.63766 342.378 9.62637C342.389 9.97626 342.395 10.2754 342.395 10.5237C342.406 10.772 342.412 11.0711 342.412 11.421V12.5383C343.348 12.5271 344.054 12.5214 344.528 12.5214H348.862C348.975 12.8262 349.048 13.176 349.082 13.5711C349.127 13.9548 349.15 14.2821 349.15 14.553C349.15 14.869 349.127 15.2246 349.082 15.6196C349.048 16.0034 348.975 16.3533 348.862 16.6693H344.528C344.313 16.6693 344.014 16.6693 343.631 16.6693C343.247 16.6693 342.841 16.6693 342.412 16.6693V17.7697C342.412 18.1873 342.406 18.5316 342.395 18.8025C342.383 19.0733 342.378 19.412 342.378 19.8183V19.8521C342.773 19.8296 343.14 19.807 343.478 19.7844C343.817 19.7618 344.229 19.7506 344.714 19.7506H351.334ZM365.048 13.7912C365.048 12.3578 364.856 11.2065 364.473 10.3374C364.089 9.45707 363.316 9.01689 362.153 9.01689C360.946 9.01689 360.088 9.5135 359.58 10.5067C359.072 11.5 358.818 12.9277 358.818 14.79C358.818 16.2122 358.999 17.307 359.36 18.0745C359.732 18.8307 360.206 19.3555 360.782 19.649C361.357 19.9424 361.967 20.0892 362.61 20.0892C363.446 20.0892 364.281 19.9086 365.116 19.5474C365.962 19.1749 366.719 18.7404 367.385 18.2438C367.746 18.4244 368.096 18.7122 368.434 19.1072C368.773 19.5022 369.066 19.9255 369.315 20.377C369.563 20.8284 369.721 21.2404 369.789 21.6129C368.852 22.4142 367.712 23.0971 366.369 23.6614C365.037 24.2257 363.519 24.5079 361.815 24.5079C360.178 24.5079 358.812 24.2201 357.718 23.6445C356.634 23.0688 355.771 22.3126 355.127 21.3758C354.484 20.4278 354.027 19.3781 353.756 18.2268C353.485 17.0756 353.35 15.9187 353.35 14.7562C353.35 12.4424 353.767 10.5575 354.602 9.10154C355.449 7.63426 356.555 6.55638 357.921 5.86789C359.298 5.1794 360.771 4.83516 362.339 4.83516C364.1 4.83516 365.55 5.14554 366.69 5.76631C367.83 6.38708 368.677 7.17151 369.23 8.11959C369.783 9.06768 370.06 10.044 370.06 11.0485C370.06 12.9785 368.976 13.9435 366.809 13.9435C366.549 13.9435 366.267 13.9266 365.962 13.8927C365.658 13.8589 365.353 13.825 365.048 13.7912ZM387.542 19.7506C387.542 21.3646 387.288 22.4876 386.78 23.1196C386.283 23.7517 385.437 24.0677 384.24 24.0677H376.436C375.476 24.0677 374.72 23.7968 374.167 23.2551C373.614 22.702 373.337 21.9627 373.337 21.0372V5.52929L373.524 5.34306H386.915C386.994 5.72681 387.039 6.09363 387.051 6.44352C387.062 6.7934 387.068 7.12636 387.068 7.44239C387.068 7.74713 387.034 8.09138 386.966 8.47512C386.91 8.85887 386.808 9.24826 386.661 9.6433H380.736C380.262 9.6433 379.545 9.63766 378.586 9.62637C378.597 9.97626 378.603 10.2754 378.603 10.5237C378.614 10.772 378.62 11.0711 378.62 11.421V12.5383C379.556 12.5271 380.262 12.5214 380.736 12.5214H385.07C385.183 12.8262 385.256 13.176 385.29 13.5711C385.335 13.9548 385.358 14.2821 385.358 14.553C385.358 14.869 385.335 15.2246 385.29 15.6196C385.256 16.0034 385.183 16.3533 385.07 16.6693H380.736C380.521 16.6693 380.222 16.6693 379.838 16.6693C379.455 16.6693 379.048 16.6693 378.62 16.6693V17.7697C378.62 18.1873 378.614 18.5316 378.603 18.8025C378.591 19.0733 378.586 19.412 378.586 19.8183V19.8521C378.981 19.8296 379.348 19.807 379.686 19.7844C380.025 19.7618 380.437 19.7506 380.922 19.7506H387.542Z" fill="white" fill-opacity="0.87"/>
</svg>
